<svg id="Grupo_141764" data-name="Grupo 141764" xmlns="http://www.w3.org/2000/svg" xmlns:xlink="http://www.w3.org/1999/xlink" width="400" height="381.023" viewBox="0 0 400 381.023">
  <defs>
    <clipPath id="clip-path">
      <rect id="Rectángulo_5217" data-name="Rectángulo 5217" width="400" height="381.023" fill="none"/>
    </clipPath>
    <clipPath id="clip-path-3">
      <path id="Trazado_117503" data-name="Trazado 117503" d="M218.1,47.141c-4.743,7.344-11.736,17.757-16.491,25.491a12.36,12.36,0,0,0-1.838,3.515c-.876,2.386-.193,4.5,1.723,5.412l.038.036.232.081a4.791,4.791,0,0,0,.63.2c2.294.681,5.723,1.3,7.82,1.7,8.364,1.6,20.829,2.593,26.683,4.827,2.3-1.687,2.977-4.818,1.474-6.7-6.385-3.043-15.01-7-18.627-8.336a10.325,10.325,0,0,0-3.02-.507c5.389-4.86,11.1-10.122,13.313-14.608,1.57-3.174,1.823-7.584,2.915-10.341-8.8,2.574-10.481-2.734-12.1-4.6-1.385,2.031-1.353,1.655-2.755,3.828" transform="translate(-199.394 -43.313)" fill="none"/>
    </clipPath>
    <linearGradient id="linear-gradient" x1="-5.269" y1="7.407" x2="-5.242" y2="7.407" gradientUnits="objectBoundingBox">
      <stop offset="0" stop-color="#324179"/>
      <stop offset="1" stop-color="#0c124d"/>
    </linearGradient>
    <clipPath id="clip-path-5">
      <rect id="Rectángulo_5151" data-name="Rectángulo 5151" width="25.939" height="42.213" fill="none"/>
    </clipPath>
    <clipPath id="clip-path-6">
      <path id="Trazado_117506" data-name="Trazado 117506" d="M220.895,55.4c-1.784,7.276-10.288,22.719-10.93,27.912a5.613,5.613,0,0,0,.51,2.936,7.805,7.805,0,0,0,.2.761c3.614,7,12.6,22.771,15.775,29.784,2.8.591,5.637-1.044,5.884-3.246-2.043-6.724-5.36-17.793-7-21.323a47.012,47.012,0,0,0-4.928-7.816c5.34-7.471,13.8-19.231,16.241-26.126,3.324-9.379-.491-14.731-5.612-17.678a3.735,3.735,0,0,0-2.654-.221c-.848.15-1.583.3-2.051-.268A74.9,74.9,0,0,0,220.895,55.4" transform="translate(-209.944 -40.12)" fill="none"/>
    </clipPath>
    <linearGradient id="linear-gradient-2" x1="-7.563" y1="4.366" x2="-7.527" y2="4.366" xlink:href="#linear-gradient"/>
    <clipPath id="clip-path-8">
      <rect id="Rectángulo_5154" data-name="Rectángulo 5154" width="271.611" height="152.481" fill="none"/>
    </clipPath>
    <clipPath id="clip-path-9">
      <path id="Trazado_117508" data-name="Trazado 117508" d="M137.223,3.984l-4.162,1.627C131.548,13.432,347.4,372.292,349.331,374.28l3.716-1.4c2.438-.961,3.718-3.5,4.076-5.967L388.49,152.8a.1.1,0,0,0,0-.024,15.291,15.291,0,0,0-2.551-10.357,12.051,12.051,0,0,0-4.19-4.04L142.768,4.6a7.163,7.163,0,0,0-3.513-.987,5.753,5.753,0,0,0-2.032.367" transform="translate(-133.053 -3.617)" fill="none"/>
    </clipPath>
    <linearGradient id="linear-gradient-3" x1="-0.167" y1="1.11" x2="-0.164" y2="1.11" gradientUnits="objectBoundingBox">
      <stop offset="0" stop-color="#d1e8ff"/>
      <stop offset="1" stop-color="#eaefff"/>
    </linearGradient>
    <clipPath id="clip-path-10">
      <path id="Trazado_117509" data-name="Trazado 117509" d="M131.839,11.416,100.472,225.524c-.8,5.454,2.206,11.911,6.726,14.414L346.183,373.716c4.519,2.506,8.833.106,9.632-5.345l31.368-214.109c.8-5.452-2.219-11.915-6.738-14.42L141.461,6.063a7.311,7.311,0,0,0-3.533-.992c-3.047,0-5.5,2.358-6.089,6.345" transform="translate(-100.343 -5.071)" fill="none"/>
    </clipPath>
    <clipPath id="clip-path-12">
      <rect id="Rectángulo_5159" data-name="Rectángulo 5159" width="68.681" height="85.819" fill="none"/>
    </clipPath>
    <clipPath id="clip-path-13">
      <path id="Trazado_117514" data-name="Trazado 117514" d="M336.331,199.554,293.4,175.986a8.12,8.12,0,0,0-6.965-.782c-2.612,1.017-4.566,3.659-5.129,7.509l-4.866,34.912c-1,6.853,2.773,14.967,8.453,18.117l42.932,23.568c5.682,3.148,11.1.132,12.107-6.718l4.865-34.914c1.005-6.851-2.788-14.975-8.467-18.123" transform="translate(-276.279 -174.739)" fill="none" clip-rule="evenodd"/>
    </clipPath>
    <linearGradient id="linear-gradient-4" x1="-2.546" y1="1.957" x2="-2.536" y2="1.957" gradientUnits="objectBoundingBox">
      <stop offset="0" stop-color="#965cf2"/>
      <stop offset="1" stop-color="#ff8adc"/>
    </linearGradient>
    <clipPath id="clip-path-14">
      <rect id="Rectángulo_5161" data-name="Rectángulo 5161" width="118.283" height="119.164" fill="none"/>
    </clipPath>
    <clipPath id="clip-path-15">
      <path id="Trazado_117515" data-name="Trazado 117515" d="M275.61,84.483l94.129,45.911-2.492,2.546-9.035,63.147c-.923,6.476-5.851,9.348-11,6.4l-88.109-50.375-7.652-17.071Z" transform="translate(-251.456 -84.483)" fill="none" clip-rule="evenodd"/>
    </clipPath>
    <linearGradient id="linear-gradient-5" x1="-1.493" y1="1.879" x2="-1.487" y2="1.879" xlink:href="#linear-gradient-4"/>
    <clipPath id="clip-path-16">
      <rect id="Rectángulo_5163" data-name="Rectángulo 5163" width="79.386" height="102.87" fill="none"/>
    </clipPath>
    <clipPath id="clip-path-17">
      <path id="Trazado_117516" data-name="Trazado 117516" d="M170.311,176.774l-58.195-32.258-1.946,2.97-9.556,65.088,60.276,33.411c6.381,3.535,12.468.149,13.6-7.544l5.333-41.316c1.129-7.693-3.13-16.815-9.508-20.351" transform="translate(-100.614 -144.516)" fill="none" clip-rule="evenodd"/>
    </clipPath>
    <linearGradient id="linear-gradient-6" x1="-0.659" y1="1.97" x2="-0.65" y2="1.97" xlink:href="#linear-gradient-4"/>
    <clipPath id="clip-path-18">
      <path id="Trazado_117518" data-name="Trazado 117518" d="M41.257,105.374c-2.812,1.1-4.914,3.939-5.521,8.084l-5.114,39.608c-1.081,7.377,2.985,16.114,9.1,19.5l120.622,66.862c6.117,3.389,11.954.143,13.034-7.233l5.114-39.611c1.082-7.375-3-16.121-9.116-19.51L48.756,106.215a9.9,9.9,0,0,0-4.785-1.343,7.443,7.443,0,0,0-2.714.5" transform="translate(-30.448 -104.872)" fill="none"/>
    </clipPath>
    <linearGradient id="linear-gradient-7" x1="-0.096" y1="1.559" x2="-0.09" y2="1.559" gradientUnits="objectBoundingBox">
      <stop offset="0" stop-color="#f6f6f6"/>
      <stop offset="1" stop-color="#ffeed6"/>
    </linearGradient>
    <clipPath id="clip-path-20">
      <rect id="Rectángulo_5166" data-name="Rectángulo 5166" width="94.058" height="72.614" fill="none"/>
    </clipPath>
    <clipPath id="clip-path-21">
      <rect id="Rectángulo_5168" data-name="Rectángulo 5168" width="44.773" height="88.966" fill="none"/>
    </clipPath>
    <clipPath id="clip-path-22">
      <path id="Trazado_117521" data-name="Trazado 117521" d="M155.248,36.082,129.216,23.5,118.941,87.791l-1.323,9.034,27.068,14.606c4.7,2.605,9.191.11,10.022-5.562l7.55-54.784c.833-5.673-2.307-12.4-7.009-15" transform="translate(-117.618 -23.497)" fill="none" clip-rule="evenodd"/>
    </clipPath>
    <linearGradient id="linear-gradient-8" x1="-1.008" y1="4.964" x2="-0.997" y2="4.964" xlink:href="#linear-gradient-4"/>
    <clipPath id="clip-path-23">
      <path id="Trazado_117523" data-name="Trazado 117523" d="M95.971,8.556c-2.161.841-3.779,3.03-4.246,6.216l-6.7,47.743c-.832,5.674,2.3,12.391,7,15l49.785,27.055c4.7,2.606,9.19.11,10.021-5.562l6.7-47.744c.833-5.673-2.306-12.4-7.008-15L101.737,9.2a7.606,7.606,0,0,0-3.677-1.031,5.733,5.733,0,0,0-2.09.385" transform="translate(-84.894 -8.171)" fill="none"/>
    </clipPath>
    <linearGradient id="linear-gradient-9" x1="-0.607" y1="3.703" x2="-0.597" y2="3.703" gradientUnits="objectBoundingBox">
      <stop offset="0" stop-color="#6d6afe"/>
      <stop offset="1" stop-color="#3fb0f7"/>
    </linearGradient>
    <clipPath id="clip-path-25">
      <path id="Trazado_117529" data-name="Trazado 117529" d="M194.417,206.5l-6.191,42.129c-.576,3.947,1.492,8.615,4.623,10.42l46.538,26.242c3.129,1.8,6.139.06,6.716-3.887l6.19-42.129c.577-3.947-1.494-8.617-4.621-10.419l-46.54-26.243a4.912,4.912,0,0,0-2.446-.712c-2.122,0-3.846,1.71-4.269,4.6" transform="translate(-188.13 -201.905)" fill="none"/>
    </clipPath>
    <linearGradient id="linear-gradient-10" x1="-2.935" y1="1.857" x2="-2.919" y2="1.857" xlink:href="#linear-gradient-7"/>
    <clipPath id="clip-path-27">
      <rect id="Rectángulo_5174" data-name="Rectángulo 5174" width="64.261" height="84.102" fill="#d2f3f7"/>
    </clipPath>
    <clipPath id="clip-path-28">
      <path id="Trazado_117533" data-name="Trazado 117533" d="M264.053,246.948c.577-3.947,3.583-5.691,6.715-3.887L317.308,269.3c3.127,1.8,5.2,6.472,4.622,10.42l-6.191,42.129c-.576,3.946-3.587,5.689-6.715,3.887L262.485,299.5c-3.132-1.8-5.2-6.472-4.622-10.419Z" transform="translate(-257.766 -242.349)" fill="none" clip-rule="evenodd"/>
    </clipPath>
    <clipPath id="clip-path-29">
      <path id="Trazado_117537" data-name="Trazado 117537" d="M190.66,62.79c-.588,1.07-.459.87-.2,2.065l1.219,4.6c.383.986.612,1.249,2.027.612.772-.376.529-1.984.316-3.159a6.891,6.891,0,0,1,.053-2.9,2.368,2.368,0,0,1,.887-1.208c.845-.68,1.833-1.132,1.224-3.289a11.2,11.2,0,0,1-.265-3.134l-2.946-.194c.067,2.629-1.1,4.4-2.317,6.613" transform="translate(-190.242 -56.177)" fill="none"/>
    </clipPath>
    <linearGradient id="linear-gradient-11" x1="-12.659" y1="28.445" x2="-12.591" y2="28.445" gradientUnits="objectBoundingBox">
      <stop offset="0" stop-color="#ff8a78"/>
      <stop offset="1" stop-color="#ffa799"/>
    </linearGradient>
    <clipPath id="clip-path-31">
      <rect id="Rectángulo_5177" data-name="Rectángulo 5177" width="12.163" height="23.937" fill="none"/>
    </clipPath>
    <clipPath id="clip-path-32">
      <path id="Trazado_117541" data-name="Trazado 117541" d="M192.9,19.831c.228.55.5,1.236.762,2.02a9.485,9.485,0,0,1,.472,1.416c1.623,1.805,6.722-.12,7.467-2.791a14.969,14.969,0,0,1-4.2-7.081Z" transform="translate(-192.898 -13.395)" fill="none"/>
    </clipPath>
    <linearGradient id="linear-gradient-12" x1="-14.618" y1="25.307" x2="-14.542" y2="25.307" xlink:href="#linear-gradient-11"/>
    <clipPath id="clip-path-34">
      <rect id="Rectángulo_5181" data-name="Rectángulo 5181" width="115.357" height="169.957" fill="none"/>
    </clipPath>
    <clipPath id="clip-path-35">
      <path id="Trazado_117547" data-name="Trazado 117547" d="M169.506,69.4c1.254-9.255,8.276-13.24,15.682-8.882l76.493,44.662c7.4,4.354,12.39,15.406,11.135,24.661l-11.659,88.222c-1.254,9.254-8.284,13.235-15.684,8.881l-76.49-44.662c-7.409-4.358-12.391-15.406-11.138-24.659Z" transform="translate(-157.653 -58.752)" fill="none" clip-rule="evenodd"/>
    </clipPath>
    <linearGradient id="linear-gradient-13" x1="-0.957" y1="1.669" x2="-0.95" y2="1.669" xlink:href="#linear-gradient-4"/>
    <clipPath id="clip-path-36">
      <path id="Trazado_117550" data-name="Trazado 117550" d="M168.842,70.492l-1.124,8.248L263.729,134.8l1.109-8.144c1.165-8.6-3.474-18.869-10.347-22.915l-71.078-41.5a10.871,10.871,0,0,0-5.495-1.641c-4.572,0-8.233,3.66-9.077,9.895" transform="translate(-167.718 -60.597)" fill="none"/>
    </clipPath>
    <linearGradient id="linear-gradient-14" x1="-1.472" y1="2.759" x2="-1.463" y2="2.759" xlink:href="#linear-gradient-9"/>
    <clipPath id="clip-path-38">
      <rect id="Rectángulo_5185" data-name="Rectángulo 5185" width="26.323" height="33.2" fill="none"/>
    </clipPath>
    <clipPath id="clip-path-39">
      <path id="Trazado_117554" data-name="Trazado 117554" d="M183.739,92.337c7.257,1.721,12.8,10.414,12.378,19.417s-6.642,14.907-13.9,13.186-12.8-10.414-12.378-19.417,6.642-14.907,13.9-13.186" transform="translate(-169.817 -92.038)" fill="none" clip-rule="evenodd"/>
    </clipPath>
    <linearGradient id="linear-gradient-15" x1="-3.881" y1="6.659" x2="-3.857" y2="6.659" xlink:href="#linear-gradient-9"/>
    <clipPath id="clip-path-40">
      <path id="Trazado_117555" data-name="Trazado 117555" d="M175.416,106.355c-.225,4.855,2.763,9.542,6.675,10.47s7.267-2.256,7.493-7.11-2.761-9.541-6.674-10.469a5.809,5.809,0,0,0-1.344-.161c-3.309,0-5.95,2.984-6.151,7.27" transform="translate(-175.404 -99.085)" fill="none"/>
    </clipPath>
    <linearGradient id="linear-gradient-16" x1="-8.114" y1="11.642" x2="-8.067" y2="11.642" xlink:href="#linear-gradient-9"/>
    <clipPath id="clip-path-42">
      <rect id="Rectángulo_5188" data-name="Rectángulo 5188" width="52.57" height="38.267" fill="none"/>
    </clipPath>
    <clipPath id="clip-path-43">
      <rect id="Rectángulo_5189" data-name="Rectángulo 5189" width="31.043" height="22.598" fill="none"/>
    </clipPath>
    <clipPath id="clip-path-44">
      <rect id="Rectángulo_5190" data-name="Rectángulo 5190" width="84.569" height="53.467" fill="none"/>
    </clipPath>
    <clipPath id="clip-path-45">
      <rect id="Rectángulo_5191" data-name="Rectángulo 5191" width="84.569" height="53.466" fill="none"/>
    </clipPath>
    <clipPath id="clip-path-47">
      <path id="Trazado_117562" data-name="Trazado 117562" d="M258.541,62.734l-9.581,66.954c-.893,6.273,2.424,13.681,7.412,16.535l85.338,48.793c4.984,2.851,9.758.069,10.651-6.2l9.579-66.955c.893-6.274-2.429-13.683-7.411-16.535L269.189,56.53a7.818,7.818,0,0,0-3.873-1.121c-3.381,0-6.119,2.724-6.775,7.325" transform="translate(-248.815 -55.409)" fill="none"/>
    </clipPath>
    <clipPath id="clip-path-49">
      <path id="Trazado_117568" data-name="Trazado 117568" d="M197.422,62.577c-.357.422-.308,3.151-.456,3.993a7.068,7.068,0,0,1-1.725,2.82c-.858,1.01-.433,4.48.219,4.983.288.221,5.236-4.174,5.392-4.5a20.915,20.915,0,0,0,1.142-3.746c.243-1.284-.15-3.981.6-5.226l-3.145-.781c-.363,1.2-1.211,1.5-2.023,2.462" transform="translate(-194.76 -60.115)" fill="none"/>
    </clipPath>
    <linearGradient id="linear-gradient-17" x1="-12.471" y1="23.309" x2="-12.406" y2="23.309" xlink:href="#linear-gradient-11"/>
    <clipPath id="clip-path-51">
      <rect id="Rectángulo_5197" data-name="Rectángulo 5197" width="85.1" height="47.175" fill="none"/>
    </clipPath>
    <clipPath id="clip-path-52">
      <path id="Trazado_117579" data-name="Trazado 117579" d="M163.365,228.88c2.446,7.678,5.374,18.757,6,23.052-1.519,3.932-1.829,11.2-.888,17.182.84,5.342,2.906,13.765,4.36,23.378,1.809,2.872,8.023.51,8.3-4.01-.018-10.759-.479-23.006,1.133-33.142,1.073-6.741-2.781-31.295-3.467-38.983l-16.139-8.1c-5.177,8.9-.176,17.85.708,20.62" transform="translate(-160.344 -208.26)" fill="none"/>
    </clipPath>
    <linearGradient id="linear-gradient-18" x1="-1.533" y1="3.083" x2="-1.521" y2="3.083" gradientUnits="objectBoundingBox">
      <stop offset="0" stop-color="#40457f"/>
      <stop offset="1" stop-color="#1e2353"/>
    </linearGradient>
    <clipPath id="clip-path-53">
      <path id="Trazado_117580" data-name="Trazado 117580" d="M171.5,284.294c.112.695.268,1.4.376,2.1,1.809,2.872,8.1.42,8.374-4.1,0-.783.028-2,.023-2.8-1.572,4.007-6.34,7.412-8.772,4.792" transform="translate(-171.504 -279.502)" fill="none"/>
    </clipPath>
    <linearGradient id="linear-gradient-19" x1="-14.121" y1="6.191" x2="-14.038" y2="6.191" gradientUnits="objectBoundingBox">
      <stop offset="0" stop-color="#3773b9"/>
      <stop offset="1" stop-color="#003c76"/>
    </linearGradient>
    <clipPath id="clip-path-55">
      <rect id="Rectángulo_5201" data-name="Rectángulo 5201" width="15.86" height="66.308" fill="none"/>
    </clipPath>
    <clipPath id="clip-path-56">
      <path id="Trazado_117582" data-name="Trazado 117582" d="M170.391,233.741c-1.057,6.207-2.427,17.678-3.52,21.926a75.574,75.574,0,0,0-6.363,10.643c-3.455,8.44-5.4,23.281-7.056,32.9-.015,2.851,7.485,3.169,9.587.112,4.064-11.51,11.708-29.908,15.851-39.285,7.762-17.569,12.741-26.03,12.014-46.32-4.5,2.545-14.431,1.115-17.644-1.169-7.959,7.464-3.816,16.052-2.868,21.189" transform="translate(-153.451 -212.552)" fill="none"/>
    </clipPath>
    <linearGradient id="linear-gradient-20" x1="-1.454" y1="1.757" x2="-1.442" y2="1.757" xlink:href="#linear-gradient-18"/>
    <clipPath id="clip-path-57">
      <path id="Trazado_117583" data-name="Trazado 117583" d="M153.559,291.061q-.124.749-.247,1.463c-.014,2.935,7.705,3.263,9.87.116.172-.481.531-1.5.712-2-2.927,2.323-8.493,2.3-10.334.421" transform="translate(-153.311 -290.64)" fill="none"/>
    </clipPath>
    <linearGradient id="linear-gradient-21" x1="-14.378" y1="8.79" x2="-14.284" y2="8.79" xlink:href="#linear-gradient-19"/>
    <clipPath id="clip-path-58">
      <path id="Trazado_117584" data-name="Trazado 117584" d="M201.262,112.209c-.293.622-.575,1.251-.884,1.865l-1.267,2.535c-.271-1.243-1.262-1.717-2.025-1.091a2.159,2.159,0,0,0-.618.828c-.12-.339-1.081-1.1-2.378.74a1.425,1.425,0,0,0-1.578.91,10.113,10.113,0,0,0-.543,1.329,5.3,5.3,0,0,0-.379,1.8c.009,1.222.061,2.548.026,4.008-.037,1.584-1.835,3.59-2.81,4.746l5.881,1.865a32.794,32.794,0,0,1,2.291-2.864c.923-.935,2.09-1.046,2.97-1.768a11.334,11.334,0,0,0,1.613-2.124c.694-.982,1.072-2.044,1.734-3.118a2.882,2.882,0,0,0,.671-2.116,22.592,22.592,0,0,1,.442-2.5c-1.209-.6-2.161.889-2.153,2.343a3.616,3.616,0,0,0-1.3,1.769c-.96-1.256-.388-1.781,0-3.394a16.286,16.286,0,0,0,1.385-3.238c.187-.5.375-1.012.576-1.568a1.561,1.561,0,0,0-.35-1.724.433.433,0,0,0-.237-.062c-.283,0-.7.2-1.065.828" transform="translate(-188.807 -111.381)" fill="none"/>
    </clipPath>
    <linearGradient id="linear-gradient-22" x1="-7.802" y1="10.721" x2="-7.759" y2="10.721" xlink:href="#linear-gradient-11"/>
    <clipPath id="clip-path-60">
      <rect id="Rectángulo_5206" data-name="Rectángulo 5206" width="10.872" height="21.38" fill="none"/>
    </clipPath>
    <clipPath id="clip-path-61">
      <path id="Trazado_117590" data-name="Trazado 117590" d="M170.933,164.452c.053.049.12.087.18.14-.021.391-.048.789-.079,1.181.668,3.273,6.777,4.424,11.173,4.567a33.144,33.144,0,0,1-.342-7.387,4.378,4.378,0,0,1-4.155-2.125,8.837,8.837,0,0,0-4.193-1.183c-3.3,0-5.021,2.525-2.584,4.808" transform="translate(-169.786 -159.644)" fill="none"/>
    </clipPath>
    <linearGradient id="linear-gradient-23" x1="-12.153" y1="12.607" x2="-12.081" y2="12.607" xlink:href="#linear-gradient-11"/>
    <clipPath id="clip-path-62">
      <path id="Trazado_117591" data-name="Trazado 117591" d="M179.252,152.227c-.671,4.563,3.778,5.276,3.264,9.949.753-.1,2.552-.757,2.573-1.191.114-2.466-1.88-7.2-2.542-7.744-.48-.4-.892-.495-1-.722-.576-1.153.165-2.389-.846-3.584a12.79,12.79,0,0,0-2.755-2.448c-1.107,2.006,1.713,3,1.31,5.74" transform="translate(-177.682 -146.487)" fill="none"/>
    </clipPath>
    <linearGradient id="linear-gradient-24" x1="-10.535" y1="15.097" x2="-10.474" y2="15.097" gradientUnits="objectBoundingBox">
      <stop offset="0" stop-color="#ffb89e"/>
      <stop offset="1" stop-color="#ffa799"/>
    </linearGradient>
    <clipPath id="clip-path-64">
      <path id="Trazado_117596" data-name="Trazado 117596" d="M174.31,141.944c-3.178.074-11.3,3.2-9.919,9.379,2.547-2.2,5.5-2.116,8-2.028a8.907,8.907,0,0,0,3.842-.352c3.785-1.769,1.327-7-1.856-7h-.066" transform="translate(-164.234 -141.944)" fill="none"/>
    </clipPath>
    <linearGradient id="linear-gradient-25" x1="-9.055" y1="13.894" x2="-8.999" y2="13.894" gradientUnits="objectBoundingBox">
      <stop offset="0" stop-color="#8a4791"/>
      <stop offset="1" stop-color="#562e65"/>
    </linearGradient>
    <clipPath id="clip-path-65">
      <path id="Trazado_117597" data-name="Trazado 117597" d="M230.552,153.88c-.358.417-.065,3.818-.292,4.323-.878,1.013-1.3,1.429-2.4,2.635a12.577,12.577,0,0,1-1.462.884c-.381.1-.589-.162-.6-.5a16.005,16.005,0,0,1,.421-2.007c0-1.612-.4-2.526-1.264-2.441a.854.854,0,0,0-.809.754c-.089.377-.064.9-.126,1.558a4.234,4.234,0,0,0-.263,1.248,10.017,10.017,0,0,0-.6,1.894,17.689,17.689,0,0,0-.153,3.12,6.84,6.84,0,0,0,.272,1.916,17.657,17.657,0,0,1-3.155,3.723l3.714,2.832c1.568-1.033,2.791-2.119,4.14-3.017a4.569,4.569,0,0,0,1.809-1.019c.86-.9,3.391-3.562,3.538-4.609a23.928,23.928,0,0,0-.411-5.327c-.559-3.133-1.646-6.4-2.137-6.4-.1,0-.174.132-.215.426" transform="translate(-220.116 -153.454)" fill="none"/>
    </clipPath>
    <linearGradient id="linear-gradient-26" x1="-9.606" y1="9.402" x2="-9.561" y2="9.402" xlink:href="#linear-gradient-11"/>
  </defs>
  <g id="Grupo_141763" data-name="Grupo 141763" clip-path="url(#clip-path)">
    <g id="Grupo_141606" data-name="Grupo 141606">
      <g id="Grupo_141605" data-name="Grupo 141605" clip-path="url(#clip-path)">
        <path id="Trazado_117502" data-name="Trazado 117502" d="M240.553,79.13c.21.123.493.211.827.385,1.089,2.62,1.5,3.389,1.286,3.651-.176.213-.155.1-.249.625-.128.719,2.39,3.828,2.779,4.813a3.586,3.586,0,0,1,.088,2.617,13.528,13.528,0,0,1-2.682,4.546c-1,1.122-2.1,1.838-3.058,1.622-1.18-.265-.979-1.324-.8-2.37.063-.375.775-1.2.72-1.571-.316-2.1-1.851-3.929-2.978-5.746-.967-.9-2.594-1.845-3.5-2.886-1.3-1.5-1.548-3.085.068-4.006.516-.294,1.815-1.754,2.479-1.7,1.273.105,3.406-.924,5.017.018" transform="translate(19.838 6.734)" fill="#202249" fill-rule="evenodd"/>
      </g>
    </g>
    <g id="Grupo_141608" data-name="Grupo 141608" transform="translate(216.45 47.018)">
      <g id="Grupo_141607" data-name="Grupo 141607" clip-path="url(#clip-path-3)">
        <rect id="Rectángulo_5150" data-name="Rectángulo 5150" width="40.985" height="45.095" transform="translate(-0.503 -0.003)" fill="url(#linear-gradient)"/>
      </g>
    </g>
    <g id="Grupo_141613" data-name="Grupo 141613">
      <g id="Grupo_141612" data-name="Grupo 141612" clip-path="url(#clip-path)">
        <g id="Grupo_141611" data-name="Grupo 141611" transform="translate(224.068 47.018)" opacity="0.3" style="mix-blend-mode: multiply;isolation: isolate">
          <g id="Grupo_141610" data-name="Grupo 141610">
            <g id="Grupo_141609" data-name="Grupo 141609" clip-path="url(#clip-path-5)">
              <path id="Trazado_117504" data-name="Trazado 117504" d="M227.873,77.1c-3.588-1.624-6.842-3.036-8.73-3.735a10.389,10.389,0,0,0-3.02-.508c5.389-4.859,11.1-10.12,13.313-14.607,1.57-3.174,1.823-7.584,2.915-10.342a12.9,12.9,0,0,1-5.9.553l.237,1.717C219.9,56.941,207.56,72.646,206.411,82.9c4.15.967,15.482,2.421,17.3,2.624.473-3.042,2.461-5.467,4.163-8.421m-6.185-31.79c-.57-.769-1-1.507-1.433-2-.881,1.293-1.189,1.611-1.658,2.231Z" transform="translate(-206.412 -43.313)" fill="#1e2353" fill-rule="evenodd"/>
            </g>
          </g>
        </g>
        <path id="Trazado_117505" data-name="Trazado 117505" d="M225.432,110.716c1.235,1.713-2.1,10.313-2.908,12.123-.715,1.6-.487,2.577,1.206,2.6,1.333.021,3.451-1.87,4.742-3.107,2.422-2.319,2.56-4.682,3.262-5.688l.825-.265a8.767,8.767,0,0,0,2.484-3.55,19.559,19.559,0,0,0-.918-2.4c-1.317-2.431-1.607-1.368-3.341-2.854-1.981,1.434-.576,2.007-5.351,3.134" transform="translate(19.001 9.202)" fill="#202249" fill-rule="evenodd"/>
      </g>
    </g>
    <g id="Grupo_141615" data-name="Grupo 141615" transform="translate(227.903 43.552)">
      <g id="Grupo_141614" data-name="Grupo 141614" clip-path="url(#clip-path-6)">
        <rect id="Rectángulo_5153" data-name="Rectángulo 5153" width="30.123" height="77.307" transform="translate(-0.078 -0.032)" fill="url(#linear-gradient-2)"/>
      </g>
    </g>
    <g id="Grupo_141620" data-name="Grupo 141620">
      <g id="Grupo_141619" data-name="Grupo 141619" clip-path="url(#clip-path)">
        <g id="Grupo_141618" data-name="Grupo 141618" transform="translate(102.989 228.541)" opacity="0.3">
          <g id="Grupo_141617" data-name="Grupo 141617">
            <g id="Grupo_141616" data-name="Grupo 141616" clip-path="url(#clip-path-8)">
              <path id="Trazado_117507" data-name="Trazado 117507" d="M363.79,350.683,117.815,212.333c-3.1-1.414-7.667-2.747-10.712-.888L99.312,216.2c-1.568.956-6.722,4.134-3.275,6C106.18,227.707,333.3,356.167,343.6,361.755a14.443,14.443,0,0,0,7.789,1.184,19.616,19.616,0,0,0,8.436-2.524l3.112-1.924c2.2-1.36,3.418-2.844,3.536-4.266.115-1.389-.777-2.676-2.683-3.543" transform="translate(-94.874 -210.533)" fill="#707070" fill-rule="evenodd"/>
            </g>
          </g>
        </g>
      </g>
    </g>
    <g id="Grupo_141622" data-name="Grupo 141622" transform="translate(144.434 3.926)">
      <g id="Grupo_141621" data-name="Grupo 141621" clip-path="url(#clip-path-9)">
        <rect id="Rectángulo_5156" data-name="Rectángulo 5156" width="407.587" height="314.289" transform="translate(-60.961 360.867) rotate(-80.644)" fill="url(#linear-gradient-3)"/>
      </g>
    </g>
    <g id="Grupo_141624" data-name="Grupo 141624" transform="translate(108.927 5.505)">
      <g id="Grupo_141623" data-name="Grupo 141623" clip-path="url(#clip-path-10)">
        <rect id="Rectángulo_5157" data-name="Rectángulo 5157" width="440.202" height="385.808" transform="translate(-106.244 338.195) rotate(-72.663)" fill="#c0e6f8"/>
      </g>
    </g>
    <g id="Grupo_141641" data-name="Grupo 141641">
      <g id="Grupo_141640" data-name="Grupo 141640" clip-path="url(#clip-path)">
        <path id="Trazado_117510" data-name="Trazado 117510" d="M378.046,139.842,139.064,6.063c-4.52-2.5-8.824-.1-9.623,5.353l-1.057,7.22L383.715,161.565l1.069-7.3c.8-5.451-2.218-11.914-6.738-14.419" transform="translate(10.982 0.434)" fill="#ffa726" fill-rule="evenodd"/>
        <path id="Trazado_117511" data-name="Trazado 117511" d="M137.126,10.9c1.813.415,3.2,2.573,3.109,4.82s-1.641,3.733-3.454,3.318-3.2-2.573-3.109-4.82,1.641-3.733,3.454-3.318" transform="translate(11.434 0.926)" fill="#ffa726" fill-rule="evenodd"/>
        <path id="Trazado_117512" data-name="Trazado 117512" d="M144.729,15.266c1.812.415,3.2,2.573,3.109,4.82s-1.641,3.733-3.454,3.318-3.2-2.573-3.109-4.82,1.641-3.733,3.454-3.318" transform="translate(12.084 1.3)" fill="#ffa726" fill-rule="evenodd"/>
        <path id="Trazado_117513" data-name="Trazado 117513" d="M152.955,20.062c1.813.415,3.2,2.573,3.109,4.82s-1.641,3.733-3.454,3.318-3.2-2.573-3.109-4.82,1.642-3.733,3.454-3.318" transform="translate(12.788 1.71)" fill="#ffa726" fill-rule="evenodd"/>
        <g id="Grupo_141629" data-name="Grupo 141629" transform="translate(299.911 189.686)" opacity="0.5" style="mix-blend-mode: multiply;isolation: isolate">
          <g id="Grupo_141628" data-name="Grupo 141628">
            <g id="Grupo_141627" data-name="Grupo 141627" clip-path="url(#clip-path-12)">
              <g id="Grupo_141626" data-name="Grupo 141626" transform="translate(0 0)">
                <g id="Grupo_141625" data-name="Grupo 141625" clip-path="url(#clip-path-13)">
                  <rect id="Rectángulo_5158" data-name="Rectángulo 5158" width="109.732" height="101.357" transform="matrix(0.429, -0.903, 0.903, 0.429, -34.987, 71.484)" fill="url(#linear-gradient-4)"/>
                </g>
              </g>
            </g>
          </g>
        </g>
        <g id="Grupo_141634" data-name="Grupo 141634" transform="translate(272.965 91.709)" opacity="0.5" style="mix-blend-mode: multiply;isolation: isolate">
          <g id="Grupo_141633" data-name="Grupo 141633">
            <g id="Grupo_141632" data-name="Grupo 141632" clip-path="url(#clip-path-14)">
              <g id="Grupo_141631" data-name="Grupo 141631">
                <g id="Grupo_141630" data-name="Grupo 141630" clip-path="url(#clip-path-15)">
                  <rect id="Rectángulo_5160" data-name="Rectángulo 5160" width="166.621" height="165.927" transform="translate(-56.378 82.356) rotate(-55.606)" fill="url(#linear-gradient-5)"/>
                </g>
              </g>
            </g>
          </g>
        </g>
        <g id="Grupo_141639" data-name="Grupo 141639" transform="translate(109.22 156.878)" opacity="0.5" style="mix-blend-mode: multiply;isolation: isolate">
          <g id="Grupo_141638" data-name="Grupo 141638">
            <g id="Grupo_141637" data-name="Grupo 141637" clip-path="url(#clip-path-16)">
              <g id="Grupo_141636" data-name="Grupo 141636" transform="translate(0 0)">
                <g id="Grupo_141635" data-name="Grupo 141635" clip-path="url(#clip-path-17)">
                  <rect id="Rectángulo_5162" data-name="Rectángulo 5162" width="128.93" height="116.787" transform="translate(-39.781 86.763) rotate(-65.369)" fill="url(#linear-gradient-6)"/>
                </g>
              </g>
            </g>
          </g>
        </g>
        <path id="Trazado_117517" data-name="Trazado 117517" d="M172.994,194.531l-6.952,45.676,1.1.134,3.009-1.169c3.3-1.3,5.033-4.735,5.516-8.075l5.114-39.607a.206.206,0,0,0,.005-.033,20.694,20.694,0,0,0-3.453-14.014,16.307,16.307,0,0,0-5.669-5.467L51.044,105.115a8.813,8.813,0,0,0-7.5-.838l-2.653,1.036c-1.335.5-1.749.9-1.74.987,1.252,11.673,135.6,76.259,133.845,88.231" transform="translate(3.349 8.877)" fill="#d0e7ff" fill-rule="evenodd"/>
      </g>
    </g>
    <g id="Grupo_141643" data-name="Grupo 141643" transform="translate(33.052 113.843)">
      <g id="Grupo_141642" data-name="Grupo 141642" clip-path="url(#clip-path-18)">
        <rect id="Rectángulo_5165" data-name="Rectángulo 5165" width="179.667" height="187.098" transform="translate(-43.808 122.982) rotate(-70.769)" fill="url(#linear-gradient-7)"/>
      </g>
    </g>
    <g id="Grupo_141653" data-name="Grupo 141653">
      <g id="Grupo_141652" data-name="Grupo 141652" clip-path="url(#clip-path)">
        <g id="Grupo_141646" data-name="Grupo 141646" transform="translate(78.712 148.265)" opacity="0.5">
          <g id="Grupo_141645" data-name="Grupo 141645">
            <g id="Grupo_141644" data-name="Grupo 141644" clip-path="url(#clip-path-20)">
              <path id="Trazado_117519" data-name="Trazado 117519" d="M164.347,182.69,81.1,136.9a2.092,2.092,0,0,0-1.793-.2,2.3,2.3,0,0,0-1.32,1.932l-.459,2.779a4.866,4.866,0,0,0,2.175,4.663l83.246,45.787c1.462.809,2.857.033,3.115-1.729l.459-2.78a4.867,4.867,0,0,0-2.179-4.665M117.99,193.461a4.868,4.868,0,0,1,2.179,4.663l-.459,2.779c-.259,1.764-1.653,2.539-3.117,1.729L74.727,180.1a4.864,4.864,0,0,1-2.175-4.662l.459-2.779a2.3,2.3,0,0,1,1.32-1.933,2.09,2.09,0,0,1,1.792.2Zm43.868,6.24a4.866,4.866,0,0,1,2.179,4.663l-.459,2.781c-.258,1.764-1.653,2.539-3.115,1.729L77.216,163.088a4.867,4.867,0,0,1-2.177-4.662l.46-2.78a2.3,2.3,0,0,1,1.32-1.932,2.089,2.089,0,0,1,1.793.2Z" transform="translate(-72.51 -136.582)" fill="#039be5" fill-rule="evenodd"/>
            </g>
          </g>
        </g>
        <path id="Trazado_117520" data-name="Trazado 117520" d="M57.462,137.259c-3.936-2.183-8.112.761-8.069,6.456a11.4,11.4,0,0,0,3.243,7.886,7.748,7.748,0,0,0,1.595,1.2c3.93,2.178,8.085-.764,8.056-6.433a11.373,11.373,0,0,0-3.216-7.9,7.792,7.792,0,0,0-1.608-1.206M53.67,155.471a10.421,10.421,0,0,1-2.142-1.6,15.364,15.364,0,0,1-4.363-10.607c-.047-7.64,5.557-11.61,10.848-8.678a10.347,10.347,0,0,1,2.171,1.632,15.248,15.248,0,0,1,4.331,10.6c.033,7.618-5.562,11.581-10.846,8.653m18.022-6.492a2.891,2.891,0,0,1,1.22,3.006l-.962,4.475a1.415,1.415,0,0,1-2.114,1.142l-.471-.262a1.322,1.322,0,0,0-1.864.515,14.278,14.278,0,0,1-.856,1.271,2.641,2.641,0,0,0-.191,2.533l.248.607a2.346,2.346,0,0,1-.627,2.917l-3.24,1.751a1.339,1.339,0,0,1-1.313-.048,2.5,2.5,0,0,1-1.051-1.265l-.251-.593a2.483,2.483,0,0,0-1.042-1.248,1.5,1.5,0,0,0-.777-.2c-.458,0-.924-.016-1.385-.059a1.484,1.484,0,0,0-1.547,1.329l-.124.584a1.417,1.417,0,0,1-2.115,1.142l-3.613-2a2.891,2.891,0,0,1-1.226-2.994l.126-.582a3.051,3.051,0,0,0-.706-2.577c-.39-.429-.752-.871-1.113-1.325a2.249,2.249,0,0,0-.689-.615,1.327,1.327,0,0,0-1.3-.049l-.424.218a1.333,1.333,0,0,1-1.313-.046,2.507,2.507,0,0,1-1.052-1.264l-1.877-4.589a2.35,2.35,0,0,1,.627-2.917l.428-.231a2.085,2.085,0,0,0,.825-2.183q-.13-.922-.186-1.849a2.8,2.8,0,0,0-1.27-2.249L40,141.06a2.885,2.885,0,0,1-1.224-2.991l.963-4.476c.249-1.155,1.2-1.666,2.117-1.155l.471.261a1.317,1.317,0,0,0,1.863-.513,13.593,13.593,0,0,1,.858-1.27,2.618,2.618,0,0,0,.187-2.523l-.248-.6a2.367,2.367,0,0,1,.631-2.929l3.24-1.752a1.342,1.342,0,0,1,1.313.047,2.505,2.505,0,0,1,1.052,1.265l.249.6a2.471,2.471,0,0,0,1.042,1.249,1.5,1.5,0,0,0,.777.2,11.362,11.362,0,0,1,1.386.046,1.462,1.462,0,0,0,1.545-1.316l.125-.585c.248-1.154,1.2-1.665,2.117-1.154l3.614,2a2.887,2.887,0,0,1,1.22,3l-.126.585a3.009,3.009,0,0,0,.7,2.558q.583.643,1.12,1.345a2.231,2.231,0,0,0,.688.612,1.324,1.324,0,0,0,1.3.05l.428-.231a1.336,1.336,0,0,1,1.313.048,2.5,2.5,0,0,1,1.052,1.264l1.877,4.589a2.367,2.367,0,0,1-.63,2.929l-.428.23a2.074,2.074,0,0,0-.823,2.171c.085.614.149,1.232.187,1.848a2.8,2.8,0,0,0,1.27,2.251Z" transform="translate(3.311 10.518)" fill="#ff3864" fill-rule="evenodd"/>
        <g id="Grupo_141651" data-name="Grupo 141651" transform="translate(127.679 25.507)" opacity="0.5" style="mix-blend-mode: multiply;isolation: isolate">
          <g id="Grupo_141650" data-name="Grupo 141650">
            <g id="Grupo_141649" data-name="Grupo 141649" clip-path="url(#clip-path-21)">
              <g id="Grupo_141648" data-name="Grupo 141648" transform="translate(0 0)">
                <g id="Grupo_141647" data-name="Grupo 141647" clip-path="url(#clip-path-22)">
                  <rect id="Rectángulo_5167" data-name="Rectángulo 5167" width="99.771" height="69.503" transform="translate(-24.85 83.109) rotate(-73.353)" fill="url(#linear-gradient-8)"/>
                </g>
              </g>
            </g>
          </g>
        </g>
        <path id="Trazado_117522" data-name="Trazado 117522" d="M154.084,52.754l-8.112,52.409.849.1,2.314-.9c2.537-1,3.869-3.641,4.24-6.209l6.7-47.742a.121.121,0,0,0,0-.026,15.908,15.908,0,0,0-2.654-10.776,12.537,12.537,0,0,0-4.36-4.2L103.28,8.357a6.778,6.778,0,0,0-5.769-.644l-2.041.8c-1.027.385-1.344.695-1.337.758.962,8.976,61.3,34.279,59.951,43.487" transform="translate(8.052 0.627)" fill="#d0e7ff" fill-rule="evenodd"/>
      </g>
    </g>
    <g id="Grupo_141655" data-name="Grupo 141655" transform="translate(92.155 8.87)">
      <g id="Grupo_141654" data-name="Grupo 141654" clip-path="url(#clip-path-23)">
        <rect id="Rectángulo_5170" data-name="Rectángulo 5170" width="116.603" height="100.741" transform="matrix(0.291, -0.957, 0.957, 0.291, -28.282, 90.605)" fill="url(#linear-gradient-9)"/>
      </g>
    </g>
    <g id="Grupo_141657" data-name="Grupo 141657">
      <g id="Grupo_141656" data-name="Grupo 141656" clip-path="url(#clip-path)">
        <path id="Trazado_117524" data-name="Trazado 117524" d="M141.913,91.077,91.9,64.232c-1.154-.62-2.256.018-2.479,1.45A3.71,3.71,0,0,0,91.1,69.318l50.013,26.845c1.154.62,2.277-.01,2.5-1.442a3.749,3.749,0,0,0-1.705-3.644m2.235-14.533a3.752,3.752,0,0,1,1.706,3.644c-.224,1.432-1.348,2.061-2.5,1.442L93.341,54.784a3.711,3.711,0,0,1-1.686-3.635c.224-1.432,1.324-2.07,2.479-1.45Zm5.145-32.957L99.279,16.742a1.631,1.631,0,0,0-2.47,1.4L96.251,21.7a3.719,3.719,0,0,0,1.687,3.634l50.015,26.845a1.646,1.646,0,0,0,2.492-1.392L151,47.231a3.745,3.745,0,0,0-1.705-3.644m-2.9,18.539a3.717,3.717,0,0,1,1.711,3.621c-.23,1.458-1.348,2.059-2.5,1.439L95.6,40.341A3.677,3.677,0,0,1,93.9,36.734c.23-1.457,1.329-2.07,2.48-1.454Z" transform="translate(7.645 1.412)" fill="#fffcf1" fill-rule="evenodd"/>
        <path id="Trazado_117525" data-name="Trazado 117525" d="M333.427,215.826l-5.917,36.5.923.112,2.516-.977c2.759-1.087,4.206-3.96,4.611-6.752l4.381-31.426c0-.01,0-.02,0-.027a17.3,17.3,0,0,0-2.886-11.718,13.641,13.641,0,0,0-4.741-4.571l-38.646-21.215a7.373,7.373,0,0,0-6.273-.7l-2.219.867c-1.116.419-1.461.756-1.454.824,1.045,9.761,51.17,29.073,49.7,39.085" transform="translate(24.269 14.938)" fill="#d0e7ff" fill-rule="evenodd"/>
        <path id="Trazado_117526" data-name="Trazado 117526" d="M330.411,197.887l-38.644-21.216a7.311,7.311,0,0,0-6.27-.7c-2.351.916-4.11,3.294-4.617,6.759L276.5,214.154c-.9,6.169,2.5,13.474,7.61,16.309l38.646,21.216c5.115,2.833,10,.119,10.9-6.049l4.38-31.428c.9-6.168-2.51-13.48-7.623-16.315" transform="translate(23.639 15.016)" fill="#fff" fill-rule="evenodd"/>
        <path id="Trazado_117527" data-name="Trazado 117527" d="M313.173,198.48a3.09,3.09,0,0,1,.319,1.8,11.888,11.888,0,0,1-.7,2.3l-8.235,22.87c-.266.764-.509,1.346-.685,1.764a1.4,1.4,0,0,1-.746.8,1.33,1.33,0,0,1-1.189-.276,3.1,3.1,0,0,1-1.625-3.153,16.175,16.175,0,0,1,.681-2.385l8.212-22.882a8.236,8.236,0,0,1,1.106-2.364c.3-.372.816-.325,1.51.1a3.463,3.463,0,0,1,1.354,1.424m2.2,5.941-.754,6.36,12.167,14.111-13.638-1.726-.758,6.387,19.624,1.535.643-5.415Zm-34.3-4.852,17.289,21.275.758-6.387-12.109-14.2,13.576,1.844.764-6.443L281.72,194.09Z" transform="translate(24.042 16.602)" fill="#ff8f64" fill-rule="evenodd"/>
        <path id="Trazado_117528" data-name="Trazado 117528" d="M190.327,199.893c.695-4.751,4.313-6.851,8.082-4.679L254.422,226.8c3.764,2.17,6.257,7.789,5.562,12.54l-7.451,50.7c-.695,4.75-4.317,6.848-8.082,4.68L188.44,263.137c-3.769-2.171-6.258-7.79-5.563-12.54Z" transform="translate(15.633 16.625)" fill="#fff" fill-rule="evenodd"/>
      </g>
    </g>
    <g id="Grupo_141659" data-name="Grupo 141659" transform="translate(204.222 219.175)">
      <g id="Grupo_141658" data-name="Grupo 141658" clip-path="url(#clip-path-25)">
        <rect id="Rectángulo_5172" data-name="Rectángulo 5172" width="68.816" height="87.912" transform="translate(-4.132 0.157) rotate(-2.459)" fill="url(#linear-gradient-10)"/>
      </g>
    </g>
    <g id="Grupo_141666" data-name="Grupo 141666">
      <g id="Grupo_141665" data-name="Grupo 141665" clip-path="url(#clip-path)">
        <path id="Trazado_117530" data-name="Trazado 117530" d="M196.009,249.2l19.54-27.065,3.787,28.7,9.519-10.347,5.606,30.689Z" transform="translate(16.766 19.001)" fill="#ff3864" fill-rule="evenodd"/>
        <path id="Trazado_117531" data-name="Trazado 117531" d="M225.981,223.248c2.089.426,3.663,2.871,3.512,5.464s-1.964,4.346-4.052,3.921-3.662-2.871-3.514-5.462,1.965-4.348,4.054-3.922" transform="translate(18.982 19.091)" fill="#ffa726" fill-rule="evenodd"/>
        <path id="Trazado_117532" data-name="Trazado 117532" d="M259.962,240.338c.695-4.751,4.313-6.851,8.082-4.679l56.013,31.584c3.764,2.169,6.257,7.789,5.562,12.54l-7.45,50.7c-.7,4.75-4.318,6.848-8.083,4.679l-56.012-31.584c-3.769-2.172-6.258-7.79-5.563-12.54Z" transform="translate(21.589 20.084)" fill="#fff" fill-rule="evenodd"/>
        <g id="Grupo_141664" data-name="Grupo 141664" transform="translate(279.815 263.079)" opacity="0.2">
          <g id="Grupo_141663" data-name="Grupo 141663">
            <g id="Grupo_141662" data-name="Grupo 141662" clip-path="url(#clip-path-27)">
              <g id="Grupo_141661" data-name="Grupo 141661" transform="translate(0 0)">
                <g id="Grupo_141660" data-name="Grupo 141660" clip-path="url(#clip-path-28)">
                  <rect id="Rectángulo_5173" data-name="Rectángulo 5173" width="69.725" height="89.636" transform="translate(-5.07 -0.848) rotate(-3.053)" fill="#d2f3f7"/>
                </g>
              </g>
            </g>
          </g>
        </g>
        <path id="Trazado_117534" data-name="Trazado 117534" d="M265.645,289.646l19.539-27.065,3.789,28.7,9.519-10.347,5.606,30.689Z" transform="translate(22.723 22.461)" fill="#039be5" fill-rule="evenodd"/>
        <path id="Trazado_117535" data-name="Trazado 117535" d="M295.616,263.693c2.09.426,3.663,2.871,3.513,5.462s-1.964,4.348-4.052,3.922-3.663-2.871-3.514-5.462,1.964-4.348,4.053-3.922" transform="translate(24.939 22.55)" fill="#ffa726" fill-rule="evenodd"/>
        <path id="Trazado_117536" data-name="Trazado 117536" d="M181.569,5.584c-4.985,2.927-2.6,9.686,1.932,16.833,6.427,10.141-9.127,21.554,12.016,27.328-2.2-6.188,6.96-8.453,11.462-16.9,5.2-9.75,2.314-19.531-4.358-27.859-5.434-6.784-15.376-6.7-21.052.6" transform="translate(15.293 0)" fill="#e54b5a" fill-rule="evenodd"/>
      </g>
    </g>
    <g id="Grupo_141668" data-name="Grupo 141668" transform="translate(206.515 60.982)">
      <g id="Grupo_141667" data-name="Grupo 141667" clip-path="url(#clip-path-29)">
        <rect id="Rectángulo_5176" data-name="Rectángulo 5176" width="15.937" height="11.199" transform="matrix(0.335, -0.942, 0.942, 0.335, -4.752, 12.895)" fill="url(#linear-gradient-11)"/>
      </g>
    </g>
    <g id="Grupo_141673" data-name="Grupo 141673">
      <g id="Grupo_141672" data-name="Grupo 141672" clip-path="url(#clip-path)">
        <path id="Trazado_117538" data-name="Trazado 117538" d="M201.063,39.143l-.022-.148a2.512,2.512,0,0,0-.092-.632c-.749-5-2.271-13.423-3.455-17.816-2.069-7.671-8.634-5.021-8.567-.442.065,4.331,4.094,13.711,5.022,17.775-.33,2.961-1.566,17.749-1.139,20.331a5.6,5.6,0,0,1,.274,1.354,4.848,4.848,0,0,1-.251,1.068c1.16.154,2.32.318,3.461.587a7.2,7.2,0,0,1,.173-1.151c.2-.557.709-.841.939-1.312,1.131-2.317,3-14.472,3.517-18.428a4.917,4.917,0,0,0,.141-1.186" transform="translate(16.16 1.343)" fill="#1d65bd" fill-rule="evenodd"/>
        <g id="Grupo_141671" data-name="Grupo 141671" transform="translate(205.135 21.225)" opacity="0.35" style="mix-blend-mode: multiply;isolation: isolate">
          <g id="Grupo_141670" data-name="Grupo 141670">
            <g id="Grupo_141669" data-name="Grupo 141669" clip-path="url(#clip-path-31)">
              <path id="Trazado_117539" data-name="Trazado 117539" d="M200.2,43.49a23.194,23.194,0,0,0,.931-5.839c-.011-3.046-1.162-5.567-1.518-7.5l-10.646-10.6c.068,1.984,2.384,7.271,3.333,11.173,1.481,6.089,4.7,11.332,7.9,12.764" transform="translate(-188.971 -19.553)" fill="#1d65bd" fill-rule="evenodd"/>
            </g>
          </g>
        </g>
        <path id="Trazado_117540" data-name="Trazado 117540" d="M233.142,44.614c-1.5,4.962-8.548,8.872-15.609,7.318-1.686-1.875-2.186-1.292-3.728-2.8-1.4-1.375-3.135-3.257-5.559-5.714-1.347-2.115-6.661-2.979-9.006-3.9-2.649-1.039-5-3.2-6.094-7.412-.531-2.041-2.844-8.286-3.676-10.367-2.4-6.017,2.81-8.266,6.338-6.039a64.8,64.8,0,0,0,9.7,2.585,40.721,40.721,0,0,0,4.3.639c2.93.283,6.112,2.422,8.387,4.234,6.114,4.87,14.406,14.656,14.942,21.46" transform="translate(16.155 1.271)" fill="#367ed6" fill-rule="evenodd"/>
      </g>
    </g>
    <g id="Grupo_141675" data-name="Grupo 141675" transform="translate(209.398 14.541)">
      <g id="Grupo_141674" data-name="Grupo 141674" clip-path="url(#clip-path-32)">
        <rect id="Rectángulo_5179" data-name="Rectángulo 5179" width="14.138" height="14.546" transform="translate(-5.729 4.713) rotate(-39.44)" fill="url(#linear-gradient-12)"/>
      </g>
    </g>
    <g id="Grupo_141682" data-name="Grupo 141682">
      <g id="Grupo_141681" data-name="Grupo 141681" clip-path="url(#clip-path)">
        <path id="Trazado_117542" data-name="Trazado 117542" d="M183.407,10.1a8.653,8.653,0,0,0,2.648,5.49,2.548,2.548,0,0,1,.738,1.227c.663,2.426,1.185,2.92,2.74,4.03,1.513,1.078,2.08,1.825,2.942,1.916a3.569,3.569,0,0,0,2.353-.852c1.329-.951,2.818-3.554,3.517-5.272.518-1.273.2-1.594-.131-2.8.384-2.223-1.154-2.364-1.666-2.09-1.47.788-.483,2.416-.97,3.352-5.164,1.141-10.506-3.489-12.17-5" transform="translate(15.688 0.864)" fill="#ffa698" fill-rule="evenodd"/>
        <path id="Trazado_117543" data-name="Trazado 117543" d="M183.407,10.1c2.869,4.775,9.184,5.981,12.17,5-5.164,1.141-10.506-3.489-12.17-5" transform="translate(15.688 0.864)" fill="#ff9080" fill-rule="evenodd"/>
        <path id="Trazado_117544" data-name="Trazado 117544" d="M215.133,50.215a1.258,1.258,0,0,1-.13.026,9.937,9.937,0,0,1-2.391-1.6c-1.4-1.375-3.135-3.257-5.559-5.714-.686-1.077-2.4-1.83-4.231-2.432.289-4.94.161-16.229,1.78-17.7,2.235-2.027,5.312-3.374,7.879-.736,4.847,4.979.022,23.41,2.653,28.159" transform="translate(17.349 1.761)" fill="#14518e" fill-rule="evenodd"/>
        <path id="Trazado_117545" data-name="Trazado 117545" d="M208.107,55.054,205.037,43.5l2.122-1.891,19.375,10.875-1.8,2.021-8.416,5.632Z" transform="translate(17.538 3.559)" fill="#4a9ff8" fill-rule="evenodd"/>
        <path id="Trazado_117546" data-name="Trazado 117546" d="M205.157,43.739l-1.412-4.509,24.179,13.421-3.114,2.084Z" transform="translate(17.428 3.356)" fill="#d0e7ff" fill-rule="evenodd"/>
        <g id="Grupo_141680" data-name="Grupo 141680" transform="translate(171.138 63.777)" opacity="0.5" style="mix-blend-mode: multiply;isolation: isolate">
          <g id="Grupo_141679" data-name="Grupo 141679">
            <g id="Grupo_141678" data-name="Grupo 141678" clip-path="url(#clip-path-34)">
              <g id="Grupo_141677" data-name="Grupo 141677" transform="translate(0 -0.001)">
                <g id="Grupo_141676" data-name="Grupo 141676" clip-path="url(#clip-path-35)">
                  <rect id="Rectángulo_5180" data-name="Rectángulo 5180" width="157.006" height="198.683" transform="translate(-42.879 8.038) rotate(-14.262)" fill="url(#linear-gradient-13)"/>
                </g>
              </g>
            </g>
          </g>
        </g>
        <path id="Trazado_117548" data-name="Trazado 117548" d="M171.939,68.873c.136-1,.332-5.47,1.533-6.379a27.989,27.989,0,0,1,5.447-3.246,9.875,9.875,0,0,1,7.592,1.371l71.477,41.421c6.875,4.047,11.513,14.316,10.347,22.916L257.5,206.932a13.2,13.2,0,0,1-2.971,7.1,22.068,22.068,0,0,1-5.373,3.762c-2.047,1.058-4.929-1.84-6.229-2.6l-71.476-41.422c-6.884-4.049-11.514-14.315-10.348-22.914Z" transform="translate(13.765 5.045)" fill="#d0e7ff" fill-rule="evenodd"/>
        <path id="Trazado_117549" data-name="Trazado 117549" d="M169.621,70.492c1.166-8.6,7.69-12.3,14.572-8.253l71.078,41.5c6.875,4.046,11.513,14.315,10.347,22.915l-10.834,81.977c-1.165,8.6-7.7,12.3-14.573,8.253l-71.076-41.5c-6.884-4.05-11.514-14.315-10.35-22.914Z" transform="translate(13.567 5.183)" fill="#fff" fill-rule="evenodd"/>
      </g>
    </g>
    <g id="Grupo_141684" data-name="Grupo 141684" transform="translate(182.064 65.78)">
      <g id="Grupo_141683" data-name="Grupo 141683" clip-path="url(#clip-path-36)">
        <rect id="Rectángulo_5183" data-name="Rectángulo 5183" width="117.236" height="123.08" transform="translate(-34.917 49.642) rotate(-54.878)" fill="url(#linear-gradient-14)"/>
      </g>
    </g>
    <g id="Grupo_141691" data-name="Grupo 141691">
      <g id="Grupo_141690" data-name="Grupo 141690" clip-path="url(#clip-path)">
        <path id="Trazado_117551" data-name="Trazado 117551" d="M179.517,70.013a4.078,4.078,0,0,1,2.67,4.189c-.09,1.943-1.433,3.216-3,2.845a4.078,4.078,0,0,1-2.672-4.189c.091-1.943,1.434-3.216,3-2.845" transform="translate(15.098 5.983)" fill="#fff" fill-rule="evenodd"/>
        <path id="Trazado_117552" data-name="Trazado 117552" d="M187.214,74.811A4.079,4.079,0,0,1,189.884,79c-.09,1.942-1.433,3.215-3,2.843a4.078,4.078,0,0,1-2.672-4.189c.091-1.942,1.434-3.215,3-2.845" transform="translate(15.757 6.394)" fill="#fff" fill-rule="evenodd"/>
        <path id="Trazado_117553" data-name="Trazado 117553" d="M194.911,79.61a4.079,4.079,0,0,1,2.67,4.19c-.09,1.942-1.433,3.216-3,2.844a4.078,4.078,0,0,1-2.672-4.189c.09-1.943,1.434-3.216,3-2.845" transform="translate(16.415 6.804)" fill="#fff" fill-rule="evenodd"/>
        <g id="Grupo_141689" data-name="Grupo 141689" transform="translate(184.343 99.911)" opacity="0.2">
          <g id="Grupo_141688" data-name="Grupo 141688">
            <g id="Grupo_141687" data-name="Grupo 141687" clip-path="url(#clip-path-38)">
              <g id="Grupo_141686" data-name="Grupo 141686" transform="translate(0 0)">
                <g id="Grupo_141685" data-name="Grupo 141685" clip-path="url(#clip-path-39)">
                  <rect id="Rectángulo_5184" data-name="Rectángulo 5184" width="45.086" height="42.949" transform="matrix(0.577, -0.817, 0.817, 0.577, -17.387, 22.614)" fill="url(#linear-gradient-15)"/>
                </g>
              </g>
            </g>
          </g>
        </g>
      </g>
    </g>
    <g id="Grupo_141693" data-name="Grupo 141693" transform="translate(190.408 107.561)">
      <g id="Grupo_141692" data-name="Grupo 141692" clip-path="url(#clip-path-40)">
        <rect id="Rectángulo_5187" data-name="Rectángulo 5187" width="22.928" height="23.708" transform="translate(-9.2 6.814) rotate(-37.171)" fill="url(#linear-gradient-16)"/>
      </g>
    </g>
    <g id="Grupo_141710" data-name="Grupo 141710">
      <g id="Grupo_141709" data-name="Grupo 141709" clip-path="url(#clip-path)">
        <g id="Grupo_141696" data-name="Grupo 141696" transform="translate(214.464 115.507)" opacity="0.2">
          <g id="Grupo_141695" data-name="Grupo 141695">
            <g id="Grupo_141694" data-name="Grupo 141694" clip-path="url(#clip-path-42)">
              <path id="Trazado_117556" data-name="Trazado 117556" d="M198.108,108.577c.259-1.913,1.708-2.714,3.235-1.785L247.8,133.572a5.59,5.59,0,0,1,2.295,5.147l-.5,3.783c-.259,1.913-1.709,2.713-3.235,1.786L199.9,117.507a5.585,5.585,0,0,1-2.295-5.147Z" transform="translate(-197.565 -106.405)" fill="#955cf1" fill-rule="evenodd"/>
            </g>
          </g>
        </g>
        <g id="Grupo_141699" data-name="Grupo 141699" transform="translate(212.839 130.311)" opacity="0.2">
          <g id="Grupo_141698" data-name="Grupo 141698">
            <g id="Grupo_141697" data-name="Grupo 141697" clip-path="url(#clip-path-43)">
              <path id="Trazado_117557" data-name="Trazado 117557" d="M196.388,121.326c.153-1.129,1.008-1.6,1.909-1.054l27.435,15.813a3.3,3.3,0,0,1,1.355,3.04l-.3,2.234c-.153,1.13-1.01,1.6-1.911,1.054L197.447,126.6a3.3,3.3,0,0,1-1.356-3.04Z" transform="translate(-196.068 -120.043)" fill="#955cf1" fill-rule="evenodd"/>
            </g>
          </g>
        </g>
        <g id="Grupo_141702" data-name="Grupo 141702" transform="translate(181.87 133.56)" opacity="0.2">
          <g id="Grupo_141701" data-name="Grupo 141701">
            <g id="Grupo_141700" data-name="Grupo 141700" clip-path="url(#clip-path-44)">
              <path id="Trazado_117558" data-name="Trazado 117558" d="M167.819,124.618c.189-1.393,1.243-1.976,2.355-1.3l80.234,46.031a4.07,4.07,0,0,1,1.671,3.748l-.25,1.824c-.188,1.393-1.244,1.976-2.356,1.3L169.24,130.191a4.068,4.068,0,0,1-1.671-3.748Z" transform="translate(-167.539 -123.036)" fill="#955cf1" fill-rule="evenodd"/>
            </g>
          </g>
        </g>
        <g id="Grupo_141705" data-name="Grupo 141705" transform="translate(180.193 147.062)" opacity="0.2">
          <g id="Grupo_141704" data-name="Grupo 141704">
            <g id="Grupo_141703" data-name="Grupo 141703" clip-path="url(#clip-path-45)">
              <path id="Trazado_117559" data-name="Trazado 117559" d="M166.274,137.055c.189-1.392,1.243-1.975,2.355-1.3l80.234,46.03a4.072,4.072,0,0,1,1.671,3.748l-.25,1.825c-.188,1.392-1.244,1.975-2.356,1.3l-80.233-46.032a4.064,4.064,0,0,1-1.671-3.747Z" transform="translate(-165.994 -135.474)" fill="#955cf1" fill-rule="evenodd"/>
            </g>
          </g>
        </g>
        <g id="Grupo_141708" data-name="Grupo 141708" transform="translate(178.435 159.924)" opacity="0.2">
          <g id="Grupo_141707" data-name="Grupo 141707">
            <g id="Grupo_141706" data-name="Grupo 141706" clip-path="url(#clip-path-45)">
              <path id="Trazado_117560" data-name="Trazado 117560" d="M164.655,148.9c.189-1.393,1.243-1.976,2.355-1.3l80.234,46.031a4.073,4.073,0,0,1,1.672,3.748l-.25,1.824c-.189,1.393-1.245,1.976-2.357,1.3l-80.233-46.031a4.067,4.067,0,0,1-1.671-3.747Z" transform="translate(-164.375 -147.322)" fill="#955cf1" fill-rule="evenodd"/>
            </g>
          </g>
        </g>
        <path id="Trazado_117561" data-name="Trazado 117561" d="M260.9,61.793c.254-1.784-.932-3.158-.159-4.341.837-1.276,3.683-2.191,4.913-2.635a6.962,6.962,0,0,1,5.895.774l85.34,48.791c4.983,2.852,8.3,10.262,7.411,16.536l-9.579,66.954c-.439,3.074-1.807,5.309-3.677,6.455-1.143.7-4.269,2.039-5.686,1.866-1-.122-.239-1.516-1.287-2.116L258.73,145.284c-4.989-2.855-8.305-10.263-7.412-16.536Z" transform="translate(21.485 4.659)" fill="#d0e7ff" fill-rule="evenodd"/>
      </g>
    </g>
    <g id="Grupo_141712" data-name="Grupo 141712" transform="translate(270.098 60.149)">
      <g id="Grupo_141711" data-name="Grupo 141711" clip-path="url(#clip-path-47)">
        <rect id="Rectángulo_5194" data-name="Rectángulo 5194" width="169.428" height="150.862" transform="translate(-39.957 130.695) rotate(-73.301)" fill="#4dd0e1" opacity="0.51"/>
      </g>
    </g>
    <g id="Grupo_141714" data-name="Grupo 141714">
      <g id="Grupo_141713" data-name="Grupo 141713" clip-path="url(#clip-path)">
        <path id="Trazado_117563" data-name="Trazado 117563" d="M251.692,126.711c.077-.545.49-.777.922-.518l94.648,54.271a1.563,1.563,0,0,1,.64,1.457l-.252,1.652c-.077.545-.49.776-.922.518L252.081,129.82a1.561,1.561,0,0,1-.64-1.457Z" transform="translate(21.506 10.785)" fill="#6d6afd" fill-rule="evenodd"/>
        <path id="Trazado_117564" data-name="Trazado 117564" d="M251.732,126.757c.075-.525.473-.75.889-.5L290.8,148.143a1.508,1.508,0,0,1,.619,1.4l-.242,1.594c-.075.525-.474.749-.889.5l-38.178-21.884a1.505,1.505,0,0,1-.618-1.4Z" transform="translate(21.511 10.791)" fill="#ffa726" fill-rule="evenodd"/>
        <path id="Trazado_117565" data-name="Trazado 117565" d="M289.432,101.914c.161-1.129,1.018-1.629,1.915-1.116L311.2,112.157a3.134,3.134,0,0,1,1.333,2.973l-2.679,18.895c-.161,1.128-1.019,1.628-1.916,1.116l-19.858-11.359a3.135,3.135,0,0,1-1.333-2.973Z" transform="translate(24.526 8.605)" fill="#ff3864" fill-rule="evenodd"/>
        <path id="Trazado_117566" data-name="Trazado 117566" d="M300.762,107.135c-4.548-2.6-8.891-.067-9.706,5.653s2.206,12.473,6.755,15.075,8.891.066,9.706-5.66-2.211-12.47-6.755-15.068" transform="translate(24.885 9.077)" fill="#ff3864" fill-rule="evenodd"/>
        <path id="Trazado_117567" data-name="Trazado 117567" d="M296.224,109.613l-1.435,10.355,8.773.238Z" transform="translate(25.216 9.376)" fill="#fff" fill-rule="evenodd"/>
      </g>
    </g>
    <g id="Grupo_141716" data-name="Grupo 141716" transform="translate(211.419 65.257)">
      <g id="Grupo_141715" data-name="Grupo 141715" clip-path="url(#clip-path-49)">
        <rect id="Rectángulo_5196" data-name="Rectángulo 5196" width="16.586" height="13.525" transform="translate(-5.892 11.929) rotate(-65.186)" fill="url(#linear-gradient-17)"/>
      </g>
    </g>
    <g id="Grupo_141721" data-name="Grupo 141721">
      <g id="Grupo_141720" data-name="Grupo 141720" clip-path="url(#clip-path)">
        <path id="Trazado_117569" data-name="Trazado 117569" d="M211.883,47.494a7.718,7.718,0,0,0,.187-.87c1.287-5.329,2.6-14.447,2.429-19.731-.128-4.034-2.092-7.449-6.826-6.134a4.3,4.3,0,0,0-3.352,3.425c-.258,2.294.084,6.1.3,9.991.173,3.11.157,8.717.277,10.99-.021.069-.04.14-.059.213a122.991,122.991,0,0,0-5.783,16.064,6.2,6.2,0,0,0-.013,1.477,2.737,2.737,0,0,1-.382,1.188,7.184,7.184,0,0,0,3.245,1.672,8.619,8.619,0,0,1,.663-1.169c.2-.314,1.153-.61,1.522-1.052,1.96-2.35,7.136-13.093,7.769-15.95.009-.038.015-.076.022-.114" transform="translate(16.993 1.751)" fill="#1d65bd" fill-rule="evenodd"/>
        <g id="Grupo_141719" data-name="Grupo 141719" transform="translate(149.204 296.708)" opacity="0.16">
          <g id="Grupo_141718" data-name="Grupo 141718">
            <g id="Grupo_141717" data-name="Grupo 141717" clip-path="url(#clip-path-51)">
              <path id="Trazado_117570" data-name="Trazado 117570" d="M141.511,300.389l42.967-24.47c4.684-2.141,11.388-3.844,16.16-1.36,4.348,2.262,11.511,6.894,14.679,8.7,2.406,1.372,10.757,6.374,5.555,9.2-15.3,8.321-30.443,17.677-45.98,26.13-2.939,1.6-7.237,2.175-11.75,1.8a31.11,31.11,0,0,1-12.726-3.79l-7.619-4.436c-3.371-1.963-5.157-4.282-5.334-6.427-.173-2.1,1.173-4.039,4.049-5.352" transform="translate(-137.447 -273.328)" fill="#707070" fill-rule="evenodd"/>
            </g>
          </g>
        </g>
        <path id="Trazado_117571" data-name="Trazado 117571" d="M156.068,297.2c.841-.018,3.677-2.683,6.361-1.338,3.225,1.616,9.35.185,12.44.927.55.132,1.626-.272,1.839.105.667,1.183,1.311,2.955-.327,4.113a28.03,28.03,0,0,1-5.478,2.58,46.139,46.139,0,0,1-6.928,1.962c-2.282.357-3.323.5-4.177,1.164a6.069,6.069,0,0,1-3.185.765,5.368,5.368,0,0,1-4.062-2.835,12.113,12.113,0,0,1,.031-4.5,22.827,22.827,0,0,1,1.436-3.926Z" transform="translate(13.033 25.275)" fill="#fff" fill-rule="evenodd"/>
        <path id="Trazado_117572" data-name="Trazado 117572" d="M162.53,291.856c-1.02,2.45-.707,6.24-3.125,7.555a3.6,3.6,0,0,1-5.251-1.624c-.614-1.4.2-3.794.021-6.87Z" transform="translate(13.166 24.884)" fill="#ffa495" fill-rule="evenodd"/>
        <path id="Trazado_117573" data-name="Trazado 117573" d="M163.344,295.443c1.853.538,6.968.179,10.2.44,1.391.113,2.637.1,3.287,1.365.6,1.162.284,2.156-1.069,3.113a22.9,22.9,0,0,1-4.941,2.425,46.278,46.278,0,0,1-6.929,1.96c-2.282.357-3.322.5-4.176,1.164a6.084,6.084,0,0,1-3.186.766,5.612,5.612,0,0,1-4.062-3.015,11.165,11.165,0,0,1,.033-4.318,8.074,8.074,0,0,1,.237-.915c.255-2.434,1.058-3.417,1.816-3a4.684,4.684,0,0,1,1.824,2.44,2.381,2.381,0,0,0,1.409,1.344,2.785,2.785,0,0,0,3.106-1.365,8.78,8.78,0,0,0,.85-2.466c0-.082.005-.165,0-.247.242-2.128,1.278-1.942,1.12-1.494a1.832,1.832,0,0,0,.477,1.8" transform="translate(13.026 25.093)" fill="#193161" fill-rule="evenodd"/>
        <path id="Trazado_117574" data-name="Trazado 117574" d="M174.3,296.632c-.025.823,1.235.9.872,2.346.606-.594-.24-2.3-.614-2.559-.153-.106-.283-.15-.257.213" transform="translate(14.909 25.349)" fill="#fff" fill-rule="evenodd"/>
        <path id="Trazado_117575" data-name="Trazado 117575" d="M175.387,289.881c.783-.307,2.529-3.785,5.513-3.446a15.158,15.158,0,0,0,5.1-.736c3.133-.89,7.5-3.691,8.242-3.233,1.623,1,1.753,2.819.613,4.471a22.932,22.932,0,0,1-3.8,3.976A40.217,40.217,0,0,1,185.684,295c-1.724.956-2.3.872-3.521,2.529a5.758,5.758,0,0,1-2.728,1.726,6.481,6.481,0,0,1-5.328-2c-.6-1.927-1.629-3.751-.967-6.642Z" transform="translate(14.792 24.157)" fill="#fff" fill-rule="evenodd"/>
        <path id="Trazado_117576" data-name="Trazado 117576" d="M179.644,281.733c-.049,2.653,1.637,6.063-.128,8.175a3.6,3.6,0,0,1-5.48.42c-1.088-1.077-1.207-3.6-2.507-6.4Z" transform="translate(14.672 24.099)" fill="#ffa495" fill-rule="evenodd"/>
        <path id="Trazado_117577" data-name="Trazado 117577" d="M185.23,284.933q.267-.07.536-.147c3.132-.89,7.319-3.048,8.063-2.59,1.624,1,1.932,2.176.792,3.828A22.945,22.945,0,0,1,190.816,290a40.238,40.238,0,0,1-5.371,4.085c-1.723.955-2.295.871-3.521,2.528a5.759,5.759,0,0,1-2.727,1.727,6.657,6.657,0,0,1-5.407-2.012,15.984,15.984,0,0,1-1.1-4.6c-.262-2.36-.1-3.561.928-3.53,1.909.055,2.7,1.062,3.486,1.553,1.7,1.059,2.836-.309,3.114-2a9.937,9.937,0,0,0-.155-2.237c-.027-.078-.056-.156-.088-.232-.557-2.068.474-2.275.493-1.8a1.773,1.773,0,0,0,1.576,1.806,13.885,13.885,0,0,0,3.185-.351" transform="translate(14.762 24.133)" fill="#193161" fill-rule="evenodd"/>
        <path id="Trazado_117578" data-name="Trazado 117578" d="M191.985,282.459c.332.753,1.5.28,1.8,1.741.291-.8-1.206-1.971-1.655-2.044-.185-.029-.321-.013-.141.3" transform="translate(16.415 24.134)" fill="#fff" fill-rule="evenodd"/>
      </g>
    </g>
    <g id="Grupo_141723" data-name="Grupo 141723" transform="translate(174.059 226.074)">
      <g id="Grupo_141722" data-name="Grupo 141722" clip-path="url(#clip-path-52)">
        <rect id="Rectángulo_5199" data-name="Rectángulo 5199" width="90.552" height="43.13" transform="translate(-20.308 83.458) rotate(-78.194)" fill="url(#linear-gradient-18)"/>
      </g>
    </g>
    <g id="Grupo_141725" data-name="Grupo 141725" transform="translate(186.174 303.41)">
      <g id="Grupo_141724" data-name="Grupo 141724" clip-path="url(#clip-path-53)">
        <rect id="Rectángulo_5200" data-name="Rectángulo 5200" width="13.033" height="12.787" transform="matrix(0.572, -0.82, 0.82, 0.572, -4.583, 6.575)" fill="url(#linear-gradient-19)"/>
      </g>
    </g>
    <g id="Grupo_141730" data-name="Grupo 141730">
      <g id="Grupo_141729" data-name="Grupo 141729" clip-path="url(#clip-path)">
        <g id="Grupo_141728" data-name="Grupo 141728" transform="translate(180.285 236.237)" opacity="0.3" style="mix-blend-mode: multiply;isolation: isolate">
          <g id="Grupo_141727" data-name="Grupo 141727">
            <g id="Grupo_141726" data-name="Grupo 141726" clip-path="url(#clip-path-55)">
              <path id="Trazado_117581" data-name="Trazado 117581" d="M181.939,249.966c-2.027,10.165-7.758,23.744-10.888,33.964-1.629-8.757-5.706-23.67-2.18-32.8-.354-2.446-1.457-7.093-2.792-12.058,2.712-5.142.119-9.247,1.4-16.488,7.181-1.252-3.657-10.017,11.539-.785,1.359,10.908,2.636,17.768,2.92,28.165" transform="translate(-166.079 -217.622)" fill="#1e2353" fill-rule="evenodd"/>
            </g>
          </g>
        </g>
      </g>
    </g>
    <g id="Grupo_141732" data-name="Grupo 141732" transform="translate(166.577 230.733)">
      <g id="Grupo_141731" data-name="Grupo 141731" clip-path="url(#clip-path-56)">
        <rect id="Rectángulo_5203" data-name="Rectángulo 5203" width="95.029" height="83.918" transform="matrix(0.591, -0.806, 0.806, 0.591, -42.851, 58.423)" fill="url(#linear-gradient-20)"/>
      </g>
    </g>
    <g id="Grupo_141734" data-name="Grupo 141734" transform="translate(166.425 315.501)">
      <g id="Grupo_141733" data-name="Grupo 141733" clip-path="url(#clip-path-57)">
        <rect id="Rectángulo_5204" data-name="Rectángulo 5204" width="11.541" height="7.612" transform="translate(-1.249 0.316) rotate(-14.34)" fill="url(#linear-gradient-21)"/>
      </g>
    </g>
    <g id="Grupo_141736" data-name="Grupo 141736" transform="translate(204.957 120.908)">
      <g id="Grupo_141735" data-name="Grupo 141735" clip-path="url(#clip-path-58)">
        <rect id="Rectángulo_5205" data-name="Rectángulo 5205" width="25.628" height="24.457" transform="matrix(0.573, -0.819, 0.819, 0.573, -9.565, 13.67)" fill="url(#linear-gradient-22)"/>
      </g>
    </g>
    <g id="Grupo_141741" data-name="Grupo 141741">
      <g id="Grupo_141740" data-name="Grupo 141740" clip-path="url(#clip-path)">
        <path id="Trazado_117585" data-name="Trazado 117585" d="M203.382,116.778c-.86.124-1.465,1.309-1.458,2.47a3.515,3.515,0,0,0-1.27,1.68,7.981,7.981,0,0,1,1.546-1.539,3.683,3.683,0,0,1,1.182-2.611m-4.493-.737-.11.217a2.244,2.244,0,0,0-.32-.778,3.143,3.143,0,0,1-.838,1.866,2.1,2.1,0,0,0,1.268-1.3m-2.759-.064a.724.724,0,0,0-.31-.317,5,5,0,0,1-.661,1.686,2.823,2.823,0,0,0,.972-1.369m-2.344.721-.027.038a2.112,2.112,0,0,0-.377-.008,3.821,3.821,0,0,1-.687,1.883,3.048,3.048,0,0,0,1.091-1.914" transform="translate(16.483 9.878)" fill="#ff8978" fill-rule="evenodd"/>
        <path id="Trazado_117586" data-name="Trazado 117586" d="M181.55,145.029c2.96-5.158,5.278-11.62,9.415-16.858.344-.436,1.155-.771,1.452-1.23q.648-1,1.29-1.965a9.17,9.17,0,0,1,5.954,2.683q-.348,1.036-.685,2.061c-.262.8.241,2.5.014,3.3a132.757,132.757,0,0,1-7.252,19.759c-4.1,5.292-22.334,39.262-31.865,26.935-.859-4.384.3-8.032,2.509-11.581a31.452,31.452,0,0,1,4.326-4.973c3-3.108,10.343-13.49,14.843-18.131" transform="translate(13.651 10.69)" fill="#ffa726" fill-rule="evenodd"/>
        <path id="Trazado_117587" data-name="Trazado 117587" d="M161.273,192.5c.668,6.016-1.142,11.931.7,17.423.082.568.135,2.794.231,3.4,1.214,7.114,16.261,14.313,28.811,7.487.069-.883-.011-1.8.058-3.438-.232-1.526.428-3.162.423-4.092-.018-3.871-1.223-5.851-.646-10.16,1.177-8.765,6.032-17.187,3.346-24.083a7.337,7.337,0,0,0-2.73-3.117c-2.967-2.383-18.307-10.194-22.956-10.746-13.5-1.749-7.961,20.8-7.237,27.325" transform="translate(13.646 14.121)" fill="#ffa726" fill-rule="evenodd"/>
        <g id="Grupo_141739" data-name="Grupo 141739" transform="translate(197.769 189.512)" opacity="0.35" style="mix-blend-mode: multiply;isolation: isolate">
          <g id="Grupo_141738" data-name="Grupo 141738">
            <g id="Grupo_141737" data-name="Grupo 141737" clip-path="url(#clip-path-60)">
              <path id="Trazado_117588" data-name="Trazado 117588" d="M190.272,195.959c1.741-6.44,4.015-12.521,1.987-17.73a7.338,7.338,0,0,0-2.731-3.117c-2.966-2.383-2.573,4.025-7.222,3.474-.9,8.563,3.337,16.35,7.967,17.373" transform="translate(-182.185 -174.579)" fill="#6266d7" fill-rule="evenodd"/>
            </g>
          </g>
        </g>
        <path id="Trazado_117589" data-name="Trazado 117589" d="M182.476,164.229a32.954,32.954,0,0,0,.341,7.387c-4.4-.143-10.507-1.293-11.173-4.567.03-.393.059-.79.078-1.181a1.565,1.565,0,0,0-.179-.141c-1.576-1.049-4.185-1.826-5.86-3.743-2.679-3.063-4.1-7.18-2-11.322,3.84-7.564,13.125-7.692,18.3-1.576,1.011,1.194.271,2.432.847,3.584.111.226.524.326,1,.722.663.547,2.592,5.276,2.543,7.744-.021.993-2.3,2.394-3.317,2.943a2.656,2.656,0,0,1-.58.15" transform="translate(13.914 12.379)" fill="#ffa698" fill-rule="evenodd"/>
      </g>
    </g>
    <g id="Grupo_141743" data-name="Grupo 141743" transform="translate(184.309 173.3)">
      <g id="Grupo_141742" data-name="Grupo 141742" clip-path="url(#clip-path-61)">
        <rect id="Rectángulo_5208" data-name="Rectángulo 5208" width="15.006" height="16.694" transform="matrix(0.37, -0.929, 0.929, 0.37, -4.963, 9.235)" fill="url(#linear-gradient-23)"/>
      </g>
    </g>
    <g id="Grupo_141745" data-name="Grupo 141745" transform="translate(192.881 159.017)">
      <g id="Grupo_141744" data-name="Grupo 141744" clip-path="url(#clip-path-62)">
        <rect id="Rectángulo_5209" data-name="Rectángulo 5209" width="17.781" height="14.669" transform="translate(-7.275 12.342) rotate(-62.489)" fill="url(#linear-gradient-24)"/>
      </g>
    </g>
    <g id="Grupo_141747" data-name="Grupo 141747">
      <g id="Grupo_141746" data-name="Grupo 141746" clip-path="url(#clip-path)">
        <path id="Trazado_117592" data-name="Trazado 117592" d="M179.04,158.179c-.088-1.046-.511-1.247-.862-.969a2.811,2.811,0,0,0-.609,2.287c.17,1.736,1.78,3.291,2.89,1.887-1.213.644-1.785-.911-1.837-2.008-.034-.746.154-1.371.418-1.2" transform="translate(15.187 13.438)" fill="#ffb49c" fill-rule="evenodd"/>
        <path id="Trazado_117593" data-name="Trazado 117593" d="M178.569,158.71c.646.488.943.818.932,1.093-.007.191-.166.478-.733.277a2.466,2.466,0,0,1-.2-1.37" transform="translate(15.273 13.576)" fill="#ff9d8e" fill-rule="evenodd"/>
        <path id="Trazado_117594" data-name="Trazado 117594" d="M171.069,165.182c-1.3.4-2.516,1.739-2.279,2.6,1.3,5.293,11,6.475,17.029,5.2.073-.016-2.258-3.1-3.413-3.474-3.8.372-10.166-1.2-11.337-4.324" transform="translate(14.435 14.129)" fill="#b67f2d" fill-rule="evenodd"/>
        <path id="Trazado_117595" data-name="Trazado 117595" d="M171.158,166.875c-1.609-1.716-4.33-2.536-6.077-4.533-1.722-1.969-3.608-4.992-2.457-8.1-2.029-6.379,4.9-11.438,10.742-12.588a4.536,4.536,0,0,1,4.861,6.689,6.12,6.12,0,0,1,1.4,4.663,4.262,4.262,0,0,0,.3,3.415c.459,1.076,1.607,3.678-.469,2.031-1.341-1.065-2.279,1.287-1.825,2.914a7.442,7.442,0,0,1,.291,3.145c-.39,3.414-5.872,3.316-6.767,2.361" transform="translate(13.88 12.109)" fill="#562e65" fill-rule="evenodd"/>
      </g>
    </g>
    <g id="Grupo_141749" data-name="Grupo 141749" transform="translate(178.283 154.086)">
      <g id="Grupo_141748" data-name="Grupo 141748" clip-path="url(#clip-path-64)">
        <rect id="Rectángulo_5211" data-name="Rectángulo 5211" width="19.421" height="16.592" transform="translate(-5.271 2.317) rotate(-29.801)" fill="url(#linear-gradient-25)"/>
      </g>
    </g>
    <g id="Grupo_141751" data-name="Grupo 141751" transform="translate(238.944 166.58)">
      <g id="Grupo_141750" data-name="Grupo 141750" clip-path="url(#clip-path-65)">
        <rect id="Rectángulo_5212" data-name="Rectángulo 5212" width="24.305" height="22.947" transform="matrix(0.604, -0.797, 0.797, 0.604, -9.802, 12.949)" fill="url(#linear-gradient-26)"/>
      </g>
    </g>
    <g id="Grupo_141762" data-name="Grupo 141762">
      <g id="Grupo_141761" data-name="Grupo 141761" clip-path="url(#clip-path)">
        <path id="Trazado_117598" data-name="Trazado 117598" d="M189.823,173.777c5.114.789,14.978,6.413,21.787,9.464,3.8-5.411,8.779-11.9,11.852-14.078a10.107,10.107,0,0,0,1.528-1.1q.669-.819,1.3-1.686c1.92.267,4.7,2.665,4.666,3.8-.309.567-.624,1.158-.944,1.769a11.565,11.565,0,0,0-.267,1.8c-1.043,3.789-6.791,12.54-9.47,16.444-1.549,2.257-2.093,3.58-3.142,4.254-1.682,1.081-3.939.491-8.288-.6-3.66-.921-15.478-3.07-20.915-5.939-3.833-2.022-6.775-5.668-5.252-9.863a6.6,6.6,0,0,1,7.144-4.265" transform="translate(15.591 14.232)" fill="#ffa726" fill-rule="evenodd"/>
      </g>
    </g>
  </g>
</svg>
