<svg id="Grupo_141765" data-name="Grupo 141765" xmlns="http://www.w3.org/2000/svg" xmlns:xlink="http://www.w3.org/1999/xlink" width="29.064" height="37.434" viewBox="0 0 29.064 37.434">
  <defs>
    <clipPath id="clip-path">
      <rect id="Rectángulo_5213" data-name="Rectángulo 5213" width="29.064" height="37.434" fill="#fff"/>
    </clipPath>
  </defs>
  <g id="Grupo_141753" data-name="Grupo 141753">
    <g id="Grupo_141752" data-name="Grupo 141752" clip-path="url(#clip-path)">
      <path id="Trazado_117599" data-name="Trazado 117599" d="M320.092,30.269c-3.339-1.852-6.882.645-6.845,5.477A9.671,9.671,0,0,0,316,42.436a6.5,6.5,0,0,0,1.353,1.013c3.334,1.848,6.859-.647,6.835-5.456a9.644,9.644,0,0,0-2.729-6.7,6.614,6.614,0,0,0-1.363-1.023m-3.219,15.449a8.914,8.914,0,0,1-1.816-1.359,13.023,13.023,0,0,1-3.7-9c-.04-6.481,4.713-9.849,9.2-7.363a8.8,8.8,0,0,1,1.842,1.385,12.944,12.944,0,0,1,3.675,8.995c.027,6.463-4.72,9.825-9.2,7.34m15.29-5.508a2.457,2.457,0,0,1,1.036,2.551l-.816,3.8a1.2,1.2,0,0,1-1.793.969l-.4-.223a1.122,1.122,0,0,0-1.582.436,11.82,11.82,0,0,1-.726,1.078,2.241,2.241,0,0,0-.162,2.149l.21.515a1.99,1.99,0,0,1-.532,2.475l-2.75,1.485a1.134,1.134,0,0,1-1.114-.04,2.127,2.127,0,0,1-.891-1.073l-.213-.5a2.1,2.1,0,0,0-.884-1.059,1.288,1.288,0,0,0-.66-.169c-.389,0-.784-.013-1.176-.05a1.26,1.26,0,0,0-1.312,1.128l-.1.5a1.2,1.2,0,0,1-1.794.969l-3.064-1.7A2.451,2.451,0,0,1,312.4,50.9l.107-.494a2.588,2.588,0,0,0-.6-2.186c-.33-.364-.638-.739-.944-1.125a1.879,1.879,0,0,0-.584-.521,1.12,1.12,0,0,0-1.1-.041l-.359.185a1.136,1.136,0,0,1-1.115-.039,2.128,2.128,0,0,1-.892-1.073l-1.592-3.893a1.991,1.991,0,0,1,.533-2.473l.363-.2a1.769,1.769,0,0,0,.7-1.852c-.074-.521-.125-1.043-.158-1.568a2.374,2.374,0,0,0-1.076-1.909l-.4-.221a2.449,2.449,0,0,1-1.039-2.538l.817-3.8c.211-.98,1.014-1.413,1.8-.98l.4.221a1.118,1.118,0,0,0,1.581-.435,11.417,11.417,0,0,1,.727-1.079,2.22,2.22,0,0,0,.159-2.139l-.211-.515a2.01,2.01,0,0,1,.535-2.485l2.75-1.486a1.137,1.137,0,0,1,1.114.04,2.136,2.136,0,0,1,.893,1.071l.21.515a2.1,2.1,0,0,0,.884,1.059,1.283,1.283,0,0,0,.66.17,9.459,9.459,0,0,1,1.177.039,1.242,1.242,0,0,0,1.31-1.117l.106-.5c.21-.979,1.014-1.413,1.794-.979l3.067,1.7a2.448,2.448,0,0,1,1.035,2.548l-.106.5a2.557,2.557,0,0,0,.594,2.171q.5.544.95,1.14a1.9,1.9,0,0,0,.584.52,1.123,1.123,0,0,0,1.1.042l.363-.2a1.134,1.134,0,0,1,1.114.04,2.121,2.121,0,0,1,.893,1.073l1.591,3.893a2.008,2.008,0,0,1-.533,2.485l-.364.194a1.76,1.76,0,0,0-.7,1.842q.109.783.16,1.568a2.371,2.371,0,0,0,1.076,1.911Z" transform="translate(-304.186 -18.136)" fill="#fff" fill-rule="evenodd"/>
    </g>
  </g>
</svg>
