<svg xmlns="http://www.w3.org/2000/svg" width="34.988" height="40.688" viewBox="0 0 34.988 40.688">
  <path id="Trazado_117599" data-name="Trazado 117599" d="M32.429,21.842c-.344,2.352-2.185,3.416-4.13,2.338a6.491,6.491,0,0,1-2.911-6.243c.342-2.336,2.177-3.356,4.157-2.259a6.415,6.415,0,0,1,2.885,6.164m-10.676,20.9c.344-2.351,2.179-3.371,4.16-2.273A6.416,6.416,0,0,1,28.8,46.643c-.344,2.351-2.186,3.416-4.133,2.338a6.491,6.491,0,0,1-2.911-6.242M9.6,22.626c-.343,2.338-2.213,3.338-4.159,2.26a6.431,6.431,0,0,1-2.884-6.163c.344-2.352,2.2-3.411,4.13-2.338A6.538,6.538,0,0,1,9.6,22.626m20.383-9.941c-3.31-1.837-6.487-.123-7.073,3.88l0,.3L11.368,18.679A9.784,9.784,0,0,0,7.12,13.435C3.81,11.6.68,13.355.093,17.356-.487,21.315,1.693,26.045,5,27.879a4.317,4.317,0,0,0,5.036-.143l9.307,13.416-.072.215c-.585,4,1.65,8.715,4.96,10.549,3.273,1.815,6.438.1,7.026-3.907.579-3.958-1.635-8.723-4.91-10.539-2.355-1.3-4.609-.8-5.943.988L11.592,25.61a5.261,5.261,0,0,0,.448-1.632,7.127,7.127,0,0,0,.069-1.9L23.083,20.2a10.64,10.64,0,0,0,4.785,6.931c3.273,1.814,6.439.079,7.027-3.923S33.257,14.5,29.984,12.685" transform="translate(0 -11.949)" fill="#ffca28" fill-rule="evenodd"/>
</svg>
