<svg xmlns="http://www.w3.org/2000/svg" width="819.1" height="206.885" viewBox="0 0 819.1 206.885">
  <g id="Grupo_142814" data-name="Grupo 142814" transform="translate(-390.45 -1391.484)">
    <path id="Trazado_159375" data-name="Trazado 159375" d="M129.126,2.563c-1.742-.4-3.52-.75-5.285-1.054L123.359,4.3c1.716.3,3.446.641,5.139,1.025Z" transform="translate(390.45 1391.484)" fill="#ffa726"/>
    <path id="Trazado_159376" data-name="Trazado 159376" d="M118.512.732c-1.773-.211-3.578-.379-5.365-.5l-.189,2.83c1.739.116,3.494.279,5.219.485Z" transform="translate(390.45 1391.484)" fill="#ffa726"/>
    <path id="Trazado_159377" data-name="Trazado 159377" d="M322.557.731c-1.773-.211-3.578-.378-5.365-.5L317,3.061c1.738.116,3.494.279,5.219.485Z" transform="translate(390.45 1391.484)" fill="#ffa726"/>
    <path id="Trazado_159378" data-name="Trazado 159378" d="M333.174,2.563c-1.742-.4-3.52-.75-5.285-1.054L327.407,4.3c1.716.3,3.446.641,5.139,1.025Z" transform="translate(390.45 1391.484)" fill="#ffa726"/>
    <path id="Trazado_159379" data-name="Trazado 159379" d="M537.219,2.563c-1.743-.4-3.521-.75-5.285-1.054L531.452,4.3c1.715.3,3.445.64,5.139,1.025Z" transform="translate(390.45 1391.484)" fill="#ffa726"/>
    <path id="Trazado_159380" data-name="Trazado 159380" d="M526.6.731c-1.774-.211-3.578-.378-5.365-.5l-.189,2.83c1.738.116,3.5.279,5.219.485Z" transform="translate(390.45 1391.484)" fill="#ffa726"/>
    <path id="Trazado_159381" data-name="Trazado 159381" d="M103.438,204.046a100.6,100.6,0,1,1,0-201.209q.784,0,1.567.012l.043-2.836q-.8-.012-1.61-.012a103.432,103.432,0,1,0,94.72,145.074l-2.6-1.142a100.69,100.69,0,0,1-92.124,60.112" transform="translate(390.45 1391.484)" fill="#ffa726"/>
    <path id="Trazado_159382" data-name="Trazado 159382" d="M213.752,140.061l-2.642,1.032c.65,1.662,1.353,3.33,2.089,4.957l2.583-1.169c-.716-1.582-1.4-3.2-2.031-4.82" transform="translate(390.45 1391.484)" fill="#ffa726"/>
    <path id="Trazado_159383" data-name="Trazado 159383" d="M215.546,150.891c.82,1.585,1.693,3.171,2.6,4.715l2.448-1.432c-.879-1.5-1.728-3.044-2.525-4.585Z" transform="translate(390.45 1391.484)" fill="#ffa726"/>
    <path id="Trazado_159384" data-name="Trazado 159384" d="M220.98,160.181c.983,1.495,2.016,2.982,3.073,4.422l2.286-1.678c-1.028-1.4-2.034-2.847-2.989-4.3Z" transform="translate(390.45 1391.484)" fill="#ffa726"/>
    <path id="Trazado_159385" data-name="Trazado 159385" d="M210.455,130.117l-2.735.75c.473,1.725,1,3.46,1.562,5.158l2.692-.893c-.548-1.651-1.058-3.339-1.519-5.015" transform="translate(390.45 1391.484)" fill="#ffa726"/>
    <path id="Trazado_159386" data-name="Trazado 159386" d="M208.215,119.881l-2.8.46c.29,1.766.631,3.546,1.013,5.293l2.771-.606c-.371-1.7-.7-3.429-.985-5.147" transform="translate(390.45 1391.484)" fill="#ffa726"/>
    <path id="Trazado_159387" data-name="Trazado 159387" d="M280.839,203.417c1.731.46,3.5.879,5.243,1.247l.584-2.775c-1.7-.358-3.415-.766-5.1-1.213Z" transform="translate(390.45 1391.484)" fill="#ffa726"/>
    <path id="Trazado_159388" data-name="Trazado 159388" d="M270.577,200.1c1.674.64,3.388,1.244,5.1,1.795l.872-2.7c-1.66-.536-3.327-1.123-4.954-1.745Z" transform="translate(390.45 1391.484)" fill="#ffa726"/>
    <path id="Trazado_159389" data-name="Trazado 159389" d="M260.707,195.73c1.6.812,3.24,1.592,4.875,2.317l1.15-2.592c-1.59-.705-3.185-1.464-4.741-2.253Z" transform="translate(390.45 1391.484)" fill="#ffa726"/>
    <path id="Trazado_159390" data-name="Trazado 159390" d="M207.056,109.466l-2.831.167c.106,1.786.259,3.592.457,5.369l2.819-.314c-.192-1.728-.342-3.485-.444-5.222" transform="translate(390.45 1391.484)" fill="#ffa726"/>
    <path id="Trazado_159391" data-name="Trazado 159391" d="M234.592,176.836c1.268,1.26,2.587,2.5,3.921,3.7l1.891-2.113c-1.3-1.162-2.581-2.371-3.814-3.6Z" transform="translate(390.45 1391.484)" fill="#ffa726"/>
    <path id="Trazado_159392" data-name="Trazado 159392" d="M227.354,168.857c1.132,1.384,2.315,2.758,3.516,4.082l2.1-1.906c-1.169-1.288-2.32-2.624-3.42-3.971Z" transform="translate(390.45 1391.484)" fill="#ffa726"/>
    <path id="Trazado_159393" data-name="Trazado 159393" d="M251.357,190.349c1.506.974,3.055,1.92,4.6,2.812l1.414-2.458c-1.506-.867-3.013-1.787-4.478-2.735Z" transform="translate(390.45 1391.484)" fill="#ffa726"/>
    <path id="Trazado_159394" data-name="Trazado 159394" d="M242.621,184.024c1.393,1.123,2.835,2.224,4.285,3.273l1.663-2.3c-1.411-1.021-2.813-2.092-4.168-3.184Z" transform="translate(390.45 1391.484)" fill="#ffa726"/>
    <path id="Trazado_159395" data-name="Trazado 159395" d="M173.532,27.371c-1.315-1.212-2.679-2.406-4.054-3.548L167.666,26c1.338,1.111,2.664,2.272,3.944,3.451Z" transform="translate(390.45 1391.484)" fill="#ffa726"/>
    <path id="Trazado_159396" data-name="Trazado 159396" d="M181.067,35.073c-1.182-1.34-2.415-2.67-3.667-3.95L175.373,33.1c1.218,1.246,2.418,2.538,3.568,3.842Z" transform="translate(390.45 1391.484)" fill="#ffa726"/>
    <path id="Trazado_159397" data-name="Trazado 159397" d="M165.247,20.49c-1.434-1.07-2.913-2.115-4.4-3.108l-1.576,2.358c1.444.965,2.883,1.982,4.277,3.023Z" transform="translate(390.45 1391.484)" fill="#ffa726"/>
    <path id="Trazado_159398" data-name="Trazado 159398" d="M187.765,43.52c-1.039-1.459-2.129-2.909-3.24-4.31L182.3,40.973c1.081,1.362,2.141,2.773,3.151,4.192Z" transform="translate(390.45 1391.484)" fill="#ffa726"/>
    <path id="Trazado_159399" data-name="Trazado 159399" d="M159.012,14.508c-1.535-.914-3.115-1.8-4.694-2.633l-1.323,2.509c1.536.81,3.072,1.671,4.565,2.56Z" transform="translate(390.45 1391.484)" fill="#ffa726"/>
    <path id="Trazado_159400" data-name="Trazado 159400" d="M195.763,63.407l2.6-1.129c-.713-1.643-1.48-3.29-2.279-4.893l-2.539,1.264c.777,1.56,1.523,3.161,2.216,4.759" transform="translate(390.45 1391.484)" fill="#ffa726"/>
    <path id="Trazado_159401" data-name="Trazado 159401" d="M193.554,52.619c-.881-1.559-1.815-3.116-2.776-4.626l-2.393,1.522c.934,1.468,1.843,2.982,2.7,4.5Z" transform="translate(390.45 1391.484)" fill="#ffa726"/>
    <path id="Trazado_159402" data-name="Trazado 159402" d="M206.878,103.441c0-1.521-.034-3.061-.1-4.58l-2.833.123c.064,1.477.1,2.976.1,4.456v.807l2.836-.022v-.785" transform="translate(390.45 1391.484)" fill="#ffa726"/>
    <path id="Trazado_159403" data-name="Trazado 159403" d="M203.618,77.58l-2.746.707c.433,1.683.828,3.4,1.173,5.108l2.78-.562c-.355-1.755-.761-3.522-1.206-5.253" transform="translate(390.45 1391.484)" fill="#ffa726"/>
    <path id="Trazado_159404" data-name="Trazado 159404" d="M200.381,67.286l-2.657.991c.61,1.635,1.184,3.306,1.706,4.968l2.705-.85c-.537-1.709-1.127-3.428-1.755-5.109" transform="translate(390.45 1391.484)" fill="#ffa726"/>
    <path id="Trazado_159405" data-name="Trazado 159405" d="M205.756,88.138l-2.8.416c.255,1.72.468,3.471.633,5.2l2.823-.269c-.17-1.781-.389-3.58-.651-5.349" transform="translate(390.45 1391.484)" fill="#ffa726"/>
    <path id="Trazado_159406" data-name="Trazado 159406" d="M139.5,5.491c-1.694-.577-3.425-1.115-5.146-1.6l-.771,2.729c1.673.473,3.357,1,5,1.557Z" transform="translate(390.45 1391.484)" fill="#ffa726"/>
    <path id="Trazado_159407" data-name="Trazado 159407" d="M149.492,9.491c-1.62-.748-3.282-1.464-4.94-2.127L143.5,10c1.613.645,3.229,1.341,4.8,2.069Z" transform="translate(390.45 1391.484)" fill="#ffa726"/>
    <path id="Trazado_159408" data-name="Trazado 159408" d="M291.386,205.636c1.762.276,3.56.508,5.344.693l.292-2.821c-1.735-.179-3.484-.406-5.2-.674Z" transform="translate(390.45 1391.484)" fill="#ffa726"/>
    <path id="Trazado_159409" data-name="Trazado 159409" d="M307.485,204.046c-1.743,0-3.506-.045-5.24-.134l-.145,2.833c1.782.091,3.594.138,5.386.138a103.589,103.589,0,0,0,94.566-61.458l-2.592-1.152a100.749,100.749,0,0,1-91.974,59.774" transform="translate(390.45 1391.484)" fill="#ffa726"/>
    <path id="Trazado_159410" data-name="Trazado 159410" d="M307.482,2.837q.785,0,1.567.012L309.1.014Q308.29,0,307.483,0a103.5,103.5,0,0,0-94.8,61.993l2.6,1.137a100.661,100.661,0,0,1,92.2-60.3" transform="translate(390.45 1391.484)" fill="#ffa726"/>
    <path id="Trazado_159411" data-name="Trazado 159411" d="M407.663,77.58l-2.746.707c.433,1.683.828,3.4,1.173,5.108l2.78-.562c-.355-1.755-.761-3.522-1.206-5.253" transform="translate(390.45 1391.484)" fill="#ffa726"/>
    <path id="Trazado_159412" data-name="Trazado 159412" d="M404.429,67.286l-2.657.992c.61,1.635,1.184,3.306,1.706,4.968l2.705-.85c-.537-1.709-1.127-3.428-1.755-5.109" transform="translate(390.45 1391.484)" fill="#ffa726"/>
    <path id="Trazado_159413" data-name="Trazado 159413" d="M409.8,88.138l-2.805.416c.255,1.72.468,3.471.633,5.2l2.823-.269c-.17-1.781-.389-3.58-.651-5.349" transform="translate(390.45 1391.484)" fill="#ffa726"/>
    <path id="Trazado_159414" data-name="Trazado 159414" d="M411.1,109.467l-2.831.167c.1,1.786.259,3.592.457,5.369l2.819-.314c-.193-1.728-.342-3.485-.444-5.222" transform="translate(390.45 1391.484)" fill="#ffa726"/>
    <path id="Trazado_159415" data-name="Trazado 159415" d="M410.924,103.441c0-1.521-.034-3.061-.1-4.579l-2.833.123c.064,1.477.1,2.976.1,4.456v.807l2.836-.022v-.785" transform="translate(390.45 1391.484)" fill="#ffa726"/>
    <path id="Trazado_159416" data-name="Trazado 159416" d="M412.261,119.881l-2.8.46c.29,1.766.631,3.546,1.013,5.293l2.771-.606c-.371-1.7-.7-3.429-.985-5.147" transform="translate(390.45 1391.484)" fill="#ffa726"/>
    <path id="Trazado_159417" data-name="Trazado 159417" d="M399.808,63.408l2.6-1.129c-.713-1.643-1.48-3.29-2.279-4.893L397.59,58.65c.777,1.56,1.523,3.161,2.217,4.759" transform="translate(390.45 1391.484)" fill="#ffa726"/>
    <path id="Trazado_159418" data-name="Trazado 159418" d="M391.809,43.519c-1.038-1.459-2.129-2.909-3.24-4.31l-2.222,1.762c1.081,1.363,2.142,2.774,3.151,4.192Z" transform="translate(390.45 1391.484)" fill="#ffa726"/>
    <path id="Trazado_159419" data-name="Trazado 159419" d="M377.577,27.371c-1.315-1.212-2.679-2.406-4.054-3.548L371.713,26c1.338,1.111,2.665,2.272,3.944,3.451Z" transform="translate(390.45 1391.484)" fill="#ffa726"/>
    <path id="Trazado_159420" data-name="Trazado 159420" d="M414.5,130.117l-2.735.75c.474,1.727,1,3.462,1.562,5.158l2.692-.893c-.547-1.649-1.058-3.337-1.518-5.016" transform="translate(390.45 1391.484)" fill="#ffa726"/>
    <path id="Trazado_159421" data-name="Trazado 159421" d="M385.111,35.073c-1.182-1.34-2.415-2.67-3.667-3.95L379.416,33.1c1.218,1.246,2.418,2.538,3.568,3.842Z" transform="translate(390.45 1391.484)" fill="#ffa726"/>
    <path id="Trazado_159422" data-name="Trazado 159422" d="M343.546,5.491c-1.694-.577-3.426-1.116-5.146-1.6l-.771,2.729c1.673.473,3.357,1,5,1.557Z" transform="translate(390.45 1391.484)" fill="#ffa726"/>
    <path id="Trazado_159423" data-name="Trazado 159423" d="M353.538,9.491c-1.62-.748-3.282-1.464-4.94-2.127L347.545,10c1.613.645,3.229,1.341,4.8,2.069Z" transform="translate(390.45 1391.484)" fill="#ffa726"/>
    <path id="Trazado_159424" data-name="Trazado 159424" d="M369.293,20.49c-1.434-1.07-2.913-2.115-4.4-3.108l-1.576,2.358c1.444.965,2.883,1.982,4.277,3.023Z" transform="translate(390.45 1391.484)" fill="#ffa726"/>
    <path id="Trazado_159425" data-name="Trazado 159425" d="M363.056,14.508c-1.535-.914-3.115-1.8-4.694-2.633l-1.323,2.509c1.536.81,3.073,1.671,4.565,2.56Z" transform="translate(390.45 1391.484)" fill="#ffa726"/>
    <path id="Trazado_159426" data-name="Trazado 159426" d="M397.6,52.619c-.881-1.559-1.815-3.116-2.776-4.626l-2.393,1.522c.934,1.468,1.843,2.982,2.7,4.5Z" transform="translate(390.45 1391.484)" fill="#ffa726"/>
    <path id="Trazado_159427" data-name="Trazado 159427" d="M474.619,200.1c1.674.64,3.388,1.244,5.1,1.795l.872-2.7c-1.66-.536-3.326-1.123-4.954-1.745Z" transform="translate(390.45 1391.484)" fill="#ffa726"/>
    <path id="Trazado_159428" data-name="Trazado 159428" d="M464.754,195.728c1.6.812,3.239,1.591,4.875,2.317l1.15-2.592c-1.591-.706-3.186-1.464-4.741-2.253Z" transform="translate(390.45 1391.484)" fill="#ffa726"/>
    <path id="Trazado_159429" data-name="Trazado 159429" d="M495.427,205.636c1.763.276,3.561.509,5.344.693l.292-2.821c-1.734-.179-3.483-.406-5.2-.674Z" transform="translate(390.45 1391.484)" fill="#ffa726"/>
    <path id="Trazado_159430" data-name="Trazado 159430" d="M417.8,140.061l-2.641,1.032c.65,1.662,1.353,3.33,2.089,4.957l2.583-1.169c-.716-1.583-1.4-3.2-2.031-4.82" transform="translate(390.45 1391.484)" fill="#ffa726"/>
    <path id="Trazado_159431" data-name="Trazado 159431" d="M455.4,190.349c1.5.974,3.053,1.919,4.6,2.812l1.414-2.458c-1.508-.868-3.015-1.788-4.478-2.735Z" transform="translate(390.45 1391.484)" fill="#ffa726"/>
    <path id="Trazado_159432" data-name="Trazado 159432" d="M484.882,203.417c1.73.46,3.494.879,5.242,1.247l.584-2.775c-1.7-.358-3.416-.766-5.1-1.213Z" transform="translate(390.45 1391.484)" fill="#ffa726"/>
    <path id="Trazado_159433" data-name="Trazado 159433" d="M419.591,150.891c.82,1.585,1.693,3.171,2.6,4.715l2.448-1.432c-.879-1.5-1.728-3.044-2.525-4.585Z" transform="translate(390.45 1391.484)" fill="#ffa726"/>
    <path id="Trazado_159434" data-name="Trazado 159434" d="M425.024,160.181c.983,1.495,2.017,2.982,3.073,4.422l2.286-1.678c-1.028-1.4-2.034-2.847-2.989-4.3Z" transform="translate(390.45 1391.484)" fill="#ffa726"/>
    <path id="Trazado_159435" data-name="Trazado 159435" d="M438.638,176.836c1.268,1.26,2.587,2.5,3.921,3.7l1.891-2.113c-1.3-1.162-2.581-2.371-3.814-3.6Z" transform="translate(390.45 1391.484)" fill="#ffa726"/>
    <path id="Trazado_159436" data-name="Trazado 159436" d="M431.4,168.857c1.132,1.384,2.315,2.758,3.516,4.082l2.1-1.906c-1.169-1.288-2.32-2.624-3.421-3.971Z" transform="translate(390.45 1391.484)" fill="#ffa726"/>
    <path id="Trazado_159437" data-name="Trazado 159437" d="M446.668,184.025c1.393,1.123,2.835,2.224,4.284,3.273l1.663-2.3c-1.41-1.02-2.812-2.092-4.167-3.184Z" transform="translate(390.45 1391.484)" fill="#ffa726"/>
    <path id="Trazado_159438" data-name="Trazado 159438" d="M511.529,204.045c-1.743,0-3.506-.045-5.24-.134l-.145,2.833c1.782.091,3.594.138,5.386.138A103.589,103.589,0,0,0,606.1,145.424l-2.592-1.152a100.749,100.749,0,0,1-91.974,59.774" transform="translate(390.45 1391.484)" fill="#ffa726"/>
    <path id="Trazado_159439" data-name="Trazado 159439" d="M511.529,2.837q.785,0,1.567.012L513.14.013Q512.34,0,511.531,0h0a103.46,103.46,0,0,0-94.375,61.032l2.586,1.164a100.819,100.819,0,0,1,91.789-59.36" transform="translate(390.45 1391.484)" fill="#ffa726"/>
    <path id="Trazado_159440" data-name="Trazado 159440" d="M613.845,88.138l-2.806.416c.255,1.718.469,3.468.635,5.2l2.823-.269c-.17-1.783-.39-3.583-.651-5.349" transform="translate(390.45 1391.484)" fill="#ffa726"/>
    <path id="Trazado_159441" data-name="Trazado 159441" d="M573.337,20.49c-1.434-1.07-2.914-2.115-4.4-3.108l-1.576,2.358c1.444.965,2.883,1.982,4.277,3.023Z" transform="translate(390.45 1391.484)" fill="#ffa726"/>
    <path id="Trazado_159442" data-name="Trazado 159442" d="M614.968,103.441c0-1.525-.033-3.066-.1-4.58l-2.833.124c.064,1.473.1,2.972.1,4.456v.807l2.836-.022v-.785" transform="translate(390.45 1391.484)" fill="#ffa726"/>
    <path id="Trazado_159443" data-name="Trazado 159443" d="M611.709,77.58l-2.746.707c.434,1.687.829,3.406,1.173,5.108l2.78-.562c-.354-1.75-.76-3.518-1.206-5.253" transform="translate(390.45 1391.484)" fill="#ffa726"/>
    <path id="Trazado_159444" data-name="Trazado 159444" d="M608.473,67.286l-2.657.992c.609,1.633,1.183,3.3,1.706,4.968l2.706-.85c-.538-1.711-1.128-3.43-1.754-5.109" transform="translate(390.45 1391.484)" fill="#ffa726"/>
    <path id="Trazado_159445" data-name="Trazado 159445" d="M547.589,5.491c-1.694-.577-3.424-1.115-5.146-1.6l-.771,2.729c1.674.473,3.357,1,5,1.557Z" transform="translate(390.45 1391.484)" fill="#ffa726"/>
    <path id="Trazado_159446" data-name="Trazado 159446" d="M557.581,9.492c-1.621-.749-3.283-1.465-4.94-2.128L551.588,10c1.611.644,3.228,1.341,4.8,2.069Z" transform="translate(390.45 1391.484)" fill="#ffa726"/>
    <path id="Trazado_159447" data-name="Trazado 159447" d="M567.1,14.508c-1.536-.915-3.116-1.8-4.694-2.633l-1.323,2.509c1.535.809,3.071,1.67,4.565,2.56Z" transform="translate(390.45 1391.484)" fill="#ffa726"/>
    <path id="Trazado_159448" data-name="Trazado 159448" d="M615.147,109.467l-2.831.167c.105,1.786.259,3.592.457,5.369l2.819-.314c-.192-1.728-.342-3.485-.444-5.222" transform="translate(390.45 1391.484)" fill="#ffa726"/>
    <path id="Trazado_159449" data-name="Trazado 159449" d="M621.841,140.062l-2.641,1.032c.649,1.661,1.351,3.329,2.089,4.956l2.583-1.17c-.717-1.583-1.4-3.2-2.031-4.819" transform="translate(390.45 1391.484)" fill="#ffa726"/>
    <path id="Trazado_159450" data-name="Trazado 159450" d="M618.543,130.117l-2.735.75c.473,1.725,1,3.461,1.561,5.158l2.692-.893c-.547-1.65-1.058-3.338-1.518-5.016" transform="translate(390.45 1391.484)" fill="#ffa726"/>
    <path id="Trazado_159451" data-name="Trazado 159451" d="M616.306,119.881l-2.8.459c.289,1.764.63,3.545,1.013,5.293l2.77-.606c-.372-1.7-.7-3.432-.984-5.146" transform="translate(390.45 1391.484)" fill="#ffa726"/>
    <path id="Trazado_159452" data-name="Trazado 159452" d="M581.623,27.371c-1.314-1.211-2.678-2.4-4.054-3.548L575.757,26c1.339,1.112,2.665,2.273,3.943,3.451Z" transform="translate(390.45 1391.484)" fill="#ffa726"/>
    <path id="Trazado_159453" data-name="Trazado 159453" d="M699.472,205.636c1.763.276,3.561.509,5.344.693l.292-2.821c-1.734-.179-3.483-.406-5.2-.674Z" transform="translate(390.45 1391.484)" fill="#ffa726"/>
    <path id="Trazado_159454" data-name="Trazado 159454" d="M688.93,203.417c1.73.46,3.493.879,5.242,1.247l.584-2.775c-1.7-.358-3.416-.766-5.1-1.213Z" transform="translate(390.45 1391.484)" fill="#ffa726"/>
    <path id="Trazado_159455" data-name="Trazado 159455" d="M595.855,43.52c-1.036-1.456-2.126-2.906-3.24-4.31l-2.222,1.762c1.083,1.366,2.143,2.776,3.151,4.192Z" transform="translate(390.45 1391.484)" fill="#ffa726"/>
    <path id="Trazado_159456" data-name="Trazado 159456" d="M678.663,200.1c1.674.64,3.388,1.244,5.094,1.795l.872-2.7c-1.66-.536-3.327-1.123-4.955-1.745Z" transform="translate(390.45 1391.484)" fill="#ffa726"/>
    <path id="Trazado_159457" data-name="Trazado 159457" d="M589.156,35.073c-1.184-1.344-2.418-2.672-3.668-3.95l-2.027,1.983c1.215,1.242,2.415,2.535,3.567,3.842Z" transform="translate(390.45 1391.484)" fill="#ffa726"/>
    <path id="Trazado_159458" data-name="Trazado 159458" d="M659.446,190.349c1.5.974,3.053,1.919,4.6,2.812l1.415-2.458c-1.509-.868-3.015-1.788-4.478-2.735Z" transform="translate(390.45 1391.484)" fill="#ffa726"/>
    <path id="Trazado_159459" data-name="Trazado 159459" d="M668.8,195.73c1.6.812,3.239,1.591,4.875,2.317l1.15-2.592c-1.591-.706-3.186-1.464-4.741-2.253Z" transform="translate(390.45 1391.484)" fill="#ffa726"/>
    <path id="Trazado_159460" data-name="Trazado 159460" d="M642.682,176.836c1.269,1.261,2.588,2.505,3.921,3.7l1.891-2.113c-1.3-1.16-2.579-2.37-3.814-3.6Z" transform="translate(390.45 1391.484)" fill="#ffa726"/>
    <path id="Trazado_159461" data-name="Trazado 159461" d="M629.07,160.181c.983,1.5,2.017,2.983,3.073,4.422l2.285-1.678c-1.027-1.4-2.033-2.846-2.989-4.3Z" transform="translate(390.45 1391.484)" fill="#ffa726"/>
    <path id="Trazado_159462" data-name="Trazado 159462" d="M635.444,168.857c1.131,1.384,2.314,2.758,3.516,4.082l2.1-1.906c-1.169-1.288-2.32-2.624-3.421-3.971Z" transform="translate(390.45 1391.484)" fill="#ffa726"/>
    <path id="Trazado_159463" data-name="Trazado 159463" d="M601.644,52.619c-.881-1.559-1.815-3.115-2.776-4.626l-2.393,1.522c.935,1.469,1.844,2.983,2.7,4.5Z" transform="translate(390.45 1391.484)" fill="#ffa726"/>
    <path id="Trazado_159464" data-name="Trazado 159464" d="M650.712,184.024c1.391,1.121,2.833,2.223,4.284,3.273l1.663-2.3c-1.412-1.022-2.814-2.093-4.168-3.184Z" transform="translate(390.45 1391.484)" fill="#ffa726"/>
    <path id="Trazado_159465" data-name="Trazado 159465" d="M623.636,150.891c.818,1.582,1.692,3.169,2.6,4.715l2.448-1.432c-.88-1.5-1.729-3.046-2.524-4.585Z" transform="translate(390.45 1391.484)" fill="#ffa726"/>
    <path id="Trazado_159466" data-name="Trazado 159466" d="M603.853,63.407l2.6-1.129c-.712-1.64-1.479-3.287-2.279-4.893l-2.539,1.264c.778,1.562,1.524,3.163,2.216,4.759" transform="translate(390.45 1391.484)" fill="#ffa726"/>
    <path id="Trazado_159467" data-name="Trazado 159467" d="M788.8,30.3A103.465,103.465,0,0,0,621.283,61.036l2.586,1.164a100.615,100.615,0,1,1,91.789,141.849c-1.743,0-3.506-.045-5.24-.134l-.145,2.832c1.782.091,3.594.138,5.385.138A103.44,103.44,0,0,0,788.8,30.3" transform="translate(390.45 1391.484)" fill="#ffa726"/>
  </g>
</svg>
