<svg xmlns="http://www.w3.org/2000/svg" xmlns:xlink="http://www.w3.org/1999/xlink" width="295" height="238" viewBox="0 0 295 238">
  <defs>
    <linearGradient id="linear-gradient" x1="0.5" x2="0.5" y2="1" gradientUnits="objectBoundingBox">
      <stop offset="0" stop-color="#fff"/>
      <stop offset="1" stop-color="#fff5d6"/>
    </linearGradient>
    <clipPath id="clip-path">
      <rect id="Rectángulo_12315" data-name="Rectángulo 12315" width="234.4" height="229.869" fill="none"/>
    </clipPath>
    <clipPath id="clip-path-3">
      <rect id="Rectángulo_12307" data-name="Rectángulo 12307" width="41.398" height="31.451" fill="none"/>
    </clipPath>
    <clipPath id="clip-path-5">
      <rect id="Rectángulo_12309" data-name="Rectángulo 12309" width="41.398" height="31.45" fill="none"/>
    </clipPath>
  </defs>
  <g id="Grupo_142351" data-name="Grupo 142351" transform="translate(8916 9931)">
    <g id="Grupo_142248" data-name="Grupo 142248" transform="translate(-9306 -12411)">
      <ellipse id="Elipse_4052" data-name="Elipse 4052" cx="117" cy="103.5" rx="117" ry="103.5" transform="translate(419 2499.149)" fill="url(#linear-gradient)"/>
      <g id="Grupo_142247" data-name="Grupo 142247" transform="translate(419.163 2488)">
        <g id="Grupo_142246" data-name="Grupo 142246" clip-path="url(#clip-path)">
          <g id="Grupo_142245" data-name="Grupo 142245">
            <g id="Grupo_142244" data-name="Grupo 142244" clip-path="url(#clip-path)">
              <path id="Trazado_157194" data-name="Trazado 157194" d="M265.766,159.72a3.5,3.5,0,0,1-1.8-.5l-10.8-6.476.654-1.091,10.8,6.477a2.227,2.227,0,0,0,2.273.013l17.581-10.283a.884.884,0,0,0-.026-1.542l-23.432-12.547.6-1.122L285.046,145.2a2.154,2.154,0,0,1,.068,3.761L267.534,159.24a3.494,3.494,0,0,1-1.768.48" transform="translate(-51.784 -27.134)" fill="#b2d3ea"/>
              <path id="Trazado_157195" data-name="Trazado 157195" d="M201.608,273.133a4.538,4.538,0,0,1-2.211-.573l-43.109-24a1.982,1.982,0,0,1-.012-3.459l19.51-11a.679.679,0,0,0,0-1.177l-21.706-12.464a1.948,1.948,0,0,1-.071-3.335l8.867-5.619.681,1.074-8.867,5.619a.677.677,0,0,0,.024,1.159l21.706,12.464a1.95,1.95,0,0,1-.013,3.386l-19.51,11a.713.713,0,0,0,0,1.242l43.109,24a3.288,3.288,0,0,0,3.293-.06L219.7,261.311a.305.305,0,0,0,.15-.266.311.311,0,0,0-.15-.266l-11.864-7.212.66-1.086,11.864,7.212a1.584,1.584,0,0,1,.007,2.7l-16.4,10.08a4.556,4.556,0,0,1-2.362.659" transform="translate(-31.318 -43.263)" fill="#b2d3ea"/>
              <path id="Trazado_157196" data-name="Trazado 157196" d="M231.92,160.518l-20.784-12c-1.275-.737-1.115-2.023.358-2.873l20.068-11.587a5.53,5.53,0,0,1,4.976-.206l20.784,12c1.275.736,1.115,2.022-.357,2.873L236.9,160.312a5.531,5.531,0,0,1-4.976.206" transform="translate(-43.012 -27.278)" fill="#b2d3ea"/>
              <path id="Trazado_157197" data-name="Trazado 157197" d="M262.665,134.071h0v-8.98l-20.136-.011-6.96-4.019a6.926,6.926,0,0,0-6.232.259l-6.494,3.749-20.154-.011v9.235a1.807,1.807,0,0,0,1.071,1.67l26.026,15.026a6.928,6.928,0,0,0,6.232-.258l25.13-14.509a2.469,2.469,0,0,0,1.518-2.151" transform="translate(-41.459 -24.636)" fill="#396caa"/>
              <path id="Trazado_157198" data-name="Trazado 157198" d="M232.677,120.444a7.188,7.188,0,0,0-3.341.877l-6.493,3.749-20.154-.011v9.235a1.807,1.807,0,0,0,1.07,1.67l26.026,15.026a5.643,5.643,0,0,0,2.892.618Z" transform="translate(-41.459 -24.637)" fill="#396caa"/>
              <path id="Trazado_157199" data-name="Trazado 157199" d="M204.97,126.246l-2.281,0v9.236a1.8,1.8,0,0,0,1.07,1.67l1.211.7Z" transform="translate(-41.459 -25.823)" fill="#5793ce"/>
              <path id="Trazado_157200" data-name="Trazado 157200" d="M237.258,156.38a7.1,7.1,0,0,0,4.981-.057V145.837h-4.981Z" transform="translate(-48.531 -29.831)" fill="#5793ce"/>
              <path id="Trazado_157201" data-name="Trazado 157201" d="M229.784,138.529,203.758,123.5c-1.6-.922-1.4-2.534.448-3.6l25.13-14.509a6.928,6.928,0,0,1,6.232-.259l26.026,15.026c1.6.923,1.4,2.534-.447,3.6l-25.131,14.509a6.926,6.926,0,0,1-6.232.259" transform="translate(-41.458 -21.379)" fill="#d4ecff"/>
              <path id="Trazado_157202" data-name="Trazado 157202" d="M231.5,136.546l-21.81-12.592c-1.338-.773-1.17-2.123.375-3.016l21.06-12.158a5.8,5.8,0,0,1,5.222-.216l21.81,12.592c1.339.773,1.171,2.123-.375,3.016l-21.06,12.158a5.8,5.8,0,0,1-5.222.216" transform="translate(-42.708 -22.1)" fill="#5793ce"/>
              <path id="Trazado_157203" data-name="Trazado 157203" d="M265.513,140.362a2.323,2.323,0,0,1-1.052,1.821c-.58.335-1.051.064-1.051-.607a2.325,2.325,0,0,1,1.051-1.821c.581-.335,1.052-.064,1.052.607" transform="translate(-53.881 -28.558)" fill="#d4ecff"/>
              <path id="Trazado_157204" data-name="Trazado 157204" d="M269.765,137.907a2.323,2.323,0,0,1-1.052,1.821c-.58.335-1.051.064-1.051-.607a2.324,2.324,0,0,1,1.051-1.821c.581-.335,1.052-.064,1.052.607" transform="translate(-54.75 -28.055)" fill="#d4ecff"/>
              <path id="Trazado_157205" data-name="Trazado 157205" d="M274.017,135.452a2.324,2.324,0,0,1-1.052,1.821c-.58.335-1.051.064-1.051-.607a2.324,2.324,0,0,1,1.051-1.821c.581-.335,1.052-.064,1.052.607" transform="translate(-55.62 -27.553)" fill="#d4ecff"/>
              <path id="Trazado_157206" data-name="Trazado 157206" d="M262.665,116.03h0v-8.98l-20.136-.011-6.96-4.019a6.926,6.926,0,0,0-6.232.259l-6.494,3.749-20.154-.011v9.235a1.807,1.807,0,0,0,1.071,1.67l26.026,15.026a6.928,6.928,0,0,0,6.232-.258l25.13-14.509a2.469,2.469,0,0,0,1.518-2.151" transform="translate(-41.459 -20.945)" fill="#396caa"/>
              <path id="Trazado_157207" data-name="Trazado 157207" d="M232.677,102.4a7.2,7.2,0,0,0-3.341.876l-6.493,3.75-20.154-.012v9.236a1.807,1.807,0,0,0,1.07,1.67l26.026,15.026a5.643,5.643,0,0,0,2.892.618Z" transform="translate(-41.459 -20.947)" fill="#396caa"/>
              <path id="Trazado_157208" data-name="Trazado 157208" d="M204.97,108.2l-2.281,0v9.236a1.8,1.8,0,0,0,1.07,1.67l1.211.7Z" transform="translate(-41.459 -22.133)" fill="#5793ce"/>
              <path id="Trazado_157209" data-name="Trazado 157209" d="M237.258,138.339a7.1,7.1,0,0,0,4.981-.057V127.8h-4.981Z" transform="translate(-48.531 -26.141)" fill="#5793ce"/>
              <path id="Trazado_157210" data-name="Trazado 157210" d="M229.784,120.488l-26.026-15.026c-1.6-.922-1.4-2.534.448-3.6l25.13-14.509a6.928,6.928,0,0,1,6.232-.259l26.026,15.026c1.6.922,1.4,2.534-.447,3.6L236.016,120.23a6.926,6.926,0,0,1-6.232.259" transform="translate(-41.458 -17.688)" fill="#d4ecff"/>
              <path id="Trazado_157211" data-name="Trazado 157211" d="M231.5,118.505l-21.81-12.592c-1.338-.773-1.17-2.123.375-3.016l21.06-12.158a5.8,5.8,0,0,1,5.222-.216l21.81,12.592c1.339.773,1.171,2.123-.375,3.016l-21.06,12.158a5.805,5.805,0,0,1-5.222.216" transform="translate(-42.708 -18.41)" fill="#5793ce"/>
              <path id="Trazado_157212" data-name="Trazado 157212" d="M265.513,122.321a2.323,2.323,0,0,1-1.052,1.821c-.58.335-1.051.064-1.051-.607a2.325,2.325,0,0,1,1.051-1.821c.581-.335,1.052-.064,1.052.607" transform="translate(-53.881 -24.867)" fill="#d4ecff"/>
              <path id="Trazado_157213" data-name="Trazado 157213" d="M269.765,119.866a2.323,2.323,0,0,1-1.052,1.821c-.58.335-1.051.064-1.051-.607a2.325,2.325,0,0,1,1.051-1.821c.581-.335,1.052-.064,1.052.607" transform="translate(-54.75 -24.365)" fill="#d4ecff"/>
              <path id="Trazado_157214" data-name="Trazado 157214" d="M274.017,117.411a2.324,2.324,0,0,1-1.052,1.821c-.58.335-1.051.064-1.051-.607a2.324,2.324,0,0,1,1.051-1.821c.581-.335,1.052-.064,1.052.607" transform="translate(-55.62 -23.863)" fill="#d4ecff"/>
              <path id="Trazado_157215" data-name="Trazado 157215" d="M262.665,97.989h0v-8.98L242.529,89l-6.96-4.019a6.926,6.926,0,0,0-6.232.259l-6.494,3.749-20.154-.011V98.21a1.807,1.807,0,0,0,1.071,1.67l26.026,15.026a6.928,6.928,0,0,0,6.232-.258l25.13-14.509a2.469,2.469,0,0,0,1.518-2.151" transform="translate(-41.459 -17.255)" fill="#396caa"/>
              <path id="Trazado_157216" data-name="Trazado 157216" d="M232.677,84.362a7.188,7.188,0,0,0-3.341.877l-6.493,3.749-20.154-.012v9.236a1.807,1.807,0,0,0,1.07,1.67l26.026,15.026a5.643,5.643,0,0,0,2.892.618Z" transform="translate(-41.459 -17.256)" fill="#396caa"/>
              <path id="Trazado_157217" data-name="Trazado 157217" d="M204.97,90.164l-2.281,0V99.4a1.8,1.8,0,0,0,1.07,1.67l1.211.7Z" transform="translate(-41.459 -18.443)" fill="#5793ce"/>
              <path id="Trazado_157218" data-name="Trazado 157218" d="M237.258,120.3a7.1,7.1,0,0,0,4.981-.057V109.755h-4.981Z" transform="translate(-48.531 -22.45)" fill="#5793ce"/>
              <path id="Trazado_157219" data-name="Trazado 157219" d="M229.784,102.447,203.758,87.421c-1.6-.922-1.4-2.534.448-3.6l25.13-14.509a6.928,6.928,0,0,1,6.232-.259l26.026,15.026c1.6.923,1.4,2.534-.447,3.6l-25.131,14.509a6.926,6.926,0,0,1-6.232.259" transform="translate(-41.458 -13.998)" fill="#d4ecff"/>
              <path id="Trazado_157220" data-name="Trazado 157220" d="M261.146,90.118l-25.131,14.509a6.926,6.926,0,0,1-6.232.259L203.758,89.859a2.417,2.417,0,0,1-.8-.706,1.674,1.674,0,0,0,.8,2.474l26.026,15.026a6.926,6.926,0,0,0,6.232-.258l25.131-14.509c1.433-.827,1.868-1.984,1.245-2.891a3.484,3.484,0,0,1-1.245,1.124" transform="translate(-41.458 -18.204)" fill="#fff"/>
              <path id="Trazado_157221" data-name="Trazado 157221" d="M265.513,104.28a2.324,2.324,0,0,1-1.052,1.821c-.58.335-1.051.064-1.051-.607a2.324,2.324,0,0,1,1.051-1.821c.581-.335,1.052-.064,1.052.607" transform="translate(-53.881 -21.177)" fill="#d4ecff"/>
              <path id="Trazado_157222" data-name="Trazado 157222" d="M269.765,101.825a2.323,2.323,0,0,1-1.052,1.821c-.58.335-1.051.064-1.051-.607a2.324,2.324,0,0,1,1.051-1.821c.581-.335,1.052-.064,1.052.607" transform="translate(-54.75 -20.675)" fill="#d4ecff"/>
              <path id="Trazado_157223" data-name="Trazado 157223" d="M274.017,99.37a2.323,2.323,0,0,1-1.052,1.821c-.58.335-1.051.064-1.051-.607a2.324,2.324,0,0,1,1.051-1.821c.581-.335,1.052-.064,1.052.607" transform="translate(-55.62 -20.173)" fill="#d4ecff"/>
              <path id="Trazado_157224" data-name="Trazado 157224" d="M235.427,95.389l-12.179-7.032c-.747-.431-.654-1.185.209-1.683l11.76-6.79a3.244,3.244,0,0,1,2.916-.121l12.179,7.032c.748.431.654,1.185-.209,1.684l-11.76,6.789a3.241,3.241,0,0,1-2.916.121" transform="translate(-45.562 -16.256)" fill="#5793ce"/>
              <path id="Trazado_157225" data-name="Trazado 157225" d="M239.7,91.515l-1.685-.973c-.1-.06-.091-.164.029-.233l1.627-.939a.452.452,0,0,1,.4-.017l1.685.973c.1.06.091.164-.029.233l-1.627.939a.447.447,0,0,1-.4.017" transform="translate(-48.672 -18.269)" fill="#d4ecff"/>
              <path id="Trazado_157226" data-name="Trazado 157226" d="M223.248,88.357l.034.02a2.107,2.107,0,0,1,.175-.12l11.76-6.79a3.243,3.243,0,0,1,2.916-.121l12.144,7.012c.69-.493.725-1.165.035-1.563l-12.179-7.032a3.239,3.239,0,0,0-2.916.121l-11.76,6.789c-.863.5-.957,1.252-.209,1.684" transform="translate(-45.562 -16.256)" fill="#396caa"/>
              <path id="Trazado_157227" data-name="Trazado 157227" d="M166.795,210.027l-44.921-25.614c-1.643-.948-1.437-2.605.461-3.7L148.18,165.79a7.125,7.125,0,0,1,6.41-.266l44.92,25.614c1.643.948,1.437,2.605-.46,3.7L173.2,209.761a7.123,7.123,0,0,1-6.409.266" transform="translate(-24.702 -33.727)" fill="#b2d3ea"/>
              <path id="Trazado_157228" data-name="Trazado 157228" d="M202.77,155.96h0V51.091L161.08,40.18,153.4,35.746a7.643,7.643,0,0,0-6.876.285l-7.164,4.136-22.237-.012,6.585,101.236a1.993,1.993,0,0,0,1.18,1.842l41.6,31.392a7.643,7.643,0,0,0,6.876-.286L201.1,158.333a2.723,2.723,0,0,0,1.674-2.373" transform="translate(-23.958 -7.171)" fill="#396caa"/>
              <path id="Trazado_157229" data-name="Trazado 157229" d="M150.21,35.066a7.93,7.93,0,0,0-3.685.966l-7.165,4.136-22.237-.012V145.307a1.993,1.993,0,0,0,1.181,1.842l48.188,27.478a6.234,6.234,0,0,0,3.191.682l.5-105.808Z" transform="translate(-23.957 -7.173)" fill="#d4ecff"/>
              <path id="Trazado_157230" data-name="Trazado 157230" d="M179.745,183.377a7.832,7.832,0,0,0,5.5-.063V76.784h-5.5Z" transform="translate(-36.767 -15.706)" fill="#5793ce"/>
              <path id="Trazado_157231" data-name="Trazado 157231" d="M166.491,65.918,118.3,38.44c-1.762-1.017-1.541-2.794.494-3.969l27.726-16.008a7.641,7.641,0,0,1,6.876-.286l48.189,27.478c1.762,1.017,1.542,2.794-.494,3.969L173.367,65.633a7.643,7.643,0,0,1-6.876.285" transform="translate(-23.955 -3.578)" fill="#d4ecff"/>
              <path id="Trazado_157232" data-name="Trazado 157232" d="M201.093,52.361,173.366,68.369a7.639,7.639,0,0,1-6.875.286L118.3,41.176a2.642,2.642,0,0,1-.879-.78,1.846,1.846,0,0,0,.879,2.73L166.491,70.6a7.641,7.641,0,0,0,6.875-.285l27.727-16.008c1.581-.913,2.062-2.188,1.373-3.19a3.847,3.847,0,0,1-1.373,1.24" transform="translate(-23.955 -8.263)" fill="#fafdff"/>
              <path id="Trazado_157233" data-name="Trazado 157233" d="M172.51,57.069l-32.083-18.6c-.825-.476-.721-1.308.231-1.857l12.975-7.491a3.573,3.573,0,0,1,3.218-.134l32.083,18.6c.825.476.721,1.308-.231,1.857l-12.975,7.491a3.576,3.576,0,0,1-3.218.134" transform="translate(-28.61 -5.864)" fill="#173d7a"/>
              <path id="Trazado_157234" data-name="Trazado 157234" d="M158.63,41.417l-1.859-1.073c-.115-.066-.1-.181.032-.258l1.8-1.036a.5.5,0,0,1,.445-.019l1.86,1.074c.114.066.1.181-.033.257L159.076,41.4a.5.5,0,0,1-.445.018" transform="translate(-32.052 -7.975)" fill="#d4ecff"/>
              <path id="Trazado_157235" data-name="Trazado 157235" d="M166.438,45.906l-1.859-1.073c-.115-.066-.1-.181.032-.258l1.8-1.036a.5.5,0,0,1,.445-.019l1.86,1.074c.114.066.1.181-.033.257l-1.795,1.036a.5.5,0,0,1-.445.018" transform="translate(-33.649 -8.893)" fill="#d4ecff"/>
              <path id="Trazado_157236" data-name="Trazado 157236" d="M174.246,50.4l-1.859-1.073c-.115-.066-.1-.181.032-.257l1.8-1.036a.5.5,0,0,1,.445-.019l1.86,1.074c.114.066.1.181-.033.257l-1.795,1.036a.494.494,0,0,1-.445.018" transform="translate(-35.246 -9.812)" fill="#d4ecff"/>
              <path id="Trazado_157237" data-name="Trazado 157237" d="M182.054,54.886,180.2,53.813c-.115-.066-.1-.181.032-.258l1.8-1.036a.5.5,0,0,1,.445-.019l1.86,1.074c.114.066.1.181-.033.257L182.5,54.868a.5.5,0,0,1-.445.018" transform="translate(-36.843 -10.73)" fill="#d4ecff"/>
              <path id="Trazado_157238" data-name="Trazado 157238" d="M140.427,38.471l.037.021a2.143,2.143,0,0,1,.193-.132l12.975-7.492a3.574,3.574,0,0,1,3.217-.133l32.046,18.575c.76-.544.8-1.285.038-1.725l-32.084-18.6a3.574,3.574,0,0,0-3.217.133l-12.975,7.492c-.952.55-1.055,1.381-.23,1.857" transform="translate(-28.61 -5.864)" fill="#5793ce"/>
              <path id="Trazado_157239" data-name="Trazado 157239" d="M194.161,98.8,212.4,88.352a4.45,4.45,0,0,0,1.859-3.551V78.277c0-1.369-.832-2-1.859-1.406L194.161,87.316a4.453,4.453,0,0,0-1.859,3.552v6.523c0,1.368.833,2,1.859,1.4" transform="translate(-39.335 -15.678)" fill="#173d7a"/>
              <path id="Trazado_157240" data-name="Trazado 157240" d="M213.425,76.682a1.821,1.821,0,0,1,.467,1.357v6.523a4.45,4.45,0,0,1-1.859,3.551L193.792,98.558a1.339,1.339,0,0,1-.9.2,1.11,1.11,0,0,0,1.392.048l18.241-10.444a4.452,4.452,0,0,0,1.859-3.551V78.284c0-.93-.388-1.506-.956-1.6" transform="translate(-39.455 -15.685)" fill="#fff"/>
              <path id="Trazado_157241" data-name="Trazado 157241" d="M201.432,94.585l1.674-.966a.973.973,0,0,0,.4-.775V91.057c0-.3-.181-.435-.4-.306l-1.674.966a.97.97,0,0,0-.4.774v1.787c0,.3.181.435.4.306" transform="translate(-41.12 -18.553)" fill="#396caa"/>
              <path id="Trazado_157242" data-name="Trazado 157242" d="M208.466,90.524l1.674-.966a.97.97,0,0,0,.4-.774V87c0-.3-.181-.435-.4-.306l-1.674.966a.97.97,0,0,0-.4.774v1.787c0,.3.181.435.4.306" transform="translate(-42.559 -17.722)" fill="#fff"/>
              <path id="Trazado_157243" data-name="Trazado 157243" d="M194.161,158.056,212.4,147.612a4.45,4.45,0,0,0,1.859-3.551v-6.523c0-1.369-.832-2-1.859-1.406l-18.241,10.444a4.453,4.453,0,0,0-1.859,3.552v6.523c0,1.368.833,2,1.859,1.4" transform="translate(-39.335 -27.8)" fill="#173d7a"/>
              <path id="Trazado_157244" data-name="Trazado 157244" d="M213.425,135.943a1.821,1.821,0,0,1,.467,1.357v6.523a4.451,4.451,0,0,1-1.859,3.551l-18.241,10.444a1.333,1.333,0,0,1-.9.2,1.108,1.108,0,0,0,1.392.049l18.241-10.444a4.453,4.453,0,0,0,1.859-3.552v-6.523c0-.93-.388-1.506-.956-1.6" transform="translate(-39.455 -27.807)" fill="#fff"/>
              <path id="Trazado_157245" data-name="Trazado 157245" d="M201.432,153.845l1.674-.966a.973.973,0,0,0,.4-.775v-1.787c0-.3-.181-.435-.4-.306l-1.674.966a.97.97,0,0,0-.4.774v1.787c0,.3.181.435.4.306" transform="translate(-41.12 -30.675)" fill="#396caa"/>
              <path id="Trazado_157246" data-name="Trazado 157246" d="M208.466,149.784l1.674-.966a.97.97,0,0,0,.4-.774v-1.787c0-.3-.181-.435-.4-.306l-1.674.966a.97.97,0,0,0-.4.774v1.787c0,.3.181.435.4.306" transform="translate(-42.559 -29.844)" fill="#396caa"/>
              <path id="Trazado_157247" data-name="Trazado 157247" d="M194.161,187.687,212.4,177.243a4.45,4.45,0,0,0,1.859-3.551v-6.523c0-1.369-.832-2-1.859-1.406l-18.241,10.444a4.453,4.453,0,0,0-1.859,3.552v6.523c0,1.368.833,2,1.859,1.4" transform="translate(-39.335 -33.861)" fill="#173d7a"/>
              <path id="Trazado_157248" data-name="Trazado 157248" d="M213.425,165.573a1.821,1.821,0,0,1,.467,1.357v6.523A4.451,4.451,0,0,1,212.033,177l-18.241,10.444a1.339,1.339,0,0,1-.9.2,1.11,1.11,0,0,0,1.392.048l18.241-10.444a4.453,4.453,0,0,0,1.859-3.552v-6.523c0-.93-.388-1.506-.956-1.6" transform="translate(-39.455 -33.868)" fill="#fff"/>
              <path id="Trazado_157249" data-name="Trazado 157249" d="M201.432,183.475l1.674-.966a.973.973,0,0,0,.4-.775v-1.787c0-.3-.181-.435-.4-.306l-1.674.966a.97.97,0,0,0-.4.774v1.787c0,.3.181.435.4.306" transform="translate(-41.12 -36.736)" fill="#fff"/>
              <path id="Trazado_157250" data-name="Trazado 157250" d="M208.466,179.414l1.674-.966a.97.97,0,0,0,.4-.774v-1.787c0-.3-.181-.435-.4-.306l-1.674.966a.97.97,0,0,0-.4.774v1.787c0,.3.181.435.4.306" transform="translate(-42.559 -35.905)" fill="#396caa"/>
              <path id="Trazado_157251" data-name="Trazado 157251" d="M194.161,128.426,212.4,117.982a4.45,4.45,0,0,0,1.859-3.551v-6.523c0-1.369-.832-2-1.859-1.406l-18.241,10.444A4.453,4.453,0,0,0,192.3,120.5v6.523c0,1.368.833,2,1.859,1.4" transform="translate(-39.335 -21.739)" fill="#173d7a"/>
              <path id="Trazado_157252" data-name="Trazado 157252" d="M213.425,106.313a1.821,1.821,0,0,1,.467,1.357v6.523a4.451,4.451,0,0,1-1.859,3.551l-18.241,10.444a1.333,1.333,0,0,1-.9.2,1.108,1.108,0,0,0,1.392.049l18.241-10.444a4.453,4.453,0,0,0,1.859-3.552v-6.523c0-.93-.388-1.506-.956-1.6" transform="translate(-39.455 -21.746)" fill="#fff"/>
              <path id="Trazado_157253" data-name="Trazado 157253" d="M201.432,124.215l1.674-.966a.973.973,0,0,0,.4-.775v-1.787c0-.3-.181-.435-.4-.306l-1.674.966a.97.97,0,0,0-.4.774v1.787c0,.3.181.435.4.306" transform="translate(-41.12 -24.614)" fill="#fff"/>
              <path id="Trazado_157254" data-name="Trazado 157254" d="M208.466,120.154l1.674-.966a.97.97,0,0,0,.4-.774v-1.787c0-.3-.181-.435-.4-.306l-1.674.966a.97.97,0,0,0-.4.774v1.787c0,.3.181.435.4.306" transform="translate(-42.559 -23.783)" fill="#fff"/>
              <path id="Trazado_157255" data-name="Trazado 157255" d="M163.515,86.562l-42.085-24.3a4.084,4.084,0,0,1-1.705-3.258V50.981c0-1.256.764-1.833,1.705-1.289l42.085,24.3a4.085,4.085,0,0,1,1.705,3.259v8.024c0,1.256-.764,1.834-1.705,1.289" transform="translate(-24.49 -10.123)" fill="#5793ce"/>
              <g id="Grupo_142225" data-name="Grupo 142225" transform="translate(97.284 42.279)" opacity="0.4">
                <g id="Grupo_142224" data-name="Grupo 142224">
                  <g id="Grupo_142223" data-name="Grupo 142223" clip-path="url(#clip-path-3)">
                    <path id="Trazado_157256" data-name="Trazado 157256" d="M162.835,84.5,123.166,61.6a2.071,2.071,0,0,1-.865-1.653V53.909c0-.637.387-.93.865-.654l39.668,22.9a2.071,2.071,0,0,1,.865,1.653v6.033c0,.637-.387.93-.865.654" transform="translate(-122.301 -53.151)" fill="#d4ecff"/>
                  </g>
                </g>
              </g>
              <path id="Trazado_157257" data-name="Trazado 157257" d="M132.043,64.452l-5.92-3.418a2.011,2.011,0,0,1-.841-1.605c0-.619.376-.9.841-.636l5.92,3.418a2.013,2.013,0,0,1,.84,1.605c0,.619-.376.9-.84.636" transform="translate(-25.626 -12.005)" fill="#d4ecff"/>
              <path id="Trazado_157258" data-name="Trazado 157258" d="M139.624,67.72c0,.619-.434.869-.97.56a2.146,2.146,0,0,1-.97-1.68c0-.619.435-.87.97-.561a2.144,2.144,0,0,1,.97,1.681" transform="translate(-28.163 -13.481)" fill="#173d7a"/>
              <path id="Trazado_157259" data-name="Trazado 157259" d="M143.927,70.2c0,.619-.434.869-.97.56a2.146,2.146,0,0,1-.97-1.68c0-.619.435-.87.97-.561a2.144,2.144,0,0,1,.97,1.681" transform="translate(-29.043 -13.989)" fill="#173d7a"/>
              <path id="Trazado_157260" data-name="Trazado 157260" d="M148.231,72.689c0,.619-.434.869-.97.56a2.147,2.147,0,0,1-.97-1.681c0-.618.435-.869.97-.56a2.144,2.144,0,0,1,.97,1.681" transform="translate(-29.924 -14.498)" fill="#d4ecff"/>
              <path id="Trazado_157261" data-name="Trazado 157261" d="M152.534,75.174c0,.619-.434.869-.97.56a2.146,2.146,0,0,1-.97-1.68c0-.619.435-.87.97-.561a2.144,2.144,0,0,1,.97,1.681" transform="translate(-30.804 -15.006)" fill="#173d7a"/>
              <path id="Trazado_157262" data-name="Trazado 157262" d="M170.509,87.111l-1.994-1.151a1.292,1.292,0,0,1-.539-1.031V82.82c0-.4.242-.58.539-.407l1.994,1.151a1.292,1.292,0,0,1,.539,1.03V86.7c0,.4-.242.579-.539.407" transform="translate(-34.359 -16.844)" fill="#173d7a"/>
              <path id="Trazado_157263" data-name="Trazado 157263" d="M163.515,104.352l-42.085-24.3a4.084,4.084,0,0,1-1.705-3.259V68.771c0-1.256.764-1.833,1.705-1.289l42.085,24.3a4.085,4.085,0,0,1,1.705,3.259v8.025c0,1.256-.764,1.834-1.705,1.289" transform="translate(-24.49 -13.762)" fill="#5793ce"/>
              <g id="Grupo_142228" data-name="Grupo 142228" transform="translate(97.284 56.43)" opacity="0.4">
                <g id="Grupo_142227" data-name="Grupo 142227">
                  <g id="Grupo_142226" data-name="Grupo 142226" clip-path="url(#clip-path-3)">
                    <path id="Trazado_157264" data-name="Trazado 157264" d="M162.835,102.288l-39.668-22.9a2.071,2.071,0,0,1-.865-1.653V71.7c0-.637.387-.93.865-.654l39.668,22.9A2.071,2.071,0,0,1,163.7,95.6v6.033c0,.637-.387.93-.865.654" transform="translate(-122.301 -70.941)" fill="#d4ecff"/>
                  </g>
                </g>
              </g>
              <path id="Trazado_157265" data-name="Trazado 157265" d="M132.043,82.242l-5.92-3.418a2.011,2.011,0,0,1-.841-1.605c0-.619.376-.9.841-.636L132.043,80a2.014,2.014,0,0,1,.84,1.605c0,.619-.376.9-.84.636" transform="translate(-25.626 -15.644)" fill="#d4ecff"/>
              <path id="Trazado_157266" data-name="Trazado 157266" d="M139.624,85.51c0,.619-.434.869-.97.56a2.147,2.147,0,0,1-.97-1.681c0-.618.435-.869.97-.56a2.144,2.144,0,0,1,.97,1.681" transform="translate(-28.163 -17.12)" fill="#fff"/>
              <path id="Trazado_157267" data-name="Trazado 157267" d="M143.927,87.995c0,.619-.434.869-.97.56a2.146,2.146,0,0,1-.97-1.68c0-.619.435-.87.97-.561a2.144,2.144,0,0,1,.97,1.681" transform="translate(-29.043 -17.628)" fill="#173d7a"/>
              <path id="Trazado_157268" data-name="Trazado 157268" d="M148.231,90.479c0,.619-.434.869-.97.56a2.146,2.146,0,0,1-.97-1.68c0-.619.435-.87.97-.561a2.144,2.144,0,0,1,.97,1.681" transform="translate(-29.924 -18.137)" fill="#d4ecff"/>
              <path id="Trazado_157269" data-name="Trazado 157269" d="M152.534,92.964c0,.619-.434.869-.97.56a2.146,2.146,0,0,1-.97-1.68c0-.619.435-.87.97-.561a2.144,2.144,0,0,1,.97,1.681" transform="translate(-30.804 -18.645)" fill="#173d7a"/>
              <path id="Trazado_157270" data-name="Trazado 157270" d="M170.509,104.9l-1.994-1.151a1.292,1.292,0,0,1-.539-1.031v-2.11c0-.4.242-.58.539-.407l1.994,1.151a1.292,1.292,0,0,1,.539,1.03v2.11c0,.4-.242.579-.539.407" transform="translate(-34.359 -20.483)" fill="#173d7a"/>
              <path id="Trazado_157271" data-name="Trazado 157271" d="M163.515,122.142l-42.085-24.3a4.083,4.083,0,0,1-1.705-3.258V86.561c0-1.256.764-1.833,1.705-1.289l42.085,24.3a4.085,4.085,0,0,1,1.705,3.259v8.024c0,1.256-.764,1.834-1.705,1.289" transform="translate(-24.49 -17.4)" fill="#5793ce"/>
              <g id="Grupo_142231" data-name="Grupo 142231" transform="translate(97.284 70.581)" opacity="0.4">
                <g id="Grupo_142230" data-name="Grupo 142230">
                  <g id="Grupo_142229" data-name="Grupo 142229" clip-path="url(#clip-path-5)">
                    <path id="Trazado_157272" data-name="Trazado 157272" d="M162.835,120.078l-39.668-22.9a2.071,2.071,0,0,1-.865-1.653V89.489c0-.637.387-.93.865-.654l39.668,22.9a2.071,2.071,0,0,1,.865,1.653v6.033c0,.637-.387.93-.865.654" transform="translate(-122.301 -88.731)" fill="#d4ecff"/>
                  </g>
                </g>
              </g>
              <path id="Trazado_157273" data-name="Trazado 157273" d="M132.043,100.032l-5.92-3.418a2.011,2.011,0,0,1-.841-1.605c0-.619.376-.9.841-.636l5.92,3.418a2.014,2.014,0,0,1,.84,1.605c0,.619-.376.9-.84.636" transform="translate(-25.626 -19.283)" fill="#d4ecff"/>
              <path id="Trazado_157274" data-name="Trazado 157274" d="M139.624,103.3c0,.619-.434.869-.97.56a2.146,2.146,0,0,1-.97-1.68c0-.619.435-.87.97-.561a2.144,2.144,0,0,1,.97,1.681" transform="translate(-28.163 -20.759)" fill="#fff"/>
              <path id="Trazado_157275" data-name="Trazado 157275" d="M143.927,105.785c0,.619-.434.869-.97.56a2.147,2.147,0,0,1-.97-1.681c0-.618.435-.869.97-.56a2.144,2.144,0,0,1,.97,1.681" transform="translate(-29.043 -21.267)" fill="#173d7a"/>
              <path id="Trazado_157276" data-name="Trazado 157276" d="M148.231,108.269c0,.619-.434.869-.97.56a2.146,2.146,0,0,1-.97-1.68c0-.619.435-.87.97-.561a2.144,2.144,0,0,1,.97,1.681" transform="translate(-29.924 -21.775)" fill="#d4ecff"/>
              <path id="Trazado_157277" data-name="Trazado 157277" d="M152.534,110.754c0,.619-.434.869-.97.56a2.147,2.147,0,0,1-.97-1.681c0-.618.435-.869.97-.56a2.144,2.144,0,0,1,.97,1.681" transform="translate(-30.804 -22.284)" fill="#173d7a"/>
              <path id="Trazado_157278" data-name="Trazado 157278" d="M170.509,122.69l-1.994-1.151a1.292,1.292,0,0,1-.539-1.031V118.4c0-.4.242-.58.539-.407l1.994,1.151a1.292,1.292,0,0,1,.539,1.03v2.11c0,.4-.242.579-.539.407" transform="translate(-34.359 -24.122)" fill="#173d7a"/>
              <path id="Trazado_157279" data-name="Trazado 157279" d="M163.515,139.932l-42.085-24.3a4.084,4.084,0,0,1-1.705-3.259v-8.024c0-1.256.764-1.834,1.705-1.289l42.085,24.3a4.085,4.085,0,0,1,1.705,3.259v8.024c0,1.256-.764,1.834-1.705,1.289" transform="translate(-24.49 -21.039)" fill="#5793ce"/>
              <g id="Grupo_142234" data-name="Grupo 142234" transform="translate(97.284 84.732)" opacity="0.4">
                <g id="Grupo_142233" data-name="Grupo 142233">
                  <g id="Grupo_142232" data-name="Grupo 142232" clip-path="url(#clip-path-5)">
                    <path id="Trazado_157280" data-name="Trazado 157280" d="M162.835,137.868l-39.668-22.9a2.071,2.071,0,0,1-.865-1.653v-6.033c0-.637.387-.93.865-.654l39.668,22.9a2.071,2.071,0,0,1,.865,1.653v6.033c0,.637-.387.93-.865.654" transform="translate(-122.301 -106.521)" fill="#d4ecff"/>
                  </g>
                </g>
              </g>
              <path id="Trazado_157281" data-name="Trazado 157281" d="M132.043,117.822l-5.92-3.418a2.011,2.011,0,0,1-.841-1.605c0-.619.376-.9.841-.636l5.92,3.418a2.014,2.014,0,0,1,.84,1.605c0,.619-.376.9-.84.636" transform="translate(-25.626 -22.922)" fill="#d4ecff"/>
              <path id="Trazado_157282" data-name="Trazado 157282" d="M139.624,121.09c0,.619-.434.869-.97.56a2.147,2.147,0,0,1-.97-1.681c0-.618.435-.869.97-.56a2.144,2.144,0,0,1,.97,1.681" transform="translate(-28.163 -24.398)" fill="#173d7a"/>
              <path id="Trazado_157283" data-name="Trazado 157283" d="M143.927,123.575c0,.619-.434.869-.97.56a2.146,2.146,0,0,1-.97-1.68c0-.619.435-.87.97-.561a2.144,2.144,0,0,1,.97,1.681" transform="translate(-29.043 -24.906)" fill="#173d7a"/>
              <path id="Trazado_157284" data-name="Trazado 157284" d="M148.231,126.059c0,.619-.434.869-.97.56a2.146,2.146,0,0,1-.97-1.68c0-.619.435-.87.97-.561a2.144,2.144,0,0,1,.97,1.681" transform="translate(-29.924 -25.414)" fill="#d4ecff"/>
              <path id="Trazado_157285" data-name="Trazado 157285" d="M152.534,128.544c0,.619-.434.869-.97.56a2.146,2.146,0,0,1-.97-1.68c0-.619.435-.87.97-.561a2.144,2.144,0,0,1,.97,1.681" transform="translate(-30.804 -25.923)" fill="#173d7a"/>
              <path id="Trazado_157286" data-name="Trazado 157286" d="M170.509,140.48l-1.994-1.151a1.292,1.292,0,0,1-.539-1.031v-2.11c0-.4.242-.58.539-.408l1.994,1.152a1.292,1.292,0,0,1,.539,1.03v2.11c0,.4-.242.579-.539.407" transform="translate(-34.359 -27.761)" fill="#d4ecff"/>
              <path id="Trazado_157287" data-name="Trazado 157287" d="M163.515,157.722l-42.085-24.3a4.084,4.084,0,0,1-1.705-3.258v-8.025c0-1.256.764-1.833,1.705-1.289l42.085,24.3a4.086,4.086,0,0,1,1.705,3.259v8.024c0,1.256-.764,1.834-1.705,1.289" transform="translate(-24.49 -24.678)" fill="#5793ce"/>
              <g id="Grupo_142237" data-name="Grupo 142237" transform="translate(97.284 98.883)" opacity="0.4">
                <g id="Grupo_142236" data-name="Grupo 142236">
                  <g id="Grupo_142235" data-name="Grupo 142235" clip-path="url(#clip-path-3)">
                    <path id="Trazado_157288" data-name="Trazado 157288" d="M162.835,155.658l-39.668-22.9a2.071,2.071,0,0,1-.865-1.653v-6.033c0-.637.387-.93.865-.654l39.668,22.9a2.071,2.071,0,0,1,.865,1.653V155c0,.637-.387.93-.865.654" transform="translate(-122.301 -124.311)" fill="#d4ecff"/>
                  </g>
                </g>
              </g>
              <path id="Trazado_157289" data-name="Trazado 157289" d="M132.043,135.612l-5.92-3.418a2.011,2.011,0,0,1-.841-1.605c0-.619.376-.9.841-.636l5.92,3.418a2.014,2.014,0,0,1,.84,1.606c0,.618-.376.9-.84.635" transform="translate(-25.626 -26.561)" fill="#d4ecff"/>
              <path id="Trazado_157290" data-name="Trazado 157290" d="M139.624,138.88c0,.619-.434.869-.97.56a2.147,2.147,0,0,1-.97-1.681c0-.618.435-.869.97-.56a2.144,2.144,0,0,1,.97,1.681" transform="translate(-28.163 -28.037)" fill="#173d7a"/>
              <path id="Trazado_157291" data-name="Trazado 157291" d="M143.927,141.365c0,.619-.434.869-.97.56a2.146,2.146,0,0,1-.97-1.68c0-.619.435-.87.97-.561a2.144,2.144,0,0,1,.97,1.681" transform="translate(-29.043 -28.545)" fill="#fff"/>
              <path id="Trazado_157292" data-name="Trazado 157292" d="M148.231,143.849c0,.619-.434.869-.97.56a2.147,2.147,0,0,1-.97-1.681c0-.618.435-.869.97-.56a2.144,2.144,0,0,1,.97,1.681" transform="translate(-29.924 -29.053)" fill="#d4ecff"/>
              <path id="Trazado_157293" data-name="Trazado 157293" d="M152.534,146.333c0,.619-.434.869-.97.56a2.146,2.146,0,0,1-.97-1.68c0-.619.435-.87.97-.561a2.144,2.144,0,0,1,.97,1.681" transform="translate(-30.804 -29.561)" fill="#fff"/>
              <path id="Trazado_157294" data-name="Trazado 157294" d="M170.509,158.27l-1.994-1.151a1.292,1.292,0,0,1-.539-1.031v-2.11c0-.4.242-.58.539-.408l1.994,1.152a1.292,1.292,0,0,1,.539,1.03v2.11c0,.4-.242.579-.539.407" transform="translate(-34.359 -31.4)" fill="#d4ecff"/>
              <path id="Trazado_157295" data-name="Trazado 157295" d="M163.515,175.512l-42.085-24.3a4.084,4.084,0,0,1-1.705-3.259v-8.024c0-1.256.764-1.834,1.705-1.289l42.085,24.3a4.086,4.086,0,0,1,1.705,3.259v8.025c0,1.256-.764,1.833-1.705,1.289" transform="translate(-24.49 -28.317)" fill="#5793ce"/>
              <g id="Grupo_142240" data-name="Grupo 142240" transform="translate(97.284 113.034)" opacity="0.4">
                <g id="Grupo_142239" data-name="Grupo 142239">
                  <g id="Grupo_142238" data-name="Grupo 142238" clip-path="url(#clip-path-5)">
                    <path id="Trazado_157296" data-name="Trazado 157296" d="M162.835,173.448l-39.668-22.9a2.071,2.071,0,0,1-.865-1.653v-6.033c0-.637.387-.93.865-.654l39.668,22.9a2.071,2.071,0,0,1,.865,1.653v6.033c0,.637-.387.93-.865.654" transform="translate(-122.301 -142.101)" fill="#d4ecff"/>
                  </g>
                </g>
              </g>
              <path id="Trazado_157297" data-name="Trazado 157297" d="M132.043,153.4l-5.92-3.418a2.011,2.011,0,0,1-.841-1.605c0-.619.376-.9.841-.636l5.92,3.418a2.014,2.014,0,0,1,.84,1.605c0,.619-.376.9-.84.636" transform="translate(-25.626 -30.2)" fill="#d4ecff"/>
              <path id="Trazado_157298" data-name="Trazado 157298" d="M139.624,156.67c0,.619-.434.869-.97.56a2.147,2.147,0,0,1-.97-1.681c0-.618.435-.869.97-.56a2.144,2.144,0,0,1,.97,1.681" transform="translate(-28.163 -31.676)" fill="#173d7a"/>
              <path id="Trazado_157299" data-name="Trazado 157299" d="M143.927,159.155c0,.619-.434.869-.97.56a2.147,2.147,0,0,1-.97-1.681c0-.618.435-.869.97-.56a2.144,2.144,0,0,1,.97,1.681" transform="translate(-29.043 -32.184)" fill="#173d7a"/>
              <path id="Trazado_157300" data-name="Trazado 157300" d="M148.231,161.639c0,.619-.434.869-.97.56a2.146,2.146,0,0,1-.97-1.68c0-.619.435-.87.97-.561a2.144,2.144,0,0,1,.97,1.681" transform="translate(-29.924 -32.692)" fill="#d4ecff"/>
              <path id="Trazado_157301" data-name="Trazado 157301" d="M152.534,164.123c0,.619-.434.869-.97.56a2.146,2.146,0,0,1-.97-1.68c0-.619.435-.87.97-.561a2.144,2.144,0,0,1,.97,1.681" transform="translate(-30.804 -33.2)" fill="#173d7a"/>
              <path id="Trazado_157302" data-name="Trazado 157302" d="M170.509,176.06l-1.994-1.151a1.292,1.292,0,0,1-.539-1.031v-2.11c0-.4.242-.58.539-.407l1.994,1.151a1.292,1.292,0,0,1,.539,1.03v2.11c0,.4-.242.579-.539.407" transform="translate(-34.359 -35.039)" fill="#173d7a"/>
              <path id="Trazado_157303" data-name="Trazado 157303" d="M163.515,193.3,121.43,169a4.084,4.084,0,0,1-1.705-3.259v-8.024c0-1.256.764-1.833,1.705-1.289l42.085,24.3a4.085,4.085,0,0,1,1.705,3.259v8.025c0,1.256-.764,1.834-1.705,1.289" transform="translate(-24.49 -31.956)" fill="#5793ce"/>
              <g id="Grupo_142243" data-name="Grupo 142243" transform="translate(97.284 127.185)" opacity="0.4">
                <g id="Grupo_142242" data-name="Grupo 142242">
                  <g id="Grupo_142241" data-name="Grupo 142241" clip-path="url(#clip-path-3)">
                    <path id="Trazado_157304" data-name="Trazado 157304" d="M162.835,191.238l-39.668-22.9a2.071,2.071,0,0,1-.865-1.653v-6.033c0-.637.387-.93.865-.654l39.668,22.9a2.072,2.072,0,0,1,.865,1.653v6.033c0,.637-.387.93-.865.654" transform="translate(-122.301 -159.891)" fill="#d4ecff"/>
                  </g>
                </g>
              </g>
              <path id="Trazado_157305" data-name="Trazado 157305" d="M132.043,171.192l-5.92-3.418a2.011,2.011,0,0,1-.841-1.605c0-.619.376-.9.841-.636l5.92,3.418a2.014,2.014,0,0,1,.84,1.605c0,.619-.376.9-.84.636" transform="translate(-25.626 -33.839)" fill="#d4ecff"/>
              <path id="Trazado_157306" data-name="Trazado 157306" d="M139.624,174.46c0,.619-.434.869-.97.56a2.147,2.147,0,0,1-.97-1.681c0-.618.435-.869.97-.56a2.144,2.144,0,0,1,.97,1.681" transform="translate(-28.163 -35.315)" fill="#fff"/>
              <path id="Trazado_157307" data-name="Trazado 157307" d="M143.927,176.944c0,.619-.434.869-.97.56a2.146,2.146,0,0,1-.97-1.68c0-.619.435-.87.97-.561a2.144,2.144,0,0,1,.97,1.681" transform="translate(-29.043 -35.823)" fill="#173d7a"/>
              <path id="Trazado_157308" data-name="Trazado 157308" d="M148.231,179.429c0,.619-.434.869-.97.56a2.147,2.147,0,0,1-.97-1.681c0-.618.435-.869.97-.56a2.144,2.144,0,0,1,.97,1.681" transform="translate(-29.924 -36.331)" fill="#d4ecff"/>
              <path id="Trazado_157309" data-name="Trazado 157309" d="M152.534,181.913c0,.619-.434.869-.97.56a2.146,2.146,0,0,1-.97-1.68c0-.619.435-.87.97-.561a2.144,2.144,0,0,1,.97,1.681" transform="translate(-30.804 -36.839)" fill="#173d7a"/>
              <path id="Trazado_157310" data-name="Trazado 157310" d="M170.509,193.85l-1.994-1.151a1.292,1.292,0,0,1-.539-1.031v-2.11c0-.4.242-.58.539-.408l1.994,1.152a1.292,1.292,0,0,1,.539,1.03v2.11c0,.4-.242.579-.539.407" transform="translate(-34.359 -38.678)" fill="#d4ecff"/>
              <path id="Trazado_157311" data-name="Trazado 157311" d="M202.9,163.05h-.848V115.667l5.6-3.231V89.112h.848v23.813l-5.6,3.231Z" transform="translate(-41.33 -18.228)" fill="#fff"/>
              <path id="Trazado_157312" data-name="Trazado 157312" d="M29.484,185.937a2.9,2.9,0,0,1-1.434-.38L12.589,176.8a1.485,1.485,0,0,1-.013-2.577l38.566-22.308a7.192,7.192,0,0,1,7.173,0l44.08,25.477-.637,1.1L57.679,153.018a5.922,5.922,0,0,0-5.9,0L13.214,175.326a.209.209,0,0,0-.107.186.207.207,0,0,0,.108.185l15.461,8.755a1.629,1.629,0,0,0,1.7-.05l6.534-4.224.69,1.068-6.534,4.225a2.9,2.9,0,0,1-1.577.468" transform="translate(-2.421 -30.879)" fill="#b2d3ea"/>
              <path id="Trazado_157313" data-name="Trazado 157313" d="M53.765,192.2l-20.784-12c-1.276-.737-1.116-2.023.357-2.874L53.407,165.74a5.53,5.53,0,0,1,4.976-.206l20.784,12c1.275.737,1.115,2.023-.357,2.873L58.741,191.994a5.53,5.53,0,0,1-4.976.206" transform="translate(-6.57 -33.758)" fill="#b2d3ea"/>
              <path id="Trazado_157314" data-name="Trazado 157314" d="M84.51,165.752h0v-8.98l-20.136-.011-6.96-4.019a6.926,6.926,0,0,0-6.232.259l-6.494,3.749-20.154-.011v9.235a1.807,1.807,0,0,0,1.071,1.67L51.63,182.669a6.928,6.928,0,0,0,6.232-.258L82.992,167.9a2.469,2.469,0,0,0,1.518-2.151" transform="translate(-5.018 -31.116)" fill="#396caa"/>
              <path id="Trazado_157315" data-name="Trazado 157315" d="M54.522,152.125a7.191,7.191,0,0,0-3.34.876l-6.494,3.75-20.154-.011v9.235a1.807,1.807,0,0,0,1.071,1.67L51.63,182.67a5.642,5.642,0,0,0,2.892.618Z" transform="translate(-5.018 -31.117)" fill="#396caa"/>
              <path id="Trazado_157316" data-name="Trazado 157316" d="M26.815,157.928l-2.281,0v9.236a1.8,1.8,0,0,0,1.07,1.67l1.211.7Z" transform="translate(-5.018 -32.304)" fill="#5793ce"/>
              <path id="Trazado_157317" data-name="Trazado 157317" d="M59.1,188.061A7.1,7.1,0,0,0,64.085,188V177.518H59.1Z" transform="translate(-12.09 -36.311)" fill="#5793ce"/>
              <path id="Trazado_157318" data-name="Trazado 157318" d="M51.629,170.21,25.6,155.184c-1.6-.922-1.4-2.534.448-3.6l25.13-14.509a6.928,6.928,0,0,1,6.232-.258l26.026,15.026c1.6.922,1.4,2.534-.447,3.6L57.861,169.952a6.926,6.926,0,0,1-6.232.258" transform="translate(-5.016 -27.859)" fill="#d4ecff"/>
              <path id="Trazado_157319" data-name="Trazado 157319" d="M53.347,168.227l-21.81-12.592c-1.338-.773-1.17-2.123.375-3.016l21.06-12.158a5.8,5.8,0,0,1,5.222-.216L80,152.837c1.338.773,1.17,2.123-.375,3.016l-21.06,12.158a5.805,5.805,0,0,1-5.222.216" transform="translate(-6.266 -28.58)" fill="#5793ce"/>
              <path id="Trazado_157320" data-name="Trazado 157320" d="M87.358,172.043a2.323,2.323,0,0,1-1.052,1.821c-.58.335-1.051.064-1.051-.607a2.325,2.325,0,0,1,1.051-1.821c.581-.335,1.052-.064,1.052.607" transform="translate(-17.439 -35.038)" fill="#d4ecff"/>
              <path id="Trazado_157321" data-name="Trazado 157321" d="M91.61,169.589a2.323,2.323,0,0,1-1.052,1.821c-.58.335-1.051.064-1.051-.607a2.325,2.325,0,0,1,1.051-1.821c.581-.335,1.052-.064,1.052.607" transform="translate(-18.309 -34.536)" fill="#d4ecff"/>
              <path id="Trazado_157322" data-name="Trazado 157322" d="M95.862,167.134a2.324,2.324,0,0,1-1.052,1.821c-.58.335-1.051.064-1.051-.607a2.324,2.324,0,0,1,1.051-1.821c.581-.335,1.052-.064,1.052.607" transform="translate(-19.179 -34.034)" fill="#d4ecff"/>
              <path id="Trazado_157323" data-name="Trazado 157323" d="M84.51,147.711h0v-8.98l-20.136-.011-6.96-4.019a6.926,6.926,0,0,0-6.232.259l-6.494,3.749L24.534,138.7v9.235A1.807,1.807,0,0,0,25.6,149.6L51.63,164.628a6.928,6.928,0,0,0,6.232-.258l25.13-14.509a2.469,2.469,0,0,0,1.518-2.151" transform="translate(-5.018 -27.426)" fill="#396caa"/>
              <path id="Trazado_157324" data-name="Trazado 157324" d="M54.522,134.084a7.183,7.183,0,0,0-3.34.877l-6.494,3.749L24.534,138.7v9.235A1.807,1.807,0,0,0,25.6,149.6L51.63,164.629a5.643,5.643,0,0,0,2.892.618Z" transform="translate(-5.018 -27.427)" fill="#396caa"/>
              <path id="Trazado_157325" data-name="Trazado 157325" d="M26.815,139.887l-2.281,0v9.236a1.8,1.8,0,0,0,1.07,1.67l1.211.7Z" transform="translate(-5.018 -28.613)" fill="#5793ce"/>
              <path id="Trazado_157326" data-name="Trazado 157326" d="M59.1,170.02a7.1,7.1,0,0,0,4.982-.057V159.477H59.1Z" transform="translate(-12.09 -32.621)" fill="#5793ce"/>
              <path id="Trazado_157327" data-name="Trazado 157327" d="M51.629,152.169,25.6,137.143c-1.6-.922-1.4-2.534.448-3.6l25.13-14.509a6.928,6.928,0,0,1,6.232-.259L83.438,133.8c1.6.923,1.4,2.534-.447,3.6L57.861,151.911a6.926,6.926,0,0,1-6.232.258" transform="translate(-5.016 -24.169)" fill="#d4ecff"/>
              <path id="Trazado_157328" data-name="Trazado 157328" d="M53.347,150.186l-21.81-12.592c-1.338-.773-1.17-2.123.375-3.016l21.06-12.158a5.8,5.8,0,0,1,5.222-.216L80,134.8c1.338.773,1.17,2.123-.375,3.016L58.569,149.97a5.8,5.8,0,0,1-5.222.216" transform="translate(-6.266 -24.89)" fill="#5793ce"/>
              <path id="Trazado_157329" data-name="Trazado 157329" d="M87.358,154a2.324,2.324,0,0,1-1.052,1.821c-.58.335-1.051.064-1.051-.607a2.324,2.324,0,0,1,1.051-1.821c.581-.335,1.052-.064,1.052.607" transform="translate(-17.439 -31.348)" fill="#d4ecff"/>
              <path id="Trazado_157330" data-name="Trazado 157330" d="M91.61,151.548a2.323,2.323,0,0,1-1.052,1.821c-.58.335-1.051.064-1.051-.607a2.324,2.324,0,0,1,1.051-1.821c.581-.335,1.052-.064,1.052.607" transform="translate(-18.309 -30.846)" fill="#d4ecff"/>
              <path id="Trazado_157331" data-name="Trazado 157331" d="M95.862,149.093a2.323,2.323,0,0,1-1.052,1.821c-.58.335-1.051.064-1.051-.607a2.324,2.324,0,0,1,1.051-1.821c.581-.335,1.052-.064,1.052.607" transform="translate(-19.179 -30.343)" fill="#d4ecff"/>
              <path id="Trazado_157332" data-name="Trazado 157332" d="M84.51,129.67h0v-8.98l-20.136-.011-6.96-4.019a6.926,6.926,0,0,0-6.232.259l-6.494,3.749-20.154-.011v9.235a1.807,1.807,0,0,0,1.071,1.67L51.63,146.587a6.925,6.925,0,0,0,6.232-.259l25.13-14.508a2.469,2.469,0,0,0,1.518-2.151" transform="translate(-5.018 -23.735)" fill="#396caa"/>
              <path id="Trazado_157333" data-name="Trazado 157333" d="M54.522,116.043a7.183,7.183,0,0,0-3.34.877l-6.494,3.749-20.154-.011v9.235a1.807,1.807,0,0,0,1.071,1.67L51.63,146.588a5.643,5.643,0,0,0,2.892.618Z" transform="translate(-5.018 -23.737)" fill="#396caa"/>
              <path id="Trazado_157334" data-name="Trazado 157334" d="M26.815,121.846l-2.281,0v9.236a1.8,1.8,0,0,0,1.07,1.67l1.211.7Z" transform="translate(-5.018 -24.923)" fill="#5793ce"/>
              <path id="Trazado_157335" data-name="Trazado 157335" d="M59.1,151.979a7.1,7.1,0,0,0,4.982-.057V141.436H59.1Z" transform="translate(-12.09 -28.931)" fill="#5793ce"/>
              <path id="Trazado_157336" data-name="Trazado 157336" d="M51.629,134.128,25.6,119.1c-1.6-.922-1.4-2.534.448-3.6L51.18,101a6.928,6.928,0,0,1,6.232-.259l26.026,15.026c1.6.923,1.4,2.534-.447,3.6L57.861,133.87a6.926,6.926,0,0,1-6.232.259" transform="translate(-5.016 -20.478)" fill="#d4ecff"/>
              <path id="Trazado_157337" data-name="Trazado 157337" d="M82.991,121.8,57.861,136.309a6.926,6.926,0,0,1-6.232.259L25.6,121.542a2.427,2.427,0,0,1-.8-.707,1.674,1.674,0,0,0,.8,2.474l26.026,15.026a6.926,6.926,0,0,0,6.232-.258l25.131-14.509c1.433-.827,1.869-1.984,1.244-2.891a3.48,3.48,0,0,1-1.244,1.123" transform="translate(-5.017 -24.684)" fill="#fff"/>
              <path id="Trazado_157338" data-name="Trazado 157338" d="M87.358,135.962a2.323,2.323,0,0,1-1.052,1.821c-.58.335-1.051.064-1.051-.607a2.324,2.324,0,0,1,1.051-1.821c.581-.335,1.052-.064,1.052.607" transform="translate(-17.439 -27.658)" fill="#d4ecff"/>
              <path id="Trazado_157339" data-name="Trazado 157339" d="M91.61,133.507a2.323,2.323,0,0,1-1.052,1.821c-.58.335-1.051.064-1.051-.607a2.324,2.324,0,0,1,1.051-1.821c.581-.335,1.052-.064,1.052.607" transform="translate(-18.309 -27.155)" fill="#d4ecff"/>
              <path id="Trazado_157340" data-name="Trazado 157340" d="M95.862,131.052a2.323,2.323,0,0,1-1.052,1.821c-.58.335-1.051.064-1.051-.607a2.324,2.324,0,0,1,1.051-1.821c.581-.335,1.052-.064,1.052.607" transform="translate(-19.179 -26.653)" fill="#d4ecff"/>
              <path id="Trazado_157341" data-name="Trazado 157341" d="M57.272,127.071l-12.179-7.032c-.747-.431-.654-1.185.209-1.683l11.76-6.79a3.244,3.244,0,0,1,2.916-.121l12.179,7.032c.748.431.654,1.185-.209,1.684l-11.76,6.789a3.244,3.244,0,0,1-2.916.121" transform="translate(-9.121 -22.737)" fill="#5793ce"/>
              <path id="Trazado_157342" data-name="Trazado 157342" d="M61.548,123.2l-1.685-.973c-.1-.06-.091-.164.029-.233l1.627-.939a.447.447,0,0,1,.4-.017l1.685.973c.1.06.091.164-.029.233l-1.627.939a.447.447,0,0,1-.4.017" transform="translate(-12.231 -24.749)" fill="#d4ecff"/>
              <path id="Trazado_157343" data-name="Trazado 157343" d="M45.093,120.039l.034.02a2.109,2.109,0,0,1,.175-.12l11.76-6.79a3.243,3.243,0,0,1,2.916-.121l12.144,7.012c.69-.493.725-1.165.035-1.563l-12.179-7.032a3.243,3.243,0,0,0-2.916.121L45.3,118.355c-.863.5-.957,1.253-.209,1.684" transform="translate(-9.121 -22.737)" fill="#396caa"/>
              <path id="Trazado_157344" data-name="Trazado 157344" d="M56.126,145.834c0,.451-.317.634-.707.408a1.561,1.561,0,0,1-.708-1.225c0-.451.317-.634.708-.408a1.563,1.563,0,0,1,.707,1.225" transform="translate(-11.191 -29.56)" fill="#d4ecff"/>
              <path id="Trazado_157345" data-name="Trazado 157345" d="M53.367,144.252c0,.451-.317.634-.707.408a1.563,1.563,0,0,1-.708-1.225c0-.451.317-.634.708-.408a1.563,1.563,0,0,1,.707,1.225" transform="translate(-10.627 -29.236)" fill="#d4ecff"/>
              <path id="Trazado_157346" data-name="Trazado 157346" d="M56.126,149.164c0,.451-.317.634-.707.408a1.561,1.561,0,0,1-.708-1.225c0-.451.317-.634.708-.408a1.563,1.563,0,0,1,.707,1.225" transform="translate(-11.191 -30.241)" fill="#d4ecff"/>
              <path id="Trazado_157347" data-name="Trazado 157347" d="M53.367,147.581c0,.451-.317.634-.707.408a1.563,1.563,0,0,1-.708-1.225c0-.451.317-.634.708-.408a1.563,1.563,0,0,1,.707,1.225" transform="translate(-10.627 -29.917)" fill="#d4ecff"/>
              <path id="Trazado_157348" data-name="Trazado 157348" d="M56.126,163.786c0,.451-.317.634-.707.408a1.561,1.561,0,0,1-.708-1.225c0-.451.317-.634.708-.408a1.563,1.563,0,0,1,.707,1.225" transform="translate(-11.191 -33.232)" fill="#d4ecff"/>
              <path id="Trazado_157349" data-name="Trazado 157349" d="M53.367,162.2c0,.451-.317.634-.707.409a1.566,1.566,0,0,1-.708-1.226c0-.451.317-.634.708-.408a1.563,1.563,0,0,1,.707,1.225" transform="translate(-10.627 -32.908)" fill="#d4ecff"/>
              <path id="Trazado_157350" data-name="Trazado 157350" d="M56.126,167.115c0,.451-.317.634-.707.408a1.561,1.561,0,0,1-.708-1.225c0-.451.317-.634.708-.408a1.563,1.563,0,0,1,.707,1.225" transform="translate(-11.191 -33.913)" fill="#d4ecff"/>
              <path id="Trazado_157351" data-name="Trazado 157351" d="M53.367,165.533c0,.451-.317.634-.707.408a1.564,1.564,0,0,1-.708-1.225c0-.451.317-.634.708-.408a1.563,1.563,0,0,1,.707,1.225" transform="translate(-10.627 -33.589)" fill="#d4ecff"/>
              <path id="Trazado_157352" data-name="Trazado 157352" d="M56.126,181.737c0,.451-.317.634-.707.408a1.561,1.561,0,0,1-.708-1.225c0-.451.317-.634.708-.408a1.563,1.563,0,0,1,.707,1.225" transform="translate(-11.191 -36.904)" fill="#d4ecff"/>
              <path id="Trazado_157353" data-name="Trazado 157353" d="M53.367,180.155c0,.451-.317.634-.707.409a1.566,1.566,0,0,1-.708-1.226c0-.451.317-.634.708-.408a1.563,1.563,0,0,1,.707,1.225" transform="translate(-10.627 -36.58)" fill="#d4ecff"/>
              <path id="Trazado_157354" data-name="Trazado 157354" d="M56.126,185.066c0,.451-.317.634-.707.408a1.561,1.561,0,0,1-.708-1.225c0-.451.317-.634.708-.408a1.563,1.563,0,0,1,.707,1.225" transform="translate(-11.191 -37.585)" fill="#d4ecff"/>
              <path id="Trazado_157355" data-name="Trazado 157355" d="M53.367,183.484c0,.451-.317.634-.707.408a1.564,1.564,0,0,1-.708-1.225c0-.451.317-.634.708-.408a1.563,1.563,0,0,1,.707,1.225" transform="translate(-10.627 -37.261)" fill="#d4ecff"/>
              <path id="Trazado_157356" data-name="Trazado 157356" d="M58.551,208.275A4.285,4.285,0,0,1,56.4,207.7l-13.115-7.611a1.429,1.429,0,0,1,0-2.472l8.624-5,.639,1.1-8.625,5a.158.158,0,0,0,0,.273L57.037,206.6a3.031,3.031,0,0,0,3.007.011l25.687-14.638a4.308,4.308,0,0,1,4.278.017l21.518,12.428a3.019,3.019,0,0,0,3.027,0l10.375-6,.637,1.1-10.375,6a4.3,4.3,0,0,1-4.3-.006L89.372,193.089a3.028,3.028,0,0,0-3.012-.014L60.673,207.714a4.283,4.283,0,0,1-2.122.561" transform="translate(-8.708 -39.153)" fill="#b2d3ea"/>
              <path id="Trazado_157357" data-name="Trazado 157357" d="M200.319,266.5l-20.784-12c-1.275-.737-1.115-2.023.358-2.873l20.068-11.587a5.53,5.53,0,0,1,4.976-.206l20.784,12c1.275.737,1.115,2.023-.357,2.873L205.3,266.293a5.53,5.53,0,0,1-4.976.206" transform="translate(-36.548 -48.956)" fill="#b2d3ea"/>
              <path id="Trazado_157358" data-name="Trazado 157358" d="M231.064,240.051h0v-8.98l-20.136-.011-6.96-4.019a6.926,6.926,0,0,0-6.232.259l-6.494,3.749-20.154-.011v9.235a1.807,1.807,0,0,0,1.071,1.67l26.026,15.026a6.927,6.927,0,0,0,6.232-.258l25.13-14.509a2.469,2.469,0,0,0,1.518-2.151" transform="translate(-34.995 -46.314)" fill="#396caa"/>
              <path id="Trazado_157359" data-name="Trazado 157359" d="M201.076,226.425a7.191,7.191,0,0,0-3.34.876l-6.494,3.75-20.154-.011v9.235a1.807,1.807,0,0,0,1.071,1.67l26.026,15.026a5.643,5.643,0,0,0,2.892.618Z" transform="translate(-34.995 -46.315)" fill="#396caa"/>
              <path id="Trazado_157360" data-name="Trazado 157360" d="M173.369,232.227l-2.281,0v9.236a1.805,1.805,0,0,0,1.07,1.67l1.211.7Z" transform="translate(-34.995 -47.502)" fill="#5793ce"/>
              <path id="Trazado_157361" data-name="Trazado 157361" d="M205.657,262.361a7.1,7.1,0,0,0,4.981-.056V251.818h-4.981Z" transform="translate(-42.067 -51.509)" fill="#5793ce"/>
              <path id="Trazado_157362" data-name="Trazado 157362" d="M198.183,244.509l-26.026-15.026c-1.6-.922-1.4-2.534.448-3.6l25.13-14.509a6.928,6.928,0,0,1,6.232-.259l26.026,15.026c1.6.922,1.4,2.533-.447,3.6l-25.131,14.509a6.926,6.926,0,0,1-6.232.259" transform="translate(-34.994 -43.057)" fill="#d4ecff"/>
              <path id="Trazado_157363" data-name="Trazado 157363" d="M199.9,242.526l-21.81-12.592c-1.338-.773-1.17-2.123.375-3.016l21.06-12.158a5.8,5.8,0,0,1,5.222-.216l21.81,12.592c1.338.773,1.17,2.123-.375,3.015l-21.06,12.159a5.8,5.8,0,0,1-5.222.216" transform="translate(-36.244 -43.778)" fill="#5793ce"/>
              <path id="Trazado_157364" data-name="Trazado 157364" d="M233.912,246.343a2.323,2.323,0,0,1-1.052,1.821c-.58.335-1.051.064-1.051-.607a2.324,2.324,0,0,1,1.051-1.821c.581-.335,1.052-.064,1.052.607" transform="translate(-47.417 -50.236)" fill="#d4ecff"/>
              <path id="Trazado_157365" data-name="Trazado 157365" d="M238.164,243.888a2.323,2.323,0,0,1-1.052,1.821c-.58.335-1.051.064-1.051-.607a2.324,2.324,0,0,1,1.051-1.821c.581-.335,1.052-.064,1.052.607" transform="translate(-48.286 -49.734)" fill="#d4ecff"/>
              <path id="Trazado_157366" data-name="Trazado 157366" d="M242.416,241.433a2.323,2.323,0,0,1-1.052,1.821c-.58.335-1.051.064-1.051-.607a2.325,2.325,0,0,1,1.051-1.821c.581-.335,1.052-.064,1.052.607" transform="translate(-49.156 -49.232)" fill="#d4ecff"/>
              <path id="Trazado_157367" data-name="Trazado 157367" d="M231.064,222.01h0v-8.98l-20.136-.011L203.968,209a6.926,6.926,0,0,0-6.232.258l-6.494,3.749L171.088,213v9.235a1.807,1.807,0,0,0,1.071,1.67l26.026,15.026a6.928,6.928,0,0,0,6.232-.258l25.13-14.509a2.469,2.469,0,0,0,1.518-2.151" transform="translate(-34.995 -42.624)" fill="#396caa"/>
              <path id="Trazado_157368" data-name="Trazado 157368" d="M201.076,208.384a7.183,7.183,0,0,0-3.34.877l-6.494,3.749L171.088,213v9.235a1.807,1.807,0,0,0,1.071,1.67l26.026,15.026a5.643,5.643,0,0,0,2.892.618Z" transform="translate(-34.995 -42.625)" fill="#396caa"/>
              <path id="Trazado_157369" data-name="Trazado 157369" d="M173.369,214.186l-2.281,0v9.236a1.805,1.805,0,0,0,1.07,1.67l1.211.7Z" transform="translate(-34.995 -43.811)" fill="#5793ce"/>
              <path id="Trazado_157370" data-name="Trazado 157370" d="M205.657,244.32a7.1,7.1,0,0,0,4.981-.057V233.777h-4.981Z" transform="translate(-42.067 -47.819)" fill="#5793ce"/>
              <path id="Trazado_157371" data-name="Trazado 157371" d="M198.183,226.468l-26.026-15.026c-1.6-.922-1.4-2.533.448-3.6l25.13-14.509a6.928,6.928,0,0,1,6.232-.259L229.992,208.1c1.6.923,1.4,2.534-.447,3.6L204.415,226.21a6.926,6.926,0,0,1-6.232.259" transform="translate(-34.994 -39.367)" fill="#d4ecff"/>
              <path id="Trazado_157372" data-name="Trazado 157372" d="M199.9,224.485l-21.81-12.592c-1.338-.773-1.17-2.123.375-3.016l21.06-12.158a5.8,5.8,0,0,1,5.222-.216l21.81,12.592c1.338.773,1.17,2.123-.375,3.016l-21.06,12.158a5.8,5.8,0,0,1-5.222.216" transform="translate(-36.244 -40.088)" fill="#5793ce"/>
              <path id="Trazado_157373" data-name="Trazado 157373" d="M233.912,228.3a2.323,2.323,0,0,1-1.052,1.821c-.58.335-1.051.064-1.051-.607a2.324,2.324,0,0,1,1.051-1.821c.581-.335,1.052-.064,1.052.607" transform="translate(-47.417 -46.546)" fill="#d4ecff"/>
              <path id="Trazado_157374" data-name="Trazado 157374" d="M238.164,225.847a2.323,2.323,0,0,1-1.052,1.821c-.58.335-1.051.064-1.051-.607a2.324,2.324,0,0,1,1.051-1.821c.581-.335,1.052-.064,1.052.607" transform="translate(-48.286 -46.044)" fill="#d4ecff"/>
              <path id="Trazado_157375" data-name="Trazado 157375" d="M242.416,223.392a2.324,2.324,0,0,1-1.052,1.821c-.58.335-1.051.064-1.051-.607a2.324,2.324,0,0,1,1.051-1.821c.581-.335,1.052-.064,1.052.607" transform="translate(-49.156 -45.541)" fill="#d4ecff"/>
              <path id="Trazado_157376" data-name="Trazado 157376" d="M231.064,203.97h0v-8.98l-20.136-.011-6.96-4.019a6.926,6.926,0,0,0-6.232.259l-6.494,3.749-20.154-.011v9.235a1.807,1.807,0,0,0,1.071,1.67l26.026,15.026a6.928,6.928,0,0,0,6.232-.258l25.13-14.509a2.469,2.469,0,0,0,1.518-2.151" transform="translate(-34.995 -38.934)" fill="#396caa"/>
              <path id="Trazado_157377" data-name="Trazado 157377" d="M201.076,190.343a7.192,7.192,0,0,0-3.34.876l-6.494,3.75-20.154-.012v9.236a1.807,1.807,0,0,0,1.071,1.67l26.026,15.026a5.643,5.643,0,0,0,2.892.618Z" transform="translate(-34.995 -38.935)" fill="#396caa"/>
              <path id="Trazado_157378" data-name="Trazado 157378" d="M173.369,196.145l-2.281,0v9.236a1.8,1.8,0,0,0,1.07,1.67l1.211.7Z" transform="translate(-34.995 -40.121)" fill="#5793ce"/>
              <path id="Trazado_157379" data-name="Trazado 157379" d="M205.657,226.279a7.1,7.1,0,0,0,4.981-.057V215.736h-4.981Z" transform="translate(-42.067 -44.129)" fill="#5793ce"/>
              <path id="Trazado_157380" data-name="Trazado 157380" d="M198.183,208.427,172.157,193.4c-1.6-.923-1.4-2.534.448-3.6l25.13-14.509a6.928,6.928,0,0,1,6.232-.259l26.026,15.026c1.6.922,1.4,2.533-.447,3.6l-25.131,14.509a6.926,6.926,0,0,1-6.232.259" transform="translate(-34.994 -35.676)" fill="#d4ecff"/>
              <path id="Trazado_157381" data-name="Trazado 157381" d="M229.545,196.1l-25.131,14.509a6.926,6.926,0,0,1-6.232.259l-26.026-15.026a2.427,2.427,0,0,1-.8-.707,1.673,1.673,0,0,0,.8,2.474l26.026,15.026a6.926,6.926,0,0,0,6.232-.258l25.131-14.509c1.433-.827,1.869-1.984,1.244-2.891a3.48,3.48,0,0,1-1.244,1.123" transform="translate(-34.994 -39.882)" fill="#fff"/>
              <path id="Trazado_157382" data-name="Trazado 157382" d="M233.912,210.261a2.323,2.323,0,0,1-1.052,1.821c-.58.335-1.051.064-1.051-.607a2.325,2.325,0,0,1,1.051-1.821c.581-.335,1.052-.064,1.052.607" transform="translate(-47.417 -42.855)" fill="#d4ecff"/>
              <path id="Trazado_157383" data-name="Trazado 157383" d="M238.164,207.806a2.323,2.323,0,0,1-1.052,1.821c-.58.335-1.051.064-1.051-.607a2.326,2.326,0,0,1,1.051-1.821c.581-.335,1.052-.064,1.052.607" transform="translate(-48.286 -42.353)" fill="#d4ecff"/>
              <path id="Trazado_157384" data-name="Trazado 157384" d="M242.416,205.351a2.324,2.324,0,0,1-1.052,1.821c-.58.335-1.051.064-1.051-.607a2.324,2.324,0,0,1,1.051-1.821c.581-.335,1.052-.064,1.052.607" transform="translate(-49.156 -41.851)" fill="#d4ecff"/>
              <path id="Trazado_157385" data-name="Trazado 157385" d="M203.826,201.37l-12.179-7.032c-.747-.431-.654-1.185.209-1.683l11.76-6.79a3.244,3.244,0,0,1,2.916-.121l12.179,7.032c.748.431.654,1.185-.209,1.684l-11.76,6.789a3.241,3.241,0,0,1-2.916.121" transform="translate(-39.098 -37.934)" fill="#5793ce"/>
              <path id="Trazado_157386" data-name="Trazado 157386" d="M208.1,197.495l-1.685-.973c-.1-.06-.091-.164.029-.233l1.627-.939a.447.447,0,0,1,.4-.017l1.685.973c.1.06.091.164-.029.233l-1.628.939a.447.447,0,0,1-.4.017" transform="translate(-42.208 -39.947)" fill="#d4ecff"/>
              <path id="Trazado_157387" data-name="Trazado 157387" d="M191.647,194.338l.034.02a2.109,2.109,0,0,1,.175-.12l11.76-6.79a3.243,3.243,0,0,1,2.916-.121l12.144,7.012c.69-.493.725-1.165.035-1.563l-12.179-7.032a3.244,3.244,0,0,0-2.916.121l-11.76,6.789c-.863.5-.957,1.253-.209,1.684" transform="translate(-39.098 -37.934)" fill="#396caa"/>
              <path id="Trazado_157388" data-name="Trazado 157388" d="M94.692,99.594l9.875-5.816-9.4-11.738L92.689,86.08Z" transform="translate(-18.96 -16.781)" fill="#5793ce"/>
              <path id="Trazado_157389" data-name="Trazado 157389" d="M5.067,20.79l15.76-9.067s-.593,9.049-.593,9.067-9.054,2.8-9.054,2.8Z" transform="translate(-1.036 -2.398)" fill="#5793ce"/>
              <path id="Trazado_157390" data-name="Trazado 157390" d="M82.524,53.3a9.917,9.917,0,0,0-3.41-1.264c-1.589-8.351-7.4-17.219-14.328-21.219a14.024,14.024,0,0,0-5.863-1.985C57.977,18.707,50.938,7.2,42.392,2.269c-4.465-2.577-8.515-2.883-11.5-1.3V.958l-.145.084c-.076.042-.152.085-.227.13L21.224,6.66,24.312,9.1c-2.772,1.211-4.525,4.321-4.525,8.916,0,8.475,5.95,18.779,13.29,23.017L82.524,76.342c5.511,3.182,9.979.6,9.979-5.761s-4.468-14.1-9.979-17.284" transform="translate(-4.047 0)" fill="#5793ce"/>
              <path id="Trazado_157391" data-name="Trazado 157391" d="M20.364,14.284,41.694,1.822C37.553-.338,33.812-.516,31.006.966V.958l-.145.084c-.076.042-.152.086-.227.13L21.342,6.66,24.43,9.1a7.45,7.45,0,0,0-4.066,5.185" transform="translate(-4.165 0)" fill="#5793ce"/>
              <path id="Trazado_157392" data-name="Trazado 157392" d="M65.708,58.659l15.563-9.133a30.144,30.144,0,0,0-10.414-11q-.808-.467-1.593-.82l-19.8,11.577Z" transform="translate(-10.119 -7.713)" fill="#5793ce"/>
              <path id="Trazado_157393" data-name="Trazado 157393" d="M27.1,7.784l6.936,4,12.7-7.481a25.272,25.272,0,0,0-2.854-1.934A17.82,17.82,0,0,0,39.45.509Z" transform="translate(-5.544 -0.104)" fill="#d4ecff"/>
              <path id="Trazado_157394" data-name="Trazado 157394" d="M84.1,49.187,71.675,56.506,76,61.325l11.275-6.658a36.135,36.135,0,0,0-3.175-5.48" transform="translate(-14.661 -10.061)" fill="#d4ecff"/>
              <path id="Trazado_157395" data-name="Trazado 157395" d="M68.72,60.522a9.917,9.917,0,0,0-3.41-1.264c-1.589-8.351-7.4-17.219-14.328-21.219a14.024,14.024,0,0,0-5.863-1.985c-.946-10.122-7.984-21.625-16.53-26.559C19.4,4.188,11.945,8.489,11.945,19.1c0,.36.01.723.027,1.088C5.252,17.073,0,20.585,0,28.547c0,8.474,5.95,18.779,13.289,23.016l55.431,32c5.511,3.182,9.979.6,9.979-5.761S74.231,63.7,68.72,60.522" transform="translate(0 -1.477)" fill="#d4ecff"/>
              <path id="Trazado_157396" data-name="Trazado 157396" d="M12.754,23.035c-.017-.365-.027-.728-.027-1.088V21.9c-3.713-1.444-6.9-.815-8.907,1.5C6,21.613,9.16,21.369,12.754,23.035" transform="translate(-0.782 -4.322)" fill="#fff"/>
              <path id="Trazado_157397" data-name="Trazado 157397" d="M73.55,59.527a9.917,9.917,0,0,0-3.41-1.264c-1.589-8.351-7.4-17.219-14.328-21.219a14.024,14.024,0,0,0-5.863-1.985C49,24.937,41.964,13.434,33.418,8.5c-5.726-3.306-10.776-2.882-13.771.474,3.051-2.607,7.721-2.708,12.959.317,8.546,4.934,15.584,16.438,16.53,26.56A14.022,14.022,0,0,1,55,37.834c6.929,4,12.74,12.869,14.328,21.22a9.931,9.931,0,0,1,3.41,1.263C78.249,63.5,82.717,71.238,82.717,77.6a8.222,8.222,0,0,1-1.591,5.308c1.495-1.151,2.4-3.239,2.4-6.1,0-6.364-4.468-14.1-9.979-17.284" transform="translate(-4.019 -1.274)" fill="#fff"/>
              <path id="Trazado_157398" data-name="Trazado 157398" d="M11.517,23.432l4.167,1.932-.212-4.588c-.015-.322-.025-.642-.025-.959,0-4.1,1.237-7.065,3.482-8.362s5.435-.881,8.982,1.166c7.628,4.4,14.282,15.125,15.149,24.407l.219,2.338,2.342.181a11.255,11.255,0,0,1,4.684,1.62c6.059,3.5,11.52,11.626,12.985,19.327l.367,1.928,1.939.3a7.2,7.2,0,0,1,2.448.925c4.654,2.687,8.586,9.5,8.586,14.87,0,2.012-.558,3.487-1.53,4.048s-2.529.307-4.271-.7l-55.431-32C8.95,46.143,3.5,36.707,3.5,29.261c0-2.922.862-5.148,2.364-6.107a4.049,4.049,0,0,1,2.21-.591,8.33,8.33,0,0,1,3.441.869" transform="translate(-0.716 -2.192)" fill="#396caa"/>
              <path id="Trazado_157399" data-name="Trazado 157399" d="M48.357,69.907l1.462-.734L48.38,68.082Z" transform="translate(-9.891 -13.926)" fill="#5793ce"/>
              <path id="Trazado_157400" data-name="Trazado 157400" d="M42.836,45.36l1.419-.717.026.743Z" transform="translate(-8.762 -9.132)" fill="#5793ce"/>
              <path id="Trazado_157401" data-name="Trazado 157401" d="M53.248,63.683l1.481-.745-2.851-2.712Z" transform="translate(-10.612 -12.319)" fill="#5793ce"/>
              <path id="Trazado_157402" data-name="Trazado 157402" d="M47.714,65.985l-6.923-4.077a1.473,1.473,0,0,1-.634-1.164l.022-8.015,8.2,4.827-.022,8.015c0,.436-.287.621-.639.414" transform="translate(-8.214 -10.786)" fill="#5793ce"/>
              <path id="Trazado_157403" data-name="Trazado 157403" d="M42.642,44.637l-7.477,4.812c-.317.2-.061.965.421,1.249l7.636,4.5,7.637,4.5c.481.284.741-.173.426-.75L43.861,45.355c-.321-.587-.9-.925-1.219-.717" transform="translate(-7.164 -9.118)" fill="#5793ce"/>
              <path id="Trazado_157404" data-name="Trazado 157404" d="M45.848,66.925l-6.923-4.077a1.473,1.473,0,0,1-.634-1.164l.022-8.015,8.2,4.827-.022,8.015c0,.436-.287.621-.639.414" transform="translate(-7.832 -10.978)" fill="#d4ecff"/>
              <path id="Trazado_157405" data-name="Trazado 157405" d="M40.776,45.577,33.3,50.389c-.317.2-.061.965.421,1.249l7.636,4.5,7.637,4.5c.481.284.741-.173.426-.75L41.995,46.295c-.321-.587-.9-.925-1.219-.717" transform="translate(-6.783 -9.31)" fill="#d4ecff"/>
            </g>
          </g>
        </g>
      </g>
      <rect id="Rectángulo_12316" data-name="Rectángulo 12316" width="295" height="238" transform="translate(390 2480)" fill="none"/>
    </g>
  </g>
</svg>
