<svg xmlns="http://www.w3.org/2000/svg" xmlns:xlink="http://www.w3.org/1999/xlink" width="1328" height="830.003" viewBox="0 0 1328 830.003">
  <defs>
    <clipPath id="clip-path">
      <path id="Trazado_159698" data-name="Trazado 159698" d="M305.672,221.013a3.024,3.024,0,0,1,2.235-2.922,2.555,2.555,0,0,1,.821-.133,2.687,2.687,0,0,1,.841.133,3.018,3.018,0,0,1,2.235,2.922,3.067,3.067,0,1,1-6.133,0m66.6-203.771V122.386L307.907,186.75v29.614a4.724,4.724,0,1,0,1.662,0V187.436l64.364-64.364V17.242Z" transform="translate(-304.014 -17.242)" fill="#c0e6f8"/>
    </clipPath>
    <clipPath id="clip-path-2">
      <path id="Trazado_159699" data-name="Trazado 159699" d="M299.765,175.136A3.018,3.018,0,0,1,302,172.214a2.52,2.52,0,0,1,.819-.133,2.662,2.662,0,0,1,.839.133,3.013,3.013,0,0,1,2.235,2.922,3.064,3.064,0,1,1-6.129,0m25.205-93.609a3.862,3.862,0,0,0,.62,2.092L302,107.208v63.279a4.727,4.727,0,1,0,1.658,0V107.894l23.1-23.1a3.886,3.886,0,1,0-1.791-3.267" transform="translate(-298.103 -77.636)" fill="#c0e6f8"/>
    </clipPath>
    <clipPath id="clip-path-3">
      <path id="Trazado_159700" data-name="Trazado 159700" d="M291.362,203.993a3.03,3.03,0,0,1,2.213-2.944,2.689,2.689,0,0,1,.843-.133,2.55,2.55,0,0,1,.819.133,3.055,3.055,0,0,1-.819,6,3.061,3.061,0,0,1-3.057-3.054m83.179-168.28a3.013,3.013,0,0,1-2.235-2.922,3.064,3.064,0,0,1,6.129,0,3.021,3.021,0,0,1-2.235,2.922,2.527,2.527,0,0,1-.817.133,2.675,2.675,0,0,1-.841-.133m-3.9-2.922a4.731,4.731,0,0,0,3.9,4.648v68.038l-15.715,15.737H333.614l-40.039,40.017v38.091a4.724,4.724,0,1,0,1.662,0V161.917L334.3,122.874H359.51L376.2,106.163V37.439a4.719,4.719,0,1,0-5.556-4.648" transform="translate(-289.704 -28.077)" fill="#c0e6f8"/>
    </clipPath>
    <clipPath id="clip-path-4">
      <path id="Trazado_159701" data-name="Trazado 159701" d="M324.592,17.242l-82,82V229.078L80.26,391.415v2.348l164-164V99.926l82.684-82.684Z" transform="translate(-80.26 -17.242)" fill="#c0e6f8"/>
    </clipPath>
    <clipPath id="clip-path-5">
      <path id="Trazado_159702" data-name="Trazado 159702" d="M256.766,17.242,164.12,109.888v69.8l76.11-76.11a3.845,3.845,0,0,0,2.087.618,3.909,3.909,0,1,0-3.265-1.786l-73.272,73.27V110.574l93.332-93.332Z" transform="translate(-164.12 -17.242)" fill="#c0e6f8"/>
    </clipPath>
    <clipPath id="clip-path-6">
      <path id="Trazado_159703" data-name="Trazado 159703" d="M302.4,17.242l-83.89,83.892h36.6L311.484,44.76h71.258A3.878,3.878,0,1,0,382.7,43.1H310.8L254.422,99.472H222.517l82.232-82.23Z" transform="translate(-218.511 -17.242)" fill="#c0e6f8"/>
    </clipPath>
    <clipPath id="clip-path-7">
      <path id="Trazado_159704" data-name="Trazado 159704" d="M420.028,17.242V58.215l-33.3,33.3H295.869l-59.488,59.488a3.855,3.855,0,1,0,1.222,1.124l58.954-58.952h90.855L421.691,58.9V17.242Z" transform="translate(-230.516 -17.242)" fill="#c0e6f8"/>
    </clipPath>
    <clipPath id="clip-path-8">
      <path id="Trazado_159705" data-name="Trazado 159705" d="M119.443,236.28a3.041,3.041,0,0,1,2.26-2.944,3.277,3.277,0,0,1,.8-.111,2.725,2.725,0,0,1,.863.133,3.051,3.051,0,1,1-3.92,2.922M80.26,46.936l31.378,31.378v190.98a3.891,3.891,0,1,0,1.66,0v-150l20.42,20.42V183.6L121.7,195.643v35.989a4.7,4.7,0,1,0,1.66,0v-35.3l12.016-12.041V139.026l-22.08-22.08V77.626L80.26,44.59Z" transform="translate(-80.26 -44.59)" fill="#c0e6f8"/>
    </clipPath>
    <clipPath id="clip-path-9">
      <path id="Trazado_159706" data-name="Trazado 159706" d="M280.835,178.87H161.562l-81.3,81.3v2.348l81.989-81.989H280.87a3.876,3.876,0,1,0-.035-1.662" transform="translate(-80.26 -175.745)" fill="#c0e6f8"/>
    </clipPath>
    <clipPath id="clip-path-10">
      <path id="Trazado_159707" data-name="Trazado 159707" d="M305.561,134.091H284.4l-55.851,55.851H137.861l46.026-46.026a3.957,3.957,0,1,0-1.147-1.2L133.853,191.6h95.381l55.851-55.853h20.476a3.893,3.893,0,1,0,0-1.66" transform="translate(-133.853 -131.028)" fill="#c0e6f8"/>
    </clipPath>
    <clipPath id="clip-path-11">
      <path id="Trazado_159708" data-name="Trazado 159708" d="M231.921,142.059a2.86,2.86,0,0,1-1.22-1.129,3.046,3.046,0,1,1,2.592,1.461,2.917,2.917,0,0,1-1.372-.332m-47.41-.708a2.827,2.827,0,0,1-1.129-1.217,2.925,2.925,0,0,1-.334-1.372,3.1,3.1,0,1,1,1.463,2.59m-3.121-2.59a4.675,4.675,0,0,0,.775,2.59l-31.542,31.518h50.466L230.7,143.254h.024a4.463,4.463,0,0,0,2.567.8,4.748,4.748,0,1,0-3.785-1.926L200.4,171.209h-45.77l28.685-28.663a4.713,4.713,0,0,0,7.523-3.785,4.724,4.724,0,0,0-9.449,0" transform="translate(-150.623 -134.047)" fill="#c0e6f8"/>
    </clipPath>
    <clipPath id="clip-path-12">
      <path id="Trazado_159709" data-name="Trazado 159709" d="M114.613,118.387a3.024,3.024,0,0,1,2.238-2.944,2.665,2.665,0,0,1,.841-.133,2.55,2.55,0,0,1,.819.133,3.054,3.054,0,0,1-.819,6,3.064,3.064,0,0,1-3.079-3.052M94.662,42.053a3.878,3.878,0,0,0,5.985,3.269L127.5,72.179V96.473l-8.993,8.993V77.4L92.555,51.442a3.911,3.911,0,1,0-1.171,1.173l.013.013L116.85,78.1v35.613a4.723,4.723,0,1,0,1.66,0v-5.9l10.653-10.657V71.491L101.82,44.149a3.847,3.847,0,0,0,.622-2.1,3.89,3.89,0,1,0-7.78,0" transform="translate(-85.39 -38.16)" fill="#c0e6f8"/>
    </clipPath>
    <clipPath id="clip-path-13">
      <path id="Trazado_159710" data-name="Trazado 159710" d="M403.661,17.242V189.207l-57.328,57.328v74.35a3.891,3.891,0,1,0,1.66,0V247.221l57.328-57.328V17.242Z" transform="translate(-343.272 -17.242)" fill="#c0e6f8"/>
    </clipPath>
    <clipPath id="clip-path-14">
      <path id="Trazado_159711" data-name="Trazado 159711" d="M413.218,159.64l.022-.022a2.854,2.854,0,0,1-1.326-1.461.082.082,0,0,1-.022-.066,2.471,2.471,0,0,1-.246-1.129,3.031,3.031,0,0,1,.533-1.7,2.879,2.879,0,0,1,.817-.819,3,3,0,0,1,3.408,0,2.591,2.591,0,0,1,.467.376,3.114,3.114,0,0,1,.885,2.147,3.083,3.083,0,0,1-3.054,3.077,2.873,2.873,0,0,1-1.485-.4m-3.229-2.678a4.654,4.654,0,0,0,.839,2.7L307.244,263.246H181.44L80.26,364.424v2.348L182.127,264.906H307.932L412.023,160.835a4.512,4.512,0,0,0,2.68.863,4.725,4.725,0,1,0-4.714-4.737" transform="translate(-80.26 -152.247)" fill="#c0e6f8"/>
    </clipPath>
    <clipPath id="clip-path-15">
      <path id="Trazado_159712" data-name="Trazado 159712" d="M365.75,81.906a3.849,3.849,0,0,0,.606,2.069L346.731,103.6V181.21l-21.009,21.009H263.729l-57.817,57.817a3.9,3.9,0,1,0,1.175,1.173l57.33-57.33H326.41L348.391,181.9V104.289l19.128-19.13a3.886,3.886,0,1,0-1.768-3.254" transform="translate(-199.925 -78.015)" fill="#c0e6f8"/>
    </clipPath>
    <clipPath id="clip-path-16">
      <path id="Trazado_159713" data-name="Trazado 159713" d="M284.013,229.779H164.291L80.765,313.3h-.5v1.66h1.191l83.527-83.525H283.772a3.87,3.87,0,1,0,.241-1.66" transform="translate(-80.26 -227.282)" fill="#c0e6f8"/>
    </clipPath>
    <clipPath id="clip-path-17">
      <path id="Trazado_159714" data-name="Trazado 159714" d="M184.924,278.931a2.942,2.942,0,0,1,.91-2.147,2.283,2.283,0,0,1,.443-.376,2.98,2.98,0,0,1,1.7-.531H188a2.748,2.748,0,0,1,.6.066,1.713,1.713,0,0,1,.573.177,2.039,2.039,0,0,1,.531.288,1.876,1.876,0,0,1,.421.332,2.7,2.7,0,0,1,.62.908,3.322,3.322,0,0,1,.177.465,2.483,2.483,0,0,1,.135.819,2.616,2.616,0,0,1-.135.841,2.714,2.714,0,0,1-.819,1.372,1.371,1.371,0,0,1-.332.288,3.176,3.176,0,0,1-1.2.509,2.381,2.381,0,0,1-.573.066h-.024a3.067,3.067,0,0,1-3.054-3.077m-50.639-61.287a3.084,3.084,0,0,1,3.074-3.076,3.045,3.045,0,0,1,2.924,2.235,2.74,2.74,0,0,1,.133.841,2.6,2.6,0,0,1-.133.819,3.026,3.026,0,0,1-2.924,2.235,3.065,3.065,0,0,1-3.074-3.054m-1.662,0a4.731,4.731,0,0,0,9.387.819H288.331l-59.647,59.649H192.651a4.725,4.725,0,1,0,0,1.66h36.717L292.337,216.8H142.01a4.731,4.731,0,0,0-9.387.841" transform="translate(-132.623 -212.907)" fill="#c0e6f8"/>
    </clipPath>
    <clipPath id="clip-path-18">
      <path id="Trazado_159715" data-name="Trazado 159715" d="M307.582,198.019a2.675,2.675,0,0,1-.135-.841,2.54,2.54,0,0,1,.135-.819,3.065,3.065,0,1,1,0,1.66m17.109-27.977a2.482,2.482,0,0,1-.135-.819,2.615,2.615,0,0,1,.135-.841,3.013,3.013,0,0,1,2.922-2.235,3.065,3.065,0,0,1,0,6.131,3.019,3.019,0,0,1-2.922-2.235m-1.729-1.66H288.835l-28.464,28.461v22.578L229.715,250.1H203.874a3.9,3.9,0,1,0-.007,1.66H230.4l53.715-53.74h21.735a4.726,4.726,0,1,0,0-1.66H283.435l-21.405,21.4v-20.23l27.49-27.49h33.443a4.725,4.725,0,1,0,0-1.66" transform="translate(-196.183 -164.487)" fill="#c0e6f8"/>
    </clipPath>
    <clipPath id="clip-path-19">
      <path id="Trazado_159716" data-name="Trazado 159716" d="M225.041,186.182a2.74,2.74,0,0,1-.131-.841,2.6,2.6,0,0,1,.131-.819,3.026,3.026,0,0,1,2.924-2.235,3.066,3.066,0,0,1,0,6.131,3.018,3.018,0,0,1-2.924-2.236m-1.724-1.66H134.253l-20.96,20.958a3.9,3.9,0,1,0,1.175,1.171l20.491-20.469h88.358a4.725,4.725,0,1,0,0-1.66" transform="translate(-107.312 -180.627)" fill="#c0e6f8"/>
    </clipPath>
    <clipPath id="clip-path-20">
      <path id="Trazado_159717" data-name="Trazado 159717" d="M217.094,311.071a3.888,3.888,0,0,0,.62,2.1l-54.891,54.891v76.006l-51.391,51.391h2.348l50.7-50.7V368.746l54.406-54.406a3.887,3.887,0,1,0-1.793-3.269" transform="translate(-111.432 -307.178)" fill="#c0e6f8"/>
    </clipPath>
    <clipPath id="clip-path-21">
      <path id="Trazado_159718" data-name="Trazado 159718" d="M105.522,477.439a3.066,3.066,0,0,1,3.057-3.076,2.681,2.681,0,0,1,1.481.42,2.6,2.6,0,0,1,1.175,1.173,2.885,2.885,0,0,1,.4,1.483,3.056,3.056,0,0,1-6.111,0m95.95-166.93a2.96,2.96,0,0,1-1.173-1.173,2.866,2.866,0,0,1-.4-1.483,3.056,3.056,0,1,1,3.054,3.054,2.857,2.857,0,0,1-1.481-.4m-3.232-2.656a4.743,4.743,0,0,0,.841,2.7l-50.862,50.862v75.209l-36.943,36.941a4.511,4.511,0,0,0-2.7-.863,4.726,4.726,0,1,0,4.712,4.737,4.64,4.64,0,0,0-.841-2.7l37.43-37.427V362.1l50.4-50.4a4.494,4.494,0,0,0,2.676.863,4.725,4.725,0,1,0-4.712-4.715" transform="translate(-103.864 -303.117)" fill="#c0e6f8"/>
    </clipPath>
    <clipPath id="clip-path-22">
      <path id="Trazado_159719" data-name="Trazado 159719" d="M187.253,341.876a3.017,3.017,0,0,1,2.238-2.922,2.665,2.665,0,0,1,.841-.133,2.55,2.55,0,0,1,.819.133,3.022,3.022,0,0,1,2.233,2.922,3.065,3.065,0,0,1-6.131,0M242.69,221.964a3.851,3.851,0,0,0,.624,2.1l-53.824,53.826v59.339a4.723,4.723,0,1,0,1.66,0V278.575l53.339-53.339a3.886,3.886,0,1,0-1.8-3.271" transform="translate(-185.593 -218.071)" fill="#c0e6f8"/>
    </clipPath>
    <clipPath id="clip-path-23">
      <rect id="Rectángulo_12615" data-name="Rectángulo 12615" width="1328" height="830" fill="#c0e6f8"/>
    </clipPath>
    <clipPath id="clip-path-24">
      <path id="Trazado_159721" data-name="Trazado 159721" d="M190.716,261.683H160.651l-58.169,58.169H80.26v1.66h22.908l58.169-58.169h29.38a3.891,3.891,0,1,0,0-1.66" transform="translate(-80.26 -258.622)" fill="#c0e6f8"/>
    </clipPath>
    <clipPath id="clip-path-25">
      <path id="Trazado_159722" data-name="Trazado 159722" d="M149.129,317.339a3.066,3.066,0,0,1,3.079-3.054,2.771,2.771,0,0,1,1.259.288,2.635,2.635,0,0,1,1.264,1.085,2.83,2.83,0,0,1,.529,1.682,3.065,3.065,0,1,1-6.131,0M120,257a3.067,3.067,0,0,1,3.057-3.077,3.013,3.013,0,0,1,2.919,2.236,2.615,2.615,0,0,1,.135.841,2.483,2.483,0,0,1-.135.819,3.016,3.016,0,0,1-2.919,2.236A3.062,3.062,0,0,1,120,257m-1.658,0a4.717,4.717,0,0,0,9.362.819h39.2l21.644,21.668-33.864,33.864a4.574,4.574,0,0,0-2.477-.73,4.726,4.726,0,1,0,4.714,4.714,4.672,4.672,0,0,0-1-2.877l34.968-34.971-23.306-23.328H127.706a4.717,4.717,0,0,0-9.362.841" transform="translate(-118.344 -252.267)" fill="#c0e6f8"/>
    </clipPath>
    <clipPath id="clip-path-26">
      <path id="Trazado_159723" data-name="Trazado 159723" d="M107.5,404.608a3.02,3.02,0,0,1,2.238-2.922,2.529,2.529,0,0,1,.819-.133,2.675,2.675,0,0,1,.841.133,3.024,3.024,0,0,1,2.213,2.922,3.056,3.056,0,0,1-6.111,0m67.332-135.952a3.861,3.861,0,0,0,.62,2.089h0l-28.2,28.22v38.512l-37.516,37.516V399.96a4.7,4.7,0,1,0,1.66,0V375.68l37.514-37.516V299.652l27.709-27.729a3.886,3.886,0,1,0-1.788-3.267" transform="translate(-105.844 -264.765)" fill="#c0e6f8"/>
    </clipPath>
    <clipPath id="clip-path-27">
      <path id="Trazado_159724" data-name="Trazado 159724" d="M101.933,424.271a3.021,3.021,0,0,1,2.238-2.922,2.531,2.531,0,0,1,.819-.133,2.687,2.687,0,0,1,.841.133,3.024,3.024,0,0,1,2.213,2.922,3.055,3.055,0,0,1-6.111,0M162.426,273.92a3.009,3.009,0,0,1-1.175-1.173,2.908,2.908,0,0,1-.4-1.505,3.067,3.067,0,1,1,3.079,3.077,2.881,2.881,0,0,1-1.505-.4m-3.231-2.678a4.517,4.517,0,0,0,.861,2.7l-16.091,16.091v39.486l-39.794,39.8v50.309a4.7,4.7,0,1,0,1.66,0V370l39.8-39.8V290.719l15.6-15.6a4.617,4.617,0,0,0,2.7.863,4.725,4.725,0,1,0-4.737-4.736" transform="translate(-100.273 -266.527)" fill="#c0e6f8"/>
    </clipPath>
    <clipPath id="clip-path-28">
      <path id="Trazado_159725" data-name="Trazado 159725" d="M128.485,25.522a2.739,2.739,0,0,1-.131-.841,2.6,2.6,0,0,1,.131-.819,3.023,3.023,0,0,1,2.922-2.235,3.054,3.054,0,1,1,0,6.109,3.023,3.023,0,0,1-2.922-2.213m-1.724-1.66H101.883L88.67,37.054v11.64a3.893,3.893,0,1,0,1.66,0V37.74l12.238-12.218h24.194a4.725,4.725,0,1,0,0-1.66" transform="translate(-85.613 -19.967)" fill="#c0e6f8"/>
    </clipPath>
    <clipPath id="clip-path-29">
      <path id="Trazado_159726" data-name="Trazado 159726" d="M268.507,300.377a2.533,2.533,0,0,1-1.173-1.173,2.706,2.706,0,0,1-.421-1.483,3.055,3.055,0,1,1,3.057,3.054,2.738,2.738,0,0,1-1.463-.4m-3.251-2.656a4.516,4.516,0,0,0,.861,2.7l-93.8,93.779V471.07l-41.577,41.58h2.346l40.894-40.894V394.885l93.314-93.29a4.71,4.71,0,1,0-2.036-3.873" transform="translate(-130.738 -293.007)" fill="#c0e6f8"/>
    </clipPath>
    <clipPath id="clip-path-30">
      <path id="Trazado_159727" data-name="Trazado 159727" d="M169.285,187.053a3.065,3.065,0,0,1,3.052-3.077,3.089,3.089,0,0,1,3.054,3.077,3.053,3.053,0,1,1-6.107,0M284.272,71.012a3.873,3.873,0,0,0,.708,2.227l0,0L175.018,183.179a4.509,4.509,0,0,0-2.68-.865,4.727,4.727,0,1,0,4.717,4.739,4.794,4.794,0,0,0-.841-2.722L286.207,74.356a3.879,3.879,0,1,0-1.934-3.344" transform="translate(-167.623 -67.121)" fill="#c0e6f8"/>
    </clipPath>
    <clipPath id="clip-path-31">
      <path id="Trazado_159728" data-name="Trazado 159728" d="M254.424,175.4a2.539,2.539,0,0,1-.131-.819,2.675,2.675,0,0,1,.131-.841,3.021,3.021,0,0,1,2.922-2.213,3.054,3.054,0,1,1,0,6.109,3.021,3.021,0,0,1-2.922-2.235m13.017-83.62a2.827,2.827,0,0,1-1.173-1.173,2.865,2.865,0,0,1-.4-1.483,3.065,3.065,0,1,1,3.074,3.054,2.885,2.885,0,0,1-1.5-.4m-3.231-2.656a4.485,4.485,0,0,0,.863,2.678l-83.6,83.6H252.7a4.7,4.7,0,1,0,0-1.66H185.479l80.767-80.765a4.611,4.611,0,0,0,2.7.863,4.725,4.725,0,1,0-4.734-4.714" transform="translate(-181.473 -84.387)" fill="#c0e6f8"/>
    </clipPath>
    <clipPath id="clip-path-32">
      <path id="Trazado_159729" data-name="Trazado 159729" d="M420.382,55.407a3.089,3.089,0,0,1-1.571-2.656,3.067,3.067,0,1,1,3.079,3.054,2.9,2.9,0,0,1-1.507-.4m-3.229-2.656a4.5,4.5,0,0,0,.861,2.678L385.92,87.523h-82.2l-65.466,65.468a3.89,3.89,0,1,0,1.177,1.166l64.977-64.975h82.2l32.558-32.558a4.95,4.95,0,0,0,2.722.841,4.714,4.714,0,1,0-4.737-4.714" transform="translate(-232.275 -48.037)" fill="#c0e6f8"/>
    </clipPath>
    <clipPath id="clip-path-33">
      <path id="Trazado_159730" data-name="Trazado 159730" d="M350.506,375.171a3.042,3.042,0,0,1,2.255-2.944,3.323,3.323,0,0,1,.8-.111,2.727,2.727,0,0,1,.865.133,3.051,3.051,0,1,1-3.918,2.922m-31.252-9.717a3.029,3.029,0,0,1,2.211-2.944,2.7,2.7,0,0,1,.841-.133,2.553,2.553,0,0,1,.821.133,3.028,3.028,0,0,1,2.236,2.944,3.054,3.054,0,0,1-6.109,0m41.013-178.262a2.841,2.841,0,0,1-1.173-1.173,2.888,2.888,0,0,1-.4-1.505,3.056,3.056,0,1,1,3.054,3.077,2.857,2.857,0,0,1-1.481-.4M392.6,173.249a3.019,3.019,0,0,1-1.173-1.173,2.865,2.865,0,0,1-.4-1.483,3.065,3.065,0,1,1,3.057,3.054,2.867,2.867,0,0,1-1.485-.4M390.1,17.242v116.7l-68.638,68.635V360.785a4.724,4.724,0,1,0,1.662,0V203.262l68.633-68.635V70.807l10.381,10.381v58.68l-23.964,23.962v21.5l0,.009-25.94,25.918v8.942l-12.527,12.55V207.733l19.367-19.345a4.494,4.494,0,0,0,2.676.863,4.726,4.726,0,1,0-4.712-4.737,4.64,4.64,0,0,0,.841,2.7l-19.834,19.832v80.632l14.719,14.741v68.1a4.683,4.683,0,1,0,1.662,0V301.733l-14.719-14.741v-51.9L353.893,220.9V211.96l37.514-37.516a4.512,4.512,0,0,0,2.68.863,4.725,4.725,0,1,0-4.717-4.714,4.515,4.515,0,0,0,.863,2.678l-10.394,10.4V164.515L403.8,140.553V80.5L391.761,68.461V17.242Z" transform="translate(-317.594 -17.242)" fill="#c0e6f8"/>
    </clipPath>
    <clipPath id="clip-path-34">
      <path id="Trazado_159731" data-name="Trazado 159731" d="M332.612,244.622a3.018,3.018,0,0,1,2.236-2.922,2.69,2.69,0,0,1,.843-.133,2.551,2.551,0,0,1,.819.133,3.021,3.021,0,0,1,2.235,2.922,3.067,3.067,0,1,1-6.133,0m-9.776-94.658a3.883,3.883,0,0,0,5.991,3.267v0l6.02,6.02v80.72a4.724,4.724,0,1,0,1.662,0V158.567L330,152.058a3.889,3.889,0,1,0-7.162-2.094" transform="translate(-322.836 -146.071)" fill="#c0e6f8"/>
    </clipPath>
    <clipPath id="clip-path-35">
      <path id="Trazado_159732" data-name="Trazado 159732" d="M135.382,195.294a3.023,3.023,0,0,1,2.235-2.922,2.56,2.56,0,0,1,.819-.133,2.689,2.689,0,0,1,.843.133,3.024,3.024,0,0,1,2.213,2.922,3.056,3.056,0,1,1-6.111,0m2.235-178.052v173.4a4.7,4.7,0,1,0,1.662,0V17.242Z" transform="translate(-133.724 -17.242)" fill="#c0e6f8"/>
    </clipPath>
    <clipPath id="clip-path-36">
      <path id="Trazado_159733" data-name="Trazado 159733" d="M129.166,254.707a3.043,3.043,0,0,1,2.238-2.944,2.666,2.666,0,0,1,.841-.133,2.55,2.55,0,0,1,.819.133,3.058,3.058,0,1,1-3.9,2.944M126.377,33.573a3.018,3.018,0,0,1-2.235-2.922,3.067,3.067,0,0,1,6.133,0,3.023,3.023,0,0,1-2.235,2.922,2.55,2.55,0,0,1-.819.133,2.689,2.689,0,0,1-.843-.133m-3.893-2.922a4.727,4.727,0,0,0,3.893,4.648V79.411L141.871,94.9v57.879L131.4,163.23v86.807a4.726,4.726,0,1,0,1.66,0V163.916l10.467-10.447V94.218L128.039,78.725V35.3a4.719,4.719,0,1,0-5.555-4.648" transform="translate(-122.484 -25.937)" fill="#c0e6f8"/>
    </clipPath>
    <clipPath id="clip-path-37">
      <path id="Trazado_159734" data-name="Trazado 159734" d="M83.1,50.988a2.454,2.454,0,0,1,1.638-2.324,2.2,2.2,0,0,1,.843-.155,2.08,2.08,0,0,1,.819.155,2.42,2.42,0,0,1,1.66,2.324,2.48,2.48,0,0,1-4.96,0m15.8-26.339a2.518,2.518,0,0,1-1.171-1.173,2.65,2.65,0,0,1-.224-1.04,2.49,2.49,0,1,1,2.5,2.479,2.35,2.35,0,0,1-1.109-.266m-2.72-2.213a3.639,3.639,0,0,0,.575,2.014L84.741,36.469V47.248a3.832,3.832,0,0,0,.843,7.57,3.829,3.829,0,0,0,.819-7.57V37.155L97.91,25.645a3.84,3.84,0,0,0,5.932-3.209,3.828,3.828,0,1,0-7.656,0" transform="translate(-81.753 -18.607)" fill="#c0e6f8"/>
    </clipPath>
    <clipPath id="clip-path-38">
      <path id="Trazado_159735" data-name="Trazado 159735" d="M182.5,89.382a3.064,3.064,0,0,1,3.077-3.054,2.723,2.723,0,0,1,1.459.4A2.493,2.493,0,0,1,188.2,87.9a2.67,2.67,0,0,1,.421,1.483,3.064,3.064,0,0,1-6.129,0M306.243,30.77a2.458,2.458,0,0,1-.133-.817,2.613,2.613,0,0,1,.133-.841,3.013,3.013,0,0,1,2.919-2.235,3.065,3.065,0,0,1,0,6.131,3.016,3.016,0,0,1-2.919-2.238m-1.726-1.658H244.646l-56.4,56.4a4.626,4.626,0,0,0-2.676-.841,4.714,4.714,0,1,0,4.714,4.714,4.505,4.505,0,0,0-.865-2.7L245.332,30.77h59.185a4.724,4.724,0,1,0,0-1.658" transform="translate(-180.833 -25.217)" fill="#c0e6f8"/>
    </clipPath>
    <clipPath id="clip-path-39">
      <path id="Trazado_159736" data-name="Trazado 159736" d="M172.133,149.19a3.066,3.066,0,0,1,3.057-3.077,2.68,2.68,0,0,1,1.481.421,2.594,2.594,0,0,1,1.173,1.173,2.864,2.864,0,0,1,.4,1.483,3.054,3.054,0,1,1-6.109,0m84.972-80.765a2.507,2.507,0,0,1-1.175-1.173,2.749,2.749,0,0,1-.4-1.461,3.054,3.054,0,1,1,3.052,3.054,2.681,2.681,0,0,1-1.481-.421m-3.231-2.634a4.622,4.622,0,0,0,.841,2.678l-76.827,76.847a4.507,4.507,0,0,0-2.7-.863,4.728,4.728,0,1,0,3.871,2.036l76.8-76.825h.022a4.649,4.649,0,0,0,2.7.841,4.714,4.714,0,1,0-4.712-4.714" transform="translate(-170.473 -61.077)" fill="#c0e6f8"/>
    </clipPath>
    <clipPath id="clip-path-40">
      <path id="Trazado_159737" data-name="Trazado 159737" d="M325.27,162.969a3.05,3.05,0,1,1,3.831-2.944,3,3,0,0,1-2.169,2.9,2.419,2.419,0,0,1-.888.155,3,3,0,0,1-.775-.111m-31.695-40.526a3.024,3.024,0,0,1-2.213-2.922,3.056,3.056,0,0,1,6.111,0,3.024,3.024,0,0,1-2.235,2.922,2.551,2.551,0,0,1-.819.133,2.69,2.69,0,0,1-.843-.133m-3.871-2.922a4.708,4.708,0,0,0,3.871,4.648V147.21l18.5,18.5v37.25l28.906,28.906V270a3.9,3.9,0,1,0,1.662.011v-59.9L326.932,194.4V164.651a4.729,4.729,0,1,0-1.662.022v30.411L340.985,210.8v18.725l-27.244-27.246v-37.25l-18.5-18.5V124.169a4.717,4.717,0,1,0-5.533-4.648" transform="translate(-289.704 -114.807)" fill="#c0e6f8"/>
    </clipPath>
    <clipPath id="clip-path-41">
      <path id="Trazado_159738" data-name="Trazado 159738" d="M269.428,150.925A3.021,3.021,0,0,1,267.215,148a3.055,3.055,0,1,1,6.109,0,3.021,3.021,0,0,1-2.238,2.922,2.521,2.521,0,0,1-.819.133,2.663,2.663,0,0,1-.839-.133M265.553,148a4.73,4.73,0,0,0,3.875,4.648V189.99l43.16,43.16v52.113a3.885,3.885,0,1,0,1.66-.007V232.464L271.086,189.3V152.652A4.727,4.727,0,1,0,265.553,148" transform="translate(-265.553 -143.267)" fill="#c0e6f8"/>
    </clipPath>
    <clipPath id="clip-path-42">
      <path id="Trazado_159739" data-name="Trazado 159739" d="M224.145,17.242l-9.407,9.4h49.486a3.892,3.892,0,1,0,0-1.658H218.746l7.747-7.747Z" transform="translate(-214.738 -17.242)" fill="#c0e6f8"/>
    </clipPath>
    <clipPath id="clip-path-43">
      <path id="Trazado_159740" data-name="Trazado 159740" d="M378.679,43.507a3.888,3.888,0,0,0,3.061,3.8V102.07l-67.254,67.254v61.847a3.876,3.876,0,1,0,1.658-.035V170.012L383.4,102.758V47.305a3.89,3.89,0,1,0-4.721-3.8" transform="translate(-311.489 -39.616)" fill="#c0e6f8"/>
    </clipPath>
    <clipPath id="clip-path-44">
      <path id="Trazado_159741" data-name="Trazado 159741" d="M116.685,17.242v236.63a3.9,3.9,0,1,0,1.662.111V17.242Z" transform="translate(-113.378 -17.242)" fill="#c0e6f8"/>
    </clipPath>
    <clipPath id="clip-path-45">
      <path id="Trazado_159742" data-name="Trazado 159742" d="M144.715,172.054a3.065,3.065,0,0,1,3.054-3.077,3.024,3.024,0,0,1,2.944,2.235,2.742,2.742,0,0,1,.133.841,2.6,2.6,0,0,1-.133.819,3.055,3.055,0,0,1-6-.819m-1.662,0a4.731,4.731,0,0,0,9.387.819H258.169l-43.357,43.359H187.406a3.886,3.886,0,1,0,0,1.66H215.5l46.679-46.679H152.44a4.731,4.731,0,0,0-9.387.841" transform="translate(-143.053 -167.317)" fill="#c0e6f8"/>
    </clipPath>
    <clipPath id="clip-path-46">
      <path id="Trazado_159743" data-name="Trazado 159743" d="M266.359,271.075a3.843,3.843,0,0,0,.405,1.7L153.273,386.259v40.057L110.6,468.989H80.26v1.66h31.029L154.936,427V386.945L267.8,274.077a3.845,3.845,0,0,0,2.448.89,3.892,3.892,0,1,0-3.891-3.891" transform="translate(-80.26 -267.182)" fill="#c0e6f8"/>
    </clipPath>
    <clipPath id="clip-path-47">
      <path id="Trazado_159744" data-name="Trazado 159744" d="M227.112,234.19a3.061,3.061,0,0,1,3.057-3.054,2.857,2.857,0,0,1,1.481.4,2.98,2.98,0,0,1,1.175,1.173,2.885,2.885,0,0,1,.4,1.483,3.055,3.055,0,0,1-6.111,0m64.609-22.6h-40.13l-18.725,18.725a4.649,4.649,0,0,0-2.7-.841,4.714,4.714,0,1,0,4.712,4.714,4.64,4.64,0,0,0-.841-2.7l18.24-18.238h39.437a3.895,3.895,0,1,0,0-1.66" transform="translate(-225.454 -208.537)" fill="#c0e6f8"/>
    </clipPath>
    <clipPath id="clip-path-48">
      <path id="Trazado_159745" data-name="Trazado 159745" d="M290.157,273.021a2.487,2.487,0,0,1-.086-.708,2.309,2.309,0,0,1,.177-.952,3.009,3.009,0,0,1,2.875-2.1,3.065,3.065,0,1,1,0,6.131,3.038,3.038,0,0,1-2.966-2.368M175.772,243.1,94.788,324.105H80.26v1.66H95.472l80.988-81.008h34.285l28.264,28.264h49.446a4.712,4.712,0,1,0,.042-1.66H239.7L211.429,243.1Z" transform="translate(-80.26 -243.097)" fill="#c0e6f8"/>
    </clipPath>
    <clipPath id="clip-path-49">
      <path id="Trazado_159746" data-name="Trazado 159746" d="M222.412,224.7a3.067,3.067,0,0,1,3.079-3.054,2.87,2.87,0,0,1,1.483.4,3,3,0,0,1,1.173,1.173,2.886,2.886,0,0,1,.4,1.483,3.067,3.067,0,0,1-6.133,0m99.29-33.045a2.539,2.539,0,0,1-.131-.819,2.665,2.665,0,0,1,.131-.841,3.041,3.041,0,0,1,2.922-2.235,3.065,3.065,0,0,1,0,6.131,3.021,3.021,0,0,1-2.922-2.235m-1.724-1.66H259.023l-30.834,30.832a4.649,4.649,0,0,0-2.7-.841A4.714,4.714,0,1,0,230.2,224.7a4.5,4.5,0,0,0-.861-2.678l30.365-30.367h60.271a4.725,4.725,0,1,0,0-1.66" transform="translate(-220.754 -186.097)" fill="#c0e6f8"/>
    </clipPath>
    <clipPath id="clip-path-50">
      <path id="Trazado_159747" data-name="Trazado 159747" d="M178.2,332.522a3.021,3.021,0,0,1-2.233-2.922,3.066,3.066,0,1,1,3.9,2.922,2.69,2.69,0,0,1-.843.133,2.55,2.55,0,0,1-.819-.133M341.763,220.792a2.739,2.739,0,0,1-.131-.841,2.6,2.6,0,0,1,.131-.819,3.026,3.026,0,0,1,2.924-2.235,3.054,3.054,0,1,1,0,6.109,3.026,3.026,0,0,1-2.924-2.213m-1.724-1.66H321.557L283.2,257.467H259.67l14.407-14.407a3.9,3.9,0,1,0-1.175-1.169l-44.769,44.747V341.8L179.859,390.09V334.248a4.724,4.724,0,1,0-1.662,0V394.1l51.593-51.615V287.325l28.222-28.2h25.9l38.333-38.335h17.8a4.725,4.725,0,1,0,0-1.66" transform="translate(-174.304 -215.237)" fill="#c0e6f8"/>
    </clipPath>
    <clipPath id="clip-path-51">
      <path id="Trazado_159748" data-name="Trazado 159748" d="M319.942,323.53a3.022,3.022,0,0,1,2.233-2.922,2.55,2.55,0,0,1,.819-.133,2.665,2.665,0,0,1,.841.133,3.021,3.021,0,0,1,2.216,2.922,3.054,3.054,0,0,1-6.109,0M280.479,98.345a3.025,3.025,0,0,1-2.213-2.944,3.053,3.053,0,1,1,6.107,0,3.028,3.028,0,0,1-2.235,2.944,2.527,2.527,0,0,1-.817.133,2.665,2.665,0,0,1-.841-.133M276.6,95.4a4.736,4.736,0,0,0,3.876,4.67V247.48l41.7,41.677v29.725a4.706,4.706,0,1,0,1.66,0V288.471l-41.7-41.677V100.072A4.727,4.727,0,1,0,276.6,95.4" transform="translate(-276.603 -90.687)" fill="#c0e6f8"/>
    </clipPath>
  </defs>
  <g id="Grupo_142778" data-name="Grupo 142778" transform="translate(-80.26 -17.242)">
    <g id="Grupo_142677" data-name="Grupo 142677" transform="translate(575.502 17.242)">
      <g id="Grupo_142676" data-name="Grupo 142676" transform="translate(0)" clip-path="url(#clip-path)">
        <rect id="Rectángulo_12593" data-name="Rectángulo 12593" width="69.919" height="208.507" transform="translate(0 0)" fill="#c0e6f8"/>
      </g>
    </g>
    <g id="Grupo_142679" data-name="Grupo 142679" transform="translate(562.419 150.914)">
      <g id="Grupo_142678" data-name="Grupo 142678" clip-path="url(#clip-path-2)">
        <rect id="Rectángulo_12594" data-name="Rectángulo 12594" width="34.65" height="102.236" transform="translate(0 0)" fill="#c0e6f8"/>
      </g>
    </g>
    <g id="Grupo_142681" data-name="Grupo 142681" transform="translate(543.83 41.223)">
      <g id="Grupo_142680" data-name="Grupo 142680" clip-path="url(#clip-path-3)">
        <rect id="Rectángulo_12595" data-name="Rectángulo 12595" width="90.393" height="180.63" transform="translate(0 0)" fill="#c0e6f8"/>
      </g>
    </g>
    <g id="Grupo_142683" data-name="Grupo 142683" transform="translate(80.26 17.242)">
      <g id="Grupo_142682" data-name="Grupo 142682" clip-path="url(#clip-path-4)">
        <rect id="Rectángulo_12596" data-name="Rectángulo 12596" width="246.681" height="376.521" transform="translate(0)" fill="#c0e6f8"/>
      </g>
    </g>
    <g id="Grupo_142685" data-name="Grupo 142685" transform="translate(265.87 17.242)">
      <g id="Grupo_142684" data-name="Grupo 142684" clip-path="url(#clip-path-5)">
        <rect id="Rectángulo_12597" data-name="Rectángulo 12597" width="94.992" height="162.446" transform="translate(0 0)" fill="#c0e6f8"/>
      </g>
    </g>
    <g id="Grupo_142687" data-name="Grupo 142687" transform="translate(386.256 17.242)">
      <g id="Grupo_142686" data-name="Grupo 142686" transform="translate(0)" clip-path="url(#clip-path-6)">
        <rect id="Rectángulo_12598" data-name="Rectángulo 12598" width="171.894" height="83.892" transform="translate(0 0)" fill="#c0e6f8"/>
      </g>
    </g>
    <g id="Grupo_142689" data-name="Grupo 142689" transform="translate(412.827 17.242)">
      <g id="Grupo_142688" data-name="Grupo 142688" clip-path="url(#clip-path-7)">
        <rect id="Rectángulo_12599" data-name="Rectángulo 12599" width="191.175" height="140.994" transform="translate(0 0)" fill="#c0e6f8"/>
      </g>
    </g>
    <g id="Grupo_142691" data-name="Grupo 142691" transform="translate(80.26 77.772)">
      <g id="Grupo_142690" data-name="Grupo 142690" clip-path="url(#clip-path-8)">
        <rect id="Rectángulo_12600" data-name="Rectángulo 12600" width="232.801" height="56.864" transform="translate(-1.747 232.38) rotate(-89.569)" fill="#c0e6f8"/>
      </g>
    </g>
    <g id="Grupo_142693" data-name="Grupo 142693" transform="translate(80.26 368.062)">
      <g id="Grupo_142692" data-name="Grupo 142692" clip-path="url(#clip-path-9)">
        <rect id="Rectángulo_12601" data-name="Rectángulo 12601" width="208.279" height="86.776" transform="translate(0 0)" fill="#c0e6f8"/>
      </g>
    </g>
    <g id="Grupo_142695" data-name="Grupo 142695" transform="translate(198.879 269.088)">
      <g id="Grupo_142694" data-name="Grupo 142694" clip-path="url(#clip-path-10)">
        <rect id="Rectángulo_12602" data-name="Rectángulo 12602" width="179.397" height="60.577" transform="translate(0 0)" fill="#c0e6f8"/>
      </g>
    </g>
    <g id="Grupo_142697" data-name="Grupo 142697" transform="translate(235.997 275.771)">
      <g id="Grupo_142696" data-name="Grupo 142696" clip-path="url(#clip-path-11)">
        <rect id="Rectángulo_12603" data-name="Rectángulo 12603" width="90.556" height="46.623" transform="matrix(0.996, -0.091, 0.091, 0.996, -3.523, 0.322)" fill="#c0e6f8"/>
      </g>
    </g>
    <g id="Grupo_142699" data-name="Grupo 142699" transform="translate(91.614 63.541)">
      <g id="Grupo_142698" data-name="Grupo 142698" clip-path="url(#clip-path-12)">
        <rect id="Rectángulo_12604" data-name="Rectángulo 12604" width="76.334" height="95.524" transform="translate(-33.243 16.038) rotate(-25.755)" fill="#c0e6f8"/>
      </g>
    </g>
    <g id="Grupo_142701" data-name="Grupo 142701" transform="translate(662.393 17.242)">
      <g id="Grupo_142700" data-name="Grupo 142700" transform="translate(0)" clip-path="url(#clip-path-13)">
        <rect id="Rectángulo_12605" data-name="Rectángulo 12605" width="62.049" height="311.332" transform="translate(0 0)" fill="#c0e6f8"/>
      </g>
    </g>
    <g id="Grupo_142703" data-name="Grupo 142703" transform="translate(80.26 316.053)">
      <g id="Grupo_142702" data-name="Grupo 142702" clip-path="url(#clip-path-14)">
        <rect id="Rectángulo_12606" data-name="Rectángulo 12606" width="339.156" height="214.525" transform="translate(0 0)" fill="#c0e6f8"/>
      </g>
    </g>
    <g id="Grupo_142705" data-name="Grupo 142705" transform="translate(345.119 151.753)">
      <g id="Grupo_142704" data-name="Grupo 142704" clip-path="url(#clip-path-15)">
        <rect id="Rectángulo_12607" data-name="Rectángulo 12607" width="173.607" height="189.183" transform="translate(0 0)" fill="#c0e6f8"/>
      </g>
    </g>
    <g id="Grupo_142707" data-name="Grupo 142707" transform="translate(80.26 482.131)">
      <g id="Grupo_142706" data-name="Grupo 142706" clip-path="url(#clip-path-16)">
        <rect id="Rectángulo_12608" data-name="Rectángulo 12608" width="211.267" height="87.681" transform="translate(0 0)" fill="#c0e6f8"/>
      </g>
    </g>
    <g id="Grupo_142709" data-name="Grupo 142709" transform="translate(196.157 450.314)">
      <g id="Grupo_142708" data-name="Grupo 142708" clip-path="url(#clip-path-17)">
        <rect id="Rectángulo_12609" data-name="Rectángulo 12609" width="159.714" height="70.76" transform="translate(0 0)" fill="#c0e6f8"/>
      </g>
    </g>
    <g id="Grupo_142711" data-name="Grupo 142711" transform="translate(336.836 343.144)">
      <g id="Grupo_142710" data-name="Grupo 142710" clip-path="url(#clip-path-18)">
        <rect id="Rectángulo_12610" data-name="Rectángulo 12610" width="136.142" height="90.324" transform="translate(0 0)" fill="#c0e6f8"/>
      </g>
    </g>
    <g id="Grupo_142713" data-name="Grupo 142713" transform="translate(140.135 378.868)">
      <g id="Grupo_142712" data-name="Grupo 142712" clip-path="url(#clip-path-19)">
        <rect id="Rectángulo_12611" data-name="Rectángulo 12611" width="125.368" height="32.016" transform="translate(0 0)" fill="#c0e6f8"/>
      </g>
    </g>
    <g id="Grupo_142715" data-name="Grupo 142715" transform="translate(149.254 658.967)">
      <g id="Grupo_142714" data-name="Grupo 142714" transform="translate(0 0)" clip-path="url(#clip-path-20)">
        <rect id="Rectángulo_12612" data-name="Rectángulo 12612" width="113.444" height="188.277" fill="#c0e6f8"/>
      </g>
    </g>
    <g id="Grupo_142717" data-name="Grupo 142717" transform="translate(132.504 649.979)">
      <g id="Grupo_142716" data-name="Grupo 142716" transform="translate(0 0)" clip-path="url(#clip-path-21)">
        <rect id="Rectángulo_12613" data-name="Rectángulo 12613" width="103.803" height="179.037" fill="#c0e6f8"/>
      </g>
    </g>
    <g id="Grupo_142719" data-name="Grupo 142719" transform="translate(313.397 461.744)">
      <g id="Grupo_142718" data-name="Grupo 142718" clip-path="url(#clip-path-22)">
        <rect id="Rectángulo_12614" data-name="Rectángulo 12614" width="64.879" height="128.519" transform="translate(0 0)" fill="#c0e6f8"/>
      </g>
    </g>
    <g id="Grupo_142721" data-name="Grupo 142721" transform="translate(80.26 17.244)">
      <g id="Grupo_142720" data-name="Grupo 142720" transform="translate(0 0)" clip-path="url(#clip-path-23)">
        <path id="Trazado_159720" data-name="Trazado 159720" d="M65.224,403.186v1.66h67.883l41.08-41.1a4.637,4.637,0,0,0,2.678.841,4.714,4.714,0,1,0-4.714-4.714,4.518,4.518,0,0,0,.863,2.7l-40.593,40.615ZM173.81,359.871a3.054,3.054,0,1,1,3.054,3.054,2.731,2.731,0,0,1-1.461-.4,2.512,2.512,0,0,1-1.173-1.173,2.688,2.688,0,0,1-.421-1.483" transform="translate(-98.504 392.76)" fill="#c0e6f8"/>
      </g>
    </g>
    <g id="Grupo_142723" data-name="Grupo 142723" transform="translate(80.26 551.497)">
      <g id="Grupo_142722" data-name="Grupo 142722" transform="translate(0 0)" clip-path="url(#clip-path-24)">
        <rect id="Rectángulo_12616" data-name="Rectángulo 12616" width="118.146" height="62.89" transform="translate(0)" fill="#c0e6f8"/>
      </g>
    </g>
    <g id="Grupo_142725" data-name="Grupo 142725" transform="translate(164.553 537.431)">
      <g id="Grupo_142724" data-name="Grupo 142724" transform="translate(0 0)" clip-path="url(#clip-path-25)">
        <rect id="Rectángulo_12617" data-name="Rectángulo 12617" width="72.551" height="69.809" transform="translate(0 0)" fill="#c0e6f8"/>
      </g>
    </g>
    <g id="Grupo_142727" data-name="Grupo 142727" transform="translate(136.886 565.093)">
      <g id="Grupo_142726" data-name="Grupo 142726" clip-path="url(#clip-path-26)">
        <rect id="Rectángulo_12618" data-name="Rectángulo 12618" width="76.774" height="144.557" transform="translate(0)" fill="#c0e6f8"/>
      </g>
    </g>
    <g id="Grupo_142729" data-name="Grupo 142729" transform="translate(124.555 568.993)">
      <g id="Grupo_142728" data-name="Grupo 142728" clip-path="url(#clip-path-27)">
        <rect id="Rectángulo_12619" data-name="Rectángulo 12619" width="68.37" height="162.459" transform="translate(0 0)" fill="#c0e6f8"/>
      </g>
    </g>
    <g id="Grupo_142731" data-name="Grupo 142731" transform="translate(92.108 23.273)">
      <g id="Grupo_142730" data-name="Grupo 142730" clip-path="url(#clip-path-28)">
        <rect id="Rectángulo_12620" data-name="Rectángulo 12620" width="50.533" height="36.414" transform="translate(0 0)" fill="#c0e6f8"/>
      </g>
    </g>
    <g id="Grupo_142733" data-name="Grupo 142733" transform="translate(191.985 627.602)">
      <g id="Grupo_142732" data-name="Grupo 142732" transform="translate(0 0)" clip-path="url(#clip-path-29)">
        <rect id="Rectángulo_12621" data-name="Rectángulo 12621" width="143.944" height="219.642" transform="translate(0 0)" fill="#c0e6f8"/>
      </g>
    </g>
    <g id="Grupo_142735" data-name="Grupo 142735" transform="translate(273.624 127.641)">
      <g id="Grupo_142734" data-name="Grupo 142734" clip-path="url(#clip-path-30)">
        <rect id="Rectángulo_12622" data-name="Rectángulo 12622" width="124.434" height="124.646" transform="translate(0)" fill="#c0e6f8"/>
      </g>
    </g>
    <g id="Grupo_142737" data-name="Grupo 142737" transform="translate(304.278 165.856)">
      <g id="Grupo_142736" data-name="Grupo 142736" clip-path="url(#clip-path-31)">
        <rect id="Rectángulo_12623" data-name="Rectángulo 12623" width="132.203" height="132.302" transform="translate(-47.391 45.004) rotate(-43.52)" fill="#c0e6f8"/>
      </g>
    </g>
    <g id="Grupo_142739" data-name="Grupo 142739" transform="translate(416.72 85.402)">
      <g id="Grupo_142738" data-name="Grupo 142738" clip-path="url(#clip-path-32)">
        <rect id="Rectángulo_12624" data-name="Rectángulo 12624" width="224.331" height="192.664" transform="translate(-47.742 26.675) rotate(-29.194)" fill="#c0e6f8"/>
      </g>
    </g>
    <g id="Grupo_142741" data-name="Grupo 142741" transform="translate(605.56 17.242)">
      <g id="Grupo_142740" data-name="Grupo 142740" transform="translate(0)" clip-path="url(#clip-path-33)">
        <rect id="Rectángulo_12625" data-name="Rectángulo 12625" width="363.087" height="88.09" transform="translate(-1.884 362.634) rotate(-89.702)" fill="#c0e6f8"/>
      </g>
    </g>
    <g id="Grupo_142743" data-name="Grupo 142743" transform="translate(617.162 302.384)">
      <g id="Grupo_142742" data-name="Grupo 142742" transform="translate(0)" clip-path="url(#clip-path-34)">
        <rect id="Rectángulo_12626" data-name="Rectángulo 12626" width="17.567" height="103.287" transform="translate(0 0)" fill="#c0e6f8"/>
      </g>
    </g>
    <g id="Grupo_142745" data-name="Grupo 142745" transform="translate(198.594 17.242)">
      <g id="Grupo_142744" data-name="Grupo 142744" clip-path="url(#clip-path-35)">
        <rect id="Rectángulo_12627" data-name="Rectángulo 12627" width="9.427" height="182.788" transform="translate(0 0)" fill="#c0e6f8"/>
      </g>
    </g>
    <g id="Grupo_142747" data-name="Grupo 142747" transform="translate(173.716 36.487)">
      <g id="Grupo_142746" data-name="Grupo 142746" clip-path="url(#clip-path-36)">
        <rect id="Rectángulo_12628" data-name="Rectángulo 12628" width="21.047" height="233.485" transform="translate(0 0)" fill="#c0e6f8"/>
      </g>
    </g>
    <g id="Grupo_142749" data-name="Grupo 142749" transform="translate(83.565 20.263)">
      <g id="Grupo_142748" data-name="Grupo 142748" clip-path="url(#clip-path-37)">
        <rect id="Rectángulo_12629" data-name="Rectángulo 12629" width="22.089" height="36.21" transform="translate(0 0)" fill="#c0e6f8"/>
      </g>
    </g>
    <g id="Grupo_142751" data-name="Grupo 142751" transform="translate(302.862 34.893)">
      <g id="Grupo_142750" data-name="Grupo 142750" clip-path="url(#clip-path-38)">
        <rect id="Rectángulo_12630" data-name="Rectángulo 12630" width="133.044" height="68.879" transform="translate(0 0)" fill="#c0e6f8"/>
      </g>
    </g>
    <g id="Grupo_142753" data-name="Grupo 142753" transform="translate(279.932 114.264)">
      <g id="Grupo_142752" data-name="Grupo 142752" clip-path="url(#clip-path-39)">
        <rect id="Rectángulo_12631" data-name="Rectángulo 12631" width="92.827" height="92.827" transform="translate(0 0)" fill="#c0e6f8"/>
      </g>
    </g>
    <g id="Grupo_142755" data-name="Grupo 142755" transform="translate(543.83 233.186)">
      <g id="Grupo_142754" data-name="Grupo 142754" clip-path="url(#clip-path-40)">
        <rect id="Rectángulo_12632" data-name="Rectángulo 12632" width="55.984" height="162.89" transform="translate(0 0)" fill="#c0e6f8"/>
      </g>
    </g>
    <g id="Grupo_142757" data-name="Grupo 142757" transform="translate(490.375 296.177)">
      <g id="Grupo_142756" data-name="Grupo 142756" transform="translate(0)" clip-path="url(#clip-path-41)">
        <rect id="Rectángulo_12633" data-name="Rectángulo 12633" width="52.28" height="149.86" transform="translate(-0.514 0.002) rotate(-0.197)" fill="#c0e6f8"/>
      </g>
    </g>
    <g id="Grupo_142759" data-name="Grupo 142759" transform="translate(377.905 17.242)">
      <g id="Grupo_142758" data-name="Grupo 142758" transform="translate(0)" clip-path="url(#clip-path-42)">
        <rect id="Rectángulo_12634" data-name="Rectángulo 12634" width="57.175" height="12.468" transform="translate(0 0)" fill="#c0e6f8"/>
      </g>
    </g>
    <g id="Grupo_142761" data-name="Grupo 142761" transform="translate(592.047 66.763)">
      <g id="Grupo_142760" data-name="Grupo 142760" transform="translate(0)" clip-path="url(#clip-path-43)">
        <rect id="Rectángulo_12635" data-name="Rectángulo 12635" width="74.972" height="199.224" transform="translate(0 0)" fill="#c0e6f8"/>
      </g>
    </g>
    <g id="Grupo_142763" data-name="Grupo 142763" transform="translate(153.561 17.242)">
      <g id="Grupo_142762" data-name="Grupo 142762" clip-path="url(#clip-path-44)">
        <rect id="Rectángulo_12636" data-name="Rectángulo 12636" width="7.784" height="244.354" transform="translate(0 0)" fill="#c0e6f8"/>
      </g>
    </g>
    <g id="Grupo_142765" data-name="Grupo 142765" transform="translate(219.242 349.408)">
      <g id="Grupo_142764" data-name="Grupo 142764" clip-path="url(#clip-path-45)">
        <rect id="Rectángulo_12637" data-name="Rectángulo 12637" width="119.122" height="53.636" transform="translate(0 0)" fill="#c0e6f8"/>
      </g>
    </g>
    <g id="Grupo_142767" data-name="Grupo 142767" transform="translate(80.26 570.443)">
      <g id="Grupo_142766" data-name="Grupo 142766" transform="translate(0 0)" clip-path="url(#clip-path-46)">
        <rect id="Rectángulo_12638" data-name="Rectángulo 12638" width="193.881" height="203.467" fill="#c0e6f8"/>
      </g>
    </g>
    <g id="Grupo_142769" data-name="Grupo 142769" transform="translate(401.623 440.642)">
      <g id="Grupo_142768" data-name="Grupo 142768" transform="translate(0 0)" clip-path="url(#clip-path-47)">
        <rect id="Rectángulo_12639" data-name="Rectángulo 12639" width="73.954" height="30.367" transform="translate(0 0)" fill="#c0e6f8"/>
      </g>
    </g>
    <g id="Grupo_142771" data-name="Grupo 142771" transform="translate(80.26 517.135)">
      <g id="Grupo_142770" data-name="Grupo 142770" transform="translate(0 0)" clip-path="url(#clip-path-48)">
        <rect id="Rectángulo_12640" data-name="Rectángulo 12640" width="217.602" height="82.668" transform="translate(0)" fill="#c0e6f8"/>
      </g>
    </g>
    <g id="Grupo_142773" data-name="Grupo 142773" transform="translate(391.22 390.975)">
      <g id="Grupo_142772" data-name="Grupo 142772" transform="translate(0)" clip-path="url(#clip-path-49)">
        <rect id="Rectángulo_12641" data-name="Rectángulo 12641" width="108.586" height="43.315" fill="#c0e6f8"/>
      </g>
    </g>
    <g id="Grupo_142775" data-name="Grupo 142775" transform="translate(288.411 455.471)">
      <g id="Grupo_142774" data-name="Grupo 142774" clip-path="url(#clip-path-50)">
        <rect id="Rectángulo_12642" data-name="Rectángulo 12642" width="175.119" height="178.86" fill="#c0e6f8"/>
      </g>
    </g>
    <g id="Grupo_142777" data-name="Grupo 142777" transform="translate(514.833 179.8)">
      <g id="Grupo_142776" data-name="Grupo 142776" clip-path="url(#clip-path-51)">
        <rect id="Rectángulo_12643" data-name="Rectángulo 12643" width="239.274" height="59.801" transform="matrix(0.037, -0.999, 0.999, 0.037, -8.722, 237.237)" fill="#c0e6f8"/>
      </g>
    </g>
  </g>
</svg>
