<svg xmlns="http://www.w3.org/2000/svg" xmlns:xlink="http://www.w3.org/1999/xlink" width="295" height="238" viewBox="0 0 295 238">
  <defs>
    <linearGradient id="linear-gradient" x1="0.5" x2="0.5" y2="1" gradientUnits="objectBoundingBox">
      <stop offset="0" stop-color="#fff"/>
      <stop offset="1" stop-color="#fff5d6"/>
    </linearGradient>
    <clipPath id="clip-path">
      <rect id="Rectángulo_12330" data-name="Rectángulo 12330" width="204.31" height="233.186" fill="none"/>
    </clipPath>
    <clipPath id="clip-path-3">
      <rect id="Rectángulo_12318" data-name="Rectángulo 12318" width="36.276" height="27.559" fill="none"/>
    </clipPath>
    <clipPath id="clip-path-7">
      <rect id="Rectángulo_12322" data-name="Rectángulo 12322" width="36.276" height="27.558" fill="none"/>
    </clipPath>
  </defs>
  <g id="Grupo_142276" data-name="Grupo 142276" transform="translate(-390 -2506)">
    <g id="Grupo_142249" data-name="Grupo 142249" transform="translate(0 26)">
      <ellipse id="Elipse_4052" data-name="Elipse 4052" cx="117" cy="103.5" rx="117" ry="103.5" transform="translate(419 2499.149)" fill="url(#linear-gradient)"/>
      <rect id="Rectángulo_12316" data-name="Rectángulo 12316" width="295" height="238" transform="translate(390 2480)" fill="none"/>
    </g>
    <g id="Grupo_142274" data-name="Grupo 142274" transform="translate(435 2508)">
      <g id="Grupo_142273" data-name="Grupo 142273" clip-path="url(#clip-path)">
        <g id="Grupo_142272" data-name="Grupo 142272">
          <g id="Grupo_142271" data-name="Grupo 142271" clip-path="url(#clip-path)">
            <path id="Trazado_157406" data-name="Trazado 157406" d="M50.984,177.862,11.623,155.418c-1.44-.831-1.259-2.283.4-3.242L34.674,139.1a6.242,6.242,0,0,1,5.616-.233l39.362,22.445c1.44.83,1.258,2.283-.4,3.242L56.6,177.63a6.242,6.242,0,0,1-5.616.232" transform="translate(-2.739 -35.57)" fill="#b2d3ea"/>
            <path id="Trazado_157407" data-name="Trazado 157407" d="M82.282,122.426h0V30.534L45.75,20.973l-6.729-3.885a6.7,6.7,0,0,0-6.025.25l-6.278,3.625L7.234,20.951,13,109.66a1.747,1.747,0,0,0,1.035,1.614l36.456,27.508a6.7,6.7,0,0,0,6.025-.25l24.3-14.027a2.385,2.385,0,0,0,1.467-2.079" transform="translate(-1.86 -4.24)" fill="#396caa"/>
            <path id="Trazado_157408" data-name="Trazado 157408" d="M36.225,16.492a6.954,6.954,0,0,0-3.23.847l-6.278,3.625L7.234,20.953v92.139a1.743,1.743,0,0,0,1.033,1.614l42.226,24.078a5.453,5.453,0,0,0,2.8.6l.436-92.715Z" transform="translate(-1.859 -4.242)" fill="#d4ecff"/>
            <path id="Trazado_157409" data-name="Trazado 157409" d="M66,149.041a6.866,6.866,0,0,0,4.816-.055V55.637H66Z" transform="translate(-16.973 -14.309)" fill="#5793ce"/>
            <path id="Trazado_157410" data-name="Trazado 157410" d="M50.492,42.435,8.266,18.357c-1.544-.891-1.35-2.449.433-3.479L32.994.852A6.7,6.7,0,0,1,39.019.6L81.245,24.679c1.544.892,1.35,2.449-.432,3.479l-24.3,14.027a6.7,6.7,0,0,1-6.025.25" transform="translate(-1.858 0)" fill="#d4ecff"/>
            <path id="Trazado_157411" data-name="Trazado 157411" d="M80.812,31.977,56.516,46a6.7,6.7,0,0,1-6.025.25L8.266,22.176a2.334,2.334,0,0,1-.771-.683,1.618,1.618,0,0,0,.771,2.392L50.491,47.962a6.7,6.7,0,0,0,6.025-.25l24.3-14.027c1.385-.8,1.807-1.917,1.2-2.794a3.371,3.371,0,0,1-1.2,1.086" transform="translate(-1.858 -5.528)" fill="#fafdff"/>
            <path id="Trazado_157412" data-name="Trazado 157412" d="M57.179,35.373l-28.113-16.3c-.722-.417-.631-1.145.2-1.628l11.37-6.564a3.133,3.133,0,0,1,2.819-.117l28.113,16.3c.722.417.631,1.145-.2,1.628L60,35.257a3.135,3.135,0,0,1-2.82.117" transform="translate(-7.35 -2.697)" fill="#173d7a"/>
            <path id="Trazado_157413" data-name="Trazado 157413" d="M46.061,22.3l-1.629-.94c-.1-.058-.088-.159.028-.225l1.573-.908a.434.434,0,0,1,.39-.016l1.63.941c.1.057.087.158-.028.225l-1.573.908a.432.432,0,0,1-.39.016" transform="translate(-11.41 -5.188)" fill="#d4ecff"/>
            <path id="Trazado_157414" data-name="Trazado 157414" d="M53.388,26.513l-1.629-.94c-.1-.058-.088-.159.028-.225l1.573-.908a.434.434,0,0,1,.39-.016l1.629.94c.1.058.088.159-.027.226l-1.573.908a.432.432,0,0,1-.39.016" transform="translate(-13.294 -6.271)" fill="#d4ecff"/>
            <path id="Trazado_157415" data-name="Trazado 157415" d="M60.715,30.726l-1.629-.94c-.1-.058-.088-.159.028-.225l1.573-.908a.432.432,0,0,1,.39-.016l1.629.94c.1.058.088.159-.027.226l-1.573.908a.432.432,0,0,1-.39.016" transform="translate(-15.179 -7.355)" fill="#d4ecff"/>
            <path id="Trazado_157416" data-name="Trazado 157416" d="M68.042,34.939,66.413,34c-.1-.058-.088-.159.028-.225l1.573-.908a.434.434,0,0,1,.39-.016l1.629.94c.1.058.088.159-.027.226l-1.573.908a.432.432,0,0,1-.39.016" transform="translate(-17.063 -8.438)" fill="#d4ecff"/>
            <path id="Trazado_157417" data-name="Trazado 157417" d="M29.065,19.078l.033.019a2.045,2.045,0,0,1,.169-.117l11.369-6.564a3.135,3.135,0,0,1,2.82-.117L71.535,28.577c.666-.477.7-1.126.033-1.512l-28.113-16.3a3.133,3.133,0,0,0-2.82.117L29.268,17.45c-.835.481-.926,1.21-.2,1.628" transform="translate(-7.35 -2.697)" fill="#5793ce"/>
            <path id="Trazado_157418" data-name="Trazado 157418" d="M79.406,74.918,95.39,65.767a3.9,3.9,0,0,0,1.629-3.112V56.938c0-1.2-.729-1.75-1.629-1.231L79.406,64.859a3.9,3.9,0,0,0-1.629,3.112v5.716c0,1.2.729,1.751,1.629,1.232" transform="translate(-20.003 -14.277)" fill="#173d7a"/>
            <path id="Trazado_157419" data-name="Trazado 157419" d="M96.322,55.542a1.6,1.6,0,0,1,.409,1.189v5.716A3.9,3.9,0,0,1,95.1,65.559L79.118,74.711a1.174,1.174,0,0,1-.791.172.971.971,0,0,0,1.22.042l15.984-9.151a3.9,3.9,0,0,0,1.628-3.112V56.946c0-.815-.339-1.319-.837-1.4" transform="translate(-20.145 -14.285)" fill="#fff"/>
            <path id="Trazado_157420" data-name="Trazado 157420" d="M86.319,72.1l1.466-.847a.849.849,0,0,0,.355-.678V69.008c0-.261-.159-.382-.355-.269l-1.466.847a.851.851,0,0,0-.355.678v1.567c0,.261.159.381.355.268" transform="translate(-22.109 -17.668)" fill="#396caa"/>
            <path id="Trazado_157421" data-name="Trazado 157421" d="M92.919,68.289l1.466-.847a.849.849,0,0,0,.355-.678V65.2c0-.261-.159-.382-.355-.269l-1.466.847a.851.851,0,0,0-.355.678v1.567c0,.261.159.381.355.268" transform="translate(-23.806 -16.688)" fill="#fff"/>
            <path id="Trazado_157422" data-name="Trazado 157422" d="M79.406,130.524l15.984-9.151a3.9,3.9,0,0,0,1.629-3.112v-5.716c0-1.2-.729-1.75-1.629-1.231l-15.984,9.151a3.9,3.9,0,0,0-1.629,3.112v5.716c0,1.2.729,1.751,1.629,1.232" transform="translate(-20.003 -28.578)" fill="#173d7a"/>
            <path id="Trazado_157423" data-name="Trazado 157423" d="M96.322,111.149a1.6,1.6,0,0,1,.409,1.189v5.716a3.9,3.9,0,0,1-1.628,3.112l-15.985,9.152a1.174,1.174,0,0,1-.791.172.971.971,0,0,0,1.22.042l15.984-9.151a3.9,3.9,0,0,0,1.628-3.112v-5.717c0-.814-.339-1.318-.837-1.4" transform="translate(-20.145 -28.586)" fill="#fff"/>
            <path id="Trazado_157424" data-name="Trazado 157424" d="M86.319,127.706l1.466-.847a.849.849,0,0,0,.355-.678v-1.566c0-.261-.159-.382-.355-.268l-1.466.846a.85.85,0,0,0-.355.678v1.567c0,.261.159.381.355.268" transform="translate(-22.109 -31.969)" fill="#396caa"/>
            <path id="Trazado_157425" data-name="Trazado 157425" d="M92.919,123.9l1.466-.847a.849.849,0,0,0,.355-.678V120.8c0-.261-.159-.382-.355-.268l-1.466.846a.851.851,0,0,0-.355.678v1.567c0,.261.159.381.355.268" transform="translate(-23.806 -30.989)" fill="#fff"/>
            <path id="Trazado_157426" data-name="Trazado 157426" d="M79.406,158.328l15.984-9.151a3.9,3.9,0,0,0,1.629-3.112v-5.716c0-1.2-.729-1.751-1.629-1.231l-15.984,9.151a3.9,3.9,0,0,0-1.629,3.112V157.1c0,1.2.729,1.751,1.629,1.232" transform="translate(-20.003 -35.729)" fill="#173d7a"/>
            <path id="Trazado_157427" data-name="Trazado 157427" d="M96.322,138.952a1.6,1.6,0,0,1,.409,1.19v5.716A3.9,3.9,0,0,1,95.1,148.97l-15.985,9.151a1.171,1.171,0,0,1-.791.173.972.972,0,0,0,1.22.042l15.984-9.151a3.9,3.9,0,0,0,1.628-3.112v-5.717c0-.814-.339-1.318-.837-1.4" transform="translate(-20.145 -35.737)" fill="#fff"/>
            <path id="Trazado_157428" data-name="Trazado 157428" d="M86.319,155.51l1.466-.847a.849.849,0,0,0,.355-.678v-1.566c0-.261-.159-.382-.355-.269L86.319,153a.851.851,0,0,0-.355.678v1.567c0,.262.159.381.355.268" transform="translate(-22.109 -39.12)" fill="#396caa"/>
            <path id="Trazado_157429" data-name="Trazado 157429" d="M92.919,151.7l1.466-.847a.849.849,0,0,0,.355-.678v-1.566c0-.261-.159-.382-.355-.269l-1.466.847a.85.85,0,0,0-.355.678v1.567c0,.261.159.381.355.268" transform="translate(-23.806 -38.14)" fill="#fff"/>
            <path id="Trazado_157430" data-name="Trazado 157430" d="M79.406,102.721,95.39,93.57a3.9,3.9,0,0,0,1.629-3.112V84.741c0-1.2-.729-1.75-1.629-1.231L79.406,92.662a3.9,3.9,0,0,0-1.629,3.112v5.716c0,1.2.729,1.751,1.629,1.232" transform="translate(-20.003 -21.427)" fill="#173d7a"/>
            <path id="Trazado_157431" data-name="Trazado 157431" d="M96.322,83.346a1.6,1.6,0,0,1,.409,1.189v5.716A3.9,3.9,0,0,1,95.1,93.363l-15.985,9.152a1.174,1.174,0,0,1-.791.172.971.971,0,0,0,1.22.042l15.984-9.151a3.9,3.9,0,0,0,1.628-3.112V84.749c0-.814-.339-1.319-.837-1.4" transform="translate(-20.145 -21.435)" fill="#fff"/>
            <path id="Trazado_157432" data-name="Trazado 157432" d="M86.319,99.9l1.466-.847a.849.849,0,0,0,.355-.678V96.812c0-.261-.159-.382-.355-.268l-1.466.846a.851.851,0,0,0-.355.678v1.567c0,.261.159.381.355.268" transform="translate(-22.109 -24.819)" fill="#396caa"/>
            <path id="Trazado_157433" data-name="Trazado 157433" d="M92.919,96.092l1.466-.847a.849.849,0,0,0,.355-.678V93c0-.261-.159-.382-.355-.268l-1.466.846a.851.851,0,0,0-.355.678v1.567c0,.261.159.381.355.268" transform="translate(-23.806 -23.839)" fill="#fff"/>
            <path id="Trazado_157434" data-name="Trazado 157434" d="M48.047,62.511,11.17,41.22a3.578,3.578,0,0,1-1.495-2.855V31.333c0-1.1.669-1.607,1.495-1.13L48.047,51.493a3.581,3.581,0,0,1,1.495,2.856v7.031c0,1.1-.669,1.606-1.495,1.13" transform="translate(-2.488 -7.722)" fill="#5793ce"/>
            <g id="Grupo_142252" data-name="Grupo 142252" transform="translate(8.982 24.856)" opacity="0.4">
              <g id="Grupo_142251" data-name="Grupo 142251">
                <g id="Grupo_142250" data-name="Grupo 142250" clip-path="url(#clip-path-3)">
                  <path id="Trazado_157435" data-name="Trazado 157435" d="M47.61,60.93,12.85,40.861a1.816,1.816,0,0,1-.758-1.448V34.126c0-.559.339-.815.758-.573L47.61,53.621a1.817,1.817,0,0,1,.758,1.449v5.286c0,.559-.339.816-.758.573" transform="translate(-12.092 -33.462)" fill="#d4ecff"/>
                </g>
              </g>
            </g>
            <path id="Trazado_157436" data-name="Trazado 157436" d="M20.813,43.709l-5.188-3a1.764,1.764,0,0,1-.736-1.407c0-.542.33-.791.736-.556l5.188,3a1.764,1.764,0,0,1,.736,1.407c0,.542-.33.791-.736.556" transform="translate(-3.829 -9.943)" fill="#d4ecff"/>
            <path id="Trazado_157437" data-name="Trazado 157437" d="M28.226,47.02c0,.542-.38.762-.851.491a1.88,1.88,0,0,1-.85-1.473c0-.542.38-.761.85-.49a1.877,1.877,0,0,1,.851,1.472" transform="translate(-6.822 -11.684)" fill="#173d7a"/>
            <path id="Trazado_157438" data-name="Trazado 157438" d="M32.264,49.351c0,.542-.38.762-.851.491a1.88,1.88,0,0,1-.85-1.473c0-.542.38-.761.85-.49a1.877,1.877,0,0,1,.851,1.472" transform="translate(-7.861 -12.284)" fill="#173d7a"/>
            <path id="Trazado_157439" data-name="Trazado 157439" d="M36.3,51.683c0,.542-.38.762-.851.491A1.88,1.88,0,0,1,34.6,50.7c0-.542.38-.762.85-.49a1.877,1.877,0,0,1,.851,1.472" transform="translate(-8.899 -12.883)" fill="#d4ecff"/>
            <path id="Trazado_157440" data-name="Trazado 157440" d="M40.34,54.014c0,.542-.38.762-.851.491a1.88,1.88,0,0,1-.85-1.473c0-.542.38-.761.85-.49a1.877,1.877,0,0,1,.851,1.472" transform="translate(-9.938 -13.483)" fill="#173d7a"/>
            <path id="Trazado_157441" data-name="Trazado 157441" d="M57.171,65.032l-1.747-1.009a1.131,1.131,0,0,1-.472-.9V61.272c0-.348.211-.508.472-.357l1.747,1.009a1.132,1.132,0,0,1,.472.9v1.849c0,.348-.212.508-.472.357" transform="translate(-14.133 -15.652)" fill="#173d7a"/>
            <path id="Trazado_157442" data-name="Trazado 157442" d="M48.047,79.2,11.17,57.914a3.578,3.578,0,0,1-1.495-2.855V48.027c0-1.1.669-1.607,1.495-1.13L48.047,68.187a3.581,3.581,0,0,1,1.495,2.856v7.031c0,1.1-.669,1.607-1.495,1.13" transform="translate(-2.488 -12.015)" fill="#5793ce"/>
            <g id="Grupo_142255" data-name="Grupo 142255" transform="translate(8.982 37.256)" opacity="0.4">
              <g id="Grupo_142254" data-name="Grupo 142254">
                <g id="Grupo_142253" data-name="Grupo 142253" clip-path="url(#clip-path-3)">
                  <path id="Trazado_157443" data-name="Trazado 157443" d="M47.61,77.623,12.85,57.554a1.817,1.817,0,0,1-.758-1.448V50.819c0-.559.339-.815.758-.573L47.61,70.314a1.817,1.817,0,0,1,.758,1.449v5.286c0,.559-.339.816-.758.573" transform="translate(-12.092 -50.155)" fill="#d4ecff"/>
                </g>
              </g>
            </g>
            <path id="Trazado_157444" data-name="Trazado 157444" d="M20.813,60.4l-5.188-3A1.764,1.764,0,0,1,14.889,56c0-.542.33-.791.736-.556l5.188,3a1.764,1.764,0,0,1,.736,1.407c0,.542-.33.791-.736.556" transform="translate(-3.829 -14.237)" fill="#d4ecff"/>
            <path id="Trazado_157445" data-name="Trazado 157445" d="M28.226,63.713c0,.542-.38.762-.851.491a1.88,1.88,0,0,1-.85-1.473c0-.542.38-.761.85-.49a1.876,1.876,0,0,1,.851,1.472" transform="translate(-6.822 -15.978)" fill="#fff"/>
            <path id="Trazado_157446" data-name="Trazado 157446" d="M32.264,66.044c0,.543-.38.762-.851.492a1.88,1.88,0,0,1-.85-1.473c0-.542.38-.761.85-.49a1.876,1.876,0,0,1,.851,1.472" transform="translate(-7.861 -16.577)" fill="#173d7a"/>
            <path id="Trazado_157447" data-name="Trazado 157447" d="M36.3,68.376c0,.542-.38.762-.851.491a1.88,1.88,0,0,1-.85-1.473c0-.542.38-.762.85-.49a1.876,1.876,0,0,1,.851,1.472" transform="translate(-8.899 -17.177)" fill="#d4ecff"/>
            <path id="Trazado_157448" data-name="Trazado 157448" d="M40.34,70.707c0,.542-.38.762-.851.491a1.88,1.88,0,0,1-.85-1.473c0-.542.38-.761.85-.49a1.877,1.877,0,0,1,.851,1.472" transform="translate(-9.938 -17.776)" fill="#173d7a"/>
            <path id="Trazado_157449" data-name="Trazado 157449" d="M57.171,81.725l-1.747-1.009a1.131,1.131,0,0,1-.472-.9V77.965c0-.348.211-.508.472-.357l1.747,1.009a1.132,1.132,0,0,1,.472.9v1.849c0,.348-.212.508-.472.357" transform="translate(-14.133 -19.945)" fill="#173d7a"/>
            <path id="Trazado_157450" data-name="Trazado 157450" d="M48.047,95.9,11.17,74.607a3.581,3.581,0,0,1-1.495-2.856V64.72c0-1.1.669-1.607,1.495-1.13L48.047,84.88a3.581,3.581,0,0,1,1.495,2.856v7.031c0,1.1-.669,1.607-1.495,1.13" transform="translate(-2.488 -16.308)" fill="#5793ce"/>
            <g id="Grupo_142258" data-name="Grupo 142258" transform="translate(8.982 49.656)" opacity="0.4">
              <g id="Grupo_142257" data-name="Grupo 142257">
                <g id="Grupo_142256" data-name="Grupo 142256" clip-path="url(#clip-path-3)">
                  <path id="Trazado_157451" data-name="Trazado 157451" d="M47.61,94.317,12.85,74.248a1.817,1.817,0,0,1-.758-1.448V67.513c0-.559.339-.815.758-.573L47.61,87.008a1.817,1.817,0,0,1,.758,1.449v5.286c0,.559-.339.816-.758.573" transform="translate(-12.092 -66.848)" fill="#d4ecff"/>
                </g>
              </g>
            </g>
            <path id="Trazado_157452" data-name="Trazado 157452" d="M20.813,77.095l-5.188-3a1.764,1.764,0,0,1-.736-1.407c0-.542.33-.791.736-.556l5.188,3a1.764,1.764,0,0,1,.736,1.407c0,.542-.33.791-.736.556" transform="translate(-3.829 -18.53)" fill="#d4ecff"/>
            <path id="Trazado_157453" data-name="Trazado 157453" d="M28.226,80.406c0,.542-.38.762-.851.491a1.88,1.88,0,0,1-.85-1.473c0-.542.38-.761.85-.49a1.877,1.877,0,0,1,.851,1.472" transform="translate(-6.822 -20.271)" fill="#fff"/>
            <path id="Trazado_157454" data-name="Trazado 157454" d="M32.264,82.738c0,.542-.38.762-.851.491a1.88,1.88,0,0,1-.85-1.473c0-.542.38-.761.85-.49a1.877,1.877,0,0,1,.851,1.472" transform="translate(-7.861 -20.871)" fill="#173d7a"/>
            <path id="Trazado_157455" data-name="Trazado 157455" d="M36.3,85.069c0,.542-.38.762-.851.491a1.88,1.88,0,0,1-.85-1.473c0-.542.38-.761.85-.49a1.876,1.876,0,0,1,.851,1.472" transform="translate(-8.899 -21.47)" fill="#d4ecff"/>
            <path id="Trazado_157456" data-name="Trazado 157456" d="M40.34,87.4c0,.542-.38.762-.851.491a1.88,1.88,0,0,1-.85-1.473c0-.542.38-.761.85-.49A1.877,1.877,0,0,1,40.34,87.4" transform="translate(-9.938 -22.07)" fill="#173d7a"/>
            <path id="Trazado_157457" data-name="Trazado 157457" d="M57.171,98.418l-1.747-1.009a1.131,1.131,0,0,1-.472-.9V94.658c0-.348.211-.508.472-.357l1.747,1.009a1.132,1.132,0,0,1,.472.9V98.06c0,.348-.212.508-.472.357" transform="translate(-14.133 -24.238)" fill="#173d7a"/>
            <path id="Trazado_157458" data-name="Trazado 157458" d="M48.047,112.591,11.17,91.3a3.578,3.578,0,0,1-1.495-2.855V81.413c0-1.1.669-1.607,1.495-1.13l36.877,21.291a3.581,3.581,0,0,1,1.495,2.856v7.031c0,1.1-.669,1.606-1.495,1.13" transform="translate(-2.488 -20.601)" fill="#5793ce"/>
            <g id="Grupo_142261" data-name="Grupo 142261" transform="translate(8.982 62.055)" opacity="0.4">
              <g id="Grupo_142260" data-name="Grupo 142260">
                <g id="Grupo_142259" data-name="Grupo 142259" clip-path="url(#clip-path-3)">
                  <path id="Trazado_157459" data-name="Trazado 157459" d="M47.61,111.01,12.85,90.941a1.817,1.817,0,0,1-.758-1.448V84.206c0-.559.339-.815.758-.573L47.61,103.7a1.817,1.817,0,0,1,.758,1.449v5.286c0,.559-.339.816-.758.573" transform="translate(-12.092 -83.541)" fill="#d4ecff"/>
                </g>
              </g>
            </g>
            <path id="Trazado_157460" data-name="Trazado 157460" d="M20.813,93.788l-5.188-3a1.764,1.764,0,0,1-.736-1.407c0-.542.33-.791.736-.556l5.188,3a1.764,1.764,0,0,1,.736,1.407c0,.542-.33.791-.736.556" transform="translate(-3.829 -22.823)" fill="#d4ecff"/>
            <path id="Trazado_157461" data-name="Trazado 157461" d="M28.226,97.1c0,.542-.38.762-.851.491a1.88,1.88,0,0,1-.85-1.473c0-.542.38-.762.85-.49a1.876,1.876,0,0,1,.851,1.472" transform="translate(-6.822 -24.564)" fill="#173d7a"/>
            <path id="Trazado_157462" data-name="Trazado 157462" d="M32.264,99.431c0,.542-.38.762-.851.491a1.88,1.88,0,0,1-.85-1.473c0-.542.38-.761.85-.49a1.877,1.877,0,0,1,.851,1.472" transform="translate(-7.861 -25.164)" fill="#173d7a"/>
            <path id="Trazado_157463" data-name="Trazado 157463" d="M36.3,101.762c0,.542-.38.762-.851.491a1.88,1.88,0,0,1-.85-1.473c0-.542.38-.761.85-.49a1.876,1.876,0,0,1,.851,1.472" transform="translate(-8.899 -25.763)" fill="#d4ecff"/>
            <path id="Trazado_157464" data-name="Trazado 157464" d="M40.34,104.093c0,.542-.38.762-.851.491a1.88,1.88,0,0,1-.85-1.473c0-.542.38-.761.85-.491a1.879,1.879,0,0,1,.851,1.473" transform="translate(-9.938 -26.363)" fill="#173d7a"/>
            <path id="Trazado_157465" data-name="Trazado 157465" d="M57.171,115.112,55.423,114.1a1.13,1.13,0,0,1-.472-.9v-1.848c0-.348.211-.508.472-.357L57.171,112a1.132,1.132,0,0,1,.472.9v1.849c0,.348-.212.508-.472.357" transform="translate(-14.133 -28.532)" fill="#d4ecff"/>
            <path id="Trazado_157466" data-name="Trazado 157466" d="M48.047,129.284,11.17,107.993a3.578,3.578,0,0,1-1.495-2.855V98.106c0-1.1.669-1.607,1.495-1.13l36.877,21.291a3.581,3.581,0,0,1,1.495,2.856v7.031c0,1.1-.669,1.607-1.495,1.13" transform="translate(-2.488 -24.895)" fill="#5793ce"/>
            <g id="Grupo_142264" data-name="Grupo 142264" transform="translate(8.982 74.456)" opacity="0.4">
              <g id="Grupo_142263" data-name="Grupo 142263">
                <g id="Grupo_142262" data-name="Grupo 142262" clip-path="url(#clip-path-7)">
                  <path id="Trazado_157467" data-name="Trazado 157467" d="M47.61,127.7,12.85,107.634a1.817,1.817,0,0,1-.758-1.448V100.9c0-.559.339-.815.758-.573l34.76,20.069a1.817,1.817,0,0,1,.758,1.449v5.286c0,.559-.339.815-.758.573" transform="translate(-12.092 -100.235)" fill="#d4ecff"/>
                </g>
              </g>
            </g>
            <path id="Trazado_157468" data-name="Trazado 157468" d="M20.813,110.482l-5.188-3a1.764,1.764,0,0,1-.736-1.407c0-.542.33-.791.736-.556l5.188,3a1.764,1.764,0,0,1,.736,1.407c0,.542-.33.791-.736.556" transform="translate(-3.829 -27.116)" fill="#d4ecff"/>
            <path id="Trazado_157469" data-name="Trazado 157469" d="M28.226,113.793c0,.542-.38.762-.851.491a1.88,1.88,0,0,1-.85-1.473c0-.542.38-.761.85-.49a1.877,1.877,0,0,1,.851,1.472" transform="translate(-6.822 -28.857)" fill="#173d7a"/>
            <path id="Trazado_157470" data-name="Trazado 157470" d="M32.264,116.124c0,.542-.38.762-.851.491a1.88,1.88,0,0,1-.85-1.473c0-.542.38-.761.85-.49a1.877,1.877,0,0,1,.851,1.472" transform="translate(-7.861 -29.457)" fill="#fff"/>
            <path id="Trazado_157471" data-name="Trazado 157471" d="M36.3,118.455c0,.542-.38.762-.851.491a1.88,1.88,0,0,1-.85-1.473c0-.542.38-.761.85-.49a1.877,1.877,0,0,1,.851,1.472" transform="translate(-8.899 -30.056)" fill="#d4ecff"/>
            <path id="Trazado_157472" data-name="Trazado 157472" d="M40.34,120.787c0,.542-.38.762-.851.491a1.88,1.88,0,0,1-.85-1.473c0-.542.38-.762.85-.49a1.877,1.877,0,0,1,.851,1.472" transform="translate(-9.938 -30.656)" fill="#fff"/>
            <path id="Trazado_157473" data-name="Trazado 157473" d="M57.171,131.8,55.423,130.8a1.131,1.131,0,0,1-.472-.9v-1.848c0-.348.211-.508.472-.357l1.747,1.009a1.132,1.132,0,0,1,.472.9v1.849c0,.348-.212.508-.472.357" transform="translate(-14.133 -32.825)" fill="#d4ecff"/>
            <path id="Trazado_157474" data-name="Trazado 157474" d="M48.047,145.977,11.17,124.686a3.578,3.578,0,0,1-1.495-2.855V114.8c0-1.1.669-1.607,1.495-1.13l36.877,21.291a3.581,3.581,0,0,1,1.495,2.856v7.031c0,1.1-.669,1.606-1.495,1.13" transform="translate(-2.488 -29.188)" fill="#5793ce"/>
            <g id="Grupo_142267" data-name="Grupo 142267" transform="translate(8.982 86.856)" opacity="0.4">
              <g id="Grupo_142266" data-name="Grupo 142266">
                <g id="Grupo_142265" data-name="Grupo 142265" clip-path="url(#clip-path-3)">
                  <path id="Trazado_157475" data-name="Trazado 157475" d="M47.61,144.4,12.85,124.327a1.816,1.816,0,0,1-.758-1.448v-5.287c0-.559.339-.815.758-.573l34.76,20.069a1.817,1.817,0,0,1,.758,1.449v5.286c0,.559-.339.816-.758.573" transform="translate(-12.092 -116.928)" fill="#d4ecff"/>
                </g>
              </g>
            </g>
            <path id="Trazado_157476" data-name="Trazado 157476" d="M20.813,127.175l-5.188-3a1.764,1.764,0,0,1-.736-1.407c0-.542.33-.791.736-.556l5.188,3a1.764,1.764,0,0,1,.736,1.407c0,.542-.33.791-.736.556" transform="translate(-3.829 -31.41)" fill="#d4ecff"/>
            <path id="Trazado_157477" data-name="Trazado 157477" d="M28.226,130.486c0,.542-.38.762-.851.491a1.88,1.88,0,0,1-.85-1.473c0-.542.38-.761.85-.49a1.877,1.877,0,0,1,.851,1.472" transform="translate(-6.822 -33.151)" fill="#173d7a"/>
            <path id="Trazado_157478" data-name="Trazado 157478" d="M32.264,132.817c0,.542-.38.762-.851.491a1.88,1.88,0,0,1-.85-1.473c0-.542.38-.761.85-.491a1.878,1.878,0,0,1,.851,1.473" transform="translate(-7.861 -33.75)" fill="#173d7a"/>
            <path id="Trazado_157479" data-name="Trazado 157479" d="M36.3,135.149c0,.542-.38.762-.851.491a1.88,1.88,0,0,1-.85-1.473c0-.542.38-.762.85-.491a1.879,1.879,0,0,1,.851,1.473" transform="translate(-8.899 -34.35)" fill="#d4ecff"/>
            <path id="Trazado_157480" data-name="Trazado 157480" d="M40.34,137.48c0,.542-.38.762-.851.491a1.88,1.88,0,0,1-.85-1.473c0-.542.38-.762.85-.49a1.876,1.876,0,0,1,.851,1.472" transform="translate(-9.938 -34.949)" fill="#173d7a"/>
            <path id="Trazado_157481" data-name="Trazado 157481" d="M57.171,148.5l-1.747-1.009a1.13,1.13,0,0,1-.472-.9v-1.848c0-.348.211-.508.472-.357l1.747,1.009a1.132,1.132,0,0,1,.472.9v1.849c0,.348-.212.508-.472.357" transform="translate(-14.133 -37.118)" fill="#173d7a"/>
            <path id="Trazado_157482" data-name="Trazado 157482" d="M48.047,162.671,11.17,141.38a3.578,3.578,0,0,1-1.495-2.855v-7.031c0-1.1.669-1.607,1.495-1.13l36.877,21.291a3.581,3.581,0,0,1,1.495,2.856v7.031c0,1.1-.669,1.606-1.495,1.13" transform="translate(-2.488 -33.481)" fill="#5793ce"/>
            <g id="Grupo_142270" data-name="Grupo 142270" transform="translate(8.982 99.256)" opacity="0.4">
              <g id="Grupo_142269" data-name="Grupo 142269">
                <g id="Grupo_142268" data-name="Grupo 142268" clip-path="url(#clip-path-3)">
                  <path id="Trazado_157483" data-name="Trazado 157483" d="M47.61,161.089,12.85,141.02a1.817,1.817,0,0,1-.758-1.448v-5.287c0-.559.339-.815.758-.573L47.61,153.78a1.817,1.817,0,0,1,.758,1.449v5.286c0,.559-.339.816-.758.573" transform="translate(-12.092 -133.621)" fill="#d4ecff"/>
                </g>
              </g>
            </g>
            <path id="Trazado_157484" data-name="Trazado 157484" d="M20.813,143.868l-5.188-3a1.764,1.764,0,0,1-.736-1.407c0-.542.33-.791.736-.556l5.188,3a1.764,1.764,0,0,1,.736,1.407c0,.542-.33.791-.736.556" transform="translate(-3.829 -35.703)" fill="#d4ecff"/>
            <path id="Trazado_157485" data-name="Trazado 157485" d="M28.979,147.594c0,1.024-.719,1.44-1.606.927a3.549,3.549,0,0,1-1.606-2.781c0-1.024.719-1.44,1.606-.928a3.551,3.551,0,0,1,1.606,2.782" transform="translate(-6.627 -37.187)" fill="#fff"/>
            <path id="Trazado_157486" data-name="Trazado 157486" d="M37.866,152.977c0,.542-.38.762-.851.491a1.88,1.88,0,0,1-.85-1.473c0-.542.38-.761.85-.49a1.877,1.877,0,0,1,.851,1.472" transform="translate(-9.301 -38.935)" fill="#173d7a"/>
            <path id="Trazado_157487" data-name="Trazado 157487" d="M41.9,155.308c0,.542-.38.762-.851.491a1.88,1.88,0,0,1-.85-1.473c0-.542.38-.761.85-.491a1.879,1.879,0,0,1,.851,1.473" transform="translate(-10.34 -39.534)" fill="#d4ecff"/>
            <path id="Trazado_157488" data-name="Trazado 157488" d="M45.942,157.639c0,.542-.38.762-.851.491a1.88,1.88,0,0,1-.85-1.473c0-.542.38-.762.85-.491a1.879,1.879,0,0,1,.851,1.473" transform="translate(-11.378 -40.134)" fill="#173d7a"/>
            <path id="Trazado_157489" data-name="Trazado 157489" d="M57.171,165.191l-1.747-1.009a1.131,1.131,0,0,1-.472-.9v-1.848c0-.348.211-.508.472-.357l1.747,1.009a1.132,1.132,0,0,1,.472.9v1.849c0,.348-.212.508-.472.357" transform="translate(-14.133 -41.411)" fill="#d4ecff"/>
            <path id="Trazado_157490" data-name="Trazado 157490" d="M43.11,197.972a.737.737,0,0,1-.366-.1L.822,174.051A1.625,1.625,0,0,1,.8,171.239l17.984-10.613a2.1,2.1,0,0,0,1.029-1.8v-11.7a.743.743,0,1,1,1.486,0v11.7a3.594,3.594,0,0,1-1.758,3.08L1.554,172.518a.14.14,0,0,0,0,.242l41.921,23.824a.743.743,0,0,1-.368,1.388" transform="translate(0 -37.648)" fill="#5793ce"/>
            <rect id="Rectángulo_12325" data-name="Rectángulo 12325" width="3.983" height="8.594" transform="translate(27.67 153.153) rotate(-60.169)" fill="#5793ce"/>
            <path id="Trazado_157491" data-name="Trazado 157491" d="M36.691,204.041a3.112,3.112,0,0,1,1.4-2.443c.776-.451,1.408-.089,1.411.809a3.114,3.114,0,0,1-1.4,2.443c-.776.451-1.408.089-1.411-.809" transform="translate(-9.436 -51.798)" fill="#5793ce"/>
            <rect id="Rectángulo_12326" data-name="Rectángulo 12326" width="6.454" height="13.479" transform="translate(33.208 157.753) rotate(-60.168)" fill="#5793ce"/>
            <path id="Trazado_157492" data-name="Trazado 157492" d="M46.743,205.836l-2.523-1.447a5.153,5.153,0,0,0-1.981,3.455l2.523,1.447a5.152,5.152,0,0,0,1.981-3.455" transform="translate(-10.863 -52.566)" fill="#396caa"/>
            <path id="Trazado_157493" data-name="Trazado 157493" d="M43.8,208.906a5.041,5.041,0,0,1,2.27-3.958c1.258-.732,2.281-.145,2.286,1.31a5.043,5.043,0,0,1-2.27,3.958c-1.258.732-2.281.145-2.286-1.31" transform="translate(-11.265 -52.629)" fill="#5793ce"/>
            <path id="Trazado_157494" data-name="Trazado 157494" d="M39.762,203.393a.4.4,0,0,1,0-.763,1.461,1.461,0,0,1,1.321,0,.4.4,0,0,1,0,.763,1.461,1.461,0,0,1-1.321,0" transform="translate(-10.156 -52.072)" fill="#d4ecff"/>
            <rect id="Rectángulo_12327" data-name="Rectángulo 12327" width="3.983" height="8.594" transform="translate(18.604 158.631) rotate(-60.169)" fill="#5793ce"/>
            <path id="Trazado_157495" data-name="Trazado 157495" d="M24.487,211.416a3.112,3.112,0,0,1,1.4-2.443c.776-.451,1.408-.089,1.411.809a3.114,3.114,0,0,1-1.4,2.443c-.776.451-1.408.089-1.411-.809" transform="translate(-6.298 -53.695)" fill="#5793ce"/>
            <rect id="Rectángulo_12328" data-name="Rectángulo 12328" width="6.454" height="13.479" transform="translate(24.143 163.231) rotate(-60.168)" fill="#5793ce"/>
            <path id="Trazado_157496" data-name="Trazado 157496" d="M34.538,213.211l-2.523-1.447a5.153,5.153,0,0,0-1.981,3.455l2.523,1.447a5.152,5.152,0,0,0,1.981-3.455" transform="translate(-7.724 -54.463)" fill="#396caa"/>
            <path id="Trazado_157497" data-name="Trazado 157497" d="M31.6,216.282a5.041,5.041,0,0,1,2.27-3.958c1.258-.732,2.281-.145,2.286,1.31a5.041,5.041,0,0,1-2.27,3.958c-1.258.732-2.281.145-2.286-1.31" transform="translate(-8.126 -54.526)" fill="#5793ce"/>
            <path id="Trazado_157498" data-name="Trazado 157498" d="M27.558,210.768a.4.4,0,0,1,0-.763,1.461,1.461,0,0,1,1.321,0,.4.4,0,0,1,0,.763,1.461,1.461,0,0,1-1.321,0" transform="translate(-7.017 -53.969)" fill="#d4ecff"/>
            <path id="Trazado_157499" data-name="Trazado 157499" d="M120.105,281.288,33.833,231.479c-2.441-1.409-2.135-3.87.683-5.5l58.745-33.9c2.818-1.627,7.081-1.8,9.522-.4l86.272,49.809c2.44,1.409,2.134,3.87-.684,5.5l-58.745,33.9c-2.818,1.627-7.081,1.8-9.521.394" transform="translate(-8.278 -49.053)" fill="#b2d3ea"/>
            <path id="Trazado_157500" data-name="Trazado 157500" d="M234.57,122.851,148.3,73.041a3.486,3.486,0,0,0-2.924-.359l.006-.008-.157.059-.039.015-3.118,1.193,2.8,1.37c-.013.052-.028.1-.04.152l-14.053,63.965c-.7,3.2.706,6.939,3.146,8.348l84.2,48.611-.3,3.568,3.407-1.321a4.789,4.789,0,0,0,2.44-3.47L237.715,131.2c.7-3.2-.706-6.939-3.146-8.348" transform="translate(-33.586 -18.648)" fill="#173d7a"/>
            <path id="Trazado_157501" data-name="Trazado 157501" d="M236.291,122.851,150.019,73.041a3.486,3.486,0,0,0-2.924-.359l.006-.008-.157.059-.039.015-3.118,1.193,2.8,1.37c-.013.052-.028.1-.04.152l-9.261,42.157L179.5,150.507l59.519-24.219a6.7,6.7,0,0,0-2.725-3.438" transform="translate(-35.308 -18.648)" fill="#396caa"/>
            <path id="Trazado_157502" data-name="Trazado 157502" d="M263.945,150.272l6.567-2.8a8.227,8.227,0,0,0-2.661-6.576l-10.395,4.373Z" transform="translate(-66.214 -36.238)" fill="#274f89"/>
            <path id="Trazado_157503" data-name="Trazado 157503" d="M212.958,200.032l-86.272-49.809c-2.441-1.408-3.849-5.146-3.146-8.347L137.593,77.91c.7-3.2,3.251-4.654,5.692-3.245l86.272,49.809c2.44,1.409,3.849,5.146,3.146,8.348L218.65,196.787c-.7,3.2-3.252,4.654-5.692,3.245" transform="translate(-31.726 -19.064)" fill="#d4ecff"/>
            <path id="Trazado_157504" data-name="Trazado 157504" d="M212.317,196.9,131.18,150.077c-2.234-1.29-3.522-4.709-2.878-7.638L141.16,83.9c.643-2.929,2.976-4.259,5.209-2.969l81.138,46.822c2.233,1.289,3.522,4.709,2.878,7.638l-12.86,58.534c-.643,2.929-2.975,4.259-5.209,2.969" transform="translate(-32.955 -20.689)" fill="#fff"/>
            <path id="Trazado_157505" data-name="Trazado 157505" d="M212.317,196.9,131.18,150.077c-2.234-1.29-3.522-4.709-2.878-7.638L141.16,83.9c.643-2.929,2.976-4.259,5.209-2.969l81.138,46.822c2.233,1.289,3.522,4.709,2.878,7.638l-12.86,58.534c-.643,2.929-2.975,4.259-5.209,2.969" transform="translate(-32.955 -20.689)" fill="#fff"/>
            <path id="Trazado_157506" data-name="Trazado 157506" d="M190.7,230.459,178.909,228.9l-76.124-43.951c-2.441-1.409-6.7-1.232-9.522.394L39.321,216.478l-7.131-.941v4.045H32.2a2.777,2.777,0,0,0,1.637,2.5l86.272,49.809c2.44,1.409,6.7,1.232,9.521-.4l58.745-33.9c1.585-.916,2.376-2.095,2.329-3.2Z" transform="translate(-8.279 -47.322)" fill="#173d7a"/>
            <path id="Trazado_157507" data-name="Trazado 157507" d="M133.5,208.077l-5.409-3.123H68.635L39.321,221.867l-7.13-.941v4.045H32.2a2.777,2.777,0,0,0,1.637,2.5l86.272,49.809a8.917,8.917,0,0,0,4.913.92Z" transform="translate(-8.279 -52.711)" fill="#396caa"/>
            <path id="Trazado_157508" data-name="Trazado 157508" d="M35.354,226.873l-3.164-.417V230.5H32.2a2.777,2.777,0,0,0,1.637,2.5l1.521.878Z" transform="translate(-8.279 -58.241)" fill="#5793ce"/>
            <path id="Trazado_157509" data-name="Trazado 157509" d="M151.715,299.567a11.05,11.05,0,0,0,8.09-.5V290.04h-8.09Z" transform="translate(-39.019 -74.594)" fill="#274f89"/>
            <path id="Trazado_157510" data-name="Trazado 157510" d="M120.105,265.528,33.833,215.719c-2.441-1.409-2.135-3.87.683-5.5l58.745-33.9c2.818-1.628,7.081-1.8,9.522-.4l86.272,49.809c2.44,1.409,2.134,3.87-.684,5.5l-58.745,33.9c-2.818,1.627-7.081,1.8-9.521.394" transform="translate(-8.278 -45)" fill="#d4ecff"/>
            <path id="Trazado_157511" data-name="Trazado 157511" d="M188.373,242.773l-58.745,33.9c-2.818,1.627-7.081,1.8-9.521.4L33.835,227.263a3.209,3.209,0,0,1-1.518-1.659c-.382,1.154.1,2.321,1.518,3.138l86.272,49.809c2.44,1.409,6.7,1.232,9.521-.394l58.745-33.905c1.894-1.094,2.647-2.563,2.2-3.838a4.589,4.589,0,0,1-2.2,2.36" transform="translate(-8.279 -58.022)" fill="#fff"/>
            <path id="Trazado_157512" data-name="Trazado 157512" d="M82.375,205.622l-3.9-2.254c-.313-.181-.274-.5.088-.706L83.167,200a1.359,1.359,0,0,1,1.223-.051l3.9,2.254c.313.181.274.5-.088.706l-4.608,2.66a1.359,1.359,0,0,1-1.223.05" transform="translate(-20.127 -51.394)" fill="#173d7a"/>
            <path id="Trazado_157513" data-name="Trazado 157513" d="M90.491,210.308l-3.9-2.254c-.313-.181-.274-.5.088-.706l4.608-2.661a1.361,1.361,0,0,1,1.223-.051l3.9,2.254c.313.181.274.5-.088.706l-4.608,2.66a1.359,1.359,0,0,1-1.223.05" transform="translate(-22.215 -52.599)" fill="#173d7a"/>
            <path id="Trazado_157514" data-name="Trazado 157514" d="M98.606,214.993l-3.9-2.254c-.313-.181-.274-.5.088-.706l4.608-2.66a1.359,1.359,0,0,1,1.223-.051l3.9,2.254c.313.181.274.5-.088.706l-4.608,2.66a1.359,1.359,0,0,1-1.223.051" transform="translate(-24.302 -53.804)" fill="#173d7a"/>
            <path id="Trazado_157515" data-name="Trazado 157515" d="M109.83,211.272l-3.9-2.254c-.313-.181-.274-.5.088-.706l3.868-2.233a1.359,1.359,0,0,1,1.223-.051l3.9,2.254c.313.181.274.5-.088.706l-3.868,2.233a1.358,1.358,0,0,1-1.223.051" transform="translate(-27.188 -52.956)" fill="#173d7a"/>
            <path id="Trazado_157516" data-name="Trazado 157516" d="M117.945,215.957l-3.9-2.254c-.313-.181-.274-.5.088-.706L118,210.764a1.361,1.361,0,0,1,1.223-.051l3.9,2.254c.313.181.274.5-.088.706l-3.868,2.233a1.359,1.359,0,0,1-1.223.051" transform="translate(-29.276 -54.161)" fill="#173d7a"/>
            <path id="Trazado_157517" data-name="Trazado 157517" d="M126.06,220.642l-3.9-2.254c-.313-.181-.274-.5.088-.706l3.868-2.233a1.359,1.359,0,0,1,1.223-.051l3.9,2.254c.313.181.274.5-.088.706l-3.868,2.233a1.359,1.359,0,0,1-1.223.051" transform="translate(-31.363 -55.366)" fill="#173d7a"/>
            <path id="Trazado_157518" data-name="Trazado 157518" d="M134.175,225.328l-3.9-2.254c-.313-.181-.274-.5.088-.706l3.868-2.233a1.359,1.359,0,0,1,1.223-.051l3.9,2.254c.313.181.274.5-.088.706l-3.868,2.233a1.359,1.359,0,0,1-1.223.051" transform="translate(-33.45 -56.571)" fill="#173d7a"/>
            <path id="Trazado_157519" data-name="Trazado 157519" d="M142.291,230.013l-3.9-2.254c-.313-.181-.274-.5.088-.706l3.868-2.234a1.361,1.361,0,0,1,1.223-.051l3.9,2.254c.313.181.274.5-.088.706l-3.868,2.233a1.359,1.359,0,0,1-1.223.051" transform="translate(-35.537 -57.776)" fill="#173d7a"/>
            <path id="Trazado_157520" data-name="Trazado 157520" d="M150.406,234.7l-3.9-2.254c-.313-.181-.274-.5.088-.706l3.868-2.233a1.359,1.359,0,0,1,1.223-.051l3.9,2.254c.313.181.274.5-.088.706l-3.868,2.233a1.358,1.358,0,0,1-1.223.051" transform="translate(-37.624 -58.981)" fill="#173d7a"/>
            <path id="Trazado_157521" data-name="Trazado 157521" d="M158.521,239.384l-3.9-2.254c-.313-.181-.274-.5.088-.706l3.868-2.233a1.359,1.359,0,0,1,1.223-.051l3.9,2.254c.313.181.274.5-.088.706l-3.868,2.233a1.358,1.358,0,0,1-1.223.051" transform="translate(-39.711 -60.186)" fill="#173d7a"/>
            <path id="Trazado_157522" data-name="Trazado 157522" d="M166.636,244.069l-3.9-2.254c-.313-.181-.274-.5.088-.706l3.868-2.233a1.359,1.359,0,0,1,1.223-.051l3.9,2.254c.313.181.274.5-.088.706l-3.868,2.233a1.359,1.359,0,0,1-1.223.051" transform="translate(-41.798 -61.391)" fill="#173d7a"/>
            <path id="Trazado_157523" data-name="Trazado 157523" d="M174.752,248.754l-3.9-2.254c-.313-.181-.274-.5.088-.706l3.868-2.233a1.359,1.359,0,0,1,1.223-.051l3.9,2.254c.313.181.274.5-.088.706l-3.868,2.233a1.359,1.359,0,0,1-1.223.05" transform="translate(-43.886 -62.596)" fill="#173d7a"/>
            <path id="Trazado_157524" data-name="Trazado 157524" d="M182.867,253.44l-3.9-2.254c-.313-.181-.274-.5.088-.706l3.868-2.233a1.359,1.359,0,0,1,1.223-.051l3.9,2.254c.313.181.274.5-.088.706l-3.868,2.233a1.359,1.359,0,0,1-1.223.05" transform="translate(-45.973 -63.801)" fill="#173d7a"/>
            <path id="Trazado_157525" data-name="Trazado 157525" d="M121.787,209.053l-3.9-2.254c-.313-.181-.274-.5.088-.706l3.868-2.233a1.359,1.359,0,0,1,1.223-.051l3.9,2.254c.313.181.274.5-.088.706L123.01,209a1.358,1.358,0,0,1-1.223.051" transform="translate(-30.264 -52.386)" fill="#396caa"/>
            <path id="Trazado_157526" data-name="Trazado 157526" d="M113.551,204.3l-3.9-2.254c-.313-.181-.274-.5.088-.706l3.868-2.234a1.361,1.361,0,0,1,1.223-.051l3.9,2.254c.313.181.274.5-.088.706l-3.868,2.233a1.359,1.359,0,0,1-1.223.051" transform="translate(-28.145 -51.163)" fill="#396caa"/>
            <path id="Trazado_157527" data-name="Trazado 157527" d="M103.742,198.635l-8.407-4.854c-.313-.181-.274-.5.088-.706l3.868-2.233a1.359,1.359,0,0,1,1.223-.05l8.407,4.854c.313.181.274.5-.088.706l-3.868,2.233a1.359,1.359,0,0,1-1.223.051" transform="translate(-24.464 -49.038)" fill="#173d7a"/>
            <path id="Trazado_157528" data-name="Trazado 157528" d="M110.056,193.16l-6.823-3.939c-.313-.181-.274-.5.088-.706l3.868-2.233a1.359,1.359,0,0,1,1.223-.051l6.823,3.939c.313.181.274.5-.088.706l-3.868,2.233a1.358,1.358,0,0,1-1.223.051" transform="translate(-26.496 -47.865)" fill="#173d7a"/>
            <path id="Trazado_157529" data-name="Trazado 157529" d="M129.9,213.739l-3.9-2.254c-.313-.181-.274-.5.088-.706l3.868-2.234a1.361,1.361,0,0,1,1.223-.051l3.9,2.254c.313.181.274.5-.088.706l-3.868,2.233a1.359,1.359,0,0,1-1.223.051" transform="translate(-32.351 -53.591)" fill="#396caa"/>
            <path id="Trazado_157530" data-name="Trazado 157530" d="M138.018,218.424l-3.9-2.254c-.314-.181-.275-.5.087-.706l3.868-2.234a1.361,1.361,0,0,1,1.223-.051l3.9,2.254c.313.181.275.5-.087.706l-3.868,2.233a1.359,1.359,0,0,1-1.223.05" transform="translate(-34.438 -54.796)" fill="#173d7a"/>
            <path id="Trazado_157531" data-name="Trazado 157531" d="M146.133,223.109l-3.9-2.254c-.313-.181-.274-.5.088-.706l3.868-2.233a1.359,1.359,0,0,1,1.223-.051l3.9,2.254c.313.181.274.5-.088.706l-3.868,2.233a1.359,1.359,0,0,1-1.223.051" transform="translate(-36.525 -56.001)" fill="#173d7a"/>
            <path id="Trazado_157532" data-name="Trazado 157532" d="M154.248,227.8l-3.9-2.254c-.313-.181-.274-.5.088-.706L154.3,222.6a1.361,1.361,0,0,1,1.223-.051l3.9,2.254c.313.181.274.5-.088.706l-3.868,2.233a1.359,1.359,0,0,1-1.223.05" transform="translate(-38.612 -57.206)" fill="#173d7a"/>
            <path id="Trazado_157533" data-name="Trazado 157533" d="M162.363,232.48l-3.9-2.254c-.313-.181-.274-.5.088-.706l3.868-2.233a1.359,1.359,0,0,1,1.223-.051l3.9,2.254c.313.181.274.5-.088.706l-3.868,2.233a1.359,1.359,0,0,1-1.223.051" transform="translate(-40.699 -58.411)" fill="#173d7a"/>
            <path id="Trazado_157534" data-name="Trazado 157534" d="M170.479,237.165l-3.9-2.254c-.313-.181-.274-.5.088-.706l3.868-2.233a1.359,1.359,0,0,1,1.223-.051l3.9,2.254c.313.181.274.5-.087.706l-3.869,2.233a1.357,1.357,0,0,1-1.222.05" transform="translate(-42.786 -59.616)" fill="#173d7a"/>
            <path id="Trazado_157535" data-name="Trazado 157535" d="M178.594,241.851l-3.9-2.254c-.313-.181-.274-.5.088-.706l3.868-2.234a1.361,1.361,0,0,1,1.223-.05l3.9,2.254c.313.181.274.5-.088.706l-3.868,2.233a1.359,1.359,0,0,1-1.223.05" transform="translate(-44.874 -60.821)" fill="#173d7a"/>
            <path id="Trazado_157536" data-name="Trazado 157536" d="M186.709,246.536l-3.9-2.254c-.313-.181-.274-.5.088-.706l3.868-2.233a1.359,1.359,0,0,1,1.223-.051l3.9,2.254c.313.181.274.5-.088.706l-3.868,2.233a1.359,1.359,0,0,1-1.223.051" transform="translate(-46.961 -62.026)" fill="#173d7a"/>
            <path id="Trazado_157537" data-name="Trazado 157537" d="M194.824,251.221l-3.9-2.254c-.313-.181-.274-.5.088-.706l3.868-2.233a1.359,1.359,0,0,1,1.223-.051l3.9,2.254c.313.181.274.5-.088.706l-3.868,2.233a1.359,1.359,0,0,1-1.223.05" transform="translate(-49.048 -63.231)" fill="#173d7a"/>
            <path id="Trazado_157538" data-name="Trazado 157538" d="M207.654,258.629l-8.517-4.917c-.313-.181-.274-.5.088-.706l3.868-2.233a1.359,1.359,0,0,1,1.223-.051l8.517,4.917c.313.181.274.5-.088.706l-3.868,2.233a1.359,1.359,0,0,1-1.223.051" transform="translate(-51.161 -64.451)" fill="#173d7a"/>
            <path id="Trazado_157539" data-name="Trazado 157539" d="M223.914,249.773l-7.189-4.15c-.313-.181-.274-.5.088-.706l3.868-2.233a1.358,1.358,0,0,1,1.223-.051l7.189,4.15c.313.181.274.5-.088.706l-3.868,2.233a1.359,1.359,0,0,1-1.223.051" transform="translate(-55.684 -62.37)" fill="#173d7a"/>
            <path id="Trazado_157540" data-name="Trazado 157540" d="M144.114,212.822l-3.9-2.254c-.313-.181-.274-.5.088-.706l3.868-2.233a1.359,1.359,0,0,1,1.223-.051l3.9,2.254c.313.181.274.5-.088.706l-3.868,2.233a1.358,1.358,0,0,1-1.223.051" transform="translate(-36.006 -53.355)" fill="#173d7a"/>
            <path id="Trazado_157541" data-name="Trazado 157541" d="M135.8,208.02l-3.9-2.254c-.313-.181-.274-.5.088-.706l3.868-2.234a1.361,1.361,0,0,1,1.223-.05l3.9,2.254c.313.181.274.5-.088.706l-3.868,2.233a1.359,1.359,0,0,1-1.223.051" transform="translate(-33.867 -52.12)" fill="#173d7a"/>
            <path id="Trazado_157542" data-name="Trazado 157542" d="M127.48,203.218l-3.9-2.254c-.313-.181-.274-.5.088-.706l3.868-2.233a1.359,1.359,0,0,1,1.223-.051l3.9,2.254c.313.181.274.5-.088.706l-3.868,2.233a1.359,1.359,0,0,1-1.223.051" transform="translate(-31.728 -50.885)" fill="#396caa"/>
            <path id="Trazado_157543" data-name="Trazado 157543" d="M119.162,198.416l-3.9-2.254c-.313-.181-.274-.5.088-.706l3.868-2.233a1.359,1.359,0,0,1,1.223-.051l3.9,2.254c.313.181.274.5-.088.706l-3.868,2.233a1.359,1.359,0,0,1-1.223.051" transform="translate(-29.589 -49.65)" fill="#173d7a"/>
            <path id="Trazado_157544" data-name="Trazado 157544" d="M152.229,217.507l-3.9-2.254c-.313-.181-.274-.5.088-.706l3.868-2.234a1.361,1.361,0,0,1,1.223-.051l3.9,2.254c.313.181.274.5-.088.706l-3.868,2.233a1.358,1.358,0,0,1-1.223.051" transform="translate(-38.093 -54.56)" fill="#173d7a"/>
            <path id="Trazado_157545" data-name="Trazado 157545" d="M160.344,222.193l-3.9-2.254c-.313-.181-.274-.5.088-.706L160.4,217a1.359,1.359,0,0,1,1.223-.051l3.9,2.254c.313.181.274.5-.088.706l-3.868,2.233a1.359,1.359,0,0,1-1.223.051" transform="translate(-40.18 -55.765)" fill="#173d7a"/>
            <path id="Trazado_157546" data-name="Trazado 157546" d="M168.46,226.878l-3.9-2.254c-.314-.181-.275-.5.087-.706l3.868-2.233a1.359,1.359,0,0,1,1.223-.051l3.9,2.254c.313.181.275.5-.087.706l-3.868,2.233a1.359,1.359,0,0,1-1.223.051" transform="translate(-42.267 -56.97)" fill="#173d7a"/>
            <path id="Trazado_157547" data-name="Trazado 157547" d="M176.575,231.563l-3.9-2.254c-.313-.18-.274-.5.088-.706l3.868-2.234a1.361,1.361,0,0,1,1.223-.051l3.9,2.254c.313.181.274.5-.088.706l-3.868,2.233a1.358,1.358,0,0,1-1.223.051" transform="translate(-44.354 -58.175)" fill="#173d7a"/>
            <path id="Trazado_157548" data-name="Trazado 157548" d="M184.69,236.249l-3.9-2.254c-.313-.181-.274-.5.088-.706l3.868-2.233a1.359,1.359,0,0,1,1.223-.051l3.9,2.254c.313.181.274.5-.088.706l-3.868,2.233a1.359,1.359,0,0,1-1.223.051" transform="translate(-46.441 -59.38)" fill="#173d7a"/>
            <path id="Trazado_157549" data-name="Trazado 157549" d="M192.805,240.934l-3.9-2.254c-.313-.181-.274-.5.088-.706l3.868-2.233a1.359,1.359,0,0,1,1.223-.051l3.9,2.254c.313.181.274.5-.088.706l-3.868,2.233a1.358,1.358,0,0,1-1.223.051" transform="translate(-48.528 -60.585)" fill="#173d7a"/>
            <path id="Trazado_157550" data-name="Trazado 157550" d="M200.921,245.619l-3.9-2.254c-.313-.18-.274-.5.088-.706l3.868-2.234a1.361,1.361,0,0,1,1.223-.051l3.9,2.254c.313.181.275.5-.087.706l-3.868,2.233a1.359,1.359,0,0,1-1.223.051" transform="translate(-50.616 -61.79)" fill="#173d7a"/>
            <path id="Trazado_157551" data-name="Trazado 157551" d="M209.036,250.305l-3.9-2.254c-.313-.181-.274-.5.088-.706l3.868-2.233a1.359,1.359,0,0,1,1.223-.051l3.9,2.254c.313.181.274.5-.088.706l-3.868,2.233a1.359,1.359,0,0,1-1.223.05" transform="translate(-52.703 -62.995)" fill="#173d7a"/>
            <path id="Trazado_157552" data-name="Trazado 157552" d="M217.151,254.99l-3.9-2.254c-.313-.18-.274-.5.088-.706L217.2,249.8a1.359,1.359,0,0,1,1.223-.051l3.9,2.254c.313.181.274.5-.088.706l-3.868,2.233a1.358,1.358,0,0,1-1.223.051" transform="translate(-54.79 -64.2)" fill="#173d7a"/>
            <path id="Trazado_157553" data-name="Trazado 157553" d="M139.841,201.233l-3.9-2.254c-.313-.181-.274-.5.088-.706l3.868-2.234a1.361,1.361,0,0,1,1.223-.051l3.9,2.254c.313.181.274.5-.088.706l-3.868,2.233a1.359,1.359,0,0,1-1.223.051" transform="translate(-34.907 -50.374)" fill="#173d7a"/>
            <path id="Trazado_157554" data-name="Trazado 157554" d="M131.766,196.571l-3.9-2.254c-.313-.181-.274-.5.088-.706l3.868-2.233a1.359,1.359,0,0,1,1.223-.051l3.9,2.254c.313.181.274.5-.088.706l-3.868,2.233a1.359,1.359,0,0,1-1.223.051" transform="translate(-32.83 -49.176)" fill="#173d7a"/>
            <path id="Trazado_157555" data-name="Trazado 157555" d="M123.691,191.909l-3.9-2.254c-.313-.181-.274-.5.088-.706l3.868-2.234a1.361,1.361,0,0,1,1.223-.05l3.9,2.254c.313.181.274.5-.088.706l-3.868,2.233a1.359,1.359,0,0,1-1.223.051" transform="translate(-30.753 -47.977)" fill="#173d7a"/>
            <path id="Trazado_157556" data-name="Trazado 157556" d="M115.616,187.247l-3.9-2.254c-.313-.181-.274-.5.088-.706l3.868-2.233a1.359,1.359,0,0,1,1.223-.051l3.9,2.254c.313.181.274.5-.088.706l-3.868,2.233a1.359,1.359,0,0,1-1.223.051" transform="translate(-28.677 -46.778)" fill="#173d7a"/>
            <path id="Trazado_157557" data-name="Trazado 157557" d="M123.919,182.971l-3.9-2.254c-.313-.18-.274-.5.088-.706l1.279-.738a1.359,1.359,0,0,1,1.223-.051l3.9,2.254c.313.18.274.5-.088.706l-1.278.738a1.358,1.358,0,0,1-1.223.051" transform="translate(-30.812 -46.062)" fill="#173d7a"/>
            <path id="Trazado_157558" data-name="Trazado 157558" d="M134.457,189.055l-3.9-2.254c-.313-.181-.274-.5.088-.706l1.278-.738a1.36,1.36,0,0,1,1.223-.05l3.9,2.254c.313.18.274.5-.088.706L135.68,189a1.359,1.359,0,0,1-1.223.051" transform="translate(-33.522 -47.627)" fill="#173d7a"/>
            <path id="Trazado_157559" data-name="Trazado 157559" d="M142.5,193.7l-3.9-2.254c-.313-.181-.274-.5.088-.706l1.278-.738a1.36,1.36,0,0,1,1.223-.05l3.9,2.254c.313.181.274.5-.088.706l-1.278.738a1.358,1.358,0,0,1-1.223.05" transform="translate(-35.59 -48.821)" fill="#173d7a"/>
            <path id="Trazado_157560" data-name="Trazado 157560" d="M150.54,198.34l-3.9-2.254c-.313-.181-.274-.5.088-.706l1.278-.738a1.359,1.359,0,0,1,1.223-.05l3.9,2.254c.313.18.274.5-.088.706l-1.278.738a1.359,1.359,0,0,1-1.223.051" transform="translate(-37.659 -50.015)" fill="#173d7a"/>
            <path id="Trazado_157561" data-name="Trazado 157561" d="M158.581,202.983l-3.9-2.254c-.313-.181-.274-.5.088-.706l1.279-.738a1.359,1.359,0,0,1,1.223-.051l3.9,2.254c.313.18.274.5-.088.706l-1.278.738a1.359,1.359,0,0,1-1.223.05" transform="translate(-39.727 -51.209)" fill="#173d7a"/>
            <path id="Trazado_157562" data-name="Trazado 157562" d="M203.474,228.9l-3.9-2.254c-.313-.181-.274-.5.088-.706l1.279-.738a1.359,1.359,0,0,1,1.223-.051l3.9,2.254c.313.181.274.5-.088.706l-1.278.738a1.359,1.359,0,0,1-1.223.051" transform="translate(-51.272 -57.875)" fill="#173d7a"/>
            <path id="Trazado_157563" data-name="Trazado 157563" d="M211.515,233.544l-3.9-2.254c-.313-.181-.274-.5.088-.706l1.278-.738a1.36,1.36,0,0,1,1.223-.051l3.9,2.254c.313.181.274.5-.088.706l-1.278.738a1.359,1.359,0,0,1-1.223.051" transform="translate(-53.34 -59.069)" fill="#173d7a"/>
            <path id="Trazado_157564" data-name="Trazado 157564" d="M219.556,238.187l-3.9-2.254c-.313-.18-.274-.5.088-.706l1.278-.738a1.36,1.36,0,0,1,1.223-.051l3.9,2.254c.313.181.274.5-.088.706l-1.278.738a1.358,1.358,0,0,1-1.223.051" transform="translate(-55.408 -60.263)" fill="#173d7a"/>
            <path id="Trazado_157565" data-name="Trazado 157565" d="M227.6,242.83l-3.9-2.254c-.313-.18-.274-.5.088-.706l1.278-.738a1.36,1.36,0,0,1,1.223-.05l3.9,2.254c.313.18.274.5-.088.706l-1.278.738a1.359,1.359,0,0,1-1.223.05" transform="translate(-57.476 -61.457)" fill="#173d7a"/>
            <path id="Trazado_157566" data-name="Trazado 157566" d="M147.956,205.918l-3.9-2.254c-.313-.181-.274-.5.088-.706l3.868-2.234a1.361,1.361,0,0,1,1.223-.051l3.9,2.254c.313.181.274.5-.088.706l-3.868,2.233a1.358,1.358,0,0,1-1.223.051" transform="translate(-36.994 -51.579)" fill="#173d7a"/>
            <path id="Trazado_157567" data-name="Trazado 157567" d="M156.071,210.6l-3.9-2.254c-.313-.181-.274-.5.088-.706l3.868-2.233a1.359,1.359,0,0,1,1.223-.051l3.9,2.254c.313.181.274.5-.088.706l-3.868,2.233a1.359,1.359,0,0,1-1.223.051" transform="translate(-39.081 -52.785)" fill="#173d7a"/>
            <path id="Trazado_157568" data-name="Trazado 157568" d="M164.186,215.289l-3.9-2.254c-.313-.181-.274-.5.088-.706l3.868-2.234a1.361,1.361,0,0,1,1.223-.051l3.9,2.254c.313.181.274.5-.088.706l-3.868,2.233a1.359,1.359,0,0,1-1.223.05" transform="translate(-41.168 -53.99)" fill="#173d7a"/>
            <path id="Trazado_157569" data-name="Trazado 157569" d="M172.3,219.974l-3.9-2.254c-.313-.181-.274-.5.088-.706l3.868-2.234a1.361,1.361,0,0,1,1.223-.051l3.9,2.254c.313.181.274.5-.088.706l-3.868,2.233a1.359,1.359,0,0,1-1.223.051" transform="translate(-43.255 -55.194)" fill="#173d7a"/>
            <path id="Trazado_157570" data-name="Trazado 157570" d="M180.417,224.66l-3.9-2.254c-.313-.181-.274-.5.088-.706l3.868-2.233a1.359,1.359,0,0,1,1.223-.051l3.9,2.254c.313.181.274.5-.088.706l-3.868,2.233a1.359,1.359,0,0,1-1.223.051" transform="translate(-45.342 -56.4)" fill="#173d7a"/>
            <path id="Trazado_157571" data-name="Trazado 157571" d="M188.532,229.345l-3.9-2.254c-.313-.181-.274-.5.088-.706l3.868-2.234a1.361,1.361,0,0,1,1.223-.051l3.9,2.254c.313.181.274.5-.088.706l-3.868,2.233a1.359,1.359,0,0,1-1.223.051" transform="translate(-47.43 -57.605)" fill="#173d7a"/>
            <path id="Trazado_157572" data-name="Trazado 157572" d="M196.647,234.03l-3.9-2.254c-.313-.181-.274-.5.088-.706l3.868-2.233a1.359,1.359,0,0,1,1.223-.051l3.9,2.254c.313.181.274.5-.088.706l-3.868,2.233a1.359,1.359,0,0,1-1.223.051" transform="translate(-49.517 -58.809)" fill="#173d7a"/>
            <path id="Trazado_157573" data-name="Trazado 157573" d="M204.763,238.716l-3.9-2.254c-.313-.181-.274-.5.088-.706l3.868-2.233a1.359,1.359,0,0,1,1.223-.051l3.9,2.254c.313.181.274.5-.088.706l-3.868,2.233a1.359,1.359,0,0,1-1.223.051" transform="translate(-51.604 -60.015)" fill="#173d7a"/>
            <path id="Trazado_157574" data-name="Trazado 157574" d="M212.878,243.4l-3.9-2.254c-.313-.18-.274-.5.088-.706l3.868-2.234a1.361,1.361,0,0,1,1.223-.051l3.9,2.254c.313.181.274.5-.088.706l-3.868,2.233a1.359,1.359,0,0,1-1.223.05" transform="translate(-53.691 -61.22)" fill="#173d7a"/>
            <path id="Trazado_157575" data-name="Trazado 157575" d="M98.932,204.98l-11.5-6.637c-.313-.181-.274-.5.088-.706l3.868-2.233a1.359,1.359,0,0,1,1.223-.05l11.5,6.637c.313.181.274.5-.088.706l-3.868,2.233a1.359,1.359,0,0,1-1.223.051" transform="translate(-22.433 -50.211)" fill="#173d7a"/>
            <path id="Trazado_157576" data-name="Trazado 157576" d="M198.629,262.54l-11.5-6.637c-.313-.181-.274-.5.088-.706l3.868-2.233a1.359,1.359,0,0,1,1.223-.051l11.5,6.637c.313.181.274.5-.088.706l-3.868,2.233a1.359,1.359,0,0,1-1.223.051" transform="translate(-48.074 -65.014)" fill="#173d7a"/>
            <path id="Trazado_157577" data-name="Trazado 157577" d="M168.8,255.522l-3.9-2.254c-.313-.181-.274-.5.088-.706L169.6,249.9a1.361,1.361,0,0,1,1.223-.051l3.9,2.254c.313.181.274.5-.088.706l-4.608,2.66a1.358,1.358,0,0,1-1.223.051" transform="translate(-42.356 -64.227)" fill="#173d7a"/>
            <path id="Trazado_157578" data-name="Trazado 157578" d="M109.06,221.029l-6.243-3.6c-.313-.181-.274-.5.088-.706l4.608-2.66a1.361,1.361,0,0,1,1.223-.051l6.243,3.6c.313.181.274.5-.088.706l-4.608,2.66a1.359,1.359,0,0,1-1.223.051" transform="translate(-26.389 -55.008)" fill="#173d7a"/>
            <path id="Trazado_157579" data-name="Trazado 157579" d="M160.174,250.54l-6.243-3.6c-.314-.181-.274-.5.088-.706l4.608-2.66a1.361,1.361,0,0,1,1.223-.051l6.243,3.6c.313.181.274.5-.088.706l-4.608,2.66a1.359,1.359,0,0,1-1.223.05" transform="translate(-39.535 -62.598)" fill="#173d7a"/>
            <path id="Trazado_157580" data-name="Trazado 157580" d="M120.769,227.789l-6.243-3.6c-.313-.181-.274-.5.088-.706l4.608-2.66a1.361,1.361,0,0,1,1.223-.05l6.243,3.6c.313.181.274.5-.088.706l-4.608,2.66a1.358,1.358,0,0,1-1.223.05" transform="translate(-29.4 -56.747)" fill="#173d7a"/>
            <path id="Trazado_157581" data-name="Trazado 157581" d="M120.575,220.843l27.142,15.67a.372.372,0,0,1,0,.7l-4.7,2.712a1.347,1.347,0,0,1-1.22,0l-27.142-15.67Z" transform="translate(-29.488 -56.798)" fill="#173d7a"/>
            <path id="Trazado_157582" data-name="Trazado 157582" d="M191.824,265.988l4.348,2.511c.256.148.224.407-.072.579l-1.885,1.087a1.112,1.112,0,0,1-1,.042l-4.348-2.51c-.256-.149-.224-.408.072-.579l1.885-1.088a1.112,1.112,0,0,1,1-.042" transform="translate(-48.529 -68.383)" fill="#173d7a"/>
            <path id="Trazado_157583" data-name="Trazado 157583" d="M183.643,261.263l4.348,2.511c.256.148.224.407-.072.578l-1.885,1.089a1.114,1.114,0,0,1-1,.041l-4.348-2.51c-.257-.148-.225-.408.071-.579l1.885-1.088a1.112,1.112,0,0,1,1-.042" transform="translate(-46.425 -67.167)" fill="#173d7a"/>
            <path id="Trazado_157584" data-name="Trazado 157584" d="M175.526,256.578l4.348,2.511c.256.148.224.407-.072.579l-1.885,1.087a1.112,1.112,0,0,1-1,.042l-4.348-2.51c-.256-.149-.224-.408.072-.579l1.885-1.088a1.111,1.111,0,0,1,1-.042" transform="translate(-44.337 -65.963)" fill="#173d7a"/>
            <path id="Trazado_157585" data-name="Trazado 157585" d="M188.124,258.676l4.348,2.511c.256.148.224.407-.072.578l-1.885,1.088a1.112,1.112,0,0,1-1,.042l-4.348-2.51c-.257-.149-.225-.408.071-.579l1.885-1.088a1.112,1.112,0,0,1,1-.042" transform="translate(-47.577 -66.502)" fill="#173d7a"/>
            <path id="Trazado_157586" data-name="Trazado 157586" d="M176.2,113.1l-5.769-3.331a1.65,1.65,0,0,1-.7-1.708.8.8,0,0,1,1.234-.59l5.769,3.331a1.649,1.649,0,0,1,.7,1.708.8.8,0,0,1-1.234.589" transform="translate(-43.643 -27.606)" fill="#d4ecff"/>
            <path id="Trazado_157587" data-name="Trazado 157587" d="M193.753,123.23l-8.506-4.911a1.65,1.65,0,0,1-.7-1.708.8.8,0,0,1,1.234-.589l8.506,4.911a1.649,1.649,0,0,1,.7,1.708.8.8,0,0,1-1.234.589" transform="translate(-47.453 -29.806)" fill="#d4ecff"/>
            <path id="Trazado_157588" data-name="Trazado 157588" d="M162.666,149.347l-5.769-3.331a1.648,1.648,0,0,1-.7-1.708.8.8,0,0,1,1.234-.59l5.769,3.331a1.649,1.649,0,0,1,.7,1.708.8.8,0,0,1-1.234.589" transform="translate(-40.162 -36.929)" fill="#d4ecff"/>
            <path id="Trazado_157589" data-name="Trazado 157589" d="M178.208,158.32,169.7,153.41a1.651,1.651,0,0,1-.7-1.708.8.8,0,0,1,1.234-.589l8.506,4.911a1.649,1.649,0,0,1,.7,1.708.8.8,0,0,1-1.234.589" transform="translate(-43.455 -38.831)" fill="#d4ecff"/>
            <path id="Trazado_157590" data-name="Trazado 157590" d="M154.044,107.648l-3.6-2.081a1.65,1.65,0,0,1-.7-1.708.8.8,0,0,1,1.235-.589l3.6,2.081a1.65,1.65,0,0,1,.7,1.708.8.8,0,0,1-1.234.589" transform="translate(-38.501 -26.526)" fill="#d4ecff"/>
            <path id="Trazado_157591" data-name="Trazado 157591" d="M166.431,122.144l-11.01-6.357a1.649,1.649,0,0,1-.7-1.708.8.8,0,0,1,1.235-.59l11.01,6.357a1.65,1.65,0,0,1,.7,1.708.8.8,0,0,1-1.235.589" transform="translate(-39.782 -29.155)" fill="#d4ecff"/>
            <path id="Trazado_157592" data-name="Trazado 157592" d="M156.032,130.828l-3.6-2.081a1.649,1.649,0,0,1-.7-1.708.8.8,0,0,1,1.235-.589l3.6,2.081a1.649,1.649,0,0,1,.7,1.708.8.8,0,0,1-1.234.589" transform="translate(-39.012 -32.488)" fill="#d4ecff"/>
            <path id="Trazado_157593" data-name="Trazado 157593" d="M180.316,174.226l-9.625-5.557a1.65,1.65,0,0,1-.7-1.708.8.8,0,0,1,1.235-.589l9.625,5.557a1.649,1.649,0,0,1,.7,1.708.8.8,0,0,1-1.234.589" transform="translate(-43.709 -42.755)" fill="#d4ecff"/>
            <path id="Trazado_157594" data-name="Trazado 157594" d="M151.75,143.044l-2.313-1.336a1.651,1.651,0,0,1-.7-1.708.8.8,0,0,1,1.235-.589l2.313,1.336a1.651,1.651,0,0,1,.7,1.708.8.8,0,0,1-1.235.589" transform="translate(-38.243 -35.821)" fill="#d4ecff"/>
            <path id="Trazado_157595" data-name="Trazado 157595" d="M149.317,156.328l-2.872-1.659a1.649,1.649,0,0,1-.7-1.708.8.8,0,0,1,1.235-.59l2.872,1.659a1.651,1.651,0,0,1,.7,1.708.8.8,0,0,1-1.235.589" transform="translate(-37.473 -39.155)" fill="#d4ecff"/>
            <path id="Trazado_157596" data-name="Trazado 157596" d="M162.735,164.075l-7.574-4.372a1.651,1.651,0,0,1-.7-1.708.8.8,0,0,1,1.234-.589l7.574,4.372a1.649,1.649,0,0,1,.7,1.708.8.8,0,0,1-1.233.589" transform="translate(-39.715 -40.449)" fill="#d4ecff"/>
            <path id="Trazado_157597" data-name="Trazado 157597" d="M150.395,164.294l-5.446-3.144a1.651,1.651,0,0,1-.7-1.708.8.8,0,0,1,1.234-.589L150.925,162a1.649,1.649,0,0,1,.7,1.708.8.8,0,0,1-1.234.589" transform="translate(-37.089 -40.822)" fill="#d4ecff"/>
            <path id="Trazado_157598" data-name="Trazado 157598" d="M193.555,181.9l-3.5-2.019a1.651,1.651,0,0,1-.7-1.708.8.8,0,0,1,1.234-.589l3.5,2.019a1.65,1.65,0,0,1,.7,1.708.8.8,0,0,1-1.235.589" transform="translate(-48.69 -45.639)" fill="#d4ecff"/>
            <path id="Trazado_157599" data-name="Trazado 157599" d="M171.993,140.044l-9.625-5.557a1.649,1.649,0,0,1-.7-1.708.8.8,0,0,1,1.235-.589l9.625,5.557a1.649,1.649,0,0,1,.7,1.708.8.8,0,0,1-1.234.589" transform="translate(-41.569 -33.964)" fill="#d4ecff"/>
            <path id="Trazado_157600" data-name="Trazado 157600" d="M170.7,131.953l-16.775-9.685a1.649,1.649,0,0,1-.7-1.708.8.8,0,0,1,1.234-.589l16.775,9.685a1.649,1.649,0,0,1,.7,1.708.8.8,0,0,1-1.234.589" transform="translate(-39.397 -30.821)" fill="#d4ecff"/>
            <path id="Trazado_157601" data-name="Trazado 157601" d="M160.557,140.786l-9.625-5.557a1.649,1.649,0,0,1-.7-1.708.8.8,0,0,1,1.235-.589l9.625,5.557a1.649,1.649,0,0,1,.7,1.708.8.8,0,0,1-1.234.589" transform="translate(-38.628 -34.155)" fill="#d4ecff"/>
            <path id="Trazado_157602" data-name="Trazado 157602" d="M183.942,146.943l-3.5-2.019a1.651,1.651,0,0,1-.7-1.708.8.8,0,0,1,1.234-.589l3.5,2.019a1.649,1.649,0,0,1,.7,1.708.8.8,0,0,1-1.234.589" transform="translate(-46.218 -36.648)" fill="#d4ecff"/>
            <path id="Trazado_157603" data-name="Trazado 157603" d="M224.454,140.956,203.746,129a1.65,1.65,0,0,1-.7-1.708.8.8,0,0,1,1.234-.589l20.709,11.956a1.649,1.649,0,0,1,.7,1.708.8.8,0,0,1-1.234.589" transform="translate(-52.21 -32.553)" fill="#d4ecff"/>
            <path id="Trazado_157604" data-name="Trazado 157604" d="M159.511,154.869l-11.57-6.68a1.65,1.65,0,0,1-.7-1.708.8.8,0,0,1,1.235-.59l11.569,6.68a1.649,1.649,0,0,1,.7,1.708.8.8,0,0,1-1.234.589" transform="translate(-37.858 -37.488)" fill="#d4ecff"/>
            <path id="Trazado_157605" data-name="Trazado 157605" d="M160.442,104l-8.506-4.911a1.649,1.649,0,0,1-.7-1.708.8.8,0,0,1,1.234-.589l8.506,4.911a1.649,1.649,0,0,1,.7,1.708.8.8,0,0,1-1.234.589" transform="translate(-38.886 -24.86)" fill="#d4ecff"/>
            <path id="Trazado_157606" data-name="Trazado 157606" d="M146.828,169.579l-9.851-5.688a1.651,1.651,0,0,1-.7-1.708.8.8,0,0,1,1.235-.589l9.851,5.688a1.651,1.651,0,0,1,.7,1.708.8.8,0,0,1-1.235.589" transform="translate(-35.038 -41.527)" fill="#d4ecff"/>
            <path id="Trazado_157607" data-name="Trazado 157607" d="M237.994,198.348l-5.769-3.331a1.648,1.648,0,0,1-.7-1.708.8.8,0,0,1,1.234-.59l5.769,3.331a1.649,1.649,0,0,1,.7,1.708.8.8,0,0,1-1.234.589" transform="translate(-59.535 -49.532)" fill="#d4ecff"/>
            <path id="Trazado_157608" data-name="Trazado 157608" d="M241.758,171.145l-11.01-6.357a1.649,1.649,0,0,1-.7-1.708.8.8,0,0,1,1.235-.59l11.01,6.357a1.649,1.649,0,0,1,.7,1.708.8.8,0,0,1-1.234.589" transform="translate(-59.155 -41.757)" fill="#d4ecff"/>
            <path id="Trazado_157609" data-name="Trazado 157609" d="M231.36,179.829l-3.6-2.081a1.649,1.649,0,0,1-.7-1.708.8.8,0,0,1,1.235-.589l3.6,2.081a1.649,1.649,0,0,1,.7,1.708.8.8,0,0,1-1.234.589" transform="translate(-58.386 -45.09)" fill="#d4ecff"/>
            <path id="Trazado_157610" data-name="Trazado 157610" d="M227.078,192.045l-2.314-1.336a1.652,1.652,0,0,1-.7-1.708.8.8,0,0,1,1.235-.589l2.313,1.336a1.651,1.651,0,0,1,.7,1.708.8.8,0,0,1-1.234.589" transform="translate(-57.616 -48.424)" fill="#d4ecff"/>
            <path id="Trazado_157611" data-name="Trazado 157611" d="M247.32,189.045l-9.625-5.557a1.65,1.65,0,0,1-.7-1.708.8.8,0,0,1,1.235-.589l9.625,5.557a1.651,1.651,0,0,1,.7,1.709.8.8,0,0,1-1.235.589" transform="translate(-60.942 -46.566)" fill="#d4ecff"/>
            <path id="Trazado_157612" data-name="Trazado 157612" d="M246.027,180.954l-16.775-9.686a1.649,1.649,0,0,1-.7-1.708.8.8,0,0,1,1.235-.589l16.775,9.685a1.649,1.649,0,0,1,.7,1.708.8.8,0,0,1-1.234.589" transform="translate(-58.77 -43.424)" fill="#d4ecff"/>
            <path id="Trazado_157613" data-name="Trazado 157613" d="M235.885,189.787l-9.625-5.557a1.649,1.649,0,0,1-.7-1.708.8.8,0,0,1,1.235-.589l9.625,5.557a1.651,1.651,0,0,1,.7,1.708.8.8,0,0,1-1.235.589" transform="translate(-58.001 -46.757)" fill="#d4ecff"/>
            <path id="Trazado_157614" data-name="Trazado 157614" d="M234.838,203.87l-11.57-6.68a1.65,1.65,0,0,1-.7-1.708.8.8,0,0,1,1.234-.59l11.57,6.68a1.649,1.649,0,0,1,.7,1.708.8.8,0,0,1-1.234.589" transform="translate(-57.231 -50.09)" fill="#d4ecff"/>
          </g>
        </g>
      </g>
    </g>
  </g>
</svg>
