<svg xmlns="http://www.w3.org/2000/svg" xmlns:xlink="http://www.w3.org/1999/xlink" width="295" height="238" viewBox="0 0 295 238">
  <defs>
    <linearGradient id="linear-gradient" x1="0.5" x2="0.5" y2="1" gradientUnits="objectBoundingBox">
      <stop offset="0" stop-color="#fff"/>
      <stop offset="1" stop-color="#fff5d6"/>
    </linearGradient>
    <clipPath id="clip-path">
      <rect id="Rectángulo_12346" data-name="Rectángulo 12346" width="211.209" height="227.423" fill="none"/>
    </clipPath>
    <clipPath id="clip-path-3">
      <rect id="Rectángulo_12331" data-name="Rectángulo 12331" width="43.64" height="33.153" fill="none"/>
    </clipPath>
    <clipPath id="clip-path-8">
      <rect id="Rectángulo_12336" data-name="Rectángulo 12336" width="43.64" height="33.152" fill="none"/>
    </clipPath>
  </defs>
  <g id="Grupo_142350" data-name="Grupo 142350" transform="translate(8913 9519.254)">
    <g id="Grupo_142275" data-name="Grupo 142275" transform="translate(-9303 -12025.254)">
      <g id="Grupo_142249" data-name="Grupo 142249" transform="translate(0 26)">
        <ellipse id="Elipse_4052" data-name="Elipse 4052" cx="117" cy="103.5" rx="117" ry="103.5" transform="translate(419 2499.149)" fill="url(#linear-gradient)"/>
        <rect id="Rectángulo_12316" data-name="Rectángulo 12316" width="295" height="238" transform="translate(390 2480)" fill="none"/>
      </g>
    </g>
    <path id="Trazado_157799" data-name="Trazado 157799" d="M-7235.271-9033.508l14.385,11.911-56.643,36.864-16.633-10.789-45.854-15.061s4.271,48.553-42.707,29.222,120.029-61.812,120.029-61.812Z" transform="translate(-1447.057 -313.265)" fill="#b2d3ea" opacity="0.76"/>
    <g id="Grupo_142322" data-name="Grupo 142322" transform="translate(-8877.707 -9514.019)">
      <g id="Grupo_142321" data-name="Grupo 142321" clip-path="url(#clip-path)">
        <g id="Grupo_142320" data-name="Grupo 142320">
          <g id="Grupo_142319" data-name="Grupo 142319" clip-path="url(#clip-path)">
            <path id="Trazado_157615" data-name="Trazado 157615" d="M50.773,140.177h0V29.633L94.72,18.13l8.094-4.673a8.059,8.059,0,0,1,7.248.3l7.552,4.361,23.44-.013L134.114,124.82a2.1,2.1,0,0,1-1.245,1.943L89.013,159.854a8.057,8.057,0,0,1-7.247-.3L52.538,142.679a2.871,2.871,0,0,1-1.766-2.5" transform="translate(7.969 1.999)" fill="#396caa"/>
            <path id="Trazado_157616" data-name="Trazado 157616" d="M101.516,12.738a8.354,8.354,0,0,1,3.885,1.019l7.553,4.361,23.44-.014V128.946a2.1,2.1,0,0,1-1.245,1.943l-50.8,28.965a6.567,6.567,0,0,1-3.363.718L80.464,49.037Z" transform="translate(12.63 1.999)" fill="#d4ecff"/>
            <path id="Trazado_157617" data-name="Trazado 157617" d="M84.207,155.335a8.264,8.264,0,0,1-5.794-.066V42.973h5.794Z" transform="translate(12.308 6.745)" fill="#5793ce"/>
            <path id="Trazado_157618" data-name="Trazado 157618" d="M89.014,51.049l50.8-28.965c1.858-1.073,1.626-2.947-.519-4.185L110.064,1.025a8.059,8.059,0,0,0-7.248-.3L52.019,29.69c-1.858,1.073-1.626,2.946.521,4.184L81.767,50.748a8.053,8.053,0,0,0,7.247.3" transform="translate(7.968 0)" fill="#d4ecff"/>
            <path id="Trazado_157619" data-name="Trazado 157619" d="M52.538,29.213,81.765,46.087a8.053,8.053,0,0,0,7.247.3l50.8-28.965a2.8,2.8,0,0,0,.927-.823,1.946,1.946,0,0,1-.927,2.877l-50.8,28.965a8.053,8.053,0,0,1-7.247-.3L52.538,31.268c-1.667-.961-2.173-2.306-1.447-3.361a4.06,4.06,0,0,0,1.447,1.306" transform="translate(7.969 2.606)" fill="#fafdff"/>
            <path id="Trazado_157620" data-name="Trazado 157620" d="M85.011,38.039l33.819-19.6c.87-.5.76-1.378-.243-1.958L104.91,8.58a3.771,3.771,0,0,0-3.391-.141L67.7,28.044c-.87.5-.76,1.378.243,1.958L81.62,37.9a3.768,3.768,0,0,0,3.391.141" transform="translate(10.534 1.272)" fill="#173d7a"/>
            <path id="Trazado_157621" data-name="Trazado 157621" d="M98.7,18.14l1.96-1.132c.12-.069.105-.191-.034-.271l-1.893-1.092a.518.518,0,0,0-.469-.02l-1.96,1.132c-.12.069-.105.191.034.271l1.892,1.092a.52.52,0,0,0,.47.02" transform="translate(15.104 2.445)" fill="#ff2c9c"/>
            <path id="Trazado_157622" data-name="Trazado 157622" d="M93.041,21.394,95,20.263c.12-.069.105-.191-.034-.271L93.075,18.9a.518.518,0,0,0-.469-.02l-1.96,1.132c-.12.069-.105.191.034.271l1.892,1.092a.524.524,0,0,0,.47.02" transform="translate(14.216 2.956)" fill="#d4ecff"/>
            <path id="Trazado_157623" data-name="Trazado 157623" d="M87.382,24.648l1.96-1.132c.12-.069.105-.191-.034-.271l-1.893-1.092a.518.518,0,0,0-.469-.02l-1.96,1.132c-.12.069-.105.191.034.271l1.892,1.092a.52.52,0,0,0,.47.02" transform="translate(13.327 3.467)" fill="#d4ecff"/>
            <path id="Trazado_157624" data-name="Trazado 157624" d="M81.723,27.9l1.96-1.132c.12-.069.105-.191-.034-.271l-1.893-1.092a.518.518,0,0,0-.469-.02l-1.96,1.132c-.12.069-.105.191.034.271l1.892,1.092a.524.524,0,0,0,.47.02" transform="translate(12.439 3.978)" fill="#d4ecff"/>
            <path id="Trazado_157625" data-name="Trazado 157625" d="M118.83,18.434l-.041.023a2.3,2.3,0,0,0-.2-.14l-13.678-7.9a3.768,3.768,0,0,0-3.391-.14l-33.78,19.58c-.8-.574-.843-1.355-.04-1.819l33.82-19.6a3.771,3.771,0,0,1,3.391.14l13.678,7.9c1,.578,1.112,1.455.243,1.958" transform="translate(10.535 1.271)" fill="#5793ce"/>
            <path id="Trazado_157626" data-name="Trazado 157626" d="M75.5,66.22,56.274,55.211a4.691,4.691,0,0,1-1.959-3.743V44.591c0-1.443.877-2.106,1.959-1.481L75.5,54.12a4.691,4.691,0,0,1,1.959,3.743v6.877c0,1.443-.877,2.106-1.959,1.481" transform="translate(8.526 6.73)" fill="#173d7a"/>
            <path id="Trazado_157627" data-name="Trazado 157627" d="M55.322,42.9a1.92,1.92,0,0,0-.492,1.431v6.876a4.693,4.693,0,0,0,1.959,3.744L76.018,65.958a1.415,1.415,0,0,0,.952.208,1.171,1.171,0,0,1-1.468.05L56.274,55.207a4.689,4.689,0,0,1-1.96-3.743V44.587c0-.979.41-1.586,1.008-1.688" transform="translate(8.526 6.734)" fill="#fff"/>
            <path id="Trazado_157628" data-name="Trazado 157628" d="M67.926,57.152l-1.764-1.018a1.027,1.027,0,0,1-.427-.817V53.434c0-.315.192-.459.427-.323l1.764,1.018a1.024,1.024,0,0,1,.427.816v1.885c0,.315-.191.459-.427.323" transform="translate(10.318 8.328)" fill="#ff2c9c"/>
            <path id="Trazado_157629" data-name="Trazado 157629" d="M62.828,54.209l-1.764-1.018a1.027,1.027,0,0,1-.427-.817V50.491c0-.315.192-.459.427-.323l1.764,1.018a1.024,1.024,0,0,1,.427.816v1.885c0,.315-.191.459-.427.323" transform="translate(9.518 7.866)" fill="#fff"/>
            <path id="Trazado_157630" data-name="Trazado 157630" d="M75.5,109.169,56.274,98.16a4.691,4.691,0,0,1-1.959-3.743V87.54c0-1.443.877-2.106,1.959-1.481L75.5,97.069a4.691,4.691,0,0,1,1.959,3.743v6.877c0,1.443-.877,2.106-1.959,1.481" transform="translate(8.526 13.471)" fill="#173d7a"/>
            <path id="Trazado_157631" data-name="Trazado 157631" d="M55.322,85.847a1.92,1.92,0,0,0-.492,1.431v6.876A4.693,4.693,0,0,0,56.789,97.9l19.229,11.009a1.414,1.414,0,0,0,.952.208,1.171,1.171,0,0,1-1.468.05L56.274,98.155a4.689,4.689,0,0,1-1.96-3.743V87.535c0-.979.41-1.586,1.008-1.688" transform="translate(8.526 13.475)" fill="#fff"/>
            <path id="Trazado_157632" data-name="Trazado 157632" d="M67.926,100.1l-1.764-1.018a1.027,1.027,0,0,1-.427-.817V96.382c0-.315.192-.459.427-.323l1.764,1.018a1.024,1.024,0,0,1,.427.816v1.885c0,.315-.191.459-.427.323" transform="translate(10.318 15.07)" fill="#396caa"/>
            <path id="Trazado_157633" data-name="Trazado 157633" d="M62.828,97.157l-1.764-1.018a1.027,1.027,0,0,1-.427-.816V93.439c0-.315.192-.459.427-.323l1.764,1.018a1.024,1.024,0,0,1,.427.817v1.884c0,.315-.191.459-.427.323" transform="translate(9.518 14.608)" fill="#fff"/>
            <path id="Trazado_157634" data-name="Trazado 157634" d="M75.5,130.643l-19.229-11.01a4.691,4.691,0,0,1-1.959-3.743v-6.877c0-1.443.877-2.106,1.959-1.481L75.5,118.543a4.691,4.691,0,0,1,1.959,3.743v6.877c0,1.443-.877,2.106-1.959,1.481" transform="translate(8.526 16.842)" fill="#173d7a"/>
            <path id="Trazado_157635" data-name="Trazado 157635" d="M55.322,107.321a1.922,1.922,0,0,0-.492,1.431v6.876a4.693,4.693,0,0,0,1.959,3.744L76.018,130.38a1.415,1.415,0,0,0,.952.208,1.171,1.171,0,0,1-1.468.05L56.274,119.63a4.691,4.691,0,0,1-1.96-3.744v-6.877c0-.979.41-1.586,1.008-1.688" transform="translate(8.526 16.845)" fill="#fff"/>
            <path id="Trazado_157636" data-name="Trazado 157636" d="M67.926,121.574l-1.764-1.018a1.027,1.027,0,0,1-.427-.816v-1.885c0-.315.192-.459.427-.323l1.764,1.018a1.024,1.024,0,0,1,.427.816v1.885c0,.315-.191.459-.427.323" transform="translate(10.318 18.44)" fill="#396caa"/>
            <path id="Trazado_157637" data-name="Trazado 157637" d="M62.828,118.631l-1.764-1.018a1.027,1.027,0,0,1-.427-.817v-1.884c0-.315.192-.459.427-.323l1.764,1.018a1.023,1.023,0,0,1,.427.816v1.885c0,.315-.191.459-.427.323" transform="translate(9.518 17.978)" fill="#fff"/>
            <path id="Trazado_157638" data-name="Trazado 157638" d="M75.5,87.694,56.274,76.685a4.691,4.691,0,0,1-1.959-3.743V66.065c0-1.443.877-2.106,1.959-1.481L75.5,75.594a4.691,4.691,0,0,1,1.959,3.743v6.877c0,1.443-.877,2.106-1.959,1.481" transform="translate(8.526 10.1)" fill="#173d7a"/>
            <path id="Trazado_157639" data-name="Trazado 157639" d="M55.322,64.373a1.919,1.919,0,0,0-.492,1.43V72.68a4.693,4.693,0,0,0,1.959,3.744L76.018,87.432a1.407,1.407,0,0,0,.952.207,1.169,1.169,0,0,1-1.468.051L56.274,76.681a4.689,4.689,0,0,1-1.96-3.743V66.061c0-.979.41-1.586,1.008-1.688" transform="translate(8.526 10.104)" fill="#fff"/>
            <path id="Trazado_157640" data-name="Trazado 157640" d="M67.926,78.626l-1.764-1.018a1.027,1.027,0,0,1-.427-.816V74.908c0-.315.192-.459.427-.323L67.926,75.6a1.024,1.024,0,0,1,.427.817V78.3c0,.315-.191.459-.427.323" transform="translate(10.318 11.699)" fill="#396caa"/>
            <path id="Trazado_157641" data-name="Trazado 157641" d="M62.828,75.683l-1.764-1.018a1.027,1.027,0,0,1-.427-.817V71.965c0-.315.192-.459.427-.323l1.764,1.018a1.024,1.024,0,0,1,.427.816V75.36c0,.315-.191.459-.427.323" transform="translate(9.518 11.237)" fill="#fff"/>
            <path id="Trazado_157642" data-name="Trazado 157642" d="M87.267,62.271,131.63,36.658a4.306,4.306,0,0,0,1.8-3.435V24.765c0-1.325-.805-1.933-1.8-1.359L87.267,49.018a4.306,4.306,0,0,0-1.8,3.435v8.459c0,1.325.805,1.932,1.8,1.359" transform="translate(13.416 3.64)" fill="#5793ce"/>
            <g id="Grupo_142279" data-name="Grupo 142279" transform="translate(101.044 29.902)" opacity="0.4">
              <g id="Grupo_142278" data-name="Grupo 142278">
                <g id="Grupo_142277" data-name="Grupo 142277" clip-path="url(#clip-path-3)">
                  <path id="Trazado_157643" data-name="Trazado 157643" d="M88.247,58.888l41.815-24.142A2.181,2.181,0,0,0,130.975,33v-6.36c0-.671-.408-.98-.913-.69L88.247,50.1a2.185,2.185,0,0,0-.912,1.742V58.2c0,.672.408.98.912.69" transform="translate(-87.335 -25.845)" fill="#d4ecff"/>
                </g>
              </g>
            </g>
            <path id="Trazado_157644" data-name="Trazado 157644" d="M116.854,35.933l6.241-3.6a2.12,2.12,0,0,0,.885-1.693c0-.653-.4-.952-.885-.67l-6.241,3.6a2.121,2.121,0,0,0-.886,1.693c0,.653.4.952.886.67" transform="translate(18.203 4.687)" fill="#d4ecff"/>
            <path id="Trazado_157645" data-name="Trazado 157645" d="M112.137,37c0,.653.458.916,1.023.59a2.261,2.261,0,0,0,1.023-1.771c0-.653-.458-.916-1.023-.59A2.261,2.261,0,0,0,112.137,37" transform="translate(17.602 5.508)" fill="#173d7a"/>
            <path id="Trazado_157646" data-name="Trazado 157646" d="M109.019,38.8c0,.653.458.916,1.023.59a2.261,2.261,0,0,0,1.023-1.771c0-.653-.458-.916-1.023-.59a2.261,2.261,0,0,0-1.023,1.771" transform="translate(17.112 5.79)" fill="#173d7a"/>
            <path id="Trazado_157647" data-name="Trazado 157647" d="M105.9,40.6c0,.653.458.916,1.023.59a2.259,2.259,0,0,0,1.023-1.771c0-.653-.458-.916-1.023-.59A2.261,2.261,0,0,0,105.9,40.6" transform="translate(16.623 6.073)" fill="#d4ecff"/>
            <path id="Trazado_157648" data-name="Trazado 157648" d="M102.781,42.4c0,.653.458.916,1.023.59a2.259,2.259,0,0,0,1.023-1.771c0-.653-.458-.916-1.023-.59a2.261,2.261,0,0,0-1.023,1.771" transform="translate(16.133 6.356)" fill="#173d7a"/>
            <path id="Trazado_157649" data-name="Trazado 157649" d="M89.721,52.025l2.1-1.214a1.363,1.363,0,0,0,.568-1.086V47.5c0-.419-.255-.611-.568-.429l-2.1,1.212a1.362,1.362,0,0,0-.569,1.086V51.6c0,.418.255.611.569.429" transform="translate(13.994 7.378)" fill="#173d7a"/>
            <path id="Trazado_157650" data-name="Trazado 157650" d="M87.267,75.164,131.63,49.551a4.306,4.306,0,0,0,1.8-3.435V37.658c0-1.325-.805-1.933-1.8-1.359L87.267,61.911a4.3,4.3,0,0,0-1.8,3.435V73.8c0,1.324.805,1.932,1.8,1.359" transform="translate(13.416 5.664)" fill="#5793ce"/>
            <g id="Grupo_142282" data-name="Grupo 142282" transform="translate(101.044 44.818)" opacity="0.4">
              <g id="Grupo_142281" data-name="Grupo 142281">
                <g id="Grupo_142280" data-name="Grupo 142280" clip-path="url(#clip-path-3)">
                  <path id="Trazado_157651" data-name="Trazado 157651" d="M88.247,71.782,130.062,47.64a2.183,2.183,0,0,0,.913-1.742v-6.36c0-.671-.408-.98-.913-.69L88.247,62.99a2.185,2.185,0,0,0-.912,1.742v6.36c0,.672.408.98.912.69" transform="translate(-87.335 -38.738)" fill="#d4ecff"/>
                </g>
              </g>
            </g>
            <path id="Trazado_157652" data-name="Trazado 157652" d="M116.854,48.826l6.241-3.6a2.12,2.12,0,0,0,.885-1.693c0-.653-.4-.952-.885-.67l-6.241,3.6a2.124,2.124,0,0,0-.886,1.693c0,.653.4.952.886.67" transform="translate(18.203 6.711)" fill="#d4ecff"/>
            <path id="Trazado_157653" data-name="Trazado 157653" d="M112.137,49.894c0,.653.458.916,1.023.59a2.259,2.259,0,0,0,1.023-1.771c0-.653-.458-.916-1.023-.59a2.261,2.261,0,0,0-1.023,1.771" transform="translate(17.602 7.532)" fill="#fff"/>
            <path id="Trazado_157654" data-name="Trazado 157654" d="M109.019,51.694c0,.653.458.916,1.023.59a2.259,2.259,0,0,0,1.023-1.771c0-.653-.458-.916-1.023-.59a2.261,2.261,0,0,0-1.023,1.771" transform="translate(17.112 7.814)" fill="#173d7a"/>
            <path id="Trazado_157655" data-name="Trazado 157655" d="M105.9,53.5c0,.653.458.916,1.023.59a2.259,2.259,0,0,0,1.023-1.771c0-.653-.458-.916-1.023-.59A2.261,2.261,0,0,0,105.9,53.5" transform="translate(16.623 8.097)" fill="#d4ecff"/>
            <path id="Trazado_157656" data-name="Trazado 157656" d="M102.781,55.3c0,.653.458.916,1.023.59a2.261,2.261,0,0,0,1.023-1.771c0-.653-.458-.916-1.023-.59a2.261,2.261,0,0,0-1.023,1.771" transform="translate(16.133 8.379)" fill="#173d7a"/>
            <path id="Trazado_157657" data-name="Trazado 157657" d="M89.721,64.919l2.1-1.214a1.363,1.363,0,0,0,.568-1.086V60.4c0-.419-.255-.611-.568-.429l-2.1,1.214a1.358,1.358,0,0,0-.569,1.085V64.49c0,.418.255.611.569.429" transform="translate(13.994 9.402)" fill="#173d7a"/>
            <path id="Trazado_157658" data-name="Trazado 157658" d="M87.267,88.057,131.63,62.444a4.306,4.306,0,0,0,1.8-3.435V50.551c0-1.325-.805-1.933-1.8-1.359L87.267,74.8a4.306,4.306,0,0,0-1.8,3.435V86.7c0,1.325.805,1.932,1.8,1.359" transform="translate(13.416 7.687)" fill="#5793ce"/>
            <g id="Grupo_142285" data-name="Grupo 142285" transform="translate(101.044 59.735)" opacity="0.4">
              <g id="Grupo_142284" data-name="Grupo 142284">
                <g id="Grupo_142283" data-name="Grupo 142283" clip-path="url(#clip-path-3)">
                  <path id="Trazado_157659" data-name="Trazado 157659" d="M88.247,84.675l41.815-24.142a2.181,2.181,0,0,0,.913-1.742V52.43c0-.671-.408-.98-.913-.69L88.247,75.883a2.185,2.185,0,0,0-.912,1.742v6.36c0,.672.408.98.912.69" transform="translate(-87.335 -51.631)" fill="#d4ecff"/>
                </g>
              </g>
            </g>
            <path id="Trazado_157660" data-name="Trazado 157660" d="M116.854,61.719l6.241-3.6a2.12,2.12,0,0,0,.885-1.693c0-.653-.4-.952-.885-.67l-6.241,3.6a2.123,2.123,0,0,0-.886,1.693c0,.653.4.952.886.67" transform="translate(18.203 8.735)" fill="#d4ecff"/>
            <path id="Trazado_157661" data-name="Trazado 157661" d="M112.137,62.787c0,.653.458.916,1.023.59a2.261,2.261,0,0,0,1.023-1.771c0-.653-.458-.916-1.023-.59a2.261,2.261,0,0,0-1.023,1.771" transform="translate(17.602 9.555)" fill="#fff"/>
            <path id="Trazado_157662" data-name="Trazado 157662" d="M109.019,64.587c0,.653.458.916,1.023.59a2.261,2.261,0,0,0,1.023-1.771c0-.653-.458-.916-1.023-.59a2.261,2.261,0,0,0-1.023,1.771" transform="translate(17.112 9.838)" fill="#173d7a"/>
            <path id="Trazado_157663" data-name="Trazado 157663" d="M105.9,66.388c0,.653.458.916,1.023.59a2.259,2.259,0,0,0,1.023-1.771c0-.653-.458-.916-1.023-.59a2.261,2.261,0,0,0-1.023,1.771" transform="translate(16.623 10.121)" fill="#d4ecff"/>
            <path id="Trazado_157664" data-name="Trazado 157664" d="M102.781,68.188c0,.653.458.916,1.023.59a2.259,2.259,0,0,0,1.023-1.771c0-.653-.458-.916-1.023-.59a2.261,2.261,0,0,0-1.023,1.771" transform="translate(16.133 10.403)" fill="#173d7a"/>
            <path id="Trazado_157665" data-name="Trazado 157665" d="M89.721,77.812l2.1-1.214a1.363,1.363,0,0,0,.568-1.086V73.289c0-.419-.255-.611-.568-.429l-2.1,1.214a1.358,1.358,0,0,0-.569,1.085v2.225c0,.418.255.611.569.429" transform="translate(13.994 11.426)" fill="#173d7a"/>
            <path id="Trazado_157666" data-name="Trazado 157666" d="M87.267,100.95,131.63,75.337a4.306,4.306,0,0,0,1.8-3.435V63.444c0-1.325-.805-1.933-1.8-1.359L87.267,87.7a4.306,4.306,0,0,0-1.8,3.435v8.459c0,1.324.805,1.932,1.8,1.359" transform="translate(13.416 9.711)" fill="#5793ce"/>
            <g id="Grupo_142288" data-name="Grupo 142288" transform="translate(101.044 74.652)" opacity="0.4">
              <g id="Grupo_142287" data-name="Grupo 142287">
                <g id="Grupo_142286" data-name="Grupo 142286" clip-path="url(#clip-path-3)">
                  <path id="Trazado_157667" data-name="Trazado 157667" d="M88.247,97.568l41.815-24.142a2.183,2.183,0,0,0,.913-1.742v-6.36c0-.671-.408-.98-.913-.69L88.247,88.776a2.185,2.185,0,0,0-.912,1.742v6.36c0,.672.408.98.912.69" transform="translate(-87.335 -64.524)" fill="#d4ecff"/>
                </g>
              </g>
            </g>
            <path id="Trazado_157668" data-name="Trazado 157668" d="M116.854,74.612l6.241-3.6a2.12,2.12,0,0,0,.885-1.693c0-.653-.4-.952-.885-.67l-6.241,3.6a2.124,2.124,0,0,0-.886,1.693c0,.653.4.952.886.67" transform="translate(18.203 10.758)" fill="#d4ecff"/>
            <path id="Trazado_157669" data-name="Trazado 157669" d="M112.137,75.68c0,.653.458.916,1.023.59a2.259,2.259,0,0,0,1.023-1.771c0-.653-.458-.916-1.023-.59a2.261,2.261,0,0,0-1.023,1.771" transform="translate(17.602 11.579)" fill="#173d7a"/>
            <path id="Trazado_157670" data-name="Trazado 157670" d="M109.019,77.48c0,.653.458.916,1.023.59a2.259,2.259,0,0,0,1.023-1.771c0-.653-.458-.916-1.023-.59a2.261,2.261,0,0,0-1.023,1.771" transform="translate(17.112 11.862)" fill="#173d7a"/>
            <path id="Trazado_157671" data-name="Trazado 157671" d="M105.9,79.281c0,.653.458.916,1.023.59a2.259,2.259,0,0,0,1.023-1.771c0-.653-.458-.916-1.023-.59a2.261,2.261,0,0,0-1.023,1.771" transform="translate(16.623 12.144)" fill="#d4ecff"/>
            <path id="Trazado_157672" data-name="Trazado 157672" d="M102.781,81.082c0,.653.458.916,1.023.59a2.261,2.261,0,0,0,1.023-1.771c0-.653-.458-.916-1.023-.59a2.261,2.261,0,0,0-1.023,1.771" transform="translate(16.133 12.427)" fill="#173d7a"/>
            <path id="Trazado_157673" data-name="Trazado 157673" d="M89.721,90.705l2.1-1.214a1.363,1.363,0,0,0,.568-1.086V86.182c0-.419-.255-.611-.568-.429l-2.1,1.214a1.359,1.359,0,0,0-.569,1.085v2.225c0,.418.255.611.569.429" transform="translate(13.994 13.449)" fill="#d4ecff"/>
            <path id="Trazado_157674" data-name="Trazado 157674" d="M87.267,113.844,131.63,88.231a4.306,4.306,0,0,0,1.8-3.435V76.338c0-1.325-.805-1.933-1.8-1.359L87.267,100.591a4.306,4.306,0,0,0-1.8,3.435v8.459c0,1.325.805,1.932,1.8,1.359" transform="translate(13.416 11.735)" fill="#5793ce"/>
            <g id="Grupo_142291" data-name="Grupo 142291" transform="translate(101.044 89.569)" opacity="0.4">
              <g id="Grupo_142290" data-name="Grupo 142290">
                <g id="Grupo_142289" data-name="Grupo 142289" clip-path="url(#clip-path-3)">
                  <path id="Trazado_157675" data-name="Trazado 157675" d="M88.247,110.461l41.815-24.142a2.183,2.183,0,0,0,.913-1.742v-6.36c0-.671-.408-.98-.913-.69L88.247,101.669a2.185,2.185,0,0,0-.912,1.742v6.36c0,.671.408.98.912.69" transform="translate(-87.335 -77.417)" fill="#d4ecff"/>
                </g>
              </g>
            </g>
            <path id="Trazado_157676" data-name="Trazado 157676" d="M116.854,87.5l6.241-3.6a2.12,2.12,0,0,0,.885-1.693c0-.653-.4-.952-.885-.67l-6.241,3.6a2.123,2.123,0,0,0-.886,1.693c0,.653.4.952.886.67" transform="translate(18.203 12.782)" fill="#d4ecff"/>
            <path id="Trazado_157677" data-name="Trazado 157677" d="M112.137,88.573c0,.653.458.916,1.023.59a2.261,2.261,0,0,0,1.023-1.771c0-.653-.458-.916-1.023-.59a2.261,2.261,0,0,0-1.023,1.771" transform="translate(17.602 13.603)" fill="#173d7a"/>
            <path id="Trazado_157678" data-name="Trazado 157678" d="M109.019,90.374c0,.653.458.916,1.023.59a2.259,2.259,0,0,0,1.023-1.771c0-.653-.458-.916-1.023-.59a2.261,2.261,0,0,0-1.023,1.771" transform="translate(17.112 13.885)" fill="#fff"/>
            <path id="Trazado_157679" data-name="Trazado 157679" d="M105.9,92.174c0,.653.458.916,1.023.59a2.259,2.259,0,0,0,1.023-1.771c0-.653-.458-.916-1.023-.59a2.261,2.261,0,0,0-1.023,1.771" transform="translate(16.623 14.168)" fill="#d4ecff"/>
            <path id="Trazado_157680" data-name="Trazado 157680" d="M102.781,93.975c0,.653.458.916,1.023.59a2.259,2.259,0,0,0,1.023-1.771c0-.653-.458-.916-1.023-.59a2.261,2.261,0,0,0-1.023,1.771" transform="translate(16.133 14.451)" fill="#fff"/>
            <path id="Trazado_157681" data-name="Trazado 157681" d="M89.721,103.6l2.1-1.214a1.363,1.363,0,0,0,.568-1.086V99.075c0-.419-.255-.611-.568-.429l-2.1,1.214a1.359,1.359,0,0,0-.569,1.085v2.225c0,.418.255.611.569.429" transform="translate(13.994 15.473)" fill="#d4ecff"/>
            <path id="Trazado_157682" data-name="Trazado 157682" d="M87.267,126.737l44.363-25.613a4.306,4.306,0,0,0,1.8-3.435V89.231c0-1.325-.805-1.933-1.8-1.359L87.267,113.484a4.306,4.306,0,0,0-1.8,3.435v8.459c0,1.324.805,1.932,1.8,1.359" transform="translate(13.416 13.759)" fill="#5793ce"/>
            <g id="Grupo_142294" data-name="Grupo 142294" transform="translate(101.044 104.487)" opacity="0.4">
              <g id="Grupo_142293" data-name="Grupo 142293">
                <g id="Grupo_142292" data-name="Grupo 142292" clip-path="url(#clip-path-8)">
                  <path id="Trazado_157683" data-name="Trazado 157683" d="M88.247,123.354l41.815-24.142a2.183,2.183,0,0,0,.913-1.742v-6.36c0-.671-.408-.98-.913-.69L88.247,114.562a2.185,2.185,0,0,0-.912,1.742v6.36c0,.672.408.98.912.69" transform="translate(-87.335 -90.311)" fill="#d4ecff"/>
                </g>
              </g>
            </g>
            <path id="Trazado_157684" data-name="Trazado 157684" d="M116.854,100.4l6.241-3.6a2.12,2.12,0,0,0,.885-1.693c0-.653-.4-.952-.885-.67l-6.241,3.6a2.12,2.12,0,0,0-.886,1.691c0,.653.4.952.886.67" transform="translate(18.203 14.806)" fill="#d4ecff"/>
            <path id="Trazado_157685" data-name="Trazado 157685" d="M112.137,101.466c0,.653.458.916,1.023.59a2.259,2.259,0,0,0,1.023-1.771c0-.653-.458-.916-1.023-.59a2.261,2.261,0,0,0-1.023,1.771" transform="translate(17.602 15.627)" fill="#173d7a"/>
            <path id="Trazado_157686" data-name="Trazado 157686" d="M109.019,103.267c0,.653.458.916,1.023.59a2.259,2.259,0,0,0,1.023-1.771c0-.653-.458-.916-1.023-.59a2.261,2.261,0,0,0-1.023,1.771" transform="translate(17.112 15.909)" fill="#173d7a"/>
            <path id="Trazado_157687" data-name="Trazado 157687" d="M105.9,105.067c0,.653.458.916,1.023.59a2.261,2.261,0,0,0,1.023-1.771c0-.653-.458-.916-1.023-.59a2.261,2.261,0,0,0-1.023,1.771" transform="translate(16.623 16.192)" fill="#d4ecff"/>
            <path id="Trazado_157688" data-name="Trazado 157688" d="M102.781,106.868c0,.653.458.916,1.023.59a2.261,2.261,0,0,0,1.023-1.771c0-.653-.458-.916-1.023-.59a2.261,2.261,0,0,0-1.023,1.771" transform="translate(16.133 16.474)" fill="#173d7a"/>
            <path id="Trazado_157689" data-name="Trazado 157689" d="M89.721,116.491l2.1-1.214a1.363,1.363,0,0,0,.568-1.086v-2.224c0-.419-.255-.611-.568-.429l-2.1,1.214a1.358,1.358,0,0,0-.569,1.085v2.225c0,.418.255.611.569.429" transform="translate(13.994 17.497)" fill="#173d7a"/>
            <path id="Trazado_157690" data-name="Trazado 157690" d="M87.267,139.63l44.363-25.613a4.306,4.306,0,0,0,1.8-3.435v-8.459c0-1.325-.805-1.933-1.8-1.359L87.267,126.377a4.306,4.306,0,0,0-1.8,3.435v8.459c0,1.325.805,1.932,1.8,1.359" transform="translate(13.416 15.782)" fill="#5793ce"/>
            <g id="Grupo_142297" data-name="Grupo 142297" transform="translate(101.044 119.403)" opacity="0.4">
              <g id="Grupo_142296" data-name="Grupo 142296">
                <g id="Grupo_142295" data-name="Grupo 142295" clip-path="url(#clip-path-3)">
                  <path id="Trazado_157691" data-name="Trazado 157691" d="M88.247,136.247,130.062,112.1a2.183,2.183,0,0,0,.913-1.742V104c0-.671-.408-.98-.913-.69L88.247,127.455a2.185,2.185,0,0,0-.912,1.742v6.36c0,.671.408.98.912.69" transform="translate(-87.335 -103.204)" fill="#d4ecff"/>
                </g>
              </g>
            </g>
            <path id="Trazado_157692" data-name="Trazado 157692" d="M116.854,113.291l6.241-3.6A2.12,2.12,0,0,0,123.98,108c0-.653-.4-.952-.885-.67l-6.241,3.6a2.123,2.123,0,0,0-.886,1.693c0,.653.4.952.886.67" transform="translate(18.203 16.83)" fill="#d4ecff"/>
            <path id="Trazado_157693" data-name="Trazado 157693" d="M111.151,115.288c0,1.232.865,1.731,1.932,1.115a4.27,4.27,0,0,0,1.932-3.346c0-1.232-.865-1.732-1.932-1.115a4.27,4.27,0,0,0-1.932,3.346" transform="translate(17.447 17.529)" fill="#fff"/>
            <path id="Trazado_157694" data-name="Trazado 157694" d="M104.692,118.837c0,.653.458.916,1.023.59a2.259,2.259,0,0,0,1.023-1.771c0-.653-.458-.916-1.023-.59a2.261,2.261,0,0,0-1.023,1.771" transform="translate(16.433 18.353)" fill="#173d7a"/>
            <path id="Trazado_157695" data-name="Trazado 157695" d="M101.573,120.637c0,.653.458.916,1.023.59a2.259,2.259,0,0,0,1.023-1.771c0-.653-.458-.916-1.023-.59a2.261,2.261,0,0,0-1.023,1.771" transform="translate(15.944 18.636)" fill="#d4ecff"/>
            <path id="Trazado_157696" data-name="Trazado 157696" d="M98.455,122.438c0,.653.458.916,1.023.59a2.261,2.261,0,0,0,1.023-1.771c0-.653-.458-.916-1.023-.59a2.261,2.261,0,0,0-1.023,1.771" transform="translate(15.454 18.918)" fill="#173d7a"/>
            <path id="Trazado_157697" data-name="Trazado 157697" d="M89.721,129.384l2.1-1.214a1.363,1.363,0,0,0,.568-1.086v-2.224c0-.419-.255-.611-.568-.429l-2.1,1.214a1.358,1.358,0,0,0-.569,1.085v2.225c0,.418.255.611.569.429" transform="translate(13.994 19.52)" fill="#d4ecff"/>
            <path id="Trazado_157698" data-name="Trazado 157698" d="M104.513,176.167h0V65.623l43.947-11.5,8.094-4.673a8.059,8.059,0,0,1,7.248.3l7.552,4.361,23.44-.013L187.854,160.81a2.1,2.1,0,0,1-1.245,1.943l-43.856,33.091a8.056,8.056,0,0,1-7.247-.3l-29.227-16.874a2.871,2.871,0,0,1-1.766-2.5" transform="translate(16.404 7.648)" fill="#396caa"/>
            <path id="Trazado_157699" data-name="Trazado 157699" d="M155.256,48.728a8.354,8.354,0,0,1,3.885,1.019l7.553,4.361,23.44-.014V164.936a2.1,2.1,0,0,1-1.245,1.943l-50.8,28.965a6.568,6.568,0,0,1-3.363.718L134.2,85.027Z" transform="translate(21.066 7.649)" fill="#d4ecff"/>
            <path id="Trazado_157700" data-name="Trazado 157700" d="M137.947,191.325a8.264,8.264,0,0,1-5.794-.066V78.963h5.794Z" transform="translate(20.744 12.394)" fill="#5793ce"/>
            <path id="Trazado_157701" data-name="Trazado 157701" d="M142.753,87.039l50.8-28.965c1.858-1.073,1.626-2.946-.519-4.185L163.8,37.015a8.059,8.059,0,0,0-7.248-.3l-50.8,28.966c-1.858,1.072-1.626,2.946.521,4.184l29.227,16.874a8.053,8.053,0,0,0,7.247.3" transform="translate(16.404 5.649)" fill="#d4ecff"/>
            <path id="Trazado_157702" data-name="Trazado 157702" d="M106.278,65.2l29.227,16.874a8.053,8.053,0,0,0,7.247.3l50.8-28.965a2.8,2.8,0,0,0,.927-.823,1.946,1.946,0,0,1-.927,2.877l-50.8,28.965a8.053,8.053,0,0,1-7.247-.3L106.278,67.258c-1.667-.961-2.173-2.306-1.447-3.361a4.06,4.06,0,0,0,1.447,1.306" transform="translate(16.404 8.255)" fill="#fafdff"/>
            <path id="Trazado_157703" data-name="Trazado 157703" d="M138.75,74.029l33.819-19.6c.87-.5.76-1.378-.243-1.958l-13.678-7.9a3.771,3.771,0,0,0-3.391-.141l-33.819,19.6c-.87.5-.76,1.378.243,1.958l13.678,7.9a3.768,3.768,0,0,0,3.391.141" transform="translate(18.97 6.921)" fill="#173d7a"/>
            <path id="Trazado_157704" data-name="Trazado 157704" d="M152.439,54.13,154.4,53c.12-.069.105-.19-.034-.27l-1.893-1.092a.514.514,0,0,0-.469-.02l-1.96,1.132c-.12.068-.105.19.034.27l1.892,1.092a.513.513,0,0,0,.47.02" transform="translate(23.539 8.095)" fill="#ff2c9c"/>
            <path id="Trazado_157705" data-name="Trazado 157705" d="M146.78,57.384l1.96-1.132c.12-.069.105-.191-.034-.271l-1.893-1.092a.518.518,0,0,0-.469-.02L144.385,56c-.12.069-.105.191.034.271l1.892,1.092a.524.524,0,0,0,.47.02" transform="translate(22.651 8.605)" fill="#d4ecff"/>
            <path id="Trazado_157706" data-name="Trazado 157706" d="M141.122,60.638l1.959-1.132c.12-.069.105-.191-.032-.271l-1.894-1.092a.515.515,0,0,0-.467-.02l-1.961,1.132c-.12.069-.105.191.035.271l1.892,1.092a.52.52,0,0,0,.47.02" transform="translate(21.763 9.116)" fill="#d4ecff"/>
            <path id="Trazado_157707" data-name="Trazado 157707" d="M135.463,63.892l1.96-1.132c.12-.069.105-.191-.034-.271L135.5,61.4a.518.518,0,0,0-.469-.02l-1.96,1.132c-.12.069-.105.191.034.271l1.892,1.092a.524.524,0,0,0,.47.02" transform="translate(20.875 9.627)" fill="#d4ecff"/>
            <path id="Trazado_157708" data-name="Trazado 157708" d="M172.569,54.425l-.04.023a2.3,2.3,0,0,0-.2-.14l-13.678-7.9a3.767,3.767,0,0,0-3.391-.14l-33.78,19.58c-.8-.574-.843-1.355-.04-1.819l33.82-19.6a3.771,3.771,0,0,1,3.391.14l13.678,7.9c1,.578,1.112,1.455.243,1.958" transform="translate(18.97 6.921)" fill="#5793ce"/>
            <path id="Trazado_157709" data-name="Trazado 157709" d="M129.242,102.21,110.013,91.2a4.691,4.691,0,0,1-1.959-3.743V80.581c0-1.443.877-2.106,1.959-1.481l19.229,11.01a4.691,4.691,0,0,1,1.959,3.743v6.877c0,1.443-.877,2.106-1.959,1.481" transform="translate(16.961 12.379)" fill="#173d7a"/>
            <path id="Trazado_157710" data-name="Trazado 157710" d="M109.062,78.889a1.92,1.92,0,0,0-.492,1.431V87.2a4.694,4.694,0,0,0,1.959,3.744l19.229,11.009a1.414,1.414,0,0,0,.952.208,1.171,1.171,0,0,1-1.468.05L110.014,91.2a4.689,4.689,0,0,1-1.96-3.743V80.577c0-.979.41-1.586,1.008-1.688" transform="translate(16.961 12.383)" fill="#fff"/>
            <path id="Trazado_157711" data-name="Trazado 157711" d="M121.665,93.142,119.9,92.124a1.027,1.027,0,0,1-.427-.817V89.424c0-.315.192-.459.427-.323l1.764,1.018a1.024,1.024,0,0,1,.427.816v1.885c0,.315-.191.459-.427.323" transform="translate(18.753 13.978)" fill="#ff2c9c"/>
            <path id="Trazado_157712" data-name="Trazado 157712" d="M116.568,90.2,114.8,89.181a1.027,1.027,0,0,1-.427-.817V86.481c0-.315.192-.459.427-.323l1.764,1.018a1.023,1.023,0,0,1,.427.816v1.885c0,.315-.191.459-.427.323" transform="translate(17.953 13.516)" fill="#fff"/>
            <path id="Trazado_157713" data-name="Trazado 157713" d="M129.242,145.159l-19.229-11.01a4.691,4.691,0,0,1-1.959-3.743V123.53c0-1.443.877-2.106,1.959-1.481l19.229,11.01A4.691,4.691,0,0,1,131.2,136.8v6.877c0,1.443-.877,2.106-1.959,1.481" transform="translate(16.961 19.12)" fill="#173d7a"/>
            <path id="Trazado_157714" data-name="Trazado 157714" d="M109.062,121.838a1.92,1.92,0,0,0-.492,1.431v6.876a4.693,4.693,0,0,0,1.959,3.744L129.758,144.9a1.414,1.414,0,0,0,.952.208,1.171,1.171,0,0,1-1.468.05l-19.228-11.01a4.689,4.689,0,0,1-1.96-3.743v-6.877c0-.979.41-1.586,1.008-1.688" transform="translate(16.961 19.124)" fill="#fff"/>
            <path id="Trazado_157715" data-name="Trazado 157715" d="M121.665,136.09l-1.764-1.018a1.027,1.027,0,0,1-.427-.817v-1.884c0-.315.192-.459.427-.323l1.764,1.018a1.023,1.023,0,0,1,.427.816v1.885c0,.315-.191.459-.427.323" transform="translate(18.753 20.719)" fill="#396caa"/>
            <path id="Trazado_157716" data-name="Trazado 157716" d="M116.568,133.147l-1.764-1.018a1.027,1.027,0,0,1-.427-.816v-1.885c0-.315.192-.459.427-.323l1.764,1.018a1.024,1.024,0,0,1,.427.817v1.884c0,.315-.191.459-.427.323" transform="translate(17.953 20.257)" fill="#fff"/>
            <path id="Trazado_157717" data-name="Trazado 157717" d="M129.242,166.633l-19.229-11.01a4.691,4.691,0,0,1-1.959-3.743V145c0-1.443.877-2.106,1.959-1.481l19.229,11.01a4.691,4.691,0,0,1,1.959,3.743v6.877c0,1.443-.877,2.106-1.959,1.481" transform="translate(16.961 22.491)" fill="#173d7a"/>
            <path id="Trazado_157718" data-name="Trazado 157718" d="M109.062,143.312a1.922,1.922,0,0,0-.492,1.431v6.876a4.693,4.693,0,0,0,1.959,3.744l19.229,11.009a1.414,1.414,0,0,0,.952.208,1.171,1.171,0,0,1-1.468.05l-19.228-11.008a4.691,4.691,0,0,1-1.96-3.744V145c0-.979.41-1.586,1.008-1.688" transform="translate(16.961 22.495)" fill="#fff"/>
            <path id="Trazado_157719" data-name="Trazado 157719" d="M121.665,157.565l-1.764-1.018a1.027,1.027,0,0,1-.427-.816v-1.885c0-.315.192-.459.427-.323l1.764,1.018a1.024,1.024,0,0,1,.427.816v1.885c0,.315-.191.459-.427.323" transform="translate(18.753 24.09)" fill="#396caa"/>
            <path id="Trazado_157720" data-name="Trazado 157720" d="M116.568,154.621,114.8,153.6a1.027,1.027,0,0,1-.427-.817V150.9c0-.315.192-.459.427-.323l1.764,1.018a1.023,1.023,0,0,1,.427.816V154.3c0,.315-.191.459-.427.323" transform="translate(17.953 23.628)" fill="#fff"/>
            <path id="Trazado_157721" data-name="Trazado 157721" d="M129.242,123.685l-19.229-11.01a4.691,4.691,0,0,1-1.959-3.743v-6.877c0-1.443.877-2.106,1.959-1.481l19.229,11.01a4.691,4.691,0,0,1,1.959,3.743V122.2c0,1.443-.877,2.106-1.959,1.481" transform="translate(16.961 15.75)" fill="#173d7a"/>
            <path id="Trazado_157722" data-name="Trazado 157722" d="M109.062,100.364a1.919,1.919,0,0,0-.492,1.43v6.877a4.693,4.693,0,0,0,1.959,3.744l19.229,11.009a1.406,1.406,0,0,0,.952.207,1.169,1.169,0,0,1-1.468.051l-19.228-11.01a4.689,4.689,0,0,1-1.96-3.743v-6.877c0-.979.41-1.586,1.008-1.688" transform="translate(16.961 15.753)" fill="#fff"/>
            <path id="Trazado_157723" data-name="Trazado 157723" d="M121.665,114.616,119.9,113.6a1.027,1.027,0,0,1-.427-.816V110.9c0-.315.192-.459.427-.323l1.764,1.018a1.024,1.024,0,0,1,.427.817v1.884c0,.315-.191.459-.427.323" transform="translate(18.753 17.348)" fill="#396caa"/>
            <path id="Trazado_157724" data-name="Trazado 157724" d="M116.568,111.673l-1.764-1.018a1.027,1.027,0,0,1-.427-.817v-1.884c0-.315.192-.459.427-.323l1.764,1.018a1.024,1.024,0,0,1,.427.816v1.885c0,.315-.191.459-.427.323" transform="translate(17.953 16.886)" fill="#fff"/>
            <path id="Trazado_157725" data-name="Trazado 157725" d="M141.006,98.261l44.363-25.613a4.306,4.306,0,0,0,1.8-3.435V60.755c0-1.325-.805-1.933-1.8-1.359L141.006,85.008a4.306,4.306,0,0,0-1.8,3.435V96.9c0,1.325.805,1.932,1.8,1.359" transform="translate(21.851 9.289)" fill="#5793ce"/>
            <g id="Grupo_142300" data-name="Grupo 142300" transform="translate(163.219 71.541)" opacity="0.4">
              <g id="Grupo_142299" data-name="Grupo 142299">
                <g id="Grupo_142298" data-name="Grupo 142298" clip-path="url(#clip-path-3)">
                  <path id="Trazado_157726" data-name="Trazado 157726" d="M141.987,94.879,183.8,70.737a2.181,2.181,0,0,0,.913-1.742v-6.36c0-.671-.408-.98-.913-.69L141.987,86.087a2.185,2.185,0,0,0-.912,1.742v6.36c0,.672.408.98.912.69" transform="translate(-141.075 -61.835)" fill="#d4ecff"/>
                </g>
              </g>
            </g>
            <path id="Trazado_157727" data-name="Trazado 157727" d="M170.593,71.923l6.241-3.6a2.12,2.12,0,0,0,.885-1.693c0-.653-.4-.952-.885-.67l-6.241,3.6a2.121,2.121,0,0,0-.886,1.693c0,.653.4.952.886.67" transform="translate(26.638 10.336)" fill="#d4ecff"/>
            <path id="Trazado_157728" data-name="Trazado 157728" d="M165.877,72.991c0,.653.458.916,1.023.59a2.261,2.261,0,0,0,1.023-1.771c0-.653-.458-.916-1.023-.59a2.261,2.261,0,0,0-1.023,1.771" transform="translate(26.037 11.157)" fill="#173d7a"/>
            <path id="Trazado_157729" data-name="Trazado 157729" d="M162.758,74.791c0,.653.458.916,1.023.59A2.261,2.261,0,0,0,164.8,73.61c0-.653-.458-.916-1.023-.59a2.261,2.261,0,0,0-1.023,1.771" transform="translate(25.548 11.44)" fill="#173d7a"/>
            <path id="Trazado_157730" data-name="Trazado 157730" d="M159.639,76.592c0,.653.458.916,1.023.59a2.259,2.259,0,0,0,1.023-1.771c0-.653-.458-.916-1.023-.59a2.261,2.261,0,0,0-1.023,1.771" transform="translate(25.058 11.722)" fill="#d4ecff"/>
            <path id="Trazado_157731" data-name="Trazado 157731" d="M156.521,78.392c0,.654.458.917,1.023.591a2.259,2.259,0,0,0,1.023-1.771c0-.653-.458-.916-1.023-.59a2.261,2.261,0,0,0-1.023,1.77" transform="translate(24.569 12.005)" fill="#173d7a"/>
            <path id="Trazado_157732" data-name="Trazado 157732" d="M143.46,88.016l2.1-1.214a1.363,1.363,0,0,0,.568-1.086V83.493c0-.419-.255-.611-.568-.429l-2.1,1.214a1.361,1.361,0,0,0-.568,1.085v2.225c0,.418.255.611.568.429" transform="translate(22.429 13.027)" fill="#173d7a"/>
            <path id="Trazado_157733" data-name="Trazado 157733" d="M141.006,111.155l44.363-25.613a4.306,4.306,0,0,0,1.8-3.435V73.649c0-1.325-.805-1.933-1.8-1.359L141.006,97.9a4.3,4.3,0,0,0-1.8,3.435V109.8c0,1.324.805,1.932,1.8,1.359" transform="translate(21.851 11.313)" fill="#5793ce"/>
            <g id="Grupo_142303" data-name="Grupo 142303" transform="translate(163.219 86.458)" opacity="0.4">
              <g id="Grupo_142302" data-name="Grupo 142302">
                <g id="Grupo_142301" data-name="Grupo 142301" clip-path="url(#clip-path-3)">
                  <path id="Trazado_157734" data-name="Trazado 157734" d="M141.987,107.772,183.8,83.63a2.183,2.183,0,0,0,.913-1.742v-6.36c0-.671-.408-.98-.913-.69L141.987,98.98a2.185,2.185,0,0,0-.912,1.742v6.36c0,.672.408.98.912.69" transform="translate(-141.075 -74.728)" fill="#d4ecff"/>
                </g>
              </g>
            </g>
            <path id="Trazado_157735" data-name="Trazado 157735" d="M170.593,84.816l6.241-3.6a2.12,2.12,0,0,0,.885-1.693c0-.653-.4-.952-.885-.67l-6.241,3.6a2.124,2.124,0,0,0-.886,1.693c0,.653.4.952.886.67" transform="translate(26.638 12.36)" fill="#d4ecff"/>
            <path id="Trazado_157736" data-name="Trazado 157736" d="M165.877,85.884c0,.653.458.916,1.023.59a2.259,2.259,0,0,0,1.023-1.771c0-.653-.458-.916-1.023-.59a2.261,2.261,0,0,0-1.023,1.771" transform="translate(26.037 13.181)" fill="#fff"/>
            <path id="Trazado_157737" data-name="Trazado 157737" d="M162.758,87.684c0,.654.458.917,1.023.591A2.259,2.259,0,0,0,164.8,86.5c0-.654-.458-.916-1.023-.59a2.261,2.261,0,0,0-1.023,1.77" transform="translate(25.548 13.463)" fill="#173d7a"/>
            <path id="Trazado_157738" data-name="Trazado 157738" d="M159.639,89.485c0,.653.458.916,1.023.59a2.259,2.259,0,0,0,1.023-1.771c0-.653-.458-.916-1.023-.59a2.261,2.261,0,0,0-1.023,1.771" transform="translate(25.058 13.746)" fill="#d4ecff"/>
            <path id="Trazado_157739" data-name="Trazado 157739" d="M156.521,91.286c0,.653.458.916,1.023.59a2.261,2.261,0,0,0,1.023-1.771c0-.653-.458-.916-1.023-.59a2.261,2.261,0,0,0-1.023,1.771" transform="translate(24.569 14.029)" fill="#173d7a"/>
            <path id="Trazado_157740" data-name="Trazado 157740" d="M143.46,100.909l2.1-1.214a1.363,1.363,0,0,0,.568-1.086V96.386c0-.419-.255-.611-.568-.429l-2.1,1.214a1.361,1.361,0,0,0-.568,1.085v2.225c0,.418.255.611.568.429" transform="translate(22.429 15.051)" fill="#173d7a"/>
            <path id="Trazado_157741" data-name="Trazado 157741" d="M141.006,124.048l44.363-25.613a4.306,4.306,0,0,0,1.8-3.435V86.542c0-1.325-.805-1.933-1.8-1.359L141.006,110.8a4.306,4.306,0,0,0-1.8,3.435v8.459c0,1.325.805,1.932,1.8,1.359" transform="translate(21.851 13.337)" fill="#5793ce"/>
            <g id="Grupo_142306" data-name="Grupo 142306" transform="translate(163.219 101.375)" opacity="0.4">
              <g id="Grupo_142305" data-name="Grupo 142305">
                <g id="Grupo_142304" data-name="Grupo 142304" clip-path="url(#clip-path-8)">
                  <path id="Trazado_157742" data-name="Trazado 157742" d="M141.987,120.665,183.8,96.523a2.183,2.183,0,0,0,.913-1.742V88.42c0-.671-.408-.98-.913-.69l-41.815,24.142a2.185,2.185,0,0,0-.912,1.742v6.36c0,.672.408.98.912.69" transform="translate(-141.075 -87.622)" fill="#d4ecff"/>
                </g>
              </g>
            </g>
            <path id="Trazado_157743" data-name="Trazado 157743" d="M170.593,97.709l6.241-3.6a2.12,2.12,0,0,0,.885-1.693c0-.653-.4-.952-.885-.67l-6.241,3.6a2.123,2.123,0,0,0-.886,1.693c0,.653.4.952.886.67" transform="translate(26.638 14.384)" fill="#d4ecff"/>
            <path id="Trazado_157744" data-name="Trazado 157744" d="M165.877,98.777c0,.653.458.916,1.023.59a2.261,2.261,0,0,0,1.023-1.771c0-.653-.458-.916-1.023-.59a2.261,2.261,0,0,0-1.023,1.771" transform="translate(26.037 15.204)" fill="#fff"/>
            <path id="Trazado_157745" data-name="Trazado 157745" d="M162.758,100.578c0,.653.458.916,1.023.59A2.261,2.261,0,0,0,164.8,99.4c0-.653-.458-.916-1.023-.59a2.261,2.261,0,0,0-1.023,1.771" transform="translate(25.548 15.487)" fill="#173d7a"/>
            <path id="Trazado_157746" data-name="Trazado 157746" d="M159.639,102.378c0,.653.458.916,1.023.59a2.259,2.259,0,0,0,1.023-1.771c0-.653-.458-.916-1.023-.59a2.261,2.261,0,0,0-1.023,1.771" transform="translate(25.058 15.77)" fill="#d4ecff"/>
            <path id="Trazado_157747" data-name="Trazado 157747" d="M156.521,104.179c0,.653.458.916,1.023.59A2.259,2.259,0,0,0,158.567,103c0-.653-.458-.916-1.023-.59a2.261,2.261,0,0,0-1.023,1.771" transform="translate(24.569 16.052)" fill="#173d7a"/>
            <path id="Trazado_157748" data-name="Trazado 157748" d="M143.46,113.8l2.1-1.214a1.363,1.363,0,0,0,.568-1.086v-2.224c0-.419-.255-.611-.568-.429l-2.1,1.214a1.361,1.361,0,0,0-.568,1.085v2.225c0,.418.255.611.568.429" transform="translate(22.429 17.075)" fill="#173d7a"/>
            <path id="Trazado_157749" data-name="Trazado 157749" d="M141.006,136.941l44.363-25.613a4.306,4.306,0,0,0,1.8-3.435V99.435c0-1.325-.805-1.933-1.8-1.359l-44.363,25.613a4.306,4.306,0,0,0-1.8,3.435v8.459c0,1.324.805,1.932,1.8,1.359" transform="translate(21.851 15.36)" fill="#5793ce"/>
            <g id="Grupo_142309" data-name="Grupo 142309" transform="translate(163.219 116.292)" opacity="0.4">
              <g id="Grupo_142308" data-name="Grupo 142308">
                <g id="Grupo_142307" data-name="Grupo 142307" clip-path="url(#clip-path-3)">
                  <path id="Trazado_157750" data-name="Trazado 157750" d="M141.987,133.558,183.8,109.416a2.183,2.183,0,0,0,.913-1.742v-6.36c0-.671-.408-.98-.913-.69l-41.815,24.142a2.185,2.185,0,0,0-.912,1.742v6.36c0,.672.408.98.912.69" transform="translate(-141.075 -100.515)" fill="#d4ecff"/>
                </g>
              </g>
            </g>
            <path id="Trazado_157751" data-name="Trazado 157751" d="M170.593,110.6l6.241-3.6a2.12,2.12,0,0,0,.885-1.693c0-.653-.4-.952-.885-.67l-6.241,3.6a2.124,2.124,0,0,0-.886,1.693c0,.653.4.952.886.67" transform="translate(26.638 16.407)" fill="#d4ecff"/>
            <path id="Trazado_157752" data-name="Trazado 157752" d="M165.877,111.67c0,.653.458.916,1.023.59a2.259,2.259,0,0,0,1.023-1.771c0-.653-.458-.916-1.023-.59a2.261,2.261,0,0,0-1.023,1.771" transform="translate(26.037 17.228)" fill="#173d7a"/>
            <path id="Trazado_157753" data-name="Trazado 157753" d="M162.758,113.471c0,.653.458.916,1.023.59a2.259,2.259,0,0,0,1.023-1.771c0-.653-.458-.916-1.023-.59a2.261,2.261,0,0,0-1.023,1.771" transform="translate(25.548 17.511)" fill="#173d7a"/>
            <path id="Trazado_157754" data-name="Trazado 157754" d="M159.639,115.271c0,.653.458.916,1.023.59a2.259,2.259,0,0,0,1.023-1.771c0-.653-.458-.916-1.023-.59a2.261,2.261,0,0,0-1.023,1.771" transform="translate(25.058 17.793)" fill="#d4ecff"/>
            <path id="Trazado_157755" data-name="Trazado 157755" d="M156.521,117.072c0,.653.458.916,1.023.59a2.261,2.261,0,0,0,1.023-1.771c0-.653-.458-.916-1.023-.59a2.261,2.261,0,0,0-1.023,1.771" transform="translate(24.569 18.076)" fill="#173d7a"/>
            <path id="Trazado_157756" data-name="Trazado 157756" d="M143.46,126.7l2.1-1.214a1.363,1.363,0,0,0,.568-1.086v-2.224c0-.419-.255-.611-.568-.429l-2.1,1.214a1.361,1.361,0,0,0-.568,1.085v2.225c0,.418.255.611.568.429" transform="translate(22.429 19.098)" fill="#d4ecff"/>
            <path id="Trazado_157757" data-name="Trazado 157757" d="M141.006,149.834l44.363-25.613a4.306,4.306,0,0,0,1.8-3.435v-8.459c0-1.325-.805-1.933-1.8-1.359l-44.363,25.613a4.306,4.306,0,0,0-1.8,3.435v8.459c0,1.325.805,1.932,1.8,1.359" transform="translate(21.851 17.384)" fill="#5793ce"/>
            <g id="Grupo_142312" data-name="Grupo 142312" transform="translate(163.219 131.209)" opacity="0.4">
              <g id="Grupo_142311" data-name="Grupo 142311">
                <g id="Grupo_142310" data-name="Grupo 142310" clip-path="url(#clip-path-3)">
                  <path id="Trazado_157758" data-name="Trazado 157758" d="M141.987,146.451,183.8,122.309a2.183,2.183,0,0,0,.913-1.742v-6.36c0-.671-.408-.98-.913-.69l-41.815,24.142a2.185,2.185,0,0,0-.912,1.742v6.36c0,.671.408.98.912.69" transform="translate(-141.075 -113.408)" fill="#d4ecff"/>
                </g>
              </g>
            </g>
            <path id="Trazado_157759" data-name="Trazado 157759" d="M170.593,123.495l6.241-3.6a2.12,2.12,0,0,0,.885-1.693c0-.653-.4-.952-.885-.67l-6.241,3.6a2.123,2.123,0,0,0-.886,1.693c0,.653.4.952.886.67" transform="translate(26.638 18.431)" fill="#d4ecff"/>
            <path id="Trazado_157760" data-name="Trazado 157760" d="M165.877,124.563c0,.653.458.916,1.023.59a2.261,2.261,0,0,0,1.023-1.771c0-.653-.458-.916-1.023-.59a2.261,2.261,0,0,0-1.023,1.771" transform="translate(26.037 19.252)" fill="#173d7a"/>
            <path id="Trazado_157761" data-name="Trazado 157761" d="M162.758,126.364c0,.653.458.916,1.023.59a2.259,2.259,0,0,0,1.023-1.771c0-.653-.458-.916-1.023-.59a2.261,2.261,0,0,0-1.023,1.771" transform="translate(25.548 19.535)" fill="#fff"/>
            <path id="Trazado_157762" data-name="Trazado 157762" d="M159.639,128.165c0,.653.458.916,1.023.59a2.259,2.259,0,0,0,1.023-1.771c0-.653-.458-.916-1.023-.59a2.261,2.261,0,0,0-1.023,1.771" transform="translate(25.058 19.817)" fill="#d4ecff"/>
            <path id="Trazado_157763" data-name="Trazado 157763" d="M156.521,129.965c0,.653.458.916,1.023.59a2.259,2.259,0,0,0,1.023-1.771c0-.652-.458-.916-1.023-.59a2.261,2.261,0,0,0-1.023,1.771" transform="translate(24.569 20.1)" fill="#fff"/>
            <path id="Trazado_157764" data-name="Trazado 157764" d="M143.46,139.588l2.1-1.214a1.363,1.363,0,0,0,.568-1.086v-2.224c0-.419-.255-.611-.568-.429l-2.1,1.214a1.361,1.361,0,0,0-.568,1.085v2.225c0,.418.255.611.568.429" transform="translate(22.429 21.122)" fill="#d4ecff"/>
            <path id="Trazado_157765" data-name="Trazado 157765" d="M141.006,162.727l44.363-25.613a4.306,4.306,0,0,0,1.8-3.435v-8.459c0-1.325-.805-1.933-1.8-1.359l-44.363,25.613a4.306,4.306,0,0,0-1.8,3.435v8.459c0,1.324.805,1.932,1.8,1.359" transform="translate(21.851 19.408)" fill="#5793ce"/>
            <g id="Grupo_142315" data-name="Grupo 142315" transform="translate(163.219 146.126)" opacity="0.4">
              <g id="Grupo_142314" data-name="Grupo 142314">
                <g id="Grupo_142313" data-name="Grupo 142313" clip-path="url(#clip-path-3)">
                  <path id="Trazado_157766" data-name="Trazado 157766" d="M141.987,159.344,183.8,135.2a2.183,2.183,0,0,0,.913-1.742V127.1c0-.671-.408-.98-.913-.69l-41.815,24.142a2.185,2.185,0,0,0-.912,1.742v6.36c0,.672.408.98.912.69" transform="translate(-141.075 -126.301)" fill="#d4ecff"/>
                </g>
              </g>
            </g>
            <path id="Trazado_157767" data-name="Trazado 157767" d="M170.593,136.388l6.241-3.6a2.12,2.12,0,0,0,.885-1.693c0-.653-.4-.952-.885-.67l-6.241,3.6a2.121,2.121,0,0,0-.886,1.691c0,.653.4.952.886.67" transform="translate(26.638 20.455)" fill="#d4ecff"/>
            <path id="Trazado_157768" data-name="Trazado 157768" d="M165.877,137.456c0,.653.458.916,1.023.59a2.259,2.259,0,0,0,1.023-1.771c0-.653-.458-.916-1.023-.59a2.261,2.261,0,0,0-1.023,1.771" transform="translate(26.037 21.276)" fill="#173d7a"/>
            <path id="Trazado_157769" data-name="Trazado 157769" d="M162.758,139.257c0,.653.458.916,1.023.59a2.259,2.259,0,0,0,1.023-1.771c0-.653-.458-.916-1.023-.59a2.261,2.261,0,0,0-1.023,1.771" transform="translate(25.548 21.558)" fill="#173d7a"/>
            <path id="Trazado_157770" data-name="Trazado 157770" d="M159.639,141.058c0,.653.458.916,1.023.59a2.261,2.261,0,0,0,1.023-1.771c0-.653-.458-.916-1.023-.59a2.261,2.261,0,0,0-1.023,1.771" transform="translate(25.058 21.841)" fill="#d4ecff"/>
            <path id="Trazado_157771" data-name="Trazado 157771" d="M156.521,142.858c0,.653.458.916,1.023.59a2.261,2.261,0,0,0,1.023-1.771c0-.653-.458-.916-1.023-.59a2.261,2.261,0,0,0-1.023,1.771" transform="translate(24.569 22.124)" fill="#173d7a"/>
            <path id="Trazado_157772" data-name="Trazado 157772" d="M143.46,152.481l2.1-1.214a1.363,1.363,0,0,0,.568-1.086v-2.224c0-.419-.255-.611-.568-.429l-2.1,1.214a1.361,1.361,0,0,0-.568,1.085v2.225c0,.418.255.611.568.429" transform="translate(22.429 23.146)" fill="#173d7a"/>
            <path id="Trazado_157773" data-name="Trazado 157773" d="M141.006,175.62l44.363-25.613a4.306,4.306,0,0,0,1.8-3.435v-8.459c0-1.325-.805-1.933-1.8-1.359l-44.363,25.613a4.306,4.306,0,0,0-1.8,3.435v8.459c0,1.325.805,1.932,1.8,1.359" transform="translate(21.851 21.432)" fill="#5793ce"/>
            <g id="Grupo_142318" data-name="Grupo 142318" transform="translate(163.219 161.043)" opacity="0.4">
              <g id="Grupo_142317" data-name="Grupo 142317">
                <g id="Grupo_142316" data-name="Grupo 142316" clip-path="url(#clip-path-3)">
                  <path id="Trazado_157774" data-name="Trazado 157774" d="M141.987,172.238,183.8,148.1a2.183,2.183,0,0,0,.913-1.742v-6.36c0-.671-.408-.98-.913-.69l-41.815,24.142a2.185,2.185,0,0,0-.912,1.742v6.36c0,.671.408.98.912.69" transform="translate(-141.075 -139.194)" fill="#d4ecff"/>
                </g>
              </g>
            </g>
            <path id="Trazado_157775" data-name="Trazado 157775" d="M170.593,149.282l6.241-3.6a2.12,2.12,0,0,0,.885-1.693c0-.653-.4-.952-.885-.67l-6.241,3.6a2.123,2.123,0,0,0-.886,1.693c0,.653.4.952.886.67" transform="translate(26.638 22.479)" fill="#d4ecff"/>
            <path id="Trazado_157776" data-name="Trazado 157776" d="M164.891,151.278c0,1.232.865,1.731,1.932,1.115a4.27,4.27,0,0,0,1.932-3.346c0-1.232-.865-1.732-1.932-1.115a4.27,4.27,0,0,0-1.932,3.346" transform="translate(25.882 23.178)" fill="#fff"/>
            <path id="Trazado_157777" data-name="Trazado 157777" d="M158.432,154.827c0,.653.457.916,1.022.59a2.259,2.259,0,0,0,1.023-1.771c0-.653-.458-.916-1.023-.59a2.26,2.26,0,0,0-1.022,1.771" transform="translate(24.869 24.002)" fill="#173d7a"/>
            <path id="Trazado_157778" data-name="Trazado 157778" d="M155.313,156.628c0,.653.458.916,1.023.59a2.259,2.259,0,0,0,1.023-1.771c0-.653-.458-.916-1.023-.59a2.261,2.261,0,0,0-1.023,1.771" transform="translate(24.379 24.285)" fill="#d4ecff"/>
            <path id="Trazado_157779" data-name="Trazado 157779" d="M152.194,158.428c0,.654.458.917,1.023.591a2.263,2.263,0,0,0,1.023-1.772c0-.652-.458-.916-1.023-.589a2.259,2.259,0,0,0-1.023,1.77" transform="translate(23.889 24.568)" fill="#173d7a"/>
            <path id="Trazado_157780" data-name="Trazado 157780" d="M143.46,165.375l2.1-1.214a1.363,1.363,0,0,0,.568-1.086v-2.224c0-.419-.255-.611-.568-.429l-2.1,1.214a1.361,1.361,0,0,0-.568,1.085v2.225c0,.418.255.611.568.429" transform="translate(22.429 25.17)" fill="#d4ecff"/>
            <path id="Trazado_157781" data-name="Trazado 157781" d="M74.886,182.458v-3.663H73.8a13.124,13.124,0,0,0-4.929-4.609c-8.022-4.631-21.03-4.631-29.053,0a13.119,13.119,0,0,0-4.928,4.609H33.8v3.632h0c-.014,3.046,1.989,6.094,6.015,8.418,8.022,4.633,21.029,4.633,29.053,0,4.011-2.316,6.016-5.352,6.016-8.388" transform="translate(5.306 26.796)" fill="#5793ce"/>
            <path id="Trazado_157782" data-name="Trazado 157782" d="M67.692,174.184c-7.187-4.149-18.365-4.57-26.385-1.284v19.228c8.02,3.286,19.2,2.866,26.385-1.284,4.012-2.315,6.017-5.351,6.017-8.387v-3.663H72.62a13.132,13.132,0,0,0-4.929-4.609" transform="translate(6.484 26.796)" fill="#173d7a"/>
            <path id="Trazado_157783" data-name="Trazado 157783" d="M68.87,187.694c-8.022,4.631-21.03,4.631-29.053,0s-8.024-12.142,0-16.774,21.029-4.631,29.053,0,8.022,12.142,0,16.774" transform="translate(5.306 26.283)" fill="#d4ecff"/>
            <path id="Trazado_157784" data-name="Trazado 157784" d="M68.867,186.034c-8.022,4.632-21.03,4.632-29.053,0-3.845-2.22-5.826-5.1-5.986-8.01-.174,3.161,1.808,6.353,5.986,8.764,8.022,4.632,21.03,4.632,29.053,0,4.178-2.411,6.159-5.6,5.986-8.764-.16,2.909-2.142,5.789-5.986,8.01" transform="translate(5.308 27.943)" fill="#fff"/>
            <path id="Trazado_157785" data-name="Trazado 157785" d="M65.1,182.457a3.25,3.25,0,0,1-2.925.132l-12.521-7.17a.868.868,0,0,1-.507-.722h0l-.013-25.734,16.652,7,.022,25.474a.728.728,0,0,1,0,.15,1.277,1.277,0,0,1-.708.871" transform="translate(7.712 23.382)" fill="#5793ce"/>
            <path id="Trazado_157786" data-name="Trazado 157786" d="M49.136,157.269l0,10L65.8,176.885l-.01-12.713-14.306-8.26Z" transform="translate(7.713 24.473)" fill="#5793ce"/>
            <path id="Trazado_157787" data-name="Trazado 157787" d="M63.823,155.138l.021,25.473a.654.654,0,0,1,0,.15,1.27,1.27,0,0,1-.708.871,3.311,3.311,0,0,1-1.432.411l-.069-27.825Z" transform="translate(9.675 24.207)" fill="#173d7a"/>
            <path id="Trazado_157788" data-name="Trazado 157788" d="M65.28,155.34l-12.52-7.169a3.252,3.252,0,0,0-2.926.132c-.864.5-.956,1.259-.2,1.689l12.52,7.17a3.259,3.259,0,0,0,2.926-.132c.864-.5.956-1.26.2-1.69" transform="translate(7.711 23.212)" fill="#173d7a"/>
            <path id="Trazado_157789" data-name="Trazado 157789" d="M62.165,157.118l-12.52-7.169a.86.86,0,0,1-.507-.745.942.942,0,0,0,.489.581l12.521,7.169a3.25,3.25,0,0,0,2.925-.132,1.209,1.209,0,0,0,.71-.945c.089.374-.148.793-.694,1.11a3.25,3.25,0,0,1-2.925.132" transform="translate(7.713 23.42)" fill="#fff"/>
            <path id="Trazado_157790" data-name="Trazado 157790" d="M130.078,120.637,8.151,50.243A2.886,2.886,0,0,0,5.217,50v0L1.408,52.205l2.323.327a7.03,7.03,0,0,0-.087,1.116v84.189c0,3.318,2.018,7.172,4.506,8.61l121.741,70.286-.622,2.519,3.754-2.172-.006,0c.958-.548,1.567-1.823,1.567-3.642V129.246c0-3.317-2.018-7.172-4.506-8.609" transform="translate(0.221 7.802)" fill="#396caa"/>
            <path id="Trazado_157791" data-name="Trazado 157791" d="M126.164,206.907l-.006,0c.958-.548,1.567-1.823,1.567-3.641v-84.19a10.951,10.951,0,0,0-1.113-4.555l-81.5,47.055,77.922,44.989-.622,2.518Z" transform="translate(7.081 17.975)" fill="#173d7a"/>
            <path id="Trazado_157792" data-name="Trazado 157792" d="M126.433,218.778,4.506,148.383C2.018,146.946,0,143.091,0,139.774V55.586c0-3.318,2.018-4.843,4.506-3.407l121.927,70.4c2.489,1.436,4.506,5.291,4.506,8.609v84.189c0,3.318-2.018,4.843-4.506,3.406" transform="translate(0 8.105)" fill="#d4ecff"/>
            <path id="Trazado_157793" data-name="Trazado 157793" d="M126.722,122.406,4.8,52.012a2.95,2.95,0,0,0-2.8-.311,3.317,3.317,0,0,1,2.2.5L126.119,122.6c2.489,1.437,4.506,5.292,4.506,8.609V215.4c0,1.906-.668,3.216-1.705,3.717,1.376-.234,2.308-1.657,2.308-3.909V131.015c0-3.318-2.018-7.172-4.506-8.609" transform="translate(0.313 8.079)" fill="#fff"/>
            <path id="Trazado_157794" data-name="Trazado 157794" d="M126.471,215.561,3.78,144.726a3.818,3.818,0,0,1-1.593-3.046V55.747c0-1.174.713-1.713,1.593-1.206l122.691,70.835a3.819,3.819,0,0,1,1.594,3.046v85.932c0,1.174-.714,1.713-1.594,1.206" transform="translate(0.343 8.531)" fill="#173d7a"/>
            <path id="Trazado_157795" data-name="Trazado 157795" d="M54,123.271l-7.98-4.607a3.063,3.063,0,0,1-1.278-2.444v-8.756c0-.942.573-1.374,1.278-.967L54,111.1a3.063,3.063,0,0,1,1.278,2.444V122.3c0,.942-.573,1.374-1.278.967" transform="translate(7.023 16.692)" fill="#ff2c9c"/>
            <path id="Trazado_157796" data-name="Trazado 157796" d="M66.029,130.217l-7.98-4.607a3.063,3.063,0,0,1-1.278-2.444v-8.756c0-.942.573-1.374,1.278-.967l7.98,4.607a3.063,3.063,0,0,1,1.278,2.444v8.756c0,.942-.573,1.374-1.278.967" transform="translate(8.911 17.783)" fill="#b3e0ff"/>
            <path id="Trazado_157797" data-name="Trazado 157797" d="M54,136.717l-7.98-4.607a3.063,3.063,0,0,1-1.278-2.443v-8.756c0-.942.573-1.374,1.278-.967L54,124.551a3.063,3.063,0,0,1,1.278,2.444v8.757c0,.941-.573,1.374-1.278.966" transform="translate(7.023 18.803)" fill="#fff"/>
            <path id="Trazado_157798" data-name="Trazado 157798" d="M66.029,143.662l-7.98-4.607a3.063,3.063,0,0,1-1.278-2.444v-8.756c0-.942.573-1.376,1.278-.967l7.98,4.607a3.063,3.063,0,0,1,1.278,2.443V142.7c0,.942-.573,1.374-1.278.967" transform="translate(8.911 19.893)" fill="#396caa"/>
          </g>
        </g>
      </g>
    </g>
  </g>
</svg>
