<svg xmlns="http://www.w3.org/2000/svg" xmlns:xlink="http://www.w3.org/1999/xlink" width="295" height="238" viewBox="0 0 295 238">
  <defs>
    <linearGradient id="linear-gradient" x1="0.5" x2="0.5" y2="1" gradientUnits="objectBoundingBox">
      <stop offset="0" stop-color="#fff"/>
      <stop offset="1" stop-color="#fff5d6"/>
    </linearGradient>
    <clipPath id="clip-path">
      <rect id="Rect치ngulo_12354" data-name="Rect치ngulo 12354" width="230.344" height="224.54" fill="none"/>
    </clipPath>
  </defs>
  <g id="Grupo_142348" data-name="Grupo 142348" transform="translate(8912 8655.254)">
    <g id="Grupo_142331" data-name="Grupo 142331" transform="translate(-9302 -11161.254)">
      <g id="Grupo_142249" data-name="Grupo 142249" transform="translate(0 26)">
        <ellipse id="Elipse_4052" data-name="Elipse 4052" cx="117" cy="103.5" rx="117" ry="103.5" transform="translate(419 2499.149)" fill="url(#linear-gradient)"/>
        <rect id="Rect치ngulo_12316" data-name="Rect치ngulo 12316" width="295" height="238" transform="translate(390 2480)" fill="none"/>
      </g>
    </g>
    <g id="Grupo_142332" data-name="Grupo 142332" transform="translate(-9285.449 -11050)">
      <path id="Trazado_157939" data-name="Trazado 157939" d="M-7449.864-9144.063l-18.25,12.284,110.2,62.471a15.957,15.957,0,0,0,12.284,0c6.317-2.807,72.3-42.466,72.3-42.466L-7289-9124.76Z" transform="translate(7869 11700)" fill="#c4dbe6"/>
      <g id="Grupo_142329" data-name="Grupo 142329" transform="translate(399.277 2401.477)">
        <g id="Grupo_142328" data-name="Grupo 142328" clip-path="url(#clip-path)">
          <path id="Trazado_157839" data-name="Trazado 157839" d="M184.412,63.858,74.98.676A4.419,4.419,0,0,0,71.272.222l.007-.011-.2.075L71.032.3,67.077,1.818l3.55,1.738c-.016.065-.036.127-.051.193L51.239,91.681c-.891,4.061.894,8.8,3.99,10.59l106.8,61.66-.38,4.526,4.322-1.676a6.07,6.07,0,0,0,3.094-4.4L188.4,74.446c.892-4.061-.894-8.8-3.99-10.588" transform="translate(41.711 0)" fill="#173d7a"/>
          <path id="Trazado_157840" data-name="Trazado 157840" d="M181.575,63.858,72.143.676A4.419,4.419,0,0,0,68.434.222l.007-.011-.2.075L68.195.3,64.239,1.818l3.55,1.738c-.016.065-.036.127-.051.193L54.48,64.019l53.542,41.716,77.01-37.517a8.5,8.5,0,0,0-3.457-4.361" transform="translate(44.548 0)" fill="#396caa"/>
          <path id="Trazado_157841" data-name="Trazado 157841" d="M125.834,47.34l8.331-3.546a10.435,10.435,0,0,0-3.375-8.341L117.6,41Z" transform="translate(96.163 28.989)" fill="#274f89"/>
          <path id="Trazado_157842" data-name="Trazado 157842" d="M160.912,167.34,51.482,104.159c-3.1-1.787-4.884-6.527-3.99-10.588L66.827,5.638c.891-4.061,4.124-5.9,7.22-4.117L183.479,64.7c3.1,1.787,4.882,6.527,3.99,10.588l-19.337,87.935c-.893,4.059-4.124,5.9-7.22,4.115" transform="translate(38.645 0.686)" fill="#d4ecff"/>
          <path id="Trazado_157843" data-name="Trazado 157843" d="M173.945,64.487,64.513,1.308a4.319,4.319,0,0,0-4.308-.187,4.493,4.493,0,0,1,3.257.571L172.895,64.872c3.1,1.787,4.882,6.527,3.99,10.588l-19.337,87.933a6.164,6.164,0,0,1-2.91,4.3c1.847-.4,3.388-2.078,3.961-4.688l19.337-87.933c.892-4.059-.894-8.8-3.99-10.588" transform="translate(49.229 0.517)" fill="#fff"/>
          <path id="Trazado_157844" data-name="Trazado 157844" d="M156.516,158.628,53.6,99.236c-2.834-1.636-4.468-5.973-3.652-9.688L67.769,8.5c.816-3.715,3.774-5.4,6.607-3.766l102.918,59.39c2.834,1.636,4.468,5.975,3.652,9.69l-17.823,81.044c-.816,3.715-3.775,5.4-6.607,3.766" transform="translate(40.669 3.363)" fill="#fff"/>
          <path id="Trazado_157845" data-name="Trazado 157845" d="M156.516,158.628,53.6,99.236c-2.834-1.636-4.468-5.973-3.652-9.688L67.769,8.5c.816-3.715,3.774-5.4,6.607-3.766l102.918,59.39c2.834,1.636,4.468,5.975,3.652,9.69l-17.823,81.044c-.816,3.715-3.775,5.4-6.607,3.766" transform="translate(40.669 3.363)" fill="#173d7a"/>
          <path id="Trazado_157846" data-name="Trazado 157846" d="M157.414,158.209,54.494,98.818c-2.832-1.636-4.466-5.973-3.65-9.688L68.667,8.086a5.69,5.69,0,0,1,2.592-3.908c-1.63.42-2.979,1.949-3.49,4.273L49.947,89.493c-.816,3.717.818,8.054,3.652,9.69l102.92,59.391a3.956,3.956,0,0,0,4.013.142,4.1,4.1,0,0,1-3.117-.507" transform="translate(40.669 3.416)" fill="#5793ce"/>
          <path id="Trazado_157847" data-name="Trazado 157847" d="M201.067,120.463l-14.958-1.976L89.548,62.739c-3.1-1.787-8.5-1.563-12.079.5L9.048,102.728,0,101.534v5.133H.012a3.519,3.519,0,0,0,2.076,3.17L111.52,173.018c3.1,1.787,8.5,1.563,12.077-.5l74.515-43.008c2.012-1.16,3.014-2.656,2.956-4.061Z" transform="translate(0.002 50.315)" fill="#173d7a"/>
          <path id="Trazado_157848" data-name="Trazado 157848" d="M128.515,76.355l-6.86-3.961H46.231L9.047,93.846,0,92.652v5.133H.011a3.525,3.525,0,0,0,2.078,3.172l109.431,63.179a11.327,11.327,0,0,0,6.233,1.169Z" transform="translate(0.002 59.196)" fill="#396caa"/>
          <path id="Trazado_157849" data-name="Trazado 157849" d="M4.016,84.07,0,83.539v5.133l.009,0a3.523,3.523,0,0,0,2.076,3.17l1.929,1.112Z" transform="translate(0.002 68.309)" fill="#5793ce"/>
          <path id="Trazado_157850" data-name="Trazado 157850" d="M61.96,128.584a14.024,14.024,0,0,0,10.263-.636V116.5H61.96Z" transform="translate(50.664 95.261)" fill="#274f89"/>
          <path id="Trazado_157851" data-name="Trazado 157851" d="M111.523,171.72,2.091,108.538c-3.1-1.787-2.708-4.91.865-6.973L77.472,58.559c3.574-2.063,8.983-2.288,12.077-.5l109.433,63.179c3.1,1.789,2.707,4.91-.865,6.973L123.6,171.22c-3.575,2.063-8.983,2.287-12.077.5" transform="translate(0 46.487)" fill="#d4ecff"/>
          <path id="Trazado_157852" data-name="Trazado 157852" d="M198.111,104.876,123.6,147.882c-3.575,2.065-8.983,2.288-12.079.5L2.088,85.2A4.066,4.066,0,0,1,.163,83.1c-.485,1.463.133,2.945,1.925,3.979l109.431,63.181c3.1,1.787,8.5,1.563,12.079-.5l74.515-43.007c2.4-1.387,3.359-3.25,2.792-4.868a5.814,5.814,0,0,1-2.792,2.994" transform="translate(0.003 67.949)" fill="#fff"/>
          <path id="Trazado_157853" data-name="Trazado 157853" d="M29.1,77.085l-4.951-2.859c-.4-.229-.347-.631.111-.894l5.844-3.375a1.733,1.733,0,0,1,1.552-.064l4.951,2.859c.4.229.347.631-.113.894l-5.844,3.375a1.729,1.729,0,0,1-1.55.064" transform="translate(19.529 57.024)" fill="#5793ce"/>
          <path id="Trazado_157854" data-name="Trazado 157854" d="M33.31,79.514l-4.951-2.859c-.4-.229-.347-.631.111-.894l5.846-3.375a1.723,1.723,0,0,1,1.55-.064l4.951,2.859c.4.229.347.629-.111.894l-5.846,3.375a1.729,1.729,0,0,1-1.55.064" transform="translate(22.969 59.01)" fill="#5793ce"/>
          <path id="Trazado_157855" data-name="Trazado 157855" d="M37.516,81.943l-4.951-2.859c-.4-.229-.347-.629.111-.894l5.846-3.375a1.723,1.723,0,0,1,1.55-.064l4.951,2.859c.4.229.347.629-.111.894L39.067,81.88a1.729,1.729,0,0,1-1.55.064" transform="translate(26.409 60.996)" fill="#5793ce"/>
          <path id="Trazado_157856" data-name="Trazado 157856" d="M43.334,79.694l-4.951-2.859c-.4-.229-.347-.631.111-.894L43.4,73.106a1.727,1.727,0,0,1,1.552-.064L49.9,75.9c.4.229.347.629-.113.894L44.885,79.63a1.729,1.729,0,0,1-1.55.064" transform="translate(31.166 59.6)" fill="#5793ce"/>
          <path id="Trazado_157857" data-name="Trazado 157857" d="M47.541,82.122,42.59,79.263c-.4-.229-.347-.631.111-.894l4.906-2.834a1.733,1.733,0,0,1,1.552-.064l4.95,2.859c.4.229.349.629-.111.894l-4.906,2.834a1.729,1.729,0,0,1-1.55.064" transform="translate(34.606 61.586)" fill="#5793ce"/>
          <path id="Trazado_157858" data-name="Trazado 157858" d="M51.748,84.55,46.8,81.691c-.4-.229-.347-.631.111-.894l4.906-2.834a1.733,1.733,0,0,1,1.552-.064l4.951,2.859c.4.229.347.629-.113.894L53.3,84.487a1.729,1.729,0,0,1-1.55.064" transform="translate(38.046 63.572)" fill="#5793ce"/>
          <path id="Trazado_157859" data-name="Trazado 157859" d="M55.954,86.979,51,84.12c-.4-.229-.347-.631.111-.894l4.906-2.834a1.729,1.729,0,0,1,1.55-.064l4.951,2.859c.4.229.349.629-.111.894L57.5,86.916a1.729,1.729,0,0,1-1.55.064" transform="translate(41.485 65.558)" fill="#5793ce"/>
          <path id="Trazado_157860" data-name="Trazado 157860" d="M60.161,89.408,55.21,86.549c-.4-.229-.347-.629.111-.894l4.906-2.834a1.733,1.733,0,0,1,1.552-.064l4.951,2.859c.4.229.347.631-.113.894l-4.906,2.834a1.729,1.729,0,0,1-1.55.064" transform="translate(44.925 67.544)" fill="#5793ce"/>
          <path id="Trazado_157861" data-name="Trazado 157861" d="M64.368,91.836l-4.951-2.859c-.4-.229-.347-.631.111-.894l4.906-2.832a1.727,1.727,0,0,1,1.552-.064l4.951,2.857c.4.229.347.629-.113.894l-4.906,2.834a1.723,1.723,0,0,1-1.55.064" transform="translate(48.365 69.53)" fill="#5793ce"/>
          <path id="Trazado_157862" data-name="Trazado 157862" d="M68.574,94.265l-4.951-2.859c-.4-.229-.347-.629.111-.894l4.906-2.834a1.733,1.733,0,0,1,1.552-.064l4.95,2.859c.4.229.349.629-.111.894L70.125,94.2a1.729,1.729,0,0,1-1.55.064" transform="translate(51.804 71.516)" fill="#5793ce"/>
          <path id="Trazado_157863" data-name="Trazado 157863" d="M72.781,96.694,67.83,93.835c-.4-.229-.347-.629.111-.894l4.906-2.834a1.733,1.733,0,0,1,1.552-.064L79.35,92.9c.4.229.347.631-.113.894l-4.906,2.834a1.729,1.729,0,0,1-1.551.064" transform="translate(55.245 73.502)" fill="#5793ce"/>
          <path id="Trazado_157864" data-name="Trazado 157864" d="M76.988,99.123l-4.951-2.859c-.4-.229-.347-.631.111-.894l4.906-2.834a1.729,1.729,0,0,1,1.55-.064l4.951,2.859c.4.229.349.629-.111.894L78.539,99.06a1.729,1.729,0,0,1-1.55.064" transform="translate(58.685 75.488)" fill="#5793ce"/>
          <path id="Trazado_157865" data-name="Trazado 157865" d="M81.194,101.551l-4.951-2.859c-.4-.229-.347-.629.111-.894l4.906-2.834a1.733,1.733,0,0,1,1.552-.064l4.951,2.859c.4.229.347.631-.113.894l-4.906,2.834a1.729,1.729,0,0,1-1.55.064" transform="translate(62.124 77.473)" fill="#5793ce"/>
          <path id="Trazado_157866" data-name="Trazado 157866" d="M49.533,78.543l-4.951-2.859c-.4-.229-.347-.631.111-.894L49.6,71.956a1.733,1.733,0,0,1,1.552-.064L56.1,74.752c.4.229.347.631-.113.894L51.084,78.48a1.729,1.729,0,0,1-1.55.064" transform="translate(36.235 58.66)" fill="#5793ce"/>
          <path id="Trazado_157867" data-name="Trazado 157867" d="M45.263,76.078l-4.951-2.859c-.4-.229-.347-.631.111-.894l4.906-2.834a1.733,1.733,0,0,1,1.552-.064l4.951,2.859c.4.229.347.629-.113.894l-4.906,2.834a1.729,1.729,0,0,1-1.55.064" transform="translate(32.743 56.644)" fill="#5793ce"/>
          <path id="Trazado_157868" data-name="Trazado 157868" d="M43.557,75.093,32.892,68.937c-.4-.229-.347-.631.113-.9l4.906-2.832a1.717,1.717,0,0,1,1.55-.064L50.126,71.3c.4.229.347.631-.113.894L45.107,75.03a1.729,1.729,0,0,1-1.55.064" transform="translate(26.677 53.141)" fill="#5793ce"/>
          <path id="Trazado_157869" data-name="Trazado 157869" d="M45.642,71.569l-8.654-5c-.4-.229-.347-.631.111-.894L42,62.844a1.729,1.729,0,0,1,1.55-.064l8.656,5c.4.229.347.631-.113.894l-4.906,2.834a1.729,1.729,0,0,1-1.55.064" transform="translate(30.025 51.209)" fill="#5793ce"/>
          <path id="Trazado_157870" data-name="Trazado 157870" d="M53.739,80.972l-4.951-2.859c-.4-.229-.347-.631.111-.894L53.8,74.385a1.733,1.733,0,0,1,1.552-.064l4.951,2.859c.4.229.347.631-.113.894L55.29,80.909a1.723,1.723,0,0,1-1.55.064" transform="translate(39.674 60.646)" fill="#5793ce"/>
          <path id="Trazado_157871" data-name="Trazado 157871" d="M57.946,83.4l-4.951-2.859c-.4-.229-.347-.629.111-.894l4.906-2.834a1.733,1.733,0,0,1,1.552-.064l4.951,2.859c.4.229.347.631-.113.894L59.5,83.338a1.723,1.723,0,0,1-1.55.064" transform="translate(43.114 62.632)" fill="#5793ce"/>
          <path id="Trazado_157872" data-name="Trazado 157872" d="M62.153,85.829,57.2,82.97c-.4-.229-.347-.629.111-.894l4.906-2.834a1.733,1.733,0,0,1,1.552-.064l4.951,2.859c.4.229.347.631-.113.894L63.7,85.766a1.723,1.723,0,0,1-1.55.064" transform="translate(46.554 64.618)" fill="#5793ce"/>
          <path id="Trazado_157873" data-name="Trazado 157873" d="M66.359,88.258,61.408,85.4c-.4-.229-.347-.631.111-.894l4.906-2.834a1.733,1.733,0,0,1,1.552-.064l4.951,2.859c.4.229.347.631-.113.894L67.91,88.195a1.729,1.729,0,0,1-1.55.064" transform="translate(49.993 66.604)" fill="#5793ce"/>
          <path id="Trazado_157874" data-name="Trazado 157874" d="M70.566,90.687l-4.951-2.859c-.4-.229-.347-.629.111-.894L70.632,84.1a1.733,1.733,0,0,1,1.552-.064L77.135,86.9c.4.229.347.631-.113.894l-4.906,2.834a1.723,1.723,0,0,1-1.55.064" transform="translate(53.433 68.59)" fill="#5793ce"/>
          <path id="Trazado_157875" data-name="Trazado 157875" d="M74.773,93.115l-4.951-2.859c-.4-.229-.347-.629.111-.894l4.906-2.834a1.733,1.733,0,0,1,1.552-.064l4.951,2.859c.4.229.347.631-.113.894l-4.906,2.834a1.723,1.723,0,0,1-1.55.064" transform="translate(56.873 70.575)" fill="#5793ce"/>
          <path id="Trazado_157876" data-name="Trazado 157876" d="M78.979,95.545l-4.951-2.859c-.4-.229-.347-.631.111-.894l4.906-2.834a1.727,1.727,0,0,1,1.552-.064l4.951,2.859c.4.229.347.629-.113.894L80.53,95.481a1.729,1.729,0,0,1-1.55.064" transform="translate(60.313 72.561)" fill="#5793ce"/>
          <path id="Trazado_157877" data-name="Trazado 157877" d="M83.186,97.974l-4.951-2.859c-.4-.229-.347-.631.111-.894l4.906-2.834a1.727,1.727,0,0,1,1.552-.064l4.95,2.859c.4.229.349.631-.111.894L84.737,97.91a1.729,1.729,0,0,1-1.551.064" transform="translate(63.753 74.547)" fill="#5793ce"/>
          <path id="Trazado_157878" data-name="Trazado 157878" d="M87.393,100.4,82.44,97.543c-.4-.229-.345-.631.113-.894l4.9-2.834a1.731,1.731,0,0,1,1.554-.064l4.951,2.859c.394.229.345.629-.115.894l-4.906,2.834a1.725,1.725,0,0,1-1.549.064" transform="translate(67.193 76.533)" fill="#5793ce"/>
          <path id="Trazado_157879" data-name="Trazado 157879" d="M97.5,106.239,86.7,100c-.4-.231-.349-.631.111-.9l4.906-2.832a1.723,1.723,0,0,1,1.551-.065l10.8,6.238c.4.229.347.631-.113.894l-4.906,2.834a1.729,1.729,0,0,1-1.55.064" transform="translate(70.675 78.544)" fill="#5793ce"/>
          <path id="Trazado_157880" data-name="Trazado 157880" d="M104.936,101.074,95.818,95.81c-.4-.231-.349-.631.111-.9l4.906-2.832a1.723,1.723,0,0,1,1.55-.065l9.119,5.266c.4.229.347.629-.113.894l-4.906,2.834a1.729,1.729,0,0,1-1.55.064" transform="translate(78.13 75.115)" fill="#5793ce"/>
          <path id="Trazado_157881" data-name="Trazado 157881" d="M61.106,80.5l-4.951-2.859c-.4-.229-.347-.629.111-.894l4.906-2.834a1.733,1.733,0,0,1,1.552-.064l4.951,2.859c.4.229.347.631-.113.894l-4.906,2.834a1.723,1.723,0,0,1-1.55.064" transform="translate(45.698 60.258)" fill="#5793ce"/>
          <path id="Trazado_157882" data-name="Trazado 157882" d="M56.8,78.007,51.844,75.15c-.4-.229-.347-.629.111-.894l4.906-2.834a1.727,1.727,0,0,1,1.552-.064l4.951,2.859c.4.227.347.631-.113.894l-4.906,2.832a1.723,1.723,0,0,1-1.55.064" transform="translate(42.173 58.222)" fill="#5793ce"/>
          <path id="Trazado_157883" data-name="Trazado 157883" d="M52.484,75.518l-4.951-2.859c-.4-.229-.347-.631.111-.894l4.906-2.834a1.733,1.733,0,0,1,1.552-.064l4.95,2.859c.4.229.349.629-.111.894l-4.906,2.834a1.729,1.729,0,0,1-1.55.064" transform="translate(38.648 56.186)" fill="#5793ce"/>
          <path id="Trazado_157884" data-name="Trazado 157884" d="M48.172,73.029,43.221,70.17c-.4-.229-.347-.631.111-.894l4.906-2.834a1.733,1.733,0,0,1,1.552-.064l4.95,2.859c.4.229.349.629-.111.894l-4.906,2.834a1.729,1.729,0,0,1-1.55.064" transform="translate(35.122 54.151)" fill="#5793ce"/>
          <path id="Trazado_157885" data-name="Trazado 157885" d="M65.313,82.925l-4.951-2.859c-.4-.229-.347-.629.111-.894l4.906-2.834a1.733,1.733,0,0,1,1.552-.064l4.951,2.859c.4.229.347.631-.113.894l-4.906,2.834a1.723,1.723,0,0,1-1.55.064" transform="translate(49.138 62.243)" fill="#5793ce"/>
          <path id="Trazado_157886" data-name="Trazado 157886" d="M69.519,85.354,64.568,82.5c-.4-.229-.347-.631.111-.894l4.906-2.834a1.733,1.733,0,0,1,1.552-.064l4.951,2.859c.4.229.347.631-.113.894L71.07,85.291a1.729,1.729,0,0,1-1.55.064" transform="translate(52.577 64.229)" fill="#5793ce"/>
          <path id="Trazado_157887" data-name="Trazado 157887" d="M73.726,87.783l-4.951-2.859c-.4-.229-.347-.629.111-.894L73.792,81.2a1.729,1.729,0,0,1,1.55-.064l4.951,2.859c.4.229.349.631-.111.894L75.277,87.72a1.723,1.723,0,0,1-1.551.064" transform="translate(56.017 66.215)" fill="#5793ce"/>
          <path id="Trazado_157888" data-name="Trazado 157888" d="M77.933,90.211l-4.951-2.859c-.4-.229-.347-.629.111-.894L78,83.624a1.733,1.733,0,0,1,1.552-.064L84.5,86.42c.4.229.347.631-.113.894l-4.906,2.834a1.723,1.723,0,0,1-1.55.064" transform="translate(59.457 68.201)" fill="#5793ce"/>
          <path id="Trazado_157889" data-name="Trazado 157889" d="M82.139,92.64l-4.951-2.859c-.4-.229-.347-.631.111-.894L82.2,86.053a1.733,1.733,0,0,1,1.552-.064l4.951,2.859c.4.229.347.631-.113.894L83.69,92.577a1.729,1.729,0,0,1-1.55.064" transform="translate(62.897 70.187)" fill="#5793ce"/>
          <path id="Trazado_157890" data-name="Trazado 157890" d="M86.346,95.07l-4.951-2.859c-.4-.229-.347-.631.111-.894l4.906-2.834a1.727,1.727,0,0,1,1.552-.064l4.951,2.859c.4.229.347.629-.113.894L87.9,95.006a1.729,1.729,0,0,1-1.55.064" transform="translate(66.337 72.173)" fill="#5793ce"/>
          <path id="Trazado_157891" data-name="Trazado 157891" d="M90.553,97.5,85.6,94.64c-.4-.229-.347-.631.111-.894l4.906-2.834a1.727,1.727,0,0,1,1.552-.064l4.951,2.859c.4.229.347.629-.113.894L92.1,97.435a1.729,1.729,0,0,1-1.55.064" transform="translate(69.777 74.159)" fill="#5793ce"/>
          <path id="Trazado_157892" data-name="Trazado 157892" d="M94.759,99.927l-4.951-2.859c-.4-.229-.347-.631.111-.894l4.906-2.834a1.723,1.723,0,0,1,1.551-.064l4.951,2.859c.4.229.349.629-.111.894L96.31,99.863a1.729,1.729,0,0,1-1.55.064" transform="translate(73.216 76.144)" fill="#5793ce"/>
          <path id="Trazado_157893" data-name="Trazado 157893" d="M98.966,102.355,94.015,99.5c-.4-.229-.347-.631.111-.894l4.906-2.834a1.733,1.733,0,0,1,1.552-.064l4.951,2.859c.4.229.347.629-.113.894l-4.906,2.834a1.729,1.729,0,0,1-1.551.064" transform="translate(76.656 78.131)" fill="#5793ce"/>
          <path id="Trazado_157894" data-name="Trazado 157894" d="M58.891,74.489,53.94,71.63c-.4-.229-.347-.629.111-.894L58.957,67.9a1.733,1.733,0,0,1,1.552-.064l4.95,2.859c.4.229.349.629-.111.894l-4.906,2.834a1.729,1.729,0,0,1-1.55.064" transform="translate(43.887 55.345)" fill="#5793ce"/>
          <path id="Trazado_157895" data-name="Trazado 157895" d="M54.705,72.074l-4.951-2.859c-.4-.229-.347-.631.111-.894l4.906-2.834a1.723,1.723,0,0,1,1.55-.064l4.951,2.859c.4.229.349.629-.111.894L56.256,72.01a1.729,1.729,0,0,1-1.55.064" transform="translate(40.464 53.369)" fill="#5793ce"/>
          <path id="Trazado_157896" data-name="Trazado 157896" d="M50.52,69.656,45.569,66.8c-.4-.229-.347-.629.111-.894l4.906-2.834a1.729,1.729,0,0,1,1.55-.064l4.951,2.859c.4.229.349.631-.111.894l-4.906,2.834a1.723,1.723,0,0,1-1.55.064" transform="translate(37.042 51.393)" fill="#5793ce"/>
          <path id="Trazado_157897" data-name="Trazado 157897" d="M46.334,67.239,41.383,64.38c-.4-.229-.347-.631.111-.894L46.4,60.653a1.727,1.727,0,0,1,1.552-.064L52.9,63.447c.4.229.347.631-.113.894l-4.906,2.834a1.717,1.717,0,0,1-1.55.064" transform="translate(33.619 49.417)" fill="#5793ce"/>
          <path id="Trazado_157898" data-name="Trazado 157898" d="M50.638,63.9l-4.951-2.859c-.4-.229-.347-.631.111-.894l1.623-.938a1.729,1.729,0,0,1,1.55-.064l4.951,2.859c.4.229.347.631-.111.894l-1.623.938a1.729,1.729,0,0,1-1.55.064" transform="translate(37.138 48.238)" fill="#5793ce"/>
          <path id="Trazado_157899" data-name="Trazado 157899" d="M56.1,67.056,51.149,64.2c-.4-.229-.347-.631.111-.894l1.623-.938a1.729,1.729,0,0,1,1.55-.064l4.951,2.859c.4.229.347.631-.113.894l-1.621.938a1.729,1.729,0,0,1-1.55.064" transform="translate(41.605 50.816)" fill="#5793ce"/>
          <path id="Trazado_157900" data-name="Trazado 157900" d="M60.269,69.463,55.318,66.6c-.4-.229-.347-.629.111-.894l1.623-.936a1.723,1.723,0,0,1,1.55-.065l4.951,2.859c.4.229.347.631-.111.9L61.82,69.4a1.723,1.723,0,0,1-1.55.064" transform="translate(45.014 52.785)" fill="#5793ce"/>
          <path id="Trazado_157901" data-name="Trazado 157901" d="M64.437,71.869l-4.951-2.859c-.4-.229-.347-.629.111-.894l1.623-.938a1.729,1.729,0,0,1,1.55-.064l4.951,2.859c.4.229.347.631-.113.894l-1.621.938a1.729,1.729,0,0,1-1.55.064" transform="translate(48.422 54.752)" fill="#5793ce"/>
          <path id="Trazado_157902" data-name="Trazado 157902" d="M68.605,74.276l-4.951-2.859c-.4-.229-.347-.629.111-.894l1.621-.936a1.727,1.727,0,0,1,1.552-.065L71.89,72.38c.4.229.347.631-.113.9l-1.621.936a1.723,1.723,0,0,1-1.55.064" transform="translate(51.83 56.72)" fill="#5793ce"/>
          <path id="Trazado_157903" data-name="Trazado 157903" d="M91.876,87.711l-4.951-2.859c-.4-.229-.347-.631.111-.894l1.623-.936a1.723,1.723,0,0,1,1.55-.065l4.951,2.859c.4.229.347.631-.113.894l-1.621.938a1.723,1.723,0,0,1-1.55.064" transform="translate(70.858 67.706)" fill="#5793ce"/>
          <path id="Trazado_157904" data-name="Trazado 157904" d="M96.044,90.118l-4.951-2.859c-.4-.229-.347-.631.111-.894l1.621-.938a1.733,1.733,0,0,1,1.552-.064l4.951,2.859c.4.229.347.631-.113.894l-1.621.938a1.729,1.729,0,0,1-1.55.064" transform="translate(74.267 69.674)" fill="#5793ce"/>
          <path id="Trazado_157905" data-name="Trazado 157905" d="M100.213,92.524l-4.951-2.859c-.4-.229-.347-.631.111-.894L97,87.832a1.729,1.729,0,0,1,1.55-.064l4.951,2.859c.4.229.347.631-.111.894l-1.623.938a1.729,1.729,0,0,1-1.551.064" transform="translate(77.676 71.642)" fill="#5793ce"/>
          <path id="Trazado_157906" data-name="Trazado 157906" d="M104.381,94.931,99.43,92.071c-.4-.229-.347-.629.111-.894l1.621-.938a1.733,1.733,0,0,1,1.552-.064l4.951,2.859c.4.229.347.631-.113.9l-1.621.936a1.729,1.729,0,0,1-1.551.064" transform="translate(81.084 73.61)" fill="#5793ce"/>
          <path id="Trazado_157907" data-name="Trazado 157907" d="M63.1,76.918l-4.951-2.859c-.4-.229-.347-.631.111-.894l4.906-2.834a1.733,1.733,0,0,1,1.552-.064l4.951,2.859c.4.229.347.629-.113.894l-4.906,2.834a1.729,1.729,0,0,1-1.55.064" transform="translate(47.327 57.331)" fill="#5793ce"/>
          <path id="Trazado_157908" data-name="Trazado 157908" d="M67.3,79.347l-4.951-2.859c-.4-.229-.347-.631.111-.894L67.37,72.76A1.729,1.729,0,0,1,68.92,72.7l4.953,2.859c.4.229.347.629-.113.894l-4.906,2.834a1.729,1.729,0,0,1-1.55.064" transform="translate(50.766 59.317)" fill="#5793ce"/>
          <path id="Trazado_157909" data-name="Trazado 157909" d="M71.511,81.776,66.56,78.917c-.4-.229-.347-.629.111-.894l4.906-2.834a1.733,1.733,0,0,1,1.552-.064l4.951,2.859c.4.229.347.629-.113.894l-4.906,2.834a1.729,1.729,0,0,1-1.55.064" transform="translate(54.206 61.303)" fill="#5793ce"/>
          <path id="Trazado_157910" data-name="Trazado 157910" d="M75.718,84.2l-4.951-2.859c-.4-.229-.347-.629.111-.894l4.906-2.834a1.733,1.733,0,0,1,1.552-.064l4.951,2.859c.4.229.347.629-.113.894l-4.906,2.834a1.729,1.729,0,0,1-1.55.064" transform="translate(57.646 63.289)" fill="#5793ce"/>
          <path id="Trazado_157911" data-name="Trazado 157911" d="M79.924,86.633l-4.951-2.859c-.4-.229-.347-.631.111-.894l4.906-2.834a1.733,1.733,0,0,1,1.552-.064l4.95,2.859c.4.229.349.629-.111.894L81.475,86.57a1.729,1.729,0,0,1-1.551.064" transform="translate(61.085 65.275)" fill="#5793ce"/>
          <path id="Trazado_157912" data-name="Trazado 157912" d="M84.131,89.062,79.18,86.2c-.4-.229-.347-.629.111-.894L84.2,82.475a1.733,1.733,0,0,1,1.552-.064L90.7,85.271c.4.229.347.631-.113.894L85.682,89a1.729,1.729,0,0,1-1.55.064" transform="translate(64.525 67.261)" fill="#5793ce"/>
          <path id="Trazado_157913" data-name="Trazado 157913" d="M88.338,91.49l-4.951-2.859c-.4-.229-.347-.629.111-.894L88.4,84.9a1.729,1.729,0,0,1,1.55-.064L94.906,87.7c.4.229.349.631-.111.894l-4.906,2.834a1.729,1.729,0,0,1-1.551.064" transform="translate(67.965 69.246)" fill="#5793ce"/>
          <path id="Trazado_157914" data-name="Trazado 157914" d="M92.544,93.919,87.593,91.06c-.4-.229-.347-.629.111-.894l4.906-2.834a1.733,1.733,0,0,1,1.552-.064l4.951,2.859c.4.229.347.631-.113.894l-4.906,2.834a1.723,1.723,0,0,1-1.551.064" transform="translate(71.405 71.233)" fill="#5793ce"/>
          <path id="Trazado_157915" data-name="Trazado 157915" d="M96.751,96.348,91.8,93.489c-.4-.229-.347-.631.111-.894l4.906-2.834a1.733,1.733,0,0,1,1.552-.064l4.951,2.859c.4.229.347.631-.113.894L98.3,96.285a1.723,1.723,0,0,1-1.55.064" transform="translate(74.845 73.219)" fill="#5793ce"/>
          <path id="Trazado_157916" data-name="Trazado 157916" d="M43.381,79.72,28.8,71.3c-.4-.229-.349-.631.111-.894l4.906-2.834a1.729,1.729,0,0,1,1.55-.064l14.582,8.42c.4.229.349.631-.111.894l-4.906,2.834a1.723,1.723,0,0,1-1.55.064" transform="translate(23.329 55.075)" fill="#5793ce"/>
          <path id="Trazado_157917" data-name="Trazado 157917" d="M95.06,109.557l-14.582-8.42c-.4-.229-.349-.631.111-.894l4.906-2.834a1.723,1.723,0,0,1,1.55-.064l14.582,8.42c.4.229.349.629-.111.894l-4.906,2.834a1.729,1.729,0,0,1-1.55.064" transform="translate(65.586 79.472)" fill="#5793ce"/>
          <path id="Trazado_157918" data-name="Trazado 157918" d="M73.9,102.951l-4.951-2.859c-.4-.229-.347-.631.111-.894l5.844-3.375a1.727,1.727,0,0,1,1.552-.064l4.951,2.859c.4.229.347.629-.113.894l-5.844,3.375a1.729,1.729,0,0,1-1.55.064" transform="translate(56.163 78.175)" fill="#5793ce"/>
          <path id="Trazado_157919" data-name="Trazado 157919" d="M44.691,86.085l-7.918-4.572c-.4-.229-.349-.631.111-.9l5.844-3.374a1.724,1.724,0,0,1,1.55-.065l7.92,4.573c.4.229.347.629-.113.894l-5.844,3.375a1.729,1.729,0,0,1-1.55.064" transform="translate(29.849 62.982)" fill="#5793ce"/>
          <path id="Trazado_157920" data-name="Trazado 157920" d="M71.186,101.382l-7.918-4.572c-.4-.229-.349-.631.111-.9l5.844-3.374a1.718,1.718,0,0,1,1.551-.064l7.92,4.572c.4.229.347.631-.113.894l-5.844,3.375a1.729,1.729,0,0,1-1.55.064" transform="translate(51.514 75.491)" fill="#5793ce"/>
          <path id="Trazado_157921" data-name="Trazado 157921" d="M50.76,89.589l-7.918-4.572c-.4-.231-.349-.631.111-.9L48.8,80.748a1.724,1.724,0,0,1,1.55-.065l7.92,4.573c.4.229.347.629-.113.894L52.31,89.526a1.729,1.729,0,0,1-1.55.064" transform="translate(34.812 65.847)" fill="#5793ce"/>
          <path id="Trazado_157922" data-name="Trazado 157922" d="M50.257,80.63l34.427,19.877a.472.472,0,0,1,0,.894l-5.958,3.441a1.717,1.717,0,0,1-1.547,0L42.75,84.963Z" transform="translate(34.956 65.931)" fill="#5793ce"/>
          <path id="Trazado_157923" data-name="Trazado 157923" d="M85.1,104.107l5.515,3.185c.327.187.285.516-.091.734l-2.39,1.38a1.41,1.41,0,0,1-1.272.053l-5.515-3.185c-.325-.187-.285-.516.091-.734l2.392-1.38a1.412,1.412,0,0,1,1.271-.053" transform="translate(66.337 85.024)" fill="#5793ce"/>
          <path id="Trazado_157924" data-name="Trazado 157924" d="M80.859,101.658l5.515,3.185c.327.187.285.516-.091.734l-2.39,1.38a1.41,1.41,0,0,1-1.272.053l-5.515-3.185c-.325-.187-.285-.516.091-.734l2.392-1.38a1.412,1.412,0,0,1,1.271-.053" transform="translate(62.869 83.021)" fill="#5793ce"/>
          <path id="Trazado_157925" data-name="Trazado 157925" d="M76.652,99.229l5.515,3.185c.327.187.285.516-.091.734l-2.39,1.38a1.409,1.409,0,0,1-1.272.053L72.9,101.4c-.325-.187-.285-.516.091-.734l2.392-1.38a1.412,1.412,0,0,1,1.271-.053" transform="translate(59.429 81.035)" fill="#5793ce"/>
          <path id="Trazado_157926" data-name="Trazado 157926" d="M83.182,100.317,88.7,103.5c.327.187.285.516-.091.734l-2.39,1.38a1.41,1.41,0,0,1-1.272.053l-5.515-3.185c-.325-.187-.285-.516.091-.734l2.392-1.38a1.412,1.412,0,0,1,1.271-.053" transform="translate(64.769 81.925)" fill="#5793ce"/>
          <path id="Trazado_157927" data-name="Trazado 157927" d="M78.534,31.369,66.1,24.189l.531-2.677,12.435,7.18Z" transform="translate(54.047 17.59)" fill="#d4ecff"/>
          <path id="Trazado_157928" data-name="Trazado 157928" d="M77.792,34.793l-12.437-7.18.531-2.677,12.435,7.18Z" transform="translate(53.44 20.389)" fill="#fff"/>
          <path id="Trazado_157929" data-name="Trazado 157929" d="M111.372,82.276,98.936,75.1l.531-2.677L111.9,79.6Z" transform="translate(80.899 59.216)" fill="#d4ecff"/>
          <path id="Trazado_157930" data-name="Trazado 157930" d="M76.307,41.639,63.87,34.459l.531-2.677,12.435,7.18Z" transform="translate(52.226 25.988)" fill="#d4ecff"/>
          <path id="Trazado_157931" data-name="Trazado 157931" d="M88.589,63.547,76.052,56.309a3.455,3.455,0,0,1-1.478-3.545L77.3,40.515a1.65,1.65,0,0,1,2.541-1.225l12.537,7.238a3.456,3.456,0,0,1,1.478,3.545L91.128,62.322a1.647,1.647,0,0,1-2.539,1.225" transform="translate(60.922 31.909)" fill="#ff2c9c"/>
          <path id="Trazado_157932" data-name="Trazado 157932" d="M100.619,70.493,88.082,63.255A3.453,3.453,0,0,1,86.6,59.711l2.727-12.249a1.65,1.65,0,0,1,2.541-1.225l12.537,7.238a3.457,3.457,0,0,1,1.478,3.546l-2.728,12.248a1.647,1.647,0,0,1-2.539,1.225" transform="translate(70.759 37.589)" fill="#b3e0ff"/>
          <path id="Trazado_157933" data-name="Trazado 157933" d="M85.923,75.518,73.386,68.28a3.455,3.455,0,0,1-1.478-3.545l2.727-12.249a1.65,1.65,0,0,1,2.541-1.225L89.712,58.5a3.456,3.456,0,0,1,1.478,3.545L88.462,74.293a1.648,1.648,0,0,1-2.539,1.225" transform="translate(58.742 41.698)" fill="#fff"/>
          <path id="Trazado_157934" data-name="Trazado 157934" d="M97.954,82.464,85.416,75.226a3.454,3.454,0,0,1-1.478-3.545l2.727-12.249a1.65,1.65,0,0,1,2.541-1.225l12.537,7.238a3.453,3.453,0,0,1,1.478,3.545l-2.728,12.249a1.646,1.646,0,0,1-2.538,1.225" transform="translate(68.579 47.377)" fill="#396caa"/>
          <path id="Trazado_157935" data-name="Trazado 157935" d="M81.642,27.647l7.434,3.85-.487,1.772-5.618-2.9L81.5,35.812l5.177,2.654L86.2,40.2l-5.173-2.645L79.055,44.88l-1.794-.907Z" transform="translate(63.176 22.607)" fill="#fff"/>
          <path id="Trazado_157936" data-name="Trazado 157936" d="M87.114,30.611a20.336,20.336,0,0,1,3.479,1.412,7.117,7.117,0,0,1,3.561,3.365,5.492,5.492,0,0,1,.189,3.641,3.41,3.41,0,0,1-3.679,2.783l-.02.073A5.338,5.338,0,0,1,91.7,46.118a32.976,32.976,0,0,0-.2,4.888L89.7,50.1a26,26,0,0,1,.191-4.248c.22-2.412-.289-3.624-1.856-4.508L86.387,40.5l-1.93,6.945-1.75-.887Zm-.289,8.307,1.794.922c1.87.958,3.4.347,3.917-1.494.587-2.087-.424-3.657-2.281-4.617A7.685,7.685,0,0,0,88.468,33Z" transform="translate(67.628 25.03)" fill="#fff"/>
          <path id="Trazado_157937" data-name="Trazado 157937" d="M97.673,45.661,92.5,43.013l-1.641,5.728,5.771,2.928-.494,1.7-7.513-3.8,4.559-15.988,7.278,3.768-.505,1.736-5.511-2.847-1.454,5.071,5.18,2.657Z" transform="translate(72.463 27.458)" fill="#fff"/>
          <path id="Trazado_157938" data-name="Trazado 157938" d="M102.969,48.324,97.858,45.71l-1.67,5.671,5.7,2.89-.505,1.685L93.965,52.2l4.641-15.832,7.187,3.721-.514,1.72L99.836,39l-1.48,5.022,5.115,2.623Z" transform="translate(76.834 29.74)" fill="#fff"/>
        </g>
      </g>
    </g>
  </g>
</svg>
