<svg xmlns="http://www.w3.org/2000/svg" xmlns:xlink="http://www.w3.org/1999/xlink" width="152.098" height="223.759" viewBox="0 0 152.098 223.759">
  <defs>
    <clipPath id="clip-path">
      <rect id="Rectángulo_12549" data-name="Rectángulo 12549" width="81.499" height="77.148" fill="none"/>
    </clipPath>
  </defs>
  <g id="Grupo_142811" data-name="Grupo 142811" transform="translate(-1863.55 8506.972)">
    <path id="Trazado_159689" data-name="Trazado 159689" d="M103.744,220a11,11,0,1,1-11,11,11,11,0,0,1,11-11" transform="translate(1835.806 -8534.24)" fill="#039be5"/>
    <path id="Trazado_159690" data-name="Trazado 159690" d="M103.744,224a7,7,0,1,1-7,7,7,7,0,0,1,7-7" transform="translate(1835.806 -8534.24)" fill="#d2f3f7"/>
    <path id="Sustracción_5" data-name="Sustracción 5" d="M-1028.025,11727.057h0l-6.776-7.414a11.366,11.366,0,0,0,7.007,2.375,11.441,11.441,0,0,0,6.474-1.985l-6.7,7.024Z" transform="translate(2968.352 -20010.27)" fill="#039be5"/>
    <g id="Grupo_142655" data-name="Grupo 142655" transform="translate(-1436.9 1241)">
      <path id="Trazado_159600" data-name="Trazado 159600" d="M586.667,103.562a76.049,76.049,0,1,1-76.049-76.049,76.049,76.049,0,0,1,76.049,76.049" transform="translate(2865.881 -9775.484)" fill="#c0e6f8"/>
      <g id="Grupo_142643" data-name="Grupo 142643" transform="translate(3335.45 -9710.103)">
        <g id="Grupo_142623" data-name="Grupo 142623" clip-path="url(#clip-path)">
          <path id="Trazado_159489" data-name="Trazado 159489" d="M197.331,352.02c-4.459-4.462-4.594-8.782-4.6-9a1.7,1.7,0,0,0-1.7-1.691H177.384a1.707,1.707,0,0,0-1.7,1.708c0,.183-.061,4.506-4.53,8.978a1.7,1.7,0,0,0,1.2,2.9h23.771a1.7,1.7,0,0,0,1.2-2.9" transform="translate(-143.494 -287)" fill="#90a4ae"/>
          <path id="Trazado_159490" data-name="Trazado 159490" d="M75.556,0H5.943A5.949,5.949,0,0,0,0,5.943V51.786a5.949,5.949,0,0,0,5.943,5.943H75.556A5.949,5.949,0,0,0,81.5,51.786V5.943A5.949,5.949,0,0,0,75.556,0" fill="#607d8b"/>
          <rect id="Rectángulo_12547" data-name="Rectángulo 12547" width="67.916" height="37.354" transform="translate(6.791 6.791)" fill="#b4e6ec"/>
          <path id="Trazado_159491" data-name="Trazado 159491" d="M184.249,362.667h-8.8a15.418,15.418,0,0,1-4.285,7.291,1.7,1.7,0,0,0,1.2,2.9h11.885Z" transform="translate(-143.499 -304.938)" fill="#7d8f97"/>
          <path id="Trazado_159492" data-name="Trazado 159492" d="M40.75,0H5.943A5.949,5.949,0,0,0,0,5.943V51.786a5.949,5.949,0,0,0,5.943,5.943H40.75V44.145H6.792V6.792H40.75Z" fill="#8a9194"/>
          <rect id="Rectángulo_12548" data-name="Rectángulo 12548" width="33.958" height="37.354" transform="translate(6.792 6.792)" fill="#d2f3f7"/>
          <path id="Trazado_159493" data-name="Trazado 159493" d="M251.7,290.425a10.2,10.2,0,0,1-10.2,10.2H210.745c-11.369,0-10.941-17.207.317-16.777a14.767,14.767,0,1,1,29.159-3.539l.052-.006A10.2,10.2,0,0,1,251.7,290.425" transform="translate(-170.196 -223.475)" fill="#fff"/>
          <path id="Trazado_159494" data-name="Trazado 159494" d="M381.266,346.139a10.2,10.2,0,0,0-8.921,9.114,1.123,1.123,0,1,1-2.235-.228A12.469,12.469,0,0,1,379.8,344.11a1.128,1.128,0,0,1,1.367,1.009C381.261,346.253,381.164,346.147,381.266,346.139Z" transform="translate(-311.192 -289.313)" fill="#a5cdf5"/>
          <path id="Trazado_159495" data-name="Trazado 159495" d="M225.576,265.783a1.666,1.666,0,0,1,.4,3.278A14.75,14.75,0,0,0,214.988,284.9a1.68,1.68,0,0,1-1.451,1.84c-4.822.667-7.169,4.951-6.884,9.021a1.671,1.671,0,0,1-3.134.894c-2.82-5.054-.2-13.1,7.545-12.806A14.774,14.774,0,0,1,225.576,265.783Z" transform="translate(-170.197 -223.475)" fill="#eef7ff"/>
          <path id="Trazado_159496" data-name="Trazado 159496" d="M247.188,384.728a1.13,1.13,0,0,1-1.607-.385,16.9,16.9,0,0,1-1.608-3.867.984.984,0,0,1,.889-1.235,10.227,10.227,0,0,1,1.112-.017,14.714,14.714,0,0,0,1.561,4.005A1.126,1.126,0,0,1,247.188,384.728Z" transform="translate(-205.108 -318.854)" fill="#a5cdf5"/>
          <path id="Trazado_159497" data-name="Trazado 159497" d="M224.316,145.271l-.072,0a1.671,1.671,0,0,1-1.6-1.74c.006-.156.533-15.723-8.589-23.876-4.849-4.334-11.65-5.863-20.214-4.543a1.671,1.671,0,1,1-.509-3.3c9.608-1.481,17.334.326,22.965,5.367,4.289,3.84,7.323,9.65,8.775,16.8a44.1,44.1,0,0,1,.912,9.694,1.671,1.671,0,0,1-1.669,1.6" transform="translate(-161.366 -93.589)" fill="#fddf5b"/>
          <path id="Trazado_159498" data-name="Trazado 159498" d="M183.7,91.2a1.663,1.663,0,0,1-.717-.163l-7.4-3.519a1.671,1.671,0,0,1-.511-2.642l6.317-6.858a1.671,1.671,0,0,1,2.459,2.265l-4.781,5.191,5.352,2.546A1.672,1.672,0,0,1,183.7,91.2" transform="translate(-146.829 -65.145)" fill="#fddf5b"/>
        </g>
      </g>
    </g>
  </g>
</svg>
