<svg xmlns="http://www.w3.org/2000/svg" xmlns:xlink="http://www.w3.org/1999/xlink" width="295" height="238" viewBox="0 0 295 238">
  <defs>
    <linearGradient id="linear-gradient" x1="0.5" x2="0.5" y2="1" gradientUnits="objectBoundingBox">
      <stop offset="0" stop-color="#fff"/>
      <stop offset="1" stop-color="#fff5d6"/>
    </linearGradient>
    <clipPath id="clip-path">
      <rect id="Rectángulo_12352" data-name="Rectángulo 12352" width="204.283" height="226.096" fill="none"/>
    </clipPath>
  </defs>
  <g id="Grupo_142349" data-name="Grupo 142349" transform="translate(8912.749 9108.921)">
    <g id="Grupo_142326" data-name="Grupo 142326" transform="translate(-9302.749 -11614.921)">
      <g id="Grupo_142249" data-name="Grupo 142249" transform="translate(0 26)">
        <ellipse id="Elipse_4052" data-name="Elipse 4052" cx="117" cy="103.5" rx="117" ry="103.5" transform="translate(419 2499.149)" fill="url(#linear-gradient)"/>
        <rect id="Rectángulo_12316" data-name="Rectángulo 12316" width="295" height="238" transform="translate(390 2480)" fill="none"/>
      </g>
    </g>
    <path id="Trazado_157838" data-name="Trazado 157838" d="M-7341.785-9156.446l26.012-15.652h-16.533l-85.534,57.1,59.081,34.61,65.693-41.445-6.833-8.6,24.69-16.974s-4.452-5.511-5.864-9.039-8.246,9.039-8.246,9.039l-26.454,13.888Z" transform="translate(-1445.289 204.524)" fill="#c4dbe6"/>
    <g id="Grupo_142327" data-name="Grupo 142327" transform="translate(-8868.311 -9108.921)">
      <g id="Grupo_142324" data-name="Grupo 142324" transform="translate(0)" clip-path="url(#clip-path)">
        <path id="Trazado_157800" data-name="Trazado 157800" d="M92.25,136.837l-7.9-4.559,29.108-16.8c1.376-.794,1.374-2.086,0-2.879L83.727,95.426a5.519,5.519,0,0,0-4.986,0l-29.108,16.8-7.9-4.557L70.845,90.867c5.728-3.306,15.047-3.306,20.777,0l29.735,17.169c5.729,3.306,5.729,8.687,0,12Z" transform="translate(21.707 45.97)" fill="#173d7a"/>
        <path id="Trazado_157801" data-name="Trazado 157801" d="M126.169,135.979c0-4.221-2.566-9.124-5.731-10.951L67.7,94.579a3.68,3.68,0,0,0-3.714-.316l0,0L1.015,130.852l60.894,45.884,62.035-36.005a2.966,2.966,0,0,0,.549-.319c1.037-.784,1.677-2.324,1.677-4.433" transform="translate(0.528 48.834)" fill="#d4ecff"/>
        <path id="Trazado_157802" data-name="Trazado 157802" d="M43.81,164.424l62.037-36.006a2.865,2.865,0,0,0,.547-.318h0c1.037-.786,1.677-2.324,1.677-4.433a14.045,14.045,0,0,0-1.544-6.1L35.81,158.4Z" transform="translate(18.625 61.147)" fill="#396caa"/>
        <path id="Trazado_157803" data-name="Trazado 157803" d="M58.469,164.168,5.731,133.719C2.566,131.892,0,126.99,0,122.769s2.566-6.159,5.731-4.332l52.738,30.448c3.165,1.829,5.731,6.731,5.731,10.952s-2.566,6.159-5.731,4.332" transform="translate(0 61.241)" fill="#173d7a"/>
        <path id="Trazado_157804" data-name="Trazado 157804" d="M58.223,148.692,5.485,118.245a3.638,3.638,0,0,0-3.791-.269,3.987,3.987,0,0,1,3.157.556l52.738,30.449c3.165,1.827,5.731,6.731,5.731,10.951,0,2.28-.752,3.887-1.941,4.6,1.551-.473,2.575-2.225,2.575-4.89,0-4.22-2.566-9.124-5.731-10.951" transform="translate(0.881 61.143)" fill="#fff"/>
        <path id="Trazado_157805" data-name="Trazado 157805" d="M35.828,143.871l-6.34-3.657a2.739,2.739,0,0,1-1.143-2.183c0-.841.512-1.228,1.143-.863l6.34,3.657a2.736,2.736,0,0,1,1.143,2.183c0,.841-.512,1.228-1.143.863" transform="translate(14.742 71.269)" fill="#ff2c9c"/>
        <path id="Trazado_157806" data-name="Trazado 157806" d="M41.1,114.832c1.657-.98,1.64-2.54-.036-3.486a6.676,6.676,0,0,0-6.038.062c-1.657.98-1.64,2.542.036,3.486a6.671,6.671,0,0,0,6.038-.062" transform="translate(17.575 57.551)" fill="#5793ce"/>
        <path id="Trazado_157807" data-name="Trazado 157807" d="M47.15,118.242c1.657-.98,1.64-2.54-.036-3.486a6.676,6.676,0,0,0-6.038.062c-1.657.98-1.64,2.542.036,3.487a6.676,6.676,0,0,0,6.038-.064" transform="translate(20.723 59.325)" fill="#fff"/>
        <path id="Trazado_157808" data-name="Trazado 157808" d="M53.2,121.653c1.657-.98,1.64-2.54-.036-3.486a6.676,6.676,0,0,0-6.038.062c-1.657.98-1.64,2.542.036,3.487a6.676,6.676,0,0,0,6.038-.064" transform="translate(23.871 61.099)" fill="#fff"/>
        <path id="Trazado_157809" data-name="Trazado 157809" d="M66.075,107.646a.76.76,0,0,1-.76-.76V63.626a.76.76,0,0,1,1.52,0v43.26a.76.76,0,0,1-.76.76" transform="translate(33.97 32.696)" fill="#396caa"/>
        <rect id="Rectángulo_12348" data-name="Rectángulo 12348" width="7.515" height="16.219" transform="translate(96.287 93.601)" fill="#5793ce"/>
        <path id="Trazado_157810" data-name="Trazado 157810" d="M69.758,74.522a5.877,5.877,0,0,1-5.314,0c-1.468-.847-1.468-2.221,0-3.069a5.877,5.877,0,0,1,5.314,0c1.467.848,1.467,2.222,0,3.069" transform="translate(32.944 36.832)" fill="#5793ce"/>
        <rect id="Rectángulo_12349" data-name="Rectángulo 12349" width="12.179" height="25.437" transform="translate(93.956 70.998)" fill="#5793ce"/>
        <path id="Trazado_157811" data-name="Trazado 157811" d="M63.343,63.59v5.489a9.718,9.718,0,0,0,7.515,0V63.59a9.718,9.718,0,0,0-7.515,0" transform="translate(32.944 32.68)" fill="#396caa"/>
        <path id="Trazado_157812" data-name="Trazado 157812" d="M72.2,67.129a9.519,9.519,0,0,1-8.611,0c-2.379-1.373-2.379-3.6,0-4.972a9.519,9.519,0,0,1,8.611,0c2.377,1.373,2.377,3.6,0,4.972" transform="translate(32.147 31.792)" fill="#5793ce"/>
        <path id="Trazado_157813" data-name="Trazado 157813" d="M93.829,123.263a.76.76,0,0,1-.76-.76V79.243a.76.76,0,1,1,1.52,0V122.5a.76.76,0,0,1-.76.76" transform="translate(48.405 40.819)" fill="#396caa"/>
        <rect id="Rectángulo_12350" data-name="Rectángulo 12350" width="7.515" height="16.219" transform="translate(138.476 117.339)" fill="#5793ce"/>
        <path id="Trazado_157814" data-name="Trazado 157814" d="M97.512,90.138a5.877,5.877,0,0,1-5.314,0c-1.468-.847-1.468-2.221,0-3.068a5.867,5.867,0,0,1,5.314,0c1.467.847,1.468,2.221,0,3.068" transform="translate(47.379 44.954)" fill="#5793ce"/>
        <rect id="Rectángulo_12351" data-name="Rectángulo 12351" width="12.179" height="25.437" transform="translate(136.144 94.737)" fill="#5793ce"/>
        <path id="Trazado_157815" data-name="Trazado 157815" d="M91.1,79.207V84.7a9.718,9.718,0,0,0,7.515,0V79.207a9.718,9.718,0,0,0-7.515,0" transform="translate(47.379 40.802)" fill="#396caa"/>
        <path id="Trazado_157816" data-name="Trazado 157816" d="M99.958,82.745a9.519,9.519,0,0,1-8.611,0c-2.379-1.373-2.379-3.6,0-4.972a9.519,9.519,0,0,1,8.611,0c2.377,1.373,2.377,3.6,0,4.972" transform="translate(46.581 39.914)" fill="#5793ce"/>
        <path id="Trazado_157817" data-name="Trazado 157817" d="M121.68,100.02,138.01,90.4l-15.552-19.41-4.089,6.681Z" transform="translate(61.563 36.923)" fill="#5793ce"/>
        <path id="Trazado_157818" data-name="Trazado 157818" d="M42.545,25.138,68.607,10.144s-.98,14.964-.98,14.994-14.971,4.638-14.971,4.638Z" transform="translate(22.128 5.276)" fill="#5793ce"/>
        <path id="Trazado_157819" data-name="Trazado 157819" d="M159.03,88.135a16.428,16.428,0,0,0-5.64-2.09c-2.627-13.81-12.237-28.474-23.694-35.09a23.206,23.206,0,0,0-9.7-3.282c-1.564-16.738-13.2-35.76-27.336-43.92C85.282-.509,78.583-1.014,73.641,1.6V1.584l-.239.137c-.128.071-.252.143-.375.217L57.659,11.015l5.106,4.033c-4.585,2-7.482,7.144-7.482,14.743,0,14.015,9.84,31.056,21.976,38.063l81.771,58.39c9.113,5.261,16.5,1,16.5-9.526s-7.389-23.32-16.5-28.582" transform="translate(28.752 0)" fill="#5793ce"/>
        <path id="Trazado_157820" data-name="Trazado 157820" d="M55.782,23.621,91.054,3.011C84.206-.559,78.019-.854,73.38,1.6l0-.012-.24.137c-.126.071-.251.143-.375.217L57.4,11.015,62.5,15.047c-3.2,1.4-5.579,4.338-6.722,8.573" transform="translate(29.012 0)" fill="#5793ce"/>
        <path id="Trazado_157821" data-name="Trazado 157821" d="M107.823,67.277l25.737-15.1c-4.414-7.634-10.493-14.3-17.223-18.189Q115,33.213,113.7,32.628L80.967,51.772Z" transform="translate(42.111 16.97)" fill="#5793ce"/>
        <path id="Trazado_157822" data-name="Trazado 157822" d="M61.616,12.47l11.469,6.622,21-12.371a41.664,41.664,0,0,0-4.72-3.2A29.449,29.449,0,0,0,82.031.44Z" transform="translate(32.046 0.229)" fill="#d4ecff"/>
        <path id="Trazado_157823" data-name="Trazado 157823" d="M120.726,42.563l-20.541,12.1,7.143,7.968,18.647-11.01a60,60,0,0,0-5.249-9.061" transform="translate(52.106 22.137)" fill="#d4ecff"/>
        <path id="Trazado_157824" data-name="Trazado 157824" d="M151.8,94.389a16.408,16.408,0,0,0-5.64-2.09c-2.627-13.81-12.237-28.474-23.694-35.09a23.206,23.206,0,0,0-9.7-3.282c-1.564-16.738-13.2-35.76-27.336-43.92-15.2-8.776-27.52-1.663-27.52,15.888,0,.6.017,1.195.044,1.8-11.115-5.155-19.8.654-19.8,13.819,0,14.014,9.838,31.056,21.975,38.063L151.8,132.5c9.113,5.261,16.5,1,16.5-9.528s-7.389-23.318-16.5-28.581" transform="translate(19.847 3.25)" fill="#d4ecff"/>
        <path id="Trazado_157825" data-name="Trazado 157825" d="M56.239,21.434c-.027-.6-.046-1.2-.046-1.8l0-.074c-6.14-2.387-11.416-1.348-14.728,2.484,3.6-2.961,8.829-3.365,14.772-.61" transform="translate(21.567 9.509)" fill="#fff"/>
        <path id="Trazado_157826" data-name="Trazado 157826" d="M144.3,93.529a16.439,16.439,0,0,0-5.64-2.09c-2.627-13.81-12.237-28.474-23.694-35.09a23.206,23.206,0,0,0-9.7-3.282c-1.564-16.738-13.2-35.76-27.336-43.92-9.469-5.468-17.82-4.766-22.771.783,5.044-4.311,12.767-4.477,21.43.524,14.132,8.16,25.77,27.182,27.334,43.922a23.18,23.18,0,0,1,9.7,3.28c11.458,6.615,21.067,21.281,23.7,35.091a16.37,16.37,0,0,1,5.638,2.09c9.115,5.261,16.5,18.057,16.5,28.581,0,3.8-.973,6.764-2.631,8.779,2.472-1.9,3.974-5.357,3.974-10.087,0-10.522-7.389-23.32-16.5-28.581" transform="translate(28.69 2.803)" fill="#fff"/>
        <path id="Trazado_157827" data-name="Trazado 157827" d="M54.445,30.3l6.891,3.2-.351-7.587c-.024-.532-.04-1.061-.04-1.587,0-6.772,2.045-11.683,5.757-13.827s8.99-1.458,14.854,1.927c12.614,7.283,23.618,25.012,25.051,40.36l.362,3.867,3.873.3a18.619,18.619,0,0,1,7.745,2.678c10.019,5.784,19.05,19.226,21.473,31.962l.607,3.188,3.206.5a11.885,11.885,0,0,1,4.048,1.529c7.7,4.443,14.2,15.706,14.2,24.591,0,3.326-.923,5.766-2.531,6.695s-4.18.506-7.061-1.155L60.863,74.013C50.2,67.857,41.191,52.253,41.191,39.94c0-4.831,1.424-8.513,3.91-10.1a6.7,6.7,0,0,1,3.654-.977,13.775,13.775,0,0,1,5.69,1.438" transform="translate(21.423 4.822)" fill="#173d7a"/>
        <path id="Trazado_157828" data-name="Trazado 157828" d="M80.005,61.932l2.418-1.215-2.38-1.8Z" transform="translate(41.611 30.641)" fill="#5793ce"/>
        <path id="Trazado_157829" data-name="Trazado 157829" d="M75.228,39.817l2.347-1.187.043,1.228Z" transform="translate(39.126 20.091)" fill="#5793ce"/>
        <path id="Trazado_157830" data-name="Trazado 157830" d="M85.318,57.832l2.45-1.231-4.715-4.486Z" transform="translate(43.196 27.105)" fill="#5793ce"/>
        <path id="Trazado_157831" data-name="Trazado 157831" d="M85.407,67.55,73.959,60.807a2.442,2.442,0,0,1-1.049-1.924l.038-13.254L86.5,53.611l-.036,13.254c0,.721-.476,1.028-1.056.686" transform="translate(37.92 23.731)" fill="#5793ce"/>
        <path id="Trazado_157832" data-name="Trazado 157832" d="M81.066,38.675,68.7,46.631c-.524.337-.1,1.6.7,2.066l12.627,7.438,12.629,7.436c.8.47,1.227-.286.705-1.239L83.08,39.862c-.529-.971-1.481-1.531-2.014-1.187" transform="translate(35.611 20.062)" fill="#5793ce"/>
        <path id="Trazado_157833" data-name="Trazado 157833" d="M83.792,68.363,72.342,61.62A2.445,2.445,0,0,1,71.295,59.7l.036-13.254,13.552,7.982-.035,13.254c0,.721-.477,1.028-1.056.686" transform="translate(37.08 24.154)" fill="#d4ecff"/>
        <path id="Trazado_157834" data-name="Trazado 157834" d="M79.451,39.488,67.086,47.444c-.524.337-.1,1.6.7,2.066L80.41,56.948l12.629,7.438c.8.468,1.227-.287.705-1.24L81.465,40.675c-.529-.971-1.481-1.531-2.014-1.187" transform="translate(34.771 20.485)" fill="#d4ecff"/>
        <path id="Trazado_157835" data-name="Trazado 157835" d="M65.856,71.144c0,.746-.523,1.049-1.17.675a2.584,2.584,0,0,1-1.169-2.026c0-.745.523-1.047,1.169-.675a2.584,2.584,0,0,1,1.17,2.026" transform="translate(33.035 35.865)" fill="#d4ecff"/>
        <path id="Trazado_157836" data-name="Trazado 157836" d="M93.675,86.988c0,.746-.524,1.049-1.17.675a2.584,2.584,0,0,1-1.169-2.026c0-.745.523-1.047,1.169-.675a2.588,2.588,0,0,1,1.17,2.026" transform="translate(47.504 44.105)" fill="#d4ecff"/>
      </g>
    </g>
  </g>
</svg>
