<svg xmlns="http://www.w3.org/2000/svg" xmlns:xlink="http://www.w3.org/1999/xlink" width="295" height="299" viewBox="0 0 295 299">
  <defs>
    <linearGradient id="linear-gradient" x1="0.5" x2="0.5" y2="1" gradientUnits="objectBoundingBox">
      <stop offset="0" stop-color="#fff"/>
      <stop offset="1" stop-color="#fff5d6"/>
    </linearGradient>
    <clipPath id="clip-path">
      <rect id="Rect치ngulo_12359" data-name="Rect치ngulo 12359" width="276.298" height="252.9" fill="none"/>
    </clipPath>
  </defs>
  <g id="Grupo_142345" data-name="Grupo 142345" transform="translate(-390 -2382.159)">
    <g id="Grupo_142341" data-name="Grupo 142341" transform="translate(0 -123.841)">
      <g id="Grupo_142249" data-name="Grupo 142249" transform="translate(0 26)">
        <ellipse id="Elipse_4052" data-name="Elipse 4052" cx="130" cy="114.5" rx="130" ry="114.5" transform="translate(406 2511.149)" fill="url(#linear-gradient)"/>
        <rect id="Rect치ngulo_12316" data-name="Rect치ngulo 12316" width="295" height="299" transform="translate(390 2480)" fill="none"/>
      </g>
    </g>
    <g id="Grupo_142344" data-name="Grupo 142344" transform="translate(399.691 2405.544)">
      <g id="Grupo_142343" data-name="Grupo 142343" transform="translate(0 0)">
        <g id="Grupo_142342" data-name="Grupo 142342" clip-path="url(#clip-path)">
          <path id="Trazado_157981" data-name="Trazado 157981" d="M162.455,183.563l-59.711-34.541a3.058,3.058,0,0,1-1.756-2.551l-.031.023.008-15.711s2.091,1.756,3.322,2.786l37.695-21.72c3.066-1.768,7.7-1.955,10.356-.421l57.072,33.015,4.422-2.549,0,15.774-.024-.023c-.029,1.159-.86,2.37-2.511,3.32l-38.488,22.178c-3.066,1.768-7.7,1.955-10.356.421" transform="translate(-100.955 68.298)" fill="#5793ce"/>
          <path id="Trazado_157982" data-name="Trazado 157982" d="M133.09,133.568l37.695-21.721c3.066-1.766,7.7-1.954,10.356-.419l14.873,8.6v64.557a9.355,9.355,0,0,1-4.756-1.025l-59.711-34.541a3.058,3.058,0,0,1-1.756-2.553l-.031.024.008-15.711s2.091,1.756,3.322,2.786" transform="translate(-129.758 68.298)" fill="#396caa"/>
          <path id="Trazado_157983" data-name="Trazado 157983" d="M212.047,141.76l-59.711-34.541c-2.653-1.535-7.291-1.347-10.356.421l-38.488,22.178c-3.067,1.768-3.4,4.443-.749,5.979l59.711,34.54c2.653,1.535,7.291,1.347,10.358-.421L211.3,147.74c3.066-1.768,3.4-4.445.748-5.979" transform="translate(-100.953 65.694)" fill="#d4ecff"/>
          <path id="Trazado_157984" data-name="Trazado 157984" d="M162.355,161.241,102.644,126.7a2.859,2.859,0,0,1-1.68-3.213,3.588,3.588,0,0,0,1.543,1.6l59.709,34.541c2.653,1.536,7.291,1.347,10.356-.421l38.488-22.178a4.738,4.738,0,0,0,2.431-2.765c.646,1.433-.128,3.127-2.292,4.374L172.711,160.82c-3.066,1.768-7.7,1.955-10.356.421" transform="translate(-100.715 76.401)" fill="#fff"/>
          <path id="Trazado_157985" data-name="Trazado 157985" d="M149.641,124.445c2.227-1.284,2.229-3.367,0-4.654a8.909,8.909,0,0,0-8.061-.006c-2.227,1.282-2.229,3.367,0,4.654a8.909,8.909,0,0,0,8.061.006" transform="translate(-101.489 73.517)" fill="#fff"/>
          <path id="Trazado_157986" data-name="Trazado 157986" d="M142.1,128.808c2.227-1.284,2.229-3.367,0-4.654a8.914,8.914,0,0,0-8.061-.008c-2.227,1.284-2.229,3.369,0,4.655a8.909,8.909,0,0,0,8.061.006" transform="translate(-81.744 76.216)" fill="#173d7a"/>
          <path id="Trazado_157987" data-name="Trazado 157987" d="M134.561,133.17c2.227-1.284,2.229-3.367,0-4.654a8.914,8.914,0,0,0-8.061-.008c-2.227,1.284-2.229,3.368,0,4.655a8.909,8.909,0,0,0,8.061.007" transform="translate(-61.999 78.914)" fill="#396caa"/>
          <path id="Trazado_157988" data-name="Trazado 157988" d="M51.922,137.44v-5.125h1.523a18.361,18.361,0,0,1,6.9-6.449c11.224-6.48,29.423-6.48,40.647,0a18.355,18.355,0,0,1,6.894,6.449H109.4V137.4h0c.019,4.262-2.784,8.527-8.416,11.778-11.224,6.481-29.422,6.481-40.647,0-5.612-3.241-8.417-7.488-8.417-11.736" transform="translate(82.848 74.867)" fill="#5793ce"/>
          <path id="Trazado_157989" data-name="Trazado 157989" d="M67.846,125.863c10.055-5.8,25.694-6.394,36.915-1.8v26.9c-11.221,4.6-26.859,4.009-36.915-1.8-5.614-3.241-8.419-7.488-8.419-11.736v-5.125H60.95a18.373,18.373,0,0,1,6.9-6.449" transform="translate(75.343 74.871)" fill="#173d7a"/>
          <path id="Trazado_157990" data-name="Trazado 157990" d="M60.339,146.069c11.224,6.48,29.423,6.48,40.647,0s11.226-16.988,0-23.468-29.422-6.48-40.647,0-11.224,16.988,0,23.468" transform="translate(82.848 72.847)" fill="#d4ecff"/>
          <path id="Trazado_157991" data-name="Trazado 157991" d="M60.329,139.525c11.224,6.481,29.423,6.481,40.647,0,5.379-3.106,8.152-7.137,8.375-11.206.243,4.422-2.53,8.888-8.375,12.262-11.224,6.481-29.423,6.481-40.647,0-5.845-3.373-8.616-7.839-8.375-12.262.223,4.069,3,8.1,8.375,11.206" transform="translate(82.859 79.391)" fill="#fff"/>
          <path id="Trazado_157992" data-name="Trazado 157992" d="M68.249,146.119a4.547,4.547,0,0,0,4.092.185l17.518-10.031a1.214,1.214,0,0,0,.709-1.01h0l.018-36-23.3,9.792-.031,35.641a1,1,0,0,0,0,.209v0a1.786,1.786,0,0,0,.991,1.219" transform="translate(76.848 61.411)" fill="#5793ce"/>
          <path id="Trazado_157993" data-name="Trazado 157993" d="M90.575,108.105l-.006,13.987L67.257,135.55l.015-17.786,20.015-11.556Z" transform="translate(76.854 65.711)" fill="#5793ce"/>
          <path id="Trazado_157994" data-name="Trazado 157994" d="M79.791,105.8l-.031,35.639a1.017,1.017,0,0,0,0,.21,1.786,1.786,0,0,0,.991,1.219,4.639,4.639,0,0,0,2,.575l.1-38.93Z" transform="translate(64.346 64.662)" fill="#173d7a"/>
          <path id="Trazado_157995" data-name="Trazado 157995" d="M67.954,108.61,85.47,98.581a4.555,4.555,0,0,1,4.094.183c1.209.7,1.337,1.763.285,2.365L72.333,111.158a4.555,4.555,0,0,1-4.094-.183c-1.208-.7-1.335-1.763-.285-2.365" transform="translate(76.891 60.743)" fill="#173d7a"/>
          <path id="Trazado_157996" data-name="Trazado 157996" d="M72.346,110.571l17.518-10.029a1.207,1.207,0,0,0,.709-1.042,1.317,1.317,0,0,1-.685.813L72.371,110.341a4.55,4.55,0,0,1-4.094-.185,1.687,1.687,0,0,1-.992-1.322c-.125.523.206,1.109.968,1.552h0a4.547,4.547,0,0,0,4.092.185" transform="translate(76.853 61.56)" fill="#fff"/>
          <path id="Trazado_157997" data-name="Trazado 157997" d="M25.834,99.241,196.421.753a4.038,4.038,0,0,1,4.105-.337V.41l5.329,3.09-3.25.456a9.836,9.836,0,0,1,.121,1.562V123.306c0,4.642-2.823,10.034-6.3,12.046L26.094,233.69l.871,3.522-5.253-3.038.008,0c-1.34-.767-2.192-2.551-2.192-5.1V111.286c0-4.641,2.823-10.034,6.3-12.045" transform="translate(38.832 0)" fill="#396caa"/>
          <path id="Trazado_157998" data-name="Trazado 157998" d="M65.414,194.074l.008,0c-1.34-.767-2.192-2.551-2.192-5.094V71.187a15.323,15.323,0,0,1,1.557-6.374l114.028,65.834L69.8,193.59l.871,3.522Z" transform="translate(-4.868 40.1)" fill="#173d7a"/>
          <path id="Trazado_157999" data-name="Trazado 157999" d="M24.425,235.777l170.587-98.488c3.482-2.01,6.3-7.4,6.3-12.045V7.454c0-4.641-2.823-6.774-6.3-4.765L24.425,101.177c-3.482,2.01-6.3,7.4-6.3,12.046V231.012c0,4.642,2.823,6.776,6.3,4.765" transform="translate(45.65 1.196)" fill="#d4ecff"/>
          <path id="Trazado_158000" data-name="Trazado 158000" d="M26.421,101.01,197.008,2.522a4.125,4.125,0,0,1,3.917-.435,4.633,4.633,0,0,0-3.074.7L27.264,101.281c-3.482,2.009-6.3,7.4-6.3,12.043v117.79c0,2.664.934,4.5,2.386,5.2-1.925-.327-3.229-2.318-3.229-5.47V113.055c0-4.642,2.823-10.034,6.3-12.045" transform="translate(42.811 1.094)" fill="#fff"/>
          <path id="Trazado_158001" data-name="Trazado 158001" d="M22.538,230.194l171.655-99.105a5.343,5.343,0,0,0,2.231-4.262V6.6c0-1.643-1-2.4-2.231-1.687L22.538,104.018a5.343,5.343,0,0,0-2.231,4.262V228.508c0,1.643,1,2.4,2.231,1.687" transform="translate(47.003 2.874)" fill="#173d7a"/>
          <path id="Trazado_158002" data-name="Trazado 158002" d="M.01,119.868h0V109.113l24.114-.013,8.336-4.812a8.294,8.294,0,0,1,7.462.309l7.778,4.49,24.135-.013v11.059a2.162,2.162,0,0,1-1.28,2l-31.168,18a8.3,8.3,0,0,1-7.464-.311L1.827,122.443c-1.274-.735-1.889-1.688-1.818-2.575" transform="translate(204.452 64.062)" fill="#396caa"/>
          <path id="Trazado_158003" data-name="Trazado 158003" d="M0,103.546a8.611,8.611,0,0,1,4,1.049l7.778,4.49,24.136-.013v11.059a2.166,2.166,0,0,1-1.282,2l-31.168,18a6.779,6.779,0,0,1-3.464.74Z" transform="translate(240.371 64.064)" fill="#396caa"/>
          <path id="Trazado_158004" data-name="Trazado 158004" d="M0,106.962l2.731,0v11.061a2.16,2.16,0,0,1-1.28,2L0,120.857Z" transform="translate(273.552 66.176)" fill="#5793ce"/>
          <path id="Trazado_158005" data-name="Trazado 158005" d="M26.317,131.116a8.507,8.507,0,0,1-5.967-.068V118.49h5.967Z" transform="translate(217.041 73.31)" fill="#5793ce"/>
          <path id="Trazado_158006" data-name="Trazado 158006" d="M39.386,134.907l31.168-18c1.913-1.1,1.674-3.033-.536-4.309L39.924,95.227a8.292,8.292,0,0,0-7.464-.309l-31.168,18c-1.913,1.1-1.674,3.033.536,4.309L31.922,134.6a8.3,8.3,0,0,0,7.464.309" transform="translate(204.452 58.264)" fill="#d4ecff"/>
          <path id="Trazado_158007" data-name="Trazado 158007" d="M1.823,107.618l30.095,17.375a8.292,8.292,0,0,0,7.464.309l31.168-18a2.892,2.892,0,0,0,.955-.847c.657,1.059.359,2.2-.955,2.964l-31.168,18a8.3,8.3,0,0,1-7.464-.309L1.823,109.734c-1.716-.991-2.239-2.375-1.491-3.461a4.167,4.167,0,0,0,1.491,1.345" transform="translate(204.456 65.751)" fill="#fff"/>
          <path id="Trazado_158008" data-name="Trazado 158008" d="M35.74,115.726A2.781,2.781,0,0,0,37,117.906c.694.4,1.259.076,1.259-.727A2.785,2.785,0,0,0,37,115c-.7-.4-1.259-.076-1.259.727" transform="translate(180.187 71.044)" fill="#d4ecff"/>
          <path id="Trazado_158009" data-name="Trazado 158009" d="M38.243,114.281a2.782,2.782,0,0,0,1.261,2.18c.694.4,1.258.076,1.258-.727a2.783,2.783,0,0,0-1.258-2.18c-.7-.4-1.261-.076-1.261.727" transform="translate(173.632 70.15)" fill="#d4ecff"/>
          <path id="Trazado_158010" data-name="Trazado 158010" d="M40.745,112.836A2.781,2.781,0,0,0,42,115.016c.694.4,1.259.076,1.259-.727A2.785,2.785,0,0,0,42,112.109c-.7-.4-1.259-.076-1.259.727" transform="translate(167.08 69.256)" fill="#d4ecff"/>
          <path id="Trazado_158011" data-name="Trazado 158011" d="M30.239,119.73l14.585-8.42c.9-.516.783-1.42-.249-2.017L30.49,101.162A3.874,3.874,0,0,0,27,101.018l-14.586,8.42c-.9.516-.783,1.42.251,2.015l14.083,8.132a3.888,3.888,0,0,0,3.493.144" transform="translate(211.757 62.283)" fill="#5793ce"/>
          <path id="Trazado_158012" data-name="Trazado 158012" d="M23.306,109.1l2.019-1.165c.123-.071.108-.2-.036-.278l-1.949-1.125a.531.531,0,0,0-.482-.019l-2.019,1.164c-.123.071-.108.2.036.28l1.949,1.125a.536.536,0,0,0,.482.019" transform="translate(217.293 65.867)" fill="#d4ecff"/>
          <path id="Trazado_158013" data-name="Trazado 158013" d="M44.818,111.309l-.042.024a2.355,2.355,0,0,0-.209-.144l-14.083-8.131a3.883,3.883,0,0,0-3.493-.146l-14.544,8.4c-.824-.591-.868-1.4-.04-1.873l14.584-8.42a3.883,3.883,0,0,1,3.493.144l14.083,8.131c1.034.6,1.146,1.5.251,2.017" transform="translate(211.762 62.284)" fill="#396caa"/>
          <path id="Trazado_158014" data-name="Trazado 158014" d="M74.428,104.879l-5.243-1.013L73.1,92.794,78.384,93.9a29.07,29.07,0,0,1,5.881-7.263l-.17-7.452,8.642-4.262.1,7.49a8.726,8.726,0,0,1,6.043,1.337l5.164-6.311L108.3,84.5l-5.133,6.18a21.313,21.313,0,0,1,.016,8.336l5.057,1.07-4.167,10.721L99.05,109.8a28.679,28.679,0,0,1-5.761,6.913l.089,6.828-8.184,4.019-.154-6.794a8.82,8.82,0,0,1-5.9-1.131l-4.885,5.923L69.8,119.093l4.916-5.97a20.357,20.357,0,0,1-.283-8.244m14.615,7.169c4.591-2.258,8.276-8.6,8.229-14.225-.049-5.7-3.9-8.5-8.6-6.182S80.3,100.455,80.459,106.1c.152,5.57,3.995,8.207,8.584,5.95" transform="translate(56.01 46.354)" fill="#fff"/>
          <path id="Trazado_158015" data-name="Trazado 158015" d="M58.648,73.83,53.2,72.556l4.382-12.2L63.072,61.8a27.132,27.132,0,0,1,4.235-5.237l.057-8.343,9.008-4.458-.134,8.385A7.229,7.229,0,0,1,80.4,53.226L86,46.3l4.165,7.99-5.56,6.776a21.256,21.256,0,0,1-.155,6.2l5.28,1.229L85.12,80.211l-5.24-1.266a26.99,26.99,0,0,1-4.155,5.062l-.123,7.7-8.561,4.22.052-7.666a7.3,7.3,0,0,1-4.081-.944l-5.319,6.523-4.383-7.265L58.662,80a20.363,20.363,0,0,1-.015-6.169m12.843,5.042c3.6-1.779,6.6-6.96,6.682-11.613.086-4.7-2.82-7.074-6.489-5.261S65.024,69.1,65,73.762c-.019,4.618,2.885,6.888,6.488,5.11" transform="translate(100.021 27.073)" fill="#fff"/>
          <path id="Trazado_158016" data-name="Trazado 158016" d="M81.138,74.285l-3.173-.737,2.038-6,3.2.762a19.323,19.323,0,0,1,5-6.328l-.129-4.659,4.49-2.222.107,4.672a5.9,5.9,0,0,1,5.194,1.287l3.085-3.872,2.29,3.864-3.064,3.82a16.056,16.056,0,0,1,.112,7.486l3.092.732-2.127,5.868-3.092-.722a19.132,19.132,0,0,1-4.932,6.122l.1,4.388-4.332,2.137-.12-4.377a5.928,5.928,0,0,1-5.112-1.162l-2.977,3.717-2.36-3.647L81.4,81.691a15.585,15.585,0,0,1-.264-7.406m9.748,4.6c2.422-1.2,4.333-4.655,4.27-7.744-.063-3.111-2.1-4.665-4.552-3.453S86.245,72.4,86.337,75.5c.092,3.074,2.129,4.581,4.549,3.386" transform="translate(46.719 34.094)" fill="#fff"/>
        </g>
      </g>
    </g>
  </g>
</svg>
