<svg xmlns="http://www.w3.org/2000/svg" xmlns:xlink="http://www.w3.org/1999/xlink" width="295" height="196" viewBox="0 0 295 196">
  <defs>
    <linearGradient id="linear-gradient" x1="0.5" x2="0.5" y2="1" gradientUnits="objectBoundingBox">
      <stop offset="0" stop-color="#fff"/>
      <stop offset="1" stop-color="#fff5d6"/>
    </linearGradient>
    <clipPath id="clip-path">
      <rect id="Rect치ngulo_12356" data-name="Rect치ngulo 12356" width="218.367" height="170.316" fill="none"/>
    </clipPath>
    <clipPath id="clip-path-2">
      <path id="Trazado_157978" data-name="Trazado 157978" d="M33.885,42.911c0,18.305,12.852,40.565,28.7,49.716s28.7,1.733,28.7-16.57-12.85-40.565-28.7-49.716a26.028,26.028,0,0,0-12.82-3.921c-9.417,0-15.884,7.507-15.884,20.491" transform="translate(-33.885 -22.42)" fill="none"/>
    </clipPath>
  </defs>
  <g id="Grupo_142340" data-name="Grupo 142340" transform="translate(-390 -2388.746)">
    <g id="Grupo_142323" data-name="Grupo 142323" transform="translate(0 -111.254)">
      <g id="Grupo_142249" data-name="Grupo 142249" transform="translate(0 26)">
        <ellipse id="Elipse_4052" data-name="Elipse 4052" cx="100" cy="88.5" rx="100" ry="88.5" transform="translate(436 2482)" fill="url(#linear-gradient)"/>
        <rect id="Rect치ngulo_12316" data-name="Rect치ngulo 12316" width="295" height="196" transform="translate(390 2474)" fill="none"/>
      </g>
    </g>
    <g id="Grupo_142339" data-name="Grupo 142339" transform="translate(431.189 2391.925)">
      <g id="Grupo_142334" data-name="Grupo 142334" transform="translate(0)">
        <g id="Grupo_142333" data-name="Grupo 142333" clip-path="url(#clip-path)">
          <path id="Trazado_157940" data-name="Trazado 157940" d="M151.776,153.672l63.569-36.812c2.089-1.21,3.062-2.841,2.993-4.537l.014,0-.026-9.224-3.535,4.141c-.23-.152-.46-.3-.712-.447L84.037,31.958c-5.164-2.972-12.968-3.285-17.432-.7L3.93,67.554C2.661,66.165,0,63.232,0,63.232l.03,9.024h0c-.093,2.034,1.354,4.2,4.269,5.879l130.044,74.839c5.163,2.972,12.966,3.283,17.431.7" transform="translate(0.001 14.893)" fill="#396caa"/>
          <path id="Trazado_157941" data-name="Trazado 157941" d="M125.233,97.837l-3.661,2.114c-.486.28-.88-.018-.88-.667a2.107,2.107,0,0,1,.88-1.681l3.661-2.114c.486-.281.88.017.88.665a2.11,2.11,0,0,1-.88,1.682" transform="translate(60.917 48.143)" fill="#173d7a"/>
          <path id="Trazado_157942" data-name="Trazado 157942" d="M84.036,31.958c-5.163-2.972-12.966-3.283-17.431-.7L3.929,67.555C2.66,66.166,0,63.234,0,63.234l.032,9.022,0,0c-.095,2.034,1.353,4.2,4.269,5.879l130.042,74.839a20.121,20.121,0,0,0,9.387,2.438l-.123-89.171Z" transform="translate(0 14.894)" fill="#5793ce"/>
          <path id="Trazado_157943" data-name="Trazado 157943" d="M3.01,61.909,66.579,25.1c4.465-2.587,12.268-2.274,17.431.7l130.044,74.839c5.163,2.972,5.73,7.476,1.265,10.062L151.75,147.509c-4.465,2.585-12.268,2.274-17.431-.7L4.275,71.971C-.888,69-1.455,64.494,3.01,61.909" transform="translate(0 11.783)" fill="#d4ecff"/>
          <path id="Trazado_157944" data-name="Trazado 157944" d="M151.778,133.861l63.569-36.812c2.3-1.333,3.256-3.178,2.942-5.059a5.3,5.3,0,0,1-2.99,4.075L151.73,132.876c-4.465,2.585-12.268,2.272-17.431-.7L4.256,57.337C1.755,55.9.344,54.1.049,52.334-.1,54.4,1.337,56.613,4.3,58.323l130.044,74.839c5.163,2.972,12.966,3.283,17.431.7" transform="translate(0.019 26.415)" fill="#fff"/>
          <path id="Trazado_157945" data-name="Trazado 157945" d="M6,62.239,67.088,26.867c3.318-1.922,9.119-1.69,12.956.519l128.2,73.776c3.837,2.209,4.258,5.557.94,7.479L148.1,144.013c-3.318,1.922-9.119,1.688-12.956-.519L6.945,69.717C3.108,67.508,2.686,64.16,6,62.239" transform="translate(1.901 12.903)" fill="#173d7a"/>
          <path id="Trazado_157946" data-name="Trazado 157946" d="M90.382,100.953l43.1-24.885-2.751-1.589-43.1,24.885Z" transform="translate(44.23 37.592)" fill="#d4ecff"/>
          <path id="Trazado_157947" data-name="Trazado 157947" d="M110.313,92.01l21.825-12.6-2.751-1.589-21.825,12.6Z" transform="translate(54.29 39.279)" fill="#d4ecff"/>
          <path id="Trazado_157948" data-name="Trazado 157948" d="M103.274,93.218l7.078-4.087L107.6,87.544l-7.078,4.085Z" transform="translate(50.737 44.186)" fill="#ff2c9c"/>
          <path id="Trazado_157949" data-name="Trazado 157949" d="M96.172,97.318l7.078-4.087L100.5,91.644l-7.078,4.085Z" transform="translate(47.153 46.256)" fill="#fff"/>
          <path id="Trazado_157950" data-name="Trazado 157950" d="M110.15,87.965l17.712-10.226-2.751-1.589L107.4,86.376Z" transform="translate(54.208 38.435)" fill="#fff"/>
          <path id="Trazado_157951" data-name="Trazado 157951" d="M95.781,96.261l17.712-10.226-2.751-1.589L93.031,94.672Z" transform="translate(46.956 42.623)" fill="#d4ecff"/>
          <path id="Trazado_157952" data-name="Trazado 157952" d="M103.8,78.521a3.548,3.548,0,0,0,3.21,0,.979.979,0,0,0,0-1.854,3.548,3.548,0,0,0-3.21,0,.979.979,0,0,0,0,1.854" transform="translate(52.054 38.503)" fill="#ff2c9c"/>
          <path id="Trazado_157953" data-name="Trazado 157953" d="M100.609,80.361a3.548,3.548,0,0,0,3.21,0,.979.979,0,0,0,0-1.854,3.548,3.548,0,0,0-3.21,0,.979.979,0,0,0,0,1.854" transform="translate(50.445 39.431)" fill="#fff"/>
          <path id="Trazado_157954" data-name="Trazado 157954" d="M97.422,82.2a3.548,3.548,0,0,0,3.21,0,.979.979,0,0,0,0-1.854,3.548,3.548,0,0,0-3.21,0,.979.979,0,0,0,0,1.854" transform="translate(48.837 40.36)" fill="#d4ecff"/>
          <path id="Trazado_157955" data-name="Trazado 157955" d="M94.234,84.042a3.548,3.548,0,0,0,3.21,0,.979.979,0,0,0,0-1.854,3.548,3.548,0,0,0-3.21,0,.979.979,0,0,0,0,1.854" transform="translate(47.227 41.289)" fill="#ff2c9c"/>
          <path id="Trazado_157956" data-name="Trazado 157956" d="M91.047,85.882a3.548,3.548,0,0,0,3.21,0,.979.979,0,0,0,0-1.854,3.548,3.548,0,0,0-3.21,0,.979.979,0,0,0,0,1.854" transform="translate(45.619 42.218)" fill="#fff"/>
          <path id="Trazado_157957" data-name="Trazado 157957" d="M27.7,52.07l7.257-4.191-2.82-1.628-7.257,4.191Z" transform="translate(12.56 23.344)" fill="#ff2c9c"/>
          <path id="Trazado_157958" data-name="Trazado 157958" d="M20.988,55.947l7.257-4.191-2.82-1.628-7.257,4.191Z" transform="translate(9.17 25.301)" fill="#fff"/>
          <path id="Trazado_157959" data-name="Trazado 157959" d="M49.247,39.515,56.5,35.325,53.684,33.7l-7.257,4.191Z" transform="translate(23.433 17.008)" fill="#fff"/>
          <path id="Trazado_157960" data-name="Trazado 157960" d="M28.78,55.428l10.106-5.834-2.821-1.63L25.958,53.8Z" transform="translate(13.102 24.209)" fill="#fff"/>
          <path id="Trazado_157961" data-name="Trazado 157961" d="M23.957,57.114l4.434-2.56-2.821-1.63-4.434,2.561Z" transform="translate(10.668 26.713)" fill="#d4ecff"/>
          <path id="Trazado_157962" data-name="Trazado 157962" d="M72.33,64.114l8.306-4.85a3.2,3.2,0,0,1,2.877.107L91.451,63.9c.853.488.949,1.231.215,1.66l-8.306,4.85a3.2,3.2,0,0,1-2.877-.105l-7.937-4.532c-.855-.488-.951-1.231-.215-1.66" transform="translate(36.258 29.765)" fill="#ff2c9c"/>
          <path id="Trazado_157963" data-name="Trazado 157963" d="M62.7,69.735l8.306-4.85a3.2,3.2,0,0,1,2.877.107l7.937,4.531c.853.488.949,1.231.215,1.66l-8.306,4.85a3.2,3.2,0,0,1-2.877-.105l-7.937-4.532c-.855-.488-.951-1.231-.215-1.66" transform="translate(31.398 32.602)" fill="#b3e0ff"/>
          <path id="Trazado_157964" data-name="Trazado 157964" d="M62.958,58.763l8.306-4.85a3.2,3.2,0,0,1,2.877.107l7.937,4.531c.853.488.949,1.231.215,1.66l-8.306,4.85a3.2,3.2,0,0,1-2.877-.105l-7.937-4.532c-.855-.488-.951-1.231-.215-1.66" transform="translate(31.527 27.064)" fill="#fff"/>
          <path id="Trazado_157965" data-name="Trazado 157965" d="M53.33,64.384l8.306-4.85a3.2,3.2,0,0,1,2.877.107l7.937,4.531c.853.488.949,1.231.215,1.66l-8.306,4.85a3.2,3.2,0,0,1-2.877-.105l-7.937-4.532c-.855-.488-.951-1.231-.215-1.66" transform="translate(26.668 29.901)" fill="#396caa"/>
          <path id="Trazado_157966" data-name="Trazado 157966" d="M102.226,74.563l.012-5.423,6.415-32.326L102.317,32.9l-12.7,7.008-.09,41.663c-.006,2.8,1.044,4.7,2.659,5.318v0l5.644,3.55.71-2.684.969-4.887a15.5,15.5,0,0,0,2.713-8.3" transform="translate(45.189 16.606)" fill="#173d7a"/>
          <path id="Trazado_157967" data-name="Trazado 157967" d="M100.072,89h0c-3.506,1.935-6.339-.227-6.329-4.829l.09-41.663,12.7-7.009-.092,41.665c-.009,4.6-2.859,9.9-6.365,11.836" transform="translate(47.315 17.919)" fill="#5793ce"/>
          <path id="Trazado_157968" data-name="Trazado 157968" d="M131.846,30.985c0,10.574-7.424,14.861-16.582,9.573S98.682,22.413,98.682,11.838s7.424-14.859,16.582-9.573,16.582,18.147,16.582,28.721" transform="translate(49.808 0)" fill="#5793ce"/>
          <path id="Trazado_157969" data-name="Trazado 157969" d="M142.491,41.189,94.235,68.86,68.294,29.893,118.567.86Z" transform="translate(34.47 0.434)" fill="#5793ce"/>
          <path id="Trazado_157970" data-name="Trazado 157970" d="M135.763,40.665c0-10.876-7.637-24.1-17.055-29.539-4.281-2.471-8.19-2.9-11.185-1.625l0-.008-.062.032-.077.036q-.2.09-.388.19A119.47,119.47,0,0,1,49.64,21.915L44.021,21.7l45.747,78.4,2.478-4.79a119.48,119.48,0,0,1,38.437-43.552c3.136-1.762,5.08-5.6,5.08-11.085" transform="translate(22.219 4.442)" fill="#d4ecff"/>
          <path id="Trazado_157971" data-name="Trazado 157971" d="M99.917,78.2c0-20.863-14.647-46.234-32.717-56.667-9.01-5.2-17.171-5.706-23.087-2.317v0l-.032.02c-.015.008-.029.017-.044.026L38.67,22.407l1.875-.391c-3.816,3.976-6.061,10.241-6.061,18.409,0,20.863,14.647,46.234,32.716,56.667,7.092,4.093,13.655,5.277,19.014,3.944l-.85,1.252L90.305,99.4l.078-.045.178-.1h-.006c5.79-3.471,9.362-10.745,9.362-21.047" transform="translate(17.405 8.615)" fill="#d4ecff"/>
          <path id="Trazado_157972" data-name="Trazado 157972" d="M96.088,79.687c0-20.863-14.647-46.234-32.717-56.667-8.888-5.131-16.949-5.689-22.845-2.45l-.822.482c-.281.178-.555.366-.825.561l1.666-.348c-3.818,3.977-6.063,10.243-6.063,18.409,0,20.865,14.649,46.234,32.717,56.667,7.09,4.094,13.654,5.279,19.014,3.945l-.776,1.141c6.546-3.128,10.651-10.7,10.651-21.74" transform="translate(17.405 9.365)" fill="#fff"/>
          <path id="Trazado_157973" data-name="Trazado 157973" d="M96.652,80.112c0,20.863-14.647,29.32-32.717,18.887S31.219,63.2,31.219,42.334,45.866,13.013,63.935,23.445s32.717,35.8,32.717,56.667" transform="translate(15.757 9.578)" fill="#5793ce"/>
          <path id="Trazado_157974" data-name="Trazado 157974" d="M91.294,76.057c0,18.305-12.852,25.723-28.7,16.572s-28.7-31.411-28.7-49.716,12.852-25.725,28.7-16.572,28.7,31.411,28.7,49.716" transform="translate(17.103 11.316)" fill="#173d7a"/>
          <path id="Trazado_157975" data-name="Trazado 157975" d="M63.93,91.748c-15.852-9.153-28.7-31.411-28.7-49.716,0-9.612,3.545-16.221,9.206-19.006-6.437,2.362-10.547,9.23-10.547,19.581,0,18.305,12.852,40.563,28.7,49.716,7.528,4.346,14.379,4.952,19.5,2.433-4.948,1.816-11.269.969-18.158-3.008" transform="translate(17.103 11.622)" fill="#fff"/>
        </g>
      </g>
      <g id="Grupo_142336" data-name="Grupo 142336" transform="translate(50.988 33.736)">
        <g id="Grupo_142335" data-name="Grupo 142335" clip-path="url(#clip-path-2)">
          <path id="Trazado_157976" data-name="Trazado 157976" d="M50.106,53.293l41.649-32.2,15.123,26.238L57.994,67.388Z" transform="translate(-25.698 -23.091)" fill="#d4ecff"/>
          <path id="Trazado_157977" data-name="Trazado 157977" d="M60.616,52.844c0,3.655-2.567,5.137-5.732,3.309a12.667,12.667,0,0,1-5.733-9.928c0-3.655,2.567-5.137,5.733-3.309a12.674,12.674,0,0,1,5.732,9.928" transform="translate(-26.18 -12.47)" fill="#5793ce"/>
        </g>
      </g>
      <g id="Grupo_142338" data-name="Grupo 142338" transform="translate(0)">
        <g id="Grupo_142337" data-name="Grupo 142337" clip-path="url(#clip-path)">
          <path id="Trazado_157979" data-name="Trazado 157979" d="M92.3,64.972l-.226-.129A3.606,3.606,0,0,1,90.56,61.97l-.023-8.035c0-1.109.67-1.621,1.5-1.142l.226.129a3.6,3.6,0,0,1,1.514,2.873l.024,8.034c0,1.109-.67,1.621-1.5,1.144" transform="translate(45.697 26.555)" fill="#ff2c9c"/>
        </g>
      </g>
    </g>
  </g>
</svg>
