<svg xmlns="http://www.w3.org/2000/svg" xmlns:xlink="http://www.w3.org/1999/xlink" width="820" height="131.237" viewBox="0 0 820 131.237">
  <defs>
    <clipPath id="clip-path">
      <rect id="Rectángulo_5221" data-name="Rectángulo 5221" width="290.341" height="34.237" fill="#039be5"/>
    </clipPath>
  </defs>
  <g id="Grupo_142815" data-name="Grupo 142815" transform="translate(-390 -400)">
    <rect id="Rectángulo_5222" data-name="Rectángulo 5222" width="820" height="102.278" transform="translate(1210 513.881) rotate(180)" fill="#ffeed6"/>
    <text id="Sea_bienvenido_al_estudio_del_componente_45_de_ADSO._Para_comenzar_con_pertinencia_esta_experiencia_formativa_se_le_invita_a_visualizar_el_recurso_didáctico_que_a_continuación_se_muestra." data-name="Sea bienvenido al estudio del componente 45 de ADSO. Para comenzar con pertinencia esta experiencia formativa, se le invita a visualizar el recurso didáctico que a continuación se muestra." transform="translate(438 433.763)" fill="#12263f" font-size="16" font-family="Roboto-Regular, Roboto"><tspan x="0" y="17">Sea bienvenido al estudio del componente 45 de ADSO. Para comenzar con pertinencia esta </tspan><tspan x="0" y="41">experiencia formativa, se le invita a visualizar el recurso didáctico que a continuación se muestra.</tspan></text>
    <rect id="Rectángulo_5223" data-name="Rectángulo 5223" width="23" height="23" transform="translate(1172 400)" fill="#4dd0e1"/>
    <rect id="Rectángulo_5224" data-name="Rectángulo 5224" width="14" height="14" transform="translate(390 500)" fill="#ffa726"/>
    <g id="Grupo_141777" data-name="Grupo 141777">
      <g id="Grupo_141775" data-name="Grupo 141775" transform="translate(655 497)">
        <path id="Trazado_117603" data-name="Trazado 117603" d="M.266,8.75,0,26.9H4.119L3.853,8.75ZM0,6.152H4.119V2.033H0Z" transform="translate(0 2.365)" fill="#039be5"/>
        <path id="Trazado_117604" data-name="Trazado 117604" d="M8.988,6.371l1.369,10.345H7.621ZM6.543.668,4.008,16.752,2.842,25.538H6.455l.71-5.272h3.663l.7,5.272h3.626l-1.166-8.822L11.461.668Z" transform="translate(3.306 0.777)" fill="#039be5"/>
        <g id="Grupo_141774" data-name="Grupo 141774" transform="translate(0 0)">
          <g id="Grupo_141773" data-name="Grupo 141773" clip-path="url(#clip-path)">
            <path id="Trazado_117605" data-name="Trazado 117605" d="M9.41,10.927q0-5.221,4.093-5.235a3.03,3.03,0,0,1,2.624,1.839V0h3.587V26.315H17.192l-.822-1.99a3.217,3.217,0,0,1-2.866,2.4q-4.092-.013-4.093-5.235ZM13,21.486q0,1.687,1.573,1.685,1.558,0,1.558-1.685V10.927q0-1.684-1.558-1.685Q13,9.242,13,10.927Z" transform="translate(10.947 0)" fill="#039be5"/>
            <path id="Trazado_117606" data-name="Trazado 117606" d="M19.05,14.444v3.968q0,1.684,1.547,1.685h.024q1.561-.013,1.56-1.685V16.763h3.587v1.648q0,5.221-5.16,5.222t-5.144-5.222V7.889q0-5.234,5.144-5.235,5.16.013,5.16,5.235v6.555Zm3.13-3.2V7.889q0-1.684-1.573-1.685-1.558,0-1.558,1.685v3.36Z" transform="translate(17.989 3.087)" fill="#039be5"/>
            <rect id="Rectángulo_5219" data-name="Rectángulo 5219" width="3.587" height="26.315" transform="translate(46.547 0)" fill="#039be5"/>
            <path id="Trazado_117607" data-name="Trazado 117607" d="M34.767,23.226H32.245l-.822-1.99a3.217,3.217,0,0,1-2.866,2.4q-4.092-.013-4.093-5.235V16.762q0-5.221,3.942-5.235a4.508,4.508,0,0,1,2.776.8V7.877q0-1.687-1.547-1.687H29.61q-1.421.013-1.421,1.687v.684H24.6V7.877q0-5.224,5.021-5.222,5.147,0,5.144,5.222ZM28.05,18.4q0,1.687,1.573,1.685,1.558,0,1.558-1.685V16.749q-.013-1.671-1.558-1.672-1.574,0-1.573,1.685Z" transform="translate(28.459 3.088)" fill="#039be5"/>
            <path id="Trazado_117608" data-name="Trazado 117608" d="M30.516,23.227V3.061h2.522l.824,1.99a3.214,3.214,0,0,1,2.864-2.4q4.1.013,4.1,5.235V23.227H37.233V7.889q0-1.684-1.571-1.685T34.1,7.889V23.227Z" transform="translate(35.501 3.087)" fill="#039be5"/>
            <path id="Trazado_117609" data-name="Trazado 117609" d="M38.637,5.212V.674h3.587V5.212h2.561v3.2H42.224V25.533H38.637V8.407H36.076v-3.2Z" transform="translate(41.969 0.783)" fill="#039be5"/>
            <path id="Trazado_117610" data-name="Trazado 117610" d="M44.521,14.444v3.968q0,1.684,1.547,1.685h.024q1.561-.013,1.56-1.685V16.763h3.587v1.648q0,5.221-5.16,5.222t-5.144-5.222V7.889q0-5.234,5.144-5.235,5.16.013,5.16,5.235v6.555Zm3.13-3.2V7.889q0-1.684-1.573-1.685-1.558,0-1.558,1.685v3.36Z" transform="translate(47.621 3.087)" fill="#039be5"/>
            <path id="Trazado_117611" data-name="Trazado 117611" d="M52.659,23.014,49.552,2.772h3.626l1.408,12.6,2.445-12.6h3.626l-6.135,28.24h-3.6Z" transform="translate(57.647 3.224)" fill="#039be5"/>
            <path id="Trazado_117612" data-name="Trazado 117612" d="M62.128,23.227H58.541V3.061h2.522l.595,1.445.229.545a3.214,3.214,0,0,1,2.864-2.4A3.267,3.267,0,0,1,68.1,5.025l.013.026a3.214,3.214,0,0,1,2.864-2.4q3.751.013,3.751,5.235V23.227H71.14V7.889q0-1.684-1.432-1.685a1.164,1.164,0,0,0-1.229.824c.015.27.024.558.024.861V23.227H64.916V7.889q0-1.684-1.432-1.685-1.356,0-1.356,1.685Z" transform="translate(68.104 3.087)" fill="#039be5"/>
            <path id="Trazado_117613" data-name="Trazado 117613" d="M78,2.772v15.49q0,5.224-5.16,5.235t-5.147-5.235V2.772h3.589v15.49q0,1.687,1.558,1.685,1.574,0,1.573-1.685V2.772Z" transform="translate(78.751 3.224)" fill="#039be5"/>
            <path id="Trazado_117614" data-name="Trazado 117614" d="M80.464,9.512V7.889q0-1.687-1.573-1.685-1.558,0-1.558,1.685V18.41q0,1.687,1.547,1.687H78.9q1.561-.013,1.56-1.687V16.763h3.587V18.41q0,5.224-5.16,5.222T73.747,18.41V7.889q0-5.234,5.144-5.235,5.16.013,5.16,5.235V9.512Z" transform="translate(85.793 3.087)" fill="#039be5"/>
            <path id="Trazado_117615" data-name="Trazado 117615" d="M83.386,26.315H79.8V0h3.587V7.528A3.034,3.034,0,0,1,86.01,5.692q4.1.013,4.093,5.235V26.315H86.516V10.927q0-1.687-1.571-1.687t-1.56,1.687Z" transform="translate(92.834 0)" fill="#039be5"/>
            <path id="Trazado_117616" data-name="Trazado 117616" d="M85.852,7.877q0-5.224,5.147-5.222t5.157,5.222V18.4q0,5.221-5.157,5.235T85.852,18.4ZM89.439,18.4q0,1.687,1.56,1.685T92.569,18.4V7.877q0-1.674-1.558-1.687h-.026q-1.548,0-1.547,1.687Z" transform="translate(99.876 3.088)" fill="#039be5"/>
            <path id="Trazado_117617" data-name="Trazado 117617" d="M95.493,16.769v1.648c0,1.114.517,1.677,1.558,1.685h.024q1.548,0,1.547-1.685V18.2q0-1.661-3.358-4.069T91.9,8.391V7.884q0-5.237,5.147-5.235t5.157,5.235V9.518H98.621V7.884q0-1.687-1.571-1.687c-1.041,0-1.558.562-1.558,1.687v.2q0,1.8,3.357,4.21a7.007,7.007,0,0,1,3.358,5.83v.292q0,5.221-5.144,5.222-5.16,0-5.16-5.222V16.769Z" transform="translate(106.916 3.081)" fill="#039be5"/>
            <path id="Trazado_117618" data-name="Trazado 117618" d="M104.52,17.408v3.968q0,1.684,1.547,1.685h.026q1.558-.013,1.56-1.685V19.728h3.587v1.648q0,5.221-5.16,5.222t-5.147-5.222V10.854q0-5.234,5.147-5.235t5.16,5.235v6.555Zm3.133-3.2v-3.36q0-1.684-1.573-1.685-1.558,0-1.56,1.685v3.36Zm-1.116-10.9h-1.99l1.8-3.206h2.815Z" transform="translate(117.42 0.123)" fill="#039be5"/>
            <path id="Trazado_117619" data-name="Trazado 117619" d="M110.113,2.772,112.4,8.489l2.269-5.718H118.2l-4.043,10.153L118.2,23.092h-3.535L112.4,17.374l-2.282,5.718h-3.537l4.043-10.168L106.576,2.772Z" transform="translate(123.985 3.224)" fill="#039be5"/>
            <rect id="Rectángulo_5220" data-name="Rectángulo 5220" width="3.587" height="20.32" transform="translate(244.086 5.995)" fill="#039be5"/>
            <path id="Trazado_117620" data-name="Trazado 117620" d="M117.844,5.212V.674h3.587V5.212h2.561v3.2h-2.561V25.533h-3.587V8.407h-2.561v-3.2Z" transform="translate(134.114 0.783)" fill="#039be5"/>
            <path id="Trazado_117621" data-name="Trazado 117621" d="M120.141,7.877q0-5.224,5.147-5.222t5.157,5.222V18.4q0,5.221-5.157,5.235T120.141,18.4Zm3.587,10.52q0,1.687,1.56,1.685t1.571-1.685V7.877q0-1.674-1.558-1.687h-.026q-1.548,0-1.547,1.687Z" transform="translate(139.766 3.088)" fill="#039be5"/>
            <path id="Trazado_117622" data-name="Trazado 117622" d="M129.781,16.769v1.648q0,1.671,1.56,1.685h.024q1.548,0,1.547-1.685V18.2q0-1.661-3.357-4.069t-3.36-5.742V7.884q0-5.237,5.147-5.235T136.5,7.884V9.518h-3.587V7.884q0-1.687-1.571-1.687t-1.56,1.687v.2q0,1.8,3.36,4.21a7.007,7.007,0,0,1,3.357,5.83v.292q0,5.221-5.144,5.222-5.16,0-5.16-5.222V16.769Z" transform="translate(146.808 3.081)" fill="#039be5"/>
            <path id="Trazado_117623" data-name="Trazado 117623" d="M136.424.668l-.266,18.15h-3.587L132.305.668Zm-4.119,20.751h4.119v4.119h-4.119Z" transform="translate(153.917 0.777)" fill="#039be5"/>
          </g>
        </g>
      </g>
      <rect id="Rectángulo_10256" data-name="Rectángulo 10256" width="400" height="34" transform="translate(600 497)" fill="none"/>
    </g>
  </g>
</svg>
