<svg xmlns="http://www.w3.org/2000/svg" width="820" height="438" viewBox="0 0 820 438">
  <g id="Grupo_55720" data-name="Grupo 55720" transform="translate(-390 -2296.7)">
    <rect id="Rectángulo_5141" data-name="Rectángulo 5141" width="820" height="438" rx="18" transform="translate(390 2296.7)" fill="#eef0e3"/>
    <g id="Grupo_53762" data-name="Grupo 53762" transform="translate(1332.373 51.463)" opacity="0.31">
      <path id="Trazado_100480" data-name="Trazado 100480" d="M-876.817,2456.576a238.522,238.522,0,0,1,9.336-66.973,194.566,194.566,0,0,1,27.854-58.331q18.518-26.232,38.424-37.036l5.864,18.826q-22.533,17.284-36.959,52.776t-15.817,79.472l-.155,13.117q0,59.569,21.758,103.391,13.114,26.232,31.172,41.048L-801.2,2620.3q-20.525-11.422-39.2-38.27Q-876.819,2529.569-876.817,2456.576Z" transform="translate(-42.035)" fill="#9b6771"/>
      <path id="Trazado_100481" data-name="Trazado 100481" d="M-647.479,2458.119a238.7,238.7,0,0,1-9.027,65.97,195.1,195.1,0,0,1-27.622,58.254q-18.6,26.7-38.965,37.962l-6.018-17.437q23.762-18.211,38.192-56.557t14.737-85.1v-4.938a254.085,254.085,0,0,0-6.79-60.259,203.5,203.5,0,0,0-18.9-49.921q-12.116-22.065-27.236-34.412l6.018-17.437q20.369,11.266,38.81,37.653a195.554,195.554,0,0,1,27.623,58.176A244.305,244.305,0,0,1-647.479,2458.119Z" transform="translate(501.738)" fill="#9b6771"/>
    </g>
  </g>
</svg>
