<svg xmlns="http://www.w3.org/2000/svg" width="1230.577" height="1230.577" viewBox="0 0 1230.577 1230.577">
  <g id="Grupo_55716" data-name="Grupo 55716" transform="translate(8484.289 2880.336)">
    <g id="Grupo_53772" data-name="Grupo 53772" transform="translate(-7447.427 -4804.682)">
      <path id="Trazado_100482" data-name="Trazado 100482" d="M-1007.573,2948.814a701.88,701.88,0,0,0,232.838,154.574,705.888,705.888,0,0,0,399.062,38.66,701.233,701.233,0,0,0,192.955-67.675A703.581,703.581,0,0,0-12.394,2948.814,701.9,701.9,0,0,0,142.18,2715.976a705.886,705.886,0,0,0,38.66-399.062,701.223,701.223,0,0,0-67.675-192.955A703.548,703.548,0,0,0-12.394,1953.636a100,100,0,0,0-141.422,0,100,100,0,0,0,0,141.421A501.71,501.71,0,0,1-43.161,2261.632a505.99,505.99,0,0,1,27.647,285.887,501.185,501.185,0,0,1-48.363,137.933,503.439,503.439,0,0,1-89.939,121.941,501.717,501.717,0,0,1-166.575,110.654,505.984,505.984,0,0,1-285.887,27.647,501.187,501.187,0,0,1-137.933-48.362,503.466,503.466,0,0,1-121.94-89.939,100,100,0,0,0-141.422,0,100,100,0,0,0,0,141.421Z" fill="#fafaf6"/>
      <path id="Trazado_100483" data-name="Trazado 100483" d="M-1025.174,2333.17a280.092,280.092,0,0,0,92.916,61.685,281.7,281.7,0,0,0,159.25,15.428,279.833,279.833,0,0,0,77-27.007,280.773,280.773,0,0,0,67.969-50.106,280.1,280.1,0,0,0,61.684-92.916A281.691,281.691,0,0,0-550.926,2081a279.828,279.828,0,0,0-27.006-77,280.757,280.757,0,0,0-50.106-67.969,39.906,39.906,0,0,0-56.436,0,39.906,39.906,0,0,0,0,56.435,200.211,200.211,0,0,1,44.158,66.473,201.92,201.92,0,0,1,11.033,114.086,200,200,0,0,1-19.3,55.043,200.9,200.9,0,0,1-35.891,48.662,200.211,200.211,0,0,1-66.473,44.157,201.915,201.915,0,0,1-114.086,11.033,200.009,200.009,0,0,1-55.044-19.3,200.921,200.921,0,0,1-48.661-35.891,39.906,39.906,0,0,0-56.436,0,39.906,39.906,0,0,0,0,56.435Z" transform="translate(369.752 369.751)" fill="#fafaf6"/>
    </g>
  </g>
</svg>
