<svg xmlns="http://www.w3.org/2000/svg" width="1240" height="445" viewBox="0 0 1240 445">
  <g id="Grupo_55732" data-name="Grupo 55732" transform="translate(-180 -1836)">
    <rect id="Rectangle" width="1240" height="445" rx="13" transform="translate(180 1836)" fill="#fafaf6"/>
    <g id="Grupo_55426" data-name="Grupo 55426" transform="translate(-1349.167 6881.056)">
      <path id="Trazado_102679" data-name="Trazado 102679" d="M2447.1-4797.317a160.122,160.122,0,0,1,8.749,90.47,158.588,158.588,0,0,1-15.3,43.649,159.313,159.313,0,0,1-28.463,38.59,159.835,159.835,0,0,1-30.416,23.85h93.63a221.436,221.436,0,0,0,30.457-52.78,223.384,223.384,0,0,0,12.234-126.286,221.889,221.889,0,0,0-21.416-61.062,222.67,222.67,0,0,0-39.734-53.9,31.645,31.645,0,0,0-44.754,0,31.646,31.646,0,0,0,0,44.754A158.75,158.75,0,0,1,2447.1-4797.317Z" transform="translate(-537.899)" fill="#eef0e3"/>
      <path id="Trazado_102680" data-name="Trazado 102680" d="M1679.185-4017.18a159.795,159.795,0,0,1-30.422-23.85,31.646,31.646,0,0,0-44.754,0,31.564,31.564,0,0,0-9.234,23.85Z" transform="translate(0 -583.578)" fill="#eef0e3"/>
    </g>
  </g>
</svg>
