<svg xmlns="http://www.w3.org/2000/svg" width="321" height="321" viewBox="0 0 321 321">
  <g id="Grupo_55730" data-name="Grupo 55730" transform="translate(-1020 -1438)">
    <g id="Layer_1" data-name="Layer 1" transform="translate(1020 1437.73)">
      <g id="Grupo_55433" data-name="Grupo 55433" transform="translate(39.593 39.593)">
        <circle id="Elipse_4136" data-name="Elipse 4136" cx="121.042" cy="121.042" r="121.042" fill="#deccd0"/>
        <path id="Trazado_106356" data-name="Trazado 106356" d="M222.374,128.563A88.735,88.735,0,0,1,133.7,217.3a16.063,16.063,0,1,0,0,32.127A120.8,120.8,0,0,0,254.5,128.563a16.063,16.063,0,0,0-32.127,0Z" transform="translate(-6.057 -7.522)" fill="#bd9aa0"/>
        <path id="Trazado_106357" data-name="Trazado 106357" d="M62.923,151.657a88.67,88.67,0,0,1,88.735-88.67,16.063,16.063,0,0,0,0-32.127A120.8,120.8,0,0,0,30.86,151.722a16.063,16.063,0,1,0,32.127,0Z" transform="translate(-30.796 -30.796)" fill="#f2ebec"/>
      </g>
      <rect id="Rectángulo_5801" data-name="Rectángulo 5801" width="321" height="321" transform="translate(0 0.269)" fill="none"/>
      <g id="Grupo_55436" data-name="Grupo 55436" transform="translate(195.139 30.983)">
        <circle id="Elipse_4137" data-name="Elipse 4137" cx="44.181" cy="44.181" r="44.181" fill="#fff"/>
        <g id="Grupo_55434" data-name="Grupo 55434" transform="translate(18.546 18.624)">
          <path id="Trazado_106358" data-name="Trazado 106358" d="M213.713,81.521a1.928,1.928,0,0,0-2.57-.938l-1.915.887-6.053-12.851a1.915,1.915,0,0,0-1.735-1.092H184.863V59.34h10.743a1.928,1.928,0,0,0,0-3.855H184.863V49.561a5.487,5.487,0,1,0-3.855-1.182V69.467a1.915,1.915,0,0,0,1.915,1.915h17.271l6.348,13.468a1.9,1.9,0,0,0,2.57.925l3.65-1.683a1.915,1.915,0,0,0,.951-2.57Z" transform="translate(-162.672 -38.603)" fill="#2c1f3b"/>
          <path id="Trazado_106359" data-name="Trazado 106359" d="M198.226,78.056a16.4,16.4,0,1,1-20.189-25.547,1.917,1.917,0,0,0-1.992-3.277,20.258,20.258,0,1,0,24.9,31.574,1.915,1.915,0,0,0-2.724-2.686Z" transform="translate(-166.282 -35.652)" fill="#2c1f3b"/>
        </g>
        <g id="Grupo_55435" data-name="Grupo 55435" transform="translate(6.618 6.614)">
          <path id="Trazado_106360" data-name="Trazado 106360" d="M194.563,104.387a37.563,37.563,0,1,1,26.563-11h0a37.267,37.267,0,0,1-26.563,11Zm0-71.078a33.528,33.528,0,1,0,23.71,57.225h0a33.515,33.515,0,0,0-23.71-57.225Z" transform="translate(-157 -29.257)" fill="#e04c3d"/>
          <rect id="Rectángulo_5802" data-name="Rectángulo 5802" width="71.078" height="4.035" transform="translate(11.016 61.27) rotate(-45)" fill="#e04c3d"/>
        </g>
      </g>
      <g id="Grupo_55448" data-name="Grupo 55448" transform="translate(41.703 57.529)">
        <g id="Grupo_55447" data-name="Grupo 55447">
          <path id="Trazado_106361" data-name="Trazado 106361" d="M104.018,151.95q-1.208-.463-2.467-.848l-.347-.116a50.645,50.645,0,1,0,2.814.964Zm-4.5,4.485a44.8,44.8,0,0,1,26.832,22.733,44.978,44.978,0,0,0-48.525-23.98A44.824,44.824,0,0,1,99.521,156.435Zm27.848,53.523-31.831-9.882a9.1,9.1,0,0,0-.386-3.444l29.441-15.5A42.408,42.408,0,0,1,127.368,209.959Zm-55.541,29.39a42.407,42.407,0,0,1-22.386-18.685l29.441-15.5a9.381,9.381,0,0,0,2.814,2.39ZM93.3,193.343a9.355,9.355,0,0,0-2.57-2.133l9.818-31.844a42.253,42.253,0,0,1,22.232,18.415Zm-6.194-3.251a9.432,9.432,0,0,0-3.354.283l-15.5-29.48A42.3,42.3,0,0,1,97,158.324ZM64.913,162.629,80.4,192.07a9.1,9.1,0,0,0-2.262,2.57L46.306,184.81a42.266,42.266,0,0,1,18.608-22.18Zm-19.79,25.753,31.767,9.857a9.073,9.073,0,0,0,.36,3.534L47.693,217.335a42.279,42.279,0,0,1-2.57-28.953ZM75.4,240.454l9.869-31.793a9.278,9.278,0,0,0,3.675-.373l15.485,29.467A42.279,42.279,0,0,1,75.4,240.454Zm32.345-4.485-15.524-29.48a9.265,9.265,0,0,0,2.249-2.814l31.754,9.857a42.292,42.292,0,0,1-18.479,22.437Zm-64.5-49.912a44.8,44.8,0,0,1,8.16-15.125,44.978,44.978,0,0,0-5.539,48.383,44.734,44.734,0,0,1-2.622-33.258Zm2.712,33.412v-.077ZM90.011,244.18A45.055,45.055,0,0,0,126.083,220.1,45.055,45.055,0,0,1,90.011,244.18Z" transform="translate(-31.568 -15.137)" fill="#323244"/>
          <g id="Grupo_55437" data-name="Grupo 55437" transform="translate(41.506 110.039)">
            <path id="Trazado_106362" data-name="Trazado 106362" d="M153.841,211.914a2.937,2.937,0,0,1,0,.334v.154a1.581,1.581,0,0,1-1.529,1.169H124.168a3.059,3.059,0,0,1,0-2.57l-.553-1.658a3.971,3.971,0,0,1,.064-2.7l1.491-3.855h8.636c7.967,3.187,11.039,5.95,18.351,7.184a2,2,0,0,1,1.683,1.94Z" transform="translate(-48.027 -109.757)" fill="#0b0b41"/>
            <path id="Trazado_106363" data-name="Trazado 106363" d="M153.883,224.978s-7.4,2.917-11.437,1.054a4.305,4.305,0,0,1-1.5-1.118c-3.02-33.515-11.9-49.63-5.847-64.562-6.837,1.8-43.14,3.47-43.14,3.47a36.689,36.689,0,0,1-19.366-3.752,14.007,14.007,0,0,1-7.582-10.6,29.337,29.337,0,0,1-.257-3.855,26.807,26.807,0,0,1,2.043-10.345c.951-2.275,2.12-4.164,3.418-4.408q.836-.151,1.683-.218c.964-.1,2.108-.167,3.38-.193,13.288-.373,42.176,2.236,56.312,3.855h0c3.534.4,6.156.733,7.364.938,5.834,1.015,11.874,2.827,14.611,4.639,1.876,1.285,1.953,3.123,1.966,5.783C155.579,147.372,148.961,186.773,153.883,224.978Z" transform="translate(-64.75 -130.391)" fill="#4a1d31"/>
            <path id="Trazado_106364" data-name="Trazado 106364" d="M130.495,150.564c-14.136-3.251-30.752-1.285-41.611.81a7.068,7.068,0,0,1-7.942-4.421l-.077-.193A9,9,0,0,1,89.1,134.629c14.136-.27,35.352-.6,42.485-.347-14.136-1.594-43.024-4.2-56.312-3.855H72.589c-.938.077-1.735.167-2.377.283-1.285.244-2.467,2.133-3.418,4.408a26.807,26.807,0,0,0-2.043,10.345,29.34,29.34,0,0,0,.257,3.855,14.007,14.007,0,0,0,7.582,10.6,36.689,36.689,0,0,0,19.366,3.752s36.3-1.671,43.14-3.47c-6.053,14.933,2.827,31.047,5.847,64.562a4.3,4.3,0,0,0,1.5,1.118c-1.067-19.276,2.082-40.647,2.981-55.58a19.276,19.276,0,0,0-14.933-19.739Z" transform="translate(-64.75 -130.396)" fill="#4a1d31" opacity="0.5"/>
            <circle id="Elipse_4138" data-name="Elipse 4138" cx="2.21" cy="2.21" r="2.21" transform="translate(80.24 97.235)" fill="#fff" opacity="0.25"/>
          </g>
          <path id="Trazado_106365" data-name="Trazado 106365" d="M96.979,72.13a23.8,23.8,0,0,1,3.855,2.275l-.578,2.03-3.971-.27A10.627,10.627,0,0,1,95,74.289a22.426,22.426,0,0,1,1.979-2.159Z" transform="translate(-14.621 -36.967)" fill="#a892d2"/>
          <path id="Trazado_106366" data-name="Trazado 106366" d="M101.194,80.981,86.3,78.411l.3-2.583,1.529-13.583.308-2.724,11.823,1.658.167,3.573.54,11.4Z" transform="translate(-17.101 -40.561)" fill="#f28a81"/>
          <path id="Trazado_106367" data-name="Trazado 106367" d="M133.746,160.849H66.2A4.189,4.189,0,0,1,62,156.66h71.733Z" transform="translate(-24.028 -12.869)" fill="#e8e3f9"/>
          <g id="Grupo_55438" data-name="Grupo 55438" transform="translate(103.306 223.836)">
            <rect id="Rectángulo_5803" data-name="Rectángulo 5803" width="1.118" height="11.771" transform="translate(8.245 0) rotate(41.87)" fill="#fff"/>
            <rect id="Rectángulo_5804" data-name="Rectángulo 5804" width="1.118" height="11.771" transform="translate(9.512 8.261) rotate(131.87)" fill="#fff"/>
          </g>
          <path id="Trazado_106368" data-name="Trazado 106368" d="M131.246,177.658v-3.187h-57.3V154.36H70.77v61.375h60.476v-3.187h-57.3v-34.89Z" transform="translate(-21.528 -13.525)" fill="#32263e"/>
          <path id="Trazado_106369" data-name="Trazado 106369" d="M155.582,215.085H116.13V211.23h39.452a1.953,1.953,0,0,1,1.953,1.966h0A1.953,1.953,0,0,1,155.582,215.085Z" transform="translate(-8.597 2.688)" fill="#e8e3f9"/>
          <path id="Trazado_106370" data-name="Trazado 106370" d="M34.856,99.113H62.884V96.26H34.856a1.426,1.426,0,0,0-1.426,1.426h0a1.426,1.426,0,0,0,1.426,1.426Z" transform="translate(-32.173 -30.088)" fill="#392b69"/>
          <path id="Trazado_106371" data-name="Trazado 106371" d="M102.252,132.493,66.27,131.285l.9-2.365h1.2a1,1,0,0,0,.18.758c1.362,1.529,2.969.141,6.194-.27a14.136,14.136,0,0,1,6.7.848c1.979.488,3.405-.129,5.256-.848s10.975.475,13.018.475a4.524,4.524,0,0,0,1.285-.154l.321-.1a1.671,1.671,0,0,0,.8-.617h0S102.985,131.657,102.252,132.493Z" transform="translate(-22.811 -20.777)" fill="#250f19"/>
          <g id="Grupo_55439" data-name="Grupo 55439" transform="translate(37.946 110.039)">
            <path id="Trazado_106372" data-name="Trazado 106372" d="M151.106,211.914a1.465,1.465,0,0,1,0,.334.642.642,0,0,1,0,.154,1.594,1.594,0,0,1-1.542,1.169h-28.13a3.058,3.058,0,0,1,0-2.57l-.553-1.658a4.048,4.048,0,0,1,0-2.7l1.491-3.855h8.636c7.98,3.187,11.039,5.95,18.364,7.184A2,2,0,0,1,151.106,211.914Z" transform="translate(-45.254 -109.757)" fill="#0e0e56"/>
            <path id="Trazado_106373" data-name="Trazado 106373" d="M151.152,224.978s-7.389,2.917-11.437,1.054a4.266,4.266,0,0,1-1.491-1.118c-3.033-33.515-11.9-49.63-5.86-64.562-6.837,1.8-43.14,3.47-43.14,3.47a36.663,36.663,0,0,1-19.353-3.752,13.9,13.9,0,0,1-5.14-4.369,13.75,13.75,0,0,1-2.48-6.233,27.27,27.27,0,0,1-.27-3.855,26.82,26.82,0,0,1,2.056-10.345c.938-2.275,2.108-4.164,3.418-4.408a16.007,16.007,0,0,1,1.683-.218c.964-.1,2.095-.167,3.38-.193,13.288-.373,42.176,2.236,56.312,3.855h0c3.547.4,6.156.733,7.376.938,5.821,1.015,11.874,2.827,14.6,4.639,1.889,1.285,1.953,3.123,1.966,5.783C152.848,147.372,146.23,186.773,151.152,224.978Z" transform="translate(-61.98 -130.391)" fill="#5d343a"/>
            <path id="Trazado_106374" data-name="Trazado 106374" d="M127.756,150.564c-14.136-3.251-30.752-1.285-41.611.81a7.068,7.068,0,0,1-7.942-4.421l-.077-.193a9,9,0,0,1,8.225-12.131c14.136-.27,35.353-.6,42.5-.347-14.136-1.594-43.024-4.2-56.312-3.855H69.889c-.925.077-1.722.167-2.365.283-1.285.244-2.48,2.133-3.418,4.408a26.82,26.82,0,0,0-2.056,10.345,27.269,27.269,0,0,0,.27,3.855,13.75,13.75,0,0,0,2.48,6.233,13.9,13.9,0,0,0,5.14,4.369,36.663,36.663,0,0,0,19.353,3.752s36.3-1.671,43.14-3.47c-6.04,14.933,2.827,31.047,5.86,64.562a4.267,4.267,0,0,0,1.491,1.118c-1.067-19.276,2.095-40.647,2.981-55.58a19.276,19.276,0,0,0-15.01-19.739Z" transform="translate(-61.96 -130.396)" fill="#4a1d31" opacity="0.5"/>
            <circle id="Elipse_4139" data-name="Elipse 4139" cx="2.21" cy="2.21" r="2.21" transform="translate(80.279 97.235)" fill="#fff" opacity="0.25"/>
          </g>
          <g id="Grupo_55440" data-name="Grupo 55440" transform="translate(47.854 125.839)">
            <path id="Trazado_106375" data-name="Trazado 106375" d="M69.81,143l1.015.964a14.946,14.946,0,0,1,4.613,10.1l.129,2.57a.527.527,0,0,1-.527.565h0a1.439,1.439,0,0,1-1.285-.745l-3.7-6.862Z" transform="translate(-69.656 -142.602)" fill="#fff"/>
            <path id="Trazado_106376" data-name="Trazado 106376" d="M75.074,157.456a1.581,1.581,0,0,1-1.388-.835c-3.7-6.9-3.7-6.9-3.7-6.939s-.3-6.605-.3-6.605v-.386l1.285,1.285a14.958,14.958,0,0,1,4.665,10.191l.129,2.57a.681.681,0,0,1-.681.72Zm-4.78-7.826,3.65,6.849a1.285,1.285,0,0,0,1.105.655.373.373,0,0,0,.27-.116.36.36,0,0,0,.1-.27l-.129-2.57a14.714,14.714,0,0,0-4.575-10l-.732-.694C70.243,148.511,70.294,149.514,70.294,149.629Z" transform="translate(-69.69 -142.69)"/>
          </g>
          <path id="Trazado_106377" data-name="Trazado 106377" d="M101.844,144.551h0c-.154.244-.694.874-2.352.874-2.043,0-11.154-1.208-13.018-.475s-3.277,1.285-5.256.848a14.136,14.136,0,0,0-6.7-.848c-3.226.411-4.832,1.8-6.194.27a1,1,0,0,1-.18-.758h-.99a52.548,52.548,0,0,0,2.8-6.3c4.665-12.851,2.133-23.131,3.727-37.152A77.528,77.528,0,0,1,76.323,87.9a18.916,18.916,0,0,1,5.23-9c-.887-.732-1.491-1.208-1.491-1.208a18.788,18.788,0,0,1,11.733-3.6l13.365.707c17.991,21.05.321,45.35-2.763,65.539C102.2,141.5,104.042,143.008,101.844,144.551Z" transform="translate(-22.557 -36.408)" fill="#e8e3f9"/>
          <path id="Trazado_106378" data-name="Trazado 106378" d="M138.911,158.656H60.521l-.861-9h70.487a8.764,8.764,0,0,1,8.764,8.764Z" transform="translate(-24.695 -14.864)" fill="#392b69"/>
          <path id="Trazado_106379" data-name="Trazado 106379" d="M62,175.091,54.483,95.853a3.213,3.213,0,0,1,2.724-3.483l2.2-.334a2.956,2.956,0,0,1,3.367,2.647l6.862,71.335Z" transform="translate(-26.175 -31.3)" fill="#392b69"/>
          <rect id="Rectángulo_5805" data-name="Rectángulo 5805" width="3.316" height="79.649" transform="translate(106.389 143.791)" fill="#32263e"/>
          <path id="Trazado_106380" data-name="Trazado 106380" d="M117.3,217.477a6.5,6.5,0,1,0,7.132,5.8A6.5,6.5,0,0,0,117.3,217.477Zm1.169,11.411a4.518,4.518,0,1,1,.026,0Z" transform="translate(-9.929 4.46)" fill="#42425a"/>
          <rect id="Rectángulo_5806" data-name="Rectángulo 5806" width="22.103" height="4.626" rx="1.14" transform="translate(4.187 65.324)" fill="#32263e"/>
          <g id="Grupo_55442" data-name="Grupo 55442" transform="translate(0 133.538)">
            <path id="Trazado_106381" data-name="Trazado 106381" d="M124.3,208.776,86.418,197.018l35.108-18.479-1.748-3.315L84.67,193.7l11.758-37.9L92.856,154.7,81.1,192.584,62.618,157.476,59.3,159.223l18.479,35.108-37.9-11.758-1.105,3.573,37.9,11.758L41.569,216.384,43.3,219.7,78.412,201.22l-11.758,37.9,3.585,1.105L82,202.325l18.479,35.121,3.3-1.748L85.313,200.59,123.2,212.349Z" transform="translate(-30.648 -146.966)" fill="#42425a"/>
            <path id="Trazado_106382" data-name="Trazado 106382" d="M101.1,151.957c-.8-.308-1.619-.591-2.454-.848l-.347-.116a50.735,50.735,0,1,0,2.8.964Zm-31.137,90.38a44.978,44.978,0,1,1,56.261-29.621,44.978,44.978,0,0,1-56.261,29.621Z" transform="translate(-32.452 -148.682)" fill="#42425a"/>
            <path id="Trazado_106383" data-name="Trazado 106383" d="M95.333,155.176a44.978,44.978,0,1,0,29.557,56.274,44.978,44.978,0,0,0-29.557-56.274Zm-25.92,83.53a33.931,33.931,0,1,0,0-.026Z" transform="translate(-31.171 -147.416)" fill="#fff"/>
            <g id="Grupo_55441" data-name="Grupo 55441" transform="translate(38.212 38.091)">
              <circle id="Elipse_4140" data-name="Elipse 4140" cx="9.33" cy="9.33" r="9.33" transform="translate(0 8.78) rotate(-28.07)" fill="#fff"/>
              <path id="Trazado_106384" data-name="Trazado 106384" d="M78.794,191.127a5.757,5.757,0,1,1-.42-4.416,5.77,5.77,0,0,1,.42,4.416Z" transform="translate(-60.67 -176.801)" fill="#42425a"/>
            </g>
          </g>
          <path id="Trazado_106385" data-name="Trazado 106385" d="M111.551,70a38.229,38.229,0,0,1-1.092,5.783,3.431,3.431,0,0,1-3.251,2.57h-1.478a7.71,7.71,0,0,1-2.686-.437l-1.709-.591-4.241-1.478a3.277,3.277,0,0,1-2.082-2.275L93.907,69.31l-.553-2.172a9.7,9.7,0,0,1-2.095,0,5.691,5.691,0,0,0-.308.964,6.58,6.58,0,0,1-1.5-2.236.18.18,0,0,1,0-.077,6.425,6.425,0,0,1-.321-1.041c-1.285,1.491-2.57,2.3-3.431.36-.283-1.067-.553-2.2-.784-3.393h0a5.027,5.027,0,0,0-.129-.745C82.431,47,91.735,46.217,98.122,46.23c4.845,0,8.122,2.969,10.383,7.184.231.424.45.848.655,1.285A28.58,28.58,0,0,1,111.551,70Z" transform="translate(-17.639 -44.35)" fill="#feb396"/>
          <path id="Trazado_106386" data-name="Trazado 106386" d="M103.985,76.456,102.7,80.941s-6.181-5.282-17.04-6.078V72.035h.54A26.46,26.46,0,0,1,104,76.469Z" transform="translate(-17.283 -37.039)" fill="#a892d2"/>
          <path id="Trazado_106387" data-name="Trazado 106387" d="M108.562,53.754c-8.366-.99-9.51,2.57-8.726,5.14a2.866,2.866,0,0,1-.09,2.018c-.1.244-.206.5-.3.745a3.161,3.161,0,0,1-2.66,2.069h0c-1.028-2.069-1.838-2.853-2.994-3.148a4.793,4.793,0,0,0-1.671-.09q-.662,1.32-1.452,2.57c-.244.386-.5.784-.771,1.169a7.03,7.03,0,0,1-.488.63c-.167.206-.154.193-.218.283a2.943,2.943,0,0,0,.09.36,6.064,6.064,0,0,0,.231.681.18.18,0,0,0,0,.077h0l.116.283a8.156,8.156,0,0,0,.5.874l.193.283a5.4,5.4,0,0,0,.668.745,30.214,30.214,0,0,0-.553,4.9,2.814,2.814,0,0,1-2.8,2.57h0a22.849,22.849,0,0,0-.694-5.436c-.386-1.606-.874-3.148-1.285-4.832-.308-1.2-.565-2.339-.784-3.393h0c-2.095-10.576.784-13.982,7.98-16.333,6.875-2.223,11.566-.9,14.059,1.285S109.86,52.263,108.562,53.754Z" transform="translate(-17.696 -44.767)" fill="#773634"/>
          <g id="Grupo_55443" data-name="Grupo 55443" transform="translate(71.28 15.259)">
            <path id="Trazado_106388" data-name="Trazado 106388" d="M94.872,65.108a2.712,2.712,0,0,1-1.285,1.028,2.57,2.57,0,0,1-.681.167,3.855,3.855,0,0,1-2.956-1.2A6.22,6.22,0,0,1,88.421,62.8a6.426,6.426,0,0,1-.321-1.041,4.909,4.909,0,0,1,.63-4.022,2.57,2.57,0,0,1,2.454-1.067,3.6,3.6,0,0,1,1.491.527,6.13,6.13,0,0,1,2.39,2.969A5.423,5.423,0,0,1,94.872,65.108Z" transform="translate(-87.919 -56.641)" fill="#feb396"/>
            <path id="Trazado_106389" data-name="Trazado 106389" d="M94.175,60.5c.8,2,.283,4.1-1.144,4.665s-3.251-.591-4.048-2.57-.283-4.1,1.157-4.665S93.378,58.485,94.175,60.5Z" transform="translate(-87.723 -56.315)" fill="#f28a81"/>
          </g>
          <path id="Trazado_106390" data-name="Trazado 106390" d="M103.97,76.441l-2.879,3.483s-7.042-5.719-15.421-5.14V72.021h1.169c.386,0,.887-.064,1.452-.077A26.151,26.151,0,0,1,104,76.518Z" transform="translate(-17.28 -37.024)" fill="#c6b9e5"/>
          <path id="Trazado_106391" data-name="Trazado 106391" d="M100.1,115.262c-2.57,8.392-5.436,17.888-6.528,28.644l-.321.1v-.064c1.105-10.808,4-20.356,6.541-28.773,3.046-10.024,5.68-18.7,4.151-26.087a58.727,58.727,0,0,0-3.573-10.036.161.161,0,0,1,.3-.129,59.227,59.227,0,0,1,3.585,10.126C105.78,96.487,103.209,105.187,100.1,115.262Z" transform="translate(-15.119 -35.057)" fill="#a892d2"/>
          <path id="Trazado_106392" data-name="Trazado 106392" d="M75.593,150.428c-.861,0-1.735-.077-2.57-.09l-.154-.745L69.81,143S74.873,147.048,75.593,150.428Z" transform="translate(-21.802 -16.763)" fill="#f28a81"/>
          <path id="Trazado_106393" data-name="Trazado 106393" d="M119.906,223.11a2.763,2.763,0,1,1-2.75-2.75,2.763,2.763,0,0,1,2.75,2.75Z" transform="translate(-9.096 5.291)" fill="#42425a"/>
          <rect id="Rectángulo_5807" data-name="Rectángulo 5807" width="5.513" height="10.64" rx="1.16" transform="translate(105.297 209.985)" fill="#32263e"/>
          <g id="Grupo_55444" data-name="Grupo 55444" transform="translate(38.203 99.34)">
            <path id="Trazado_106394" data-name="Trazado 106394" d="M129.9,124.29a6.342,6.342,0,0,1,0,.707,6.091,6.091,0,0,1-1.722,3.56,6.027,6.027,0,0,1-4.266,1.761H62.964L62.45,125l-.27-2.917h65.539a2.21,2.21,0,0,1,2.185,2.21Z" transform="translate(-62.18 -122.067)" fill="#392b69"/>
            <path id="Trazado_106395" data-name="Trazado 106395" d="M129.9,124.293a6.342,6.342,0,0,1,0,.707H62.45l-.27-2.93h65.539a2.223,2.223,0,0,1,2.185,2.223Z" transform="translate(-62.18 -122.07)" fill="#0e0e56"/>
          </g>
          <g id="Grupo_55446" data-name="Grupo 55446" transform="translate(28.396 69.051)">
            <path id="Trazado_106396" data-name="Trazado 106396" d="M74.161,155.686c-3.007.527-5.474.617-8.8,1.067-1.992-9.792-3.855-17.426-5.526-23.517-3.174-11.8-5.359-17.773-5.282-22.3a11.668,11.668,0,0,1,.27-2.352c1.7-7.5,4.215-10.088,4.215-10.088l12.3,9.754c.745,3.123,1.285,5.809,1.632,8.173.218,1.465.386,2.8.5,4.061C74.482,131.437,71.9,136.024,74.161,155.686Z" transform="translate(-54.548 -98.5)" fill="#feb396"/>
            <g id="Grupo_55445" data-name="Grupo 55445" transform="translate(10.49 57.122)">
              <path id="Trazado_106397" data-name="Trazado 106397" d="M74.854,149.607l-1.786,2.108-1.285,1.452-8.623-1.439s-.874-5.333-.18-7.71l8.8-1.067Z" transform="translate(-62.712 -142.95)" fill="#feb396"/>
              <path id="Trazado_106398" data-name="Trazado 106398" d="M76.85,162.573a.6.6,0,0,1-.218,0,.874.874,0,0,1-.835-.617l-3.033-9.9,2.275,11.026a.861.861,0,0,1-.835,1.041.913.913,0,0,1-.514-.167.938.938,0,0,1-.308-.424L69.77,152.652l2.095,10.409a.732.732,0,0,1-.72.874.745.745,0,0,1-.411-.129.8.8,0,0,1-.27-.347l-4-10.512,2.095,9.484a.681.681,0,0,1-.54.81h-.116a.681.681,0,0,1-.643-.463L63.1,150.21l8.623,1.439,1.285-1.452,1.786-2.108.54,2.634,2.21,10.782a.861.861,0,0,1-.694,1.067Z" transform="translate(-62.601 -141.485)" fill="#f28a81"/>
            </g>
          </g>
          <path id="Trazado_106399" data-name="Trazado 106399" d="M74.41,117.586h-.874A34.826,34.826,0,0,1,54.954,112.2c-.45-.3-.681-.475-.681-.475s-2.03-5.976,1.375-9c10.2,8.263,19.019,9.214,19.559,9.265h0S75.618,113.448,74.41,117.586Z" transform="translate(-26.402 -28.243)" fill="#e8e3f9"/>
          <path id="Trazado_106400" data-name="Trazado 106400" d="M99.388,93.959a7.942,7.942,0,0,1-1.285,1.9h0a18.965,18.965,0,0,1-1.516,1.606h0c-1.054,2.095-18.2,15.292-18.2,15.292s.193,1.092-.218,1.516a3.65,3.65,0,0,1-1.581.54,3.585,3.585,0,0,1-.154,1.555,1.106,1.106,0,0,1-.193.283c-.578.591-1.851.3-1.851.3l.437,2.827h0a25.869,25.869,0,0,1-5.513-1.285c-.488-.154-.99-.347-1.529-.553l-.206-.09a44.181,44.181,0,0,1-7.942-4.112,49.667,49.667,0,0,1-4.369-3.187,9.445,9.445,0,0,1,.1-3.74,2.891,2.891,0,0,1,2.763-1.555c-.386-2,1.349-2.686,2.814-4.382.475-.565,2.429-2.776,4.806-5.474A116.942,116.942,0,0,1,77.13,82.547h0a29.326,29.326,0,0,1,9-6.335,14.02,14.02,0,0,1,6.515-.578,24.545,24.545,0,0,1,4.729,1.028,4.768,4.768,0,0,1,2.969,2.724,4.665,4.665,0,0,1,.347,1.4C101.033,84.218,101.225,89.821,99.388,93.959Z" transform="translate(-25.986 -36.011)" fill="#c6b9e5"/>
          <path id="Trazado_106401" data-name="Trazado 106401" d="M58.938,116.024c.244,4.151.9,13.583.912,13.879-2.57-9.767-4.575-15.537-5.14-19.8a34.826,34.826,0,0,0,18.582,5.384c.064.578.128,1.131.18,1.671C70.259,117.3,62.138,117.566,58.938,116.024Z" transform="translate(-26.106 -26.142)" fill="#f28a81"/>
          <path id="Trazado_106402" data-name="Trazado 106402" d="M89.47,64.164a.141.141,0,0,1-.129-.077A5.384,5.384,0,0,1,88.3,59.512a3.855,3.855,0,0,1,1.915-2.3.167.167,0,0,1,.206.09.154.154,0,0,1-.077.206A3.534,3.534,0,0,0,88.609,59.6a5.14,5.14,0,0,0,.99,4.344.167.167,0,0,1,0,.218Z" transform="translate(-16.57 -41.222)" fill="#f28a81"/>
          <path id="Trazado_106403" data-name="Trazado 106403" d="M104.871,55.93a32.885,32.885,0,0,1,1.953,10.859H104.73S105.874,63.062,104.871,55.93Z" transform="translate(-11.847 -41.585)" fill="#f28a81"/>
          <path id="Trazado_106404" data-name="Trazado 106404" d="M99.78,57.765h1.285a8.817,8.817,0,0,0,1.169-.154,5.9,5.9,0,0,0,2.185-.951,3.392,3.392,0,0,1-.951.81,3.778,3.778,0,0,1-1.169.437,4.549,4.549,0,0,1-2.519-.141Z" transform="translate(-13.258 -41.377)" fill="#f28a81"/>
          <path id="Trazado_106405" data-name="Trazado 106405" d="M98.873,55.793a8.815,8.815,0,0,0,1.542.129,7.4,7.4,0,0,0,1.516-.154,4.357,4.357,0,0,0,1.362-.527,3.637,3.637,0,0,0,.54-.437,3.406,3.406,0,0,0,.424-.54h0a.517.517,0,1,1,.874.553h0a5.141,5.141,0,0,1-.63.668,4,4,0,0,1-.758.488,5.32,5.32,0,0,1-1.658.488,8.07,8.07,0,0,1-1.671,0,8.751,8.751,0,0,1-1.619-.3.218.218,0,0,1-.154-.27.231.231,0,0,1,.244-.154Z" transform="translate(-13.585 -42.129)" fill="#592927"/>
          <path id="Trazado_106406" data-name="Trazado 106406" d="M103.2,67.313a2.018,2.018,0,0,1,1.118-.283,2.365,2.365,0,0,1,1.105.3c-.386,0-.745-.064-1.118-.064a8.147,8.147,0,0,0-1.105.051Z" transform="translate(-12.283 -38.421)" fill="#f28a81"/>
          <path id="Trazado_106407" data-name="Trazado 106407" d="M105.045,67.692h0a3.7,3.7,0,0,0-1.285,0h0a3.957,3.957,0,0,1,1.285,0Z" transform="translate(-12.123 -38.248)" fill="#f28a81"/>
          <path id="Trazado_106408" data-name="Trazado 106408" d="M100.889,75.086c-6.567-.977-8.083-5.706-9.317-9-1.375,6.117-3.457,8.109-3.56,8.2a8.1,8.1,0,0,0-1.452.077l.411-3.675a2.814,2.814,0,0,0,2.8-2.57,30.212,30.212,0,0,1,.6-4.87,3.855,3.855,0,0,0,2.956,1.2l1.105,4.266a3.277,3.277,0,0,0,2.082,2.275l4.241,1.478Z" transform="translate(-17.027 -39.498)" fill="#d35650"/>
          <path id="Trazado_106409" data-name="Trazado 106409" d="M107.3,53.37c-8.366-.99-9.51,2.57-8.726,5.14a2.866,2.866,0,0,1-.09,2.018c-.1.244-.206.5-.3.745a3.161,3.161,0,0,1-1.606,1.773,3.38,3.38,0,0,1-1.067.3h0c-.141-.3-.283-.553-.411-.8-.848-1.478-1.581-2.108-2.57-2.352l-.206-.09h-.116a.347.347,0,0,0-.154-.077l-.218-.1-.167-.129h0a2.237,2.237,0,0,0-.373-.09h-.193a2.57,2.57,0,0,0-2.455,1.067c-.4-3.521,6.965-4.575,7.71-10.563.694-5.577,7.106-4.074,9.355-3.38C108.071,48.924,108.6,51.88,107.3,53.37Z" transform="translate(-16.434 -44.384)" fill="#63212d"/>
          <path id="Trazado_106410" data-name="Trazado 106410" d="M90.439,63.889a30.21,30.21,0,0,0-.6,4.845,2.814,2.814,0,0,1-2.8,2.57h0a22.849,22.849,0,0,0-.694-5.436,9.959,9.959,0,0,0,2.339-4.948,6.066,6.066,0,0,0,.231.681.18.18,0,0,0,0,.077h0l.116.283a8.16,8.16,0,0,0,.5.874l.193.283A5.4,5.4,0,0,0,90.439,63.889Z" transform="translate(-17.089 -40.162)" fill="#63212d"/>
          <path id="Trazado_106411" data-name="Trazado 106411" d="M105.489,60.326a3.47,3.47,0,0,1-6.271,2.48,3.47,3.47,0,0,1,6.271-2.48Z" transform="translate(-13.428 -40.75)" fill="#f28a81" opacity="0.25"/>
          <path id="Trazado_106412" data-name="Trazado 106412" d="M93.809,64.986h0a5.423,5.423,0,0,0,.231-4.948,6.13,6.13,0,0,0-2.39-2.969c1.157.3,1.966,1.079,2.994,3.148h0a3.38,3.38,0,0,0,1.067-.3C95.775,61.478,95.634,64.446,93.809,64.986Z" transform="translate(-15.576 -41.26)" fill="#f28a81"/>
          <path id="Trazado_106413" data-name="Trazado 106413" d="M98.043,57.85a4.2,4.2,0,0,1-3.1,4.408s-1.285-.578-1.285-.861a.488.488,0,0,1,0-.424c.129.244.27.5.411.8h0a3.38,3.38,0,0,0,1.067-.3A3.161,3.161,0,0,0,96.745,59.7c.09-.244.193-.5.3-.745a2.866,2.866,0,0,0,.09-2.018c-.784-2.57.36-6.13,8.726-5.14C99.945,51.9,97.966,54.188,98.043,57.85Z" transform="translate(-15.016 -42.811)" fill="#f28a81"/>
          <path id="Trazado_106414" data-name="Trazado 106414" d="M77.71,118.517c-1.067,2.647-1.079,8.687-.977,12.311H70c1.992-6.605,2.185-12.619,2.249-18.968A3.585,3.585,0,0,0,72.4,110.3a3.65,3.65,0,0,0,1.581-.54c.411-.424.218-1.516.218-1.516s17.079-13.2,18.132-15.292h0a18.965,18.965,0,0,0,1.516-1.606C93.633,91.7,79.265,114.648,77.71,118.517Z" transform="translate(-21.747 -31.487)" fill="#c6b9e5" opacity="0.25"/>
        </g>
        <path id="Trazado_106415" data-name="Trazado 106415" d="M96.284,93.184A7.942,7.942,0,0,1,95,95.086h0a18.964,18.964,0,0,1-1.516,1.606h0c-1.054,2.095-18.2,15.292-18.2,15.292s.193,1.092-.218,1.516a3.65,3.65,0,0,1-1.581.54,3.585,3.585,0,0,1-.154,1.555,1.105,1.105,0,0,1-.193.283c-.578.591-1.851.3-1.851.3L71.726,119h0a25.869,25.869,0,0,1-5.513-1.285l-.077-.553a14.213,14.213,0,0,1,.1-4.305,1.761,1.761,0,0,1,1.426-1.5.591.591,0,0,0,.321-.1,1.851,1.851,0,0,0,.63-1.606,3.482,3.482,0,0,1,.27-1.748,2.082,2.082,0,0,1,1.876-.861,16.768,16.768,0,0,1,2.133.347c2.493.373,4.935-.758,7.132-1.979a39.233,39.233,0,0,0,8.366-5.95A27.912,27.912,0,0,0,96.746,78.2a4.1,4.1,0,0,1,.514.424,4.665,4.665,0,0,1,.347,1.4C97.929,83.443,98.121,89.046,96.284,93.184Z" transform="translate(-22.882 -35.236)" fill="#a998e2" opacity="0.5"/>
        <path id="Trazado_106416" data-name="Trazado 106416" d="M81.277,84.685c-5.14,1.2-10.409,7.248-10.114,10.281s-3.675,5.359-9.291,8.237c-4.922,2.57-2.853,8.918-2.262,10.473a49.671,49.671,0,0,1-4.369-3.187,9.445,9.445,0,0,1,.1-3.74,2.891,2.891,0,0,1,2.763-1.555c-.386-2,1.349-2.686,2.814-4.382.475-.565,2.429-2.776,4.806-5.474A116.944,116.944,0,0,1,77.1,82.487h0a29.326,29.326,0,0,1,9-6.335,14.02,14.02,0,0,1,6.515-.578C93.523,80.174,85.877,83.631,81.277,84.685Z" transform="translate(-25.995 -36.028)" fill="#fff" opacity="0.25"/>
      </g>
    </g>
  </g>
</svg>
