<svg xmlns="http://www.w3.org/2000/svg" width="81.096" height="70.959" viewBox="0 0 81.096 70.959">
  <g id="Grupo_55745" data-name="Grupo 55745" transform="translate(-748 -1046.737)">
    <path id="Icon_awesome-quote-right" data-name="Icon awesome-quote-right" d="M73.493,0H53.219a7.6,7.6,0,0,0-7.6,7.6V27.877a7.6,7.6,0,0,0,7.6,7.6H65.89V45.616A10.146,10.146,0,0,1,55.753,55.753H54.486a3.792,3.792,0,0,0-3.8,3.8v7.6a3.792,3.792,0,0,0,3.8,3.8h1.267A25.336,25.336,0,0,0,81.1,45.616V7.6A7.6,7.6,0,0,0,73.493,0ZM27.877,0H7.6A7.6,7.6,0,0,0,0,7.6V27.877a7.6,7.6,0,0,0,7.6,7.6H20.274V45.616A10.146,10.146,0,0,1,10.137,55.753H8.87a3.792,3.792,0,0,0-3.8,3.8v7.6a3.792,3.792,0,0,0,3.8,3.8h1.267A25.336,25.336,0,0,0,35.479,45.616V7.6A7.6,7.6,0,0,0,27.877,0Z" transform="translate(829.096 1117.696) rotate(180)" fill="#ff4a69"/>
  </g>
</svg>
