<svg xmlns="http://www.w3.org/2000/svg" width="321" height="321" viewBox="0 0 321 321">
  <g id="Grupo_55737" data-name="Grupo 55737" transform="translate(-285 -4150)">
    <g id="Layer_1" data-name="Layer 1" transform="translate(284.602 4149.73)">
      <g id="Grupo_55469" data-name="Grupo 55469" transform="translate(39.593 39.593)">
        <circle id="Elipse_4153" data-name="Elipse 4153" cx="121.042" cy="121.042" r="121.042" fill="#deccd0"/>
        <path id="Trazado_106563" data-name="Trazado 106563" d="M222.374,128.563A88.735,88.735,0,0,1,133.7,217.3a16.063,16.063,0,1,0,0,32.127A120.8,120.8,0,0,0,254.5,128.563a16.063,16.063,0,0,0-32.127,0Z" transform="translate(-6.057 -7.522)" fill="#bd9aa0"/>
        <path id="Trazado_106564" data-name="Trazado 106564" d="M62.923,151.657a88.67,88.67,0,0,1,88.735-88.67,16.063,16.063,0,0,0,0-32.127A120.8,120.8,0,0,0,30.86,151.722a16.063,16.063,0,1,0,32.127,0Z" transform="translate(-30.796 -30.796)" fill="#f2ebec"/>
      </g>
      <rect id="Rectángulo_5885" data-name="Rectángulo 5885" width="321" height="321" transform="translate(0.398 0.269)" fill="none"/>
      <g id="Grupo_55471" data-name="Grupo 55471" transform="translate(43.012 48.18)">
        <path id="Trazado_106565" data-name="Trazado 106565" d="M196.306,107.025c-2.108-1.863-7.222-5.9-24.828-13.648v-6.3a26.9,26.9,0,0,0,6.078-5.834,32.282,32.282,0,0,0,2.2-7.145,6.9,6.9,0,0,0,2.326-3.444c.745-2.275.463-4.472-.6-5.372.977-8.122.822-20.934-6.644-22.669-9-7.119-23-2.879-27.205,3.058-3.778,5.295-3.855,12.568-3.213,19.379-1.285.681-1.773,3.1-.951,5.6a6.631,6.631,0,0,0,2.467,3.521,30.844,30.844,0,0,0,2.133,7.068,26.563,26.563,0,0,0,6.04,5.809v6.31a151.127,151.127,0,0,0-20.561,10.5l-.527.347-.964.643a32.888,32.888,0,0,0-2.763,2.172c-3.277,2.9-5.14,13.7-7.029,22.874h81.127C201.4,120.724,199.6,109.929,196.306,107.025Z" transform="translate(-8.158 -37.094)" fill="#f5b16d" fill-rule="evenodd"/>
        <path id="Trazado_106566" data-name="Trazado 106566" d="M154.3,77.47c-20.227,8.867-26.28,13.6-28.683,15.717-3.7,3.264-5.41,15.691-5.41,25.8h86.781c0-10.486-2.018-22.54-5.706-25.8-2.39-2.12-9-6.849-29.223-15.717l-8.43,13.995Z" transform="translate(-8.742 -26.095)" fill="#5e5d5a" fill-rule="evenodd"/>
        <path id="Trazado_106567" data-name="Trazado 106567" d="M144.933,51.278c4.883,3.3,8.661-1.619,13.056.488s16.333-8.032,18.929,14.264c4.164-16.179-2.146-27.732-17.991-28.5-16.989-.81-23.838,12.247-19.148,28.272C140.846,57.318,141.322,55.583,144.933,51.278Z" transform="translate(-3.574 -37.492)" fill="#4c4948" fill-rule="evenodd"/>
        <path id="Trazado_106568" data-name="Trazado 106568" d="M145.55,87.9,151,116.029h10.461l5.256-28.169Z" transform="translate(-1.518 -23.133)" fill="#fff" fill-rule="evenodd"/>
        <path id="Trazado_106569" data-name="Trazado 106569" d="M147.547,77.47l-3.174,1.414-.463,24.3,12.851-12.362Z" transform="translate(-1.986 -26.095)" fill="#fff" fill-rule="evenodd"/>
        <path id="Trazado_106570" data-name="Trazado 106570" d="M162.47,77.47l3.521,1.568.99,22.437L153.86,90.822Z" transform="translate(0.851 -26.095)" fill="#fff" fill-rule="evenodd"/>
        <path id="Trazado_106571" data-name="Trazado 106571" d="M164.366,87.86l-10.576.013v28.156l5.462-.077Z" transform="translate(0.831 -23.133)" fill="#fff"/>
        <path id="Trazado_106572" data-name="Trazado 106572" d="M153.387,93.13l-3.547,21.4,10.615-.077L157.062,93.13Z" transform="translate(-0.295 -21.631)" fill="#392c2f" fill-rule="evenodd"/>
        <path id="Trazado_106573" data-name="Trazado 106573" d="M150.53,92.011l2.377,3.367H156.6l2.377-3.367-4.164-4.151Z" transform="translate(-0.099 -23.133)" fill="#392c2f" fill-rule="evenodd"/>
        <g id="Grupo_55470" data-name="Grupo 55470" transform="translate(154.852 64.791)">
          <path id="Trazado_106574" data-name="Trazado 106574" d="M155.923,95.286l2.275-3.213-4.164-4.164-.064.064v6.644h1.851Z" transform="translate(-153.97 -87.91)" fill="#392c2f"/>
          <path id="Trazado_106575" data-name="Trazado 106575" d="M155.923,93.8l-.1-.668H153.97v21.319l5.307.077Z" transform="translate(-153.97 -86.422)" fill="#392c2f"/>
        </g>
        <path id="Trazado_106576" data-name="Trazado 106576" d="M162.407,85.4v-.964a26.9,26.9,0,0,0,6.078-5.834,32.538,32.538,0,0,0,2.2-7.145,6.952,6.952,0,0,0,2.326-3.444c.72-2.185.475-4.292-.488-5.256a1.491,1.491,0,0,0,0,.231c0-.116,0-.231,0-.334-2.57-21.14-13.763-12.427-18.441-13.763V98.944l8.469-13.121Z" transform="translate(0.913 -34.436)" fill="#eca266"/>
        <path id="Trazado_106577" data-name="Trazado 106577" d="M165.772,101.485l-3.945-3.226L158.1,118.705v.3h38.09c0-10.486-2.018-22.54-5.706-25.8-2.39-2.133-9-6.849-29.223-15.717l3.521,1.568Z" transform="translate(2.059 -26.093)" fill="#555351"/>
        <path id="Trazado_106578" data-name="Trazado 106578" d="M157.93,109.793h.218l-.218-.013Z" transform="translate(2.011 -16.885)" fill="#5e5d5a"/>
        <path id="Trazado_106579" data-name="Trazado 106579" d="M172.4,65.648v.386a1.489,1.489,0,0,1,0-.231c4.048-16.051-2.275-27.514-18.094-28.272H154V51.936C158.639,53.272,169.794,44.559,172.4,65.648Z" transform="translate(0.89 -37.481)" fill="#393738"/>
        <path id="Trazado_106580" data-name="Trazado 106580" d="M159.059,109.789l-2.506-.039-2.583.039,5.089.013Z" transform="translate(0.882 -16.893)" fill="#fff"/>
        <path id="Trazado_106581" data-name="Trazado 106581" d="M164.315,90.832l-1.349,7.428,3.984,3.226-.99-22.437-3.521-1.568L153.97,90.6v.244Z" transform="translate(0.882 -26.093)" fill="#e8e6e4"/>
        <path id="Trazado_106582" data-name="Trazado 106582" d="M155.743,109.74h0Z" transform="translate(0.882 -16.896)" fill="#fff"/>
        <path id="Trazado_106583" data-name="Trazado 106583" d="M154.034,87.934,158.2,92.1l-2.223,3.136,3.264,20.51L162.966,95.3l1.349-7.428-10.345.013V88Z" transform="translate(0.882 -23.131)" fill="#e8e6e4"/>
        <path id="Trazado_106584" data-name="Trazado 106584" d="M158.791,114.121,155.54,93.56v.077l3.341,20.638a1.129,1.129,0,0,0-.09-.154Z" transform="translate(1.329 -21.509)" fill="#392c2f"/>
        <path id="Trazado_106585" data-name="Trazado 106585" d="M154,109.72h0Z" transform="translate(0.89 -16.902)" fill="#392c2f"/>
        <path id="Trazado_106586" data-name="Trazado 106586" d="M155.923,95.3l.051-.077,2.223-3.136-4.164-4.164-.064.064v6.644h1.851Z" transform="translate(0.882 -23.116)" fill="#1f1c20"/>
        <path id="Trazado_106587" data-name="Trazado 106587" d="M156.553,114.485l2.506.039.218.013-.013-.09-3.341-20.638-.1-.668H153.97v21.307l1.773.039Z" transform="translate(0.882 -21.628)" fill="#1f1c20"/>
        <path id="Trazado_106588" data-name="Trazado 106588" d="M75.794,89.39V85.779c-3.855-3.418-9.317-9-11.424-15.742-.141-.488-.09-.977-.206-1.478-2.095-4.922-.643-9.869.463-13.75,1.015-3.534,2.737-8.777,7.042-11.938a4.96,4.96,0,0,0-3.508,2.3c-8.61,0-6.425,15.678-8.918,20.972-1.876,4.035-.732,20.253,5.449,27.706,5.667-2.416,10.422-4.356,10.422-4.356A6.229,6.229,0,0,0,75.794,89.39Z" transform="translate(-26.357 -35.959)" fill="#4c4948"/>
        <path id="Trazado_106589" data-name="Trazado 106589" d="M90.231,79.993a54.527,54.527,0,0,0,.9-9.985C89.2,76.665,85.193,83.437,80.67,86.83V90.5c1.619.488,1.593.553,1.619.488a63.751,63.751,0,0,1,8.4,3.29c4.858-7.916,5.731-23.581,4.164-27.591-2.12-5.41-.257-21.474-7.71-21.474A4.266,4.266,0,0,0,84.14,42.88l1.375.964C96.3,52.03,93.135,77.834,90.231,79.993Z" transform="translate(-20.014 -35.956)" fill="#4c4948"/>
        <path id="Trazado_106590" data-name="Trazado 106590" d="M79.727,89.16c-4.164,0-12.966-7.376-15.691-17.991S66.465,45.21,79.727,45.21,98.168,60.5,95.418,71.169,83.891,89.16,79.727,89.16Z" transform="translate(-24.957 -35.292)" fill="#f5b16d" fill-rule="evenodd"/>
        <path id="Trazado_106591" data-name="Trazado 106591" d="M76.489,79.39C58.5,87.872,53.358,92.523,51.2,94.567c-3.29,3.123-4.819,15-4.819,24.673H123.7c0-10.036-1.8-21.551-5.14-24.673-2.133-2.043-7.338-6.425-25.355-14.92Z" transform="translate(-29.79 -25.548)" fill="#df7e27" fill-rule="evenodd"/>
        <path id="Trazado_106592" data-name="Trazado 106592" d="M86.586,79.7v4.819l-4.1,34.774H73.825L69.79,84.9V79.447h0c.27-.334,15.691-.244,15.691-.244C85.571,79.524,85.481,79.2,86.586,79.7Z" transform="translate(-23.116 -25.605)" fill="#fff" fill-rule="evenodd"/>
        <path id="Trazado_106593" data-name="Trazado 106593" d="M70.86,70.622v15.5c3.367,6.425,9.394,6.644,13.416,0v-15.5C84.276,62.256,70.86,62.256,70.86,70.622Z" transform="translate(-22.811 -29.836)" fill="#f5b16d" fill-rule="evenodd"/>
        <path id="Trazado_106594" data-name="Trazado 106594" d="M82.849,79.257V79A.22.22,0,0,0,82.849,79.257Z" transform="translate(-19.405 -25.659)" fill="#4c4948"/>
        <path id="Trazado_106595" data-name="Trazado 106595" d="M83.744,83.21,79.67,117.984Z" transform="translate(-20.299 -24.459)" fill="#a8dcdf"/>
        <path id="Trazado_106596" data-name="Trazado 106596" d="M85.526,80.292V80.2c.141.475-1.516-.694-2.12-1v2.57c-1.863,3.084-4.151,4.858-6.425,5.063v32.512h2.776l7.145-34.3Z" transform="translate(-21.066 -25.602)" fill="#f0efee"/>
        <path id="Trazado_106597" data-name="Trazado 106597" d="M73.285,79.39A166.739,166.739,0,0,0,57.62,87.563s5.256,4.742,9.317,5.14a12.285,12.285,0,0,1-6.066,3.5s.064,5.14,16.423,23C77.295,119.24,74.9,105.875,73.285,79.39Z" transform="translate(-26.585 -25.548)" fill="#945023"/>
        <path id="Trazado_106598" data-name="Trazado 106598" d="M82.818,79.2s9.086,4.254,15,7.453c0,0-4.588,4.369-8.661,4.806a12.362,12.362,0,0,0,6.078,3.5s.257,6.554-16.1,24.416C79.13,119.294,82.677,105.441,82.818,79.2Z" transform="translate(-20.453 -25.602)" fill="#945023"/>
        <path id="Trazado_106599" data-name="Trazado 106599" d="M61.445,55.035A27.578,27.578,0,0,0,62.576,69.4a21.846,21.846,0,0,0,2.891,5.667c-.848-4.215-2.172-15.871,2.57-13.776S74,62.578,78.64,55.266c2.442-3.855,8.854-4.511,8.854-4.511,3.624,6.927,8.816,10.91,9.343,20.728A63.227,63.227,0,0,1,95.8,81.764c4.356-1.619,7.145-28.991-3.984-37.139-.45-.334-.874-.655-1.285-.951a20,20,0,0,0-13.789-3.65c-2.763,0-5.577,1.478-8.019,3.688a24.416,24.416,0,0,0-7.274,11.322Z" transform="translate(-25.63 -36.802)" fill="#4c4948"/>
        <path id="Trazado_106600" data-name="Trazado 106600" d="M89.921,80.352a6.392,6.392,0,0,1,.167-1.054.083.083,0,0,1-.077.077,55.683,55.683,0,0,0,.9-9.985c-.27.912-.578,1.812-.912,2.712A29.274,29.274,0,0,1,81.26,85.775v3.161H82.1l.63.3a4.754,4.754,0,0,1,.527.193c2.57,1.208,4.832,2.313,6.888,3.354l.643.321c4.575-8.083,5.384-23.131,3.855-26.987-2.056-5.243-.411-20.407-7.029-21.384C96.784,54.252,94.085,78.823,89.921,80.352Zm-6.682,8.6c-.1-.167,0-.18,0-.231Z" transform="translate(-19.846 -35.429)" fill="#393738"/>
        <path id="Trazado_106601" data-name="Trazado 106601" d="M82.71,75.1v9.651A29.274,29.274,0,0,0,91.448,71.04c.09-.27.18-.553.257-.835a21.846,21.846,0,0,0,.54-3.02C91.191,58.7,86.449,54.8,83.057,48.32a16.706,16.706,0,0,0-6.747,2.416v18.12C79.561,68.984,82.71,71.04,82.71,75.1Z" transform="translate(-21.257 -34.405)" fill="#eca266"/>
        <path id="Trazado_106602" data-name="Trazado 106602" d="M95.055,93.182s.218,6.335-15.292,23.491l-.1.9h34.53c0-10.036-1.786-21.564-5.14-24.686-1.439-1.375-4.305-3.855-11.566-7.916-.527.5-4.742,4.292-8.546,4.716a12.4,12.4,0,0,0,6.117,3.5Z" transform="translate(-20.302 -23.957)" fill="#bd5629"/>
        <path id="Trazado_106603" data-name="Trazado 106603" d="M89.728,82.874c-2.056-1.041-4.331-2.146-6.888-3.354C84.331,80.252,86.9,81.486,89.728,82.874Z" transform="translate(-19.396 -25.511)" fill="#df7e27"/>
        <path id="Trazado_106604" data-name="Trazado 106604" d="M79.891,109.666l-.077.694.077-.694c-.27.283-.5.565-.771.874h.694l.1-.9Z" transform="translate(-20.456 -16.924)" fill="#fff"/>
        <path id="Trazado_106605" data-name="Trazado 106605" d="M77.185,119.249V86.685c2.249-.218,4.523-1.979,6.425-5.025V79.09h-.835v2.686c-1.863,3.071-4.138,4.678-6.425,4.883V119.2Z" transform="translate(-21.246 -25.634)" fill="#e1dfdd"/>
        <path id="Trazado_106606" data-name="Trazado 106606" d="M79.12,111.1s.3-1.182.707-3.431Z" transform="translate(-20.456 -17.486)" fill="#fff"/>
        <path id="Trazado_106607" data-name="Trazado 106607" d="M82.957,79.614a1.825,1.825,0,0,0-.527-.244C82.584,79.434,82.764,79.511,82.957,79.614Z" transform="translate(-19.513 -25.554)" fill="#fff"/>
        <path id="Trazado_106608" data-name="Trazado 106608" d="M82.715,86.044v-15.5c0-4.048-3.148-6.117-6.425-6.245V90.9C78.577,90.721,80.852,89.115,82.715,86.044Z" transform="translate(-21.263 -29.85)" fill="#eca266"/>
        <path id="Trazado_106609" data-name="Trazado 106609" d="M82.84,79.18V79S82.737,79,82.84,79.18Z" transform="translate(-19.409 -25.659)" fill="#4c4948"/>
        <path id="Trazado_106610" data-name="Trazado 106610" d="M83.345,81.13c-1.851,3.046-4.125,4.806-6.425,5.025v32.512H79.7l.707-3.431A202.5,202.5,0,0,0,83.345,81.13Z" transform="translate(-21.083 -25.052)" fill="#e1dfdd"/>
        <path id="Trazado_106611" data-name="Trazado 106611" d="M83.895,79.68c-.193-.1-.373-.18-.527-.244l-.63-.3v2.57a202.523,202.523,0,0,1-2.893,34.114c-.41,2.241-.706,3.423-.706,3.423.27-.308.5-.591.771-.874,15.537-17.181,15.318-23.517,15.318-23.517a12.4,12.4,0,0,1-6.066-3.5c3.855-.424,8.019-4.215,8.546-4.716l.1-.09c-1.915-1.028-4.177-2.172-6.425-3.238L90.744,83C87.956,81.595,85.385,80.361,83.895,79.68Z" transform="translate(-20.45 -25.619)" fill="#85451e"/>
        <path id="Trazado_106612" data-name="Trazado 106612" d="M92.245,69.557c.064.6.129,1.221.167,1.876a56.363,56.363,0,0,1-.874,9.265,6.935,6.935,0,0,1-.167,1.054c4.125-1.529,6.824-26.1-2.313-35.648a12.26,12.26,0,0,0-1.671-1.491c-.45-.321-.874-.655-1.285-.951A20.844,20.844,0,0,0,76.31,40V53.056a16.706,16.706,0,0,1,6.747-2.416C86.449,57.117,91.191,61.024,92.245,69.557Z" transform="translate(-21.257 -36.777)" fill="#393738"/>
        <rect id="Rectángulo_5886" data-name="Rectángulo 5886" width="185.257" height="90.906" transform="translate(13.069 102.405)" fill="#6d372c"/>
        <rect id="Rectángulo_5887" data-name="Rectángulo 5887" width="68.058" height="70.191" transform="translate(25.984 112.801)" fill="#582b29"/>
        <rect id="Rectángulo_5888" data-name="Rectángulo 5888" width="68.662" height="70.191" transform="translate(111.596 112.801)" fill="#582b29"/>
        <rect id="Rectángulo_5889" data-name="Rectángulo 5889" width="211.395" height="13.442" transform="translate(0 92.279)" fill="#582b29"/>
        <path id="Trazado_106613" data-name="Trazado 106613" d="M208.648,119.76H113v87.591h95.6ZM190,197.019H119.143V126.841H190Z" transform="translate(-10.798 -14.039)" fill="#502b28"/>
        <rect id="Rectángulo_5890" data-name="Rectángulo 5890" width="70.859" height="70.191" transform="translate(108.345 112.801)" fill="#372324"/>
        <path id="Trazado_106614" data-name="Trazado 106614" d="M222.117,122.742V109.3H113.04v13.442H222.117Z" transform="translate(-10.786 -17.021)" fill="#432827"/>
        <path id="Trazado_106615" data-name="Trazado 106615" d="M207.8,157.959A19.765,19.765,0,0,0,188.32,141.33h-20a19.79,19.79,0,0,0-19.495,16.629Zm-48.961,0a10.049,10.049,0,0,1,9.5-6.914H188.32a10.049,10.049,0,0,1,9.5,6.914Z" transform="translate(-0.583 -7.89)" fill="#8c451f"/>
        <path id="Trazado_106616" data-name="Trazado 106616" d="M235.477,227.858a7.286,7.286,0,0,1-7.286,7.3H138.839a7.3,7.3,0,0,1-7.3-7.3V167.1a7.3,7.3,0,0,1,7.3-7.3h89.352a7.286,7.286,0,0,1,7.286,7.3Z" transform="translate(-5.512 -2.625)" fill="#793a22"/>
        <path id="Trazado_106617" data-name="Trazado 106617" d="M241.908,193.115c0,4.022-2.57,7.389-6.734,7.389H134.938a7.453,7.453,0,0,1-7.428-7.389V160.281c0-4.035,3.328-6.541,7.428-6.541H235.174c4.112,0,6.734,2.506,6.734,6.541Z" transform="translate(-6.661 -4.353)" fill="#8c451f"/>
        <rect id="Rectángulo_5891" data-name="Rectángulo 5891" width="27.282" height="18.184" rx="4.97" transform="translate(164.4 185.755)" fill="#f6e045"/>
        <path id="Trazado_106618" data-name="Trazado 106618" d="M185.9,193.358c0,2.853-.835,4.1-3.945,4.1H168.863c-3.123,0-5.693-1.285-5.693-4.1v-4.035a5.744,5.744,0,0,1,5.693-5.513h13.095c3.11,0,3.945,2.66,3.945,5.513Z" transform="translate(3.505 4.22)" fill="#f4b619"/>
        <path id="Trazado_106619" data-name="Trazado 106619" d="M172.664,184.73a2.776,2.776,0,0,1,2.7,2.853l-.141,5.552a2.777,2.777,0,1,1-5.552-.154l.141-5.552a2.789,2.789,0,0,1,2.853-2.7Z" transform="translate(5.357 4.482)" fill="#f6e045"/>
        <path id="Trazado_106620" data-name="Trazado 106620" d="M224,219.248V190a7.517,7.517,0,0,1-1.452.141l-36.83.116v2.313a9,9,0,0,1-4.845,5.333h-9L171.8,226.5h44.978A7.286,7.286,0,0,0,224,219.248Z" transform="translate(5.965 5.984)" fill="#562f29"/>
        <path id="Trazado_106621" data-name="Trazado 106621" d="M185.723,197.5v3.123l36.83-.116a7.518,7.518,0,0,0,1.453-.142,7.042,7.042,0,0,0,5.28-7.248V160.281c0-4.022-2.57-6.541-6.734-6.541H171.78v36.316h8.546C184.914,192.035,185.723,193.462,185.723,197.5Z" transform="translate(5.959 -4.353)" fill="#6b3725"/>
        <path id="Trazado_106622" data-name="Trazado 106622" d="M185.715,193.861v-5.436A6.425,6.425,0,0,0,179.289,182H171.81v2.262h7.646c3.11,0,3.945,2.673,3.945,5.513v4.035c0,2.853-.835,4.1-3.945,4.1H171.81v2.262h7.479a6.426,6.426,0,0,0,6.425-6.311Z" transform="translate(5.968 3.704)" fill="#eed044"/>
        <path id="Trazado_106623" data-name="Trazado 106623" d="M183.431,193.358v-4.035c0-2.84-.835-5.513-3.945-5.513H171.84v1.2h.206a2.776,2.776,0,0,1,2.7,2.853l-.141,5.552a2.763,2.763,0,0,1-2.7,2.686v1.375h7.646C182.6,197.458,183.431,196.211,183.431,193.358Z" transform="translate(5.976 4.22)" fill="#e49925"/>
        <path id="Trazado_106624" data-name="Trazado 106624" d="M174.539,193.134l.141-5.552a2.776,2.776,0,0,0-2.7-2.853h-.141v11.077a2.763,2.763,0,0,0,2.7-2.673Z" transform="translate(5.976 4.482)" fill="#eed044"/>
        <path id="Trazado_106625" data-name="Trazado 106625" d="M191.325,157.959h9.985a19.764,19.764,0,0,0-19.482-16.629h-10v9.715h10A10.049,10.049,0,0,1,191.325,157.959Z" transform="translate(5.973 -7.89)" fill="#6b3725"/>
      </g>
    </g>
  </g>
</svg>
