<svg xmlns="http://www.w3.org/2000/svg" width="321" height="321" viewBox="0 0 321 321">
  <g id="Grupo_55731" data-name="Grupo 55731" transform="translate(-136 -1868)">
    <g id="Layer_1" data-name="Layer 1" transform="translate(136.12 1867.73)">
      <g id="Grupo_55449" data-name="Grupo 55449" transform="translate(39.593 39.593)">
        <circle id="Elipse_4141" data-name="Elipse 4141" cx="121.042" cy="121.042" r="121.042" fill="#deccd0"/>
        <path id="Trazado_106417" data-name="Trazado 106417" d="M222.374,128.563A88.735,88.735,0,0,1,133.7,217.3a16.063,16.063,0,1,0,0,32.127A120.8,120.8,0,0,0,254.5,128.563a16.063,16.063,0,0,0-32.127,0Z" transform="translate(-6.057 -7.522)" fill="#bd9aa0"/>
        <path id="Trazado_106418" data-name="Trazado 106418" d="M62.923,151.657a88.67,88.67,0,0,1,88.735-88.67,16.063,16.063,0,0,0,0-32.127A120.8,120.8,0,0,0,30.86,151.722a16.063,16.063,0,1,0,32.127,0Z" transform="translate(-30.796 -30.796)" fill="#f2ebec"/>
      </g>
      <rect id="Rectángulo_5808" data-name="Rectángulo 5808" width="321" height="321" transform="translate(-0.12 0.269)" fill="none"/>
      <g id="Grupo_55450" data-name="Grupo 55450" transform="translate(71.781 193.802)">
        <path id="Trazado_106419" data-name="Trazado 106419" d="M115.283,189.889s-17.387-6.425-19.4-10.563-9-23.131-18.557-23.98a2.467,2.467,0,0,0-2.75,1.414s-9.291-7.71-16.5-5.577,5.5,21.268,5.5,21.268,29.672,51.4,95.1,40.84S115.283,189.889,115.283,189.889Z" transform="translate(-55.858 -150.81)" fill="#dfb28b"/>
        <path id="Trazado_106420" data-name="Trazado 106420" d="M219.951,235s-7.055-11.566-28.349-9.42-44.309,4.318-55.644.655-43.14-9.111-53.369-20.3c-10.075-11-16.243-15.832-18.222-21.422-1.388-3.971-8.828-26.241-7.543-28.272s10.9-2.159,16.513,9.445a66.169,66.169,0,0,1,5.05,15.935s18.248,11.9,24.147,14.843,50.324,15.575,52.213,12.093-37.717-10.281-39.709-15c-2.454-5.757,3.226-13.8,19.79-10.281s20.24,4.549,24.494,4.048S211.868,175.316,219.951,235Z" transform="translate(-55.625 -149.563)" fill="#ecc19c"/>
        <path id="Trazado_106421" data-name="Trazado 106421" d="M63,151.35l.848.206a13.777,13.777,0,0,1,2.352.822,22.142,22.142,0,0,1,7.094,5.14,42.78,42.78,0,0,1,6.875,9.934c1,1.94,1.9,4,2.763,6.1.411,1.054.835,2.12,1.208,3.2l.565,1.594.27.758.077.154v.077h0c.1.193-.141-.244-.1-.193h0c.116.18.116.09.077,0a31.107,31.107,0,0,0,2.57,1.838l2.93,1.863c1.953,1.285,3.945,2.365,5.847,3.5,3.855,2.223,7.453,4.228,10.615,5.873s5.834,2.917,7.71,3.727,3.084,1.2,3.084,1.2l-.874-.1a23.432,23.432,0,0,1-2.454-.411,56.261,56.261,0,0,1-8.481-2.57,104.958,104.958,0,0,1-11.322-5.14c-1.863-.912-3.881-2.03-5.95-3.316-1.028-.617-2.056-1.285-3.058-1.9a24.775,24.775,0,0,1-3.11-2.313,4.243,4.243,0,0,1-.514-.578h0l-.129-.244v-.18l-.09-.244-.3-.835-.54-1.619c-.347-1.054-.707-2.108-1.054-3.148-.732-2.082-1.529-4.1-2.365-6.014a47.689,47.689,0,0,0-5.654-9.959,23.272,23.272,0,0,0-5.963-5.693,16.011,16.011,0,0,0-2.095-1.169Z" transform="translate(-53.821 -150.656)" fill="#cf9e76"/>
        <path id="Trazado_106422" data-name="Trazado 106422" d="M64,156.63l.977.733a9,9,0,0,1,1.131.938,15.717,15.717,0,0,1,1.491,1.375,32.243,32.243,0,0,1,6.027,10.473c.887,2.313,1.7,4.858,2.647,7.492.244.655.5,1.285.758,1.992a7.928,7.928,0,0,0,.887,1.812,15.819,15.819,0,0,0,3.431,2.763,125.436,125.436,0,0,0,17.991,8.918c6.425,2.57,12.851,5.14,19.032,7.274s11.977,3.984,17.04,5.269a67.827,67.827,0,0,0,12.414,2.3,14.368,14.368,0,0,0,3.521-.193,4.742,4.742,0,0,0,1.169-.4,4.318,4.318,0,0,1-1.131.514,12.427,12.427,0,0,1-3.572.527,57.341,57.341,0,0,1-12.735-1.516,161.834,161.834,0,0,1-17.4-4.7c-6.245-2.056-12.851-4.382-19.276-7.171-3.213-1.388-6.425-2.84-9.458-4.382a69.981,69.981,0,0,1-8.751-5.05,16.025,16.025,0,0,1-3.675-3.316,9,9,0,0,1-.977-2.172c-.244-.694-.475-1.375-.707-2.056-.822-2.686-1.606-5.23-2.339-7.582a30.842,30.842,0,0,0-5.256-10.576,15.561,15.561,0,0,0-1.285-1.465,10.614,10.614,0,0,0-1.054-1.015Z" transform="translate(-53.536 -149.15)" fill="#cf9e76"/>
        <path id="Trazado_106423" data-name="Trazado 106423" d="M115.39,190.43s-9.741-1.144-11.861-4.254c-1.581-2.313,1.439-6.605,2.969-7.055,2.57-.758,11.039,3.264,11.039,3.264Z" transform="translate(-42.395 -142.766)" fill="#f0d0b4"/>
        <path id="Trazado_106424" data-name="Trazado 106424" d="M113.019,189.685s-4.806-4.434,2.146-8.045Z" transform="translate(-40.024 -142.021)" fill="#f5e0cd"/>
      </g>
      <g id="Grupo_55451" data-name="Grupo 55451" transform="translate(111.802 116.994)">
        <rect id="Rectángulo_5809" data-name="Rectángulo 5809" width="15.717" height="3.932" transform="translate(41.778 10.371)" fill="#505050"/>
        <rect id="Rectángulo_5810" data-name="Rectángulo 5810" width="7.698" height="77.619" transform="translate(45.903 13.48)" fill="#505050"/>
        <rect id="Rectángulo_5811" data-name="Rectángulo 5811" width="23.581" height="3.932" transform="translate(38.938 85.201)" fill="#505050"/>
        <path id="Trazado_106425" data-name="Trazado 106425" d="M134.747,114.945c-7.569,0-12.645-2.866-17.541-5.629-5.886-3.328-11.964-6.76-23.234-5.834l-.321-3.855c12.452-1.028,19.379,2.891,25.483,6.335,4.87,2.75,9.073,5.14,15.614,5.14Z" transform="translate(-85.104 -88.64)" fill="#505050"/>
        <path id="Trazado_106426" data-name="Trazado 106426" d="M125.71,114.964v-3.932c6.541,0,10.756-2.365,15.627-5.14,6.1-3.444,13.018-7.351,25.483-6.335l-.321,3.855c-11.27-.925-17.349,2.57-23.234,5.834C138.355,112.1,133.292,114.964,125.71,114.964Z" transform="translate(-75.965 -88.659)" fill="#505050"/>
        <rect id="Rectángulo_5812" data-name="Rectángulo 5812" width="38.154" height="3.932" transform="translate(31.741 89.133)" fill="#505050"/>
        <path id="Trazado_106427" data-name="Trazado 106427" d="M131.049,95.409a4.369,4.369,0,1,1-4.369-4.369,4.369,4.369,0,0,1,4.369,4.369Z" transform="translate(-76.934 -91.04)" fill="#3c3c3c"/>
        <rect id="Rectángulo_5813" data-name="Rectángulo 5813" width="48.319" height="1.311" transform="translate(0.325 59.459) rotate(-76.04)" fill="#505050"/>
        <rect id="Rectángulo_5814" data-name="Rectángulo 5814" width="1.311" height="48.319" transform="matrix(0.97, -0.242, 0.242, 0.97, 11.984, 12.889)" fill="#505050"/>
        <rect id="Rectángulo_5815" data-name="Rectángulo 5815" width="1.311" height="47.869" transform="translate(11.977 12.722)" fill="#505050"/>
        <rect id="Rectángulo_5816" data-name="Rectángulo 5816" width="48.319" height="1.311" transform="translate(76.097 59.458) rotate(-76.08)" fill="#505050"/>
        <rect id="Rectángulo_5817" data-name="Rectángulo 5817" width="1.311" height="48.319" transform="matrix(0.97, -0.242, 0.242, 0.97, 87.754, 12.897)" fill="#505050"/>
        <path id="Trazado_106428" data-name="Trazado 106428" d="M99.632,137.18H87s.938,8.16,12.658,8.16,12.671-8.16,12.671-8.16Z" transform="translate(-87 -77.887)" fill="#505050"/>
        <rect id="Rectángulo_5818" data-name="Rectángulo 5818" width="1.311" height="47.869" transform="translate(87.745 12.722)" fill="#505050"/>
        <path id="Trazado_106429" data-name="Trazado 106429" d="M102.169,101.909A4.369,4.369,0,1,1,97.8,97.54a4.369,4.369,0,0,1,4.369,4.369Z" transform="translate(-85.167 -89.187)" fill="#3c3c3c"/>
        <path id="Trazado_106430" data-name="Trazado 106430" d="M160.939,101.909a4.369,4.369,0,1,1-4.369-4.369,4.369,4.369,0,0,1,4.369,4.369Z" transform="translate(-68.413 -89.187)" fill="#3c3c3c"/>
        <path id="Trazado_106431" data-name="Trazado 106431" d="M158.6,137.18H145.93s.951,8.16,12.671,8.16,12.658-8.16,12.658-8.16Z" transform="translate(-70.2 -77.887)" fill="#505050"/>
        <path id="Trazado_106432" data-name="Trazado 106432" d="M109.5,137.18H96.83v8.16C108.614,145.34,109.5,137.18,109.5,137.18Z" transform="translate(-84.198 -77.887)" fill="#3c3c3c"/>
        <rect id="Rectángulo_5819" data-name="Rectángulo 5819" width="3.855" height="77.619" transform="translate(49.745 13.48)" fill="#3c3c3c"/>
        <path id="Trazado_106433" data-name="Trazado 106433" d="M168.448,137.18H155.79v8.16C167.51,145.34,168.448,137.18,168.448,137.18Z" transform="translate(-67.389 -77.887)" fill="#3c3c3c"/>
        <rect id="Rectángulo_5820" data-name="Rectángulo 5820" width="12.774" height="3.932" transform="translate(49.745 85.201)" fill="#3c3c3c"/>
        <rect id="Rectángulo_5821" data-name="Rectángulo 5821" width="20.137" height="3.932" transform="translate(49.745 89.133)" fill="#3c3c3c"/>
        <rect id="Rectángulo_5822" data-name="Rectángulo 5822" width="7.749" height="3.932" transform="translate(49.745 10.371)" fill="#3c3c3c"/>
      </g>
      <g id="Grupo_55452" data-name="Grupo 55452" transform="translate(64.806 54.057)">
        <path id="Trazado_106434" data-name="Trazado 106434" d="M153.235,72.273s18.454,2.891,21.384,6.515,14.059,20.805,23.633,19.8a2.377,2.377,0,0,0,2.365-1.915s10.859,5.77,17.4,2.21-10.281-19.713-10.281-19.713S166.972,34.736,105.494,57.893,153.235,72.273,153.235,72.273Z" transform="translate(-40.084 -39.459)" fill="#dfb28b"/>
        <path id="Trazado_106435" data-name="Trazado 106435" d="M50.43,50.142s9.535,9.831,29.865,3.65,42.33-12.851,54.23-11.566,44.258.45,56.826,9.381c12.337,8.79,19.482,12.3,22.72,17.426,2.262,3.624,14.637,23.928,13.853,26.2s-10.152,4.241-18.3-6a68.932,68.932,0,0,1-8.584-14.586S180.48,66.6,174.055,64.882s-52.752-5.359-53.793-1.593S159.482,66,162.5,70.163c3.714,5.14,0,14.136-16.989,13.93s-20.831-.475-24.866.835S72.006,106.878,50.43,50.142Z" transform="translate(-50.43 -42.065)" fill="#ecc19c"/>
        <path id="Trazado_106436" data-name="Trazado 106436" d="M197.778,96.7H196.9a15.151,15.151,0,0,1-2.493-.347,22.977,22.977,0,0,1-8.1-3.624,44.592,44.592,0,0,1-9-8.353c-1.426-1.7-2.789-3.534-4.1-5.423-.655-.951-1.285-1.915-1.915-2.891l-.925-1.452-.437-.681-.1-.154h0l.141.167h0c-.154-.167-.129-.077-.09,0-.694-.36-1.94-.874-2.981-1.285l-3.29-1.285c-2.2-.81-4.408-1.516-6.528-2.262-4.241-1.414-8.25-2.673-11.707-3.662s-6.425-1.7-8.456-2.12-3.29-.553-3.29-.553l.874-.077c.578,0,1.426-.09,2.506-.077a58.935,58.935,0,0,1,8.88.874,108.264,108.264,0,0,1,12.221,2.789c2.223.591,4.459,1.285,6.734,2.12,1.131.4,2.287.8,3.418,1.285a30.353,30.353,0,0,1,3.573,1.658,4.358,4.358,0,0,1,.63.475h0l.193.206h0l.09.1.141.218.475.771.9,1.465c.591.964,1.169,1.928,1.761,2.879,1.182,1.889,2.429,3.7,3.688,5.41a49.8,49.8,0,0,0,7.749,8.507,24.519,24.519,0,0,0,7.132,4.395,15.062,15.062,0,0,0,2.326.732Z" transform="translate(-26.709 -36.206)" fill="#cf9e76"/>
        <path id="Trazado_106437" data-name="Trazado 106437" d="M203.073,91.991l-1.131-.527a12.313,12.313,0,0,1-1.285-.694,15.417,15.417,0,0,1-1.709-1.092,33.412,33.412,0,0,1-8.3-9c-1.4-2.082-2.763-4.421-4.305-6.811l-1.2-1.786a7.71,7.71,0,0,0-1.285-1.593,15.857,15.857,0,0,0-3.984-2.03,127.222,127.222,0,0,0-19.674-5.14c-6.862-1.285-13.75-2.57-20.279-3.38s-12.607-1.555-17.85-1.812a67.735,67.735,0,0,0-12.658.18,13.9,13.9,0,0,0-3.393.874,4.331,4.331,0,0,0-1.054.63,4.267,4.267,0,0,1,.99-.732,12.105,12.105,0,0,1,3.367-1.208,57.829,57.829,0,0,1,12.851-1.015,165.261,165.261,0,0,1,18.081,1.182c6.567.8,13.57,1.761,20.484,3.238q5.166,1.079,10.281,2.429a72.735,72.735,0,0,1,9.7,3.213,17.464,17.464,0,0,1,4.356,2.57,9.742,9.742,0,0,1,1.452,1.94l1.157,1.863,4.022,6.952a32.269,32.269,0,0,0,7.556,9.3,14.839,14.839,0,0,0,1.593,1.182,8.752,8.752,0,0,0,1.285.784Z" transform="translate(-34.882 -37.857)" fill="#cf9e76"/>
        <path id="Trazado_106438" data-name="Trazado 106438" d="M126.7,63.175s9.779-.784,12.555,1.825c2.082,1.966.116,6.747-1.285,7.479-2.326,1.285-11.566-1.015-11.566-1.015Z" transform="translate(-28.773 -36.079)" fill="#f0d0b4"/>
        <path id="Trazado_106439" data-name="Trazado 106439" d="M126.687,63.15s5.706,3.393-.257,8.289Z" transform="translate(-28.764 -36.054)" fill="#f5e0cd"/>
      </g>
    </g>
  </g>
</svg>
