<svg xmlns="http://www.w3.org/2000/svg" width="110" height="110" viewBox="0 0 110 110">
  <g id="Grupo_55744" data-name="Grupo 55744" transform="translate(-745 -1590)">
    <g id="Layer_1" data-name="Layer 1" transform="translate(745 1590)">
      <rect id="Rectángulo_5974" data-name="Rectángulo 5974" width="110" height="110" fill="none"/>
      <g id="Grupo_55649" data-name="Grupo 55649">
        <circle id="Elipse_4203" data-name="Elipse 4203" cx="42.61" cy="42.61" r="42.61" transform="translate(14.53 13.65)" fill="#eceee1"/>
        <path id="Trazado_107561" data-name="Trazado 107561" d="M57.07,104.69a48.43,48.43,0,1,0,0-96.86,5.82,5.82,0,0,0,0,11.64,36.8,36.8,0,1,1,.02,73.59,5.82,5.82,0,1,0,0,11.63Z" fill="#d3d7b8"/>
        <path id="Trazado_107562" data-name="Trazado 107562" d="M6.16,50.42A51.483,51.483,0,1,0,108.51,61.67a3.652,3.652,0,0,0-7.26-.8,44.19,44.19,0,0,1-43.86,39.36,44.753,44.753,0,0,1-4.88-.27A44.19,44.19,0,0,1,13.15,56.1a42.378,42.378,0,0,1,.27-4.88,3.652,3.652,0,1,0-7.26-.8Z" fill="#9b6771"/>
        <path id="Trazado_107563" data-name="Trazado 107563" d="M57.14,3.73A52.6,52.6,0,0,0,4.49,56.37a5.33,5.33,0,0,0,10.65,0,41.92,41.92,0,0,1,42-42,5.33,5.33,0,0,0,0-10.65Z" fill="#ab9ba4"/>
        <path id="Trazado_107564" data-name="Trazado 107564" d="M11.06,55.86a46.25,46.25,0,0,0,46.29,46.29,2.76,2.76,0,1,0,0-5.52A40.75,40.75,0,0,1,16.58,55.86a2.76,2.76,0,0,0-5.52,0Z" fill="#b1b2a8"/>
      </g>
      <g id="Grupo_55650" data-name="Grupo 55650">
        <path id="Trazado_107565" data-name="Trazado 107565" d="M58.1,23.11v2a11,11,0,0,0-9.33,5.4l-1.5-.87c-.05,0-.08-.09-.15-.17A13,13,0,0,1,58.1,23.11Z" fill="#2c041c"/>
        <path id="Trazado_107566" data-name="Trazado 107566" d="M46.09,31.61l1.85.66-.47,1.79-1.91-.32Z" fill="#2c041c"/>
      </g>
      <path id="Trazado_107567" data-name="Trazado 107567" d="M77.12,75.73a1,1,0,0,0-1,1v9.42a.55.55,0,0,1-.55.56h-5.4V67a1,1,0,0,0-2,0V86.72H57.31l3.15-3.46a1.83,1.83,0,0,0,.43-1.45h0l-3-17.71.81-1.21a2.29,2.29,0,0,0,1.43.62,1.75,1.75,0,0,0,1.57-1h0l3.17-6.34L72.07,59a7,7,0,0,1,4,6.31V72.1a1,1,0,0,0,2,0V65.27a9,9,0,0,0-5.29-8.17h0l-12-4.64V49.64a9.41,9.41,0,0,0,3.55-6.18,4.33,4.33,0,0,0,2.55-1,4.27,4.27,0,0,0,.45-6V32.7a12.43,12.43,0,1,0-24.86,0v3.81a4,4,0,0,0-1,2.68A4.25,4.25,0,0,0,43,42.42a4.35,4.35,0,0,0,2.55,1,9.27,9.27,0,0,0,3.76,6.33v2.66l-12,4.64h0A9,9,0,0,0,32,65.27V86.16a2.56,2.56,0,0,0,2.56,2.56h9.55a1,1,0,0,0,0-2H41.93V67a1,1,0,0,0-2,0V86.72H34.54a.55.55,0,0,1-.55-.56V65.27A6.93,6.93,0,0,1,38,59l7.2-2.79,3.16,6.34a1.77,1.77,0,0,0,1.57,1,2.31,2.31,0,0,0,1.44-.62l.8,1.21-3,17.71h0a1.83,1.83,0,0,0,.43,1.45l3.15,3.46h-4a1,1,0,0,0,0,2H75.56a2.56,2.56,0,0,0,2.56-2.56V76.74a1,1,0,0,0-1-1.01ZM63,55.44l-3,5.91-3.55-2.52,3.65-4.49Zm-5.93,6.25-.76,1.16H53.8L53,61.69l2-1.43Zm-5.79-8.91V50.9a10.2,10.2,0,0,0,3.79.72,9.39,9.39,0,0,0,3.75-.78v1.94l-3.76,4.65ZM66.4,39.19a2.28,2.28,0,0,1-.78,1.71,2.37,2.37,0,0,1-1.16.53V37a2.26,2.26,0,0,1,1.94,2.19Zm-21,2.24a2.26,2.26,0,0,1-1.93-2.24A2.36,2.36,0,0,1,45.42,37ZM45.48,35a5.4,5.4,0,0,0-1,.22V32.7a10.42,10.42,0,1,1,20.84,0v2.41a3.87,3.87,0,0,0-.9-.17c0-1,0-.79-3.16-4.19A1.8,1.8,0,0,0,59,30.47a19.27,19.27,0,0,1-11.68,3.15A1.78,1.78,0,0,0,45.48,35Zm2,7.26V35.64A21.49,21.49,0,0,0,60,32.26c1.45,1.55,2.24,2.37,2.49,2.68v7.28a7.51,7.51,0,0,1-15,0ZM50.1,61.39l-3-5.95,2.9-1.1,3.64,4.5ZM51.2,82l2.9-17.15H56L58.89,82l-3.84,4.23Z" fill="#2c041c"/>
      <path id="Trazado_107568" data-name="Trazado 107568" d="M51.72,44.87H53.4a9.67,9.67,0,0,0,1.12,1.56,1.92,1.92,0,0,0,1.19.35c1,0,1.63-.68,1.91-1.93h1.86a3.86,3.86,0,0,1-3.69,3.91,3.9,3.9,0,0,1-4.07-3.89Z" fill="#2c041c"/>
      <path id="Trazado_107569" data-name="Trazado 107569" d="M52.24,36a1.169,1.169,0,1,1-.95,1A1,1,0,0,1,52.24,36Z" fill="#2c041c"/>
      <path id="Trazado_107570" data-name="Trazado 107570" d="M59.79,37a.975.975,0,1,1-1.01-.94A1,1,0,0,1,59.79,37Z" fill="#2c041c"/>
    </g>
  </g>
</svg>
