<svg xmlns="http://www.w3.org/2000/svg" width="322" height="321" viewBox="0 0 322 321">
  <g id="Grupo_55735" data-name="Grupo 55735" transform="translate(-1019 -3483)">
    <g id="Layer_1" data-name="Layer 1" transform="translate(1019.481 3482.73)">
      <g id="Grupo_55467" data-name="Grupo 55467" transform="translate(39.593 39.593)">
        <circle id="Elipse_4152" data-name="Elipse 4152" cx="121.042" cy="121.042" r="121.042" fill="#deccd0"/>
        <path id="Trazado_106541" data-name="Trazado 106541" d="M222.374,128.563A88.735,88.735,0,0,1,133.7,217.3a16.063,16.063,0,1,0,0,32.127A120.8,120.8,0,0,0,254.5,128.563a16.063,16.063,0,0,0-32.127,0Z" transform="translate(-6.057 -7.522)" fill="#bd9aa0"/>
        <path id="Trazado_106542" data-name="Trazado 106542" d="M62.923,151.657a88.67,88.67,0,0,1,88.735-88.67,16.063,16.063,0,0,0,0-32.127A120.8,120.8,0,0,0,30.86,151.722a16.063,16.063,0,1,0,32.127,0Z" transform="translate(-30.796 -30.796)" fill="#f2ebec"/>
      </g>
      <rect id="Rectángulo_5864" data-name="Rectángulo 5864" width="322" height="321" transform="translate(-0.481 0.269)" fill="none"/>
      <g id="Grupo_55468" data-name="Grupo 55468" transform="translate(45.685 26.704)">
        <rect id="Rectángulo_5865" data-name="Rectángulo 5865" width="20.754" height="100.352" transform="translate(26.061 75.254)" fill="#d8dcda"/>
        <rect id="Rectángulo_5866" data-name="Rectángulo 5866" width="20.767" height="100.352" transform="translate(57.199 75.254)" fill="#d8dcda"/>
        <rect id="Rectángulo_5867" data-name="Rectángulo 5867" width="20.754" height="100.352" transform="translate(85.753 75.254)" fill="#d8dcda"/>
        <rect id="Rectángulo_5868" data-name="Rectángulo 5868" width="20.767" height="100.352" transform="translate(116.891 75.254)" fill="#d8dcda"/>
        <rect id="Rectángulo_5869" data-name="Rectángulo 5869" width="20.767" height="100.352" transform="translate(147.167 75.254)" fill="#d8dcda"/>
        <rect id="Rectángulo_5870" data-name="Rectángulo 5870" width="20.767" height="100.352" transform="translate(176.788 75.254)" fill="#d8dcda"/>
        <rect id="Rectángulo_5871" data-name="Rectángulo 5871" width="195.936" height="12.53" transform="translate(14.701 175.619)" fill="#b4b7b7"/>
        <rect id="Rectángulo_5872" data-name="Rectángulo 5872" width="214.531" height="13.416" transform="translate(5.192 188.148)" fill="#808280"/>
        <rect id="Rectángulo_5873" data-name="Rectángulo 5873" width="224.927" height="14.714" transform="translate(0 201.565)" fill="#b4b7b7"/>
        <path id="Trazado_106543" data-name="Trazado 106543" d="M38.91,87.823,146.432,20.78l109.18,67.043Z" transform="translate(-34.592 -20.78)" fill="#d8dcda"/>
        <path id="Trazado_106544" data-name="Trazado 106544" d="M60.06,79.531,140.609,29.31l81.808,50.221Z" transform="translate(-28.563 -18.348)" fill="#b4b7b7"/>
        <rect id="Rectángulo_5874" data-name="Rectángulo 5874" width="195.936" height="3.213" transform="translate(14.701 175.58)" fill="#a3a7a7"/>
        <rect id="Rectángulo_5875" data-name="Rectángulo 5875" width="10.383" height="98.193" transform="translate(36.445 77.426)" fill="#b4b7b7"/>
        <rect id="Rectángulo_5876" data-name="Rectángulo 5876" width="10.383" height="98.193" transform="translate(67.582 77.426)" fill="#b4b7b7"/>
        <rect id="Rectángulo_5877" data-name="Rectángulo 5877" width="10.371" height="98.193" transform="translate(96.137 77.426)" fill="#b4b7b7"/>
        <rect id="Rectángulo_5878" data-name="Rectángulo 5878" width="10.383" height="98.193" transform="translate(127.274 77.426)" fill="#b4b7b7"/>
        <rect id="Rectángulo_5879" data-name="Rectángulo 5879" width="10.383" height="98.193" transform="translate(157.551 77.426)" fill="#b4b7b7"/>
        <rect id="Rectángulo_5880" data-name="Rectángulo 5880" width="10.383" height="98.193" transform="translate(187.172 77.426)" fill="#b4b7b7"/>
        <rect id="Rectángulo_5881" data-name="Rectángulo 5881" width="195.936" height="10.383" transform="translate(13.84 67.043)" fill="#a3a7a7"/>
        <rect id="Rectángulo_5882" data-name="Rectángulo 5882" width="195.936" height="5.192" transform="translate(13.84 67.043)" fill="#808280"/>
      </g>
      <path id="Trazado_106545" data-name="Trazado 106545" d="M175.8,138.6l-.745,1.465s-29.107,8.43-30.328,9.458-5.14,4.9-10.628,34.414c0,0,4.241,21.679,28.542,22.3,0,0,3.071-1.028,3.534-3.752,0,0,6.31,1.079,8.173-5,0,0,5.333-.9,6.271-5.616l24.211-38.552Z" transform="translate(38.229 39.512)" fill="#f6c494"/>
      <path id="Trazado_106546" data-name="Trazado 106546" d="M160.41,177s9.638,1.015,8.906,11.154l-.822-.064-.758,1.748S168.223,180.65,160.41,177Z" transform="translate(45.729 50.459)" fill="#eeb588"/>
      <path id="Trazado_106547" data-name="Trazado 106547" d="M174.168,185.591s.475-9.188-7.338-12.851c0,0,9.664,1.015,8.906,11.154Z" transform="translate(47.56 49.244)" fill="#eeb588"/>
      <path id="Trazado_106548" data-name="Trazado 106548" d="M151.217,159.88,134.1,177.871l23.363-15.087Z" transform="translate(38.229 45.578)" fill="#eeb588"/>
      <path id="Trazado_106549" data-name="Trazado 106549" d="M160.66,189.286s5.629-.925,6.785-4.536l1.838.411S168.576,192.782,160.66,189.286Z" transform="translate(45.801 52.668)" fill="#eeb588"/>
      <path id="Trazado_106550" data-name="Trazado 106550" d="M166.7,186.961s6.13-2.39,7.286-6l1.838.411S173.241,189.66,166.7,186.961Z" transform="translate(47.523 51.588)" fill="#eeb588"/>
      <rect id="Rectángulo_5883" data-name="Rectángulo 5883" width="81.757" height="19.263" rx="2.74" transform="translate(46.07 267.656)" fill="#8c451f"/>
      <path id="Trazado_106551" data-name="Trazado 106551" d="M110.806,207.893a2.339,2.339,0,0,1-2.352,2.339H42.44a2.352,2.352,0,1,1,0-4.691h66.014A2.352,2.352,0,0,1,110.806,207.893Z" transform="translate(11.379 58.594)" fill="#8c451f"/>
      <path id="Trazado_106552" data-name="Trazado 106552" d="M84.984,215.374a3.508,3.508,0,0,1-4.061,2.866L53.14,213.433a3.521,3.521,0,0,1-2.879-4.074l14.264-82.4a3.534,3.534,0,0,1,4.087-2.879l27.771,4.806a3.521,3.521,0,0,1,2.866,4.1Z" transform="translate(14.314 35.358)" fill="#6b3725"/>
      <path id="Trazado_106553" data-name="Trazado 106553" d="M219.166,190.1a3.508,3.508,0,0,1-4.074,2.879L91.647,171.611a3.521,3.521,0,0,1-2.866-4.074l.745-4.318a3.547,3.547,0,0,1,4.074-2.879l123.445,21.422a3.521,3.521,0,0,1,2.866,4.074Z" transform="translate(25.295 45.696)" fill="#8c451f"/>
      <path id="Trazado_106554" data-name="Trazado 106554" d="M101.5,142.925a3.521,3.521,0,0,1-4.074,2.879L59,139.147a3.521,3.521,0,0,1-2.879-4.074l1.131-6.425a3.521,3.521,0,0,1,4.074-2.866l38.424,6.644a3.521,3.521,0,0,1,2.866,4.074Z" transform="translate(15.984 35.843)" fill="#8c451f"/>
      <path id="Trazado_106555" data-name="Trazado 106555" d="M98.878,158.233A3.521,3.521,0,0,1,94.8,161.1L56.38,154.455a3.534,3.534,0,0,1-2.879-4.087l1.285-7.171a3.521,3.521,0,0,1,4.074-2.866l38.424,6.644a3.534,3.534,0,0,1,2.879,4.074Z" transform="translate(15.237 39.99)" fill="#8c451f"/>
      <path id="Trazado_106556" data-name="Trazado 106556" d="M95.127,181.839a3.534,3.534,0,0,1-4.074,2.879L51,177.779a3.521,3.521,0,0,1-2.866-4.074l1.079-6.245a3.547,3.547,0,0,1,4.074-2.879l40.043,6.978a3.547,3.547,0,0,1,2.879,4.074Z" transform="translate(13.706 46.905)" fill="#8c451f"/>
      <path id="Trazado_106557" data-name="Trazado 106557" d="M92.434,197.309a3.521,3.521,0,0,1-4.074,2.866l-40.043-6.927a3.534,3.534,0,0,1-2.866-4.087l1.041-6.014a3.521,3.521,0,0,1,4.061-2.866l40.056,6.939a3.508,3.508,0,0,1,2.866,4.061Z" transform="translate(12.942 51.38)" fill="#8c451f"/>
      <path id="Trazado_106558" data-name="Trazado 106558" d="M103.571,173.674a3.393,3.393,0,0,1-3.855,2.93l-43.808-7.582A3.393,3.393,0,0,1,53.337,165l1.8-10.422a3.405,3.405,0,0,1,3.855-2.93l43.808,7.595a3.367,3.367,0,0,1,2.57,4.022Z" transform="translate(15.183 43.222)" fill="#e4a755"/>
      <path id="Trazado_106559" data-name="Trazado 106559" d="M159.514,167.058s-20.394,13.725-23.363,15.087c0,0-12.285,5.963-8.533,13.66,0,0,2.287,9.2,13.365,4.138,0,0,21.731-17.04,29.9-17.053,0,0,23.209,4.819,30.842-15.061l7.415-15.01-15.305-7.929Z" transform="translate(36.178 41.305)" fill="#f6c494"/>
      <path id="Trazado_106560" data-name="Trazado 106560" d="M130.07,198.88s25.7-18.724,36.766-21.178c0,0,17.657,3.855,29.364-10.409l9.728-17.143,2.249,1.169s-6.862,21.576-16.706,26.575c0,0-11.964,6.657-21.538,3.5a37.01,37.01,0,0,0-17.708,8.327S138.8,203.4,130.07,198.88Z" transform="translate(37.08 42.804)" fill="#eeb588"/>
      <rect id="Rectángulo_5884" data-name="Rectángulo 5884" width="5.629" height="40.017" transform="translate(211.154 177.767) rotate(-52.75)" fill="#e0e0df"/>
      <path id="Trazado_106561" data-name="Trazado 106561" d="M205.012,94.04l35.134,25.367-40.21,51.879-33.926-25.6Z" transform="translate(47.326 26.809)" fill="#656461"/>
      <path id="Trazado_106562" data-name="Trazado 106562" d="M219.141,104.27l16.835,12.362-39.4,52.187-16.295-12.3Z" transform="translate(51.394 29.725)" fill="#392c2f"/>
    </g>
  </g>
</svg>
