<svg xmlns="http://www.w3.org/2000/svg" width="322" height="321" viewBox="0 0 322 321">
  <g id="Grupo_55733" data-name="Grupo 55733" transform="translate(-1019 -2410)">
    <g id="Layer_1" data-name="Layer 1" transform="translate(1019.24 2409.73)">
      <g id="Grupo_55453" data-name="Grupo 55453" transform="translate(39.593 39.593)">
        <circle id="Elipse_4142" data-name="Elipse 4142" cx="121.042" cy="121.042" r="121.042" fill="#deccd0"/>
        <path id="Trazado_106440" data-name="Trazado 106440" d="M222.374,128.563A88.735,88.735,0,0,1,133.7,217.3a16.063,16.063,0,1,0,0,32.127A120.8,120.8,0,0,0,254.5,128.563a16.063,16.063,0,0,0-32.127,0Z" transform="translate(-6.057 -7.522)" fill="#bd9aa0"/>
        <path id="Trazado_106441" data-name="Trazado 106441" d="M62.923,151.657a88.67,88.67,0,0,1,88.735-88.67,16.063,16.063,0,0,0,0-32.127A120.8,120.8,0,0,0,30.86,151.722a16.063,16.063,0,1,0,32.127,0Z" transform="translate(-30.796 -30.796)" fill="#f2ebec"/>
      </g>
      <rect id="Rectángulo_5823" data-name="Rectángulo 5823" width="322" height="321" transform="translate(-0.24 0.269)" fill="none"/>
      <g id="Grupo_55456" data-name="Grupo 55456" transform="translate(114.372 42.044)">
        <path id="Trazado_106442" data-name="Trazado 106442" d="M154.164,85.582c-10.653,0-14.264-3.071-14.264-3.071s4.138-1.915,14.766-1.838a29.184,29.184,0,0,1,11.309,1.94S164.8,85.582,154.164,85.582Z" transform="translate(-74.489 -19.049)" fill="#e3e4e3"/>
        <rect id="Rectángulo_5824" data-name="Rectángulo 5824" width="133.61" height="93.528" transform="translate(14.329 117.871)" fill="#6d372c"/>
        <path id="Trazado_106443" data-name="Trazado 106443" d="M243.887,122.687a3.1,3.1,0,0,1-3.1,3.11H97.646a3.11,3.11,0,0,1,0-6.207H240.8a3.084,3.084,0,0,1,3.084,3.1Z" transform="translate(-87.365 -7.951)" fill="#572e28"/>
        <path id="Trazado_106444" data-name="Trazado 106444" d="M240.163,200.794a3.573,3.573,0,0,1-3.573,3.585H98.213a3.585,3.585,0,1,1,0-7.158H236.59a3.56,3.56,0,0,1,3.572,3.572Z" transform="translate(-87.457 14.178)" fill="#6d372c"/>
        <path id="Trazado_106445" data-name="Trazado 106445" d="M250.3,205.963a4.742,4.742,0,0,1-4.691,4.78H93.7a4.729,4.729,0,0,1-4.7-4.78V204.78A4.742,4.742,0,0,1,93.7,200H245.613a4.742,4.742,0,0,1,4.691,4.78Z" transform="translate(-89 14.972)" fill="#69392d"/>
        <rect id="Rectángulo_5825" data-name="Rectángulo 5825" width="115.477" height="83.98" transform="translate(22.913 122.408)" fill="#814134"/>
        <rect id="Rectángulo_5826" data-name="Rectángulo 5826" width="83.414" height="60.656" transform="translate(38.951 134.063)" fill="#6d372c"/>
        <path id="Trazado_106446" data-name="Trazado 106446" d="M198.693,116.34c-2.39-2.12-8.2-6.7-28.156-15.421V93.709a30.841,30.841,0,0,0,6.888-6.605A35.661,35.661,0,0,0,179.866,79a7.71,7.71,0,0,0,2.647-3.855c.848-2.57.514-5.14-.681-6.091,1.092-9.214.925-23.735-7.531-25.7-10.281-8.07-26.087-3.264-30.842,3.457-4.279,6.014-4.421,14.252-3.637,21.975-1.516.771-2,3.521-1.079,6.425a7.71,7.71,0,0,0,2.8,4,35.289,35.289,0,0,0,2.416,8.006,30.3,30.3,0,0,0,6.862,6.58v7.158c-12.272,5.41-19.276,9.265-23.337,11.913l-.6.4-1.079.732a33.585,33.585,0,0,0-3.136,2.455c-3.727,3.29-5.783,15.537-7.967,25.933h91.973C204.463,131.876,202.471,119.63,198.693,116.34Z" transform="translate(-81.673 -30.891)" fill="#f5b16d" fill-rule="evenodd"/>
        <path id="Trazado_106447" data-name="Trazado 106447" d="M151.055,82.83c-22.926,10.036-29.8,15.421-32.525,17.773-4.189,3.714-6.13,17.76-6.13,29.21h98.437c0-11.874-2.275-25.5-6.425-29.21-2.724-2.39-10.2-7.71-33.129-17.773l-9.6,15.832Z" transform="translate(-82.329 -18.431)" fill="#392c2f" fill-rule="evenodd"/>
        <path id="Trazado_106448" data-name="Trazado 106448" d="M165.976,82.2c-1.555.655-2.429,2.789-12.542,2.789S141.6,82.421,139.9,82.1c-1.028.553,13.069,29.39,13.069,29.39S166.683,83.462,165.976,82.2Z" transform="translate(-74.504 -18.639)" fill="#7ca8b6"/>
        <path id="Trazado_106449" data-name="Trazado 106449" d="M140.937,94.14,138.2,117.477a39.439,39.439,0,0,0,17,3.56c10.281,0,15.665-3.637,15.665-3.637l-3.855-23.131Z" transform="translate(-74.974 -15.207)" fill="#e3e4e3"/>
        <path id="Trazado_106450" data-name="Trazado 106450" d="M140.506,88.8l-2.776,24.416s6.078,2.416,16.577,2.416,16.436-2.57,16.436-2.57l-3.855-24.224a49.038,49.038,0,0,1-12.414,2.2C148.923,91.1,140.506,88.8,140.506,88.8Z" transform="translate(-75.108 -16.729)" fill="#edeeec"/>
        <path id="Trazado_106451" data-name="Trazado 106451" d="M142.579,53.917a6.849,6.849,0,1,1-6.849-6.837,6.849,6.849,0,0,1,6.849,6.837Z" transform="translate(-77.631 -28.622)" fill="#d6dcd6"/>
        <path id="Trazado_106452" data-name="Trazado 106452" d="M145.749,47.785A6.849,6.849,0,1,1,138.9,41a6.849,6.849,0,0,1,6.849,6.785Z" transform="translate(-76.727 -30.356)" fill="#d6dcd6"/>
        <path id="Trazado_106453" data-name="Trazado 106453" d="M141.219,60.269a6.849,6.849,0,1,1-6.849-6.849A6.849,6.849,0,0,1,141.219,60.269Z" transform="translate(-78.019 -26.815)" fill="#d6dcd6"/>
        <path id="Trazado_106454" data-name="Trazado 106454" d="M140.529,69.119a6.849,6.849,0,1,1-6.849-6.849A6.849,6.849,0,0,1,140.529,69.119Z" transform="translate(-78.215 -24.292)" fill="#d6dcd6"/>
        <path id="Trazado_106455" data-name="Trazado 106455" d="M140.039,77.059a6.849,6.849,0,1,1-6.849-6.849,6.849,6.849,0,0,1,6.849,6.849Z" transform="translate(-78.355 -22.029)" fill="#d6dcd6"/>
        <path id="Trazado_106456" data-name="Trazado 106456" d="M139.629,84.309a6.849,6.849,0,1,1-6.849-6.849A6.849,6.849,0,0,1,139.629,84.309Z" transform="translate(-78.472 -19.962)" fill="#d6dcd6"/>
        <g id="Grupo_55454" data-name="Grupo 55454" transform="translate(89.776 11.929)">
          <path id="Trazado_106457" data-name="Trazado 106457" d="M162,54.845a6.8,6.8,0,1,0,6.8-6.785A6.8,6.8,0,0,0,162,54.845Z" transform="translate(-157.965 -40.272)" fill="#d6dcd6"/>
          <path id="Trazado_106458" data-name="Trazado 106458" d="M158.86,48.772a6.8,6.8,0,1,0,6.8-6.772,6.8,6.8,0,0,0-6.8,6.772Z" transform="translate(-158.86 -42)" fill="#d6dcd6"/>
          <path id="Trazado_106459" data-name="Trazado 106459" d="M163.36,61.148a6.8,6.8,0,1,0,6.8-6.8,6.8,6.8,0,0,0-6.8,6.8Z" transform="translate(-157.577 -38.479)" fill="#d6dcd6"/>
          <path id="Trazado_106460" data-name="Trazado 106460" d="M164,69.918a6.785,6.785,0,1,0,1.987-4.811A6.8,6.8,0,0,0,164,69.918Z" transform="translate(-157.395 -35.979)" fill="#d6dcd6"/>
          <path id="Trazado_106461" data-name="Trazado 106461" d="M164.49,77.785a6.772,6.772,0,1,0,1.984-4.8,6.785,6.785,0,0,0-1.984,4.8Z" transform="translate(-157.255 -33.733)" fill="#d6dcd6"/>
          <path id="Trazado_106462" data-name="Trazado 106462" d="M164.93,84.975a6.8,6.8,0,1,0,6.8-6.785A6.8,6.8,0,0,0,164.93,84.975Z" transform="translate(-157.13 -31.683)" fill="#d6dcd6"/>
        </g>
        <path id="Trazado_106463" data-name="Trazado 106463" d="M140.48,82.12l-2.75,24.416s6.014,2.429,16.423,2.429,16.256-2.57,16.256-2.57l-3.855-24.224a48.165,48.165,0,0,1-12.285,2.2C148.795,84.407,140.48,82.12,140.48,82.12Z" transform="translate(-75.108 -18.633)" fill="#f8f7f6"/>
        <path id="Trazado_106464" data-name="Trazado 106464" d="M140.882,48.72c5.667,3.855,10.049-1.889,15.164.565S175,39.943,178.02,65.837c4.845-18.775-2.493-32.191-20.96-33.078-19.713-.951-27.668,14.213-22.219,32.859C136.14,55.737,136.679,53.706,140.882,48.72Z" transform="translate(-76.409 -32.717)" fill="#d6dcd6" fill-rule="evenodd"/>
        <path id="Trazado_106465" data-name="Trazado 106465" d="M133.319,84.1a6.849,6.849,0,1,1-6.785-6.849,6.849,6.849,0,0,1,6.785,6.849Z" transform="translate(-80.271 -20.022)" fill="#d6dcd6"/>
        <path id="Trazado_106466" data-name="Trazado 106466" d="M136.209,76.862a6.849,6.849,0,1,1-2-4.852A6.849,6.849,0,0,1,136.209,76.862Z" transform="translate(-79.447 -22.088)" fill="#d6dcd6"/>
        <path id="Trazado_106467" data-name="Trazado 106467" d="M136.209,89.639a6.849,6.849,0,1,1-6.849-6.849,6.849,6.849,0,0,1,6.849,6.849Z" transform="translate(-79.447 -18.442)" fill="#d6dcd6"/>
        <path id="Trazado_106468" data-name="Trazado 106468" d="M182.3,86.012a6.85,6.85,0,1,1-2-4.852,6.849,6.849,0,0,1,2,4.852Z" transform="translate(-66.308 -19.48)" fill="#d6dcd6"/>
        <path id="Trazado_106469" data-name="Trazado 106469" d="M182.3,78.979a6.849,6.849,0,1,1-6.849-6.849,6.849,6.849,0,0,1,6.849,6.849Z" transform="translate(-66.308 -21.481)" fill="#d6dcd6"/>
        <path id="Trazado_106470" data-name="Trazado 106470" d="M180.949,89.639A6.849,6.849,0,1,1,174.1,82.79,6.849,6.849,0,0,1,180.949,89.639Z" transform="translate(-66.692 -18.442)" fill="#d6dcd6"/>
        <g id="Grupo_55455" data-name="Grupo 55455" transform="translate(78.878 0.235)">
          <path id="Trazado_106471" data-name="Trazado 106471" d="M158.246,81.63l-.116.09v1.491c1.375-.347,2.275-.63,2.493-.694h.116A17,17,0,0,0,158.246,81.63Z" transform="translate(-148.171 -19.008)" fill="#e3e4e3"/>
          <path id="Trazado_106472" data-name="Trazado 106472" d="M219.394,124.5H150.45v4.536h59.4v83.916h-59.4v5.012h68.944Z" transform="translate(-150.36 -6.787)" fill="#58302a"/>
          <path id="Trazado_106473" data-name="Trazado 106473" d="M224.882,125.874a3.1,3.1,0,0,0,0-6.194H150.45v6.194Z" transform="translate(-150.36 -8.161)" fill="#332223"/>
          <path id="Trazado_106474" data-name="Trazado 106474" d="M220.551,197.23h-70.1v3.56h73.712a3.56,3.56,0,0,0-3.611-3.56Z" transform="translate(-150.36 13.947)" fill="#58302a"/>
          <path id="Trazado_106475" data-name="Trazado 106475" d="M232.759,205.973v-1.2a4.729,4.729,0,0,0-4.691-4.768H150.45v10.73h77.619a4.729,4.729,0,0,0,4.691-4.768Z" transform="translate(-150.36 14.739)" fill="#332223"/>
          <path id="Trazado_106476" data-name="Trazado 106476" d="M209.846,128.03h-59.4v11.643h43.371V200.29H150.45v11.656h59.4Z" transform="translate(-150.36 -5.781)" fill="#6d332e"/>
          <rect id="Rectángulo_5827" data-name="Rectángulo 5827" width="43.371" height="60.617" transform="translate(0.09 133.892)" fill="#512c2a"/>
          <path id="Trazado_106477" data-name="Trazado 106477" d="M160.322,93.576V92.085l.116-.09a30.919,30.919,0,0,0,6.772-6.515,29.918,29.918,0,0,0,2.03-6.31,6.682,6.682,0,0,1,1.285-9.381A6.76,6.76,0,0,1,167,63.877a6.567,6.567,0,0,1,.694-2.93,6.747,6.747,0,0,1-2.429-5.14,7.325,7.325,0,0,1,.18-1.529,6.785,6.785,0,0,1-4.228-6.271,6.683,6.683,0,0,1,.578-2.724c-4.151-.167-8.366,1.722-10.718.591-.218-.1-.437-.167-.643-.244V95.041h.193a41.791,41.791,0,0,0,9.689-1.465Z" transform="translate(-150.363 -29.373)" fill="#df914f"/>
          <path id="Trazado_106478" data-name="Trazado 106478" d="M196.45,129.586h3.483c0-11.861-2.275-25.483-6.425-29.184a55.732,55.732,0,0,0-9.574-6.348,6.76,6.76,0,0,1-5.012,2.223,6.837,6.837,0,0,1-6.849-6.849,2.962,2.962,0,0,1,0-.334,6.888,6.888,0,0,1-1.966-2.03c-2.095-.99-4.356-2.018-6.824-3.123l3.5,22.078s-.347.154-.99.36l1.285,8.225-.668.244.925,5.539s-5.423,3.65-15.665,3.65H150.38v5.6h45.98Z" transform="translate(-150.38 -18.35)" fill="#1b1a1e"/>
          <path id="Trazado_106479" data-name="Trazado 106479" d="M160.07,82.322h.116A.206.206,0,0,0,160.07,82.322Z" transform="translate(-147.618 -18.813)" fill="#7ca8b6"/>
          <path id="Trazado_106480" data-name="Trazado 106480" d="M167.349,113.529l-.925-5.539a48.486,48.486,0,0,1-15.768,2.262h-.206v6.875h1.285C161.926,117.178,167.349,113.529,167.349,113.529Z" transform="translate(-150.36 -11.493)" fill="#c9cac9"/>
          <path id="Trazado_106481" data-name="Trazado 106481" d="M166.406,109.879l.668-.244-1.285-8.225a48.653,48.653,0,0,1-15.28,2.159v8.571h.206A48.486,48.486,0,0,0,166.406,109.879Z" transform="translate(-150.343 -13.369)" fill="#d0d2d0"/>
          <path id="Trazado_106482" data-name="Trazado 106482" d="M168.85,56.178a6.67,6.67,0,0,1,4.048,1.606,6.643,6.643,0,0,0,.694-2.93,6.759,6.759,0,0,0-4.228-6.284,1.994,1.994,0,0,1-.193.591,35.651,35.651,0,0,1-.321,7.017Z" transform="translate(-145.115 -28.433)" fill="#bbbab8"/>
          <path id="Trazado_106483" data-name="Trazado 106483" d="M168.929,55.37A29.436,29.436,0,0,0,168,51.99a6.657,6.657,0,0,1-3.264.874,6.837,6.837,0,0,1-2.57-.514,7.325,7.325,0,0,0-.18,1.529,6.747,6.747,0,0,0,2.429,5.14A6.759,6.759,0,0,1,168.929,55.37Z" transform="translate(-147.07 -27.458)" fill="#bbbab8"/>
          <path id="Trazado_106484" data-name="Trazado 106484" d="M169.345,50.371a2.877,2.877,0,0,1,.193-.591,7.416,7.416,0,0,0,.18-1.516,6.7,6.7,0,0,0-1.388-4.074,26.677,26.677,0,0,1,1.015,6.181Z" transform="translate(-145.263 -29.681)" fill="#bbbab8"/>
          <path id="Trazado_106485" data-name="Trazado 106485" d="M168.9,53.916c-2.249-6.76-5.834-8.494-9.484-8.636A6.682,6.682,0,0,0,158.84,48a6.824,6.824,0,0,0,6.8,6.785,6.657,6.657,0,0,0,3.264-.874Z" transform="translate(-147.968 -29.371)" fill="#bbbab8"/>
          <path id="Trazado_106486" data-name="Trazado 106486" d="M169.393,59.777c-.231-1.9-.514-3.585-.848-5.14a6.76,6.76,0,0,0-4.511,3.662,6.567,6.567,0,0,0-.694,2.93,6.76,6.76,0,0,0,3.521,5.911,6.605,6.605,0,0,1,7.4-.565,6.769,6.769,0,0,0-3.842-12.105,48.955,48.955,0,0,1-1.028,5.307Z" transform="translate(-146.685 -26.751)" fill="#bbbab8"/>
          <path id="Trazado_106487" data-name="Trazado 106487" d="M166.667,64.669a6.721,6.721,0,0,0-.064,10.64,6.734,6.734,0,0,1,9-.475,6.772,6.772,0,0,0-8.918-10.165Z" transform="translate(-146.491 -24.253)" fill="#bbbab8"/>
          <path id="Trazado_106488" data-name="Trazado 106488" d="M166.447,73.073a6.747,6.747,0,0,0,.141,9.754,6.772,6.772,0,0,1,3.251-2.159,8.2,8.2,0,0,1-.116-1.285,6.824,6.824,0,0,1,5.8-6.734l-.09-.077a6.734,6.734,0,0,0-9,.475Z" transform="translate(-146.374 -22.017)" fill="#bbbab8"/>
          <path id="Trazado_106489" data-name="Trazado 106489" d="M169.636,86.443V86.3a6.8,6.8,0,0,1,1.735-4.511,6.837,6.837,0,0,1-1.619-3.251A6.772,6.772,0,0,0,166.5,80.7a6.657,6.657,0,0,0-.527,7.9,6.888,6.888,0,0,0,1.953,2.095,6.708,6.708,0,0,1,1.709-4.254Z" transform="translate(-146.235 -19.889)" fill="#bbbab8"/>
          <path id="Trazado_106490" data-name="Trazado 106490" d="M165.768,106.848c.643-.206.99-.36.99-.36l-3.5-22.078-.334-2.12h-.116c-.218.064-1.118.347-2.493.694a41.791,41.791,0,0,1-9.677,1.5h-.193v24.519a48.487,48.487,0,0,0,15.318-2.159Z" transform="translate(-150.36 -18.82)" fill="#efefec"/>
          <path id="Trazado_106491" data-name="Trazado 106491" d="M161.81,48.8c3.65.141,7.235,1.876,9.484,8.636a29.439,29.439,0,0,1,.925,3.38c.334,1.529.617,3.213.848,5.14a48.952,48.952,0,0,0,1.028-5.282,35.648,35.648,0,0,0,.347-7.017,26.679,26.679,0,0,0-1.015-6.181c-2.57-8.584-9.792-14.02-21.319-14.573H150.45V49.143c.206.077.424.141.643.244C153.444,50.518,157.659,48.629,161.81,48.8Z" transform="translate(-150.36 -32.9)" fill="#bbbab8"/>
          <path id="Trazado_106492" data-name="Trazado 106492" d="M175.435,83.409a6.772,6.772,0,0,1-5.14-2.339,6.8,6.8,0,0,0-1.735,4.511v.141a6.772,6.772,0,0,1,5.14-2.313,6.849,6.849,0,0,1,6.837,6.7,6.772,6.772,0,0,0,0-9A6.8,6.8,0,0,1,175.435,83.409Z" transform="translate(-145.197 -19.168)" fill="#bbbab8"/>
          <path id="Trazado_106493" data-name="Trazado 106493" d="M168.58,79.074a8.206,8.206,0,0,0,.116,1.285,6.849,6.849,0,1,0,6.734-8.109,5.757,5.757,0,0,0-1.054.116A6.824,6.824,0,0,0,168.58,79.074Z" transform="translate(-145.192 -21.682)" fill="#bbbab8"/>
          <path id="Trazado_106494" data-name="Trazado 106494" d="M174.072,82.89a6.85,6.85,0,0,0-6.811,6.5,2.955,2.955,0,0,0,0,.334,6.837,6.837,0,0,0,6.849,6.849,6.927,6.927,0,0,0,6.849-6.849v-.141a6.849,6.849,0,0,0-6.888-6.7Z" transform="translate(-145.569 -18.649)" fill="#bbbab8"/>
        </g>
      </g>
      <g id="Grupo_55457" data-name="Grupo 55457" transform="translate(42.793 36.349)">
        <circle id="Elipse_4143" data-name="Elipse 4143" cx="3.47" cy="3.47" r="3.47" transform="translate(63.599 33.225)" fill="#8c0404"/>
        <path id="Trazado_106495" data-name="Trazado 106495" d="M108.361,35.449h-4.523v-3.47a3.483,3.483,0,1,0-6.952,0v3.47H81.079v-3.47a3.483,3.483,0,1,0-6.952,0v3.47H58.488v-3.47a3.483,3.483,0,1,0-6.952,0v3.47H47.192A13.917,13.917,0,0,0,33.3,49.354v54.2A13.9,13.9,0,0,0,47.192,117.45H73.78a3.47,3.47,0,0,0,0-6.939H47.192a6.952,6.952,0,0,1-6.939-6.952v-54.2A6.952,6.952,0,0,1,47.192,42.4h4.344V45.91a3.483,3.483,0,1,0,6.952,0V42.44H74.127v3.47a3.483,3.483,0,1,0,6.952,0V42.44H96.886v3.47a3.483,3.483,0,1,0,6.952,0V42.44h4.523a6.952,6.952,0,0,1,6.939,6.952V69.157a3.483,3.483,0,0,0,6.952,0v-19.8a13.917,13.917,0,0,0-13.892-13.9Z" transform="translate(-33.3 -28.285)" fill="#8c0404"/>
        <path id="Trazado_106496" data-name="Trazado 106496" d="M90.824,65a21.024,21.024,0,1,0,21.024,21.024A21.024,21.024,0,0,0,90.824,65Zm0,35.1a14.112,14.112,0,1,0,0-.051Z" transform="translate(-22.895 -17.819)" fill="#8c0404"/>
        <path id="Trazado_106497" data-name="Trazado 106497" d="M91.967,80.145H90.412V76.5a3.483,3.483,0,0,0-6.952,0v7.132a3.47,3.47,0,0,0,3.47,3.47h5.038a3.483,3.483,0,1,0,0-6.952Z" transform="translate(-19 -15.474)" fill="#8c0404"/>
        <circle id="Elipse_4144" data-name="Elipse 4144" cx="3.47" cy="3.47" r="3.47" transform="translate(48.473 33.225)" fill="#8c0404"/>
        <circle id="Elipse_4145" data-name="Elipse 4145" cx="3.47" cy="3.47" r="3.47" transform="translate(33.361 48.351)" fill="#8c0404"/>
        <circle id="Elipse_4146" data-name="Elipse 4146" cx="3.47" cy="3.47" r="3.47" transform="translate(18.248 33.225)" fill="#8c0404"/>
        <circle id="Elipse_4147" data-name="Elipse 4147" cx="3.47" cy="3.47" r="3.47" transform="translate(18.248 48.351)" fill="#8c0404"/>
        <circle id="Elipse_4148" data-name="Elipse 4148" cx="3.47" cy="3.47" r="3.47" transform="translate(18.248 63.463)" fill="#8c0404"/>
        <circle id="Elipse_4149" data-name="Elipse 4149" cx="3.47" cy="3.47" r="3.47" transform="translate(33.361 63.463)" fill="#8c0404"/>
        <circle id="Elipse_4150" data-name="Elipse 4150" cx="3.47" cy="3.47" r="3.47" transform="translate(33.361 33.225)" fill="#8c0404"/>
      </g>
    </g>
  </g>
</svg>
