<svg xmlns="http://www.w3.org/2000/svg" width="110" height="110" viewBox="0 0 110 110">
  <g id="Grupo_55718" data-name="Grupo 55718" transform="translate(-748 -1334)">
    <g id="CF1_cita_1" data-name="CF1_cita 1" transform="translate(748 1334.399)">
      <rect id="Rectángulo_5142" data-name="Rectángulo 5142" width="110" height="110" transform="translate(0 -0.399)" fill="none"/>
      <g id="Grupo_53758" data-name="Grupo 53758" transform="translate(4.49 3.72)">
        <circle id="Elipse_4052" data-name="Elipse 4052" cx="42.61" cy="42.61" r="42.61" transform="translate(10.04 9.93)" fill="#eef0e3"/>
        <path id="Trazado_100469" data-name="Trazado 100469" d="M57.07,104.69a48.43,48.43,0,1,0,0-96.86,5.82,5.82,0,0,0,0,11.64,36.8,36.8,0,1,1,.02,73.59,5.82,5.82,0,1,0,0,11.63Z" transform="translate(-4.49 -3.72)" fill="#d5d9ba"/>
        <path id="Trazado_100470" data-name="Trazado 100470" d="M6.16,50.42A51.483,51.483,0,1,0,108.51,61.67a3.652,3.652,0,0,0-7.26-.8,44.19,44.19,0,0,1-43.86,39.36,44.753,44.753,0,0,1-4.88-.27A44.19,44.19,0,0,1,13.15,56.1a42.378,42.378,0,0,1,.27-4.88,3.652,3.652,0,1,0-7.26-.8Z" transform="translate(-4.49 -3.72)" fill="#9b6771"/>
        <path id="Trazado_100471" data-name="Trazado 100471" d="M57.14,3.73A52.6,52.6,0,0,0,4.49,56.37a5.33,5.33,0,0,0,10.65,0,41.92,41.92,0,0,1,42-42,5.33,5.33,0,0,0,0-10.65Z" transform="translate(-4.49 -3.72)" fill="#ab9ba4"/>
        <path id="Trazado_100472" data-name="Trazado 100472" d="M11.06,55.86a46.25,46.25,0,0,0,46.29,46.29,2.76,2.76,0,1,0,0-5.52A40.75,40.75,0,0,1,16.58,55.86a2.76,2.76,0,0,0-5.52,0Z" transform="translate(-4.49 -3.72)" fill="#b3b4aa"/>
      </g>
      <g id="Grupo_53759" data-name="Grupo 53759" transform="translate(30 20.372)">
        <path id="Trazado_100473" data-name="Trazado 100473" d="M83,81.72H30a37.17,37.17,0,0,1,.4-4,15.19,15.19,0,0,1,9-11.21.72.72,0,0,0,.47-.79q0-14,0-27.91A16.64,16.64,0,0,1,73,34.93,20.161,20.161,0,0,1,73.19,38V65.6a.87.87,0,0,0,.61.94A15.51,15.51,0,0,1,83,81.72ZM61.18,35.12A27.21,27.21,0,0,1,45.9,39.63a50.758,50.758,0,0,0,0,6c.82,6.42,4.29,10.84,10.2,13.37a1.32,1.32,0,0,0,.9,0A16,16,0,0,0,67,47.26c.59-2.54.3-5.12.34-7.69,0-.14-.21-.34-.38-.42-.79-.37-1.62-.66-2.39-1.06a10.68,10.68,0,0,1-3.39-2.97Zm10,2.53a14.22,14.22,0,0,0-6.93-12.47,14.07,14.07,0,0,0-15.86.32c-4.29,2.81-6.36,7-6.54,12.16a47.83,47.83,0,0,0,9.22-.47,26,26,0,0,0,10.67-4.86,9.42,9.42,0,0,0,9.44,5.32ZM41.87,79.71c.11,0,.14.07.18.07h9.42a.61.61,0,0,0,.43-.4c.5-2.35,1-4.71,1.42-7.07a1,1,0,0,0-.24-.74c-1.75-2-3.53-3.9-5.28-5.86a.62.62,0,0,0-.83-.18c-2.06.87-4.14,1.71-6.21,2.55a13.63,13.63,0,0,0-7,6.12,13,13,0,0,0-1.63,5.56h7.79V74h1.94Zm0-14.2c2.8-1.16,5.56-2.27,8.27-3.46a2.69,2.69,0,0,0,1.49-2.38,1.32,1.32,0,0,0-.6-1.32,17.26,17.26,0,0,1-7-11.66c-.29-2.08-.19-4.23-.27-6.34v-.69H41.9ZM69.29,39.64v3.15a20.56,20.56,0,0,1-.6,5.69,18,18,0,0,1-6.8,10,1.11,1.11,0,0,0-.42.6,3,3,0,0,0,1.94,3.19l4.35,1.79,3.45,1.4V39.64Zm3.23,28.47a2.555,2.555,0,0,0,.09.61c.46,2.06.88,4.14,1.41,6.19a2.06,2.06,0,0,1-.49,2.15c-.76.82-1.42,1.75-2.17,2.68H81a13.79,13.79,0,0,0-8.48-11.63ZM68,66.29c-.61,2-1.18,3.91-1.75,5.82a6.46,6.46,0,0,0-.67,2.56c.12.83.89,1.56,1.39,2.32.6.92,1.22,1.83,1.86,2.78C69.91,78.42,71,77.14,72,75.83a.84.84,0,0,0,.09-.61c-.54-2.53-1.11-5.06-1.68-7.58a.8.8,0,0,0-.35-.5C69.38,66.84,68.71,66.59,68,66.29Zm-1.52,13.5c-1-1.5-1.9-2.88-2.83-4.24a1.09,1.09,0,0,1-.17-1.06c.87-2.83,1.71-5.66,2.54-8.49a3.162,3.162,0,0,0-.1-.56c-.17.06-.39.07-.5.19-1.83,2-3.66,4-5.47,6a.85.85,0,0,0-.18.59q.7,3.6,1.45,7.19a.52.52,0,0,0,.37.34C63.18,79.79,64.76,79.79,66.48,79.79Zm-8.41-6.05-1.52,1.59-1.5-1.6-1.2,6h5.42Zm-1.51-9c1.11-1,2.18-1.86,3.24-2.78a.5.5,0,0,0,.15-.41c-.13-.5-.31-1-.48-1.5-.83.33-1.64.68-2.48,1a1.44,1.44,0,0,1-.87,0c-.83-.29-1.65-.65-2.47-1-.17.51-.35,1-.49,1.51a.48.48,0,0,0,.16.4c1.05.95,2.12,1.86,3.24,2.82Zm-7.14-.19,4,4.41,1.83-2.75L51.9,63.34ZM59.69,69l4-4.42L61.2,63.37l-3.35,2.87Zm-3.13,3.44c.55-.61,1.06-1.16,1.55-1.72a.45.45,0,0,0,.08-.41c-.51-.82-1-1.61-1.63-2.48l-.9,1.34-.87,1.33Z" transform="translate(-30 -20.372)" fill="#2c041c"/>
        <path id="Trazado_100474" data-name="Trazado 100474" d="M52.66,51.4h1.69A9.09,9.09,0,0,0,55.47,53a1.9,1.9,0,0,0,1.19.35c1,0,1.62-.68,1.9-1.93h1.86a3.85,3.85,0,0,1-3.68,3.91,3.91,3.91,0,0,1-4.08-3.93Z" transform="translate(-30 -20.372)" fill="#2c041c"/>
        <path id="Trazado_100475" data-name="Trazado 100475" d="M50.68,42.57a1,1,0,1,1-1,1A1,1,0,0,1,50.68,42.57Z" transform="translate(-30 -20.372)" fill="#2c041c"/>
        <path id="Trazado_100476" data-name="Trazado 100476" d="M63.41,43.51a.975.975,0,1,1-1.01-.94A1,1,0,0,1,63.41,43.51Z" transform="translate(-30 -20.372)" fill="#2c041c"/>
        <path id="Trazado_100477" data-name="Trazado 100477" d="M56.53,24.91v1.95a11,11,0,0,0-9.32,5.4l-1.5-.87c-.05,0-.08-.09-.15-.17A12.9,12.9,0,0,1,56.53,24.91Z" transform="translate(-30 -20.372)" fill="#2c041c"/>
        <path id="Trazado_100478" data-name="Trazado 100478" d="M44.52,33.41l1.85.66-.47,1.78L44,35.54Z" transform="translate(-30 -20.372)" fill="#2c041c"/>
      </g>
    </g>
  </g>
</svg>
