<svg xmlns="http://www.w3.org/2000/svg" width="251.14" height="250" viewBox="0 0 251.14 250">
  <g id="Grupo_55726" data-name="Grupo 55726" transform="translate(-433.86 -5234)">
    <g id="Layer_1" data-name="Layer 1" transform="translate(434.41 5234)">
      <g id="Grupo_54770" data-name="Grupo 54770">
        <circle id="Elipse_4114" data-name="Elipse 4114" cx="94.19" cy="94.19" r="94.19" transform="translate(30.81 30.81)" fill="#bd9aa0"/>
        <path id="Trazado_105403" data-name="Trazado 105403" d="M194.05,125A69,69,0,0,1,125,194.05a12.5,12.5,0,1,0,0,25A94,94,0,0,0,219.05,125a12.5,12.5,0,1,0-25,0Z" fill="#9b6771"/>
        <path id="Trazado_105404" data-name="Trazado 105404" d="M55.81,124.86a69,69,0,0,1,69.05-69,12.5,12.5,0,0,0,0-25,94,94,0,0,0-94,94.05,12.5,12.5,0,0,0,25,0Z" fill="#deccd0"/>
      </g>
      <rect id="Rectángulo_5710" data-name="Rectángulo 5710" width="250" height="250" fill="none"/>
      <g id="Grupo_54773" data-name="Grupo 54773">
        <path id="Trazado_105405" data-name="Trazado 105405" d="M203.09,220.11l8.75-.97-8.75-78.87V23.02h-13l-.38-3.39-30.56,3.39H50.61V35.06L38.16,36.44,50.61,148.69v75.06h8.33l1.35,12.2,109.95-12.2h32.85Z" opacity="0.36"/>
        <path id="Trazado_105406" data-name="Trazado 105406" d="M184.83,117.12l1.16,4.67-9,2.33.69,2.67-4.47,1.37a7.71,7.71,0,0,1-6.35-.82L146.08,114.4a10.9,10.9,0,0,0-9.35-1.05l-11.29,3.93-7.9-1.69a8.72,8.72,0,0,0-7,1.5L92.39,130.52a5,5,0,0,1-4.64.68l-7.2-2.59.6-2.32-9-2.33,1.15-4.67L-.55,101v55l61,15.1.14-.58h0l1.69-6.84,8.66,2.23L72.2,161l17,7h0l.78.33h0l7.57-7.8-7.76,8.07c-4.27,4.43-.61,11.94,5.48,11.06a12.46,12.46,0,0,0,3.46-1.08s1.12,9.35,11,8.61c0,0,1.34,9.45,12.23,7.14h0s.11.19.33.49a.856.856,0,0,1,.07.1,7.38,7.38,0,0,0,6.1,2.77h0a10,10,0,0,0,1.48-.15h.14a17.12,17.12,0,0,0,5.7-2.3l2.06,2.07a6.8,6.8,0,0,0,9.72.33l.09-.09a7.08,7.08,0,0,0-.42-9.88l.51.52a6.34,6.34,0,0,0,9.06,0l1.13-1.16a6.57,6.57,0,0,0,1.77-5.59,7.19,7.19,0,0,0,5.78-2.17l.11-.1a7.5,7.5,0,0,0,1.25-8.67,6.29,6.29,0,0,0,5.9-1.77,6.53,6.53,0,0,0,1.83-5.09l11.64-3.63,1,3.78,8.66-2.23,1.7,6.84h0l.15.59,52.87-13.1v-55Z" opacity="0.36"/>
        <rect id="Rectángulo_5711" data-name="Rectángulo 5711" width="152.48" height="200.73" transform="translate(37.644 30.848) rotate(-6.33)" fill="#ede2d9"/>
        <path id="Trazado_105407" data-name="Trazado 105407" d="M108.3,23,50.08,29.46V143.1l8.94,80.64h60.37l83.17-9.23V134.67L190.17,23Z" fill="#b7ac9a" opacity="0.66"/>
        <rect id="Rectángulo_5712" data-name="Rectángulo 5712" width="152.48" height="200.73" transform="translate(50.09 17.44)" fill="#fff"/>
        <line id="Línea_151" data-name="Línea 151" x2="27.8" transform="translate(156.67 192.46)" fill="none" stroke="#b9c9bc" stroke-miterlimit="10" stroke-width="7"/>
        <line id="Línea_152" data-name="Línea 152" x2="27.8" transform="translate(156.67 184.09)" fill="none" stroke="#b9c9bc" stroke-miterlimit="10" stroke-width="7"/>
        <path id="Trazado_105408" data-name="Trazado 105408" d="M107.51,190.71a20.65,20.65,0,1,1-12.94-26.18,20.65,20.65,0,0,1,12.94,26.18Zm-38.28-13a15.578,15.578,0,1,1,0,.05Z" fill="#4893c1"/>
        <path id="Trazado_105409" data-name="Trazado 105409" d="M104.87,189.82a17.84,17.84,0,0,1-6.09,8.48l-.59-.77a16.92,16.92,0,0,0,6-18.29l.92-.28A17.82,17.82,0,0,1,104.87,189.82Z" fill="#4893c1"/>
        <path id="Trazado_105410" data-name="Trazado 105410" d="M71.76,188.94l-.92.28a17.86,17.86,0,0,1,6.28-19.33l.59.76a16.94,16.94,0,0,0-5.95,18.29Z" fill="#4893c1"/>
        <path id="Trazado_105411" data-name="Trazado 105411" d="M102.32,188.77A14.88,14.88,0,1,1,93,169.91a14.88,14.88,0,0,1,9.32,18.86ZM75,179.54a13.92,13.92,0,1,0,17.65-8.72A13.92,13.92,0,0,0,75,179.54Z" fill="#4893c1"/>
        <line id="Línea_153" data-name="Línea 153" x2="117.08" transform="translate(67.79 125.6)" fill="none" stroke="#b9c9bc" stroke-miterlimit="10" stroke-width="7"/>
        <g id="Grupo_54771" data-name="Grupo 54771">
          <path id="Trazado_105412" data-name="Trazado 105412" d="M67.71,87.44H184.78v-2H67.71" fill="#b9c9bc"/>
          <path id="Trazado_105413" data-name="Trazado 105413" d="M67.71,103.32H184.78v-2H67.71" fill="#b9c9bc"/>
          <path id="Trazado_105414" data-name="Trazado 105414" d="M67.71,94.95H184.78v-2H67.71" fill="#b9c9bc"/>
          <path id="Trazado_105415" data-name="Trazado 105415" d="M67.79,110.72H184.87v-2H67.79" fill="#b9c9bc"/>
          <path id="Trazado_105416" data-name="Trazado 105416" d="M67.79,118.23H184.87v-2H67.79" fill="#b9c9bc"/>
        </g>
        <circle id="Elipse_4115" data-name="Elipse 4115" cx="11.63" cy="11.63" r="11.63" transform="translate(76.32 172.46)" fill="#4893c1"/>
        <g id="Grupo_54772" data-name="Grupo 54772">
          <path id="Trazado_105417" data-name="Trazado 105417" d="M189.9,186.12a31.7,31.7,0,0,1-7.83,5.18,8.689,8.689,0,0,1-2.07.7,1.64,1.64,0,0,1-2.11-1c-.43-1,0-2.12-.13-3.28,0-.16-.11-.46-.32-.47-.84-.06-1.62.85-2.22,1.37a15.813,15.813,0,0,0-1.29,1.25,5.48,5.48,0,0,0-.14-3.51c-.05-.11-.18-.25-.31-.17a22.319,22.319,0,0,0-4.71,4.5c-.34.38-.66.76-1,1.14a2,2,0,0,0-.08-.37,5.16,5.16,0,0,0,1-1.06,4.15,4.15,0,0,0,.57-3.93c-.92-1.78-2.86-.62-3.92.4-.29.28-.1,1.53.33,1.12s1.56-1.48,2.23-1.19l.89,1.56-.27.67a3.8,3.8,0,0,1-1,1.14,4.909,4.909,0,0,1-1,.67,2.429,2.429,0,0,0-.39.12h-.08a1,1,0,0,1-.34,0c-1.2-.07-.87-1.81-.56-2.7.06-.2-.11-1.36-.45-.88a14.431,14.431,0,0,1-1.26,1.68c-.59.62-1.64,1.86-2.53,2.06-.38.09-.85.09-1-.53a3.09,3.09,0,0,1,.31-.88,16.47,16.47,0,0,0,.89-2.37c.06-.25.1-.92-.28-1-1-.13-2.35.62-3.3.92-.78.25-1.55.53-2.3.83a6.972,6.972,0,0,1,.05-1c0-2.59-.7-5.56.16-8.06a4,4,0,0,1,2.85-2.48c.68-.22,2.75-.77,3.65-.22.05.22.15.38.3.35h.13c.46-.08.35-.94.16-1.2-.72-1-2.91-.55-3.88-.3a5,5,0,0,0-3.42,2.37c-1.67,3.31-.31,7.22-.7,10.81l-.88.41a27.07,27.07,0,0,0-6.18,4.09c-1.05,1-2.29,2.53-1.84,4.09s2.25,1.25,3.47.76c3.32-1.32,5.28-4.78,5.93-8.24.78-.33,1.57-.63,2.39-.89a22.083,22.083,0,0,1,2.75-.93c-.64,1.48-1.71,3.66-.72,4.71s3.12-.9,4.44-2.49a2.07,2.07,0,0,0,.65,2.13,2,2,0,0,0,2.05,0c.29,0,.43.19.47.52q-1.49,1.78-2.82,3.69a25.22,25.22,0,0,0-3.13,5.36c-.29.73-.86,2-.43,2.77,1.06,1.93,5.36-6.15,5.75-7.06a21,21,0,0,0,1.2-4c.59-.7,1.18-1.39,1.8-2.07a38.789,38.789,0,0,1,3.18-3.23c1.2-1,.75.63.54,1.42a8.75,8.75,0,0,1-.94,2.39c-.22.33,0,1.56.32,1.11a15.178,15.178,0,0,1,2.15-2.58c.53-.52,1.54-1.73,2.42-1.92,0,1.13-.54,2.27,0,3.38.6,1.33,2.05,1.51,3.34,1.21,3.68-.85,6.94-3.55,9.75-5.93C190.53,187,190.35,185.73,189.9,186.12Zm-35.62,4a10.46,10.46,0,0,1-4,5.82,5.25,5.25,0,0,1-2.94,1.06c-2-.27,0-2.37.54-2.89a25.76,25.76,0,0,1,6-4c.14-.08.29-.14.43-.21s-.02.17-.03.23Zm11.64,6.63a26,26,0,0,1-2.44,4.33,15.109,15.109,0,0,1-1.61,2c-.52.53-.64.71-.42,0a17,17,0,0,1,2.21-4.24q1.46-2.17,3.08-4.22a22.659,22.659,0,0,1-.82,2.14Z" fill="#001d4f"/>
          <path id="Trazado_105418" data-name="Trazado 105418" d="M160.9,183.39a1.7,1.7,0,0,0,.48,2.1c.37.34.54-.72.28-1a2,2,0,0,1-.38-.39s.1-.09.12-.1a3.081,3.081,0,0,0,.33-.3,3.32,3.32,0,0,1,1.14-.65c.4-.09.33-1.18,0-1.1a3.35,3.35,0,0,0-1.97,1.44Z" fill="#001d4f"/>
        </g>
        <path id="Trazado_105419" data-name="Trazado 105419" d="M202.57,113.28l-17.74,4.39,1.16,4.67-9,2.33.69,2.67-4.47,1.38a7.75,7.75,0,0,1-6.35-.83L146.08,115a10.9,10.9,0,0,0-9.35-1l-11.29,3.92-7.9-1.69a8.69,8.69,0,0,0-7,1.51L92.39,131.07a5,5,0,0,1-4.64.68l-7.2-2.59.6-2.32-9-2.33,1.15-4.67L50.09,114.1v55l10.33,2.56.14-.59h0l1.69-6.84,8.66,2.23,1.27-4.9,17,7h0l.78.32h0l7.57-7.81-7.76,8.07c-4.27,4.43-.61,11.94,5.48,11.06a12.46,12.46,0,0,0,3.46-1.08s1.12,9.35,11,8.61c0,0,1.34,9.45,12.23,7.14h0s.11.19.33.49a.86.86,0,0,1,.07.1,7.38,7.38,0,0,0,6.1,2.77h0a11.492,11.492,0,0,0,1.48-.14h.14a17.12,17.12,0,0,0,5.7-2.3l2.06,2.08a6.82,6.82,0,0,0,9.72.33l.09-.1a7.07,7.07,0,0,0-.42-9.87l.51.51a6.33,6.33,0,0,0,9.06,0l1.13-1.16a6.57,6.57,0,0,0,1.77-5.59,7.18,7.18,0,0,0,5.78-2.16l.11-.11a7.49,7.49,0,0,0,1.25-8.66,6.32,6.32,0,0,0,5.9-1.78,6.53,6.53,0,0,0,1.83-5.09l11.64-3.63,1,3.79,8.66-2.24,1.7,6.84h0l.15.59,8.45-2.65Z" fill="#6d645b" opacity="0.4"/>
        <path id="Trazado_105420" data-name="Trazado 105420" d="M123.94,126.21,88,163.6c-4.26,4.44-.6,11.94,5.49,11.06a12.51,12.51,0,0,0,3.45-1.08s1.13,9.35,11,8.61c0,0,1.34,9.45,12.23,7.14,0,0,5.28,9.77,20.21-4,7.37-6.8,31.75-26.53,31.75-26.53Z" fill="#e67e4b"/>
        <path id="Trazado_105421" data-name="Trazado 105421" d="M227,104.58,173.17,121.1a7.71,7.71,0,0,1-6.35-.82l-20.74-12.94a10.9,10.9,0,0,0-9.35-1l-23.18,8.07,12.19,9.78L89.8,161.53c-4.27,4.43-.61,11.94,5.48,11.06a12.46,12.46,0,0,0,3.46-1.08s1.12,9.35,11,8.61c0,0,1.34,9.45,12.23,7.14,0,0,5.28,9.77,20.22-4,7.37-6.8,31.74-26.53,31.74-26.53l62.56-19.54Z" fill="#ffa97d"/>
        <path id="Trazado_105422" data-name="Trazado 105422" d="M153.56,138c4.94-2.3,4.1-6.55,2.1-8.1l-15.07-12a13.32,13.32,0,0,0-5.53-2.61L120,112l-6.1,2.13,12.2,9.78-9.89,10.28a44.05,44.05,0,0,0,14.75-3.4S143,142.92,153.56,138Z" fill="#ea8f68"/>
        <path id="Trazado_105423" data-name="Trazado 105423" d="M158.24,127.45l-15.07-12a13.44,13.44,0,0,0-5.53-2.61l-20.1-4.31a8.72,8.72,0,0,0-7,1.5L92.39,123.46a5,5,0,0,1-4.64.68L60.41,114.3,57.72,148,90,161.27l28.56-29.45s8.31-.29,15-3.42c0,0,12,12.1,22.58,7.16C161.08,133.26,160.24,129,158.24,127.45Z" fill="#ffc692"/>
        <path id="Trazado_105424" data-name="Trazado 105424" d="M153,135.1c-8.5.08-18.6-10.11-18.85-10.17,0,0-7.34,6.93-20.67,3.74,0,0-2.17,7.86-14.57,22a8.35,8.35,0,0,1-9.34,2.25c-1.24-.48-2.62-1-4.1-1.5a8.55,8.55,0,0,1-5.71-8.36l.75-21.53c-9.5-3.3-22.28,20-22,15.53L57.72,148l31.46,13h0l.78.32h0l5.21-5.4,23.32-24.05s8.31-.29,15-3.42c-.06,0,11.83,12.06,22.58,7.16a6.09,6.09,0,0,0,3.38-3.19C158.83,133.63,156.57,135.06,153,135.1Z" fill="#de7540"/>
        <path id="Trazado_105425" data-name="Trazado 105425" d="M131.62,187.26c-9.07-8.82-7.09-14.35-7.09-14.35l48-22.74h.07a7.94,7.94,0,0,0,6.2-8.17l-1.18-22.26L236.1,136.1l.32,1.09-62.56,19.54s-24.37,19.73-31.74,26.53c-14.94,13.78-20.22,4-20.22,4S126.08,191.72,131.62,187.26Z" fill="#e67e4b"/>
        <path id="Trazado_105426" data-name="Trazado 105426" d="M98.39,173.4l22.8-21.34c.66-.62-.33-1.6-1-1Q108.8,161.74,97.4,172.4c-.66.62.33,1.6,1,1Z" fill="#e67e4b"/>
        <path id="Trazado_105427" data-name="Trazado 105427" d="M109.35,182l21.93-21.23c.65-.62-.34-1.61-1-1L108.36,181c-.64.63.34,1.61,1,1Z" fill="#e67e4b"/>
        <path id="Trazado_105428" data-name="Trazado 105428" d="M121.58,189.15,141,170.4c.65-.63-.34-1.61-1-1l-19.4,18.75c-.65.63.34,1.61,1,1Z" fill="#e67e4b"/>
        <path id="Trazado_105429" data-name="Trazado 105429" d="M126.28,169.17l.1-.09a6.8,6.8,0,0,1,9.72.33l-.52-.52a6.58,6.58,0,0,1-.05-9.21l1.12-1.16a6.33,6.33,0,0,1,5.49-1.86,7.43,7.43,0,0,1,2.07-5.9l.1-.1a7.19,7.19,0,0,1,10.28-.06l1.35,1.37a6.59,6.59,0,0,1,1.79-5.45,6.33,6.33,0,0,1,9.06-.05l5.89,5.92a6.59,6.59,0,0,1,0,9.21,6.32,6.32,0,0,1-5.9,1.78,7.49,7.49,0,0,1-1.25,8.66l-.11.1a7.15,7.15,0,0,1-5.78,2.17,6.57,6.57,0,0,1-1.77,5.59l-1.13,1.16a6.34,6.34,0,0,1-9.06,0L141.65,175l5.56,5.59a7.08,7.08,0,0,1,.42,9.88l-.09.1a6.81,6.81,0,0,1-9.72-.34l-11.11-11.17A7.1,7.1,0,0,1,126.28,169.17Z" fill="#de7540"/>
        <path id="Trazado_105430" data-name="Trazado 105430" d="M239.76,143.1l-52.6,13.56-10.21-39.6,67.04-17.29Z" fill="#fff"/>
        <rect id="Rectángulo_5713" data-name="Rectángulo 5713" width="40.9" height="69.24" transform="matrix(0.25, -0.968, 0.968, 0.25, 3.887, 141.533)" fill="#fff"/>
        <path id="Trazado_105431" data-name="Trazado 105431" d="M148.22,180.33l-12.15-12.22a.707.707,0,0,0-1,1l12.15,12.22C147.85,181.97,148.84,180.98,148.22,180.33Z" fill="#de7540"/>
        <path id="Trazado_105432" data-name="Trazado 105432" d="M18.3,145.32l52.6,13.56,1.23-41.93L5.97,132.68Z" fill="#869e9a" opacity="0.4"/>
        <path id="Trazado_105433" data-name="Trazado 105433" d="M-.55,93.95V148.3l61.13,15.14,12.68-51.21Z" fill="#7a3541"/>
        <path id="Trazado_105434" data-name="Trazado 105434" d="M239.82,143.1l-52.59,13.56-1.24-41.93L231.7,125.6Z" fill="#869e9a" opacity="0.4"/>
        <path id="Trazado_105435" data-name="Trazado 105435" d="M-.55,137.43v11.49l60.97,15.11,2.68-10.84Z" fill="#590212"/>
        <path id="Trazado_105436" data-name="Trazado 105436" d="M250.55,93.78l-65.72,16.28,12.69,51.21,53.03-13.13Z" fill="#546982"/>
        <path id="Trazado_105437" data-name="Trazado 105437" d="M250.55,137.26l-55.56,13.76,2.69,10.84,52.87-13.1Z" fill="#384559"/>
        <path id="Trazado_105438" data-name="Trazado 105438" d="M126.63,177.47l10.12,9.83c2.36,2.29,6.56,2.53,8.88,0a6.37,6.37,0,0,0,0-8.87L135.5,168.6c-2.36-2.29-6.56-2.53-8.87,0a6.36,6.36,0,0,0,0,8.87Z" fill="#ffc692"/>
        <path id="Trazado_105439" data-name="Trazado 105439" d="M135.36,167l10.46,9.48c2.35,2.13,6.29,2.49,8.58,0,2.14-2.33,2.52-6.31,0-8.58l-10.46-9.48c-2.35-2.13-6.29-2.49-8.58,0C133.23,160.75,132.85,164.73,135.36,167Z" fill="#ffc692"/>
        <path id="Trazado_105440" data-name="Trazado 105440" d="M145.37,158.32l10.46,9.47c2.43,2.2,6.5,2.58,8.88,0,2.2-2.4,2.59-6.52,0-8.88l-10.47-9.47c-2.43-2.21-6.5-2.58-8.87,0-2.21,2.4-2.6,6.52,0,8.88Z" fill="#ffc692"/>
        <path id="Trazado_105441" data-name="Trazado 105441" d="M159,151.78l7.7,6.92c1.79,1.61,4.77,1.9,6.51,0a4.554,4.554,0,0,0,0-6.51l-7.7-6.92a4.68,4.68,0,0,0-6.51,0C157.39,147.02,157.09,150.06,159,151.78Z" fill="#ffc692"/>
        <path id="Trazado_105442" data-name="Trazado 105442" d="M84.36,191.1a8.37,8.37,0,0,1-3.65-3.77c-.56-1.14-2.26-.14-1.7,1a10.08,10.08,0,0,0,4.35,4.48c1.12.6,2.12-1.11,1-1.7Z" fill="#fff"/>
        <path id="Trazado_105443" data-name="Trazado 105443" d="M90.44,191.54a8.5,8.5,0,0,1-2.51.4,1,1,0,1,0,0,2,10.839,10.839,0,0,0,3-.48c1.2-.38.69-2.28-.53-1.9Z" fill="#fff"/>
        <path id="Trazado_105444" data-name="Trazado 105444" d="M92.05,177.21a8.09,8.09,0,0,1,3.68,8.33c-.22,1.24,1.68,1.77,1.9.52A10.13,10.13,0,0,0,93,175.51c-1.07-.69-2.06,1-1,1.7Z" fill="#fff"/>
        <path id="Trazado_105445" data-name="Trazado 105445" d="M84.73,176.72a8.8,8.8,0,0,1,3.2-.66,1,1,0,1,0,0-2,10.31,10.31,0,0,0-3.72.73.985.985,0,0,0,.52,1.9Z" fill="#fff"/>
        <path id="Trazado_105446" data-name="Trazado 105446" d="M80,183.18A8.4,8.4,0,0,1,81.74,179c.77-1-.95-2-1.7-1a10.28,10.28,0,0,0-2,5.16c-.13,1.27,1.84,1.26,2,0Z" fill="#fff"/>
      </g>
    </g>
  </g>
</svg>
