<svg xmlns="http://www.w3.org/2000/svg" width="322" height="321" viewBox="0 0 322 321">
  <g id="Grupo_55734" data-name="Grupo 55734" transform="translate(-265 -2914)">
    <g id="Layer_1" data-name="Layer 1" transform="translate(265.361 2913.73)">
      <g id="Grupo_55458" data-name="Grupo 55458" transform="translate(39.593 39.593)">
        <circle id="Elipse_4151" data-name="Elipse 4151" cx="121.042" cy="121.042" r="121.042" fill="#deccd0"/>
        <path id="Trazado_106498" data-name="Trazado 106498" d="M222.374,128.563A88.735,88.735,0,0,1,133.7,217.3a16.063,16.063,0,1,0,0,32.127A120.8,120.8,0,0,0,254.5,128.563a16.063,16.063,0,0,0-32.127,0Z" transform="translate(-6.057 -7.522)" fill="#bd9aa0"/>
        <path id="Trazado_106499" data-name="Trazado 106499" d="M62.923,151.657a88.67,88.67,0,0,1,88.735-88.67,16.063,16.063,0,0,0,0-32.127A120.8,120.8,0,0,0,30.86,151.722a16.063,16.063,0,1,0,32.127,0Z" transform="translate(-30.796 -30.796)" fill="#f2ebec"/>
      </g>
      <rect id="Rectángulo_5828" data-name="Rectángulo 5828" width="322" height="321" transform="translate(-0.361 0.269)" fill="none"/>
      <g id="Grupo_55466" data-name="Grupo 55466" transform="translate(56.98 24.383)">
        <g id="Grupo_55462" data-name="Grupo 55462">
          <path id="Trazado_106500" data-name="Trazado 106500" d="M168.721,108.949c-2.737-2.416-9.355-7.71-32.127-17.657v-8.16a34.44,34.44,0,0,0,7.852-7.543,41.494,41.494,0,0,0,2.8-9.253,8.841,8.841,0,0,0,3.02-4.446c.951-2.943.591-5.783-.784-6.952,1.285-10.5,1.054-27.089-8.6-29.338-11.707-9.214-29.775-3.714-35.224,3.971-4.883,6.849-5.038,16.256-4.138,25.059-1.735.9-2.287,4.022-1.285,7.261a8.713,8.713,0,0,0,3.187,4.562,40.968,40.968,0,0,0,2.75,9.137,34.877,34.877,0,0,0,7.839,7.518v8.16c-13.969,6.181-21.923,10.576-26.588,13.6l-.681.437-1.285.848a43.346,43.346,0,0,0-3.585,2.8c-4.228,3.752-6.58,17.734-9.086,29.557H177.755C175.3,126.683,172.962,112.7,168.721,108.949Z" transform="translate(-36.23 -18.459)" fill="#f5b16d" fill-rule="evenodd"/>
          <path id="Trazado_106501" data-name="Trazado 106501" d="M114.35,70.7C88.185,82.176,80.334,88.293,77.224,91.03c-4.78,4.241-7,20.3-7,33.412H182.51c0-13.57-2.57-29.158-7.363-33.412-3.123-2.737-11.656-8.854-37.82-20.33L126.365,88.82Z" transform="translate(-36.962 -4.228)" fill="#1b1a1e" fill-rule="evenodd"/>
          <path id="Trazado_106502" data-name="Trazado 106502" d="M102.226,36.819c6.323,4.266,11.206-2.095,16.9.63s21.127-10.409,24.494,18.441C149,34.981,140.83,20.01,120.268,19.02,98.293,17.967,89.426,34.865,95.5,55.658,96.944,44.619,97.548,42.383,102.226,36.819Z" transform="translate(-30.287 -18.974)" fill="#4c4948" fill-rule="evenodd"/>
          <path id="Trazado_106503" data-name="Trazado 106503" d="M103.01,84.191l7.055,36.406H123.6l6.811-36.458Z" transform="translate(-27.614 -0.396)" fill="#fff" fill-rule="evenodd"/>
          <path id="Trazado_106504" data-name="Trazado 106504" d="M105.606,70.7l-4.112,1.825-.6,31.446,16.539-16Z" transform="translate(-28.219 -4.228)" fill="#fff" fill-rule="evenodd"/>
          <path id="Trazado_106505" data-name="Trazado 106505" d="M124.914,70.7l4.575,2.018,1.285,29.056-17.014-13.8Z" transform="translate(-24.55 -4.228)" fill="#fff" fill-rule="evenodd"/>
          <path id="Trazado_106506" data-name="Trazado 106506" d="M127.369,84.14l-13.7.026V120.6l7.081-.116Z" transform="translate(-24.576 -0.396)" fill="#fff"/>
          <g id="Grupo_55460" data-name="Grupo 55460" transform="translate(82.541 83.744)">
            <path id="Trazado_106507" data-name="Trazado 106507" d="M113.145,90.96l-4.575,27.693,13.725-.116L117.913,90.96Z" transform="translate(-108.57 -82.196)" fill="#392c2f" fill-rule="evenodd"/>
            <path id="Trazado_106508" data-name="Trazado 106508" d="M109.46,89.524l3.071,4.356h4.78l3.123-4.356-5.4-5.384Z" transform="translate(-108.316 -84.14)" fill="#392c2f" fill-rule="evenodd"/>
            <g id="Grupo_55459" data-name="Grupo 55459" transform="translate(6.862 0.103)">
              <path id="Trazado_106509" data-name="Trazado 106509" d="M116.442,93.755l2.943-4.164-5.4-5.372-.077.064v8.6h2.39Z" transform="translate(-113.91 -84.22)" fill="#392c2f"/>
              <path id="Trazado_106510" data-name="Trazado 106510" d="M116.442,91.834l-.141-.874h-2.39v27.578l6.862.116Z" transform="translate(-113.91 -82.299)" fill="#392c2f"/>
            </g>
          </g>
          <rect id="Rectángulo_5829" data-name="Rectángulo 5829" width="129.317" height="117.623" transform="translate(24.121 132.513)" fill="#6d372c"/>
          <rect id="Rectángulo_5830" data-name="Rectángulo 5830" width="88.837" height="90.816" transform="translate(44.361 145.955)" fill="#582b29"/>
          <rect id="Rectángulo_5831" data-name="Rectángulo 5831" width="147.553" height="17.4" transform="translate(14.997 119.405)" fill="#582b29"/>
          <path id="Trazado_106511" data-name="Trazado 106511" d="M103.415,143.73H44.34V57.36H91.824l5.8,5.8,5.8,5.8Z" transform="translate(-44.34 -8.031)" fill="#e0e0de"/>
          <path id="Trazado_106512" data-name="Trazado 106512" d="M97.175,143.73H66.23V57.36H85.583l5.05,5.05,6.541,6.541Z" transform="translate(-38.1 -8.031)" fill="#c6bfbc"/>
          <path id="Trazado_106513" data-name="Trazado 106513" d="M81.29,57.36V68.951H92.881l-5.8-5.8Z" transform="translate(-33.806 -8.031)" fill="#aba5a5"/>
          <rect id="Rectángulo_5832" data-name="Rectángulo 5832" width="21.911" height="2.853" transform="translate(6.541 67.038)" fill="#bfc4c3"/>
          <rect id="Rectángulo_5833" data-name="Rectángulo 5833" width="21.911" height="2.853" transform="translate(6.541 72.654)" fill="#bfc4c3"/>
          <rect id="Rectángulo_5834" data-name="Rectángulo 5834" width="21.911" height="2.84" transform="translate(6.541 78.269)" fill="#bfc4c3"/>
          <rect id="Rectángulo_5835" data-name="Rectángulo 5835" width="21.911" height="2.84" transform="translate(6.541 83.872)" fill="#bfc4c3"/>
          <rect id="Rectángulo_5836" data-name="Rectángulo 5836" width="21.911" height="2.84" transform="translate(6.541 89.475)" fill="#bfc4c3"/>
          <rect id="Rectángulo_5837" data-name="Rectángulo 5837" width="22.258" height="2.853" transform="translate(28.169 67.038)" fill="#8e8d8b"/>
          <rect id="Rectángulo_5838" data-name="Rectángulo 5838" width="22.258" height="2.853" transform="translate(28.169 72.654)" fill="#8e8d8b"/>
          <rect id="Rectángulo_5839" data-name="Rectángulo 5839" width="22.258" height="2.84" transform="translate(28.169 78.269)" fill="#8e8d8b"/>
          <rect id="Rectángulo_5840" data-name="Rectángulo 5840" width="22.258" height="2.84" transform="translate(28.169 83.872)" fill="#8e8d8b"/>
          <rect id="Rectángulo_5841" data-name="Rectángulo 5841" width="22.258" height="2.84" transform="translate(28.169 89.475)" fill="#8e8d8b"/>
          <path id="Trazado_106514" data-name="Trazado 106514" d="M62.1,65.3a2.7,2.7,0,0,1-5.384,0V55.75a2.7,2.7,0,1,1,5.384,0Z" transform="translate(-40.815 -9.312)" fill="#f5b16d"/>
          <path id="Trazado_106515" data-name="Trazado 106515" d="M65.873,65.426a2.493,2.493,0,0,1-4.973,0V55.453a2.493,2.493,0,0,1,4.973,0Z" transform="translate(-39.619 -9.234)" fill="#f5b16d"/>
          <path id="Trazado_106516" data-name="Trazado 106516" d="M70.373,65.141a2.8,2.8,0,1,1-5.6,0v-9.33a2.8,2.8,0,0,1,5.6,0Z" transform="translate(-38.516 -9.271)" fill="#f5b16d"/>
          <path id="Trazado_106517" data-name="Trazado 106517" d="M73.885,65.565a2.377,2.377,0,1,1-4.755,0V55.387a2.377,2.377,0,0,1,4.755,0Z" transform="translate(-37.273 -9.271)" fill="#f5b16d"/>
          <g id="Grupo_55461" data-name="Grupo 55461" transform="translate(89.403 0.034)">
            <path id="Trazado_106518" data-name="Trazado 106518" d="M124.86,80.924V79.639a34.7,34.7,0,0,0,7.852-7.543,41.754,41.754,0,0,0,2.8-9.253,8.88,8.88,0,0,0,3.02-4.459c.925-2.814.591-5.513-.655-6.76a2.282,2.282,0,0,1,0,.257,4.194,4.194,0,0,0-.064-.424c-3.393-27.359-17.8-16.089-23.864-17.811V98.439l10.962-16.976Z" transform="translate(-113.899 -15.076)" fill="#d88e52"/>
            <path id="Trazado_106519" data-name="Trazado 106519" d="M129.2,101.283l-5.14-4.189L119.3,123.142h49.244c-.09-13.378-2.686-28.439-7.351-32.59-2.93-2.57-10.653-8.135-33.271-18.312Z" transform="translate(-112.373 -3.822)" fill="#03060d"/>
            <path id="Trazado_106520" data-name="Trazado 106520" d="M137.761,55.342v.077a4.194,4.194,0,0,1,.064.424,2.278,2.278,0,0,0,0-.257c5.32-20.78-2.853-35.635-23.337-36.586h-.578V37.634C119.976,39.33,134.381,28.06,137.761,55.342Z" transform="translate(-113.91 -19)" fill="#3b3939"/>
            <path id="Trazado_106521" data-name="Trazado 106521" d="M127.3,87.941l-1.748,9.6,5.153,4.189-1.285-29.043-4.549-2.018L113.91,87.633v.321Z" transform="translate(-113.91 -4.27)" fill="#fff"/>
            <path id="Trazado_106522" data-name="Trazado 106522" d="M113.987,84.2l5.4,5.384-2.866,4.061,4.151,26.113h.129l4.755-26.049,1.748-9.6-13.391.013v.154Z" transform="translate(-113.91 -0.439)" fill="#fff"/>
            <path id="Trazado_106523" data-name="Trazado 106523" d="M115.944,91.53l-.064.1,4.2,26.01Z" transform="translate(-113.348 1.677)" fill="#392c2f"/>
            <path id="Trazado_106524" data-name="Trazado 106524" d="M116.442,93.728l.077-.1,2.866-4.061-5.4-5.384-.077.077v8.6h2.39Z" transform="translate(-113.91 -0.419)" fill="#1a191d"/>
            <path id="Trazado_106525" data-name="Trazado 106525" d="M120.644,117.814l-4.2-26.01-.141-.874h-2.39v26.884Z" transform="translate(-113.91 1.506)" fill="#1a191d"/>
            <path id="Trazado_106526" data-name="Trazado 106526" d="M177.945,125.39H113.91v9.15h43.8v90.816h-43.8v13.378h64.035Z" transform="translate(-113.91 11.329)" fill="#542d28"/>
            <rect id="Rectángulo_5842" data-name="Rectángulo 5842" width="43.795" height="90.816" transform="translate(0 145.869)" fill="#362324"/>
            <path id="Trazado_106527" data-name="Trazado 106527" d="M187.07,129.25v-17.4H113.91v17.4Z" transform="translate(-113.91 7.469)" fill="#3d2626"/>
          </g>
        </g>
        <g id="Grupo_55465" data-name="Grupo 55465" transform="translate(131.027 120.896)">
          <path id="Trazado_106528" data-name="Trazado 106528" d="M248.47,217.244H177.2V113.05h57.289l6.991,6.991,6.991,6.991Z" transform="translate(-137.491 -113.05)" fill="#bfc4c3"/>
          <path id="Trazado_106529" data-name="Trazado 106529" d="M240.939,217.244H203.62V113.05h23.337l6.091,6.091,7.89,7.89Z" transform="translate(-129.959 -113.05)" fill="#949391"/>
          <path id="Trazado_106530" data-name="Trazado 106530" d="M221.78,113.05v13.982h13.982l-6.991-6.991Z" transform="translate(-124.782 -113.05)" fill="#aba5a5"/>
          <rect id="Rectángulo_5843" data-name="Rectángulo 5843" width="26.434" height="3.431" transform="translate(47.612 21.371)" fill="#e0e0de"/>
          <rect id="Rectángulo_5844" data-name="Rectángulo 5844" width="26.434" height="3.431" transform="translate(47.612 28.143)" fill="#e0e0de"/>
          <rect id="Rectángulo_5845" data-name="Rectángulo 5845" width="26.434" height="3.431" transform="translate(47.612 34.903)" fill="#bfc4c3"/>
          <rect id="Rectángulo_5846" data-name="Rectángulo 5846" width="26.434" height="3.431" transform="translate(47.612 41.675)" fill="#bfc4c3"/>
          <rect id="Rectángulo_5847" data-name="Rectángulo 5847" width="26.434" height="3.431" transform="translate(47.612 48.435)" fill="#bfc4c3"/>
          <rect id="Rectángulo_5848" data-name="Rectángulo 5848" width="26.858" height="3.431" transform="translate(73.699 21.371)" fill="#cacbc9"/>
          <rect id="Rectángulo_5849" data-name="Rectángulo 5849" width="26.858" height="3.431" transform="translate(73.699 28.143)" fill="#cacbc9"/>
          <rect id="Rectángulo_5850" data-name="Rectángulo 5850" width="26.858" height="3.431" transform="translate(73.699 34.903)" fill="#cacbc9"/>
          <rect id="Rectángulo_5851" data-name="Rectángulo 5851" width="26.858" height="3.431" transform="translate(73.699 41.675)" fill="#cacbc9"/>
          <rect id="Rectángulo_5852" data-name="Rectángulo 5852" width="26.858" height="3.431" transform="translate(73.699 48.435)" fill="#cacbc9"/>
          <path id="Trazado_106531" data-name="Trazado 106531" d="M217.57,237.307H146.3V133.1h57.289l6.978,7,7,6.991Z" transform="translate(-146.3 -107.334)" fill="#e0e0de"/>
          <path id="Trazado_106532" data-name="Trazado 106532" d="M210.042,237.307H172.71V133.1h23.35l6.091,6.1,7.89,7.89Z" transform="translate(-138.771 -107.334)" fill="#c6bfbc"/>
          <path id="Trazado_106533" data-name="Trazado 106533" d="M190.88,133.1v13.995h13.982l-7-6.991Z" transform="translate(-133.591 -107.334)" fill="#aba5a5"/>
          <rect id="Rectángulo_5853" data-name="Rectángulo 5853" width="26.434" height="3.431" transform="translate(7.89 47.15)" fill="#bfc4c3"/>
          <rect id="Rectángulo_5854" data-name="Rectángulo 5854" width="26.434" height="3.431" transform="translate(7.89 53.909)" fill="#bfc4c3"/>
          <rect id="Rectángulo_5855" data-name="Rectángulo 5855" width="26.434" height="3.431" transform="translate(7.89 60.681)" fill="#bfc4c3"/>
          <rect id="Rectángulo_5856" data-name="Rectángulo 5856" width="26.434" height="3.431" transform="translate(7.89 67.441)" fill="#bfc4c3"/>
          <rect id="Rectángulo_5857" data-name="Rectángulo 5857" width="26.434" height="3.444" transform="translate(7.89 74.213)" fill="#bfc4c3"/>
          <rect id="Rectángulo_5858" data-name="Rectángulo 5858" width="26.858" height="3.431" transform="translate(33.977 47.15)" fill="#8e8d8b"/>
          <rect id="Rectángulo_5859" data-name="Rectángulo 5859" width="26.858" height="3.431" transform="translate(33.977 53.909)" fill="#8e8d8b"/>
          <rect id="Rectángulo_5860" data-name="Rectángulo 5860" width="26.858" height="3.431" transform="translate(33.977 60.681)" fill="#8e8d8b"/>
          <rect id="Rectángulo_5861" data-name="Rectángulo 5861" width="26.858" height="3.431" transform="translate(33.977 67.441)" fill="#8e8d8b"/>
          <rect id="Rectángulo_5862" data-name="Rectángulo 5862" width="26.858" height="3.444" transform="translate(33.977 74.213)" fill="#8e8d8b"/>
          <g id="Grupo_55464" data-name="Grupo 55464" transform="translate(52.603 45.067)">
            <rect id="Rectángulo_5863" data-name="Rectángulo 5863" width="6.245" height="48.139" transform="translate(34.446 44.422) rotate(-32.12)" fill="#5e5a57"/>
            <path id="Trazado_106534" data-name="Trazado 106534" d="M238.337,161.115a27.668,27.668,0,1,1-38.154-8.713A27.668,27.668,0,0,1,238.337,161.115Z" transform="translate(-187.234 -148.109)" fill="#5e5a57"/>
            <path id="Trazado_106535" data-name="Trazado 106535" d="M230.925,187.728,217.1,196.415l-2.557-4.048,13.853-8.687Z" transform="translate(-179.449 -137.982)" fill="#5e5a57"/>
            <path id="Trazado_106536" data-name="Trazado 106536" d="M233.545,162.62a23.491,23.491,0,1,1-32.384-7.4,23.491,23.491,0,0,1,32.384,7.4Z" transform="translate(-186.4 -147.121)" fill="#f0efee"/>
            <g id="Grupo_55463" data-name="Grupo 55463" transform="translate(14.106)">
              <path id="Trazado_106537" data-name="Trazado 106537" d="M224.3,189l-2.442,1.542,17.824,29.608,2.994-1.876Z" transform="translate(-191.468 -136.465)" fill="#4d4a48"/>
              <path id="Trazado_106538" data-name="Trazado 106538" d="M232.5,194.113a27.642,27.642,0,0,0-34.286-42.408l2.172,3.6a23.466,23.466,0,0,1,24.159,40.21l1.594,2.57Z" transform="translate(-198.21 -148.119)" fill="#4d4a48"/>
              <path id="Trazado_106539" data-name="Trazado 106539" d="M229.36,187.7l-2.532-4.048-.527.334-6.361,3.984,2.467,4.1,2.442-1.542Z" transform="translate(-192.015 -137.99)" fill="#4d4a48"/>
              <path id="Trazado_106540" data-name="Trazado 106540" d="M230.742,162.587a23.478,23.478,0,0,0-30.842-8.263l24.16,40.2A23.478,23.478,0,0,0,230.742,162.587Z" transform="translate(-197.728 -147.126)" fill="#d7d7d5"/>
            </g>
          </g>
        </g>
      </g>
    </g>
  </g>
</svg>
