<svg xmlns="http://www.w3.org/2000/svg" width="250" height="250" viewBox="0 0 250 250">
  <g id="Grupo_55729" data-name="Grupo 55729" transform="translate(-419 -965)">
    <g id="Layer_1" data-name="Layer 1" transform="translate(419 965)">
      <g id="Grupo_54913" data-name="Grupo 54913">
        <circle id="Elipse_4134" data-name="Elipse 4134" cx="94.19" cy="94.19" r="94.19" transform="translate(30.81 30.81)" fill="#eef0e3"/>
        <path id="Trazado_106300" data-name="Trazado 106300" d="M194.05,125A69,69,0,0,1,125,194.05a12.5,12.5,0,1,0,0,25A94,94,0,0,0,219.05,125a12.5,12.5,0,1,0-25,0Z" fill="#bbbeab"/>
        <path id="Trazado_106301" data-name="Trazado 106301" d="M55.81,124.86a69,69,0,0,1,69.05-69,12.5,12.5,0,0,0,0-25,94,94,0,0,0-94,94.05,12.5,12.5,0,0,0,25,0Z" fill="#e6e8d6"/>
      </g>
      <rect id="Rectángulo_5763" data-name="Rectángulo 5763" width="250" height="250" fill="none"/>
      <g id="Grupo_54917" data-name="Grupo 54917">
        <g id="Grupo_54914" data-name="Grupo 54914">
          <path id="Trazado_106302" data-name="Trazado 106302" d="M120.35,178.21v13.37H16.17V178.21a6.65,6.65,0,0,1,4.51-6.29,6.84,6.84,0,0,1,2.13-.35h90.9a6.84,6.84,0,0,1,2.13.35,6.65,6.65,0,0,1,4.51,6.29Z" fill="#89411d"/>
          <path id="Trazado_106303" data-name="Trazado 106303" d="M122.76,189.21v6.09a1.11,1.11,0,0,1-1.11,1.11H14.87a1.11,1.11,0,0,1-1.11-1.11v-6.09a2.46,2.46,0,0,1,2.411-2.46H120.35A2.46,2.46,0,0,1,122.76,189.21Z" fill="#662a10"/>
          <path id="Trazado_106304" data-name="Trazado 106304" d="M115.86,170.06v1.5a2.171,2.171,0,0,1,0,.36,3.39,3.39,0,0,1-3.37,3H24.05a3.39,3.39,0,0,1-3.37-3q0-.18,0-.36v-1.5a3.39,3.39,0,0,1,3.39-3.39h88.42a3.39,3.39,0,0,1,3.37,3.39Z" fill="#89411d"/>
        </g>
        <g id="Grupo_54916" data-name="Grupo 54916">
          <g id="Grupo_54915" data-name="Grupo 54915">
            <path id="Trazado_106305" data-name="Trazado 106305" d="M239.53,176.78a8.35,8.35,0,0,1-14.84,1.71c-11.26-1.09-31.6-14.2-50.71-21.79q-2.35-.93-4.77-1.83c-.73.88-1.49,1.33-2.08,1.12a1.29,1.29,0,0,1-.68-.84c-.74.95-1.47,1.45-2,1.25s-.77-1-.73-2.25a1.22,1.22,0,0,1-1.06.2c-.57-.21-.86-1-.86-2.13-16.59-5.69-33.63-10.06-41.89-12.07a4.53,4.53,0,0,1-5,1.37l-1.08-.4a4.51,4.51,0,0,1-2.92-3.61l-3.6-1.31-5.58-2,4.9-13.46,5.59,2,3.6,1.31a4.5,4.5,0,0,1,4.56-.88l1.07.39a4.53,4.53,0,0,1,3,4.28c7.61,3.78,23.47,11.39,39.82,17.72.72-.86,1.46-1.29,2-1.08a1.26,1.26,0,0,1,.69.83c.74-.95,1.47-1.44,2-1.25s.77,1,.73,2.25a1.26,1.26,0,0,1,1.06-.2c.59.21.88,1,.87,2.19,1.62.58,3.23,1.13,4.83,1.67,19.52,6.49,43.53,9.53,52.85,15.95a8.34,8.34,0,0,1,10.25,10.86Z" fill="#89411d"/>
            <path id="Trazado_106306" data-name="Trazado 106306" d="M113.79,118.31l-.14.39-1.48,4.04-4.9,13.46-1.44,3.93-.17.48L85.8,133.38,84.77,133l-18.93-6.9.16-.44,7.81-21.43.16-.43,18.68,6.81,1.03.37Z" fill="#b4701f"/>
            <path id="Trazado_106307" data-name="Trazado 106307" d="M102.82,161.23a8,8,0,0,1-4.32,3.83A14,14,0,0,1,88.29,165l-12.05-4.39-.17-.06-.86-.32L63.86,156.1A14,14,0,0,1,56,149.57a8.14,8.14,0,0,1-.84-5.72A5.37,5.37,0,0,1,56,142a5.09,5.09,0,0,1,3-1.92l.53-.1a8.46,8.46,0,0,0,2.7-.83A3.25,3.25,0,0,0,64,136.86a4.21,4.21,0,0,0-.39-2.55,1.88,1.88,0,0,0-.58-.81l19.3,6.5,1,.35h.06l20,7.89a1.82,1.82,0,0,0-1,.23,4.32,4.32,0,0,0-2,1.71,3.28,3.28,0,0,0-.08,3,8.17,8.17,0,0,0,1.54,2.36c.12.15.23.28.34.43a5.05,5.05,0,0,1,1,3.39,5.39,5.39,0,0,1-.37,1.87Z" fill="#89411d"/>
            <path id="Trazado_106308" data-name="Trazado 106308" d="M107.86,145.62a4.52,4.52,0,0,1-5.4,2.82,2,2,0,0,1-.35-.11h0L83,141.37,82,141l-18.13-6.61-.19-.07a4.52,4.52,0,0,1,3.24-8.44h.05l18,6.57,1,.38,19.16,7a6.083,6.083,0,0,1,.68.31,4.55,4.55,0,0,1,2.05,5.48Z" fill="#662a10"/>
            <path id="Trazado_106309" data-name="Trazado 106309" d="M123.68,102.32a5,5,0,0,1-3,1.92,4.513,4.513,0,0,1-.53.1,8.46,8.46,0,0,0-2.7.83,3.27,3.27,0,0,0-1.85,2.33,4.12,4.12,0,0,0,.39,2.55,1.88,1.88,0,0,0,.58.81L96.22,104h-.09l-1-.4L76.24,96.16a2,2,0,0,0,1-.24,4.31,4.31,0,0,0,2-1.71,3.28,3.28,0,0,0,.08-3,8.17,8.17,0,0,0-1.54-2.36c-.12-.15-.23-.28-.34-.43a5,5,0,0,1-1-3.39,5.29,5.29,0,0,1,.52-1.91,8.06,8.06,0,0,1,4.32-3.84,14,14,0,0,1,10.21.11l10.87,4c.49.19.82.3,1,.37l.31.12,12.22,4.45a14,14,0,0,1,7.89,6.49,8.18,8.18,0,0,1,.84,5.72A5.61,5.61,0,0,1,123.68,102.32Z" fill="#89411d"/>
            <path id="Trazado_106310" data-name="Trazado 106310" d="M118.52,115.77a4.52,4.52,0,0,1-4.87,2.93,3.89,3.89,0,0,1-.88-.21h0l-19.21-7-1-.37-18-6.56a5.241,5.241,0,0,1-.68-.31,4.52,4.52,0,0,1,3.38-8.31l.35.11h0l17.88,6.53,1,.37,19.31,7,.19.07a4.52,4.52,0,0,1,2.53,5.75Z" fill="#662a10"/>
          </g>
          <path id="Trazado_106311" data-name="Trazado 106311" d="M239.53,176.78a8.35,8.35,0,0,1-14.84,1.71c-11.26-1.09-31.6-14.2-50.71-21.79q-2.35-.93-4.77-1.83c-.73.88-1.49,1.33-2.08,1.12a1.29,1.29,0,0,1-.68-.84c-.74.95-1.47,1.45-2,1.25s-.77-1-.73-2.25a1.22,1.22,0,0,1-1.06.2c-.57-.21-.86-1-.86-2.13-16.59-5.69-33.63-10.06-41.89-12.07a4.53,4.53,0,0,1-5,1.37l-1.08-.4a4.51,4.51,0,0,1-2.92-3.61l-3.6-1.31-1.44,3.93a4.52,4.52,0,0,1-3.37,8.31,4.32,4.32,0,0,0-2,1.71,3.28,3.28,0,0,0-.08,3,8.17,8.17,0,0,0,1.54,2.36c.12.15.23.28.34.43a5.05,5.05,0,0,1,1,3.39,5.39,5.39,0,0,1-.52,1.92,8,8,0,0,1-4.32,3.83A14,14,0,0,1,88.29,165l-12.05-4.39-.17-.06-.86-.32,27-76.81c.49.19.82.3,1,.37l.31.12,12.22,4.45a14,14,0,0,1,7.89,6.49,8.18,8.18,0,0,1,.84,5.72,5.61,5.61,0,0,1-.84,1.8,5,5,0,0,1-3,1.92,4.512,4.512,0,0,1-.53.1,8.46,8.46,0,0,0-2.7.83,3.27,3.27,0,0,0-1.85,2.33,4.12,4.12,0,0,0,.39,2.55,4.52,4.52,0,0,1-2.36,8.65l-1.47,4,3.6,1.31a4.5,4.5,0,0,1,4.56-.88l1.07.39a4.53,4.53,0,0,1,3,4.28c7.61,3.78,23.47,11.39,39.82,17.72.72-.86,1.46-1.29,2-1.08a1.26,1.26,0,0,1,.69.83c.74-.95,1.47-1.44,2-1.25s.77,1,.73,2.25a1.26,1.26,0,0,1,1.06-.2c.59.21.88,1,.87,2.19,1.62.58,3.23,1.13,4.83,1.67,19.52,6.49,43.53,9.53,52.85,15.95a8.34,8.34,0,0,1,10.25,10.86Z" fill="#fff" opacity="0.1"/>
        </g>
        <path id="Trazado_106312" data-name="Trazado 106312" d="M122.76,189.21v6.09a1.11,1.11,0,0,1-1.11,1.11H67.78v-9.66c0-4,.11-8.15.18-11.8,0-1.19,0-2.32.07-3.38,0-1.92.08-3.59.11-4.9h44.29a3.39,3.39,0,0,1,3.39,3.39v1.5a2.171,2.171,0,0,1,0,.36,6.65,6.65,0,0,1,4.51,6.29v8.54a2.46,2.46,0,0,1,2.43,2.46Z" fill="#fff" opacity="0.1"/>
      </g>
    </g>
  </g>
</svg>
