<svg xmlns="http://www.w3.org/2000/svg" width="145.7" height="145.7" viewBox="0 0 145.7 145.7">
  <g id="Grupo_55715" data-name="Grupo 55715" transform="translate(-420.15 -6310)">
    <g id="Grupo_54197" data-name="Grupo 54197" transform="translate(-1012.303 8959.268)">
      <g id="Grupo_54196" data-name="Grupo 54196" transform="translate(1448.159 -2634.422)">
        <path id="Trazado_102697" data-name="Trazado 102697" d="M53.166,0A53.166,53.166,0,1,1,0,53.166,53.166,53.166,0,0,1,53.166,0Z" transform="translate(0 9.679)" fill="#deccd0"/>
        <g id="Grupo_54193" data-name="Grupo 54193" transform="translate(46.11 55.789)">
          <path id="Trazado_102682" data-name="Trazado 102682" d="M1587.994-2517.081a38.825,38.825,0,0,1-3.06,15.168,39.149,39.149,0,0,1-14.128,17.155,38.749,38.749,0,0,1-21.786,6.652,7.056,7.056,0,0,0-7.056,7.056,7.056,7.056,0,0,0,7.056,7.056,52.948,52.948,0,0,0,20.666-4.175,53.252,53.252,0,0,0,23.35-19.226,52.882,52.882,0,0,0,9.071-29.686,7.056,7.056,0,0,0-7.056-7.056,7.056,7.056,0,0,0-7.056,7.056Z" transform="translate(-1541.963 2524.137)" fill="#bd9aa0"/>
        </g>
        <g id="Grupo_54194" data-name="Grupo 54194" transform="translate(0 9.679)">
          <path id="Trazado_102683" data-name="Trazado 102683" d="M1474.389-2552.735a38.828,38.828,0,0,1,3.06-15.169,39.15,39.15,0,0,1,14.128-17.154,38.754,38.754,0,0,1,21.786-6.652,7.056,7.056,0,0,0,7.056-7.056,7.056,7.056,0,0,0-7.056-7.056,52.93,52.93,0,0,0-20.666,4.175,53.247,53.247,0,0,0-23.35,19.226,52.881,52.881,0,0,0-9.071,29.686,7.056,7.056,0,0,0,7.056,7.056,7.056,7.056,0,0,0,7.056-7.056Z" transform="translate(-1460.277 2605.822)" fill="#f1e2e5"/>
        </g>
        <g id="Grupo_54195" data-name="Grupo 54195" transform="translate(22.343)">
          <path id="Trazado_102684" data-name="Trazado 102684" d="M1621.351-2609.273c5.06,4.664,9.89,9.566,14.618,14.557,2.651,2.8,2.478,6.759-.21,9.736-2.244,2.486-4.691,4.789-7.048,7.173a15.692,15.692,0,0,0-1.3-1.615q-6.092-5.833-12.227-11.621c-2.914-2.735-5.641-5.672-8.786-8.158l-.764-1.012a41.524,41.524,0,0,0,4.731-4.764c2.77-3.2,5.785-5.953,10.556-4.09C1621.02-2609.027,1621.2-2609.2,1621.351-2609.273Z" transform="translate(-1545.925 2617.177)" fill="#c83737"/>
          <path id="Trazado_102685" data-name="Trazado 102685" d="M1602.1-2591.179c3.145,2.486,5.872,5.423,8.786,8.158q6.149,5.773,12.227,11.621a15.643,15.643,0,0,1,1.3,1.616c.887,2.642-.409,4.5-2.22,6.17-1.237-.1-2.476.421-3.712-.012a9.941,9.941,0,0,1-2.327-1.75c-2-1.894-4.024-3.757-6.039-5.632l-2.463-2.431c-3.912-3.857-8.125-7.406-11.835-11.471C1595.407-2590.181,1597.7-2591.613,1602.1-2591.179Z" transform="translate(-1541.631 2609.156)" fill="#eef0e3"/>
          <path id="Trazado_102686" data-name="Trazado 102686" d="M1615.2-2615.065c-.146.073-.331.246-.432.206-4.771-1.863-7.787.895-10.556,4.09a41.58,41.58,0,0,1-4.73,4.764c-.469-.414-.925-.847-1.412-1.24-2.265-1.831-4.016-4.247-6.556-5.764,2.615-2.708,5.149-5.5,7.868-8.1a7.362,7.362,0,0,1,9.672-.1C1611.2-2619.264,1613.161-2617.12,1615.2-2615.065Z" transform="translate(-1539.777 2622.969)" fill="#ba0505"/>
          <path id="Trazado_102687" data-name="Trazado 102687" d="M1586.8-2605.482c2.54,1.517,4.291,3.933,6.556,5.764.487.394.942.826,1.412,1.24l.763,1.013c-4.4-.434-6.695,1-6.28,6.269l-1.038-.709c-.439-.458-.87-.924-1.318-1.373-2-2-4.3-3.715-5.979-6.039a5.937,5.937,0,0,1,.624-4.734A5.239,5.239,0,0,1,1586.8-2605.482Z" transform="translate(-1535.066 2615.441)" fill="#bcbfac"/>
          <path id="Trazado_102688" data-name="Trazado 102688" d="M1591.07-2555.39c2.015,1.875,4.042,3.738,6.039,5.632a9.943,9.943,0,0,0,2.327,1.75q-5.671,6.075-11.344,12.147-3.726,3.983-7.461,7.955-7.53,7.867-15.065,15.727c-.383.4-.635,1-1.31,1.041-3.67-3.387-7.8-3.441-12.184-1.691-.2-.9.444-1.372.971-1.9,4.287-4.3,8.368-8.79,12.546-13.19,4.377-4.61,8.789-9.187,13.124-13.84,3.745-4.02,7.63-7.91,11.463-11.848C1590.669-2554.118,1591.163-2554.6,1591.07-2555.39Z" transform="translate(-1522.582 2593.537)" fill="#ffd96c"/>
          <path id="Trazado_102689" data-name="Trazado 102689" d="M1554.139-2594.405c1.679,2.324,3.976,4.036,5.979,6.039.448.449.879.915,1.318,1.372a1.723,1.723,0,0,1-.656,1.179c-2.891,3-5.793,6-8.662,9.02-3.7,3.9-7.354,7.854-11.071,11.743q-8.941,9.356-17.937,18.658a2.23,2.23,0,0,1-1.606.919c1.689-4.45,1.14-8.47-2.3-11.932.075-.714.68-1.051,1.1-1.5q6.461-6.907,12.947-13.792c4.151-4.333,8.261-8.7,12.467-12.982C1548.554-2588.565,1551.111-2591.712,1554.139-2594.405Z" transform="translate(-1508.284 2610.529)" fill="#bf9c35"/>
          <path id="Trazado_102690" data-name="Trazado 102690" d="M1539.172-2492.1c4.383-1.75,8.515-1.7,12.184,1.691l-20.241,6.287a23.32,23.32,0,0,0-8.7-11.838,2.778,2.778,0,0,1,.581-1.426c1.839-2.8,3.7-5.583,5.509-8.4.392-.608,1.033-1.144.882-2.005,3.752-.107,6.379,1.849,8.271,4.813a10.482,10.482,0,0,1,.644,10.108c-.069.169-1.337.937.14,1.043.473-.147.473-.234.731-.283Z" transform="translate(-1509.683 2572.808)" fill="#eef0e3"/>
          <path id="Trazado_102691" data-name="Trazado 102691" d="M1512.593-2486.862a23.318,23.318,0,0,1,8.7,11.837l-21.432,6.8c.228-.831.047-1.448.53-1.954.574,1.087.681.01.838-.223q5.539-8.238,11.039-16.5A1.61,1.61,0,0,0,1512.593-2486.862Z" transform="translate(-1499.859 2563.709)" fill="#6b6d5d"/>
          <path id="Trazado_102692" data-name="Trazado 102692" d="M1516.989-2505.135a1.611,1.611,0,0,1-.328-.04c-1.964-1.635-4.353-2.373-6.708-3.184.832-4.82,2.257-9.5,3.433-14.236.523-2.1.768-4.3,1.789-6.263,3.439,3.461,3.989,7.48,2.3,11.931l-.582,1.239c-.048.114.144.041.1.154.135-.01.03.166.166.155a16.255,16.255,0,0,1,1.694-.842c1.648-.6,3.289-1.323,5.113-.741.152.862-.49,1.4-.882,2.005-1.812,2.815-3.671,5.6-5.509,8.4A2.779,2.779,0,0,0,1516.989-2505.135Z" transform="translate(-1504.255 2581.982)" fill="#bcbfac"/>
          <path id="Trazado_102693" data-name="Trazado 102693" d="M1505.965-2492.543c2.354.811,4.744,1.549,6.708,3.184q-5.513,8.257-11.038,16.5c-.156.232-.264,1.31-.838.222,1.351-5.446,2.685-10.9,4.068-16.334A10.513,10.513,0,0,1,1505.965-2492.543Z" transform="translate(-1500.268 2566.166)" fill="#35362f"/>
          <path id="Trazado_102694" data-name="Trazado 102694" d="M1522.248-2538.518l.582-1.239a2.23,2.23,0,0,0,1.606-.919q8.969-9.327,17.936-18.658c3.717-3.889,7.368-7.84,11.071-11.743,2.869-3.024,5.771-6.017,8.662-9.02a1.723,1.723,0,0,0,.656-1.179l1.038.709c3.71,4.065,7.922,7.614,11.835,11.471l2.463,2.431c.093.791-.4,1.271-.9,1.78-3.833,3.938-7.718,7.828-11.463,11.848-4.334,4.653-8.746,9.23-13.124,13.841-4.178,4.4-8.258,8.894-12.546,13.19-.527.528-1.171,1-.971,1.9l0-.008a.684.684,0,0,0-.731.283c-1.477-.107-.209-.874-.14-1.043a10.481,10.481,0,0,0-.644-10.108c-1.892-2.965-4.519-4.92-8.271-4.813-1.823-.582-3.465.141-5.113.741a16.257,16.257,0,0,0-1.694.842Z" transform="translate(-1509.61 2604.811)" fill="#ffd047"/>
          <path id="Trazado_102695" data-name="Trazado 102695" d="M1550.81-2479.732a.684.684,0,0,1,.731-.283" transform="translate(-1522.049 2560.715)" fill="#ffd96c"/>
          <path id="Trazado_102696" data-name="Trazado 102696" d="M1522.248-2505.529l.261.309" transform="translate(-1509.61 2571.822)" fill="#ffd96c"/>
        </g>
      </g>
      <rect id="Rectángulo_5408" data-name="Rectángulo 5408" width="145.7" height="145.7" transform="translate(1432.452 -2649.267)" fill="none"/>
    </g>
  </g>
</svg>
