<svg xmlns="http://www.w3.org/2000/svg" width="494.427" height="385.076" viewBox="0 0 494.427 385.076">
  <g id="Grupo_55752" data-name="Grupo 55752" transform="translate(-190.573 -4360)">
    <g id="Grupo_54191" data-name="Grupo 54191" transform="translate(-1404.167 9264.056)">
      <path id="Trazado_102679" data-name="Trazado 102679" d="M2464.747-4768.538a203.293,203.293,0,0,1,11.108,114.864,201.343,201.343,0,0,1-19.431,55.418,202.265,202.265,0,0,1-36.137,49,202.946,202.946,0,0,1-38.617,30.281h118.875a281.147,281.147,0,0,0,38.669-67.011,283.614,283.614,0,0,0,15.533-160.336,281.719,281.719,0,0,0-27.19-77.527,282.708,282.708,0,0,0-50.448-68.434,40.178,40.178,0,0,0-56.821,0,40.178,40.178,0,0,0,0,56.821A201.56,201.56,0,0,1,2464.747-4768.538Z" transform="translate(-470.753)" fill="#fff"/>
      <path id="Trazado_102680" data-name="Trazado 102680" d="M1701.953-4008.25a202.863,202.863,0,0,1-38.624-30.281,40.179,40.179,0,0,0-56.821,0,40.075,40.075,0,0,0-11.724,30.281Z" transform="translate(0 -510.73)" fill="#fff"/>
    </g>
    <g id="Grupo_55705" data-name="Grupo 55705" transform="translate(265 4374.107)">
      <path id="Trazado_108048" data-name="Trazado 108048" d="M119.838,202.71h-2.7l-1.647,6.442-6.135,4.642-11.237,9.284-4.642,8.686,1.8,11.536,4.335,7.185,3.754,2.1,33.4-.6,3-2.4,4.8-7.185-1.5-9.889-6.143-11.084-7.185-5.239L123.14,209.9l-2.85-2.85Z" transform="translate(-64.022 -61.177)" fill="#c8edea"/>
      <path id="Trazado_108049" data-name="Trazado 108049" d="M127.075,208.555l-1.493-1.5-.452-4.343h-2.7l-1.493,5.845Z" transform="translate(-69.314 -61.177)" fill="#58bfba"/>
      <path id="Trazado_108050" data-name="Trazado 108050" d="M125.4,240.736l-.751-13.03L123.3,217.373l-.153-5.393L123,204.19l-1.195,5.7L120,218.269l.444,15.726s.605,10.341.605,10.785.9,5.312,1.38,7.839l3.229-.057Z" transform="translate(-69.133 -61.462)" fill="#58bfba"/>
      <path id="Trazado_108051" data-name="Trazado 108051" d="M146.5,232.788l-2.85-8.388-1.13-1.946L138.7,219.67l.46.541,3.14,7.04,1.5,7.484-.452,6.587-1.493,6.442-1.655,5.247-1.671,2.365,3.609-.065,3.156-5.748,1.647-8.533Z" transform="translate(-72.704 -64.446)" fill="#58bfba"/>
      <path id="Trazado_108052" data-name="Trazado 108052" d="M146.925,258.6l3-2.4,4.8-7.185-1.5-9.889-1.171-2.115.727,4.658-.751,7.645-3,6.135L146.19,258.6Z" transform="translate(-74.18 -67.787)" fill="#58bfba"/>
      <path id="Trazado_108053" data-name="Trazado 108053" d="M116.088,246.41l-1.493-4.941-1.049-9.736L114.893,222l.3-4.8,2.85-5.086,2.842-6.3-1.058-.17-1.041,4.069-2.494,1.889-.646,1.4-2.551,3.14-2.543,7.492.145,13.482,1.2,10.931,3.56,4.941,2.3-.048Z" transform="translate(-67.312 -61.744)" fill="#58bfba"/>
      <path id="Trazado_108054" data-name="Trazado 108054" d="M110.469,255.289l-3.617-5-1.2-4.787-.743-8.84.743-11.084,3-6.741,1.461-1.59-5.094,4.206L104,223.337l-1.792,4.8-.751,12.876,1.946,9.591,5.078,4.723Z" transform="translate(-65.56 -63.979)" fill="#58bfba"/>
      <path id="Trazado_108055" data-name="Trazado 108055" d="M98.719,251.148l-2.543-7.936v-9.736l3.512-7.136-1.566,1.292-4.642,8.686,1.8,11.536,4.335,7.185,3.754,2.1.42-.008Z" transform="translate(-64.022 -65.731)" fill="#58bfba"/>
      <path id="Trazado_108056" data-name="Trazado 108056" d="M133.527,221.107l-3-7.039-3.294-3.746-1.8-2.4-.452-2.244-.9.145.3,2.252,2.1,4.488,2.7,8.84,1.195,8.832,1.049,9.889-1.049,7.637-.735,5.029,3.148-.057,3.132-11.56-.3-10.632Z" transform="translate(-69.921 -61.75)" fill="#58bfba"/>
      <path id="Trazado_108057" data-name="Trazado 108057" d="M143.86,244.75l-2.268,1.558-9.292,2.1-13.474.3-17.373-1.2-7.023-2.7,1.033,6.6,4.335,7.185,3.754,2.1,33.4-.6,3-2.4,4.8-7.185Z" transform="translate(-64.205 -69.279)" fill="#a5ceca"/>
      <path id="Trazado_108058" data-name="Trazado 108058" d="M94.43,244.82l1.033,6.6L99.8,258.6l3.754,2.1.42-.008-5.07-5.982-2.543-7.936v-1.211Z" transform="translate(-64.205 -69.293)" fill="#429b94"/>
      <path id="Trazado_108059" data-name="Trazado 108059" d="M101.64,247.59l1.8,8.856,5.078,4.723,1.986-.032-3.617-5-1.2-4.787-.266-3.116-2.575-.186Z" transform="translate(-65.595 -69.826)" fill="#429b94"/>
      <path id="Trazado_108060" data-name="Trazado 108060" d="M112.02,256.357l3.56,4.941,2.3-.048-1.671-6.539-1.493-4.941-.089-.815-3.447-.234Z" transform="translate(-67.433 -70.044)" fill="#429b94"/>
      <path id="Trazado_108061" data-name="Trazado 108061" d="M121,249.4c.121,2.091.218,3.915.218,4.093,0,.339.9,5.312,1.38,7.839l3.229-.057-.266-11.714-1.615.04Z" transform="translate(-69.326 -70.175)" fill="#429b94"/>
      <path id="Trazado_108062" data-name="Trazado 108062" d="M137.251,249.59l-.008-.25-4.61.1-.928,6.741-.735,5.029,3.148-.057Z" transform="translate(-71.247 -70.164)" fill="#429b94"/>
      <path id="Trazado_108063" data-name="Trazado 108063" d="M145.3,254.952l1.413-7.322-3.77.848-1.082,4.674L140.2,258.4l-1.671,2.365,3.609-.065Z" transform="translate(-72.704 -69.834)" fill="#429b94"/>
      <path id="Trazado_108064" data-name="Trazado 108064" d="M153.835,244.75l-1.316.9-.5,5.15-3,6.135L146.19,260.1l.735-.008,3-2.4,4.8-7.185Z" transform="translate(-74.18 -69.279)" fill="#429b94"/>
      <path id="Trazado_108065" data-name="Trazado 108065" d="M123.355,197.93l-2.075,1.7,2.075,1.881,1.7-.751-.751-2.26Z" transform="translate(-69.38 -60.256)" fill="#ffb64d"/>
      <path id="Trazado_108066" data-name="Trazado 108066" d="M122.98,181.03l.864,15.855.218-15.855Z" transform="translate(-69.707 -56.999)" fill="#ffb64d"/>
      <path id="Trazado_108067" data-name="Trazado 108067" d="M120.02,184.748l5.425-.218-.218,1.518-5.207-.218Z" transform="translate(-69.137 -57.674)" fill="#ffb64d"/>
      <path id="Trazado_108068" data-name="Trazado 108068" d="M120.82,191.52l4.351,1.526.21,1.3-4.561-1.736Z" transform="translate(-69.291 -59.021)" fill="#ffb64d"/>
      <path id="Trazado_108069" data-name="Trazado 108069" d="M213.654,290.9l32.655-7.492v31.153l-2.1,28.457-8.686-.3L210.36,304.383Z" transform="translate(-86.547 -76.729)" fill="#c83737"/>
      <path id="Trazado_108070" data-name="Trazado 108070" d="M362.157,274.02l-.2,59.707-15.774-2.4-1-55.315Z" transform="translate(-112.529 -74.92)" fill="#ffbfb6"/>
      <path id="Trazado_108071" data-name="Trazado 108071" d="M336.918,203.819l-1.8,6.394-6.789,7.185-9.187,7.992-4.392,9.187v24.558l14.378,5.594,14.58,1.8,13.578-1.2,8.589-5.393,2.6-21.764-10.188-14.184L346.7,215.4l-5.8-6.991-2.188-5.393Z" transform="translate(-106.665 -61.237)" fill="#f1cdcd"/>
      <path id="Trazado_108072" data-name="Trazado 108072" d="M359.885,257.313c-.807.2-13.183,1.2-13.183,1.2l-17.97-.4L314.75,253.68V268.9l14.378,5.594,14.58,1.8,13.578-1.2,8.59-5.393,1.752-14.717C364.527,255.924,360.378,257.167,359.885,257.313Z" transform="translate(-106.665 -71)" fill="#e39b9b"/>
      <path id="Trazado_108073" data-name="Trazado 108073" d="M328.02,235.99l-4.989,7.387-7.387,6.192-4.2,7.387-1.4,10.583,5.191,8.985,10.583,3.592,5-1.4H342.4l3.6.4,5.788-5.393,1.195-8.791-3.592-10.583-6.184-6.789-7.992-4.593-4.593-5.99-.6-2.591-1.6-.2Z" transform="translate(-105.759 -67.244)" fill="#baba56"/>
      <path id="Trazado_108074" data-name="Trazado 108074" d="M342.4,285.621l3.6.4,5.788-5.393,1.195-8.791L352.36,270l-2.769,2.042-13.78,3.794-18.971-1.4-6.256-4.012-.533,4.012,5.191,8.985,10.583,3.592,5-1.4Z" transform="translate(-105.759 -74.145)" fill="#a3a048"/>
      <path id="Trazado_108075" data-name="Trazado 108075" d="M322.42,290.171l7.984-1.6,10.785-1.2,7.588,1.4.2,29.95,3.794,3.592,3.2,1-.605,10.382,5,1.6,2.2,3.4.4,7.185-.8,5.2-.791,8.581-32.558-.4Z" transform="translate(-108.143 -77.493)" fill="#e39b9b"/>
      <path id="Trazado_108076" data-name="Trazado 108076" d="M402.19,384.71h13.183l2.7.3,2.1,1.2,1.8,14.975,10.487,1.8,10.18.3,1.792,35.642-23.96,6.587-17.373.9Z" transform="translate(-123.516 -96.252)" fill="#e39b9b"/>
      <path id="Trazado_108077" data-name="Trazado 108077" d="M411.062,446.739l-7.952.509.161,10.971,17.373-.9,23.96-6.587-.242-4.787-11.141,1Z" transform="translate(-123.693 -108.052)" fill="#c83737"/>
      <path id="Trazado_108078" data-name="Trazado 108078" d="M426.7,405.14l-.331,43.973,22.717-6.248-1.792-35.642-10.18-.3Z" transform="translate(-128.176 -100.189)" fill="#ffbfb6"/>
      <path id="Trazado_108079" data-name="Trazado 108079" d="M426.443,446.836l-.073,10.139,22.717-6.248-.242-4.787-11.141,1Z" transform="translate(-128.176 -108.052)" fill="#e39b9b"/>
      <path id="Trazado_108080" data-name="Trazado 108080" d="M368.586,366.543l11.681-1.493,10.785,1.493,1.8,1.5-.9,5.094-24.259,1.493Z" transform="translate(-116.867 -92.463)" fill="#c83737"/>
      <path id="Trazado_108081" data-name="Trazado 108081" d="M366.58,371.73l14.071.3,9.292.3,6.886,1.792,1.8,5.094.6,67.4-15.274.6-14.378.6Z" transform="translate(-116.653 -93.75)" fill="#e39b9b"/>
      <path id="Trazado_108082" data-name="Trazado 108082" d="M111.767,387.944l-.6,58.5,5.586.8,7.193-.2,15.371,1,13.587,2.2,16.372-2.4,27.561.4,21.563-1.8,18.576,3.6,47.129.6,38.338-1.5,1.5-1.792,1.8-65.907.291-9.881-35.94-1.8-35.343-.9-24.566-1.8-47.032-2.4-21.861,14.386-26.665,1.195Z" transform="translate(-67.431 -92.39)" fill="#c83737"/>
      <path id="Trazado_108083" data-name="Trazado 108083" d="M239.78,96.35,226,132.29l-5.99,17.373,47.63.3L256.556,110.72l-5.094-16.17Z" transform="translate(-88.407 -40.333)" fill="#d86450"/>
      <path id="Trazado_108084" data-name="Trazado 108084" d="M232.894,122.157l8.961-25.777-2.075.323L226,132.643l-5.99,17.373,3.673.024Z" transform="translate(-88.407 -40.686)" fill="#c45243"/>
      <path id="Trazado_108085" data-name="Trazado 108085" d="M233.7,150l3.649.024,9.574-54.1-2.809.428Z" transform="translate(-91.045 -40.597)" fill="#c45243"/>
      <path id="Trazado_108086" data-name="Trazado 108086" d="M247.26,149.943l5.562.04V95.29l-3.948.605Z" transform="translate(-93.658 -40.476)" fill="#c45243"/>
      <path id="Trazado_108087" data-name="Trazado 108087" d="M257.3,94.76l14.644,55.186,2.882.016L263.742,110.72l-5.094-16.17Z" transform="translate(-95.593 -40.333)" fill="#c45243"/>
      <path id="Trazado_108088" data-name="Trazado 108088" d="M241.16,68l1.946,19.028,13.03.145L255.691,68.9,247.15,65.61Z" transform="translate(-92.483 -34.756)" fill="#c83737"/>
      <path id="Trazado_108089" data-name="Trazado 108089" d="M256.03,87.718l2.971.032-.444-18.269-2.268-.872Z" transform="translate(-95.348 -35.334)" fill="#e39b9b"/>
      <path id="Trazado_108090" data-name="Trazado 108090" d="M243.106,87.434l1.348.016L242.88,67.72l-1.719.686Z" transform="translate(-92.483 -35.162)" fill="#e39b9b"/>
      <path id="Trazado_108091" data-name="Trazado 108091" d="M240.79,93.574l1.195-2.244,1.946-1.049,7.338.452,5.546.6.6,2.244-.145,4.343-2.85-1.647-6.442.153-5.538,2.4-1.2-2.7Z" transform="translate(-92.411 -39.51)" fill="#e39b9b"/>
      <path id="Trazado_108092" data-name="Trazado 108092" d="M242.031,91.329l-1,1.881,3.851-1.284,6.587.3,5.974,1.3-.581-2.2-5.546-.6-7.338-.452Z" transform="translate(-92.458 -39.51)" fill="#ffbfb6"/>
      <path id="Trazado_108093" data-name="Trazado 108093" d="M254.344,95.48h-7.338l-5.046,2.769.7,1.574,5.538-2.4,6.442-.153,2.85,1.647.065-1.994Z" transform="translate(-92.637 -40.512)" fill="#c83737"/>
      <path id="Trazado_108094" data-name="Trazado 108094" d="M246.2,44.46l-4.65,5.239L236.6,54.793l-1.195,7.782,2.7,3.746,3.294-.444,4.044-1.5,6.442,1.2,4.19.9,2.1-3.9-1.049-6.587L252.185,50l-4.8-4.8Z" transform="translate(-91.375 -30.68)" fill="#ffb64d"/>
      <path id="Trazado_108095" data-name="Trazado 108095" d="M248.187,40.38l-1.647,1.34,1.647,1.5,1.348-.6-.6-1.8Z" transform="translate(-93.52 -29.893)" fill="#ffb64d"/>
      <path id="Trazado_108096" data-name="Trazado 108096" d="M247.84,27.39l.6,10.931.153-10.931Z" transform="translate(-93.77 -27.39)" fill="#ffb64d"/>
      <path id="Trazado_108097" data-name="Trazado 108097" d="M245.8,29.953l3.746-.153-.153,1.049L245.8,30.7Z" transform="translate(-93.377 -27.854)" fill="#ffb64d"/>
      <path id="Trazado_108098" data-name="Trazado 108098" d="M246.35,34.62l3,1.049.145.9-3.148-1.2Z" transform="translate(-93.483 -28.783)" fill="#ffb64d"/>
      <path id="Trazado_108099" data-name="Trazado 108099" d="M256.924,65.7l-5.837-2.1S243.3,63,242.845,63s-4.642,1.348-4.642,1.348l-1.493,3.229,1.615,2.285,3.294-.444,4.036-1.5,6.458,1.2,4.206.928,1.518-2.834Z" transform="translate(-91.625 -34.253)" fill="#db902e"/>
      <path id="Trazado_108100" data-name="Trazado 108100" d="M210.12,163.333l9.582-8.993,15.976,3.794,7.387-9.784,11.181,9.187,16.574,1-2.591,3.592.2,22.967L217.5,183.3v-9.389Z" transform="translate(-86.501 -50.701)" fill="#e39b9b"/>
      <path id="Trazado_108101" data-name="Trazado 108101" d="M268.228,162.13l2.591-3.592-16.574-1-11.181-9.187-7.387,9.784L219.7,154.34l-9.582,8.993,4.472,6.41,6.91-7.815,14.773,2.6,7.387-6.6,7.588,6.394,16.993-.178Z" transform="translate(-86.501 -50.701)" fill="#ffbfb6"/>
      <path id="Trazado_108102" data-name="Trazado 108102" d="M254.246,157.537l-11.181-9.187-7.387,9.784L219.7,154.34l-9.582,8.993,2.236,3.2,7.54-8.606,14.983,3.2,8.186-9.389,9.784,8.186,16.436.735,1.534-2.131Z" transform="translate(-86.501 -50.701)" fill="#e39b9b"/>
      <path id="Trazado_108103" data-name="Trazado 108103" d="M224.22,164.19l.6,7.984.4,15.572,1.4.4.4-23.96Z" transform="translate(-89.218 -53.754)" fill="#ffbfb6"/>
      <path id="Trazado_108104" data-name="Trazado 108104" d="M242.76,164.981l.2,9.784.8,13.587,2-.2-.4-23.96Z" transform="translate(-92.791 -53.754)" fill="#ffbfb6"/>
      <path id="Trazado_108105" data-name="Trazado 108105" d="M259.292,163.44l-.2,24.961,2.6-.194V175.218l.6-10.777Z" transform="translate(-95.938 -53.609)" fill="#ffbfb6"/>
      <path id="Trazado_108106" data-name="Trazado 108106" d="M216.05,188.348l4.19-3.4,4.2,1.6,6.192-5.191,5.191-.6,4.593,1.6,3.794,4.989,6.386-5.99h5l5.99,3.391,1.4,3.794,4.593-3.189,4.2,1.6-.4,8.985-1.4,26.753-.2,4.8L235.223,217.9,217.648,219.9l1.6-9.784-1-13.78Z" transform="translate(-87.644 -56.947)" fill="#e39b9b"/>
      <path id="Trazado_108107" data-name="Trazado 108107" d="M228.67,187.883l4-4.2,3.988-1.195,5.594,1.6,3.391,4.593-.8.4-4.8-3.592H234.66l-3.592,1.994-2.4,1.994Z" transform="translate(-90.076 -57.28)" fill="#ffbfb6"/>
      <path id="Trazado_108108" data-name="Trazado 108108" d="M252.42,188.935l4.593-3.592,3.189-.993,3.891,1.292,2.4,1.7,1.8,2.494v3.7l-1.292-.3-1.6-3.891-3.2-1.9-3.1.5-5.586,2.4Z" transform="translate(-94.653 -57.639)" fill="#ffbfb6"/>
      <path id="Trazado_108109" data-name="Trazado 108109" d="M227.512,197.88l1.9-3.794,3.689-2.2,6.2.2,4.287,2.793,1.4,5.094-.4,1.1h-1l-2.7-4.093-2.2-1.2-3.794-.1-2.793.9-2.9,2.1-1.6,1.195-.8-.791Z" transform="translate(-89.717 -59.092)" fill="#ffbfb6"/>
      <path id="Trazado_108110" data-name="Trazado 108110" d="M250.69,200.517l.1,1.1,2.793-.3,2.9-4.69,4.093-.5,2.293,1.994,1.905,4.2.1,1.9h.8l.1-4.892-2.1-4.892-3.391-1.3-4.787.1-2.6,2.495Z" transform="translate(-94.319 -59.331)" fill="#ffbfb6"/>
      <path id="Trazado_108111" data-name="Trazado 108111" d="M226.32,211.875l3.2-4.892,6.886-.492,5.393,1.9,1.195,1.994.2,3.5-.1,2.39-1.8-.3-.7-2.591-4.488-2.9-3.592.1-2.7,1.606-1.195,2.7h-1.2Z" transform="translate(-89.623 -61.906)" fill="#ffbfb6"/>
      <path id="Trazado_108112" data-name="Trazado 108112" d="M249.07,216.441l3.2-4.69,5.393-2.3,5.691,1.5.8,3.794-1.195,2.591-4.5-2.591-4.69.4-2.591,2.3Z" transform="translate(-94.007 -62.476)" fill="#ffbfb6"/>
      <path id="Trazado_108113" data-name="Trazado 108113" d="M246.97,206.575l.8,1.7.5,2.793.9.5,2-2.39,1.195-2.2-1.7-1.4-2.495-.694Z" transform="translate(-93.602 -61.595)" fill="#ffbfb6"/>
      <path id="Trazado_108114" data-name="Trazado 108114" d="M247.96,192.965l1.195,1.994.509,2.3.694-.4,1.1-2.591.1-1.8-2-.694Z" transform="translate(-93.793 -59.069)" fill="#ffbfb6"/>
      <path id="Trazado_108115" data-name="Trazado 108115" d="M224.914,220.074l-.178-8.662-.3-8.686.1-10.285-.073-4.908-.024.016-4.2-1.6-4.19,3.4,2.2,7.984,1,13.78-1.6,9.784Z" transform="translate(-87.644 -57.947)" fill="#c83737"/>
      <path id="Trazado_108116" data-name="Trazado 108116" d="M216.48,191.188l.767,2.761.484-1.033,3.294-1.5,3.294.2-.2-1.493-2.987-1.2-3.1.8Z" transform="translate(-87.726 -58.52)" fill="#e39b9b"/>
      <path id="Trazado_108117" data-name="Trazado 108117" d="M218.02,196.989l.549,1.986,2.454-.081,1.9,3.2,1.4-.7-.307-1.195-.993-2.6-2.8-1.994Z" transform="translate(-88.023 -59.807)" fill="#e39b9b"/>
      <path id="Trazado_108118" data-name="Trazado 108118" d="M219.753,213.578l1.453.694,1.4,2.495,2-.2-.5-1.9-2.4-4.787-2.236-.291Z" transform="translate(-88.303 -62.503)" fill="#e39b9b"/>
      <path id="Trazado_108119" data-name="Trazado 108119" d="M220.617,190.53l-2.688,1.195-.969,1.162.379,1.372.484-1.033,3.294-1.5,3.294.2-.145-1.122-.848-.178Z" transform="translate(-87.819 -58.83)" fill="#d86450"/>
      <path id="Trazado_108120" data-name="Trazado 108120" d="M223.61,202.252l-1.13-2.785-1.3-1.292-1.9-.1-.953.307.3,1.074,2.454-.081,1.9,3.2Z" transform="translate(-88.083 -60.283)" fill="#d86450"/>
      <path id="Trazado_108121" data-name="Trazado 108121" d="M222.526,214.279l-1.493-1.994-1.413-.565.161,2.268,1.453.694,1.4,2.495.638-.065Z" transform="translate(-88.332 -62.914)" fill="#d86450"/>
      <path id="Trazado_108122" data-name="Trazado 108122" d="M242.227,197.056l-3-2.172-4.569-.525-4.044,2.026-3.358,3.536.436.428,1.6-1.195,2.9-2.1,2.793-.9,3.794.1,2.2,1.2,2.7,4.093h.8Z" transform="translate(-89.804 -59.568)" fill="#c83737"/>
      <path id="Trazado_108123" data-name="Trazado 108123" d="M241.522,213.985l-1.493-2.4-4.044-1.267h-4.044l-3.068,1.719-1.752,2.333.452,1.243h1.2l1.195-2.7,2.7-1.606,3.592-.1,4.488,2.9.7,2.591.638.113Z" transform="translate(-89.777 -62.644)" fill="#c83737"/>
      <path id="Trazado_108124" data-name="Trazado 108124" d="M265.132,200.333l-.936-2.616-2.47-2.422s-2.85-.226-3.3-.226a29.137,29.137,0,0,0-2.995.751l-2.244,3.673-.735,2.333,1.51-.161,2.9-4.69,4.093-.5,2.293,1.994,1.905,4.2.1,1.9h.226Z" transform="translate(-94.659 -59.705)" fill="#c83737"/>
      <path id="Trazado_108125" data-name="Trazado 108125" d="M264.2,215.608l-2.995-2.39-2.922-.678-4.569,1.728-3.746,3.108,1.38.662,2.591-2.3,4.69-.4,4.5,2.591Z" transform="translate(-94.181 -63.072)" fill="#c83737"/>
      <path id="Trazado_108126" data-name="Trazado 108126" d="M211.1,229.3l10.333-4.8,3.3-1.647,5.683-.3,10.188,1.647,18.576,5.546,3.294,1.041-.3,25.914-15.726,17.074-13.926,5.845-13.336,2.543L215,280.378l-.3-25.914Z" transform="translate(-86.69 -65.003)" fill="#c83737"/>
      <path id="Trazado_108127" data-name="Trazado 108127" d="M251.282,273.819l15.726-17.074.3-25.914-3.294-1.041-18.576-5.546-9.268-1.493.283,16.323,1.5,19.318-.573,21.256Z" transform="translate(-91.521 -65.039)" fill="#d86450"/>
      <path id="Trazado_108128" data-name="Trazado 108128" d="M240.606,224.207l-10.188-1.647-5.683.3-3.3,1.647L211.1,229.3l.67,4.674,7.274-4.674,8.985-2.1,3.439-.6,6.741,2.1L250.487,232l11.94,3.116.048-4.319-3.294-1.041Z" transform="translate(-86.69 -65.003)" fill="#d86450"/>
      <path id="Trazado_108129" data-name="Trazado 108129" d="M245.438,224.243l-9.268-1.493.073,3.907.057-.016,6.741,2.1,12.279,3.294,11.94,3.116.048-4.319-3.294-1.041Z" transform="translate(-91.521 -65.039)" fill="#c45243"/>
      <path id="Trazado_108130" data-name="Trazado 108130" d="M181.91,270.8v7.387l.605,9.389v2.793l14.176-.993,9.986.194,5.99.605.2-18.18-14.58.4-12.779-.8Z" transform="translate(-81.064 -74.299)" fill="#e39b9b"/>
      <path id="Trazado_108131" data-name="Trazado 108131" d="M194.184,282.108l-.751-2.252-1.146-.9-1.8.605-.347,3.592.266,8.339,3.915-.274Z" transform="translate(-82.65 -75.872)" fill="#ffbfb6"/>
      <path id="Trazado_108132" data-name="Trazado 108132" d="M201.359,278.78l-1.792,1.946-.137,10.228.638-.04,3.181.057.517-6.5-.9-4.2Z" transform="translate(-84.441 -75.837)" fill="#ffbfb6"/>
      <path id="Trazado_108133" data-name="Trazado 108133" d="M213.249,279.33l-1.348,1.2L211.36,291.2l.993.016,2.842.283V287.12l-.3-6.587Z" transform="translate(-86.74 -75.943)" fill="#ffbfb6"/>
      <path id="Trazado_108134" data-name="Trazado 108134" d="M161.38,334.511l7.79-26.56,8.783-15.379,12.384-.993,14.975.6,4.8.6,10.979,21.571,8.791,19.762.6,17.583-69.1-1.4Z" transform="translate(-77.108 -78.304)" fill="#67c190"/>
      <path id="Trazado_108135" data-name="Trazado 108135" d="M219.526,308.524l-5.3-10.4-16.364-1.106-15.782.6-4.61.242-6.087,10.648,20.085-1.106,21.571.8Z" transform="translate(-79.035 -79.352)" fill="#4faa76"/>
      <path id="Trazado_108136" data-name="Trazado 108136" d="M224.549,323.428l-2.422-5.247-2.616-4.981H202.292l-15.177.194-17.478.767-2.817,10.067,16.436-.2s20.182.145,21.571.129,16.146,0,16.146,0Z" transform="translate(-78.156 -82.471)" fill="#4faa76"/>
      <path id="Trazado_108137" data-name="Trazado 108137" d="M229.878,341.229l-5.643-12.7-18.721.92-16.977-.194-16.17-.2-7.257-.137-3.73,12.715v1.784l22.765-.186,24.767-.6,14.176-.6,6.813-.161Z" transform="translate(-77.108 -85.425)" fill="#4faa76"/>
      <path id="Trazado_108138" data-name="Trazado 108138" d="M229.975,347.85l-8.888.307-16.17.194-22.765.6-20.771.186v12l69.1,1.4Z" transform="translate(-77.108 -89.148)" fill="#c83737"/>
      <path id="Trazado_108139" data-name="Trazado 108139" d="M175.48,307.5l6.289-.452,7.346-.452,5.683-.153-2.7-5.99-6.886-1.647-4.642,1.647-3.891,4.5Z" transform="translate(-79.825 -79.697)" fill="#e39b9b"/>
      <path id="Trazado_108140" data-name="Trazado 108140" d="M200.9,306.341l1.348-5.086,4.5-3,5.239.444,3.592,3.9.452,4.19Z" transform="translate(-84.724 -79.591)" fill="#e39b9b"/>
      <path id="Trazado_108141" data-name="Trazado 108141" d="M188.66,322.716l2.842-6.289,3.746-2.4h6.886l4.351,2.7,2.091,6.886Z" transform="translate(-82.365 -82.63)" fill="#e39b9b"/>
      <path id="Trazado_108142" data-name="Trazado 108142" d="M171.4,341.243l1.8-5.691,5.538-4.2,5.845-.444,4.488,1.348,3.447,5.837,1.195,3.746Z" transform="translate(-79.039 -85.884)" fill="#e39b9b"/>
      <path id="Trazado_108143" data-name="Trazado 108143" d="M201.27,341.613l1.8-6.741,4.19-3.294,7.637-.3,4.343,3.294,1.946,6.741Z" transform="translate(-84.795 -85.955)" fill="#e39b9b"/>
      <path id="Trazado_108144" data-name="Trazado 108144" d="M228.377,307.8l-3.617-7.1-2.745,1.171-.9,4.941Z" transform="translate(-88.621 -80.062)" fill="#e39b9b"/>
      <path id="Trazado_108145" data-name="Trazado 108145" d="M215.19,323.266l3.891.153,10.333-.153,3.851-.436-1.808-4.053-2.083-4.093-2.656-.1-4.19.452-4.2,2.85Z" transform="translate(-87.478 -82.736)" fill="#e39b9b"/>
      <path id="Trazado_108146" data-name="Trazado 108146" d="M169.063,316.833l-1.873,6.386h16.283l-.605-2.842-3.738-3.294-5.546-1.2Z" transform="translate(-78.227 -82.987)" fill="#e39b9b"/>
      <path id="Trazado_108147" data-name="Trazado 108147" d="M236.378,329.98l-3.148,1.5-3.746,3.439-1.493,6,9.13-.452,5.029-.226-4.561-10.261Z" transform="translate(-89.945 -85.704)" fill="#e39b9b"/>
      <path id="Trazado_108148" data-name="Trazado 108148" d="M168.019,341.259l-.291-2.543-1.647-6.6-1.389-1.13-3.043,10.39Z" transform="translate(-77.16 -85.899)" fill="#e39b9b"/>
      <path id="Trazado_108149" data-name="Trazado 108149" d="M235.018,333.522l-3,3.592-.985,4.077,6.676-.331,5.029-.226-3.827-8.614Z" transform="translate(-90.531 -86.097)" fill="#c83737"/>
      <path id="Trazado_108150" data-name="Trazado 108150" d="M202.94,342.133l17.147-.258-1.122-3.471-2.244-2.543-3.891-1.8-4.949.452-4.044,3.891Z" transform="translate(-85.117 -86.491)" fill="#c83737"/>
      <path id="Trazado_108151" data-name="Trazado 108151" d="M224.13,317.336l-3.891,2.4L217.3,323.7l2.188.081,10.333-.153,3.851-.436-1.808-4.053-.993-1.97-1.8-.727Z" transform="translate(-87.885 -83.095)" fill="#c83737"/>
      <path id="Trazado_108152" data-name="Trazado 108152" d="M190.24,323.237l16.969.767-.42-2.026-1.356-3.294-3.746-2.244-4.941.145-3.891,2.551Z" transform="translate(-82.67 -83.095)" fill="#c83737"/>
      <path id="Trazado_108153" data-name="Trazado 108153" d="M180.777,321.475l-1.647-2.1-4.351-.9-6.273.735-1.316,4.5h14.257Z" transform="translate(-78.227 -83.488)" fill="#c83737"/>
      <path id="Trazado_108154" data-name="Trazado 108154" d="M191.785,342.428l-2.123-6.232-5.691-1.946-5.99.751-3.294,3.592-1.017,3.342Z" transform="translate(-79.476 -86.527)" fill="#c83737"/>
      <path id="Trazado_108155" data-name="Trazado 108155" d="M191.89,303.509l-2.85-1.792-4.5-.307-3.746,1.946-3.358,4.529,4.706-.331,7.346-.452,3.746-.1Z" transform="translate(-80.203 -80.198)" fill="#c83737"/>
      <path id="Trazado_108156" data-name="Trazado 108156" d="M214.79,307.217l-.283-2.2-1.792-2.85-3-1.493-4.5.751-2.551,3.14-.323,2.285Z" transform="translate(-85.003 -80.056)" fill="#c83737"/>
      <path id="Trazado_108157" data-name="Trazado 108157" d="M107.77,266.782v9.437l1.041,13.03.605,4.19,9.437,1.8,13.926-.153,4.343-2.244-.452-15.274.145-10.785-9.582-2.842-10.632.444Z" transform="translate(-66.776 -72.977)" fill="#c83737"/>
      <path id="Trazado_108158" data-name="Trazado 108158" d="M118.73,264.384,119,294.867l1.962.371,11.625-.129-.662-30.41-2.583-.759Z" transform="translate(-68.888 -72.977)" fill="#e39b9b"/>
      <path id="Trazado_108159" data-name="Trazado 108159" d="M142.1,266.97l.274,27.165,1.364-.71-.452-15.274.145-10.785Z" transform="translate(-73.392 -73.561)" fill="#d86450"/>
      <path id="Trazado_108160" data-name="Trazado 108160" d="M110.014,276.335l-.549-9.445-1.7.46v9.437l1.041,13.03.605,4.19,1.534.291Z" transform="translate(-66.776 -73.546)" fill="#d86450"/>
      <path id="Trazado_108161" data-name="Trazado 108161" d="M113.594,285.082l-.444-9.429.3-2.252,1.792-.751.3,2.4-.145,10.188Z" transform="translate(-67.813 -74.656)" fill="#e39b9b"/>
      <path id="Trazado_108162" data-name="Trazado 108162" d="M126.13,284.268l.153-7.645.444-4.044,1.348-.3.9,1.8-.153,9.881Z" transform="translate(-70.314 -74.585)" fill="#ffbfb6"/>
      <path id="Trazado_108163" data-name="Trazado 108163" d="M137.6,284.379l-.145-7.185.145-4.053,1.2-1.041,1.049,1.348-.3,11.229Z" transform="translate(-72.496 -74.55)" fill="#e39b9b"/>
      <path id="Trazado_108164" data-name="Trazado 108164" d="M106.712,267.8l8.993-3.447,6.442.153,6.886.145,6.886,1.647,3.9-3.891v-2.244l-7.338-4.941-15.879.145-11.383,5.094L103.87,262.7Z" transform="translate(-66.025 -71.297)" fill="#c83737"/>
      <path id="Trazado_108165" data-name="Trazado 108165" d="M105.538,260.509l-.008.016,3.56,6.531,6.935-2.656h.032l.727-8.92Z" transform="translate(-66.344 -71.347)" fill="#d86450"/>
      <path id="Trazado_108166" data-name="Trazado 108166" d="M145.825,261.145v-.985l-7.338-4.941H137.7l-2.656,9.429,6.127,1.469Z" transform="translate(-72.032 -71.297)" fill="#d86450"/>
      <path id="Trazado_108167" data-name="Trazado 108167" d="M139.818,260.161l-7.338-4.941-15.879.145-11.383,5.094L103.87,262.7l.815,1.453,1.429-2.349,10.188-4.642h14.822l7.645,4.941.379.961.67-.662Z" transform="translate(-66.025 -71.297)" fill="#d86450"/>
      <path id="Trazado_108168" data-name="Trazado 108168" d="M105.538,260.509l-.008.016.807,1.485.1-.153,10.188-4.642h.016l.145-1.736Z" transform="translate(-66.344 -71.347)" fill="#c45243"/>
      <path id="Trazado_108169" data-name="Trazado 108169" d="M146.328,260.161l-7.338-4.941H138.2l-.549,1.954,7.629,4.932.048.113,1-1.074Z" transform="translate(-72.535 -71.297)" fill="#c45243"/>
      <path id="Trazado_108170" data-name="Trazado 108170" d="M270.683,219.564l-3.746-.153-5.094-4.642-1.954-7.04,1.348-10.035,8.493-10.688,8.291-7.282,4.941-4.941,2.543-5.094,1.5.145,2.543,5.538,10.64,10.939,12.876,12.731,1.348,8.985-.9,7.04-5.393,5.845-2.4-.6-7.79-2.7-8.985-1.8-12.133,1.5Z" transform="translate(-96.092 -54.814)" fill="#d84035"/>
      <path id="Trazado_108171" data-name="Trazado 108171" d="M271.77,229.884l.3,10.785.145,14.224,16.63,1.049,19.173.145,1.049-26.358-17.679-4.941-15.871,2.842Z" transform="translate(-98.382 -65.432)" fill="#c83737"/>
      <path id="Trazado_108172" data-name="Trazado 108172" d="M313.02,257.041l2.947.024,1.049-26.358-3.035-.848Z" transform="translate(-106.331 -66.409)" fill="#d86450"/>
      <path id="Trazado_108173" data-name="Trazado 108173" d="M275.516,228.173l-3.746,2.252.3,10.785.145,14.224,5.554.347.145-16.073.84-12.109Z" transform="translate(-98.382 -65.974)" fill="#e39b9b"/>
      <path id="Trazado_108174" data-name="Trazado 108174" d="M93.85,304.873l.452-7.039,2.244-5.691,2.85.145,1.792-2.995,2.7-1.792,4.044,2.543,3.592,8.541,2.7-5.546,4.642-3.148,7.338.605,3.148,4.488,2.4-4.343,4.044-.3,3.294,3.294,3.294,4.8-.153,8.388-42.084-2.551-4.787,1.2Z" transform="translate(-64.094 -77.518)" fill="#e39b9b"/>
      <path id="Trazado_108175" data-name="Trazado 108175" d="M139.492,290.912l-4.044.3-2.4,4.343-3.148-4.488-7.338-.605-4.642,3.148-2.7,5.546-2.155-5.134.509,3.931.452,2.7,2.1.153,3.439-6.143,4.941-2.244,3.447.751,3.294,2.987.9,3.455,2.7-4.949,3.738-1.946,2.551,1.348,4.924,5.724.016-.783-3.294-4.8Z" transform="translate(-67.798 -78.088)" fill="#67c190"/>
      <path id="Trazado_108176" data-name="Trazado 108176" d="M100.946,293.191l1.5-3.148,4.044-1.227-2.1-1.316-2.7,1.792L99.9,292.287l-2.85-.145-.565,1.437,1.913-.089,1.348,4.941v2.1Z" transform="translate(-64.602 -77.518)" fill="#67c190"/>
      <path id="Trazado_108177" data-name="Trazado 108177" d="M104.587,295.042l-1.647,4.65v5.748l8.089.492v-4l-1.195-5.546-2.1-3.14Z" transform="translate(-65.845 -78.626)" fill="#c83737"/>
      <path id="Trazado_108178" data-name="Trazado 108178" d="M132.052,307.764l-.428-3.883-1.493-5.393-3.6-1.348-4.19,1.5-2.1,4.488-.581,3.883Z" transform="translate(-69.068 -79.375)" fill="#c83737"/>
      <path id="Trazado_108179" data-name="Trazado 108179" d="M144.478,298.44l-3.9.9-1.639,5.393.153,3.479,10.325.622v-4.1l-2.091-4.65Z" transform="translate(-72.783 -79.626)" fill="#c83737"/>
      <path id="Trazado_108180" data-name="Trazado 108180" d="M97,301.326l-1.348-2.7-.872.121-.476,1.227-.452,7.04,1.5.6,1.768-.444Z" transform="translate(-64.094 -79.663)" fill="#c83737"/>
      <path id="Trazado_108181" data-name="Trazado 108181" d="M92.74,307.854l8.089-2.543,9.429-.751,19.48.9h4.182l10.495,3.592-1.5,3.294.444,26.366-1.041,23.96-15.128,7.04-18.874,2.4-11.229-7.193-.452-15.726-.145-15.274L95.735,315.8l-.6-3.447Z" transform="translate(-63.88 -80.805)" fill="#e39b9b"/>
      <path id="Trazado_108182" data-name="Trazado 108182" d="M142.913,312.528v-.178l1.5-3.294-10.495-3.592h-4.182l-19.48-.9-9.429.751-8.089,2.543,2.4,4.5.048.307,5.037-1.8,8.993-1.348H118.5l13.328,1.647Z" transform="translate(-63.88 -80.805)" fill="#d86450"/>
      <path id="Trazado_108183" data-name="Trazado 108183" d="M143.226,305.68h-.339l-1.857,5.675.1.016,11.084,1.372v-.178l1.5-3.294Z" transform="translate(-73.186 -81.021)" fill="#c45243"/>
      <path id="Trazado_108184" data-name="Trazado 108184" d="M114.95,309.518h7.831l11.181,1.38,1.025-5.425h-.969l-18.672-.864Z" transform="translate(-68.16 -80.815)" fill="#c45243"/>
      <path id="Trazado_108185" data-name="Trazado 108185" d="M102.244,305.317l-2.164.678,1.477,4.9.081-.032,8.993-1.348h.17l.581-4.924Z" transform="translate(-65.294 -80.811)" fill="#c45243"/>
      <path id="Trazado_108186" data-name="Trazado 108186" d="M124.663,313.1l-15.274-.743-7.039,1.647-6.369,1.1.379,2.2.751,18.123.145,15.274.452,15.726,11.229,7.193,18.874-2.4,15.128-7.04,1.041-23.96-.4-24.065L129.6,314.007Z" transform="translate(-64.504 -82.309)" fill="#ffbfb6"/>
      <path id="Trazado_108187" data-name="Trazado 108187" d="M139.86,314.74V325.4l.153,26.665,11.867,1.51.557-12.892-.4-24.065Z" transform="translate(-72.96 -82.767)" fill="#c83737"/>
      <path id="Trazado_108188" data-name="Trazado 108188" d="M128.3,313.124l-13.449-.654.42,13.837.751,25.163,17.825.3-.291-37.692-.315-.048Z" transform="translate(-68.141 -82.33)" fill="#c83737"/>
      <path id="Trazado_108189" data-name="Trazado 108189" d="M109.688,325.834l-.137-13.465-.161-.008-7.039,1.647-6.369,1.1.379,2.2.751,18.123.145,15.274.081,2.721,13.546-2.123Z" transform="translate(-64.504 -82.309)" fill="#c83737"/>
      <path id="Trazado_108190" data-name="Trazado 108190" d="M132.338,363.832l-20.666-.452L97.73,365.269l.315,10.987,11.229,7.193,18.874-2.4,15.128-7.04.355-8.283Z" transform="translate(-64.841 -92.141)" fill="#c83737"/>
      <path id="Trazado_108191" data-name="Trazado 108191" d="M140.038,352.531l11.867,1.51.436-10.059-1.074-9.13L147.53,317.18l-1.5.153-3.447,17.219-2.591,9.994Z" transform="translate(-72.986 -83.238)" fill="#e39b9b"/>
      <path id="Trazado_108192" data-name="Trazado 108192" d="M126.608,317.466l-.3-2.7h-1.647l-3,12.876-3.592,15.581-1.905,5.005.1,3.681,17.825.3-.032-4.319L130.5,334.54Z" transform="translate(-68.395 -82.773)" fill="#e39b9b"/>
      <path id="Trazado_108193" data-name="Trazado 108193" d="M110.982,347.792l-1-1.954-4.343-22.023-1.954-7.936h-1.348L97.5,346.573l.048,4.8.081,2.721,13.546-2.123Z" transform="translate(-64.797 -82.987)" fill="#e39b9b"/>
      <path id="Trazado_108194" data-name="Trazado 108194" d="M102.39,339.739l3-.3.444,16.331h-3.294Z" transform="translate(-65.739 -87.527)" fill="#ffbfb6"/>
      <path id="Trazado_108195" data-name="Trazado 108195" d="M126.13,337.112l.307,16.921,4.19.751-1.5-18.123Z" transform="translate(-70.314 -86.992)" fill="#ffbfb6"/>
      <path id="Trazado_108196" data-name="Trazado 108196" d="M146.1,338.224l-1.041,16.929h3.14l-.153-17.373Z" transform="translate(-73.963 -87.208)" fill="#ffbfb6"/>
      <path id="Trazado_108197" data-name="Trazado 108197" d="M294.728,174.631l-2.2-4.8-1.5-.145-2.47,4.941Z" transform="translate(-101.618 -54.814)" fill="#4faa76"/>
      <path id="Trazado_108198" data-name="Trazado 108198" d="M319.4,215.725l.573-8.4-5.247-10.931-8.533-7.338-5.546-5.99-4.488-5.99-.145-1.615h0l-2.543-5.538H293.4l.371,5.546,4.957,9.243,7.193,7.637s5.651,7.193,5.837,7.637,4.036,6.894,4.036,6.894l1.049,6.289-.573,5.974Z" transform="translate(-102.55 -54.858)" fill="#4faa76"/>
      <path id="Trazado_108199" data-name="Trazado 108199" d="M298.957,192.443l-6.741-10.18L290.4,171.22l-1.7,3.383-.234,2.721,3,7.637,2.543,6.442,6.894,8.38,4.941,7.645,1.8,7.637-.775,4.036,3.673,1.267.84-2.454v-6.741l-3.891-9.591Z" transform="translate(-101.6 -55.109)" fill="#4faa76"/>
      <path id="Trazado_108200" data-name="Trazado 108200" d="M293.748,200.817l-4.488-6.741-3.447-10.035.1-5.942-1.728,1.728-.161,3.463.444,4.343,2.1,6.587,3.447,6.741,4.642,5.239,2.4,6.442-.767,5.328,4.4.88.113-6.208-2.1-5.691Z" transform="translate(-100.743 -56.434)" fill="#4faa76"/>
      <path id="Trazado_108201" data-name="Trazado 108201" d="M292.455,215.25l-4.2-6.733-4.941-7.79-1.8-10.188.63-9.009-.476.476-1.711,1.518-1.138,4.634s.452,10.035.452,10.64,3.148,9.284,3.148,9.284l5.651,7.338.517,3.189,3.915-.484Z" transform="translate(-99.74 -57.095)" fill="#4faa76"/>
      <path id="Trazado_108202" data-name="Trazado 108202" d="M280.528,212.949c-.145-.452-3.891-8.832-3.891-8.832l-2.7-9.292,2.26-8.145-2.228,1.954-1.833,8.589.751,5.247,2.551,9.687,4.19,5.546.848,2.688,3.439-.428C282.8,217.728,280.641,213.288,280.528,212.949Z" transform="translate(-98.453 -58.088)" fill="#4faa76"/>
      <path id="Trazado_108203" data-name="Trazado 108203" d="M273.53,223.357l2.785-1.017c-1.219-1.978-2.745-4.48-2.834-4.747-.153-.452-3.447-6.886-3.447-6.886l-2.842-8.388,2.422-9.429-3.786,4.8-.719,1.937.751,9.429,5.094,11.237Z" transform="translate(-97.098 -59.285)" fill="#4faa76"/>
      <path id="Trazado_108204" data-name="Trazado 108204" d="M269.787,225.92l-2.543-2.212s-2.85-4.343-3-4.787-2.85-8.242-2.85-8.242l.807-7.8-.961,1.211-1.356,10.035,1.954,7.039,5.094,4.642Z" transform="translate(-96.092 -61.21)" fill="#4faa76"/>
      <path id="Trazado_108205" data-name="Trazado 108205" d="M313.849,222.1l-.823-1.114-11.375-3.148-13.336-2.7-16.622.6-11.213,2.454,1.477,5.336,5.094,4.642,3.746.153,6.135-2.244,12.133-1.5,8.985,1.8,7.79,2.7,2.4.6,5.393-5.845Z" transform="translate(-96.206 -63.573)" fill="#bc2824"/>
      <path id="Trazado_108206" data-name="Trazado 108206" d="M261.959,224.119l5.094,4.642,2.85.113-2.543-2.212s-2.85-4.343-3-4.787c-.073-.21-.646-1.881-1.267-3.665l-2.608.573Z" transform="translate(-96.208 -64.164)" fill="#3e8c5d"/>
      <path id="Trazado_108207" data-name="Trazado 108207" d="M268,217.112l3.5,7.71,2.591,3.068,2.785-1.017c-1.219-1.978-2.745-4.48-2.834-4.747s-1.881-3.835-2.842-5.716Z" transform="translate(-97.655 -63.817)" fill="#3e8c5d"/>
      <path id="Trazado_108208" data-name="Trazado 108208" d="M276.1,217.781l4.19,5.546.848,2.688,3.439-.428c-1.114-2.277-3.278-6.717-3.391-7.056-.057-.161-.589-1.4-1.251-2.882l-4.359.153Z" transform="translate(-99.116 -63.671)" fill="#3e8c5d"/>
      <path id="Trazado_108209" data-name="Trazado 108209" d="M293.482,221.756l-4.028-6.466-5.3.194,4.981,6.426.517,3.189,3.915-.484Z" transform="translate(-100.768 -63.602)" fill="#3e8c5d"/>
      <path id="Trazado_108210" data-name="Trazado 108210" d="M299.794,219.911l-.767,5.328,2.93.589,1.469.291.113-6.208-1.211-3.278-4.069-.823Z" transform="translate(-103.487 -63.702)" fill="#3e8c5d"/>
      <path id="Trazado_108211" data-name="Trazado 108211" d="M310.51,218.28l1.38,5.853-.775,4.036,3.673,1.267.84-2.454v-6.741l-.274-.678-4.061-1.122Z" transform="translate(-105.848 -64.178)" fill="#3e8c5d"/>
      <path id="Trazado_108212" data-name="Trazado 108212" d="M321.71,229.063l3.148-3.415.218-3.124-.25-.331L322,221.41l.283,1.679Z" transform="translate(-108.006 -64.781)" fill="#3e8c5d"/>
      <path id="Trazado_108213" data-name="Trazado 108213" d="M291.32,165.77l-2.47,2.026,2.47,2.26,2.034-.9-.9-2.7Z" transform="translate(-101.673 -54.058)" fill="#ffb64d"/>
      <path id="Trazado_108214" data-name="Trazado 108214" d="M290.8,146.22l.291,16.7,1.195-.153-.355-16.549Z" transform="translate(-102.049 -50.291)" fill="#ffb64d"/>
      <path id="Trazado_108215" data-name="Trazado 108215" d="M287.73,150.076l5.635-.226-.226,1.574-5.409-.218Z" transform="translate(-101.458 -50.99)" fill="#ffb64d"/>
      <path id="Trazado_108216" data-name="Trazado 108216" d="M288.56,157.11l4.513,1.582.226,1.348-4.739-1.8Z" transform="translate(-101.618 -52.389)" fill="#ffb64d"/>
      <path id="Trazado_108217" data-name="Trazado 108217" d="M288.84,236.337l.153,16.025h1.647l.6-15.128-.751-1.493Z" transform="translate(-101.671 -67.543)" fill="#ffbfb6"/>
      <path id="Trazado_108218" data-name="Trazado 108218" d="M297.56,236.264v16.025H300.4l-.145-14.676-.9-2.252Z" transform="translate(-103.352 -67.469)" fill="#ffbfb6"/>
      <path id="Trazado_108219" data-name="Trazado 108219" d="M305.9,238.677l.307,14.378,2.85.153v-8.686l-.153-5.691-1.5-1.8Z" transform="translate(-104.959 -67.791)" fill="#ffbfb6"/>
      <path id="Trazado_108220" data-name="Trazado 108220" d="M282.338,236.862l.3,14.975-2.842.452-.605-14.232.452-2.1,1.348-.6Z" transform="translate(-99.812 -67.469)" fill="#ffbfb6"/>
      <path id="Trazado_108221" data-name="Trazado 108221" d="M249.7,305.5v12.577l-.751,22.313,70.694,2.252-.751-13.635-.452-22.015-1.195-2.543-15.128-3.6-39.985.307Z" transform="translate(-93.984 -80.09)" fill="#c83737"/>
      <path id="Trazado_108222" data-name="Trazado 108222" d="M263.029,330.878l-.153-17.373.4-12.295-1.146.016L249.7,305.569v12.577l-.751,22.313,14.345.46Z" transform="translate(-93.984 -80.16)" fill="#e39b9b"/>
      <path id="Trazado_108223" data-name="Trazado 108223" d="M268.25,340.912l22.168.71V301l-22.168.161Z" transform="translate(-97.703 -80.119)" fill="#e39b9b"/>
      <path id="Trazado_108224" data-name="Trazado 108224" d="M315.541,342.215V326.166l.993-24.081-5.191-1.235-13.869.1-.654,5.885.6,13.78-.283,21.014Z" transform="translate(-103.209 -80.09)" fill="#e39b9b"/>
      <path id="Trazado_108225" data-name="Trazado 108225" d="M333.662,343l-.751-13.635-.452-22.015-1.195-2.543-8.92-2.123-.517,12-.137,27.924Z" transform="translate(-108.002 -80.443)" fill="#d86450"/>
      <path id="Trazado_108226" data-name="Trazado 108226" d="M332.915,331.475l-.073-3.754-.67-1.937-1.5-8.388-1.348-3.746-5.546,14.531-2.042,8.105-.024,5.054,3.415-10.616,3.447-12.279,1.946,5.845.751,7.04,1.986,6.264Z" transform="translate(-108.006 -82.557)" fill="#c83737"/>
      <path id="Trazado_108227" data-name="Trazado 108227" d="M315.628,338.2l-.9-1.8-3.3-10.188-3-10.931L306.19,309l.145-1.647-1.348.452-4.19,15.274-2.543,7.79-.9,2.5-.081,6.281,1.881-5.344,4.343-16.178,1.493-5.538,1.058.153,3.738,13.03,2.7,9.284,2.1,4.941,1.049,1.5Z" transform="translate(-103.296 -81.343)" fill="#ffbfb6"/>
      <path id="Trazado_108228" data-name="Trazado 108228" d="M290.418,334.438l-3.6-5.255-3-9.591-3-9.437-1.946-2.995-4.8,13.03-3.294,10.785-2.543,5.094v5.191l1.195-2.042,3.746-9.889,5.845-17.526,2.543,6.143,2.543,9.582,3.294,7.338,3,4.819Z" transform="translate(-97.703 -81.307)" fill="#ffbfb6"/>
      <path id="Trazado_108229" data-name="Trazado 108229" d="M257.192,308.841l-.9-.751L250.9,327.707l-1.7,6.628-.25,7.451.283.016,1.962-8.4,5.094-20.965,2.4,10.333,4.351,9.792-.008-.355-.048-5.4-2.05-4.787Z" transform="translate(-93.984 -81.486)" fill="#ffbfb6"/>
      <path id="Trazado_108230" data-name="Trazado 108230" d="M256.563,328.13l-.743,14.079,2.39.145.751-14.224Z" transform="translate(-95.308 -85.348)" fill="#ffbfb6"/>
      <path id="Trazado_108231" data-name="Trazado 108231" d="M279.679,325.53l-.3,14.975,3.294-.6-.3-14.378Z" transform="translate(-99.848 -84.847)" fill="#ffbfb6"/>
      <path id="Trazado_108232" data-name="Trazado 108232" d="M305.651,326.83l-1.041,15.427,3.592-.153-.3-15.128Z" transform="translate(-104.711 -85.097)" fill="#ffbfb6"/>
      <path id="Trazado_108233" data-name="Trazado 108233" d="M328.551,331.425l-.751,13.183h1.946l.751-13.328Z" transform="translate(-109.18 -85.955)" fill="#e39b9b"/>
      <path id="Trazado_108234" data-name="Trazado 108234" d="M254.5,272.734l3.592-8.84,3.746-3.592,10.785-.452,25.308,1.5,6,1.195,3.592,6.741,1.195,8.388,4.8-.6,2.4,2.4,2.551,5.691.589,12.279L317.4,301.49l-9.582-4.8-21.869-.6H257.8l-10.188,3.447-3.148-5.99-.9-14.079.6-4.5,4.343-2.4,3-.6Z" transform="translate(-92.947 -72.189)" fill="#67c190"/>
      <path id="Trazado_108235" data-name="Trazado 108235" d="M258.97,272.673l2.543-5.691,3-3.6,3.294-.751,3.891,1.058,2.85,5.385-5.094.6-3.447,2.85-4.044,8.533-1.647-5.683Z" transform="translate(-95.915 -72.725)" fill="#c83737"/>
      <path id="Trazado_108236" data-name="Trazado 108236" d="M247.077,278.006l-1.348,2.244-.3,7.637.145,5.247,12.287-5.691-1.348-5.393-2.85-4.5-3.746-.444Z" transform="translate(-93.306 -75.515)" fill="#c83737"/>
      <path id="Trazado_108237" data-name="Trazado 108237" d="M276.256,272.47l-6.442,1.792-3.148,4.2L264.72,284.6v1.049l6.741-.452h12.577l-1.493-7.492-3.148-3.891Z" transform="translate(-97.023 -74.621)" fill="#c83737"/>
      <path id="Trazado_108238" data-name="Trazado 108238" d="M291.62,285.153l2.1-6.894,3.746-3.891,4.8-.6,4.238,1.4,3.843,4.44.605,7.039-5.99-.444-9.889-.751Z" transform="translate(-102.207 -74.872)" fill="#c83737"/>
      <path id="Trazado_108239" data-name="Trazado 108239" d="M288.876,278.557l-1.049-4.65-2.7-3.738,1.348-4.343,2.543-3.447,3.447-.3,3.148,1.5,2.39,5.982-3.592,1.348-2.842,2.4Z" transform="translate(-100.957 -72.619)" fill="#e39b9b"/>
      <path id="Trazado_108240" data-name="Trazado 108240" d="M308.14,270.409l1.792-4.19,4.044-2.1,2.4,1.5,2.091,5.538.9,6.289v1.5l-3.447,3.891-.6-5.239-1.647-3.148-3.3-2.7Z" transform="translate(-105.391 -73.012)" fill="#c83737"/>
      <path id="Trazado_108241" data-name="Trazado 108241" d="M327.134,283.41l-4.343.452-2.995,3-.9,1.647h3.738l3.746,2.252,4.044,1.792,1.647,1.348-.6-5.538-2.244-3.6Z" transform="translate(-107.465 -76.729)" fill="#c83737"/>
      <path id="Trazado_108242" data-name="Trazado 108242" d="M319.238,303.344l-.242-5.11-7.088-4.174-4.2-1.647-4.941-1.049-7.04-.153-15.128-.452-13.78-.3-6.741.452-8.832,3.592-6.709,3.108.113,1.841,3.148,5.99L257.989,302h28.15l21.869.6,9.582,4.8Z" transform="translate(-93.134 -78.088)" fill="#c83737"/>
      <path id="Trazado_108243" data-name="Trazado 108243" d="M319.407,303.953l-.073-1.647-8.912-5.094-5.239-1.792-23.209-1.5-17.825-.3-10.035,3.592-8.694,3.972,2.551,4.868,10.188-3.447h28.15l21.869.6,9.582,4.8Z" transform="translate(-93.304 -78.697)" fill="#d86450"/>
      <path id="Trazado_108244" data-name="Trazado 108244" d="M327.192,287.275l-3.3-.145-1.59,2.091h.993l3.746,2.252,4.044,1.792-.6-2.842Z" transform="translate(-108.12 -77.446)" fill="#e39b9b"/>
      <path id="Trazado_108245" data-name="Trazado 108245" d="M319.369,277.448l-.9-6.289-2.091-5.538-2.4-1.5-4.044,2.1-1.792,4.19,1.534.928,2.955-2.422,2.1.3,1.946,3.592.153,3.148.751,5.021,1.792-2.026Z" transform="translate(-105.391 -73.012)" fill="#e39b9b"/>
      <path id="Trazado_108246" data-name="Trazado 108246" d="M308.7,282.54l-1.8-3.746-4.044-2.244-4.343,1.647-3.14,3.148-1.429,4.5,1.574.137,1.122.081.371-1.13,1.348-3.746,3.447-1.049,3.746,1.8.807,4.86,2.68.2Z" transform="translate(-102.654 -75.407)" fill="#e39b9b"/>
      <path id="Trazado_108247" data-name="Trazado 108247" d="M295.617,263.582l-3.148-1.5-3.447.3-2.543,3.447-1.348,4.343.718.993,2.43-4.739,2.543-1.647,4.044,1.792,1.332,3.673,1.808-.678Z" transform="translate(-100.957 -72.619)" fill="#c83737"/>
      <path id="Trazado_108248" data-name="Trazado 108248" d="M282.1,281.8l-1.8-3.891-3.148-2.842-4.19.743-4.5,5.393-1.389,4.819,3.06-.21,1.623-4.755,2.252-2.1,2.543-.751L280,281.8l.113,3.9h2.737Z" transform="translate(-97.478 -75.122)" fill="#e39b9b"/>
      <path id="Trazado_108249" data-name="Trazado 108249" d="M271.076,265.79h-2.995l-2.551.6-2.543,4.343-2.608,4.811.21.436.646,2.22,3.552-6.717,2.39-3.592,2.842.743.565,1.55,2.373-.274Z" transform="translate(-96.187 -73.334)" fill="#e39b9b"/>
      <path id="Trazado_108250" data-name="Trazado 108250" d="M255.929,285.055l-3-4.8-2.7.153-1.946,1.041-.452,7.039.436,4.206,2.123-.977-.315-3.528.751-4.19,2.1.444,2.051,5.142,2.228-1.025Z" transform="translate(-93.77 -76.122)" fill="#e39b9b"/>
      <path id="Trazado_108251" data-name="Trazado 108251" d="M244.75,349.4l6.192-2,14.773-1.4H277.9l16.372.8,11.786.8,7.984,1.6,6.8,1.4.791,5.385-1.195,11.391-64.3-2.2-6.394-6.6-4.989-4Z" transform="translate(-93.175 -88.792)" fill="#4faa76"/>
      <path id="Trazado_108252" data-name="Trazado 108252" d="M314.039,349.2l-7.984-1.6-11.786-.8L277.9,346H265.715l-14.773,1.4-6.192,2v5.183l4.989,4,.525.541,16.251-2.93,15.572-.8,19.778,1.195,9.776,1.6,9.5,2.373.484-4.577-.791-5.385Z" transform="translate(-93.175 -88.792)" fill="#c83737"/>
      <path id="Trazado_108253" data-name="Trazado 108253" d="M314.039,349.2l-7.984-1.6-11.786-.8L277.9,346H265.715l-14.773,1.4-6.192,2v5.183l.557.452,10.22-3.245,21.966-.993,24.574,1.4,12.771,2.2,6.709,2.357.081-.767-.791-5.385Z" transform="translate(-93.175 -88.792)" fill="#ffbfb6"/>
      <path id="Trazado_108254" data-name="Trazado 108254" d="M109.81,378.106l.291,9.591,15.282-4.2,13.482-1.8,29.353,1.5,19.173-18.576h20.069l23.96,2.7-.9-2.995-10.785-9.284-42.237-1.5-9.284,2.7-8.985,6.289-12.279,2.7-13.78,3Z" transform="translate(-67.169 -90.245)" fill="#67c190"/>
      <path id="Trazado_108255" data-name="Trazado 108255" d="M180.439,356.236l-7.209,5.054,6.8,21.885.412.024,19.076-18.479-9.445-11.165-.347-.016Z" transform="translate(-79.391 -90.245)" fill="#4faa76"/>
      <path id="Trazado_108256" data-name="Trazado 108256" d="M133.27,371.7l-.1.024-23.363,9.881.291,9.591,15.282-4.2,7.007-.936Z" transform="translate(-67.169 -93.744)" fill="#4faa76"/>
      <path id="Trazado_108257" data-name="Trazado 108257" d="M197.226,363.81l-11.181,1-18.971,18.172-2.4.4-24.961-1.6-9.187,1-8.985,1.8-11.463,2.777.073,2.317,15.282-4.2,13.482-1.8,29.353,1.5L187.442,366.6h20.069l23.96,2.7-.662-2.2L217.8,365.013Z" transform="translate(-67.221 -92.224)" fill="#4faa76"/>
      <path id="Trazado_108258" data-name="Trazado 108258" d="M110.153,394.15l15.282-4.2,7.007-.936.121-1.986-2.034.226-8.985,1.8-11.463,2.777Z" transform="translate(-67.221 -96.699)" fill="#3e8c5d"/>
      <path id="Trazado_108259" data-name="Trazado 108259" d="M199.5,365.24,180.78,383.178l.7,2.252.412.024,19.076-18.479Z" transform="translate(-80.846 -92.5)" fill="#3e8c5d"/>
      <path id="Trazado_108260" data-name="Trazado 108260" d="M159.686,323.49h-1.8L145.3,366.421l12.981,3.6,15.774-3.6-7.685-26.608Z" transform="translate(-74.009 -84.454)" fill="#627230"/>
      <path id="Trazado_108261" data-name="Trazado 108261" d="M152.619,368.117l7.136-44.627h-.686l-1.4,4.755-3.148,19.8-3.084,19.746Z" transform="translate(-75.192 -84.454)" fill="#db902e"/>
      <path id="Trazado_108262" data-name="Trazado 108262" d="M162.611,323.49h-1.469l-.379,20.666-.283,25.664.727.2.783-.178.565-25.688.266-20.142Z" transform="translate(-76.934 -84.454)" fill="#db902e"/>
      <path id="Trazado_108263" data-name="Trazado 108263" d="M166.762,339.668,163.218,324.2l-.291-.71h-.807l6.3,27.859,4.1,16.162,1.211-.274Z" transform="translate(-77.25 -84.454)" fill="#db902e"/>
      <path id="Trazado_108264" data-name="Trazado 108264" d="M115.13,424.285l.194-9.389,1.2-6.789,7.58-8.38,5.594-4.8,8.388-.2,5.594,1.4-.2,13.385L133.9,414.3l-14.975,7.992Z" transform="translate(-68.195 -98.183)" fill="#c45243"/>
      <path id="Trazado_108265" data-name="Trazado 108265" d="M256.87,367.02l13.377.4,24.162,1,17.97.6,12.182,1.195-.6,17.978-7.387-.2L299.8,386.6l-22.362-.4-14.144-.565-5.627-.234Z" transform="translate(-95.51 -92.843)" fill="#e39b9b"/>
      <path id="Trazado_108266" data-name="Trazado 108266" d="M264.595,386.963l5.562.226.194-8.444-2.4-4.8h-2.8l-1.195,3.794-.347,9.179Z" transform="translate(-96.809 -94.178)" fill="#c45243"/>
      <path id="Trazado_108267" data-name="Trazado 108267" d="M282.093,387.639l.153-7.2-1.59-4.593-1.8-1.4-1.8,1.8-.4,5.393.153,5.812,4.44.178Z" transform="translate(-99.324 -94.273)" fill="#c45243"/>
      <path id="Trazado_108268" data-name="Trazado 108268" d="M293.691,387.857l-.161-7.177-.8-4.19-1.994-1.8-2.4,2-.8,4.989v6.071Z" transform="translate(-101.421 -94.321)" fill="#c45243"/>
      <path id="Trazado_108269" data-name="Trazado 108269" d="M301.258,375.44l-1,2.995-.6,4.787.484,4.844,4.706.089v-8.727a26.009,26.009,0,0,0-1.4-3.786Z" transform="translate(-103.757 -94.465)" fill="#c45243"/>
      <path id="Trazado_108270" data-name="Trazado 108270" d="M317.078,378.185a17.371,17.371,0,0,0-.993-2.995l-2.6,2.422-2.2,4.19.7,6.539,5.611.46C317.45,385.733,317.078,378.653,317.078,378.185Z" transform="translate(-105.998 -94.417)" fill="#c45243"/>
      <path id="Trazado_108271" data-name="Trazado 108271" d="M326.016,378.174l-1,4-.525,7.161,5.118.428.283.008.912-8.8-1.994-4.787Z" transform="translate(-108.542 -94.608)" fill="#c45243"/>
      <path id="Trazado_108272" data-name="Trazado 108272" d="M294.409,368.425l-24.162-1-13.377-.4.113,2.591,15.863,2h19.165l18.777.4,13.667,1.558.1-3.358-12.182-1.195Z" transform="translate(-95.51 -92.843)" fill="#d86450"/>
      <path id="Trazado_108273" data-name="Trazado 108273" d="M242.571,453.838,242,402.616l-1-2.2-5.788,1.994-10.382,5.594-1.606,23.363.371,23.339,16.4-1.372Z" transform="translate(-89.025 -99.279)" fill="#c45243"/>
      <path id="Trazado_108274" data-name="Trazado 108274" d="M265.819,458.559l7.5.089-2.511-49.018-4.19-.8-3.2,1.4-2.591,11.189.589,17.768-.541,18.414Z" transform="translate(-96.273 -100.9)" fill="#c45243"/>
      <path id="Trazado_108275" data-name="Trazado 108275" d="M386.458,454.885l9.017-.355-.936-39.783-3.391-3.2-5.788.2-4,4-1.6,21.167-.186,18.261Z" transform="translate(-119.159 -101.424)" fill="#c83737"/>
      <path id="Trazado_108276" data-name="Trazado 108276" d="M78.832,342.04l-3,.2-3.189,3.189L60.45,380.983h43.94L97,365.806l-13.78-18.576Z" transform="translate(-57.657 -88.028)" fill="#627230"/>
      <path id="Trazado_108277" data-name="Trazado 108277" d="M72.64,346.061,60.45,381.613h1.461l8.525-25.962,2.955-10.341Z" transform="translate(-57.657 -88.659)" fill="#db902e"/>
      <path id="Trazado_108278" data-name="Trazado 108278" d="M71.89,381.064H74.4l3.5-38.6-1.469,1.469Z" transform="translate(-59.861 -88.109)" fill="#db902e"/>
      <path id="Trazado_108279" data-name="Trazado 108279" d="M83.907,347.836l-.735-5.481-.258-.315-1.284.089L83.5,356.022l3.649,24.961H90.09Z" transform="translate(-61.739 -88.028)" fill="#db902e"/>
      <path id="Trazado_108280" data-name="Trazado 108280" d="M101.436,365.86l-13.78-18.576L83.45,342.32l5.6,8.961,6.587,9.389,5.99,9.784,4.133,10.583h3.06Z" transform="translate(-62.089 -88.082)" fill="#db902e"/>
      <path id="Trazado_108281" data-name="Trazado 108281" d="M56.99,388.432l7.992-3.2,7.984-.4,15.581.4,11.576.4,3.6.993.6,4.2-1.6,2.6-.8,37.135v20.973H77.761l-8.589.6-6.386-3-3-33.551-.993-22.16Z" transform="translate(-56.99 -96.277)" fill="#e39b9b"/>
      <path id="Trazado_108282" data-name="Trazado 108282" d="M56.99,388.525l1.8,5,.993,22.16,3,33.551,6.3,2.955-1.316-33.107-1.8-27.762-.767-6-.226.008Z" transform="translate(-56.99 -96.369)" fill="#c83737"/>
      <path id="Trazado_108283" data-name="Trazado 108283" d="M100.123,385.639l-11.576-.4-15.581-.4-7.984.4-7.992,3.2,1.8,5,.008.194,7.177-2.4,10.188-.6,27.23,1.711.928-1.51-.6-4.2Z" transform="translate(-56.99 -96.277)" fill="#c83737"/>
      <path id="Trazado_108284" data-name="Trazado 108284" d="M65.208,385.32l-.226.008-7.992,3.2,1.8,5,.008.194,7.177-2.4Z" transform="translate(-56.99 -96.369)" fill="#d86450"/>
      <path id="Trazado_108285" data-name="Trazado 108285" d="M101.318,456.4l.387-35.149-3.6-.4v-2.8l2.406-1.792-1.2-4.593-3-1.6-5.393,1.6-.6,5.788h-4v-2.4l-2.2-4.392-3.592-.4-4,2.406v6.184h1.6l-.2,4.392H75.55l1.792,16.178.751,17.2,3.245-.226Z" transform="translate(-60.567 -101.139)" fill="#c45243"/>
      <path id="Trazado_108286" data-name="Trazado 108286" d="M87.66,417.98l6,.2.194,4H87.66Z" transform="translate(-62.901 -102.663)" fill="#c83737"/>
      <path id="Trazado_108287" data-name="Trazado 108287" d="M163.11,397.725v7.992l.4,4.8,9.978,1.195,6.6-.4-1-13.974-4.787-2.6h-6.192Z" transform="translate(-77.441 -98.183)" fill="#c45243"/>
      <path id="Trazado_108288" data-name="Trazado 108288" d="M198.684,398.728l16.775-12.779,6.394-4.6-1.2-4.989-1.389-2.6-7.79-.8-8.194,1-2.591,4.989-2.2,5.594Z" transform="translate(-84.259 -93.987)" fill="#c45243"/>
      <path id="Trazado_108289" data-name="Trazado 108289" d="M286.31,405.8l.4,21.563.8,10.188,18.576-2.2-.4-31.952-6.394-1Z" transform="translate(-101.184 -99.661)" fill="#d86450"/>
      <path id="Trazado_108290" data-name="Trazado 108290" d="M300.163,404.63l-11.383,3,.8,28.352,15.177-2.2-.605-28.554Z" transform="translate(-101.66 -100.091)" fill="#c83737"/>
      <path id="Trazado_108291" data-name="Trazado 108291" d="M297.392,413.637l-.2,13.175h2.793l.2-13.772Z" transform="translate(-103.281 -101.711)" fill="#e39b9b"/>
      <path id="Trazado_108292" data-name="Trazado 108292" d="M337.914,407.6l-.4,30.152,17.373.6-1.6-30.556Z" transform="translate(-111.051 -100.663)" fill="#d86450"/>
      <path id="Trazado_108293" data-name="Trazado 108293" d="M341.567,411.55l-.194,14.975-.4,8.993,11.585.4-.993-15.976-.21-8.186Z" transform="translate(-111.718 -101.424)" fill="#c83737"/>
      <path id="Trazado_108294" data-name="Trazado 108294" d="M201.626,437.521l.339-4.957-20.109.17-34.544-.4-13.78,8.388-8.186,8.589-14.079.17-.1,10.01,5.586.8,7.193-.2,15.371,1,13.587,2.2,16.372-2.4,27.561.4,5.159-.428Z" transform="translate(-67.431 -105.429)" fill="#e39b9b"/>
      <path id="Trazado_108295" data-name="Trazado 108295" d="M151.127,447.218l-1-10.188-5.393,2.793-10.18,8.186-6.587,6.6L126.82,461l.145-.008,15.371,1,9.51,1.534Z" transform="translate(-70.447 -106.335)" fill="#c45243"/>
      <g id="Grupo_55704" data-name="Grupo 55704" transform="translate(148.209 327.361)">
        <path id="Trazado_108296" data-name="Trazado 108296" d="M240.58,466.2l2.761-.234-2.761.234Z" transform="translate(-240.58 -439.273)" fill="#e39b9b"/>
        <path id="Trazado_108297" data-name="Trazado 108297" d="M257.635,462.237l.541-18.414-.315-9.494L246.268,432.9l.307,27.2L244,459.6l17.776,3.447h0Z" transform="translate(-241.239 -432.9)" fill="#e39b9b"/>
      </g>
      <path id="Trazado_108298" data-name="Trazado 108298" d="M349.474,452.37l-7.992.6-16.969-.6-18.172.8H274.986l.71,13.869-2.527-.032h0l42.156.541,38.338-1.5,1.5-1.792.315-11.48Z" transform="translate(-98.652 -109.291)" fill="#e39b9b"/>
      <path id="Trazado_108299" data-name="Trazado 108299" d="M275.516,227.632l-3.746,2.252.089,3.1,5.756-3.4,11.076-1.8,6.894.452,9.881,2.842,3.5,1.171.1-2.519-17.679-4.941Z" transform="translate(-98.382 -65.432)" fill="#d86450"/>
      <path id="Trazado_108300" data-name="Trazado 108300" d="M277.615,230.127l.969-.161.17-2.365-3.237.573-3.746,2.252.089,3.1Z" transform="translate(-98.382 -65.974)" fill="#c83737"/>
      <path id="Trazado_108301" data-name="Trazado 108301" d="M317.226,230.708l-3.035-.848-.081,2.357,3.011,1.009Z" transform="translate(-106.541 -66.409)" fill="#c45243"/>
      <path id="Trazado_108302" data-name="Trazado 108302" d="M185.51,271.6l-3.6-.8v4.989h3l7.992.2,7.387.6h5.191l7.354-.977.04-3.617-14.58.4Z" transform="translate(-81.064 -74.299)" fill="#c83737"/>
      <path id="Trazado_108303" data-name="Trazado 108303" d="M185.51,271.6l-3.6-.8v2.18l2,.42,7.387.791,10.785.2h6.789l3.98-.912.016-1.485-14.58.4Z" transform="translate(-81.064 -74.299)" fill="#d86450"/>
      <path id="Trazado_108304" data-name="Trazado 108304" d="M172.794,256.733l7.04,3.447,3.294.9,6.733.6,11.092.3,7.936-.6,3.592-2.1,4.343-8.234-.145-12.133-6.442-6.741-7.79-8.234-7.04-8.686-1.5-3.447-3.592,6.143-5.691,6.741-8.985,6.587-4.8,9.582.153,8.388Z" transform="translate(-78.931 -62.929)" fill="#ffb64d"/>
      <path id="Trazado_108305" data-name="Trazado 108305" d="M211.969,239l1.082-3.068-.888-.936-1.082,3.512-1.3-.735-3.705-2.26,2.115-4.7-.654-.686-2.2,4.924-3.641-2.22-1.881-1.493,2.333-2.583,1.429-1.389,1.421.638.323-.25-1.849-1.962h0l-3.5-1.372.945-1.663-.339-.42-1.041,1.913h-.057l-2.333-1.9.686-.646.807-1.76-.517-.638-.727,2.1-.719.549-1.227-1-2.85-3.148L191.957,216l-.92,1.615.048.145,3.447,3.891,1.284,1.041-2.624,2-1.655-2.139-1.792-3.052-.6.71,2.083,3.229,1.348,1.711-.9.686-1.913,1.445-1.679-2.648-.872-2.18-.605.71,2.422,4.65-3.665,2.712-2.349-3.875-.953.694,2.519,3.77-.864.654-2.834,2.22-2.083-4.271-.573.42,2.018,4.327-2.075,1.615-.9,1.542-2.155-4.561-.573,1.13,2.2,4.335-3.229,5.49-.727,2.309-1.38-2.422-.581-1.615v2.341l1.542,2.939-1.162,3.689.476,1.978.444-2.115.807-2.47,2.325,4.416,3.084,2.075-.7,4.844.864.42,1.066-4.424,3.923,2.64,2.422,1.179-.363,1.518v.807l1.049.089.242-1.978,4.4,2.107.7.218,6.127.161-.283-2.486,4.392,1.663,1.857.654,2.793-.21-1.51-.541V260.7l.743-2.341,4.682,1.058-.2,1.752.928-.541.153-1.009.88.2.492-.928-1.195-.274.945-3.52,2.091.323.476-.92-2.277-.492.371-1.389,2.478-4.279.807.113v-1.082l-.17-.04.161-.291v-2.664l-1.429,2.656-2.373-.557-2.866-1.324.92-3.318.565-1.615,1.824,1.025,3.326.751v-1.138l-2.107-.363Zm-7.266-2.729.073.048-1.114,2.5-.88,1.776-2.422-1.776-3.286-3.229,2.164-3.56Zm-16.025,9.744-3.592-4.8-.46-.718h0l3.229-4.472.089.129L192.5,241.2l-.363.654-2.212,5.288Zm.735,2.293-1.493,3.544-.145.6-1.808-1.5-3.431-4.271,1.615-4.844Zm1.51-10.688-2.3-2.7.21-.291,3.326-2.89,3.463,3.762-2.422,4.359Zm1.865-6.458,1.736-1.5,1.058-.751.589.751,2.325,1.792-1.728,1.954-.678,1.227-1.711-1.679Zm2.333,7.637,1.413-2.325,1.736,1.873,4.036,3.181-2.317,4.69-2.18-1.881-3.633-3.552Zm5.546,7.79,2.309-4.537,3.681,2.89,2.139,1.041-.048.153-1.372,5.377-2.971-1.485-3.8-3.278Zm1.849-19.69-3.431,3.875-2.018-1.558-.735-.848,2.381-1.7.662-1.171Zm-7.1-2.93.953-.888,2.648,2.147-.452.807-2.656,1.808-1.841-2.107-.4-.517Zm-5.078,3.77,2.729-2.01,2.115,2.68-3.019,2.059-1.227-1.38-.767-1.211Zm-.92.735.323.614,1.792,1.946-3.391,3.318-1.542-1.816-.735-1.219Zm-4.319,3.455h0l2.18,3.229-2.664,2.608-.71,1.615-1.534-2.422-1.058-2.147Zm-5.546,4.343,1.1-.9,2.309,4.932.355.452-1.857,4.359-2.075-3-1.534-3.229Zm-.807,17.639-.977-.71L175,250.358l-1.615-2.874,1.171-3.528,2.729-4.222,2.365,4.666,1.389,1.655-.194.444Zm7.613,4.65-4.7-2.511-1.7-1.243.347-1.461,1.954-5.861,4.448,5.3.807.63Zm10.285,3.948-1.954-.807-6.587-2.244-.945-.509.04-.388,1.493-4.4,6.9,5.15,1.259.476Zm.3-3.77-5.7-3.439-2.285-1.9,1.356-4v.048l7.217,4.771ZM194.1,250.8l-3.229-2.866,2.648-5.651,2.971,3.286,2.817,2.115-1.171,2.373-.4,2.947Zm10.253,10.575-.662-.242-5.812-2.067.476-4.327,1.736,1.154,5.247,2.244h.057Zm1.453-4.521-4.521-1.711-2.785-1.687.1-.856,1.437-4.311,5.974,4.48.928.331v.121Zm5.239,1.534-3.019-.7-1.421-.533.807-2.608.347-1.195,4.384,1.566Zm1.477-10.583,2.228.331-1.033,1.913-1.219,3.786-.872-.194-3.439-1.711.888-3.076.662-2.422Zm-3.3-3.084-2.091-.961L203.5,241.1l.928-1.833,1.13-2.511,4.117,2.365,1.074.6Z" transform="translate(-78.929 -63.738)" fill="#778e3f"/>
      <path id="Trazado_108306" data-name="Trazado 108306" d="M216.781,254.323l-4.876,4.545-10.64,1.493-11.528-.3L177.6,257.221l-5.837-2.244-.807-1.017.057,3.407,1.8,7.492,7.04,3.447,3.294.9,6.733.6,11.092.3,7.936-.6,3.592-2.1,4.343-8.234Z" transform="translate(-78.954 -71.054)" fill="#db902e"/>
      <path id="Trazado_108307" data-name="Trazado 108307" d="M173.108,256.04l2.325,4.416,3.084,2.075-.7,4.844.387.186.476.234,1.066-4.424,3.923,2.64,2.422,1.179-.363,1.518v.807l.807.073h.226l.242-1.978,4.4,2.107.7.218h1.421l4.706.129-.283-2.486,4.392,1.663,1.857.654.694-.057,2.1-.153-1.51-.541v-1.106l.743-2.341,4.682,1.058-.2,1.752.928-.541.153-1.009.88.2.283-.533.21-.4-1.195-.274.945-3.52,2.091.323.113-.226.363-.694-2.277-.492.371-1.389,2.478-4.279.807.113v-1.009l-.17-.04.161-.291h0l-2.89,2.7-.194.347-1.219,3.786-.872-.194-3.229-1.615-2.753.388.42.315.928.331v.121l-1.179,3.657-4.521-1.711-2.785-1.687.057-.484H197.8v.04l-.081-.04-2.1-.056,2.01,1.324-.622,4.513-5.7-3.439-2.285-1.9.266-.807-1.372-.323-.04.145-.258-.218-1.534-.355.735.872.807.63L186.4,265.97l-4.7-2.511-1.7-1.243.347-1.461.88-2.6-1.429-.339-1,3.536-.977-.71-2.729-2.874-1.017-1.824L172.4,255.3l-1.058,3.35.476,1.978.444-2.115Zm34.374,5.917.347-1.195,4.384,1.566L211.1,265.8l-3.019-.7-1.421-.533Zm-9.074.194,1.736,1.154,5.247,2.244h.057l-1.041,3.229-.662-.242-5.812-2.067ZM187.26,266l1.493-4.4,6.9,5.15,1.259.476-.21,2.688-1.954-.807-6.587-2.244-.945-.509Z" transform="translate(-79.027 -71.148)" fill="#627230"/>
      <path id="Trazado_108308" data-name="Trazado 108308" d="M196.45,215.747l3.891-.153.444-4.044-1.493-1.049-2.39.605Z" transform="translate(-83.866 -62.678)" fill="#778e3f"/>
      <path id="Trazado_108309" data-name="Trazado 108309" d="M199.265,206.07l-2.075,1.7,2.075,1.881,1.7-.751-.751-2.26Z" transform="translate(-84.009 -61.825)" fill="#ffb64d"/>
      <path id="Trazado_108310" data-name="Trazado 108310" d="M198.89,189.17l.872,15.855.21-15.855Z" transform="translate(-84.337 -58.568)" fill="#ffb64d"/>
      <path id="Trazado_108311" data-name="Trazado 108311" d="M195.93,192.88l5.425-.21-.21,1.518-5.215-.218Z" transform="translate(-83.766 -59.242)" fill="#ffb64d"/>
      <path id="Trazado_108312" data-name="Trazado 108312" d="M196.73,199.66l4.351,1.518.218,1.308-4.569-1.744Z" transform="translate(-83.92 -60.589)" fill="#ffb64d"/>
    </g>
  </g>
</svg>
