<svg xmlns="http://www.w3.org/2000/svg" xmlns:xlink="http://www.w3.org/1999/xlink" width="494.427" height="385.076" viewBox="0 0 494.427 385.076">
  <defs>
    <linearGradient id="linear-gradient" y1="0.501" x2="1" y2="0.501" gradientUnits="objectBoundingBox">
      <stop offset="0" stop-color="#ff7a4e"/>
      <stop offset="1" stop-color="#ffa038"/>
    </linearGradient>
    <linearGradient id="linear-gradient-2" x1="0.001" y1="0.502" x2="1" y2="0.502" gradientUnits="objectBoundingBox">
      <stop offset="0" stop-color="#fec4ac"/>
      <stop offset="1" stop-color="#ffdcc9"/>
    </linearGradient>
    <linearGradient id="linear-gradient-3" x1="0" y1="0.5" y2="0.5" xlink:href="#linear-gradient"/>
    <linearGradient id="linear-gradient-4" x1="0" y1="0.5" x2="1" y2="0.5" xlink:href="#linear-gradient-2"/>
  </defs>
  <g id="Grupo_55726" data-name="Grupo 55726" transform="translate(-227.224 -5379.925)">
    <g id="Grupo_54191" data-name="Grupo 54191" transform="translate(-1367.517 10283.98)">
      <path id="Trazado_102679" data-name="Trazado 102679" d="M2464.747-4768.538a203.293,203.293,0,0,1,11.108,114.864,201.343,201.343,0,0,1-19.431,55.418,202.265,202.265,0,0,1-36.137,49,202.946,202.946,0,0,1-38.617,30.281h118.875a281.147,281.147,0,0,0,38.669-67.011,283.614,283.614,0,0,0,15.533-160.336,281.719,281.719,0,0,0-27.19-77.527,282.708,282.708,0,0,0-50.448-68.434,40.178,40.178,0,0,0-56.821,0,40.178,40.178,0,0,0,0,56.821A201.56,201.56,0,0,1,2464.747-4768.538Z" transform="translate(-470.753)" fill="#fff"/>
      <path id="Trazado_102680" data-name="Trazado 102680" d="M1701.953-4008.25a202.863,202.863,0,0,1-38.624-30.281,40.179,40.179,0,0,0-56.821,0,40.075,40.075,0,0,0-11.724,30.281Z" transform="translate(0 -510.73)" fill="#fff"/>
    </g>
    <g id="Layer_1" data-name="Layer 1" transform="translate(285.516 5364.97)">
      <g id="Grupo_54161" data-name="Grupo 54161" transform="translate(10.057 145.132)">
        <g id="Grupo_54139" data-name="Grupo 54139" transform="translate(17.369)">
          <path id="Trazado_102486" data-name="Trazado 102486" d="M165.34,226.25s-.615,12.336-10.475,11.994c-9.673-.327-9.945,12.57-.685,16.643,8.162,3.606,29.478,7.375,29.478,7.375s1.3-9.556.833-15.576-4.961-16.76-4.969-17.134S165.34,226.25,165.34,226.25Z" transform="translate(-57.808 -184.552)" fill="#621a1b"/>
          <path id="Trazado_102487" data-name="Trazado 102487" d="M240.659,197.09s9.969,12.344-2,30.319c-3.746,13.668,4.759,22.134,4.759,22.134s-8.349-3.458-9.346-11.721c-2.664,17.173,24.431,23.364,9.9,53.4C240,281,232.848,265.75,232.848,265.75L220.27,252.378s-1.558-7.889-1.067-8.224,10.654-22.648,10.654-22.648Z" transform="translate(-73.665 -178.103)" fill="#590212"/>
          <path id="Trazado_102488" data-name="Trazado 102488" d="M213.4,450h-67.25L128.48,394.26h91.791Z" transform="translate(-53.62 -221.714)" fill="#39325a"/>
          <path id="Trazado_102489" data-name="Trazado 102489" d="M235.978,381.721a526.621,526.621,0,0,1,64.057-12.461l17.134,33.668L195.48,446.542a262.2,262.2,0,0,1,4.852-27.936,49.93,49.93,0,0,1,35.646-36.885Z" transform="translate(-68.439 -216.184)" fill="#4c4378"/>
          <path id="Trazado_102490" data-name="Trazado 102490" d="M219.727,261.49s8.917,6.768,14.307,15.88c9.7,21.308,12.648,93.715,12.648,93.715L223.5,367.969l-9.634-57.718Z" transform="translate(-72.507 -192.347)" fill="#ff9e7d"/>
          <path id="Trazado_102491" data-name="Trazado 102491" d="M212.3,311.14c-4.548,6.231-12.118,19.073-8.66,50.677,0,0-10.008,49.626-75.155,0a51.524,51.524,0,0,0,2.765-4.525c19.533-35.4,9.766-101.246,9.291-104.587,0,0,1.83-.273,5.771-.779,3.022-.4,7.29-.935,12.913-1.612q2.558-.3,5.382-.779c.21-.35.413-.717.631-1.137l14.743-.779,10.054.779h0c.07,0,.717.444,1.745,1.121.343.218.717.475,1.129.779,0,.631-.07,1.207-.1,1.643a7.692,7.692,0,0,1-.047.919l.483.273.872.5,2.3,1.293a19.361,19.361,0,0,1,9.385,13.123,113.614,113.614,0,0,0,3.785,14.7,33.085,33.085,0,0,0,1.34,3.606.264.264,0,0,1,0,.062,29.958,29.958,0,0,0,2.033,3.847A18.691,18.691,0,0,1,212.3,311.14Z" transform="translate(-53.62 -189.279)" fill="#c83737"/>
          <path id="Trazado_102492" data-name="Trazado 102492" d="M165.637,447.948C106.408,448.135,49.29,407.3,49.29,407.3l8.964-35.592s27.624,2.539,53.465,9.3c1.153.3,2.336.631,3.427.989l.241.078c1.075.335,2.126.7,3.17,1.075a73.886,73.886,0,0,1,35.732,27.8,71.067,71.067,0,0,1,7.625,14.649C164.648,432.769,166.268,440.409,165.637,447.948Z" transform="translate(-36.104 -216.726)" fill="#4c4378"/>
          <path id="Trazado_102493" data-name="Trazado 102493" d="M176.788,467.143l38.349-2.259c10.008-.584,15.428,11.776,8.014,18.536a5.748,5.748,0,0,1-2.648,1.519c-15.771,3.061-47.983-2.625-47.983-2.625Z" transform="translate(-63.361 -237.331)" fill="#ee7f6b"/>
          <path id="Trazado_102494" data-name="Trazado 102494" d="M146.635,454.218a12.531,12.531,0,0,1-5.125,7.484s-.187-.047-.53-.156c-5.724-1.768-57.126-17.913-101.674-43.1-2.882-3.115-4.8-7.734-6.067-12.671a27.889,27.889,0,0,1,7.679-27.056,27.032,27.032,0,0,1,12.967-6.939c2.539-.569,9.058,2.609,10.28,3.31,37.718,21.433,66.028,57.126,78.029,68.5a20.483,20.483,0,0,0,3.614,2.952,13.061,13.061,0,0,1,.826,7.679Z" transform="translate(-32.359 -216.727)" fill="#5f608c"/>
          <path id="Trazado_102495" data-name="Trazado 102495" d="M172.36,482.115s-.187-.047-.53-.156a30.9,30.9,0,0,0,1.745-8.326v-.421A38.254,38.254,0,0,0,172.99,464a20.486,20.486,0,0,0,3.614,2.952C180.654,476.975,172.36,482.115,172.36,482.115Z" transform="translate(-63.208 -237.14)" fill="#fff"/>
          <path id="Trazado_102496" data-name="Trazado 102496" d="M215.623,476.946a79.789,79.789,0,0,1-15.343,6.472c-11.449,3.162-25.7,4.424-33.972,4.556h-.117a7.516,7.516,0,0,1-5.491-2.336,7.321,7.321,0,0,1-1.558-2.492c-.88-2.274-1.106-4.1-.607-5.514.6-1.729,2.3-2.843,5.226-3.435,2.773-.561,5.28-1.137,7.547-1.706,23.022-5.826,21.511-11.931,27.1-12.679,7.913-1.075,11.83.927,12.983,1.674a3.724,3.724,0,0,1,.374.273l1.628,6.386.187.717a.421.421,0,0,0,.039.148Z" transform="translate(-60.21 -236.145)" fill="#ff9e7d"/>
          <path id="Trazado_102497" data-name="Trazado 102497" d="M194.9,262.312c-20.117-.724-25.7-14.844-26.947-19.174.841-.1,1.706-.218,2.593-.343s1.838-.28,2.788-.444c.21-.343.413-.724.631-1.137a54.055,54.055,0,0,0,2.375-5.576,30.18,30.18,0,0,0,2.78-8.279c.2-.989.374-2.04.53-3.178.241-1.729.421-3.629.522-5.732,6.5-7.009,9.844-.475,9.836-.467a18.028,18.028,0,0,1,1.4,3.52c.226,1.3-1.269,9.416-1.4,12.251a33.411,33.411,0,0,1-1.3,6.674,5.452,5.452,0,0,1-.592,1.519,8.567,8.567,0,0,1-1.815.421c3.318,3.372,6.589,6.5,8.427,8.232a7.1,7.1,0,0,0,3.637,1.83c1.16.21,2.7.452,4.354.623a4.408,4.408,0,0,0,1.433-.07,1.152,1.152,0,0,1,0,.164C204.328,257.966,202.592,262.647,194.9,262.312Z" transform="translate(-62.35 -182.11)" fill="#ee7f6b"/>
          <path id="Trazado_102498" data-name="Trazado 102498" d="M233,314.345a18.754,18.754,0,0,0,.678-20.872,29.017,29.017,0,0,1-2.033-3.847h0v-.055a33.079,33.079,0,0,1-1.34-3.606,113.707,113.707,0,0,1-3.793-14.7,19.229,19.229,0,0,0-4.431-9.065v-.093S244,272.9,244.969,311.588A30.989,30.989,0,0,1,233,314.345Z" transform="translate(-74.323 -192.484)" fill="#d66969"/>
          <g id="Grupo_54137" data-name="Grupo 54137" transform="translate(112.026 3.489)">
            <path id="Trazado_102499" data-name="Trazado 102499" d="M222.785,223.771c-2.8,16.355-7.889,18.24-11.768,21.667-.358.319-.709.646-1.044,1a5,5,0,0,1-2.539,1.425,4.9,4.9,0,0,1-1.433.07h-.164c-.911-.1-1.776-.218-2.562-.335l-1.628-.273a7.088,7.088,0,0,1-3.606-1.822c-2.243-2.118-13.061-13.03-13.061-13.03-2.78-3.785-2.188-18.388-2.188-18.388a16.888,16.888,0,0,1-2.056-1.776c-2.009-2.017-4.673-5.584-4.034-9.891,3.536-23.364,16.947-27.484,32.578-24.283S236.656,195.609,222.785,223.771Z" transform="translate(-176.29 -177.19)" fill="#ff9e7d"/>
            <path id="Trazado_102500" data-name="Trazado 102500" d="M188.544,221.7c-1.6,4.673-5.506,7.554-8.723,6.449s-4.54-5.771-2.944-10.436,5.5-7.554,8.723-6.456S190.141,217.033,188.544,221.7Z" transform="translate(-176.2 -184.673)" fill="#ff9e7d"/>
          </g>
          <path id="Trazado_102501" data-name="Trazado 102501" d="M302.506,426.947c-28.762,13.154-54.836,24.369-65.685,29-.693.288-1.316.561-1.877.779l-3.458,1.456a18.411,18.411,0,0,1-5.14-16.776c.779-.654,1.558-1.472,2.523-2.422,13.832-14.151,48.154-59.4,77.881-69.821,6.62-.919,11.628,1.09,14.953,4.883C332.358,386.122,326.252,416.091,302.506,426.947Z" transform="translate(-75.186 -216.115)" fill="#5f608c"/>
          <path id="Trazado_102502" data-name="Trazado 102502" d="M236.819,475.847c-.693.288-1.316.561-1.877.779l-3.458,1.456a13.324,13.324,0,0,1-1.114-1.184,18.31,18.31,0,0,1-4.026-15.576c.779-.654,1.558-1.472,2.523-2.422a19.268,19.268,0,0,0,4.346,13.481,21.323,21.323,0,0,0,3.606,3.466Z" transform="translate(-75.184 -236.012)" fill="#fff"/>
          <path id="Trazado_102503" data-name="Trazado 102503" d="M203.926,264.154a6.791,6.791,0,0,1-5.9,5.794h-.047a12.561,12.561,0,0,1-1.8.179h-1.269c-20.117-.724-25.7-14.844-26.947-19.174.841-.109,1.706-.21,2.593-.343,0,0,2.43,14.8,22.71,17.025h.841c3.894.093,6.23-.67,7.266-3.847A23.989,23.989,0,0,0,203.926,264.154Z" transform="translate(-62.352 -189.94)" fill="#fff"/>
          <path id="Trazado_102504" data-name="Trazado 102504" d="M205.07,228.45c.841.436,1.636.9,2.422,1.379a26.663,26.663,0,0,0,2.336,1.34h-.156a39.813,39.813,0,0,0,4.5-.171,7.71,7.71,0,0,1-2.2.779,12.071,12.071,0,0,1-2.336.234h-.148a8.692,8.692,0,0,1-1.277-.7c-.4-.257-.779-.545-1.137-.826A14.128,14.128,0,0,1,205.07,228.45Z" transform="translate(-70.56 -185.039)" fill="#621a1b"/>
          <path id="Trazado_102505" data-name="Trazado 102505" d="M225.1,232.42c1.238.631,2.422,1.34,3.629,1.893h-.156a14.455,14.455,0,0,0,5.016-.958,5.677,5.677,0,0,1-2.336,1.4,6.621,6.621,0,0,1-1.347.3,7.4,7.4,0,0,1-1.379,0h-.086l-.07-.039a11.315,11.315,0,0,1-1.76-1.168,12.032,12.032,0,0,1-1.511-1.433Z" transform="translate(-74.991 -185.917)" fill="#621a1b"/>
          <path id="Trazado_102506" data-name="Trazado 102506" d="M220.328,235.67l-.132,5.452V243.8a8.887,8.887,0,0,0,.421,2.539l.078.187-.086.132A4.914,4.914,0,0,1,218.9,248.3a5.313,5.313,0,0,1-1.051.475,4.673,4.673,0,0,1-1.121.249,7.616,7.616,0,0,0,1.02-.475,8.022,8.022,0,0,0,.9-.615,5.124,5.124,0,0,0,1.34-1.62v.319a7.92,7.92,0,0,1-.592-2.78,21.8,21.8,0,0,1,0-2.765,28.715,28.715,0,0,1,.927-5.421Z" transform="translate(-73.139 -186.636)" fill="#ee7f6b" opacity="0.5"/>
          <path id="Trazado_102507" data-name="Trazado 102507" d="M206.69,258.29a14.475,14.475,0,0,0,1.184.989,6.837,6.837,0,0,0,1.246.709,7.918,7.918,0,0,0,1.379.444c.483.109.989.171,1.558.288a4.019,4.019,0,0,1-3.232,0,3.614,3.614,0,0,1-2.134-2.43Z" transform="translate(-70.919 -191.639)" fill="#ee7f6b"/>
          <path id="Trazado_102508" data-name="Trazado 102508" d="M228.578,209.9c-3.621,13.762-12.749,24-18.949,24.829a41.955,41.955,0,0,0,9.953-13.24,30.377,30.377,0,0,0,1.628-4.354,27.89,27.89,0,0,0,1.1-6.939c-.226-3.653-3.754-9.424-14.844-8.878a32.1,32.1,0,0,0-8.193,4.478c-12.718,9.735-9.743,25.156-9.657,25.654-.039-.093-.413-.849-.927-2.1-1.737-4.229-5.086-14.019-3.045-22.515-2.508.584-3.59,3.326-4.346,6.877-.67,3.115-1.09,6.892-2.033,10.358-.981,3.614-2.516,6.931-5.5,8.894,0,0-7.921-27.6-1.16-42.375,8.294-18.1,23.91-14.385,23.91-14.385s2.072-3.061,8.754-3.435c.561,0,1.114-.047,1.651-.047,9.252,0,15.366,3.808,18.987,9.151a24.6,24.6,0,0,1,3.684,9.089h0a29.844,29.844,0,0,1,.553,6.028A46.05,46.05,0,0,1,228.578,209.9Z" transform="translate(-62.775 -172.712)" fill="#590212"/>
          <path id="Trazado_102509" data-name="Trazado 102509" d="M202.43,222.343a14.6,14.6,0,0,1,2.539-.639,22.025,22.025,0,0,1,2.57-.3,20.864,20.864,0,0,1,5.2.234l.3.055.148.164c.241.288.46.6.693.9s.444.607.662.919a18.316,18.316,0,0,1,1.2,1.963,18.376,18.376,0,0,1-1.877-1.324c-.3-.241-.6-.475-.88-.724a11.2,11.2,0,0,1-.841-.779l.444.218-2.508-.055c-.833,0-1.682-.039-2.523-.1a34.336,34.336,0,0,1-5.125-.522Z" transform="translate(-69.976 -183.465)" fill="#621a1b"/>
          <path id="Trazado_102510" data-name="Trazado 102510" d="M223.05,227.277a16.883,16.883,0,0,1,3.014-1.1,28.035,28.035,0,0,1,3.115-.662l.28-.047.257.164a8.472,8.472,0,0,1,1.4,1.1,11.936,11.936,0,0,1,1.121,1.316,11.168,11.168,0,0,1,.9,1.449,8.281,8.281,0,0,1,.623,1.6c-.452-.358-.857-.74-1.277-1.1l-1.207-1.075c-.4-.343-.779-.7-1.2-1.012a14.68,14.68,0,0,0-1.223-.88l.537.117a27.7,27.7,0,0,1-3.115.28A16.355,16.355,0,0,1,223.05,227.277Z" transform="translate(-74.537 -184.38)" fill="#621a1b"/>
          <path id="Trazado_102511" data-name="Trazado 102511" d="M304.561,428.393c-28.762,13.154-54.836,24.369-65.685,29a21.324,21.324,0,0,1-3.606-3.458L294.577,415,323.79,375.48C334.413,387.567,328.307,417.536,304.561,428.393Z" transform="translate(-77.24 -217.56)" fill="#39325a" opacity="0.25"/>
          <path id="Trazado_102512" data-name="Trazado 102512" d="M142.755,454.8v.421q-3.115.779-6.838,1.558c-2.928.592-4.626,1.706-5.226,3.435-18.349-6.192-56.9-20.249-91.355-39.719-2.882-3.115-4.8-7.734-6.067-12.671a27.889,27.889,0,0,1,7.679-27.056s-2.757,19.307,0,29.805C55.832,422.226,117.888,445.645,142.755,454.8Z" transform="translate(-32.365 -218.73)" fill="#39325a" opacity="0.25"/>
          <path id="Trazado_102513" data-name="Trazado 102513" d="M216.086,477.576a77.885,77.885,0,0,1-15.117,6.363c-11.449,3.162-25.7,4.424-33.972,4.556h-.117a7.516,7.516,0,0,1-5.491-2.336c9.626-1.558,44.61-7.3,49.8-10.389-2.547-8.318.872-13.769.872-13.769A18.31,18.31,0,0,0,216.086,477.576Z" transform="translate(-60.899 -236.697)" fill="#ee7f6b" opacity="0.5"/>
          <path id="Trazado_102514" data-name="Trazado 102514" d="M230.657,218.338a27.889,27.889,0,0,1-1.1,6.939c-1.215-3.271-4.673-11.215-10.849-13.435-3.458.615-11.09,2.1-11.09,2.1a32.1,32.1,0,0,1,8.193-4.478C226.9,208.915,230.431,214.686,230.657,218.338Z" transform="translate(-71.124 -180.831)" fill="#ee7f6b" opacity="0.5"/>
          <path id="Trazado_102515" data-name="Trazado 102515" d="M231.015,223.867c-4.385,9.751-11.254,16.48-16.23,17.134a41.955,41.955,0,0,0,9.953-13.24,30.378,30.378,0,0,0,1.628-4.354,27.89,27.89,0,0,0,1.1-6.939c-.226-3.653-3.754-9.424-14.844-8.878a32.1,32.1,0,0,0-8.193,4.478c-12.921,9.891-9.65,25.662-9.65,25.662s-.382-.779-.935-2.111h0c-1.231-5.576-3.209-23.762,19.844-34.12a14.315,14.315,0,0,1,5.53-.156C229.559,203,235.314,214.319,231.015,223.867Z" transform="translate(-67.931 -179)" fill="#621a1b" opacity="0.5"/>
          <path id="Trazado_102516" data-name="Trazado 102516" d="M226.672,181.861c-10.21,4.844-19.073,1.441-27.858-1.659-5.483,11.425-25.444,10.374-25.444,10.374,8.294-18.1,23.91-14.385,23.91-14.385s2.072-3.061,8.754-3.435c.561,0,1.114-.047,1.651-.047C216.937,172.71,223.05,176.518,226.672,181.861Z" transform="translate(-63.549 -172.71)" fill="#a53d2f" opacity="0.5"/>
          <path id="Trazado_102517" data-name="Trazado 102517" d="M202.37,325.268s-26.48,7.508-41.962,5.506c-4.54,6.83-17.134,20.016-23.146,26.153-1.044-.374-2.1-.74-3.17-1.075l-.241-.078c17.632-35.942,8.341-98.567,7.874-101.845,0,0,1.83-.273,5.771-.779h0a6.09,6.09,0,0,1,2.726,2.142c3.435,4.79,13.107,20.693,9.6,43.863C155.633,327.145,202.37,325.268,202.37,325.268Z" transform="translate(-54.807 -190.502)" fill="#a53d2f" opacity="0.25"/>
          <g id="Grupo_54138" data-name="Grupo 54138" transform="translate(66.242 63.287)">
            <path id="Trazado_102518" data-name="Trazado 102518" d="M150.675,286.619v.187c-.3,2.29-.646,4.79-1.067,7.453a179.438,179.438,0,0,1-11.994,42.165l-3.3-.911-14.252-3.956a200.232,200.232,0,0,1-1.083-27.2c.132-4.992.444-10.428,1.044-16.082a155.324,155.324,0,0,1,4.034-22.664,37.08,37.08,0,0,1,8.863-9.385,8.279,8.279,0,0,1,4.907-1.612,8.365,8.365,0,0,1,7.274,4.213,44.68,44.68,0,0,1,5.576,27.8Z" transform="translate(-117.742 -254.112)" fill="#ee7f6b"/>
            <path id="Trazado_102519" data-name="Trazado 102519" d="M149.023,304.461c-.607.093-1.2.164-1.783.226-16,1.838-25.218-3.224-28.411-5.452a11.317,11.317,0,0,1-1.277-1s-2.7-37.383,15.857-43.489c4.416-1.449,9.151-1.083,11.581,2.874C147.325,261.369,155.923,277.965,149.023,304.461Z" transform="translate(-117.413 -253.97)" fill="#d66969"/>
          </g>
          <path id="Trazado_102520" data-name="Trazado 102520" d="M147.618,317.539a174.64,174.64,0,0,1-10,31.6l-3.3-.911c.732-3.248,2.274-10.171,5.584-25.008a46.729,46.729,0,0,1-20.88-6.153c0-1.62.109-3.279.187-4.984C122.4,314.354,131.621,319.378,147.618,317.539Z" transform="translate(-51.527 -203.537)" fill="#a14838" opacity="0.25"/>
          <path id="Trazado_102521" data-name="Trazado 102521" d="M204.444,258.245c-1,3.178-3.349,3.941-7.266,3.847l-13.24-15.724L181.89,235.7c.942-3.466,1.363-7.227,2.033-10.358-.07,2.812-.241,14.455,2.2,17.78,0,0,10.818,10.9,13.061,13.03a7.087,7.087,0,0,0,3.606,1.822Z" transform="translate(-65.433 -184.351)" fill="#a14838" opacity="0.25"/>
        </g>
        <g id="Grupo_54146" data-name="Grupo 54146" transform="translate(185.793 55.989)">
          <path id="Trazado_102522" data-name="Trazado 102522" d="M352.143,388.226,340.461,391.2l-1.223-34.852-1.425.561L324.48,327.37l1.464.413c4.042,1.558,11.355,7.072,14.626,16.6a93.894,93.894,0,0,1,2.617,9.346,9.743,9.743,0,0,0,4.089-1.558C348.5,358.78,352.556,381.6,352.143,388.226Z" transform="translate(-265.397 -262.908)" fill="#ee7f6b"/>
          <g id="Grupo_54140" data-name="Grupo 54140" transform="translate(14.916 39.844)">
            <path id="Trazado_102523" data-name="Trazado 102523" d="M304.1,320.4l-3.03.491-16.106,2.555-.53-3.115-.171-.942-.779-4.377-2.773-16.2,17.827-3.053a74.523,74.523,0,0,0,1.168,7.726c.3,1.5.623,3,.958,4.455.148.639.3,1.262.452,1.869.093.413.2.818.3,1.215.436,1.737.872,3.333,1.254,4.673.055.187.109.374.156.553l.3,1.028c.047.156.093.312.132.459a1.349,1.349,0,0,0,.055.164c.062.234.132.452.187.654s.125.382.171.561C303.95,319.95,304.1,320.4,304.1,320.4Z" transform="translate(-270.632 -295.76)" fill="#ee7f6b"/>
            <path id="Trazado_102524" data-name="Trazado 102524" d="M337.263,413.954s-39.462,20.623-50.662,12.9c-2.6-.935-2.944-4.338-.491-7.056a59.227,59.227,0,0,1,1.472-15.374s-13.325-23.24-19.813-63.816a46.253,46.253,0,0,1,11.168-8.567l1.285-.693c.615-.319,1.246-.631,1.9-.942l19.135-3.045c1.745-.125,3.2-.195,4.478-.218h1.729c1.558,0,2.866.078,4.221.171,3.17.226,12.554,5.88,16.355,17.048a93.879,93.879,0,0,1,2.617,9.346C336.274,378.074,337.263,413.954,337.263,413.954Z" transform="translate(-267.77 -302.701)" fill="#77a9c4"/>
          </g>
          <path id="Trazado_102525" data-name="Trazado 102525" d="M290.739,403.438l-9.782,4.019a275.474,275.474,0,0,1-12.4-25.537h0c-.779-1.947-1.558-3.894-2.336-5.872a85.487,85.487,0,0,1-3.668-12.243c-.623-9.805,4.019-19.385,4.019-19.385s13.886,2.1,16.931,12.4c.88,2.967,1.7,6.589,2.438,10.491,1.893,9.992,3.3,21.807,4.1,29.112C290.5,400.689,290.739,403.438,290.739,403.438Z" transform="translate(-251.687 -266.679)" fill="#ff9e7d"/>
          <g id="Grupo_54143" data-name="Grupo 54143" transform="translate(44.169 82.357)">
            <g id="Grupo_54141" data-name="Grupo 54141" transform="translate(0 4.088)">
              <path id="Trazado_102526" data-name="Trazado 102526" d="M312.448,358.325A3.606,3.606,0,1,1,310.8,356.1a3.614,3.614,0,0,1,1.652,2.221Z" transform="translate(-305.33 -355.595)" fill="#b55d49"/>
              <path id="Trazado_102527" data-name="Trazado 102527" d="M311.766,358.858a2.617,2.617,0,1,1-3.178-1.9,2.617,2.617,0,0,1,3.178,1.9Z" transform="translate(-305.614 -355.879)" fill="#884637"/>
            </g>
            <g id="Grupo_54142" data-name="Grupo 54142" transform="translate(16.179)">
              <path id="Trazado_102528" data-name="Trazado 102528" d="M333.235,353.075a3.621,3.621,0,1,1-4.393-2.617,3.621,3.621,0,0,1,4.393,2.617Z" transform="translate(-326.104 -350.346)" fill="#b55d49"/>
              <path id="Trazado_102529" data-name="Trazado 102529" d="M332.536,353.607A2.609,2.609,0,1,1,331.343,352,2.617,2.617,0,0,1,332.536,353.607Z" transform="translate(-326.386 -350.629)" fill="#884637"/>
            </g>
          </g>
          <path id="Trazado_102530" data-name="Trazado 102530" d="M326.2,411.623c-.981,5.164-4.19,8.894-7.173,8.333s-4.587-5.218-3.606-10.389,4.2-8.9,7.173-8.333S327.186,406.491,326.2,411.623Z" transform="translate(-263.329 -279.233)" fill="#663529"/>
          <ellipse id="Elipse_4082" data-name="Elipse 4082" cx="5.491" cy="9.525" rx="5.491" ry="9.525" transform="translate(65.049 120.475)" fill="#663529"/>
          <path id="Trazado_102531" data-name="Trazado 102531" d="M311.007,376.444c2.5.88,2.967,6.036,1.044,11.511s-5.514,9.213-8.014,8.333-2.967-6.036-1.044-11.511S308.5,375.563,311.007,376.444Z" transform="translate(-260.382 -273.734)" fill="#663529"/>
          <ellipse id="Elipse_4083" data-name="Elipse 4083" cx="14.595" cy="16.597" rx="14.595" ry="16.597" transform="matrix(0.97, -0.245, 0.245, 0.97, 42.916, 100.101)" fill="#884637"/>
          <ellipse id="Elipse_4084" data-name="Elipse 4084" cx="9.696" cy="11.028" rx="9.696" ry="11.028" transform="matrix(0.97, -0.245, 0.245, 0.97, 49.029, 104.3)" fill="#b55d49"/>
          <path id="Trazado_102532" data-name="Trazado 102532" d="M322.14,373.877c-3.964,1-11.76-2.064-13.24-7.889a11.307,11.307,0,0,1-.241-1.223,10.9,10.9,0,0,1,21.386-4.128,7.09,7.09,0,0,1,.218,1.441C330.637,367.475,325.785,372.942,322.14,373.877Z" transform="translate(-261.873 -268.426)" fill="#b55d49"/>
          <g id="Grupo_54144" data-name="Grupo 54144" transform="translate(54.054 93.864)">
            <path id="Trazado_102533" data-name="Trazado 102533" d="M319.36,367.575a.678.678,0,1,1-.311-.417.678.678,0,0,1,.311.417Z" transform="translate(-318.023 -365.551)" fill="#3b1a12"/>
            <path id="Trazado_102534" data-name="Trazado 102534" d="M327.028,365.635a.693.693,0,0,1-.5.833.685.685,0,0,1-.826-.5.678.678,0,0,1,.491-.826A.685.685,0,0,1,327.028,365.635Z" transform="translate(-319.717 -365.122)" fill="#3b1a12"/>
          </g>
          <g id="Grupo_54145" data-name="Grupo 54145" transform="translate(55.592 96.698)">
            <rect id="Rectángulo_5397" data-name="Rectángulo 5397" width="5.421" height="5.421" rx="2.69" transform="matrix(0.97, -0.245, 0.245, 0.97, 0, 1.327)" fill="#c47d6d"/>
            <path id="Trazado_102535" data-name="Trazado 102535" d="M323.62,371.541h0a.779.779,0,0,1-.849-.312l-.537-.779a.779.779,0,0,1,.46-1.238l.646-.164a.779.779,0,0,1,1.012.888l-.117.927A.779.779,0,0,1,323.62,371.541Z" transform="translate(-320.457 -368.815)" fill="#884637"/>
          </g>
          <path id="Trazado_102536" data-name="Trazado 102536" d="M467.45,475.309H442.295s-1.706-1.955-.989-5.857a4.611,4.611,0,0,0-2.142-4.8c-6.573-4.058-22.531-14.19-35.047-24.268A92.767,92.767,0,0,1,391.127,428.2l-.522-.646-.553.623c-.195.2-.389.413-.584.639l-2.118,2.336-.927,1.012c-.226.249-.46.491-.685.779l-.273.3c-.646.717-1.324,1.441-2.009,2.188l-3.193,3.45c-.086-.467-.171-.942-.241-1.41-.047-.241-.086-.5-.125-.779v-.226c-.055-.3-.1-.6-.14-.9a1.685,1.685,0,0,1,0-.195c-.039-.288-.07-.576-.1-.864v-.257l-.117-1.051c-.047-.382-.086-.779-.117-1.145s-.078-.779-.109-1.137l-.093-1.16c0-.358-.047-.724-.07-1.075s-.039-.779-.07-1.184c0-.654-.062-1.293-.078-1.939v-.389c0-.639,0-1.262-.047-1.885a139.763,139.763,0,0,1,.74-17l2.383-1.02a29.407,29.407,0,0,1,12.773-2.4,15.576,15.576,0,0,1,6.324,1.386c12.508,15.724,34.47,40.872,45.747,53.668a41.822,41.822,0,0,0,20.677,12.8l1.371.351a1.947,1.947,0,0,1,1.425,1.363C471.173,475.309,467.45,475.309,467.45,475.309Z" transform="translate(-277.441 -279.602)" fill="#ff9e7d"/>
          <path id="Trazado_102537" data-name="Trazado 102537" d="M437.8,481.935H414.638s-1.986-2.056-1.059-6.277a3.894,3.894,0,0,0-1.558-4.05c-4.618-3.154-15.156-10.343-23.816-16.316h0c-4.291-2.952-8.107-5.607-10.545-7.336,2.773-2.96,5.452-5.826,7.788-8.419s4.478-4.9,6.145-6.737c8.318,9.766,16.986,19.712,23.575,27.258,4.369,4.977,7.827,8.878,9.657,10.9h0c.919,1.044,1.425,1.6,1.425,1.6s1.861,2.336,13.045,5.132a1.939,1.939,0,0,1,1.433,1.363C441.523,481.935,437.8,481.935,437.8,481.935Z" transform="translate(-277.16 -286.227)" fill="#ee7f6b"/>
          <path id="Trazado_102538" data-name="Trazado 102538" d="M339.689,402.54a22.391,22.391,0,0,1-3.7-2.383c-1.1-.779-2.336-1.752-3.692-2.8-2.539-2-5.452-4.354-8.216-6.667-6.558-5.452-12.617-10.662-12.632-10.677a6.7,6.7,0,0,1-3.793-1.192h0a21.444,21.444,0,0,1-2.064-1.067,2.656,2.656,0,0,1-1.293-2.57,1.97,1.97,0,0,1-.093-1.558l.109-.265V373.3a2.555,2.555,0,0,1,.639-2.336,1.643,1.643,0,0,1,1.791-1.729l2.8.257h.444a5.779,5.779,0,0,1,3.645,2.539,39.6,39.6,0,0,1,2.243,3.4s15.537,7.391,25.95,14.019c1.558.981,2.959,1.947,4.206,2.874.545.4,1.067.779,1.558,1.192.086.055.109.171.164.265C350.289,398.381,346.021,405.048,339.689,402.54Z" transform="translate(-260.887 -272.167)" fill="#ff9e7d"/>
          <path id="Trazado_102539" data-name="Trazado 102539" d="M339.117,400.793A8.956,8.956,0,0,1,336,402.615h0a5.085,5.085,0,0,1-1.558.553,12.68,12.68,0,0,1-1.854.148,9.846,9.846,0,0,1-1.5-.1l-1.192.779c-5.6,3.5-29.3,18.006-37.531,18.014h-.4a7.149,7.149,0,0,1-5.794-3.427,7.508,7.508,0,0,1-.631-6.737,16.93,16.93,0,0,1,1.223-2.508,8.419,8.419,0,0,1,3.115-3.178,29.058,29.058,0,0,1,4.852-2.064,57.384,57.384,0,0,1,11.082-2.157,117.16,117.16,0,0,0,21.877-4.26s2.422-3.115,4.159-3.769a3.246,3.246,0,0,1,.444-.14l.21-.055,2.6-.639a1.745,1.745,0,0,1,2.048,1.044,1.83,1.83,0,0,1,.95.981,1.783,1.783,0,0,1,.132.974v.078h0a2.469,2.469,0,0,1,1.036,2.617A1.472,1.472,0,0,1,339.117,400.793Z" transform="translate(-256.67 -277.429)" fill="#ff9e7d"/>
          <path id="Trazado_102540" data-name="Trazado 102540" d="M336.147,372.336c-2.593.545-3.723,5.6-2.523,11.277s4.268,9.852,6.861,9.3,3.731-5.592,2.531-11.277S338.764,371.791,336.147,372.336Z" transform="translate(-267.314 -272.843)" fill="#884637"/>
          <path id="Trazado_102541" data-name="Trazado 102541" d="M298.377,291.114a34.222,34.222,0,0,1-4.143,7.625,29.51,29.51,0,0,1-9.634,8.528,36.41,36.41,0,0,1-5.039,2.336,17.631,17.631,0,0,1-2.64.779c-9.509,2.087-19.174-3.676-19.1-11.5a10.9,10.9,0,0,1,.148-1.635,3.346,3.346,0,0,1,.055-.358,30.9,30.9,0,0,0-1.308-6.363,4.553,4.553,0,0,0-.156-.5c-.2-.623-.483-1.285-.779-2.009-.584-1.34-1.308-2.858-1.994-4.486-3.232-7.741-5.592-18.216,11.487-26.425,10.218-4.891,26.994-4.673,32.1,9.533a41.59,41.59,0,0,1,2.336,10.241A35.94,35.94,0,0,1,298.377,291.114Z" transform="translate(-249.255 -246.73)" fill="#ff9e7d"/>
          <path id="Trazado_102542" data-name="Trazado 102542" d="M265.384,305.8a1.8,1.8,0,0,1,.779-2.508,3.894,3.894,0,0,1,4.174.779A6.369,6.369,0,0,1,265.384,305.8Z" transform="translate(-252.274 -257.517)" fill="#ee7f6b"/>
          <path id="Trazado_102543" data-name="Trazado 102543" d="M273.082,316.663a6.23,6.23,0,0,1-1.449-.148.311.311,0,0,1-.226-.374.319.319,0,0,1,.374-.226,7.414,7.414,0,0,0,6.682-2.2.312.312,0,0,1,.444.428,8.014,8.014,0,0,1-5.826,2.523Z" transform="translate(-253.656 -259.872)" fill="#ee7f6b"/>
          <path id="Trazado_102544" data-name="Trazado 102544" d="M364.65,451.845c-1.791,1.947-3.481,3.769-5.265,5.452-7.516,7.22-16.628,12.414-41.441,16.643a37.282,37.282,0,0,1-15.825-.662c-2.212-.592-4.19-1.355-5.171-2.336a20.545,20.545,0,0,1-6.417-14.019c-.086-1.674-.125-3.427-.093-5.078h0c.039-3.115.343-5.95,1.153-7.3,4.19-7.064,27.64-18.972,48.606-28.567q3.178-1.449,6.231-2.819c2.336-1.051,4.587-2.04,6.643-2.936l3.769-1.612L360,407.25a139.762,139.762,0,0,0-.74,17,96.572,96.572,0,0,0,1.417,15.576c.156.864.343,1.713.537,2.547a36.175,36.175,0,0,0,3.435,9.47Z" transform="translate(-257.865 -280.576)" fill="#c4c5be"/>
          <path id="Trazado_102545" data-name="Trazado 102545" d="M271.4,286.06a7.508,7.508,0,0,0,2.181,4.221l1.3-1.737.849-.646,3.988-.436a17.422,17.422,0,0,1,4.393.872l1.558-3.59-4.634-1.394-6.791.374Z" transform="translate(-253.656 -253.171)" fill="#ee7f6b" opacity="0.5"/>
          <path id="Trazado_102546" data-name="Trazado 102546" d="M386.424,454.724a26.178,26.178,0,0,1-1.822,3.894,33.1,33.1,0,0,1-2.835-7.126c-.125-.428-.241-.857-.343-1.293-.086-.312-.156-.631-.234-.942-.2-.88-.4-1.776-.561-2.679q1.651-1.76,3.193-3.45l2.009-2.188.273-.3c.226-.257.46-.5.685-.779l.927-1.012.888-.981a35.14,35.14,0,0,1-2.181,16.853Z" transform="translate(-277.817 -287.349)" fill="#6c6f58"/>
          <path id="Trazado_102547" data-name="Trazado 102547" d="M288.033,373.793a6.761,6.761,0,0,1-1.1,1.285c-1.846,1.791-6.371,4.883-16,5.771-.974.093-2.009.164-3.115.2h-1.051c-12.882-23.123-.569-36.682-.569-36.682C289.7,344.253,288.033,373.793,288.033,373.793Z" transform="translate(-251.333 -266.668)" fill="#9acade"/>
          <path id="Trazado_102548" data-name="Trazado 102548" d="M311.821,334.806c-1.215,2.531-4.354,3.894-9.346,4.042h-1.363c-13.551,0-18.692-6.4-18.894-6.674l-.148-.195,1.285-.693c.615-.319,1.246-.631,1.9-.942l19.135-3.045c1.745-.125,3.2-.195,4.478-.218H310.6C311.564,328.645,313.168,331.963,311.821,334.806Z" transform="translate(-256.017 -262.844)" fill="#9acade"/>
          <path id="Trazado_102549" data-name="Trazado 102549" d="M304.306,337.324c-.475,0-.974.07-1.5.093-14.019.436-19.073-6.09-19.073-6.09h0c.615-.327,1.254-.639,1.9-.942l16.106-2.586,3.03-.491c1.745-.125,3.2-.195,4.486-.218C309.579,327.557,315.942,336.28,304.306,337.324Z" transform="translate(-256.384 -262.846)" fill="#ee7f6b"/>
          <path id="Trazado_102550" data-name="Trazado 102550" d="M381.8,451.845c-1.791,1.947-3.481,3.769-5.265,5.452a31.542,31.542,0,0,1-5.6-9.626c-5.506-14.587-1.908-32.43-.717-37.438l3.769-1.62,3.162-1.363a139.762,139.762,0,0,0-.74,17,96.579,96.579,0,0,0,1.417,15.576c.156.864.343,1.721.537,2.547.3,1.347.654,2.656,1.067,3.894.1.312.2.623.3.919.148.436.3.857.483,1.285.086.234.179.459.273.67s.086.21.125.312.187.421.28.623C381.177,450.669,381.472,451.276,381.8,451.845Z" transform="translate(-275.014 -280.576)" fill="#dde1c8"/>
          <path id="Trazado_102551" data-name="Trazado 102551" d="M263.261,294.26a22.673,22.673,0,0,1-2.508.109,9.019,9.019,0,0,0-4.143,2.85,2.25,2.25,0,0,1,.179-.67h0a4.746,4.746,0,0,1,.327-.623,4.883,4.883,0,0,1,.95-1.051,5.453,5.453,0,0,1,1.207-.779,6.7,6.7,0,0,1,.654-.257l.67-.179h.125a11.684,11.684,0,0,1,2.539.6Z" transform="translate(-250.385 -255.451)" fill="#621a1b"/>
          <path id="Trazado_102552" data-name="Trazado 102552" d="M274.2,291.341a10.012,10.012,0,0,1,.849-1.456,6.231,6.231,0,0,1,1.16-1.293h.132a15.577,15.577,0,0,1,2.111-.4,10.737,10.737,0,0,1,2.181,0,10.4,10.4,0,0,1,4.1,1.269,28.47,28.47,0,0,0-4.151-.506,20.943,20.943,0,0,0-4.1.327l.125-.055a7.555,7.555,0,0,0-1.215,1Z" transform="translate(-254.276 -254.23)" fill="#621a1b"/>
          <path id="Trazado_102553" data-name="Trazado 102553" d="M286.069,298.367c.226,2.017-2.087,3.933-5.171,4.276s-5.763-1.012-5.981-3.022,2.087-3.933,5.171-4.276S285.882,296.35,286.069,298.367Z" transform="translate(-254.431 -255.812)" fill="#ee7f6b" opacity="0.5"/>
          <path id="Trazado_102554" data-name="Trazado 102554" d="M259.4,307.424a2,2,0,0,1,.062-.366,31.845,31.845,0,0,0-1.308-6.363c-.047-.164-.1-.327-.164-.5,1.908-.413,3.645,0,4.369,1.285C263.364,303.218,262.04,305.866,259.4,307.424Z" transform="translate(-250.69 -256.863)" fill="#ee7f6b" opacity="0.5"/>
          <path id="Trazado_102555" data-name="Trazado 102555" d="M348.244,351.21a5.572,5.572,0,0,1-1.028.935,6.308,6.308,0,0,1-1.176.678,10.9,10.9,0,0,1-2.913.864,93.042,93.042,0,0,0-2.609-9.346c-3.271-9.517-10.592-15.039-14.626-16.589a6.435,6.435,0,0,0-1.464-.413,2.111,2.111,0,0,0-.288-.039S345.464,327.845,348.244,351.21Z" transform="translate(-265.322 -262.892)" fill="#9acade"/>
          <path id="Trazado_102556" data-name="Trazado 102556" d="M262.824,289l-.039,4.245a11.68,11.68,0,0,0-2.539-.592h-.125l-.67.179a6.707,6.707,0,0,0-.654.257,5.452,5.452,0,0,0-1.207.779,4.882,4.882,0,0,0-.95,1.051,4.739,4.739,0,0,0-.327.623c-.553-1.246-1.215-2.648-1.854-4.143.67-.452,1.285-.779,1.924-1.168l1.939-1.122h2.087l1.192-.055A9.007,9.007,0,0,1,262.824,289Z" transform="translate(-249.91 -254.421)" fill="#ee7f6b" opacity="0.5"/>
          <path id="Trazado_102557" data-name="Trazado 102557" d="M303.936,296.593a33.487,33.487,0,0,1-3.987,7.251,29.509,29.509,0,0,1-9.634,8.528c-3.349-.888-6.036-3.333-3.3-8.03,4.159-7.134,4.151-23.536-1.558-24.143s-7.788,3.6-7.788,3.6h0a5.35,5.35,0,0,1,1.215-5.607c2.118-2.22,11.682-.3,15.677,6.41a9.673,9.673,0,0,0,6.23,4.54h0C300.3,292.761,301.631,295.97,303.936,296.593Z" transform="translate(-254.97 -251.835)" fill="#ee7f6b" opacity="0.5"/>
          <path id="Trazado_102558" data-name="Trazado 102558" d="M262.756,288.566a10.5,10.5,0,0,0-1.223.047l-1.192.055h-2.087l-1.939,1.121c-.639.358-1.254.717-1.924,1.168l-.241.164a3.294,3.294,0,0,1,.467-1.316,6.108,6.108,0,0,1,.849-1.09,7.788,7.788,0,0,1,2.188-1.558l.226-.117h.21a12.316,12.316,0,0,1,2.407.436,9.2,9.2,0,0,1,1.176.421A3.545,3.545,0,0,1,262.756,288.566Z" transform="translate(-249.841 -253.987)" fill="#491708"/>
          <path id="Trazado_102559" data-name="Trazado 102559" d="M283.02,283.449a23,23,0,0,0-2.78-.685,18.692,18.692,0,0,0-5.787-.2h-.187l-.078.055a7.337,7.337,0,0,0-1.62,1.464,9.408,9.408,0,0,0-1.168,1.752c.592-.374,1.153-.779,1.721-1.121a11.042,11.042,0,0,1,1.558-.841c1.776.062,3.567.257,5.382.4a50.122,50.122,0,0,0,5.662.241A16.158,16.158,0,0,0,283.02,283.449Z" transform="translate(-253.656 -252.967)" fill="#491708"/>
          <path id="Trazado_102560" data-name="Trazado 102560" d="M290.373,251.975a8,8,0,0,0-.623-7.375c2,.623,2.967,4.346,2.967,4.346a7.327,7.327,0,0,1,6-4.346c-2,1.721-1.558,6.55-1.558,6.55Z" transform="translate(-257.715 -244.6)" fill="#5b1700"/>
          <path id="Trazado_102561" data-name="Trazado 102561" d="M303.518,281.115l-4.377,1.425-3.03.974h-.335a8.792,8.792,0,0,1-1.371-.179h0a9.673,9.673,0,0,1-6.231-4.54c-4.011-6.713-13.559-8.629-15.677-6.41a5.351,5.351,0,0,0-1.215,5.607h0s-8.154-1.083-9.766-4.322c-4.369,4.564,1.363,9.813,1.363,9.813s-8.279-2.126-9.346-5.974c-1.682,2.165-1.807,5.763-.607,7.095-3.115-2.469-4.159-6.7-4.291-10.467h0a20.6,20.6,0,0,1,.678-6.16,27.9,27.9,0,0,1,2.952-6.737c9.447-15.3,29.595-8.746,29.595-8.746a16.293,16.293,0,0,1,11.986-.055,21.238,21.238,0,0,1,6.472,4.813C309.094,266.855,303.518,281.115,303.518,281.115Z" transform="translate(-248.617 -246.037)" fill="#c83737"/>
          <path id="Trazado_102562" data-name="Trazado 102562" d="M316.878,291.479c-.779,4.065-3.512,6.955-6.1,6.464l-.218-.055c-2.336-.623-3.637-3.832-3.178-7.484a3.342,3.342,0,0,1,.117-.724c.779-4.065,3.512-6.963,6.106-6.456S317.664,287.406,316.878,291.479Z" transform="translate(-261.595 -253.13)" fill="#ff9e7d"/>
          <path id="Trazado_102563" data-name="Trazado 102563" d="M316.611,293.282c-.569,2.952-2.555,5.054-4.431,4.673s-2.952-3.045-2.383-6,2.547-5.054,4.431-4.673S317.18,290.291,316.611,293.282Z" transform="translate(-262.116 -254.03)" fill="#ee7f6b"/>
          <path id="Trazado_102564" data-name="Trazado 102564" d="M304.647,333.844c.055-2.2-.14-5.833-.14-5.833l-2.43-3.692-3.629-5.452-3.52,3.349-9.486,1.558-.171-.942a15.833,15.833,0,0,0,1.752-.569,30.963,30.963,0,0,0,14.681-10.9c.148.639.3,1.262.452,1.869q.14.623.3,1.215c.436,1.737.872,3.333,1.254,4.673.055.187.1.374.156.553l.3,1.028c.047.156.093.312.132.46a1.339,1.339,0,0,0,.055.164c.062.234.132.452.187.654s.117.382.171.561c.241.779.389,1.246.389,1.246,1.745-.125,3.2-.195,4.486-.218C309.919,324.078,316.282,332.8,304.647,333.844Z" transform="translate(-256.724 -259.366)" fill="#a14838" opacity="0.5"/>
          <path id="Trazado_102565" data-name="Trazado 102565" d="M294.405,286.184a9.673,9.673,0,0,1-6.23-4.54c-4.011-6.713-13.559-8.629-15.677-6.41a5.335,5.335,0,0,0-1.2,5.639s-8.154-1.083-9.766-4.322c-4.369,4.564,1.363,9.813,1.363,9.813s-8.279-2.126-9.346-5.974c-1.682,2.165-1.807,5.763-.607,7.095-3.115-2.469-4.159-6.7-4.291-10.467h0a11.854,11.854,0,0,1,7.952-8.084c-2.336,3.777,1.713,6.347,1.713,6.347s2.609-8.341,11.121-11.16c-1.69,2.492-3.294,7.009,8.341,7.009S285.426,280.257,294.405,286.184Z" transform="translate(-248.624 -248.918)" fill="#5b1700" opacity="0.25"/>
          <path id="Trazado_102566" data-name="Trazado 102566" d="M301.326,257.259c-5.81,3.419-19.7-2.079-19.7-2.079s-11.293,2.4-17.913,6.09-10.537,0-10.537,0c9.447-15.3,29.595-8.746,29.595-8.746a16.293,16.293,0,0,1,11.986-.055A21.238,21.238,0,0,1,301.326,257.259Z" transform="translate(-249.626 -246.044)" fill="#c62905" opacity="0.5"/>
          <path id="Trazado_102567" data-name="Trazado 102567" d="M270.944,380.861c-1.285.125-2.664.2-4.143.241-12.882-23.123-.569-36.682-.569-36.682S264.013,367.021,270.944,380.861Z" transform="translate(-251.339 -266.679)" fill="#aed5e5"/>
          <path id="Trazado_102568" data-name="Trazado 102568" d="M291.33,402.032a29.054,29.054,0,0,0-4.852,2.064,8.419,8.419,0,0,0-3.115,3.177c.483-3.115,5.452-6.729,5.452-6.729L285,390.381a35.178,35.178,0,0,1-14.8.249h0c-.117-.288-.241-.569-.35-.857,1.083-.039,2.118-.109,3.115-.2,9.626-.888,14.151-3.98,16-5.771C289.928,390.287,290.738,396.845,291.33,402.032Z" transform="translate(-253.314 -275.389)" fill="#ee7f6b"/>
          <path id="Trazado_102569" data-name="Trazado 102569" d="M339.444,402.42a8.956,8.956,0,0,1-3.115,1.822h0a5.085,5.085,0,0,1-1.558.553,12.68,12.68,0,0,1-1.854.148,9.846,9.846,0,0,1-1.5-.1S302.061,423.6,292.7,423.6h-.4a7.15,7.15,0,0,1-5.794-3.427l9.572.646,34.719-16.6s7.531-.148,8.793-3.847a1.472,1.472,0,0,1-.14,2.041Z" transform="translate(-256.996 -279.057)" fill="#ee7f6b" opacity="0.25"/>
          <path id="Trazado_102570" data-name="Trazado 102570" d="M354.237,400.354h0a4.79,4.79,0,0,1-3.473,3.941l-6.23,1.69c-.592-.428-1.231-.9-1.893-1.425l1.192-.779a9.841,9.841,0,0,0,1.5.1,12.676,12.676,0,0,0,1.854-.148,5.086,5.086,0,0,0,1.558-.553h0a8.957,8.957,0,0,0,3.115-1.822,1.472,1.472,0,0,0,.117-2.056,2.469,2.469,0,0,0-1.028-2.6h0v-.078a1.784,1.784,0,0,0-.132-.974c.678.436,1.332.872,1.963,1.3a3.512,3.512,0,0,1,1.464,3.4Z" transform="translate(-269.414 -278.01)" fill="#ee7f6b" opacity="0.5"/>
          <path id="Trazado_102571" data-name="Trazado 102571" d="M330.278,362.129c-.311-.561-4.167-7.111-12.064-6.511-8.232.631-9.19,9.6-9.19,9.6l-.327-.413A10.9,10.9,0,0,1,330.06,360.7a7.088,7.088,0,0,1,.218,1.433Z" transform="translate(-261.888 -268.485)" fill="#c47d6d"/>
          <path id="Trazado_102572" data-name="Trazado 102572" d="M391.874,426.832l-.779,2.04-.522-.646c-.732.779-1.558,1.682-2.336,2.6-2.336,2.562-5.054,5.53-7.975,8.676-.086-.467-.171-.942-.241-1.41-.047-.241-.086-.5-.125-.779v-.226c-.055-.3-.1-.6-.14-.9a1.671,1.671,0,0,1,0-.195c-.039-.288-.07-.576-.1-.864v-.257l-.117-1.051c-.047-.382-.086-.779-.117-1.145s-.078-.779-.109-1.137l-.093-1.16c0-.358-.047-.724-.07-1.075s-.039-.779-.07-1.184c0-.654-.062-1.293-.078-1.939V425.8c0-.639,0-1.262-.047-1.885a139.769,139.769,0,0,1,.74-17l2.383-1.02s-2.648,17.632,2.266,24.922Z" transform="translate(-277.441 -280.275)" fill="#ee7f6b"/>
          <path id="Trazado_102573" data-name="Trazado 102573" d="M427.119,471.34l-21.861-20.249a8.925,8.925,0,0,0-14.8,4.587h0c-.833-.561-1.635-1.129-2.43-1.674a35.141,35.141,0,0,0,2.181-16.822l1.231-1.34c.2-.21.389-.428.584-.639l.553-.623.522.646a93.652,93.652,0,0,0,12.991,12.188c4.112,4.727,7.991,9.182,11.34,12.991C421.83,465.374,425.288,469.276,427.119,471.34Z" transform="translate(-279.454 -286.621)" fill="#a14838" opacity="0.5"/>
          <path id="Trazado_102574" data-name="Trazado 102574" d="M346.122,352.873a10.9,10.9,0,0,1-2.913.865,93.043,93.043,0,0,0-2.609-9.346c-3.271-9.517-10.592-15.039-14.626-16.589a6.432,6.432,0,0,0-1.464-.413s10.257.4,16.238,13.17C343.934,347.335,345.421,350.957,346.122,352.873Z" transform="translate(-265.404 -262.912)" fill="#3d6377" opacity="0.25"/>
          <path id="Trazado_102575" data-name="Trazado 102575" d="M359.415,468.789c-7.516,7.22-16.628,12.414-41.441,16.643a37.282,37.282,0,0,1-15.825-.662c-2.212-.592-4.19-1.355-5.171-2.336a20.545,20.545,0,0,1-6.417-14.019c-.086-1.674-.125-3.427-.093-5.078.179.849,3.248,14.509,14.564,18.325,16.269-1.7,37.235-14.595,48.785-22.523a31.541,31.541,0,0,0,5.6,9.65Z" transform="translate(-257.872 -292.053)" fill="#352a3d" opacity="0.25"/>
          <path id="Trazado_102576" data-name="Trazado 102576" d="M382.644,461.809c-1.791,1.947-3.481,3.769-5.265,5.452a31.542,31.542,0,0,1-5.6-9.626c3.435-2.336,6.036-4.276,7.43-5.335.3,1.347.654,2.656,1.067,3.894.093.312.2.623.3.919.148.436.3.857.483,1.285.078.226.179.444.273.67s.086.21.125.311.187.421.28.623A19.531,19.531,0,0,0,382.644,461.809Z" transform="translate(-275.859 -290.541)" fill="#c4c5be" opacity="0.5"/>
        </g>
        <g id="Grupo_54153" data-name="Grupo 54153" transform="translate(0 77.569)">
          <g id="Grupo_54152" data-name="Grupo 54152">
            <g id="Grupo_54151" data-name="Grupo 54151" transform="translate(0 0.008)">
              <path id="Trazado_102577" data-name="Trazado 102577" d="M162.911,296.19s10.054,24.821-2.741,39.143c1.433-4.128,9.977-17.57,0-33.216C160.925,297.6,162.911,296.19,162.911,296.19Z" transform="translate(-43.26 -277.599)" fill="#621a1b"/>
              <path id="Trazado_102578" data-name="Trazado 102578" d="M115.868,466.4c-11.106-.514-26.768,7.142-61.986,10.724a6.02,6.02,0,0,1-4.984-1.784,6.9,6.9,0,0,0-4.252-1.83,6.518,6.518,0,0,0-4.611,1.48,21.154,21.154,0,0,1-7.282,3.5l-13.4,3.435a3.349,3.349,0,0,0-1.931,4.618,1.23,1.23,0,0,0,1.114.709H47.356l95.155-2.025S152.387,468.1,115.868,466.4Z" transform="translate(-11.614 -315.242)" fill="#ee7f6b"/>
              <path id="Trazado_102579" data-name="Trazado 102579" d="M131.671,494.08H11.438a1.207,1.207,0,0,1-1.1-.693,2.586,2.586,0,0,1-.241-.7c-.28-1.441.911-2.446,2.562-3.014l11.581-4.938a8.568,8.568,0,0,0,2.632-1.752c1.254-1.223,3.559-3.03,6.02-2.679a7.3,7.3,0,0,1,4.1,1.682,6.838,6.838,0,0,0,5.382,1.97c35.047-3.6,50.623-11.215,61.744-10.693C140.627,474.922,131.671,494.08,131.671,494.08Z" transform="translate(-10.057 -316.759)" fill="#ff9e7d"/>
              <g id="Grupo_54147" data-name="Grupo 54147" transform="translate(84.739 65.826)">
                <path id="Trazado_102580" data-name="Trazado 102580" d="M161.68,433.942l-2.188.7-5.2,1.659s-13.762-10.973-24.089-21.028h0A89.442,89.442,0,0,1,121.633,406c-.319-.413-.623-.818-.88-1.207,0,0-4.961-5.872,1.192-36.744,1.558-7.788,13.24-10.9,14.385-11.207l.226.164.093.14v.039h0a20.506,20.506,0,0,1,2.788,13.3c-1.215,10.249-6.939,23.5-6.449,26.97C136.22,402.214,161.68,433.942,161.68,433.942Z" transform="translate(-118.863 -356.84)" fill="#ff9e7d"/>
                <path id="Trazado_102581" data-name="Trazado 102581" d="M171.748,455.85l2.461,1.129a8.567,8.567,0,0,1,4.276,4.439h0a5.981,5.981,0,0,1-2.017,7.165h0a4,4,0,0,1-3.894.436h0A13.559,13.559,0,0,1,164.38,458.3v-.132Z" transform="translate(-128.931 -378.74)" fill="#ff9e7d"/>
              </g>
              <path id="Trazado_102582" data-name="Trazado 102582" d="M140.581,466.55H103.65c-1.854-3.115-5.179-5.506-9.283-7.562-.88-.444-1.8-.864-2.749-1.285-1.978-.872-4.089-1.682-6.231-2.492h0c-2.227-.833-4.525-1.635-6.83-2.469-13.419-4.883-26.807-10.467-26.807-24.416,0-5.584,2.157-12.523,7.329-21.277.452-.833.857-1.558,1.223-2.22.857-1.488,1.441-2.375,1.441-2.375s.062,0,.171-.109a10.949,10.949,0,0,0,2.414-2.407c1.682-2.1,4.151-5.9,7.352-12.656,6.425-13.6,9.548-37.749,9.548-37.749a103.75,103.75,0,0,1,16.5-.685c.421,0,.833.039,1.254.062,6.581.343,13.808,1.48,19.431,4.322.358.179.717.358,1.059.553.709.4,1.379.833,2.025,1.293l.226.164.093.07v.07c.21,23.878-6.23,36.744-14.128,43.559-.14.475-.265.942-.374,1.41-.047.234-.1.475-.148.709a19.042,19.042,0,0,0-.366,3.178,11.277,11.277,0,0,0,1.262,6.044q3.832,1.612,7.274,3.232h0c3.933,1.854,7.492,3.715,10.724,5.576a88.025,88.025,0,0,1,18.567,13.762,41.428,41.428,0,0,1,9.533,13.933,14.54,14.54,0,0,1-13.582,19.766Z" transform="translate(-19.279 -289.229)" fill="#77a9c4"/>
              <g id="Grupo_54148" data-name="Grupo 54148" transform="translate(42.354 60.141)">
                <path id="Trazado_102583" data-name="Trazado 102583" d="M100.842,453.963a4.821,4.821,0,0,1-.117,1.425,5.179,5.179,0,0,1-5.911,3.894H94.65l-2.134-.428a6.067,6.067,0,0,1-3.255-1.83,6.168,6.168,0,0,1-1.667-4.05,4.961,4.961,0,0,1,0-.826,20.669,20.669,0,0,0,0-4.54s-21.939-25-23.154-44.252c.327-.981.709-2.157,1-3.115s.569-1.8.569-1.8v-.047c.218-1.472,5.826-37.928,15.273-47.274a5.958,5.958,0,0,1,3.894-1.558,9.811,9.811,0,0,1,2.142.086c1.012.148,1.963,1.254,2.734,2.959a27.4,27.4,0,0,1,.88,17.547c-.966,2.928-1.885,5.639-2.749,8.154-2.477,7.212-4.509,12.741-6.044,16.76h0c-2.243,5.857-3.427,8.5-3.427,8.5,2.017,4.922,6.565,15.654,10.615,25.179,3.894,9.213,7.36,17.282,7.57,17.772h0s2.928,3.4,3.544,5.452c.109.366.21.779.288,1.106a5.047,5.047,0,0,1,.109.732A.93.93,0,0,0,100.842,453.963Z" transform="translate(-64.44 -349.54)" fill="#ff9e7d"/>
                <path id="Trazado_102584" data-name="Trazado 102584" d="M107.269,484.758l-.483,5.452-.086,1.075a2.235,2.235,0,0,1-1.947,2.017h-.358a3.115,3.115,0,0,1-1.978-.709l-.265-.21-1.332.187a3.341,3.341,0,0,1-2.967-1.059l-.249-.265H96.42a2.1,2.1,0,0,1-1.978-1.612l-.312-1.308v-6h0a6.168,6.168,0,0,0,4.922,5.88l2.134.428a5.109,5.109,0,0,0,2.531-.117,1.932,1.932,0,0,0,.319-.117,3.722,3.722,0,0,0,.623-.28,2.336,2.336,0,0,0,.288-.171,5.2,5.2,0,0,0,1.643-1.628,2.9,2.9,0,0,0,.21-.374,3.368,3.368,0,0,0,.171-.335A5.448,5.448,0,0,0,107.269,484.758Z" transform="translate(-71.007 -378.909)" fill="#ee7f6b"/>
              </g>
              <path id="Trazado_102585" data-name="Trazado 102585" d="M115.9,412.456a1.105,1.105,0,0,1,0,.125.693.693,0,0,1-.615.444c-2.336.062-12.632-.2-28.084-5.452l.273-.724h0l.3-.779s20.039,5.748,27.453,5.576a.693.693,0,0,1,.67.81Z" transform="translate(-27.12 -301.903)" fill="#fff"/>
              <path id="Trazado_102586" data-name="Trazado 102586" d="M131.474,346.789c.3,2.664-.779,4.283-2.85,4.953-2.43.779-6.23.249-10.841-1.433-4.361-1.558-6.059-3.847-6.682-5.685a6.371,6.371,0,0,1-.312-2.22c.413,0,.826.039,1.238.062a77.8,77.8,0,0,0,2.648-7.9c.475-1.706.9-3.4,1.269-4.977,1.293-5.607,1.885-9.945,1.885-9.945l14.237,3.287s-1.293,5.95-2.336,12.913c-.467,3.185-.88,6.589-1.083,9.72a27.358,27.358,0,0,1,2.827,1.231Z" transform="translate(-32.337 -282.785)" fill="#ee7f6b"/>
              <path id="Trazado_102587" data-name="Trazado 102587" d="M131.56,355.054a4.019,4.019,0,0,1-.6,1.76,3.894,3.894,0,0,1-1.379,1.293,5.849,5.849,0,0,1-1.776.639,11.682,11.682,0,0,1-3.684.093,23.064,23.064,0,0,1-3.575-.717,35.814,35.814,0,0,1-3.442-1.168,14.213,14.213,0,0,1-3.2-1.791,8.373,8.373,0,0,1-2.438-2.757,5.646,5.646,0,0,1-.436-1.051h0a5.755,5.755,0,0,1-.234-2.484,6.285,6.285,0,0,0,1.044,3.326,6.915,6.915,0,0,0,.717.935,8.931,8.931,0,0,0,1.09,1.012,7.781,7.781,0,0,0,.654.475,14.8,14.8,0,0,0,3.115,1.558,34.6,34.6,0,0,0,3.364,1.1,25.215,25.215,0,0,0,3.45.74,16.355,16.355,0,0,0,1.737.156,12.726,12.726,0,0,0,1.729-.1,5.451,5.451,0,0,0,1.62-.475,3.551,3.551,0,0,0,1.308-1.036,4.01,4.01,0,0,0,.709-1.558,7.4,7.4,0,0,0,.14-1.768,6.378,6.378,0,0,1,.086,1.822Z" transform="translate(-32.33 -289.251)" fill="#fff"/>
              <g id="Grupo_54149" data-name="Grupo 54149" transform="translate(52.354)">
                <path id="Trazado_102588" data-name="Trazado 102588" d="M101.073,306.073c-5.623-.389-19.011,3.769-15.919,15.358,3.45,12.967-7.874,13.318-7.874,13.318s16.207,4.891,17.235-3.115c1.558-11.776,8-11.682,13.754-12.819S101.073,306.073,101.073,306.073Z" transform="translate(-77.28 -279.779)" fill="#621a1b"/>
                <path id="Trazado_102589" data-name="Trazado 102589" d="M133.6,330.192a41.06,41.06,0,0,1-6.4-.5c-5.872-.9-11.083-2.983-14.377-5.646a10.125,10.125,0,0,1-3.411-4.439,5.452,5.452,0,0,1-5.031-3.59c-10.467-28.949,8.473-41.23,23.847-39.953,25.623,2.111,19.556,16.69,20.382,30.514A28.817,28.817,0,0,0,149.656,313a10.388,10.388,0,0,1,.9,1.784C153.69,322.723,144.6,330.192,133.6,330.192Z" transform="translate(-82.608 -273.127)" fill="#ff9e7d"/>
                <path id="Trazado_102590" data-name="Trazado 102590" d="M147.715,303.464c-1.347-10.81-7.928-16.028-15.888-9.634a16.425,16.425,0,0,1-.569,3.746,22.048,22.048,0,0,1-1.846,4.8c-2.235,4.307-6.565,9.283-14.906,12.562-.966.382-1.994.74-3.069,1.075a28.123,28.123,0,0,1-1.114-7.453c-1.137.257-2.188.467-3.115.615s-1.978.288-2.8.35a23.081,23.081,0,0,1-3.676.093s-3.115-2.882-3.606-10.389a35.826,35.826,0,0,1,.171-6.347c.086-.779.2-1.558.327-2.414,2.516-15.3,19.244-14.019,19.244-14.019s8.762-8.357,23.839-1.293c4.914,2.336,7.741,5.171,9.19,8.357h0C152.691,289.734,150.269,297.078,147.715,303.464Z" transform="translate(-81.656 -272.318)" fill="#590212"/>
                <path id="Trazado_102591" data-name="Trazado 102591" d="M112.463,325.231a4.509,4.509,0,0,1-2.5,2.632c-2.15.849-4.735-.327-6.441-2.71a9.735,9.735,0,0,1-1.168-2.142,9.221,9.221,0,0,1-.623-4.174,5.452,5.452,0,0,1,2.15-4.143,3.582,3.582,0,0,1,.779-.413,4.1,4.1,0,0,1,2.648-.109,7.876,7.876,0,0,1,4.953,4.961,8.466,8.466,0,0,1,.2,6.1Z" transform="translate(-82.681 -281.539)" fill="#ff9e7d"/>
                <path id="Trazado_102592" data-name="Trazado 102592" d="M111.452,321.353c1.106,2.827.327,5.771-1.737,6.581s-4.673-.833-5.732-3.66-.327-5.779,1.729-6.581S110.346,318.525,111.452,321.353Z" transform="translate(-83.08 -282.309)" fill="#ee7f6b"/>
                <path id="Trazado_102593" data-name="Trazado 102593" d="M101.535,323.564c-.288.218-.6.444-.942.685-5.8-2.811-7.85-12.329-7.734-15.218,1.083-.841,3.209-2.212,3.209-2.212l.07.039c.514,7.508,3.606,10.389,3.606,10.389a9.128,9.128,0,0,0,.631,4.174A9.572,9.572,0,0,0,101.535,323.564Z" transform="translate(-80.725 -279.95)" fill="#fff"/>
              </g>
              <path id="Trazado_102594" data-name="Trazado 102594" d="M94.687,378.292q1.293-3.762,2.757-8.146c2.632-7.959-.132-20.008-3.614-20.514,0,0,7.656-1.519,8.333,10.358A22.531,22.531,0,0,1,94.687,378.292Z" transform="translate(-28.587 -289.405)" fill="#fff"/>
              <path id="Trazado_102595" data-name="Trazado 102595" d="M142.09,314.729a16.351,16.351,0,0,1,2.461-.062,18.044,18.044,0,0,1,2.43.2h-.156a40.2,40.2,0,0,0,3.84-1.34A6.332,6.332,0,0,1,149,314.807a10.553,10.553,0,0,1-1.931.833H146.9c-.779-.078-1.62-.195-2.422-.343a16.275,16.275,0,0,1-2.391-.569Z" transform="translate(-39.261 -281.434)" fill="#621a1b" opacity="0.5"/>
              <path id="Trazado_102596" data-name="Trazado 102596" d="M156.42,313.484a6.318,6.318,0,0,1,1.721.078,9.777,9.777,0,0,1,1.628.413l-.319.054a6.851,6.851,0,0,1,1.776-.779,6.721,6.721,0,0,1-1.332,1.4l-.125.093-.195-.039a9.6,9.6,0,0,1-1.62-.452A6.471,6.471,0,0,1,156.42,313.484Z" transform="translate(-42.431 -281.372)" fill="#621a1b" opacity="0.5"/>
              <path id="Trazado_102597" data-name="Trazado 102597" d="M154.19,325.262a10.334,10.334,0,0,1,2.017-.646.607.607,0,0,1,.265,0l.927.234a.631.631,0,0,1,.35.989,2.819,2.819,0,0,1-1.215,1.067,5.935,5.935,0,0,1-2.336-.475.631.631,0,0,1-.008-1.168Z" transform="translate(-41.852 -283.883)" fill="#ee7f6b"/>
              <path id="Trazado_102598" data-name="Trazado 102598" d="M145.79,333.76a10.124,10.124,0,0,0,3.894,1.34,17.726,17.726,0,0,0,2.048.148h2.126a9.5,9.5,0,0,1-1.012.413,9.766,9.766,0,0,1-1.075.234,7.461,7.461,0,0,1-2.2,0,6.5,6.5,0,0,1-2.118-.685,4.268,4.268,0,0,1-1.659-1.449Z" transform="translate(-40.08 -285.909)" fill="#ee7f6b"/>
              <path id="Trazado_102599" data-name="Trazado 102599" d="M149.1,307.682c-4.283-1.433-6.713-.732-9.587,2.78,1.83-.569,3.528-1.558,5.335-2.134a35.9,35.9,0,0,0,5.639-.125A11.473,11.473,0,0,0,149.1,307.682Z" transform="translate(-38.691 -279.986)" fill="#621a1b"/>
              <path id="Trazado_102600" data-name="Trazado 102600" d="M161.928,307.728a6.044,6.044,0,0,0-2.407-1.558,6.69,6.69,0,0,0-3.762,2.009,9.922,9.922,0,0,0,3.754-.911A19.689,19.689,0,0,0,161.928,307.728Z" transform="translate(-42.285 -279.806)" fill="#621a1b"/>
              <path id="Trazado_102601" data-name="Trazado 102601" d="M149.816,320.486c.717,2.118-.724,4.533-3.232,5.389s-5.132-.171-5.857-2.29.724-4.525,3.232-5.382S149.091,318.367,149.816,320.486Z" transform="translate(-38.919 -282.401)" fill="#ee7f6b" opacity="0.5"/>
              <path id="Trazado_102602" data-name="Trazado 102602" d="M162.8,323.47a5.452,5.452,0,0,1-2.687-.226c-2.508-.857-3.956-3.271-3.232-5.389a4.1,4.1,0,0,1,3.972-2.586,27.96,27.96,0,0,0,1.044,6.417,10.124,10.124,0,0,1,.9,1.784Z" transform="translate(-42.491 -281.818)" fill="#ee7f6b" opacity="0.5"/>
              <path id="Trazado_102603" data-name="Trazado 102603" d="M127.946,364.938a10.281,10.281,0,0,1-2.547-2.523,9.1,9.1,0,0,1-.927-1.6s-3.388,3.894-6.363,3.66c-5.981-3.692-7.009-12.461-7.009-12.461h0a5.794,5.794,0,0,0,.436,1.067,8.505,8.505,0,0,0,2.445,2.819,14.387,14.387,0,0,0,3.2,1.791c1.137.452,2.266.833,3.435,1.168a24.515,24.515,0,0,0,3.583.717,11.684,11.684,0,0,0,3.684-.094,5.646,5.646,0,0,0,1.776-.639,3.98,3.98,0,0,0,1.378-1.293,4.159,4.159,0,0,0,.6-1.76,6.044,6.044,0,0,0-.093-1.8C133.32,358.677,131.972,363.879,127.946,364.938Z" transform="translate(-32.407 -289.945)" fill="#fff"/>
              <path id="Trazado_102604" data-name="Trazado 102604" d="M103.5,424.4a2.991,2.991,0,1,1-2.991-2.991A2.991,2.991,0,0,1,103.5,424.4Z" transform="translate(-29.403 -305.296)" fill="#9acade"/>
              <circle id="Elipse_4085" data-name="Elipse 4085" cx="2.835" cy="2.835" r="2.835" transform="translate(37.985 133.498)" fill="#9acade"/>
              <path id="Trazado_102605" data-name="Trazado 102605" d="M79.009,467.117a2.414,2.414,0,1,1-2.414-2.407,2.414,2.414,0,0,1,2.414,2.407Z" transform="translate(-24.24 -314.873)" fill="#9acade"/>
              <circle id="Elipse_4086" data-name="Elipse 4086" cx="2.578" cy="2.578" r="2.578" transform="translate(97.151 137.578)" fill="#9acade"/>
              <circle id="Elipse_4087" data-name="Elipse 4087" cx="3.216" cy="3.216" r="3.216" transform="translate(119.363 157.711)" fill="#9acade"/>
              <path id="Trazado_102606" data-name="Trazado 102606" d="M126.772,484.186a2.866,2.866,0,1,1-2.866-2.866A2.866,2.866,0,0,1,126.772,484.186Z" transform="translate(-34.605 -318.547)" fill="#9acade"/>
              <path id="Trazado_102607" data-name="Trazado 102607" d="M115.751,451.431a2.983,2.983,0,1,1-.874-2.117,2.991,2.991,0,0,1,.874,2.117Z" transform="translate(-32.113 -311.274)" fill="#9acade"/>
              <path id="Trazado_102608" data-name="Trazado 102608" d="M145.436,493.423a3.053,3.053,0,1,1-3.053-3.053A3.053,3.053,0,0,1,145.436,493.423Z" transform="translate(-38.651 -320.549)" fill="#9acade"/>
              <circle id="Elipse_4088" data-name="Elipse 4088" cx="3.333" cy="3.333" r="3.333" transform="translate(85.967 124.027)" fill="#9acade"/>
              <path id="Trazado_102609" data-name="Trazado 102609" d="M99.048,394.694a2.134,2.134,0,1,1-2.134-2.134,2.134,2.134,0,0,1,2.134,2.134Z" transform="translate(-28.797 -298.914)" fill="#9acade"/>
              <path id="Trazado_102610" data-name="Trazado 102610" d="M121.95,402.13a2.5,2.5,0,1,1-2.5-2.5,2.5,2.5,0,0,1,2.5,2.5Z" transform="translate(-33.701 -300.478)" fill="#9acade"/>
              <path id="Trazado_102611" data-name="Trazado 102611" d="M118.9,379.44a2.22,2.22,0,1,1-2.22-2.22,2.22,2.22,0,0,1,2.22,2.22Z" transform="translate(-33.15 -295.521)" fill="#9acade"/>
              <path id="Trazado_102612" data-name="Trazado 102612" d="M136.13,374.042a2.43,2.43,0,1,1-2.43-2.422A2.43,2.43,0,0,1,136.13,374.042Z" transform="translate(-36.868 -294.283)" fill="#9acade"/>
              <path id="Trazado_102613" data-name="Trazado 102613" d="M111.54,365.122a2.562,2.562,0,1,1-.753-1.815,2.57,2.57,0,0,1,.753,1.815Z" transform="translate(-31.367 -292.279)" fill="#9acade"/>
              <path id="Trazado_102614" data-name="Trazado 102614" d="M132.023,388.866a2.336,2.336,0,1,1-2.336-2.336,2.336,2.336,0,0,1,2.336,2.336Z" transform="translate(-36.001 -297.581)" fill="#9acade"/>
              <g id="Grupo_54150" data-name="Grupo 54150" transform="translate(91.526 18.605)">
                <path id="Trazado_102615" data-name="Trazado 102615" d="M140.367,301.939l-.9,1.869a1.379,1.379,0,0,1-1.861.639l-.07-.039c-.732-.374-1.713-.872-2.78-1.449-.779-.428-1.62-.911-2.453-1.394-.117-.062-.226-.14-.335-.2a33.318,33.318,0,0,1-3.894-2.617,1.417,1.417,0,0,1-.374-1.667,1.378,1.378,0,0,1,1.246-.779,1.252,1.252,0,0,1,.343.039c.74.195,1.519.421,2.3.678,2.586.826,5.28,1.9,7.118,2.656l.942.4a1.378,1.378,0,0,1,.716,1.861Z" transform="translate(-127.577 -296.228)" fill="#77a9c4"/>
                <path id="Trazado_102616" data-name="Trazado 102616" d="M139.312,301.357h0a2.422,2.422,0,0,1-.592.569l-.1.055-.21.117a14.794,14.794,0,0,1-2.648.833c-.974.218-1.8.366-1.8.366h0c-.047-.078-.382-.709-.779-1.5-.062-.148-.14-.3-.21-.46a10.319,10.319,0,0,1-.935-2.593,2.332,2.332,0,0,1,2.134-2.531,2.251,2.251,0,0,1,1.441.358,2.282,2.282,0,0,1,.981,1.238h0a2.337,2.337,0,0,1,2.78.88,2.29,2.29,0,0,1,.21.413,2.1,2.1,0,0,1,.156.553,2.336,2.336,0,0,1-.428,1.7Z" transform="translate(-128.562 -296.208)" fill="#c83737"/>
              </g>
            </g>
            <path id="Trazado_102617" data-name="Trazado 102617" d="M85.652,349.57S73.97,362.615,66.47,398.4c.218-1.472,5.826-37.928,15.273-47.274a5.958,5.958,0,0,1,3.894-1.558Z" transform="translate(-22.535 -289.398)" fill="#ffb197"/>
            <path id="Trazado_102618" data-name="Trazado 102618" d="M141.711,420.955c-3.232-1.861-6.791-3.723-10.724-5.576a88.919,88.919,0,0,1-8.567-9.283,21.254,21.254,0,0,1,.888-5.3c7.882-6.815,14.338-19.681,14.128-43.559v.039h0c.226,1.129,1.8,10.218-1.745,23.8-3.785,14.525-9.517,20.4-9.517,20.4Z" transform="translate(-34.911 -291.079)" fill="#ee7f6b"/>
            <path id="Trazado_102619" data-name="Trazado 102619" d="M114.182,413.458c-.047.234-.1.475-.148.709a199.965,199.965,0,0,1-27.329-1.846l-.467,4.276,21.215,46.659,3.98,14.112s.109.382.273.989l.374,1.3h-1.558a12.984,12.984,0,0,0-1.7-2.259,21.154,21.154,0,0,0-4.509-3.583l.483-5.452a4.82,4.82,0,0,0,.117-1.425c0-.047,0-.086,0-.14a5.048,5.048,0,0,0-.109-.732c-.078-.358-.179-.74-.288-1.106-.615-2.025-3.544-5.452-3.544-5.452s-3.536-8.287-7.578-17.8-8.567-20.249-10.615-25.179c0,0,1.184-2.648,3.427-8.5C101.464,413.2,111.666,413.513,114.182,413.458Z" transform="translate(-26.143 -302.328)" fill="#3d6377" opacity="0.25"/>
            <path id="Trazado_102620" data-name="Trazado 102620" d="M130.386,343.4c-.265,2.1-.483,4.206-.607,6.23l-14.019-11c.086-.28.156-.569.234-.857C119.3,340.381,124.514,342.461,130.386,343.4Z" transform="translate(-33.437 -286.79)" fill="#a14838" opacity="0.5"/>
            <path id="Trazado_102621" data-name="Trazado 102621" d="M127.39,364.914c-3.8,3.037-7.29,2.056-7.29,2.056,2.975.257,6.363-3.66,6.363-3.66A9.1,9.1,0,0,0,127.39,364.914Z" transform="translate(-34.397 -292.437)" fill="#3d6377" opacity="0.5"/>
            <path id="Trazado_102622" data-name="Trazado 102622" d="M156.575,484.019h-5.055c.078-.872.171-1.776.3-2.734,6.059-27.866-27.765-53.536-27.765-53.536q3.832,1.612,7.274,3.232h0c3.933,1.854,7.492,3.715,10.724,5.576a88.027,88.027,0,0,1,18.567,13.762,41.428,41.428,0,0,1,9.533,13.933,14.54,14.54,0,0,1-13.583,19.766Z" transform="translate(-35.273 -306.69)" fill="#9acade" opacity="0.25"/>
            <path id="Trazado_102623" data-name="Trazado 102623" d="M133.963,303.308h0c-.1-.195-1.8-3.31-1.916-4.548a2.336,2.336,0,0,1,4.54-.95c-.14-.117-1.558-1.293-2.827-.522S133.963,303.308,133.963,303.308Z" transform="translate(-37.038 -277.598)" fill="#f59388"/>
            <path id="Trazado_102624" data-name="Trazado 102624" d="M133.427,305.976c-1.558,4.766-5.709,11.682-16.3,15.833-.966.382-1.994.74-3.069,1.075a8.466,8.466,0,0,0-.195-6.1,7.95,7.95,0,0,0-4.953-4.961s4.673-.428,6.347,5.537c6.23-1.558,11.534-11.433,12.811-13.972.389.779.724,1.417.779,1.5h0s.826-.148,1.8-.366C131.714,305.1,132.695,305.6,133.427,305.976Z" transform="translate(-31.922 -279.183)" fill="#621a1b" opacity="0.5"/>
            <path id="Trazado_102625" data-name="Trazado 102625" d="M156.464,307.758c-1.347-10.8-7.921-16.02-15.872-9.65a2.29,2.29,0,0,0-.21-.413,2.337,2.337,0,0,0-2.78-.88h0a2.282,2.282,0,0,0-.981-1.238c.9-1.4,3.248-3.5,9.245-3.832C154.984,291.239,157.165,303.217,156.464,307.758Z" transform="translate(-38.051 -276.604)" fill="#621a1b" opacity="0.5"/>
            <path id="Trazado_102626" data-name="Trazado 102626" d="M149.931,283.517h0c-13.045-12.811-26.573-8.4-33.31-1.822-16.441.779-19.291,11.176-19.291,11.176.086-.779.2-1.558.327-2.414,2.516-15.3,19.244-14.019,19.244-14.019s8.762-8.357,23.839-1.293C145.655,277.465,148.475,280.331,149.931,283.517Z" transform="translate(-29.361 -272.308)" fill="#aa3f30" opacity="0.5"/>
            <path id="Trazado_102627" data-name="Trazado 102627" d="M94.432,499.359H11.45a1.207,1.207,0,0,1-1.1-.693,2.586,2.586,0,0,1-.241-.7l82.624-.865a12.984,12.984,0,0,1,1.7,2.259Z" transform="translate(-10.069 -322.029)" fill="#ee7f6b"/>
            <path id="Trazado_102628" data-name="Trazado 102628" d="M87.777,470.426c-2.227-.833-4.525-1.635-6.83-2.469L62.73,420.044c.857-1.488,1.441-2.375,1.441-2.375s.062,0,.171-.109c-.1.288-.187.569-.28.841,1.215,19.252,23.177,44.252,23.177,44.252a20.669,20.669,0,0,1,0,4.54,4.962,4.962,0,0,0,0,.826,6.121,6.121,0,0,0,.537,2.406Z" transform="translate(-21.708 -304.436)" fill="#3d6377" opacity="0.25"/>
          </g>
          <path id="Trazado_102629" data-name="Trazado 102629" d="M100.057,447.408,78.78,403.382,93.227,353.46a27.4,27.4,0,0,1,.88,17.547c-.966,2.928-1.885,5.639-2.749,8.154-2.477,7.212-4.509,12.741-6.044,16.76h0c-2.243,5.857-3.427,8.5-3.427,8.5C83.9,409.348,88.453,420.08,92.5,429.6,96.4,438.849,99.847,446.918,100.057,447.408Z" transform="translate(-25.258 -290.258)" fill="#ee7f6b" opacity="0.5"/>
        </g>
        <g id="Grupo_54154" data-name="Grupo 54154" transform="translate(50.647 138.483)">
          <path id="Trazado_102630" data-name="Trazado 102630" d="M85.3,356.151l-6.16-2.29a1.176,1.176,0,0,1-.646-1.6l.514-1.075a1.176,1.176,0,0,1,1.651-.5l5.654,3.365a1.168,1.168,0,0,1,.452,1.511h0A1.168,1.168,0,0,1,85.3,356.151Z" transform="translate(-75.818 -350.523)" fill="#ffb197"/>
          <path id="Trazado_102631" data-name="Trazado 102631" d="M85,360.538l-8.076-1.386a1.16,1.16,0,0,1-.935-1.417l.312-1.223a1.153,1.153,0,0,1,1.48-.779l7.788,2.6a1.16,1.16,0,0,1,.779,1.378h0A1.145,1.145,0,0,1,85,360.538Z" transform="translate(-75.281 -351.662)" fill="#ffb197"/>
          <path id="Trazado_102632" data-name="Trazado 102632" d="M83.079,364.451l-6.231-.078a1.176,1.176,0,0,1-1.16-1.3l.125-1.16a1.184,1.184,0,0,1,1.4-1.028l6.106,1.238a1.176,1.176,0,0,1,.935,1.277h0A1.192,1.192,0,0,1,83.079,364.451Z" transform="translate(-75.22 -352.81)" fill="#ffb197"/>
          <path id="Trazado_102633" data-name="Trazado 102633" d="M81.367,368.911l-5.008.343a1.192,1.192,0,0,1-1.269-1.238l.047-1.09a1.192,1.192,0,0,1,1.371-1.129l4.953.779a1.2,1.2,0,0,1,1.012,1.23h0A1.192,1.192,0,0,1,81.367,368.911Z" transform="translate(-75.089 -353.898)" fill="#ffb197"/>
        </g>
        <g id="Grupo_54160" data-name="Grupo 54160" transform="translate(124.246 113.933)">
          <g id="Grupo_54159" data-name="Grupo 54159">
            <path id="Trazado_102634" data-name="Trazado 102634" d="M214.079,330.921c-8.777-6.137-33.7-2.632-39.9-1.643V327.05S206.08,322.486,214.079,330.921Z" transform="translate(-170.605 -320.508)" fill="#96d7ea"/>
            <g id="Grupo_54156" data-name="Grupo 54156">
              <g id="Grupo_54155" data-name="Grupo 54155">
                <path id="Trazado_102635" data-name="Trazado 102635" d="M256.054,323.63l-5.81,60.6-.693,7.235-23.972-2.9-5.95-.717h-2.15l-4.805.07-7.212.833-22.975,2.664-3.972-19.727-8.925-39.057c18.279-2.453,30.265-2.188,35.374-1.861a11.611,11.611,0,0,1,5.055,1.558l3.738-.156,2.516-.109a17.728,17.728,0,0,1,2.78-1.62,17.992,17.992,0,0,1,3.037-1.067,187.153,187.153,0,0,1,33.964-5.74Z" transform="translate(-169.59 -320.024)" fill="#ba0505"/>
                <path id="Trazado_102636" data-name="Trazado 102636" d="M256.054,323.48l-1.877.156a183.547,183.547,0,0,0-32.71,5.724,15.454,15.454,0,0,0-2.586.974,16.861,16.861,0,0,0-2.165,1.285l-.444.312h0l-3.037,2.741-3.224-2.5-.958-.553a6.938,6.938,0,0,0-2.85-.841c-3.676-.3-13.66-.779-29.455.919q-3.411.351-7.157.857l1.223-1.386.958-.109c4.673-.514,25.483-2.64,36.121-.974l2.142,1.184,2.235-.039h3.746l.654-.444,1.822-1.269s21.651-6.028,35.545-6.565h1.347Z" transform="translate(-169.59 -319.874)" fill="#e68279"/>
                <path id="Trazado_102637" data-name="Trazado 102637" d="M231.108,390.274s-3.653,1.76-6.955.093l-2.664-55.623a8.388,8.388,0,0,0,3.777.312,11.407,11.407,0,0,0,2.484-.576Z" transform="translate(-181.07 -322.424)" fill="#dd594c"/>
                <path id="Trazado_102638" data-name="Trazado 102638" d="M254.621,322.467c-13.894.53-35.545,6.565-35.545,6.565l-2.477,1.713h-6.028l-2.142-1.184c-10.631-1.667-31.441.46-36.129.974h0v-2.157l1.41-.234c6.23-.989,31.153-4.494,39.9,1.643,3.115-3.115,17.313-8.146,39.719-8.668h.974A7.523,7.523,0,0,1,254.621,322.467Z" transform="translate(-170.189 -319.469)" fill="#e7f2f7"/>
                <path id="Trazado_102639" data-name="Trazado 102639" d="M265.169,320.745c-22.438.522-36.6,5.53-39.719,8.668C234.765,319.28,264.819,319,264.819,319Z" transform="translate(-181.946 -319)" fill="#c2dfeb"/>
                <path id="Trazado_102640" data-name="Trazado 102640" d="M263.877,356.413H235.926l-.826-15.522,30.67-2.671Z" transform="translate(-184.08 -323.251)" fill="#f1bdb7"/>
              </g>
              <path id="Trazado_102641" data-name="Trazado 102641" d="M228.695,369.8h-3.411L224.17,348.26h2.313Z" transform="translate(-181.662 -325.472)" fill="#f1bdb7"/>
            </g>
            <g id="Grupo_54158" data-name="Grupo 54158" transform="translate(37.692 61.875)">
              <path id="Trazado_102642" data-name="Trazado 102642" d="M234.953,406.681s.148,2.648-6.565,2.547c-7.336-.109-10.054.4-10.4-2.391l5.389-.623,6.955-.093Z" transform="translate(-217.988 -400.145)" fill="#ee7f6b"/>
              <g id="Grupo_54157" data-name="Grupo 54157">
                <path id="Trazado_102643" data-name="Trazado 102643" d="M219.383,407.514h0a1.885,1.885,0,0,1-1.254-2.539l1.231-3.115a1.41,1.41,0,0,1,1.636-.88h0a1.425,1.425,0,0,1,1.044,1.558l-.366,3.349a1.877,1.877,0,0,1-2.29,1.628Z" transform="translate(-217.987 -399)" fill="#ff9e7d"/>
                <path id="Trazado_102644" data-name="Trazado 102644" d="M225.1,407.353h0a2.033,2.033,0,0,1-1.558-2.578l.888-3.583a1.48,1.48,0,0,1,1.558-1.184h0a1.48,1.48,0,0,1,1.238,1.519v3.692a2.025,2.025,0,0,1-2.126,2.134Z" transform="translate(-219.198 -398.793)" fill="#ff9e7d"/>
                <path id="Trazado_102645" data-name="Trazado 102645" d="M238.377,405.215a1.83,1.83,0,0,1-1.083,1.558,2.1,2.1,0,0,1-2.671-1.558l-.132-.467-.9-3.162v-.1a1.861,1.861,0,0,1,0-.872,1.371,1.371,0,0,1,.779-.989,1.3,1.3,0,0,1,.483-.093,1.612,1.612,0,0,1,1.363.872l1.908,3.372A2.492,2.492,0,0,1,238.377,405.215Z" transform="translate(-221.428 -398.688)" fill="#ff9e7d"/>
                <path id="Trazado_102646" data-name="Trazado 102646" d="M231.53,407.009h0c-1.129.187-2.212-.958-2.336-2.438l-.249-4.315a1.612,1.612,0,0,1,1.129-1.807h0a1.612,1.612,0,0,1,1.651,1.347l1.153,4.167C233.313,405.389,232.659,406.822,231.53,407.009Z" transform="translate(-220.406 -398.448)" fill="#ff9e7d"/>
              </g>
            </g>
          </g>
          <path id="Trazado_102647" data-name="Trazado 102647" d="M263.5,386.167l-.693,7.235-23.972-2.9-1.347-.164a2.493,2.493,0,0,0-.312-1.441l-1.908-3.372a1.612,1.612,0,0,0-1.363-.872,1.3,1.3,0,0,0-.483.093,1.371,1.371,0,0,0-.779.989l-3.115-51.744.444-.312a16.852,16.852,0,0,1,2.165-1.285h.171l3.193,51.1Z" transform="translate(-182.848 -321.962)" fill="#881206" opacity="0.25"/>
        </g>
      </g>
      <g id="Grupo_54175" data-name="Grupo 54175" transform="translate(31.508 48.03)">
        <path id="Trazado_102648" data-name="Trazado 102648" d="M187.117,86.819,174.827,67.5l-1.721,19.315h0L176.167,52.4l-1.558-1.425-29.945,2.64-4.221,33.209H124.672a.709.709,0,0,0,.693-.7v-.241h1.075V78.867h-1.051v-.241A.685.685,0,0,0,125,78.01a2.181,2.181,0,0,0,1.869-2.165V72.73a2.188,2.188,0,0,0-2.188-2.188H72.133v1.347h-.4v4.805h.4v1.355H73.87a.382.382,0,0,0-.14.3v8.037a.421.421,0,0,0,.413.421H42.25l1.238,4.984h0l.561,2.274H61.043l15.81,15.117h9.595V94.062h67.2l15.81,15.117h9.517V94.062h29.447l1.706-7.243Z" transform="translate(-38.629 -48.68)" fill="#8e472a" opacity="0.25"/>
        <g id="Grupo_54174" data-name="Grupo 54174">
          <g id="Grupo_54173" data-name="Grupo 54173">
            <g id="Grupo_54165" data-name="Grupo 54165" transform="translate(0 35.825)">
              <g id="Grupo_54162" data-name="Grupo 54162">
                <path id="Trazado_102649" data-name="Trazado 102649" d="M177.381,101.3H39.4L37.6,94.03H179.391Z" transform="translate(-37.6 -94.03)" fill="url(#linear-gradient)"/>
                <path id="Trazado_102650" data-name="Trazado 102650" d="M243.466,101.3H217.08l1.231-7.266h26.861Z" transform="translate(-77.299 -94.03)" fill="#b53f35"/>
              </g>
              <g id="Grupo_54163" data-name="Grupo 54163" transform="translate(18.793 7.266)">
                <path id="Trazado_102651" data-name="Trazado 102651" d="M71.286,103.36,87.1,118.477H77.54L61.73,103.36Z" transform="translate(-61.73 -103.36)" fill="#cd5137"/>
                <path id="Trazado_102652" data-name="Trazado 102652" d="M89.81,118.477V103.36H74Z" transform="translate(-64.444 -103.36)" fill="#9c3634"/>
              </g>
              <g id="Grupo_54164" data-name="Grupo 54164" transform="translate(111.355 7.266)">
                <path id="Trazado_102653" data-name="Trazado 102653" d="M190.136,103.36l15.81,15.117h-9.564l-15.8-15.117Z" transform="translate(-180.58 -103.36)" fill="#cd5137"/>
                <path id="Trazado_102654" data-name="Trazado 102654" d="M208.66,118.477V103.36H192.85Z" transform="translate(-183.294 -103.36)" fill="#9c3634"/>
              </g>
            </g>
            <g id="Grupo_54166" data-name="Grupo 54166" transform="translate(98.185)">
              <path id="Trazado_102655" data-name="Trazado 102655" d="M193.74,83.855H163.67l4.252-33.185,29.945-2.64Z" transform="translate(-163.67 -48.03)" fill="#79b3b7"/>
              <path id="Trazado_102656" data-name="Trazado 102656" d="M171.33,80.26l2.959-23.084,19.322-1.706-2.858,24.79Z" transform="translate(-165.364 -49.676)" fill="#fff"/>
              <path id="Trazado_102657" data-name="Trazado 102657" d="M206.408,48.03l1.534,1.425-3.061,34.4h-2.6Z" transform="translate(-172.21 -48.03)" fill="#acdbe1"/>
              <path id="Trazado_102658" data-name="Trazado 102658" d="M207.333,69.23l12.3,19.315H205.62Z" transform="translate(-172.949 -52.719)" fill="#79b3b7"/>
            </g>
            <g id="Grupo_54172" data-name="Grupo 54172" transform="translate(29.47 19.564)">
              <g id="Grupo_54168" data-name="Grupo 54168">
                <g id="Grupo_54167" data-name="Grupo 54167">
                  <path id="Trazado_102659" data-name="Trazado 102659" d="M1.231,0H54.688V7.516H1.231A1.254,1.254,0,0,1,0,6.262V1.254A1.254,1.254,0,0,1,1.231,0Z" transform="translate(55.093 7.516) rotate(180)" fill="#fcac90"/>
                  <path id="Trazado_102660" data-name="Trazado 102660" d="M.678,0H25.693V4.821H.678A.678.678,0,0,1,0,4.143V.67A.678.678,0,0,1,.678,0Z" transform="translate(25.693 6.16) rotate(180)" fill="#fff"/>
                </g>
                <path id="Trazado_102661" data-name="Trazado 102661" d="M114.176,78.577H134.97a1.145,1.145,0,0,0,1.153-1.145h0a1.153,1.153,0,0,0-1.153-1.153H114.176A1.145,1.145,0,0,0,113,77.433h0a1.145,1.145,0,0,0,1.176,1.145Z" transform="translate(-83.748 -73.842)" fill="url(#linear-gradient-2)"/>
              </g>
              <g id="Grupo_54171" data-name="Grupo 54171" transform="translate(2.009 7.399)">
                <path id="Trazado_102662" data-name="Trazado 102662" d="M130.67,82.65H140.9a.4.4,0,0,1,.4.4v8.068a.4.4,0,0,1-.4.4H130.67Z" transform="translate(-89.666 -82.65)" fill="#e5e6fa"/>
                <g id="Grupo_54170" data-name="Grupo 54170">
                  <rect id="Rectángulo_5398" data-name="Rectángulo 5398" width="41.908" height="8.863" rx="0.53" fill="#e5e6fa"/>
                  <g id="Grupo_54169" data-name="Grupo 54169" transform="translate(10.569 2.531)">
                    <rect id="Rectángulo_5399" data-name="Rectángulo 5399" width="0.958" height="10.607" transform="translate(15.693) rotate(90)" fill="#7e82e6"/>
                    <rect id="Rectángulo_5400" data-name="Rectángulo 5400" width="0.958" height="20.771" transform="translate(20.771 2.85) rotate(90)" fill="#7e82e6"/>
                  </g>
                </g>
                <path id="Trazado_102663" data-name="Trazado 102663" d="M132.858,83.86h9.891v7.009h-9.891a.5.5,0,0,1-.5-.5V84.358A.5.5,0,0,1,132.858,83.86Z" transform="translate(-90.039 -82.918)" fill="#fff"/>
              </g>
            </g>
          </g>
          <path id="Trazado_102664" data-name="Trazado 102664" d="M39.18,100.055,178.346,98.7l-.615,3.629H39.749Z" transform="translate(-37.949 -59.238)" fill="#9c3634" opacity="0.5"/>
        </g>
      </g>
      <g id="Grupo_54190" data-name="Grupo 54190" transform="translate(236.437 111.55)">
        <path id="Trazado_102665" data-name="Trazado 102665" d="M416.868,173.135h-5.421V145.783l-44.735-3.255-1.4.444,1.028,8.341-3.178,7.741v-21.5l-16.386-2.282h-.755l-12.9-2.469h-8.528v40.335H304.33l1.433,5.763h13.489L331.8,190.892h7.578V178.9H392.71l12.547,11.994h7.586V178.9h23.372l1.355-5.763Z" transform="translate(-301.526 -130.3)" fill="#291b38" opacity="0.25"/>
        <g id="Grupo_54189" data-name="Grupo 54189">
          <g id="Grupo_54188" data-name="Grupo 54188">
            <g id="Grupo_54179" data-name="Grupo 54179" transform="translate(0 40.335)">
              <g id="Grupo_54176" data-name="Grupo 54176">
                <path id="Trazado_102666" data-name="Trazado 102666" d="M411.672,187.143H302.163l-1.433-5.763H413.268Z" transform="translate(-300.73 -181.38)" fill="url(#linear-gradient-3)"/>
                <path id="Trazado_102667" data-name="Trazado 102667" d="M464.122,187.143H443.18l.981-5.763h21.316Z" transform="translate(-332.238 -181.38)" fill="#b53f35"/>
              </g>
              <g id="Grupo_54177" data-name="Grupo 54177" transform="translate(14.922 5.763)">
                <path id="Trazado_102668" data-name="Trazado 102668" d="M327.476,188.78l12.547,12h-7.586l-12.547-12Z" transform="translate(-319.89 -188.78)" fill="#cd5137"/>
                <path id="Trazado_102669" data-name="Trazado 102669" d="M342.177,200.782v-12H329.63Z" transform="translate(-322.044 -188.78)" fill="#9c3634"/>
              </g>
              <g id="Grupo_54178" data-name="Grupo 54178" transform="translate(88.38 5.763)">
                <path id="Trazado_102670" data-name="Trazado 102670" d="M421.8,188.78l12.547,12h-7.586l-12.547-12Z" transform="translate(-414.21 -188.78)" fill="#cd5137"/>
                <path id="Trazado_102671" data-name="Trazado 102671" d="M436.5,200.782v-12H423.95Z" transform="translate(-416.364 -188.78)" fill="#9c3634"/>
              </g>
            </g>
            <g id="Grupo_54187" data-name="Grupo 54187" transform="translate(20.265)">
              <g id="Grupo_54182" data-name="Grupo 54182">
                <g id="Grupo_54181" data-name="Grupo 54181" transform="translate(0 0.008)">
                  <rect id="Rectángulo_5401" data-name="Rectángulo 5401" width="8.528" height="40.335" fill="#1d589a"/>
                  <g id="Grupo_54180" data-name="Grupo 54180" transform="translate(2.43 10.163)">
                    <rect id="Rectángulo_5402" data-name="Rectángulo 5402" width="0.919" height="10.21" transform="translate(0 4.891)" fill="#3574a8"/>
                    <rect id="Rectángulo_5403" data-name="Rectángulo 5403" width="0.919" height="19.992" transform="translate(2.749)" fill="#3574a8"/>
                  </g>
                </g>
                <path id="Trazado_102672" data-name="Trazado 102672" d="M337.7,129.59l17.391,3.326v37.009H337.7Z" transform="translate(-329.172 -129.59)" fill="#3574a8"/>
              </g>
              <g id="Grupo_54185" data-name="Grupo 54185" transform="translate(17.562 2.469)">
                <g id="Grupo_54184" data-name="Grupo 54184">
                  <rect id="Rectángulo_5404" data-name="Rectángulo 5404" width="4.618" height="37.866" fill="url(#linear-gradient-4)"/>
                  <g id="Grupo_54183" data-name="Grupo 54183" transform="translate(0.678 2.002)">
                    <rect id="Rectángulo_5405" data-name="Rectángulo 5405" width="3.162" height="0.561" fill="#fcac90"/>
                    <rect id="Rectángulo_5406" data-name="Rectángulo 5406" width="3.162" height="0.561" transform="translate(0 1.963)" fill="#fcac90"/>
                  </g>
                </g>
                <path id="Trazado_102673" data-name="Trazado 102673" d="M355.23,132.76l16.386,2.282v35.584H355.23Z" transform="translate(-350.612 -132.76)" fill="#fcac90"/>
              </g>
              <g id="Grupo_54186" data-name="Grupo 54186" transform="translate(32.788 9.727)">
                <path id="Trazado_102674" data-name="Trazado 102674" d="M425.565,172.687H385.028l-4.2-30.607,44.735,3.255Z" transform="translate(-371.5 -142.08)" fill="#acdbe1"/>
                <path id="Trazado_102675" data-name="Trazado 102675" d="M389.607,170.056,386.5,147.4l36.5,2.664v19.992Z" transform="translate(-372.754 -143.257)" fill="#fff"/>
                <path id="Trazado_102676" data-name="Trazado 102676" d="M380.434,142.08l-1.394.444,3.707,30.163h1.885Z" transform="translate(-371.104 -142.08)" fill="#79b3b7"/>
                <path id="Trazado_102677" data-name="Trazado 102677" d="M377.806,153.36l-8.956,21.822h11.643Z" transform="translate(-368.85 -144.575)" fill="#79b3b7"/>
              </g>
            </g>
          </g>
          <path id="Trazado_102678" data-name="Trazado 102678" d="M300.73,181.38l3.037,2.882h108.4l-.491,2.882H302.163Z" transform="translate(-300.73 -141.045)" fill="#9c3634" opacity="0.25"/>
        </g>
      </g>
    </g>
  </g>
</svg>
