<svg xmlns="http://www.w3.org/2000/svg" xmlns:xlink="http://www.w3.org/1999/xlink" width="400" height="400" viewBox="0 0 400 400">
  <defs>
    <clipPath id="clip-path">
      <circle id="Elipse_4091" data-name="Elipse 4091" cx="170.096" cy="170.096" r="170.096" fill="none"/>
    </clipPath>
  </defs>
  <g id="Grupo_55728" data-name="Grupo 55728" transform="translate(-285 -6542)">
    <g id="CF1_1.4_dimenciones_2" data-name="CF1_1.4 dimenciones 2" transform="translate(285 6542)">
      <g id="Capa_2" data-name="Capa 2">
        <rect id="Rectángulo_5409" data-name="Rectángulo 5409" width="400" height="400" fill="none"/>
        <circle id="Elipse_4089" data-name="Elipse 4089" cx="170.096" cy="170.096" r="170.096" transform="translate(32.032 29.904)" fill="#eef0e3"/>
        <g id="Grupo_54207" data-name="Grupo 54207" transform="translate(32.032 29.904)" clip-path="url(#clip-path)">
          <g id="Grupo_54206" data-name="Grupo 54206" transform="translate(1.552 46.502)">
            <path id="Trazado_102698" data-name="Trazado 102698" d="M92.71,375.275a11.261,11.261,0,0,1-1.16-.064l.192-1.832c10.248,1.128,22.176-15.256,31.8-28.408,4.8-6.592,8.992-12.288,12.168-14.7,9.7-7.336,19.816-1.856,19.92-1.8l-.9,1.6a16.952,16.952,0,0,0-17.912,1.656c-2.96,2.248-7.056,7.84-11.8,14.32C115.422,359.123,103.6,375.275,92.71,375.275Z" transform="translate(-51.894 -141.697)" fill="#263238"/>
            <path id="Trazado_102699" data-name="Trazado 102699" d="M178.213,332.559s-5.7-3.864-7.1-3.72c0,0-1.1,1.272-.8,1.856a42.543,42.543,0,0,0,4.9,4.64Z" transform="translate(-67.637 -142.173)" fill="#263238"/>
            <path id="Trazado_102700" data-name="Trazado 102700" d="M308.679,146.332c2.008-8.248,8.456-13.768,14.4-12.32s9.136,9.312,7.12,17.6-8.464,13.776-14.4,12.328S306.663,154.588,308.679,146.332Z" transform="translate(-95.199 -103.162)" fill="#ffae0b"/>
            <path id="Trazado_102701" data-name="Trazado 102701" d="M301.049,144.392c2.008-8.256,8.464-13.768,14.4-12.32s9.128,9.312,7.112,17.6S314.1,163.448,308.161,162,299.033,152.648,301.049,144.392Z" transform="translate(-93.673 -102.774)" fill="#263238"/>
            <path id="Trazado_102702" data-name="Trazado 102702" d="M351.75,333.954,331.95,282V211.29L306.4,242.842l-3.688,46.3,1.864,7.472,34.992,42.552Z" transform="translate(-94.126 -118.664)" fill="#d66969"/>
            <path id="Trazado_102703" data-name="Trazado 102703" d="M268.948,365.214,186.82,361.23l-2.24,240.712h17.544L221.236,414.83l13.776-.384,33.016,187.5h16.4Z" transform="translate(-70.5 -148.652)" fill="#424242"/>
            <path id="Trazado_102704" data-name="Trazado 102704" d="M269.22,365.214l-82.128-3.984-1.152,123.9h28.384l7.184-70.3,13.776-.384,12.448,70.68H277.06Z" transform="translate(-70.772 -148.652)" fill="#424242" opacity="0.3"/>
            <path id="Trazado_102705" data-name="Trazado 102705" d="M184.58,341.16v-64.8l22.4-84.8,101.376,15.76L277.5,288.12,270.956,341.1C244.844,348.712,220.252,347.992,184.58,341.16Z" transform="translate(-70.5 -114.718)" fill="#c83737"/>
            <path id="Trazado_102706" data-name="Trazado 102706" d="M211.4,236.74l73.672,9.192s-5.2,21.336-4.56,39.544l-4.48,11.744L269.484,350.2l5.864,75.16-94.92-3.2L177.34,350.2l4.96-64.864S199.156,269.748,211.4,236.74Z" transform="translate(-69.052 -123.754)" fill="#6c6f58"/>
            <path id="Trazado_102707" data-name="Trazado 102707" d="M212.54,190.454l57.736-4.584,43.64,20.344S218.652,201.918,212.54,190.454Z" transform="translate(-76.092 -113.58)" fill="#c83737"/>
            <path id="Trazado_102708" data-name="Trazado 102708" d="M355.413,376.12s2.128,2.9,7.728,3.152,27.256,0,27.256,0a100.457,100.457,0,0,0-9.424-7.736c-3.824-2.544-12.208-3.2-16.68-5.176C364.293,366.36,354.813,370.264,355.413,376.12Z" transform="translate(-104.661 -149.678)" fill="#b0bec5"/>
            <path id="Trazado_102709" data-name="Trazado 102709" d="M387.512,381.829A15.848,15.848,0,0,0,376.48,379.3l1.72,2.528Z" transform="translate(-108.88 -152.235)" fill="#90a4ae"/>
            <path id="Trazado_102710" data-name="Trazado 102710" d="M346.03,369.058l7.944,6.416,9.224-6.416-.784-8.288Z" transform="translate(-102.79 -148.56)" fill="#b0bec5"/>
            <path id="Trazado_102711" data-name="Trazado 102711" d="M193.084,191.6,115.26,252.7v16.376l59.7,23.472,7.36-11.184-23.376-19.816L184.8,245.7l8.288-52.344Z" transform="translate(-56.636 -114.726)" fill="#c83737"/>
            <path id="Trazado_102712" data-name="Trazado 102712" d="M115.26,262.24v16.384l24.312,9.552,21.88-14.984-2.5-2.152,18.6-11.4-6.5,25.2a131.775,131.775,0,0,0,19.656-28.8c-.856-1.888-7.68-16.84-7.68-16.84l-32.8,24.48-10.656-5.648,10.68,13.752-13.184,9.024L118.884,275.6Z" transform="translate(-56.636 -124.246)" fill="#c83737" opacity="0.3"/>
            <path id="Trazado_102713" data-name="Trazado 102713" d="M198.952,305.006,186.96,294.19l-9.64,16.584,10.5,3.1Z" transform="translate(-69.048 -135.244)" fill="#cfd8dc"/>
            <path id="Trazado_102714" data-name="Trazado 102714" d="M180.194,292.426,167.53,281.69l-21.88,14.96,26.1,10.3Z" transform="translate(-62.714 -132.744)" fill="#ffb74d"/>
            <path id="Trazado_102715" data-name="Trazado 102715" d="M341.078,358.328l12.176-6.16-15.68-41.128L313.51,324.8Z" transform="translate(-96.286 -138.614)" fill="#ffb74d"/>
            <path id="Trazado_102716" data-name="Trazado 102716" d="M247.39,188.242s11.832,13.176,25.6,14.448,24.8-7.2,24.8-7.2l-20.576-9.6Z" transform="translate(-83.062 -113.584)" fill="#ffa329"/>
            <path id="Trazado_102717" data-name="Trazado 102717" d="M335.324,130.85l-9.1,15.808,3.864-16.608Z" transform="translate(-98.828 -102.416)" fill="#aa5013"/>
            <path id="Trazado_102718" data-name="Trazado 102718" d="M291.15,183.528s1.992-7.768,8.04-25.072L271.358,147s-2.4,21.6-12.688,32.664C258.67,179.648,276.726,194.92,291.15,183.528Z" transform="translate(-85.318 -105.806)" fill="#ffa329"/>
            <path id="Trazado_102719" data-name="Trazado 102719" d="M270.528,146.782c-3.416-4.1-1.9-21.648,2.208-38.6,2.84-11.72,12-13.12,14.9-11.536,2.952-.056,9.1-.216,16.176-.32,21.08-.3,22.832,18.4,20.8,25.976-1.24,4.592-6.12,5.352-9.48,6.832C300.128,135.71,273.912,150.878,270.528,146.782Z" transform="translate(-87.312 -95.628)" fill="#aa5013"/>
            <path id="Trazado_102720" data-name="Trazado 102720" d="M269.759,152.676c-.7,3.648,7.2,13.04,10.816,17.48,2,2.44,5.952,3.2,8.64,3.464s15.048-4.8,17.808-11.264c3.016-7.1,14.584-35.528,14.584-35.528l-39.92-14.048S270.463,149.028,269.759,152.676Z" transform="translate(-87.527 -98.962)" fill="#ffb74d"/>
            <path id="Trazado_102721" data-name="Trazado 102721" d="M298.3,116.854s-8.8-1.6-12.536,2.584c-3.408,3.824-6.3,16.68-6.3,16.68L276,134.334l.952-16.984,7.536-10.6,15.744,5.984Z" transform="translate(-88.784 -97.756)" fill="#aa5013"/>
            <path id="Trazado_102722" data-name="Trazado 102722" d="M278.934,144.088l-3.8-2.408-.624,1.976,3.832,2.96Z" transform="translate(-88.486 -104.742)" fill="#aa5013"/>
            <path id="Trazado_102723" data-name="Trazado 102723" d="M277.92,148.246l-3.72-2.976-.48,2.072,3.672,3.176Z" transform="translate(-88.328 -105.46)" fill="#aa5013"/>
            <g id="Grupo_54198" data-name="Grupo 54198" transform="translate(178.603 28.45)">
              <path id="Trazado_102724" data-name="Trazado 102724" d="M276.007,141.054c-1.528,4.424-3.32,7.824-6.184,6.84s-5.688-5.984-4.16-10.4,5.08-7.2,7.936-6.232S277.535,136.614,276.007,141.054Z" transform="translate(-265.233 -131.07)" fill="#ffb74d"/>
              <path id="Trazado_102725" data-name="Trazado 102725" d="M274.376,141.164c-.864,2.512-1.888,4.432-3.5,3.872s-3.2-3.384-2.36-5.9,2.88-4.088,4.5-3.528S275.256,138.66,274.376,141.164Z" transform="translate(-265.842 -131.956)" fill="#ffa329"/>
            </g>
            <path id="Trazado_102726" data-name="Trazado 102726" d="M293.045,146.529c-.464,1.8,0,3.488,1.08,3.768s2.3-.968,2.776-2.768,0-3.5-1.08-3.768S293.517,144.745,293.045,146.529Z" transform="translate(-92.157 -105.151)" fill="#5e431f"/>
            <path id="Trazado_102727" data-name="Trazado 102727" d="M313.949,153.051c-.872,1.648-.856,3.368.04,3.848s2.344-.464,3.2-2.112.864-3.368,0-3.848S314.829,151.4,313.949,153.051Z" transform="translate(-96.245 -106.569)" fill="#5e431f"/>
            <path id="Trazado_102728" data-name="Trazado 102728" d="M290.379,132.932c-.128.984,2.184,2.088,5.168,2.464s5.488-.112,5.6-1.1-2.192-2.1-5.168-2.472S290.507,131.94,290.379,132.932Z" transform="translate(-91.659 -102.746)" fill="#aa5013"/>
            <path id="Trazado_102729" data-name="Trazado 102729" d="M318.556,139.724c-.568.8.672,2.664,2.784,4.144s4.272,2.008,4.84,1.192-.672-2.664-2.776-4.144S319.124,138.908,318.556,139.724Z" transform="translate(-97.268 -104.274)" fill="#aa5013"/>
            <path id="Trazado_102730" data-name="Trazado 102730" d="M305.95,162.164a11.832,11.832,0,0,1-7.16-2.344S299.934,170.78,305.95,162.164Z" transform="translate(-93.342 -108.37)" fill="#f99926"/>
            <path id="Trazado_102731" data-name="Trazado 102731" d="M282.792,133.352l-12.048-2.792L270,133.352l11.192,4.784Z" transform="translate(-87.584 -102.518)" fill="#263238"/>
            <path id="Trazado_102732" data-name="Trazado 102732" d="M297.406,177.91s-4.616,0-7.456-2.92C289.99,175,291.334,182.846,297.406,177.91Z" transform="translate(-91.574 -111.404)" fill="#ffa329"/>
            <g id="Grupo_54199" data-name="Grupo 54199" transform="translate(193.015 53.783)">
              <path id="Trazado_102733" data-name="Trazado 102733" d="M301.22,173.3a21.6,21.6,0,0,1-15.616-6.584,1.312,1.312,0,0,1,1.872-1.784,19.264,19.264,0,0,0,15.592,5.6,1.312,1.312,0,1,1,.408,2.592A14.536,14.536,0,0,1,301.22,173.3Z" transform="translate(-283.676 -163.125)" fill="#ea9c36"/>
              <path id="Trazado_102734" data-name="Trazado 102734" d="M284.562,167.363a1.3,1.3,0,0,1-1.064-.536,1.328,1.328,0,0,1,.288-1.84l2.752-2a1.315,1.315,0,0,1,1.544,2.128l-2.752,2A1.3,1.3,0,0,1,284.562,167.363Z" transform="translate(-283.249 -162.737)" fill="#ea9c36"/>
              <path id="Trazado_102735" data-name="Trazado 102735" d="M308.54,175.535a1.32,1.32,0,0,1-1.3-1.192l-.248-2.584a1.314,1.314,0,0,1,2.616-.256l.248,2.592a1.312,1.312,0,0,1-1.184,1.432Z" transform="translate(-287.996 -164.253)" fill="#ea9c36"/>
            </g>
            <g id="Grupo_54202" data-name="Grupo 54202" transform="translate(166.551 21.37)">
              <path id="Trazado_102736" data-name="Trazado 102736" d="M275.929,140.942c-2.008,8.256-8.464,13.776-14.4,12.328s-9.136-9.32-7.12-17.6,8.464-13.776,14.4-12.328S277.961,132.694,275.929,140.942Z" transform="translate(-250.897 -122.398)" fill="#263238"/>
              <path id="Trazado_102737" data-name="Trazado 102737" d="M272.29,140.06c-2.016,8.248-8.464,13.768-14.4,12.32s-9.128-9.312-7.12-17.6,8.464-13.776,14.4-12.328S274.3,131.8,272.29,140.06Z" transform="translate(-250.169 -122.22)" fill="#ffbe2c"/>
              <g id="Grupo_54200" data-name="Grupo 54200" transform="translate(0.033 6.816)" opacity="0.4">
                <path id="Trazado_102738" data-name="Trazado 102738" d="M260.666,133.388a10.5,10.5,0,0,0,1.8,0,10.4,10.4,0,0,0-1.6-.856,21.72,21.72,0,0,0-7.112-1.792c-.176.288-.336.584-.5.888a21.6,21.6,0,0,0,3.592,1.216A22.633,22.633,0,0,0,260.666,133.388Z" transform="translate(-250.818 -130.74)" fill="#ffab03"/>
                <path id="Trazado_102739" data-name="Trazado 102739" d="M254.842,140.474a21.1,21.1,0,0,0,3.808.576,11.128,11.128,0,0,0,1.8,0,9.936,9.936,0,0,0-1.6-.864,22.233,22.233,0,0,0-3.648-1.24,21.962,21.962,0,0,0-3.808-.576h-.608c-.048.216-.1.432-.136.656.16.08.328.168.528.248a21.262,21.262,0,0,0,3.664,1.2Z" transform="translate(-250.298 -132.266)" fill="#ffab03"/>
                <path id="Trazado_102740" data-name="Trazado 102740" d="M257.122,148.428a10.625,10.625,0,0,0,1.808,0,10.751,10.751,0,0,0-1.6-.856,21.7,21.7,0,0,0-7.12-1.792,8.531,8.531,0,0,0,.112,1.144,22.578,22.578,0,0,0,2.984.96A21.208,21.208,0,0,0,257.122,148.428Z" transform="translate(-250.21 -133.748)" fill="#ffab03"/>
              </g>
              <g id="Grupo_54201" data-name="Grupo 54201" transform="translate(0.281 2.993)" opacity="0.3">
                <path id="Trazado_102741" data-name="Trazado 102741" d="M265.656,139.168c1.5-6.128-.872-12-5.288-13.048a6.736,6.736,0,0,0-5.112.92c-.264.288-.52.584-.8.9a6.28,6.28,0,0,1,4.944-1.016c4,.984,6.192,6.312,4.8,11.912s-5.736,9.328-9.76,8.352a6.24,6.24,0,0,1-3.92-3.2c.072.392.168.8.264,1.152a6.784,6.784,0,0,0,4.12,3.2C259.376,149.4,264.168,145.3,265.656,139.168Z" transform="translate(-250.52 -125.961)" fill="#ffbe2c"/>
              </g>
            </g>
            <path id="Trazado_102742" data-name="Trazado 102742" d="M278,122.974s2.888-25.472,26.76-26.768c0,0-5.792-1.7-15.752.2,0,0-12.976,4.272-15.432,21.6A25.008,25.008,0,0,1,278,122.974Z" transform="translate(-88.3 -95.508)" fill="#263238"/>
            <path id="Trazado_102743" data-name="Trazado 102743" d="M299.27,117.808s9.312,9.952,26.336,8.5C325.606,126.3,310.814,115,299.27,117.808Z" transform="translate(-93.438 -99.878)" fill="#aa5013"/>
            <path id="Trazado_102744" data-name="Trazado 102744" d="M333.856,97.05s13.1,16.288-10.5,22.048l2.288-20.488S332.336,100.522,333.856,97.05Z" transform="translate(-98.256 -95.816)" fill="#aa5013"/>
            <path id="Trazado_102745" data-name="Trazado 102745" d="M329.88,128.29s3.2,2.672.968,8.176l4.312-7.08-1.52-2.656Z" transform="translate(-99.56 -101.752)" fill="#aa5013"/>
            <path id="Trazado_102746" data-name="Trazado 102746" d="M337.6,117.17s5.648-3.448,4.048-11.04c0,0,4.8,6.68-3.2,13.528Z" transform="translate(-101.104 -97.632)" fill="#aa5013"/>
            <path id="Trazado_102747" data-name="Trazado 102747" d="M303.282,118.79s2.584,7.536,17.824,10.4c0,0-17.216.856-20.456-10.4Z" transform="translate(-93.714 -100.164)" fill="#aa5013"/>
            <rect id="Rectángulo_5410" data-name="Rectángulo 5410" width="2.144" height="38.16" transform="translate(194.49 32.849) rotate(-70.81)" fill="#263238"/>
            <path id="Trazado_102748" data-name="Trazado 102748" d="M320.716,149.124s-3.912,12.216-11.2,10.7-5.536-7.888-8.464-9.2-5.664,5.36-13.792,1.888c-7.008-2.992-3.632-12.672-2.576-15.928Z" transform="translate(-90.172 -103.722)" fill="#00bcd4" opacity="0.3"/>
            <path id="Trazado_102749" data-name="Trazado 102749" d="M180.412,437.276l94.92,3.2-5.864-75.16,6.544-52.976-14.88,39.112s-55.2-4.272-58.9.8,55.44,14.864,55.44,14.864l1.864,23.528-67.52-5.064-7.808-21.12-3.2-47.784L177.3,365.3Z" transform="translate(-69.044 -138.874)" fill="#37474f" opacity="0.3"/>
            <path id="Trazado_102750" data-name="Trazado 102750" d="M320.112,151.322c-1.184,2.992-4.872,10.8-10.8,9.6-7.3-1.52-5.528-7.888-8.456-9.2s-5.672,5.36-13.8,1.888a6.664,6.664,0,0,1-4.056-5,6.968,6.968,0,0,0,4.264,6.344c8.128,3.472,10.864-3.2,13.792-1.888s1.16,7.68,8.464,9.2,11.2-10.7,11.2-10.7Z" transform="translate(-90.184 -106.128)" fill="#007f89" opacity="0.3"/>
            <path id="Trazado_102751" data-name="Trazado 102751" d="M94.754,403.91,47.33,611.774h4.8L111.266,403.91Z" transform="translate(-43.05 -157.188)" fill="#e1bf82"/>
            <path id="Trazado_102752" data-name="Trazado 102752" d="M371.9,403.91l47.416,207.864h-4.792L355.38,403.91Z" transform="translate(-104.66 -157.188)" fill="#e1bf82"/>
            <path id="Trazado_102753" data-name="Trazado 102753" d="M104.874,403.91,49.33,611.774h3.2L111.666,403.91Z" transform="translate(-43.45 -157.188)" fill="#e1bf82" opacity="0.4"/>
            <path id="Trazado_102754" data-name="Trazado 102754" d="M421.7,611.774,374.28,403.91h-7L418.5,611.774Z" transform="translate(-107.04 -157.188)" fill="#e1bf82" opacity="0.4"/>
            <path id="Trazado_102755" data-name="Trazado 102755" d="M225.81,188.7l-1.36,39.936,4.232.336,1.528-40.84Z" transform="translate(-78.474 -114.032)" fill="#37474f"/>
            <rect id="Rectángulo_5411" data-name="Rectángulo 5411" width="314.352" height="17.656" transform="translate(0.016 229.594)" fill="#bcbfac"/>
            <path id="Trazado_102756" data-name="Trazado 102756" d="M315.188,200.61,299.94,247.17l3.536.664,15.752-45.224Z" transform="translate(-93.572 -116.528)" fill="#37474f"/>
            <path id="Trazado_102757" data-name="Trazado 102757" d="M229.48,262.72l52.744,6.624S248.928,320.544,229.48,262.72Z" transform="translate(-79.48 -128.95)" fill="#37474f" opacity="0.3"/>
            <path id="Trazado_102758" data-name="Trazado 102758" d="M219.384,236.74l73.672,9.192s-.7,3.008-1.112,5.168l-74.664-8.944S218.912,238.076,219.384,236.74Z" transform="translate(-77.04 -123.754)" fill="#37474f" opacity="0.3"/>
            <path id="Trazado_102759" data-name="Trazado 102759" d="M212.824,363.214c-4.8-8.592-14.248-10.584-14.248-10.584H169.224A10.248,10.248,0,0,0,159,362.878v4.872a8.8,8.8,0,0,0,8.8,8.8h45.04v-13.5Z" transform="translate(-65.384 -146.932)" fill="#f4d3a8"/>
            <path id="Trazado_102760" data-name="Trazado 102760" d="M224.148,364.016v.16a20.8,20.8,0,0,0-6.088-6.736c-1.5,1.888-2.52,5.56-2.52,9.784,0,4.616,1.216,8.576,2.952,10.264h3.744a8.68,8.68,0,0,0,1.928-3.424Z" transform="translate(-76.692 -147.894)" fill="#f4d3a8"/>
            <path id="Trazado_102761" data-name="Trazado 102761" d="M213.152,363.214c-4.8-8.592-14.248-10.584-14.248-10.584H169.552a10.216,10.216,0,0,0-7.824,3.632,170.732,170.732,0,0,1,17.352-.7c16.408,0,23.1,5.168,23.1,9.6s-7.632,8.176-24,8.176a123.678,123.678,0,0,1-17.544-.984,8.8,8.8,0,0,0,7.472,4.184h45.056v-13.48Z" transform="translate(-65.712 -146.932)" fill="#f4d3a8"/>
            <path id="Trazado_102762" data-name="Trazado 102762" d="M220.918,362.37c-1.4,0-2.528,2.616-2.528,5.84s1.128,5.848,2.528,5.848H227V362.37Z" transform="translate(-77.262 -148.88)" fill="#f4d3a8"/>
            <path id="Trazado_102763" data-name="Trazado 102763" d="M220.918,362.37c-1.4,0-2.528,2.616-2.528,5.84s1.128,5.848,2.528,5.848H227V362.37Z" transform="translate(-77.262 -148.88)" fill="#f4d3a8"/>
            <path id="Trazado_102764" data-name="Trazado 102764" d="M264.832,380.9H215.52l3.36-6.4h42.592Z" transform="translate(-76.688 -151.306)" fill="#ffe8c7"/>
            <rect id="Rectángulo_5412" data-name="Rectángulo 5412" width="37.928" height="1.632" transform="translate(144.576 221.562)" fill="#455a64"/>
            <path id="Trazado_102765" data-name="Trazado 102765" d="M224.548,355.987s-4.584-32.728.848-36.5c4.928-3.424,29.9-6.656,28.648-.624-.568,2.768-7.528,6.64-6.592,9.752.736,2.44,5.112.624,6.712,1.408,1.4.688,3.336,3.264,3.672,12.168l.88,16.872Z" transform="translate(-78.132 -139.505)" fill="#ea7706"/>
            <path id="Trazado_102766" data-name="Trazado 102766" d="M220.16,370.44h42.352v-5.6c-28.568,0-42.352-2.48-42.352-2.48Z" transform="translate(-77.616 -148.878)" fill="#607d8b"/>
            <path id="Trazado_102767" data-name="Trazado 102767" d="M214.935,322.081s-40.36-2.16-39.36,16.5c.744,13.912,40.576,11.3,40.576,11.3v-4.8s-34.16,3.272-34.16-5.368c0-6.8,33.24-6.032,33.24-6.032Z" transform="translate(-68.695 -140.807)" fill="#ea7706"/>
            <g id="Grupo_54203" data-name="Grupo 54203" transform="translate(117.911 166.634)">
              <path id="Trazado_102768" data-name="Trazado 102768" d="M218.285,328.24s-.128,13.712-4.624,13.96c-3.2.168-1.336-9.768-1.336-9.768Z" transform="translate(-193.852 -308.688)" fill="#b0bec5"/>
              <path id="Trazado_102769" data-name="Trazado 102769" d="M210.928,330s-.128,13.712-4.616,13.96c-3.2.176-1.5-12.08-1.5-12.08Z" transform="translate(-192.366 -309.04)" fill="#b0bec5"/>
              <path id="Trazado_102770" data-name="Trazado 102770" d="M204.159,328.84s-.056,13.712-4.1,13.936c-2.88.168-1.4-12.08-1.4-12.08Z" transform="translate(-191.15 -308.808)" fill="#b0bec5"/>
              <path id="Trazado_102771" data-name="Trazado 102771" d="M197.908,327.91s-.056,13.712-4.112,13.936c-2.872.168-1.4-12.08-1.4-12.08Z" transform="translate(-189.898 -308.622)" fill="#b0bec5"/>
              <path id="Trazado_102772" data-name="Trazado 102772" d="M197.154,303.8s19.728,13.3,16.248,21.472c-1.792,2.752-21.128,6.632-23.36-.92-1.792-6.04.56-12.624.56-12.624Z" transform="translate(-189.368 -303.8)" fill="#cfd8dc"/>
            </g>
            <path id="Trazado_102773" data-name="Trazado 102773" d="M238.847,333.3c2.528,1.672,15.736,0,19.952-.992a3.848,3.848,0,0,0-1.536-1.552c-1.6-.8-5.976,1.032-6.712-1.408-.936-3.112,6.024-6.984,6.592-9.752a1.945,1.945,0,0,0,.04-.472,48.664,48.664,0,0,1-5.776,3.56C244.039,326.9,235.919,331.368,238.847,333.3Z" transform="translate(-81.231 -140.23)" fill="#ea7706" opacity="0.3"/>
            <path id="Trazado_102774" data-name="Trazado 102774" d="M230.654,341.465a3.28,3.28,0,0,0-4.224,3.2c.1,4.336.32,10.208.68,12.552,0,0,9.152,1.44,27.272,2.04,0,0,.4-13.7-2.536-14.472C249.486,344.193,237.926,343.641,230.654,341.465Z" transform="translate(-78.87 -144.671)" fill="#ff8b22"/>
            <path id="Trazado_102775" data-name="Trazado 102775" d="M226.229,330.449s-1.32-7.2,1.744-9.192,19.584-3.8,20.512-2.568c.64.8-6.656,3.872-11.248,7.56-3.736,3-6.016,6.272-8.8,6.56C227.461,332.905,226.613,332.353,226.229,330.449Z" transform="translate(-78.773 -140.064)" fill="#ff8b22"/>
            <circle id="Elipse_4090" data-name="Elipse 4090" cx="1.6" cy="1.6" r="1.6" transform="translate(168.648 209.266)" fill="#ea7706"/>
            <path id="Trazado_102776" data-name="Trazado 102776" d="M247.294,358.444a1.192,1.192,0,1,1-1.192-1.184,1.192,1.192,0,0,1,1.192,1.184Z" transform="translate(-82.566 -147.858)" fill="#ea7706"/>
            <g id="Grupo_54204" data-name="Grupo 54204" transform="translate(151.44 201.474)">
              <path id="Trazado_102777" data-name="Trazado 102777" d="M250.1,348.67H231.952a.664.664,0,0,1,0-1.32H250.1a.664.664,0,0,1,0,1.32Z" transform="translate(-231.296 -347.35)" fill="#ea7706"/>
              <path id="Trazado_102778" data-name="Trazado 102778" d="M250.088,351.872H231.936a.656.656,0,1,1,0-1.312h18.152a.656.656,0,0,1,0,1.312Z" transform="translate(-231.28 -347.992)" fill="#ea7706"/>
              <path id="Trazado_102779" data-name="Trazado 102779" d="M250.088,355.532H231.936a.656.656,0,1,1,0-1.312h18.152a.656.656,0,0,1,0,1.312Z" transform="translate(-231.28 -348.724)" fill="#ea7706"/>
            </g>
            <path id="Trazado_102780" data-name="Trazado 102780" d="M120.294,404.57H103.806L93.23,450.93h13.88Z" transform="translate(-52.23 -157.32)" fill="#e1bf82" opacity="0.4"/>
            <path id="Trazado_102781" data-name="Trazado 102781" d="M372.058,404.57H355.57l13.192,46.36h13.872Z" transform="translate(-104.698 -157.32)" fill="#e1bf82" opacity="0.4"/>
            <rect id="Rectángulo_5413" data-name="Rectángulo 5413" width="314.352" height="3.064" transform="translate(0.016 229.594)" fill="#e1bf82" opacity="0.5"/>
            <path id="Trazado_102782" data-name="Trazado 102782" d="M358.51,382.494s.88,1.6,8.6,1.536c0,0,4.272.488,5.208,1.256s3.752,4.8,5.528,4.272c2.152-.656.56-6.4.56-6.4l13.088.048-.48-.736Z" transform="translate(-105.286 -152.9)" fill="#e1bf82" opacity="0.6"/>
            <g id="Grupo_54205" data-name="Grupo 54205" transform="translate(0 229.594)" opacity="0.5">
              <path id="Trazado_102783" data-name="Trazado 102783" d="M56.816,390.12c2.816-.264,5.48-.52,7.792-.568,7.888-.152,15.9-.48,23.632-.8s15.84-.64,23.76-.8c14.824-.3,29.792.416,44.264,1.112,16.664.8,33.888,1.6,51.016.9,18.024-.752,35.936.336,53.264,1.392,8.056.488,16.392.992,24.688,1.312,5.232.208,10.16.3,14.84.3a240.969,240.969,0,0,0,27.312-1.416,88.079,88.079,0,0,1,13.056.056c5.52.264,11.152.52,15.912-.072v-.8c-4.712.592-10.344.344-15.872.072a88.724,88.724,0,0,0-13.192-.048,274.36,274.36,0,0,1-42.024,1.1c-8.288-.32-16.616-.8-24.672-1.312-17.344-1.056-35.28-2.144-53.344-1.392-17.08.72-34.3-.112-50.944-.9-14.488-.7-29.464-1.416-44.32-1.112-7.928.16-16,.48-23.776.8s-15.736.632-23.616.8c-2.344.048-5.024.3-7.856.568-4.84.456-10.136.936-14.736.472v.8C46.664,391.056,51.96,390.576,56.816,390.12Z" transform="translate(-41.984 -383.416)" fill="#d1a661"/>
              <path id="Trazado_102784" data-name="Trazado 102784" d="M383.384,383.884c8.088-.344,16.352-.688,24.648-.912V382.5H397.68q-7.2.276-14.4.584c-24.912,1.08-50.536,2.168-76.184-.584h-6.7a318.864,318.864,0,0,0,42.464,2.544C356.552,385.044,370.072,384.5,383.384,383.884Z" transform="translate(-93.664 -382.5)" fill="#d1a661"/>
              <path id="Trazado_102785" data-name="Trazado 102785" d="M53.936,384.028h.432c3.3-.312,6.76-.552,10.1-.8,2.9-.2,5.824-.424,8.752-.688H62.864c-2.856.208-5.76.416-8.568.688l-.432.04c-2.944.28-7.952.752-11.864.192v.8a31.412,31.412,0,0,0,4.3.264C49.2,384.508,51.992,384.212,53.936,384.028Z" transform="translate(-41.984 -382.508)" fill="#d1a661"/>
              <path id="Trazado_102786" data-name="Trazado 102786" d="M45.308,396.652c5.656-.72,11.2-1.368,16.68-1.536,12.88-.392,26.616-.72,40.52,0,5.792.3,11.584.64,17.368.976,26.608,1.528,54.12,3.112,81.4,1.6,4.208-.232,8.472-.544,12.592-.856,8-.6,16.208-1.216,24.4-1.216,12,0,23.5,1.136,35.672,2.344l.616.064c14.256,1.408,28.24,2.12,41.56,2.12,6.3,0,12.688-.272,18.864-.528s12.5-.536,18.76-.536H354c.8,0,1.6,0,2.4.048v-.8c-.8,0-1.6-.048-2.4-.048-6.4,0-12.8.272-19.008.536s-12.544.536-18.832.536c-13.3,0-27.248-.72-41.488-2.128L274,397.18c-12.184-1.208-23.688-2.352-35.744-2.352-8.224,0-16.48.624-24.464,1.216-4.112.312-8.368.632-12.576.864-27.2,1.488-54.72-.1-81.312-1.6q-8.68-.5-17.368-.968c-13.928-.736-27.688-.416-40.584,0-5.52.168-11.08.8-16.76,1.536-.8.1-1.6.168-2.544.232l-.664.056v.8l.72-.056C43.644,396.812,44.516,396.748,45.308,396.652Z" transform="translate(-41.98 -384.78)" fill="#d1a661"/>
              <path id="Trazado_102787" data-name="Trazado 102787" d="M49.772,401.257c-1.784.112-3.616.32-5.392.528-.8.088-1.6.184-2.4.264v.8l2.472-.28c1.768-.2,3.592-.416,5.352-.528a206.862,206.862,0,0,1,25.128.12c5.9.352,11.864.968,17.784,1.672H99.26c-8-1.024-16.2-1.992-24.28-2.464a205.222,205.222,0,0,0-25.208-.112Z" transform="translate(-41.98 -386.185)" fill="#d1a661"/>
              <path id="Trazado_102788" data-name="Trazado 102788" d="M278.99,400a136.178,136.178,0,0,0-21.1.488c-4.6.36-9.216,1.08-13.68,1.776-3.1.488-6.28.976-9.456,1.344H240.7c1.216-.176,2.4-.368,3.632-.552,4.44-.7,9.04-1.408,13.6-1.768a134.748,134.748,0,0,1,20.984-.488c6.872.528,13.648,1.64,20.328,2.808h4.624l-1.088-.184C295.03,402.041,287,400.617,278.99,400Z" transform="translate(-80.534 -385.953)" fill="#d1a661"/>
              <path id="Trazado_102789" data-name="Trazado 102789" d="M216.946,383.788c2.24.12,4.752.192,7.432.192a113.764,113.764,0,0,0,18.848-1.48h-5.744a129.107,129.107,0,0,1-20.5.488l-1.76-.088c-2.4-.12-4.8-.256-7.256-.4H197.45c5.928.576,11.912.9,17.728,1.2Z" transform="translate(-73.074 -382.5)" fill="#d1a661"/>
            </g>
            <path id="Trazado_102790" data-name="Trazado 102790" d="M366.52,381.192s8,.984,8.6,2.128,2.664,4.8,4.192,4.584,2.1-5.352-1.144-8.592S368.24,377.544,366.52,381.192Z" transform="translate(-106.888 -151.91)" fill="#b0bec5"/>
          </g>
        </g>
        <path id="Trazado_102791" data-name="Trazado 102791" d="M251.486,419.236a169.256,169.256,0,0,0,169.432-169.4,6.056,6.056,0,1,0-12.112,0,157.16,157.16,0,0,1-157.32,157.32,6.056,6.056,0,1,0,0,12.112Z" transform="translate(-49.086 -48.756)" fill="#b3b4aa"/>
        <g id="Grupo_54208" data-name="Grupo 54208" transform="translate(17.343 16.064)">
          <path id="Trazado_102792" data-name="Trazado 102792" d="M439.511,70.435A165.728,165.728,0,0,1,451.1,83.843c3.44,4.456,6.688,9.168,10.328,14.784a10.8,10.8,0,1,0,18.13-11.737c-3.834-5.927-7.442-11.2-11.362-16.239a184.213,184.213,0,0,0-13.088-15.144,10.8,10.8,0,1,0-15.6,14.928Z" transform="translate(-104.646 -26.499)" fill="#d5d9ba"/>
          <path id="Trazado_102793" data-name="Trazado 102793" d="M415.447,34.29c3.152,2.4-3.008-2.568,0,0" transform="translate(-100.262 -22.77)" fill="#9b6771"/>
          <path id="Trazado_102794" data-name="Trazado 102794" d="M424.228,29.768a11.831,11.831,0,0,0-.48-1.512,11.317,11.317,0,0,0-.8-1.6c-.216-.352-.384-.592-.528-.8-.272-.376-.456-.584-.6-.752-.28-.312-.424-.456-.544-.576l-.424-.4c-.176-.16-.288-.248-.408-.352l-.584-.48c-.3-.248-.6-.488-.9-.72l-.488-.376c-.112-.08-.224-.168-.5-.344l-.256-.168c-.176-.112-.376-.24-.864-.5a11.336,11.336,0,0,0-1.16-.5,10.4,10.4,0,0,0-1.24-.384c-.344-.072-.76-.16-1.3-.224h-1.24a10.7,10.7,0,0,0-3.36.544,10.287,10.287,0,0,0-1.984.88,10.76,10.76,0,0,0-5.32,7.768,10.287,10.287,0,0,0-.12,1.6,10.775,10.775,0,0,0,.5,3.256,11.537,11.537,0,0,0,.64,1.6,11.734,11.734,0,0,0,.8,1.4c.2.272.344.456.464.608.232.28.376.432.5.56s.32.336.424.432l.36.336.432.376.5.44.24.176.208.176h0l.872.656.5.352c.136.088.272.184.632.4.2.1.424.248.944.488a10.744,10.744,0,0,0,1.192.464,5.036,5.036,0,0,0,.544.16h1.088a7.872,7.872,0,0,0,.984.112h1.024a11,11,0,0,0,3.584-.72,10.79,10.79,0,0,0,6.728-8.048,11.606,11.606,0,0,0,.192-2.024,10.927,10.927,0,0,0-.256-2.3ZM412.94,20.088ZM410.964,42.72ZM411.068,42.72ZM411.516,42.824Z" transform="translate(-97.571 -20.08)" fill="#bd9aa0"/>
          <path id="Trazado_102795" data-name="Trazado 102795" d="M91.26,465.108A218.128,218.128,0,0,1,33.18,410.86" transform="translate(-23.979 -98.236)" fill="#590212"/>
          <path id="Trazado_102796" data-name="Trazado 102796" d="M93.936,455.066a208.967,208.967,0,0,1-55.656-52,9.2,9.2,0,1,0-14.8,10.929,227.2,227.2,0,0,0,60.537,56.559,9.2,9.2,0,1,0,9.92-15.488Z" transform="translate(-21.679 -95.93)" fill="#deccd0"/>
          <path id="Trazado_102797" data-name="Trazado 102797" d="M55.5,100.6c2.184-2.856-2.336,2.728,0,0" transform="translate(-28.305 -36.016)" fill="#9b6771"/>
          <path id="Trazado_102798" data-name="Trazado 102798" d="M48.862,81.692a14.249,14.249,0,0,0-2.088.68,14.711,14.711,0,0,0-2.128,1.088c-.472.3-.8.52-1.056.712-.5.384-.8.624-1,.8-.424.376-.608.568-.8.728-.28.288-.4.424-.512.544l-.4.464-.5.6-.68.952c-.128.16-.24.312-.424.56l-.176.24-.192.272-.216.328c-.072.1-.152.232-.248.4s-.168.272-.28.472a16,16,0,0,0-.712,1.48,14.518,14.518,0,0,0-1.144,5.672,14.8,14.8,0,0,0,6.072,11.952,14.928,14.928,0,0,0,2.48,1.48,14.7,14.7,0,0,0,3.512,1.144,14.4,14.4,0,0,0,2.736.256,14.72,14.72,0,0,0,5.664-1.128,13.336,13.336,0,0,0,1.6-.8,15.912,15.912,0,0,0,1.528-.976c.32-.24.536-.416.712-.568.344-.28.536-.464.688-.608.288-.264.424-.416.544-.536s.312-.328.416-.448.264-.3.4-.448l.424-.5c.088-.1.16-.216.248-.32s.168-.192.248-.3h0c.264-.344.456-.592.664-.88l.176-.248c.048-.064.1-.144.168-.248s.112-.16.192-.28L65,103.9c.064-.1.144-.232.24-.4s.16-.28.264-.48a15.2,15.2,0,0,0,.68-1.464,13.687,13.687,0,0,0,.552-1.68,14.455,14.455,0,0,0,.312-1.464,15.288,15.288,0,0,0,.192-2.344,15.488,15.488,0,0,0-.392-3.376,14.976,14.976,0,0,0-1.456-3.784,15.2,15.2,0,0,0-2.4-3.2,14.851,14.851,0,0,0-6.568-3.872,14.728,14.728,0,0,0-3.2-.536h-.8a15.2,15.2,0,0,0-3.56.392Z" transform="translate(-24.605 -32.324)" fill="#eef0e3"/>
          <path id="Trazado_102799" data-name="Trazado 102799" d="M446.6,382.12a197.96,197.96,0,0,1-49.248,52.7" transform="translate(-96.813 -92.488)" fill="#590212"/>
          <path id="Trazado_102800" data-name="Trazado 102800" d="M439.162,376.764a191.2,191.2,0,0,1-47.552,50.912,6.8,6.8,0,1,0,8.081,10.937,204.448,204.448,0,0,0,50.935-54.537,6.8,6.8,0,1,0-11.465-7.313Z" transform="translate(-95.113 -90.788)" fill="#f1cdcd"/>
        </g>
      </g>
      <g id="Layer_1" data-name="Layer 1" transform="translate(29.448 16.752)">
        <path id="Trazado_102801" data-name="Trazado 102801" d="M382.17,207.16a172.68,172.68,0,1,0-345.36,0,12.8,12.8,0,0,0,25.52,0,147.2,147.2,0,1,1,294.32,0,12.8,12.8,0,0,0,25.52,0Z" transform="translate(-36.81 -23.648)" fill="#d5d9ba"/>
        <path id="Trazado_102802" data-name="Trazado 102802" d="M226.892,386a184.877,184.877,0,0,0,20.3,1.112A183.61,183.61,0,0,0,267.02,20.988a7.839,7.839,0,1,0-1.712,15.585A167.944,167.944,0,0,1,414.908,203.3a171.322,171.322,0,0,1-1.016,18.568,167.753,167.753,0,0,1-185.24,148.556,7.839,7.839,0,1,0-1.745,15.581Z" transform="translate(-73.436 -20.94)" fill="#e6e8d6"/>
      </g>
    </g>
  </g>
</svg>
