<svg xmlns="http://www.w3.org/2000/svg" xmlns:xlink="http://www.w3.org/1999/xlink" width="400" height="400" viewBox="0 0 400 400">
  <defs>
    <clipPath id="clip-path">
      <circle id="Elipse_4110" data-name="Elipse 4110" cx="170.096" cy="170.096" r="170.096" fill="none"/>
    </clipPath>
  </defs>
  <g id="Grupo_55721" data-name="Grupo 55721" transform="translate(-305 -2570)">
    <g id="CF1_2.2_derechos_3" data-name="CF1_2.2 derechos 3" transform="translate(305 2568.16)">
      <g id="Capa_2" data-name="Capa 2" transform="translate(39.12 39.904)">
        <circle id="Elipse_4108" data-name="Elipse 4108" cx="170.096" cy="170.096" r="170.096" fill="#eef0e3"/>
      </g>
      <g id="Layer_1" data-name="Layer 1" transform="translate(0 1.84)">
        <g id="Grupo_54682" data-name="Grupo 54682" transform="translate(115.128 84.84)">
          <g id="Grupo_54680" data-name="Grupo 54680">
            <rect id="Rectángulo_5673" data-name="Rectángulo 5673" width="250.696" height="189.752" transform="translate(6.312 8.416)" fill="#e6e6e6"/>
            <g id="Grupo_54679" data-name="Grupo 54679" transform="translate(6.312 8.416)" opacity="0.22">
              <rect id="Rectángulo_5674" data-name="Rectángulo 5674" width="250.696" height="4.496" fill="#1f363d"/>
            </g>
            <rect id="Rectángulo_5675" data-name="Rectángulo 5675" width="9.072" height="101.12" transform="translate(32.904 201.648)" fill="#7c9298"/>
            <rect id="Rectángulo_5676" data-name="Rectángulo 5676" width="9.072" height="101.12" transform="translate(217.496 201.648)" fill="#7c9298"/>
            <path id="Trazado_105013" data-name="Trazado 105013" d="M177.36,486.636a6.3,6.3,0,0,1,6.3-6.3H192.6a6.3,6.3,0,0,1,6.3,6.3Z" transform="translate(-150.6 -182.38)" fill="#7c9298"/>
            <path id="Trazado_105014" data-name="Trazado 105014" d="M408,486.636a6.3,6.3,0,0,1,6.3-6.3h8.944a6.3,6.3,0,0,1,6.288,6.3Z" transform="translate(-196.728 -182.38)" fill="#7c9298"/>
            <path id="Trazado_105015" data-name="Trazado 105015" d="M407.3,113.578a5.648,5.648,0,0,1-5.648,5.6h-252.1a5.648,5.648,0,0,1,0-11.288H401.623a5.648,5.648,0,0,1,5.68,5.688Z" transform="translate(-143.951 -107.89)" fill="#8ca4aa"/>
            <path id="Trazado_105016" data-name="Trazado 105016" d="M407.262,115a5.648,5.648,0,0,1-5.648,5.6H149.51a5.64,5.64,0,0,1-5.6-5.6Z" transform="translate(-143.91 -109.312)" fill="#7c9298"/>
            <path id="Trazado_105017" data-name="Trazado 105017" d="M407.3,355.522a5.648,5.648,0,0,1-5.68,5.656H149.551a5.648,5.648,0,0,1,0-11.288H401.623a5.648,5.648,0,0,1,5.68,5.632Z" transform="translate(-143.951 -156.29)" fill="#8ca4aa"/>
            <path id="Trazado_105018" data-name="Trazado 105018" d="M407.262,356.93a5.648,5.648,0,0,1-5.68,5.656H149.51a5.648,5.648,0,0,1-5.6-5.648Z" transform="translate(-143.91 -157.698)" fill="#7c9298"/>
          </g>
          <g id="Grupo_54681" data-name="Grupo 54681" transform="translate(17 21.624)" opacity="0.22">
            <path id="Trazado_105019" data-name="Trazado 105019" d="M395.976,301.944H169.16l-4-167.024H391.976Z" transform="translate(-165.16 -134.92)" fill="#1f363d"/>
          </g>
          <rect id="Rectángulo_5677" data-name="Rectángulo 5677" width="226.816" height="163.024" transform="translate(17 21.624)" fill="#fff"/>
        </g>
        <g id="Grupo_54686" data-name="Grupo 54686" transform="translate(163.07 123.632)">
          <path id="Trazado_105020" data-name="Trazado 105020" d="M243.462,228.96c-.128-.8-.264-2.264-.264-2.264-.1-1.552-1.208-1.6-1.208-1.6-1.368-.376-3.3-.736-3.3-.736a1.352,1.352,0,0,1-1.264-1.176,19.807,19.807,0,0,1-.1-3.152h0a19.333,19.333,0,0,1,.416-3.128,1.352,1.352,0,0,1,1.384-1.04,20.875,20.875,0,0,0,3.12-.336,1.968,1.968,0,0,0,1.6-1.456s.272-1.6.392-2.2h0c.112-.8.4-2.248.4-2.248.36-1.512-.7-1.9-.7-1.9-1.192-.76-2.928-1.656-2.928-1.656a1.344,1.344,0,0,1-.872-1.5,19.943,19.943,0,0,1,.8-3.04h0a19.1,19.1,0,0,1,1.312-2.864,1.328,1.328,0,0,1,1.6-.6,21.169,21.169,0,0,0,3.088.576,1.944,1.944,0,0,0,1.96-.928s.728-1.464,1.016-1.984h0c.392-.752,1.128-1.984,1.128-1.984.8-1.312,0-2.024,0-2.024-.88-1.112-2.216-2.544-2.216-2.544a1.32,1.32,0,0,1-.328-1.688,19.344,19.344,0,0,1,1.776-2.608h0a18.475,18.475,0,0,1,2.176-2.28,1.344,1.344,0,0,1,1.728,0,22.749,22.749,0,0,0,2.72,1.6,1.968,1.968,0,0,0,2.16-.232s1.168-1.136,1.6-1.536h0c.6-.584,1.7-1.512,1.7-1.512,1.216-.952.648-1.92.648-1.92-.472-1.336-1.272-3.12-1.272-3.12a1.352,1.352,0,0,1,.248-1.712,20.284,20.284,0,0,1,2.544-1.88h0a19.8,19.8,0,0,1,2.808-1.432,1.336,1.336,0,0,1,1.64.544,22.3,22.3,0,0,0,2.056,2.4,1.968,1.968,0,0,0,2.112.5s1.488-.7,2.032-.936h0c.752-.392,2.072-.984,2.072-.984,1.44-.576,1.144-1.664,1.144-1.664-.088-1.416-.36-3.352-.36-3.352a1.344,1.344,0,0,1,.712-1.6,19.56,19.56,0,0,1,2.952-1.1h0a24.619,24.619,0,0,1,3.928-.7h-.1l3.448,11.816A46.344,46.344,0,0,0,252.094,240.3l-10.936,3.2-.176-.344a28.97,28.97,0,0,1-1.6-4.088h0a19.581,19.581,0,0,1-.584-3.1,1.352,1.352,0,0,1,.976-1.432,21.229,21.229,0,0,0,2.856-1.3,1.96,1.96,0,0,0,1.064-1.888s-.248-1.6-.32-2.216Z" transform="translate(-210.532 -157.896)" fill="#1b75ba"/>
          <path id="Trazado_105021" data-name="Trazado 105021" d="M328.906,173.858c.8.312,2.088.92,2.088.92,1.384.7,2.008-.216,2.008-.216,1.016-.992,2.3-2.464,2.3-2.464a1.336,1.336,0,0,1,1.656-.5,18.461,18.461,0,0,1,2.76,1.512h0a20,20,0,0,1,2.48,1.944,1.344,1.344,0,0,1,.192,1.72,21.652,21.652,0,0,0-1.288,2.864,1.976,1.976,0,0,0,.44,2.128s1.256,1.048,1.7,1.456h0c.656.52,1.736,1.48,1.736,1.48,1.12,1.08,1.992.36,1.992.36,1.256-.64,2.912-1.68,2.912-1.68a1.344,1.344,0,0,1,1.728,0,20.336,20.336,0,0,1,2.216,2.248h0a19.3,19.3,0,0,1,1.808,2.576,1.344,1.344,0,0,1-.3,1.7,22.709,22.709,0,0,0-2.072,2.36,1.992,1.992,0,0,0-.192,2.168s.9,1.368,1.208,1.88h0c.456.712,1.152,1.976,1.152,1.976.7,1.384,1.752,1,1.752,1,1.4-.192,3.312-.624,3.312-.624a1.344,1.344,0,0,1,1.6.576,19.085,19.085,0,0,1,1.336,2.848h0a19.6,19.6,0,0,1,.856,3.04,1.344,1.344,0,0,1-.848,1.5,21.692,21.692,0,0,0-2.736,1.552,1.968,1.968,0,0,0-.9,1.968s.4,1.6.52,2.176h0c.192.8.432,2.248.432,2.248.264,1.544,1.408,1.544,1.408,1.544,1.392.28,3.336.5,3.336.5a1.336,1.336,0,0,1,1.352,1.08,19.938,19.938,0,0,1,.328,3.128h0a19.656,19.656,0,0,1-.192,3.144,1.328,1.328,0,0,1-1.3,1.136,21.761,21.761,0,0,0-3.088.576,1.976,1.976,0,0,0-1.5,1.6s-.144,1.6-.224,2.216h0c-.04.84-.2,2.272-.2,2.272-.224,1.544.856,1.832.856,1.832,1.256.648,3.072,1.392,3.072,1.392a1.336,1.336,0,0,1,1,1.408,19.142,19.142,0,0,1-.544,3.1h0a24.1,24.1,0,0,1-1.376,3.752l.056-.1-11.976-2.992a46.36,46.36,0,0,0-36.952-64.5l2.816-11.032H318a29.978,29.978,0,0,1,4.32.736h0a18.943,18.943,0,0,1,2.968,1.056,1.344,1.344,0,0,1,.736,1.6,21.949,21.949,0,0,0-.32,3.128,1.968,1.968,0,0,0,1.088,1.88s1.52.6,2.072.8Z" transform="translate(-226.032 -158.034)" fill="#1b75ba"/>
          <path id="Trazado_105022" data-name="Trazado 105022" d="M329.22,283.2c-.664.52-1.832,1.368-1.832,1.368-1.3.856-.8,1.856-.8,1.856.352,1.376,1.016,3.2,1.016,3.2a1.352,1.352,0,0,1-.384,1.688,19.917,19.917,0,0,1-2.68,1.672h0a19.258,19.258,0,0,1-2.912,1.208,1.352,1.352,0,0,1-1.6-.672,21.811,21.811,0,0,0-1.856-2.536,1.952,1.952,0,0,0-2.064-.656s-1.536.576-2.1.76h0c-.8.32-2.144.8-2.144.8-1.488.448-1.288,1.56-1.288,1.56-.056,1.408,0,3.36,0,3.36a1.344,1.344,0,0,1-.856,1.5,19.384,19.384,0,0,1-3.032.8h0a19.549,19.549,0,0,1-3.136.312,1.336,1.336,0,0,1-1.328-1.1,22,22,0,0,0-1.056-2.968,1.944,1.944,0,0,0-1.784-1.232s-1.6.112-2.232.128h0c-.84.04-2.28,0-2.28,0-1.552-.064-1.736,1.04-1.736,1.04-.52,1.312-1.08,3.2-1.08,3.2a1.336,1.336,0,0,1-1.3,1.136,19.535,19.535,0,0,1-3.144-.232h0a19.1,19.1,0,0,1-3.064-.744,1.328,1.328,0,0,1-.888-1.472,22.645,22.645,0,0,0,0-3.152,1.96,1.96,0,0,0-1.28-1.752s-1.6-.432-2.144-.616h0c-.8-.24-2.168-.728-2.168-.728-1.448-.576-1.976.408-1.976.408-.92,1.072-2.072,2.664-2.072,2.664a1.352,1.352,0,0,1-1.6.648,18.938,18.938,0,0,1-2.9-1.256h0a18.849,18.849,0,0,1-2.648-1.7,1.336,1.336,0,0,1-.352-1.688,22.273,22.273,0,0,0,1.016-2.976,1.976,1.976,0,0,0-.632-2.072s-1.352-.928-1.832-1.3h0c-.712-.448-1.888-1.3-1.888-1.3-1.224-.936-2.016-.152-2.016-.152-1.176.8-2.72,2-2.72,2a1.328,1.328,0,0,1-1.712.176,18.735,18.735,0,0,1-2.44-2h0a24.267,24.267,0,0,1-2.592-3.04l.056.088,8.472-8.912a46.4,46.4,0,0,0,74.328-.536l8.232,7.856-.2.328a30.972,30.972,0,0,1-2.752,3.408h0a20.8,20.8,0,0,1-2.4,2.064,1.336,1.336,0,0,1-1.72-.128,20.93,20.93,0,0,0-2.568-1.816,1.96,1.96,0,0,0-2.168,0s-1.264,1.024-1.744,1.392Z" transform="translate(-213.41 -179.102)" fill="#1b75ba"/>
          <g id="Grupo_54683" data-name="Grupo 54683">
            <path id="Trazado_105023" data-name="Trazado 105023" d="M247.73,169.076a17.128,17.128,0,0,0,2.488-4.048s3.016-7.144,12.232-7.144a10.576,10.576,0,0,0,5.008-.96l1.192-.544a49.724,49.724,0,0,0-4,3.632s-3.616,4.864-12.376,6.856a13.375,13.375,0,0,0-3.584,1.672Z" transform="translate(-212.616 -156.38)" fill="#1b75ba"/>
            <path id="Trazado_105024" data-name="Trazado 105024" d="M246.962,160.466l.368-.616s-1.88,1.488-5.36,3.7a17.208,17.208,0,0,0-8.72,12.144,23.862,23.862,0,0,0-.64,4.648,18.656,18.656,0,0,1-1.8,4.432l1.8-1.3a24.578,24.578,0,0,1,4.152-2.168s7.2-1.976,11.48-6.256c0,0,3.544-3.432,4-4.184a26.4,26.4,0,0,1,1.9-1.928l.72-.72a35.864,35.864,0,0,1-7.032,2.24s-6.624,1.04-10.28,6.568l-.64-.584a40.553,40.553,0,0,0,6.16-8.368s.928-1.8,1.6-3.424a15.5,15.5,0,0,1,2.3-4.184Z" transform="translate(-209.232 -157.074)" fill="#1b75ba"/>
            <path id="Trazado_105025" data-name="Trazado 105025" d="M229.734,173.55a22.453,22.453,0,0,0-2.792,8.424s-.8,7.5-2.4,11.328l-1.28,2.912.528.168a17.808,17.808,0,0,1,6.264-7.44,13.92,13.92,0,0,1,4.712-1.912,11.136,11.136,0,0,0,4.3-2.56s-2.088,3.136-2.9,4.416a27.639,27.639,0,0,1-10.344,11.28s-4.472,2.4-6.272,5.6c0,0,.8-2.96-.232-8.544,0,0-2.208-7.44,1.856-13.656a43.7,43.7,0,0,1,6.1-7.608A23.744,23.744,0,0,0,229.734,173.55Z" transform="translate(-206.812 -159.814)" fill="#1b75ba"/>
            <path id="Trazado_105026" data-name="Trazado 105026" d="M214.168,196.72s-1.216,3.832-.056,9.992c0,0,.928,3.776,1.048,4.3,0,0,1.1,6.152-.408,9.928h.7s.232-4.7,5-9.008c0,0,7.32-6.736,8.656-8.3,0,0-2.208,5.7-3.256,9.24a29.464,29.464,0,0,1-7.432,12,12.512,12.512,0,0,0-3.776,9.416h-.584s.12-2.728-2.9-8.8A29.3,29.3,0,0,1,208,213.336a23.936,23.936,0,0,1,3.488-11.152S213.416,198.4,214.168,196.72Z" transform="translate(-204.67 -164.448)" fill="#1b75ba"/>
            <path id="Trazado_105027" data-name="Trazado 105027" d="M205.311,226.406a29.985,29.985,0,0,0,4.072,11.392s5.176,7.728,5.056,11.448l.528-.056s-1.048-6.568,1.688-10.872a45.6,45.6,0,0,1,4.64-6.968s2.672-3.664,3.08-5c0,0-.232,4.36-.352,7.144,0,0-.512,8.952-3.424,14.4,0,0-3.016,6.16-2.9,10.464a12.656,12.656,0,0,0,.64,4.416,39.353,39.353,0,0,0-5.872-6.048,23.472,23.472,0,0,1-7.9-12.5s-1.6-7.552-.064-13.536Z" transform="translate(-203.837 -170.374)" fill="#1b75ba"/>
            <path id="Trazado_105028" data-name="Trazado 105028" d="M206.85,258.654a18.168,18.168,0,0,0,7.264,9.768s1.456.928,2.4,1.68a21.256,21.256,0,0,1,6.4,8l.7-.464s-2.728-2.5-2.968-9.232c0,0,.3-4.944,1.808-8.08,0,0,2.032-5.4,2.144-8.136,0,0,.7,3.024,1.688,6.16a39.407,39.407,0,0,1,1.8,10.984,37.839,37.839,0,0,1-.92,6.736s-1.456,7.552,3.592,12.384l-.632.52s-1.512-2.56-3.664-3.144a26.744,26.744,0,0,1-10.864-5.168,24.44,24.44,0,0,1-6.16-10.168S207.082,263.19,206.85,258.654Z" transform="translate(-204.44 -175.542)" fill="#1b75ba"/>
            <path id="Trazado_105029" data-name="Trazado 105029" d="M218.84,289.13s1.744,3.144,8.592,4.656c0,0,8.952,2.264,12.728,7.2l.408-.576a25.6,25.6,0,0,1-7.088-11.2,23.92,23.92,0,0,1-.584-9.12,30.4,30.4,0,0,0-.288-4.8,30.525,30.525,0,0,0,3.312,5.6s4.8,4.8,6.744,10.576c0,0,1.272,3.84,2.088,6.976,0,0,.872,7.44,7.44,8.312a28.191,28.191,0,0,0,8.952-.064,34.128,34.128,0,0,1-23.072,1.512s-4.8-.928-12-8.888C226.1,299.306,220.76,293.554,218.84,289.13Z" transform="translate(-206.838 -180.162)" fill="#1b75ba"/>
          </g>
          <g id="Grupo_54684" data-name="Grupo 54684" transform="translate(111.394)">
            <path id="Trazado_105030" data-name="Trazado 105030" d="M364,169.076a16.8,16.8,0,0,1-2.488-4.048s-3.024-7.144-12.224-7.144a10.608,10.608,0,0,1-5.016-.96l-1.192-.544a49.729,49.729,0,0,1,4,3.632s3.616,4.864,12.376,6.856a13.272,13.272,0,0,1,3.576,1.672Z" transform="translate(-343.08 -156.38)" fill="#1b75ba"/>
            <path id="Trazado_105031" data-name="Trazado 105031" d="M363.968,160.466l-.36-.616s1.88,1.488,5.368,3.7a17.184,17.184,0,0,1,8.712,12.144,24.736,24.736,0,0,1,.64,4.648,18.657,18.657,0,0,0,1.8,4.432l-1.8-1.3a24.579,24.579,0,0,0-4.152-2.168s-7.2-1.976-11.48-6.256c0,0-3.544-3.432-4-4.184a26.4,26.4,0,0,0-1.9-1.928l-.72-.72a36.113,36.113,0,0,0,7.032,2.24s6.616,1.04,10.28,6.568l.64-.584a40.552,40.552,0,0,1-6.16-8.368s-.928-1.8-1.6-3.424A15.386,15.386,0,0,0,363.968,160.466Z" transform="translate(-345.68 -157.074)" fill="#1b75ba"/>
            <path id="Trazado_105032" data-name="Trazado 105032" d="M382.134,173.55a22.511,22.511,0,0,1,2.784,8.424s.8,7.5,2.4,11.328l1.28,2.912-.52.168a17.92,17.92,0,0,0-6.28-7.44,13.921,13.921,0,0,0-4.7-1.912,11.2,11.2,0,0,1-4.3-2.56s2.1,3.136,2.9,4.416a27.639,27.639,0,0,0,10.344,11.28s4.48,2.4,6.28,5.6c0,0-.8-2.96.232-8.544,0,0,2.208-7.44-1.856-13.656a44.194,44.194,0,0,0-6.1-7.608A24.575,24.575,0,0,1,382.134,173.55Z" transform="translate(-349.022 -159.814)" fill="#1b75ba"/>
            <path id="Trazado_105033" data-name="Trazado 105033" d="M397.516,196.72s1.224,3.832.056,9.992c0,0-.928,3.776-1.048,4.3,0,0-1.1,6.152.408,9.928h-.7s-.232-4.7-5-9.008c0,0-7.32-6.736-8.656-8.3,0,0,2.208,5.7,3.256,9.24a29.463,29.463,0,0,0,7.432,12,12.512,12.512,0,0,1,3.776,9.416h.584s-.112-2.728,2.9-8.8a29.3,29.3,0,0,0,3.184-12.152,23.937,23.937,0,0,0-3.488-11.152S398.268,198.4,397.516,196.72Z" transform="translate(-350.98 -164.448)" fill="#1b75ba"/>
            <path id="Trazado_105034" data-name="Trazado 105034" d="M406.5,226.406A30.048,30.048,0,0,1,402.44,237.8s-5.176,7.728-5.064,11.448l-.512-.056s1.04-6.568-1.7-10.872a45.6,45.6,0,0,0-4.64-6.968s-2.68-3.664-3.088-5c0,0,.24,4.36.352,7.144,0,0,.528,8.952,3.432,14.4,0,0,3.016,6.16,2.9,10.464a12.657,12.657,0,0,1-.64,4.416,39.354,39.354,0,0,1,5.872-6.048,23.5,23.5,0,0,0,7.9-12.5s1.6-7.552.056-13.536Z" transform="translate(-351.952 -170.374)" fill="#1b75ba"/>
            <path id="Trazado_105035" data-name="Trazado 105035" d="M404.126,258.654a18.167,18.167,0,0,1-7.288,9.768s-1.448.928-2.4,1.68a21.256,21.256,0,0,0-6.4,8l-.7-.464s2.728-2.5,2.96-9.232c0,0-.288-4.944-1.792-8.08,0,0-2.04-5.4-2.16-8.136,0,0-.7,3.024-1.68,6.16a39.263,39.263,0,0,0-1.808,10.984,38.015,38.015,0,0,0,.936,6.736s1.456,7.552-3.608,12.384l.648.52s1.512-2.56,3.656-3.144a26.8,26.8,0,0,0,10.872-5.168,24.375,24.375,0,0,0,6.152-10.168S403.894,263.19,404.126,258.654Z" transform="translate(-350.502 -175.542)" fill="#1b75ba"/>
            <path id="Trazado_105036" data-name="Trazado 105036" d="M387.546,289.13s-1.744,3.144-8.6,4.656c0,0-8.952,2.264-12.72,7.2l-.408-.576a25.6,25.6,0,0,0,7.088-11.2,23.64,23.64,0,0,0,.576-9.12,29.754,29.754,0,0,1,.3-4.8,31.041,31.041,0,0,1-3.312,5.6s-4.8,4.8-6.736,10.576c0,0-1.28,3.84-2.1,6.976,0,0-.872,7.44-7.44,8.312a28.152,28.152,0,0,1-8.944-.064,34.1,34.1,0,0,0,23.064,1.512s4.8-.928,12-8.888C380.25,299.306,385.634,293.554,387.546,289.13Z" transform="translate(-343.514 -180.162)" fill="#1b75ba"/>
          </g>
          <g id="Grupo_54685" data-name="Grupo 54685" transform="translate(30.306 127.121)">
            <path id="Trazado_105037" data-name="Trazado 105037" d="M312.2,329.3s-7.928-10.632-19.96-13.072c0,0-8.976-2.528-20.8.7,0,0-6.8,1.912-9.76,2.7,0,0-12.2,3.3-19.96-1.488a29.48,29.48,0,0,0,20.392,9.768,24.672,24.672,0,0,0,16.04-6.1s6.888-6.712,15.432-4.184a24.952,24.952,0,0,1,14.992,12.552Z" transform="translate(-241.72 -315.282)" fill="#1b75ba"/>
            <path id="Trazado_105038" data-name="Trazado 105038" d="M287.66,329.3s7.928-10.632,19.952-13.072c0,0,8.984-2.528,20.8.7,0,0,6.8,1.912,9.768,2.7,0,0,12.208,3.3,19.96-1.488a29.512,29.512,0,0,1-20.4,9.768,24.656,24.656,0,0,1-16-6.1s-6.888-6.744-15.408-4.184a24.952,24.952,0,0,0-14.992,12.552Z" transform="translate(-250.908 -315.282)" fill="#1b75ba"/>
          </g>
          <path id="Trazado_105039" data-name="Trazado 105039" d="M304.68,260.55h-12v-1.712s7.2,1.712,8.168-6.08V200.55c-.944-6.08-8.16-4.368-8.16-4.368V194.47h24.136v1.712s-7.2-1.712-8.16,4.368v52.208c.952,7.792,8.168,6.08,8.168,6.08v1.712H304.68Z" transform="translate(-221.606 -163.998)" fill="#1b75ba"/>
          <path id="Trazado_105040" data-name="Trazado 105040" d="M328.894,213V211.45c-.1-1.552-1.6-1.5-2.248-1.6-5.784-.392-5.928,9.072-5.928,9.072H318.91V207.53h26.16v11.408h-1.8s-.144-9.432-5.888-9.08c-.64.08-2.152.04-2.256,1.6V228.85h0v16.272c.752,5.024,6.464,3.92,6.464,3.92v1.1H322.438v-1.1s5.72,1.1,6.464-3.92v-16.28h0V213Z" transform="translate(-226.852 -166.61)" fill="#1b75ba"/>
          <path id="Trazado_105041" data-name="Trazado 105041" d="M282.3,228.326c0,9.872-1.728,19-7.656,19-6.16,0-7.648-9.128-7.648-19s2.08-17.872,7.648-17.872C280.66,210.454,282.3,218.462,282.3,228.326Zm-7.416-21.216c-10.248,0-14.064,9.6-14.064,21.376s3.408,21.384,14.064,21.384c10.24,0,14.056-9.6,14.056-21.384s-3.008-21.376-14.056-21.376Z" transform="translate(-215.234 -166.526)" fill="#1b75ba"/>
        </g>
        <g id="Grupo_54716" data-name="Grupo 54716">
          <rect id="Rectángulo_5678" data-name="Rectángulo 5678" width="400" height="400" fill="none"/>
          <circle id="Elipse_4109" data-name="Elipse 4109" cx="170.096" cy="170.096" r="170.096" transform="translate(39.12 38.064)" fill="none"/>
          <path id="Trazado_105042" data-name="Trazado 105042" d="M218.788,48.93A169.288,169.288,0,0,0,49.38,218.338a6.056,6.056,0,1,0,12.112,0,157.16,157.16,0,0,1,157.3-157.3,6.056,6.056,0,0,0,0-12.112Z" transform="translate(-9.876 -11.258)" fill="#b3b4aa"/>
          <g id="Grupo_54687" data-name="Grupo 54687" transform="translate(17.346 16.019)">
            <path id="Trazado_105043" data-name="Trazado 105043" d="M63.472,428.72a162.779,162.779,0,0,1-11.592-13.4c-3.44-4.464-6.688-9.168-10.328-14.784a10.8,10.8,0,0,0-18.136,11.736c3.84,5.92,7.448,11.2,11.36,16.24a184.361,184.361,0,0,0,13.1,15.144,10.8,10.8,0,1,0,15.6-14.937Z" transform="translate(-21.682 -96.611)" fill="#d5d9ba"/>
            <path id="Trazado_105044" data-name="Trazado 105044" d="M98.279,477.391c-3.144-2.4,3.008,2.568,0,0" transform="translate(-36.817 -112.834)" fill="#9b6771"/>
            <path id="Trazado_105045" data-name="Trazado 105045" d="M84.158,476.558a10.209,10.209,0,0,0,.48,1.5,9.938,9.938,0,0,0,.8,1.6c.216.352.384.592.52.8.28.376.464.584.608.752.272.312.424.456.544.576s.328.312.424.4l.4.344.584.488.9.72.5.376.488.344.264.168a9.36,9.36,0,0,0,.856.488,11.409,11.409,0,0,0,2.4.9,12,12,0,0,0,1.3.216h1.24a11.3,11.3,0,0,0,1.472-.1,10.028,10.028,0,0,0,1.88-.44,10.285,10.285,0,0,0,1.984-.88,10.766,10.766,0,0,0,4.968-12.632,10.723,10.723,0,0,0-.632-1.6,11.5,11.5,0,0,0-.8-1.4c-.192-.28-.344-.456-.464-.608-.232-.28-.368-.432-.488-.56s-.328-.336-.424-.432l-.368-.336c-.144-.136-.272-.248-.424-.376l-.512-.44a2.514,2.514,0,0,0-.232-.176l-.208-.184h0l-.872-.656-.5-.352c-.128-.088-.272-.184-.632-.4a10.15,10.15,0,0,0-.936-.488,12.528,12.528,0,0,0-1.2-.472l-.544-.16H97.15l-.192-.04h-.552a9.844,9.844,0,0,0-.984-.1H94.374a11.126,11.126,0,0,0-1.68.176,11.308,11.308,0,0,0-1.9.544,10.855,10.855,0,0,0-3.616,2.168,10.727,10.727,0,0,0-1.928,2.5,10.529,10.529,0,0,0-1.184,3.256,10.2,10.2,0,0,0-.192,2.016,10.52,10.52,0,0,0,.288,2.5ZM95.446,486.278ZM97.422,463.646ZM97.318,463.646ZM96.862,463.542Z" transform="translate(-34.12 -110.169)" fill="#bd9aa0"/>
            <path id="Trazado_105046" data-name="Trazado 105046" d="M408.39,33.37a218.008,218.008,0,0,1,58.088,54.248" transform="translate(-99.024 -24.165)" fill="#590212"/>
            <path id="Trazado_105047" data-name="Trazado 105047" d="M401.147,38.829a208.8,208.8,0,0,1,55.624,51.944,9.2,9.2,0,1,0,14.8-10.929,227.145,227.145,0,0,0-60.529-56.535,9.2,9.2,0,1,0-9.9,15.512Z" transform="translate(-96.724 -21.864)" fill="#deccd0"/>
            <path id="Trazado_105048" data-name="Trazado 105048" d="M458.356,411.036c-2.184,2.856,2.328-2.728,0,0" transform="translate(-108.894 -99.543)" fill="#9b6771"/>
            <path id="Trazado_105049" data-name="Trazado 105049" d="M457.553,422.56a15.666,15.666,0,0,0,2.088-.68,15.355,15.355,0,0,0,2.168-1.1c.472-.3.8-.528,1.056-.72.5-.376.8-.616,1-.8.416-.376.608-.568.8-.728.288-.288.408-.424.52-.544s.288-.344.4-.464l.5-.6c.24-.3.472-.584.712-.9.12-.152.24-.3.424-.552l.176-.24.184-.272.224-.328.248-.4c.072-.128.168-.28.272-.48a14.133,14.133,0,0,0,.72-1.472,14.6,14.6,0,0,0,.592-1.712,14.216,14.216,0,0,0,.344-1.528,14.789,14.789,0,0,0-11.856-16.992,14.4,14.4,0,0,0-2.736-.256,14.792,14.792,0,0,0-5.672,1.128,15.5,15.5,0,0,0-1.6.76,16.122,16.122,0,0,0-1.528.984c-.32.24-.536.416-.72.56-.336.288-.528.472-.688.616s-.424.416-.544.536l-.408.44-.4.456-.424.5c-.088.1-.16.216-.248.32s-.168.192-.248.3h0c-.264.344-.456.592-.664.88l-.176.24-.176.256c-.048.072-.112.16-.184.28s-.128.192-.216.336-.144.232-.24.4-.16.28-.272.48a15.586,15.586,0,0,0-1.232,3.144,14.776,14.776,0,0,0,10.3,18.064,15.2,15.2,0,0,0,3.2.536h.8A15.2,15.2,0,0,0,457.553,422.56Z" transform="translate(-105.195 -95.851)" fill="#eef0e3"/>
            <path id="Trazado_105050" data-name="Trazado 105050" d="M55.27,116.736A197.961,197.961,0,0,1,104.518,64" transform="translate(-28.4 -30.291)" fill="#590212"/>
            <path id="Trazado_105051" data-name="Trazado 105051" d="M59.305,118.693a191.04,191.04,0,0,1,47.552-50.912,6.8,6.8,0,0,0-8.08-10.944,204.8,204.8,0,0,0-50.944,54.544,6.8,6.8,0,1,0,11.472,7.312Z" transform="translate(-26.699 -28.592)" fill="#f1cdcd"/>
          </g>
          <path id="Trazado_105052" data-name="Trazado 105052" d="M234.622,34.492a184.92,184.92,0,0,0-20.288-1.112A182.145,182.145,0,0,0,148.3,45.724,183.634,183.634,0,0,0,194.454,399.54a7.835,7.835,0,1,0,1.712-15.576A167.949,167.949,0,0,1,214.334,49.076,171.321,171.321,0,0,1,232.9,50.092a7.835,7.835,0,0,0,1.72-15.576Z" transform="translate(-6.182 -8.148)" fill="#e6e8d6"/>
          <g id="Grupo_54715" data-name="Grupo 54715" transform="translate(39.12 38.064)" clip-path="url(#clip-path)">
            <g id="Grupo_54714" data-name="Grupo 54714" transform="translate(9.87 68.074)">
              <path id="Trazado_105053" data-name="Trazado 105053" d="M220.47,287.256s8.2-22.6,10.792-24.88c2.144-1.88,11.2-.4,14.976-.8,2.4-.248,4.536-1.656,7.512-5.832.968-1.36,2-2.064,2.984-1.752,3.2,1.024-.8,8.88-3.44,13.088-1.68,2.728-14.256,2.856-16.976,4-1.36.576-8.272,16.9-8.272,16.9Z" transform="translate(-93.084 -158.394)" fill="#fcc49a"/>
              <path id="Trazado_105054" data-name="Trazado 105054" d="M153.362,264.679c-1.768-.616-2.2.52-5.056,3.112-7.448,6.768,14.44,45.736,32,59.44,19.44,15.2,39.2-44.072,42.664-49.9l-12.8-7c-.1-.208-19.3,40.24-21.672,38.632-3.928-2.656-11.928-17.456-17.816-26.992C165.45,273.567,160.85,267.3,153.362,264.679Z" transform="translate(-78.352 -160.513)" fill="#1f363d"/>
              <path id="Trazado_105055" data-name="Trazado 105055" d="M232.51,263.974s1.744-4.472,8.936-8.552c3.936-2.232,5.384-2.272,5.384-2.272s2.328,1.1-.912,3.368c-4.248,2.976-4.8,4.088-2.456,4.864s2.648.584,2.648.584Z" transform="translate(-95.492 -158.24)" fill="#fcc49a"/>
              <path id="Trazado_105056" data-name="Trazado 105056" d="M92.574,392.084h58.32c2.7-38.84,2.768-87.728,2.968-93.176.752-20.736-7.512-32.144-13.168-35.64-8.8-5.448-22.1-5.448-22.1-5.448s-13.216,0-22.024,5.448c-5.656,3.5-13.92,14.9-13.168,35.64C83.6,304.364,89.878,353.244,92.574,392.084Z" transform="translate(-65.66 -159.174)" fill="#fcc49a"/>
              <path id="Trazado_105057" data-name="Trazado 105057" d="M134.206,259.186c0,3.952-2.736,8.912-9.464,8.928s-8.672-5.064-8.672-8.928V240.65h18.136Z" transform="translate(-72.204 -155.74)" fill="#fcc49a"/>
              <g id="Grupo_54692" data-name="Grupo 54692" transform="translate(18.97 45.95)">
                <g id="Grupo_54689" data-name="Grupo 54689">
                  <path id="Trazado_105058" data-name="Trazado 105058" d="M90.022,202.094a5.072,5.072,0,1,1,0-10.144h4a5.072,5.072,0,1,1,0,10.144Z" transform="translate(-84.95 -191.95)" fill="#eaae86"/>
                  <g id="Grupo_54688" data-name="Grupo 54688" transform="translate(3.072 3.064)">
                    <path id="Trazado_105059" data-name="Trazado 105059" d="M90.79,199.78a2,2,0,1,1,0-4h4a2,2,0,0,1,0,4Z" transform="translate(-88.79 -195.78)" fill="#f2e6dc"/>
                  </g>
                </g>
                <g id="Grupo_54691" data-name="Grupo 54691" transform="translate(53.768)">
                  <path id="Trazado_105060" data-name="Trazado 105060" d="M157.232,202.094a5.072,5.072,0,1,1,0-10.144h4a5.072,5.072,0,0,1,0,10.144Z" transform="translate(-152.16 -191.95)" fill="#eaae86"/>
                  <g id="Grupo_54690" data-name="Grupo 54690" transform="translate(3.072 3.064)">
                    <path id="Trazado_105061" data-name="Trazado 105061" d="M158,199.78a2,2,0,0,1,0-4h4a2,2,0,0,1,0,4Z" transform="translate(-156 -195.78)" fill="#f2e6dc"/>
                  </g>
                </g>
              </g>
              <g id="Grupo_54693" data-name="Grupo 54693" transform="translate(43.866 84.91)">
                <path id="Trazado_105062" data-name="Trazado 105062" d="M116.07,249.226a25.312,25.312,0,0,0,18.136,0V240.65H116.07Z" transform="translate(-116.07 -240.65)" fill="#f2e6dc"/>
              </g>
              <path id="Trazado_105063" data-name="Trazado 105063" d="M120.894,142.59c-14.4,0-26.064,9.24-26.064,23.632v33.352c0,14.4,11.664,28.3,26.064,28.3s26.072-13.9,26.072-28.3V166.222C146.966,151.83,135.278,142.59,120.894,142.59Z" transform="translate(-67.956 -136.128)" fill="#fcc49a"/>
              <path id="Trazado_105064" data-name="Trazado 105064" d="M122.679,207.51s.8.56,3.36.56a14.055,14.055,0,0,0,4.2-.416s-.624,3.12-3.64,3.152C123.463,210.838,122.615,208.55,122.679,207.51Z" transform="translate(-73.525 -149.112)" fill="#e2a479"/>
              <path id="Trazado_105065" data-name="Trazado 105065" d="M126.681,222.317h-6.112a.848.848,0,0,1,0-1.688h6.024c1.44,0,4.056-.3,4.96-1.192a.851.851,0,1,1,1.208,1.2C131.161,222.237,127.449,222.317,126.681,222.317Z" transform="translate(-72.95 -151.447)" fill="#b77351"/>
              <path id="Trazado_105066" data-name="Trazado 105066" d="M128.354,226.58H123.17a.84.84,0,0,1,0-1.68h5.184a.84.84,0,0,1,0,1.68Z" transform="translate(-73.456 -152.59)" fill="#b77351"/>
              <path id="Trazado_105067" data-name="Trazado 105067" d="M147.969,184.251h-8.456a1.08,1.08,0,0,1,0-2.152h8.456a1.08,1.08,0,1,1,0,2.152Z" transform="translate(-76.695 -144.029)" fill="#3f2615"/>
              <path id="Trazado_105068" data-name="Trazado 105068" d="M111.69,185.092a1.136,1.136,0,0,1-.36-.064l-8.168-2.92a1.075,1.075,0,0,1,.728-2.024L112.058,183a1.08,1.08,0,0,1-.368,2.1Z" transform="translate(-69.48 -143.614)" fill="#3f2615"/>
              <path id="Trazado_105069" data-name="Trazado 105069" d="M106.036,152.223c10.4,0,24.888,5.72,24.888,5.72l-1.96-5.72h9.6c6.92,0,7.008,6.544,7.008,6.544l.864,21.312s3.2-18.7,3.464-27.392a41.6,41.6,0,0,0-3.616-18.16l-7.832,3.08,2.072-3.08c-6.96.048-19.416-.048-28,0l-4,2.808,1.024-2.808H99.092c-1.08,0-6.512,7.256-6.512,19.752,0,6.448,1.752,26.9,1.752,26.9s.384-16.5,1.232-21.1C97.06,152.031,106.036,152.223,106.036,152.223Z" transform="translate(-67.506 -134.513)" fill="#603e2b"/>
              <g id="Grupo_54696" data-name="Grupo 54696" transform="translate(31.922 55.038)">
                <g id="Grupo_54694" data-name="Grupo 54694" transform="translate(0 0)" opacity="0.3">
                  <path id="Trazado_105070" data-name="Trazado 105070" d="M112.452,206a2.688,2.688,0,0,1-2.688,2.7h-5.928a2.7,2.7,0,0,1-2.7-2.7h0a2.7,2.7,0,0,1,2.7-2.688h5.928A2.688,2.688,0,0,1,112.452,206Z" transform="translate(-101.14 -203.31)" fill="#ff8f71"/>
                </g>
                <g id="Grupo_54695" data-name="Grupo 54695" transform="translate(30.704)" opacity="0.3">
                  <path id="Trazado_105071" data-name="Trazado 105071" d="M150.832,206a2.7,2.7,0,0,1-2.7,2.7h-5.92a2.7,2.7,0,0,1-2.7-2.7h0a2.7,2.7,0,0,1,2.7-2.688h5.92a2.688,2.688,0,0,1,2.7,2.688Z" transform="translate(-139.52 -203.31)" fill="#ff8f71"/>
                </g>
              </g>
              <g id="Grupo_54697" data-name="Grupo 54697" transform="translate(36.41 45.626)">
                <path id="Trazado_105072" data-name="Trazado 105072" d="M145.23,194.845a2.52,2.52,0,0,0,.152-.688,2.76,2.76,0,0,0-5.512,0,2.256,2.256,0,0,0,.152.688Z" transform="translate(-113.374 -191.546)" fill="#3f2919"/>
                <path id="Trazado_105073" data-name="Trazado 105073" d="M112.1,194.86a2.256,2.256,0,0,0,.152-.688,2.76,2.76,0,0,0-5.5,0,2.256,2.256,0,0,0,.152.688Z" transform="translate(-106.75 -191.561)" fill="#3f2919"/>
              </g>
              <path id="Trazado_105074" data-name="Trazado 105074" d="M150.266,267.822s-13.08-10.064-16.5-11.032v2.568c0,5.256-.864,11.6-5.072,11.6s-14.56-6.344-14.56-11.6v-2.536c-3.432.992-4.48,2.28-4.48,2.28l7.264,113.736h10.144l22.24-.6Z" transform="translate(-70.92 -158.968)" fill="#d8eaef"/>
              <g id="Grupo_54700" data-name="Grupo 54700" transform="translate(22.149 41.606)">
                <g id="Grupo_54698" data-name="Grupo 54698" transform="translate(3.684 0.794)" opacity="0.44">
                  <path id="Trazado_105075" data-name="Trazado 105075" d="M115.8,194.3c-.536,1.6-1.6,2.832-5.008,3.2a57.009,57.009,0,0,1-12.376,0c-4.384-.536-4.68-2.8-4.8-5.032-.136-2.52-.568-4.264,3.08-4.736s10.608-.08,13.936.144c1.744.12,4.592.7,5.12,2.024A6.7,6.7,0,0,1,115.8,194.3Zm31.544-1.816c-.112,2.232-.408,4.5-4.8,5.032a57.009,57.009,0,0,1-12.376,0c-3.384-.384-4.472-1.648-5.016-3.2a6.752,6.752,0,0,1,0-4.384c.528-1.32,3.376-1.9,5.128-2.024,3.312-.224,10.288-.624,13.928-.144s3.3,2.224,3.136,4.744Z" transform="translate(-93.528 -187.512)" fill="#fff"/>
                </g>
                <g id="Grupo_54699" data-name="Grupo 54699">
                  <path id="Trazado_105076" data-name="Trazado 105076" d="M149.464,187.646c-.96,0-2.4-.216-4.64-.456a90.633,90.633,0,0,0-15.2,0c-4.8.48-5.952,1.752-9.808,1.752s-4.976-1.272-9.808-1.752a90.711,90.711,0,0,0-15.2,0c-2.232.24-3.68.456-4.64.456s-.8.8-.8,1.392v1.344c0,.656.368.8.952,1.072a3.48,3.48,0,0,1,1.5,2.24c.36,1.184.376,4.112,7.128,4.616a55.552,55.552,0,0,0,13.448-.416c4.592-.8,4-6.648,7.464-6.648s2.872,5.824,7.464,6.648a55.489,55.489,0,0,0,13.44.416c6.768-.5,6.768-3.432,7.144-4.616a3.493,3.493,0,0,1,1.488-2.24c.6-.264.968-.416.968-1.072v-1.344C150.3,188.414,150.44,187.646,149.464,187.646Zm-34.352,6.528c-.544,1.6-1.6,2.832-5.016,3.2a57.009,57.009,0,0,1-12.376,0c-4.376-.536-4.68-2.8-4.8-5.032-.136-2.52-.568-4.264,3.08-4.736s10.608-.08,13.928.144c1.752.12,4.6.7,5.136,2.024a6.808,6.808,0,0,1,.048,4.4Zm31.56-1.792c-.12,2.232-.416,4.5-4.8,5.032a57.009,57.009,0,0,1-12.376,0c-3.384-.384-4.472-1.648-5.016-3.2a6.752,6.752,0,0,1,.04-4.384c.536-1.32,3.376-1.9,5.128-2.024,3.32-.224,10.288-.624,13.92-.144S146.776,189.862,146.672,192.382Z" transform="translate(-89.01 -186.59)" fill="#052c35"/>
                  <path id="Trazado_105077" data-name="Trazado 105077" d="M135.161,198.72h0a46.511,46.511,0,0,1-8.04-.632c-2.52-.456-3.544-2.32-4.44-4-.8-1.432-1.464-2.672-2.976-2.672s-2.192,1.24-2.976,2.672c-.9,1.648-1.92,3.512-4.448,4a55.88,55.88,0,0,1-13.512.424c-6.3-.48-6.928-3.064-7.264-4.448a1.308,1.308,0,0,0-.1-.368,3.32,3.32,0,0,0-1.352-2.072c-.608-.264-1.112-.5-1.112-1.312v-1.344a2.1,2.1,0,0,0,0-.224,1.528,1.528,0,0,1,.272-1.152,1.064,1.064,0,0,1,.8-.288,28.263,28.263,0,0,0,2.9-.256l1.712-.192c1.976-.208,4.936-.336,7.928-.336,2.776,0,5.32.1,7.36.3A27.416,27.416,0,0,1,115,187.832a15.04,15.04,0,0,0,9.392,0,27.45,27.45,0,0,1,5.08-1.008c2.04-.2,4.584-.3,7.36-.3,2.992,0,5.952.128,7.928.336l1.72.192a28.142,28.142,0,0,0,2.888.256,1.088,1.088,0,0,1,.8.288,1.6,1.6,0,0,1,.28,1.16v1.56c0,.8-.5,1.032-1.08,1.3a3.28,3.28,0,0,0-1.384,2.1,2.755,2.755,0,0,0-.1.376c-.336,1.384-.976,3.952-7.272,4.424C138.729,198.648,136.881,198.72,135.161,198.72ZM119.7,190.9c1.824,0,2.616,1.432,3.448,2.952s1.8,3.288,4.064,3.7a45.409,45.409,0,0,0,7.944.624h0c1.712,0,3.536-.072,5.432-.208,5.912-.448,6.464-2.688,6.792-4,.04-.152.072-.288.112-.408a3.7,3.7,0,0,1,1.6-2.4c.624-.28.8-.384.8-.8v-1.6a1.477,1.477,0,0,0-.128-.8.632.632,0,0,0-.44-.12,29.2,29.2,0,0,1-2.952-.264l-1.712-.192c-.56-.064-1.192-.112-1.888-.16l.688.08c3.592.464,3.488,2.216,3.352,4.432v.576c-.128,2.48-.608,4.744-5.024,5.3a50.851,50.851,0,0,1-6.072.336,59.245,59.245,0,0,1-6.4-.336c-3.728-.432-4.744-1.96-5.24-3.4a7.04,7.04,0,0,1,.048-4.568c.728-1.824,4.888-2.16,5.36-2.192,3.7-.256,6.992-.376,9.552-.376h-2.248c-2.76,0-5.288.1-7.3.3a26.239,26.239,0,0,0-4.992.992,15.632,15.632,0,0,1-9.68,0,26.24,26.24,0,0,0-4.992-.992c-2.024-.2-4.552-.3-7.312-.3h-2.256c2.608,0,5.816.12,9.6.376.472,0,4.632.368,5.368,2.192a7.152,7.152,0,0,1,.04,4.568c-.5,1.44-1.52,2.968-5.24,3.4a59.245,59.245,0,0,1-6.4.336,50.954,50.954,0,0,1-6.072-.336c-4.432-.552-4.9-2.816-5.024-5.3v-.584c-.144-2.216-.248-3.96,3.352-4.424l.7-.08c-.7.048-1.344.1-1.9.16l-1.7.192a29.514,29.514,0,0,1-2.96.264.608.608,0,0,0-.432.12c-.136.136-.128.456-.112.76v1.6c0,.448.176.544.8.8a3.728,3.728,0,0,1,1.664,2.4,4.125,4.125,0,0,1,.1.4c.328,1.344.864,3.592,6.784,4.04a55.239,55.239,0,0,0,13.384-.416c2.264-.408,3.2-2.08,4.064-3.7S117.873,190.9,119.7,190.9Zm19.12-3.3c-2.488,0-5.688.128-9.256.376-2.056.144-4.464.8-4.9,1.856a6.4,6.4,0,0,0,0,4.192c.464,1.344,1.368,2.648,4.8,3.04a58.179,58.179,0,0,0,6.312.336,49.75,49.75,0,0,0,6.008-.336c4-.5,4.432-2.4,4.552-4.8v-.592c.136-2.232.208-3.464-2.888-3.864a38.279,38.279,0,0,0-4.632-.2Zm-38.24,0a38.277,38.277,0,0,0-4.616.224c-3.1.4-3.032,1.6-2.888,3.856v.6c.12,2.4.528,4.288,4.552,4.8a49.847,49.847,0,0,0,6.008.336,57.921,57.921,0,0,0,6.3-.336c3.424-.392,4.328-1.7,4.8-3.04a6.448,6.448,0,0,0,0-4.192c-.432-1.072-2.84-1.712-4.9-1.856-3.624-.256-6.736-.384-9.264-.384Z" transform="translate(-88.924 -186.52)" fill="#052c35"/>
                </g>
              </g>
              <g id="Grupo_54703" data-name="Grupo 54703" transform="translate(23.81 208.214)">
                <path id="Trazado_105078" data-name="Trazado 105078" d="M91,394.78l9.3,134.448h15.3l10.032-89.752c.184-1.5.936-2.648,2.4-2.672s1.928,1.2,2.5,2.672L155,529.228h16.24L153.92,394.78Z" transform="translate(-91 -394.78)" fill="#1b2f35"/>
                <g id="Grupo_54701" data-name="Grupo 54701" transform="translate(39.248 2.248)" opacity="0.56">
                  <path id="Trazado_105079" data-name="Trazado 105079" d="M143.484,399.3a1.7,1.7,0,1,1-.5-1.213,1.712,1.712,0,0,1,.5,1.213Z" transform="translate(-140.06 -397.59)" fill="#334f57"/>
                </g>
                <g id="Grupo_54702" data-name="Grupo 54702" transform="translate(0.496)" opacity="0.76">
                  <path id="Trazado_105080" data-name="Trazado 105080" d="M155.1,402.14H127.66v-7.36H126.3v7.36H91.62l.072.984H131.7l.968,25.6.232-25.6h22.136Z" transform="translate(-91.62 -394.78)" fill="#0d2528"/>
                </g>
              </g>
              <path id="Trazado_105081" data-name="Trazado 105081" d="M134.914,286.584l2.64-10.112-5.5-3.272-4.8,5.312,4.6,8.36s1.032,16.952.384,32.112c-.336,7.84-1.8,31.344-1.8,31.344l6.272,12.72,5.808-13.208s-2.016-24-2.784-32C138.306,302.912,134.914,286.584,134.914,286.584Z" transform="translate(-74.44 -162.25)" fill="#aa0e0e"/>
              <g id="Grupo_54706" data-name="Grupo 54706" transform="translate(38.29 96.342)">
                <g id="Grupo_54704" data-name="Grupo 54704" transform="translate(0 1.864)" opacity="0.26">
                  <path id="Trazado_105082" data-name="Trazado 105082" d="M138.388,261.07l-5.232-3.8-4.608,13-14.216-13-5.232,3.8,9.72,23.872,9.576-13.256,9.152,12.216Z" transform="translate(-109.1 -257.27)" fill="#1f363d"/>
                </g>
                <g id="Grupo_54705" data-name="Grupo 54705" transform="translate(0.464)">
                  <path id="Trazado_105083" data-name="Trazado 105083" d="M142.734,258.74l-5.056-3.8-4.488,14.68,8.816,12.12Z" transform="translate(-114.382 -254.94)" fill="#fff"/>
                  <path id="Trazado_105084" data-name="Trazado 105084" d="M109.68,258.74l5.064-3.8,13.744,14.68-9.24,12.12Z" transform="translate(-109.68 -254.94)" fill="#fff"/>
                </g>
              </g>
              <path id="Trazado_105085" data-name="Trazado 105085" d="M83.7,312.71c3.888,21.6,5.648,75.712,5.648,75.712.3.3,18.96,2.616,28.952,2.616,0,0,4.616-59.16,1.168-79.688C115.773,289.382,106,258.67,106,258.67a44.97,44.97,0,0,0-5.736,1.8C93.789,262.934,76.525,272.9,83.7,312.71Z" transform="translate(-65.387 -159.344)" fill="#1f363d"/>
              <g id="Grupo_54710" data-name="Grupo 54710" transform="translate(64.426 98.182)">
                <g id="Grupo_54708" data-name="Grupo 54708" transform="translate(0)">
                  <g id="Grupo_54707" data-name="Grupo 54707" transform="translate(0.44 1.808)" opacity="0.22">
                    <path id="Trazado_105086" data-name="Trazado 105086" d="M164.88,312.892l.536,73.464c-.3.3-3.432,3.7-13.416,3.7,0,0-1.2-60.248-1.944-76.208-1.168-25.072-7.736-54.344-7.736-54.344C144.256,259.956,168.52,272.6,164.88,312.892Z" transform="translate(-142.32 -259.5)" fill="#1f363d"/>
                  </g>
                  <path id="Trazado_105087" data-name="Trazado 105087" d="M166.956,312.726l.536,73.464c-.3.3-3.432,3.7-13.416,3.7,0,0-1.2-60.248-1.944-76.208-1.168-25.072-9.832-55.008-9.832-55.008a45.08,45.08,0,0,1,5.744,1.8C154.508,262.934,170.6,272.438,166.956,312.726Z" transform="translate(-141.876 -257.526)" fill="#1f363d"/>
                  <path id="Trazado_105088" data-name="Trazado 105088" d="M150.882,261.24l-9.112-4s2.52,10.224,6.176,25.648c3.112,13.128,4.664,44.52,4.664,44.52l5.64-38.488-7.848-7.872,7.2-.64Z" transform="translate(-141.77 -257.24)" fill="#334f57"/>
                </g>
                <g id="Grupo_54709" data-name="Grupo 54709" transform="translate(13.208 75.056)">
                  <path id="Trazado_105089" data-name="Trazado 105089" d="M161.7,352.764a1.712,1.712,0,1,1-1.7-1.7A1.712,1.712,0,0,1,161.7,352.764Z" transform="translate(-158.28 -351.06)" fill="#334f57"/>
                  <path id="Trazado_105090" data-name="Trazado 105090" d="M163.644,377.572a1.7,1.7,0,1,1-.5-1.21,1.712,1.712,0,0,1,.5,1.21Z" transform="translate(-158.668 -356.02)" fill="#334f57"/>
                </g>
              </g>
              <path id="Trazado_105091" data-name="Trazado 105091" d="M94.127,269.146a5.6,5.6,0,0,0-5.6-2.008c-12.7,6.16-31.624,42.4-26.4,66.4,1.96,8.968,14.808,3.944,15.424-2.248.84-8.408,1.96-19.064,11.2-36.176,3.032-5.6,7.648-16.368,7.56-20.128a9.4,9.4,0,0,0-2.184-5.84Z" transform="translate(-61.237 -161.012)" fill="#273e44"/>
              <g id="Grupo_54711" data-name="Grupo 54711" transform="translate(31.01 98.022)" opacity="0.22">
                <path id="Trazado_105092" data-name="Trazado 105092" d="M100,262.024l8.8-4.984a146.647,146.647,0,0,1,10.4,34.528c2.848,17.648,4.088,37.328,4.088,37.328L106.96,292.544l5.6-9.1h-8.48Z" transform="translate(-100 -257.04)" fill="#1f363d"/>
              </g>
              <path id="Trazado_105093" data-name="Trazado 105093" d="M100.76,261.2l9.2-5.36a146.649,146.649,0,0,1,10.4,34.528c2.848,17.648,4.088,37.328,4.088,37.328l-16.3-36.352,5.6-9.1h-8.48Z" transform="translate(-69.142 -158.778)" fill="#334f57"/>
              <g id="Grupo_54712" data-name="Grupo 54712" transform="translate(19.594 107.326)" opacity="0.25">
                <path id="Trazado_105094" data-name="Trazado 105094" d="M161.082,268.71l-24.424-.04a3.936,3.936,0,0,0-3.936,3.92l-8.976,41.4a16.735,16.735,0,0,1-2.888,1.16,8.536,8.536,0,0,1,.544-2.464c.456-1.216.9-1.88,1.96-4.912,1.288-3.616-1.6-3.2-1.6-3.2a15.064,15.064,0,0,1-4.448,7.32c-2.928,2.816-3.448,6.832-3.528,8.576l-1.344.8-.312-.752s-9.744,3.1-26.4,5.048l1.9,17.544c20-2.808,28.12-13.6,28.12-13.6l-.52-1.272c2.336-.56,6.976-1.768,12.7-3.7a15.562,15.562,0,0,0,2.872-1.336c.112-.072.264-.16.448-.288a17.169,17.169,0,0,0,1.44-1.056H151.2a3.92,3.92,0,0,0,3.928-3.92l9.832-45.32A3.92,3.92,0,0,0,161.082,268.71Z" transform="translate(-85.73 -268.67)" fill="#00070a"/>
              </g>
              <g id="Grupo_54713" data-name="Grupo 54713" transform="translate(54.17 104.926)">
                <path id="Trazado_105095" data-name="Trazado 105095" d="M163.814,314.958a3.92,3.92,0,0,1-3.928,3.92l-27.024-.04a3.912,3.912,0,0,1-3.912-3.928l9.824-45.32a3.928,3.928,0,0,1,3.928-3.92l27.024.04a3.92,3.92,0,0,1,3.92,3.928Z" transform="translate(-128.95 -265.67)" fill="#c4c9cc"/>
                <path id="Trazado_105096" data-name="Trazado 105096" d="M164.462,314.958l9.832-45.32a3.92,3.92,0,0,0-3.92-3.928l-24.424-.04a3.936,3.936,0,0,0-3.936,3.92l-9.824,45.328a3.92,3.92,0,0,0,3.912,3.928h24.432A3.92,3.92,0,0,0,164.462,314.958Z" transform="translate(-129.598 -265.67)" fill="#e6e6e6"/>
              </g>
              <path id="Trazado_105097" data-name="Trazado 105097" d="M143.938,318.2c-.464-.6-1.192-.1-1.192-.1s1.648-2.84.44-3.368a1.5,1.5,0,0,0-1.6.152s.688-1.912-.752-2.336c-1.288-.384-2.12,1.28-2.12,1.28s0-1.36-1.128-1.432c-.7-.048-1.424.88-2.568,2.56a15.4,15.4,0,0,1-8.544,6.168,8.536,8.536,0,0,1,.544-2.464c.456-1.216.9-1.88,1.96-4.912,1.288-3.616-1.6-3.2-1.6-3.2a15.064,15.064,0,0,1-4.448,7.32c-2.928,2.816-3.448,6.832-3.528,8.576-2.152,1.248-4,2.4-4,2.4l-1.512,9.016,5.376-3.28a138.8,138.8,0,0,0,14.336-4.072,15.557,15.557,0,0,0,2.872-1.336c.112-.072.264-.16.448-.288a19.487,19.487,0,0,0,5.6-5.7,3.024,3.024,0,0,0,.448-1.032C144.3,319.778,144.458,318.906,143.938,318.2Z" transform="translate(-71.768 -169.716)" fill="#fcc49a"/>
              <path id="Trazado_105098" data-name="Trazado 105098" d="M107.428,330.5s-13.176,4.2-35.048,5.888c-10.864.8-10.872,4.528-9.776,9.7s5.448,8.24,14.824,7.688c23.832-1.4,33.648-14.3,33.648-14.3Z" transform="translate(-61.418 -173.71)" fill="#273e44"/>
            </g>
          </g>
        </g>
      </g>
    </g>
  </g>
</svg>
