<svg xmlns="http://www.w3.org/2000/svg" xmlns:xlink="http://www.w3.org/1999/xlink" width="300" height="300" viewBox="0 0 300 300">
  <defs>
    <clipPath id="clip-path">
      <circle id="Elipse_4211" data-name="Elipse 4211" cx="127.572" cy="127.572" r="127.572" fill="none"/>
    </clipPath>
  </defs>
  <g id="Grupo_55750" data-name="Grupo 55750" transform="translate(-445 -3389)">
    <g id="CF1_1864_reunion_trabajadores" data-name="CF1_1864 reunion trabajadores" transform="translate(445 3388.98)">
      <g id="Layer_1" data-name="Layer 1" transform="translate(0 0.02)">
        <g id="Grupo_55683" data-name="Grupo 55683">
          <rect id="Rect치ngulo_5976" data-name="Rect치ngulo 5976" width="300" height="300" fill="none"/>
          <circle id="Elipse_4206" data-name="Elipse 4206" cx="127.572" cy="127.572" r="127.572" transform="translate(29.34 28.548)" fill="#eceee1"/>
          <path id="Trazado_107633" data-name="Trazado 107633" d="M176.436,47.12A126.96,126.96,0,0,0,49.38,174.17a4.542,4.542,0,0,0,9.084,0A117.87,117.87,0,0,1,176.436,56.2a4.542,4.542,0,1,0,0-9.084Z" transform="translate(-19.752 -18.86)" fill="#b1b2a8"/>
          <g id="Grupo_55661" data-name="Grupo 55661" transform="translate(13.009 12.05)">
            <path id="Trazado_107634" data-name="Trazado 107634" d="M53.025,418.659A123.119,123.119,0,0,1,44.331,408.6c-2.58-3.342-5.016-6.87-7.746-11.07a8.1,8.1,0,1,0-13.6,8.8c2.88,4.446,5.586,8.4,8.52,12.186a139.27,139.27,0,0,0,9.822,11.358,8.1,8.1,0,1,0,11.7-11.2Z" transform="translate(-21.682 -169.595)" fill="#d5d9ba"/>
            <path id="Trazado_107635" data-name="Trazado 107635" d="M98.049,475.4c-2.358-1.8,2.256,1.926,0,0" transform="translate(-51.952 -202.02)" fill="#996771"/>
            <path id="Trazado_107636" data-name="Trazado 107636" d="M84.09,471.452a7.532,7.532,0,0,0,.36,1.134,7.726,7.726,0,0,0,.6,1.2c.162.258.288.438.39.6.21.282.348.438.456.564.2.234.318.342.408.432s.246.234.318.3l.3.264.438.36.672.54.372.282c.084.06.168.126.366.258l.2.132c.132.078.282.18.642.366a7.761,7.761,0,0,0,.876.384,8.019,8.019,0,0,0,.93.282,8.822,8.822,0,0,0,.972.168h.93a7.516,7.516,0,0,0,1.1-.078,7.951,7.951,0,0,0,1.41-.324,8.526,8.526,0,0,0,1.488-.66,8.142,8.142,0,0,0,3.42-3.822,7.879,7.879,0,0,0,.6-2.01,7.715,7.715,0,0,0,.09-1.2,8.166,8.166,0,0,0-.852-3.6,7.742,7.742,0,0,0-.6-1.05c-.144-.21-.258-.348-.348-.462-.174-.21-.276-.324-.366-.42s-.246-.246-.318-.318-.2-.192-.276-.258l-.318-.282-.384-.33c-.054-.048-.114-.084-.174-.132l-.156-.132h0c-.27-.2-.462-.354-.654-.492s-.192-.144-.378-.264c-.1-.066-.2-.144-.474-.3-.144-.084-.318-.186-.7-.372a8.263,8.263,0,0,0-.9-.348c-.12-.042-.252-.078-.408-.12h-.276l-.144-.03h-.426a7.116,7.116,0,0,0-.738-.084h-.786a8.427,8.427,0,0,0-1.26.138,7.9,7.9,0,0,0-1.428.4,8.028,8.028,0,0,0-4.152,3.6,7.841,7.841,0,0,0-.888,2.442,7.572,7.572,0,0,0-.144,1.512,7.872,7.872,0,0,0,.21,1.728ZM92.556,478.712ZM94.038,461.744ZM93.96,461.744ZM93.618,461.666Z" transform="translate(-46.561 -196.714)" fill="#bd9aa0"/>
            <path id="Trazado_107637" data-name="Trazado 107637" d="M408.39,31.56a163.386,163.386,0,0,1,43.566,40.68" transform="translate(-176.365 -24.686)" fill="#590212"/>
            <path id="Trazado_107638" data-name="Trazado 107638" d="M400.083,32.791a156.6,156.6,0,0,1,41.718,39,6.9,6.9,0,1,0,11.1-8.2,170.453,170.453,0,0,0-45.4-42.4,6.9,6.9,0,1,0-7.422,11.634Z" transform="translate(-171.767 -20.104)" fill="#deccd0"/>
            <path id="Trazado_107639" data-name="Trazado 107639" d="M458.2,409.023c-1.638,2.142,1.746-2.046,0,0" transform="translate(-196.105 -175.439)" fill="#996771"/>
            <path id="Trazado_107640" data-name="Trazado 107640" d="M452.97,413.034a10.2,10.2,0,0,0,1.566-.51,10.892,10.892,0,0,0,1.626-.822c.354-.222.6-.39.792-.534.378-.282.6-.468.75-.6.312-.282.456-.426.6-.546.216-.216.306-.318.39-.408l.3-.348.372-.45.534-.666c.09-.12.18-.228.318-.42l.132-.174c.036-.06.084-.12.138-.21s.1-.138.168-.246l.186-.3c.054-.09.126-.2.2-.354a11.262,11.262,0,0,0,.54-1.1,11.566,11.566,0,0,0,.444-1.29,10.646,10.646,0,0,0,.258-1.146,11.163,11.163,0,0,0-4.41-10.83,11.616,11.616,0,0,0-1.884-1.11,11.111,11.111,0,0,0-8.916-.18,10.335,10.335,0,0,0-1.2.6,10.058,10.058,0,0,0-1.146.738c-.24.174-.4.306-.54.42-.252.21-.4.348-.516.456l-.408.4c-.15.156-.228.246-.306.336l-.3.342c-.1.108-.2.228-.318.366s-.12.162-.186.24-.126.144-.186.222h0l-.5.66-.132.186-.132.186c-.036.054-.084.12-.138.21s-.1.144-.162.252-.108.174-.18.3-.12.21-.2.36a11.412,11.412,0,0,0-.5,1.1,10.967,10.967,0,0,0-.792,4.11,11,11,0,0,0,.294,2.538,11.023,11.023,0,0,0,7.8,8.142,10.62,10.62,0,0,0,2.4.4h.6a11.072,11.072,0,0,0,2.646-.324Z" transform="translate(-188.701 -168.038)" fill="#eef0e3"/>
            <path id="Trazado_107641" data-name="Trazado 107641" d="M55.27,101.736A148.471,148.471,0,0,1,92.206,62.19" transform="translate(-35.117 -36.938)" fill="#590212"/>
            <path id="Trazado_107642" data-name="Trazado 107642" d="M56.171,101.068a143.28,143.28,0,0,1,35.664-38.2,5.1,5.1,0,1,0-6.061-8.2A153.546,153.546,0,0,0,47.567,95.584a5.1,5.1,0,0,0,8.6,5.484Z" transform="translate(-31.716 -33.528)" fill="#f1cdcd"/>
          </g>
          <path id="Trazado_107643" data-name="Trazado 107643" d="M183.694,32.444a140.189,140.189,0,0,0-15.216-.834,137.71,137.71,0,0,0-14.91,274.6,5.88,5.88,0,1,0,1.284-11.689,125.957,125.957,0,1,1,27.52-250.405,5.88,5.88,0,0,0,1.322-11.668Z" transform="translate(-12.364 -12.656)" fill="#e6e8d6"/>
          <g id="Grupo_55682" data-name="Grupo 55682" transform="translate(29.34 28.548)" clip-path="url(#clip-path)">
            <g id="Grupo_55669" data-name="Grupo 55669" transform="translate(45.852 44.776)">
              <ellipse id="Elipse_4207" data-name="Elipse 4207" cx="41.838" cy="1.38" rx="41.838" ry="1.38" transform="translate(0 207.608)" fill="#914c3a"/>
              <g id="Grupo_55668" data-name="Grupo 55668" transform="translate(14.72)">
                <path id="Trazado_107644" data-name="Trazado 107644" d="M211.976,192.616c0-1.8-1.014-3.216-2.268-3.216s-2.268,1.44-2.268,3.216,1.014,3.216,2.268,3.216S211.976,194.392,211.976,192.616Z" transform="translate(-172.888 -149.096)" fill="#b52318"/>
                <path id="Trazado_107645" data-name="Trazado 107645" d="M174.45,163.653c-7.926-8.85-14.808-17.886-12.3-22.974s6.63-3.372,6.63-3.372-2.664-8.826,4.308-13.488,10.17,2.4,10.17,2.4,7.626-5.28,10.8-2.178,1.1,7.9,1.1,7.9,2.142.2,2.244,3.252-3.27,2.58-3.27,2.58,3.144,1.5,1.386,4.2-5.25,1.062-5.25,1.062S180.45,170.355,174.45,163.653Z" transform="translate(-154.563 -122.227)" fill="#ce3929"/>
                <g id="Grupo_55662" data-name="Grupo 55662" transform="translate(7.051 2.636)">
                  <path id="Trazado_107646" data-name="Trazado 107646" d="M215.56,151.45a2.616,2.616,0,0,1-.45,2.184,3.792,3.792,0,0,1-4.41,1.35,19.008,19.008,0,0,0,4.86-3.534Z" transform="translate(-181.244 -136.552)" fill="#b52318"/>
                  <path id="Trazado_107647" data-name="Trazado 107647" d="M162.13,142.448c2.514-5.094,6.63-3.372,6.63-3.372s-2.3-7.638,3-12.456c-2.4,6.282,5.28,10.578,9.81,9.846,4.944-.8,3.246,11.274,8.352,9.132-1.7,4.512-10.11,25.83-15.486,19.8C166.5,156.56,159.622,147.524,162.13,142.448Z" transform="translate(-161.606 -126.62)" fill="#b52318"/>
                </g>
                <path id="Trazado_107648" data-name="Trazado 107648" d="M241.806,255.836c-1.062-4.122-5.616-31.668-9.8-36s-6.756,22.482-6,28.956,1.95,13.416,7.86,15.414C236.274,265,242.5,258.524,241.806,255.836Z" transform="translate(-180.261 -161.082)" fill="#49363a"/>
                <path id="Trazado_107649" data-name="Trazado 107649" d="M231.5,245.853c.384,12.1,3,21.78,6,21.78,1.452,0,3-1.656,3.648-5.328.3,1.524.54,2.676.7,3.3.69,2.688-5.532,9.162-7.926,8.352-5.91-2-7.08-8.94-7.86-15.414C225.336,252.315,231.276,238.593,231.5,245.853Z" transform="translate(-180.315 -170.851)" fill="#3d2d31"/>
                <path id="Trazado_107650" data-name="Trazado 107650" d="M149.926,250.057c1.2-11.532,1.26-28.8,6.036-33.09s11.754,16.02,11.964,22.488-2.916,21-5.886,21.918S149.644,252.751,149.926,250.057Z" transform="translate(-149.88 -159.887)" fill="#49363a"/>
                <path id="Trazado_107651" data-name="Trazado 107651" d="M149.922,251.546c.156-1.482.288-3.06.42-4.686.258,4.074.45,5.106,1.7,5.364,2.4.51,3.942-7.65,5.484-18.846.762-5.508,3.258-9.462,3-13.278,3.732,4.842,7.248,16.278,7.4,20.844.216,6.468-3.96,22.578-7.146,22.4C154.194,262.994,149.64,254.24,149.922,251.546Z" transform="translate(-149.876 -161.376)" fill="#3d2d31"/>
                <path id="Trazado_107652" data-name="Trazado 107652" d="M166.822,291.181a49.673,49.673,0,0,1,36.276,1.944c3.462,23.85.48,73.974-2.166,103.908h-.7c-1.1-26.766-11.61-79.584-11.61-79.584l-4.1,1.674-22.524,77.91h-.7C163.516,370.993,166.822,291.181,166.822,291.181Z" transform="translate(-154.428 -188.813)" fill="#6b5559"/>
                <g id="Grupo_55663" data-name="Grupo 55663" transform="translate(6.862 99.879)">
                  <path id="Trazado_107653" data-name="Trazado 107653" d="M193.012,301.117l-9.552.234-15,18.5c.75-16.446,1.254-28.668,1.254-28.668a49.673,49.673,0,0,1,36.276,1.944,215.913,215.913,0,0,1,1.56,28.38Z" transform="translate(-164.158 -288.691)" fill="#594348"/>
                  <path id="Trazado_107654" data-name="Trazado 107654" d="M178.264,334.35a28.452,28.452,0,0,0,15.318-1.41l-1.8,2.4s7.47,63.534,9.2,78.99a1.428,1.428,0,0,1-.042.42h-.7c-1.1-26.766-12.192-78.6-12.192-78.6l-3,1.428-23.052,77.154h-.7v-.174l21.168-77.9Z" transform="translate(-161.29 -306.391)" fill="#594348"/>
                </g>
                <path id="Trazado_107655" data-name="Trazado 107655" d="M205.154,271.51l1.8,14.478s-21.648,1.944-37.32-.882l-.054-11.478L189.032,259Z" transform="translate(-157.744 -176.936)" fill="#ede3c3"/>
                <path id="Trazado_107656" data-name="Trazado 107656" d="M202.76,300.522l-5.61-.15,3.03-4.992Z" transform="translate(-168.772 -191.488)" fill="#f9f5e5"/>
                <path id="Trazado_107657" data-name="Trazado 107657" d="M206.735,284.923c-8.778-6.378-21.2-29.2-21.2-29.2s-9.906,16.248-21.492,26.6c0,0,1.44-38.958.762-44.256s-4.992-25.662-4.386-26.958,14.532-9.534,21.6-9.06,21.96,8,23.34,10.242-1.692,33.072-1.482,35.544S208.517,286.213,206.735,284.923Z" transform="translate(-154.058 -154.151)" fill="#49363a"/>
                <path id="Trazado_107658" data-name="Trazado 107658" d="M165.025,252.734c-.252-1.968-1.608-10.932-1.254-14.034,4.02,10.968,32.238,20.016,36.756,18.492,4.416-1.488,4.758-6.99,6.126-14.9.03,9.87-1.566,18.324-1.4,20.214.066.816.6,5.292,1.2,10.86-5.538-.642-12.42-.708-13.428.57-.5.636.108,4.272,1.038,8.478-4.14-6.42-7.2-12-7.2-12s-3.174,5.22-8.07,11.664c1.2-3.756,3.876-12.282,2.346-13.038-6.078-3-11.07,5.034-15.06,5.736A167.513,167.513,0,0,0,165.025,252.734Z" transform="translate(-155.397 -168.816)" fill="#38282c"/>
                <path id="Trazado_107659" data-name="Trazado 107659" d="M192.092,236.992,175.94,205.234c3.7-2.07,9-3.882,12.318-3.666a34.838,34.838,0,0,1,11.826,3.7Z" transform="translate(-160.288 -153.956)" fill="#f9f5e5"/>
                <path id="Trazado_107660" data-name="Trazado 107660" d="M195.73,207.73l1.716.174,4.05,26.13-1.476,5.532-3.408-6.774Z" transform="translate(-168.204 -156.428)" fill="#e5d8b1"/>
                <path id="Trazado_107661" data-name="Trazado 107661" d="M196.652,213.878l1.518-3.354-1.122-1.632-1.938-.132-.72,1.632Z" transform="translate(-167.668 -156.84)" fill="#e5d8b1"/>
                <path id="Trazado_107662" data-name="Trazado 107662" d="M201.08,210.71l-3.45-3.6a12.036,12.036,0,0,0,7.8-2.13l.894.534S205.25,208.19,201.08,210.71Z" transform="translate(-168.964 -155.328)" fill="#e5d8b1"/>
                <path id="Trazado_107663" data-name="Trazado 107663" d="M187.614,210.82l3.408-3.78c-3.726-.258-6.528-.768-9.6-2.67l-1.542.822S181.926,207.82,187.614,210.82Z" transform="translate(-161.864 -155.084)" fill="#e5d8b1"/>
                <path id="Trazado_107664" data-name="Trazado 107664" d="M196.65,206.86h.81l3.828,28.644-.888,3.8-2.67-5.382Z" transform="translate(-168.572 -156.08)" fill="#b25473"/>
                <path id="Trazado_107665" data-name="Trazado 107665" d="M198.94,194.634l-.93-9.714-15.48-6,.042,15.42a30.676,30.676,0,0,0,8.67,2.058A19.864,19.864,0,0,0,198.94,194.634Z" transform="translate(-162.924 -144.904)" fill="#ffb882"/>
                <path id="Trazado_107666" data-name="Trazado 107666" d="M225.422,468.109h11.04s-8.652-3.708-10.2-4.062S225.422,468.109,225.422,468.109Z" transform="translate(-180.017 -258.947)" fill="#f4eab5"/>
                <path id="Trazado_107667" data-name="Trazado 107667" d="M159.994,468.109H150.7s5.166-3.708,6.42-4.062S159.994,468.109,159.994,468.109Z" transform="translate(-150.192 -258.947)" fill="#f4eab5"/>
                <g id="Grupo_55664" data-name="Grupo 55664" transform="translate(10.462 74.676)">
                  <path id="Trazado_107668" data-name="Trazado 107668" d="M186.528,260l-1.608,10.08a21.591,21.591,0,0,1,7.278,1.926l2.97-6.678S189.114,263.12,186.528,260Z" transform="translate(-174.343 -252.012)" fill="#ff9566"/>
                  <path id="Trazado_107669" data-name="Trazado 107669" d="M182.577,257.494c-.522-.69-.462-1.908-1.86-3.2-4.2-3.882-5.5-7.506-6.27-7.6-1.116-.132-2.322.678-2.358,1.29s4.44,5.694,3.63,5.958c-1.338.444-4.254-1.134-4.884-.876-1.38.57.2,7.2.864,8.922s5.64,3.858,9.324,2.952C182.367,264.616,182.577,257.494,182.577,257.494Z" transform="translate(-168.49 -246.686)" fill="#ff9566"/>
                  <path id="Trazado_107670" data-name="Trazado 107670" d="M172.317,263.62c.2,1.626.318,3.51,4.344,5.538-2.544-.516-5.214-1.728-5.64-2.868-.66-1.74-2.238-8.466-.864-9.03.066,0,4.17,1.578,4.272,1.584C173.445,260.818,172.017,261.16,172.317,263.62Z" transform="translate(-168.219 -250.916)" fill="#ff9566"/>
                  <path id="Trazado_107671" data-name="Trazado 107671" d="M174.8,253.756a4.05,4.05,0,0,0,2.124.192c.81-.264-3.666-5.346-3.63-5.958s1.242-1.422,2.358-1.29c.768.09,2.052,3.714,6.27,7.6,2.3,2.118,2.214,4.68,1.944,6.858a4.986,4.986,0,0,1-5.064-.894C177.316,258.958,175.708,255.2,174.8,253.756Z" transform="translate(-169.69 -246.686)" fill="#ff9566"/>
                  <path id="Trazado_107672" data-name="Trazado 107672" d="M173.149,257.012a32.948,32.948,0,0,0-4.968-.828c-.678.084-1.044,2.268-.03,2.844a18.145,18.145,0,0,0,5.67,1.242C174.157,260.138,174.349,257.27,173.149,257.012Z" transform="translate(-167.384 -250.482)" fill="#ff9566"/>
                  <path id="Trazado_107673" data-name="Trazado 107673" d="M172.906,263.062a33.03,33.03,0,0,0-4.962-.828c-.672.084-1.05,2.274,0,2.85a18.245,18.245,0,0,0,5.67,1.236C173.956,266.188,174.106,263.29,172.906,263.062Z" transform="translate(-167.291 -252.902)" fill="#ff9566"/>
                  <path id="Trazado_107674" data-name="Trazado 107674" d="M174.168,269.485a44.987,44.987,0,0,0-4.578-.846c-.858.054-.942,2.016,0,2.652s5.4,1.2,5.694,1.1S175.284,269.677,174.168,269.485Z" transform="translate(-167.94 -255.467)" fill="#ff9566"/>
                </g>
                <path id="Trazado_107675" data-name="Trazado 107675" d="M192.106,262.71l4.11,1.062-2.076,11.01-4.11-1.056Z" transform="translate(-165.924 -178.42)" fill="#ede3c3"/>
                <path id="Trazado_107676" data-name="Trazado 107676" d="M219.72,280.174c-9.6-.732-27.69-5.634-27.69-5.634l2.46-12.6s22.422,2.544,25.7,4.458S226.758,280.714,219.72,280.174Z" transform="translate(-166.724 -178.112)" fill="#49363a"/>
                <g id="Grupo_55665" data-name="Grupo 55665" transform="translate(25.288 83.612)">
                  <path id="Trazado_107677" data-name="Trazado 107677" d="M208.8,263.746c-1.638-.384-10.416-1.9-11.958-2.166,6.828.912,22.932,3.276,24.948,4.458C218.026,266.1,215.218,265.234,208.8,263.746Z" transform="translate(-193.936 -261.58)" fill="#3d2d31"/>
                  <path id="Trazado_107678" data-name="Trazado 107678" d="M205.332,278.316c8.052,1.872,15.174,2.4,18.678,1.542.42,3.516-.432,6.7-3.924,6.432-9.576-.726-28.086-6.762-28.086-6.762l1-5.118a75.163,75.163,0,0,0,12.33,3.906Z" transform="translate(-192 -266.712)" fill="#3d2d31"/>
                </g>
                <path id="Trazado_107679" data-name="Trazado 107679" d="M205.972,307.3l-.606,14.358-1.356.234-1.14-15.24Z" transform="translate(-171.06 -195.996)" fill="#594348"/>
                <path id="Trazado_107680" data-name="Trazado 107680" d="M196.92,308.32h4.788l.336,4.056h-4.788Z" transform="translate(-168.68 -196.664)" fill="#594348"/>
                <path id="Trazado_107681" data-name="Trazado 107681" d="M199.46,307.908l3.972-.138.1,2.46-3.972.138Z" transform="translate(-169.696 -196.444)" fill="#c6a3ac"/>
                <path id="Trazado_107682" data-name="Trazado 107682" d="M197,274.068a1.278,1.278,0,0,1,1.3-1.4,1.566,1.566,0,0,1,1.536,1.4,1.278,1.278,0,0,1-1.3,1.4,1.554,1.554,0,0,1-1.536-1.4Z" transform="translate(-168.709 -182.404)" fill="#3d2d31"/>
                <path id="Trazado_107683" data-name="Trazado 107683" d="M197.608,273.712a.834.834,0,0,1,.834-.912,1.02,1.02,0,0,1,1,.912.834.834,0,0,1-.852.912A1.02,1.02,0,0,1,197.608,273.712Z" transform="translate(-168.954 -182.456)" fill="#cebe91"/>
                <path id="Trazado_107684" data-name="Trazado 107684" d="M203.815,276.416A1.278,1.278,0,0,1,205.123,275a1.56,1.56,0,0,1,1.536,1.4,1.284,1.284,0,0,1-1.308,1.4A1.566,1.566,0,0,1,203.815,276.416Z" transform="translate(-171.435 -183.336)" fill="#3d2d31"/>
                <path id="Trazado_107685" data-name="Trazado 107685" d="M205,275.868a.84.84,0,0,1,.852-.918,1.026,1.026,0,0,1,1,.918.84.84,0,0,1-.852.912A1.026,1.026,0,0,1,205,275.868Z" transform="translate(-171.91 -183.316)" fill="#cebe91"/>
                <path id="Trazado_107686" data-name="Trazado 107686" d="M196.462,211.524l1.518-3.354-1.122-1.638-1.944-.132-.714,1.638Z" transform="translate(-167.592 -155.896)" fill="#b25473"/>
                <path id="Trazado_107687" data-name="Trazado 107687" d="M201,209.26l-3.654-4.068c3.33-.1,5.334-.48,7.638-2.022l1.128,1.146S205.222,206.524,201,209.26Z" transform="translate(-168.852 -154.604)" fill="#f9f5e5"/>
                <path id="Trazado_107688" data-name="Trazado 107688" d="M187.6,208.91l3.534-4.134c-3.726-.276-6.366-.732-9.564-2.586l-1.122,1.686S181.92,205.892,187.6,208.91Z" transform="translate(-162.092 -154.212)" fill="#f9f5e5"/>
                <path id="Trazado_107689" data-name="Trazado 107689" d="M188.072,210.96c-6.972,0-15.918-4.272-19.542-12.414.654-.33,3.78-1.974,4.47-2.3v-.054a24.1,24.1,0,0,1,2.43-1.2l.408-.216a2.079,2.079,0,0,1-.132-.162l1.122-1.7.162.09-.036-14.052,15.48,6,.834,8.682.216-.132,1.128,1.146a2.684,2.684,0,0,1-.168.324l.246.15h0c.822.348,1.644.714,2.454,1.116l-.036.138c1.866.8,3.678,1.674,5.3,2.526C199.85,206.124,194.564,210.96,188.072,210.96Z" transform="translate(-157.324 -144.916)" fill="#843131" opacity="0.6"/>
                <path id="Trazado_107690" data-name="Trazado 107690" d="M201.015,146.793c1.716,3.744-.3,30.792-.978,31.764,0,0-10.356.132-16.386-5.094-1.344-1.158-1.614-22.956.774-27.444S198.531,141.375,201.015,146.793Z" transform="translate(-162.965 -130.411)" fill="#ffb882"/>
                <path id="Trazado_107691" data-name="Trazado 107691" d="M186.293,167.66c-.474,9.36.282,14.184,2.838,14.844s3.246,4.566-.822,3.81-5.4-1.836-6.084-4.764c-1.008-4.476-.186-10.584-.186-10.584Z" transform="translate(-162.602 -140.4)" fill="#b52318"/>
                <path id="Trazado_107692" data-name="Trazado 107692" d="M184.818,142.506c3.6,5.568.864,21.8.522,22.59s-3.5-.246-3.6-1.746S181.4,137.226,184.818,142.506Z" transform="translate(-162.59 -130.042)" fill="#b52318"/>
                <path id="Trazado_107693" data-name="Trazado 107693" d="M181.165,176.4c-2.082-1.686-4.89-5.49-3.99-7.62,1.056-2.484,3.288-.942,4.248,2.2A10.2,10.2,0,0,1,181.165,176.4Z" transform="translate(-160.713 -140.354)" fill="#ffb882"/>
                <path id="Trazado_107694" data-name="Trazado 107694" d="M181.007,175.419c-1.32-1.068-3.09-3.474-2.52-4.8.666-1.572,2.076-.6,2.682,1.392A6.444,6.444,0,0,1,181.007,175.419Z" transform="translate(-161.263 -141.271)" fill="#ea7b59"/>
                <path id="Trazado_107695" data-name="Trazado 107695" d="M181.705,176.78c-.912-.738-2.142-2.4-1.746-3.342.462-1.092,1.44-.414,1.86.96A4.428,4.428,0,0,1,181.705,176.78Z" transform="translate(-161.865 -142.495)" fill="#ffb882"/>
                <path id="Trazado_107696" data-name="Trazado 107696" d="M194.54,184.321a12.468,12.468,0,0,0,5.46-.708l3.6,2.628s-1.05-4.086-3.042-4.632S194.54,184.321,194.54,184.321Z" transform="translate(-167.728 -145.955)" fill="#b52318"/>
                <g id="Grupo_55666" data-name="Grupo 55666" transform="translate(25.086 18.997)">
                  <path id="Trazado_107697" data-name="Trazado 107697" d="M209.755,166.323c-.1-1.116-.6-2.088-1.14-2.166s-.894.768-.8,1.89.6,2.118,1.14,2.2S209.851,167.457,209.755,166.323Z" transform="translate(-198.117 -157.994)" fill="#4f3131"/>
                  <path id="Trazado_107698" data-name="Trazado 107698" d="M203.754,163.478c.666-.492,3.9,9.6,3.672,11.232-.114.846-4.626-1.038-4.626-1.038S203.634,163.562,203.754,163.478Z" transform="translate(-196.118 -157.718)" fill="#ffb882"/>
                  <path id="Trazado_107699" data-name="Trazado 107699" d="M204.228,163.84c.816,1.656,3.348,9.39,3.144,10.734-.1.63-3-.4-4.062-.834a2.457,2.457,0,0,1-.03.42s4.974,2.4,5.064,1.512C208.512,174.04,204.942,164.05,204.228,163.84Z" transform="translate(-196.31 -157.869)" fill="#ea7b59"/>
                  <path id="Trazado_107700" data-name="Trazado 107700" d="M199.051,164.59c-.078-1.134-.6-2.1-1.116-2.184s-.936.768-.87,1.9.564,2.13,1.122,2.214S199.123,165.724,199.051,164.59Z" transform="translate(-193.821 -157.294)" fill="#4f3131"/>
                  <path id="Trazado_107701" data-name="Trazado 107701" d="M197.745,156.434c-.492,1.26-4.8,1.056-5.4.36s-1.032-1.4-.288-1.8,4.254-1.488,5-.966A2.4,2.4,0,0,1,197.745,156.434Z" transform="translate(-191.663 -153.889)" fill="#ce3929"/>
                  <path id="Trazado_107702" data-name="Trazado 107702" d="M206.977,157.254c.222,1.236,4.4,2.4,4.884,1.8s.828-1.2.36-1.68-3.966-2.742-4.548-2.328A2.6,2.6,0,0,0,206.977,157.254Z" transform="translate(-197.775 -154.332)" fill="#ce3929"/>
                  <path id="Trazado_107703" data-name="Trazado 107703" d="M200.668,188.983c.042-.684.39-1.2.792-1.146s.69.654.654,1.344-.39,1.2-.786,1.14S200.632,189.667,200.668,188.983Z" transform="translate(-195.264 -167.467)" fill="#4f3131"/>
                </g>
                <g id="Grupo_55667" data-name="Grupo 55667" transform="translate(16.228 49.979)">
                  <path id="Trazado_107704" data-name="Trazado 107704" d="M180.338,226.38l8.4,7.476a17.685,17.685,0,0,0-4.7,5.214l-7.134-4.026S180.356,230.22,180.338,226.38Z" transform="translate(-176.9 -213.867)" fill="#ffb882"/>
                  <path id="Trazado_107705" data-name="Trazado 107705" d="M182.646,222.852c-.048-.828-.948-1.8-.684-3.552.8-5.292-.66-8.91-.084-9.366a2.575,2.575,0,0,1,2.85-.114c.45.486.288,6.882,1.146,6.7,1.422-.306,2.742-3.06,3.444-3.162,1.542-.222,4.836,6,5.5,7.752s-2,6-5.682,7.08C187.782,228.594,182.646,222.852,182.646,222.852Z" transform="translate(-178.836 -207.093)" fill="#ffb882"/>
                  <path id="Trazado_107706" data-name="Trazado 107706" d="M195.892,221.876c.966,1.428,2.184,3.036.258,6.708,1.752-1.686,3.12-4.02,2.682-5.166-.666-1.758-4.038-8.07-5.58-7.842-.066,0-2.358,3.372-2.442,3.432C193,220.142,194.428,219.7,195.892,221.876Z" transform="translate(-182.464 -209.543)" fill="#ffb882"/>
                  <path id="Trazado_107707" data-name="Trazado 107707" d="M187.494,215.292a3.5,3.5,0,0,1-1.626,1.2c-.858.18-.684-6.216-1.146-6.7a2.576,2.576,0,0,0-2.85.114c-.6.456.882,4.074.084,9.366-.432,2.886,1.428,4.944,3.168,6.6a4.2,4.2,0,0,0,3.6-3.264C189.042,220.806,187.746,216.93,187.494,215.292Z" transform="translate(-178.83 -207.081)" fill="#ffb882"/>
                  <path id="Trazado_107708" data-name="Trazado 107708" d="M194.1,221.737a26.5,26.5,0,0,1,3.546-3.156c.618-.264,2.448,1.338,2.01,2.322a14.716,14.716,0,0,1-3.846,3.846C195.441,224.809,193.263,222.523,194.1,221.737Z" transform="translate(-183.705 -210.736)" fill="#ffb882"/>
                  <path id="Trazado_107709" data-name="Trazado 107709" d="M197.709,227.6a40.4,40.4,0,0,1,3.216-3c.75-.384,2.184,1.2,1.83,2.184s-3.6,3.7-3.966,3.744S196.917,228.321,197.709,227.6Z" transform="translate(-185.133 -213.132)" fill="#ffb882"/>
                  <path id="Trazado_107710" data-name="Trazado 107710" d="M190.951,214.09c.774-1.3,2.562-3.522,3-4.23.33-.564,1.524-4.08,1.968-4.242s2.154-.21,2.166.7a20.337,20.337,0,0,1-1.878,5.724c-.582.8-2.262,3.54-2.592,3.636S190.381,215.008,190.951,214.09Z" transform="translate(-182.491 -205.525)" fill="#ffb882"/>
                </g>
                <path id="Trazado_107711" data-name="Trazado 107711" d="M175.14,236.12l-1.95,3.5,10.344,6.03,1.944-3.5Z" transform="translate(-159.188 -167.784)" fill="#ede3c3"/>
                <path id="Trazado_107712" data-name="Trazado 107712" d="M161.564,267.9c6.054-7.074,14.478-23.016,14.478-23.016l-11.916-6.792S150.62,255.2,149.9,258.742,157.142,273.094,161.564,267.9Z" transform="translate(-149.854 -168.572)" fill="#49363a"/>
                <path id="Trazado_107713" data-name="Trazado 107713" d="M150,260.724c2.628,4.056,5.082,6.762,8.016,3.336,4.26-4.98,9.456-14.748,12.156-20.1l5.868,3.27s-7.944,16.758-14,23.832c-4.446,5.2-12.858-6.426-12.138-9.972C149.943,260.982,149.943,260.862,150,260.724Z" transform="translate(-149.855 -170.92)" fill="#3d2d31"/>
                <path id="Trazado_107714" data-name="Trazado 107714" d="M176.275,255.336a1.524,1.524,0,0,1-1.056-1.764,1.32,1.32,0,0,1,1.722-.894A1.524,1.524,0,0,1,178,254.442a1.32,1.32,0,0,1-1.722.894Z" transform="translate(-159.988 -174.376)" fill="#3d2d31"/>
                <path id="Trazado_107715" data-name="Trazado 107715" d="M175.977,255.068a1,1,0,0,1-.69-1.152.858.858,0,0,1,1.122-.6,1,1,0,0,1,.69,1.152.864.864,0,0,1-1.122.6Z" transform="translate(-160.019 -174.643)" fill="#cebe91"/>
                <path id="Trazado_107716" data-name="Trazado 107716" d="M180.135,249.816a1.512,1.512,0,0,1-1.056-1.758,1.314,1.314,0,0,1,1.716-.9,1.518,1.518,0,0,1,1.056,1.764,1.314,1.314,0,0,1-1.716.894Z" transform="translate(-161.531 -172.168)" fill="#3d2d31"/>
                <path id="Trazado_107717" data-name="Trazado 107717" d="M179.8,249.028a.99.99,0,0,1-.69-1.152.858.858,0,0,1,1.122-.6.984.984,0,0,1,.684,1.146.858.858,0,0,1-1.116.606Z" transform="translate(-161.546 -172.227)" fill="#cebe91"/>
              </g>
            </g>
            <g id="Grupo_55674" data-name="Grupo 55674" transform="translate(116.515 47.905)">
              <path id="Trazado_107718" data-name="Trazado 107718" d="M290.068,276.61l16.608,3.306-5.742,106.026h-.426S284.794,299.47,290.068,276.61Z" transform="translate(-261.449 -187.109)" fill="#ff9566"/>
              <path id="Trazado_107719" data-name="Trazado 107719" d="M297.556,276.61l16.632,3.306-5.742,106.026h-.426S292.264,299.47,297.556,276.61Z" transform="translate(-264.443 -187.109)" fill="#ff9566"/>
              <path id="Trazado_107720" data-name="Trazado 107720" d="M304.46,459.371h-8.07s5.97-3.336,7.2-2.568S304.46,459.371,304.46,459.371Z" transform="translate(-264.411 -259.14)" fill="#ede6c8"/>
              <path id="Trazado_107721" data-name="Trazado 107721" d="M316.026,459.25H310.59s2.088-3.528,3.318-2.754A7.416,7.416,0,0,1,316.026,459.25Z" transform="translate(-270.091 -259.019)" fill="#ede6c8"/>
              <path id="Trazado_107722" data-name="Trazado 107722" d="M274.365,196.566c5.934,6.948,22,14.436,39.486-1.638,0,0-6.06-18.558-3.15-26.766s7.026-27.27-3.048-34.986-19.86-7.578-19.986,0c0,0-18.288-5.556-12.348,21.2C279.831,174.666,274.365,196.566,274.365,196.566Z" transform="translate(-255.508 -127.441)" fill="#993f4c"/>
              <path id="Trazado_107723" data-name="Trazado 107723" d="M310.712,170.206c2.9-8.208,7.026-27.27-3.03-34.968a35.119,35.119,0,0,0-4.032-2.688c.924,5.334-12.708,4.53-14.808,4.53-4.164,0-11.454,10.992-14.682,9.822a43.417,43.417,0,0,0,1.2,9.54c4.494,20.268-.972,42.168-.972,42.168,5.934,6.948,22,14.436,39.486-1.638C313.862,196.972,307.8,178.42,310.712,170.206Z" transform="translate(-255.519 -129.485)" fill="#823040"/>
              <path id="Trazado_107724" data-name="Trazado 107724" d="M294.038,178.67c-9.2,0-14.688,22.968-14.688,39.138,0,.684,0,1.362.042,2.034,6.828,5.334,19.41,8.928,33.258-1.656v-.378C312.656,201.668,303.236,178.67,294.038,178.67Z" transform="translate(-257.595 -147.933)" fill="#6b2636"/>
              <path id="Trazado_107725" data-name="Trazado 107725" d="M282.506,210.7c-3.858,2.154-9.936,27.534-10.9,33.432l3.132.126s8.664-21,9.7-24.636S285.428,209.072,282.506,210.7Z" transform="translate(-254.499 -160.646)" fill="#ff9566"/>
              <path id="Trazado_107726" data-name="Trazado 107726" d="M282.924,207.365c-.048.036-.1.09-.156.138,1.284,1.932,1.614,6.54.852,9.3-1.056,3.8-9.6,24-10.53,26.184l2.4.6s9.5-22.374,10.62-26.4S286.044,205.2,282.924,207.365Z" transform="translate(-255.091 -159.264)" fill="#ff9566"/>
              <path id="Trazado_107727" data-name="Trazado 107727" d="M251.837,361.16c23.466,8.892,85.02-2.316,85.02-2.316s-19.2-86.832-42.408-102.456c-4.116-2.766-9.978-12.546-5.844-32.508l-19.842,3.5s11.742,16.95,4.674,29.4C265.848,270.152,251.567,305.474,251.837,361.16Z" transform="translate(-246.589 -166.017)" fill="#f7546f"/>
              <path id="Trazado_107728" data-name="Trazado 107728" d="M337.168,402.836c1-.1,1.956-.186,2.862-.282-3.888-37.014-17.16-77.964-17.16-77.964C327.562,341.636,334.948,382.07,337.168,402.836Z" transform="translate(-275.003 -206.301)" fill="#d3264b"/>
              <path id="Trazado_107729" data-name="Trazado 107729" d="M331.932,417.54l2.34-.24c-2.754-37.068-8.532-57.45-8.532-57.45C327.348,367.422,330.522,395.13,331.932,417.54Z" transform="translate(-276.151 -220.405)" fill="#d3264b"/>
              <path id="Trazado_107730" data-name="Trazado 107730" d="M251.837,361.16c.432.162.882.318,1.344.468.672-41.85,13.062-107.448,27-107.268,13.566.168,33.984,64.116,36.816,107.454,11.6-1.47,19.836-2.97,19.836-2.97s-19.2-86.832-42.408-102.456c-4.116-2.766-9.978-12.546-5.844-32.508l-19.842,3.5s11.742,16.95,4.674,29.4C265.848,270.152,251.567,305.474,251.837,361.16Z" transform="translate(-246.589 -166.017)" fill="#d3264b"/>
              <path id="Trazado_107731" data-name="Trazado 107731" d="M274.15,232.514c4.98.78,8.85,1.488,8.85,1.488s6.486-24.6,1.956-27S274.15,232.514,274.15,232.514Z" transform="translate(-255.515 -159.207)" fill="#e22b5b"/>
              <path id="Trazado_107732" data-name="Trazado 107732" d="M275.5,248.893a1.734,1.734,0,1,0-2.28.9A1.734,1.734,0,0,0,275.5,248.893Z" transform="translate(-254.726 -175.052)" fill="#fffbd7"/>
              <path id="Trazado_107733" data-name="Trazado 107733" d="M279.625,249.46a1.734,1.734,0,1,0-2.28.894A1.734,1.734,0,0,0,279.625,249.46Z" transform="translate(-256.376 -175.276)" fill="#fffbd7"/>
              <path id="Trazado_107734" data-name="Trazado 107734" d="M283.785,250.03a1.728,1.728,0,1,0-.954.921,1.734,1.734,0,0,0,.954-.921Z" transform="translate(-258.04 -175.504)" fill="#fffbd7"/>
              <path id="Trazado_107735" data-name="Trazado 107735" d="M287.865,250.6a1.734,1.734,0,1,0-2.28.894,1.734,1.734,0,0,0,2.28-.894Z" transform="translate(-259.672 -175.732)" fill="#fffbd7"/>
              <path id="Trazado_107736" data-name="Trazado 107736" d="M286.175,206.109c-4.356,8.718-6.03,25.47-4.374,26.22s18.48.45,20.13-1.8,1.8-25.452-.786-26.958S287.531,203.4,286.175,206.109Z" transform="translate(-258.324 -157.641)" fill="#f7546f"/>
              <path id="Trazado_107737" data-name="Trazado 107737" d="M301.412,203.846c-5.436-3-3.324,24.144-4.8,26.214-1.152,1.614-9.162,2.286-14.772,2.31a.528.528,0,0,0,.222.234c1.65.75,19.2,1.23,20.88-1.026S304.01,205.268,301.412,203.846Z" transform="translate(-258.591 -157.91)" fill="#d3264b"/>
              <path id="Trazado_107738" data-name="Trazado 107738" d="M314.093,206.477c4.056,2.79,6.7,27.792,6.8,33.174l-4.362-.09s-3.75-21.468-4.41-25.2S310.949,204.317,314.093,206.477Z" transform="translate(-270.504 -158.88)" fill="#ffb882"/>
              <path id="Trazado_107739" data-name="Trazado 107739" d="M319.934,232.444c-.324-12.336-7.926-21.834-7.662-26.334-1.8.45-1.92,5.4-1.38,8.466.66,3.762,5.232,25.008,5.232,25.008l1.836.036c-.546-1.866-1.092-3.858-1.614-5.952C316.988,233.08,319.01,232.8,319.934,232.444Z" transform="translate(-270.099 -158.909)" fill="#ff9566"/>
              <path id="Trazado_107740" data-name="Trazado 107740" d="M336.264,288.359c-3.6-6.864-16.494-26-16.6-29.634s2.01-5.97,5.274-1.164,12.228,30,12.228,30Z" transform="translate(-273.721 -178.403)" fill="#6b3f4b"/>
              <path id="Trazado_107741" data-name="Trazado 107741" d="M293.33,203.858c-3.1,7.878-3.6,19.02-3.6,19.02l6.192-.9s.816-15.6,5.556-19.008Z" transform="translate(-261.747 -157.653)" fill="#fffbd7"/>
              <path id="Trazado_107742" data-name="Trazado 107742" d="M297.944,181.22l-1.974,12.012,1.314,1.686,6.684-2.652-.03-16.056Z" transform="translate(-264.243 -146.949)" fill="#ffb882"/>
              <path id="Trazado_107743" data-name="Trazado 107743" d="M254.21,214.58c1.338,7.626,8.178,29.01,10.146,32.286,1.89,3.156,5.742,3.408,4.542-2.448s-13.542-29.754-13.542-29.754Z" transform="translate(-247.539 -162.297)" fill="#6b3f4b"/>
              <path id="Trazado_107744" data-name="Trazado 107744" d="M312.558,230.83c4.878-1.272,8.7-2.172,8.7-2.172s-3.672-24.234-8.778-24.6S312.558,230.83,312.558,230.83Z" transform="translate(-269.947 -158.086)" fill="#e22b5b"/>
              <path id="Trazado_107745" data-name="Trazado 107745" d="M315.293,230.408a47.659,47.659,0,0,1,5.826-2.166s-4.074-22.416-7.062-22.482S315.293,230.408,315.293,230.408Z" transform="translate(-271.05 -158.769)" fill="#f7546f"/>
              <path id="Trazado_107746" data-name="Trazado 107746" d="M290.89,206.482c6.1-.156,8.958-8.154,12.528-12.816a2.626,2.626,0,0,0-.408-.378,2.85,2.85,0,0,0-.7-.372h0a7.392,7.392,0,0,0-3.1-.6h0l-.03-16.056-6,5.01-1.974,12h0a9.235,9.235,0,0,0-3.33,1.524.954.954,0,0,0-.162.072,2.034,2.034,0,0,0-.4.216c-.048.036-.1.09-.156.138h0a13.931,13.931,0,0,0-3.114,5.28C284.854,204.1,287.344,206.566,290.89,206.482Z" transform="translate(-259.475 -146.969)" fill="#843131" opacity="0.6"/>
              <path id="Trazado_107747" data-name="Trazado 107747" d="M286.328,175.473c-2.928-3.942-6.372-13.4-5.508-20.856s4.266-10.8,10.554-10.4,8.868,11.346,8.3,16.9C298.418,173.475,286.328,175.473,286.328,175.473Z" transform="translate(-258.129 -134.139)" fill="#ffb882"/>
              <path id="Trazado_107748" data-name="Trazado 107748" d="M303.54,167.4c-3.552-6.876-4.368-11.13-3.792-14.226s-1.392-10.542-5.448-10.542c0,0,3.1-4.272,8.808-.5s6.678,11.9,6.45,14.868S303.54,167.4,303.54,167.4Z" transform="translate(-263.575 -132.694)" fill="#823040"/>
              <path id="Trazado_107749" data-name="Trazado 107749" d="M307.919,171.387c.414-2.088,1.548-4.278,2.5-3s2.754,4.422-1.32,6.93C308.267,175.851,307.751,172.239,307.919,171.387Z" transform="translate(-269.01 -143.668)" fill="#ffb882"/>
              <path id="Trazado_107750" data-name="Trazado 107750" d="M308.991,172.433c.252-1.26.936-2.586,1.512-1.8s1.662,2.676-.8,4.2C309.219,175.139,308.907,172.949,308.991,172.433Z" transform="translate(-269.446 -144.623)" fill="#ea7b59"/>
              <path id="Trazado_107751" data-name="Trazado 107751" d="M309.2,174.677c.174-.876.648-1.8,1.05-1.248a1.811,1.811,0,0,1-.558,2.916C309.345,176.555,309.129,175.037,309.2,174.677Z" transform="translate(-269.53 -145.77)" fill="#ffb882"/>
              <g id="Grupo_55670" data-name="Grupo 55670" transform="translate(0 43.893)">
                <path id="Trazado_107752" data-name="Trazado 107752" d="M254.606,214.886c-.456-1.686.06-3.33-.186-3.84s-.966-2.646-1.8-2.76-4.284,1.4-3.81,2.256,3.132,2.4,4.248,4.62C253.808,216.608,255.32,217.538,254.606,214.886Z" transform="translate(-245.361 -203.669)" fill="#6b3f4b"/>
                <path id="Trazado_107753" data-name="Trazado 107753" d="M255.19,206.6c-.534-1.47-1.752-5.85-2.3-6s.6,6,.6,6Z" transform="translate(-246.953 -200.596)" fill="#6b3f4b"/>
                <path id="Trazado_107754" data-name="Trazado 107754" d="M256.916,212.333c.858-2,3.6-4.6,3.354-5.046s-4.26,3.546-4.26,3.546Z" transform="translate(-248.259 -203.258)" fill="#6b3f4b"/>
                <path id="Trazado_107755" data-name="Trazado 107755" d="M251.088,207.11c-.984-1.254-3.6-5.226-4.272-5.28s2.4,5.586,2.4,5.586Z" transform="translate(-244.543 -201.089)" fill="#6b3f4b"/>
                <path id="Trazado_107756" data-name="Trazado 107756" d="M249.523,210.231c-1.428-.738-5.586-3.318-6.354-3.156s4.464,4,4.464,4Z" transform="translate(-243.092 -203.184)" fill="#6b3f4b"/>
              </g>
              <g id="Grupo_55671" data-name="Grupo 55671" transform="translate(57.764 102.835)">
                <path id="Trazado_107757" data-name="Trazado 107757" d="M342.969,300.523c.6,1.65.186,3.324.462,3.816s1.158,2.568,1.986,2.622,4.17-1.7,3.636-2.52-3.294-2.178-4.572-4.3C343.641,298.747,342.063,297.931,342.969,300.523Z" transform="translate(-340.698 -298.833)" fill="#6b3f4b"/>
                <path id="Trazado_107758" data-name="Trazado 107758" d="M345.45,310.148c.642,1.422,2.178,5.706,2.73,5.838s-1.032-5.916-1.032-5.916Z" transform="translate(-341.799 -303.328)" fill="#6b3f4b"/>
                <path id="Trazado_107759" data-name="Trazado 107759" d="M342.38,305.14c-.714,2.052-3.228,4.848-3,5.274s4-3.846,4-3.846Z" transform="translate(-339.366 -301.356)" fill="#6b3f4b"/>
                <path id="Trazado_107760" data-name="Trazado 107760" d="M348.27,309.708c1.074,1.2,3.972,4.95,4.65,4.962s-2.778-5.4-2.778-5.4Z" transform="translate(-342.927 -303.008)" fill="#6b3f4b"/>
                <path id="Trazado_107761" data-name="Trazado 107761" d="M348.33,307.6c1.482.63,5.814,2.9,6.564,2.688s-4.74-3.666-4.74-3.666Z" transform="translate(-342.951 -301.948)" fill="#6b3f4b"/>
              </g>
              <g id="Grupo_55672" data-name="Grupo 55672" transform="translate(22.709 17.885)">
                <path id="Trazado_107762" data-name="Trazado 107762" d="M297.126,166c0-1.2-.672-2.2-1.482-2.256s-1.434.858-1.434,2.034.654,2.2,1.458,2.274S297.138,167.2,297.126,166Z" transform="translate(-286.248 -159.848)" fill="#543c32"/>
                <path id="Trazado_107763" data-name="Trazado 107763" d="M285.011,165.732c-.1-1.146-.714-1.986-1.368-1.9s-1.1,1.074-1,2.2.7,2,1.356,1.92S285.113,166.866,285.011,165.732Z" transform="translate(-281.615 -159.882)" fill="#543c32"/>
                <path id="Trazado_107764" data-name="Trazado 107764" d="M281.7,165.338a5.55,5.55,0,0,1,3.348-1.488,1.53,1.53,0,0,0-1.74-.366A2.906,2.906,0,0,0,281.7,165.338Z" transform="translate(-281.244 -159.692)" fill="#543c32"/>
                <path id="Trazado_107765" data-name="Trazado 107765" d="M297.942,164.509a6.731,6.731,0,0,0-4.032-.888,1.715,1.715,0,0,1,1.8-.72A3.4,3.4,0,0,1,297.942,164.509Z" transform="translate(-286.128 -159.505)" fill="#543c32"/>
                <path id="Trazado_107766" data-name="Trazado 107766" d="M281.066,160.04l-.126-.258a4.512,4.512,0,0,1,3.6-2.232l.138.744a4.7,4.7,0,0,0-3.612,1.746Z" transform="translate(-280.94 -157.37)" fill="#993f4c"/>
                <path id="Trazado_107767" data-name="Trazado 107767" d="M298.438,159.56a10.542,10.542,0,0,0-5.658-1.536v-.774a10.314,10.314,0,0,1,5.85,2.034Z" transform="translate(-285.676 -157.25)" fill="#993f4c"/>
                <path id="Trazado_107768" data-name="Trazado 107768" d="M290.982,176.05a.189.189,0,0,1-.054.1,1.722,1.722,0,0,1-2.22.276,1.362,1.362,0,0,1-.648-1.1,1.3,1.3,0,0,0,.45,1.836,1.716,1.716,0,0,0,2.22-.27A1.2,1.2,0,0,0,290.982,176.05Z" transform="translate(-283.704 -164.482)" fill="#ea7b59"/>
                <path id="Trazado_107769" data-name="Trazado 107769" d="M291.8,181.5l-4.8.39s.492,4.392,2.514,4.2C292.208,185.9,291.8,181.5,291.8,181.5Z" transform="translate(-283.364 -166.95)" fill="#4c241e"/>
                <path id="Trazado_107770" data-name="Trazado 107770" d="M287.8,183.808a10.978,10.978,0,0,1-.3-1.446l4.158-.342a7.2,7.2,0,0,1-.138,2.064Z" transform="translate(-283.564 -167.158)" fill="#fffef8"/>
              </g>
              <circle id="Elipse_4208" data-name="Elipse 4208" cx="1.734" cy="1.734" r="1.734" transform="translate(41.321 70.643)" fill="#fffbd7"/>
              <path id="Trazado_107771" data-name="Trazado 107771" d="M319.428,245.784a1.728,1.728,0,1,0-.506,1.228,1.734,1.734,0,0,0,.506-1.228Z" transform="translate(-272.239 -174.085)" fill="#fffbd7"/>
              <circle id="Elipse_4209" data-name="Elipse 4209" cx="1.734" cy="1.734" r="1.734" transform="translate(46.127 69.293)" fill="#fffbd7"/>
              <circle id="Elipse_4210" data-name="Elipse 4210" cx="1.734" cy="1.734" r="1.734" transform="translate(48.527 68.615)" fill="#fffbd7"/>
              <path id="Trazado_107772" data-name="Trazado 107772" d="M251.17,441.046c0,1.938-1.092,5.592-1.08,7.584,23.46,8.892,88.08-1.8,88.08-1.8a41.45,41.45,0,0,1-3.492-8.52C320.488,440.47,274.222,446.764,251.17,441.046Z" transform="translate(-245.891 -251.789)" fill="#fffbd7"/>
              <g id="Grupo_55673" data-name="Grupo 55673" transform="translate(4.223 186.521)">
                <path id="Trazado_107773" data-name="Trazado 107773" d="M362.108,444.97a27.667,27.667,0,0,1-.408,4.71c12.294-1.392,21.114-2.85,21.114-2.85a41.45,41.45,0,0,1-3.492-8.52c-3.852.6-10.08,1.476-17.556,2.352a27.7,27.7,0,0,1,.342,4.308Z" transform="translate(-294.758 -438.31)" fill="#f4e5be"/>
                <path id="Trazado_107774" data-name="Trazado 107774" d="M252.356,444.808c0-.558,0-1.116.054-1.662-.408-.1-.828-.18-1.2-.276,0,1.938-1.092,5.592-1.08,7.584.948.36,1.98.684,3.06.984A27.673,27.673,0,0,1,252.356,444.808Z" transform="translate(-250.13 -440.134)" fill="#f4e5be"/>
              </g>
            </g>
            <g id="Grupo_55679" data-name="Grupo 55679" transform="translate(-5.118 51.294)">
              <path id="Trazado_107775" data-name="Trazado 107775" d="M111.358,201.992c-2.058-.144-4.044-19.488-5.49-23.592l-2.358,10.026s1.9,9.912,3.5,13.65,1.578,5.484,3.69,4.842S114.292,202.2,111.358,201.992Z" transform="translate(-65.626 -151.214)" fill="#e24824"/>
              <g id="Grupo_55675" data-name="Grupo 55675" transform="translate(67.926 116.124)">
                <path id="Trazado_107776" data-name="Trazado 107776" d="M165.118,337.652l-7.9,4.392a25.8,25.8,0,0,0-3.636-8.37l5.466-7.044S162.682,335.882,165.118,337.652Z" transform="translate(-153.58 -326.63)" fill="#ffb882"/>
                <path id="Trazado_107777" data-name="Trazado 107777" d="M165.42,340.89c1.332,2.286,2.436,1.506,3.57,2.5,1.848,1.626,5.214,2.544,5.346,3.246a2.525,2.525,0,0,1-.978,2.4c-.48.2-4.914-2.574-5.058-1.752-.234,1.356.6,3.792.42,4.446-.33,1.428-6.708,3.75-7.32,1.632-.534-1.836-2.478-4.2-2.076-7.9C159.474,344.106,165.42,340.89,165.42,340.89Z" transform="translate(-155.856 -332.334)" fill="#ffb882"/>
                <path id="Trazado_107778" data-name="Trazado 107778" d="M172.833,352.9a38.809,38.809,0,0,0,1.68,4.578c.354.474,2.454,3.156,2.4,3.6s-.6,1.932-1.2,1.512a19.722,19.722,0,0,1-3.252-4.29,37.944,37.944,0,0,1-1.6-3.918C170.9,354.059,172.5,351.935,172.833,352.9Z" transform="translate(-160.491 -337.037)" fill="#ffb882"/>
                <path id="Trazado_107779" data-name="Trazado 107779" d="M167.726,353.92a37.026,37.026,0,0,0,1.2,4.8c.312.516,2.094,3.486,2.01,3.93s-.762,1.872-1.332,1.368a20.46,20.46,0,0,1-2.766-4.722c-.258-.918-1.26-3.81-1.2-4.128S167.492,352.918,167.726,353.92Z" transform="translate(-158.402 -337.432)" fill="#ffb882"/>
                <path id="Trazado_107780" data-name="Trazado 107780" d="M162.918,353.046a41.416,41.416,0,0,0,.69,4.968c.246.564,1.716,3.792,1.59,4.2s-.948,1.752-1.458,1.164a22.109,22.109,0,0,1-2.244-5.094,40.478,40.478,0,0,1-.744-4.3C160.86,353.682,162.792,352.008,162.918,353.046Z" transform="translate(-156.444 -337.062)" fill="#ffb882"/>
              </g>
              <rect id="Rect치ngulo_5977" data-name="Rect치ngulo 5977" width="10.302" height="4.938" transform="matrix(0.875, -0.484, 0.484, 0.875, 67.534, 125.625)" fill="#fffbd7"/>
              <path id="Trazado_107781" data-name="Trazado 107781" d="M141.058,348.064l-8.526,6.066-3.462-17.736,9.5-1.074Z" transform="translate(-75.85 -213.982)" fill="#28171e"/>
              <path id="Trazado_107782" data-name="Trazado 107782" d="M135.493,277.368c-3.558-8.6-12.816-34.536-17.094-37.506s-10.386,11.2-6.036,20.4,12.66,23.97,12.66,23.97Z" transform="translate(-68.569 -175.638)" fill="#4c313a"/>
              <path id="Trazado_107783" data-name="Trazado 107783" d="M118.186,242.133c-4.278-3-10.2,9.816-5.844,19.008S125,285.111,125,285.111l8.5-4.056C129.886,269.139,119.506,243.075,118.186,242.133Z" transform="translate(-68.548 -176.529)" fill="#422832"/>
              <path id="Trazado_107784" data-name="Trazado 107784" d="M142.614,325.325c-6.06-10.272-16.014-27.912-16.014-27.912s10.7-7.572,12.84-3.288c2.4,4.9,14.514,24.822,14.514,24.822Z" transform="translate(-74.862 -196.979)" fill="#4c313a"/>
              <path id="Trazado_107785" data-name="Trazado 107785" d="M136.02,288.77c-3.864-.054-9.42,7-9.42,7s9.954,17.64,16.014,27.912l6.666-3.726C143.736,311.576,138.372,293.918,136.02,288.77Z" transform="translate(-74.862 -195.362)" fill="#422832"/>
              <path id="Trazado_107786" data-name="Trazado 107786" d="M129.644,328.83c1.692,18.126-21.918,96.81-21.918,96.81H107l2.568-81.156,8.028-13.392Z" transform="translate(-67.022 -211.386)" fill="#4c313a"/>
              <path id="Trazado_107787" data-name="Trazado 107787" d="M120.182,340.346l2.868-9.456-5.454,1.032-8.988,13.332L107,426.464h.636Z" transform="translate(-67.022 -212.21)" fill="#3a232c"/>
              <path id="Trazado_107788" data-name="Trazado 107788" d="M63.943,175.829c.534-1.3-2.268-4.752-1.9-5.85s4.836,1.2,5.172.342-1.464-4.2-.6-4.938,5.166-.276,5.166-.276.6-2.8,1.854-3.306,7.314,1.8,7.314,1.8-.666-1.53,1.284-1.26,9.6,8.118,6.924,16.158S77.1,201.167,77.1,201.167s-5.484-1.416-7.734-4.38,0-2.6-1.116-4.392-3.936-4.134-4.368-5.754,1.482-1.386,1.278-2.934C64.711,180.389,63.415,177.131,63.943,175.829Z" transform="translate(-49.027 -144.545)" fill="#e24824"/>
              <path id="Trazado_107789" data-name="Trazado 107789" d="M67.153,167.42a1.458,1.458,0,0,0-.564.24c-.846.714.96,4.1.6,4.938s-4.8-1.434-5.172-.342,2.43,4.554,1.9,5.85.768,4.56,1.2,7.848c.2,1.548-1.71,1.308-1.278,2.934s3.234,3.966,4.368,5.754-1.14,1.428,1.116,4.392,7.734,4.38,7.734,4.38,1.332-2.046,3.12-5.046a39.473,39.473,0,0,0,.6-6.96C80.785,178.568,74.743,168.038,67.153,167.42Z" transform="translate(-49.015 -146.822)" fill="#c13216"/>
              <path id="Trazado_107790" data-name="Trazado 107790" d="M89.09,341.738c1.9,26.574,3.546,85.686,3.546,85.686h.924l13.686-64.47,5.706-3.5,2.112-26.16Z" transform="translate(-59.858 -213.17)" fill="#4c313a"/>
              <path id="Trazado_107791" data-name="Trazado 107791" d="M97.54,357.134l12.426-13.8,11.9-3.156,2.718,6.252,1.968-10.95-28.968,7.926Z" transform="translate(-63.238 -214.046)" fill="#3a232c"/>
              <path id="Trazado_107792" data-name="Trazado 107792" d="M122.218,345.2l-2.268,16.464,1.23-.612,3.444-17.076Z" transform="translate(-72.202 -217.446)" fill="#3a232c"/>
              <g id="Grupo_55676" data-name="Grupo 55676" transform="translate(29.232 126.438)">
                <path id="Trazado_107793" data-name="Trazado 107793" d="M95.438,343.82l-6.348,2.13c1.9,26.574,3.546,85.686,3.546,85.686h.6C93.326,424.106,96.02,371.414,95.438,343.82Z" transform="translate(-89.09 -343.82)" fill="#3a232c"/>
                <path id="Trazado_107794" data-name="Trazado 107794" d="M114.19,378.312l3.4,2.58,7.548-4.782-6.48,2.454Z" transform="translate(-99.13 -356.736)" fill="#3a232c"/>
              </g>
              <path id="Trazado_107795" data-name="Trazado 107795" d="M127.438,312.27l-21.456,5.346-.1,16.494,21.45-5.346Z" transform="translate(-66.574 -204.762)" fill="#fffbd7"/>
              <path id="Trazado_107796" data-name="Trazado 107796" d="M120.832,320.724l3.5,8.79,3-.75.108-16.494-21.456,5.346-.1,16.494,8.568-2.136Z" transform="translate(-66.574 -204.762)" fill="#f7dbb2"/>
              <path id="Trazado_107797" data-name="Trazado 107797" d="M80.844,321.152c10.644-9.456,26.91-32.688,26.91-32.688L118.3,309.116s-2.748-27.234-5.286-39.348-8.874-30.828-10.848-31.1-16.674-1.494-18.5.06-11.484,7.8-11.484,11.9c0,2.3,5.37,18.546,6.552,37.692C79.65,303.236,79.338,322.484,80.844,321.152Z" transform="translate(-53.094 -175.034)" fill="#4c313a"/>
              <path id="Trazado_107798" data-name="Trazado 107798" d="M75.88,268.875c-.192,0-3.4-.21-3.6-.186.414,3.294,5.346,13.6,6.48,31.95.918,14.916.6,34.164,2.112,32.832.918-.816,4.2-4.2,5.22-5.19C95.9,303.207,88.8,269.985,75.88,268.875Z" transform="translate(-53.134 -187.329)" fill="#422832"/>
              <path id="Trazado_107799" data-name="Trazado 107799" d="M90.54,311.952c1.152-11.316,1.152-25.482-.774-25.482-2.118,0-4,16.2-4,28.386,0,7.8.84,11.64,1.8,10.8S89.76,319.578,90.54,311.952Z" transform="translate(-58.53 -194.442)" fill="#3a232c"/>
              <path id="Trazado_107800" data-name="Trazado 107800" d="M69.687,295.7c-1.266-8.244-1.8-35.22,1.2-38.832s14.478,9.294,13.8,19.014-3.408,24.726-3.408,24.726Z" transform="translate(-51.693 -182.352)" fill="#4c313a"/>
              <g id="Grupo_55677" data-name="Grupo 55677" transform="translate(16.374 135.696)">
                <path id="Trazado_107801" data-name="Trazado 107801" d="M83.048,371.7l-8.928-1.428a25.866,25.866,0,0,0,2.328-8.856L85.1,359.25S82.22,368.766,83.048,371.7Z" transform="translate(-70.244 -359.25)" fill="#ffb882"/>
                <path id="Trazado_107802" data-name="Trazado 107802" d="M81.672,374.3c-.36,2.622.99,2.694,1.266,4.2.45,2.4,2.526,5.226,2.2,5.856a2.482,2.482,0,0,1-2.244,1.266c-.486-.156-2.274-5.058-2.892-4.494-1.026.918-1.9,3.33-2.4,3.75-1.14.918-7.584-1.2-6.762-3.24.714-1.77.666-4.854,3.246-7.488C75.012,373.168,81.672,374.3,81.672,374.3Z" transform="translate(-68.904 -365.05)" fill="#ffb882"/>
                <path id="Trazado_107803" data-name="Trazado 107803" d="M82.5,386.778a36.229,36.229,0,0,0-1.506,4.638c-.012.594,0,4-.33,4.332s-1.65,1.164-1.884.45a19.842,19.842,0,0,1,.1-5.4,36.049,36.049,0,0,1,1.164-4.068C80.277,386.5,82.827,385.818,82.5,386.778Z" transform="translate(-72.051 -370.062)" fill="#ffb882"/>
                <path id="Trazado_107804" data-name="Trazado 107804" d="M77.28,384.451a39.321,39.321,0,0,0-2.028,4.512c-.084.594-.5,4.038-.846,4.338s-1.752,1-1.9.252a20.863,20.863,0,0,1,.744-5.4,37.5,37.5,0,0,1,1.626-3.978C75.144,383.971,77.718,383.515,77.28,384.451Z" transform="translate(-69.6 -369.103)" fill="#ffb882"/>
                <path id="Trazado_107805" data-name="Trazado 107805" d="M73.414,380.748a37.02,37.02,0,0,0-2.526,4.338c-.126.594-.99,4.038-1.362,4.3s-1.8.792-1.866,0a22.319,22.319,0,0,1,1.4-5.4,40.986,40.986,0,0,1,2.07-3.84C71.4,379.974,73.954,379.854,73.414,380.748Z" transform="translate(-67.66 -367.56)" fill="#ffb882"/>
              </g>
              <rect id="Rect치ngulo_5978" data-name="Rect치ngulo 5978" width="10.302" height="4.938" transform="translate(20.724 139.548) rotate(9.18)" fill="#fffbd7"/>
              <path id="Trazado_107806" data-name="Trazado 107806" d="M71.212,348.708c-.912-11.73-1.272-31.548-1.272-31.548s12.216.4,12.2,5.046c0,5.3,2.112,28.2,2.112,28.2Z" transform="translate(-52.198 -206.718)" fill="#4c313a"/>
              <path id="Trazado_107807" data-name="Trazado 107807" d="M71.316,330.4c-.282-4.8-2.676-13.3-2.676-13.3s1.14,19.854,2.052,31.584l3.6.468A82.791,82.791,0,0,1,71.316,330.4Z" transform="translate(-51.678 -206.694)" fill="#422832"/>
              <path id="Trazado_107808" data-name="Trazado 107808" d="M109.11,269.3l-3.438-30.858c-5.232-.882-15.4-1.158-17.124-.414-1.416.6-2.856,2.46-4.878,4.056C92.634,249.766,109.11,269.3,109.11,269.3Z" transform="translate(-57.69 -174.892)" fill="#fffbd7"/>
              <path id="Trazado_107809" data-name="Trazado 107809" d="M83.8,229.464l-4.584-16.92,13.95-2.6,5.286,16.9s-1.14,3.282-2.172,3.81S83.8,229.464,83.8,229.464Z" transform="translate(-55.91 -163.83)" fill="#ffb882"/>
              <path id="Trazado_107810" data-name="Trazado 107810" d="M91.36,490.82h6.306s-3.132-3.906-4.092-3.18A12.836,12.836,0,0,0,91.36,490.82Z" transform="translate(-60.766 -274.874)" fill="#ede6c8"/>
              <path id="Trazado_107811" data-name="Trazado 107811" d="M105.33,490.82h8.682s-6.432-3.906-7.4-3.18S105.33,490.82,105.33,490.82Z" transform="translate(-66.354 -274.874)" fill="#ede6c8"/>
              <path id="Trazado_107812" data-name="Trazado 107812" d="M128.518,344.38l-3.876.918-.282,2.472,3.876-.918Z" transform="translate(-73.966 -217.606)" fill="#bfaa8e"/>
              <path id="Trazado_107813" data-name="Trazado 107813" d="M108.614,245.9l-2.436-.75-.378-2.922,1.554-.708,1.7,1.554Z" transform="translate(-66.542 -176.462)" fill="#ea4e5a"/>
              <path id="Trazado_107814" data-name="Trazado 107814" d="M98.284,246.342l.144-5.376L85.69,239.55l-.33,2.358Z" transform="translate(-58.366 -175.674)" fill="#fffbd7"/>
              <path id="Trazado_107815" data-name="Trazado 107815" d="M111.052,241.914l-3.912-2.268,2.406-3.4,1.176.846Z" transform="translate(-67.078 -174.354)" fill="#fffbd7"/>
              <path id="Trazado_107816" data-name="Trazado 107816" d="M108.63,247.056l7.032,21.858c2.106,2.4,3.432,4,3.432,4l-.8-7.17-8.724-19.11Z" transform="translate(-67.674 -178.506)" fill="#ea4e5a"/>
              <path id="Trazado_107817" data-name="Trazado 107817" d="M130.248,311.326c0-1.164-.522-2.106-1.164-2.106s-1.164.942-1.164,2.106.522,2.106,1.164,2.106S130.248,312.49,130.248,311.326Z" transform="translate(-75.39 -203.542)" fill="#422832"/>
              <path id="Trazado_107818" data-name="Trazado 107818" d="M128.439,298.172c-.162-1.152-.81-2.016-1.446-1.926s-1.02,1.1-.858,2.25.81,2.016,1.446,1.926S128.6,299.324,128.439,298.172Z" transform="translate(-74.661 -198.35)" fill="#422832"/>
              <path id="Trazado_107819" data-name="Trazado 107819" d="M128.664,298.331c-.126-.858-.6-1.5-1.08-1.434s-.762.816-.642,1.68.6,1.5,1.08,1.434S128.766,299.195,128.664,298.331Z" transform="translate(-74.988 -198.611)" fill="#bfaa8e"/>
              <path id="Trazado_107820" data-name="Trazado 107820" d="M130.56,311.551c-.054-.864-.486-1.542-.966-1.512s-.822.756-.768,1.62.492,1.548.966,1.518S130.62,312.415,130.56,311.551Z" transform="translate(-75.75 -203.869)" fill="#bfaa8e"/>
              <g id="Grupo_55678" data-name="Grupo 55678" transform="translate(16.476 74.148)">
                <path id="Trazado_107821" data-name="Trazado 107821" d="M69.03,274.784a74,74,0,0,1,2-18.114,1.555,1.555,0,0,0-.45.372c-3,3.6-3.312,31.314-2.046,39.552l2.232,2.142C70.194,289.868,69.03,285.284,69.03,274.784Z" transform="translate(-67.83 -256.67)" fill="#422832"/>
                <path id="Trazado_107822" data-name="Trazado 107822" d="M90.376,311.956s2.346-15.84,3-25.56a14.55,14.55,0,0,0-.306-3.876C90.85,294,89.968,304.516,90.376,311.956Z" transform="translate(-76.81 -267.01)" fill="#422832"/>
              </g>
              <path id="Trazado_107823" data-name="Trazado 107823" d="M107.368,231.98a11.379,11.379,0,0,0-2.472-3.162l-.09-.054c-.258-.33-.48-.516-.666-.54s-.81-.1-1.518-.168c-1.14-.174-2.478-.324-3.894-.444v-.276l-1.2-.846-.192.264-3.69-11.814a30.2,30.2,0,0,0-7.416-3.09l-7.854,1.464,4.11,15.174h-.1l-.33,2.358h.072c-.342.306-.7.6-1.074.918a43.279,43.279,0,0,0-3.942,3.462c5.4,5.094,12.786,8.556,19.35,8.556C104.35,243.788,108.586,238.8,107.368,231.98Z" transform="translate(-55.066 -164.594)" fill="#843131" opacity="0.6"/>
              <path id="Trazado_107824" data-name="Trazado 107824" d="M75.8,191c1.152,4.29,7.086,17.478,7.638,18s9.948,2.346,10.956,1.986,5.136-5.508,5.148-6.5-5.064-24.738-6.2-26.9c-.852-1.62-5.172-3.066-10.668-.774S74.943,187.815,75.8,191Z" transform="translate(-54.471 -150.105)" fill="#ffb882"/>
              <path id="Trazado_107825" data-name="Trazado 107825" d="M104.778,218.16l-6.168,1.362s1.08,3.564,2.172,3.546,3.462-.846,3.81-1.572A11.842,11.842,0,0,0,104.778,218.16Z" transform="translate(-63.666 -167.118)" fill="#542a29"/>
              <path id="Trazado_107826" data-name="Trazado 107826" d="M104.7,220.592a19.318,19.318,0,0,0,0-2.112l-5.622,1.236a13.65,13.65,0,0,0,.828,2.052Z" transform="translate(-63.854 -167.246)" fill="#fff7e9"/>
              <path id="Trazado_107827" data-name="Trazado 107827" d="M100.948,195.76s-.048.4-.078,1.1c1.4,2.658,4.4,8.4,4.314,8.8a5.631,5.631,0,0,1-2.868,2.238c.864,1.05,3.552-1.554,3.654-2.01S100.948,195.76,100.948,195.76Z" transform="translate(-64.57 -158.158)" fill="#ea7b59"/>
              <path id="Trazado_107828" data-name="Trazado 107828" d="M87.444,216.468c-2.868-.438-5.178-13.8-5.868-17.508l-2.736,5.67s1.56,7.986,3,11,4.914,4.884,7.044,4.368S90.336,216.912,87.444,216.468Z" transform="translate(-55.758 -159.438)" fill="#c13216"/>
              <path id="Trazado_107829" data-name="Trazado 107829" d="M71.692,183.433c3.072-4.062,6.558,4.884,7.914,18.474l-3.348,1.056s-6.318-10.98-5.958-13.8A31.728,31.728,0,0,1,71.692,183.433Z" transform="translate(-52.336 -152.833)" fill="#c13216"/>
              <path id="Trazado_107830" data-name="Trazado 107830" d="M77.225,210.515c-2.292-2.478-5.856-4.716-6-2.166s.174,7.53,7.44,7.758C80.081,216.155,78.125,211.493,77.225,210.515Z" transform="translate(-52.703 -162.743)" fill="#ffb882"/>
              <path id="Trazado_107831" data-name="Trazado 107831" d="M77.538,212.413c-1.506-1.632-3.852-3.108-3.948-1.428s.114,4.956,4.9,5.112C79.428,216.1,78.132,213.055,77.538,212.413Z" transform="translate(-53.652 -163.951)" fill="#ea7b59"/>
              <path id="Trazado_107832" data-name="Trazado 107832" d="M79.991,215.215c-1.05-1.134-2.682-2.16-2.748-.99s.084,3.444,3.408,3.552C81.293,217.8,80.405,215.683,79.991,215.215Z" transform="translate(-55.115 -165.337)" fill="#ffb882"/>
              <path id="Trazado_107833" data-name="Trazado 107833" d="M93.9,199.873c-.252-1.2-.864-2.07-1.374-1.968s-.714,1.164-.462,2.358.87,2.07,1.374,1.962S94.156,201.067,93.9,199.873Z" transform="translate(-61.006 -159.013)" fill="#542a29"/>
              <path id="Trazado_107834" data-name="Trazado 107834" d="M106.224,197.392c-.252-1.2-.864-2.076-1.374-1.968s-.714,1.164-.462,2.352.87,2.076,1.374,1.968S106.476,198.58,106.224,197.392Z" transform="translate(-65.934 -158.02)" fill="#542a29"/>
              <path id="Trazado_107835" data-name="Trazado 107835" d="M90.176,191.13l-2.286,1.086a1.536,1.536,0,0,0-.636,1.8h0A1.248,1.248,0,0,0,88.88,195l2.286-1.056a1.542,1.542,0,0,0,.636-1.854h0A1.25,1.25,0,0,0,90.176,191.13Z" transform="translate(-59.09 -156.27)" fill="#e24824"/>
              <path id="Trazado_107836" data-name="Trazado 107836" d="M103.159,189.338l-2.472-.108a1.182,1.182,0,0,0-1.068,1.362h0a1.65,1.65,0,0,0,1.344,1.632l2.478.108a1.175,1.175,0,0,0,1.062-1.362h0A1.644,1.644,0,0,0,103.159,189.338Z" transform="translate(-64.069 -155.546)" fill="#e24824"/>
              <path id="Trazado_107837" data-name="Trazado 107837" d="M90.456,173.888h0a17.52,17.52,0,0,0-3.678-6.768l-21.7,12.528c.222,1.614.942,3.894,1.248,6.2.114.87-.438,1.2-.87,1.566a1.2,1.2,0,0,0-.408,1.368c.36,1.35,2.358,3.2,3.672,4.8v.18c7.59-5,17.568-11.562,22.8-14.958A38.7,38.7,0,0,0,90.456,173.888Z" transform="translate(-50.214 -146.702)" fill="#843131" opacity="0.6"/>
              <path id="Trazado_107838" data-name="Trazado 107838" d="M40.37,148.078a101.827,101.827,0,0,1,15.294,26.268L82.592,158.29c-7.464-8.736-13.842-17.25-17.244-25.2A63,63,0,0,0,40.37,148.078Z" transform="translate(-40.37 -133.09)" fill="#4c313a"/>
              <path id="Trazado_107839" data-name="Trazado 107839" d="M59.364,158.35a41.974,41.974,0,0,1-6.318-16.2,65.736,65.736,0,0,0-12.636,9.522A101.826,101.826,0,0,1,55.7,177.94l13.86-8.244a43.632,43.632,0,0,1-10.2-11.346Z" transform="translate(-40.386 -136.714)" fill="#352028"/>
              <path id="Trazado_107840" data-name="Trazado 107840" d="M59.94,178.908,85.05,163.17q-2.2-2.718-4.2-5.4l-24,15.036C57.942,174.8,58.956,176.832,59.94,178.908Z" transform="translate(-46.962 -142.962)" fill="#fffbd7"/>
              <path id="Trazado_107841" data-name="Trazado 107841" d="M57.135,197.99c11.592-11.334,33-21.486,40.026-24.648a.942.942,0,0,0-.234-1.8c-3.744-.54-11.4-.354-22.854,6.27a47.158,47.158,0,0,0-18.6,18.99,1.021,1.021,0,1,0,1.662,1.188Z" transform="translate(-46.335 -148.394)" fill="#4c313a"/>
              <path id="Trazado_107842" data-name="Trazado 107842" d="M69.8,189.966c-1.2-2.718,1.92-6.894,7.428-10.626-1.008.51-2.046,1.062-3.126,1.686a47.158,47.158,0,0,0-18.6,18.99,1.014,1.014,0,0,0,1.65,1.17,87.469,87.469,0,0,1,13.3-10.3A3,3,0,0,1,69.8,189.966Z" transform="translate(-46.364 -151.59)" fill="#352028"/>
            </g>
            <g id="Grupo_55681" data-name="Grupo 55681" transform="translate(170.758 58.941)">
              <path id="Trazado_107843" data-name="Trazado 107843" d="M422.986,490.72c0-.762-18.732-1.38-41.838-1.38s-41.838.6-41.838,1.38,18.732,1.38,41.838,1.38S422.986,491.482,422.986,490.72Z" transform="translate(-335.822 -283.237)" fill="#914c3a"/>
              <path id="Trazado_107844" data-name="Trazado 107844" d="M338,264.376a61.366,61.366,0,0,0-.456-10.8c-.192-2.124-2.286-7.614-2.478-7.944s-1.41.33-1.56,1.164,1.926,5.832,1.242,10.02c-.186,1.14-1.584,6.522-1,8.13S337.843,267.508,338,264.376Z" transform="translate(-333.497 -185.719)" fill="#ffb882"/>
              <path id="Trazado_107845" data-name="Trazado 107845" d="M339.875,258.7a69.254,69.254,0,0,0,.894-12.072c.06-2.4-1.518-8.838-1.686-9.24s-1.578.108-1.854,1.008,1.356,6.8.066,11.322c-.348,1.2-2.574,6.936-2.142,8.82S339.269,262.113,339.875,258.7Z" transform="translate(-334.137 -182.4)" fill="#ffb882"/>
              <path id="Trazado_107846" data-name="Trazado 107846" d="M341.436,257.87a59.137,59.137,0,0,0,2.634-11.346c.408-2.346-.474-8.61-.6-9s-1.77-.114-2.2.7.6,6.66-1.47,10.764c-.552,1.122-3.8,6.234-3.6,8.082S340.278,261.049,341.436,257.87Z" transform="translate(-334.576 -182.44)" fill="#ffb882"/>
              <path id="Trazado_107847" data-name="Trazado 107847" d="M429.536,165.289c-2.172-5.442,16.8-9.342,26.274,15.252l-3.09.426-.234,2.874-4.74,4.572-8.112,7.116Z" transform="translate(-371.844 -151.99)" fill="#7f5240"/>
              <path id="Trazado_107848" data-name="Trazado 107848" d="M437.14,181.228c7.266.81,13.5-2.256,13.938-6.852a6.258,6.258,0,0,0-1.284-4.236c3.24,3,6.372,7.494,8.862,13.938l-3.09.426-.234,2.874-4.74,4.6L442.48,199.1l-6-17.964C436.708,181.168,436.918,181.2,437.14,181.228Z" transform="translate(-374.69 -155.557)" fill="#683929"/>
              <path id="Trazado_107849" data-name="Trazado 107849" d="M350.222,273.948c-1.8-.8-4.626-4.116-6.276-6.438l-7.686,7.368,9.354,10.392Z" transform="translate(-334.602 -194.505)" fill="#ff9566"/>
              <path id="Trazado_107850" data-name="Trazado 107850" d="M368.762,239.434c-4.944,6.36-10.494,26.16-10.494,26.16l-9.846-7.908L341,268.126s14.946,17.28,21.456,16.4,13.8-8.22,15.6-19.446S375.374,230.92,368.762,239.434Z" transform="translate(-336.498 -182.532)" fill="#f2eedd"/>
              <path id="Trazado_107851" data-name="Trazado 107851" d="M357.236,274.124c6.786-.924,5.754-26.358,15.078-36.174,4.848,1.8,8.178,19.56,6.7,28.686-1.8,11.226-9.39,18.93-15.9,19.8S341,268.274,341,268.274l1.8-2.616C347.87,270.1,353.888,274.58,357.236,274.124Z" transform="translate(-336.498 -182.681)" fill="#e5ddbd"/>
              <path id="Trazado_107852" data-name="Trazado 107852" d="M375.6,323.18c0,.6-1.59,32.814,9.93,99.21h.48l8.16-70.8-.852-22.662Z" transform="translate(-350.309 -216.773)" fill="#684a51"/>
              <path id="Trazado_107853" data-name="Trazado 107853" d="M387.148,343.89l-3.318-18.06,12.8,4.134,1.458,23.028-8.754,70.458h-.468c-.09-.492-.168-.972-.252-1.458Z" transform="translate(-353.63 -217.833)" fill="#593c43"/>
              <path id="Trazado_107854" data-name="Trazado 107854" d="M410.364,332.338c0,.768-1.416,27.858-1.416,27.858l7.83,62.958h-.492l-26.28-71.046-4.458-1.758-1.158-25.26Z" transform="translate(-353.854 -217.537)" fill="#684a51"/>
              <path id="Trazado_107855" data-name="Trazado 107855" d="M412.688,421.282l-13.452-64.2-2.226-17.4-21.6-11.334-.6-7.938,32.316,8.85c0,.768-1.35,28.914-1.35,28.914l7.122,63.12Z" transform="translate(-350.022 -215.665)" fill="#593c43"/>
              <path id="Trazado_107856" data-name="Trazado 107856" d="M408.516,293.714l-2.466,1.98s-30.936-7.506-32.76-10.38l4.254-38.082s2.43-11.01,3.846-12.768,18.438-12.768,30.792-7.044,15,13.866,15,14.526-6.486,26.856-9.93,30.6S408.516,293.714,408.516,293.714Z" transform="translate(-349.414 -177.815)" fill="#421521"/>
              <path id="Trazado_107857" data-name="Trazado 107857" d="M407.517,227.5c-6.144,6.24-4.35,24.492-4.35,24.492l24.4-20.8Z" transform="translate(-361.268 -178.501)" fill="#f2eedd"/>
              <path id="Trazado_107858" data-name="Trazado 107858" d="M409.215,227.878l18.282,3.366.06-.054-20.04-3.69c-6.144,6.24-4.35,24.492-4.35,24.492l1.578-1.344C404.475,245.95,404.223,232.954,409.215,227.878Z" transform="translate(-361.268 -178.501)" fill="#e5ddbd"/>
              <path id="Trazado_107859" data-name="Trazado 107859" d="M408.786,235.878l-.048-2.964-2.682,1.866,1-6.828,1.416-.672L427,228.858l2.4,1.854-17.634,7.572-.54-3.192-1.428,1.02c-.984,3.5-2.838,12.96-2.838,12.96l-2.832,1.8S407.322,239.064,408.786,235.878Z" transform="translate(-361.75 -178.413)" fill="#e5ddbd"/>
              <path id="Trazado_107860" data-name="Trazado 107860" d="M396.708,294.417c4.77-2.046,6.378-34.428,16-40.836,8.712,5.4,14.466-1.44,14.466-.864s-5.916,27.552-9.354,31.3-8.922,21.306-8.922,21.306l-2.472,1.98s-31.314-8.352-33.138-11.226l.048-.414C379,296.973,392.16,296.367,396.708,294.417Z" transform="translate(-349.414 -188.574)" fill="#300e19"/>
              <path id="Trazado_107861" data-name="Trazado 107861" d="M410.9,337.884c2.172-2.964,4.2,2.034,4.2,2.034l-3.93,4.962C410.208,342.438,408.708,340.854,410.9,337.884Z" transform="translate(-364.006 -222.279)" fill="#ffb882"/>
              <path id="Trazado_107862" data-name="Trazado 107862" d="M419.508,285.144l6,51.828-.96-.054-24.5-28.332,18.492-23.5Z" transform="translate(-360.118 -201.537)" fill="#ed5a5a"/>
              <path id="Trazado_107863" data-name="Trazado 107863" d="M444.376,316.968l-18.228,20.04-24.5-28.326,18.5-23.5Z" transform="translate(-360.758 -201.573)" fill="#d83d3d"/>
              <path id="Trazado_107864" data-name="Trazado 107864" d="M426.148,337.008l-24.5-28.326,18.5-23.5Z" transform="translate(-360.758 -201.573)" fill="#d13737"/>
              <path id="Trazado_107865" data-name="Trazado 107865" d="M429.859,340.152c-3.294,3.564-5.778,9.03-8.016,9.126s-9.78-3-10.77-8.586c-.378-2.148,10.092-9.492,10.092-9.492Z" transform="translate(-364.524 -219.981)" fill="#ffb882"/>
              <path id="Trazado_107866" data-name="Trazado 107866" d="M414.86,336.386c-1.638-3.114,6.822-7.326,6.822-7.326l4.248,5.154C423.716,335.318,416.762,340,414.86,336.386Z" transform="translate(-365.958 -219.125)" fill="#ff9566"/>
              <path id="Trazado_107867" data-name="Trazado 107867" d="M420.25,334.7c2.364-1.9,4.59-3.456,4.59-3.456l8.694,8.952c-3.294,3.564-5.778,9.03-8.016,9.126a7.248,7.248,0,0,1-2.3-.45C426.484,346.894,425,338.9,420.25,334.7Z" transform="translate(-368.198 -219.997)" fill="#ff9566"/>
              <path id="Trazado_107868" data-name="Trazado 107868" d="M415.1,335.912c-1.386-1.65.042-3.816,2.058-5.352s4.116-2.94,4.116-2.94l4.152,5.028C422.62,333.284,417.64,338.936,415.1,335.912Z" transform="translate(-365.919 -218.549)" fill="#ffb882"/>
              <path id="Trazado_107869" data-name="Trazado 107869" d="M419.46,329.6l4.422-3.6,4.692,6.2c-1.254.426-4.422,2.334-6.462,2.952C423.63,332.336,422.478,329.384,419.46,329.6Z" transform="translate(-367.882 -217.901)" fill="#ff9566"/>
              <path id="Trazado_107870" data-name="Trazado 107870" d="M446.242,242.85c8.13,15.528,5.724,35.868,5.322,39.174S434.2,304.35,434.2,304.35L424,292.038s11.532-13.086,11.73-15.726c0,0-6.09-12.666-6.684-19.374C428.008,245.5,438.748,228.546,446.242,242.85Z" transform="translate(-369.698 -182.451)" fill="#f2eedd"/>
              <path id="Trazado_107871" data-name="Trazado 107871" d="M435.22,292.772s-3.114-7.332-5.046-13.842a155.2,155.2,0,0,0,7.746,15.5c-.192,2.43-9.516,13.014-12.33,16.164L424,308.66S435.016,295.412,435.22,292.772Z" transform="translate(-369.698 -199.073)" fill="#e5ddbd"/>
              <path id="Trazado_107872" data-name="Trazado 107872" d="M453.582,281.226c.492-3.4,1.914-25.26-5.8-41.25-.246-.5-.492-.96-.744-1.386a11.342,11.342,0,0,1,4.032,4.746c8.13,15.528,7.29,36.762,6.888,40.068s-18.93,21.432-18.93,21.432l-2.952-3.546C441,296.388,453.186,283.944,453.582,281.226Z" transform="translate(-374.53 -182.937)" fill="#e5ddbd"/>
              <path id="Trazado_107873" data-name="Trazado 107873" d="M433.252,211.384l-3.462,9.1L413.266,224l-1.476-5.112,6.744-13.23Z" transform="translate(-364.814 -169.765)" fill="#ffb882"/>
              <path id="Trazado_107874" data-name="Trazado 107874" d="M414.42,232.122l.678,2.2-3.726,2.118-.072-3.312,1.77-2.034Z" transform="translate(-364.618 -179.937)" fill="#6d63aa"/>
              <path id="Trazado_107875" data-name="Trazado 107875" d="M416.592,236.326c0-.288-.882-6.378-.882-6.378l16.614-3.378.81,2.346Z" transform="translate(-366.382 -178.129)" fill="#f2eedd"/>
              <path id="Trazado_107876" data-name="Trazado 107876" d="M409.122,226.5l1.752-1.4,1.956,4.26-4.32,3.15Z" transform="translate(-363.502 -177.541)" fill="#f2eedd"/>
              <path id="Trazado_107877" data-name="Trazado 107877" d="M389.158,489.68H382.27s5.6-2.934,6.21-2.124A4.547,4.547,0,0,1,389.158,489.68Z" transform="translate(-353.006 -282.466)" fill="#f4eab5"/>
              <path id="Trazado_107878" data-name="Trazado 107878" d="M439.921,489.374h-4.992s-.27-2.934,1.416-2.712C437.3,486.788,439.921,489.374,439.921,489.374Z" transform="translate(-374.064 -282.161)" fill="#f4eab5"/>
              <path id="Trazado_107879" data-name="Trazado 107879" d="M387.424,368.182l5.988-1.662-6.54-.222L381.4,363.94Z" transform="translate(-352.658 -233.077)" fill="#593c43"/>
              <path id="Trazado_107880" data-name="Trazado 107880" d="M389.56,334.558l.138,2.274-3.246-1.686-.132-1.836Z" transform="translate(-354.626 -220.825)" fill="#8e6c75"/>
              <path id="Trazado_107881" data-name="Trazado 107881" d="M335.214,267.375c.468,2.472,4.71,1.05,6.534-2.142,2-3.5,6.306-9.486,6.6-13.38.072-.894-2.1-2.13-3-.462-1.152,2.16-2.826,6-6.732,7.974C336.5,260.427,334.836,265.359,335.214,267.375Z" transform="translate(-334.162 -187.728)" fill="#ffb882"/>
              <path id="Trazado_107882" data-name="Trazado 107882" d="M444.456,304.3l5.94.954-6.006-2.646Z" transform="translate(-377.854 -208.545)" fill="#e5ddbd"/>
              <path id="Trazado_107883" data-name="Trazado 107883" d="M444.222,302.58l4.926-2.58-5.658,1.1Z" transform="translate(-377.494 -207.501)" fill="#e5ddbd"/>
              <path id="Trazado_107884" data-name="Trazado 107884" d="M419.53,343.192l-.744,2.016-.336-2.058Z" transform="translate(-367.478 -224.761)" fill="#ff9566"/>
              <path id="Trazado_107885" data-name="Trazado 107885" d="M408.726,236.6c-1.662,2.6-3.732,8.334-5.766,14.886.06,2.484.222,4.146.222,4.146l1.542-1.32a165.4,165.4,0,0,1,4.662-17.286Z" transform="translate(-361.282 -182.141)" fill="#6d63aa"/>
              <path id="Trazado_107886" data-name="Trazado 107886" d="M416.738,232.576a12.713,12.713,0,0,1-9.828-12.762c.408-.144.822-.288,1.242-.42v-.09l.27-.126.048-.456,1.752-1.4.192.408,6.15-12.072,14.724,5.724-2.61,6.846h.108l.81,2.346-.666.3,1.572,1.2h0a33.351,33.351,0,0,1,3.822,2.874,5.306,5.306,0,0,1,1.032.48h0c.15.084.3.2.45.3C429.992,228.94,423.164,234.286,416.738,232.576Z" transform="translate(-362.862 -169.765)" fill="#843131" opacity="0.6"/>
              <path id="Trazado_107887" data-name="Trazado 107887" d="M437.72,182.26c-2.646,7.1-4.914,12.558-9.39,15.474s-15.258-.114-17.91-3.048c0,0,7.5-26.4,13.242-30S442.25,170.1,437.72,182.26Z" transform="translate(-364.266 -153.055)" fill="#ffb882"/>
              <path id="Trazado_107888" data-name="Trazado 107888" d="M435.228,179.56c-.054.18-.108.354-.174.534-2.646,7.1-4.764,11.706-9.24,14.616-3.4,2.214-10.116-.2-14.466-2.2-1.56,4.674-4.4,10.8-4.4,10.8,2.652,2.934,14.808,5.472,19.284,2.556s6.738-8.4,9.39-15.474A13.415,13.415,0,0,0,435.228,179.56Z" transform="translate(-362.878 -159.325)" fill="#683929"/>
              <path id="Trazado_107889" data-name="Trazado 107889" d="M446.53,187.31l-2.85,11.322,2.358.606,2.274-3.846Z" transform="translate(-377.57 -162.425)" fill="#683929"/>
              <path id="Trazado_107890" data-name="Trazado 107890" d="M434.67,163.494c7.722,4.038,9.294,19.122,8.07,27.87,0,0,12.786-5.61,9.306-15.348S440.586,161.28,434.67,163.494Z" transform="translate(-373.966 -152.691)" fill="#7f5240"/>
              <path id="Trazado_107891" data-name="Trazado 107891" d="M447.64,183.778a9.371,9.371,0,0,0,2.844-.048,5.868,5.868,0,0,0,4.98-5.49,7.649,7.649,0,0,1,2.46,3.57c3.48,9.738-10,15.66-10,15.66A46.93,46.93,0,0,0,447.64,183.778Z" transform="translate(-379.154 -158.797)" fill="#683929"/>
              <path id="Trazado_107892" data-name="Trazado 107892" d="M447.24,202.635c2.85-3.072,5.856-2.058,5.022.888s-4.8,5.616-6.486,4.3S446.262,203.709,447.24,202.635Z" transform="translate(-378.16 -167.807)" fill="#ffb882"/>
              <path id="Trazado_107893" data-name="Trazado 107893" d="M448.444,203.94c1.986-2.142,4.086-1.44,3.5.6s-3.348,3.924-4.53,3S447.742,204.69,448.444,203.94Z" transform="translate(-378.89 -168.554)" fill="#ea7b59"/>
              <path id="Trazado_107894" data-name="Trazado 107894" d="M447.86,207.267c1.2-1.314,2.514-.882,2.154.384s-2.058,2.4-2.784,1.842S447.428,207.729,447.86,207.267Z" transform="translate(-378.883 -170.088)" fill="#ffb882"/>
              <path id="Trazado_107895" data-name="Trazado 107895" d="M465.088,185.28s.642,7.362.768,10.47l-3.516.2Z" transform="translate(-385.034 -161.613)" fill="#683929"/>
              <path id="Trazado_107896" data-name="Trazado 107896" d="M455.72,169.68s4.752,5.3,6.642,7.626l-2.442.414Z" transform="translate(-382.386 -155.373)" fill="#683929"/>
              <path id="Trazado_107897" data-name="Trazado 107897" d="M408.9,310.558l15.042-17.688,1.53,2.586-15.048,17.688Z" transform="translate(-363.658 -204.649)" fill="#ea8686"/>
              <g id="Grupo_55680" data-name="Grupo 55680" transform="translate(49.423 15.953)">
                <path id="Trazado_107898" data-name="Trazado 107898" d="M423.625,184.4c.468-1.086,1.278-1.716,1.8-1.41s.57,1.44.1,2.526-1.278,1.716-1.8,1.41S423.157,185.49,423.625,184.4Z" transform="translate(-418.842 -176.619)" fill="#4f3131"/>
                <path id="Trazado_107899" data-name="Trazado 107899" d="M425.222,185.861c-.438-.858-7.8,7.89-8.166,9.252-.186.684,3.8,1.536,3.8,1.536S425.306,186.017,425.222,185.861Z" transform="translate(-416.341 -177.775)" fill="#ffb882"/>
                <path id="Trazado_107900" data-name="Trazado 107900" d="M424.306,186.16c-1.8,1.644-7.158,7.854-7.464,9-.138.516,2.292,1.17,3.318,1.392l-.15.36s-4.332-.714-4.134-1.386C416.26,194.23,423.412,186.16,424.306,186.16Z" transform="translate(-415.869 -177.918)" fill="#ea7b59"/>
                <path id="Trazado_107901" data-name="Trazado 107901" d="M434.207,188.2c.474-1.086,1.278-1.716,1.8-1.41s.6,1.44.108,2.52-1.278,1.722-1.8,1.416S433.739,189.284,434.207,188.2Z" transform="translate(-423.076 -178.139)" fill="#4f3131"/>
                <path id="Trazado_107902" data-name="Trazado 107902" d="M436.667,178.41c-.15,1.926,3.36,4.716,4.146,4.29s1.44-1,1.032-2.046-2.742-4.95-3.6-4.836S436.733,177.522,436.667,178.41Z" transform="translate(-424.186 -173.781)" fill="#7f5240"/>
                <path id="Trazado_107903" data-name="Trazado 107903" d="M427.777,175.769c-.6,1.566-3.876,1.068-4.236.174s-.6-1.83.042-2.316,3.552-1.7,4.062-.984A4.33,4.33,0,0,1,427.777,175.769Z" transform="translate(-418.794 -172.424)" fill="#7f5240"/>
                <path id="Trazado_107904" data-name="Trazado 107904" d="M422.677,209.365c.126-.726-.132-1.392-.6-1.482s-.912.42-1.038,1.152.132,1.392.6,1.482S422.551,210.1,422.677,209.365Z" transform="translate(-417.924 -186.603)" fill="#843131" opacity="0.6"/>
              </g>
              <path id="Trazado_107905" data-name="Trazado 107905" d="M399.993,280c.156-.87-.09-1.65-.552-1.734s-.966.558-1.122,1.434.09,1.65.552,1.734S399.837,280.875,399.993,280Z" transform="translate(-359.407 -198.804)" fill="#8e6c75"/>
              <path id="Trazado_107906" data-name="Trazado 107906" d="M398.1,292.139c.156-.876-.09-1.65-.552-1.734s-.966.558-1.122,1.428.09,1.65.552,1.734S397.953,293.009,398.1,292.139Z" transform="translate(-358.651 -203.66)" fill="#8e6c75"/>
              <path id="Trazado_107907" data-name="Trazado 107907" d="M396.213,308.369c.156-.876-.09-1.65-.552-1.734s-.966.558-1.122,1.428.09,1.65.552,1.734S396.057,309.251,396.213,308.369Z" transform="translate(-357.895 -210.152)" fill="#8e6c75"/>
              <path id="Trazado_107908" data-name="Trazado 107908" d="M390.724,263.032l-6.144-1.512s1.23-3.69,2.838-4.254S390.724,263.032,390.724,263.032Z" transform="translate(-353.93 -190.393)" fill="#684a51"/>
              <path id="Trazado_107909" data-name="Trazado 107909" d="M451.742,181.648l3.09-.426c-2.49-6.444-5.622-10.92-8.862-13.938a6.258,6.258,0,0,1,1.284,4.236,5.4,5.4,0,0,1-.6,1.992L434.456,163a8.238,8.238,0,0,0-2.886.51c.108.054.216.126.324.186a5.106,5.106,0,0,0-1.632.648,12.162,12.162,0,0,0-3.342,4.092,246.007,246.007,0,0,0,15,23.8c.12-.078.24-.168.36-.252l.462.654,3.984-3.51,2.2-2.13,2.4-.138c1.656,1.344,2.724,1.884,3.15,1.518.8-.7-.666-3-2.844-5.718Z" transform="translate(-370.866 -152.701)" fill="#843131" opacity="0.6"/>
              <path id="Trazado_107910" data-name="Trazado 107910" d="M460.986,150.734c-8.076-9.672-18.294-3.264-24.246,4.11l20.136,22.83S470.346,161.936,460.986,150.734Z" transform="translate(-374.794 -145.835)" fill="#513640"/>
              <path id="Trazado_107911" data-name="Trazado 107911" d="M466.914,161.08c-2.04,3.522-8.712,6.1-16.638,6.1a34.2,34.2,0,0,1-4.866-.342l14.934,16.932S470.736,171.628,466.914,161.08Z" transform="translate(-378.262 -151.933)" fill="#3d252f"/>
              <path id="Trazado_107912" data-name="Trazado 107912" d="M425.618,155.159c-.426,1.278,6.642,9.288,12.192,15.318,9.258,10.05,15.036,15.6,16.17,14.61,1.842-1.614-8.226-11.49-11.628-16.314S426.476,152.579,425.618,155.159Z" transform="translate(-370.338 -149.414)" fill="#724e5d"/>
              <path id="Trazado_107913" data-name="Trazado 107913" d="M450.424,178.048l-.06-.078a23.093,23.093,0,0,1-4.584,1.674l.1.108c9.258,10.05,15.036,15.6,16.17,14.61C463.912,192.748,453.826,182.872,450.424,178.048Z" transform="translate(-378.41 -158.689)" fill="#513640"/>
              <path id="Trazado_107914" data-name="Trazado 107914" d="M460.574,177.114a37.864,37.864,0,0,0,2.22-3.816L443.5,152.13a29.5,29.5,0,0,0-3.144,2.8Z" transform="translate(-376.242 -148.353)" fill="#f2eedd"/>
            </g>
          </g>
        </g>
        <g id="Grupo_55685" data-name="Grupo 55685" transform="translate(244.17 87.489)">
          <path id="Trazado_107915" data-name="Trazado 107915" d="M429.536,165.289c-2.172-5.442,16.8-9.342,26.274,15.252l-3.09.426-.234,2.874-4.74,4.572-8.112,7.116Z" transform="translate(-415.915 -151.99)" fill="#7f5240"/>
          <path id="Trazado_107916" data-name="Trazado 107916" d="M437.14,181.228c7.266.81,13.5-2.256,13.938-6.852a6.258,6.258,0,0,0-1.284-4.236c3.24,3,6.372,7.494,8.862,13.938l-3.09.426-.234,2.874-4.74,4.6L442.48,199.1l-6-17.964C436.708,181.168,436.918,181.2,437.14,181.228Z" transform="translate(-418.762 -155.557)" fill="#683929"/>
          <path id="Trazado_107917" data-name="Trazado 107917" d="M433.252,211.384l-3.462,9.1L413.266,224l-1.476-5.112,6.744-13.23Z" transform="translate(-408.886 -169.765)" fill="#ffb882"/>
          <path id="Trazado_107918" data-name="Trazado 107918" d="M414.42,232.122l.678,2.2-3.726,2.118-.072-3.312,1.77-2.034Z" transform="translate(-408.69 -179.937)" fill="#6d63aa"/>
          <path id="Trazado_107919" data-name="Trazado 107919" d="M416.592,236.326c0-.288-.882-6.378-.882-6.378l16.614-3.378.81,2.346Z" transform="translate(-410.454 -178.129)" fill="#f2eedd"/>
          <path id="Trazado_107920" data-name="Trazado 107920" d="M409.122,226.5l1.752-1.4,1.956,4.26-4.32,3.15Z" transform="translate(-407.574 -177.541)" fill="#f2eedd"/>
          <path id="Trazado_107921" data-name="Trazado 107921" d="M437.72,182.26c-2.646,7.1-4.914,12.558-9.39,15.474s-15.258-.114-17.91-3.048c0,0,7.5-26.4,13.242-30S442.25,170.1,437.72,182.26Z" transform="translate(-408.338 -153.055)" fill="#ffb882"/>
          <path id="Trazado_107922" data-name="Trazado 107922" d="M435.228,179.56c-.054.18-.108.354-.174.534-2.646,7.1-4.764,11.706-9.24,14.616-3.4,2.214-10.116-.2-14.466-2.2-1.56,4.674-4.4,10.8-4.4,10.8,2.652,2.934,14.808,5.472,19.284,2.556s6.738-8.4,9.39-15.474A13.415,13.415,0,0,0,435.228,179.56Z" transform="translate(-406.95 -159.325)" fill="#683929"/>
          <path id="Trazado_107923" data-name="Trazado 107923" d="M446.53,187.31l-2.85,11.322,2.358.606,2.274-3.846Z" transform="translate(-421.642 -162.425)" fill="#683929"/>
          <path id="Trazado_107924" data-name="Trazado 107924" d="M434.67,163.494c7.722,4.038,9.294,19.122,8.07,27.87,0,0,12.786-5.61,9.306-15.348S440.586,161.28,434.67,163.494Z" transform="translate(-418.038 -152.691)" fill="#7f5240"/>
          <path id="Trazado_107925" data-name="Trazado 107925" d="M447.64,183.778a9.371,9.371,0,0,0,2.844-.048,5.868,5.868,0,0,0,4.98-5.49,7.649,7.649,0,0,1,2.46,3.57c3.48,9.738-10,15.66-10,15.66A46.93,46.93,0,0,0,447.64,183.778Z" transform="translate(-423.226 -158.797)" fill="#683929"/>
          <path id="Trazado_107926" data-name="Trazado 107926" d="M447.24,202.635c2.85-3.072,5.856-2.058,5.022.888s-4.8,5.616-6.486,4.3S446.262,203.709,447.24,202.635Z" transform="translate(-422.232 -167.807)" fill="#ffb882"/>
          <path id="Trazado_107927" data-name="Trazado 107927" d="M448.444,203.94c1.986-2.142,4.086-1.44,3.5.6s-3.348,3.924-4.53,3S447.742,204.69,448.444,203.94Z" transform="translate(-422.962 -168.554)" fill="#ea7b59"/>
          <path id="Trazado_107928" data-name="Trazado 107928" d="M447.86,207.267c1.2-1.314,2.514-.882,2.154.384s-2.058,2.4-2.784,1.842S447.428,207.729,447.86,207.267Z" transform="translate(-422.954 -170.088)" fill="#ffb882"/>
          <path id="Trazado_107929" data-name="Trazado 107929" d="M465.088,185.28s.642,7.362.768,10.47l-3.516.2Z" transform="translate(-429.106 -161.613)" fill="#683929"/>
          <path id="Trazado_107930" data-name="Trazado 107930" d="M455.72,169.68s4.752,5.3,6.642,7.626l-2.442.414Z" transform="translate(-426.458 -155.373)" fill="#683929"/>
          <g id="Grupo_55684" data-name="Grupo 55684" transform="translate(5.351 15.953)">
            <path id="Trazado_107931" data-name="Trazado 107931" d="M423.625,184.4c.468-1.086,1.278-1.716,1.8-1.41s.57,1.44.1,2.526-1.278,1.716-1.8,1.41S423.157,185.49,423.625,184.4Z" transform="translate(-418.842 -176.619)" fill="#4f3131"/>
            <path id="Trazado_107932" data-name="Trazado 107932" d="M425.222,185.861c-.438-.858-7.8,7.89-8.166,9.252-.186.684,3.8,1.536,3.8,1.536S425.306,186.017,425.222,185.861Z" transform="translate(-416.341 -177.775)" fill="#ffb882"/>
            <path id="Trazado_107933" data-name="Trazado 107933" d="M424.306,186.16c-1.8,1.644-7.158,7.854-7.464,9-.138.516,2.292,1.17,3.318,1.392l-.15.36s-4.332-.714-4.134-1.386C416.26,194.23,423.412,186.16,424.306,186.16Z" transform="translate(-415.869 -177.918)" fill="#ea7b59"/>
            <path id="Trazado_107934" data-name="Trazado 107934" d="M434.207,188.2c.474-1.086,1.278-1.716,1.8-1.41s.6,1.44.108,2.52-1.278,1.722-1.8,1.416S433.739,189.284,434.207,188.2Z" transform="translate(-423.076 -178.139)" fill="#4f3131"/>
            <path id="Trazado_107935" data-name="Trazado 107935" d="M436.667,178.41c-.15,1.926,3.36,4.716,4.146,4.29s1.44-1,1.032-2.046-2.742-4.95-3.6-4.836S436.733,177.522,436.667,178.41Z" transform="translate(-424.186 -173.781)" fill="#7f5240"/>
            <path id="Trazado_107936" data-name="Trazado 107936" d="M427.777,175.769c-.6,1.566-3.876,1.068-4.236.174s-.6-1.83.042-2.316,3.552-1.7,4.062-.984A4.33,4.33,0,0,1,427.777,175.769Z" transform="translate(-418.794 -172.424)" fill="#7f5240"/>
            <path id="Trazado_107937" data-name="Trazado 107937" d="M422.677,209.365c.126-.726-.132-1.392-.6-1.482s-.912.42-1.038,1.152.132,1.392.6,1.482S422.551,210.1,422.677,209.365Z" transform="translate(-417.924 -186.603)" fill="#843131" opacity="0.6"/>
          </g>
          <path id="Trazado_107938" data-name="Trazado 107938" d="M451.742,181.648l3.09-.426c-2.49-6.444-5.622-10.92-8.862-13.938a6.258,6.258,0,0,1,1.284,4.236,5.4,5.4,0,0,1-.6,1.992L434.456,163a8.238,8.238,0,0,0-2.886.51c.108.054.216.126.324.186a5.106,5.106,0,0,0-1.632.648,12.162,12.162,0,0,0-3.342,4.092,246.007,246.007,0,0,0,15,23.8c.12-.078.24-.168.36-.252l.462.654,3.984-3.51,2.2-2.13,2.4-.138c1.656,1.344,2.724,1.884,3.15,1.518.8-.7-.666-3-2.844-5.718Z" transform="translate(-414.938 -152.701)" fill="#843131" opacity="0.6"/>
          <path id="Trazado_107939" data-name="Trazado 107939" d="M460.986,150.734c-8.076-9.672-18.294-3.264-24.246,4.11l20.136,22.83S470.346,161.936,460.986,150.734Z" transform="translate(-418.866 -145.835)" fill="#513640"/>
          <path id="Trazado_107940" data-name="Trazado 107940" d="M466.914,161.08c-2.04,3.522-8.712,6.1-16.638,6.1a34.2,34.2,0,0,1-4.866-.342l14.934,16.932S470.736,171.628,466.914,161.08Z" transform="translate(-422.334 -151.933)" fill="#3d252f"/>
          <path id="Trazado_107941" data-name="Trazado 107941" d="M425.618,155.159c-.426,1.278,6.642,9.288,12.192,15.318,9.258,10.05,15.036,15.6,16.17,14.61,1.842-1.614-8.226-11.49-11.628-16.314S426.476,152.579,425.618,155.159Z" transform="translate(-414.41 -149.414)" fill="#724e5d"/>
          <path id="Trazado_107942" data-name="Trazado 107942" d="M450.424,178.048l-.06-.078a23.093,23.093,0,0,1-4.584,1.674l.1.108c9.258,10.05,15.036,15.6,16.17,14.61C463.912,192.748,453.826,182.872,450.424,178.048Z" transform="translate(-422.482 -158.689)" fill="#513640"/>
          <path id="Trazado_107943" data-name="Trazado 107943" d="M460.574,177.114a37.864,37.864,0,0,0,2.22-3.816L443.5,152.13a29.5,29.5,0,0,0-3.144,2.8Z" transform="translate(-420.314 -148.353)" fill="#f2eedd"/>
        </g>
        <g id="Grupo_55686" data-name="Grupo 55686" transform="translate(24.222 79.842)">
          <path id="Trazado_107944" data-name="Trazado 107944" d="M40.37,148.078a101.827,101.827,0,0,1,15.294,26.268L82.592,158.29c-7.464-8.736-13.842-17.25-17.244-25.2A63,63,0,0,0,40.37,148.078Z" transform="translate(-40.37 -133.09)" fill="#4c313a"/>
          <path id="Trazado_107945" data-name="Trazado 107945" d="M59.364,158.35a41.974,41.974,0,0,1-6.318-16.2,65.736,65.736,0,0,0-12.636,9.522A101.826,101.826,0,0,1,55.7,177.94l13.86-8.244a43.632,43.632,0,0,1-10.2-11.346Z" transform="translate(-40.386 -136.714)" fill="#352028"/>
          <path id="Trazado_107946" data-name="Trazado 107946" d="M59.94,178.908,85.05,163.17q-2.2-2.718-4.2-5.4l-24,15.036C57.942,174.8,58.956,176.832,59.94,178.908Z" transform="translate(-46.962 -142.962)" fill="#fffbd7"/>
        </g>
      </g>
    </g>
  </g>
</svg>
