<svg xmlns="http://www.w3.org/2000/svg" xmlns:xlink="http://www.w3.org/1999/xlink" width="375" height="375" viewBox="0 0 375 375">
  <defs>
    <clipPath id="clip-path">
      <circle id="Elipse_4102" data-name="Elipse 4102" cx="159.465" cy="159.465" r="159.465" fill="none"/>
    </clipPath>
  </defs>
  <g id="Grupo_55717" data-name="Grupo 55717" transform="translate(-915 -375)">
    <g id="Grupo_55715" data-name="Grupo 55715">
      <g id="Layer_1" data-name="Layer 1" transform="translate(915 375)">
        <g id="Grupo_54563" data-name="Grupo 54563">
          <rect id="Rectángulo_5623" data-name="Rectángulo 5623" width="375" height="375" fill="none"/>
          <circle id="Elipse_4101" data-name="Elipse 4101" cx="159.465" cy="159.465" r="159.465" transform="translate(36.675 35.685)" fill="#eef0e3"/>
          <path id="Trazado_104336" data-name="Trazado 104336" d="M208.2,47.09A158.707,158.707,0,0,0,49.38,205.91a5.677,5.677,0,0,0,11.355,0A147.337,147.337,0,0,1,208.2,58.445a5.678,5.678,0,0,0,0-11.355Z" transform="translate(-12.345 -11.772)" fill="#b3b4aa"/>
          <g id="Grupo_54518" data-name="Grupo 54518" transform="translate(16.262 15.025)">
            <path id="Trazado_104337" data-name="Trazado 104337" d="M60.861,424.843a152.611,152.611,0,0,1-10.867-12.562c-3.225-4.185-6.27-8.573-9.683-13.823a10.126,10.126,0,1,0-17,11c3.6,5.55,6.982,10.5,10.65,15.225a172.853,172.853,0,0,0,12.278,14.2,10.124,10.124,0,1,0,14.626-14Z" transform="translate(-21.682 -113.483)" fill="#d5d9ba"/>
            <path id="Trazado_104338" data-name="Trazado 104338" d="M98.222,475.509c-2.948-2.25,2.82,2.408,0,0" transform="translate(-40.601 -133.744)" fill="#9b6771"/>
            <path id="Trazado_104339" data-name="Trazado 104339" d="M84.14,473.892a10.313,10.313,0,0,0,1.193,2.9c.2.33.36.548.488.75.262.353.435.548.57.7.255.293.4.428.51.54s.307.293.4.375l.375.323.548.457.84.675.465.353.458.322.247.158a8.779,8.779,0,0,0,.8.457,9.7,9.7,0,0,0,1.095.48,10.007,10.007,0,0,0,1.163.353,9.5,9.5,0,0,0,1.215.21h1.162a10.586,10.586,0,0,0,1.38-.1,10.741,10.741,0,0,0,1.763-.412,9.643,9.643,0,0,0,1.86-.825,10.093,10.093,0,0,0,4.657-11.843,10.052,10.052,0,0,0-.592-1.5,10.2,10.2,0,0,0-.75-1.312,7.083,7.083,0,0,0-.435-.57c-.217-.262-.345-.412-.457-.525s-.308-.315-.4-.405l-.345-.315c-.135-.128-.255-.232-.4-.352l-.48-.413a2.369,2.369,0,0,0-.218-.165l-.195-.172h0l-.817-.615-.473-.33c-.12-.083-.255-.173-.592-.375a9.5,9.5,0,0,0-.878-.458,11.732,11.732,0,0,0-1.125-.443l-.51-.15H95.622c-.232-.037-.54-.075-.923-.105h-.982a9.539,9.539,0,0,0-1.575.165,10.607,10.607,0,0,0-1.785.51,10.177,10.177,0,0,0-3.39,2.01A10.059,10.059,0,0,0,85.16,466.6a9.8,9.8,0,0,0-1.11,3.053,9.509,9.509,0,0,0-.18,1.89A9.915,9.915,0,0,0,84.14,473.892Zm10.583,9.075ZM96.575,461.75ZM96.477,461.75ZM96.05,461.652Z" transform="translate(-37.229 -130.418)" fill="#bd9aa0"/>
            <path id="Trazado_104340" data-name="Trazado 104340" d="M408.39,31.53a204.382,204.382,0,0,1,54.457,50.858" transform="translate(-118.359 -22.908)" fill="#590212"/>
            <path id="Trazado_104341" data-name="Trazado 104341" d="M400.881,35.931a195.637,195.637,0,0,1,52.147,48.705A8.624,8.624,0,1,0,466.9,74.39a212.949,212.949,0,0,0-56.746-53,8.625,8.625,0,1,0-9.278,14.543Z" transform="translate(-115.485 -20.034)" fill="#deccd0"/>
            <path id="Trazado_104342" data-name="Trazado 104342" d="M458.318,409.148c-2.048,2.678,2.182-2.557,0,0" transform="translate(-130.697 -117.131)" fill="#9b6771"/>
            <path id="Trazado_104343" data-name="Trazado 104343" d="M456.409,418.79a14.687,14.687,0,0,0,1.957-.638,13.5,13.5,0,0,0,2.033-1.035c.442-.27.75-.487.99-.668.472-.352.75-.577.938-.75.39-.352.57-.532.75-.682.27-.27.383-.4.487-.517s.27-.315.375-.435.315-.367.465-.555.443-.548.668-.84c.112-.15.225-.285.4-.518l.165-.225.172-.255.21-.307.232-.375c.068-.12.158-.263.255-.45a13.255,13.255,0,0,0,.675-1.38,13.7,13.7,0,0,0,.555-1.6,13.109,13.109,0,0,0,.323-1.44,13.868,13.868,0,0,0-2.73-10.83,14.047,14.047,0,0,0-2.767-2.693,14.461,14.461,0,0,0-2.355-1.38,13.786,13.786,0,0,0-3.263-1.042,13.5,13.5,0,0,0-2.565-.24,13.867,13.867,0,0,0-5.318,1.057,14.531,14.531,0,0,0-1.5.712,15.125,15.125,0,0,0-1.432.922c-.3.225-.5.39-.675.525-.315.27-.495.435-.645.577s-.4.383-.51.5l-.383.413-.375.427-.4.465c-.082.1-.15.2-.232.3s-.157.18-.232.278h0c-.247.322-.428.555-.622.825l-.165.225-.165.232-.172.27c-.06.082-.12.18-.2.315l-.225.375c-.075.12-.15.262-.255.45a14.607,14.607,0,0,0-1.155,2.948,13.853,13.853,0,0,0,9.653,16.935,14.249,14.249,0,0,0,3,.5h.75a13.9,13.9,0,0,0,3.293-.4Z" transform="translate(-126.073 -112.508)" fill="#eef0e3"/>
            <path id="Trazado_104344" data-name="Trazado 104344" d="M55.27,111.6A185.476,185.476,0,0,1,101.44,62.17" transform="translate(-30.079 -30.568)" fill="#590212"/>
            <path id="Trazado_104345" data-name="Trazado 104345" d="M58.522,112.9A178.988,178.988,0,0,1,103.1,65.164,6.377,6.377,0,0,0,95.527,54.9a192,192,0,0,0-47.76,51.143A6.377,6.377,0,1,0,58.522,112.9Z" transform="translate(-27.953 -28.439)" fill="#f1cdcd"/>
          </g>
          <path id="Trazado_104346" data-name="Trazado 104346" d="M221.89,32.58a173.377,173.377,0,0,0-19.02-1.05,172.157,172.157,0,0,0-18.638,343.283,7.345,7.345,0,1,0,1.605-14.6,157.458,157.458,0,1,1,34.44-313.028,7.346,7.346,0,0,0,1.613-14.6Z" transform="translate(-7.727 -7.882)" fill="#e6e8d6"/>
          <g id="Grupo_54562" data-name="Grupo 54562" transform="translate(36.675 35.685)" clip-path="url(#clip-path)">
            <g id="Grupo_54561" data-name="Grupo 54561" transform="translate(17.694 42.252)">
              <g id="Grupo_54526" data-name="Grupo 54526" transform="translate(0 65.518)">
                <path id="Trazado_104347" data-name="Trazado 104347" d="M130.682,270.45c7.268,3.285,23.67,37.793,15.75,42.12-2.85,1.552-6.645-.855-8.932-5.88-3.315-7.3-8.423-16.133-12.18-22.5Z" transform="translate(-85.699 -211.067)" fill="#0faab2"/>
                <path id="Trazado_104348" data-name="Trazado 104348" d="M116.6,239.25a19.808,19.808,0,0,1,3.233,9.563c.27,5.423-.315,13.1,4.62,9.63-.308,5.55-8.055,11.063-12.353,8.422s-4.215-16.342-4.215-16.342Z" transform="translate(-81.341 -203.267)" fill="#aa4805"/>
                <g id="Grupo_54519" data-name="Grupo 54519" transform="translate(0 23.882)">
                  <path id="Trazado_104349" data-name="Trazado 104349" d="M78.828,225.549s-4.6-2.723-5.325-2.408-1.275,6.09-.878,6.69,5.805-1.4,5.805-1.4Z" transform="translate(-72.492 -223.116)" fill="#2e2b3d"/>
                  <path id="Trazado_104350" data-name="Trazado 104350" d="M78.911,229.49s-4.5,2.25-4.845,2.745,1.5,3.217,2.085,3.173,3.855-4.785,3.855-4.785Z" transform="translate(-72.875 -224.71)" fill="#2e2b3d"/>
                </g>
                <path id="Trazado_104351" data-name="Trazado 104351" d="M78.205,230.19s-3.09,4.035-2.25,10.9c.645,5.34,6.877,12.96,4.5,18.57-1.658,3.93-5.085,2.775-5.085,2.775s8.94,10.935,22.088.645c10.163-7.95.1-24.87.1-24.87Z" transform="translate(-73.211 -201.002)" fill="#ba5604"/>
                <path id="Trazado_104352" data-name="Trazado 104352" d="M122.305,198.729s4.808-.75,6.345,4.98-2.618,11.408-2.618,11.408l-6.472-10.635Z" transform="translate(-84.259 -193.129)" fill="#ba5604"/>
                <path id="Trazado_104353" data-name="Trazado 104353" d="M97.467,264.81c7.283-5.7,4.178-15.983,1.83-21.36l-14.512-6.36s-1.77,1.83-1.86,6.885c-.052,2.963,5.137,14.64.42,19.5a5.817,5.817,0,0,1-7.965.675S84.32,275.1,97.467,264.81Z" transform="translate(-73.214 -202.727)" fill="#aa4805"/>
                <path id="Trazado_104354" data-name="Trazado 104354" d="M101.338,244.863c-.292-.855-.592-1.665-.9-2.4-2.842,2.325-5.25,3.93-6.2,3.75-4-.75-12.158-6.277-15.36-15.652a1.509,1.509,0,0,1-.075.135c.262,10.927,11.842,18,16.185,18.84C96,249.722,98.368,247.307,101.338,244.863Z" transform="translate(-74.069 -201.095)" fill="#aa4805"/>
                <path id="Trazado_104355" data-name="Trazado 104355" d="M149.768,313.3c3.75,14.73-14.032,31.995-14.032,31.995l-3.255-5.79s5.565-11.475,6.818-22.117C139.9,312.306,149.768,313.3,149.768,313.3Z" transform="translate(-87.489 -221.761)" fill="#0faab2"/>
                <g id="Grupo_54520" data-name="Grupo 54520" transform="translate(13.195 178.73)">
                  <path id="Trazado_104356" data-name="Trazado 104356" d="M119.982,429.61s.75,15.338-.12,24.367c-1.208,12.622-.99,15.855-2.783,37.418s-3.435,35.625-3.435,35.625l-3,.367s-8.34-35.467-6.9-47.4,6.563-24.592,6.563-24.592l-6.278-25.815Z" transform="translate(-93.458 -429.58)" fill="#ed9558"/>
                  <path id="Trazado_104357" data-name="Trazado 104357" d="M113.107,454.47s-1.012,1.215-2.437,3l1,4.155s-1.2,3.967-2.625,8.467a37.01,37.01,0,0,0,11.423-.878c.188-2.678.42-5.483.75-9,.165-1.7.27-3.63.33-5.64Z" transform="translate(-94.826 -435.803)" fill="#d87239"/>
                  <path id="Trazado_104358" data-name="Trazado 104358" d="M109.964,429.91s-.225,15.367-1.658,24.413c-2,12.652-2,15.892-5.145,37.5s-5.715,35.25-5.715,35.25l-3,.367s-6.075-35.115-3.885-47.077,8.107-24.615,8.107-24.615L94.034,429.88Z" transform="translate(-90.085 -429.655)" fill="#ffb476"/>
                  <path id="Trazado_104359" data-name="Trazado 104359" d="M102.39,454.82s-1.087,1.215-2.632,3l.75,4.162s-1.425,3.045-3.128,7.545a57.13,57.13,0,0,0,11.408.75c.36-2.685.75-6.187,1.342-9.75.27-1.7.5-3.638.69-5.648Z" transform="translate(-91.909 -435.89)" fill="#ed9558"/>
                </g>
                <path id="Trazado_104360" data-name="Trazado 104360" d="M77.962,356.37s-12.75,30.682,8.25,78.75l34.35.75c11.97-42.652,4.823-77.527,4.823-77.527Z" transform="translate(-72.901 -232.547)" fill="#c83737"/>
                <path id="Trazado_104361" data-name="Trazado 104361" d="M77.688,360.495l-.067-.293a23.452,23.452,0,0,1,1.215-3.832l47.423,1.973s.45,3.42.638,4.8C126.872,363.18,100.135,368.092,77.688,360.495Z" transform="translate(-73.774 -232.547)" fill="#5d0303"/>
                <path id="Trazado_104362" data-name="Trazado 104362" d="M85.266,426.595c-19.41-48.855-7.275-78.75-7.275-78.75,4.875-12.982,15.75-21.7,17.768-25.665l18.99,2.393s-20.8-7.028-25.837,24.847c-4.89,30.96-4.718,68.385,31.65,77.9C120.561,427.315,98.369,431.643,85.266,426.595Z" transform="translate(-72.93 -224)" fill="#8c0404"/>
                <path id="Trazado_104363" data-name="Trazado 104363" d="M115.907,217.821s-3.54-12-2.573-17.212c-1.433-11.453-29.355-14.625-34.9,3.555-5.9,19.35,9.4,31.133,15.375,32.25C97.074,236.991,115.907,217.821,115.907,217.821Z" transform="translate(-73.645 -191.273)" fill="#ba5604"/>
                <path id="Trazado_104364" data-name="Trazado 104364" d="M98.1,307.213c-.338-1.867-7.687-7.388-11.632-15.683-5.055-10.62-4.005-16.567-4.005-16.567,13.245-7.777,20.925-10.073,37.5-5.332l1.882,9.75s4,7.035,3.885,10.447c-.75,4.935-10.177,13.935-9.652,18.99Z" transform="translate(-74.961 -210.248)" fill="#1ac4c9"/>
                <path id="Trazado_104365" data-name="Trazado 104365" d="M90.37,271.718c.1.112,9.323,10.755,21.585,13.057,0,0,4.62-7.7,4.5-16.5C105.7,265.981,99.092,267.241,90.37,271.718Z" transform="translate(-76.961 -210.243)" fill="#f4e4ec"/>
                <path id="Trazado_104366" data-name="Trazado 104366" d="M79.24,341.625c5.46-15.75,18.57-24.105,18.075-26.858-.308-1.71-7.838-7.342-11.8-16.11,28.455,4.4,39.412-1.268,39.412-1.268l-.172,1.388c-1.447,4.215-9.945,13.125-9.48,17.6.525,5.055,8.873,12.262,11.385,27.247C114.13,345.285,95.042,344.5,79.24,341.625Z" transform="translate(-74.179 -217.802)" fill="#0faab2"/>
                <path id="Trazado_104367" data-name="Trazado 104367" d="M79.8,354.3c-.2.518-.42,1.02-.6,1.552,15.8,2.872,34.89,3.66,47.423,2-.1-.57-.255-1.057-.368-1.6C113.91,357.825,95.37,357.075,79.8,354.3Z" transform="translate(-74.169 -232.03)" fill="#dbb4d1"/>
                <path id="Trazado_104368" data-name="Trazado 104368" d="M94.52,239.74s5.355,13.9,3.158,24.165l10.252.652,5.25-1.5a41.6,41.6,0,0,1-3.21-14.377C109.715,242.545,94.52,239.74,94.52,239.74Z" transform="translate(-77.999 -203.39)" fill="#ed9558"/>
                <path id="Trazado_104369" data-name="Trazado 104369" d="M111.482,258.155a44.391,44.391,0,0,1-1.245-7.537c-4.29-3.99-12.893-7.35-15.1-8.078,1.32,4.155,3.93,12.255,2.842,19.665-1.417.54,6.562,5.1,9,2.3a30.839,30.839,0,0,0,4.5-6.353Z" transform="translate(-78.154 -204.09)" fill="#d87239"/>
                <path id="Trazado_104370" data-name="Trazado 104370" d="M112.007,245.342c1.5-.322,3.5-3.285,4.83-4.86,2.828-3.337,5.355-7.305,2.625-15.165,0,0,4.192-21.323-13-21.457s-18.308,17.017-13.32,29.355A19.18,19.18,0,0,0,112.007,245.342Z" transform="translate(-77.006 -194.42)" fill="#ffb476"/>
                <path id="Trazado_104371" data-name="Trazado 104371" d="M102.145,204.44c-11.745,3.277-9.923,39.832,10.035,40.973a1.831,1.831,0,0,1-.18.075,19.214,19.214,0,0,1-18.87-12.142C88.645,222.163,89.162,207.035,102.145,204.44Z" transform="translate(-77.013 -194.565)" fill="#ed9558"/>
                <path id="Trazado_104372" data-name="Trazado 104372" d="M119.187,223.29s-3.075,3.315-2.168,7.387a6.285,6.285,0,0,0,4.5,4.837s-.66,3-3.36,3.18,1.942-2.887,1.942-2.887-3.75-2.01-4.335-4.973C114.972,226.628,119.187,223.29,119.187,223.29Z" transform="translate(-83.286 -199.277)" fill="#ed9558"/>
                <path id="Trazado_104373" data-name="Trazado 104373" d="M106.936,222.582c.1.45-1.448.42-4.268,1.208-2.565.712-4.418,1.8-4.5,1.357s1.147-2,4.155-2.88S106.741,221.712,106.936,222.582Z" transform="translate(-78.91 -198.892)" fill="#ba5604"/>
                <path id="Trazado_104374" data-name="Trazado 104374" d="M127.717,223.77c-.135.525-.458-.21-2.842-.818-1.913-.495-4.028-.525-4.005-.892.067-1.118,2.408-1.035,4.147-.443C127.417,222.428,127.815,223.418,127.717,223.77Z" transform="translate(-84.586 -198.752)" fill="#ba5604"/>
                <g id="Grupo_54521" data-name="Grupo 54521" transform="translate(27.63 40.923)">
                  <path id="Trazado_104375" data-name="Trazado 104375" d="M110.1,247.537c-.045.128-.457.113-.592.067a.255.255,0,0,1-.158-.322.248.248,0,0,1,.323-.158C109.833,247.17,110.14,247.4,110.1,247.537Z" transform="translate(-109.332 -246.155)" fill="#93271c"/>
                  <path id="Trazado_104376" data-name="Trazado 104376" d="M124.373,246.417c.09.112.465-.06.57-.15a.255.255,0,0,0-.323-.39C124.508,245.959,124.283,246.312,124.373,246.417Z" transform="translate(-113.087 -245.837)" fill="#93271c"/>
                  <path id="Trazado_104377" data-name="Trazado 104377" d="M109.93,247.252l11.085-.832s-1.583,3.457-5.115,3.795S109.93,247.252,109.93,247.252Z" transform="translate(-109.481 -245.983)" fill="#9a6335"/>
                  <path id="Trazado_104378" data-name="Trazado 104378" d="M109.93,247.252l11.085-.832s-1.583,3.457-5.115,3.795S109.93,247.252,109.93,247.252Z" transform="translate(-109.481 -245.983)" fill="#93271c"/>
                  <path id="Trazado_104379" data-name="Trazado 104379" d="M111,247.623l9-.683s-1.5,3-4.5,3a5.542,5.542,0,0,1-4.5-2.317Z" transform="translate(-109.749 -246.113)" fill="#f4e6e1"/>
                  <path id="Trazado_104380" data-name="Trazado 104380" d="M111,247.623l9-.683-.458.712s-1-.48-3.945-.195a16.942,16.942,0,0,0-4.1.75S111.165,247.795,111,247.623Z" transform="translate(-109.749 -246.113)" fill="#d5b698"/>
                </g>
                <path id="Trazado_104381" data-name="Trazado 104381" d="M96.385,203.713c-11.52,7.013-5.85,21.99-5.85,21.99s1.913,1.3,2.67,1.1c1.132-.308.39-1.283.225-6.053.435-9.1,7.987-9.892,18-13.117,5.707-1.845,5.04-6.75,5.04-6.75S109.982,195.741,96.385,203.713Z" transform="translate(-76.654 -193.268)" fill="#ba5604"/>
                <g id="Grupo_54522" data-name="Grupo 54522" transform="translate(20.834 28.003)">
                  <path id="Trazado_104382" data-name="Trazado 104382" d="M108.53,232.27s.375,3-3.75,2.813c-2.49-.27-2.925-1.98-2.663-2.1S108.53,232.27,108.53,232.27Z" transform="translate(-100.715 -229.526)" fill="#562824"/>
                  <path id="Trazado_104383" data-name="Trazado 104383" d="M108.085,231.355l-6.232.908-1.583-.4a6.63,6.63,0,0,1,3.315-3.053C105.55,228.19,108.018,229,108.085,231.355Z" transform="translate(-100.27 -228.611)" fill="#562824"/>
                  <path id="Trazado_104384" data-name="Trazado 104384" d="M108.629,231.674c-.113-1.05-1.23-2.34-3.45-1.913s-3.068,2.145-2.618,3.158C103.356,234.7,108.764,234.832,108.629,231.674Z" transform="translate(-100.814 -228.878)" fill="#f4e6e1"/>
                  <path id="Trazado_104385" data-name="Trazado 104385" d="M104.52,231.855a2.385,2.385,0,1,0,2.355-2.415A2.385,2.385,0,0,0,104.52,231.855Z" transform="translate(-101.332 -228.818)" fill="#562824"/>
                </g>
                <g id="Grupo_54523" data-name="Grupo 54523" transform="translate(36.115 26.991)">
                  <path id="Trazado_104386" data-name="Trazado 104386" d="M120.69,232.046s.33,2.212,3.42,1.665c2.34-.413,2.513-1.95,1.695-1.635S120.69,232.046,120.69,232.046Z" transform="translate(-120.657 -228.454)" fill="#562824"/>
                  <path id="Trazado_104387" data-name="Trazado 104387" d="M120.679,230.853c1,.39,3.18-.21,5.408-.855l1.1-.517a3.982,3.982,0,0,0-4.11-2.183,3.187,3.187,0,0,0-2.4,3.555Z" transform="translate(-120.645 -227.261)" fill="#562824"/>
                  <path id="Trazado_104388" data-name="Trazado 104388" d="M120.82,230.64a2.591,2.591,0,0,1,3.135-2.167c2.1.217,2.647,2.115,2.25,2.8C125.17,233.2,120.775,233.52,120.82,230.64Z" transform="translate(-120.689 -227.558)" fill="#f4e6e1"/>
                  <path id="Trazado_104389" data-name="Trazado 104389" d="M122.4,230.47a2.2,2.2,0,1,0,.617-1.575,2.2,2.2,0,0,0-.617,1.575Z" transform="translate(-121.084 -227.501)" fill="#562824"/>
                </g>
                <path id="Trazado_104390" data-name="Trazado 104390" d="M115.69,268.016l-1.867,9.622-5.85-5.8-3.48,7.418-11.153-8.6a20.44,20.44,0,0,1,4.387-1.747c2.647-.892,6.12.3,8.91.12,1.77-.12,2.76-1.83,4.71-1.65S115.69,268.016,115.69,268.016Z" transform="translate(-77.704 -210.298)" fill="#dbb4d1"/>
                <path id="Trazado_104391" data-name="Trazado 104391" d="M97.592,262.29,94.6,268.5l9.533,6.78,3.608-7.717Z" transform="translate(-78.019 -209.027)" fill="#f4e4ec"/>
                <path id="Trazado_104392" data-name="Trazado 104392" d="M119.74,265.333l-1.823,8.017-5.8-6.06,4.1-6.09Z" transform="translate(-82.399 -208.755)" fill="#f4e4ec"/>
                <g id="Grupo_54524" data-name="Grupo 54524" transform="translate(10.973 32.699)">
                  <path id="Trazado_104393" data-name="Trazado 104393" d="M87.128,238.718a3.637,3.637,0,1,0,3.42-3.84,3.638,3.638,0,0,0-3.42,3.84Z" transform="translate(-87.122 -234.872)" fill="#ed9558"/>
                  <path id="Trazado_104394" data-name="Trazado 104394" d="M91.091,236.6a2.25,2.25,0,0,1,1.4.42,1.943,1.943,0,0,0-.63-.09,2.021,2.021,0,1,0,.232,4.035,2.055,2.055,0,0,0,.48-.127,2.25,2.25,0,0,1-1.215.473,2.363,2.363,0,0,1-.27-4.71Z" transform="translate(-87.59 -235.303)" fill="#d87239"/>
                </g>
                <path id="Trazado_104395" data-name="Trazado 104395" d="M81.343,277.474c-13.5,5.7,16.395,57.585,26.25,51.75,3.292-1.95,3.112-6.3-2.048-17.182C100.723,307.324,90.575,273.964,81.343,277.474Z" transform="translate(-73.844 -212.759)" fill="#1ac4c9"/>
                <g id="Grupo_54525" data-name="Grupo 54525" transform="translate(65.189 120.38)">
                  <g id="wrist_left" data-name="wrist left" transform="translate(3.823)">
                    <path id="Trazado_104396" data-name="Trazado 104396" d="M165.83,356.107a9.375,9.375,0,0,1,2.835-1.9c1.4-.607,3.33-1.065,5.122-1.755a7.425,7.425,0,0,1,1.928-.668c.232.142.1,1.192-1.44,1.912a21.888,21.888,0,0,0-3.142,1.913Z" transform="translate(-164.838 -351.78)" fill="#ffb476"/>
                    <path id="Trazado_104397" data-name="Trazado 104397" d="M165.192,360.527a31.065,31.065,0,0,0,9.135,1.237c4.29-.232,5.445-1.057,5.385-1.5s-.817-.173-2.25,0c-1.192.135-2.4.4-2.392.2a11.046,11.046,0,0,1,2.872-.668c.42-.038,3.337-.473,3.337-1.2s-2.077-.375-3.21-.2c0,0-2.812.307-2.783.09s2.558-.345,3-.383,3.555-.217,3.623-.892-.66-.833-3.33-.6c0,0-3.232.375-3.187.165,0-.608,5.55-.173,5.678-1.223.067-.533-1.178-.533-2.805-.45s-4.44.4-5.873.3c-4.627-.307-6.862,1.545-6.862,1.545S163.474,358.937,165.192,360.527Z" transform="translate(-164.507 -352.599)" fill="#ffb476"/>
                  </g>
                  <path id="Trazado_104398" data-name="Trazado 104398" d="M163.918,360.86l-4.508.382.563-4.852,4.26.862Z" transform="translate(-159.41 -352.932)" fill="#ffb476"/>
                </g>
                <path id="Trazado_104399" data-name="Trazado 104399" d="M111.8,323.64c13.035,15.832,36.81,24.18,36.81,24.18l-.75,6.038s-28.185-.75-45-18.75Z" transform="translate(-80.084 -224.365)" fill="#1ac4c9"/>
                <path id="Trazado_104400" data-name="Trazado 104400" d="M111.911,198.191c2.445,4.98-21.863,14.64-28.178,6.75-3.33-4.147,3.21-10,11.01-11.708C101.711,191.756,109.774,193.856,111.911,198.191Z" transform="translate(-75.08 -191.646)" fill="#ce6f09"/>
                <path id="Trazado_104401" data-name="Trazado 104401" d="M125.728,201.336c3.51-1.56,4.313,6.825,2.745,7.613S123.306,202.393,125.728,201.336Z" transform="translate(-85.597 -193.741)" fill="#ce6f09"/>
                <path id="Trazado_104402" data-name="Trazado 104402" d="M112.75,272.13l-.75.173a79.2,79.2,0,0,0,4.845,13.59,2.762,2.762,0,0,1,.472.128l.225-.4a77.866,77.866,0,0,1-4.792-13.492Z" transform="translate(-82.369 -211.487)" fill="#dbb4d1"/>
              </g>
              <g id="Grupo_54536" data-name="Grupo 54536" transform="translate(109.614 54.691)">
                <path id="Trazado_104403" data-name="Trazado 104403" d="M282.706,187.364c11.715,2.25,6.39,33.292-4.065,35C270.429,223.694,262.591,184.042,282.706,187.364Z" transform="translate(-231.484 -179.42)" fill="#ba5604"/>
                <path id="Trazado_104404" data-name="Trazado 104404" d="M237.56,258.286c-6-2.152-9.982,11.58-13.59,27.638-1.913,8.528-7.132,26.415.7,30C239.757,322.748,250.475,262.936,237.56,258.286Z" transform="translate(-219.105 -197.144)" fill="#323249"/>
                <path id="Trazado_104405" data-name="Trazado 104405" d="M288.43,347.25l-50.107,7.44c.413,109.268-1.312,158.79-1.312,158.79l7.4,1.432s10.987-36.81,12.7-48.135c1.23-8.175-1.41-30.165-1.41-30.165l6.218-44.25,4.3.143s4.455,17.25,8.25,45.75c1.207,9.082.21,19.92,1.455,30.188,1.86,15.255,4.612,30.413,6.112,46.028h8.61s5.25-38.063,4.065-48.975c-.975-9.165-3.2-28.867-3.2-28.867l.24-74.565Z" transform="translate(-223.235 -219.441)" fill="#3d3d5b"/>
                <path id="Trazado_104406" data-name="Trazado 104406" d="M298.44,347.24l-21.39,3.09c2.25,16.658,6.878,30.682,8.872,31.957,2.572,1.635,10.995-3.293,15.45-6.435l.2-13.792Z" transform="translate(-233.245 -219.438)" fill="#323249"/>
                <path id="Trazado_104407" data-name="Trazado 104407" d="M238.6,360.638c0,1.44,0,2.835-.045,4.253.458.21,18.75,8.64,53.213,2.955,0,0,.037-.18.082-.427l.038-2.3-.96-4.5C282.2,360.518,250.493,360.6,238.6,360.638Z" transform="translate(-223.623 -222.771)" fill="#323249"/>
                <path id="Trazado_104408" data-name="Trazado 104408" d="M262.688,367.19l-24.36-2.25C238.5,470.12,237,517.9,237,517.9l7.4,1.432s10.987-36.81,12.7-48.135c1.23-8.175-1.41-30.165-1.41-30.165l6.218-44.25,4.3.143-3.06-4.193Z" transform="translate(-223.233 -223.863)" fill="#323249"/>
                <path id="Trazado_104409" data-name="Trazado 104409" d="M290.831,335.718s3.533-48.4-.172-78.577c0,0-9.24-5.25-29.13-4.867-14.7.315-23.348,4.972-23.348,4.972-3.893,14.9-1.853,26.6-1.1,44.73.51,12.082.4,32.94.4,32.94S261.371,342.716,290.831,335.718Z" transform="translate(-222.951 -195.691)" fill="#f7e8f0"/>
                <path id="Trazado_104410" data-name="Trazado 104410" d="M271.185,260.633l-1.268-2.25-3.217,2.362-3.375.037-3.3-2.6-1.5,2.662,3.352,3.413,1.395,4.178h0c-1.215,5.182-5.25,23.122-6.082,35.152l5.52,11.355,5.692-10.65c-1.087-10.02-1.852-30.825-2.04-36.12l1.883-4.005Z" transform="translate(-228.28 -197.173)" fill="#dbb4d1"/>
                <path id="Trazado_104411" data-name="Trazado 104411" d="M235.92,295.89c.4,5.25.922,10.867,1.178,16.927.51,12.082.4,32.94.4,32.94s23.888,7.8,53.348.8c0,0,1.793-24.585,1.5-49.635l-.293-1.365S259,301.14,235.92,295.89Z" transform="translate(-222.963 -206.518)" fill="#dbb4d1"/>
                <path id="Trazado_104412" data-name="Trazado 104412" d="M266.092,267.533l-.982-.082c-.045.412-3.608,40.747-1.358,74.662l.99.06C262.454,308.31,266.047,267.938,266.092,267.533Z" transform="translate(-229.734 -199.491)" fill="#ba8cb3"/>
                <path id="Trazado_104413" data-name="Trazado 104413" d="M258.69,264.145l-3.54,6.12L251.4,254.08a65.865,65.865,0,0,1,14.01-1.8,82.731,82.731,0,0,1,15.75,1.072L268.11,269.44l-2.58-5.295-3.457,5.662Z" transform="translate(-226.833 -195.69)" fill="#dbb4d1"/>
                <path id="Trazado_104414" data-name="Trazado 104414" d="M276.638,214.44s-2.693,19.5,1.02,29.67c-5.917,2.175-17.43,5.115-19.357-.368,0,0,.945-3.143.345-11.708Z" transform="translate(-228.558 -186.238)" fill="#e08344"/>
                <path id="Trazado_104415" data-name="Trazado 104415" d="M254.08,253.271s.69,7.02,10.5,7.3a16.95,16.95,0,0,0,14.475-7.5S268.443,250.428,254.08,253.271Z" transform="translate(-227.503 -195.616)" fill="#ed9558"/>
                <path id="Trazado_104416" data-name="Trazado 104416" d="M276.47,221.323l-2.25-2.663L259.707,220.5c.307,4.342-.712,19.853-.878,21.7,1.867,2.138,6.12,5.9,14.452,8.8a14.835,14.835,0,0,0,7.327-6.315,10.133,10.133,0,0,0-3.128-.57C274.88,236.1,276.47,221.323,276.47,221.323Z" transform="translate(-228.69 -187.293)" fill="#d1652f"/>
                <path id="Trazado_104417" data-name="Trazado 104417" d="M263.1,257.2l2.063,4.68,1.77-4.68,2.025,4.83-3.84,3.54L261.11,261.6Z" transform="translate(-229.26 -196.928)" fill="#e5c3da"/>
                <g id="Grupo_54527" data-name="Grupo 54527" transform="translate(27.2 60.354)">
                  <path id="Trazado_104418" data-name="Trazado 104418" d="M264.45,269s.548,25.867,1.673,37.41L260.31,317l-5.4-11.415c1.14-14.152,6.818-36.585,6.818-36.585Z" transform="translate(-254.91 -260.232)" fill="#28283d"/>
                  <path id="Trazado_104419" data-name="Trazado 104419" d="M262.15,259.95l-3.27-2.64-1.56,2.648,3.323,3.45,1.117-1.508Z" transform="translate(-255.512 -257.31)" fill="#28283d"/>
                  <path id="Trazado_104420" data-name="Trazado 104420" d="M268.173,260.055l3.24-2.325,1.245,2.257-3,3.5-1.747-1.17Z" transform="translate(-258.16 -257.415)" fill="#28283d"/>
                  <path id="Trazado_104421" data-name="Trazado 104421" d="M266.635,260.83H263.26l-1.5,3.457,1.342,4.185,2.955.067,2.063-4.275Z" transform="translate(-256.622 -258.19)" fill="#323249"/>
                </g>
                <path id="Trazado_104422" data-name="Trazado 104422" d="M261.31,254.885l-4.388,10.073-3.052-12.705,3.42-4.312Z" transform="translate(-227.45 -194.613)" fill="#f7e8f0"/>
                <path id="Trazado_104423" data-name="Trazado 104423" d="M268.88,254.223l4.23,10.073,11.025-13.043-4.388-5.963Z" transform="translate(-231.203 -193.951)" fill="#f7e8f0"/>
                <path id="Trazado_104424" data-name="Trazado 104424" d="M240.33,290.13,240.143,270H239.13l.18,19.32c.285.323.563.66.855.967Z" transform="translate(-223.765 -200.128)" fill="#dbb4d1"/>
                <path id="Trazado_104425" data-name="Trazado 104425" d="M287.13,253.72s-7.755,8.52-11.145,34.71,5.85,65.033,9.24,67.193,16.95-7.1,18.188-8.633-1.5-29-1.35-39.75-2.452-49.987-2.452-49.987a49.161,49.161,0,0,0-12.48-3.533Z" transform="translate(-232.795 -196.058)" fill="#3d3d5b"/>
                <path id="Trazado_104426" data-name="Trazado 104426" d="M247.029,254.69s-1.725,14.25-1.725,44.16,2.16,53.625-.308,55.777-8.932-7.088-9.517-9.555.848-33.795.75-39.037c-.307-12.63-5.9-31.5,1.5-48.18a46.266,46.266,0,0,1,9.3-3.165Z" transform="translate(-222.462 -196.301)" fill="#323249"/>
                <path id="Trazado_104427" data-name="Trazado 104427" d="M243.088,207.514s0,.112-3-10.027c0,0-3.33-1.7-3.885-3.578-2.04-6.9,18.495-24.277,37.3-13.785C286.813,187.527,243.088,207.514,243.088,207.514Z" transform="translate(-222.998 -176.837)" fill="#ba5604"/>
                <path id="Trazado_104428" data-name="Trazado 104428" d="M270.854,216.677c-.135,9.592-.75,9.427-8.385,16.357-1.635,1.5-7.013,1.987-8.52,1.268s-1.71-2.138-3.923-5.213a24.913,24.913,0,0,1-4.3-9.217c-.45-2.768-.345-4.68-.607-6.652-.518-3.788-1.583-7.118-1.868-11.475s4.568-7.5,11.04-7.973C269.114,192.706,269.676,198.9,270.854,216.677Z" transform="translate(-224.791 -181.042)" fill="#ffb476"/>
                <path id="Trazado_104429" data-name="Trazado 104429" d="M264.06,233.82c10.635-8.25,6.75-33.675,1.755-36.93,9.457.9,8.647,9.818,8.5,22.6-.2,6.96-1.05,9-8.888,15.06-1.68,1.3-6.885,1.387-8.25.585a2.317,2.317,0,0,1-.555-.45C258.585,235.155,262.62,234.945,264.06,233.82Z" transform="translate(-228.138 -181.851)" fill="#ed9558"/>
                <path id="Trazado_104430" data-name="Trazado 104430" d="M255.046,213.24a7.29,7.29,0,0,1,2.01,2.392c2.73,6.075-2.842,7.125-2.348,8.618.75,2.183,5.033,1.013,5.033,1.013-.323,1.553-5.183,1.59-5.858-.622-.8-2.61,4.875-2.918,2.685-8.715a18.359,18.359,0,0,0-1.522-2.685Z" transform="translate(-227.434 -185.938)" fill="#ed9558"/>
                <path id="Trazado_104431" data-name="Trazado 104431" d="M268.84,194.336s-1.425,3.315-8.617,1.05c-15.2-4.777-17.062,3.6-17.062,3.6S244.36,180.836,268.84,194.336Z" transform="translate(-224.773 -179.964)" fill="#ba5604"/>
                <path id="Trazado_104432" data-name="Trazado 104432" d="M278.417,210.162l-1.253,5-2.3.435s.465-14.077-5.062-19.245C269.8,196.354,282.242,193.857,278.417,210.162Z" transform="translate(-231.433 -181.682)" fill="#ba5604"/>
                <g id="Grupo_54528" data-name="Grupo 54528" transform="translate(44.929 28.131)">
                  <path id="Trazado_104433" data-name="Trazado 104433" d="M278.617,218.961a3.885,3.885,0,1,0,3.083-4.545A3.885,3.885,0,0,0,278.617,218.961Z" transform="translate(-278.549 -214.346)" fill="#ed9558"/>
                  <path id="Trazado_104434" data-name="Trazado 104434" d="M282.732,220.846a1.822,1.822,0,1,0-.8-3.555,2.3,2.3,0,0,1,.8-.4,2.16,2.16,0,0,1,1.035,4.193,2.13,2.13,0,0,1-1.553-.217A2,2,0,0,0,282.732,220.846Z" transform="translate(-279.394 -214.97)" fill="#d1652f"/>
                </g>
                <g id="Grupo_54531" data-name="Grupo 54531" transform="translate(20.454 27.647)">
                  <g id="Grupo_54529" data-name="Grupo 54529" transform="translate(12.567)">
                    <path id="Trazado_104435" data-name="Trazado 104435" d="M263.361,216.925c-1.733-1.5.128-3.053,2.025-3.21,2.19-.173,4.245,1.177,4.613,1.965l-.353.27S263.706,217.3,263.361,216.925Z" transform="translate(-262.672 -213.7)" fill="#562824"/>
                    <path id="Trazado_104436" data-name="Trazado 104436" d="M263.646,217.286a2.207,2.207,0,0,1,2.093-2.55c1.9-.3,4.1,1.05,4.162,1.628S265.776,220.173,263.646,217.286Z" transform="translate(-262.898 -213.948)" fill="#f7eee2"/>
                    <path id="Trazado_104437" data-name="Trazado 104437" d="M269.073,215.349a1.234,1.234,0,0,0-.052-.24,4.252,4.252,0,0,0-2.76-.705,2.745,2.745,0,0,0-1.59.75v.18a2.25,2.25,0,0,0,4.432,0Z" transform="translate(-263.172 -213.872)" fill="#562824"/>
                  </g>
                  <g id="Grupo_54530" data-name="Grupo 54530" transform="translate(0 1.814)">
                    <path id="Trazado_104438" data-name="Trazado 104438" d="M246.571,219.134c-1.643-1.425.1-2.887,1.9-3a4.29,4.29,0,0,1,3.967,1.928l-.33.255S246.894,219.472,246.571,219.134Z" transform="translate(-245.916 -216.118)" fill="#562824"/>
                    <path id="Trazado_104439" data-name="Trazado 104439" d="M246.838,219.431a2.158,2.158,0,0,1,1.965-2.46c1.777-.36,3.487,1.11,3.548,1.658S248.848,222.184,246.838,219.431Z" transform="translate(-246.13 -216.317)" fill="#f7eee2"/>
                    <path id="Trazado_104440" data-name="Trazado 104440" d="M249.11,216.835a2.722,2.722,0,0,0-1.035.443,2.414,2.414,0,0,0-.075.4,2.032,2.032,0,0,0,4.057.128C251.63,216.94,250.295,216.6,249.11,216.835Z" transform="translate(-246.437 -216.279)" fill="#562824"/>
                  </g>
                </g>
                <path id="Trazado_104441" data-name="Trazado 104441" d="M270.249,207.2c-.367-.75-2.288.75-5.1,1.41s-5,.2-4.89,1.388c.128,1.387,2.707,1.807,5.52,1.11C269.409,210.2,270.684,208.034,270.249,207.2Z" transform="translate(-229.046 -184.377)" fill="#aa4805"/>
                <path id="Trazado_104442" data-name="Trazado 104442" d="M243.938,213.252c.48.637,1.41-.368,3.277-1.388s3.75-1.268,3.3-2.385c-.495-1.3-2.355-1.08-4.215-.045C243.938,210.762,243.413,212.525,243.938,213.252Z" transform="translate(-224.921 -184.773)" fill="#aa4805"/>
                <path id="Trazado_104443" data-name="Trazado 104443" d="M276.186,199.345c-3.225-5.453,9.435-10.62,11.513-6.863C290.046,196.727,279.523,205,276.186,199.345Z" transform="translate(-232.898 -180.428)" fill="#ce6f09"/>
                <path id="Trazado_104444" data-name="Trazado 104444" d="M238.911,192.181c-2.408-3.068,11.82-16.8,27.592-13.5,6.413,1.35,6.81,6.052,2.888,8.917-3.517,2.573-10.207,1.545-15.668,1.5C242.571,188.986,240.733,194.5,238.911,192.181Z" transform="translate(-223.643 -177.171)" fill="#ce6f09"/>
                <g id="Grupo_54532" data-name="Grupo 54532" transform="translate(27.031 42.933)">
                  <path id="Trazado_104445" data-name="Trazado 104445" d="M254.689,237.59c.045.232,2.475-1.92,5.775-2.445s3.24,1.215,3.457,1.042-.413-2.572-3.57-2.025C256.969,234.635,254.576,237.245,254.689,237.59Z" transform="translate(-254.685 -234.082)" fill="#d87239"/>
                  <path id="Trazado_104446" data-name="Trazado 104446" d="M262.372,239.439c-.1-.36-.855-.473-1.687-.247s-1.425.7-1.328,1.065.855.473,1.688.248S262.469,239.806,262.372,239.439Z" transform="translate(-255.85 -235.33)" fill="#ed9558"/>
                </g>
                <path id="Trazado_104447" data-name="Trazado 104447" d="M256.59,301.26c-.75,4.335-1.38,8.655-1.68,12.4l5.4,11.415,5.813-10.582c-.338-3.428-.615-8.122-.848-13.02C262.41,301.492,259.478,301.425,256.59,301.26Z" transform="translate(-227.71 -207.943)" fill="#232335"/>
                <g id="Grupo_54533" data-name="Grupo 54533" transform="translate(17.705 49.799)">
                  <path id="Trazado_104448" data-name="Trazado 104448" d="M260.742,249.09a2.37,2.37,0,0,1-.968,3.135,4.057,4.057,0,0,1-1.545-.293Z" transform="translate(-246.245 -244.7)" fill="#ed9558"/>
                  <path id="Trazado_104449" data-name="Trazado 104449" d="M244.785,256.05c-1.807,3.885-2.535,5.895-2.535,5.895l5.813,1.193,1.14-5Z" transform="translate(-242.25 -246.439)" fill="#ed9558"/>
                  <path id="Trazado_104450" data-name="Trazado 104450" d="M245.63,252.846c1.38-3.645,4.973-9.458,6-9.6s1.29,1.215,1.29,1.215,1.043-.54,1.635-.21.383,1.455.383,1.455,1.125-.555,1.612.09a1.5,1.5,0,0,1,.113,1.447c.855.083,2.557.667-2.325,4.868-2.445,2.1-4.958,3.4-5.288,4.2C248.262,257.227,245.63,252.846,245.63,252.846Z" transform="translate(-243.095 -243.236)" fill="#ffb476"/>
                  <path id="Trazado_104451" data-name="Trazado 104451" d="M249.057,257.9c.33-.795,2.363-1.657,5.288-4.2,1.05-.915,3.6-3,2.91-4.11.165,1.193-2.685,3.247-4.193,4.005a11.52,11.52,0,0,1-7.432.84S248.158,258.9,249.057,257.9Z" transform="translate(-243.095 -244.825)" fill="#ed9558"/>
                  <path id="Trazado_104452" data-name="Trazado 104452" d="M254.6,245.115c.27.2,1.005-.87,1.605-.51s-.06,1.582.135,1.792,1.283-.833,1.853-.5-.233,1.553-.068,1.785.75-.232,1.133.315-.577,1.837-.577,1.837a2.167,2.167,0,0,0,.862-.832,1.5,1.5,0,0,0,0-1.447,1.207,1.207,0,0,0-.862-.315,1.5,1.5,0,0,0-.113-1.447c-.487-.645-1.612-.09-1.612-.09s.255-1.11-.383-1.455-1.635.21-1.635.21-.248-1.342-1.29-1.215C254.738,243.487,254.34,244.912,254.6,245.115Z" transform="translate(-245.1 -243.237)" fill="#ed9558"/>
                </g>
                <g id="Grupo_54535" data-name="Grupo 54535" transform="translate(0 115.944)">
                  <path id="Trazado_104453" data-name="Trazado 104453" d="M235.62,333.357c2.415-.435,7.575-1.927,7.575-1.927l.307,7.2-6.465-.953Z" transform="translate(-222.888 -331.43)" fill="#ed9558"/>
                  <g id="Grupo_54534" data-name="Grupo 54534" transform="translate(0 1.8)">
                    <path id="Trazado_104454" data-name="Trazado 104454" d="M222.061,334.42s-2.49,2.707-2.842,3.323-.8,3.975-.442,4.155c.75.263,1.05-.465,1.425-2.783l2.46-2.76Z" transform="translate(-218.643 -333.977)" fill="#ed9558"/>
                    <path id="Trazado_104455" data-name="Trazado 104455" d="M224.19,338.61a32.5,32.5,0,0,0-1.5,3c0,.353.982,2.475,1.357,2.445s2.063-1.342,1.6-1.77c-.217-.2-.24-1.147-.54-1.973a7.372,7.372,0,0,0-.922-1.7Z" transform="translate(-219.655 -335.025)" fill="#ed9558"/>
                    <path id="Trazado_104456" data-name="Trazado 104456" d="M223.1,336.62a32.106,32.106,0,0,0-2.07,4.432c-.082.758,1.02,3.6,1.418,3.69.75.082.75-1.208-.1-3.458l1.77-2.918Z" transform="translate(-219.239 -334.527)" fill="#ed9558"/>
                    <path id="Trazado_104457" data-name="Trazado 104457" d="M225.486,340.53a9.419,9.419,0,0,0-.75,2.535c.127.435,1.792.487,2.122.263s.915-1.552.75-1.7S225.486,340.53,225.486,340.53Z" transform="translate(-220.163 -335.505)" fill="#ed9558"/>
                    <path id="Trazado_104458" data-name="Trazado 104458" d="M226.587,341.71s1.762.57,8.13-2.378l-.18-1.253S224.667,340.27,226.587,341.71Z" transform="translate(-220.567 -334.892)" fill="#ed9558"/>
                    <path id="Trazado_104459" data-name="Trazado 104459" d="M232.981,333.957s-9.067-.435-9.833.3,1.5,5.055,2.393,5.25,8.205-1.86,8.205-1.86S234.8,334.265,232.981,333.957Z" transform="translate(-219.731 -333.83)" fill="#ffb476"/>
                    <path id="Trazado_104460" data-name="Trazado 104460" d="M223.47,334.214a5.864,5.864,0,0,0,5.033,2.152,6.19,6.19,0,0,0,4.5-2.385C232.455,333.966,224.76,333.614,223.47,334.214Z" transform="translate(-219.85 -333.838)" fill="#ed9558"/>
                  </g>
                  <path id="Trazado_104461" data-name="Trazado 104461" d="M235.12,333.89c1.583.638,1.807,3.217-1.5,4.44l2.925-.12.8-2.25-.705-2.4Z" transform="translate(-222.388 -331.962)" fill="#ed9558"/>
                </g>
                <path id="Trazado_104462" data-name="Trazado 104462" d="M237.262,260.51l6.945,2.963s-3.158,53.422-16.29,53.625C208.364,317.4,237.262,260.51,237.262,260.51Z" transform="translate(-219.264 -197.756)" fill="#3d3d5b"/>
                <path id="Trazado_104463" data-name="Trazado 104463" d="M302.193,309.747c.105-8.655-1.545-35.655-2.2-45.937-6.2,0-9.277,16.065-12.225,31.155-1.147,5.887-2.348,11.655-3,16.672h0c-2.385.622-5.543,1.38-9,2.175.353,4.965.9,9.915,1.59,14.61a70.949,70.949,0,0,0,13.208-.855,3.623,3.623,0,0,0,.4-.06h.1c4.5-1.088,8.385-8.152,11.13-17.19Z" transform="translate(-232.925 -198.581)" fill="#323249"/>
                <path id="Trazado_104464" data-name="Trazado 104464" d="M301.983,258.316c-7.193-2.715-10.5,14.678-13.665,30.885-3,15.4-6.375,30,.24,32.355C303.843,327.009,313.593,262.7,301.983,258.316Z" transform="translate(-235.168 -197.137)" fill="#3d3d5b"/>
                <path id="Trazado_104465" data-name="Trazado 104465" d="M280.242,337.63c-14.348,2.813-39.562-1.44-39.562-1.44l-1.41-6.57s24.42-5.168,34.658-7.838S280.242,337.63,280.242,337.63Z" transform="translate(-223.8 -213.008)" fill="#3d3d5b"/>
              </g>
              <g id="Grupo_54548" data-name="Grupo 54548" transform="translate(207.677 51.952)">
                <g id="Grupo_54539" data-name="Grupo 54539" transform="translate(3.724 155.748)">
                  <path id="Trazado_104466" data-name="Trazado 104466" d="M385.71,381.525c1.215,3.383.878,9.128.255,9.75a.75.75,0,0,1-1.133-.052s-.285.915-.937.96-.862-.705-.862-.705-.4.8-1.05.615a.982.982,0,0,1-.69-.855c-.84.345-2.167.787-1.012-4.5.577-2.647,1.6-4.785,1.425-5.49C381.78,380.212,385.71,381.525,385.71,381.525Z" transform="translate(-360.727 -380.85)" fill="#ed9558"/>
                  <g id="case" transform="translate(0 5.903)">
                    <g id="Grupo_54538" data-name="Grupo 54538">
                      <path id="Trazado_104467" data-name="Trazado 104467" d="M394.193,432.117h-37.5a2.333,2.333,0,0,1-2.332-2.325V401.375a2.325,2.325,0,0,1,2.325-2.325h37.5a2.325,2.325,0,0,1,2.325,2.318l.045,28.425a2.317,2.317,0,0,1-2.362,2.325Z" transform="translate(-354.36 -391.302)" fill="#3c2f28"/>
                      <path id="Trazado_104468" data-name="Trazado 104468" d="M396.5,432.117h-31.62A2.122,2.122,0,0,1,362.76,430V401.165a2.122,2.122,0,0,1,2.122-2.115H396.45a2.123,2.123,0,0,1,2.122,2.115L398.617,430a2.108,2.108,0,0,1-2.115,2.115Z" transform="translate(-356.46 -391.302)" fill="#473a3a"/>
                      <g id="Grupo_54537" data-name="Grupo 54537" transform="translate(14.1)">
                        <path id="Trazado_104469" data-name="Trazado 104469" d="M376.122,395.927l-1.883-.375c.465-2.362,2.715-6.832,7.875-6.832s7.125,4.5,7.41,6.908l-1.9.232c0-.217-.713-5.25-5.505-5.25S376.167,395.68,376.122,395.927Z" transform="translate(-373.43 -388.72)" fill="#32251c"/>
                        <path id="Trazado_104470" data-name="Trazado 104470" d="M376.663,398.567h-3.5V397.12h3.495Z" transform="translate(-373.16 -390.82)" fill="#9cbee0"/>
                        <path id="Trazado_104471" data-name="Trazado 104471" d="M394.513,398.567h-3.5l-.007-1.447h3.5Z" transform="translate(-377.622 -390.82)" fill="#9cbee0"/>
                      </g>
                    </g>
                  </g>
                  <path id="Trazado_104472" data-name="Trazado 104472" d="M382.594,394.524c-.713-.105-.435-1.065-.307-2.108.135-1.162.2-1.853.75-1.807s.585,1.245.51,2.2C383.441,393.647,383.531,394.652,382.594,394.524Z" transform="translate(-361.301 -383.289)" fill="#ffb476"/>
                  <path id="Trazado_104473" data-name="Trazado 104473" d="M384.889,394.687c-.75-.052-.517-1.035-.472-2.077.045-1.17.045-1.867.57-1.86s.682,1.193.682,2.145S385.789,394.687,384.889,394.687Z" transform="translate(-361.857 -383.325)" fill="#ffb476"/>
                  <path id="Trazado_104474" data-name="Trazado 104474" d="M387.174,394.027c-.585,0-.48-.81-.51-1.665s-.075-1.5.353-1.552.63.93.682,1.71S387.917,394.019,387.174,394.027Z" transform="translate(-362.432 -383.339)" fill="#ffb476"/>
                  <path id="Trazado_104475" data-name="Trazado 104475" d="M380.411,393.746c-.5-.128-.593-.855-.435-1.793s.473-1.725,1.035-1.665.638,1.125.495,2.07S381.071,393.911,380.411,393.746Z" transform="translate(-360.746 -383.209)" fill="#ffb476"/>
                  <path id="Trazado_104476" data-name="Trazado 104476" d="M381.65,391.58a2.167,2.167,0,0,1-.128-.75,1.194,1.194,0,0,0-.18-.353.7.7,0,0,0-.142-.082c-.045,0-.082-.068-.135-.075h0a.7.7,0,0,0-.51.27,1.3,1.3,0,0,0-.127.157,2.72,2.72,0,0,0-.158.33,2.794,2.794,0,0,0-.15.443c.225.69.63,1.282,1.3,1.035a.531.531,0,0,0,.157-.112.179.179,0,0,0,0-.06A5.87,5.87,0,0,0,381.65,391.58Z" transform="translate(-360.8 -383.217)" fill="#ed9558"/>
                  <path id="Trazado_104477" data-name="Trazado 104477" d="M384.655,381.765s1.245,2.617-1.972,4.747c-2.55,1.688-.12,2.91-1.32,3.345s-1.635-1.733-1.5-2.5,1.717-3.983,1.86-6Z" transform="translate(-360.73 -380.977)" fill="#ffb476"/>
                </g>
                <path id="Trazado_104478" data-name="Trazado 104478" d="M389.316,259.32c-9.337,5.25-9.24,25.74-9.645,51.622s.712,39.81.712,39.81l6.525.563s4.613-11.048,7.088-35.745S389.316,259.32,389.316,259.32Z" transform="translate(-356.941 -194.719)" fill="#f7e8f0"/>
                <path id="Trazado_104479" data-name="Trazado 104479" d="M379.61,348.592c.128,15.353.75,23.49.75,23.49l6.525.563s3.638-8.745,6.188-28.005Z" transform="translate(-356.948 -216.049)" fill="#e5c3da"/>
                <path id="Trazado_104480" data-name="Trazado 104480" d="M441.868,187.285c9.217,4.973-1.883,36.825-9.427,34.14C424.385,218.56,421.873,181.48,441.868,187.285Z" transform="translate(-368.664 -176.556)" fill="#822d0f"/>
                <path id="Trazado_104481" data-name="Trazado 104481" d="M441.065,347.25l-48.855,7.44s1.08,60.128,1.41,79.612c.173,10.043,1.718,80.153,1.718,80.153h7.335s8.917-42.75,8.25-51.113,1.642-29.04,1.642-29.04l2.737-45.99s4.612,18.75,8.25,49.612c2.46,20.737,5.13,46.92,7.162,76.545h8.34s6.795-41.085,6.42-50.25-3.66-27.577-3.66-27.577l1.883-74.55Z" transform="translate(-360.098 -216.701)" fill="#7a3541"/>
                <path id="Trazado_104482" data-name="Trazado 104482" d="M412.838,468.57c-.615,18.825-10.2,50.25-10.2,50.25H395.3s-1.545-70.11-1.717-80.153c-.285-16.957-1.665-61.5-1.5-73.9l18,1.545v22.418l5.182,3.96L412.53,438.7S413.07,461.46,412.838,468.57Z" transform="translate(-360.064 -221.081)" fill="#590212"/>
                <path id="Trazado_104483" data-name="Trazado 104483" d="M392.08,368.147s0-7.125-.06-12.937l52.162,4.23-.712,8.362C441.37,371.2,405.175,375.033,392.08,368.147Z" transform="translate(-360.051 -218.691)" fill="#323249"/>
                <path id="Trazado_104484" data-name="Trazado 104484" d="M443.338,334.991c1.68-2.25,3-45.75-.615-77.572,0,0-8.955-5.587-28.253-5.138-14.25.323-22.778,5.25-22.778,5.25-4.777,12.975-1.657,28.05-.922,47.19.495,12.75-.653,29.2.6,30.75.6.75,12.188,2.8,24.27,2.79C428.773,338.314,442.468,336.161,443.338,334.991Z" transform="translate(-359.318 -192.953)" fill="#f7e8f0"/>
                <path id="Trazado_104485" data-name="Trazado 104485" d="M431.018,215s-4.4,19.08-.69,29.25c-5.925,2.175-17.437,5.115-19.357-.368,0,0,.945-3.143.345-11.708Z" transform="translate(-364.788 -183.639)" fill="#e08344"/>
                <path id="Trazado_104486" data-name="Trazado 104486" d="M412.31,263.457l-3.615,5.865-3.915-15.2a62.027,62.027,0,0,1,13.583-1.8,77.791,77.791,0,0,1,15.277,1.073L421,269.479l-2.505-5.3-3,4.643Z" transform="translate(-363.241 -192.961)" fill="#dbb4d1"/>
                <path id="Trazado_104487" data-name="Trazado 104487" d="M406.75,253.271s.682,7.02,10.463,7.3,14.887-7.5,14.887-7.5A65.061,65.061,0,0,0,406.75,253.271Z" transform="translate(-363.733 -192.877)" fill="#ed9558"/>
                <path id="Trazado_104488" data-name="Trazado 104488" d="M430.2,220.86l-3.33-2.25-14.505,1.837c.307,4.342-.75,19.852-.878,21.7,1.867,2.138,6.12,5.9,14.452,8.8a17.565,17.565,0,0,0,7.777-6.315,20.679,20.679,0,0,0-3.585-.57C427.547,236.085,430.2,220.86,430.2,220.86Z" transform="translate(-364.918 -184.541)" fill="#d1652f"/>
                <path id="Trazado_104489" data-name="Trazado 104489" d="M398.608,202.349c.285-10.98-5.093-11.663-3.75-17.55,3.112-13.837,40.567-17.01,40.627-.1C435.5,194.549,398.608,202.349,398.608,202.349Z" transform="translate(-360.706 -173.185)" fill="#822d0f"/>
                <path id="Trazado_104490" data-name="Trazado 104490" d="M425.53,214.51c-1.425,9.75-2.04,9.495-10.7,15.63-1.853,1.313-7.388,1.178-8.82.27s-1.455-2.378-3.293-5.768a25.123,25.123,0,0,1-3.143-9.885c-.09-2.872.27-4.8.263-6.832,0-3.915-.652-7.432-.36-11.895s5.633-7.087,12.27-6.75C426.947,189.94,426.692,196.3,425.53,214.51Z" transform="translate(-361.896 -177.202)" fill="#ffb476"/>
                <path id="Trazado_104491" data-name="Trazado 104491" d="M415.033,231.015c11.91-7.132,11.318-33.427,6.7-37.335,9.488,2.047,7.5,11.018,5.625,24-1.117,7.057-2.25,9-11.033,14.25-1.883,1.125-7.185.577-8.49-.4a2.548,2.548,0,0,1-.5-.525C409.332,231.712,413.42,231.982,415.033,231.015Z" transform="translate(-363.878 -178.309)" fill="#ed9558"/>
                <path id="Trazado_104492" data-name="Trazado 104492" d="M409.811,208.7a7.207,7.207,0,0,1,1.725,2.67c1.965,6.5-3.832,6.908-3.533,8.483.45,2.3,4.98,1.635,4.98,1.635-.533,1.538-5.483.99-5.872-1.335-.457-2.745,5.348-2.393,3.892-8.542a18.273,18.273,0,0,0-1.192-2.91Z" transform="translate(-363.817 -182.064)" fill="#ed9558"/>
                <path id="Trazado_104493" data-name="Trazado 104493" d="M426.39,191.55s3.233,6.848-3.75,3.69c0,0-2.25-6.6-13.372-6.705-8.633-.082-9.638,5.872-9.638,5.872S403.313,174.915,426.39,191.55Z" transform="translate(-361.953 -176.097)" fill="#822d0f"/>
                <g id="Grupo_54540" data-name="Grupo 54540" transform="translate(41.418 42.802)">
                  <path id="Trazado_104494" data-name="Trazado 104494" d="M420.106,230.892c.053.135.48.083.615,0a.285.285,0,0,0,.142-.367.247.247,0,0,0-.337-.142C420.391,230.465,420.024,230.75,420.106,230.892Z" transform="translate(-408.487 -230.281)" fill="#562824"/>
                  <path id="Trazado_104495" data-name="Trazado 104495" d="M405.325,230.874c-.09.128-.487,0-.6-.12a.277.277,0,0,1-.052-.383.248.248,0,0,1,.367-.06C405.152,230.394,405.407,230.754,405.325,230.874Z" transform="translate(-404.618 -230.255)" fill="#562824"/>
                  <path id="Trazado_104496" data-name="Trazado 104496" d="M416.705,230.87H405.2s1.823,3.63,5.5,3.705S416.705,230.87,416.705,230.87Z" transform="translate(-404.764 -230.408)" fill="#9a6335"/>
                  <path id="Trazado_104497" data-name="Trazado 104497" d="M416.705,230.87H405.2s1.823,3.63,5.5,3.705S416.705,230.87,416.705,230.87Z" transform="translate(-404.764 -230.408)" fill="#562824"/>
                  <path id="Trazado_104498" data-name="Trazado 104498" d="M416.3,231.32H407s1.74,3.15,4.83,2.887A5.917,5.917,0,0,0,416.3,231.32Z" transform="translate(-405.214 -230.521)" fill="#f7eee2"/>
                  <path id="Trazado_104499" data-name="Trazado 104499" d="M416.3,231.32H407l.51.75s1.012-.6,4.065-.54a16.5,16.5,0,0,1,4.283.465Z" transform="translate(-405.214 -230.521)" fill="#d5b698"/>
                </g>
                <path id="Trazado_104500" data-name="Trazado 104500" d="M433.918,208.244l-1.658,2.64-2.392.173s1.793-12.54-4.448-18C425.42,193.079,436.528,189.741,433.918,208.244Z" transform="translate(-368.401 -178.098)" fill="#822d0f"/>
                <g id="Grupo_54541" data-name="Grupo 54541" transform="translate(62.93 29.985)">
                  <path id="Trazado_104501" data-name="Trazado 104501" d="M433.308,217.436a3.9,3.9,0,0,0,4.208,3.667,4.042,4.042,0,0,0,3.75-4.252,3.922,3.922,0,0,0-4.215-3.675A4.042,4.042,0,0,0,433.308,217.436Z" transform="translate(-433.301 -213.165)" fill="#ed9558"/>
                  <path id="Trazado_104502" data-name="Trazado 104502" d="M437.372,219.736a1.89,1.89,0,0,0,1.65-2.085,1.837,1.837,0,0,0-1.995-1.62,2.46,2.46,0,0,1,.87-.308,2.175,2.175,0,0,1,2.445,1.92,2.25,2.25,0,0,1-1.95,2.46,2.152,2.152,0,0,1-1.553-.4,1.822,1.822,0,0,0,.533.038Z" transform="translate(-434.186 -213.8)" fill="#d1652f"/>
                </g>
                <path id="Trazado_104503" data-name="Trazado 104503" d="M426.033,208.088c-.435.712-2.288-.87-5.108-1.747s-5.092-.518-4.89-1.725c.24-1.41,2.91-1.68,5.722-.795C425.4,204.975,426.506,207.27,426.033,208.088Z" transform="translate(-366.052 -180.717)" fill="#822d0f"/>
                <path id="Trazado_104504" data-name="Trazado 104504" d="M398.868,207.542c.405.705,1.5-.2,3.518-1.012s3.945-.855,3.668-2.033c-.33-1.387-2.25-1.38-4.275-.555C399.153,205.007,398.41,206.732,398.868,207.542Z" transform="translate(-361.731 -180.733)" fill="#822d0f"/>
                <path id="Trazado_104505" data-name="Trazado 104505" d="M435.2,197.737c-2.573-4.733,8.4-8.888,10.057-5.625C447.125,195.772,437.87,202.627,435.2,197.737Z" transform="translate(-370.749 -177.626)" fill="#933914"/>
                <g id="Grupo_54544" data-name="Grupo 54544" transform="translate(38.331 28.357)">
                  <g id="Grupo_54542" data-name="Grupo 54542" transform="translate(12.995)">
                    <path id="Trazado_104506" data-name="Trazado 104506" d="M418.34,214c-1.5-1.777.592-3.083,2.535-3,2.25.12,4.125,1.777,4.372,2.625l-.39.232S418.64,214.419,418.34,214Z" transform="translate(-417.829 -210.995)" fill="#562824"/>
                    <path id="Trazado_104507" data-name="Trazado 104507" d="M418.56,214.395a2.293,2.293,0,0,1,2.505-2.295c1.965-.045,4,1.635,3.975,2.25S420.271,217.65,418.56,214.395Z" transform="translate(-418.005 -211.271)" fill="#f7eee2"/>
                    <path id="Trazado_104508" data-name="Trazado 104508" d="M423.545,213.662a2.122,2.122,0,0,0-1.185-1.9,3,3,0,0,0-1.02-.217,2.64,2.64,0,0,0-1.193.338c-.09.06-.18.12-.262.188a2.533,2.533,0,0,0-.263.232,2.333,2.333,0,0,0-.592,1.5,2.145,2.145,0,0,0,.592,1.5,3.24,3.24,0,0,0,2.708.39A2.333,2.333,0,0,0,423.545,213.662Z" transform="translate(-418.129 -211.131)" fill="#562824"/>
                  </g>
                  <g id="Grupo_54543" data-name="Grupo 54543" transform="translate(0 0.065)">
                    <path id="Trazado_104509" data-name="Trazado 104509" d="M401,213.9c-1.44-1.68.555-2.918,2.385-2.812a4.32,4.32,0,0,1,3.75,2.5l-.375.217S401.273,214.283,401,213.9Z" transform="translate(-400.503 -211.082)" fill="#562824"/>
                    <path id="Trazado_104510" data-name="Trazado 104510" d="M401.211,214.247c-.18-.6.51-2.1,2.362-2.25s3.367,1.612,3.337,2.175S402.823,217.3,401.211,214.247Z" transform="translate(-400.673 -211.308)" fill="#f7eee2"/>
                    <path id="Trazado_104511" data-name="Trazado 104511" d="M406.018,213.48a2.063,2.063,0,0,0-.555-1.38,2.85,2.85,0,0,0-1.747-.57,2.3,2.3,0,0,0-.945.3,2.182,2.182,0,0,0-1.02,1.807,2.025,2.025,0,0,0,1.177,1.837,3.15,3.15,0,0,0,1.875,0A2.25,2.25,0,0,0,406.018,213.48Z" transform="translate(-400.815 -211.194)" fill="#562824"/>
                  </g>
                </g>
                <path id="Trazado_104512" data-name="Trazado 104512" d="M438.1,183.253c.173-9.87-23.318-10.433-24.668-5.648C411.03,186.171,438,188.51,438.1,183.253Z" transform="translate(-365.365 -173.559)" fill="#933914"/>
                <g id="Grupo_54545" data-name="Grupo 54545" transform="translate(0 127.961)">
                  <g id="wrist_left-2" data-name="wrist left">
                    <path id="Trazado_104513" data-name="Trazado 104513" d="M367.717,346.373a9.592,9.592,0,0,0-3.187-1.395c-1.5-.36-3.532-.48-5.46-.848a7.756,7.756,0,0,0-2.047-.33c-.2.187.105,1.215,1.785,1.665a21.9,21.9,0,0,1,3.495,1.357Z" transform="translate(-351.287 -343.8)" fill="#ffb476"/>
                    <path id="Trazado_104514" data-name="Trazado 104514" d="M366.769,350.568a31.658,31.658,0,0,1-8.94,2.88c-4.35.533-5.648-.09-5.678-.555s.787-.323,2.25-.42c1.215-.075,2.482,0,2.438-.232s-2.573-.187-3-.158-3.428.12-3.562-.607,2.017-.75,3.188-.75c0,0,2.88-.2,2.813-.413s-2.633.12-3.068.158-3.607.412-3.787-.255.51-.952,3.232-1.193c0,0,3.307-.2,3.225-.412-.135-.6-5.6.825-5.917-.21-.158-.525,1.087-.75,2.73-.945s4.5-.4,5.948-.75c4.59-1.14,7.17.323,7.17.323S368.209,348.655,366.769,350.568Z" transform="translate(-349.394 -344.418)" fill="#ffb476"/>
                  </g>
                  <path id="Trazado_104515" data-name="Trazado 104515" d="M372.242,350.253l4.59-.42L375.4,345.07l-4.11,1.62Z" transform="translate(-354.868 -344.118)" fill="#ffb476"/>
                </g>
                <g id="Grupo_54546" data-name="Grupo 54546" transform="translate(31.954 143.809)">
                  <path id="Trazado_104516" data-name="Trazado 104516" d="M392,365.07v4.013c21.75,6.247,47.76.795,52.043-.2l-.082-3.81C410.855,371.543,392,365.07,392,365.07Z" transform="translate(-392 -364.965)" fill="#723c1e"/>
                  <path id="Trazado_104517" data-name="Trazado 104517" d="M394.76,364.93l3.292.615v5.963H394.76Z" transform="translate(-392.69 -364.93)" fill="#323249"/>
                  <path id="Trazado_104518" data-name="Trazado 104518" d="M408.32,366.99l3.292.615v5.955H408.32Z" transform="translate(-396.08 -365.445)" fill="#323249"/>
                  <path id="Trazado_104519" data-name="Trazado 104519" d="M432.84,367.4l3.293.12v6.45H432.84Z" transform="translate(-402.21 -365.547)" fill="#323249"/>
                  <path id="Trazado_104520" data-name="Trazado 104520" d="M451.33,365.34l3.293.105v5.55H451.33Z" transform="translate(-406.832 -365.033)" fill="#323249"/>
                  <rect id="Rectángulo_5624" data-name="Rectángulo 5624" width="9.66" height="5.753" transform="translate(18.405 2.258)" fill="#9ea8dd"/>
                  <rect id="Rectángulo_5625" data-name="Rectángulo 5625" width="7.605" height="3.697" transform="translate(19.433 3.285)" fill="#723c1e"/>
                </g>
                <path id="Trazado_104521" data-name="Trazado 104521" d="M391.386,327.455c-.105,7.448-.2,13.5.54,14.46.6.75,12.188,2.8,24.27,2.79,13.117,0,26.827-2.138,27.7-3.307,1.447-1.92,2.595-34.29.615-63.578l-18.45,35.655Z" transform="translate(-359.874 -199.344)" fill="#e5c3da"/>
                <path id="Trazado_104522" data-name="Trazado 104522" d="M420.642,341.665c.128-12.952-.233-28.5-.592-43.6-.233-9.795-.473-22.89-.578-32.167h-.982c.1,9.293.345,22.388.57,32.182.367,15.083.75,30.63.607,43.56Z" transform="translate(-366.668 -196.364)" fill="#dbb4d1"/>
                <path id="Trazado_104523" data-name="Trazado 104523" d="M452.175,259.026c-6.667-3.81-12.69,12.84-18.375,28.342-5.392,14.73-11.032,28.605-4.875,31.987C443.153,327.164,462.945,265.191,452.175,259.026Z" transform="translate(-368.606 -194.508)" fill="#f7e8f0"/>
                <path id="Trazado_104524" data-name="Trazado 104524" d="M415.71,257.2l2.063,4.68,1.762-4.68,2.025,4.83-3.832,3.54-4.208-3.547Z" transform="translate(-365.426 -194.189)" fill="#e5c3da"/>
                <g id="Grupo_54547" data-name="Grupo 54547" transform="translate(45.522 65.854)">
                  <path id="Trazado_104525" data-name="Trazado 104525" d="M418.19,272.71s4.343,25.1,4.133,49.335l-6.12,10.193-6.112-9.99C412,303.115,415.5,272.71,415.5,272.71Z" transform="translate(-410.09 -263.92)" fill="#28283d"/>
                  <path id="Trazado_104526" data-name="Trazado 104526" d="M415.412,263.622l-3.27-2.633-1.552,2.647,3.315,3.443,1.117-1.5Z" transform="translate(-410.215 -260.99)" fill="#28283d"/>
                  <path id="Trazado_104527" data-name="Trazado 104527" d="M421.432,263.725l3.24-2.325,1.245,2.258-3,3.51L421.17,266Z" transform="translate(-412.86 -261.092)" fill="#28283d"/>
                  <path id="Trazado_104528" data-name="Trazado 104528" d="M419.89,264.5H416.5l-1.5,3.457,1.342,4.193,2.955.067,2.07-4.275Z" transform="translate(-411.318 -261.867)" fill="#323249"/>
                </g>
                <path id="Trazado_104529" data-name="Trazado 104529" d="M413.98,254.885l-4.388,10.073-3.052-12.705,3.42-4.312Z" transform="translate(-363.681 -191.874)" fill="#f7e8f0"/>
                <path id="Trazado_104530" data-name="Trazado 104530" d="M421.54,254.223l4.238,10.073L436.8,251.253l-4.4-5.963Z" transform="translate(-367.431 -191.211)" fill="#f7e8f0"/>
                <path id="Trazado_104531" data-name="Trazado 104531" d="M424.32,331.6c-13.275,13.388-49.5,13.1-49.5,13.1l-1.62-6.45s26.775-6.825,42-21.06Z" transform="translate(-355.346 -209.186)" fill="#f7e8f0"/>
              </g>
              <g id="Grupo_54549" data-name="Grupo 54549" transform="translate(79.878 88.541)">
                <path id="Trazado_104532" data-name="Trazado 104532" d="M197.067,242.685l-2.948,1.747c-2.175-3.668-1.05-6.75-.15-9.285l.33-.93c1.013-3,.375-5.7-1.755-7.425a6.247,6.247,0,0,0-7.185-.51,6,6,0,0,0-2.963,4.965,6.255,6.255,0,0,0,2.925,5.37l-1.928,2.828a9.592,9.592,0,0,1-4.4-8.3,9.375,9.375,0,0,1,4.635-7.807,9.75,9.75,0,0,1,11.092.8c3.255,2.647,4.313,6.825,2.835,11.19l-.352.983C196.361,238.6,195.717,240.405,197.067,242.685Z" transform="translate(-178.996 -221.971)" fill="#c83737"/>
                <rect id="Rectángulo_5626" data-name="Rectángulo 5626" width="3.855" height="3.855" transform="translate(16.194 24.561) rotate(-30.64)" fill="#c83737"/>
              </g>
              <g id="Grupo_54550" data-name="Grupo 54550" transform="translate(170.706 22.941)">
                <path id="Trazado_104533" data-name="Trazado 104533" d="M307.4,157.968l-3.3-.923c1.14-4.1,4.163-5.452,6.592-6.533l.9-.413c2.865-1.335,4.372-3.667,4.147-6.4a6.24,6.24,0,0,0-4.605-5.543,6,6,0,0,0-5.633,1.305,6.24,6.24,0,0,0-1.852,5.82l-3.375.57a9.607,9.607,0,0,1,2.932-8.932,9.375,9.375,0,0,1,8.85-2.063,9.75,9.75,0,0,1,7.095,8.558c.345,4.177-1.935,7.837-6.112,9.787l-.952.435C309.865,154.631,308.11,155.411,307.4,157.968Z" transform="translate(-300.099 -134.503)" fill="#c83737"/>
                <rect id="Rectángulo_5627" data-name="Rectángulo 5627" width="3.855" height="3.855" transform="translate(3.234 24.775) rotate(15.56)" fill="#c83737"/>
              </g>
              <g id="Grupo_54551" data-name="Grupo 54551" transform="translate(190.913 71.451)">
                <path id="Trazado_104534" data-name="Trazado 104534" d="M334.751,226.8l-3.84-1.305c1.62-4.785,5.295-6.18,8.25-7.305l1.087-.42c3.48-1.4,5.423-4.058,5.332-7.305a7.417,7.417,0,0,0-5.07-6.84,7.11,7.11,0,0,0-6.75,1.178,7.425,7.425,0,0,0-2.58,6.75l-4.027.45a11.392,11.392,0,0,1,4.057-10.388,11.138,11.138,0,0,1,10.582-1.815,11.587,11.587,0,0,1,7.838,10.6c.135,4.965-2.805,9.15-7.875,11.182l-1.162.45C337.893,223.046,335.763,223.848,334.751,226.8Z" transform="translate(-327.043 -199.184)" fill="#c83737"/>
                <rect id="Rectángulo_5628" data-name="Rectángulo 5628" width="4.568" height="4.568" transform="translate(2.833 28.917) rotate(18.74)" fill="#c83737"/>
              </g>
              <g id="Grupo_54552" data-name="Grupo 54552" transform="translate(99.107 19.354)">
                <path id="Trazado_104535" data-name="Trazado 104535" d="M220.5,157.058l-4.005.652c-.81-4.988,1.77-7.943,3.848-10.32l.75-.885c2.415-2.857,2.88-6.128,1.283-8.955a7.417,7.417,0,0,0-7.71-3.675,7.118,7.118,0,0,0-5.422,4.208,7.388,7.388,0,0,0,.908,7.185l-3.353,2.295a11.4,11.4,0,0,1-1.283-11.077,11.122,11.122,0,0,1,8.5-6.615,11.573,11.573,0,0,1,11.9,5.685c2.452,4.32,1.815,9.4-1.71,13.568l-.81.945C221.5,152.243,220,153.93,220.5,157.058Z" transform="translate(-204.635 -129.722)" fill="#c83737"/>
                <rect id="Rectángulo_5629" data-name="Rectángulo 5629" width="4.568" height="4.568" transform="translate(12.145 30.759) rotate(-9.23)" fill="#c83737"/>
              </g>
              <g id="Grupo_54555" data-name="Grupo 54555" transform="translate(205.295)">
                <path id="Trazado_104536" data-name="Trazado 104536" d="M377.727,149.8a37.59,37.59,0,0,1-5.475-.4c-16.072-2.362-27.667-14.392-25.845-26.82s16.38-20.625,32.475-18.255a34.194,34.194,0,0,1,19.582,9.555c4.875,5.018,7.155,11.25,6.263,17.25a17.954,17.954,0,0,1-1.5,4.882l3.547,9a.76.76,0,0,1-.893,1.02l-8.76-2.393C392.037,147.629,385.055,149.8,377.727,149.8Zm-4.38-44.325c-13.013,0-23.91,7.125-25.418,17.348-1.7,11.587,9.307,22.837,24.548,25.08,9,1.32,18-.8,24-5.693a.75.75,0,0,1,.682-.143l7.65,2.092-3.1-7.852a.8.8,0,0,1,0-.615,16.4,16.4,0,0,0,1.5-4.748c.825-5.572-1.253-11.25-5.842-15.975a32.694,32.694,0,0,0-18.7-9.105,36.675,36.675,0,0,0-5.31-.39Z" transform="translate(-346.219 -103.916)" fill="#c83737"/>
                <g id="Grupo_54554" data-name="Grupo 54554" transform="translate(14.019 7.488)">
                  <path id="Trazado_104537" data-name="Trazado 104537" d="M378.725,127.34v5.828h-6.908v5.82H364.91v5.933h20.783V127.34Z" transform="translate(-364.91 -117.26)" fill="#c83737"/>
                  <g id="Grupo_54553" data-name="Grupo 54553" transform="translate(19.995)">
                    <rect id="Rectángulo_5630" data-name="Rectángulo 5630" width="1.537" height="26.49" transform="translate(3.622 1.162)" fill="#c83737"/>
                    <path id="Trazado_104538" data-name="Trazado 104538" d="M400.36,118.632l-.787.728-3.607-3.878-3.608,3.878-.787-.728,4.4-4.732Z" transform="translate(-391.57 -113.9)" fill="#c83737"/>
                  </g>
                </g>
              </g>
              <g id="Grupo_54560" data-name="Grupo 54560" transform="translate(20.94 17.544)">
                <g id="Grupo_54559" data-name="Grupo 54559" transform="translate(14.433 7.912)">
                  <path id="Trazado_104539" data-name="Trazado 104539" d="M145.272,167.344a.674.674,0,0,1-.165-.045l-24.232-10.673a.637.637,0,0,1-.33-.352.63.63,0,0,1,0-.48l6.645-15.09a.63.63,0,0,1,.833-.323l24.24,10.673a.638.638,0,0,1,.337.345.645.645,0,0,1,0,.487l-6.645,15.09a.637.637,0,0,1-.682.367Z" transform="translate(-119.866 -138.475)" fill="#c83737"/>
                  <g id="Grupo_54558" data-name="Grupo 54558">
                    <path id="Trazado_104540" data-name="Trazado 104540" d="M144.446,164.882a.607.607,0,0,1-.165-.053l-24.24-10.673a.637.637,0,0,1-.338-.345.622.622,0,0,1,0-.48l6.645-15.1a.63.63,0,0,1,.833-.322l24.232,10.673a.645.645,0,0,1,.337.352.622.622,0,0,1,0,.48l-6.645,15.09a.637.637,0,0,1-.66.375Z" transform="translate(-119.656 -137.858)" fill="#c83737"/>
                    <g id="Grupo_54556" data-name="Grupo 54556" transform="translate(12.539 8.072)">
                      <path id="Trazado_104541" data-name="Trazado 104541" d="M139.094,158.887a4.028,4.028,0,0,1-.96-.285,3,3,0,0,1-1.687-3.382.532.532,0,0,1,.66-.42.555.555,0,0,1,.428.66,1.875,1.875,0,0,0,1.05,2.122c1.223.54,1.688,0,1.98-.668.2-.443.27-1.1-.915-2.25-1.4-1.327-1.868-2.527-1.4-3.577a2.641,2.641,0,0,1,3.75-1.215,2.572,2.572,0,0,1,1.38,3.45.54.54,0,0,1-.75.3.555.555,0,0,1-.307-.75,1.5,1.5,0,0,0-.8-2.01c-1.433-.645-2.033.128-2.25.645-.315.713.458,1.658,1.155,2.325,1.275,1.215,1.665,2.348,1.17,3.473A2.25,2.25,0,0,1,139.094,158.887Z" transform="translate(-136.374 -148.852)" fill="#fff"/>
                      <path id="Trazado_104542" data-name="Trazado 104542" d="M138,159.285a.443.443,0,0,1-.143-.038.555.555,0,0,1-.285-.75l4.2-9.533a.54.54,0,0,1,.75-.285.555.555,0,0,1,.285.75l-4.2,9.533A.547.547,0,0,1,138,159.285Z" transform="translate(-136.66 -148.621)" fill="#fff"/>
                    </g>
                    <g id="Grupo_54557" data-name="Grupo 54557" transform="translate(6.59 8.458)">
                      <path id="Trazado_104543" data-name="Trazado 104543" d="M130.278,149.154a1.59,1.59,0,1,0,.4.12,1.658,1.658,0,0,0-.4-.12Zm1.793,2.46Z" transform="translate(-128.443 -149.134)" fill="#fff"/>
                      <path id="Trazado_104544" data-name="Trazado 104544" d="M151.325,158.415a1.547,1.547,0,1,0,.4.12,1.656,1.656,0,0,0-.4-.12Zm1.793,2.46Z" transform="translate(-133.709 -151.45)" fill="#fff"/>
                    </g>
                    <path id="Trazado_104545" data-name="Trazado 104545" d="M144.63,164.085l-.173-.075L121.38,153.892l.075-.172,6.247-14.25.18.075,23.077,10.117-.075.18ZM121.883,153.7l22.552,9.885,6-13.725-22.56-9.885Z" transform="translate(-120.087 -138.261)" fill="#fff"/>
                  </g>
                </g>
                <path id="Trazado_104546" data-name="Trazado 104546" d="M129.5,173.225c-7.342,0-14.31-2.175-19.395-6.172l-8.752,2.393a.787.787,0,0,1-.75-.232.75.75,0,0,1-.135-.795l3.547-9a18.121,18.121,0,0,1-1.5-4.875c-1.822-12.428,9.75-24.465,25.845-26.828s30.645,5.82,32.475,18.248c.892,6.06-1.335,12.195-6.263,17.25a34.281,34.281,0,0,1-19.6,9.615A37.593,37.593,0,0,1,129.5,173.225ZM110.28,165.44a.787.787,0,0,1,.488.173c6,4.89,15,7.013,24,5.693a32.634,32.634,0,0,0,18.7-9.113c4.643-4.785,6.668-10.4,5.842-15.975-1.7-11.587-15.51-19.2-30.75-16.957s-26.25,13.5-24.547,25.087a16.3,16.3,0,0,0,1.5,4.74.75.75,0,0,1,0,.622l-3.09,7.868,7.65-2.085a.63.63,0,0,1,.2-.053Z" transform="translate(-100.411 -127.308)" fill="#c83737"/>
              </g>
            </g>
          </g>
        </g>
      </g>
    </g>
  </g>
</svg>
