<svg xmlns="http://www.w3.org/2000/svg" xmlns:xlink="http://www.w3.org/1999/xlink" width="400" height="400" viewBox="0 0 400 400">
  <defs>
    <clipPath id="clip-path">
      <circle id="Elipse_4172" data-name="Elipse 4172" cx="170.096" cy="170.096" r="170.096" fill="none"/>
    </clipPath>
  </defs>
  <g id="Grupo_55739" data-name="Grupo 55739" transform="translate(-249 -5537)">
    <g id="CF1_3.3._Acci칩n_de_cumplimiento" data-name="CF1_3.3. Acci칩n de cumplimiento" transform="translate(249 5535.16)">
      <g id="Capa_2" data-name="Capa 2" transform="translate(39.12 39.904)">
        <circle id="Elipse_4169" data-name="Elipse 4169" cx="170.096" cy="170.096" r="170.096" fill="#edefe2"/>
      </g>
      <g id="Layer_1" data-name="Layer 1" transform="translate(0 1.84)">
        <g id="Grupo_55533" data-name="Grupo 55533">
          <rect id="Rect치ngulo_5908" data-name="Rect치ngulo 5908" width="400" height="400" fill="none"/>
          <circle id="Elipse_4170" data-name="Elipse 4170" cx="170.096" cy="170.096" r="170.096" transform="translate(39.12 38.064)" fill="none"/>
          <path id="Trazado_106748" data-name="Trazado 106748" d="M218.788,48.93A169.288,169.288,0,0,0,49.38,218.338a6.056,6.056,0,1,0,12.112,0,157.16,157.16,0,0,1,157.3-157.3,6.056,6.056,0,0,0,0-12.112Z" transform="translate(-9.876 -11.258)" fill="#b2b3a9"/>
          <g id="Grupo_55504" data-name="Grupo 55504" transform="translate(17.346 16.019)">
            <path id="Trazado_106749" data-name="Trazado 106749" d="M63.472,428.72a162.779,162.779,0,0,1-11.592-13.4c-3.44-4.464-6.688-9.168-10.328-14.784a10.8,10.8,0,0,0-18.136,11.736c3.84,5.92,7.448,11.2,11.36,16.24a184.361,184.361,0,0,0,13.1,15.144,10.8,10.8,0,1,0,15.6-14.937Z" transform="translate(-21.682 -96.611)" fill="#d5d9ba"/>
            <path id="Trazado_106750" data-name="Trazado 106750" d="M98.279,477.391c-3.144-2.4,3.008,2.568,0,0" transform="translate(-36.817 -112.834)" fill="#9a6771"/>
            <path id="Trazado_106751" data-name="Trazado 106751" d="M84.158,476.558a10.209,10.209,0,0,0,.48,1.5,9.938,9.938,0,0,0,.8,1.6c.216.352.384.592.52.8.28.376.464.584.608.752.272.312.424.456.544.576s.328.312.424.4l.4.344.584.488.9.72.5.376.488.344.264.168a9.36,9.36,0,0,0,.856.488,11.409,11.409,0,0,0,2.4.9,12,12,0,0,0,1.3.216h1.24a11.3,11.3,0,0,0,1.472-.1,10.028,10.028,0,0,0,1.88-.44,10.285,10.285,0,0,0,1.984-.88,10.766,10.766,0,0,0,4.968-12.632,10.723,10.723,0,0,0-.632-1.6,11.5,11.5,0,0,0-.8-1.4c-.192-.28-.344-.456-.464-.608-.232-.28-.368-.432-.488-.56s-.328-.336-.424-.432l-.368-.336c-.144-.136-.272-.248-.424-.376l-.512-.44a2.514,2.514,0,0,0-.232-.176l-.208-.184h0l-.872-.656-.5-.352c-.128-.088-.272-.184-.632-.4a10.15,10.15,0,0,0-.936-.488,12.528,12.528,0,0,0-1.2-.472l-.544-.16H97.15l-.192-.04h-.552a9.844,9.844,0,0,0-.984-.1H94.374a11.126,11.126,0,0,0-1.68.176,11.308,11.308,0,0,0-1.9.544,10.855,10.855,0,0,0-3.616,2.168,10.727,10.727,0,0,0-1.928,2.5,10.529,10.529,0,0,0-1.184,3.256,10.2,10.2,0,0,0-.192,2.016,10.52,10.52,0,0,0,.288,2.5ZM95.446,486.278ZM97.422,463.646ZM97.318,463.646ZM96.862,463.542Z" transform="translate(-34.12 -110.169)" fill="#bd9aa0"/>
            <path id="Trazado_106752" data-name="Trazado 106752" d="M408.39,33.37a218.008,218.008,0,0,1,58.088,54.248" transform="translate(-99.024 -24.165)" fill="#590212"/>
            <path id="Trazado_106753" data-name="Trazado 106753" d="M401.147,38.829a208.8,208.8,0,0,1,55.624,51.944,9.2,9.2,0,1,0,14.8-10.929,227.145,227.145,0,0,0-60.529-56.535,9.2,9.2,0,1,0-9.9,15.512Z" transform="translate(-96.724 -21.864)" fill="#deccd0"/>
            <path id="Trazado_106754" data-name="Trazado 106754" d="M458.356,411.036c-2.184,2.856,2.328-2.728,0,0" transform="translate(-108.894 -99.543)" fill="#9a6771"/>
            <path id="Trazado_106755" data-name="Trazado 106755" d="M457.553,422.56a15.666,15.666,0,0,0,2.088-.68,15.355,15.355,0,0,0,2.168-1.1c.472-.3.8-.528,1.056-.72.5-.376.8-.616,1-.8.416-.376.608-.568.8-.728.288-.288.408-.424.52-.544s.288-.344.4-.464l.5-.6c.24-.3.472-.584.712-.9.12-.152.24-.3.424-.552l.176-.24.184-.272.224-.328.248-.4c.072-.128.168-.28.272-.48a14.133,14.133,0,0,0,.72-1.472,14.6,14.6,0,0,0,.592-1.712,14.216,14.216,0,0,0,.344-1.528,14.789,14.789,0,0,0-11.856-16.992,14.4,14.4,0,0,0-2.736-.256,14.792,14.792,0,0,0-5.672,1.128,15.5,15.5,0,0,0-1.6.76,16.122,16.122,0,0,0-1.528.984c-.32.24-.536.416-.72.56-.336.288-.528.472-.688.616s-.424.416-.544.536l-.408.44-.4.456-.424.5c-.088.1-.16.216-.248.32s-.168.192-.248.3h0c-.264.344-.456.592-.664.88l-.176.24-.176.256c-.048.072-.112.16-.184.28s-.128.192-.216.336-.144.232-.24.4-.16.28-.272.48a15.586,15.586,0,0,0-1.232,3.144,14.776,14.776,0,0,0,10.3,18.064,15.2,15.2,0,0,0,3.2.536h.8A15.2,15.2,0,0,0,457.553,422.56Z" transform="translate(-105.195 -95.851)" fill="#eef0e3"/>
            <path id="Trazado_106756" data-name="Trazado 106756" d="M55.27,116.736A197.961,197.961,0,0,1,104.518,64" transform="translate(-28.4 -30.291)" fill="#590212"/>
            <path id="Trazado_106757" data-name="Trazado 106757" d="M59.305,118.693a191.04,191.04,0,0,1,47.552-50.912,6.8,6.8,0,0,0-8.08-10.944,204.8,204.8,0,0,0-50.944,54.544,6.8,6.8,0,1,0,11.472,7.312Z" transform="translate(-26.699 -28.592)" fill="#f1cdcd"/>
          </g>
          <path id="Trazado_106758" data-name="Trazado 106758" d="M234.622,34.492a184.92,184.92,0,0,0-20.288-1.112A182.145,182.145,0,0,0,148.3,45.724,183.634,183.634,0,0,0,194.454,399.54a7.835,7.835,0,1,0,1.712-15.576A167.949,167.949,0,0,1,214.334,49.076,171.321,171.321,0,0,1,232.9,50.092a7.835,7.835,0,0,0,1.72-15.576Z" transform="translate(-6.182 -8.148)" fill="#e6e8d6"/>
          <g id="Grupo_55532" data-name="Grupo 55532" transform="translate(39.12 38.064)" clip-path="url(#clip-path)">
            <g id="Grupo_55507" data-name="Grupo 55507" transform="translate(24.08 239.824)">
              <g id="Grupo_55505" data-name="Grupo 55505">
                <path id="Trazado_106759" data-name="Trazado 106759" d="M84.424,389.414l1.528-13.88,12.784-1.784H83.44Z" transform="translate(-79.888 -354.11)" fill="#8c8425"/>
                <path id="Trazado_106760" data-name="Trazado 106760" d="M86.2,375.534l-1.528,13.88.48,7.6h15.36L98.982,373.75Z" transform="translate(-80.134 -354.11)" fill="#b2ac38"/>
                <path id="Trazado_106761" data-name="Trazado 106761" d="M108.64,399.34h41.144V385.38l-1.648,12.368Z" transform="translate(-84.928 -356.436)" fill="#ffa9ba"/>
                <path id="Trazado_106762" data-name="Trazado 106762" d="M172.56,401.636h48.008V396.86l-.888,3.664Z" transform="translate(-97.712 -358.732)" fill="#a5445b"/>
                <path id="Trazado_106763" data-name="Trazado 106763" d="M167.814,373.75H160.07v.632l57.016.384.984,3.568V373.75H167.814Z" transform="translate(-95.214 -354.11)" fill="#a5445b"/>
                <path id="Trazado_106764" data-name="Trazado 106764" d="M215.526,378.4l2.544.088-.984-3.568-57.016-.384v22.632h9.992l47.12-1.112.888-3.664-2.416.064-51.384,1.464V376.58Z" transform="translate(-95.214 -354.268)" fill="#ce6378"/>
                <path id="Trazado_106765" data-name="Trazado 106765" d="M209.074,389.426l6.224-.7.3-7.816-28.12-1.56,28.208.8h1.144l-.2-1.24h0L165.37,377.09a15.911,15.911,0,0,1,1.536,3.3l15.448.528-15.2.272a16.08,16.08,0,0,1,.184,8.9h26.2l-26.544,1.088a15.542,15.542,0,0,1-1.6,3.264l51.32-1.416.416-3.552h-8.056Zm-2.792-.7h0a23.148,23.148,0,0,1-1.28,2.992,49.078,49.078,0,0,0-13.672-8h19.456a41,41,0,0,0-3.848,5.352,7.109,7.109,0,0,0-.64-.344Z" transform="translate(-96.274 -354.778)" fill="#f6e9c4"/>
                <path id="Trazado_106766" data-name="Trazado 106766" d="M174.526,369.28H169.75v3.576h47.336V369.28h-42.56Z" transform="translate(-97.15 -353.216)" fill="#ffc13d"/>
                <path id="Trazado_106767" data-name="Trazado 106767" d="M221.126,381.48l.032-.76-28.208-.8Z" transform="translate(-101.79 -355.344)" fill="#cec09b"/>
                <path id="Trazado_106768" data-name="Trazado 106768" d="M226.22,392.336l.024-.7-6.224.7Z" transform="translate(-107.204 -357.688)" fill="#cec09b"/>
                <path id="Trazado_106769" data-name="Trazado 106769" d="M216.226,355.836l.864,1.9V354.74l-42.72-4Z" transform="translate(-98.074 -349.508)" fill="#e5a32e"/>
                <path id="Trazado_106770" data-name="Trazado 106770" d="M173.446,350.652l-3.7-.352v3.72l43.84,3.424,2.576.2-.864-1.9Z" transform="translate(-97.15 -349.42)" fill="#ffc13d"/>
                <path id="Trazado_106771" data-name="Trazado 106771" d="M193.3,362.28l20.288-.568v-3.328h0L169.75,355v1.6l8.256.576-8.256-.3v1.968h20.136s-9.544,3.392-15.36,6.792v.76h40.592l.44-4.4-1.968.256Z" transform="translate(-97.15 -350.36)" fill="#f6e9c4"/>
                <path id="Trazado_106772" data-name="Trazado 106772" d="M219.478,363.966v-.576l-20.288.576Z" transform="translate(-103.038 -352.038)" fill="#cec09b"/>
                <path id="Trazado_106773" data-name="Trazado 106773" d="M212.792,390.38a7.1,7.1,0,0,1,.656.352,41,41,0,0,1,3.848-5.352H197.84C207.224,387.892,211.344,389.668,212.792,390.38Z" transform="translate(-102.768 -356.436)" fill="#fffbf3"/>
                <path id="Trazado_106774" data-name="Trazado 106774" d="M211.512,393.382a23.148,23.148,0,0,0,1.28-2.992h0c-1.448-.712-5.6-2.488-14.952-5A47.96,47.96,0,0,1,211.512,393.382Z" transform="translate(-102.768 -356.438)" fill="#a5987a"/>
                <path id="Trazado_106775" data-name="Trazado 106775" d="M167.36,394.418,193.9,393.33H167.7C167.608,393.69,167.5,394.05,167.36,394.418Z" transform="translate(-96.672 -358.026)" fill="#cec09b"/>
                <path id="Trazado_106776" data-name="Trazado 106776" d="M172.142,363.808l.584-.24c5.92-2.3,17.16-3.728,17.16-3.728H169.75C171.23,360.936,172.142,363.808,172.142,363.808Z" transform="translate(-97.15 -351.328)" fill="#fffbf3"/>
                <path id="Trazado_106777" data-name="Trazado 106777" d="M175.27,366.632c5.816-3.4,15.36-6.792,15.36-6.792s-11.2,1.432-17.16,3.728C174.366,364.192,175.27,366.632,175.27,366.632Z" transform="translate(-97.894 -351.328)" fill="#a5987a"/>
                <path id="Trazado_106778" data-name="Trazado 106778" d="M167.5,382.01l15.2-.272-15.448-.528C167.33,381.466,167.418,381.73,167.5,382.01Z" transform="translate(-96.65 -355.602)" fill="#cec09b"/>
                <path id="Trazado_106779" data-name="Trazado 106779" d="M169.75,357.31l8.256.3-8.256-.576Z" transform="translate(-97.15 -350.766)" fill="#cec09b"/>
                <path id="Trazado_106780" data-name="Trazado 106780" d="M172.724,363.56l-.584.24s-.912-2.872-2.4-4v7.552h4.8v-.76S173.62,364.184,172.724,363.56Z" transform="translate(-97.148 -351.32)" fill="#f6e9c4"/>
                <path id="Trazado_106781" data-name="Trazado 106781" d="M158.01,362.88v5.96H167.4v-3.576h-7.416V353.216l7.416.584v-3.72l-9.392-.88Z" transform="translate(-94.802 -349.2)" fill="#71a389"/>
                <path id="Trazado_106782" data-name="Trazado 106782" d="M160.48,366.846H167.9v-9.52l-6.016-.216A8.592,8.592,0,0,1,160.48,366.846Z" transform="translate(-95.296 -350.782)" fill="#f6e9c4"/>
                <path id="Trazado_106783" data-name="Trazado 106783" d="M162.17,356.978l6.016.216v-.3l-6.256-.44Z" transform="translate(-95.586 -350.65)" fill="#cec09b"/>
                <path id="Trazado_106784" data-name="Trazado 106784" d="M161.63,356.038h0l6.256.44v-1.624l-7.416-.584a10.286,10.286,0,0,1,1.16,1.768Z" transform="translate(-95.294 -350.214)" fill="#f6e9c4"/>
                <path id="Trazado_106785" data-name="Trazado 106785" d="M166.856,380.386a15.913,15.913,0,0,0-1.536-3.3v17.344a15.542,15.542,0,0,0,1.6-3.264c.136-.368.248-.728.344-1.088a16.08,16.08,0,0,0-.184-8.9A5.124,5.124,0,0,0,166.856,380.386Z" transform="translate(-96.264 -354.778)" fill="#605848"/>
                <path id="Trazado_106786" data-name="Trazado 106786" d="M161.642,356.028h0a10.287,10.287,0,0,0-1.152-1.808v12.048a8.592,8.592,0,0,0,1.4-9.736Q161.762,356.268,161.642,356.028Z" transform="translate(-95.298 -350.204)" fill="#605848"/>
                <path id="Trazado_106787" data-name="Trazado 106787" d="M102.56,373.74l1.528,23.272h3.336l39.5-1.6,1.656-12.368v-9.3Zm37.456,17.952a5.992,5.992,0,1,1,5.976-5.984,5.992,5.992,0,0,1-5.976,5.984Z" transform="translate(-83.712 -354.108)" fill="#ef8494"/>
                <path id="Trazado_106788" data-name="Trazado 106788" d="M85.448,349.2H79l.8,19.632h62.4v-5.96l-1.528-11.816Zm3.08,15.84a5.992,5.992,0,1,1,5.976-5.992,5.992,5.992,0,0,1-5.976,5.992Zm49.6.928H111.8V352.64h26.328Z" transform="translate(-79 -349.2)" fill="#9ed8bf"/>
                <path id="Trazado_106789" data-name="Trazado 106789" d="M142.292,351.056l1.528,11.824V349.2H87.06Z" transform="translate(-80.612 -349.2)" fill="#bcf7dc"/>
                <path id="Trazado_106790" data-name="Trazado 106790" d="M147.878,381.21a5.992,5.992,0,1,0,5.976,5.992,5.992,5.992,0,0,0-5.976-5.992Zm0,10.656a4.656,4.656,0,1,1,3.3-1.367A4.672,4.672,0,0,1,147.878,391.866Z" transform="translate(-91.574 -355.602)" fill="#fffbf3"/>
                <path id="Trazado_106791" data-name="Trazado 106791" d="M148.208,382.86a4.656,4.656,0,1,0,3.3,1.369,4.672,4.672,0,0,0-3.3-1.369Z" transform="translate(-91.904 -355.932)" fill="#3a352d"/>
                <path id="Trazado_106792" data-name="Trazado 106792" d="M120,366.8h26.328V353.5H120Zm1.856-11.48H144.8v9.232H121.832Z" transform="translate(-87.2 -350.06)" fill="#3a352d"/>
                <path id="Trazado_106793" data-name="Trazado 106793" d="M123.43,365.16h22.032v-8.6l-21.272,1.384Z" transform="translate(-87.886 -350.672)" fill="#fffbf3"/>
                <path id="Trazado_106794" data-name="Trazado 106794" d="M122.29,365h.912l.76-7.216,21.272-1.384v-.632H122.29Z" transform="translate(-87.658 -350.514)" fill="#efe5d3"/>
                <path id="Trazado_106795" data-name="Trazado 106795" d="M89.408,354a5.992,5.992,0,1,0,5.976,5.984A5.992,5.992,0,0,0,89.408,354Zm0,10.656a1.933,1.933,0,1,0,0-.008Z" transform="translate(-79.88 -350.16)" fill="#fffbf3"/>
                <path id="Trazado_106796" data-name="Trazado 106796" d="M89.738,355.64a4.656,4.656,0,1,0,3.3,1.367A4.672,4.672,0,0,0,89.738,355.64Z" transform="translate(-80.21 -350.488)" fill="#3a352d"/>
              </g>
              <g id="Grupo_55506" data-name="Grupo 55506" transform="translate(3.552 19.64)" opacity="0.3">
                <path id="Trazado_106797" data-name="Trazado 106797" d="M83.664,376.422h116.16V373.75H83.44Z" transform="translate(-83.44 -373.75)" fill="#3a352d"/>
              </g>
            </g>
            <g id="Grupo_55508" data-name="Grupo 55508" transform="translate(125.685 201.528)">
              <path id="Trazado_106798" data-name="Trazado 106798" d="M218.609,455.722H209.2a3.184,3.184,0,1,0,0,6.368h22.24a30.13,30.13,0,0,0,18.57-6.4l-31.4,0Z" transform="translate(-206.006 -332.202)" fill="#7d5c55"/>
              <path id="Trazado_106799" data-name="Trazado 106799" d="M250.37,445.82a30.016,30.016,0,0,1-20.4,7.928h24.8a29.841,29.841,0,0,0,6.536-7.064c-5.032-.464-9.008-.8-10.96-.864Z" transform="translate(-210.799 -330.228)" fill="#6b5c53"/>
              <path id="Trazado_106800" data-name="Trazado 106800" d="M279.846,455.73H256.358a30.128,30.128,0,0,1-18.568,6.4h42.048a3.2,3.2,0,0,1,.008-6.4Z" transform="translate(-212.363 -332.21)" fill="#7d5c55"/>
              <path id="Trazado_106801" data-name="Trazado 106801" d="M281.574,463.552H246.43l2.192,3.048h0l56.544-.288-.92,5.3h1.4l3.92-8.616a30.462,30.462,0,0,1-5.712.544Z" transform="translate(-214.091 -333.664)" fill="#d1bda6"/>
              <path id="Trazado_106802" data-name="Trazado 106802" d="M249.17,467.428l4.16,5.776,15.312-.224,24.256-.368,11.9-.168.92-5.3-56.544.288Z" transform="translate(-214.639 -334.492)" fill="#e9dac8"/>
              <path id="Trazado_106803" data-name="Trazado 106803" d="M247.848,445.7s-1.384-.352-5.448,2.664-13.768,5.36-20.64,5.36h6.592a30.016,30.016,0,0,0,20.4-7.928A2.879,2.879,0,0,1,247.848,445.7Z" transform="translate(-209.157 -330.201)" fill="#6b5c53"/>
              <path id="Trazado_106804" data-name="Trazado 106804" d="M261,453.954h39.5a30.145,30.145,0,0,0,13.472-3.2c-7.448-.088-31.536-2.552-46.4-3.9a29.84,29.84,0,0,1-6.568,7.1Z" transform="translate(-217.005 -330.434)" fill="#6b5c53"/>
              <path id="Trazado_106805" data-name="Trazado 106805" d="M262.44,427.377c0,2.344-4,7.288-7.336,10.4-2.1,1.936-1.6,2.576-.888,2.784a2.88,2.88,0,0,0,.88.1h0a29.544,29.544,0,0,0,9.6-20.36,4.135,4.135,0,0,1-.624-.36C261.92,419.625,262.44,425.041,262.44,427.377Z" transform="translate(-215.526 -325.049)" fill="#82766e"/>
              <path id="Trazado_106806" data-name="Trazado 106806" d="M265.627,322.77a3.76,3.76,0,0,0,.672,2.84l-.072-6.44C265.987,320.57,265.8,321.762,265.627,322.77Z" transform="translate(-217.92 -304.898)" fill="#e9dac8"/>
              <path id="Trazado_106807" data-name="Trazado 106807" d="M271.266,303.47a4.944,4.944,0,0,0-4.976,4.976v.448a23.809,23.809,0,0,1,.072,7.12h0l.072,6.44a3.88,3.88,0,0,0,3.152,1.6h6.192l.448-15.544a4.936,4.936,0,0,0-4.96-5.04Z" transform="translate(-218.063 -301.758)" fill="#e9dac8"/>
              <path id="Trazado_106808" data-name="Trazado 106808" d="M266.372,317.37a23.807,23.807,0,0,0-.072-7.12Z" transform="translate(-218.065 -303.114)" fill="#e9dac8"/>
              <path id="Trazado_106809" data-name="Trazado 106809" d="M265.544,331.932c.568,4.6-.144,5.6,0,9.792a2.8,2.8,0,0,0,.632,1.776,1.6,1.6,0,0,0,.272.3l-.184-16.576S264.976,327.316,265.544,331.932Z" transform="translate(-217.885 -306.508)" fill="#d8c9b8"/>
              <path id="Trazado_106810" data-name="Trazado 106810" d="M266.086,369.52s-1.3,1.944-.9,7.392-.656,11.728,1.6,12.392l-.216-19.52A3.3,3.3,0,0,1,266.086,369.52Z" transform="translate(-217.827 -314.968)" fill="#afa194"/>
              <path id="Trazado_106811" data-name="Trazado 106811" d="M266.125,347.57a5.664,5.664,0,0,0-.8,4.592c.592,2.936.176,8.88,0,11.648a1.44,1.44,0,0,0,.744,1.32,3.3,3.3,0,0,0,.5.264l-.2-17.528A1.6,1.6,0,0,1,266.125,347.57Z" transform="translate(-217.835 -310.578)" fill="#c4b5a5"/>
              <path id="Trazado_106812" data-name="Trazado 106812" d="M266.4,417.264a4.136,4.136,0,0,0,.624.36c0-.584.04-1.168,0-1.76l-.1-9.224C266.949,411.144,263.733,415.32,266.4,417.264Z" transform="translate(-217.874 -322.392)" fill="#998c81"/>
              <path id="Trazado_106813" data-name="Trazado 106813" d="M267.048,403.952l-.1-9.7C264.36,394.048,266.944,398.136,267.048,403.952Z" transform="translate(-217.965 -319.912)" fill="#998c81"/>
              <path id="Trazado_106814" data-name="Trazado 106814" d="M265.05,420.37a29.544,29.544,0,0,1-9.6,20.36c1.952.072,5.928.4,10.96.864a29.456,29.456,0,0,0,4.9-15.432l.144-4.9-2.9-.168A9.943,9.943,0,0,1,265.05,420.37Z" transform="translate(-215.895 -325.138)" fill="#82766e"/>
              <path id="Trazado_106815" data-name="Trazado 106815" d="M275.88,480.52h19.032l.672-4.16-20.944.864Z" transform="translate(-219.733 -336.336)" fill="#5b4440"/>
              <path id="Trazado_106816" data-name="Trazado 106816" d="M267.346,403.954v.208l.1,9.224v1.76a9.945,9.945,0,0,0,3.52.728l2.9.168.616-21.392a59.556,59.556,0,0,1-7.2-.4Z" transform="translate(-218.263 -319.914)" fill="#998c81"/>
              <path id="Trazado_106817" data-name="Trazado 106817" d="M267,369.85l.216,19.52a59.556,59.556,0,0,0,7.2.4l.568-19.3H273.1S269.064,370.77,267,369.85Z" transform="translate(-218.205 -315.034)" fill="#afa194"/>
              <path id="Trazado_106818" data-name="Trazado 106818" d="M266.95,365.464c2.1.9,6.112.6,6.112.6h1.888l.48-16.584c-4.128,0-7.2-.232-8.68-1.56Z" transform="translate(-218.155 -310.648)" fill="#c4b5a5"/>
              <path id="Trazado_106819" data-name="Trazado 106819" d="M266.48,327.22l.184,16.576c1.448,1.328,4.552,1.6,8.68,1.56l.48-16.528h-6.192A3.88,3.88,0,0,1,266.48,327.22Z" transform="translate(-218.101 -306.508)" fill="#d8c9b8"/>
              <path id="Trazado_106820" data-name="Trazado 106820" d="M279.35,483.94c.1,4.56.36,16,.6,19.424,3.256.24,8.424.32,12.32.344l-.728-18.4Z" transform="translate(-220.675 -337.852)" fill="#cecece"/>
              <path id="Trazado_106821" data-name="Trazado 106821" d="M279.33,483.468h0l12.192,1.392.728,18.4h1.6l.7-19.776.064-1.9H279.29S279.306,482.284,279.33,483.468Z" transform="translate(-220.663 -337.38)" fill="#999898"/>
              <path id="Trazado_106822" data-name="Trazado 106822" d="M300.252,481.284h-1.808l-.064,1.9,7.512,6.584h5.752l-10.936-9.592Z" transform="translate(-224.481 -337.1)" fill="#4c493f"/>
              <path id="Trazado_106823" data-name="Trazado 106823" d="M274.414,476.748l20.944-.864-.672,4.16h.592l.456-1.1,1.464-3.56.568-1.4-24.256.368Z" transform="translate(-219.507 -335.86)" fill="#3a2b29"/>
              <path id="Trazado_106824" data-name="Trazado 106824" d="M311.778,484.53l-9.024-8.8-1.464,3.56,10.936,9.592h30.12l-3.04-2.9Z" transform="translate(-225.063 -336.21)" fill="#878370"/>
              <path id="Trazado_106825" data-name="Trazado 106825" d="M274.22,421.49l-.144,4.9a29.456,29.456,0,0,1-4.9,15.432c14.9,1.352,38.984,3.816,46.4,3.9h0a29.744,29.744,0,0,0,16.24-22.4C328.8,423.866,287.828,422.21,274.22,421.49Z" transform="translate(-218.641 -325.362)" fill="#82766e"/>
              <path id="Trazado_106826" data-name="Trazado 106826" d="M283.528,349.747c-2.192.04-4.248.1-6.088.112l-.48,16.584c37.032.472,49.648,2.576,55.472,2.5a4.89,4.89,0,0,0,.88-.088l-.192-17.728C326.344,351.379,292.192,349.587,283.528,349.747Z" transform="translate(-220.197 -311.011)" fill="#c4b5a5"/>
              <path id="Trazado_106827" data-name="Trazado 106827" d="M332.29,373.116c-5.824.08-18.44-2.024-55.472-2.5l-.568,19.3c11.48.3,34.68.544,57.128,1.864l-.208-18.76A4.887,4.887,0,0,1,332.29,373.116Z" transform="translate(-220.055 -315.188)" fill="#afa194"/>
              <path id="Trazado_106828" data-name="Trazado 106828" d="M350.148,303.79a4.912,4.912,0,0,0-3.408,4.72l.176,15.568a2.96,2.96,0,0,0,.8-.256,3.264,3.264,0,0,0,1.784-2.232,93.284,93.284,0,0,0,2.16-14.872A3.248,3.248,0,0,0,350.148,303.79Z" transform="translate(-234.153 -301.822)" fill="#e9dac8"/>
              <path id="Trazado_106829" data-name="Trazado 106829" d="M332.4,329.214H278.04l-.48,16.528c1.84,0,3.9-.072,6.088-.112,8.672-.16,42.816,1.6,49.6,1.376l-.2-17.856a3.267,3.267,0,0,1-.648.064Z" transform="translate(-220.317 -306.894)" fill="#d8c9b8"/>
              <path id="Trazado_106830" data-name="Trazado 106830" d="M276.1,394.75l-.616,21.392c13.6.72,54.584,2.4,57.6,1.84a28.8,28.8,0,0,0,.3-4.5l-.192-16.872C310.776,395.294,287.576,395.054,276.1,394.75Z" transform="translate(-219.901 -320.014)" fill="#998c81"/>
              <path id="Trazado_106831" data-name="Trazado 106831" d="M343.48,423.79h0a29.744,29.744,0,0,1-16.24,22.4c9.952.112,13.392-11.248,16.248-15.944S343.48,423.79,343.48,423.79Z" transform="translate(-230.253 -325.822)" fill="#82766e"/>
              <path id="Trazado_106832" data-name="Trazado 106832" d="M348.834,403.872c.424-5.864-.344-6.544-.344-6.544a3,3,0,0,1-.856-.248l.192,16.872a28.8,28.8,0,0,1-.3,4.5h0C350.794,417.856,348.41,409.736,348.834,403.872Z" transform="translate(-234.311 -320.48)" fill="#998c81"/>
              <path id="Trazado_106833" data-name="Trazado 106833" d="M269.35,302.5a3.832,3.832,0,0,0-3.376,4.52c.088.456.168.944.248,1.448v-.448a4.976,4.976,0,1,1,9.944.088l-.448,15.544h54.36a3.27,3.27,0,0,0,.64-.064l-.176-15.568a4.912,4.912,0,0,1,3.408-4.72,3.2,3.2,0,0,0-1.528-.5C322.662,302.058,291.9,300.074,269.35,302.5Z" transform="translate(-217.987 -301.33)" fill="#e9dac8"/>
              <path id="Trazado_106834" data-name="Trazado 106834" d="M349.52,356.622c.592-4.1-1.768-5.192-1.768-5.192h-.592l.192,17.728a3.1,3.1,0,0,0,1.336-.576C351.368,366.534,349.024,360.062,349.52,356.622Z" transform="translate(-234.237 -311.35)" fill="#c4b5a5"/>
              <path id="Trazado_106835" data-name="Trazado 106835" d="M339.6,303.47a4.8,4.8,0,0,0-1.6.256,3.248,3.248,0,0,1,1.5,2.928,93.288,93.288,0,0,1-2.16,14.872,3.264,3.264,0,0,1-1.784,2.232s2.872-.464,2.312,6.352,2.68,11.312-2.312,11.728c0,0,2.4,1.088,1.768,5.192-.5,3.44,1.848,9.912-.8,12,1.776.512.92,2.08.664,6.4s.256,6.624.648,10.472c.248,2.4-.8,2.76-1.6,2.672,0,0,.8.68.344,6.544s1.96,13.984-1.3,14.576c0,0,2.84,1.768,0,6.448s-6.3,16.056-16.248,15.944h0a30.144,30.144,0,0,1-13.472,3.2h-16a3.192,3.192,0,1,0-.016,6.384h22.28a30.462,30.462,0,0,0,5.712-.544,29.824,29.824,0,0,0,24.288-28.32l2.736-94.248a4.944,4.944,0,0,0-4.968-5.088Z" transform="translate(-222.075 -301.758)" fill="#5b4440"/>
              <path id="Trazado_106836" data-name="Trazado 106836" d="M349.4,379.4c.256-4.36,1.112-5.928-.664-6.4a3.1,3.1,0,0,1-1.336.576l.208,18.76a3,3,0,0,0,.856.248c.8.088,1.832-.24,1.6-2.672C349.656,385.992,349.144,383.72,349.4,379.4Z" transform="translate(-234.285 -315.664)" fill="#afa194"/>
              <path id="Trazado_106837" data-name="Trazado 106837" d="M350.012,335.18c.56-6.816-2.312-6.352-2.312-6.352a2.961,2.961,0,0,1-.8.256l.2,17.856h.592C352.692,346.492,349.436,342,350.012,335.18Z" transform="translate(-234.185 -306.828)" fill="#d8c9b8"/>
            </g>
            <g id="Grupo_55509" data-name="Grupo 55509" transform="translate(175.141 212.272)">
              <path id="Trazado_106838" data-name="Trazado 106838" d="M269.421,402.41h90.544v-4h-92.1S267.421,402.41,269.421,402.41Z" transform="translate(-267.826 -331.49)" fill="#adaaa3"/>
              <path id="Trazado_106839" data-name="Trazado 106839" d="M267.88,397.514l52.808-3.744-4.984,3.792Z" transform="translate(-267.837 -330.562)" fill="#9e9b95"/>
              <path id="Trazado_106840" data-name="Trazado 106840" d="M305.415,380.3l13.848-62.064a4.472,4.472,0,0,1,4.368-3.472h76.992a4.44,4.44,0,0,1,4.36,5.44l-14.688,62.064a4.464,4.464,0,0,1-4.352,3.416h-76.16a4.44,4.44,0,0,1-4.368-5.384Z" transform="translate(-275.324 -314.76)" fill="#c6c1b5"/>
              <ellipse id="Elipse_4171" data-name="Elipse 4171" cx="10.464" cy="9.76" rx="10.464" ry="9.76" transform="translate(72.347 25.704)" fill="#adaaa3"/>
            </g>
            <g id="Grupo_55526" data-name="Grupo 55526" transform="translate(308.357 238.72)">
              <g id="Grupo_55510" data-name="Grupo 55510" transform="translate(10.169 6.859)">
                <path id="Trazado_106841" data-name="Trazado 106841" d="M447.483,399.772s-.672,1.472-.328,1.648,1.128-1.248,1.128-1.248l-.344-.712Z" transform="translate(-447.057 -365.006)" fill="#385175"/>
                <path id="Trazado_106842" data-name="Trazado 106842" d="M465.538,356.623s-1.5-.976-2.824,1.1-15.424,33.368-15.424,33.368a2.609,2.609,0,0,1,1.128.568s17.04-30.736,17.84-32.32a2.208,2.208,0,0,0-.72-2.712Z" transform="translate(-447.104 -356.393)" fill="#e0412b"/>
                <path id="Trazado_106843" data-name="Trazado 106843" d="M465.672,356.658a1.078,1.078,0,0,0-.16-.088,2.168,2.168,0,0,1,.248,1.224,7.936,7.936,0,0,1-1.76,3.84,32.8,32.8,0,0,0-2.1,3.3c-1.648,3.04-3.264,6.1-4.872,9.16-.8,1.488-1.528,2.992-2.272,4.5s-1.656,2.784-2.4,4.216c-1.5,2.816-2.832,5.7-4.4,8.488a1.48,1.48,0,0,1,.608.392s17.024-30.736,17.824-32.32a2.208,2.208,0,0,0-.72-2.712Z" transform="translate(-447.238 -356.428)" fill="#a83226"/>
                <path id="Trazado_106844" data-name="Trazado 106844" d="M462.08,367.14l-.36.8a5.384,5.384,0,0,1,3.048,1.528l.416-.752a4.568,4.568,0,0,0-3.1-1.576Z" transform="translate(-449.99 -358.542)" fill="#ffbe3a"/>
                <path id="Trazado_106845" data-name="Trazado 106845" d="M469.625,359.16a3.256,3.256,0,0,1-.52,1.28s.736.224.232,1.112-5.736,8.576-6.168,9.688.9,1.032,1.04.136-.544-.192.216-1.408S473.208,359.968,469.625,359.16Z" transform="translate(-450.262 -356.946)" fill="#dda137"/>
              </g>
              <g id="Grupo_55513" data-name="Grupo 55513" transform="translate(0 2.706)">
                <path id="Trazado_106846" data-name="Trazado 106846" d="M458.87,396.37l.1.168.112-.056h0Z" transform="translate(-439.251 -360.235)" fill="#bf975c"/>
                <path id="Trazado_106847" data-name="Trazado 106847" d="M441.374,359.22l-3.264,1.672.464.88a.288.288,0,0,0,.392.128h0l1.376-.7,1.312-.672h.048a.28.28,0,0,0,.12-.392Z" transform="translate(-435.099 -352.805)" fill="#a59b86"/>
                <path id="Trazado_106848" data-name="Trazado 106848" d="M436.57,357.932l1.232,2.36,3.264-1.672-1.24-2.4Z" transform="translate(-434.791 -352.205)" fill="#c9bda3"/>
                <path id="Trazado_106849" data-name="Trazado 106849" d="M438.816,354.992,436.08,356.4a.288.288,0,0,0-.128.392l.488.928,3.256-1.672-.48-.928A.3.3,0,0,0,438.816,354.992Z" transform="translate(-434.661 -351.953)" fill="#a59b86"/>
                <g id="Grupo_55511" data-name="Grupo 55511" transform="translate(1.907 6.031)" opacity="0.4">
                  <path id="Trazado_106850" data-name="Trazado 106850" d="M441.346,359.23l-.216.112a2.592,2.592,0,0,1-1.4.72l-1.64.84.456.88a.3.3,0,0,0,.4.128l2.736-1.408a.288.288,0,0,0,.128-.392Z" transform="translate(-437.002 -358.838)" fill="#7f7767"/>
                  <path id="Trazado_106851" data-name="Trazado 106851" d="M438.634,359.988a3.088,3.088,0,0,1-1.9-1.248l1.088,2.064,1.64-.84A2.4,2.4,0,0,1,438.634,359.988Z" transform="translate(-436.73 -358.74)" fill="#7f7767"/>
                </g>
                <path id="Trazado_106852" data-name="Trazado 106852" d="M437.292,354.95a2.152,2.152,0,0,1-1.792.264l.5.944,2.736-1.408h.048l-.424-.8S438.3,354.366,437.292,354.95Z" transform="translate(-434.577 -351.751)" fill="#d35467"/>
                <path id="Trazado_106853" data-name="Trazado 106853" d="M436.237,351.264a6.584,6.584,0,0,0-1.552.8.8.8,0,0,0-.248,1.024l.8,1.6a2.152,2.152,0,0,0,1.792-.264c.984-.584,1.064-1.032,1.064-1.032l-.824-1.736A.8.8,0,0,0,436.237,351.264Z" transform="translate(-434.346 -351.201)" fill="#e96774"/>
                <path id="Trazado_106854" data-name="Trazado 106854" d="M440.91,361.512l14.584,27.864h0s.072-1.552,1.312-.672L442.222,360.84Z" transform="translate(-435.659 -353.129)" fill="#77af96"/>
                <path id="Trazado_106855" data-name="Trazado 106855" d="M459.14,396.342l.88,1.752.144.288.5-.256.536,1.568-.752-4.024Z" transform="translate(-439.305 -360.095)" fill="#e4b971"/>
                <path id="Trazado_106856" data-name="Trazado 106856" d="M459.14,396.274l1.312-.672C459.212,394.722,459.14,396.274,459.14,396.274Z" transform="translate(-439.305 -360.028)" fill="#e4b971"/>
                <path id="Trazado_106857" data-name="Trazado 106857" d="M461.376,400.3l-.536-1.6-.5.256-.336.176a12.009,12.009,0,0,0,.8,1.376h0c-.752-1.352.24-.128.24-.128C460.464,398.476,461.376,400.3,461.376,400.3Z" transform="translate(-439.477 -360.701)" fill="#e4b971"/>
                <path id="Trazado_106858" data-name="Trazado 106858" d="M461.24,400.643s-.992-1.224-.24.128c0,0,.608.968.8.928s-.272-1.192-.272-1.192S460.608,398.683,461.24,400.643Z" transform="translate(-439.621 -360.908)" fill="#49473b"/>
                <path id="Trazado_106859" data-name="Trazado 106859" d="M439.19,362.388l14.584,27.864s.088-1.32,1.16-.8l.216.112L440.566,361.7Z" transform="translate(-435.315 -353.301)" fill="#9ed8bf"/>
                <path id="Trazado_106860" data-name="Trazado 106860" d="M459,396.566l.992,1.7-.88-1.752Z" transform="translate(-439.277 -360.263)" fill="#bf975c"/>
                <path id="Trazado_106861" data-name="Trazado 106861" d="M459.82,398.564l-.144-.288-.992-1.7-1.264.648,2.864,2.888a12,12,0,0,1-.8-1.376Z" transform="translate(-438.961 -360.277)" fill="#e4b971"/>
                <path id="Trazado_106862" data-name="Trazado 106862" d="M457.42,397.157l1.264-.648-.1-.168C457.508,395.837,457.42,397.157,457.42,397.157Z" transform="translate(-438.961 -360.207)" fill="#e4b971"/>
                <path id="Trazado_106863" data-name="Trazado 106863" d="M459.724,395.34c-.544.08-.584.936-.584.936.888-.56,2.032,3.288,2.032,3.288l-.72-3.96A1.048,1.048,0,0,0,459.724,395.34Z" transform="translate(-439.305 -360.029)" fill="#bf975c"/>
                <g id="Grupo_55512" data-name="Grupo 55512" transform="translate(3.875 7.751)" opacity="0.4">
                  <path id="Trazado_106864" data-name="Trazado 106864" d="M439.19,362.226l1.448,2.752c.416-.9,1.6-.32,1.6-.32.688-.576,1.84.336,1.84.336l-2.144-4.1Z" transform="translate(-439.19 -360.89)" fill="#33584e"/>
                </g>
                <path id="Trazado_106865" data-name="Trazado 106865" d="M434.38,353.148a2.63,2.63,0,0,0,.136.3,6.472,6.472,0,0,0,2.32-1.064S434.668,353.412,434.38,353.148Z" transform="translate(-434.353 -351.437)" fill="#f794a3"/>
              </g>
              <g id="Grupo_55516" data-name="Grupo 55516" transform="translate(11.771)">
                <path id="Trazado_106866" data-name="Trazado 106866" d="M450.77,396.522h.12a1.6,1.6,0,0,0-.072-.232Z" transform="translate(-449.402 -357.514)" fill="#bf975c"/>
                <path id="Trazado_106867" data-name="Trazado 106867" d="M459.527,357.636a.288.288,0,0,0,.208.36h0l1.488.408,1.424.4h.056a.3.3,0,0,0,.36-.208l.272-.952-3.536-.984Z" transform="translate(-451.151 -349.588)" fill="#a59b86"/>
                <path id="Trazado_106868" data-name="Trazado 106868" d="M459.87,356.05l3.536.984.728-2.56-3.536-.984Z" transform="translate(-451.222 -348.954)" fill="#c9bda3"/>
                <path id="Trazado_106869" data-name="Trazado 106869" d="M464.4,352.8l-2.968-.8a.3.3,0,0,0-.36.2l-.288,1.008,3.536.984.288-1.008a.3.3,0,0,0-.208-.384Z" transform="translate(-451.404 -348.653)" fill="#a59b86"/>
                <g id="Grupo_55514" data-name="Grupo 55514" transform="translate(8.342 4.848)" opacity="0.4">
                  <path id="Trazado_106870" data-name="Trazado 106870" d="M461.554,357.176l-1.784-.5-.272.96a.3.3,0,0,0,.208.36l2.968.8a.3.3,0,0,0,.36-.2l.272-.96-.232-.064a2.568,2.568,0,0,1-1.52-.4Z" transform="translate(-459.488 -354.44)" fill="#7f7767"/>
                  <path id="Trazado_106871" data-name="Trazado 106871" d="M461.008,356.08a3.056,3.056,0,0,1-.528-2.2l-.64,2.24,1.784.5a2.4,2.4,0,0,1-.616-.536Z" transform="translate(-459.558 -353.88)" fill="#7f7767"/>
                </g>
                <path id="Trazado_106872" data-name="Trazado 106872" d="M463.384,351.74a2.152,2.152,0,0,1-1.456-1.04l-.288,1.024,2.968.8h.048l.248-.872S464.5,351.964,463.384,351.74Z" transform="translate(-451.576 -348.396)" fill="#d35467"/>
                <path id="Trazado_106873" data-name="Trazado 106873" d="M465.008,348.3a6.4,6.4,0,0,0-1.672-.472.8.8,0,0,0-.888.584L462,350.124a2.152,2.152,0,0,0,1.5,1.024c1.12.24,1.48,0,1.48,0l.536-1.864A.8.8,0,0,0,465.008,348.3Z" transform="translate(-451.648 -347.819)" fill="#e96774"/>
                <path id="Trazado_106874" data-name="Trazado 106874" d="M450.92,389.066h0s1.128-1.088,1.424.392l8.584-30.208-1.424-.4Z" transform="translate(-449.432 -350.026)" fill="#77af96"/>
                <path id="Trazado_106875" data-name="Trazado 106875" d="M450.152,398.492l-.088.312.552.152-.7,1.5,2.224-3.448-1.424-.392Z" transform="translate(-449.232 -357.58)" fill="#e4b971"/>
                <path id="Trazado_106876" data-name="Trazado 106876" d="M450.92,396.524l1.424.392C452.048,395.436,450.92,396.524,450.92,396.524Z" transform="translate(-449.432 -357.483)" fill="#e4b971"/>
                <path id="Trazado_106877" data-name="Trazado 106877" d="M449.562,399.22a12.784,12.784,0,0,0-.352,1.6h0c.392-1.5.264.072.264.072.9-1.864.3.088.3.088l.7-1.512-.552-.152Z" transform="translate(-449.09 -358.1)" fill="#e4b971"/>
                <path id="Trazado_106878" data-name="Trazado 106878" d="M449.445,401.11s.128-1.6-.264-.072c0,0-.216,1.112-.056,1.216s.624-1.056.624-1.056S450.341,399.262,449.445,401.11Z" transform="translate(-449.061 -358.318)" fill="#49473b"/>
                <path id="Trazado_106879" data-name="Trazado 106879" d="M449.06,388.548s.984-.9,1.416.184a1.6,1.6,0,0,1,.072.232l8.584-30.216-1.488-.408Z" transform="translate(-449.06 -349.924)" fill="#9ed8bf"/>
                <path id="Trazado_106880" data-name="Trazado 106880" d="M450.21,398.484l.568-1.872-.12-.032Z" transform="translate(-449.29 -357.572)" fill="#bf975c"/>
                <path id="Trazado_106881" data-name="Trazado 106881" d="M449.18,400.156a12.794,12.794,0,0,1,.352-1.6l.36.1.088-.3.448-1.9-1.368-.384Z" transform="translate(-449.06 -357.468)" fill="#e4b971"/>
                <path id="Trazado_106882" data-name="Trazado 106882" d="M449.06,396.015l1.368.384.048-.2C450.044,395.135,449.06,396.015,449.06,396.015Z" transform="translate(-449.06 -357.39)" fill="#e4b971"/>
                <path id="Trazado_106883" data-name="Trazado 106883" d="M451.8,396.228c-.456-.312-1.08.3-1.08.3,1.04.184-.8,3.776-.8,3.776l2.208-3.384a1.04,1.04,0,0,0-.328-.688Z" transform="translate(-449.232 -357.483)" fill="#bf975c"/>
                <g id="Grupo_55515" data-name="Grupo 55515" transform="translate(7.752 8.384)" opacity="0.4">
                  <path id="Trazado_106884" data-name="Trazado 106884" d="M458.75,361.26c.92-.384,1.368.8,1.368.8.9.04,1.112,1.488,1.112,1.488l1.264-4.448-2.912-.8Z" transform="translate(-458.75 -358.3)" fill="#33584e"/>
                </g>
                <path id="Trazado_106885" data-name="Trazado 106885" d="M462.624,348.35a1.376,1.376,0,0,0-.1.3,6.544,6.544,0,0,0,2.4.8S462.648,348.734,462.624,348.35Z" transform="translate(-451.752 -347.926)" fill="#f794a3"/>
              </g>
              <g id="Grupo_55518" data-name="Grupo 55518" transform="translate(6.946 6.503)">
                <path id="Trazado_106886" data-name="Trazado 106886" d="M449.26,358.17h0l.176.624a.376.376,0,0,0,.136-.16.431.431,0,0,0,0-.248A.368.368,0,0,0,449.26,358.17Z" transform="translate(-444.275 -356.393)" fill="#fdb646"/>
                <path id="Trazado_106887" data-name="Trazado 106887" d="M444.884,356.078a2.464,2.464,0,0,0-1.6,3.048v.056h.1a14.561,14.561,0,0,0,4.448-1.384.36.36,0,0,1,.216-.048v-.072a2.488,2.488,0,0,0-3.16-1.6Zm-.552,1.984c-.416.88-.608.936-.68.568a2.3,2.3,0,0,1,1.424-2.312s.528-.184.584.312S444.748,357.182,444.332,358.062Z" transform="translate(-443.06 -355.949)" fill="#33584e"/>
                <path id="Trazado_106888" data-name="Trazado 106888" d="M448.07,358.17a.36.36,0,0,0-.216.048,14.56,14.56,0,0,1-4.448,1.384h-.1l.216.728h0a15.561,15.561,0,0,0,4.68-1.5.081.081,0,0,0,.04,0l-.176-.624Z" transform="translate(-443.085 -356.393)" fill="#fdb646"/>
                <path id="Trazado_106889" data-name="Trazado 106889" d="M452.51,373.84,448.31,359a.081.081,0,0,1-.04,0,15.559,15.559,0,0,1-4.68,1.5h0l.344,1.152a.736.736,0,0,1,.464-.432l.448-.144a.856.856,0,0,1,1.1.576c.8,2.624,3.016,10.552,2.688,11.864a.175.175,0,0,1,0,.064l4.328,11.024h0l.04.088v.04a1.4,1.4,0,0,0,1.464.944c1.1-.168-1.832-11.336-1.968-11.856Z" transform="translate(-443.141 -356.559)" fill="#33584e"/>
                <path id="Trazado_106890" data-name="Trazado 106890" d="M454.74,377.58c.136.52,3.064,11.688,1.968,11.856a1.4,1.4,0,0,1-1.464-.944l2.52,6.4a.624.624,0,0,0,.48.376s.632-.52,1.008-.3a.592.592,0,0,0,.232-.64Z" transform="translate(-445.371 -360.275)" fill="#25443e"/>
                <path id="Trazado_106891" data-name="Trazado 106891" d="M459.12,399.626a.5.5,0,0,0,.264,0l.584-.184.16-.08h0C459.752,399.106,459.12,399.626,459.12,399.626Z" transform="translate(-446.247 -364.617)" fill="#25443e"/>
                <path id="Trazado_106892" data-name="Trazado 106892" d="M459.968,399.424l-.584.184a.5.5,0,0,1-.264,0s.8,1.856,1.168,1.664-.144-1.9-.16-1.952Z" transform="translate(-446.247 -364.623)" fill="#2a2220"/>
                <path id="Trazado_106893" data-name="Trazado 106893" d="M445.192,356.4a2.3,2.3,0,0,0-1.424,2.312c.072.368.264.312.68-.568s1.392-.936,1.328-1.432S445.192,356.4,445.192,356.4Z" transform="translate(-443.176 -356.033)" fill="#4b7a6d"/>
                <path id="Trazado_106894" data-name="Trazado 106894" d="M445.038,361.609l-.448.144a.736.736,0,0,1,.928.472c.992,3.008,1.728,5.56,2.264,7.576s.848,3.368,1.04,4.24h0c.328-1.312-1.92-9.24-2.688-11.864a.856.856,0,0,0-1.1-.568Z" transform="translate(-443.341 -357.072)" fill="#9b5c12"/>
                <path id="Trazado_106895" data-name="Trazado 106895" d="M444.59,361.791l2.624,8c.232.248.44.3.568.056-.536-2.016-1.272-4.568-2.264-7.576a.736.736,0,0,0-.928-.48Z" transform="translate(-443.341 -357.11)" fill="#fdb646"/>
                <path id="Trazado_106896" data-name="Trazado 106896" d="M448.438,371.846c-.128.248-.336.192-.568-.056l.584,1.768,1.008,2.576v-.04h0C449.286,375.214,448.958,373.774,448.438,371.846Z" transform="translate(-443.997 -359.117)" fill="#c98c32"/>
                <path id="Trazado_106897" data-name="Trazado 106897" d="M449.488,376.712h0a.216.216,0,0,0,.1-.136L448.6,374Z" transform="translate(-444.143 -359.559)" fill="#c98c32"/>
                <path id="Trazado_106898" data-name="Trazado 106898" d="M447.09,370.392h0a26.105,26.105,0,0,1-2-4.232h0a89.41,89.41,0,0,0,3.536,8.9.152.152,0,0,0,.16.08l-.888-2.712Z" transform="translate(-443.441 -357.991)" fill="#c98c32"/>
                <path id="Trazado_106899" data-name="Trazado 106899" d="M447.59,371.45l.8,2.04-.584-1.768A2.922,2.922,0,0,1,447.59,371.45Z" transform="translate(-443.941 -359.049)" fill="#c98c32"/>
                <path id="Trazado_106900" data-name="Trazado 106900" d="M444,362.23h0l2.864,7.288h0a2.9,2.9,0,0,0,.224.272l-2.624-8A.736.736,0,0,0,444,362.23Z" transform="translate(-443.223 -357.117)" fill="#fdb646"/>
                <path id="Trazado_106901" data-name="Trazado 106901" d="M443.987,362.868h0c.2.584.5,1.5.88,2.568h0a26.094,26.094,0,0,0,2,4.232l-2.88-7.328A.679.679,0,0,0,443.987,362.868Z" transform="translate(-443.21 -357.227)" fill="#fdb646"/>
                <path id="Trazado_106902" data-name="Trazado 106902" d="M443.062,360.43h0a.368.368,0,0,0,.4.248l-.216-.728a.36.36,0,0,0-.184.48Z" transform="translate(-443.029 -356.749)" fill="#fdb646"/>
                <g id="Grupo_55517" data-name="Grupo 55517" transform="translate(0.042 1.905)">
                  <path id="Trazado_106903" data-name="Trazado 106903" d="M449.544,358.33a.849.849,0,0,1-.144.264l.072.264a.376.376,0,0,0,.136-.16.432.432,0,0,0,0-.248A.3.3,0,0,0,449.544,358.33Z" transform="translate(-444.345 -358.33)" fill="#c98c32"/>
                  <path id="Trazado_106904" data-name="Trazado 106904" d="M447.654,359.06c-.664.272-1.368.448-2.048.688s-1.488.656-2.136.424l.088.288h0a15.56,15.56,0,0,0,4.68-1.5.08.08,0,0,0,.04,0l-.072-.264A1.376,1.376,0,0,1,447.654,359.06Z" transform="translate(-443.159 -358.404)" fill="#c98c32"/>
                  <path id="Trazado_106905" data-name="Trazado 106905" d="M443.1,360.33h0a.369.369,0,0,0,0,.208h0a.368.368,0,0,0,.4.248l-.088-.288A.8.8,0,0,1,443.1,360.33Z" transform="translate(-443.081 -358.73)" fill="#c98c32"/>
                </g>
              </g>
              <g id="Grupo_55525" data-name="Grupo 55525" transform="translate(6.195 17.424)">
                <g id="Grupo_55519" data-name="Grupo 55519" opacity="0.6">
                  <path id="Trazado_106906" data-name="Trazado 106906" d="M445.962,396.288h12.352L462.93,369.6H442.09Z" transform="translate(-442.09 -369.6)" fill="#e2d3c5"/>
                </g>
                <g id="Grupo_55520" data-name="Grupo 55520" opacity="0.6">
                  <path id="Trazado_106907" data-name="Trazado 106907" d="M442.09,369.6l2.68,18.5-1.16-17.288,16.944-1.192Z" transform="translate(-442.09 -369.6)" fill="#f9f2ea"/>
                </g>
                <g id="Grupo_55521" data-name="Grupo 55521" transform="translate(7.84 7.352)" opacity="0.6">
                  <path id="Trazado_106908" data-name="Trazado 106908" d="M451.89,398.126h8.384l3.344-19.336-4.312,18.4Z" transform="translate(-451.89 -378.79)" fill="#f9f2ea"/>
                </g>
                <g id="Grupo_55522" data-name="Grupo 55522" transform="translate(4.92 0.56)" opacity="0.6">
                  <path id="Trazado_106909" data-name="Trazado 106909" d="M450.424,393.612V370.3l-2.184.416Z" transform="translate(-448.24 -370.3)" fill="#f9f2ea"/>
                </g>
                <g id="Grupo_55523" data-name="Grupo 55523" transform="translate(14.8)" opacity="0.6">
                  <path id="Trazado_106910" data-name="Trazado 106910" d="M460.59,390.208l4.768-20.608h-2.384Z" transform="translate(-460.59 -369.6)" fill="#f9f2ea"/>
                </g>
                <g id="Grupo_55524" data-name="Grupo 55524" transform="translate(9.232 9.92)" opacity="0.6">
                  <path id="Trazado_106911" data-name="Trazado 106911" d="M455.534,398.768,457.182,382l-3.552,16.768Z" transform="translate(-453.63 -382)" fill="#f9f2ea"/>
                </g>
              </g>
            </g>
            <g id="Grupo_55527" data-name="Grupo 55527" transform="translate(10.464 282.416)">
              <path id="Trazado_106912" data-name="Trazado 106912" d="M383.228,402.44H61.98l1.968,11.472H380.284Z" transform="translate(-61.98 -402.44)" fill="#89695b"/>
              <path id="Trazado_106913" data-name="Trazado 106913" d="M459.86,413.912l40.008.824v-12.3H462.8Z" transform="translate(-141.556 -402.44)" fill="#775645"/>
              <path id="Trazado_106914" data-name="Trazado 106914" d="M366.552,416.78H123.76l2.352,16.184H361.064Z" transform="translate(-74.336 -405.308)" fill="#826055"/>
              <path id="Trazado_106915" data-name="Trazado 106915" d="M420.39,432.964H450.2l9.808-16.016-34.128-.168Z" transform="translate(-133.662 -405.308)" fill="#6d4d3e"/>
              <path id="Trazado_106916" data-name="Trazado 106916" d="M403.672,437.01l-24.12,121.928H373.08l15.3-121.928Z" transform="translate(-124.2 -409.354)" fill="#775645"/>
              <path id="Trazado_106917" data-name="Trazado 106917" d="M454.812,437.01,462,558.938H458.4L448.46,437.01Z" transform="translate(-139.276 -409.354)" fill="#775645"/>
              <path id="Trazado_106918" data-name="Trazado 106918" d="M406.256,437h-15.3L386,476.64s8.112-9.6,13.992-7.9Z" transform="translate(-126.784 -409.352)" fill="#5b3c2f"/>
              <path id="Trazado_106919" data-name="Trazado 106919" d="M448.46,437l1.84,22.56s2.24-7.024,5.344-8.384l-.8-14.176Z" transform="translate(-139.276 -409.352)" fill="#5b3c2f"/>
              <path id="Trazado_106920" data-name="Trazado 106920" d="M138.842,437.01,114.714,558.938H108.25l15.3-121.928Z" transform="translate(-71.234 -409.354)" fill="#775645"/>
              <path id="Trazado_106921" data-name="Trazado 106921" d="M189.982,437.01l7.176,121.928h-3.584L183.63,437.01Z" transform="translate(-86.31 -409.354)" fill="#775645"/>
              <path id="Trazado_106922" data-name="Trazado 106922" d="M141.422,437h-15.3l-4.976,39.632s8.1-9.6,13.992-7.9Z" transform="translate(-73.814 -409.352)" fill="#5b3c2f"/>
              <path id="Trazado_106923" data-name="Trazado 106923" d="M183.63,437l1.84,22.56s2.232-7.024,5.344-8.384l-.8-14.176Z" transform="translate(-86.31 -409.352)" fill="#5b3c2f"/>
            </g>
            <g id="Grupo_55531" data-name="Grupo 55531" transform="translate(30.443 40.02)">
              <g id="Grupo_55529" data-name="Grupo 55529">
                <path id="Trazado_106924" data-name="Trazado 106924" d="M116.14,393.921l7.888-45.456s31.088-5.688,31.088,4.264-5.88,83.88-11.352,111.1-11.736,98.7-11.736,98.7c-2.84,2.232-7.1,0-7.1,0s-3.032-58.7-4.248-73.728,4.656-27.416,1.816-43.664S116.14,393.921,116.14,393.921Z" transform="translate(-92.791 -148.925)" fill="#914f75"/>
                <path id="Trazado_106925" data-name="Trazado 106925" d="M155.426,358.87l7.2-23.96,7.464,19.2-.864,32.936s-8.248,155.792-6.632,174.1c0,0-6.536,1.288-8.8-.688,0,0-9.424-91.088-8.616-104.088S155.426,358.87,155.426,358.87Z" transform="translate(-98.589 -146.538)" fill="#914f75"/>
                <path id="Trazado_106926" data-name="Trazado 106926" d="M101.67,222.14c0-2.032,7.2-10.36,7.2-10.36l12.856,6.576,20.472,52.12-4.976,55.08v7.2l-5.6,8c-16,33.1-29.6,30.056-29.6,30.056,1.6-11.776-3.032-62.624-3.032-62.624S101.67,224.172,101.67,222.14Z" transform="translate(-89.361 -121.912)" fill="#36505b"/>
                <path id="Trazado_106927" data-name="Trazado 106927" d="M217.454,313.82c-1.144,6.32-4.584,3.9-4.584,3.9l-5.6-8.8,7.624-9.144S218.59,307.5,217.454,313.82Z" transform="translate(-111.017 -139.512)" fill="#36505b"/>
                <path id="Trazado_106928" data-name="Trazado 106928" d="M227.075,298.84c5.368.064,9.216,2.264,11.648,0s4.664-4.5,5.88-3.592-.208,11.76-4.056,12.8-24.216,7.432-27.448,4.992,1.536-11.256,1.536-11.256S221.707,298.768,227.075,298.84Z" transform="translate(-111.959 -138.563)" fill="#ffcd9c"/>
                <path id="Trazado_106929" data-name="Trazado 106929" d="M224.322,296.269c3.5-2.4,6.272-2.88,4.608.448s-3.744,3.272-3.488,5.352-6.792.2-6.792.2a21.673,21.673,0,0,1,5.672-6Z" transform="translate(-113.293 -138.425)" fill="#ffcd9c"/>
                <path id="Trazado_106930" data-name="Trazado 106930" d="M208.274,298.18s-4.64,8.968-2.024,17.936c0,0-27.712-3.2-31.2-7.512s4.528-16.864,4.528-16.864S199.962,296.684,208.274,298.18Z" transform="translate(-104.398 -137.904)" fill="#577484"/>
                <path id="Trazado_106931" data-name="Trazado 106931" d="M156.1,205.858c3.04,7.4,7.432,85.848,7.432,85.848,2.264,16.088,1.144,35.3,1.144,35.3-15.528,2.84-21.44-1.832-21.44-1.832V302.226l-4.152-39.6L129.05,211.682l21.968,4S153.058,198.449,156.1,205.858Z" transform="translate(-95.373 -120.357)" fill="#e6d9b6"/>
                <path id="Trazado_106932" data-name="Trazado 106932" d="M178.062,292.094c-.608,4.88-1.216,47.12-4.664,71.288,0,0-2.344-32.72-2.288-43.672s-4.16-108.48-4.16-108.48,9.7,18.52,10.1,25.424S178.67,287.222,178.062,292.094Z" transform="translate(-102.953 -121.802)" fill="#36505b"/>
                <path id="Trazado_106933" data-name="Trazado 106933" d="M149.316,184.308s.448,19.952-1.976,20.712-25.072-10.968-24.8-13.248-1.84-20.912-1.84-20.912Z" transform="translate(-93.703 -113.728)" fill="#f6b07f"/>
                <path id="Trazado_106934" data-name="Trazado 106934" d="M151.76,209.12c4.456.1,4.992,8.136,4.992,8.136s.344,8.92-2.168,9.328-7.784-8.632-7.784-8.632S147.288,209.024,151.76,209.12Z" transform="translate(-98.923 -121.379)" fill="#33584e"/>
                <path id="Trazado_106935" data-name="Trazado 106935" d="M156.849,224.73s11.64,65.6,12.456,81.848-5.68,34.12-5.68,34.12a55.594,55.594,0,0,1-3.032-12c-1.216-7.72-6.888-30.872-7.7-49.76s0-50.968,0-50.968Z" transform="translate(-100.069 -124.502)" fill="#33584e"/>
                <path id="Trazado_106936" data-name="Trazado 106936" d="M149.244,109l5.776,10.208s-.608,17.056,0,24.52.456,17.824-1.976,22.544-2.888,9.6-9.872,7.464-16.1-1.368-24.92-16c0,0-7.752-10.056-7.752-18.736S149.244,109,149.244,109Z" transform="translate(-91.663 -101.356)" fill="#ffcd9c"/>
                <path id="Trazado_106937" data-name="Trazado 106937" d="M151.754,105.091c13.672-4.568,13.064,22.7,13.064,22.7-2.128-6.552-9.1-16.752-9.1-16.752S138.114,109.659,151.754,105.091Z" transform="translate(-98.878 -100.471)" fill="#bc4d19"/>
                <path id="Trazado_106938" data-name="Trazado 106938" d="M127.659,99.649c11.856-1.672,18.536,7.464,18.536,7.464s2.584,4-4.1,12-10.64,10.664-12,13.864c0,0,.3-7.2,2.28-9.3,0,0-11.848,4.728-11.7,12s-1.216,9.3-1.216,9.3-.608-7.92-4.864-7.008-1.08,12.7,2.272,17.92c0,0-14.128-14.472-13.216-26.048S115.811,101.321,127.659,99.649Z" transform="translate(-90.287 -99.445)" fill="#d35f24"/>
                <path id="Trazado_106939" data-name="Trazado 106939" d="M115.871,107.83c-1.32,2.832-2.6,5.672-3.728,8.6-1.664,4.312-2.064,9.128-2.4,13.68a22.184,22.184,0,0,0,2.952,12.168c-.672,4,1.72,11.408,4.2,15.256,0,0-14.128-14.472-13.216-26.048C104.255,123.966,109.215,114.214,115.871,107.83Z" transform="translate(-90.291 -101.122)" fill="#bc4d19"/>
                <path id="Trazado_106940" data-name="Trazado 106940" d="M122.352,193.356s6.9,7.472,22.248,12.648c0,0-1.52,10.664-1.216,16,0,0-20.232-12.488-22.808-21.168S122.352,193.356,122.352,193.356Z" transform="translate(-93.516 -118.216)" fill="#f2ebd1"/>
                <path id="Trazado_106941" data-name="Trazado 106941" d="M118.05,198.84s13.84,12.384,16.672,27.008,4.968,75.344,4.968,75.344-11.248-51.376-15.3-60.52c0,0,3.48-3.96,4.472-8.224h-5.688s-5.672-15.944-11.848-23.256C111.33,209.192,113.218,202.592,118.05,198.84Z" transform="translate(-91.829 -119.324)" fill="#577484"/>
                <path id="Trazado_106942" data-name="Trazado 106942" d="M162.65,201.773c3.6,4.264,8.408,30.464,8.408,30.464l-2.7,2.64,2.7,5.688c-1.368,7.512,0,62.928,0,62.928l-8.544-76.944S159.042,197.509,162.65,201.773Z" transform="translate(-101.766 -119.825)" fill="#577484"/>
                <path id="Trazado_106943" data-name="Trazado 106943" d="M160.376,196.756c1.6,5.176-1.016,22.24-1.016,22.24-1.016-7.52-6.4-13.3-6.4-13.3,1.824-4.264,2.824-13.912,2.824-13.912S158.752,191.532,160.376,196.756Z" transform="translate(-100.155 -117.911)" fill="#f2ebd1"/>
                <path id="Trazado_106944" data-name="Trazado 106944" d="M114.44,293.766c-.208,8.8,21.424,49.008,21.424,49.008l-2.4,3.44-8.248,14.3s-20.9-25.7-24.712-26.5l-1.464-17.76,11.032-64.136S114.64,284.982,114.44,293.766Z" transform="translate(-89.371 -129.978)" fill="#2e444c"/>
                <path id="Trazado_106945" data-name="Trazado 106945" d="M139.194,367.28s2.472,6.8,2.4,8.424-4.264,13.3-4.264,13.3-6.928-8.224-7.384-13.6S139.194,367.28,139.194,367.28Z" transform="translate(-95.55 -153.012)" fill="#ffcd9c"/>
                <path id="Trazado_106946" data-name="Trazado 106946" d="M97.559,222.1c3.616-2.032,6.776,5.6,6.776,5.6,6.768,14.728,1.9,58.192,1.352,64.08s25.368,45.184,25.368,45.184c-2.624,8.224-10.928,9.648-10.928,9.648s-21.664-32.5-27.624-40.8-6.5-16.856-4.512-37.6S93.951,224.136,97.559,222.1Z" transform="translate(-86.954 -123.908)" fill="#577484"/>
                <path id="Trazado_106947" data-name="Trazado 106947" d="M136.12,395.074c5.088-11.28,7.16-25.384,7.16-25.384A32.48,32.48,0,0,1,136.12,395.074Z" transform="translate(-96.787 -153.494)" fill="#6b3d5a"/>
                <path id="Trazado_106948" data-name="Trazado 106948" d="M161.194,385.56s-4.272,36.608-4.68,53.784-8.984,63.16-8.984,63.16l-1.12-9.392s6.44-41.712,7.048-49.888S154.634,397.112,161.194,385.56Z" transform="translate(-98.845 -156.668)" fill="#6b3d5a"/>
                <path id="Trazado_106949" data-name="Trazado 106949" d="M159.949,141.84c1.136,0,2.112,1.664,2.168,3.784s-.8,3.864-1.96,3.9-2.1-1.664-2.168-3.784S158.8,141.872,159.949,141.84Z" transform="translate(-101.161 -107.924)" fill="#63332a"/>
                <path id="Trazado_106950" data-name="Trazado 106950" d="M144.769,142.26c1.136,0,2.1,1.656,2.16,3.784s-.8,3.864-1.952,3.9-2.112-1.664-2.168-3.784S143.625,142.292,144.769,142.26Z" transform="translate(-98.125 -108.008)" fill="#63332a"/>
                <path id="Trazado_106951" data-name="Trazado 106951" d="M153.521,151.525s1.08,3.04,2.76,4.16,2.4,3.2.488,3.816-5.528,2.1-5.6,1.016,1.3-2.6,1.144-4.24S151.969,149.405,153.521,151.525Z" transform="translate(-99.797 -109.761)" fill="#ffb06f"/>
                <g id="Grupo_55528" data-name="Grupo 55528" transform="translate(43.452 55.909)">
                  <path id="Trazado_106952" data-name="Trazado 106952" d="M143.63,170.794c4.576,1.168,12.752-1.448,12.752-1.448,1.5-.432.976,8.16-5.784,8.36s-9.272-2.824-9.328-5.328S143.63,170.794,143.63,170.794Z" transform="translate(-141.269 -169.33)" fill="#63332a"/>
                  <path id="Trazado_106953" data-name="Trazado 106953" d="M142.571,170.722c1.344,0,3.32,1.488,13.216-1.112,0,0,.48,2.3-.88,3.248s-10.92,2.936-13.6-.392C141.275,172.434,141.227,170.722,142.571,170.722Z" transform="translate(-141.274 -169.386)" fill="#fff"/>
                </g>
                <path id="Trazado_106954" data-name="Trazado 106954" d="M159.343,132.987c1.5.576,4.8,2.056,5.744,4.272a.8.8,0,0,1-.8,1.1c-1.216-.272-3.328-.712-5.232-.928a.8.8,0,0,1-.672-.752,17.6,17.6,0,0,1,0-3.048.7.7,0,0,1,.96-.64Z" transform="translate(-101.227 -106.143)" fill="#d35f24"/>
                <path id="Trazado_106955" data-name="Trazado 106955" d="M145.468,132.577a.976.976,0,0,1,1.248.648,13.713,13.713,0,0,1,.2,3.064.8.8,0,0,1-.8.744c-2.464.216-5.176.648-6.744.912-.736.128-1.368-.512-1.08-1.1C139.348,134.617,143.548,133.153,145.468,132.577Z" transform="translate(-97.208 -106.061)" fill="#d35f24"/>
              </g>
              <g id="Grupo_55530" data-name="Grupo 55530" transform="translate(189.037 21.983)">
                <path id="Trazado_106956" data-name="Trazado 106956" d="M444.854,523.04c.544,7.824-7,67.744-7,67.744H434.07s-4-48.312-5.64-62.888-2.4-29.952-2.4-29.952l13.744-12.424S444.318,515.208,444.854,523.04Z" transform="translate(-343.806 -198.643)" fill="#ffcd9c"/>
                <path id="Trazado_106957" data-name="Trazado 106957" d="M459.168,349.372c15.352,11.656,13.016,47.008,8.7,65.6s-11.3,60.432-11.3,60.432-30.512.72-32.24-7.552,0-113.336,0-113.336S443.824,337.724,459.168,349.372Z" transform="translate(-343.312 -170.591)" fill="#be4733"/>
                <path id="Trazado_106958" data-name="Trazado 106958" d="M459.362,349.37c9.824,7.464,12.4,24.632,11.848,40.9a44.8,44.8,0,0,0-21.024-23.616,110.544,110.544,0,0,0-15.424-6.4c-2.008-.7-4-1.36-6.04-2.056-.936-.32-5.864-2.6-1.7-.616-.8-.392-1.68-.752-2.528-1.072v-2.032S444.018,337.722,459.362,349.37Z" transform="translate(-343.498 -170.589)" fill="#a03527"/>
                <path id="Trazado_106959" data-name="Trazado 106959" d="M388.746,264.328s9.888,21.04,4.68,21.792-43.256,18.856-43.256,18.856C346.4,294,323.25,267.552,323.25,267.552c25.128-21.048,54.832-23.032,54.832-23.032Z" transform="translate(-323.25 -150.443)" fill="#f9eed2"/>
                <path id="Trazado_106960" data-name="Trazado 106960" d="M465.98,295.848c-1.344,7.424-11.04,17.008-11.04,17.008l-12.8-35.088,11.512-8.488S467.332,288.432,465.98,295.848Z" transform="translate(-347.028 -155.395)" fill="#e6d9b6"/>
                <path id="Trazado_106961" data-name="Trazado 106961" d="M423.041,221.52l14.848,4.456,6.328,45.208,10.768,53.44s-2.4,4.048-12.112,6.208-23.824-1.344-23.824-1.344-14-47.64-16-54.656,4.1-22.672,4.1-22.672C406.129,243.792,423.041,221.52,423.041,221.52Z" transform="translate(-339.129 -145.843)" fill="#604d3f"/>
                <path id="Trazado_106962" data-name="Trazado 106962" d="M390.182,290.867l38.224,24s-6.456-22.808-6.864-27.672-7-30.9-1.344-37.248,11.672-2.4,11.672-2.4,8.112,9.168,9.08,24.848,7.112,54.632-2.984,60-55.056-32-55.056-32C383.462,297.2,390.182,290.867,390.182,290.867Z" transform="translate(-335.182 -150.806)" fill="#e6d9b6"/>
                <path id="Trazado_106963" data-name="Trazado 106963" d="M387.046,296.514l-2.456,4.376-14-28,3.408-1.6C378.478,277.314,387.046,296.514,387.046,296.514Z" transform="translate(-332.718 -155.797)" fill="#ffcd9c"/>
                <path id="Trazado_106964" data-name="Trazado 106964" d="M366.878,267.888c1.976,1.44,5.024,5.6,6.28,8.368s11.848,24.384,11.848,24.384l-4.5,1.4s-10.76-10.312-14.08-14.536S364.918,266.448,366.878,267.888Z" transform="translate(-331.518 -155.099)" fill="#ffcd9c"/>
                <path id="Trazado_106965" data-name="Trazado 106965" d="M383.964,256.466,369.6,271.49l-1.7-3.776,12.56-14.3Z" transform="translate(-332.18 -152.221)" fill="#ba6023"/>
                <path id="Trazado_106966" data-name="Trazado 106966" d="M428.9,207.892s-16.96,20.376-17.232,18.08-5.52-18.08-5.52-18.08l9.7-14.712Z" transform="translate(-339.83 -140.175)" fill="#f6b07f"/>
                <path id="Trazado_106967" data-name="Trazado 106967" d="M421.876,215.52s4.912,2.4,3.2,5.84-17.264,29.6-17.264,29.6c-1.472-4.144-1.672-18.808-1.672-18.808C409.564,229.272,421.876,215.52,421.876,215.52Z" transform="translate(-339.828 -144.643)" fill="#f2ebd1"/>
                <path id="Trazado_106968" data-name="Trazado 106968" d="M373.824,166.662c-.4-10.656,3.2-17.672,3.2-17.672l27.328,5.936s10.1,19.432,10.5,26.72-14.4,19.3-22.072,19.7-14-14.04-14-14.04a25,25,0,0,1-5.016-.672C375.112,183.534,374.232,177.326,373.824,166.662Z" transform="translate(-333.352 -131.337)" fill="#ffcd9c"/>
                <path id="Trazado_106969" data-name="Trazado 106969" d="M390.97,129.057c18.312-6.48,29.6,0,42,44.8s6.064,76.384,6.064,76.384c-.408-12.416-15.2-39.408-15.2-39.408,1.864,4.184,5.944,29.288,5.944,29.288s-11.312-37.136-15.352-44.944-5.184-35.056-10.5-35.624-4.04,6.744-4.04,6.744c-1.48.952-14.136-12.112-14.136-12.112,2.112,8.2,8.216,15.656,8.216,15.656s-13.464-13.768-17.1-19.84S372.7,135.529,390.97,129.057Z" transform="translate(-333.57 -126.923)" fill="#c83737"/>
                <path id="Trazado_106970" data-name="Trazado 106970" d="M438.864,173.55c-2.784-8.664-3.16-17.872-5.8-26.52,3.7,7.2,7.288,17.12,10.968,30.4,12.384,44.8,6.056,76.384,6.056,76.384-.4-12.416-15.2-39.408-15.2-39.408,1.864,4.184,5.944,29.288,5.944,29.288s-5.944-19.5-10.752-33.208C440.3,201.158,443.36,187.558,438.864,173.55Z" transform="translate(-344.616 -130.945)" fill="#ba0505"/>
                <path id="Trazado_106971" data-name="Trazado 106971" d="M375.555,168.971a16.856,16.856,0,0,1,10.4,2.144,1.32,1.32,0,0,1-.968,2.4,18.712,18.712,0,0,0-8.4.056,1.328,1.328,0,0,1-1.6-.912l-.608-2.032a1.32,1.32,0,0,1,1.176-1.656Z" transform="translate(-333.467 -135.31)" fill="#c83737"/>
                <path id="Trazado_106972" data-name="Trazado 106972" d="M379.87,176.39c1.32,0,2.4,1.76,2.4,3.936s-1.064,3.944-2.4,3.944-2.4-1.768-2.4-3.944S378.558,176.39,379.87,176.39Z" transform="translate(-334.094 -136.817)" fill="#63332a"/>
                <path id="Trazado_106973" data-name="Trazado 106973" d="M390.458,201.8s-5.056.96-6.288,2.216l-.72-1.12A13.312,13.312,0,0,1,390.458,201.8Z" transform="translate(-335.29 -141.881)" fill="#63332a"/>
              </g>
            </g>
          </g>
        </g>
        <g id="Grupo_55535" data-name="Grupo 55535" transform="translate(170.88 29.032)">
          <g id="Grupo_55534" data-name="Grupo 55534">
            <path id="Trazado_106974" data-name="Trazado 106974" d="M270.222,42.27c-1.5,0-3,.08-4.472.216a50.9,50.9,0,0,0-22.64,17.6,47.728,47.728,0,0,1,66.16,2.536A47.456,47.456,0,0,0,270.222,42.27Z" transform="translate(-219.502 -38.958)" fill="#d8c9a3"/>
            <path id="Trazado_106975" data-name="Trazado 106975" d="M217.77,89.254a46.528,46.528,0,0,0,13.024,32.312,46.6,46.6,0,0,1,7.272-61.456,50.9,50.9,0,0,1,22.64-17.6A47.152,47.152,0,0,0,217.77,89.254Z" transform="translate(-214.434 -39.006)" fill="#d8c9a3"/>
            <path id="Trazado_106976" data-name="Trazado 106976" d="M224.5,91.164l1.8.288a1.872,1.872,0,0,1,1.856-1.656h2a49.84,49.84,0,0,1,9.256-25.3A46.728,46.728,0,0,0,224.5,91.164Z" transform="translate(-215.78 -43.404)" fill="#f6e9c4"/>
            <path id="Trazado_106977" data-name="Trazado 106977" d="M230.134,105.878h-2.16a1.856,1.856,0,0,1-1.864-1.832V98.3a1.424,1.424,0,0,1,0-.184l-1.8-.288a46.616,46.616,0,0,0,7.64,34.8,47.36,47.36,0,0,0,29.928,14.4,50.4,50.4,0,0,1-31.744-41.152Z" transform="translate(-215.598 -50.07)" fill="#f6e9c4"/>
            <path id="Trazado_106978" data-name="Trazado 106978" d="M272.6,49.38a47.512,47.512,0,0,0-31.776,12.1,49.84,49.84,0,0,0-9.256,25.3h.128a1.912,1.912,0,0,1,1.32.536,1.856,1.856,0,0,1,.544,1.3v5.744A1.856,1.856,0,0,1,231.73,96.2a50.4,50.4,0,0,0,31.752,41.168,43.193,43.193,0,0,0,4.456.216c26.184,0,47.408-21.016,47.408-46.944a46.312,46.312,0,0,0-8.36-26.608A47.432,47.432,0,0,0,272.6,49.38Zm-6.528,3.432a1.864,1.864,0,0,1,1.84-1.848h2.272a1.848,1.848,0,0,1,1.176.536,1.816,1.816,0,0,1,.544,1.3v5.728a1.856,1.856,0,0,1-1.864,1.848h-2.128a1.856,1.856,0,0,1-1.864-1.848Zm4.8,78.472a1.864,1.864,0,0,1-1.856,1.848h-2.144a1.856,1.856,0,0,1-1.856-1.848v-5.736a1.848,1.848,0,0,1,1.856-1.84h2.264a1.848,1.848,0,0,1,1.176.568,1.784,1.784,0,0,1,.552,1.3Zm.408-35.1h-3.368L247.706,115.1l1.84,1.976-6.4,1.432,1.272-6.944,2.056,2.208,18.04-18.712a5.552,5.552,0,0,1,3.4-9.984l.64-15.432h-2.912l4.4-7.656,4.368,7.656h-2.576l.8,15.432-.04.144a5.552,5.552,0,0,1-1.288,10.968Zm38.16-9.408h.208a1.88,1.88,0,0,1,1.32.536,1.856,1.856,0,0,1,.544,1.3v5.744A1.848,1.848,0,0,1,309.65,96.2h-2.136a1.856,1.856,0,0,1-1.864-1.832V88.612a1.864,1.864,0,0,1,1.864-1.84Z" transform="translate(-217.194 -40.38)" fill="#f6e9c4"/>
            <path id="Trazado_106979" data-name="Trazado 106979" d="M284.144,38.626a50.8,50.8,0,0,1,7.112-.5H277a51,51,0,0,1,7.144.5Z" transform="translate(-226.28 -38.13)" fill="#211f1a"/>
            <path id="Trazado_106980" data-name="Trazado 106980" d="M280,163.57l11.9.056a50.807,50.807,0,0,1-7.112-.5C283.2,163.354,281.6,163.5,280,163.57Z" transform="translate(-226.88 -63.13)" fill="#211f1a"/>
            <path id="Trazado_106981" data-name="Trazado 106981" d="M329.554,99.082a50.406,50.406,0,0,1-43.624,49.752,51.344,51.344,0,0,0,13.7.072,46.976,46.976,0,0,0,31.248-44.128A46.455,46.455,0,0,0,329,91.65a49.56,49.56,0,0,1,.552,7.432Z" transform="translate(-228.066 -48.834)" fill="#211f1a"/>
            <path id="Trazado_106982" data-name="Trazado 106982" d="M293.042,38.13a50.8,50.8,0,0,0-7.112.5A50.528,50.528,0,0,1,329,80.946a46.456,46.456,0,0,1,1.88,13.128A46.976,46.976,0,0,1,299.634,138.2a50.433,50.433,0,0,0,44.16-49.824C343.794,60.634,321.074,38.13,293.042,38.13Z" transform="translate(-228.066 -38.13)" fill="#211f1a"/>
            <path id="Trazado_106983" data-name="Trazado 106983" d="M234.05,141.33a47.36,47.36,0,0,0,16.8,14.84,50.944,50.944,0,0,0,14.76,3.016h5.152q2.4-.108,4.8-.44a50.1,50.1,0,0,1-11.576-3.024A47.36,47.36,0,0,1,234.05,141.33Z" transform="translate(-217.69 -58.77)" fill="#35322b"/>
            <path id="Trazado_106984" data-name="Trazado 106984" d="M314.964,67.68a46.312,46.312,0,0,1,8.36,26.608c0,25.928-21.224,46.944-47.408,46.944a43.2,43.2,0,0,1-4.456-.216,50.1,50.1,0,0,0,11.576,3.024A50.406,50.406,0,0,0,326.66,94.288a49.561,49.561,0,0,0-.552-7.432A46.728,46.728,0,0,0,314.964,67.68Z" transform="translate(-225.172 -44.04)" fill="#35322b"/>
            <path id="Trazado_106985" data-name="Trazado 106985" d="M283.032,38.75a50.952,50.952,0,0,0-11.592,3.032c1.472-.136,2.968-.216,4.472-.216A47.456,47.456,0,0,1,314.96,61.894a46.728,46.728,0,0,1,11.144,19.2A50.528,50.528,0,0,0,283.032,38.75Z" transform="translate(-225.168 -38.254)" fill="#35322b"/>
            <path id="Trazado_106986" data-name="Trazado 106986" d="M213.6,88.378a50.3,50.3,0,0,0,33.168,47.152,47.36,47.36,0,0,1-16.8-14.84,46.528,46.528,0,0,1-13.024-32.312,47.112,47.112,0,0,1,42.936-46.72,50.952,50.952,0,0,1,11.592-3.032,51,51,0,0,0-7.12-.5C236.32,38.13,213.6,60.634,213.6,88.378Z" transform="translate(-213.6 -38.13)" fill="#35322b"/>
            <path id="Trazado_106987" data-name="Trazado 106987" d="M277,107.828h3.336a5.736,5.736,0,0,1-1.664-.248A5.752,5.752,0,0,1,277,107.828Z" transform="translate(-226.28 -52.02)" fill="#d38e2a"/>
            <path id="Trazado_106988" data-name="Trazado 106988" d="M278.7,94.256a5.073,5.073,0,0,1,1.32-.24L277,94a5.5,5.5,0,0,1,1.7.256Z" transform="translate(-226.28 -49.304)" fill="#d38e2a"/>
            <path id="Trazado_106989" data-name="Trazado 106989" d="M282.072,94.148a5.472,5.472,0,0,0-.9-.128h-.728a5.073,5.073,0,0,0-1.32.24,5.536,5.536,0,0,1,0,10.608,5.736,5.736,0,0,0,1.664.248,5.552,5.552,0,0,0,1.288-10.968Z" transform="translate(-226.704 -49.308)" fill="#d38e2a"/>
            <path id="Trazado_106990" data-name="Trazado 106990" d="M278.132,94.32a5.536,5.536,0,0,0,0,10.608,5.536,5.536,0,0,0,0-10.608Z" transform="translate(-225.716 -49.368)" fill="#fdb646"/>
            <path id="Trazado_106991" data-name="Trazado 106991" d="M277.294,94.256A5.5,5.5,0,0,0,275.6,94a5.552,5.552,0,0,0-3.4,9.984,5.712,5.712,0,0,0,5.072.88,5.536,5.536,0,0,1,0-10.608Z" transform="translate(-224.878 -49.304)" fill="#fdb646"/>
            <path id="Trazado_106992" data-name="Trazado 106992" d="M249.406,131.79l-1.168-1.264,1.16-1.208-2.056-2.208-1.272,6.944,6.392-1.432-1.832-1.976Z" transform="translate(-220.094 -55.926)" fill="#3f3d33"/>
            <path id="Trazado_106993" data-name="Trazado 106993" d="M248.78,131.078l1.168,1.264,1.224-1.144-1.232-1.328Z" transform="translate(-220.636 -56.478)" fill="#3f3d33"/>
            <path id="Trazado_106994" data-name="Trazado 106994" d="M250.23,125.192l1.232,1.328,20.184-18.912a5.7,5.7,0,0,1-3.4-1.128Z" transform="translate(-220.926 -51.8)" fill="#3f3d33"/>
            <path id="Trazado_106995" data-name="Trazado 106995" d="M274.19,72.8H277.1l.152-3.64h2.928l.176,3.64h2.6L278.59,65.14Z" transform="translate(-225.718 -43.532)" fill="#3f3d33"/>
            <path id="Trazado_106996" data-name="Trazado 106996" d="M277.982,70.16l-.152,3.64h3.256l-.176-3.64Z" transform="translate(-226.446 -44.536)" fill="#3f3d33"/>
            <path id="Trazado_106997" data-name="Trazado 106997" d="M277.664,74.706,277,90.138h3.72a5.471,5.471,0,0,1,.9.128l.04-.144-.8-15.432Z" transform="translate(-226.28 -45.442)" fill="#3f3d33"/>
            <path id="Trazado_106998" data-name="Trazado 106998" d="M230.41,96.458l.24.2a1.856,1.856,0,0,1,.544,1.3v2.016c0-1.3.048-2.576.144-3.848h-.08a1.8,1.8,0,0,0-.848.328Z" transform="translate(-216.962 -49.73)" fill="#3f3d33"/>
            <path id="Trazado_106999" data-name="Trazado 106999" d="M231.662,96.12h-.128c-.1,1.272-.144,2.552-.144,3.848a51,51,0,0,0,.3,5.6,1.856,1.856,0,0,0,1.832-1.832V97.96a1.856,1.856,0,0,0-.544-1.3A1.912,1.912,0,0,0,231.662,96.12Z" transform="translate(-217.158 -49.728)" fill="#3f3d33"/>
            <path id="Trazado_107000" data-name="Trazado 107000" d="M231.19,104.658a1.848,1.848,0,0,1-.8,1.5,1.784,1.784,0,0,0,1.056.336h0a51.01,51.01,0,0,1-.3-5.6Z" transform="translate(-216.958 -50.682)" fill="#3f3d33"/>
            <path id="Trazado_107001" data-name="Trazado 107001" d="M229.07,107.806H231.2a1.784,1.784,0,0,1-1.056-.336,1.832,1.832,0,0,1-1.072.336Z" transform="translate(-216.694 -51.998)" fill="#3f3d33"/>
            <path id="Trazado_107002" data-name="Trazado 107002" d="M230.142,96.458a1.8,1.8,0,0,1,.848-.328h-1.92A1.832,1.832,0,0,1,230.142,96.458Z" transform="translate(-216.694 -49.73)" fill="#3f3d33"/>
            <path id="Trazado_107003" data-name="Trazado 107003" d="M278.228,142.3H277.9a1.872,1.872,0,0,0-.872.328,2.132,2.132,0,0,1,.248.208,1.784,1.784,0,0,1,.544,1.3v5.736a1.84,1.84,0,0,1-.8,1.5,1.84,1.84,0,0,0,1.072.344,1.864,1.864,0,0,0,1.856-1.848v-5.736a1.784,1.784,0,0,0-.544-1.272A1.848,1.848,0,0,0,278.228,142.3Z" transform="translate(-226.284 -58.964)" fill="#3f3d33"/>
            <path id="Trazado_107004" data-name="Trazado 107004" d="M275.7,153.984h2.136a1.84,1.84,0,0,1-1.072-.344A1.816,1.816,0,0,1,275.7,153.984Z" transform="translate(-226.02 -61.232)" fill="#3f3d33"/>
            <path id="Trazado_107005" data-name="Trazado 107005" d="M276.74,142.628a1.872,1.872,0,0,1,.872-.328H275.7A1.872,1.872,0,0,1,276.74,142.628Z" transform="translate(-226.02 -58.964)" fill="#3f3d33"/>
            <path id="Trazado_107006" data-name="Trazado 107006" d="M328.894,96.12h-.208a1.832,1.832,0,0,0-.848.328l.248.2a1.856,1.856,0,0,1,.544,1.3V103.7a1.832,1.832,0,0,1-.8,1.5,1.768,1.768,0,0,0,1.056.336,1.848,1.848,0,0,0,1.864-1.832V97.96a1.856,1.856,0,0,0-.544-1.3A1.88,1.88,0,0,0,328.894,96.12Z" transform="translate(-236.446 -49.728)" fill="#3f3d33"/>
            <path id="Trazado_107007" data-name="Trazado 107007" d="M326.5,107.806h2.128a1.768,1.768,0,0,1-1.056-.336,1.856,1.856,0,0,1-1.072.336Z" transform="translate(-236.18 -51.998)" fill="#3f3d33"/>
            <path id="Trazado_107008" data-name="Trazado 107008" d="M327.572,96.458a1.832,1.832,0,0,1,.848-.328H326.5a1.856,1.856,0,0,1,1.072.328Z" transform="translate(-236.18 -49.73)" fill="#3f3d33"/>
            <path id="Trazado_107009" data-name="Trazado 107009" d="M327.6,96.54a1.848,1.848,0,0,0-.8,1.5v5.744a.96.96,0,1,0,1.6,0V98.044a1.856,1.856,0,0,0-.544-1.3Z" transform="translate(-236.208 -49.812)" fill="#686359"/>
            <path id="Trazado_107010" data-name="Trazado 107010" d="M327.106,96.455a1.864,1.864,0,0,0-2.936,1.5V103.7a1.864,1.864,0,0,0,2.936,1.5,1.824,1.824,0,0,1-.8-1.5V97.959a1.848,1.848,0,0,1,.8-1.5Z" transform="translate(-235.714 -49.727)" fill="#686359"/>
            <path id="Trazado_107011" data-name="Trazado 107011" d="M279.568,51.37h-.328a1.736,1.736,0,0,0-.872.336,2.723,2.723,0,0,1,.248.2,1.816,1.816,0,0,1,.544,1.3v5.728a1.84,1.84,0,0,1-.8,1.512,1.824,1.824,0,0,0,1.056.336,1.856,1.856,0,0,0,1.856-1.848V53.21a1.816,1.816,0,0,0-.544-1.3,1.848,1.848,0,0,0-1.16-.536Z" transform="translate(-226.552 -40.778)" fill="#3f3d33"/>
            <path id="Trazado_107012" data-name="Trazado 107012" d="M277,63.056h2.128a1.824,1.824,0,0,1-1.056-.336,1.912,1.912,0,0,1-1.072.336Z" transform="translate(-226.28 -43.048)" fill="#3f3d33"/>
            <path id="Trazado_107013" data-name="Trazado 107013" d="M278.1,51.706a1.736,1.736,0,0,1,.872-.336H277a1.864,1.864,0,0,1,1.1.336Z" transform="translate(-226.28 -40.778)" fill="#3f3d33"/>
            <path id="Trazado_107014" data-name="Trazado 107014" d="M278.128,51.79a1.824,1.824,0,0,0-.8,1.5v5.728a.968.968,0,1,0,1.6,0V53.294a1.816,1.816,0,0,0-.544-1.3,2.722,2.722,0,0,0-.256-.2Z" transform="translate(-226.312 -40.862)" fill="#686359"/>
            <path id="Trazado_107015" data-name="Trazado 107015" d="M277.636,51.7a1.856,1.856,0,0,0-2.936,1.5v5.728a1.856,1.856,0,0,0,1.84,1.848,1.912,1.912,0,0,0,1.072-.336,1.848,1.848,0,0,1-.8-1.512V53.207A1.824,1.824,0,0,1,277.636,51.7Z" transform="translate(-225.82 -40.775)" fill="#686359"/>
            <path id="Trazado_107016" data-name="Trazado 107016" d="M276.76,142.71a1.824,1.824,0,0,0-.8,1.5v5.736a.96.96,0,1,0,1.6,0v-5.736a1.784,1.784,0,0,0-.544-1.3A2.131,2.131,0,0,0,276.76,142.71Z" transform="translate(-226.04 -59.046)" fill="#686359"/>
            <path id="Trazado_107017" data-name="Trazado 107017" d="M276.27,142.626a1.872,1.872,0,0,0-1.064-.336,1.848,1.848,0,0,0-1.856,1.84v5.736a1.856,1.856,0,0,0,1.856,1.848,1.816,1.816,0,0,0,1.064-.344,1.824,1.824,0,0,1-.8-1.5V144.13a1.824,1.824,0,0,1,.8-1.5Z" transform="translate(-225.55 -58.962)" fill="#686359"/>
            <path id="Trazado_107018" data-name="Trazado 107018" d="M230.21,96.54a1.848,1.848,0,0,0-.8,1.5v5.744a1.824,1.824,0,0,0,.8,1.5,1.848,1.848,0,0,0,.8-1.5V98.044a1.856,1.856,0,0,0-.544-1.3Z" transform="translate(-216.762 -49.812)" fill="#686359"/>
            <path id="Trazado_107019" data-name="Trazado 107019" d="M229.677,96.456a1.832,1.832,0,0,0-1.072-.336,1.872,1.872,0,0,0-1.856,1.656,1.418,1.418,0,0,0,0,.184V103.7a1.856,1.856,0,0,0,1.864,1.832,1.832,1.832,0,0,0,1.072-.336,1.824,1.824,0,0,1-.8-1.5V97.96a1.848,1.848,0,0,1,.792-1.5Z" transform="translate(-216.229 -49.728)" fill="#686359"/>
          </g>
          <path id="Trazado_107020" data-name="Trazado 107020" d="M270.46,97.7l5.84,7.472a5.4,5.4,0,0,0,4.168-2.552l-6.792-8.144A5.72,5.72,0,0,0,270.46,97.7Z" transform="translate(-224.972 -49.4)" fill="#f7cc8f"/>
        </g>
      </g>
    </g>
  </g>
</svg>
