<svg xmlns="http://www.w3.org/2000/svg" xmlns:xlink="http://www.w3.org/1999/xlink" width="500" height="500" viewBox="0 0 500 500">
  <defs>
    <clipPath id="clip-path">
      <circle id="Elipse_4129" data-name="Elipse 4129" cx="212.62" cy="212.62" r="212.62" transform="translate(48.9 49.42)" fill="none"/>
    </clipPath>
    <clipPath id="clip-path-2">
      <rect id="Rectángulo_5720" data-name="Rectángulo 5720" width="466.5" height="466.5" transform="translate(56.39 3.61)" fill="none"/>
    </clipPath>
    <linearGradient id="linear-gradient" x1="34.93" y1="-102.122" x2="35.702" y2="-102.929" gradientUnits="objectBoundingBox">
      <stop offset="0" stop-color="#fff" stop-opacity="0"/>
      <stop offset="0.97" stop-color="#fff"/>
    </linearGradient>
    <linearGradient id="linear-gradient-2" x1="34.654" y1="-101.222" x2="35.425" y2="-102.029" xlink:href="#linear-gradient"/>
    <linearGradient id="linear-gradient-3" x1="0.5" y1="1" x2="0.5" gradientUnits="objectBoundingBox">
      <stop offset="0" stop-color="#ff3800"/>
      <stop offset="1" stop-color="#ff5700"/>
    </linearGradient>
    <linearGradient id="linear-gradient-4" x1="0.5" y1="0.315" x2="0.5" y2="0.789" gradientUnits="objectBoundingBox">
      <stop offset="0" stop-color="#00b2b7"/>
      <stop offset="1" stop-color="#008a8d"/>
    </linearGradient>
    <linearGradient id="linear-gradient-5" x1="31.108" y1="-103.445" x2="31.879" y2="-104.252" xlink:href="#linear-gradient"/>
    <linearGradient id="linear-gradient-6" x1="30.824" y1="-102.577" x2="31.596" y2="-103.385" xlink:href="#linear-gradient"/>
    <linearGradient id="linear-gradient-7" x1="0.5" y1="1" x2="0.5" y2="0" xlink:href="#linear-gradient-3"/>
    <linearGradient id="linear-gradient-8" x1="0.5" y1="1" x2="0.5" y2="0" xlink:href="#linear-gradient-3"/>
    <linearGradient id="linear-gradient-9" x1="0.499" y1="1" x2="0.499" y2="0" xlink:href="#linear-gradient-3"/>
  </defs>
  <g id="Grupo_55727" data-name="Grupo 55727" transform="translate(-859 -6106)">
    <g id="CF1_2.7._Organizaciones_sindicales" data-name="CF1_2.7. Organizaciones sindicales" transform="translate(859 6104.16)">
      <g id="Layer_1" data-name="Layer 1">
        <g id="Grupo_54851" data-name="Grupo 54851">
          <rect id="Rectángulo_5714" data-name="Rectángulo 5714" width="500" height="500" transform="translate(0 1.84)" fill="none"/>
          <circle id="Elipse_4116" data-name="Elipse 4116" cx="212.62" cy="212.62" r="212.62" transform="translate(48.9 49.42)" fill="#edefe2"/>
          <path id="Trazado_105447" data-name="Trazado 105447" d="M261.14,48.93A211.61,211.61,0,0,0,49.38,260.69a7.57,7.57,0,1,0,15.14,0A196.45,196.45,0,0,1,261.14,64.07a7.57,7.57,0,0,0,0-15.14Z" fill="#b2b3a9"/>
          <g id="Grupo_54774" data-name="Grupo 54774">
            <path id="Trazado_105448" data-name="Trazado 105448" d="M73.92,437a203.476,203.476,0,0,1-14.49-16.75c-4.3-5.58-8.36-11.46-12.91-18.48a13.5,13.5,0,0,0-22.67,14.67c4.8,7.4,9.31,14,14.2,20.3a230.454,230.454,0,0,0,16.37,18.93A13.5,13.5,0,1,0,73.921,437Z" fill="#d5d9ba"/>
            <path id="Trazado_105449" data-name="Trazado 105449" d="M98.51,477.56c-3.93-3,3.76,3.21,0,0" fill="#9a6771"/>
            <path id="Trazado_105450" data-name="Trazado 105450" d="M84.23,479.85a12.762,12.762,0,0,0,.6,1.88,12.422,12.422,0,0,0,1,2c.27.44.48.74.65,1,.35.47.58.73.76.94.34.39.53.57.68.72s.41.39.53.5l.5.43.73.61,1.12.9.62.47.61.43.33.21a11.693,11.693,0,0,0,1.07.61,14.26,14.26,0,0,0,3,1.12,15,15,0,0,0,1.62.27H99.6a14.116,14.116,0,0,0,1.84-.13,12.534,12.534,0,0,0,2.35-.55,12.857,12.857,0,0,0,2.48-1.1,13.457,13.457,0,0,0,6.21-15.79,13.4,13.4,0,0,0-.79-2,14.371,14.371,0,0,0-1-1.75c-.24-.35-.43-.57-.58-.76-.29-.35-.46-.54-.61-.7s-.41-.42-.53-.54l-.46-.42c-.18-.17-.34-.31-.53-.47l-.64-.55a3.145,3.145,0,0,0-.29-.22l-.26-.23h0l-1.09-.82-.63-.44c-.16-.11-.34-.23-.79-.5a12.689,12.689,0,0,0-1.17-.61,15.655,15.655,0,0,0-1.5-.59l-.68-.2h-.46l-.24-.05h-.69a12.307,12.307,0,0,0-1.23-.13H97a13.905,13.905,0,0,0-2.1.22,14.136,14.136,0,0,0-2.38.68A13.57,13.57,0,0,0,88,467a13.408,13.408,0,0,0-2.41,3.13,13.16,13.16,0,0,0-1.48,4.07,12.75,12.75,0,0,0-.24,2.52,13.151,13.151,0,0,0,.36,3.13ZM98.34,492ZM100.81,463.71ZM100.68,463.71ZM100.11,463.58Z" fill="#bd9aa0"/>
            <path id="Trazado_105451" data-name="Trazado 105451" d="M408.39,33.37A272.51,272.51,0,0,1,481,101.18" fill="#590212"/>
            <path id="Trazado_105452" data-name="Trazado 105452" d="M402.21,43.07A261,261,0,0,1,471.74,108a11.5,11.5,0,1,0,18.5-13.661A283.931,283.931,0,0,0,414.58,23.67a11.5,11.5,0,1,0-12.37,19.39Z" fill="#deccd0"/>
            <path id="Trazado_105453" data-name="Trazado 105453" d="M458.51,411.23c-2.73,3.57,2.91-3.41,0,0" fill="#9a6771"/>
            <path id="Trazado_105454" data-name="Trazado 105454" d="M462.13,430.25a19.581,19.581,0,0,0,2.61-.85,19.187,19.187,0,0,0,2.71-1.37c.59-.37,1-.66,1.32-.9.63-.47,1-.77,1.25-1,.52-.47.76-.71,1-.91.36-.36.51-.53.65-.68s.36-.43.5-.58l.62-.75c.3-.37.59-.73.89-1.12.15-.19.3-.38.53-.69l.22-.3.23-.34.28-.41.31-.5c.09-.16.21-.35.34-.6a17.67,17.67,0,0,0,.9-1.84,18.257,18.257,0,0,0,.74-2.14,17.755,17.755,0,0,0,.43-1.91,18.486,18.486,0,0,0-14.82-21.24,18,18,0,0,0-3.42-.32,18.49,18.49,0,0,0-7.09,1.41,19.365,19.365,0,0,0-2,.95,20.159,20.159,0,0,0-1.91,1.23c-.4.3-.67.52-.9.7-.42.36-.66.59-.86.77s-.53.52-.68.67l-.51.55-.5.57-.53.62c-.11.13-.2.27-.31.4s-.21.24-.31.37h0c-.33.43-.57.74-.83,1.1l-.22.3-.22.32c-.06.09-.14.2-.23.35s-.16.24-.27.42-.18.29-.3.5-.2.35-.34.6a19.482,19.482,0,0,0-1.54,3.93,18.47,18.47,0,0,0,12.87,22.58,19,19,0,0,0,4,.67h1A19,19,0,0,0,462.13,430.25Z" fill="#eef0e3"/>
            <path id="Trazado_105455" data-name="Trazado 105455" d="M55.27,129.92A247.451,247.451,0,0,1,116.83,64" fill="#590212"/>
            <path id="Trazado_105456" data-name="Trazado 105456" d="M62.44,134.49a238.8,238.8,0,0,1,59.44-63.64,8.5,8.5,0,0,0-10.1-13.68A256,256,0,0,0,48.1,125.35a8.5,8.5,0,1,0,14.34,9.14Z" fill="#f1cdcd"/>
          </g>
          <path id="Trazado_105457" data-name="Trazado 105457" d="M285.55,34.77a231.149,231.149,0,0,0-25.36-1.39,227.681,227.681,0,0,0-82.54,15.43,229.543,229.543,0,0,0,57.69,442.27,9.794,9.794,0,1,0,2.14-19.47A209.936,209.936,0,0,1,260.19,53a214.152,214.152,0,0,1,23.21,1.27,9.794,9.794,0,0,0,2.15-19.47Z" fill="#e6e8d6"/>
          <g id="Grupo_54850" data-name="Grupo 54850" clip-path="url(#clip-path)">
            <g id="Grupo_54849" data-name="Grupo 54849" clip-path="url(#clip-path-2)">
              <g id="Grupo_54788" data-name="Grupo 54788">
                <g id="Grupo_54786" data-name="Grupo 54786">
                  <g id="Grupo_54782" data-name="Grupo 54782">
                    <g id="Grupo_54779" data-name="Grupo 54779">
                      <g id="Grupo_54777" data-name="Grupo 54777">
                        <g id="Grupo_54775" data-name="Grupo 54775">
                          <path id="Trazado_105458" data-name="Trazado 105458" d="M264.06,141.11c0,4.85-2.11,8.8-4.77,8.81s-4.84-3.91-4.86-8.76,2.11-8.8,4.77-8.82S264,136.25,264.06,141.11Z" fill="#ff966d"/>
                          <path id="Trazado_105459" data-name="Trazado 105459" d="M262.92,141.27c0,2.73-1.19,4.95-2.68,4.95s-2.72-2.19-2.73-4.92,1.18-4.94,2.68-5S262.9,138.55,262.92,141.27Z" fill="#bc6649"/>
                        </g>
                        <g id="Grupo_54776" data-name="Grupo 54776">
                          <path id="Trazado_105460" data-name="Trazado 105460" d="M332.77,140.77c0,4.85-2.11,8.8-4.77,8.81s-4.84-3.91-4.86-8.77,2.11-8.8,4.77-8.81S332.75,135.91,332.77,140.77Z" fill="#ff966d"/>
                          <path id="Trazado_105461" data-name="Trazado 105461" d="M329.7,140.94c0,2.73-1.19,4.94-2.68,4.95s-2.72-2.19-2.73-4.92S325.47,136,327,136,329.68,138.22,329.7,140.94Z" fill="#bc6649"/>
                        </g>
                      </g>
                      <path id="Trazado_105462" data-name="Trazado 105462" d="M315.72,216.87l-46.2-1.61,1.67-57.45,46.2,1.61Z" fill="#ff966d"/>
                      <path id="Trazado_105463" data-name="Trazado 105463" d="M324.67,143.86c-.8,23.25-12.54,50.71-32.57,50s-30.51-29.11-29.71-52.36,12.94-42,33-41.34S325.48,120.6,324.67,143.86Z" fill="#ef815e"/>
                      <path id="Trazado_105464" data-name="Trazado 105464" d="M322.07,140c-6.78-2.21-8.74-15.83-8.61-22.72-5.25,4-9.87,5.51-16.58,5.7-8.63.25-15.92-1.91-24-5.2,4.22,12.62-4,22-6.76,22.06-.59,16.88,5.69,41.46,18.95,47.88a17.6,17.6,0,0,0,7.18,1.81c7.65.27,14.94-4.71,20.5-14C317.82,167,321.7,150.58,322.07,140Z" fill="#ff966d"/>
                      <path id="Trazado_105465" data-name="Trazado 105465" d="M260.75,155.25l6.35.5-.19-17.13c4.64-8.75,3.27-25.84,3.27-25.84s27.69,8,46-1c0,0,1.15,20.15,4.28,26.18l.17.32-.43,17.42,5.06.06,1.05-24.92s3.56-25-16-35c-5.89-3-13.79-1.51-20.28-1.42-8.16.13-14.35,3.09-20.15,6.48-4.53,2.64-7.29,5.19-8.5,10.84-1.18,5.49-.38,12.8-.69,23.61Z" fill="#7a3541"/>
                      <g id="Grupo_54778" data-name="Grupo 54778">
                        <path id="Trazado_105466" data-name="Trazado 105466" d="M293.71,156.87a16.24,16.24,0,0,1-4.52-.89.6.6,0,1,0-.65,1A8.45,8.45,0,0,0,292,159.4a7,7,0,0,0,1.58.34h0a6.79,6.79,0,0,0,1.6-.23,8.37,8.37,0,0,0,3.65-2.22.59.59,0,0,0-.58-1,16.08,16.08,0,0,1-4.54.58Z" fill="#bc6649"/>
                        <path id="Trazado_105467" data-name="Trazado 105467" d="M294.23,179.25a21.69,21.69,0,0,1,5,.83c.64.19,1.16-.44.71-.85a9.7,9.7,0,0,0-3.89-2.26,9.478,9.478,0,0,0-1.76-.32h0a9,9,0,0,0-5.81,2.18c-.48.38,0,1,.65.9A21.78,21.78,0,0,1,294.23,179.25Z" fill="#ef815e"/>
                        <path id="Trazado_105468" data-name="Trazado 105468" d="M282.32,142.7c-.06,1.64-1,2.94-2.11,2.9s-2-1.4-1.9-3,1-2.94,2.1-2.9S282.37,141.06,282.32,142.7Z" fill="#7a3541"/>
                        <path id="Trazado_105469" data-name="Trazado 105469" d="M310.23,143.67c-.06,1.64-1,2.93-2.11,2.9s-2-1.4-1.9-3,1-2.94,2.11-2.9S310.29,142,310.23,143.67Z" fill="#7a3541"/>
                        <path id="Trazado_105470" data-name="Trazado 105470" d="M272.12,136.76a6.76,6.76,0,0,1,2.79-3,8.53,8.53,0,0,1,4-1.23,8.81,8.81,0,0,1,4.13.81,7,7,0,0,1,3.11,2.67.52.52,0,0,1-.18.72.55.55,0,0,1-.43.05h0a22.5,22.5,0,0,0-3.32-.88,13.79,13.79,0,0,0-6.22.31,19.06,19.06,0,0,0-3.18,1.24h0a.52.52,0,0,1-.7-.68Z" fill="#7a3541"/>
                        <path id="Trazado_105471" data-name="Trazado 105471" d="M316.09,137.81a6.78,6.78,0,0,0-2.79-3,8.5,8.5,0,0,0-4-1.24,8.72,8.72,0,0,0-4.14.8A7,7,0,0,0,302,137a.52.52,0,0,0,.17.71.5.5,0,0,0,.44.05h0a22.5,22.5,0,0,1,3.32-.88,15.171,15.171,0,0,1,3.13-.19,14.58,14.58,0,0,1,3.09.52,20.061,20.061,0,0,1,3.17,1.26h0a.53.53,0,0,0,.7-.25A.5.5,0,0,0,316.09,137.81Z" fill="#7a3541"/>
                      </g>
                      <path id="Trazado_105472" data-name="Trazado 105472" d="M323.19,92.54c-1.65,1.43-3.88,5-6.37,4.82.1-5.81-27.06-11.12-41.43-3.14-2,1.1-5.92,5.14-5.58,7.89l-.79,3.21c-1.93,2.39-1,2.47-.13,5.3,1.6,5.23,26.71,7.52,32.94,6.58,5.67-.85,14.67-3.17,17.66-8.88C321.71,104.07,324.53,97.4,323.19,92.54Z" fill="#7a3541"/>
                      <path id="Trazado_105473" data-name="Trazado 105473" d="M309.61,103.41v-.26c-3.32.21-7.25-2.21-9.93-3.3a22.94,22.94,0,0,0-9.73-1.23c-3.51.18-6.71,1.41-10.06,2.07a4.75,4.75,0,0,0-.46,5.55c2.82,4.92,9.84,6.78,15,6.73,18-.16,22.61-10.12,22.83-13.45C314.38,102.77,309.61,103.41,309.61,103.41Z" fill="#590212"/>
                    </g>
                    <g id="Grupo_54781" data-name="Grupo 54781">
                      <g id="Grupo_54780" data-name="Grupo 54780">
                        <path id="Trazado_105474" data-name="Trazado 105474" d="M396.81,404.24c.25-76.24.25-129.79-6.15-155.24-8-31.76-32.4-39.58-32.4-39.58l-4.48,194.82Z" fill="#590212"/>
                        <path id="Trazado_105475" data-name="Trazado 105475" d="M380.64,404.24c.25-76.24.25-129.79-6.15-155.24-8-31.76-32.4-39.58-32.4-39.58l-4.48,194.82Z" fill="#590212" opacity="0.21"/>
                        <path id="Trazado_105476" data-name="Trazado 105476" d="M243.38,403.77l-4.49-194.7s-24.42,7.84-32.4,39.67c-6.4,25.53-6.39,79.23-6.14,155Z" fill="#590212"/>
                        <path id="Trazado_105477" data-name="Trazado 105477" d="M259.56,403.77l-4.48-194.35s-24.42,7.82-32.4,39.58c-6.4,25.45-6.41,79-6.16,154.77Z" fill="#590212" opacity="0.21"/>
                        <path id="Trazado_105478" data-name="Trazado 105478" d="M359.87,210.05c-11.5-3.35-27.7-7.72-44.06-9.86-1.9,2-2,4.86-4.16,6.49-12,8.9-34.26,7.44-42-6.24a161.241,161.241,0,0,0-36.82,10.82c-1,7.27-2.43,116.21-2.7,192.51H363.61C362.68,291.07,360.35,250.49,359.87,210.05Z" fill="#43020e"/>
                      </g>
                      <path id="Trazado_105479" data-name="Trazado 105479" d="M271.4,204.73l21.83,89.6,21.13-85.46-20.79,3.07Z" fill="#d5d5d5"/>
                      <path id="Trazado_105480" data-name="Trazado 105480" d="M270.18,199.26l23.63,12.68-16.4,17.58Z" fill="#fff"/>
                      <path id="Trazado_105481" data-name="Trazado 105481" d="M316.2,199.91l-22.63,12.03,15.72,14.56Z" fill="#fff"/>
                      <path id="Trazado_105482" data-name="Trazado 105482" d="M284.38,221.75l6.29,8.18,7.1.1,5.47-9.1-9.67-8.99Z" fill="#ba0505"/>
                      <path id="Trazado_105483" data-name="Trazado 105483" d="M297.87,229.93l3.75,31.47-8.39,39.43-8.85-40.95,6.2-30.11Z" fill="#ba0505"/>
                      <path id="Trazado_105484" data-name="Trazado 105484" d="M344.22,245.67,316.1,200.13,290.23,303.85a190.927,190.927,0,0,0,6.51,21.86l46.08-53-14-19.63Z" fill="#590212"/>
                      <path id="Trazado_105485" data-name="Trazado 105485" d="M242.94,272.66l61.61,75.6h1.95L270.18,199.67l-28.64,46,15.37,7.36Z" fill="#590212"/>
                      <path id="Trazado_105486" data-name="Trazado 105486" d="M322.65,348.26l-8.5-24.05L331.9,285.9l-22.4,25.13L270.18,199.67,306.5,348.26Z" fill="#7a3541" opacity="0.51"/>
                    </g>
                  </g>
                  <g id="Grupo_54785" data-name="Grupo 54785">
                    <path id="Trazado_105487" data-name="Trazado 105487" d="M310.13,134.16c-2.49,0-8.93.59-10.6,1.51-2.22,1.22-3.15,1.1-3.15,1.1H291.6s-.94.09-3.11-1.21c-1.63-1-8.05-1.85-10.54-1.89-2,0-9,.15-12.14.41a1.49,1.49,0,0,0-1.37,1.54v1.13a1.52,1.52,0,0,0,.64,1.17,3.4,3.4,0,0,1,1.22,2.43c.26,2.32,1.38,9.11,4.3,11.14,2.62,1.83,7.61,3.21,13.69.73a12.11,12.11,0,0,0,2.94-2,16.51,16.51,0,0,0,4.25-7.62s.31-2.67,2.41-2.64,2.31,2.72,2.31,2.72a16.44,16.44,0,0,0,4,7.78,12.84,12.84,0,0,0,2.86,2.1c6,2.69,11,1.5,13.71-.23,3-1.92,4.36-8.68,4.7-11a3.47,3.47,0,0,1,1.16-2.27,2.35,2.35,0,0,0,.86-1.63h0a2.29,2.29,0,0,0-2.06-2.44C318.09,134.58,312,134.2,310.13,134.16Zm-21,8.45c-.52,4-2,5.63-3.41,6.92a11.8,11.8,0,0,1-14.3.59c-3-2-4.21-10-1.92-12.86,1.83-2.3,6.06-2.17,9.13-2,4.65.21,7.25.61,8.7,1.62a4.08,4.08,0,0,1,1.7,2.28,14.86,14.86,0,0,1,.14,3.45ZM316,150.94a11.8,11.8,0,0,1-14.27-1.12c-1.38-1.34-2.78-3-3.15-7a14.229,14.229,0,0,1,.22-3.48,4.09,4.09,0,0,1,1.78-2.21c1.49-1,4.1-1.26,8.75-1.3,3.07,0,7.31,0,9,2.36C320.59,141.1,319.06,149,316,150.94Z" fill="#7a3541"/>
                    <path id="Trazado_105488" data-name="Trazado 105488" d="M287.37,136.85c-1.45-1-4.05-1.41-8.7-1.62-3.07-.14-7.3-.27-9.13,2-2.29,2.87-1.05,10.86,1.92,12.86a11.8,11.8,0,0,0,14.3-.59c1.43-1.29,2.89-2.87,3.41-6.92a14.863,14.863,0,0,0-.1-3.48A4.08,4.08,0,0,0,287.37,136.85Z" opacity="0.5" fill="url(#linear-gradient)"/>
                    <path id="Trazado_105489" data-name="Trazado 105489" d="M300.6,137.09c1.49-1,4.1-1.26,8.75-1.3,3.07,0,7.31,0,9,2.36,2.19,2.95.66,10.89-2.38,12.79a11.8,11.8,0,0,1-14.27-1.12c-1.38-1.34-2.78-3-3.15-7a14.232,14.232,0,0,1,.22-3.48,4.13,4.13,0,0,1,1.83-2.25Z" opacity="0.5" fill="url(#linear-gradient-2)"/>
                    <g id="Grupo_54783" data-name="Grupo 54783" opacity="0.6">
                      <path id="Trazado_105490" data-name="Trazado 105490" d="M273.17,135.41,268.71,145a10.26,10.26,0,0,0,2,4.41l6.63-14.22a20.229,20.229,0,0,0-4.17.22Z" fill="#fff"/>
                      <path id="Trazado_105491" data-name="Trazado 105491" d="M278.67,135.23h-.51L271.28,150l.18.13a12,12,0,0,0,1.62.93l7.32-15.72Z" fill="#fff"/>
                    </g>
                    <g id="Grupo_54784" data-name="Grupo 54784" opacity="0.6">
                      <path id="Trazado_105492" data-name="Trazado 105492" d="M303.15,136.2l-4.17,9a8.76,8.76,0,0,0,2.14,4l6.21-13.35A30.071,30.071,0,0,0,303.15,136.2Z" fill="#fff"/>
                      <path id="Trazado_105493" data-name="Trazado 105493" d="M309.35,135.79h-1.12l-6.51,14h0a9.388,9.388,0,0,0,1.65,1.28l7.14-15.31Z" fill="#fff"/>
                    </g>
                  </g>
                </g>
                <g id="Grupo_54787" data-name="Grupo 54787">
                  <path id="Trazado_105494" data-name="Trazado 105494" d="M283.87,173.54a23.49,23.49,0,0,0,10.08-3c.29-.16,3.62,1.49,4.1,1.65,6.57,2.34,13.88.1,16.58-6.86-2.46.84-6.35-1.33-8.8-2.14-3.86-1.28-9.22-2-11.74-.24-5.07-1.9-9-.68-13,.91-2.62,1-5.46,2.39-8.13,1.49a6,6,0,0,1-.58-.26c.57,2,1.2,4,2.75,5.37A12.08,12.08,0,0,0,283.87,173.54Z" fill="#7a3541"/>
                  <path id="Trazado_105495" data-name="Trazado 105495" d="M276.15,168.83a11.24,11.24,0,0,0,5.89,1.92c3.76.37,8.42.22,11-2.91a.49.49,0,0,1,.58-.1c4.9,2.76,14.89,4.78,18.77-.32a21.4,21.4,0,0,1-5.31-1.64c-.69-.28-1.34-.55-1.88-.73-4.14-1.37-8.45-1.58-10-.48l-.83.58-.94-.35c-4.44-1.67-7.76-.63-11.64.9l-.79.3a16.62,16.62,0,0,1-6.34,1.6C275.15,168,275.64,168.45,276.15,168.83Z" fill="#590212"/>
                </g>
              </g>
              <g id="Grupo_54798" data-name="Grupo 54798">
                <g id="Grupo_54797" data-name="Grupo 54797">
                  <g id="Grupo_54789" data-name="Grupo 54789">
                    <path id="Trazado_105496" data-name="Trazado 105496" d="M124.21,359.74,117,219.57s-8.84-3.11-24.07,9.34c-13.79,11.28-1,111.9,1.55,130.83Z" fill="#c83737"/>
                    <path id="Trazado_105497" data-name="Trazado 105497" d="M137.09,359.74l-7-136s-8.84-3.11-24.07,9.34c-13,10.61-2.42,100.28,1,126.63Z" fill="#bfe1e1" opacity="0.98"/>
                  </g>
                  <g id="Grupo_54790" data-name="Grupo 54790">
                    <path id="Trazado_105498" data-name="Trazado 105498" d="M207.28,359c2.54-18.93,15.33-119.55,1.54-130.83-15.23-12.45-24.07-9.34-24.07-9.34L177.56,359Z" fill="#c83737"/>
                    <path id="Trazado_105499" data-name="Trazado 105499" d="M195.11,359c3.07-23.28,14.61-117.82,1.26-128.73C181.15,217.86,172.3,221,172.3,221l-7.08,138Z" fill="#bfe1e1" opacity="0.98"/>
                  </g>
                  <circle id="Elipse_4117" data-name="Elipse 4117" cx="13.76" cy="13.76" r="13.76" transform="translate(151.894 188.447) rotate(-76.72)" fill="#002344"/>
                  <circle id="Elipse_4118" data-name="Elipse 4118" cx="12.28" cy="12.28" r="12.28" transform="translate(153.54 165.62)" fill="#00162d"/>
                  <path id="Trazado_105500" data-name="Trazado 105500" d="M118.25,315.56c0,13.86.7,35.62.78,44.18h66.45c.08-8.56.78-30.32.77-44.18.6-9.85,12.06-23.6,12.29-33.34.49-21.52-3.74-16.38-4.67-34.38,0-.68-.66-19.59-.52-28.36-10.36-2.28-25.56-4.31-39-5.84v-.48l-2.11.24-2.1-.24v.48c-13.43,1.53-28.64,3.56-39,5.84.14,8.77-.49,27.68-.52,28.36-.93,18-5.16,12.86-4.67,34.38C106.19,292,117.65,305.71,118.25,315.56Z" fill="#c83737"/>
                  <path id="Trazado_105501" data-name="Trazado 105501" d="M166.65,217.91a9.28,9.28,0,0,1-.44,2.82c-1.66,5.24-7.87,14.79-18.73,14.32-9-.39-15.88-6.66-19-13.19a12.2,12.2,0,0,1-1.17-5.21V172.59h39.3Z" fill="#ffa7af"/>
                  <path id="Trazado_105502" data-name="Trazado 105502" d="M127,191.24c0,.67.36,1.4.33,2.07,0,1-.07,2.29,0,3.26,4.25,8.18,10.43,13.75,18.77,13.75,10,0,17.23-8.44,21.27-19.08Z" fill="#d2dfe7"/>
                  <path id="Trazado_105503" data-name="Trazado 105503" d="M174.67,154.48c0,21.82-9.48,49-29,49s-29.3-26.69-29.3-48.48,9.68-39.45,29.25-39.45S174.67,132.66,174.67,154.48Z" fill="#ffb5bc"/>
                  <path id="Trazado_105504" data-name="Trazado 105504" d="M175,153.5c-2.09-3.59-21.95-16.48-22.26-19.65.13,1.3-24.4,18.34-36.06,15.7-.07,1.12,1.06,6.43,1,7.55-.79,20.32,8.8,46.34,27.63,46.34,17.82,0,28.71-22.39,28.87-42.41C174.19,159.28,175.9,155.09,175,153.5Z" fill="#ffc5ca"/>
                  <path id="Trazado_105505" data-name="Trazado 105505" d="M145.48,173.36a15.78,15.78,0,0,1-4.44-.71.58.58,0,0,0-.6.95,8.25,8.25,0,0,0,3.49,2.29,7,7,0,0,0,1.55.28h0a7,7,0,0,0,1.56-.28,8.25,8.25,0,0,0,3.49-2.29.58.58,0,0,0-.6-.95,15.8,15.8,0,0,1-4.45.71Z" fill="#ff8b97"/>
                  <g id="Grupo_54791" data-name="Grupo 54791">
                    <ellipse id="Elipse_4119" data-name="Elipse 4119" cx="1.96" cy="2.9" rx="1.96" ry="2.9" transform="translate(129.47 156.53)" fill="#002344"/>
                    <path id="Trazado_105506" data-name="Trazado 105506" d="M124.45,153.63a6.65,6.65,0,0,1,3-2.89,9.86,9.86,0,0,1,4.37-1.11,10.38,10.38,0,0,1,4.49.88,7.71,7.71,0,0,1,3.4,2.68.48.48,0,0,1-.19.7.63.63,0,0,1-.47,0h0a26.819,26.819,0,0,0-3.61-.94,18,18,0,0,0-3.4-.26,16.708,16.708,0,0,0-3.34.43,23,23,0,0,0-3.43,1.15h0a.6.6,0,0,1-.76-.25.47.47,0,0,1-.06-.39Z" fill="#002344"/>
                  </g>
                  <g id="Grupo_54792" data-name="Grupo 54792">
                    <path id="Trazado_105507" data-name="Trazado 105507" d="M158,159.43c0,1.6.88,2.9,2,2.9s2-1.3,2-2.9-.88-2.9-2-2.9S158,157.83,158,159.43Z" fill="#002344"/>
                    <path id="Trazado_105508" data-name="Trazado 105508" d="M167,153.63a6.6,6.6,0,0,0-3-2.89,9.85,9.85,0,0,0-4.36-1.11,10.4,10.4,0,0,0-4.5.88,7.76,7.76,0,0,0-3.4,2.68.48.48,0,0,0,.19.7.64.64,0,0,0,.47,0h0A27.211,27.211,0,0,1,156,153a18,18,0,0,1,3.4-.26,16.712,16.712,0,0,1,3.34.43,22.661,22.661,0,0,1,3.43,1.15h0a.6.6,0,0,0,.76-.25.44.44,0,0,0,.07-.44Z" fill="#002344"/>
                  </g>
                  <path id="Trazado_105509" data-name="Trazado 105509" d="M133,173.75c0,2.15-2.37,3.88-5.3,3.88s-5.31-1.73-5.31-3.88,2.38-3.88,5.31-3.88S133,171.61,133,173.75Z" fill="#ff9da7"/>
                  <path id="Trazado_105510" data-name="Trazado 105510" d="M168,173.75c0,2.15-2.37,3.88-5.3,3.88s-5.31-1.73-5.31-3.88,2.38-3.88,5.31-3.88S168,171.61,168,173.75Z" fill="#ff9da7"/>
                  <path id="Trazado_105511" data-name="Trazado 105511" d="M118.73,161c.66,4.32-.78,8.12-3.22,8.5s-5-2.84-5.61-7.16.79-8.13,3.23-8.5S118.08,156.68,118.73,161Z" fill="#ffc5ca"/>
                  <path id="Trazado_105512" data-name="Trazado 105512" d="M114.88,157.63h-.25c-1.32.2-2.11,2.19-1.76,4.45s1.59,3.77,2.85,3.73C115.35,163.1,115.14,160.37,114.88,157.63Z" fill="#ffb5bd"/>
                  <g id="Grupo_54793" data-name="Grupo 54793">
                    <path id="Trazado_105513" data-name="Trazado 105513" d="M181.92,162.92c-1.14,4.22-4,7.13-6.37,6.49s-3.4-4.59-2.26-8.81,4-7.13,6.37-6.49S183.05,158.7,181.92,162.92Z" fill="#ffc5ca"/>
                    <path id="Trazado_105514" data-name="Trazado 105514" d="M177.44,157.81a2.09,2.09,0,0,1,.25,0c1.31.26,2,2.28,1.57,4.53s-1.75,3.69-3,3.6C176.74,163.25,177.06,160.53,177.44,157.81Z" fill="#ffb5bd"/>
                  </g>
                  <path id="Trazado_105515" data-name="Trazado 105515" d="M118.82,178.88s-2.12-22.93.5-30.13c0,0,26.2-8,33.73-20.14s-2-17.2-10.81-16.87c-5.6.21-31.11,3.27-28,38.81C113.75,164,118.82,178.88,118.82,178.88Z" fill="#002344"/>
                  <path id="Trazado_105516" data-name="Trazado 105516" d="M161.24,115.67c-2.87-1.58-8-1-9.22,2.08-2.08,5.28-3.4,13.69,4.51,20.81,12.61,11.34,19,18.5,16,35.9C172.54,174.46,190.22,131.64,161.24,115.67Z" fill="#002344"/>
                  <g id="Grupo_54794" data-name="Grupo 54794">
                    <path id="Trazado_105517" data-name="Trazado 105517" d="M154.93,184.53a1.487,1.487,0,0,0-.23-.08c-3.54-.54-4.18-2.8-9.95-2.27-1.65.15-4.8,2-6.45,2.15h-.21a4.48,4.48,0,0,0-.72,1.79c2.84,3.88,6,8.16,10.75,7,2.95-.69,5.2-4,6.9-6.73a1.4,1.4,0,0,1,.42-.42,3.87,3.87,0,0,0-.51-1.44Z" fill="#ff7583"/>
                    <path id="Trazado_105518" data-name="Trazado 105518" d="M138.46,184.31a1.14,1.14,0,0,0-1,1.87c1.74,2,5.05,3.42,8.89,3.41s7.14-1.44,8.88-3.41a1.14,1.14,0,0,0-1-1.87,71.589,71.589,0,0,1-15.77,0Z" fill="#fff"/>
                  </g>
                  <path id="Trazado_105519" data-name="Trazado 105519" d="M166.64,213.6a33.57,33.57,0,0,1-39.3,0v-6.06a33.54,33.54,0,0,0,39.3,0Z" fill="#ba0505"/>
                  <g id="Grupo_54795" data-name="Grupo 54795">
                    <path id="Trazado_105520" data-name="Trazado 105520" d="M166.81,208.85s1-14.25,17.19-18.18C184,190.67,184,206.72,166.81,208.85Z" fill="#ba0505"/>
                    <path id="Trazado_105521" data-name="Trazado 105521" d="M167.2,209.59s9.87-10.11,24.61-2.68C191.81,206.91,181.52,219,167.2,209.59Z" fill="#ba0505"/>
                  </g>
                  <g id="Grupo_54796" data-name="Grupo 54796">
                    <path id="Trazado_105522" data-name="Trazado 105522" d="M168.67,113.39,158.6,92.88a5.49,5.49,0,0,0-4.94-3.08h-14a5.5,5.5,0,0,0-4.94,3.081L124.66,113.39a5.54,5.54,0,0,0,3.25,7.7l15.83,5.31a8.4,8.4,0,0,0,5.29,0l16.38-5.34a5.54,5.54,0,0,0,3.26-7.67Z" fill="#ba0505"/>
                    <path id="Trazado_105523" data-name="Trazado 105523" d="M168.67,113.39,158.6,92.88a5.49,5.49,0,0,0-4.94-3.08h-7.28v37a8.53,8.53,0,0,0,2.65-.41l16.38-5.34a5.54,5.54,0,0,0,3.26-7.66Z" fill="#f54050"/>
                    <path id="Trazado_105524" data-name="Trazado 105524" d="M146.41,119.79l-21.81-6.38,2.33-4.52,19.43,5.61,20-6.13,2.08,4.54Z" fill="#ff9200"/>
                  </g>
                  <path id="Trazado_105525" data-name="Trazado 105525" d="M171.27,210.32a3.82,3.82,0,1,1-3.81-4.09,4,4,0,0,1,3.81,4.09Z" fill="#ba0505"/>
                </g>
                <path id="Trazado_105526" data-name="Trazado 105526" d="M192.1,272.49a.52.52,0,0,0-.66-.33h-.06a5.41,5.41,0,0,1-3.17-.07c-1-.26-2-.73-3.38-1.11a11.738,11.738,0,0,0-2.21-.41,5.87,5.87,0,0,0-2.62.31,4.68,4.68,0,0,0-2.19,1.66l-.08.12-.07-.12a4.76,4.76,0,0,0-2.2-1.66,5.85,5.85,0,0,0-2.62-.31,11.738,11.738,0,0,0-2.21.41c-1.34.38-2.38.85-3.37,1.11a5.45,5.45,0,0,1-3.18.07h-.06a.52.52,0,0,0-.64.7A3.8,3.8,0,0,0,165,274.6a6.4,6.4,0,0,0,2.28.76,14.22,14.22,0,0,0,4.22-.19c.59-.08,1.13-.14,1.6-.16s.81,0,1.22,0l1.23.06a3.25,3.25,0,0,1,1.59.44l.11.07h.07a.59.59,0,0,0,.37,0,.62.62,0,0,0,.46-.05l.11-.07a3.27,3.27,0,0,1,1.59-.44l1.23-.06h1.22a12.353,12.353,0,0,1,1.6.16,14.22,14.22,0,0,0,4.22.19,6.4,6.4,0,0,0,2.28-.76,3.8,3.8,0,0,0,1.65-1.74.52.52,0,0,0,.05-.32Z" fill="#ffc564"/>
                <path id="Trazado_105527" data-name="Trazado 105527" d="M161.51,104.72a.53.53,0,0,0-.66-.33h-.06a5.29,5.29,0,0,1-3.18-.07c-1-.26-2-.72-3.38-1.1a10.84,10.84,0,0,0-2.21-.42,6,6,0,0,0-2.61.31,4.66,4.66,0,0,0-2.2,1.67l-.07.11a1,1,0,0,0-.08-.11,4.66,4.66,0,0,0-2.2-1.67,6,6,0,0,0-2.61-.31,11,11,0,0,0-2.21.42c-1.34.38-2.38.84-3.38,1.1a5.25,5.25,0,0,1-3.17.07h-.06a.55.55,0,0,0-.38,0,.53.53,0,0,0-.27.69,3.93,3.93,0,0,0,1.66,1.74,6.35,6.35,0,0,0,2.27.76,15,15,0,0,0,4.23-.19c.59-.09,1.13-.14,1.6-.17s.81,0,1.22,0h1.23a3.42,3.42,0,0,1,1.59.45l.11.06h.07a3.12,3.12,0,0,0,.83,0l.11-.06a3.39,3.39,0,0,1,1.59-.45h2.44a11.189,11.189,0,0,1,1.61.17,14.93,14.93,0,0,0,4.22.19,6.29,6.29,0,0,0,2.27-.76,3.87,3.87,0,0,0,1.66-1.74.55.55,0,0,0,.02-.36Z" fill="#ff9200"/>
                <path id="Trazado_105528" data-name="Trazado 105528" d="M173.61,228.59c-1.61-6.25-5.36-10.77-7.29-14l-20.21,60.85c1,2.81,1.86,5.73,3.08,8.46a50.87,50.87,0,0,0,9.48-12.54A53.077,53.077,0,0,0,163,260.71l-4.35-13.65,16.67-1.37a55.74,55.74,0,0,0-1.71-17.1Z" fill="#fff"/>
                <path id="Trazado_105529" data-name="Trazado 105529" d="M154.9,291.19l-28.07-75.76a54.43,54.43,0,0,0-5.73,14.41A55.81,55.81,0,0,0,119.71,247l16.69,1.1-4.13,13.71a53.62,53.62,0,0,0,4.46,10.57,51.38,51.38,0,0,0,18.17,18.81Z" fill="#fff"/>
                <path id="Trazado_105530" data-name="Trazado 105530" d="M154.9,350.33h5.62l-.92-58.78-11.95-20.31,7.25,19.95Z" fill="#bfe1e1"/>
                <path id="Trazado_105531" data-name="Trazado 105531" d="M150.76,306.94a3.27,3.27,0,1,1-.958-2.322A3.28,3.28,0,0,1,150.76,306.94Z" fill="#ffc564"/>
                <path id="Trazado_105532" data-name="Trazado 105532" d="M108.7,306.05a3.26,3.26,0,1,1-.951-2.322,3.28,3.28,0,0,1,.951,2.322Z" fill="#ffc564"/>
                <path id="Trazado_105533" data-name="Trazado 105533" d="M108.7,323.73a3.28,3.28,0,1,1-3.27-3.27,3.28,3.28,0,0,1,3.27,3.27Z" fill="#ffc564"/>
              </g>
              <g id="Grupo_54811" data-name="Grupo 54811">
                <g id="Grupo_54799" data-name="Grupo 54799">
                  <path id="Trazado_105534" data-name="Trazado 105534" d="M189.06,200.7c-1.25,7.37-6.26,5.19-11.88,10.63-6.72,6.51-5,14.4-9.26,19s-7.61,10.81-6.63,17S169,259,174.91,256.74a16.85,16.85,0,0,0,30.33-5.7Z" fill="#002344"/>
                  <path id="Trazado_105535" data-name="Trazado 105535" d="M198.61,199c-1.26,7.37-6.26,5.18-11.88,10.62-6.73,6.51-5,14.41-9.27,19s-7.6,10.81-6.63,17.05,7.75,11.62,13.63,9.32a16.84,16.84,0,0,0,30.33-5.69Z" fill="#00162d"/>
                </g>
                <g id="Grupo_54800" data-name="Grupo 54800">
                  <path id="Trazado_105536" data-name="Trazado 105536" d="M237.75,200.7c1.25,7.37,6.26,5.19,11.88,10.63,6.73,6.51,5,14.4,9.26,19s7.61,10.81,6.63,17-7.74,11.61-13.62,9.32a16.85,16.85,0,0,1-30.33-5.7Z" fill="#002344"/>
                  <path id="Trazado_105537" data-name="Trazado 105537" d="M228.21,199c1.25,7.37,6.25,5.18,11.88,10.62,6.72,6.51,5,14.41,9.26,19s7.6,10.81,6.63,17.05-7.75,11.62-13.63,9.32A16.84,16.84,0,0,1,212,249.31Z" fill="#00162d"/>
                </g>
                <g id="Grupo_54801" data-name="Grupo 54801">
                  <path id="Trazado_105538" data-name="Trazado 105538" d="M189,220.69c.4,3.84-1.26,7.14-3.69,7.36s-4.71-2.72-5.1-6.56,1.26-7.14,3.69-7.36S188.65,216.85,189,220.69Z" fill="#ff966d"/>
                  <path id="Trazado_105539" data-name="Trazado 105539" d="M185.45,217.55a1.1,1.1,0,0,0-.25,0c-1.32.12-2.21,1.84-2,3.85s1.35,3.4,2.6,3.42C185.58,222.39,185.54,220,185.45,217.55Z" fill="#bc6649"/>
                </g>
                <g id="Grupo_54802" data-name="Grupo 54802">
                  <path id="Trazado_105540" data-name="Trazado 105540" d="M236.22,220.55c-.39,3.84,1.26,7.13,3.69,7.35s4.71-2.71,5.1-6.56-1.26-7.13-3.69-7.35S236.61,216.7,236.22,220.55Z" fill="#ff966d"/>
                  <path id="Trazado_105541" data-name="Trazado 105541" d="M239.81,217.4a2.179,2.179,0,0,1,.25,0c1.32.11,2.21,1.84,2,3.85s-1.35,3.39-2.6,3.41C239.68,222.24,239.72,219.82,239.81,217.4Z" fill="#bc6649"/>
                </g>
                <g id="Grupo_54803" data-name="Grupo 54803">
                  <path id="Trazado_105542" data-name="Trazado 105542" d="M189.94,393.82l-6.88-125.6s-8.46-2.79-23.05,8.37c-13.2,10.11-.95,100.27,1.48,117.23Z" fill="#fff"/>
                  <path id="Trazado_105543" data-name="Trazado 105543" d="M202.28,393.82,195.61,272s-8.47-2.79-23.05,8.37c-12.42,9.51-2.32,89.86.95,113.47Z" fill="#bfe1e1" opacity="0.6"/>
                  <path id="Trazado_105544" data-name="Trazado 105544" d="M269.48,393.82c2.44-17,14.69-107.12,1.48-117.23-14.58-11.16-21.25-8.93-21.25-8.93L241,393.82Z" fill="#fff"/>
                  <path id="Trazado_105545" data-name="Trazado 105545" d="M257.83,393.82c2.94-20.86,14-105.57,1.22-115.35C244.46,267.31,236,270.1,236,270.1l-6.78,123.72Z" fill="#bfe1e1" opacity="0.6"/>
                  <path id="Trazado_105546" data-name="Trazado 105546" d="M256.65,293.55c0-.61-.64-17.55-.5-25.41-5.27-1.09-11.85-2.11-18.79-3-.6,2.22-1.31,4.41-2.08,6.54-3.34,9.19-10.2,23.2-22,22.05-6.73-.65-12.31-5.78-16-11.08a46.19,46.19,0,0,1-7.4-16.65c-4.56.67-8.81,1.39-12.43,2.14.13,7.86-.47,24.8-.5,25.41-.89,16.13-3.49,12.38-3,31.67.21,8.73,9.74,20.18,10.31,29,0,12.42.67,31.92.74,39.59h63.63c.08-7.67.75-27.17.74-39.59.58-8.83,10.27-20.72,10.48-29.44C260.3,305.5,257.54,309.68,256.65,293.55Z" fill="#fff"/>
                </g>
                <path id="Trazado_105547" data-name="Trazado 105547" d="M231.2,265.63,214.28,290.8l-17.79-25.17V232.32H231.2Z" fill="#ff966d"/>
                <path id="Trazado_105548" data-name="Trazado 105548" d="M231.12,250.8v-4.33H196.49v8c3.73,9.31,9.4,16,16.72,16,8.2,0,14.33-8.45,18-19.5a.36.36,0,0,1-.09-.17Z" fill="#d2dfe7"/>
                <path id="Trazado_105549" data-name="Trazado 105549" d="M239.76,216.81c0,19.26-9.86,42.75-27.14,42.75s-27.14-23.49-27.14-42.75,9.86-34.89,27.14-34.89S239.76,197.54,239.76,216.81Z" fill="#ef825e"/>
                <path id="Trazado_105550" data-name="Trazado 105550" d="M235.39,221.49c0,17.16-8.56,38.07-23.57,38.07s-23.58-20.91-23.58-38.07,8.57-31.06,23.58-31.06S235.39,204.34,235.39,221.49Z" fill="#ff966d"/>
                <path id="Trazado_105551" data-name="Trazado 105551" d="M212.5,233a13.89,13.89,0,0,1-3.92-.63.51.51,0,0,0-.53.84,7.36,7.36,0,0,0,3.08,2,5.94,5.94,0,0,0,1.37.24h0a6.13,6.13,0,0,0,1.38-.24,7.39,7.39,0,0,0,3.07-2,.51.51,0,0,0-.52-.84,14,14,0,0,1-3.93.63Z" fill="#bc6649"/>
                <g id="Grupo_54804" data-name="Grupo 54804">
                  <path id="Trazado_105552" data-name="Trazado 105552" d="M201.82,222.43c0,1.41-.77,2.56-1.73,2.56s-1.73-1.15-1.73-2.56.77-2.56,1.73-2.56S201.82,221,201.82,222.43Z" fill="#002344"/>
                  <path id="Trazado_105553" data-name="Trazado 105553" d="M193.92,217.31a5.93,5.93,0,0,1,2.64-2.55,8.7,8.7,0,0,1,3.86-1,9.39,9.39,0,0,1,4,.78,6.82,6.82,0,0,1,3,2.37.41.41,0,0,1-.16.61.56.56,0,0,1-.42,0h0a24.479,24.479,0,0,0-3.18-.82,16.419,16.419,0,0,0-3-.24,15,15,0,0,0-2.95.39,20.689,20.689,0,0,0-3,1h0a.54.54,0,0,1-.67-.22.46.46,0,0,1-.12-.32Z" fill="#002344"/>
                </g>
                <g id="Grupo_54805" data-name="Grupo 54805">
                  <path id="Trazado_105554" data-name="Trazado 105554" d="M223.58,222.43c0,1.41.78,2.56,1.73,2.56s1.73-1.15,1.73-2.56-.77-2.56-1.73-2.56S223.58,221,223.58,222.43Z" fill="#002344"/>
                  <path id="Trazado_105555" data-name="Trazado 105555" d="M231.48,217.31a5.93,5.93,0,0,0-2.64-2.55,8.67,8.67,0,0,0-3.86-1,9.39,9.39,0,0,0-4,.78,6.82,6.82,0,0,0-3,2.37.41.41,0,0,0,.17.61.54.54,0,0,0,.41,0h0a24.2,24.2,0,0,1,3.19-.82,16.251,16.251,0,0,1,3-.24,15,15,0,0,1,2.95.39,20.3,20.3,0,0,1,3,1h0a.53.53,0,0,0,.67-.22.42.42,0,0,0,.11-.32Z" fill="#002344"/>
                </g>
                <path id="Trazado_105556" data-name="Trazado 105556" d="M204,241.3c-1.11-.15-1.85,1.38-1.09,2.39a13,13,0,0,0,19.39,0c.75-1,0-2.54-1.1-2.39a66.91,66.91,0,0,1-17.2,0Z" fill="#fff"/>
                <ellipse id="Elipse_4120" data-name="Elipse 4120" cx="4.68" cy="3.43" rx="4.68" ry="3.43" transform="translate(192.11 229.92)" fill="#ff7e6f"/>
                <path id="Trazado_105557" data-name="Trazado 105557" d="M232.42,233.35c0,1.89-2.1,3.42-4.68,3.42s-4.69-1.53-4.69-3.42,2.1-3.43,4.69-3.43S232.42,231.45,232.42,233.35Z" fill="#ff7e6f"/>
                <path id="Trazado_105558" data-name="Trazado 105558" d="M249.27,359.06c-12.14-2.31-9.25-93.43-9.25-93.43L230.17,314a1.69,1.69,0,0,1-1.66,1.36H203.16a1.69,1.69,0,0,1-1.65-1.28l-12.4-49s6.94,90.53-5.21,92.84v40.21h63.93Z" fill="url(#linear-gradient-3)"/>
                <path id="Trazado_105559" data-name="Trazado 105559" d="M184.19,210.82s23.66,5.21,32.54.58c0,0,7.29-2.75,8.18-12,0,0,3.06,9.69-.2,12s17.16,6.65,13-8.39c0,0-7.1-10.12-22.19-11.57S188.33,193.76,184.19,210.82Z" fill="#d2dfe7"/>
                <g id="Grupo_54807" data-name="Grupo 54807">
                  <g id="Grupo_54806" data-name="Grupo 54806">
                    <path id="Trazado_105560" data-name="Trazado 105560" d="M241.72,267.56c-2.62-5.63-9-3.42-9-3.42L214.64,292a7.744,7.744,0,0,1-.18.77,7.1,7.1,0,0,1-.18-.72L194.75,265.2s-6.51-1.87-8.82,3.89,19.23,38.63,19.23,38.63l19.41-.56S244.34,273.19,241.72,267.56Z" fill="#bfe1e1" opacity="0.6"/>
                    <path id="Trazado_105561" data-name="Trazado 105561" d="M231.21,263.36s6.4-2.23,9,3.42-16.43,39.41-16.43,39.41-2.86-15.49-9.23-15.44Z" fill="#fff"/>
                  </g>
                  <path id="Trazado_105562" data-name="Trazado 105562" d="M196.2,264.33s-6.51-1.88-8.82,3.91,18.51,38.47,18.51,38.47,2-15.62,8.39-15.91Z" fill="#fff"/>
                </g>
                <path id="Trazado_105563" data-name="Trazado 105563" d="M184.19,208.44s23.66,5.2,32.54.57c0,0,7.29-2.74,8.18-12,0,0,3.06,9.69-.2,12s17.16,6.66,13-8.38c0,0-7.1-10.13-22.19-11.57S188.33,191.37,184.19,208.44Z" fill="#00162d"/>
                <g id="Grupo_54808" data-name="Grupo 54808">
                  <path id="Trazado_105564" data-name="Trazado 105564" d="M210,191.38c-12.14,0-19.19,4.67-22.52,15.05a108.141,108.141,0,0,0,18,1.9c5.75,0,8.64-.88,10.06-1.62l.14-.08h.15c.05,0,7.73-4.57,7.32-13.18a31.68,31.68,0,0,0-7.83-1.75A44.341,44.341,0,0,0,210,191.38Z" fill="#002344"/>
                  <path id="Trazado_105565" data-name="Trazado 105565" d="M233.8,200.09a29.43,29.43,0,0,0-6.49-4.8c1.63,3.78,2.41,9.49.81,13.38a11,11,0,0,0,1.85.15c1.08,0,3.71-.18,4.95-1.8a3.91,3.91,0,0,0,.72-2,6.09,6.09,0,0,0-1.84-4.93Z" fill="#002344"/>
                </g>
                <g id="Grupo_54810" data-name="Grupo 54810">
                  <g id="Grupo_54809" data-name="Grupo 54809">
                    <rect id="Rectángulo_5715" data-name="Rectángulo 5715" height="17.76" transform="translate(237.39 184.63)" fill="#fff"/>
                    <path id="Trazado_105566" data-name="Trazado 105566" d="M256.51,167.29a18.1,18.1,0,0,0-18-18.22h-1.22l-.64.07h-.55a4.994,4.994,0,0,0-.86.15l-.31.06q-.5.1-1,.24h-.14c-.36.1-.71.22-1.07.34h0a18,18,0,0,0-3.12,1.44h0l-.12.07a17.8,17.8,0,0,0-30.2-2,17.7,17.7,0,0,0-8.63-2.25,18.24,18.24,0,0,0-1.85,36.35l-1.06,18.51c6.47-3.88,15.25-6.26,24.93-6.26a56.737,56.737,0,0,1,9.26.75,44.74,44.74,0,0,1,16,5.69l-1-17.73h.44C247.25,184.65,256.51,177.36,256.51,167.29Z" fill="#fff"/>
                    <path id="Trazado_105567" data-name="Trazado 105567" d="M256.51,167.29a18.1,18.1,0,0,0-18-18.22h-1.22l-.64.07a1.722,1.722,0,0,0-.55.06c-.18.06-.58.09-.86.14l-.31.06q-.5.1-1,.24h-.14c-.36.1-.71.22-1.07.34h0a18,18,0,0,0-3.12,1.44h0l-.12.07a18,18,0,0,0-12.72-9.19,53.32,53.32,0,0,1,0,53.69,26.208,26.208,0,0,1,2.62.24c.99.11,1.71.22,2.55.36a44.74,44.74,0,0,1,16,5.69l-1-17.73h.44C247.25,184.65,256.51,177.36,256.51,167.29Z" fill="#9db9b9" opacity="0.6"/>
                    <path id="Trazado_105568" data-name="Trazado 105568" d="M237.91,202.43l-.01-.06h0Z" fill="#fff"/>
                  </g>
                  <path id="Trazado_105569" data-name="Trazado 105569" d="M203.48,180.58a74.362,74.362,0,0,0-14.67,3.1l-.28,3.14c5.17-1.92,13.2-3.47,23.22-3.62a69.74,69.74,0,0,1,25.3,4.34v-2.9a76.66,76.66,0,0,0-33.57-4.06Z" fill="#ff7c00"/>
                </g>
                <path id="Trazado_105570" data-name="Trazado 105570" d="M219.66,362.53h-5.38a12.05,12.05,0,0,1-12.06-12.15l.2-16.34h29.5l-.2,16.52a12.06,12.06,0,0,1-12.06,11.97Z" fill="#ff7c00"/>
              </g>
              <g id="Grupo_54815" data-name="Grupo 54815">
                <path id="Trazado_105571" data-name="Trazado 105571" d="M305.73,267c-.87.65-1.55-4.48-2.51-3.66-7.6,6.47-17.56,18.29-22.94,38.35-9.47,35.31-11.57,120.55-11.57,120.55H306Z" fill="#464977"/>
                <path id="Trazado_105572" data-name="Trazado 105572" d="M322.53,269.87c-.87.65-1.56-4.48-2.51-3.66-7.61,6.47-17.57,18.29-22.94,38.35-9.47,35.31-11.57,120.55-11.57,120.55h37.25Z" fill="#4d5084" opacity="0.28"/>
                <path id="Trazado_105573" data-name="Trazado 105573" d="M421.42,267.55c1,.76,2.87-4.76,4-3.78,7.53,6.56,17.19,18.3,22.45,37.94,9.47,35.31,11.57,120.55,11.57,120.55H422.19Z" fill="#464977"/>
                <path id="Trazado_105574" data-name="Trazado 105574" d="M405.25,267.55c1,.76,2.86-4.76,4-3.78,7.54,6.56,17.2,18.3,22.46,37.94,9.47,35.31,11.57,120.55,11.57,120.55H406Z" fill="#4d5084" opacity="0.28"/>
                <path id="Trazado_105575" data-name="Trazado 105575" d="M424.94,262.92a210.881,210.881,0,0,0-34.88-7.44,26.87,26.87,0,0,1-5.82,8.44c-8.33,8-20.55,8-30.17,3.28-4.78-2.37-7.91-6.67-10.16-12.19a235.639,235.639,0,0,0-41,7.91l-1.19,159.71H426.24C428.39,373.06,425.75,321.57,424.94,262.92Z" fill="#4d5084"/>
                <g id="Grupo_54814" data-name="Grupo 54814">
                  <path id="Trazado_105576" data-name="Trazado 105576" d="M388.77,264.16a54.32,54.32,0,0,1-44.79,0V217.51h44.79Z" fill="#a35761"/>
                  <path id="Trazado_105577" data-name="Trazado 105577" d="M342.62,230.81c3.57,15.82,11.37,29.31,23.65,29.31s19.63-13.49,22.94-29.31Z" fill="#d2dfe7"/>
                  <path id="Trazado_105578" data-name="Trazado 105578" d="M395,201.71c0,22.54-10.14,50-29.55,50s-29.54-27.47-29.54-50c0-6-1.45-13.25,0-18.41,3.93-14.08,15.34-24.57,29.54-24.57,13.72,0,24.47,10.64,28.61,24C395.77,188.2,395,195.11,395,201.71Z" fill="#a85b67"/>
                  <path id="Trazado_105579" data-name="Trazado 105579" d="M365.44,251.26c-15.94,0-25.81-24-25.81-46.28,0-2.15-.17-4.39-.33-6.56a44.59,44.59,0,0,1,.19-10.85c5.07-25.57,48.92-18.57,51-.51a89.727,89.727,0,0,1,.86,13c-.05,1.6-.1,3.25-.1,4.89C391.25,227.23,381.39,251.26,365.44,251.26Z" fill="#ba6570"/>
                  <path id="Trazado_105580" data-name="Trazado 105580" d="M338.7,206.94c0,5.67-2.65,10.26-5.91,10.26s-5.91-4.59-5.91-10.26,2.64-10.27,5.91-10.27S338.7,201.27,338.7,206.94Z" fill="#a85b67"/>
                  <path id="Trazado_105581" data-name="Trazado 105581" d="M391.26,206.94c0,5.67,2.64,10.26,5.9,10.26s5.91-4.59,5.91-10.26-2.64-10.27-5.91-10.27S391.26,201.27,391.26,206.94Z" fill="#a85b67"/>
                  <g id="Grupo_54812" data-name="Grupo 54812">
                    <path id="Trazado_105582" data-name="Trazado 105582" d="M376.49,229.83a2.15,2.15,0,0,0-.28-1.49c-1.93-1.19-5-3.24-11.76-2.62-2,.17-6.45,1.49-7.66,2.5-.07.06-.17,0-.26,0a5.1,5.1,0,0,0-.77,2.08c1,4.32,7.09,9.52,12.68,8.23,3.5-.8,7.9-4.1,8.19-7.85C376.68,230,377.19,229.27,376.49,229.83Z" fill="#d2dfe7"/>
                    <path id="Trazado_105583" data-name="Trazado 105583" d="M357,228.21a1.32,1.32,0,0,0-1.17,2.17c2,2.3,5.89,4,10.36,4s8.34-1.68,10.37-4a1.32,1.32,0,0,0-1.17-2.17,84.381,84.381,0,0,1-18.39,0Z" fill="#fff"/>
                  </g>
                  <path id="Trazado_105584" data-name="Trazado 105584" d="M365.44,212.4a28.6,28.6,0,0,1-6-.71c-.77-.18-1.36.51-.81.94a12.09,12.09,0,0,0,4.69,2.28,13.38,13.38,0,0,0,2.09.27h0a13.507,13.507,0,0,0,2.1-.27,12,12,0,0,0,4.68-2.28c.56-.43,0-1.12-.8-.94A28.618,28.618,0,0,1,365.44,212.4Z" fill="#d2dfe7"/>
                  <ellipse id="Elipse_4121" data-name="Elipse 4121" cx="2.33" cy="3.45" rx="2.33" ry="3.45" transform="translate(349.2 199.6)" fill="#002344"/>
                  <ellipse id="Elipse_4122" data-name="Elipse 4122" cx="2.33" cy="3.45" rx="2.33" ry="3.45" transform="translate(376.25 199.6)" fill="#002344"/>
                  <path id="Trazado_105585" data-name="Trazado 105585" d="M343.62,198.45a6.6,6.6,0,0,1,2.23-3.3,8.48,8.48,0,0,1,7.77-1.59,6.77,6.77,0,0,1,3.36,2.1.5.5,0,0,1-.07.71.46.46,0,0,1-.4.11h0a21.272,21.272,0,0,0-3.31-.36,14.3,14.3,0,0,0-3,.27,12.929,12.929,0,0,0-2.88.94,18.5,18.5,0,0,0-2.86,1.65h0a.5.5,0,0,1-.7-.13A.47.47,0,0,1,343.62,198.45Z" fill="#002344"/>
                  <path id="Trazado_105586" data-name="Trazado 105586" d="M385.69,198.45a6.6,6.6,0,0,0-2.23-3.3,8.48,8.48,0,0,0-7.77-1.59,6.77,6.77,0,0,0-3.36,2.1.51.51,0,0,0,.06.71.48.48,0,0,0,.41.11h0a21.272,21.272,0,0,1,3.31-.36,14.3,14.3,0,0,1,3,.27,13.1,13.1,0,0,1,2.88.94A18.5,18.5,0,0,1,384.9,199h0a.5.5,0,0,0,.7-.13.47.47,0,0,0,.09-.42Z" fill="#002344"/>
                  <path id="Trazado_105587" data-name="Trazado 105587" d="M335.26,202.39a1.52,1.52,0,0,0-.84-.27c-1.35,0-2.44,1.89-2.44,4.23s1.09,4.24,2.44,4.24a2,2,0,0,0,1.54-1C335.65,207.22,335.34,204.81,335.26,202.39Z" fill="#7e424b"/>
                  <path id="Trazado_105588" data-name="Trazado 105588" d="M394.49,202.39a1.52,1.52,0,0,1,.84-.27c1.35,0,2.44,1.89,2.44,4.23s-1.09,4.24-2.44,4.24a2,2,0,0,1-1.54-1C394.1,207.22,394.41,204.81,394.49,202.39Z" fill="#7e424b"/>
                  <path id="Trazado_105589" data-name="Trazado 105589" d="M387.91,134.34H343L320.54,154.1,343,173.86h44.91l22.45-19.76Z" fill="#37385b"/>
                  <rect id="Rectángulo_5716" data-name="Rectángulo 5716" width="65.31" height="11.2" transform="translate(333.11 164.98)" fill="#4d5084"/>
                  <path id="Trazado_105590" data-name="Trazado 105590" d="M333.13,176.17c.55,6,14.94,10.73,32.63,10.73s32.09-4.77,32.63-10.73Z" fill="#37385b"/>
                  <g id="Grupo_54813" data-name="Grupo 54813" opacity="0.28">
                    <path id="Trazado_105591" data-name="Trazado 105591" d="M410.36,154.1l-22.45-19.76H374.47v34.28a16.71,16.71,0,0,1-16.08,16.67,93.377,93.377,0,0,1-10.54-.2,84.228,84.228,0,0,0,17.91,1.81c17.69,0,32.09-4.77,32.63-10.73h0V165H398Z" fill="#4d5084"/>
                  </g>
                  <path id="Trazado_105592" data-name="Trazado 105592" d="M378.56,143.05a33,33,0,0,1-5.11,12.42,24.769,24.769,0,0,1-7.45,7.17,25.66,25.66,0,0,1-8.07-8.19,33.851,33.851,0,0,1-4.5-11.4Z" fill="#ffc564"/>
                  <path id="Trazado_105593" data-name="Trazado 105593" d="M379.39,225.45a1.62,1.62,0,0,0,1.36-2.49c-2.22-3.45-7.82-5.91-14.37-5.91S354.23,219.51,352,223a1.61,1.61,0,0,0,1.35,2.49Z" fill="#002344"/>
                </g>
                <path id="Trazado_105594" data-name="Trazado 105594" d="M331.78,262.15l-21.46,2.17,3.11-9.64,20.84-2.49Z" fill="#ffc564"/>
                <path id="Trazado_105595" data-name="Trazado 105595" d="M398.33,262.15l21.46,2.17-3.11-9.64-20.83-2.49Z" fill="#ffc564"/>
                <path id="Trazado_105596" data-name="Trazado 105596" d="M401.79,290.63l-3.1-5.31L395,291a8.42,8.42,0,0,1-7.08,3.86h-2.06a33.78,33.78,0,0,0,4.49,11.4,25.87,25.87,0,0,0,8.07,8.19,24.9,24.9,0,0,0,7.46-7.17A33.2,33.2,0,0,0,411,294.82h-1.95a8.42,8.42,0,0,1-7.26-4.19Z" fill="#ffc564"/>
                <path id="Trazado_105597" data-name="Trazado 105597" d="M366.66,266.91l1.98-.23,10.45,15.05-11.05,12.76-12.11-12.76Z" fill="#37385b"/>
                <path id="Trazado_105598" data-name="Trazado 105598" d="M389,389.39l-18.18-98.48h-4.69l-14.26,98.48,18.47,30.43v.31l.09-.15.1.15-.01-.29Z" fill="#37385b"/>
                <path id="Trazado_105599" data-name="Trazado 105599" d="M343.5,250.09l23.81,16.57L352.5,285.78l-10.85-23.32Z" fill="#5e629f"/>
                <path id="Trazado_105600" data-name="Trazado 105600" d="M389.62,250.09l-22.08,16.57,13.74,19.12,10.05-23.32Z" fill="#5e629f"/>
                <path id="Trazado_105601" data-name="Trazado 105601" d="M315.3,298.84h33.59v29.1a7.75,7.75,0,0,1-7.75,7.75H323a7.75,7.75,0,0,1-7.75-7.75v-29.1Z" fill="#5e629f"/>
              </g>
              <g id="Grupo_54825" data-name="Grupo 54825">
                <path id="Trazado_105602" data-name="Trazado 105602" d="M345.3,374.22c-.33-5.11,1.13-21.49,1.26-28.83.17-1.23.34-2.39.53-3.47a169.135,169.135,0,0,0-18.47-3.45,232.28,232.28,0,0,0-29.19-2.1h-9.6a232.1,232.1,0,0,0-29.18,2.1,168.2,168.2,0,0,0-18.47,3.45c.18,1.08.36,2.24.53,3.47.13,7.34,1.59,23.72,1.26,28.83-1,15.86,2.24,63.32,2.9,72,0,14.67-.23,25.51-.52,28h96.57c-.3-2.53-.52-13.37-.52-28C343.05,437.54,346.31,390.08,345.3,374.22Z" fill="url(#linear-gradient-4)"/>
                <path id="Trazado_105603" data-name="Trazado 105603" d="M326.5,337.74a261.623,261.623,0,0,0-37.41-2.12c-8.42.13-16.36.66-23.8,1.46.44,8.82,24.09,30.59,32.51,30.29C305,367.11,325.81,347.29,326.5,337.74Z" fill="#ffa7af"/>
                <g id="Grupo_54816" data-name="Grupo 54816">
                  <path id="Trazado_105604" data-name="Trazado 105604" d="M247.35,474.43l-3-133.1s-7.2.85-14.94,12.46c-5.66,8.51-9.84,18.33-9.84,28.29l-1.1,92.35Z" fill="#fff"/>
                  <path id="Trazado_105605" data-name="Trazado 105605" d="M258.88,474.43,256,346.93s-7.2.85-14.93,12.46c-5.67,8.5-9.85,18.33-9.85,28.29l-.65,86.75Z" fill="#bfe1e1" opacity="0.6"/>
                  <path id="Trazado_105606" data-name="Trazado 105606" d="M295.47,474.26H246.35c.29-2.55.51-13.49.52-28.29-.66-8.75-1-17.13-3.88-25.42-5.66-16.25,0-31.21,1-47.2.33-5.17-2.43-29.85-2.61-30.94,6.84-3.25,11.41-4.68,19.29-5.13Z" fill="#fff"/>
                  <path id="Trazado_105607" data-name="Trazado 105607" d="M295.32,474.26,260.65,337.28l-6,58.78,18.2.46-3.74,25.66Z" fill="#bfe1e1"/>
                </g>
                <circle id="Elipse_4123" data-name="Elipse 4123" cx="6.4" cy="6.4" r="6.4" transform="translate(285.7 405.83)" fill="#9bc5e6"/>
                <g id="Grupo_54817" data-name="Grupo 54817">
                  <path id="Trazado_105608" data-name="Trazado 105608" d="M344.93,474.43l3-133.1s7.2.85,14.93,12.46c5.67,8.51,9.85,18.33,9.85,28.29l1.1,92.35Z" fill="#fff"/>
                  <path id="Trazado_105609" data-name="Trazado 105609" d="M333.4,474.43l2.89-127.5s7.21.85,14.94,12.46c5.66,8.5,9.85,18.33,9.85,28.29l.65,86.75Z" fill="#bfe1e1" opacity="0.6"/>
                  <path id="Trazado_105610" data-name="Trazado 105610" d="M296.81,474.26h49.12c-.29-2.55-.52-13.49-.52-28.29.66-8.75,1-17.13,3.88-25.42,5.66-16.25,0-31.21-1-47.2-.33-5.17,2.43-29.85,2.61-30.94-6.84-3.25-11.42-4.68-19.29-5.13Z" fill="#fff"/>
                  <path id="Trazado_105611" data-name="Trazado 105611" d="M337.63,396.06l-6-58.78L296.95,474.26l26.22-52.08-3.74-25.66Z" fill="#bfe1e1"/>
                </g>
                <path id="Trazado_105612" data-name="Trazado 105612" d="M292,413.32a1.39,1.39,0,0,1-1.28-.84c-21.35-48.73-19.79-77.36-19.71-78.56a1.4,1.4,0,1,1,2.8.18c0,.29-1.57,29.23,19.47,77.26a1.4,1.4,0,0,1-1.28,1.96Z" fill="#002344"/>
                <g id="Grupo_54818" data-name="Grupo 54818">
                  <path id="Trazado_105613" data-name="Trazado 105613" d="M319.71,371.55l-2.71-.7c6-23.32,5.26-36.62,5.26-36.75l2.79-.18C325.08,334.48,325.85,347.74,319.71,371.55Z" fill="#002344"/>
                  <path id="Trazado_105614" data-name="Trazado 105614" d="M319.1,413.49l-2.32-1.58c8.06-11.81,9.16-28.91,6.35-35a7.09,7.09,0,0,0-4.83-4c-6.54-1.41-9.6,8.06-11.34,15.31a59.77,59.77,0,0,0-.55,23.69l-2.76.47a62.77,62.77,0,0,1,.58-24.81c1.29-5.35,4.69-19.55,14.66-17.4a9.92,9.92,0,0,1,6.79,5.6C328.82,382.56,327.82,400.69,319.1,413.49Z" fill="#002344"/>
                  <circle id="Elipse_4124" data-name="Elipse 4124" cx="2.88" cy="2.88" r="2.88" transform="translate(302.39 410.05)" fill="#9bc5e6"/>
                  <path id="Trazado_105615" data-name="Trazado 105615" d="M320,414a2.88,2.88,0,1,1-2.88-2.88A2.88,2.88,0,0,1,320,414Z" fill="#9bc5e6"/>
                </g>
                <g id="Grupo_54824" data-name="Grupo 54824">
                  <rect id="Rectángulo_5717" data-name="Rectángulo 5717" width="37.32" height="44.66" transform="translate(277.98 300.68)" fill="#ffa7af"/>
                  <path id="Trazado_105616" data-name="Trazado 105616" d="M275.62,318.39c3.84,13,10.74,23.38,20.2,23.38s16.36-10.35,20.2-23.38Z" fill="#d2dfe7"/>
                  <path id="Trazado_105617" data-name="Trazado 105617" d="M324.5,284c0,20.72-10.6,46-29.18,46s-29.17-25.25-29.17-46,10.59-37.51,29.17-37.51S324.5,263.29,324.5,284Z" fill="#ffb5bc"/>
                  <path id="Trazado_105618" data-name="Trazado 105618" d="M323.2,282.55c-2-3.41-23.11-17.3-23.4-20.32.12,1.24-22.71,17.64-32,16.57-.06,1.06-.74,5.79-.78,6.86C266.29,305,277.15,330,295,330c16.92,0,28.43-21.15,28.58-40.17C323.62,288.14,324.08,284.07,323.2,282.55Z" fill="#ffc5ca"/>
                  <path id="Trazado_105619" data-name="Trazado 105619" d="M295.19,301.41a14.808,14.808,0,0,1-4.22-.68.55.55,0,0,0-.56.91,7.83,7.83,0,0,0,3.31,2.18,6.839,6.839,0,0,0,1.47.26h0a6.82,6.82,0,0,0,1.48-.26,7.83,7.83,0,0,0,3.31-2.18.55.55,0,0,0-.57-.9,15.079,15.079,0,0,1-4.22.67Z" fill="#ff8b97"/>
                  <g id="Grupo_54819" data-name="Grupo 54819">
                    <path id="Trazado_105620" data-name="Trazado 105620" d="M283.71,286.31c0,1.53-.83,2.76-1.86,2.76s-1.86-1.23-1.86-2.76.83-2.75,1.86-2.75S283.71,284.79,283.71,286.31Z" fill="#002344"/>
                    <path id="Trazado_105621" data-name="Trazado 105621" d="M275.22,280.81a6.34,6.34,0,0,1,2.84-2.74,9.35,9.35,0,0,1,4.15-1.06,9.8,9.8,0,0,1,4.26.84,7.39,7.39,0,0,1,3.23,2.54.44.44,0,0,1-.18.66.61.61,0,0,1-.44,0h0a27.216,27.216,0,0,0-3.43-.89,17.849,17.849,0,0,0-3.23-.25,16.51,16.51,0,0,0-3.17.42,20.452,20.452,0,0,0-3.26,1.09h0a.58.58,0,0,1-.72-.24A.46.46,0,0,1,275.22,280.81Z" fill="#002344"/>
                  </g>
                  <g id="Grupo_54820" data-name="Grupo 54820">
                    <path id="Trazado_105622" data-name="Trazado 105622" d="M307.11,286.31c0,1.53.83,2.76,1.86,2.76s1.86-1.23,1.86-2.76-.83-2.75-1.86-2.75S307.11,284.79,307.11,286.31Z" fill="#002344"/>
                    <path id="Trazado_105623" data-name="Trazado 105623" d="M315.6,280.81a6.34,6.34,0,0,0-2.84-2.74,9.35,9.35,0,0,0-4.15-1.06,9.8,9.8,0,0,0-4.26.84,7.389,7.389,0,0,0-3.23,2.54.44.44,0,0,0,.18.66.61.61,0,0,0,.44,0h0a27.223,27.223,0,0,1,3.43-.89,17.848,17.848,0,0,1,3.23-.25,16.51,16.51,0,0,1,3.17.42,20.446,20.446,0,0,1,3.26,1.09h0a.58.58,0,0,0,.72-.24A.46.46,0,0,0,315.6,280.81Z" fill="#002344"/>
                  </g>
                  <path id="Trazado_105624" data-name="Trazado 105624" d="M286.08,310.34c-1.2-.16-2,1.48-1.18,2.56a13.91,13.91,0,0,0,20.85,0c.81-1.08,0-2.72-1.18-2.56A72.422,72.422,0,0,1,286.08,310.34Z" fill="#fff"/>
                  <path id="Trazado_105625" data-name="Trazado 105625" d="M257.42,334.16a116.079,116.079,0,0,0,17.92,5.51c-1.83-6.93-3.44-13.66-4.73-19-2.66-11.11-4.63-28.4-4-39.93,2.58-.22,5.26-1.68,7.82-2.91,8.16-3.91,14.58-8.27,19.91-15.3,2.84-3.76,11.29-16.69,4.73-20.46-18.63-10.72-30.18,4.34-35.67,15.49a59.73,59.73,0,0,0-5.63,19.9l-5.88,54.39Q254.63,333,257.42,334.16Z" fill="#00162d"/>
                  <path id="Trazado_105626" data-name="Trazado 105626" d="M257.42,334.16a115.679,115.679,0,0,0,15.5,4.93c-1.86-7-3.48-13.75-4.79-19.19l-.15-.64c-2.9-12.11-4.65-29.5-4.07-40.45l.09-1.55,1.55-.13c1.91-.16,4.08-1.22,6.18-2.25l1-.49c8.89-4.25,14.64-8.67,19.26-14.76,1.73-2.29,6.15-7.62,4.22-13.73-1.79-5.66-8.72-7.55-10.33-7.55-11.18,0-19,11.44-22.38,18.22a60.67,60.67,0,0,0-5.59,19.83s-5.13,33.12-6.53,55.28Z" fill="#002344"/>
                  <path id="Trazado_105627" data-name="Trazado 105627" d="M299.92,245.28a.41.41,0,0,1-.15.21c-1.1,7.63,1.5,13.34,7.12,18.78,5.27,5.1,10.28,9.75,13.74,16.31A28.39,28.39,0,0,1,324,296.12c-.39,7.47-2.78,14.76-3.32,22.31-.25,3.42-2.15,13.3-4.09,22.82A89.94,89.94,0,0,0,336.14,336q2.43-1,4.8-2.09v-.15c1.06-9.64-.65-20.47-1.67-30-1.78-16.73-4.44-35-13-49.82-3.47-6-8-10.91-14.71-13-4.51-1.43-8.48-2.08-12.94-.89a15.438,15.438,0,0,0-2.28.89C298.5,241.3,300.72,242.75,299.92,245.28Z" fill="#002344"/>
                  <path id="Trazado_105628" data-name="Trazado 105628" d="M283.34,301.79c0,2-2.25,3.68-5,3.68s-5-1.65-5-3.68,2.25-3.69,5-3.69S283.34,299.75,283.34,301.79Z" fill="#ff9da7"/>
                  <path id="Trazado_105629" data-name="Trazado 105629" d="M316.61,301.79c0,2-2.25,3.68-5,3.68s-5-1.65-5-3.68,2.26-3.69,5-3.69S316.61,299.75,316.61,301.79Z" fill="#ff9da7"/>
                  <path id="Trazado_105630" data-name="Trazado 105630" d="M282,341.79c-1.76-11.44-3.58-20.68-3.58-20.68C268,309.6,267.2,294.69,267.2,294.69l-2.68-.6c-1.94,18.1-.74,32.26,1.89,43.22C269.83,338.35,278.49,341.05,282,341.79Z" fill="#00162d"/>
                  <ellipse id="Elipse_4125" data-name="Elipse 4125" cx="4.24" cy="7.52" rx="4.24" ry="7.52" transform="matrix(0.999, -0.049, 0.049, 0.999, 261.614, 279.902)" fill="#ffc5ca"/>
                  <path id="Trazado_105631" data-name="Trazado 105631" d="M267.15,283.44h-.24c-1.27.06-2.21,1.87-2.1,4s1.14,3.71,2.34,3.8C267.06,288.65,267.13,286.05,267.15,283.44Z" fill="#ffb5bd"/>
                  <path id="Trazado_105632" data-name="Trazado 105632" d="M327.29,339c3.36-12.35,4.51-27.95,0-46.75l-3.42,2.3s-1.62,14.32-8.92,23.34a157.217,157.217,0,0,1-1.09,24.26A132.159,132.159,0,0,0,327.29,339Z" fill="#00162d"/>
                  <path id="Trazado_105633" data-name="Trazado 105633" d="M328.22,287c.2,4.15-1.53,7.6-3.87,7.72s-4.4-3.16-4.61-7.3,1.53-7.61,3.87-7.72S328,282.85,328.22,287Z" fill="#ffc5ca"/>
                  <path id="Trazado_105634" data-name="Trazado 105634" d="M322.69,283.69a1.549,1.549,0,0,1,.23-.07c1.26-.15,2.48,1.48,2.73,3.63s-.51,3.86-1.67,4.14C323.64,288.81,323.14,286.26,322.69,283.69Z" fill="#ffb5bd"/>
                  <g id="Grupo_54823" data-name="Grupo 54823">
                    <path id="Trazado_105635" data-name="Trazado 105635" d="M311.72,279.62c-2.49-.05-8.93.58-10.6,1.5-2.22,1.22-3.15,1.1-3.15,1.1h-2.39l-2.39-.05s-.94.09-3.11-1.21c-1.64-1-8.05-1.85-10.54-1.89-2,0-9,.15-12.14.41A1.49,1.49,0,0,0,266,281v1.13a1.52,1.52,0,0,0,.63,1.17,3.41,3.41,0,0,1,1.23,2.43c.26,2.32,1.38,9.12,4.29,11.15,2.63,1.83,7.62,3.2,13.7.73a12.669,12.669,0,0,0,2.94-2,16.45,16.45,0,0,0,4.25-7.62s.3-2.67,2.41-2.63,2.31,2.71,2.31,2.71a16.53,16.53,0,0,0,4,7.78,12.289,12.289,0,0,0,2.87,2.1c6,2.69,11,1.5,13.71-.23,3-1.92,4.35-8.67,4.7-11a3.48,3.48,0,0,1,1.15-2.26,2.35,2.35,0,0,0,.87-1.63h0a2.31,2.31,0,0,0-2.06-2.45C319.68,280,313.58,279.65,311.72,279.62Zm-21,8.44c-.52,4.06-2,5.63-3.4,6.92a11.8,11.8,0,0,1-14.31.59c-3-2-4.2-10-1.91-12.86,1.83-2.29,6.06-2.17,9.13-2,4.64.22,7.25.61,8.7,1.62a4.08,4.08,0,0,1,1.7,2.28,14.36,14.36,0,0,1,.12,3.45Zm26.85,8.33a11.81,11.81,0,0,1-14.27-1.12c-1.38-1.34-2.78-3-3.15-7a14.712,14.712,0,0,1,.22-3.48,4.06,4.06,0,0,1,1.78-2.21c1.49-1,4.11-1.26,8.76-1.31,3.07,0,7.31,0,9.05,2.36,2.21,2.92.68,10.86-2.36,12.76Z" fill="#002344"/>
                    <path id="Trazado_105636" data-name="Trazado 105636" d="M289,282.3c-1.45-1-4.06-1.4-8.7-1.62-3.07-.14-7.3-.26-9.13,2-2.29,2.87-1.05,10.86,1.91,12.86a11.8,11.8,0,0,0,14.31-.59c1.42-1.29,2.88-2.86,3.4-6.92a14.359,14.359,0,0,0-.09-3.48,4.08,4.08,0,0,0-1.7-2.25Z" opacity="0.5" fill="url(#linear-gradient-5)"/>
                    <path id="Trazado_105637" data-name="Trazado 105637" d="M302.18,282.55c1.49-1,4.11-1.26,8.76-1.31,3.07,0,7.31,0,9.05,2.36,2.18,2.95.65,10.89-2.39,12.79a11.81,11.81,0,0,1-14.27-1.12c-1.38-1.34-2.78-3-3.15-7a14.712,14.712,0,0,1,.22-3.48,4.06,4.06,0,0,1,1.78-2.24Z" opacity="0.5" fill="url(#linear-gradient-6)"/>
                    <g id="Grupo_54821" data-name="Grupo 54821" opacity="0.6">
                      <path id="Trazado_105638" data-name="Trazado 105638" d="M274.76,280.86l-4.47,9.58a10.26,10.26,0,0,0,2,4.41l6.63-14.22A21,21,0,0,0,274.76,280.86Z" fill="#fff"/>
                      <path id="Trazado_105639" data-name="Trazado 105639" d="M280.26,280.68h-.51l-6.88,14.78a1.09,1.09,0,0,0,.17.13,13.42,13.42,0,0,0,1.62.93L282,280.78Z" fill="#fff"/>
                    </g>
                    <g id="Grupo_54822" data-name="Grupo 54822" opacity="0.6">
                      <path id="Trazado_105640" data-name="Trazado 105640" d="M304.74,281.65l-4.17,9a8.75,8.75,0,0,0,2.13,4l6.22-13.35a30.073,30.073,0,0,0-4.18.35Z" fill="#fff"/>
                      <path id="Trazado_105641" data-name="Trazado 105641" d="M310.94,281.24h-1.12l-6.52,14h0a9,9,0,0,0,1.66,1.28l7.13-15.31Z" fill="#fff"/>
                    </g>
                  </g>
                </g>
              </g>
              <g id="Grupo_54838" data-name="Grupo 54838">
                <g id="Grupo_54832" data-name="Grupo 54832">
                  <g id="Grupo_54826" data-name="Grupo 54826">
                    <path id="Trazado_105642" data-name="Trazado 105642" d="M182.89,339s24.41,7.82,32.4,39.58,6,107.26,6,107.26l-43.07-2.36Z" fill="#c83737"/>
                    <path id="Trazado_105643" data-name="Trazado 105643" d="M166.72,339s24.41,7.82,32.4,39.58,6,107.26,6,107.26l-43.08-2.36Z" fill="#7a3541" opacity="0.31"/>
                    <path id="Trazado_105644" data-name="Trazado 105644" d="M63.53,339s-24.41,7.82-32.4,39.58-6,107.26-6,107.26l43.07-2.36Z" fill="#7a3541"/>
                    <path id="Trazado_105645" data-name="Trazado 105645" d="M79.71,339s-24.42,7.82-32.4,39.58-6,107.26-6,107.26l43.08-2.36Z" fill="#7a3541" opacity="0.31"/>
                    <path id="Trazado_105646" data-name="Trazado 105646" d="M54.68,481.27H188.29c-.89-59-3.3-100.39-3.79-141.63a279.807,279.807,0,0,0-67.45-11c-23.47-.92-43.87,5.67-59.63,12.21C56.31,348.89,54.68,481.27,54.68,481.27Z" fill="#43020e"/>
                  </g>
                  <g id="Grupo_54831" data-name="Grupo 54831">
                    <g id="Grupo_54829" data-name="Grupo 54829">
                      <g id="Grupo_54827" data-name="Grupo 54827">
                        <path id="Trazado_105647" data-name="Trazado 105647" d="M93,272.82c-.1,4.82-2.32,8.68-5,8.63s-4.7-4-4.6-8.83,2.31-8.68,5-8.63S93.06,268,93,272.82Z" fill="#ff966d"/>
                        <path id="Trazado_105648" data-name="Trazado 105648" d="M91.82,273c-.06,2.7-1.31,4.87-2.79,4.84s-2.64-2.25-2.58-4.95,1.3-4.88,2.78-4.85S91.87,270.25,91.82,273Z" fill="#bc6649"/>
                      </g>
                      <g id="Grupo_54828" data-name="Grupo 54828">
                        <path id="Trazado_105649" data-name="Trazado 105649" d="M161.19,274.21c-.1,4.82-2.32,8.68-5,8.63s-4.7-4-4.61-8.83,2.32-8.68,5-8.63S161.29,269.39,161.19,274.21Z" fill="#ff966d"/>
                        <path id="Trazado_105650" data-name="Trazado 105650" d="M158.13,274.31c0,2.7-1.3,4.87-2.78,4.84s-2.64-2.25-2.59-4.95,1.3-4.88,2.79-4.85S158.19,271.6,158.13,274.31Z" fill="#bc6649"/>
                      </g>
                    </g>
                    <path id="Trazado_105651" data-name="Trazado 105651" d="M118.42,354a26.58,26.58,0,0,0,27.91-22.7A234.994,234.994,0,0,0,114,327.94c-7.31-.33-13.53,1.44-20,1.72C93.91,343.32,104.18,353.11,118.42,354Z" fill="#ff966d"/>
                    <rect id="Rectángulo_5718" data-name="Rectángulo 5718" width="45.92" height="47.83" transform="translate(99.618 289.585) rotate(3.44)" fill="#ff966d"/>
                    <path id="Trazado_105652" data-name="Trazado 105652" d="M154.38,276.65c-1.38,23.06-15,50.46-34.9,49.27s-31.42-30.11-30-53.17,15.75-41,35.61-39.78S155.77,253.58,154.38,276.65Z" fill="#ef815e"/>
                    <path id="Trazado_105653" data-name="Trazado 105653" d="M150.59,273.13c-6.68-2.37-8.28-15.94-8-22.78-5.31,3.88-9.94,5.22-16.6,5.25-8.58,0-15.77-2.3-23.69-5.77,3.88,12.63-4.55,21.69-7.26,21.73-1,16.75,4.6,41.31,17.6,48a17.67,17.67,0,0,0,7.09,2c7.59.46,14.95-4.3,20.71-13.4C145.69,299.91,150,283.68,150.59,273.13Z" fill="#ff966d"/>
                    <path id="Trazado_105654" data-name="Trazado 105654" d="M92.89,300.52c3.2,18.7,10.9,42.35,26.37,43.28s26-18.84,28.38-40Z" fill="#d2dfe7"/>
                    <path id="Trazado_105655" data-name="Trazado 105655" d="M89,280.16l6.29.66.54-10.4c4.83-8.57,3.9-25.57,3.9-25.57s27.29,8.69,45.69.21c0,0,.63,20,3.59,26.1l.15.32-.38,12.44,5,.18L155,264.23s4.16-24.74-15-35.15c-5.77-3.14-13.66-1.85-20.1-1.92-8.11-.09-14.33,2.7-20.17,5.92-4.57,2.51-7.37,5-8.72,10.55-1.3,5.42-.7,12.7-1.27,23.42Z" fill="#7a3541"/>
                    <path id="Trazado_105656" data-name="Trazado 105656" d="M95.86,289.6c.32,3.21,2.28,6.44,5.31,7.55,2.62,1,5.48-.31,8.11-1.27,4.07-1.48,8-2.59,13-.58,2.54-1.68,7.85-.83,11.65.53,2.52.91,6.6,3.35,9,2.23a8.78,8.78,0,0,0,4.59-6.56c.44-2.7.91-5.09,1.37-8.78,1.94.23,2.95.07,4.89.3-.51,17.92-4,43.65-24.73,48.93-15.65,4-32.13-7.64-36.49-22.58C90.1,301,88.14,288.43,89,279.79c.24-2.37,3.45-2.42,6.17-.42C95.48,282,95.62,287.16,95.86,289.6Z" fill="#7a3541"/>
                    <path id="Trazado_105657" data-name="Trazado 105657" d="M104.26,300.65a11.23,11.23,0,0,0,5.81,2.05c3.72.47,8.35.43,11-2.61a.49.49,0,0,1,.58-.08c4.79,2.86,14.66,5.11,18.64.15a21.48,21.48,0,0,1-5.23-1.76c-.68-.3-1.32-.58-1.84-.77-4.08-1.47-8.36-1.78-9.95-.73l-.84.55-.93-.37c-4.36-1.76-7.68-.82-11.58.6l-.78.29a16.54,16.54,0,0,1-6.33,1.43C103.29,299.83,103.76,300.26,104.26,300.65Z" fill="#590212"/>
                    <g id="Grupo_54830" data-name="Grupo 54830">
                      <path id="Trazado_105658" data-name="Trazado 105658" d="M122,289.21a16,16,0,0,1-4.47-1,.59.59,0,0,0-.66.93,8.52,8.52,0,0,0,3.4,2.54,6.85,6.85,0,0,0,1.56.37h0a6.88,6.88,0,0,0,1.6-.18,8.51,8.51,0,0,0,3.68-2.12.59.59,0,0,0-.55-1,15.839,15.839,0,0,1-4.56.46Z" fill="#bc6649"/>
                      <path id="Trazado_105659" data-name="Trazado 105659" d="M121.89,302.83a54.278,54.278,0,0,1-10.07,2.95,13.09,13.09,0,0,0,20.21.56,1.71,1.71,0,0,1,.11-.14C130.65,306.23,124.26,304.26,121.89,302.83Z" fill="#ff966d"/>
                      <path id="Trazado_105660" data-name="Trazado 105660" d="M111,274.86c-.09,1.62-1.06,2.89-2.16,2.82s-1.91-1.44-1.81-3.06,1.06-2.89,2.16-2.83S111.14,273.23,111,274.86Z" fill="#7a3541"/>
                      <path id="Trazado_105661" data-name="Trazado 105661" d="M138.74,276.52c-.1,1.63-1.07,2.89-2.17,2.83s-1.91-1.44-1.81-3.07,1.07-2.89,2.17-2.82S138.84,274.9,138.74,276.52Z" fill="#7a3541"/>
                      <path id="Trazado_105662" data-name="Trazado 105662" d="M101.24,269.54a6.85,6.85,0,0,1,2.49-3.24,8.73,8.73,0,0,1,8-1.15,7,7,0,0,1,3.32,2.36.52.52,0,0,1-.12.72.49.49,0,0,1-.42.09h0a22.371,22.371,0,0,0-3.36-.58,15.378,15.378,0,0,0-3.12.09,13.8,13.8,0,0,0-3,.79,19.5,19.5,0,0,0-3,1.52h0a.53.53,0,0,1-.71-.18.55.55,0,0,1-.08-.42Z" fill="#7a3541"/>
                      <path id="Trazado_105663" data-name="Trazado 105663" d="M144.31,272.13a6.76,6.76,0,0,0-2.08-3.51,8.47,8.47,0,0,0-3.67-2,8.62,8.62,0,0,0-4.19-.08,7,7,0,0,0-3.57,1.94.53.53,0,0,0,0,.74.51.51,0,0,0,.41.13h0a22.417,22.417,0,0,1,3.4-.16,13.7,13.7,0,0,1,6,1.6,19.15,19.15,0,0,1,2.83,1.87h0a.52.52,0,0,0,.82-.51Z" fill="#7a3541"/>
                    </g>
                    <path id="Trazado_105664" data-name="Trazado 105664" d="M152.89,226.09c-1.67,1.37-4,4.83-6.44,4.62.24-5.77-3.2-10-6.57-14.3-5.22,5.79-10,7.76-19.95,8.68-4.12.38-10.78-.66-14.54,1.45-2,1.11-6,5-5.74,7.7l-.87,3.17c-2,2.32-1,2.43-.26,5.26,1.46,5.23,26.33,8.14,32.54,7.36,5.65-.7,14.65-2.78,17.76-8.37C151.14,237.5,154.1,230.94,152.89,226.09Z" fill="#7a3541"/>
                    <path id="Trazado_105665" data-name="Trazado 105665" d="M117.44,229.09c-3.43,1.13-6.65,4.47-4.64,8.19,2.69,5,9.61,7,14.74,7.07,17.92.3,22.71-9.48,23-12.78-2.93,3.16-7.68,3.67-7.68,3.67s-.69-10.62-3.38-14.13c-1.28,2.48-7.27,5.26-8.11,5.56a45.14,45.14,0,0,1-12,2,7.769,7.769,0,0,0-1.93.42Z" fill="#590212"/>
                  </g>
                </g>
                <g id="Grupo_54837" data-name="Grupo 54837">
                  <path id="Trazado_105666" data-name="Trazado 105666" d="M175.54,483.41H63l6.6-96.92a251.5,251.5,0,0,1,99.23,0C171.43,419.75,175.54,451.1,175.54,483.41Z" fill="url(#linear-gradient-7)"/>
                  <g id="Grupo_54833" data-name="Grupo 54833">
                    <path id="Trazado_105667" data-name="Trazado 105667" d="M90.14,396.5H76.31l.31-63.88,13.83-1.75Z" fill="#ff7c00"/>
                    <path id="Trazado_105668" data-name="Trazado 105668" d="M86.09,388.75a3,3,0,1,1-3-3,3,3,0,0,1,3,3Z" fill="#ff5700"/>
                  </g>
                  <g id="Grupo_54834" data-name="Grupo 54834">
                    <path id="Trazado_105669" data-name="Trazado 105669" d="M147.87,396.5h13.84l.73-62.8-13.63-2.52Z" fill="#ff7c00"/>
                    <path id="Trazado_105670" data-name="Trazado 105670" d="M151.93,388.75a3,3,0,1,0,3-3,3,3,0,0,0-3,3Z" fill="#ff5700"/>
                  </g>
                  <path id="Trazado_105671" data-name="Trazado 105671" d="M110,386.29a3.87,3.87,0,1,1-7.711.66l-.619-4.11a7.67,7.67,0,0,0,1.26,13.35l1.23,13.26h0l.77,9.08a6.769,6.769,0,0,0-1.35,1.32A7.94,7.94,0,0,0,106.1,432l-.35-4.13a3.87,3.87,0,0,1,7.71-.65l.35,4.13a7.93,7.93,0,0,0,.61-12.53c-.6-.51-1.18-.74-1.62-1.12h-.25l-.59-7.93H112l-1.22-14.12c.37-.45.9-.77,1.41-1.37a8,8,0,0,0-2.56-12.13Z" fill="#9bc5e6"/>
                  <g id="Grupo_54835" data-name="Grupo 54835">
                    <path id="Trazado_105672" data-name="Trazado 105672" d="M134.95,376.46l-4.48,43.83,1.99.21,4.47-43.83,1.79-1.73-.71-6.69-1.21-.12-1.21-.13-2.04,6.41Z" fill="#9bc5e6"/>
                    <path id="Trazado_105673" data-name="Trazado 105673" d="M136.94,405c.06-.66.05-.58.08-.84.1-1,1.89-1.27,2-2.48s0-1.66-1.48-1.81l-3.84-.39-3.84-.39c-1.47-.15-1.69.26-1.81,1.47s1.57,1.82,1.46,2.83a4.884,4.884,0,0,1-.08.84c-.1.9-1.88,1.21-2,2.2-.13,1.25-1.91,18.65-2.22,21.67s1.33,3.9,5.11,4.28,5.55-.13,5.86-3.15,2.09-20.43,2.22-21.68C138.53,406.55,136.84,405.89,136.94,405Z" fill="#43020e"/>
                  </g>
                  <g id="Grupo_54836" data-name="Grupo 54836">
                    <path id="Trazado_105674" data-name="Trazado 105674" d="M148.44,458.48H90.56L93.21,414c8.15-.75,17.12-1.21,26.78-1.2,9.29,0,17.92.48,25.8,1.2Q147.11,436.22,148.44,458.48Z" fill="#ff7c00"/>
                    <path id="Trazado_105675" data-name="Trazado 105675" d="M93.53,455.69l2.33-39.16c7.84-.64,15.78-1,23.64-1h.5c7.69,0,15.47.34,23.15,1l2.32,39.16Z" fill="none" stroke="#ff5700" stroke-miterlimit="10" stroke-width="1"/>
                  </g>
                </g>
              </g>
              <g id="Grupo_54847" data-name="Grupo 54847">
                <g id="Grupo_54843" data-name="Grupo 54843">
                  <path id="Trazado_105676" data-name="Trazado 105676" d="M490.84,331.84s21.95-.32,31.3,35.27c8.26,31.4,11,106.5,11,106.5h-40Z" fill="#dde1c8"/>
                  <path id="Trazado_105677" data-name="Trazado 105677" d="M478.4,335s22-.32,31.3,35.27c8.26,31.4,11,106.49,11,106.49h-40Z" fill="#dde1c8" opacity="0.25"/>
                  <path id="Trazado_105678" data-name="Trazado 105678" d="M379.52,331.84s-21.95-.32-31.3,35.27c-8.26,31.4-11,106.5-11,106.5h40Z" fill="#dde1c8"/>
                  <path id="Trazado_105679" data-name="Trazado 105679" d="M394.45,333.71s-21.95-.32-31.3,35.26c-8.26,31.41-11,106.5-11,106.5h40Z" fill="#dde1c8" opacity="0.25"/>
                  <path id="Trazado_105680" data-name="Trazado 105680" d="M506.62,474.34H362.7l9.5-141.54c15.67-3.66,34.68-8.76,58.1-9.12,27.34-.42,50.56,5.4,67.86,9.43C501.44,382.32,506.62,426.55,506.62,474.34Z" fill="#bbbeab"/>
                  <path id="Trazado_105681" data-name="Trazado 105681" d="M437.59,349.33c14,0,25.53-10.54,26.51-23.88a233.2,233.2,0,0,0-32.43-1.78c-7.29.11-14.18.56-20.63,1.22C411.75,338.5,423.36,349.33,437.59,349.33Z" fill="#ffa7af"/>
                  <rect id="Rectángulo_5719" data-name="Rectángulo 5719" width="45.8" height="47.71" transform="translate(415.02 286.35)" fill="#ffa7af"/>
                  <path id="Trazado_105682" data-name="Trazado 105682" d="M468.77,270.19c0,23.05-12,51.15-31.81,51.15s-33.08-28.1-33.08-51.15,13.23-41.73,33.08-41.73S468.77,247.14,468.77,270.19Z" fill="#ffb0bd"/>
                  <path id="Trazado_105683" data-name="Trazado 105683" d="M435.57,253.79a130.759,130.759,0,0,1-16.3-1.48c-2.7-.43-6.7-.94-9.43-2.64a51,51,0,0,0-4,20.52c0,23.24,13.33,49.24,31.17,49.24,8.3,0,16-5.66,21.68-15.95,5.15-9.32,8.22-21.76,8.22-33.29a52,52,0,0,0-4.92-23.1C454.47,252.47,445.07,254.08,435.57,253.79Z" fill="#ffc5d1"/>
                  <path id="Trazado_105684" data-name="Trazado 105684" d="M409,297.64c4.31,18.42,12.53,35.46,28,35.46s22.76-17,26.72-35.46Z" fill="#d2dfe7"/>
                  <path id="Trazado_105685" data-name="Trazado 105685" d="M474.73,273.55c0,5.79-1.94,10.49-4.33,10.49s-4.33-4.7-4.33-10.49,1.94-10.5,4.33-10.5S474.73,267.75,474.73,273.55Z" fill="#ffc5ca"/>
                  <path id="Trazado_105686" data-name="Trazado 105686" d="M469.45,278.36c-.74-.13-2.43-2.14-2.43-5.55s1.71-5.44,2.44-5.55c.7.11,2.41,2.12,2.41,5.55S470.18,278.23,469.45,278.36Z" fill="#ff8b97"/>
                  <ellipse id="Elipse_4126" data-name="Elipse 4126" cx="4.65" cy="10.5" rx="4.65" ry="10.5" transform="translate(397.92 263.05)" fill="#ffc5ca"/>
                  <path id="Trazado_105687" data-name="Trazado 105687" d="M402.77,278.12c-.65,0-2.54-1.83-2.54-5.31s1.89-5.31,2.54-5.31,2.55,1.83,2.55,5.31S403.42,278.12,402.77,278.12Z" fill="#ff8b97"/>
                  <path id="Trazado_105688" data-name="Trazado 105688" d="M403.91,277.6l6.3.28-.09-10.38c2-6.38,4-12.9,2.11-19.32l-.74-2.56a77.77,77.77,0,0,0,47.39.14,33.7,33.7,0,0,0,4.23,19.29l.17.31.36,12.4,5-.12L470,256.13s1.27-23.22-18.45-32.44c0,0-33.71-13.36-45.48,13.68-1.19,2.73-2.15,4.9-2.92,6.62-1.33,5.93-2.31,16,.06,19.78Z" fill="#002344"/>
                  <path id="Trazado_105689" data-name="Trazado 105689" d="M411.28,286.59c.5,3.17,2.65,6.27,5.73,7.2,2.68.8,5.44-.64,8-1.75a14.58,14.58,0,0,1,13.35.68c2-2.86,7.29-3.33,11.14-2.2,2.57.75,6.77,2.94,9.13,1.67a8.76,8.76,0,0,0,4.18-6.8c.27-2.71.59-5.12.83-8.82,1.95.11,2.94-.11,4.89,0,.47,14.94-5.25,30.28-16.22,40.43-3.3,3.06-8,4.65-13.48,5-4.48.29-20.82-.28-28.27-16.74-3.56-7.88-6.69-19.18-6.36-27.83.09-2.37,2.94-2.82,5.77-1C410.44,279.07,410.9,284.18,411.28,286.59Z" fill="#002344"/>
                  <g id="Grupo_54839" data-name="Grupo 54839">
                    <path id="Trazado_105690" data-name="Trazado 105690" d="M437.28,284.64a15.832,15.832,0,0,1-4.51-.73.59.59,0,0,0-.6,1,8.47,8.47,0,0,0,3.53,2.33,7.249,7.249,0,0,0,1.58.28h0a7.248,7.248,0,0,0,1.58-.28,8.41,8.41,0,0,0,3.53-2.33.59.59,0,0,0-.6-1,15.833,15.833,0,0,1-4.51.73Z" fill="#ff8b97"/>
                    <path id="Trazado_105691" data-name="Trazado 105691" d="M438.19,298.58c-2.42,2.36-5.78,3.1-9.25,3.16a13,13,0,0,0,19.05-.15A12.36,12.36,0,0,1,438.19,298.58Z" fill="#ffc5d1"/>
                    <path id="Trazado_105692" data-name="Trazado 105692" d="M425.51,271c0,1.63-.89,2.94-2,2.94s-2-1.31-2-2.94.89-2.94,2-2.94S425.51,269.38,425.51,271Z" fill="#002344"/>
                    <path id="Trazado_105693" data-name="Trazado 105693" d="M453.18,271c0,1.63-.89,2.94-2,2.94s-2-1.31-2-2.94.89-2.94,2-2.94S453.18,269.38,453.18,271Z" fill="#002344"/>
                    <path id="Trazado_105694" data-name="Trazado 105694" d="M415.44,266.29a6.75,6.75,0,0,1,2.28-3.37,8.46,8.46,0,0,1,3.78-1.8,8.65,8.65,0,0,1,4.17.18,6.93,6.93,0,0,1,3.44,2.15.51.51,0,0,1-.49.83h0a23.7,23.7,0,0,0-3.38-.37,14.31,14.31,0,0,0-3.1.28,14.112,14.112,0,0,0-2.95,1,19.918,19.918,0,0,0-2.93,1.69h0a.51.51,0,0,1-.79-.56Z" fill="#002344"/>
                    <path id="Trazado_105695" data-name="Trazado 105695" d="M458.47,266.29a6.77,6.77,0,0,0-2.29-3.37,8.42,8.42,0,0,0-3.77-1.8,8.64,8.64,0,0,0-4.17.18,6.84,6.84,0,0,0-3.44,2.15.51.51,0,0,0,.07.72.48.48,0,0,0,.41.11h0a23.385,23.385,0,0,1,3.38-.37,13.87,13.87,0,0,1,6.05,1.24,19.838,19.838,0,0,1,2.92,1.69h0a.52.52,0,0,0,.72-.13.55.55,0,0,0,.12-.42Z" fill="#002344"/>
                  </g>
                  <g id="Grupo_54840" data-name="Grupo 54840">
                    <path id="Trazado_105696" data-name="Trazado 105696" d="M417.44,281.66c0,.3-.53.55-1.19.55s-1.19-.25-1.19-.55.53-.56,1.19-.56S417.44,281.35,417.44,281.66Z" fill="#ff90a8"/>
                    <path id="Trazado_105697" data-name="Trazado 105697" d="M422.53,280.31c0,.3-.53.55-1.19.55s-1.19-.25-1.19-.55.53-.56,1.19-.56S422.53,280,422.53,280.31Z" fill="#ff90a8"/>
                    <ellipse id="Elipse_4127" data-name="Elipse 4127" cx="1.19" cy="0.56" rx="1.19" ry="0.56" transform="translate(419.51 284.2)" fill="#ff90a8"/>
                  </g>
                  <g id="Grupo_54841" data-name="Grupo 54841">
                    <path id="Trazado_105698" data-name="Trazado 105698" d="M453.82,281.66c0,.3-.53.55-1.19.55s-1.2-.25-1.2-.55.54-.56,1.2-.56S453.82,281.35,453.82,281.66Z" fill="#ff90a8"/>
                    <path id="Trazado_105699" data-name="Trazado 105699" d="M458.91,280.31c0,.3-.53.55-1.19.55s-1.2-.25-1.2-.55.54-.56,1.2-.56S458.91,280,458.91,280.31Z" fill="#ff90a8"/>
                    <ellipse id="Elipse_4128" data-name="Elipse 4128" cx="1.19" cy="0.56" rx="1.19" ry="0.56" transform="translate(455.89 284.2)" fill="#ff90a8"/>
                  </g>
                  <g id="Grupo_54842" data-name="Grupo 54842">
                    <path id="Trazado_105700" data-name="Trazado 105700" d="M473.49,224.43l.7,12.53h-76l.69-12.53c1-17.76,15.47-31.6,32.24-31.6h10.14C458,192.83,472.51,206.67,473.49,224.43Z" fill="#ffd047"/>
                    <path id="Trazado_105701" data-name="Trazado 105701" d="M473.49,224.43l.7,12.53h-76l.69-12.53c1-17.76,15.47-31.6,32.24-31.6h10.14C458,192.83,472.51,206.67,473.49,224.43Z" fill="#ffd047"/>
                    <path id="Trazado_105702" data-name="Trazado 105702" d="M449.77,237.4H422.61l5.92-44.14a4.24,4.24,0,0,1,2.69-3.41,14.431,14.431,0,0,1,4.21-.88,14.091,14.091,0,0,1,5.71.89,4.2,4.2,0,0,1,2.7,3.41Q446.81,215.33,449.77,237.4Z" fill="#ffd047"/>
                    <path id="Trazado_105703" data-name="Trazado 105703" d="M480.71,242.63h-89l.26-4.13a3.63,3.63,0,0,1,3.62-3.28h81.27a3.63,3.63,0,0,1,3.62,3.28Z" fill="#ffd047"/>
                  </g>
                </g>
                <g id="Grupo_54844" data-name="Grupo 54844">
                  <path id="Trazado_105704" data-name="Trazado 105704" d="M464.26,474.34h42.36c0-47.79-5.18-92-8.46-141.23-9.58-2.23-21-5-33.9-7Z" fill="url(#linear-gradient-8)"/>
                  <path id="Trazado_105705" data-name="Trazado 105705" d="M501.86,381.6c-.27-3.41-.55-6.83-.82-10.26H464.26V381.6Z" fill="#fff"/>
                  <path id="Trazado_105706" data-name="Trazado 105706" d="M464.26,411H504.1q-.36-5.13-.75-10.27H464.26Z" fill="#fff"/>
                </g>
                <g id="Grupo_54846" data-name="Grupo 54846">
                  <path id="Trazado_105707" data-name="Trazado 105707" d="M404.24,326c-12,1.9-22.64,4.6-32,6.8l-9.5,141.54h41.54Z" fill="url(#linear-gradient-9)"/>
                  <g id="Grupo_54845" data-name="Grupo 54845">
                    <path id="Trazado_105708" data-name="Trazado 105708" d="M404.24,371.33H369.62l-.69,10.27h35.31Z" fill="#fff"/>
                    <path id="Trazado_105709" data-name="Trazado 105709" d="M367.64,400.73l-.68,10.26h37.28V400.73Z" fill="#fff"/>
                  </g>
                </g>
              </g>
              <g id="Grupo_54848" data-name="Grupo 54848">
                <path id="Trazado_105710" data-name="Trazado 105710" d="M168.63,88.76l2.14,3.92,3.92,2.14-3.92,2.15-2.14,3.92-2.15-3.92-3.92-2.15,3.92-2.14Z" fill="#fff"/>
                <path id="Trazado_105711" data-name="Trazado 105711" d="M296.51,213.47l2.15,3.92,3.92,2.14-3.92,2.15-2.15,3.92-2.14-3.92-3.92-2.15,3.92-2.14Z" fill="#fff"/>
                <path id="Trazado_105712" data-name="Trazado 105712" d="M396.28,121.41l2.14,3.92,3.92,2.15-3.92,2.14-2.14,3.92-2.15-3.92-3.92-2.14,3.92-2.15Z" fill="#fff"/>
                <path id="Trazado_105713" data-name="Trazado 105713" d="M503.02,25.62l2.14,3.93,3.92,2.14-3.92,2.14-2.14,3.92-2.15-3.92-3.92-2.14,3.92-2.14Z" fill="#fff"/>
                <path id="Trazado_105714" data-name="Trazado 105714" d="M79.87,38.88l2.14,3.92,3.92,2.14-3.92,2.14L79.87,51l-2.15-3.92-3.91-2.14,3.91-2.14Z" fill="#fff"/>
              </g>
            </g>
          </g>
        </g>
        <path id="Trazado_105715" data-name="Trazado 105715" d="M403.91,277.6l6.3.28-.09-10.38c2-6.38,4-12.9,2.11-19.32l-.74-2.56a77.77,77.77,0,0,0,47.39.14,33.7,33.7,0,0,0,4.23,19.29l.17.31.36,12.4,5-.12L470,256.13s1.27-23.22-18.45-32.44c0,0-33.71-13.36-45.48,13.68-1.19,2.73-2.15,4.9-2.92,6.62-1.33,5.93-2.31,16,.06,19.78Z" fill="#002344"/>
        <g id="Grupo_54852" data-name="Grupo 54852">
          <path id="Trazado_105716" data-name="Trazado 105716" d="M473.49,224.43l.7,12.53h-76l.69-12.53c1-17.76,15.47-31.6,32.24-31.6h10.14C458,192.83,472.51,206.67,473.49,224.43Z" fill="#ffd047"/>
          <path id="Trazado_105717" data-name="Trazado 105717" d="M473.49,224.43l.7,12.53h-76l.69-12.53c1-17.76,15.47-31.6,32.24-31.6h10.14C458,192.83,472.51,206.67,473.49,224.43Z" fill="#ffd047"/>
          <path id="Trazado_105718" data-name="Trazado 105718" d="M449.77,237.4H422.61l5.92-44.14a4.24,4.24,0,0,1,2.69-3.41,14.431,14.431,0,0,1,4.21-.88,14.091,14.091,0,0,1,5.71.89,4.2,4.2,0,0,1,2.7,3.41Q446.81,215.33,449.77,237.4Z" fill="#ffd047"/>
          <path id="Trazado_105719" data-name="Trazado 105719" d="M480.71,242.63h-89l.26-4.13a3.63,3.63,0,0,1,3.62-3.28h81.27a3.63,3.63,0,0,1,3.62,3.28Z" fill="#ffd047"/>
        </g>
      </g>
    </g>
  </g>
</svg>
