<svg xmlns="http://www.w3.org/2000/svg" width="499.592" height="385.076" viewBox="0 0 499.592 385.076">
  <g id="Grupo_55741" data-name="Grupo 55741" transform="translate(-899.835 -6159.925)">
    <g id="Grupo_55740" data-name="Grupo 55740">
      <g id="Grupo_55613" data-name="Grupo 55613" transform="translate(-689.74 11063.98)">
        <path id="Trazado_102679" data-name="Trazado 102679" d="M2464.747-4768.538a203.293,203.293,0,0,1,11.108,114.864,201.343,201.343,0,0,1-19.431,55.418,202.265,202.265,0,0,1-36.137,49,202.946,202.946,0,0,1-38.617,30.281h118.875a281.147,281.147,0,0,0,38.669-67.011,283.614,283.614,0,0,0,15.533-160.336,281.719,281.719,0,0,0-27.19-77.527,282.708,282.708,0,0,0-50.448-68.434,40.178,40.178,0,0,0-56.821,0,40.178,40.178,0,0,0,0,56.821A201.56,201.56,0,0,1,2464.747-4768.538Z" transform="translate(-470.753)" fill="#fff"/>
        <path id="Trazado_102680" data-name="Trazado 102680" d="M1701.953-4008.25a202.863,202.863,0,0,1-38.624-30.281,40.179,40.179,0,0,0-56.821,0,40.075,40.075,0,0,0-11.724,30.281Z" transform="translate(0 -510.73)" fill="#fff"/>
      </g>
    </g>
    <g id="Layer_1" data-name="Layer 1" transform="translate(899.835 6171.916)">
      <g id="teamwork">
        <path id="floor" d="M416.12,493.661H16.69a2.3,2.3,0,0,1-2.29-2.281h0a2.3,2.3,0,0,1,2.29-2.29H416.12a2.29,2.29,0,0,1,2.281,2.29h0a2.29,2.29,0,0,1-2.281,2.281Z" transform="translate(-3.236 -120.576)" fill="#8f93ae"/>
        <g id="trees" transform="translate(0 259.653)">
          <g id="tree">
            <g id="Grupo_55536" data-name="Grupo 55536">
              <path id="Trazado_107021" data-name="Trazado 107021" d="M97.669,394.835a2.843,2.843,0,0,1,0,2.659c-.746,1.418-2.365,2.516-3.758,3.632-4.487,3.682-6.869,8.589-6.593,13.529.143,2.625,1.007,5.251.914,7.868-.151,4.336-3.078,8.488-7.851,11.13a28.87,28.87,0,0,1-16.054,3.028c-1.3-3.162-2.8-7.071.1-9.637.948-.839,2.29-1.434,3.3-2.248,4.68-3.741.7-9.847,2.223-14.762,1.141-3.649,5.251-6.349,9.176-8.832l9.83-6.2c1.929-1.225,4.622-2.516,7.02-1.6a3.112,3.112,0,0,1,1.686,1.434Z" transform="translate(-11.035 -364.749)" fill="#a6b78a"/>
              <path id="Trazado_107022" data-name="Trazado 107022" d="M85.059,413.52c-1.468,7.549-1.627,15.735-8.128,20.809a16.616,16.616,0,0,1-7.171,3.2A27.494,27.494,0,0,0,81.5,434.413c4.772-2.642,7.7-6.794,7.851-11.13.092-2.617-.772-5.242-.914-7.868-.277-4.94,2.105-9.847,6.593-13.529,1.392-1.141,3.011-2.214,3.758-3.632a2.972,2.972,0,0,0,.193-.445C92,400.117,86.552,404.814,85.059,413.52Z" transform="translate(-12.163 -365.51)" fill="#8da164"/>
              <path id="Trazado_107023" data-name="Trazado 107023" d="M8.974,399.591q4.622-5.511,9.654-10.744a11.39,11.39,0,0,1,3.129-2.583c3.028-1.476,6.71-.067,9.3,2.088s4.554,5.033,7.2,7.1c2.374,1.879,5.309,3.154,7.046,5.636,1.87,2.659,1.963,6.148,2.03,9.411q.252,12.959,1.376,25.875A37.835,37.835,0,0,1,44.8,423.252c-.327-3.112-.3-6.349-1.619-9.226-1.636-3.54-5.033-5.813-8.346-7.9S28.014,402,24.357,402.87c-2.4.57-4.311,2.332-6.375,3.69A21.38,21.38,0,0,1,1.09,409.429Q4.915,404.4,8.974,399.591Z" transform="translate(-1.09 -363.55)" fill="#a6b78a"/>
              <path id="Trazado_107024" data-name="Trazado 107024" d="M46.534,432.306c-1.3-6.224.168-11.961-.973-18.184-.839-3.607-4.622-5.871-7.8-9.1s-8.555-8.5-17.387-5.8c-4.445,1.35-12.212,8.849-19.04,11.961-.075.109-.159.21-.243.31a21.38,21.38,0,0,0,16.859-2.818c2.063-1.359,3.976-3.12,6.375-3.69,3.657-.839,7.3,1.233,10.476,3.254s6.71,4.362,8.346,7.9c1.317,2.835,1.292,6.073,1.619,9.226a37.961,37.961,0,0,0,2.122,9.033,7.037,7.037,0,0,0-.352-2.089Z" transform="translate(-1.09 -365.617)" fill="#8da164"/>
              <path id="Trazado_107025" data-name="Trazado 107025" d="M70.875,359.392a.31.31,0,0,1,.042-.092c-5.351,2.843-7.842,9.142-9.344,15.056a98.975,98.975,0,0,0-2.39,13.093,38.129,38.129,0,0,0,.185,12.12c.713,3.355,2.164,6.609,2.038,10.065-.159,4.437-2.952,8.387-3.355,12.833a12.388,12.388,0,0,0,3.355,9.637l4.638-2.6a3.3,3.3,0,0,0,1.677-1.6c.3-.914-.243-1.87-.637-2.751-1.543-3.355-1.09-7.322-.176-10.9,1.417-5.561,3.85-10.795,5.678-16.23s3.028-11.29,1.946-16.926c-.73-3.707-2.441-7.129-3.573-10.736S69.315,362.781,70.875,359.392Z" transform="translate(-10.267 -359.3)" fill="#a6b78a"/>
            </g>
            <rect id="Rectángulo_5910" data-name="Rectángulo 5910" width="27.746" height="37.593" transform="translate(40.084 70.9)" fill="#8f93ae"/>
          </g>
          <rect id="Rectángulo_5911" data-name="Rectángulo 5911" width="34.355" height="3.565" transform="translate(36.687 105.691)" fill="#a5a9be"/>
        </g>
        <g id="lamps" transform="translate(143.468)">
          <g id="lamp">
            <g id="Grupo_55538" data-name="Grupo 55538">
              <g id="Grupo_55537" data-name="Grupo 55537" transform="translate(0 21.908)">
                <path id="Trazado_107026" data-name="Trazado 107026" d="M215.416,102.918H185.85l9.486-26.8h8.153Z" transform="translate(-174.351 -76.12)" fill="#bcbece"/>
                <path id="Trazado_107027" data-name="Trazado 107027" d="M201.7,102.918H172.14l14.779-26.8H197.5Z" transform="translate(-172.14 -76.12)" fill="#8f93ae"/>
              </g>
              <rect id="Rectángulo_5912" data-name="Rectángulo 5912" width="0.772" height="21.908" transform="translate(21.095)" fill="#8f93ae"/>
            </g>
          </g>
        </g>
        <g id="character" transform="translate(205.192 68.062)">
          <g id="Grupo_55539" data-name="Grupo 55539" transform="translate(37.375 41.991)">
            <rect id="Rectángulo_5913" data-name="Rectángulo 5913" width="18.176" height="21.623" fill="#f0b297"/>
            <path id="Trazado_107028" data-name="Trazado 107028" d="M308.506,180.94v6.651c-4.521,3.657-10.627,6.123-18.176,6.651v-13.3Z" transform="translate(-290.296 -180.94)" fill="#d1785e"/>
          </g>
          <g id="Grupo_55544" data-name="Grupo 55544" transform="translate(29.049 7.738)">
            <g id="Grupo_55541" data-name="Grupo 55541">
              <g id="Grupo_55540" data-name="Grupo 55540" transform="translate(0 21.518)">
                <path id="Trazado_107029" data-name="Trazado 107029" d="M312.56,175.573a3.489,3.489,0,0,0,2.441-.31,8.219,8.219,0,0,0,1.979-1.5c1.569-1.51,3.028-3.422,2.919-5.561a2.659,2.659,0,0,0-.839-1.929,2.516,2.516,0,0,0-2.516-.31,4.278,4.278,0,0,0-1.954,1.678Z" transform="translate(-285.555 -165.757)" fill="#f0b297"/>
                <path id="Trazado_107030" data-name="Trazado 107030" d="M287.716,175.573a3.506,3.506,0,0,1-2.449-.31,8.179,8.179,0,0,1-1.971-1.5c-1.577-1.51-3.036-3.422-2.927-5.561a2.726,2.726,0,0,1,.839-1.929,2.516,2.516,0,0,1,2.516-.31,4.253,4.253,0,0,1,1.946,1.678Z" transform="translate(-280.363 -165.757)" fill="#f0b297"/>
              </g>
              <path id="Trazado_107031" data-name="Trazado 107031" d="M310.842,172.468c.621-6.71,2.365-10.585,3.439-14.452.772-2.894,1.552-7.834-1.812-12.2-3.355-4.529-11.675-7.1-19.291-4.94s-12.019,6.685-11.063,11.793c.47,3.07.914,7.314,1.426,10.476.419,2.634-.377,5.267.6,7.834,1.812,4.4,8.815,12.145,14.326,12.145C302.966,183.128,310.406,175.387,310.842,172.468Z" transform="translate(-280.625 -140.102)" fill="#f0b297"/>
            </g>
            <path id="Trazado_107032" data-name="Trazado 107032" d="M302.6,170.9a2.452,2.452,0,0,1-.159.369.763.763,0,0,1-.252.31c-.117.059-.285,0-.419-.176a.838.838,0,0,1-.126-.369,1.023,1.023,0,0,1,.3-.839.839.839,0,0,1,.327-.2c.226-.067.386,0,.436.134a.7.7,0,0,1,0,.394A2.305,2.305,0,0,1,302.6,170.9Z" transform="translate(-283.793 -144.918)" fill="#f2f2f2"/>
            <path id="Trazado_107033" data-name="Trazado 107033" d="M300.913,171.242a1.033,1.033,0,0,0-.059-.243.807.807,0,0,1,0-.2.983.983,0,0,1,0-.226,1.541,1.541,0,0,1,0-.277,3.355,3.355,0,0,0,.042-.562.562.562,0,0,0-.151-.394.21.21,0,0,0-.294,0,1.283,1.283,0,0,0-.327.411,2.063,2.063,0,0,0-.268.839,1.813,1.813,0,0,0,0,.52,2.333,2.333,0,0,0,.176.478,1.9,1.9,0,0,0,.243.4,2.156,2.156,0,0,0,.268.327,3.805,3.805,0,0,0,.486.453c.285.226.461.3.554.151s.076-.319-.075-.57a4.537,4.537,0,0,0-.31-.453,2.524,2.524,0,0,1-.176-.294A1.461,1.461,0,0,1,300.913,171.242Z" transform="translate(-283.503 -144.807)" fill="#d1785e"/>
            <g id="Grupo_55543" data-name="Grupo 55543" transform="translate(8.072 19.38)">
              <path id="Trazado_107034" data-name="Trazado 107034" d="M306.624,163.409a6.711,6.711,0,0,1,2.273-.109,6.55,6.55,0,0,1,2.189.7c.679.361.377,1.048-.3.881a17.441,17.441,0,0,0-2.021-.377,16.694,16.694,0,0,0-2.055-.151C306.02,164.332,305.878,163.586,306.624,163.409Z" transform="translate(-292.589 -163.215)" fill="#1a1a1a"/>
              <path id="Trazado_107035" data-name="Trazado 107035" d="M294.812,163.344a6.316,6.316,0,0,0-2.281-.059,6.534,6.534,0,0,0-2.172.738c-.671.369-.352,1.057.319.839a17,17,0,0,1,2.021-.428,16.43,16.43,0,0,1,2.047-.193C295.441,164.25,295.559,163.5,294.812,163.344Z" transform="translate(-289.987 -163.209)" fill="#1a1a1a"/>
              <g id="Grupo_55542" data-name="Grupo 55542" transform="translate(0.975 2.475)">
                <path id="Trazado_107036" data-name="Trazado 107036" d="M294.287,169.521V167.71a1.552,1.552,0,0,0-1.585-1.51h0a1.56,1.56,0,0,0-1.552,1.56v1.778C291.184,170.394,294.3,170.377,294.287,169.521Z" transform="translate(-291.15 -166.166)" fill="#1a1a1a"/>
                <path id="Trazado_107037" data-name="Trazado 107037" d="M307.64,169.515V167.7a1.552,1.552,0,0,1,1.56-1.543h0a1.56,1.56,0,0,1,1.552,1.56V169.5C310.743,170.387,307.632,170.371,307.64,169.515Z" transform="translate(-293.809 -166.16)" fill="#1a1a1a"/>
              </g>
            </g>
            <path id="Trazado_107038" data-name="Trazado 107038" d="M297.233,177.92a8.111,8.111,0,0,0,8.06-1.149c.352-.277-.143-.755-.486-.486a7.423,7.423,0,0,1-7.389.973.336.336,0,0,0-.419.243.344.344,0,0,0,.235.419Z" transform="translate(-283.043 -145.924)" fill="#a33939"/>
          </g>
          <path id="Trazado_107039" data-name="Trazado 107039" d="M339.287,208.035c1.988,1.552,5.41,4.739,5.611,6.45s6.71,47.1,7.1,50.032c.839,5.871-17.974-.159-18.679-4s-8.564-31.789-8.564-31.789l7.549-22.227S337.2,206.408,339.287,208.035Z" transform="translate(-258.474 -143.07)" fill="#35362f"/>
          <path id="Trazado_107040" data-name="Trazado 107040" d="M323.547,287.93c4.764,29.256.646,83.162-.6,91.1S305.136,373.8,304.6,365.716c-.193-2.91.57-5.8.579-8.715,0-2.575-1.124-5.033-1.166-7.633-.369-22.554-4.814-25.716-8.035-39.623l-5.217-21.808Z" transform="translate(-252.991 -156.201)" fill="#2c2a28"/>
          <g id="Grupo_55545" data-name="Grupo 55545" transform="translate(0 275.211)">
            <path id="Trazado_107041" data-name="Trazado 107041" d="M268.448,483.852c3.523-1.678,6.635-3.464,7.549-5.276l.386-16.02c.134-1.191.394-2.65-.772-2.81l-5.293-.73a2.063,2.063,0,0,0-2.281,1.535c-.587,2.206-2.659,9.511-2.659,9.511l-10.333,10.191c-1.048,1.032-2.164,2.088-2.265,3.6C252.73,483.9,268.448,483.852,268.448,483.852Z" transform="translate(-246.867 -458.997)" fill="#b3b3b3"/>
            <path id="Trazado_107042" data-name="Trazado 107042" d="M275.1,468.28c-.335-.05.839,8.564-3.061,9.226a5.877,5.877,0,0,1-.763.059l-.31-3.632s-5.578-2.575-9.755-2.248l-1,1.963-11.885,6.534c-.981.973-2.466,2.441-2.6,4.462a1.518,1.518,0,0,0,.335.948h30.086S275.439,468.33,275.1,468.28Z" transform="translate(-245.73 -460.494)" fill="#1a1a1a"/>
          </g>
          <g id="Grupo_55546" data-name="Grupo 55546" transform="translate(58.276 275.692)">
            <path id="Trazado_107043" data-name="Trazado 107043" d="M339.123,483.885A14.669,14.669,0,0,0,337.6,480.3L329.754,470s-.99-6.66-1.258-8.664a1.862,1.862,0,0,0-1.812-1.678L322,459.57a1.9,1.9,0,0,0-1.9,1.887l-.528,14.485a73.031,73.031,0,0,0,3.179,7.842Z" transform="translate(-315.915 -459.57)" fill="#b3b3b3"/>
            <path id="Trazado_107044" data-name="Trazado 107044" d="M337.68,481.162l-5.309-6.953-.73-2.206c-3.6-.839-8.74.637-8.74.637l-.671,3.129a4.144,4.144,0,0,1-.654-.159c-3.355-1.09-2.273-6.819-2.567-6.819s-3.8,16.884-3.8,16.884h24.215V485.4C339.559,483.619,338.427,482.143,337.68,481.162Z" transform="translate(-315.21 -461.057)" fill="#1a1a1a"/>
          </g>
          <path id="Trazado_107045" data-name="Trazado 107045" d="M272.438,285.94c-4.873,29.256-2.466,83.162-1.2,91.1s18.209-5.225,18.754-13.311c.193-2.91-.587-5.8-.587-8.715a32.936,32.936,0,0,1,1.183-7.633c3.3-13.906,10.258-27.813,13.546-41.719V285.94Z" transform="translate(-249.565 -155.88)" fill="#2c2a28"/>
          <path id="Trazado_107046" data-name="Trazado 107046" d="M267.924,450.027c-.2-11.516,0-23.041.193-34.565q.134-8.681.294-17.362c.134-8.153.612-16.414,3.615-24.106.9-2.3,15.324-8.22,17.111-5.813,0,0,1.2,11.348,1.954,16.481.495,3.355-.185,6.811-.839,10.166-3.64,18.243-5.544,36.955-9.226,55.2Z" transform="translate(-249.295 -169.05)" fill="#2c2a28"/>
          <path id="Trazado_107047" data-name="Trazado 107047" d="M328.548,451.3c.2-11.516-.285-22.3-.478-33.827q-.143-8.681-.285-17.362c-.134-8.153-.6-16.414-3.54-24.106-.881-2.3-15-8.22-16.775-5.813,0,0-1.174,11.34-1.912,16.481-.486,3.355.176,6.8.839,10.166,3.565,18.243,5.259,36.259,8.824,54.519Z" transform="translate(-255.35 -169.374)" fill="#2c2a28"/>
          <path id="Trazado_107048" data-name="Trazado 107048" d="M282.65,283.891h-1.04c-2.709,0-10.761-2.374-11.935-4.194,3-15.517,1.183-24.869-.587-33.911-.99-5.083-2.13-16.112-2.13-16.112-1.082-2.03-2.332-17.253-1.409-23.527l19.937-8.388,9.226,2.768h1.862l9.226-2.768,19.937,8.388c.923,6.274-.327,21.5-1.409,23.527,0,0-1.4,11.29-2.676,16.423-2.156,8.689-4.378,17.672-1.359,33.038v.067c-.6.906-5.083,3.229-7.272,3.573C305.993,283.883,283.565,283.891,282.65,283.891Z" transform="translate(-248.874 -141.661)" fill="#dcd0c8"/>
          <g id="Grupo_55547" data-name="Grupo 55547" transform="translate(31.059 51.536)">
            <path id="Trazado_107049" data-name="Trazado 107049" d="M303.232,209.4l3.489-3.38-2.072-5.662-4.923-.436-4.923.436-2.072,5.662,3.489,3.38-5.46,53.085,8.966,10.484,8.966-10.484Z" transform="translate(-284.05 -193.546)" fill="#8c0404"/>
            <path id="Trazado_107050" data-name="Trazado 107050" d="M311.037,192.32l-9.587,6.375,3.506.721,2.818,14.552,9.352-14.72Z" transform="translate(-285.774 -192.32)" fill="#eae3de"/>
            <path id="Trazado_107051" data-name="Trazado 107051" d="M288.849,192.32l9.587,6.375-3.506.721-2.818,14.552-9.352-14.72Z" transform="translate(-282.76 -192.32)" fill="#eae3de"/>
          </g>
          <path id="Trazado_107052" data-name="Trazado 107052" d="M258.823,207.7c-1.979,1.543-5.4,4.731-5.6,6.442s-4.571,37.819-5.7,47.733c-.7,9.562,17.379,9.662,18.453,7.029s7.339-40.554,7.339-40.554l-7.549-22.219S260.877,206.088,258.823,207.7Z" transform="translate(-246.015 -143.011)" fill="#35362f"/>
          <path id="Trazado_107053" data-name="Trazado 107053" d="M335.433,205.938l-18.31-7.4-5.62,43.4-.713,53.948c7.029,4.781,19.979,3.137,21.4,1.334s-.9-13.881-1.2-16.2c-3.179-24.55,1.5-50.761,1.5-50.761S336.515,211.885,335.433,205.938Z" transform="translate(-256.221 -141.787)" fill="#35362f"/>
          <path id="Trazado_107054" data-name="Trazado 107054" d="M287.43,241.568,281.1,198.54l-17.807,7.02c-1.082,5.947,2.441,24.693,2.441,24.693s6.2,25.783,2.223,49.973c-.168,2.105-2.634,15.3-1.61,16.775s16.322,4.84,22.546.721Z" transform="translate(-248.528 -141.787)" fill="#35362f"/>
          <path id="Trazado_107055" data-name="Trazado 107055" d="M309.246,155.069a5.494,5.494,0,0,1-1.954-.486c-1.6-.73-3.355-1.216-4.261-2.625-1.191-1.887,0-4.512-1.745-5.033-2.718-.839-8.119,1.678-10.526.319a3.883,3.883,0,0,1-1.258-1.158,11.146,11.146,0,0,1-2.248,2.189c-1.485,1.157-3.12,2.516-3.221,4.252a9.991,9.991,0,0,0,.78,3.162c.562,1.988-1.032,7.951-1.032,7.951a30.644,30.644,0,0,1-2.684-5.116c-.495-1.485-.252-3.1-.621-4.613s-1.468-3.078-1.8-4.714a5.771,5.771,0,0,1,1.778-5.251,11.919,11.919,0,0,1-.042-2.734,7.071,7.071,0,0,1,2.852-5.083,5.871,5.871,0,0,1,5.46-.663c3.011-2.592,6.551-4.949,10.585-4.546,3.64.369,6.484,2.9,9.83,4.194,1.963.772,4.1,1.132,6.081,1.862s3.9,1.963,4.571,3.783a3.489,3.489,0,0,1-.268,2.843,2.919,2.919,0,0,1,1.174,1.636,5.682,5.682,0,0,1-1.057,4.118c-.755,1.267-4.051,2.969-4.311,4.387-.285,1.61-3.129,9.872-3.129,9.872L310.261,155A5.116,5.116,0,0,1,309.246,155.069Z" transform="translate(-251.028 -130.876)" fill="#2c1e1c"/>
          <g id="Grupo_55548" data-name="Grupo 55548" transform="translate(21.925 100.368)">
            <path id="Trazado_107056" data-name="Trazado 107056" d="M339.592,275.388c.185-1.2-3.841-12.791-8.606-14.443s-50.166-6.375-50.166-6.375-2.348,3.934-1.543,7c0,0,33.55,11.332,37.954,12.69S339.408,276.587,339.592,275.388Z" transform="translate(-273.037 -251.19)" fill="#f0b297"/>
            <path id="Trazado_107057" data-name="Trazado 107057" d="M281.6,254.524s-9.142-3.682-9.729-3.984v13.294L280.258,261Z" transform="translate(-271.87 -250.54)" fill="#f0b297"/>
            <path id="Trazado_107058" data-name="Trazado 107058" d="M289.152,252.43l-2.9,13.42s30.3,9.377,42.776,11.986,17.7-2.072,16.641-6.324a17.018,17.018,0,0,0-12.363-12.43C325.562,257.228,289.152,252.43,289.152,252.43Z" transform="translate(-274.189 -250.845)" fill="#35362f"/>
          </g>
          <g id="Grupo_55550" data-name="Grupo 55550" transform="translate(7.918 106.885)">
            <path id="Trazado_107059" data-name="Trazado 107059" d="M255.17,276.978c.05-1.216,3.942-14.93,8.941-15.668s55.936,6.786,55.936,6.786-2.273,7-4.135,7.758c0,0-25.532.965-34.615,2.08C276.692,278.471,255.128,278.169,255.17,276.978Z" transform="translate(-255.17 -258.785)" fill="#f0b297"/>
            <g id="Grupo_55549" data-name="Grupo 55549" transform="translate(55.776)">
              <path id="Trazado_107060" data-name="Trazado 107060" d="M322.785,274.98c2.76,1.51,5.922,1.887,8.9,2.734,1.216.335,2.667.621,3.523-.226a3.447,3.447,0,0,0,.78-1.87c.445-2.2-1.451-5.334-1.007-8.2.31-2.013.428-6.282-.6-6.165-2.718.31-7.155,4.7-10.015,6.131a2.407,2.407,0,0,0-.99.931C322.4,269.872,320.42,273.7,322.785,274.98Z" transform="translate(-321.669 -258.783)" fill="#f0b297"/>
              <path id="Trazado_107061" data-name="Trazado 107061" d="M336.413,269.5a25.809,25.809,0,0,0,7.121-.6c1.434-.335,3-1.577,7.306-4.152,1.594-.956-.579-2.139-2.273-1.359a29.732,29.732,0,0,1-5.2,2.1c-2.516.839-4.915-.235-7.431.143C334.241,265.882,334.685,269.455,336.413,269.5Z" transform="translate(-323.797 -259.088)" fill="#f0b297"/>
              <path id="Trazado_107062" data-name="Trazado 107062" d="M336.469,273.526c4.06-.285,5.46.151,8.044-.52,1.963-.512,2.927-1.325,6.081-2.516,2.164-.839.839-3.2-1.325-2.382-3.229,1.225-4.362,1.677-4.362,1.677-3.3.923-6.71.117-10.065.629C332.5,270.766,334.137,273.676,336.469,273.526Z" transform="translate(-323.61 -259.862)" fill="#f0b297"/>
              <path id="Trazado_107063" data-name="Trazado 107063" d="M336.2,276.885a29.582,29.582,0,0,0,8.388.663c.763-.126,3.951-1.417,4.831-1.719a7.724,7.724,0,0,0,2.416-1.459c.6-.679-.176-1.812-1.116-1.594-1.09.252-4.613,1.518-7,1.921-3.355.579-5.351-1.241-8.731-1.074C332.7,273.731,333.964,276.448,336.2,276.885Z" transform="translate(-323.621 -260.637)" fill="#f0b297"/>
              <path id="Trazado_107064" data-name="Trazado 107064" d="M334.934,280.572a27.556,27.556,0,0,0,5.452.327c.621,0,2.869-.378,4.269-.428a24.827,24.827,0,0,0,2.843-.411.839.839,0,0,0-.671-1.443c-.906.042-2.583.176-4.529.126-2.759-.067-5.326-1.35-8.035-1.787C332.443,276.663,333.105,280.278,334.934,280.572Z" transform="translate(-323.526 -261.313)" fill="#f0b297"/>
              <path id="Trazado_107065" data-name="Trazado 107065" d="M334.531,267.88c1.25-2.516,1.988-4.194,3.154-4.6a26.9,26.9,0,0,0,3.7-1.568,3.707,3.707,0,0,0,1.585-2.441c.159-1.812-3.154-.6-5.636-.134a6.937,6.937,0,0,0-3.883,1.912c-1.074,1.023-4.739,4.7-4.739,4.7Z" transform="translate(-322.804 -258.309)" fill="#f0b297"/>
            </g>
          </g>
          <path id="Trazado_107066" data-name="Trazado 107066" d="M309.095,277.721l2.919-13.9S266.847,258.874,263,258.4s-10.216,4.563-11.055,9.654-.159,9.226,5.074,10.35S309.095,277.721,309.095,277.721Z" transform="translate(-246.683 -151.435)" fill="#35362f"/>
        </g>
        <g id="man" transform="translate(289.115 71.006)">
          <path id="Trazado_107067" data-name="Trazado 107067" d="M349.679,272.419c-1.124-1.627-2.65-6.668-2.223-9.386S362.889,232,362.889,232s13.068,5.871,12.892,11.692c0,0-14.863,28.694-16.163,29.256S350.87,274.139,349.679,272.419Z" transform="translate(-346.044 -150.127)" fill="#f8a588"/>
          <path id="Trazado_107068" data-name="Trazado 107068" d="M378.295,208.115c-2.734.839-6.71,2.114-7.641,3.858s-12.489,24.248-17.614,34.389c2.516,6.71,9.226,11.575,15.995,13.957,6.182-7.071,9.545-19.627,13.537-28.132l4.89-24S381.172,207.2,378.295,208.115Z" transform="translate(-346.957 -146.213)" fill="#dde1c8"/>
          <g id="Grupo_55551" data-name="Grupo 55551" transform="translate(50.185 41.47)">
            <rect id="Rectángulo_5914" data-name="Rectángulo 5914" width="18.025" height="21.438" fill="#f0b297"/>
            <path id="Trazado_107069" data-name="Trazado 107069" d="M423.645,183.83v6.593c-4.479,3.623-10.535,6.073-18.025,6.593V183.83Z" transform="translate(-405.62 -183.83)" fill="#b36650"/>
          </g>
          <g id="Grupo_55556" data-name="Grupo 55556" transform="translate(42.521 7.444)">
            <g id="Grupo_55553" data-name="Grupo 55553">
              <g id="Grupo_55552" data-name="Grupo 55552" transform="translate(0 21.244)">
                <path id="Trazado_107070" data-name="Trazado 107070" d="M428.27,178.278a3.414,3.414,0,0,0,2.416-.31,7.641,7.641,0,0,0,1.954-1.476c1.552-1.493,2.994-3.355,2.885-5.494a2.626,2.626,0,0,0-.839-1.9,2.516,2.516,0,0,0-2.466-.31,4.194,4.194,0,0,0-1.929,1.678Z" transform="translate(-401.609 -168.591)" fill="#f0b297"/>
                <path id="Trazado_107071" data-name="Trazado 107071" d="M403.736,178.278a3.422,3.422,0,0,1-2.416-.31,7.75,7.75,0,0,1-1.946-1.476c-1.552-1.493-2.994-3.355-2.885-5.494a2.65,2.65,0,0,1,.839-1.9,2.516,2.516,0,0,1,2.474-.31,4.194,4.194,0,0,1,1.921,1.678Z" transform="translate(-396.483 -168.591)" fill="#f0b297"/>
              </g>
              <path id="Trazado_107072" data-name="Trazado 107072" d="M426.581,175.217c.612-6.6,2.332-10.459,3.4-14.259.763-2.86,1.535-7.742-1.795-12.053-3.28-4.471-11.524-7.012-19.073-4.873s-11.826,6.584-10.9,11.65c.461,3.028.9,7.222,1.409,10.342.419,2.6-.369,5.209.587,7.742,1.795,4.353,8.706,11.994,14.15,11.994C418.806,185.743,426.153,178.1,426.581,175.217Z" transform="translate(-396.741 -143.262)" fill="#f0b297"/>
            </g>
            <path id="Trazado_107073" data-name="Trazado 107073" d="M418.2,174.934a2.35,2.35,0,0,1-.159.361.687.687,0,0,1-.252.3c-.109.059-.277,0-.4-.168a.772.772,0,0,1-.134-.361,1.023,1.023,0,0,1,.3-.856.7.7,0,0,1,.327-.218c.218-.067.377,0,.419.134a.7.7,0,0,1,0,.394,2.44,2.44,0,0,1-.1.411Z" transform="translate(-399.831 -148.214)" fill="#f2f2f2"/>
            <path id="Trazado_107074" data-name="Trazado 107074" d="M416.528,175.278a.4.4,0,0,0-.05-.243c-.05-.075,0-.134,0-.2a1.768,1.768,0,0,1,0-.218,1.544,1.544,0,0,1,0-.277,3.259,3.259,0,0,0,.042-.554.545.545,0,0,0-.151-.386.21.21,0,0,0-.285,0,1.392,1.392,0,0,0-.327.411,2.021,2.021,0,0,0-.26.839,1.752,1.752,0,0,0,0,.512,2.234,2.234,0,0,0,.168.47,2.136,2.136,0,0,0,.243.4c.084.117.176.226.26.327a4.351,4.351,0,0,0,.486.445c.285.218.453.294.545.143s.076-.31-.075-.562c-.076-.126-.185-.268-.3-.445a3.246,3.246,0,0,1-.176-.285,1.476,1.476,0,0,1-.117-.377Z" transform="translate(-399.546 -148.113)" fill="#d1785e"/>
            <g id="Grupo_55555" data-name="Grupo 55555" transform="translate(6.874 17.748)">
              <path id="Trazado_107075" data-name="Trazado 107075" d="M423.546,164.488a6.265,6.265,0,0,1,2.432.126c.788.2,2.516,2.374,1.8,2.105a17.607,17.607,0,0,0-2.105-.688,18.105,18.105,0,0,0-2.156-.4C422.782,165.528,422.732,164.622,423.546,164.488Z" transform="translate(-407.625 -164.423)" fill="#2c120d"/>
              <path id="Trazado_107076" data-name="Trazado 107076" d="M408.6,164.65a6.106,6.106,0,0,0-2.365.587c-.738.352-2.013,2.818-1.384,2.416a17.611,17.611,0,0,1,1.937-1.074,15.989,15.989,0,0,1,2.047-.839C409.536,165.522,409.419,164.625,408.6,164.65Z" transform="translate(-404.678 -164.459)" fill="#2c120d"/>
              <g id="Grupo_55554" data-name="Grupo 55554" transform="translate(1.813 3.915)">
                <path id="Trazado_107077" data-name="Trazado 107077" d="M409.918,172.37v-1.753a1.543,1.543,0,0,0-1.543-1.527h0a1.543,1.543,0,0,0-1.535,1.543v1.753c0,.394.839-.663,1.527-.646S409.918,172.848,409.918,172.37Z" transform="translate(-406.84 -169.09)" fill="#2c120d"/>
                <path id="Trazado_107078" data-name="Trazado 107078" d="M423.1,172.37v-1.753a1.535,1.535,0,0,1,1.543-1.527h0a1.527,1.527,0,0,1,1.526,1.543v1.753c0,.419-.763-.671-1.526-.671S423.1,172.822,423.1,172.37Z" transform="translate(-409.462 -169.09)" fill="#2c120d"/>
              </g>
            </g>
            <path id="Trazado_107079" data-name="Trazado 107079" d="M413.448,179.644a4.756,4.756,0,0,0,5.662,1.677.352.352,0,0,0,.134-.486.361.361,0,0,0-.486-.134,4.018,4.018,0,0,1-4.68-1.4c-.26-.377-.889,0-.629.352Z" transform="translate(-399.209 -149.048)" fill="#c2502f"/>
          </g>
          <path id="Trazado_107080" data-name="Trazado 107080" d="M457.5,272.383a7.932,7.932,0,0,0,5.158-5.158c.621-2.642-2.751-38.365-2.751-38.365s-14.057.411-16.087,5.771c0,0,6.375,31.353,6.928,32.627S455.412,273,457.5,272.383Z" transform="translate(-361.595 -149.621)" fill="#f0b297"/>
          <path id="Trazado_107081" data-name="Trazado 107081" d="M454.38,210.374c1.677,1.451,4.655,4.4,4.772,5.93s3.238,22.512,3.917,31.378c-3.816,4.118-11.575,4.37-17.178,4.068-2.365-6.962-5.142-23.485-5.142-23.485l7.49-19.535S452.534,208.856,454.38,210.374Z" transform="translate(-361.1 -146.375)" fill="#dde1c8"/>
          <g id="Grupo_55559" data-name="Grupo 55559" transform="translate(14.815 128.784)">
            <g id="Grupo_55557" data-name="Grupo 55557" transform="translate(75.613 140.13)">
              <path id="Trazado_107082" data-name="Trazado 107082" d="M472.71,474.937,465.69,455h-8.27l.889,19.971S474.279,479.383,472.71,474.937Z" transform="translate(-454.216 -455)" fill="#b3b3b3"/>
              <path id="Trazado_107083" data-name="Trazado 107083" d="M453.6,486.141s.713-10.275,4.269-11.491l1.25-3.229s6.039-1.392,10.308,0l2.139,3.431s3.909,2.441,4.261,4.479.713,6.811.713,6.811Z" transform="translate(-453.6 -457.548)" fill="#35362f"/>
            </g>
            <path id="Trazado_107084" data-name="Trazado 107084" d="M438.6,289.9c4.722,29,3.867,62.906,5.527,74.313,1.166,7.968-17.069,8.3-20.424,2.139-1.929-3.556-5.393-29.281-6.182-31.722-2.256-6.936-8.237-11.4-11.432-25.163V289.9Z" transform="translate(-370.326 -288.248)" fill="#6c6f58"/>
            <g id="Grupo_55558" data-name="Grupo 55558" transform="translate(0 142.099)">
              <path id="Trazado_107085" data-name="Trazado 107085" d="M387.456,483.686c3.741-1.787,7.029-3.665,7.96-5.586l.411-16.985c.143-1.258.419-2.8-.839-2.969l-5.611-.78a2.2,2.2,0,0,0-2.416,1.627c-.629,2.34-2.818,10.065-2.818,10.065l-10.954,10.795c-1.107,1.09-2.3,2.214-2.4,3.808C370.807,483.737,387.456,483.686,387.456,483.686Z" transform="translate(-364.634 -457.347)" fill="#b3b3b3"/>
              <path id="Trazado_107086" data-name="Trazado 107086" d="M394.534,467.19c-.352-.05.914,9.075-3.246,9.755a5.217,5.217,0,0,1-.839.067l-.327-3.85s-5.913-2.734-10.342-2.39l-.99,2.13L366.21,479.83c-1.04,1.032-2.617,2.583-2.76,4.722a1.61,1.61,0,0,0,.361,1.007h31.805S394.886,467.249,394.534,467.19Z" transform="translate(-363.45 -458.934)" fill="#35362f"/>
            </g>
            <path id="Trazado_107087" data-name="Trazado 107087" d="M387.933,287.93c-4.831,29-2.441,82.441-1.191,90.308s18.05-5.183,18.6-13.2c.193-2.885-.579-5.754-.587-8.639a32.886,32.886,0,0,1,1.174-7.549c3.271-13.789,10.166-27.57,13.42-41.359V287.947Z" transform="translate(-366.931 -287.93)" fill="#6c6f58"/>
            <path id="Trazado_107088" data-name="Trazado 107088" d="M383.454,450.593c-.2-11.415,0-22.839.185-34.263q.151-8.606.294-17.211c.143-8.086.612-16.28,3.59-23.9.889-2.273,15.19-8.153,16.96-5.762,0,0,1.191,11.248,1.938,16.347.486,3.355.839,8.866.168,12.2-3.447,17.27-5.234,34.49-7.851,52.6Z" transform="translate(-366.662 -300.985)" fill="#6c6f58"/>
            <path id="Trazado_107089" data-name="Trazado 107089" d="M464.873,448.35c-2.416-11.164-5.787-25.725-8.58-36.8q-2.114-8.388-4.194-16.691c-1.979-7.842-3.481-16.867-8.06-23.619-1.367-2.021-18.453-3.816-19.568-1.1,0,0,2.709,11.65,3.162,16.775.3,3.355,1.678,6.525,3.1,9.62,7.549,16.775,11.533,35.421,19.107,52.221Z" transform="translate(-373.289 -300.964)" fill="#6c6f58"/>
          </g>
          <path id="Trazado_107090" data-name="Trazado 107090" d="M441.428,207.958,420.87,199.31l-9.344,2.8h-1.568l-9.352-2.8-20.558,8.648c-1.074,5.871,1.417,24.441,1.417,24.441.226,16.221,7.255,25.28,2.516,49.268.948,2.608,10.367,4.94,12.8,4.974,1.443,0,24.248,0,31.336-1.116,2-.319,8.773-3.3,7.968-4.731-4.714-23.98,3.674-32.175,3.909-48.4C440.019,232.4,442.5,213.854,441.428,207.958Z" transform="translate(-351.269 -144.856)" fill="#dde1c8"/>
          <g id="Grupo_55569" data-name="Grupo 55569" transform="translate(0 54.709)">
            <g id="Grupo_55568" data-name="Grupo 55568" transform="translate(18.509)">
              <g id="Grupo_55565" data-name="Grupo 55565" transform="translate(6.607)">
                <g id="Grupo_55560" data-name="Grupo 55560">
                  <path id="Trazado_107091" data-name="Trazado 107091" d="M383.707,229.63c-2.164-.092-4.353-.26-6.509-.52a1.585,1.585,0,0,1-1.384-1.552c-.235-8.6.067-18.88.52-26a1.954,1.954,0,0,1,1.8-1.82c2.6-.143,5.225-.159,7.809-.059s5.183.327,7.75.671a1.8,1.8,0,0,1,1.518,1.954c-.6,7.1-1.837,17.337-3.355,25.867a1.728,1.728,0,0,1-1.6,1.434C388.077,229.713,385.871,229.713,383.707,229.63Z" transform="translate(-375.733 -199.614)" fill="#e6e6e6"/>
                  <path id="Trazado_107092" data-name="Trazado 107092" d="M390.3,229.458a82.279,82.279,0,0,1-13.026-.52,1.367,1.367,0,0,1-1.208-1.359c-.218-7.859,0-18.285.512-25.951a1.728,1.728,0,0,1,1.6-1.652,82.7,82.7,0,0,1,15.525.612,1.585,1.585,0,0,1,1.35,1.736c-.654,7.658-1.963,18.05-3.355,25.842a1.51,1.51,0,0,1-1.4,1.292Z" transform="translate(-375.772 -199.652)" fill="#ccc"/>
                  <path id="Trazado_107093" data-name="Trazado 107093" d="M384.006,226.85c-4.118-3.422-6.408-8.018-7.884-12.9-.151,5.259-.21,10.56-.059,15.936a1.367,1.367,0,0,0,1.208,1.359,82.284,82.284,0,0,0,13.026.52,1.51,1.51,0,0,0,1.4-1.258c.084-.445.159-.881.235-1.325a11.592,11.592,0,0,1-7.926-2.332Z" transform="translate(-375.772 -201.925)" fill="#b3b3b3"/>
                </g>
                <g id="Grupo_55564" data-name="Grupo 55564" transform="translate(2.801 2.973)">
                  <path id="Trazado_107094" data-name="Trazado 107094" d="M380.068,211.069h0a1.132,1.132,0,0,1-.99-1.25l.428-5.594a1.107,1.107,0,0,1,1.166-1.065h0a1.149,1.149,0,0,1,.99,1.25L381.234,210a1.116,1.116,0,0,1-1.166,1.065Z" transform="translate(-379.072 -203.158)" fill="#b3b3b3"/>
                  <g id="Grupo_55561" data-name="Grupo 55561" transform="translate(0.688 0.916)">
                    <path id="Trazado_107095" data-name="Trazado 107095" d="M381.476,205.181a.839.839,0,1,1-.176-.619A.839.839,0,0,1,381.476,205.181Z" transform="translate(-379.892 -204.25)" fill="#999"/>
                    <path id="Trazado_107096" data-name="Trazado 107096" d="M380.609,205.926a.78.78,0,0,1-.679-.839.772.772,0,0,1,.839-.738.788.788,0,0,1,.688.839.772.772,0,0,1-.847.738Z" transform="translate(-379.898 -204.266)" fill="#1a1a1a"/>
                  </g>
                  <g id="Grupo_55562" data-name="Grupo 55562" transform="translate(0.521 3.13)">
                    <path id="Trazado_107097" data-name="Trazado 107097" d="M381.276,207.821a.839.839,0,1,1-.176-.619A.839.839,0,0,1,381.276,207.821Z" transform="translate(-379.693 -206.89)" fill="#999"/>
                    <path id="Trazado_107098" data-name="Trazado 107098" d="M380.417,208.526a.788.788,0,0,1-.688-.839.772.772,0,0,1,.839-.738.788.788,0,0,1,.688.839.772.772,0,0,1-.839.738Z" transform="translate(-379.699 -206.899)" fill="#1a1a1a"/>
                  </g>
                  <g id="Grupo_55563" data-name="Grupo 55563" transform="translate(0.354 5.277)">
                    <path id="Trazado_107099" data-name="Trazado 107099" d="M381.076,210.381a.839.839,0,1,1-.176-.619A.839.839,0,0,1,381.076,210.381Z" transform="translate(-379.493 -209.45)" fill="#999"/>
                    <path id="Trazado_107100" data-name="Trazado 107100" d="M380.217,211.126a.788.788,0,0,1-.688-.839.772.772,0,0,1,.839-.738.788.788,0,0,1,.688.839.772.772,0,0,1-.839.738Z" transform="translate(-379.499 -209.466)" fill="#1a1a1a"/>
                  </g>
                </g>
              </g>
              <g id="Grupo_55567" data-name="Grupo 55567" transform="translate(0 8.221)">
                <path id="Trazado_107101" data-name="Trazado 107101" d="M368.019,228.9c-1.283,4.94,5.334,8.035,7.977,6.492,1.728-1.006,1.007-4.487,2.29-9.428.537-2.072-1.87-7.264-2.063-7.985C376.222,218,369.3,223.944,368.019,228.9Z" transform="translate(-367.855 -210.796)" fill="#f0b297"/>
                <g id="Grupo_55566" data-name="Grupo 55566" transform="translate(5.096)">
                  <path id="Trazado_107102" data-name="Trazado 107102" d="M382.634,233.153a2.617,2.617,0,0,0-1.938.4c-.939,1.074-1.577,2.877-3.1,3.8-.495.31-1.174-.042-1.678-.436a1.09,1.09,0,0,1-.143-1.527c1.225-1.216,2.6-3.12,4.018-4.127.646-.453,2.516-.268,3.682-.092a24.836,24.836,0,0,1,5.477,1.191c1.309.495-.092,1.678-1.468,1.325C387.473,233.69,382.726,233.195,382.634,233.153Z" transform="translate(-374.188 -212.893)" fill="#f0b297"/>
                  <path id="Trazado_107103" data-name="Trazado 107103" d="M374.09,219.635c1.015-1.678,4.538-4.873,6.207-6.114s7.633-3.28,9.352-3.984,2.1,1.845-.176,2.827-7.75,3.665-7.75,3.665-3.2,4.529-3.808,5.662S373.066,221.346,374.09,219.635Z" transform="translate(-373.931 -209.415)" fill="#f0b297"/>
                  <path id="Trazado_107104" data-name="Trazado 107104" d="M378.325,222.784l6.014-3.061s6.769-.973,8.5-1.074,1.384,2.29-.73,2.516-7.306,1.258-7.306,1.258-6.224,4.043-6.785,4.613S378.325,222.784,378.325,222.784Z" transform="translate(-374.56 -210.904)" fill="#f0b297"/>
                  <path id="Trazado_107105" data-name="Trazado 107105" d="M377.03,228.461l5.611-3.573s5.947-.738,7.691-.839,1.384,2.29-.73,2.516-6.525.931-6.525.931-5.485,4.194-6.056,4.756S377.03,228.461,377.03,228.461Z" transform="translate(-374.389 -211.775)" fill="#f0b297"/>
                </g>
              </g>
            </g>
            <path id="Trazado_107106" data-name="Trazado 107106" d="M346.117,264.116c-1.015,5.225.31,8.48,4.051,10.065,4.051,1.678,8.916,1.074,10.543-4.387s10.963-37.559,10.963-37.559-3.992-4.194-6.031-2.65C364.519,230.457,347,259.62,346.117,264.116Z" transform="translate(-345.787 -204.391)" fill="#f0b297"/>
          </g>
          <g id="Grupo_55570" data-name="Grupo 55570" transform="translate(44.884 50.931)">
            <path id="Trazado_107107" data-name="Trazado 107107" d="M425.631,195.11l-8.941,6.324,3.481.713,2.785,14.427,7.691-12.1a3.758,3.758,0,0,0-.461-4.622Z" transform="translate(-402.104 -195.11)" fill="#f9f1e8"/>
            <path id="Trazado_107108" data-name="Trazado 107108" d="M404.383,195.11l9.5,6.324-3.481.713-2.785,14.427-7.733-12.212a3.774,3.774,0,0,1,.344-4.5Z" transform="translate(-399.3 -195.11)" fill="#f9f1e8"/>
          </g>
          <g id="Grupo_55571" data-name="Grupo 55571" transform="translate(42.334)">
            <path id="Trazado_107109" data-name="Trazado 107109" d="M430.666,156.533a16.279,16.279,0,0,0,.193-5.662c-.486-2.927-2.323-5.8-5.175-6.76,1.552-1.023,1.677-3.355.73-4.965a8.622,8.622,0,0,0-4.462-3.2c-5.871-2.273-12.892-2.172-18.276,1.1s-8.387,10.979-7.129,15.936,1.787,7.549,5.2,7.339c3.028-.168,5.712-1.954,8.018-3.892s5.762-5.443,8.488-6.71a9.025,9.025,0,0,1,6.978-.528c2.516,5.452,1.879,11.743,2.139,18.151.772-2.34,1.921-5.209,2.567-7.649C430.213,158.629,430.431,157.547,430.666,156.533Z" transform="translate(-396.26 -134.387)" fill="#590212"/>
            <path id="Trazado_107110" data-name="Trazado 107110" d="M399.624,169.926l1.493-16.33s-2.349-2.089-3.506-1.124S399.624,169.926,399.624,169.926Z" transform="translate(-396.437 -137.262)" fill="#590212"/>
          </g>
          <g id="Grupo_55572" data-name="Grupo 55572" transform="translate(71.328 110.897)">
            <path id="Trazado_107111" data-name="Trazado 107111" d="M454.022,266.609c-1.048-.21-6.19,6.265-8.312,9.755s-10.77,30.287-10.77,30.287,3.523,3.808,6.484,3.405c0,0,19.342-31.8,19.8-35.488C462.141,267.154,455.062,266.827,454.022,266.609Z" transform="translate(-431.491 -266.604)" fill="#f0b297"/>
            <path id="Trazado_107112" data-name="Trazado 107112" d="M436.231,308.784s-5.267.26-5.4,2.81,7.28,9.822,10.065,8.455,2.072-5.762,1.1-7.549S438.362,308.465,436.231,308.784Z" transform="translate(-430.828 -273.401)" fill="#f0b297"/>
          </g>
        </g>
        <g id="woman" transform="translate(75.797 99.747)">
          <path id="Trazado_107113" data-name="Trazado 107113" d="M212.588,184.231c3.959,12.019,3.892,25.506-1.678,36.905-1.82,3.732-4.689,7.549-8.815,8.035-2.34.26-4.63-.637-6.819-1.51-7.666-3.087-15.416-6.215-22.1-11.08-2.852-2.08-5.737-5.032-5.41-8.547a8.652,8.652,0,0,1,3.187-5.4c1.6-1.417,3.464-2.516,5.033-3.959,7.339-6.517,7.322-19.115,15.223-24.944C193.423,172.111,211.3,180.331,212.588,184.231Z" transform="translate(-103.759 -169.438)" fill="#d66969"/>
          <path id="Trazado_107114" data-name="Trazado 107114" d="M138.268,262.6a14.147,14.147,0,0,1-.839-7.5c.579-2.072,14.93-22.588,14.93-22.588s9.579,5.787,8.891,10.3c0,0-14.988,20-15.936,20.524C143.124,264.492,139.031,264.047,138.268,262.6Z" transform="translate(-98.837 -178.95)" fill="#f8a588"/>
          <path id="Trazado_107115" data-name="Trazado 107115" d="M166.324,215.731c-2.2.419-6.207,1.543-7.062,2.81s-10.9,15.626-15.8,23.007c1.292,5.452,6.492,7.49,11.516,9.99,5.477-4.9,8.664-10.56,12.581-16.775l5.569-16.708S168.648,215.295,166.324,215.731Z" transform="translate(-99.843 -176.237)" fill="#590212"/>
          <g id="Grupo_55578" data-name="Grupo 55578" transform="translate(0.874 72.055)">
            <path id="Trazado_107116" data-name="Trazado 107116" d="M139.83,256.615c-.839-.327-5.091,2.365-8.077,5.938-2.156,2.583-11.323,25.062-11.323,25.062s0,3.615,1.434,5.033c0,0,19.207-20.7,21.4-25.716C144.5,264.08,140.644,256.934,139.83,256.615Z" transform="translate(-97.004 -254.887)" fill="#f8a588"/>
            <path id="Trazado_107117" data-name="Trazado 107117" d="M113.52,293.863a30.59,30.59,0,0,1-5.8.386c-1.745-.243-.579,2.281,1.157,2.625s2.223.889,4.194,2.181,5.15,2.617,6.123,2.256,2.516-5.326,3.154-6.8-.981-4.194-2.516-3.623S114.9,293.678,113.52,293.863Z" transform="translate(-94.816 -260.405)" fill="#f8a588"/>
            <g id="Grupo_55573" data-name="Grupo 55573">
              <path id="Trazado_107118" data-name="Trazado 107118" d="M125.916,257.185l-2.089-2.625L92.5,271.109l5.083.8S108.478,273.088,125.916,257.185Z" transform="translate(-92.5 -254.56)" fill="#856861"/>
              <path id="Trazado_107119" data-name="Trazado 107119" d="M125.236,308.93l-5.385-1.317L92.5,274.29l5.6.73Z" transform="translate(-92.5 -257.741)" fill="#856861"/>
              <path id="Trazado_107120" data-name="Trazado 107120" d="M108.359,288.984,98.294,276.411l-3.514-.461,11.113,13.529Z" transform="translate(-92.868 -258.009)" fill="#fff"/>
              <path id="Trazado_107121" data-name="Trazado 107121" d="M98.78,271.922s15.1-10.493,28.895-16.582l20.658,38.641-22.076,11.893Z" transform="translate(-93.513 -254.686)" fill="#b28b81"/>
            </g>
            <g id="Grupo_55574" data-name="Grupo 55574" transform="translate(13.895 34.273)">
              <path id="Trazado_107122" data-name="Trazado 107122" d="M113.909,296.122s-.839.772-3.565,2.986-.478,3.791,1.082,2.516,3.691-3.892,4.8-4.865S115.394,294.855,113.909,296.122Z" transform="translate(-109.066 -295.436)" fill="#f8a588"/>
              <path id="Trazado_107123" data-name="Trazado 107123" d="M110.5,302.072a1.853,1.853,0,0,0,.956-.336c.143-.1.268-.218.4-.327l.377-.352c.5-.478.973-.981,1.443-1.493l1.409-1.527c.235-.252.47-.512.713-.755l.369-.369c.126-.126.26-.235.361-.352a.931.931,0,0,0,.134-.2.629.629,0,0,0,.042-.218.537.537,0,0,0-.243-.369,1.451,1.451,0,0,0-.948-.193,2.147,2.147,0,0,0-.948.31,2.039,2.039,0,0,0-.411.294l-.394.336q-1.594,1.334-3.229,2.608l1.577-1.35,1.577-1.35.386-.344a2.517,2.517,0,0,1,.428-.31,2.348,2.348,0,0,1,1.007-.335,1.568,1.568,0,0,1,1.04.218.629.629,0,0,1,.3.478.553.553,0,0,1-.05.285.7.7,0,0,1-.151.235,3.9,3.9,0,0,1-.377.369l-.369.361c-.243.243-.478.495-.713.747-.47.5-.939,1.023-1.417,1.518s-.973.99-1.485,1.459c-.126.117-.252.235-.394.344a3.833,3.833,0,0,1-.411.319A1.87,1.87,0,0,1,110.5,302.072Z" transform="translate(-109.297 -295.422)" fill="#b36650"/>
            </g>
            <g id="Grupo_55575" data-name="Grupo 55575" transform="translate(15.82 35.574)">
              <path id="Trazado_107124" data-name="Trazado 107124" d="M115.252,297.97s-.713.914-2.978,3.573.235,3.875,1.543,2.348,2.944-4.5,3.858-5.653S116.46,296.468,115.252,297.97Z" transform="translate(-111.361 -296.99)" fill="#f8a588"/>
              <path id="Trazado_107125" data-name="Trazado 107125" d="M111.86,304.36a1.359,1.359,0,0,0,1.082.1,1.913,1.913,0,0,0,.906-.629A18.6,18.6,0,0,0,115.156,302c.411-.637.839-1.267,1.216-1.912s.839-1.275,1.258-1.887a.973.973,0,0,0,.235-.461.445.445,0,0,0,0-.235.461.461,0,0,0-.151-.185,1.015,1.015,0,0,0-.495-.185,1.93,1.93,0,0,0-.537,0,2.24,2.24,0,0,0-.973.495,2.8,2.8,0,0,0-.377.394l-.361.436c-.486.579-.973,1.158-1.468,1.728l-.738.839-.377.419c-.117.143-.235.294-.361.436l.344-.453.361-.436.721-.839c.478-.579.956-1.166,1.426-1.753l.352-.436a2.687,2.687,0,0,1,.394-.419,2.374,2.374,0,0,1,1.032-.528,1.9,1.9,0,0,1,.579-.042,1.074,1.074,0,0,1,.562.21.6.6,0,0,1,.252.554,1.183,1.183,0,0,1-.26.545c-.461.587-.839,1.233-1.267,1.862s-.839,1.275-1.233,1.9a20.31,20.31,0,0,1-1.35,1.812,2.021,2.021,0,0,1-.956.621,1.342,1.342,0,0,1-1.124-.126Z" transform="translate(-111.441 -296.973)" fill="#b36650"/>
            </g>
            <g id="Grupo_55576" data-name="Grupo 55576" transform="translate(18.239 36.624)">
              <path id="Trazado_107126" data-name="Trazado 107126" d="M117.839,299.237s-.663.914-2.768,3.59.336,3.7,1.56,2.164,2.692-4.471,3.54-5.628S118.98,297.728,117.839,299.237Z" transform="translate(-114.246 -298.235)" fill="#f8a588"/>
              <path id="Trazado_107127" data-name="Trazado 107127" d="M115.77,305.652a1.786,1.786,0,0,0,.839-.52,3.564,3.564,0,0,0,.31-.394c.1-.134.193-.277.285-.411.377-.562.73-1.132,1.065-1.719l1.015-1.745.52-.839c.084-.143.185-.285.277-.428a3.9,3.9,0,0,0,.268-.419.646.646,0,0,0,.084-.21.629.629,0,0,0,0-.218.512.512,0,0,0-.3-.3,1.392,1.392,0,0,0-.939,0,2.164,2.164,0,0,0-.839.486,3.5,3.5,0,0,0-.336.369l-.3.4c-.839,1.065-1.678,2.122-2.516,3.154l1.216-1.61,1.216-1.61.294-.411a3.767,3.767,0,0,1,.344-.386,2.389,2.389,0,0,1,.889-.528,1.577,1.577,0,0,1,1.04,0,.57.57,0,0,1,.394.671.965.965,0,0,1-.092.26c-.092.159-.193.285-.285.428l-.277.419c-.176.285-.352.57-.52.839-.344.579-.679,1.166-1.032,1.736s-.713,1.149-1.1,1.677l-.31.4a3.533,3.533,0,0,1-.319.386A1.745,1.745,0,0,1,115.77,305.652Z" transform="translate(-114.399 -298.225)" fill="#b36650"/>
            </g>
            <g id="Grupo_55577" data-name="Grupo 55577" transform="translate(20.302 38.214)">
              <path id="Trazado_107128" data-name="Trazado 107128" d="M119.829,301.16s-.579.839-2.424,3.3.419,3.355,1.485,1.963,2.332-4.1,3.07-5.167S120.827,299.768,119.829,301.16Z" transform="translate(-116.705 -300.145)" fill="#f8a588"/>
              <path id="Trazado_107129" data-name="Trazado 107129" d="M117.25,306.931a1.149,1.149,0,0,0,.956,0,1.753,1.753,0,0,0,.755-.6,17.477,17.477,0,0,0,1.048-1.678c.327-.579.646-1.158.965-1.745s.629-1.166,1-1.719a.838.838,0,0,0,.176-.419.361.361,0,0,0,0-.21.487.487,0,0,0-.143-.151.89.89,0,0,0-.436-.134,1.763,1.763,0,0,0-.47.059,2.038,2.038,0,0,0-.839.487,2.191,2.191,0,0,0-.31.369l-.294.4c-.386.537-.788,1.065-1.183,1.594l-.612.788-.3.386-.294.4.277-.411.294-.4.579-.839q.587-.839,1.157-1.61l.285-.411a2.348,2.348,0,0,1,.327-.386,2.147,2.147,0,0,1,.839-.52,2.038,2.038,0,0,1,.512-.067,1.124,1.124,0,0,1,.5.151.528.528,0,0,1,.243.478,1.007,1.007,0,0,1-.2.486c-.369.545-.679,1.132-1.007,1.678s-.637,1.166-.973,1.736a16.647,16.647,0,0,1-1.09,1.678,1.678,1.678,0,0,1-.8.6,1.174,1.174,0,0,1-.965.008Z" transform="translate(-116.793 -300.12)" fill="#b36650"/>
            </g>
          </g>
          <path id="Trazado_107130" data-name="Trazado 107130" d="M162.65,235.281c2.156-1.384,9.293-18.151,9.293-18.151l16.574,2.634,19.174,5.687s-4.462,17.664-3.17,19.878c4.6,7.918-4.194,13.881-7.457,16.993-5.779,9.822-7.264,19.836-9.679,29.625a109.879,109.879,0,0,1-15.668-2.172A110.712,110.712,0,0,1,156.77,284.6c2.29-9.813,5.511-19.409,4.814-30.791C160.117,249.573,154.958,240.246,162.65,235.281Z" transform="translate(-101.99 -176.47)" fill="#590212"/>
          <g id="Grupo_55579" data-name="Grupo 55579" transform="translate(77.664 28.649)">
            <path id="Trazado_107131" data-name="Trazado 107131" d="M195.877,226.6l-8.178-1.963a4.747,4.747,0,0,1-3.514-5.729l3.867-16.1L205.472,207l-3.85,16.1a4.747,4.747,0,0,1-5.745,3.5Z" transform="translate(-184.053 -202.81)" fill="#f8a588"/>
            <path id="Trazado_107132" data-name="Trazado 107132" d="M188.527,202.81,187,209.185c3.489,4.546,8.773,8.312,15.886,10.551l3.061-12.749Z" transform="translate(-184.528 -202.81)" fill="#b36650"/>
          </g>
          <path id="Trazado_107133" data-name="Trazado 107133" d="M253.235,245.744a13.937,13.937,0,0,0-3.992-6.391c-1.745-1.25-25.725-8.463-25.725-8.463s-3.925,10.484-.587,13.588c0,0,22.21,8.388,25.163,7.087C251.608,250.014,253.537,247.355,253.235,245.744Z" transform="translate(-112.441 -178.689)" fill="#f8a588"/>
          <path id="Trazado_107134" data-name="Trazado 107134" d="M208.089,227.861c1.174-1.912,4.378-2.105,5.871-1.678a178.385,178.385,0,0,1,21.5,7.255c1.535,5.385-1.552,12.43-4.714,17.069-6.786-1.51-16.716-3.464-24.533-4.6C206.193,245.9,206.915,229.8,208.089,227.861Z" transform="translate(-109.962 -177.899)" fill="#590212"/>
          <g id="Grupo_55584" data-name="Grupo 55584" transform="translate(80.197)">
            <g id="Grupo_55581" data-name="Grupo 55581" transform="translate(0 3.489)">
              <g id="Grupo_55580" data-name="Grupo 55580" transform="translate(0 15.169)">
                <path id="Trazado_107135" data-name="Trazado 107135" d="M191.206,201.5a3.355,3.355,0,0,1-2.021-1.183,7.791,7.791,0,0,1-1.166-2.038c-.839-1.9-1.376-4.118-.486-5.947a2.516,2.516,0,0,1,1.451-1.367,2.416,2.416,0,0,1,2.3.654,4.018,4.018,0,0,1,1.082,2.189Z" transform="translate(-187.074 -190.897)" fill="#f8a588"/>
                <path id="Trazado_107136" data-name="Trazado 107136" d="M212.44,210.921a3.355,3.355,0,0,0,2.248.637,7.993,7.993,0,0,0,2.29-.579c1.929-.738,3.917-1.862,4.613-3.766a2.516,2.516,0,0,0,0-2,2.407,2.407,0,0,0-2.063-1.208,4.068,4.068,0,0,0-2.332.738Z" transform="translate(-191.164 -193.012)" fill="#f8a588"/>
              </g>
              <path id="Trazado_107137" data-name="Trazado 107137" d="M188.756,197.117c1.837-5.829,1.677-9.746,2.13-13.378.361-2.709,1.443-7.138,5.93-9.537,4.521-2.558,12.732-1.61,18.637,3.045s9.017,11.8,6.383,15.743c-1.5,2.39-4.336,4.009-5.913,6.467-1.308,2.038-1.552,4.546-3.313,6.333-3.154,3.02-12.019,6.895-16.842,4.84C191.834,208.961,188.11,199.718,188.756,197.117Z" transform="translate(-187.333 -172.812)" fill="#f8a588"/>
            </g>
            <path id="Trazado_107138" data-name="Trazado 107138" d="M201.811,193.172a6.391,6.391,0,0,0-1.82-.839,6.308,6.308,0,0,0-2.013-.235,4.6,4.6,0,0,0-1.938.512c.671.084,1.292.159,1.9.268a16.776,16.776,0,0,1,3.506,1.015C202.012,194.087,202.364,193.567,201.811,193.172Z" transform="translate(-188.519 -172.432)" fill="#1a1a1a"/>
            <path id="Trazado_107139" data-name="Trazado 107139" d="M212.5,197.356a6.29,6.29,0,0,1,1.879.746,6.081,6.081,0,0,1,1.535,1.317,4.488,4.488,0,0,1,.939,1.761c-.512-.428-.99-.839-1.485-1.2a16.552,16.552,0,0,0-1.51-1.032,16.294,16.294,0,0,0-1.61-.839C211.691,197.826,211.833,197.222,212.5,197.356Z" transform="translate(-191.077 -173.278)" fill="#1a1a1a"/>
            <path id="Trazado_107140" data-name="Trazado 107140" d="M202.608,202.668a1.963,1.963,0,0,0,0,.386.671.671,0,0,0,.1.361c.075.092.243.117.428,0a.78.78,0,0,0,.252-.268,1.057,1.057,0,0,0,.126-.428,1.1,1.1,0,0,0-.067-.445.839.839,0,0,0-.218-.294.327.327,0,0,0-.428-.042.663.663,0,0,0-.143.344,1.947,1.947,0,0,0-.05.386Z" transform="translate(-189.577 -174.01)" fill="#f2f2f2"/>
            <path id="Trazado_107141" data-name="Trazado 107141" d="M203.635,203.6a2.052,2.052,0,0,0,.134-.193l.109-.168a.84.84,0,0,0,.092-.193,1.773,1.773,0,0,0,.084-.252,2.726,2.726,0,0,1,.168-.5.486.486,0,0,1,.277-.285.2.2,0,0,1,.26.092,1.317,1.317,0,0,1,.134.486,1.937,1.937,0,0,1-.076.839,1.77,1.77,0,0,1-.218.436,2.625,2.625,0,0,1-.327.352,2.751,2.751,0,0,1-.369.268,2.868,2.868,0,0,1-.352.185,3.985,3.985,0,0,1-.6.21c-.336.092-.512.092-.537-.075s.05-.3.277-.47a3.893,3.893,0,0,1,.436-.277,1.6,1.6,0,0,0,.5-.453Z" transform="translate(-189.547 -174.028)" fill="#d1785e"/>
            <g id="Grupo_55582" data-name="Grupo 55582" transform="translate(7.059 21.587)">
              <path id="Trazado_107142" data-name="Trazado 107142" d="M200.239,198a2.793,2.793,0,0,0-1.208-2.944h0a1.527,1.527,0,0,0-1.988.839l-.277.671c-.168.377.99-.7,1.854-.327S200.063,198.413,200.239,198Z" transform="translate(-195.693 -194.48)" fill="#1a1a1a"/>
              <path id="Trazado_107143" data-name="Trazado 107143" d="M199.13,195.153a2.869,2.869,0,0,0-2.047-.4,1.569,1.569,0,0,1-1.594-.361,1.627,1.627,0,0,0,1.476.965,2.148,2.148,0,0,1,1.392.319Z" transform="translate(-195.49 -194.39)" fill="#1a1a1a"/>
            </g>
            <g id="Grupo_55583" data-name="Grupo 55583" transform="translate(19.331 27.131)">
              <path id="Trazado_107144" data-name="Trazado 107144" d="M210.137,202.271a2.785,2.785,0,0,1,2.961-1.166h0a1.527,1.527,0,0,1,.788,2l-.285.663c-.168.377-.554-1.116-1.417-1.476S209.961,202.682,210.137,202.271Z" transform="translate(-210.121 -201.005)" fill="#1a1a1a"/>
              <path id="Trazado_107145" data-name="Trazado 107145" d="M213.26,201a2.885,2.885,0,0,1,1.678,1.2,1.568,1.568,0,0,0,1.359.9,1.619,1.619,0,0,1-1.678-.394c-.7-.788-1.2-.788-1.2-.788Z" transform="translate(-210.628 -201)" fill="#1a1a1a"/>
            </g>
            <path id="Trazado_107146" data-name="Trazado 107146" d="M204.362,208.64a7.691,7.691,0,0,1-6.609-4c-.2-.369.4-.6.6-.243a7.054,7.054,0,0,0,6.1,3.6c.176,0,.294.21.277.369A.335.335,0,0,1,204.362,208.64Z" transform="translate(-188.789 -174.387)" fill="#a33939"/>
            <path id="Trazado_107147" data-name="Trazado 107147" d="M194.054,180.074a1.82,1.82,0,0,1,.352-.57c.587-.31-1.677,5.771-1.677,5.771,6.559,2.055,22.411,9.872,22.411,9.872l3.187-5.544c.545,1.736-5.494,14.259-5.494,14.259,3.472-3.7,8.866-10.518,11.08-14.913a4.873,4.873,0,0,0-1.56-6.089c.839-4.613-2.088-7.616-5.821-10.669A16.934,16.934,0,0,0,200.6,169.6c-5.276,1.8-8.975,4.747-10.115,10.132-1.183,5.636-3.355,9.646-2.424,15.1C188.082,194.794,192.653,182.859,194.054,180.074Z" transform="translate(-187.196 -168.653)" fill="#d66969"/>
          </g>
          <path id="Trazado_107148" data-name="Trazado 107148" d="M219.64,189.414c.931,8.077-.352,16.28-2.516,24.106-1.283,4.58-3.045,9.31-6.71,12.338a10.853,10.853,0,0,1-8.824,2.265,11.743,11.743,0,0,0,17.119-1.392c2.332-2.961,3.087-6.827,3.774-10.535q1.585-8.606,3.187-17.211c.646-3.506,1.753-7.44.6-11C225.7,186.235,219.64,189.414,219.64,189.414Z" transform="translate(-109.217 -171.685)" fill="#d66969"/>
          <g id="Grupo_55586" data-name="Grupo 55586" transform="translate(84.724 221.503)">
            <path id="Trazado_107149" data-name="Trazado 107149" d="M202.694,432.748c-.143,10.862-.268,21.757-.2,24.324l-5.98.268c-1.116-7.381-2.567-16.18-4.043-24.6Z" transform="translate(-192.47 -432.74)" fill="#f0b59c"/>
            <g id="Grupo_55585" data-name="Grupo 55585" transform="translate(2.009 18.11)">
              <path id="Trazado_107150" data-name="Trazado 107150" d="M194.978,461.589c0-3.28,2.13-3.959,2.13-3.959l6.853,2.684s10.828,23.191,9.126,23.7H201.344c-3.514.076-2.609-5.511-3.967-8.471l.067,8.547h-1.535l-.713-11.91a7.478,7.478,0,0,1-.227-1.04C194.777,469.725,194.894,465.967,194.978,461.589Z" transform="translate(-194.865 -454.863)" fill="#b13117"/>
              <path id="Trazado_107151" data-name="Trazado 107151" d="M203.1,456.444c.6,1.678,3.162,8.169,3.825,10.224.512,1.6,1.678,5.183,2.424,7.549a1.745,1.745,0,0,1-1.594,2.273l-7.238.151-3.816-18.1c-.067-.537-.1-3.288,1.048-3.976S202.509,454.766,203.1,456.444Z" transform="translate(-195.158 -454.331)" fill="#f0b59c"/>
            </g>
          </g>
          <g id="Grupo_55588" data-name="Grupo 55588" transform="translate(0 207.681)">
            <path id="Trazado_107152" data-name="Trazado 107152" d="M125.658,416.26l6.156,5.217c-5.737,6.1-11.424,12.212-13.269,14.133l-4.756-3.682A75.957,75.957,0,0,0,125.658,416.26Z" transform="translate(-95.059 -416.26)" fill="#f0b59c"/>
            <g id="Grupo_55587" data-name="Grupo 55587" transform="translate(0 11.178)">
              <path id="Trazado_107153" data-name="Trazado 107153" d="M111.011,432.09s-13.588,9.6-15.743,11.239-3.867,5.133-3.808,6.484l8.924,7.549c1.795.839,15.324-20.038,15.324-20.038Z" transform="translate(-91.458 -429.99)" fill="#b13117"/>
              <path id="Trazado_107154" data-name="Trazado 107154" d="M119.427,434.219c-1.174,1.384-5.5,6.878-7,8.53l-7.029,7.775s-5.527-4.051-5.636-5.225c-.327-3.313,3.623-6.333,3.623-6.333l9.151-7.658c.47-.361,3.1-2.013,4.655-1.677S120.592,432.835,119.427,434.219Z" transform="translate(-92.795 -429.587)" fill="#f0b59c"/>
            </g>
          </g>
          <path id="Trazado_107155" data-name="Trazado 107155" d="M193.041,291.869s9.226,25.85,9.159,30.547,0,38.448,0,38.448-13.42,11.122-18.62,3.355c-2.818-4.194-2.852-39.53-2.852-39.53l-8.278-3.741,1.61-29.759Z" transform="translate(-104.518 -188.412)" fill="#bd9aa0"/>
          <path id="Trazado_107156" data-name="Trazado 107156" d="M204.409,438.211s-12.623,4.051-13.579,0-2.936-42.114-4.076-50.451-3.12-19-2.449-22.814,18.905-2.961,19.342,2.248,2.105,14.259,2.038,19.291S204.409,438.211,204.409,438.211Z" transform="translate(-106.408 -199.924)" fill="#bd9aa0"/>
          <path id="Trazado_107157" data-name="Trazado 107157" d="M157.125,287.47s-10.77,22.386-10.2,27.083,5.628,45.779,5.628,45.779,14.569,11.13,18.973,3.355c2.374-4.194-1.585-44.848-1.585-44.848l6.408.05v-27.8Z" transform="translate(-100.399 -187.812)" fill="#bd9aa0"/>
          <path id="Trazado_107158" data-name="Trazado 107158" d="M113.7,417.676s7.549,11.29,10.359,8.773,24.693-28.518,29.9-34.271,12.1-12.791,12.715-19.291c.52-5.511-12.472-13.579-15.509-9.822s-9.017,9.713-11.592,13.68S113.7,417.676,113.7,417.676Z" transform="translate(-95.045 -199.846)" fill="#bd9aa0"/>
          <path id="Trazado_107159" data-name="Trazado 107159" d="M243.279,250.616c.151.914,6.66,4.42,10.392,5.033s30.925-.47,30.925-.47,5.871-2.164,4.454-4.638-33.709-7.415-38.708-7.113C246.886,243.637,243.137,249.668,243.279,250.616Z" transform="translate(-115.939 -180.708)" fill="#f8a588"/>
        </g>
        <g id="using_laptop" data-name="using laptop" transform="translate(115.362 130.66)">
          <g id="chair" transform="translate(75.89 59.284)">
            <g id="Grupo_55590" data-name="Grupo 55590" transform="translate(0.445 87.264)">
              <rect id="Rectángulo_5915" data-name="Rectángulo 5915" width="72.602" height="5.922" transform="translate(76.427 5.922) rotate(180)" fill="#ccc"/>
              <g id="Grupo_55589" data-name="Grupo 55589" transform="translate(0 4.731)">
                <path id="Trazado_107160" data-name="Trazado 107160" d="M298.69,385.87h10.057L319.608,472.3h-1.9Z" transform="translate(-240.774 -385.87)" fill="#8f93ae"/>
                <path id="Trazado_107161" data-name="Trazado 107161" d="M250.558,385.87H240.51L229.64,472.3h1.9Z" transform="translate(-229.64 -385.87)" fill="#8f93ae"/>
              </g>
            </g>
            <rect id="Rectángulo_5916" data-name="Rectángulo 5916" width="79.715" height="5.964" rx="2.982" transform="translate(79.715 90.518) rotate(180)" fill="#333"/>
            <rect id="Rectángulo_5917" data-name="Rectángulo 5917" width="66.421" height="84.076" rx="33.21" transform="translate(73.072 84.076) rotate(180)" fill="#4d4d4d"/>
            <rect id="Rectángulo_5918" data-name="Rectángulo 5918" width="78.801" height="61.69" rx="30.845" transform="translate(70.707 2.634) rotate(90)" fill="#999"/>
            <path id="Trazado_107162" data-name="Trazado 107162" d="M229.858,378.614h78.255a.839.839,0,0,0,.713-.839v-1.158c0-.47-4.764-1.988-5.108-1.988H234.236c-.352,0-5.116,1.518-5.116,1.988v1.132A.839.839,0,0,0,229.858,378.614Z" transform="translate(-229.112 -292.063)" fill="#999"/>
            <path id="Trazado_107163" data-name="Trazado 107163" d="M229.858,377.239h78.255a.839.839,0,0,0,.713-.839h0c0-.47-4.764-3.12-5.108-3.12H234.236c-.352,0-5.116,2.65-5.116,3.12h0A.839.839,0,0,0,229.858,377.239Z" transform="translate(-229.112 -291.846)" fill="#4d4d4d"/>
          </g>
          <g id="Grupo_55608" data-name="Grupo 55608" transform="translate(66.926)">
            <path id="Trazado_107164" data-name="Trazado 107164" d="M257.084,214.111c-5.62,14.116-8.446,30.556-12.464,46.693a119.2,119.2,0,0,0,35.16,9.654C283.135,256.2,286.432,240,288.47,225.5c0,0-2.458-10.392-11.852-12.162S257.084,214.111,257.084,214.111Z" transform="translate(-222.647 -206.67)" fill="#3f1b1b"/>
            <path id="Trazado_107165" data-name="Trazado 107165" d="M322.533,316.634c1.04-1.417,1.418-4.882,1.1-7.314s-13.009-29.96-13.009-29.96-11.742,4.923-11.742,10.115c0,0,12.833,25.523,13.747,26.4C318.146,321.2,321.442,318.144,322.533,316.634Z" transform="translate(-231.397 -217.417)" fill="#f0b297"/>
            <path id="Trazado_107166" data-name="Trazado 107166" d="M297.929,259.2c2.843.5,5.485,2.265,6.19,3.724s12.095,22.193,16.121,30.723c-4.655,5.033-10.115,7.616-15.785,9.453,0,0-5.091-15.6-8.228-22.747L290.28,258.65a71.625,71.625,0,0,1,7.649.554Z" transform="translate(-230.01 -214.078)" fill="#e39b9b"/>
            <g id="Grupo_55595" data-name="Grupo 55595" transform="translate(24.335 124.84)">
              <g id="Grupo_55592" data-name="Grupo 55592">
                <path id="Trazado_107167" data-name="Trazado 107167" d="M248.84,367.6c-.537-7.457-1.426-12.975,5.871-13.227,4.932-.168,7.926.361,9.059,4.932,0,0,.688,23.779,1.417,36.863.671,11.818,2.583,31.873,4.345,47.809l-6.224,1.862c-1.174-4.915-10.761-39.421-13.126-48.262C244.6,376.7,249.335,374.589,248.84,367.6Z" transform="translate(-247.437 -354.349)" fill="#f8a588"/>
                <g id="Grupo_55591" data-name="Grupo 55591" transform="translate(7.002 83.896)">
                  <path id="Trazado_107168" data-name="Trazado 107168" d="M273.512,461.9c-.268-3.355-2.466-4.068-2.466-4.068l-6.853,2.759S254.212,484.075,256,484.6l12.581.335c3.623.084,2.281-5.662,3.472-8.706l.545,8.79h1.577l-.126-12.246a6.434,6.434,0,0,0,.159-1.065C274.275,470.26,273.881,466.36,273.512,461.9Z" transform="translate(-255.785 -454.931)" fill="#92372b"/>
                  <path id="Trazado_107169" data-name="Trazado 107169" d="M265.875,456.577c-.495,1.728-2.667,8.387-3.2,10.51-.436,1.719-1.434,5.687-2.038,8.069a1.594,1.594,0,0,0,1.493,1.979l6.19.218L272.6,458.7c0-.545-.134-3.355-1.367-4.085S266.37,454.9,265.875,456.577Z" transform="translate(-256.56 -454.374)" fill="#f8a588"/>
                </g>
              </g>
              <g id="Grupo_55594" data-name="Grupo 55594" transform="translate(23.874 4.151)">
                <path id="Trazado_107170" data-name="Trazado 107170" d="M275.9,366.639c0-2.214.419-7.079,7.75-7.331,4.957-.168,6.945,1.77,7.272,6.341,0,0,2,8.773,4.722,20.793,2.516,11.181-9.4,35.228-7.289,57.723l-6.173-.277c-.319-4.915-1.334-28.778-2.156-37.6C278.089,385.46,275.9,366.639,275.9,366.639Z" transform="translate(-275.9 -359.298)" fill="#f8a588"/>
                <g id="Grupo_55593" data-name="Grupo 55593" transform="translate(4.326 77.367)">
                  <path id="Trazado_107171" data-name="Trazado 107171" d="M290.127,457.59s4.286,16.549,4.89,19.291-.377,6.408-1.325,7.423-10.065.755-12.011.193,1.292-25.9,1.292-25.9Z" transform="translate(-281.058 -452.515)" fill="#92372b"/>
                  <path id="Trazado_107172" data-name="Trazado 107172" d="M283.213,453.905c0,1.862-.26,9.05-.176,11.332.092,2.743.344,10.77.344,10.77s7.029.486,7.893-.352c2.458-2.382,1.359-7.381,1.359-7.381l-2.08-12.078c-.126-.6-1.1-3.649-2.516-4.4S283.213,452.043,283.213,453.905Z" transform="translate(-281.374 -451.539)" fill="#f8a588"/>
                </g>
              </g>
            </g>
            <path id="Trazado_107173" data-name="Trazado 107173" d="M221,327.53c-1.417-1.057-3.431-6.131-2.2-11.214.579-2.382,9.226-29.356,9.226-29.356s12.128,3.925,12.581,9.109c0,0-9.78,27.905-10.9,28.518S222.765,328.847,221,327.53Z" transform="translate(-218.423 -218.643)" fill="#f8a588"/>
            <path id="Trazado_107174" data-name="Trazado 107174" d="M242.283,259.91c-2.315.579-6.173,2.516-6.752,4.026s-9.293,24.022-12.581,32.854c3.514,3.69,9.8,5.871,15.6,7.213,4.471-6.4,6.123-17.06,8.656-24.45L249.3,259.08a36.313,36.313,0,0,0-7.012.83Z" transform="translate(-219.153 -214.147)" fill="#e39b9b"/>
            <path id="Trazado_107175" data-name="Trazado 107175" d="M245,393.42s-7.549-20.549-8.253-31.285,9.973-14.712,9.973-14.712l5.083-10.979,30.866-.243s16.154,14.494,18.536,18.738c2.047,3.649,2.667,16.28-6.6,15.039l.889,23.443Z" transform="translate(-221.372 -226.583)" fill="#e5d2b8"/>
            <path id="Trazado_107176" data-name="Trazado 107176" d="M292.328,281.365c-1.879-1.971-6.71-22.445-6.71-22.445H269.455l-17.052.352s-3.942,20.13-5.821,22.093c-6.71,7.037.923,15.785,3.489,19.8,3.54,11.583,2.583,14.947,2.65,25.657A117.966,117.966,0,0,0,269.5,328.5a117.972,117.972,0,0,0,16.733-1.677c.059-10.711-.889-14.074,2.65-25.657C291.405,297.15,299.046,288.4,292.328,281.365Z" transform="translate(-222.529 -214.121)" fill="#d5d9ba"/>
            <g id="Grupo_55597" data-name="Grupo 55597" transform="translate(34.328 30.867)">
              <g id="Grupo_55596" data-name="Grupo 55596" transform="translate(2.214)">
                <rect id="Rectángulo_5919" data-name="Rectángulo 5919" width="19.031" height="22.638" fill="#f8a588"/>
                <path id="Trazado_107177" data-name="Trazado 107177" d="M281.03,242.31v6.97c-4.739,3.825-11.13,6.416-19.04,6.962V242.31Z" transform="translate(-261.99 -242.31)" fill="#1a1a1a"/>
              </g>
              <path id="Trazado_107178" data-name="Trazado 107178" d="M261.984,261.288s-2.609,3.674-2.634,5.871c0,1.56,9.436,16.943,11.29,16.943S284.655,267.5,284.9,266.489a3.8,3.8,0,0,0-1.585-3.791,11.037,11.037,0,0,0-4-1.678Z" transform="translate(-259.35 -245.327)" fill="#f8a588"/>
            </g>
            <g id="Grupo_55602" data-name="Grupo 55602" transform="translate(31.368)">
              <g id="Grupo_55599" data-name="Grupo 55599" transform="translate(0 4.098)">
                <g id="Grupo_55598" data-name="Grupo 55598" transform="translate(0 16.307)">
                  <path id="Trazado_107179" data-name="Trazado 107179" d="M282.89,245.451a3.271,3.271,0,0,0,2.256.26,7.666,7.666,0,0,0,2.105-.9c1.745-1.007,3.472-2.39,3.85-4.328a2.466,2.466,0,0,0-.319-1.912,2.348,2.348,0,0,0-2.172-.839A3.917,3.917,0,0,0,286.5,238.8Z" transform="translate(-260.186 -231.106)" fill="#f8a588"/>
                  <path id="Trazado_107180" data-name="Trazado 107180" d="M260.937,239.8a3.229,3.229,0,0,1-2.122-.839,7.338,7.338,0,0,1-1.434-1.778c-1.074-1.678-1.954-3.741-1.376-5.628a2.432,2.432,0,0,1,1.183-1.535,2.34,2.34,0,0,1,2.307.268,3.984,3.984,0,0,1,1.367,1.938Z" transform="translate(-255.821 -229.836)" fill="#f8a588"/>
                </g>
                <path id="Trazado_107181" data-name="Trazado 107181" d="M281.862,241.475c1.988-5.6,4.378-8.555,6.165-11.633,1.308-2.307,3.061-6.375.981-10.9-2.013-4.63-8.933-8.7-16.238-8.538s-13.9,3.875-14.158,8.48c-.235,2.734,1.023,5.645.839,8.471-.185,2.357-1.459,4.437-1.141,6.853.679,4.194,5.3,12.38,10.233,13.6C272.544,248.856,280.856,243.882,281.862,241.475Z" transform="translate(-256.214 -210.395)" fill="#f8a588"/>
              </g>
              <path id="Trazado_107182" data-name="Trazado 107182" d="M280.231,232.65a5.812,5.812,0,0,1,1.929.386,5.645,5.645,0,0,1,1.677,1,4.286,4.286,0,0,1,1.208,1.527c-.57-.327-1.09-.629-1.627-.9a16.183,16.183,0,0,0-1.619-.721,16.456,16.456,0,0,0-1.678-.545C279.552,233.237,279.577,232.633,280.231,232.65Z" transform="translate(-259.674 -209.885)" fill="#1a1a1a"/>
              <path id="Trazado_107183" data-name="Trazado 107183" d="M269.42,229.964a5.947,5.947,0,0,0-1.9-.52,5.871,5.871,0,0,0-1.954.117,4.412,4.412,0,0,0-1.761.839c.646,0,1.25-.067,1.854-.067a12.387,12.387,0,0,1,1.77.084,15.852,15.852,0,0,1,1.753.277C269.764,230.794,270.007,230.24,269.42,229.964Z" transform="translate(-257.108 -209.363)" fill="#1a1a1a"/>
              <path id="Trazado_107184" data-name="Trazado 107184" d="M274.891,239.977a2.767,2.767,0,0,1-.235.294.6.6,0,0,1-.285.218.344.344,0,0,1-.336-.252.679.679,0,0,1,0-.352,1.023,1.023,0,0,1,.151-.411.939.939,0,0,1,.31-.294.7.7,0,0,1,.336-.1c.218,0,.344.092.361.21a.7.7,0,0,1-.092.361A2.079,2.079,0,0,1,274.891,239.977Z" transform="translate(-258.754 -210.922)" fill="#f2f2f2"/>
              <path id="Trazado_107185" data-name="Trazado 107185" d="M273.257,239.906v-.419a1.151,1.151,0,0,1,0-.21,1.589,1.589,0,0,1,.084-.235,2.594,2.594,0,0,0,.159-.495.5.5,0,0,0-.042-.386.193.193,0,0,0-.26-.076,1.107,1.107,0,0,0-.386.3,1.887,1.887,0,0,0-.428.671,1.484,1.484,0,0,0-.076.47,1.754,1.754,0,0,0,.042.47,3.057,3.057,0,0,0,.126.419,3.431,3.431,0,0,0,.168.352,3.873,3.873,0,0,0,.335.512c.21.26.344.369.461.26s.143-.268.067-.537c-.042-.126-.109-.285-.176-.47a1.6,1.6,0,0,1-.1-.3A1.342,1.342,0,0,1,273.257,239.906Z" transform="translate(-258.48 -210.758)" fill="#d1785e"/>
              <g id="Grupo_55600" data-name="Grupo 55600" transform="translate(19.307 25.524)">
                <path id="Trazado_107186" data-name="Trazado 107186" d="M278.848,237.559A2.692,2.692,0,0,1,281.49,236h0a1.468,1.468,0,0,1,1.065,1.787l-.168.679C282.2,239.245,278.647,238.4,278.848,237.559Z" transform="translate(-278.84 -235.948)" fill="#1a1a1a"/>
                <path id="Trazado_107187" data-name="Trazado 107187" d="M281.61,235.94a2.81,2.81,0,0,1,1.828.889,1.535,1.535,0,0,0,1.443.654,1.569,1.569,0,0,1-1.678-.117c-.839-.646-1.275-.57-1.275-.57Z" transform="translate(-279.287 -235.94)" fill="#1a1a1a"/>
              </g>
              <g id="Grupo_55601" data-name="Grupo 55601" transform="translate(6.483 22.427)">
                <path id="Trazado_107188" data-name="Trazado 107188" d="M268.7,234.995a2.684,2.684,0,0,0-1.61-2.642h0a1.485,1.485,0,0,0-1.778,1.09l-.168.679C264.956,234.911,268.5,235.833,268.7,234.995Z" transform="translate(-263.806 -232.258)" fill="#1a1a1a"/>
                <path id="Trazado_107189" data-name="Trazado 107189" d="M267.165,232.476a2.826,2.826,0,0,0-2.03-.075,1.518,1.518,0,0,1-1.585-.1,1.569,1.569,0,0,0,1.56.7,1.828,1.828,0,0,1,1.392.092Z" transform="translate(-263.55 -232.248)" fill="#1a1a1a"/>
              </g>
              <path id="Trazado_107190" data-name="Trazado 107190" d="M268.774,243.438a7.5,7.5,0,0,0,7.473.772c.369-.176.042-.713-.327-.545a6.886,6.886,0,0,1-6.836-.78.319.319,0,0,0-.31.554Z" transform="translate(-257.888 -211.531)" fill="#a33939"/>
              <path id="Trazado_107191" data-name="Trazado 107191" d="M287.229,224.8a1.677,1.677,0,0,0,.059-.646c-.277-.579-2.089,5.452-2.089,5.452-6.291-2.248-23.158-5.46-23.158-5.46l.772-6.156c-1.443,1.023-4.06,14.259-4.06,14.259-.528-4.907-.721-13.345.126-18.05a4.739,4.739,0,0,1,4.781-3.816c2.08-4.043,6.073-4.68,10.753-4.873a16.473,16.473,0,0,1,13.873,7.306c3.036,4.487,4.194,8.933,1.921,13.781-2.374,5.033-3.02,9.461-6.962,13.135C283.211,239.714,286.683,227.779,287.229,224.8Z" transform="translate(-256.221 -205.509)" fill="#3f1b1b"/>
            </g>
            <g id="Grupo_55603" data-name="Grupo 55603" transform="translate(20.899 43.725)">
              <path id="Trazado_107192" data-name="Trazado 107192" d="M249.3,259.137s-1.761,20.759-3.061,22.076c-8.111,8.178,3.355,21.891,3.355,21.891,2.8,9.226-.352,22.4-1.938,28.216-.47,1.677,10.9,5.167,11.315,5.234.637-25.565,2.114-52.925,0-78.524Z" transform="translate(-243.34 -257.703)" fill="#e39b9b"/>
              <path id="Trazado_107193" data-name="Trazado 107193" d="M299.347,281.15c-1.208-1.4-5.653-22.3-5.653-22.3l-9.277-1.208c-.512,25.28-3.472,53.2,1.074,78.39.78-.117,14.695-6,14.67-7.767,0,0-6.978-16.029-4.194-25.221C295.984,303.042,306.535,289.513,299.347,281.15Z" transform="translate(-249.735 -257.64)" fill="#e39b9b"/>
            </g>
            <g id="Grupo_55605" data-name="Grupo 55605" transform="translate(1.425 99.258)">
              <path id="Trazado_107194" data-name="Trazado 107194" d="M251.372,338.654s-20.969-.99-29.071-4.5c-3.162-1.367-2.516-6.383-.386-8.044a12.212,12.212,0,0,1,6.618-2.265c2.9-.126,21.732,8.522,23.628,9.386S255.977,336.758,251.372,338.654Z" transform="translate(-220.122 -323.848)" fill="#f8a588"/>
              <g id="Grupo_55604" data-name="Grupo 55604" transform="translate(27.408 6.668)">
                <path id="Trazado_107195" data-name="Trazado 107195" d="M267.983,333.58a8.35,8.35,0,0,1,4.194,1c1.552,1.074,5.276,7.3,5.745,8.01s-1.443,1.124-2.114.654c-1.342-.923-4.5-6.509-5.393-6.953s-4.5-.478-4.5-.478Z" transform="translate(-254.915 -332.085)" fill="#f8a588"/>
                <path id="Trazado_107196" data-name="Trazado 107196" d="M265.315,335.43a8.4,8.4,0,0,1,4.194,1.007c1.552,1.074,4.731,6.593,5.4,7.591s-1.56,1.107-2.281.537c-1.283-1.007-4.345-5.628-5.234-6.073a21.808,21.808,0,0,0-4.135-.839Z" transform="translate(-254.486 -332.384)" fill="#f8a588"/>
                <path id="Trazado_107197" data-name="Trazado 107197" d="M261.731,338.137a8.447,8.447,0,0,1,4.085.193c1.568.688,4.789,4.957,5.469,5.72s-1.468,1.216-2.189.839c-1.267-.663-4.387-4.194-5.259-4.429a22.508,22.508,0,0,0-4.026-.042Z" transform="translate(-253.93 -332.792)" fill="#f8a588"/>
                <path id="Trazado_107198" data-name="Trazado 107198" d="M258.665,339.388s2.424-.713,3.615.168c.881.646,4.1,3.766,4.705,4.437a.755.755,0,0,1-.839,1.233c-1.124-.587-4.194-3.28-5.033-3.489a37.277,37.277,0,0,0-4.194-.335Z" transform="translate(-253.464 -332.978)" fill="#f8a588"/>
                <path id="Trazado_107199" data-name="Trazado 107199" d="M263.68,332.647a9.294,9.294,0,0,1,3.3-.839c.8.1,2.139,1.678,2.139,1.678l-1.359.243Z" transform="translate(-254.554 -331.798)" fill="#f8a588"/>
                <path id="Trazado_107200" data-name="Trazado 107200" d="M266.3,333.584l-5.871,7.012s-3.942.965-5.318-.587-2.718-2.08-2.189-3.011,6.274-4.026,8.664-4.445a7.725,7.725,0,0,1,4.714,1.032Z" transform="translate(-252.8 -331.913)" fill="#f8a588"/>
              </g>
            </g>
            <g id="Grupo_55607" data-name="Grupo 55607" transform="translate(53.129 91.391)">
              <path id="Trazado_107201" data-name="Trazado 107201" d="M293.823,335.3s19.853-6.71,26.723-12.279c2.667-2.181.7-6.844-1.837-7.851a12.237,12.237,0,0,0-6.978-.361c-2.835.679-18.57,14.15-20.13,15.5S288.866,334.742,293.823,335.3Z" transform="translate(-283.134 -314.469)" fill="#f8a588"/>
              <g id="Grupo_55606" data-name="Grupo 55606" transform="translate(0 12.219)">
                <path id="Trazado_107202" data-name="Trazado 107202" d="M287.2,332.37a8.362,8.362,0,0,0-3.422,2.617c-.981,1.61-1.82,8.815-2,9.654s1.778.436,2.206-.26c.839-1.392,1.468-7.784,2.1-8.547S290,333.569,290,333.569Z" transform="translate(-281.765 -329.575)" fill="#f8a588"/>
                <path id="Trazado_107203" data-name="Trazado 107203" d="M290.424,333A8.331,8.331,0,0,0,287,335.625c-.981,1.619-1.677,7.943-1.854,9.126s1.879.377,2.307-.436c.763-1.434,1.678-6.9,2.315-7.675a22.131,22.131,0,0,1,3.447-2.432Z" transform="translate(-282.309 -329.676)" fill="#f8a588"/>
                <path id="Trazado_107204" data-name="Trazado 107204" d="M294.637,334a8.642,8.642,0,0,0-3.657,1.828c-1.141,1.241-2.365,6.475-2.676,7.448s1.837.512,2.34-.117c.889-1.124,2.307-5.611,3-6.182a22.336,22.336,0,0,1,3.665-1.677Z" transform="translate(-282.815 -329.838)" fill="#f8a588"/>
                <path id="Trazado_107205" data-name="Trazado 107205" d="M298.086,333.92s-2.516.336-3.238,1.619c-.545.948-2.223,5.108-2.516,5.972a.763.763,0,0,0,1.25.8c.8-1,2.516-4.722,3.154-5.225a37.018,37.018,0,0,1,3.7-2.013Z" transform="translate(-283.463 -329.825)" fill="#f8a588"/>
                <path id="Trazado_107206" data-name="Trazado 107206" d="M291.342,329.76a8.946,8.946,0,0,0-3.355.6c-.688.411-1.267,2.416-1.267,2.416l1.342-.327Z" transform="translate(-282.564 -329.154)" fill="#f8a588"/>
                <path id="Trazado_107207" data-name="Trazado 107207" d="M287.87,332.168l8.237,4.009s4-.713,4.622-2.692,1.678-3,.772-3.64-7.364-1.132-9.721-.545A7.7,7.7,0,0,0,287.87,332.168Z" transform="translate(-282.75 -329.038)" fill="#f8a588"/>
              </g>
            </g>
            <g id="laptop" transform="translate(37.825 74.598)">
              <path id="Trazado_107208" data-name="Trazado 107208" d="M291.843,337.788h51.835a4.588,4.588,0,0,0,4.32-3.674l6.282-35.982a3.011,3.011,0,0,0-3.028-3.682H299.417a4.6,4.6,0,0,0-4.32,3.682l-6.282,35.982a3,3,0,0,0,3.028,3.674Z" transform="translate(-267.587 -294.448)" fill="#fff"/>
              <path id="Trazado_107209" data-name="Trazado 107209" d="M292.992,337.788h51.835a4.571,4.571,0,0,0,4.311-3.674l6.291-35.982a3.011,3.011,0,0,0-3.028-3.682H300.566a4.588,4.588,0,0,0-4.32,3.682l-6.291,35.982a3.011,3.011,0,0,0,3.036,3.674Z" transform="translate(-267.771 -294.448)" fill="#e6e6e6"/>
              <rect id="Rectángulo_5920" data-name="Rectángulo 5920" width="78.222" height="2.198" rx="1.099" transform="translate(0 43.13)" fill="#e6e6e6"/>
            </g>
          </g>
          <g id="desk" transform="translate(0 119.934)">
            <g id="Grupo_55609" data-name="Grupo 55609" transform="translate(34.003 5.058)">
              <path id="Trazado_107210" data-name="Trazado 107210" d="M336.679,392.408H179.17L186.1,354.53H329.751Z" transform="translate(-179.17 -354.53)" fill="#cce3f2"/>
              <path id="Trazado_107211" data-name="Trazado 107211" d="M308.448,392.408h18.134L288.947,354.53H270.57Z" transform="translate(-193.908 -354.53)" fill="#e6e6e6"/>
              <path id="Trazado_107212" data-name="Trazado 107212" d="M242.111,392.408h18.26L222.493,354.53H204.3Z" transform="translate(-183.222 -354.53)" fill="#e6e6e6"/>
            </g>
            <g id="Grupo_55610" data-name="Grupo 55610" transform="translate(15.878 3.682)">
              <path id="Trazado_107213" data-name="Trazado 107213" d="M162.123,467.2,190.984,352.89H174.058L157.56,467.2Z" transform="translate(-157.56 -352.89)" fill="#8f93ae"/>
              <path id="Trazado_107214" data-name="Trazado 107214" d="M381.637,467.833,365.046,352.89H348.12l29.029,114.917Z" transform="translate(-188.288 -352.89)" fill="#8f93ae"/>
            </g>
            <g id="Grupo_55611" data-name="Grupo 55611">
              <rect id="Rectángulo_5921" data-name="Rectángulo 5921" width="213.873" height="3.724" transform="translate(5.569 2.416)" fill="#6b6e83"/>
              <rect id="Rectángulo_5922" data-name="Rectángulo 5922" width="225.012" height="4.009" rx="2.005" fill="#8f93ae"/>
            </g>
          </g>
        </g>
        <g id="Grupo_55612" data-name="Grupo 55612" transform="translate(240.796 168.498)">
          <path id="Trazado_107215" data-name="Trazado 107215" d="M301.4,255.155c2.231,2.692,4.9,5.033,5.4,6.366a65.417,65.417,0,0,1,1.535,9.7c0,1.141-1.594-.587-1.82-1.837s-2.4-6.76-2.4-6.76-6.123-3.758-7.113-4.613l-3.263-.461s-3.313,3.464-4.076,4.152-2.315.285-.931-1.82,3.531-6.869,4.546-7.859c1.166-1.132,2.273-1.753,4.194-.788S301.4,255.155,301.4,255.155Z" transform="translate(-288.179 -250.762)" fill="#f8a588"/>
          <path id="Trazado_107216" data-name="Trazado 107216" d="M300.557,253.506s5.033,3.758,6.089,4.831,3.649,6.039,4.018,6.517-.436,1.451-1.543-.168a33.674,33.674,0,0,0-3.967-4.429c-.327-.252-4.781-3.061-5.871-3.581S299.223,252.491,300.557,253.506Z" transform="translate(-289.896 -251.176)" fill="#f8a588"/>
        </g>
      </g>
    </g>
  </g>
</svg>
