<svg xmlns="http://www.w3.org/2000/svg" xmlns:xlink="http://www.w3.org/1999/xlink" width="500" height="500" viewBox="0 0 500 500">
  <defs>
    <clipPath id="clip-path">
      <circle id="Elipse_4104" data-name="Elipse 4104" cx="212.62" cy="212.62" r="212.62" transform="translate(48.9 49.42)" fill="none"/>
    </clipPath>
    <linearGradient id="linear-gradient" x1="-52.173" y1="-19.118" x2="-51.111" y2="-18.437" gradientUnits="objectBoundingBox">
      <stop offset="0.1" stop-color="#ff4e30"/>
      <stop offset="0.17" stop-color="#fa462d"/>
      <stop offset="0.49" stop-color="#eb2d21"/>
      <stop offset="0.77" stop-color="#e11d1a"/>
      <stop offset="1" stop-color="#de1818"/>
    </linearGradient>
    <radialGradient id="radial-gradient" cx="0.244" cy="-0.565" r="0.955" gradientTransform="matrix(1.38, -0.067, 0.092, 0.998, 51.431, -10.386)" gradientUnits="objectBoundingBox">
      <stop offset="0" stop-color="#bedfed"/>
      <stop offset="0.18" stop-color="#adcedc"/>
      <stop offset="0.42" stop-color="#9cbcca"/>
      <stop offset="0.69" stop-color="#92b1bf"/>
      <stop offset="1" stop-color="#8faebc"/>
    </radialGradient>
  </defs>
  <g id="Grupo_55719" data-name="Grupo 55719" transform="translate(-871 -1622)">
    <g id="CF1_2.2_derechos" data-name="CF1_2.2 derechos" transform="translate(871 1620.16)">
      <g id="Layer_1" data-name="Layer 1">
        <g id="Grupo_54605" data-name="Grupo 54605">
          <rect id="Rectángulo_5632" data-name="Rectángulo 5632" width="500" height="500" transform="translate(0 1.84)" fill="none"/>
          <circle id="Elipse_4103" data-name="Elipse 4103" cx="212.62" cy="212.62" r="212.62" transform="translate(48.9 49.42)" fill="#eef0e3"/>
          <path id="Trazado_104547" data-name="Trazado 104547" d="M261.14,48.93A211.61,211.61,0,0,0,49.38,260.69a7.57,7.57,0,1,0,15.14,0A196.45,196.45,0,0,1,261.14,64.07a7.57,7.57,0,0,0,0-15.14Z" fill="#b3b4aa"/>
          <g id="Grupo_54566" data-name="Grupo 54566">
            <path id="Trazado_104548" data-name="Trazado 104548" d="M73.92,437a203.476,203.476,0,0,1-14.49-16.75c-4.3-5.58-8.36-11.46-12.91-18.48a13.5,13.5,0,0,0-22.67,14.67c4.8,7.4,9.31,14,14.2,20.3a230.454,230.454,0,0,0,16.37,18.93A13.5,13.5,0,1,0,73.921,437Z" fill="#d5d9ba"/>
            <path id="Trazado_104549" data-name="Trazado 104549" d="M98.51,477.56c-3.93-3,3.76,3.21,0,0" fill="#9b6771"/>
            <path id="Trazado_104550" data-name="Trazado 104550" d="M84.23,479.85a12.762,12.762,0,0,0,.6,1.88,12.422,12.422,0,0,0,1,2c.27.44.48.74.65,1,.35.47.58.73.76.94.34.39.53.57.68.72s.41.39.53.5l.5.43.73.61,1.12.9.62.47.61.43.33.21a11.693,11.693,0,0,0,1.07.61,14.26,14.26,0,0,0,3,1.12,15,15,0,0,0,1.62.27H99.6a14.116,14.116,0,0,0,1.84-.13,12.534,12.534,0,0,0,2.35-.55,12.857,12.857,0,0,0,2.48-1.1,13.457,13.457,0,0,0,6.21-15.79,13.4,13.4,0,0,0-.79-2,14.371,14.371,0,0,0-1-1.75c-.24-.35-.43-.57-.58-.76-.29-.35-.46-.54-.61-.7s-.41-.42-.53-.54l-.46-.42c-.18-.17-.34-.31-.53-.47l-.64-.55a3.145,3.145,0,0,0-.29-.22l-.26-.23h0l-1.09-.82-.63-.44c-.16-.11-.34-.23-.79-.5a12.689,12.689,0,0,0-1.17-.61,15.655,15.655,0,0,0-1.5-.59l-.68-.2h-.46l-.24-.05h-.69a12.307,12.307,0,0,0-1.23-.13H97a13.905,13.905,0,0,0-2.1.22,14.136,14.136,0,0,0-2.38.68A13.57,13.57,0,0,0,88,467a13.408,13.408,0,0,0-2.41,3.13,13.16,13.16,0,0,0-1.48,4.07,12.75,12.75,0,0,0-.24,2.52,13.151,13.151,0,0,0,.36,3.13ZM98.34,492ZM100.81,463.71ZM100.68,463.71ZM100.11,463.58Z" fill="#bd9aa0"/>
            <path id="Trazado_104551" data-name="Trazado 104551" d="M408.39,33.37A272.51,272.51,0,0,1,481,101.18" fill="#590212"/>
            <path id="Trazado_104552" data-name="Trazado 104552" d="M402.21,43.07A261,261,0,0,1,471.74,108a11.5,11.5,0,1,0,18.5-13.661A283.931,283.931,0,0,0,414.58,23.67a11.5,11.5,0,1,0-12.37,19.39Z" fill="#deccd0"/>
            <path id="Trazado_104553" data-name="Trazado 104553" d="M458.51,411.23c-2.73,3.57,2.91-3.41,0,0" fill="#9b6771"/>
            <path id="Trazado_104554" data-name="Trazado 104554" d="M462.13,430.25a19.581,19.581,0,0,0,2.61-.85,19.187,19.187,0,0,0,2.71-1.37c.59-.37,1-.66,1.32-.9.63-.47,1-.77,1.25-1,.52-.47.76-.71,1-.91.36-.36.51-.53.65-.68s.36-.43.5-.58l.62-.75c.3-.37.59-.73.89-1.12.15-.19.3-.38.53-.69l.22-.3.23-.34.28-.41.31-.5c.09-.16.21-.35.34-.6a17.67,17.67,0,0,0,.9-1.84,18.257,18.257,0,0,0,.74-2.14,17.755,17.755,0,0,0,.43-1.91,18.486,18.486,0,0,0-14.82-21.24,18,18,0,0,0-3.42-.32,18.49,18.49,0,0,0-7.09,1.41,19.365,19.365,0,0,0-2,.95,20.159,20.159,0,0,0-1.91,1.23c-.4.3-.67.52-.9.7-.42.36-.66.59-.86.77s-.53.52-.68.67l-.51.55-.5.57-.53.62c-.11.13-.2.27-.31.4s-.21.24-.31.37h0c-.33.43-.57.74-.83,1.1l-.22.3-.22.32c-.06.09-.14.2-.23.35s-.16.24-.27.42-.18.29-.3.5-.2.35-.34.6a19.482,19.482,0,0,0-1.54,3.93,18.47,18.47,0,0,0,12.87,22.58,19,19,0,0,0,4,.67h1A19,19,0,0,0,462.13,430.25Z" fill="#eef0e3"/>
            <path id="Trazado_104555" data-name="Trazado 104555" d="M55.27,129.92A247.451,247.451,0,0,1,116.83,64" fill="#590212"/>
            <path id="Trazado_104556" data-name="Trazado 104556" d="M62.44,134.49a238.8,238.8,0,0,1,59.44-63.64,8.5,8.5,0,0,0-10.1-13.68A256,256,0,0,0,48.1,125.35a8.5,8.5,0,1,0,14.34,9.14Z" fill="#f1cdcd"/>
          </g>
          <path id="Trazado_104557" data-name="Trazado 104557" d="M285.55,34.77a231.149,231.149,0,0,0-25.36-1.39,227.681,227.681,0,0,0-82.54,15.43,229.543,229.543,0,0,0,57.69,442.27,9.794,9.794,0,1,0,2.14-19.47A209.936,209.936,0,0,1,260.19,53a214.152,214.152,0,0,1,23.21,1.27,9.794,9.794,0,0,0,2.15-19.47Z" fill="#e6e8d6"/>
          <g id="Grupo_54604" data-name="Grupo 54604" clip-path="url(#clip-path)">
            <path id="Trazado_104558" data-name="Trazado 104558" d="M287.8,279.17c5.14,0,12.06-1.06,15,11.12,1.61,6.78-5.09,8.4-5.09,8.4s-10.88-7.8-10.53-7.92S287.8,279.17,287.8,279.17Z" fill="#c89c9e"/>
            <path id="Trazado_104559" data-name="Trazado 104559" d="M290.22,302.13a2.84,2.84,0,0,1-2.84-2.84V246l-34.75-10.9a4.89,4.89,0,0,1-3.34-4.56V219.91a4.26,4.26,0,0,1,4.26-4.26H326a2.84,2.84,0,0,1,0,5.68H255v8.56l34.75,10.9a4.88,4.88,0,0,1,3.34,4.55v54a2.84,2.84,0,0,1-2.87,2.79Z" fill="#aeb0af"/>
            <path id="Trazado_104560" data-name="Trazado 104560" d="M396.81,154.61c10.41-3.32,36.55-7.81,36.55,20.93,0,21.26-17.39,32.3-17.39,50.75,0,0-16.61-11.6-9.94-36.55,8.17-30.52-2-34.54-12.65-28.33C385.33,166.1,396.81,154.61,396.81,154.61Z" fill="#2c041c"/>
            <path id="Trazado_104561" data-name="Trazado 104561" d="M343.11,155.05c3,.15,6.42-.16,9.94-.05a34.8,34.8,0,0,0-1.31,11.46h0C329.28,167.59,324.58,154.16,343.11,155.05Z" fill="#d86619"/>
            <path id="Trazado_104562" data-name="Trazado 104562" d="M420.7,362.22c.36,4.26,2.84,8.52,3.91,17.74,1.23,10.67-.36,30.17-8.52,37.27s-4.61-21.3-4.61-21.3l.35-34.42Z" fill="#6c6f58"/>
            <g id="Grupo_54568" data-name="Grupo 54568">
              <path id="Trazado_104563" data-name="Trazado 104563" d="M328.14,315.4a12.22,12.22,0,0,1-4.28-.78l-23.78-8.79a7.734,7.734,0,1,1,5.36-14.51L326.19,299l14.3-41.25a7.74,7.74,0,0,1,14.62,5.07l-15.36,44.3a12.34,12.34,0,0,1-11.61,8.29Z" fill="#f28f7c"/>
              <path id="Trazado_104564" data-name="Trazado 104564" d="M331.81,281.64l12.35,12.2,2.37-7.33Z" fill="#d67063"/>
              <path id="Trazado_104565" data-name="Trazado 104565" d="M304.89,291.12c.95,1,1.6,4.85,1.24,10.12a51.572,51.572,0,0,1-.65,6.5l-6.09-2.3Z" fill="#d67063"/>
              <path id="Trazado_104566" data-name="Trazado 104566" d="M299.21,305.44l-7.2-2.69a7.739,7.739,0,1,1,5.411-14.5l7.189,2.692c1.11.59,1.34,3.73-.9,8.82C302.26,303,299.63,305.59,299.21,305.44Z" fill="#c89c9e"/>
              <g id="Grupo_54567" data-name="Grupo 54567">
                <path id="Trazado_104567" data-name="Trazado 104567" d="M331.81,281.64l15.92,5.25,7,2.32,3.83-11.76c3.7-11.4,8.35-23.89,11.21-31.11l4.54-11.5a12.25,12.25,0,0,0,3.2-3.69c.89-2,.37-4.06-5.27-4.8h-.3a22,22,0,0,0-13,2.27h-.05c-.3.15-.61.32-.91.49h-.06c-5.91,3.45-10.33,9.52-13.21,16.39-4.77,11.43-7.34,18.9-9.11,24.35Z" fill="#d66969"/>
                <path id="Trazado_104568" data-name="Trazado 104568" d="M339.43,284.38l13.24-33.77,15.51,43.31Z" fill="#c67560" opacity="0.6"/>
              </g>
            </g>
            <g id="Grupo_54570" data-name="Grupo 54570">
              <path id="Trazado_104569" data-name="Trazado 104569" d="M111.72,360.17l-4.15,21.72,5.34,1.02.26-1.38-1.81-.34,3.88-20.35Z" fill="#5dd1ce"/>
              <path id="Trazado_104570" data-name="Trazado 104570" d="M116.67,351.44l-2.16,11.35-11.36-2.16a11.57,11.57,0,1,1,13.52-9.19Z" fill="#ffe552" stroke="#ffe552" stroke-miterlimit="10" stroke-width="0.44"/>
              <path id="Trazado_104571" data-name="Trazado 104571" d="M119.18,351.92,117,363.27l-11.35-2.17a11.56,11.56,0,1,1,13.52-9.18Z" fill="#ffab2e" stroke="#ffab2e" stroke-miterlimit="10" stroke-width="0.65"/>
              <g id="Grupo_54569" data-name="Grupo 54569">
                <path id="Trazado_104572" data-name="Trazado 104572" d="M107.84,358.28a8.7,8.7,0,0,1-1.61-.16,8.53,8.53,0,0,1,1.59-16.9,8.693,8.693,0,0,1,1.61.15,8.53,8.53,0,0,1-1.59,16.91Z" fill="#211d1e"/>
                <path id="Trazado_104573" data-name="Trazado 104573" d="M107.82,341.64a8,8,0,0,1,1.53.14,8.11,8.11,0,0,1-1.51,16.08,7.931,7.931,0,0,1-1.53-.15,8.11,8.11,0,0,1,1.51-16.07Zm0-.84a8.94,8.94,0,0,0-1.67,17.73,8.791,8.791,0,0,0,1.69.16A8.94,8.94,0,0,0,109.51,341a9.669,9.669,0,0,0-1.69-.16Z" fill="#ea8b24"/>
              </g>
            </g>
            <path id="Trazado_104574" data-name="Trazado 104574" d="M128.68,142.82c-4.92,6.08-7.8,11.78-6.86,15.47,1.21,4.75,8.19,3.63,36.47,2.8,28-.82,39.94-9.11,34.51-23.68C189.56,128.69,128.68,142.82,128.68,142.82Z" fill="#cc741d"/>
            <g id="Grupo_54578" data-name="Grupo 54578">
              <g id="Grupo_54577" data-name="Grupo 54577">
                <path id="Trazado_104575" data-name="Trazado 104575" d="M195.24,557.49H184.65c-9.24,0-6.14-12.85-6.14-12.85S164,546,163.13,528.3c-2.39-47-7.06-135.79-9.26-174.62-.21-3.77-3.54-7.28-2.44-6.33l2.06-14.21L191,336s1.27,12,1.81,30C194.62,426.72,196.13,557.49,195.24,557.49Z" fill="#35362f"/>
                <g id="Grupo_54576" data-name="Grupo 54576">
                  <g id="Grupo_54575" data-name="Grupo 54575">
                    <g id="Grupo_54574" data-name="Grupo 54574">
                      <path id="Trazado_104576" data-name="Trazado 104576" d="M154.08,539c5.08-2,7-202.47,7-202.47l-37-3.41-2.87,14.21c-1-1-3.36,6.32-3.36,6.32l4,184.1C150.29,542,146.74,541.86,154.08,539Z" fill="#6c6f58"/>
                      <path id="Trazado_104577" data-name="Trazado 104577" d="M187.53,354.57a8,8,0,0,1-6.06-13.12l22.73-26.78a3.61,3.61,0,0,0,.35-1.48l-15.17-62.54a8,8,0,0,1,15.47-3.75l15.2,62.64a18.43,18.43,0,0,1-3.64,15.35l-22.8,26.87A8,8,0,0,1,187.53,354.57ZM204.58,313.3ZM204.58,313.15Z" fill="#f28f7c"/>
                      <g id="Grupo_54571" data-name="Grupo 54571">
                        <path id="Trazado_104578" data-name="Trazado 104578" d="M212.3,277l-16.83,3.24L188,281.68l-2.74-12.52c-2.64-12.12-6.14-25.48-8.34-33.23l-3.49-12.35a13.16,13.16,0,0,1-2.91-4.19c-.71-2.1,0-4.19,5.88-4.19h.31a23.16,23.16,0,0,1,13.09,4h0c.3.19.6.41.89.62h.06c5.7,4.31,9.63,11.09,11.87,18.48,3.74,12.3,5.62,20.26,6.88,26.07Z" fill="#ffd047"/>
                        <path id="Trazado_104579" data-name="Trazado 104579" d="M201.72,279.07l-9.52-40.24-14.57,44.56Z" fill="#c67560" opacity="0.6"/>
                      </g>
                      <path id="Trazado_104580" data-name="Trazado 104580" d="M193,332.81l-71.9,33.36-2.61,30.66c.36,8.46,6.76,2.91,15.13,1.66l44.24-13.59c8.38-1.26,16.16-2.46,16.15-10.93Z" fill="#6c6f58"/>
                      <path id="Trazado_104581" data-name="Trazado 104581" d="M191,349.25s.17-.29.36-.68a.79.79,0,0,1-.36.68Z" fill="#ffd047"/>
                      <path id="Trazado_104582" data-name="Trazado 104582" d="M194.32,237.52s-.41,19.88-.9,42.72c-.62,28.81-1.34,62.35-1.49,66.65a5.39,5.39,0,0,1-.57,1.68c-.13-1.06-3.33-2.92-24.64-2.76-34.75.28-48.64,26.36-48.64,26.36V236.89c0-12,11-21.86,22.29-21.77h34.86a8.451,8.451,0,0,1,1.51.09,17.24,17.24,0,0,1,8,2.79C190.67,221.88,194.32,229.28,194.32,237.52Z" fill="#ffd047"/>
                      <path id="Trazado_104583" data-name="Trazado 104583" d="M138.46,244.26l-3.3-.02h-.87L115.52,282.1l7.91-.39-.22,23.32,27.05-9.53-11.58-1.96Z" fill="#c67560" stroke="#fffcee" stroke-miterlimit="10" stroke-width="0.93" opacity="0.6"/>
                      <path id="Trazado_104584" data-name="Trazado 104584" d="M194.06,350.08s-2.47,1.35-6.51,3.46C169.3,363,119,388,118.08,374.38c-.07-.93-.1-2-.16-3.17v-1.67c-.35-11.31-.26-34.38-.06-55.67.22-24,.57-45.75.57-45.75l7.06-2L125,293.37c.79,0,9.17-.8,13.27-1.15,1.16-.1,2-.17,2.18-.17,4.41,0,5.55-16.05,5.82-29.24.13-6.27.06-3.52.06-6.46h42.9c0,43.81.43,35.42,4.52,35.42,0,0,0,1,.09,3C194,302.07,194.41,322.6,194.06,350.08Z" fill="#6c6f58"/>
                      <g id="Grupo_54572" data-name="Grupo 54572">
                        <path id="Trazado_104585" data-name="Trazado 104585" d="M125.75,163.16c.33,16.68,7.08,20.29,13.77,20.29,5.48,0,10-7.57,9.83-9.34s-2.16-12.19-3.74-12.78S125.75,163.16,125.75,163.16Z" fill="#8e3925"/>
                        <path id="Trazado_104586" data-name="Trazado 104586" d="M143,179.81c-1.09-2.18-1.76,4.75-1.77,3.92-.28-14.56-14.52-3.67-15.51-19.8-.84-13.75.81-13.91.44-20.59-.73-13.28,7-27.36,35.35-27.14,15.79.12,19.84,6.25,23.4,14.3,6.64,15,1.28,34.22,1.28,34.22Z" fill="#8e3925"/>
                        <path id="Trazado_104587" data-name="Trazado 104587" d="M168.56,216.14s.22,5.6-8.91,5.6a22.52,22.52,0,0,1-14.82-5.6v-27.8L168.56,187Z" fill="#ffb287"/>
                        <path id="Trazado_104588" data-name="Trazado 104588" d="M168.56,210.19c-6.22.76-23.56-1.47-23.56-5.55s-.17-22.21-.17-22.21l23.73.16Z" fill="#e5785c"/>
                        <path id="Trazado_104589" data-name="Trazado 104589" d="M189.06,173.53c0,5.47-4.76,18.06-7.72,21.83-1.26,1.61-3,5.26-7,6.47-3.64,1.1-5.8,1.88-5.8,3.85,0,2.13-4.48-2-6-2-18.18,0-27.17-19.6-27.17-32.94l5.6-17.51c0-14.61,9.7-25.12,23.81-25s25.48,9.73,25.48,24.35Z" fill="#e5785c"/>
                        <path id="Trazado_104590" data-name="Trazado 104590" d="M190.62,152l-.19,5.8-.11,3.3-.39,12.45c-.54,15.32-4,29.48-22.59,29.33s-23.56-22.62-23.05-37.19l.88-12.68v-1.57c.38-19,8.11-26,21.76-26,17.06,0,23.13,10,23.65,22.9C190.66,149.54,190.66,150.75,190.62,152Z" fill="#ffb287"/>
                        <path id="Trazado_104591" data-name="Trazado 104591" d="M174.07,177.06c2.64,0,4.9-1.49,4.78-3,0-.56-.6-1.23-1.63-.74a9,9,0,0,1-3.14.48,8.72,8.72,0,0,1-2.88-.52c-1.69-.5-2.22.16-2.26.71C168.82,175.51,171.42,177,174.07,177.06Z" fill="#e5785c"/>
                        <path id="Trazado_104592" data-name="Trazado 104592" d="M144.56,164.35c.39,5.45-2.38,10.13-6.18,10.45s-7.2-3.83-7.58-9.27,1.73-9.69,5.49-10.36S144.18,158.91,144.56,164.35Z" fill="#e5785c"/>
                        <path id="Trazado_104593" data-name="Trazado 104593" d="M160.65,163.15a2.38,2.38,0,0,0,2.36,2.36,2.33,2.33,0,0,0,2.37-2.32,2.38,2.38,0,0,0-2.37-2.37,2.34,2.34,0,0,0-2.36,2.33Z" fill="#422b27"/>
                        <path id="Trazado_104594" data-name="Trazado 104594" d="M181.51,163.51a2.36,2.36,0,0,0,2.36,2.36,2.33,2.33,0,0,0,2.36-2.32,2.37,2.37,0,0,0-2.36-2.36,2.32,2.32,0,0,0-2.36,2.32Z" fill="#422b27"/>
                        <path id="Trazado_104595" data-name="Trazado 104595" d="M156.55,155a1.48,1.48,0,0,1,0-2.95l10.63-.22a1.48,1.48,0,0,1,.06,2.96l-10.63.21Z" fill="#8e3925"/>
                        <path id="Trazado_104596" data-name="Trazado 104596" d="M188.9,155.67h0l-10.63-.21a1.5,1.5,0,0,1,.06-3l10.63.21a1.48,1.48,0,0,1,0,2.95Z" fill="#8e3925"/>
                        <path id="Trazado_104597" data-name="Trazado 104597" d="M138.84,151a26.69,26.69,0,0,1,9.48-20.5c-2.78-3.46-3.79-8.63-3.2-9.11,1-.79,13.73-10.26,28.78-1.56,10.3,6,15,10,13.25,14.19a.91.91,0,0,0,.07.14l-.09-.09c-1.6,3.76-5.14,6.2-8.28,6.2-13.18,0-12.9-7.74-22.72-7-3.83.29-9.11,1.27-9.11,10.85a138.58,138.58,0,0,1-2.31,22.71c-3.09.2-3.13-1.8-3.13-1.8,0-5.51-.82-8.59-4.32-10.23Z" fill="#8e3925"/>
                      </g>
                      <path id="Trazado_104598" data-name="Trazado 104598" d="M171.85,189h0c-3.69,0-6.31-.52-7.77-1.55a1.612,1.612,0,1,1,1.85-2.64c.86.61,3.08,1,5.92,1,1.57,0,3.75-.1,5-1a1.611,1.611,0,1,1,1.86,2.63C176.72,188.81,174,189,171.85,189Z" fill="#e5785c"/>
                      <g id="Grupo_54573" data-name="Grupo 54573">
                        <path id="Trazado_104599" data-name="Trazado 104599" d="M177.33,389.83Z" fill="#602c34"/>
                        <path id="Trazado_104600" data-name="Trazado 104600" d="M177.3,388.63Z" fill="#602c34"/>
                        <path id="Trazado_104601" data-name="Trazado 104601" d="M177.32,387.5Z" fill="#602c34"/>
                        <path id="Trazado_104602" data-name="Trazado 104602" d="M177.76,393.55v-.24A.393.393,0,0,0,177.76,393.55Z" fill="#602c34"/>
                        <path id="Trazado_104603" data-name="Trazado 104603" d="M177.54,392.21v0Z" fill="#602c34"/>
                        <path id="Trazado_104604" data-name="Trazado 104604" d="M177.42,391.08v-.18A.717.717,0,0,0,177.42,391.08Z" fill="#602c34"/>
                      </g>
                    </g>
                    <path id="Trazado_104605" data-name="Trazado 104605" d="M155.46,257.18l-4.26.22-4.89-.22c.15-11.8-2.36-36.44-13.11-40.33a1.69,1.69,0,0,0-1.62-.86c-.53.09-1.05.2-1.54.33h-.41s3.08-.58,5.25-.89a48.99,48.99,0,0,1,5.49-.31C152.74,215.13,155.63,244.17,155.46,257.18Z" fill="#6c6f58"/>
                    <path id="Trazado_104606" data-name="Trazado 104606" d="M174.29,215.13a29,29,0,0,0-5.5,0h-.23v1a4,4,0,0,1-.11.89c9.62,3.54,11.93,29.69,11.78,41l5.31-.41,3.67.41C189.37,245,186.66,215.13,174.29,215.13Z" fill="#6c6f58"/>
                  </g>
                  <path id="Trazado_104607" data-name="Trazado 104607" d="M189.7,219.26a11,11,0,0,0-4.95-1.26c-4.25-.3-9.77.5-14.33,1.39-1.7.34-3.25.68-4.57,1a5,5,0,0,0,2.71-4.24v-1h6.67a8.451,8.451,0,0,1,1.51.09,22.55,22.55,0,0,1,12.96,4.02Z" fill="#c67560" opacity="0.6"/>
                  <path id="Trazado_104608" data-name="Trazado 104608" d="M140.58,551.5c-3.94,2.86-11.28,2.6-11.28,2.6l-1.3-2.6-4.87-12.37c-1.42-.59-4-3.44-4.68-9.28-3-24.29-.62-87-.72-148.2,0-14.22-.06-28-.07-40.77-.09-41.56-.15-72.31-.15-72.31l8-2.43L125,293.37c.79,0,9.17-.8,13.26-1.16v64.3l-.12,2.4-.62,12-.57,10.74-.86,16.51s-8,84.7-1.42,124.73c1.22,7.39,2.94,13.19,5.31,16.54C144.45,545.84,143.38,549.46,140.58,551.5Z" fill="#a6aa91"/>
                </g>
                <path id="Trazado_104609" data-name="Trazado 104609" d="M204.32,532.63c-.18.93-.39,1.79-.61,2.6-1.2,4.28-2.89,4.69-4.14,5.38l-3.36,3.8-11.56,13.08-6.21-.32L177.36,542l-.29-4L166.31,389l27.42-22.74C195.24,416.86,210.37,502.79,204.32,532.63Z" fill="#6c6f58"/>
                <path id="Trazado_104610" data-name="Trazado 104610" d="M164.44,400.93l8.4-15.12-12.45,4.47Z" fill="#35362f"/>
                <path id="Trazado_104611" data-name="Trazado 104611" d="M190.65,150.23v-.18c-.05-13.7-5.88-24.61-23.69-24.61-13.65,0-19.51,9.49-20.57,29.22.23-2.8,5.11-3.81,11.54-4.83,2.85,3.24,17.57,11.41,32.39,7.91l.11.06.11-3.36.08-2.44Q190.65,151.1,190.65,150.23Z" fill="#c67560" opacity="0.6"/>
                <path id="Trazado_104612" data-name="Trazado 104612" d="M138.24,292.22v48.23H117.63c.06-37.8.09-72.33.09-72.33l7.73-2L125,293.37C125.76,293.37,134.14,292.57,138.24,292.22Z" fill="#35362f"/>
                <path id="Trazado_104613" data-name="Trazado 104613" d="M146.8,344.2v34.14a3.32,3.32,0,0,1-3.31,3.31H117.68c0-14.22-.05-28-.07-40.77h27.2c.92,0,.44.39,1,1A3.3,3.3,0,0,1,146.8,344.2Z" fill="#35362f"/>
              </g>
              <rect id="Rectángulo_5633" data-name="Rectángulo 5633" width="10.92" height="8.47" rx="1.68" transform="translate(145.34 246.09)" fill="#473f3c"/>
              <rect id="Rectángulo_5634" data-name="Rectángulo 5634" width="10.92" height="8.47" rx="1.68" transform="translate(179.35 246.09)" fill="#473f3c"/>
              <rect id="Rectángulo_5635" data-name="Rectángulo 5635" width="6.72" height="3.04" rx="1.14" transform="translate(148.7 248.38)" fill="#6c6f58"/>
              <rect id="Rectángulo_5636" data-name="Rectángulo 5636" width="6.72" height="3.04" rx="1.14" transform="translate(182.6 248.38)" fill="#6c6f58"/>
              <rect id="Rectángulo_5637" data-name="Rectángulo 5637" width="75.59" height="14.83" rx="1.99" transform="translate(117.59 341.72)" fill="#35362f"/>
              <rect id="Rectángulo_5638" data-name="Rectángulo 5638" width="78.93" height="14.83" rx="3.31" transform="translate(115.81 337.74)" fill="#663b39"/>
              <path id="Trazado_104614" data-name="Trazado 104614" d="M148.1,350.59a1.75,1.75,0,0,1-1.77,2H135a1.83,1.83,0,0,1-2-1.61v-9.13a2,2,0,0,1,2-2h.11c1.09,0,1.91-.48,1.81-1s.73-1.05,1.82-1.05h5.91a2.27,2.27,0,0,1,2.2,2Z" fill="#663b39"/>
              <path id="Trazado_104615" data-name="Trazado 104615" d="M133.2,216.85a8.47,8.47,0,0,0-3.16-.53c.49-.13,1-.24,1.54-.33a1.69,1.69,0,0,1,1.62.86Z" fill="#6c6f58"/>
              <path id="Trazado_104616" data-name="Trazado 104616" d="M157.45,494c-1.24,16.51,5.56,40.28-4.06,45.81-.28.16-.87.31-1.21.53-3.94,2.51-10.11,11.16-10.11,11.16H128l-5.53-11.36c-3.78-1.66-5-7.1-4.73-21.06-.12,10,2,13.73,9.58,13.51a7.84,7.84,0,0,0,7.36-9.7c-.14-.74,0-1.55-.14-2.39C132.61,507.49,158.14,484.79,157.45,494Z" fill="#6c6f58"/>
              <path id="Trazado_104617" data-name="Trazado 104617" d="M146.87,395a4.21,4.21,0,0,1-3.38-4.15l1.12-36.46c.06-1.95,1.1-3.64,2.3-3.76s3.05,1.13,4.11,2.77l1,1.58a13.4,13.4,0,0,1,1.82,6.53l-1,30.95a3,3,0,0,1-3.61,2.95Z" fill="#35362f"/>
            </g>
            <path id="Trazado_104618" data-name="Trazado 104618" d="M137.56,117c.83-3.38,3.57-8.3,12-8.69s8.51,6.29,7.74,7.49a46.543,46.543,0,0,1-3.14,3.82l-7.93,1.5Z" fill="#fff1aa"/>
            <path id="Trazado_104619" data-name="Trazado 104619" d="M125.5,158.49c0,1.21-1.88-1-2.17-1.94-.43-1.36-1-2.64,0-3.64.54-.54,13.59-13.07,47.79-12.1,14.79.42,19.14,1.91,20.46,6.49s-1.55,8.31-1.41,7.57c.24-1.26.5-4.11-.63-5.62,0,0-1.39-2.89-18.52-3.35-32-.87-43.87,10.53-44,10.64C126.49,157.06,125.42,157.83,125.5,158.49Z" fill="#603a4b"/>
            <path id="Trazado_104620" data-name="Trazado 104620" d="M191.76,142.87c-1.19-1-2.41-1.17-4.92-1.2h-3.33c-1.77,0-4,0-6.73-.07a121.169,121.169,0,0,0-34,3.74c-10.05,2.71-17.72,7.56-20.43,11.89-.79.55-1.56-5-1.9-10.73-.11-1.89-.17-3.81-.17-5.54v-1.12a31.561,31.561,0,0,1,1.21-8.06c2.8-9.58,10.4-17.77,23.49-21.32a39.521,39.521,0,0,1,4.64-1c.9-.15,1.82-.29,2.77-.4a1.719,1.719,0,0,0,.18,0c1.86-.22,3.79-.35,5.84-.42H161c4.57.1,6.75.4,10.21,1.67a11,11,0,0,1,3.91,2.89c8.81,3.53,12.67,8.25,15.32,14.6C193.76,135.55,193.34,142.79,191.76,142.87Z" fill="#ffd047"/>
            <path id="Trazado_104621" data-name="Trazado 104621" d="M186.84,141.67c-.21.65-.5,1-.85,1a4.8,4.8,0,0,0-2.48-1c-2.12-.34-5.48,0-12.54-.24l-6.88-.39c1.71-.08,2.17-7.84-1.38-16.24-2.31-5.53-8.43-14.45-14.14-15.21.89-.16,2.9-.45,3.85-.56a1.721,1.721,0,0,0,.18,0c1.86-.22,3.79-.35,5.84-.42a34.41,34.41,0,0,1,8.77,2c.24.09.49.18.72.29a30.33,30.33,0,0,1,16.76,16.67C187.26,133.64,187.57,139.38,186.84,141.67Z" fill="#fff" opacity="0.6"/>
            <path id="Trazado_104622" data-name="Trazado 104622" d="M187.09,127.61a37.41,37.41,0,0,0-17.31-18c-.24-.11-.48-.2-.73-.29-3.44-1.3-8-1.24-12.53-1.35h-2.25c-1.61,0-3.23.26-4.73.4a14.51,14.51,0,0,1,3.62,1.09c5.47,2.47,9.87,9.75,12.07,15,3.54,8.39,3,16.58,1.28,16.67l6.87.39c10.43.29,12.79-.5,15,1.28C190,142.7,190.38,135.45,187.09,127.61Z" fill="#ffd047"/>
            <path id="Trazado_104623" data-name="Trazado 104623" d="M121.82,158.15c2.33-4.84,10.93-10.1,21-12.81a121.37,121.37,0,0,1,34-3.75c10.42.3,12.77-.5,15,1.28,1.58-.08,2-7.32-1.29-15.15-2.65-6.35-6.29-11.06-15.1-14.59,7.44,4.89,8.82,17.63,8.92,21.5,0,1.55-8.6,0-34.49,5.47C129,144.54,117.6,151.89,121.82,158.15Z" fill="#bf9c35"/>
            <path id="Trazado_104624" data-name="Trazado 104624" d="M203.87,140.07l-12.65,3a11.78,11.78,0,0,0-4-1.54,61.759,61.759,0,0,0-12.92-1.48,80.569,80.569,0,0,0-14.3,1.61c-6.76,1.21-12.8,2.67-12.8,2.67l-.43-3.43s3.83-2.47,13.33-4.43a132.519,132.519,0,0,1,27.3-2.33c1.56,0,3.19,0,4.86.09,11,.32,10.8,1.78,11.6,2.86C204.19,137.58,203.87,140.07,203.87,140.07Z" fill="#ffd047"/>
            <path id="Trazado_104625" data-name="Trazado 104625" d="M187.37,134.14l-.14,7.39a61.759,61.759,0,0,0-12.92-1.48A80.572,80.572,0,0,0,160,141.66l.1-5.19a132.52,132.52,0,0,1,27.27-2.33Z" fill="#fff" opacity="0.5"/>
            <path id="Trazado_104626" data-name="Trazado 104626" d="M192.18,136.76c-33.59-1-45.37,7.63-45.37,7.63a171.2,171.2,0,0,1,27.45-1.8c13.58.38,16.91,3,16.91,3C194.78,144.75,217.1,137.66,192.18,136.76Z" fill="#cc741d"/>
            <path id="Trazado_104627" data-name="Trazado 104627" d="M143.65,337.73v34.15a3.32,3.32,0,0,1-3.31,3.31H111.83a3.32,3.32,0,0,1-3.31-3.31V337.73a3.32,3.32,0,0,1,3.31-3.31h28.51A3.33,3.33,0,0,1,143.65,337.73Z" fill="#ad5945"/>
            <path id="Trazado_104628" data-name="Trazado 104628" d="M142.6,334.85c.06-.24,0-.39-1.55-.42H139.3c-2.52.2-2.83,1.12-2.83,1.12a7,7,0,0,0-.94,4.31V353a4.31,4.31,0,0,1-4.31,4.31H112.83a4.31,4.31,0,0,1-4.31-4.31v4.6a6.24,6.24,0,0,0,4.31,1.7h18.39a6.3,6.3,0,0,0,5.14-2.67V371.9a3.32,3.32,0,0,0,3.32,3.31H141a3.33,3.33,0,0,0,3.32-3.31V337.74A3.32,3.32,0,0,0,142.6,334.85Z" fill="#663b39"/>
            <g id="Grupo_54580" data-name="Grupo 54580">
              <g id="Grupo_54579" data-name="Grupo 54579">
                <path id="Trazado_104629" data-name="Trazado 104629" d="M152.6,327.12a8.85,8.85,0,0,1-2.94,16.07l-1.3-6.2,2.85-2.27Z" fill="#8faebc"/>
                <path id="Trazado_104630" data-name="Trazado 104630" d="M149.74,335.9l1.43-1.13-.22,1.35,5.29,1a8.83,8.83,0,0,1-1.23,2.5c-2.22-.38-5.43-1-5.6-1a3.461,3.461,0,0,1-.86-.75l-.19-.88Z" fill="#5b363d" opacity="0.2"/>
                <path id="Trazado_104631" data-name="Trazado 104631" d="M145.28,325.35l-1.49,8.12,1.71,2.37,12.22,2.25a5.156,5.156,0,0,1-.26.53h0a9.091,9.091,0,0,1-1.31,1.81c-1.12,1.29-2.46,2.5-3.33,3.34-2.42,2.35-2.9,4.18-3.37,10.57l-2.84,31.11-6.51.71,2.36-38.53v-.31c.4-6.68-3.34-8.19-3.93-11.73a6.769,6.769,0,0,1-.15-1.71,8.319,8.319,0,0,1,.15-1.56,8.84,8.84,0,0,1,6.75-6.97Z" fill="#bad4dd"/>
                <path id="Trazado_104632" data-name="Trazado 104632" d="M143.62,340.21a1.35,1.35,0,0,0,1.07,1.44l4.29.79a1.35,1.35,0,0,0,1.51-1l.48-1.82a1.12,1.12,0,0,0-.9-1.4l-4.92-.9a1.11,1.11,0,0,0-1.33,1Z" fill="#7c4a45"/>
                <path id="Trazado_104633" data-name="Trazado 104633" d="M142.78,391.25a4,4,0,0,1-3.27-4.14l2-31.57c.12-2,1.18-2.85,2.35-2a5.17,5.17,0,0,0,4.08.86c1.07-.36,1.9.93,1.84,2.88l-1,31.45a3,3,0,0,1-3.61,3Z" fill="#f4b321"/>
                <path id="Trazado_104634" data-name="Trazado 104634" d="M141.4,390l2.11-33.16c.13-2,1.24-3,2.47-2.12a5.91,5.91,0,0,0,3.64,1c-.29-1.05-.91-1.62-1.67-1.37a5.17,5.17,0,0,1-4.08-.86c-1.17-.83-2.23.07-2.35,2l-2,31.57a4,4,0,0,0,1.92,3.62,4.46,4.46,0,0,1-.04-.68Z" fill="#ffd55f"/>
                <path id="Trazado_104635" data-name="Trazado 104635" d="M149.88,356.16,141.63,354l-.35,4.54,8.42,1.31Z" fill="#ab794c" opacity="0.6"/>
              </g>
              <path id="Trazado_104636" data-name="Trazado 104636" d="M143.6,340.42a.17.17,0,0,0,.13.18l6.53,1.2a.18.18,0,0,0,.19-.12l.51-2a.13.13,0,0,0-.11-.17L144,338.23a.15.15,0,0,0-.17.13Z" fill="#808c8c"/>
              <path id="Trazado_104637" data-name="Trazado 104637" d="M140.48,353.5a1.26,1.26,0,0,0,1,1.48l8.47,1.8a1.27,1.27,0,0,0,1.48-1h0a1.26,1.26,0,0,0-1-1.48l-8.47-1.8a1.26,1.26,0,0,0-1.48,1Z" fill="#ffbd39"/>
            </g>
            <path id="Trazado_104638" data-name="Trazado 104638" d="M150.47,351.22a1.42,1.42,0,0,1-.63-.15l-12.07-6A1.425,1.425,0,0,1,139,342.5l12.07,6a1.42,1.42,0,0,1-.64,2.69Z" fill="#663b39"/>
            <rect id="Rectángulo_5639" data-name="Rectángulo 5639" width="5.44" height="4.85" rx="1.42" transform="translate(118.29 356.78)" fill="#bad4dd"/>
            <g id="Grupo_54588" data-name="Grupo 54588">
              <path id="Trazado_104639" data-name="Trazado 104639" d="M336.64,360.12V393.3a3.23,3.23,0,0,0,3.22,3.22h27.71a3.23,3.23,0,0,0,3.22-3.22V360.12a3.23,3.23,0,0,0-3.22-3.22H339.86A3.24,3.24,0,0,0,336.64,360.12Z" fill="#ad5945"/>
              <g id="Grupo_54586" data-name="Grupo 54586">
                <g id="Grupo_54585" data-name="Grupo 54585">
                  <path id="Trazado_104640" data-name="Trazado 104640" d="M342.59,559.47h10.28c9,0,6-12.49,6-12.49s15.49,1.36,16.37-15.87c2.32-45.63,9-132,11.12-169.69.21-3.67,3.45-7.07,2.38-6.16l-2-13.8-36.44,2.81s-1.24,11.65-1.77,29.14C346.74,432.4,341.72,559.47,342.59,559.47Z" fill="#35362f"/>
                  <g id="Grupo_54584" data-name="Grupo 54584">
                    <g id="Grupo_54583" data-name="Grupo 54583">
                      <g id="Grupo_54582" data-name="Grupo 54582">
                        <path id="Trazado_104641" data-name="Trazado 104641" d="M386.14,541.53c-4.94-1.91-6.81-196.76-6.81-196.76l35.92-3.31L418,355.27c1-.93,3.27,6.15,3.27,6.15l-3.9,178.9C389.81,544.45,393.26,544.29,386.14,541.53Z" fill="#a6aa91"/>
                        <path id="Trazado_104642" data-name="Trazado 104642" d="M348.29,341.14l69.86,32.42,2.54,29.79c-.36,8.22-6.57,2.83-14.71,1.61l-43-13.2c-8.14-1.22-15.7-2.39-15.69-10.62Z" fill="#a6aa91"/>
                        <path id="Trazado_104643" data-name="Trazado 104643" d="M350.25,357.12s-.16-.29-.34-.67a.79.79,0,0,0,.34.67Z" fill="#ffd047"/>
                        <path id="Trazado_104644" data-name="Trazado 104644" d="M347,248.54s-.74,20.5-.26,42.7c.6,28,4.35,59.23,4.49,63.41,0,.44-1.6,1.29-1.35,1.8.12-1,3.23-2.83,23.94-2.68,33.77.27,47.27,25.62,47.27,25.62V247.93c0-11.7-10.69-21.24-21.67-21.15H365.58a14.172,14.172,0,0,0-1.47.08,16.679,16.679,0,0,0-7.78,2.71C350.58,233.34,347,240.54,347,248.54Z" fill="#d66969"/>
                        <path id="Trazado_104645" data-name="Trazado 104645" d="M406.15,260.72l3.08-.24-2.95-19.6,17.78,50.98-7.6,16.43-.09,34.01-26.29-26.06,11.21,5.19Z" fill="#c67560" opacity="0.6"/>
                        <path id="Trazado_104646" data-name="Trazado 104646" d="M421.37,322.73c-.21-23.33-.55-44.45-.55-44.45L414,276.35l.64,39.19.06,3.64v.43h-.12c-1.27.05-9,.84-12.87.54h-.15l-1.87-.16h-.25a.74.74,0,0,1-.39-.12h0c-4-2.42-5-40-5.25-52.44-.13-6.09-.06-3.41-.06-6.27h-8.83s-.48,3.82-12.78,3.82c-13.48,0-11.59-3.82-11.59-3.82h-2.72l-2.72-6.36c-8.77,7.72-9.5,52.19-8.68,66.72.25,17.44.91,17.18,1.15,36.92a57.814,57.814,0,0,1,6.09,2.84c17.73,9.23,66.66,33.47,67.51,20.25.07-.89.09-1.91.15-3.07v-1.63C421.65,365.85,421.56,343.42,421.37,322.73Z" fill="#a6aa91"/>
                        <path id="Trazado_104647" data-name="Trazado 104647" d="M401.67,320.16s-3.81.09-5.82-1.79c-2.57-2.4-4.82-7-6.08-12.82a48.527,48.527,0,0,1-.89-6.27c-.9-11.69.64-26,3.21-37,.1-.46.21-.91.32-1.35,1.66-6.72,3.69-12.08,5.76-14.66l2.84,6.62.31,51.51.08,3.12.05,2.14.18,7.86Z" fill="#c83737"/>
                        <g id="Grupo_54581" data-name="Grupo 54581">
                          <path id="Trazado_104648" data-name="Trazado 104648" d="M363.54,396.55Z" fill="#602c34"/>
                          <path id="Trazado_104649" data-name="Trazado 104649" d="M363.57,395.39Z" fill="#602c34"/>
                          <path id="Trazado_104650" data-name="Trazado 104650" d="M363.55,394.29Z" fill="#602c34"/>
                          <path id="Trazado_104651" data-name="Trazado 104651" d="M363.12,400.16a.4.4,0,0,1,.05-.23C363.15,400,363.14,400.09,363.12,400.16Z" fill="#602c34"/>
                          <path id="Trazado_104652" data-name="Trazado 104652" d="M363.33,398.86a.37.37,0,0,0,0-.11.369.369,0,0,1,0,.11Z" fill="#602c34"/>
                          <path id="Trazado_104653" data-name="Trazado 104653" d="M363.45,397.76v-.17A.741.741,0,0,1,363.45,397.76Z" fill="#602c34"/>
                        </g>
                      </g>
                      <path id="Trazado_104654" data-name="Trazado 104654" d="M366.49,226.78a28.259,28.259,0,0,1,5.34,0h.23v-.14s0-.39.11.12c-10.68,3.1-11.59,25-11.45,36l-5.16-.39-3.56.39C351.84,250.13,354.47,226.78,366.49,226.78Z" fill="#a6aa91"/>
                    </g>
                    <path id="Trazado_104655" data-name="Trazado 104655" d="M399.25,553.65c3.83,2.78,11,2.53,11,2.53l1.31-2.53,4.73-12c1.38-.58,3.85-3.35,4.54-9,2.91-23.6.6-84.49.71-144,0-13.82.05-27.21.07-39.61.08-40.4.14-70.28.14-70.28L414,276.35l.71,43.26c-.77,0-9.15.88-13.13.53v44l.12,2.33.6,11.66.56,10.44.83,16S411.44,487,405,525.85c-1.19,7.18-2.86,12.82-5.15,16.08C395.49,548.16,396.53,551.67,399.25,553.65Z" fill="#6c6f58"/>
                  </g>
                  <path id="Trazado_104656" data-name="Trazado 104656" d="M333.76,535.32q.27,1.35.6,2.52c1.16,4.16,2.8,4.56,4,5.23l3.26,3.69,11.23,12.72,6-.32,1-14.7.28-3.92,14-144.84L347.6,373.6C346.14,422.82,327.88,506.32,333.76,535.32Z" fill="#a6aa91"/>
                  <path id="Trazado_104657" data-name="Trazado 104657" d="M376.06,407.33l-8.16-14.69,12.1,4.34Z" fill="#35362f"/>
                </g>
                <rect id="Rectángulo_5640" data-name="Rectángulo 5640" width="10.61" height="5.39" rx="1.63" transform="translate(350.73 257.82)" fill="#473f3c"/>
                <path id="Trazado_104658" data-name="Trazado 104658" d="M347.43,376.46a1.75,1.75,0,0,0,1.93,1.77l70.31-6.06a2.15,2.15,0,0,0,1.93-2.09V359.53a1.75,1.75,0,0,0-1.93-1.76l-70.31,6.05a2.16,2.16,0,0,0-1.93,2.1Z" fill="#35362f"/>
                <path id="Trazado_104659" data-name="Trazado 104659" d="M345.69,371.31a2.9,2.9,0,0,0,3.21,2.93l71.21-6.51a3.61,3.61,0,0,0,3.21-3.52v-8a2.9,2.9,0,0,0-3.21-2.93l-71.21,6.51a3.61,3.61,0,0,0-3.21,3.52Z" fill="#ad5945"/>
                <path id="Trazado_104660" data-name="Trazado 104660" d="M406.42,228.45a8.24,8.24,0,0,1,3.08-.51c-.49-.13-1-.23-1.5-.32a1.66,1.66,0,0,0-1.58.83Z" fill="#6c6f58"/>
                <path id="Trazado_104661" data-name="Trazado 104661" d="M382.86,497.78c1.2,16-5.41,39.15,3.94,44.52.28.15.84.3,1.18.51,3.82,2.44,9.82,10.84,9.82,10.84h13.72l5.36-11c3.68-1.61,4.83-6.9,4.6-20.47.12,9.68-1.89,13.34-9.3,13.13a7.63,7.63,0,0,1-7.16-9.43c.14-.72,0-1.5.14-2.32C407,510.89,382.18,488.83,382.86,497.78Z" fill="#a6aa91"/>
                <path id="Trazado_104662" data-name="Trazado 104662" d="M401.67,320.16s-3.81.09-5.82-1.79c-3.43-3.2-6.29-10.26-7-19.09-.9-11.69.64-26,3.21-37l1.59-.33c-1,8.94-4.83,46.83,7.77,47.71l.18,7.86Z" fill="#c67560" opacity="0.6"/>
              </g>
              <path id="Trazado_104663" data-name="Trazado 104663" d="M421.29,345.18c-.05-36.73.17-66.9.17-66.9l-7.27,7.77.47,26.84c0,6.74-8.47,7.06-13.13,7.26h0a11.494,11.494,0,0,1-1.88-.17h0l-.62-.12h0a6.83,6.83,0,0,1-3.15-1.5c-2.57-2.4-4.82-7-6.08-12.82-4.22.7-11.88,2-12,3.08-.18,1.42-1.42,10.29-1.42,10.29C379,320,421.29,345.18,421.29,345.18Z" fill="#35362f"/>
              <g id="Grupo_54587" data-name="Grupo 54587">
                <path id="Trazado_104664" data-name="Trazado 104664" d="M431.17,315.66H393.26a7.74,7.74,0,0,1,0-15.48h33.93l-11.45-40.93a7.735,7.735,0,1,1,14.9-4.16l12.52,44.76a12.2,12.2,0,0,1-12,15.81ZM428.26,304Z" fill="#ffb287"/>
                <path id="Trazado_104665" data-name="Trazado 104665" d="M425.44,293.96l16.08.36-1.3-4.74Z" fill="#d67063"/>
                <path id="Trazado_104666" data-name="Trazado 104666" d="M402.9,245.18l11.32,52,26.42-7.54s-8-29.07-11.85-42.12c-2.8-9.39-8.29-18-19.27-19.65a8.32,8.32,0,0,0-3,.79C403,234.17,402.9,245.18,402.9,245.18Z" fill="#d66969"/>
              </g>
            </g>
            <g id="Grupo_54589" data-name="Grupo 54589">
              <path id="Trazado_104667" data-name="Trazado 104667" d="M398,300.66c-6,0-5.82-7.34-8.15-8.51-.35-.17-1.07-.43-1.07-.43L388.1,303s1.75,2.81-3.51,2.58c-.51,0,.36,2.61.92,3s-7.3-4.52-6-3.79,6.87.42,7.46.67a37.768,37.768,0,0,0,5.55.71C393.2,306.16,398,300.66,398,300.66Z" fill="#eae3c3"/>
              <path id="Trazado_104668" data-name="Trazado 104668" d="M375.71,309.13a35.645,35.645,0,0,1-4.45-.27,2.762,2.762,0,1,1,.69-5.48c6.12.77,12.25-.6,16.72-1.6l.61-.13a2.76,2.76,0,1,1,1.2,5.38l-.61.14a64.44,64.44,0,0,1-14.16,1.96Z" fill="#eae3c3"/>
              <path id="Trazado_104669" data-name="Trazado 104669" d="M377.27,314.94a29.438,29.438,0,0,1-3.65-.22,2.76,2.76,0,1,1,.68-5.47,31.139,31.139,0,0,0,16.71-3,2.76,2.76,0,0,1,2.58,4.88,37.25,37.25,0,0,1-16.32,3.81Z" fill="#eae3c3"/>
              <path id="Trazado_104670" data-name="Trazado 104670" d="M379.14,319.53a20.592,20.592,0,0,1-2.47-.15,2.761,2.761,0,0,1,.68-5.48c4.22.53,8.57-1,12.41-2.29a45.7,45.7,0,0,1,4.93-1.51,2.76,2.76,0,1,1,1.19,5.38c-1.22.28-2.72.79-4.32,1.34C388,318.05,383.71,319.53,379.14,319.53Z" fill="#eae3c3"/>
              <path id="Trazado_104671" data-name="Trazado 104671" d="M388.14,301.92A60,60,0,0,1,378,303.51c-2.79.09-2.46,2.09-2.46,4.51,0,3.79,4,7.07,4,7.07s6.72.17,7.24-.35,4.83-2.07,4.31-3.62-1.89-4.65-2.58-5.17S388.14,301.92,388.14,301.92Z" fill="#eae3c3"/>
            </g>
            <g id="Grupo_54593" data-name="Grupo 54593">
              <rect id="Rectángulo_5641" data-name="Rectángulo 5641" width="20.72" height="33.3" transform="translate(372.5 197.84)" fill="#ffb287"/>
              <path id="Trazado_104672" data-name="Trazado 104672" d="M372.53,219.41c5.45.83,10.8-.86,15.36-2.95,3.31-1.51,5.31,2.18,5.31,2.18l.06,7.86.08-35.33H372.53Z" fill="#f58d6c"/>
              <path id="Trazado_104673" data-name="Trazado 104673" d="M371.59,217.57Z" fill="#ffb287"/>
              <path id="Trazado_104674" data-name="Trazado 104674" d="M374.13,253.09c4.75-.3,19.66-24.78,28.77-26a36.362,36.362,0,0,1-6.79-4.55c-1.7-1.51-2.83-3-2.83-4.29a1.63,1.63,0,0,1-.06.47c-.32,1.66-2.12,6.53-12.23,6.53-7.95,0-8.48-5.07-8.49-6.41a10.63,10.63,0,0,1-1,4.76,9.59,9.59,0,0,1-3.34,3.61C364,236,370.37,253.33,374.13,253.09Z" fill="#ffb287"/>
              <g id="Grupo_54592" data-name="Grupo 54592">
                <g id="Grupo_54591" data-name="Grupo 54591">
                  <path id="Trazado_104675" data-name="Trazado 104675" d="M410.65,171.76c-.61-1.65.12-6.63-.06-8.28-2-17.91-8.24-29.94-27.39-29.94-20.9,0-13.82,13.11-13.82,34s-6.22,34.39,14.4,37.86C405.79,209.12,415.73,185.48,410.65,171.76Z" fill="#2c041c"/>
                  <g id="Grupo_54590" data-name="Grupo 54590">
                    <path id="Trazado_104676" data-name="Trazado 104676" d="M354.52,162.41c2,13.52,4.7,17.25,11.76,17.73l13.55-45.9c-13.95-.34-22.78,10.42-26.56,20.72C352.16,158,353.45,155.32,354.52,162.41Z" fill="#301b24"/>
                    <path id="Trazado_104677" data-name="Trazado 104677" d="M353.15,188.26c0,5.18,4.51,17.17,7.32,20.76a10.71,10.71,0,0,0,6.17,4.62c3.45,1.08,8.65,1.93,10,5.44.74,1.89.22-1.78,1.65-2,15.07-2.63,25.78-18.39,25.78-31.05l-3.38-17.64c0-13.86-11-25.2-24.35-25.2S352,154.5,352,168.36Z" fill="#f58d6c"/>
                    <path id="Trazado_104678" data-name="Trazado 104678" d="M352.32,187.9c.51,14.55,6.35,27.12,21.42,26.59,17.52-.61,22.37-18.2,21.88-32.05l-.84-12c-.48-13.85-6.29-27.8-19.67-27.33s-23.93,12.18-23.45,26Z" fill="#ffb287"/>
                    <path id="Trazado_104679" data-name="Trazado 104679" d="M404.91,167.38c12.79-2.39-13-25.89-16.34-27-2.32-.76,1.15-6.78-6.29-6.88-7.16-.09-14.83,1.48-19.76,4.76-6.79,4.53-7.32,5.42-5.08,11.22C362.38,162.3,393.31,169.55,404.91,167.38Z" fill="#2c041c"/>
                    <path id="Trazado_104680" data-name="Trazado 104680" d="M393.72,168.38c.21,6.58.7,8.68,1.2,9.94.91,2.24,2.43,1.34,2.69-.14.33-1.94,1.27-4.85,5.79-6.16.5-.15-9.75-6.16-9.75-6.16Z" fill="#2c041c"/>
                    <path id="Trazado_104681" data-name="Trazado 104681" d="M378.25,196.69s-2.17,6.68-8.75,6.68c-7.28,0-7.2-6.68-7.2-6.68Z" fill="#8e2b30"/>
                    <path id="Trazado_104682" data-name="Trazado 104682" d="M384.6,172.4l-10.73-1.12Z" fill="#bcb2af" stroke="#472736" stroke-linecap="round" stroke-miterlimit="10" stroke-width="3.17"/>
                    <path id="Trazado_104683" data-name="Trazado 104683" d="M351.79,172.31l9.08-.84Z" fill="#bcb2af" stroke="#472736" stroke-linecap="round" stroke-miterlimit="10" stroke-width="3.17"/>
                    <path id="Trazado_104684" data-name="Trazado 104684" d="M378.37,151.11c4.33,6.91-1.9,13.46,6.44,15.42,7,1.65,8.35,3,9.47,9,.78,4.2,8.82-7.56,8.82-7.56s2-9.38.49-10.13-13-2.8-14.12-3.36S378.37,151.11,378.37,151.11Z" fill="#2c041c"/>
                    <path id="Trazado_104685" data-name="Trazado 104685" d="M369.25,207.35a14.711,14.711,0,0,0,3.38-.37c1.09-.23,1.67.7.68,1.37a6.38,6.38,0,0,1-4.21,1,5.66,5.66,0,0,1-2.43-.77c-1.06-.63-1-1.89,0-1.64a11.561,11.561,0,0,0,2.58.41Z" fill="#f58d6c"/>
                    <path id="Trazado_104686" data-name="Trazado 104686" d="M366.23,191.66c-2.56,0-4.74-1.81-4.63-3.62a.982.982,0,0,1,1.59-.86,7.17,7.17,0,0,0,3,.59,7,7,0,0,0,2.79-.59c1.63-.59,2.14.2,2.19.86C371.31,189.85,368.8,191.65,366.23,191.66Z" fill="#f58d6c"/>
                    <path id="Trazado_104687" data-name="Trazado 104687" d="M365.68,202.48c1.83-2.24,6.5-2.13,10.16-1.87a8.52,8.52,0,0,1-6.34,2.76,8,8,0,0,1-3.85-.85Z" fill="#d85365"/>
                    <path id="Trazado_104688" data-name="Trazado 104688" d="M380.66,178.48a2.24,2.24,0,1,1-2.24-2.22,2.24,2.24,0,0,1,2.24,2.22Z" fill="#422b27"/>
                    <path id="Trazado_104689" data-name="Trazado 104689" d="M360.31,178.68a2.23,2.23,0,1,1-.657-1.58A2.24,2.24,0,0,1,360.31,178.68Z" fill="#422b27"/>
                    <path id="Trazado_104690" data-name="Trazado 104690" d="M362.24,178.15a.81.81,0,0,1-.47-.14,6.46,6.46,0,0,0-3.3-.78,9.73,9.73,0,0,0-3.22.72.85.85,0,0,1-.66-1.56,11.62,11.62,0,0,1,3.88-.85,7.93,7.93,0,0,1,4.24,1.07.84.84,0,0,1-.47,1.54Z" fill="#2c041c"/>
                  </g>
                  <path id="Trazado_104691" data-name="Trazado 104691" d="M361.83,197.48a20.87,20.87,0,0,0,6.7.89c3.35,0,9-.34,10.38-.84v-1.38H361.68Z" fill="#ffb287"/>
                  <path id="Trazado_104692" data-name="Trazado 104692" d="M397.2,179.22c-.35,4.24,2.14,7.9,5.56,8.17s6.47-2.93,6.82-7.17-1.56-7.56-4.94-8.1S397.55,175,397.2,179.22Z" fill="#f58d6c"/>
                  <path id="Trazado_104693" data-name="Trazado 104693" d="M404.22,185.58a1.64,1.64,0,1,0,3.19.25c.09-1.09-.4-1.94-1.27-2.08a1.89,1.89,0,0,0-1.92,1.83Z" fill="#fff"/>
                  <path id="Trazado_104694" data-name="Trazado 104694" d="M406,182.07c-1.07,2.88-3.66,4-5.47,3.41-2.35-.76,1.08-11.32,3.95-10.45C407.12,175.84,407.08,179.18,406,182.07Z" fill="#f58d6c"/>
                </g>
                <path id="Trazado_104695" data-name="Trazado 104695" d="M383.76,177.87a.87.87,0,0,1-.32-.06,12.881,12.881,0,0,0-4.3-.86,9.81,9.81,0,0,0-3.22.72.84.84,0,0,1-1.1-.45.85.85,0,0,1,.44-1.11,11.69,11.69,0,0,1,3.88-.85,14.38,14.38,0,0,1,4.94,1,.84.84,0,0,1-.32,1.62Z" fill="#2c041c"/>
                <path id="Trazado_104696" data-name="Trazado 104696" d="M365.36,181.51c2.17-.08,1.77,5.75,1.77,5.75l-.91.51c-1.79-.05-4.15,0-4.64-2.25S362,181.62,365.36,181.51Z" fill="#ffb287"/>
              </g>
              <path id="Trazado_104697" data-name="Trazado 104697" d="M373.27,160.13l-24.92-2.5c-2.65,2.77-2,9.94-1.35,10.11,3.27.76,15.62,1.3,25.22.45a20.541,20.541,0,0,1,1.05-8.06Z" fill="#2c041c"/>
              <path id="Trazado_104698" data-name="Trazado 104698" d="M351.74,170.27l.18,5.48c.77-3.84,12.73-4.64,25.9-4.13,7.86.32,15.94.89,16.21,4.13-.36-18-7-30.57-19.94-30.57C356.48,145.18,351.26,156.47,351.74,170.27Z" fill="#c67560" opacity="0.6"/>
            </g>
            <path id="Trazado_104699" data-name="Trazado 104699" d="M384.79,262l4.14.21,4.75-.21c-.15-11.47,2.29-29.74,12.74-33.52a1.66,1.66,0,0,1,1.58-.83c.51.09,1,.19,1.5.32a2.54,2.54,0,0,1,.39,0s-3-.57-5.1-.87a47.9,47.9,0,0,0-5.34-.3C387.43,226.78,384.63,249.32,384.79,262Z" fill="#a6aa91"/>
            <rect id="Rectángulo_5642" data-name="Rectángulo 5642" width="10.61" height="5.39" rx="1.63" transform="translate(383.55 257.82)" fill="#473f3c"/>
            <g id="Grupo_54594" data-name="Grupo 54594">
              <path id="Trazado_104700" data-name="Trazado 104700" d="M353.05,158.36c1.91-1.47,3.9-.74,12.73-.74a101.3,101.3,0,0,1,28.44,4c8.32,2.52,14.58,6.1,16.42,10.21.86.64,2.19-7.51,2.32-13.37v-1a27.278,27.278,0,0,0-.86-6.81c-2.52-9.57-10.59-17.73-25.3-20.07a1.062,1.062,0,0,1-.14,0c-1.65-.26-3.37-.43-5.19-.55-.64,0-1.26-.06-1.88-.06a30,30,0,0,0-10.15,1.52,5.5,5.5,0,0,0-.61.23,25.2,25.2,0,0,0-14.45,13.74C351.47,152.05,351.71,158.25,353.05,158.36Z" fill="#bf9c35"/>
              <path id="Trazado_104701" data-name="Trazado 104701" d="M394.22,161.59c2.71-12.36,8.23-30.4-19.88-30.22C349,131.54,349,157.62,349,157.62Z" fill="#ffd047"/>
              <path id="Trazado_104702" data-name="Trazado 104702" d="M337.93,155.23c7.32-.19,9.81,3.32,25.2,8.34,11.67,3.82,23-.19,31.09-2-2.75-2.51-30.77-6.82-46.23-6.93C344,154.64,338.6,155.13,337.93,155.23Z" fill="#ffe391"/>
            </g>
            <g id="Grupo_54602" data-name="Grupo 54602">
              <path id="Trazado_104703" data-name="Trazado 104703" d="M153.83,337.18a7.887,7.887,0,0,1-2.289-.34L110.63,324.62a15.23,15.23,0,0,1-10.5-17.21l11.5-61.63a8,8,0,0,1,15.65,2.92l-11.36,60.88,40.18,12a8,8,0,0,1-2.27,15.59Z" fill="#ffb287"/>
              <path id="Trazado_104704" data-name="Trazado 104704" d="M138.46,248l-6.63,39.76-27.8-5.2s5.39-30.55,8.13-44.29c2-9.89,6.78-19.29,17.88-22a8.47,8.47,0,0,1,3.16.53C137.29,222.13,138.46,248,138.46,248Z" fill="#ffd047"/>
              <g id="Grupo_54601" data-name="Grupo 54601">
                <path id="Trazado_104705" data-name="Trazado 104705" d="M155.06,321.66c5.94,1.5,7.65-5.86,10.28-6.44.38-.08,1.16-.16,1.16-.16l-2.19,11.44s-2.45,2.36,2.85,3.46c.51.11-1,2.51-1.67,2.75s8.42-2.67,6.92-2.27-6.95-1.32-7.61-1.22a38.505,38.505,0,0,1-5.71-.69C158.44,328.34,155.06,321.66,155.06,321.66Z" fill="#ffb287"/>
                <path id="Trazado_104706" data-name="Trazado 104706" d="M148.54,341.49l-3.63,8.92a3.52,3.52,0,0,0,1.92,4.56l22.56,9.18a3.51,3.51,0,0,0,4.56-1.92l3.63-8.92Z" fill="#332a2d"/>
                <rect id="Rectángulo_5643" data-name="Rectángulo 5643" width="10.04" height="16.83" rx="1.75" transform="matrix(0.377, -0.926, 0.926, 0.377, 195.119, 327.747)" fill="#aeb0af"/>
                <path id="Trazado_104707" data-name="Trazado 104707" d="M239.55,340.08,238.33,338l-22.82-9.29-1.11,2.71,22.83,9.29,2.31-.62h0Z" fill="#aeb0af"/>
                <path id="Trazado_104708" data-name="Trazado 104708" d="M180.08,330.36l-2.72-1.11-4.92,7.83,2.82,1.14a1.34,1.34,0,0,0,1.62-.27q1.95-3,3.76-6C181.1,331.21,180.91,330.76,180.08,330.36Z" fill="#231f20"/>
                <g id="kCjpPz.tif">
                  <path id="Trazado_104709" data-name="Trazado 104709" d="M202.94,319.67a1.72,1.72,0,0,0-.19-1.45,26.28,26.28,0,0,0-8.15-7.28,31.143,31.143,0,0,0-3-1.21l-23.76-9.67L160,319.47l3.19,1.36a2,2,0,0,1,1.47,2.12,5,5,0,0,1-.76,1.64c-.44.72-6.06,9.83-8.44,13.67a3.83,3.83,0,0,1-1.48,1.4,4.51,4.51,0,0,1-2.12.33,4.52,4.52,0,0,0-2.54.52c-.61.41-.75,1-1.06,1.79l29,11.82a3,3,0,0,0-.21-3.27c-.5-.61-6.43-4.68-6.79-5a1.9,1.9,0,0,1-.7-1.67,2.62,2.62,0,0,1,.35-1c.21-.39,6-9.74,8.32-13.59.56-.92.92-1.52,1-1.63.22-.42.59-.42,1-.25,1.45.61,2.92,1.18,4.38,1.78a24.57,24.57,0,0,0,13,1.37,1.79,1.79,0,0,0,1-.58,4.67,4.67,0,0,0,.63-1.31Z" fill="#fccf36"/>
                  <path id="Trazado_104710" data-name="Trazado 104710" d="M152.61,342.9a3.83,3.83,0,0,0,1.48-1.4c2.38-3.84,8-12.95,8.44-13.67a5,5,0,0,0,.76-1.64,1.61,1.61,0,0,0,0-.66c-1.58,2.58-5.87,9.51-7.86,12.73a3.831,3.831,0,0,1-1.48,1.4,4.51,4.51,0,0,1-2.12.33,4.52,4.52,0,0,0-2.54.52c-.61.41-.75,1-1.06,1.79l2.28.93A4.51,4.51,0,0,0,152.61,342.9Z" fill="#fccf36"/>
                  <path id="Trazado_104711" data-name="Trazado 104711" d="M161.16,301.06l4.54,1.85,1,.42,2.94,1.24h0l20.62,8.4a31.132,31.132,0,0,1,3,1.21,26.28,26.28,0,0,1,8.15,7.28,1.72,1.72,0,0,1,.19,1.45c.55-1.33,1-2.55,1.32-3.24a1.72,1.72,0,0,0-.19-1.45,26.28,26.28,0,0,0-8.15-7.28,31.141,31.141,0,0,0-3-1.21L171,301.33h0l-2.94-1.24-1-.42-4.54-1.85a2.28,2.28,0,0,0-3,1.25l-1.32,3.24a2.29,2.29,0,0,1,2.96-1.25Z" fill="#ffdc4a"/>
                </g>
                <rect id="Rectángulo_5644" data-name="Rectángulo 5644" width="13.18" height="8.5" rx="1.75" transform="matrix(0.377, -0.926, 0.926, 0.377, 199.542, 331.246)" fill="#332a2d"/>
                <rect id="Rectángulo_5645" data-name="Rectángulo 5645" width="9.68" height="20.39" rx="1.75" transform="matrix(0.377, -0.926, 0.926, 0.377, 170.243, 317.426)" fill="#332a2d"/>
                <rect id="Rectángulo_5646" data-name="Rectángulo 5646" width="7.72" height="7.57" rx="1.4" transform="matrix(0.377, -0.926, 0.926, 0.377, 152.516, 349.827)" fill="#fccf36"/>
                <rect id="Rectángulo_5647" data-name="Rectángulo 5647" width="22.32" height="3.02" rx="1.05" transform="matrix(0.377, -0.926, 0.926, 0.377, 185.022, 330.305)" fill="#332a2d"/>
                <path id="Trazado_104712" data-name="Trazado 104712" d="M217.94,328.75c.28-3.15-.5-4.42-3.38-5.48h-.08c-.83-.29-1.25-.12-1.58.7l-3.71,9.1c-.33.82-.15,1.23.65,1.61h.08c2.8,1.25,4.24.89,6.24-1.56.18-.22.35-.46.56-.74l1.11-2.71C217.87,329.32,217.92,329,217.94,328.75Z" fill="#332a2d"/>
                <path id="Trazado_104713" data-name="Trazado 104713" d="M162.48,297.82a2.28,2.28,0,0,0-3,1.25l-6.19,15.21a2.28,2.28,0,0,0,1.25,3l5.56,2.26,7.91-19.41Z" fill="#fccf36"/>
                <path id="Trazado_104714" data-name="Trazado 104714" d="M163.69,324.52l-8.44,13.67a5.128,5.128,0,0,1-.43.58l2.79,1.14a2.27,2.27,0,0,0,2.69-.9l7.38-12.37a1.55,1.55,0,0,0-.77-2.3l-2.57-1A7.582,7.582,0,0,1,163.69,324.52Z" fill="#231f20"/>
                <rect id="Rectángulo_5648" data-name="Rectángulo 5648" width="15.98" height="4.59" rx="1.4" transform="matrix(0.377, -0.926, 0.926, 0.377, 155.417, 314.751)" fill="#332a2d"/>
                <path id="Trazado_104715" data-name="Trazado 104715" d="M198.93,329.53c-.18.43-.1.41-.41.76a1.79,1.79,0,0,1-1,.58,26.41,26.41,0,0,1-9.39-.26,1.06,1.06,0,0,1-1.29.43l-.85-.35a1.06,1.06,0,0,1-.65-.89c-.26-.09-.51-.19-.77-.3-1.46-.6-2.93-1.17-4.38-1.78-.4-.17-.77-.17-1,.25-.06.11-.36.63-.92,1.54l-7.87-3.21-6.11-2.5a5.518,5.518,0,0,0,.31-.85,2,2,0,0,0-1.47-2.12L160,319.47h.19l-1-.42-4.54-1.84a2.28,2.28,0,0,1-1.25-3l1.12-2.74s-1.47,3.21-.06,3.78L187,328.64C192.42,330.85,198.93,329.53,198.93,329.53Z" fill="#d6a434"/>
                <g id="Grupo_54595" data-name="Grupo 54595">
                  <rect id="Rectángulo_5649" data-name="Rectángulo 5649" width="2" height="4.22" rx="0.87" transform="matrix(0.377, -0.926, 0.926, 0.377, 178.472, 325.413)" fill="#af8023"/>
                </g>
                <rect id="Rectángulo_5650" data-name="Rectángulo 5650" width="2" height="4.22" rx="0.87" transform="matrix(0.377, -0.926, 0.926, 0.377, 178.922, 324.927)" fill="#fff"/>
                <g id="Grupo_54596" data-name="Grupo 54596">
                  <path id="Trazado_104716" data-name="Trazado 104716" d="M198.79,329.86c.15-.28.24-.6.36-.88Z" fill="#fccf36"/>
                  <path id="Trazado_104717" data-name="Trazado 104717" d="M177,350.85c-.5-.61-6.43-4.68-6.79-5a2.13,2.13,0,0,1-.66-1.07l-1,1.66a2.621,2.621,0,0,0-.35,1,2,2,0,0,0,.7,1.67c.26.24,3.36,2.39,5.3,3.81l3,1.23a3,3,0,0,0-.2-3.3Z" fill="#fccf36"/>
                </g>
                <g id="Grupo_54597" data-name="Grupo 54597">
                  <path id="Trazado_104718" data-name="Trazado 104718" d="M180,336.59a2.108,2.108,0,0,1-.35,0c-7.28-.9-13.56-4.07-18.14-6.38l-.57-.29a2.84,2.84,0,0,1,2.55-5.07l.58.29c4.21,2.13,10,5,16.28,5.82a2.84,2.84,0,0,1-.35,5.65Z" fill="#ffb287"/>
                  <path id="Trazado_104719" data-name="Trazado 104719" d="M176.16,341.85h-.35a37.73,37.73,0,0,1-19-8.67,2.84,2.84,0,1,1,3.8-4.21,32,32,0,0,0,15.9,7.24,2.84,2.84,0,0,1-.35,5.66Z" fill="#ffb287"/>
                  <path id="Trazado_104720" data-name="Trazado 104720" d="M172,345.73h-.36c-5.65-.71-10.4-3.82-14.21-6.31a43.827,43.827,0,0,0-4-2.43A2.851,2.851,0,1,1,156,331.9a45.789,45.789,0,0,1,4.53,2.75c3.49,2.29,7.46,4.88,11.8,5.42a2.84,2.84,0,0,1-.34,5.66Z" fill="#ffb287"/>
                  <path id="Trazado_104721" data-name="Trazado 104721" d="M167,326.63c7.52,2.82,9.54,4.25,8.58,8s-5.74,6.06-5.74,6.06-6.75-1.53-7.14-2.18-4.29-3.28-3.38-4.7,3.06-4.16,3.88-4.51A36,36,0,0,0,167,326.63Z" fill="#ffb287"/>
                </g>
                <g id="Grupo_54598" data-name="Grupo 54598">
                  <path id="Trazado_104722" data-name="Trazado 104722" d="M201.42,320a.69.69,0,0,1-.55-.27,28,28,0,0,0-5.2-5,.71.71,0,1,1,.83-1.15,29,29,0,0,1,5.47,5.3.71.71,0,0,1-.11,1A.74.74,0,0,1,201.42,320Z" fill="#fff"/>
                </g>
                <g id="Grupo_54599" data-name="Grupo 54599">
                  <path id="Trazado_104723" data-name="Trazado 104723" d="M190.84,312.24a.861.861,0,0,1-.27-.05L172,304.64a.71.71,0,0,1-.39-.92.7.7,0,0,1,.92-.39l18.55,7.54a.71.71,0,0,1-.27,1.37Z" fill="#fff"/>
                </g>
                <g id="Grupo_54600" data-name="Grupo 54600">
                  <path id="Trazado_104724" data-name="Trazado 104724" d="M170.21,303.85a.58.58,0,0,1-.28-.07l-1.58-.69a.71.71,0,1,1,.57-1.3l1.58.7a.71.71,0,0,1-.29,1.36Z" fill="#fff"/>
                </g>
              </g>
            </g>
            <rect id="Rectángulo_5651" data-name="Rectángulo 5651" width="13.25" height="49.69" rx="3.55" transform="translate(283.59 270.42)" fill="#332a2d"/>
            <path id="Trazado_104725" data-name="Trazado 104725" d="M296.85,297.37v10.49l-13.26-4.25v-8.49Z" fill="#1c1619"/>
            <rect id="Rectángulo_5652" data-name="Rectángulo 5652" width="66.72" height="18.81" rx="3.55" transform="translate(257.1 209.61)" fill="#f2be3d"/>
            <path id="Trazado_104726" data-name="Trazado 104726" d="M261,209.61v12.95a1,1,0,0,0,1,1h1.72a1,1,0,0,0,1-1v-2.75a1.05,1.05,0,0,0,.93.6h1.17v4.16a1.24,1.24,0,0,0,1.19,1.26H270a1.24,1.24,0,0,0,1.18-1.26v-4.16H273v8h17.11v-3.94h5.59v3.94h13.86v-1.2h2.33a1.25,1.25,0,0,0,1.19-1.26v-8.92h2.39v7.15a1.23,1.23,0,0,0,1.19,1.25h2.07a1.23,1.23,0,0,0,1.19-1.25V209.61Z" fill="#ba0505"/>
            <g id="Grupo_54603" data-name="Grupo 54603" opacity="0.3">
              <rect id="Rectángulo_5653" data-name="Rectángulo 5653" width="62.46" height="5.32" rx="1.42" transform="translate(259.23 211.74)" fill="#fff"/>
            </g>
            <path id="Trazado_104727" data-name="Trazado 104727" d="M301.33,295.6a5.8,5.8,0,0,1-5.9,7h-8.52a7.12,7.12,0,0,1-7.1-7.1v-6.63a7.11,7.11,0,0,1,7.1-7.09h5c4.61,0,5.44,2,5.44,7Z" fill="#c89c9e"/>
            <path id="Trazado_104728" data-name="Trazado 104728" d="M292.59,295.5c0,3.9-2.88,7.1-6.39,7.1s-6.39-3.2-6.39-7.1v-6.63c0-3.9,2.87-7.09,6.39-7.09s6.39,3.19,6.39,7.09Z" fill="#eae3c3"/>
            <path id="Trazado_104729" data-name="Trazado 104729" d="M286,285.36Z" fill="#ffd047" stroke="#eae3c3" stroke-linecap="round" stroke-linejoin="round" stroke-width="10"/>
            <path id="Trazado_104730" data-name="Trazado 104730" d="M281.94,292Z" fill="#ffd047" stroke="#eae3c3" stroke-linecap="round" stroke-linejoin="round" stroke-width="10"/>
            <path id="Trazado_104731" data-name="Trazado 104731" d="M287.68,291.42Z" fill="#ffd047" stroke="#eae3c3" stroke-linecap="round" stroke-linejoin="round" stroke-width="10"/>
            <path id="Trazado_104732" data-name="Trazado 104732" d="M407.94,354.43a3.62,3.62,0,0,0-3.21,3.52v8a2.9,2.9,0,0,0,3.21,2.93l12.17-1.11a3.61,3.61,0,0,0,3.21-3.52v-8a2.9,2.9,0,0,0-3.21-2.93Z" fill="#663b39"/>
            <path id="Trazado_104733" data-name="Trazado 104733" d="M398.82,300.11H394.8l-7.22,15.5h11.24Z" fill="#eae3c3"/>
          </g>
        </g>
        <g id="Grupo_54626" data-name="Grupo 54626">
          <g id="Grupo_54608" data-name="Grupo 54608">
            <g id="Grupo_54607" data-name="Grupo 54607">
              <path id="Trazado_104734" data-name="Trazado 104734" d="M46.26,378.39a13.06,13.06,0,0,0,5.81,23.41l1.34-9.25L49,389.46Z" fill="#8faebc"/>
              <path id="Trazado_104735" data-name="Trazado 104735" d="M51.29,391.06l-2.22-1.53.44,2-7.69,2a12.9,12.9,0,0,0,2,3.58c3.24-.76,7.9-2,8.16-2a5.7,5.7,0,0,0,1.2-1.17l.19-1.32Z" fill="#5b363d" opacity="0.2"/>
              <path id="Trazado_104736" data-name="Trazado 104736" d="M56.9,375.11l2.93,11.83-2.31,3.66L39.71,395c.13.25.28.5.44.76v.1a13.161,13.161,0,0,0,2.09,2.54c1.76,1.81,3.86,3.46,5.22,4.63,3.78,3.25,5.18,9.64,5.7,13.4l5.34,56.81L71,470.33,63.14,407.8v-.46c-1.2-9.82,4.17-12.38,4.72-17.66a10.11,10.11,0,0,0,.07-2.52,13.23,13.23,0,0,0-.36-2.3,13.06,13.06,0,0,0-10.67-9.75Z" fill="#bad4dd"/>
              <path id="Trazado_104737" data-name="Trazado 104737" d="M67.52,384.86a13,13,0,0,0-9.62-9.55,13.1,13.1,0,0,1,9.1,11.6,10.19,10.19,0,0,1-.07,2.53c-.55,5.28-5.92,7.84-4.72,17.65v.46l7.84,62.54-11.57,2.73v.44L71,470.33,63.14,407.8v-.46c-1.2-9.82,4.17-12.38,4.72-17.66a10.11,10.11,0,0,0,.07-2.52,13.23,13.23,0,0,0-.41-2.3Z" fill="#8faebc"/>
              <g id="Grupo_54606" data-name="Grupo 54606">
                <path id="Trazado_104738" data-name="Trazado 104738" d="M52.55,400.38A1.7,1.7,0,0,1,51,399.26l-.87-2.65a1.36,1.36,0,0,1,1-1.75l7.18-1.78a1.37,1.37,0,0,1,1.68,1.1l.47,2.74a1.67,1.67,0,0,1-1.22,1.86l-6.26,1.55A1.57,1.57,0,0,1,52.55,400.38Z" fill="#fff"/>
                <path id="Trazado_104739" data-name="Trazado 104739" d="M58.6,393.34a1,1,0,0,1,1,.89l.47,2.74a1.36,1.36,0,0,1-1,1.51L52.85,400h-.3a1.39,1.39,0,0,1-1.29-.91l-.86-2.64a1.038,1.038,0,0,1,.75-1.36l7.17-1.78a.9.9,0,0,1,.28,0Zm0-.61a2.184,2.184,0,0,0-.43,0L51,394.56a1.66,1.66,0,0,0-1.19,2.15l.87,2.64a2,2,0,0,0,1.87,1.34,1.61,1.61,0,0,0,.44-.06l6.26-1.55a2,2,0,0,0,1.45-2.21l-.47-2.75A1.65,1.65,0,0,0,58.6,392.73Z" fill="#8faebc"/>
              </g>
              <path id="Trazado_104740" data-name="Trazado 104740" d="M52.7,417.7l12.02-2.48,6.97,55.61-13.7,3.23Z" fill="url(#linear-gradient)"/>
              <path id="Trazado_104741" data-name="Trazado 104741" d="M64.81,415.85,52.9,419.16l.51,6.1L66,425.3Z" fill="#ab794c" opacity="0.6"/>
            </g>
            <rect id="Rectángulo_5654" data-name="Rectángulo 5654" width="10.05" height="3.54" rx="0.22" transform="matrix(0.971, -0.241, 0.241, 0.971, 49.958, 396.434)" fill="#808c8c"/>
            <path id="Trazado_104742" data-name="Trazado 104742" d="M65.82,415.25a1.25,1.25,0,0,1-.89,1.52l-11.42,3.08A1.26,1.26,0,0,1,52,419h0a1.25,1.25,0,0,1,.89-1.52l11.42-3.07a1.24,1.24,0,0,1,1.52.88Z" fill="#ea2f1b"/>
          </g>
          <g id="Grupo_54625" data-name="Grupo 54625">
            <g id="Grupo_54610" data-name="Grupo 54610">
              <g id="Grupo_54609" data-name="Grupo 54609">
                <path id="Trazado_104743" data-name="Trazado 104743" d="M149.08,413.71l3.61-1.45-.89-6.42-17.98-6.01-1.06,2.53-19.27,2.78L92.83,468.69l20.5,13.96,4.39-2.58-.41-5.08,4.39-2.58-.42-5.08,4.39-2.58-.42-5.07,4.39-2.59-.42-5.08,4.39-2.58-.42-5.08,4.39-2.58-.42-5.08,4.39-2.58-.42-5.08,4.39-2.58-.42-5.08,4.39-2.59Z" fill="url(#radial-gradient)"/>
                <path id="Trazado_104744" data-name="Trazado 104744" d="M151.53,404.85l-17.26-6.14-1.05,2.54L113.94,404l-2.52,7.75a3,3,0,0,0,1.19.52c.91.2,13.41,4.62,14.25,4.79,4.38,1.47,6.61,1.78,11-.09,5.37-2.26,10.65-6.47,14.57-9.09Z" fill="#5b363d" opacity="0.3"/>
                <path id="Trazado_104745" data-name="Trazado 104745" d="M160.94,380.31c-1.24-1.44-2.63-1.86-4.78-1a27,27,0,0,0-4.38,2.65c-1.53,1.06-2.74.76-4.19,0a57.623,57.623,0,0,0-12.81-4.9,2,2,0,0,1-1.43-1.09,18.519,18.519,0,0,1-1.86-4.17c-.49-2.16-2.13-2.46-3.92-2.51a3.08,3.08,0,0,0-3.46,2.88c-.1,3-1.72,5.09-3.28,7.4a20.64,20.64,0,0,0-3.54,16.46c.57,2.14-.26,3.66-2.61,5.2a11.84,11.84,0,0,0-3.78,3.15c-1,1.5-1.4,5.12,1.57,5.78.88.19,13,4.46,13.77,4.62,4.23,1.42,6.38,1.72,10.65-.08,5.38-2.27,11.51-6.54,15.26-9.05,4.09-3.11,6.53-11.25,6-15.23a5.82,5.82,0,0,1,1.47-3.65c.35-.45,1.17-1.25,1.55-1.67C162.6,383.55,162.2,381.77,160.94,380.31Zm-14.5,14.43a4.85,4.85,0,0,1-6.19,2.91l-11.69-3.93a4.743,4.743,0,0,1,3-9l11.69,3.93a4.84,4.84,0,0,1,3.19,6.09Z" fill="#ffab2e" stroke="#ffab2e" stroke-miterlimit="10" stroke-width="0.85"/>
              </g>
              <path id="Trazado_104746" data-name="Trazado 104746" d="M116.37,404.61a1.84,1.84,0,1,1-2.34,1.16,1.84,1.84,0,0,1,2.34-1.16Z" fill="#cee6ed" stroke="#ea8b24" stroke-miterlimit="10" stroke-width="1.21"/>
              <path id="Trazado_104747" data-name="Trazado 104747" d="M131.35,409.07a1.83,1.83,0,1,1-1.407.094,1.84,1.84,0,0,1,1.407-.094Z" fill="#cee6ed" stroke="#ea8b24" stroke-miterlimit="10" stroke-width="1.21"/>
              <path id="Trazado_104748" data-name="Trazado 104748" d="M145.44,403.53a1.84,1.84,0,1,1-2.34,1.16,1.84,1.84,0,0,1,2.34-1.16Z" fill="#cee6ed" stroke="#ea8b24" stroke-miterlimit="10" stroke-width="1.21"/>
              <path id="Trazado_104749" data-name="Trazado 104749" d="M147.21,395a5.2,5.2,0,0,1-6.64,3.12L128,393.91a5.08,5.08,0,1,1,3.23-9.62l12.54,4.22a5.21,5.21,0,0,1,3.44,6.49Z" fill="none" stroke="#ea8b24" stroke-miterlimit="10" stroke-width="3.9"/>
              <path id="Trazado_104750" data-name="Trazado 104750" d="M161.36,385.34a3.18,3.18,0,0,0,.82-3.41c-.19.54.26,1.33-1.15,2.62-1.63,1.49-4.35,2-4.21,6.47.23,7.23-2.25,10.81-4.47,12.92s-10,7.13-12.85,8.53-6.75,3.28-9.79,2.51c-2.08-.53-9.94-2.93-14.76-4.53-3.52-1.18-4.34-1.55-4.94-2.33a3.08,3.08,0,0,0,2.21,2.32c.88.19,13,4.46,13.76,4.63,4.24,1.42,6.75,1.82,11,0,5.38-2.27,11.28-6.35,15-8.86a13.311,13.311,0,0,0,3.34-3,19.37,19.37,0,0,0,3-12.54,6.22,6.22,0,0,1,1.44-3.83A20.96,20.96,0,0,0,161.36,385.34Z" fill="#ea8b24"/>
              <path id="Trazado_104751" data-name="Trazado 104751" d="M117.63,449.41v.72l16.94-29.71-26.25.61-1.62,4.99h14.81l-16.36,23.39Z" fill="#5b363d" opacity="0.4"/>
            </g>
            <g id="Grupo_54611" data-name="Grupo 54611">
              <path id="Trazado_104752" data-name="Trazado 104752" d="M147.71,423.5l-120.96.07v-6.06H147.71Z" fill="#e57857"/>
              <rect id="Rectángulo_5655" data-name="Rectángulo 5655" width="120.96" height="2.31" transform="translate(26.75 417.19)" fill="#ffab64"/>
              <rect id="Rectángulo_5656" data-name="Rectángulo 5656" width="3.62" height="6.31" transform="translate(139.87 417.19)" fill="#ab794c" opacity="0.6"/>
              <path id="Trazado_104753" data-name="Trazado 104753" d="M106.74,417.28l-8.16,3.32,1-3.41H93.25a7.41,7.41,0,0,0,3.56,6.34h10.32c1.32-.91,2-4,2-4l1.86-2.35h-4.21Z" fill="#665089" opacity="0.7"/>
              <path id="Trazado_104754" data-name="Trazado 104754" d="M71.88,422.84v.71H85.16v-.91c0-.62-.33-3.11-.33-3.11l.91-2.33H72.38a47.054,47.054,0,0,0-.5,5.64Zm6.47-4.68h0a2.6,2.6,0,1,1-.13,5.2,2.63,2.63,0,0,1-2.7-2.62,2.58,2.58,0,0,1,2.83-2.58Z" fill="#665089" opacity="0.7"/>
              <path id="Trazado_104755" data-name="Trazado 104755" d="M45.74,422.7l1.76.88h1.68l-1.02-4.09,1.53-2.34H45.05l-.25,1.46Z" fill="#665089" opacity="0.7"/>
            </g>
            <g id="Grupo_54622" data-name="Grupo 54622">
              <path id="Trazado_104756" data-name="Trazado 104756" d="M91.81,462.63l4.61-2.07.75-5.31L93.31,452h0l4.5-32h0l5.34-2.75L104,411s3.61,2.42,2.83,7.9c-.73,5.16-6.34,6.07-6.34,6.07L97,450l4.1,3.45-1.39,9.86-8.53,3.83h0l.64-4.54Z" fill="#bad4dd"/>
              <path id="Trazado_104757" data-name="Trazado 104757" d="M91.94,462.65l-3.84-3.27.77-5.31L93.48,452h0l4.63-32h0l-4.36-4.13.91-6.26s-4.15,1.31-4.94,6.79c-.73,5.16,4.4,7.6,4.4,7.6l-3.63,25-4.9,2.17-1.42,9.85,7.12,6.05h0l.65-4.54Z" fill="#d3e9ef"/>
              <g id="Grupo_54613" data-name="Grupo 54613">
                <rect id="Rectángulo_5657" data-name="Rectángulo 5657" width="5.86" height="6.51" transform="translate(47.054 440.075) rotate(-14.71)" fill="#ffab2e"/>
                <rect id="Rectángulo_5658" data-name="Rectángulo 5658" width="3.26" height="24.1" transform="translate(42.08 415.783) rotate(-14.72)" fill="#8faebc"/>
                <path id="Trazado_104758" data-name="Trazado 104758" d="M45.06,410.63l-5.04,1.32,2.02,3.85,3.15-.83Z" fill="#8faebc"/>
                <path id="Trazado_104759" data-name="Trazado 104759" d="M45.06,410.63l-5.04,1.32-1.46-9.38,3.16-.83Z" fill="#bad4dd"/>
                <path id="Trazado_104760" data-name="Trazado 104760" d="M55.16,438.18a1.24,1.24,0,0,1-.89,1.52l-8,2.1a1.25,1.25,0,0,1-1.52-.89h0a1.26,1.26,0,0,1,.89-1.52l8-2.1a1.26,1.26,0,0,1,1.52.89Z" fill="#ffc431" stroke="#ffc431" stroke-miterlimit="10" stroke-width="0.56"/>
                <rect id="Rectángulo_5659" data-name="Rectángulo 5659" width="11.089" height="22.839" rx="4.628" transform="translate(43.997 446.594) rotate(-14.452)" fill="#ffab2e"/>
                <g id="Grupo_54612" data-name="Grupo 54612">
                  <path id="Trazado_104761" data-name="Trazado 104761" d="M54.84,461.77a1.29,1.29,0,0,1-.93,1.59h0a1.3,1.3,0,0,1-1.59-.93l-3.55-13.54a1.29,1.29,0,0,1,.92-1.59h0a1.31,1.31,0,0,1,1.6.92Z" fill="#ea8b24"/>
                  <path id="Trazado_104762" data-name="Trazado 104762" d="M59.15,460.64a1.31,1.31,0,0,1-.93,1.59h0a1.29,1.29,0,0,1-1.59-.93l-3.56-13.54a1.3,1.3,0,0,1,.93-1.59h0a1.3,1.3,0,0,1,1.59.92Z" fill="#ea8b24"/>
                </g>
              </g>
              <path id="Trazado_104763" data-name="Trazado 104763" d="M96.58,426.47a.74.74,0,0,0-.84.62l-3.55,24.07a.73.73,0,0,0,.62.83l1.1.15a.73.73,0,0,0,.83-.62l3.51-24.07a.73.73,0,0,0-.62-.83Z" fill="#8faebc"/>
              <g id="Grupo_54616" data-name="Grupo 54616">
                <rect id="Rectángulo_5660" data-name="Rectángulo 5660" width="125.17" height="20.1" rx="2.81" transform="translate(89.177 477.718) rotate(-55.03)" fill="#f74123"/>
                <path id="Trazado_104764" data-name="Trazado 104764" d="M157.85,397.09a6.57,6.57,0,1,1,4.916,1.09,6.58,6.58,0,0,1-4.916-1.09Z" fill="#6c6f58"/>
                <g id="Grupo_54615" data-name="Grupo 54615">
                  <g id="Grupo_54614" data-name="Grupo 54614">
                    <path id="Trazado_104765" data-name="Trazado 104765" d="M131.39,417.36l4.26,3a1.43,1.43,0,0,1,.35,2l-11.35,16.22a1.43,1.43,0,0,1-2,.35l-4.25-3Z" fill="#c7e55a"/>
                    <path id="Trazado_104766" data-name="Trazado 104766" d="M123.48,439.85a2.16,2.16,0,0,1-1.21-.38l-4.26-3,.81-1.15,4.26,3a.73.73,0,0,0,1-.18l11.34-16.22a.72.72,0,0,0-.17-1l-4.26-3,.8-1.15,4.26,3a2.12,2.12,0,0,1,.52,3l-11.34,16.22a2.15,2.15,0,0,1-1.75.86Z" fill="#5b363d"/>
                  </g>
                  <path id="Trazado_104767" data-name="Trazado 104767" d="M128.07,422.11l5.29,3.7Z" fill="#faefd1" stroke="#5b363d" stroke-miterlimit="10" stroke-width="1.98"/>
                  <path id="Trazado_104768" data-name="Trazado 104768" d="M121.82,431.05l5.29,3.7Z" fill="#faefd1" stroke="#5b363d" stroke-miterlimit="10" stroke-width="1.98"/>
                  <path id="Trazado_104769" data-name="Trazado 104769" d="M129,429.19c-.86,1.22-2.23,1.74-3.07,1.15s-.83-2.06,0-3.28,2.23-1.74,3.07-1.15S129.85,428,129,429.19Z" fill="#fff"/>
                </g>
                <path id="Trazado_104770" data-name="Trazado 104770" d="M155.1,390.85l9.55,6.69a6.66,6.66,0,0,0,2.36-2.07,6.51,6.51,0,0,0,1.13-2.92l-9.55-6.69a6.57,6.57,0,0,0-3.49,5Z" fill="#c7e55a"/>
                <path id="Trazado_104771" data-name="Trazado 104771" d="M157,392.21l3.52-5Z" fill="#d5ef65" stroke="#5b363d" stroke-miterlimit="10" stroke-width="2.28"/>
                <path id="Trazado_104772" data-name="Trazado 104772" d="M147.7,408l5.52-7.92Z" fill="#d5ef65" stroke="#fff" stroke-miterlimit="10" stroke-width="2.28"/>
                <path id="Trazado_104773" data-name="Trazado 104773" d="M149.85,409.51l3.45-4.95Z" fill="#d5ef65" stroke="#fff" stroke-miterlimit="10" stroke-width="2.28"/>
                <path id="Trazado_104774" data-name="Trazado 104774" d="M162.48,396l3.52-5Z" fill="#d5ef65" stroke="#5b363d" stroke-miterlimit="10" stroke-width="2.28"/>
                <path id="Trazado_104775" data-name="Trazado 104775" d="M162.43,390.62a1.43,1.43,0,1,1-2.26.1,1.63,1.63,0,0,1,2.26-.1Z" fill="#fff"/>
                <path id="Trazado_104776" data-name="Trazado 104776" d="M157.85,397.09a6.57,6.57,0,1,1,4.916,1.09,6.58,6.58,0,0,1-4.916-1.09Z" fill="none" stroke="#5b363d" stroke-miterlimit="10" stroke-width="2.28"/>
                <path id="Trazado_104777" data-name="Trazado 104777" d="M98.52,473.78a6.58,6.58,0,1,1,7.62,5.33,6.58,6.58,0,0,1-7.62-5.33Z" fill="#fff"/>
                <path id="Trazado_104778" data-name="Trazado 104778" d="M101,467.43l2,11.47a6.55,6.55,0,0,0,6-1.06l-2-11.47a6.569,6.569,0,0,0-3.13-.21,6.47,6.47,0,0,0-2.87,1.27Z" fill="#c7e55a"/>
                <path id="Trazado_104779" data-name="Trazado 104779" d="M101.39,469.74l6-1.07Z" fill="#d5ef65" stroke="#5b363d" stroke-miterlimit="10" stroke-width="2.28"/>
                <path id="Trazado_104780" data-name="Trazado 104780" d="M102.55,476.31l6-1.07Z" fill="#d5ef65" stroke="#5b363d" stroke-miterlimit="10" stroke-width="2.28"/>
                <path id="Trazado_104781" data-name="Trazado 104781" d="M106.34,472.45a1.62,1.62,0,0,1-1,2c-.75.13-1.5-.55-1.67-1.53a1.62,1.62,0,0,1,1-2C105.42,470.78,106.17,471.47,106.34,472.45Z" fill="#fff"/>
                <path id="Trazado_104782" data-name="Trazado 104782" d="M98.52,473.78a6.58,6.58,0,1,1,7.62,5.33,6.58,6.58,0,0,1-7.62-5.33Z" fill="none" stroke="#5b363d" stroke-miterlimit="10" stroke-width="2.28"/>
                <path id="Trazado_104783" data-name="Trazado 104783" d="M159.5,377.18l.93-1.32a.85.85,0,0,1,1.17-.21l15.09,10.56a.84.84,0,0,1,.2,1.17L176,388.7Z" fill="#4f3030"/>
                <path id="Trazado_104784" data-name="Trazado 104784" d="M107.7,486.29l-1.54,2.2a.84.84,0,0,1-1.17.21L89.9,478.15a.86.86,0,0,1-.21-1.18l1.55-2.2Z" fill="#4f3030"/>
              </g>
              <g id="Grupo_54621" data-name="Grupo 54621">
                <path id="Trazado_104785" data-name="Trazado 104785" d="M73.73,403.43l1.67,14.74h-.21a2.59,2.59,0,0,0-2.83,2.61,2.65,2.65,0,0,0,2.91,2.62l-5.15,5.32a11.29,11.29,0,0,1-1.4-5.87c-.07-4.21,2.78-20,2.78-20Z" fill="#8faebc"/>
                <g id="Grupo_54617" data-name="Grupo 54617">
                  <path id="Trazado_104786" data-name="Trazado 104786" d="M89.36,469.47c-1-4.89-3.49-10.17-5.91-15.28-2.17-4.6-4.22-8.94-5-12.69a6.531,6.531,0,0,0-.11-.69v-.28l.27-.06,4.82-1v.33a2.868,2.868,0,0,0,.1.65c.65,3.14,2.57,7.21,4.6,11.52,2.56,5.41,5.19,11,6.31,16.46l.06.3-5.08,1Z" fill="#ffab2e"/>
                  <path id="Trazado_104787" data-name="Trazado 104787" d="M83.13,439.84a3.812,3.812,0,0,0,.1.67c.66,3.18,2.59,7.27,4.64,11.6,2.54,5.37,5.16,10.92,6.27,16.38l-4.49.92c-1-4.92-3.5-10.22-5.92-15.35-2.17-4.58-4.22-8.91-5-12.62a6.686,6.686,0,0,1-.11-.67h0l4.47-.92Zm.52-.73-.64.14-4.44.92h0l-.57.1.08.57a3.191,3.191,0,0,0,.12.71c.78,3.79,2.84,8.15,5,12.76,2.41,5.09,4.9,10.35,5.89,15.21l.12.58.58-.12,4.49-.91.59-.12-.12-.59c-1.13-5.53-3.76-11.11-6.31-16.51-2-4.31-4-8.36-4.6-11.47,0-.15-.06-.36-.09-.62l-.08-.66Z" fill="#ffab2e"/>
                </g>
                <path id="Trazado_104788" data-name="Trazado 104788" d="M78,434.38a1.1,1.1,0,0,0-1.06-.87l-.07-4.58a5.74,5.74,0,0,1,5.56,4.27,22.44,22.44,0,0,1,.49,4.05,1.168,1.168,0,0,0-.32,0l-4.21.87v-.28a23.76,23.76,0,0,0-.39-3.46Z" fill="#8faebc"/>
                <g id="Grupo_54618" data-name="Grupo 54618">
                  <path id="Trazado_104789" data-name="Trazado 104789" d="M78.36,441.19a1.51,1.51,0,0,1-1.26-2.34,1.56,1.56,0,0,1,1-.65l4.49-.93a1.291,1.291,0,0,1,.29,0h.08a1.51,1.51,0,0,1,.24,3l-4.48.93Z" fill="#ffc431"/>
                  <path id="Trazado_104790" data-name="Trazado 104790" d="M82.83,437.44h.07a1.3,1.3,0,0,1,1.23,1,1.32,1.32,0,0,1-1,1.55h0l-4.47.93h-.25a1.31,1.31,0,0,1-.27-2.59l.28-.06,4.21-.87a1.069,1.069,0,0,1,.25,0Zm0-.4a1.663,1.663,0,0,0-.33,0l-4.21.87L78,438a1.7,1.7,0,0,0-1.08.73,1.72,1.72,0,0,0,1.43,2.65,1.359,1.359,0,0,0,.29,0h.06l4.47-.93a1.7,1.7,0,0,0-.26-3.37Z" fill="#ffc431"/>
                </g>
                <g id="Grupo_54619" data-name="Grupo 54619">
                  <path id="Trazado_104791" data-name="Trazado 104791" d="M56,469.32v-.29c1-5.53,3.41-11.18,5.78-16.64,1.91-4.39,3.71-8.51,4.26-11.67a2.015,2.015,0,0,1,.08-.65v-.33l4.83.85h.29v.29a3.7,3.7,0,0,1-.1.69c-.66,3.77-2.57,8.18-4.6,12.84C64.29,459.63,62,465,61.12,469.9v.3Z" fill="#ffab2e"/>
                  <path id="Trazado_104792" data-name="Trazado 104792" d="M66.42,440.09l4.51.79h0a4.707,4.707,0,0,1-.09.67c-.66,3.73-2.56,8.12-4.59,12.77-2.26,5.2-4.6,10.57-5.44,15.52l-4.52-.77c.94-5.5,3.39-11.13,5.76-16.58,1.91-4.39,3.72-8.53,4.27-11.73a5.317,5.317,0,0,0,.08-.68Zm-.54-.7v.65a1.418,1.418,0,0,1-.08.63c-.54,3.12-2.33,7.23-4.22,11.58-2.39,5.49-4.86,11.16-5.81,16.72l-.1.6.59.1,4.51.77.6.1.1-.59c.83-4.88,3.16-10.22,5.4-15.38,2-4.68,4-9.1,4.63-12.91,0-.22.07-.46.09-.71l.07-.58-.58-.08h0l-4.46-.79-.65-.11Z" fill="#ffab2e"/>
                </g>
                <path id="Trazado_104793" data-name="Trazado 104793" d="M71.37,434.48a1.1,1.1,0,0,1,1-.9L72.34,429a5.72,5.72,0,0,0-5.43,4.44,23.55,23.55,0,0,0-.37,4.06,1.221,1.221,0,0,1,.33,0l4.23.75a2.811,2.811,0,0,0,0-.29A23.541,23.541,0,0,1,71.37,434.48Z" fill="#8faebc"/>
                <g id="Grupo_54620" data-name="Grupo 54620">
                  <path id="Trazado_104794" data-name="Trazado 104794" d="M71.13,441.3h-.24l-4.53-.79a1.48,1.48,0,0,1-1-.62,1.51,1.51,0,0,1,1.12-2.37h.37l4.51.8a1.51,1.51,0,0,1-.25,3Z" fill="#ffc431"/>
                  <path id="Trazado_104795" data-name="Trazado 104795" d="M66.64,437.69h.2l4.23.74.28.05a1.31,1.31,0,0,1-.22,2.6h-.21l-4.5-.79h0a1.306,1.306,0,0,1,.12-2.59Zm0-.4h-.15A1.71,1.71,0,0,0,65.21,440a1.75,1.75,0,0,0,1.11.7l4.51.8h.25a1.71,1.71,0,0,0,.29-3.39l-.28-.05-4.23-.74h-.27Z" fill="#ffc431"/>
                </g>
                <path id="Trazado_104796" data-name="Trazado 104796" d="M73.57,423.22a4,4,0,0,0,1.26.18,2.8,2.8,0,0,0,3-2.63,2.73,2.73,0,0,0-2.68-2.58l1.21-14.82,2.25-.48S82,418.46,82,422.63a12.5,12.5,0,0,1-1,5.49,5.469,5.469,0,0,1,.11,1.07,6.22,6.22,0,1,1-7.56-6Z" fill="#bad4dd"/>
                <path id="Trazado_104797" data-name="Trazado 104797" d="M72,429.33a2.95,2.95,0,1,0,2.9-3,2.95,2.95,0,0,0-2.9,3Z" fill="#8faebc"/>
              </g>
            </g>
            <g id="Grupo_54623" data-name="Grupo 54623">
              <rect id="Rectángulo_5661" data-name="Rectángulo 5661" width="116.03" height="41.4" transform="translate(28.08 448.58)" fill="#ca684d"/>
              <path id="Trazado_104798" data-name="Trazado 104798" d="M28.52,470.58l58.18-.53,57,.27-.13,1.54h-7.66s-5.84,3.33-15.93,3.33-10.56-3-19.38-3-22.49-.32-22.49-.32l-20.18,1-29.5-1Z" fill="#e57857"/>
              <path id="Trazado_104799" data-name="Trazado 104799" d="M91.65,468.62s.82-2.11,7-2.25,23.12-1.38,23.12-4.58-6.39-3.08-10.49-3.31-4.35-3.86.14-4.22,29,0,29,0l3.19,2.74-.72,3.3a26.49,26.49,0,0,1-8,1.85c-3.48,0-9,0-9,1.78s1.48,2.71,4.26,2.71c2.48,0,13.52-.2,13.52-.2l-.13,2.85-31.84.17Z" fill="#e57857"/>
              <path id="Trazado_104800" data-name="Trazado 104800" d="M110.33,489l29.26-.24s-13.85-7.13-30-7.13c-6.1,0-7.67-4.42-31.21-4.42-11.65,0-17,.07-17,3.37s9.9,3.3,9.9,3.3l12.17,5.42Z" fill="#e57857"/>
              <path id="Trazado_104801" data-name="Trazado 104801" d="M28.51,451.51H39.63s9.58,5.28,23.79,5.28c11.41,0,11.51,9.36-.54,9.36-9.69,0-13.78,2.8-13.78,2.8l-18.73-.21-1.77-8Z" fill="#bd6144"/>
              <path id="Trazado_104802" data-name="Trazado 104802" d="M28.6,488.87l-.22-10.26L38,480.4a99.413,99.413,0,0,1,15.39-1.58c7,0,3.73,4.88,15.92,4.88s18.77,5.17,18.77,5.17Z" fill="#bd6144"/>
              <rect id="Rectángulo_5662" data-name="Rectángulo 5662" width="113.82" height="2.24" transform="translate(29.11 468.35)" fill="#8e3e28"/>
            </g>
            <rect id="Rectángulo_5663" data-name="Rectángulo 5663" width="112.14" height="2.6" transform="translate(29.35 448.5)" fill="#ffab64"/>
            <rect id="Rectángulo_5664" data-name="Rectángulo 5664" width="3.8" height="41.54" transform="translate(28.28 448.5)" fill="#8e3e28"/>
            <rect id="Rectángulo_5665" data-name="Rectángulo 5665" width="4.4" height="41.4" transform="translate(139.09 448.5)" fill="#8e3e28"/>
            <rect id="Rectángulo_5666" data-name="Rectángulo 5666" width="122.14" height="3.71" transform="translate(23.35 488.5)" fill="#8e3e28"/>
            <path id="Trazado_104803" data-name="Trazado 104803" d="M146.79,439.58h-1.34a4.09,4.09,0,0,0-4.09,4.09v48.54h9.53V443.67a4.1,4.1,0,0,0-4.1-4.09Z" fill="#bd6144"/>
            <path id="Trazado_104804" data-name="Trazado 104804" d="M25.5,411.74H24.15a4.09,4.09,0,0,0-4.09,4.09v76.38h9.53V415.83A4.09,4.09,0,0,0,25.5,411.74Z" fill="#bd6144"/>
            <rect id="Rectángulo_5667" data-name="Rectángulo 5667" width="9.53" height="36.56" rx="4.09" transform="translate(20.06 410.34)" fill="#e57857"/>
            <path id="Trazado_104805" data-name="Trazado 104805" d="M31.75,417.19H29.51v-5.42l-2.03.65-2.06,3.01.98,2.54-6.4.15v9.05l9.6,13.88V423.5h2.15Z" fill="#665089" opacity="0.7"/>
            <g id="Grupo_54624" data-name="Grupo 54624">
              <path id="Trazado_104806" data-name="Trazado 104806" d="M43.63,448.5H34.79L13.78,407.38l7-3.58Z" fill="#5b363d"/>
              <path id="Trazado_104807" data-name="Trazado 104807" d="M27.68,417.23l-6.08,5.38-1.99-3.82,7.05-3.6Z" fill="#4f3030"/>
              <path id="Trazado_104808" data-name="Trazado 104808" d="M39.21,448.5H34.79L13.78,407.38l3.5-1.79Z" fill="#4f3030"/>
              <path id="Trazado_104809" data-name="Trazado 104809" d="M7.76,425.47l28.85-14.64-4.97-9.72-19.68,9.95-6.55,9.79Z" fill="#808c8c"/>
              <path id="Trazado_104810" data-name="Trazado 104810" d="M5.94,421.21l-1.07-.72,6.65-9.93,19.83-10.03.59,1.15L12.4,411.56Z" fill="#bad4dd"/>
              <path id="Trazado_104811" data-name="Trazado 104811" d="M18.03,420.26l6.31-3.2-.54-11.99-6.31,3.2Z" fill="#bad4dd" opacity="0.3"/>
            </g>
            <path id="Trazado_104812" data-name="Trazado 104812" d="M69.6,461.39c0,1.37-2,2.41-4.43,2.31s-4.49-1.29-4.51-2.67,2-2.42,4.43-2.32S69.58,460,69.6,461.39Z" fill="#ca684d"/>
            <path id="Trazado_104813" data-name="Trazado 104813" d="M129.45,482.52c.06,1.76-2.44,3.13-5.59,3.07s-5.75-1.53-5.81-3.29,2.43-3.13,5.58-3.07S129.38,480.77,129.45,482.52Z" fill="#ca684d"/>
            <path id="Trazado_104814" data-name="Trazado 104814" d="M70,480.48c0,.66-.9,1.2-2.1,1.2s-2.19-.55-2.23-1.22.91-1.2,2.1-1.2S70,479.81,70,480.48Z" fill="#bd6144" opacity="0.6"/>
            <path id="Trazado_104815" data-name="Trazado 104815" d="M126.82,482.11c0,.66-.9,1.2-2.1,1.2s-2.19-.55-2.22-1.22.9-1.2,2.1-1.2S126.79,481.44,126.82,482.11Z" fill="#e57857"/>
          </g>
          <path id="Trazado_104816" data-name="Trazado 104816" d="M141.36,438.07v6.34c0,2.26,1.83,2.49,4.09,2.49h1.34c2.26,0,4.1-.23,4.1-2.49v-20Z" fill="#e57857"/>
          <path id="Trazado_104817" data-name="Trazado 104817" d="M141.36,440.92l9.53-7.05v-9.42l-9.53,13.62Z" fill="#665089" opacity="0.7"/>
        </g>
        <g id="Grupo_54629" data-name="Grupo 54629">
          <path id="Trazado_104818" data-name="Trazado 104818" d="M464.75,462.64h0a1.43,1.43,0,0,1-1.39-1.45c.11-4.92-3-11.5-8.78-18.52a1.42,1.42,0,1,1,2.19-1.8c6.2,7.55,9.55,14.78,9.43,20.38a1.42,1.42,0,0,1-1.45,1.39Z" fill="#aeb0af"/>
          <rect id="Rectángulo_5668" data-name="Rectángulo 5668" width="66.01" height="48.05" rx="4.26" transform="translate(396.89 439.77)" fill="#e6fff4"/>
          <rect id="Rectángulo_5669" data-name="Rectángulo 5669" width="17.71" height="48.05" rx="4.26" transform="translate(445.19 439.77)" fill="#e8dfe2"/>
          <path id="Trazado_104819" data-name="Trazado 104819" d="M462.9,484.34v1.74a2,2,0,0,1-2.13,1.73H399a2,2,0,0,1-2.13-1.75v-1.75Z" fill="#c2b9bc"/>
          <path id="Trazado_104820" data-name="Trazado 104820" d="M462.9,440v3.5a2.14,2.14,0,0,1-2.13,2.13H399.02a2.14,2.14,0,0,1-2.13-2.13V440Z" fill="#c2b9bc"/>
          <path id="Trazado_104821" data-name="Trazado 104821" d="M460.77,436.78a2.15,2.15,0,0,1,2.13,2.14v1.34a2.14,2.14,0,0,1-2.13,2.13H399a2.14,2.14,0,0,1-2.13-2.13v-1.38a2.14,2.14,0,0,1,2.13-2.13Z" fill="#e6fff4"/>
          <path id="Trazado_104822" data-name="Trazado 104822" d="M462.9,436.79v3.47a2.14,2.14,0,0,1-2.13,2.13H447.28a2.13,2.13,0,0,1-2.12-2.13v-3.51Z" fill="#e8dfe2"/>
          <g id="Grupo_54627" data-name="Grupo 54627">
            <path id="Trazado_104823" data-name="Trazado 104823" d="M406.29,436.74v34.58a2.14,2.14,0,0,0,2.13,2.13h2.43a2.14,2.14,0,0,0,2.13-2.13V459.25a2.14,2.14,0,0,1,2.13-2.13h5.44a2.14,2.14,0,0,1,2.13,2.13v4.26a2.14,2.14,0,0,0,2.13,2.13h4.73a2.14,2.14,0,0,1,2.13,2.13v9.9a2.14,2.14,0,0,0,2.13,2.13h4.73a2.14,2.14,0,0,0,2.13-2.13v-9.9a2.14,2.14,0,0,1,2.13-2.13h5.91a2.13,2.13,0,0,1,2.13,2.13v11.56a2.14,2.14,0,0,0,2.13,2.13h7.81a2.14,2.14,0,0,0,2.13-2.13V436.74Z" fill="#ba0505"/>
          </g>
          <g id="Grupo_54628" data-name="Grupo 54628" opacity="0.5">
            <path id="Trazado_104824" data-name="Trazado 104824" d="M422.27,436.77a1.36,1.36,0,0,1,1.36,1.35v.69a1.36,1.36,0,0,1-1.36,1.35H401.79a1.36,1.36,0,0,1-1.35-1.35v-.7a1.36,1.36,0,0,1,1.35-1.36Z" fill="#fff"/>
          </g>
          <path id="Trazado_104825" data-name="Trazado 104825" d="M453.54,471.52c-14.63,0-37.57-13.18-51.14-29.37a1.423,1.423,0,1,1,2.18-1.83c13.1,15.64,35.06,28.36,49,28.36,4.39,0,9.66-1.3,9.79-7.49a1.42,1.42,0,1,1,2.84.06C466.1,464.34,464.74,471.52,453.54,471.52Z" fill="#aeb0af"/>
        </g>
      </g>
    </g>
  </g>
</svg>
