<svg xmlns="http://www.w3.org/2000/svg" xmlns:xlink="http://www.w3.org/1999/xlink" width="500" height="500" viewBox="0 0 500 500">
  <defs>
    <clipPath id="clip-path">
      <circle id="Elipse_4075" data-name="Elipse 4075" cx="212.62" cy="212.62" r="212.62" transform="translate(48.9 47.58)" fill="none"/>
    </clipPath>
    <clipPath id="clip-path-2">
      <path id="Trazado_101852" data-name="Trazado 101852" d="M177.29,280.51c5.32-39.83-.67-81.63-9.87-88.28-8.77-6.34-45.53,3.86-48.68,7.72-4.79,5.84,6.35,55,2.26,76.72C118.5,290,176.59,285.75,177.29,280.51Z" fill="none"/>
    </clipPath>
    <clipPath id="clip-path-3">
      <path id="Trazado_101954" data-name="Trazado 101954" d="M347.88,383c-1.84-29.89-8.55-55.86-12.77-73.14,1-3.95,46.45-20.54,49-13.17A259.74,259.74,0,0,1,396.92,374C397,379.68,348.21,388.39,347.88,383Z" fill="none"/>
    </clipPath>
  </defs>
  <g id="Grupo_55721" data-name="Grupo 55721" transform="translate(-235 -2820)">
    <g id="CF1_1.2_derechos_humanos_niños" data-name="CF1_1.2 derechos humanos niños" transform="translate(235 2820)">
      <g id="Capa_2" data-name="Capa 2">
        <rect id="Rectángulo_5372" data-name="Rectángulo 5372" width="500" height="500" fill="none"/>
        <path id="Trazado_102128" data-name="Trazado 102128" d="M212.62,0C330.047,0,425.24,95.193,425.24,212.62S330.047,425.24,212.62,425.24,0,330.047,0,212.62,95.193,0,212.62,0Z" transform="translate(48.9 47.58)" fill="#fafaf6"/>
        <path id="Trazado_101761" data-name="Trazado 101761" d="M261.14,47.09A211.61,211.61,0,0,0,49.38,258.85a7.57,7.57,0,1,0,15.14,0A196.45,196.45,0,0,1,261.14,62.23a7.57,7.57,0,0,0,0-15.14Z" fill="#b3b4aa"/>
        <g id="Grupo_54055" data-name="Grupo 54055">
          <path id="Trazado_101762" data-name="Trazado 101762" d="M73.92,435.18a203.481,203.481,0,0,1-14.49-16.75C55.13,412.85,51.07,407,46.52,400a13.5,13.5,0,1,0-22.67,14.67c4.8,7.4,9.31,14,14.2,20.3A230.458,230.458,0,0,0,54.42,453.9a13.5,13.5,0,1,0,19.5-18.671Z" fill="#d5d9ba"/>
          <path id="Trazado_101763" data-name="Trazado 101763" d="M98.51,475.72c-3.93-3,3.76,3.21,0,0" fill="#9b6771"/>
          <path id="Trazado_101764" data-name="Trazado 101764" d="M84.23,478a13.751,13.751,0,0,0,1.59,3.87c.27.44.48.73.65,1,.35.47.58.73.76.94.34.39.53.57.68.72s.41.39.53.5l.5.43.73.61,1.12.9.62.47.61.43.33.21a11.709,11.709,0,0,0,1.07.61,12.927,12.927,0,0,0,1.46.64,13.344,13.344,0,0,0,1.55.47,12.667,12.667,0,0,0,1.62.28H99.6a14.116,14.116,0,0,0,1.84-.13,14.326,14.326,0,0,0,2.35-.55,12.857,12.857,0,0,0,2.48-1.1,13.457,13.457,0,0,0,6.21-15.79,13.4,13.4,0,0,0-.79-2,13.6,13.6,0,0,0-1-1.75,9.442,9.442,0,0,0-.58-.76c-.29-.35-.46-.55-.61-.7s-.41-.42-.53-.54l-.46-.42c-.18-.17-.34-.31-.53-.47l-.64-.55a3.154,3.154,0,0,0-.29-.22l-.26-.23h0l-1.09-.82-.63-.44c-.16-.11-.34-.23-.79-.5a12.687,12.687,0,0,0-1.17-.61,15.647,15.647,0,0,0-1.5-.59l-.68-.2H99.54c-.31-.05-.72-.1-1.23-.14H97a12.714,12.714,0,0,0-2.1.22,14.136,14.136,0,0,0-2.38.68A13.57,13.57,0,0,0,88,465.15a13.411,13.411,0,0,0-2.41,3.13,13.07,13.07,0,0,0-1.48,4.07,12.679,12.679,0,0,0-.24,2.52A13.22,13.22,0,0,0,84.23,478Zm14.11,12.1ZM100.81,461.81ZM100.68,461.81ZM100.11,461.68Z" fill="#bd9aa0"/>
          <path id="Trazado_101765" data-name="Trazado 101765" d="M408.39,31.53A272.51,272.51,0,0,1,481,99.34" fill="#590212"/>
          <path id="Trazado_101766" data-name="Trazado 101766" d="M402.21,41.23a260.85,260.85,0,0,1,69.53,64.94,11.5,11.5,0,1,0,18.5-13.661A283.931,283.931,0,0,0,414.58,21.84a11.5,11.5,0,1,0-12.37,19.39Z" fill="#deccd0"/>
          <path id="Trazado_101767" data-name="Trazado 101767" d="M458.51,409.39c-2.73,3.57,2.91-3.41,0,0" fill="#9b6771"/>
          <path id="Trazado_101768" data-name="Trazado 101768" d="M462.13,428.41a19.582,19.582,0,0,0,2.61-.85,18,18,0,0,0,2.71-1.38c.59-.36,1-.65,1.32-.89.63-.47,1-.77,1.25-1,.52-.47.76-.71,1-.91.36-.36.51-.53.65-.69s.36-.42.5-.58.42-.49.62-.74.59-.73.89-1.12c.15-.2.3-.38.53-.69l.22-.3.23-.34.28-.41.31-.5c.09-.16.21-.35.34-.6a17.679,17.679,0,0,0,.9-1.84,18.255,18.255,0,0,0,.74-2.14,17.461,17.461,0,0,0,.43-1.92,18.491,18.491,0,0,0-3.64-14.44,18.73,18.73,0,0,0-3.69-3.59,19.277,19.277,0,0,0-3.14-1.84,18.382,18.382,0,0,0-4.35-1.39,18,18,0,0,0-3.42-.32,18.49,18.49,0,0,0-7.09,1.41,19.365,19.365,0,0,0-2,.95,20.153,20.153,0,0,0-1.91,1.23c-.4.3-.67.52-.9.7-.42.36-.66.58-.86.77s-.53.51-.68.67l-.51.55-.5.57-.53.62c-.11.13-.2.27-.31.4s-.21.24-.31.37h0c-.33.43-.57.74-.83,1.1l-.22.3-.22.31-.23.36c-.08.11-.16.24-.27.42l-.3.5c-.1.16-.2.35-.34.6a19.479,19.479,0,0,0-1.54,3.93,18.47,18.47,0,0,0,12.87,22.58,19,19,0,0,0,4,.67h1a18.528,18.528,0,0,0,4.39-.53Z" fill="#eef0e3"/>
          <path id="Trazado_101769" data-name="Trazado 101769" d="M55.27,128.08a247.3,247.3,0,0,1,61.56-65.91" fill="#590212"/>
          <path id="Trazado_101770" data-name="Trazado 101770" d="M62.44,132.65A238.651,238.651,0,0,1,121.88,69a8.5,8.5,0,1,0-10.1-13.68A256,256,0,0,0,48.1,123.51a8.5,8.5,0,1,0,14.34,9.14Z" fill="#f1cdcd"/>
        </g>
      </g>
      <g id="Layer_1" data-name="Layer 1">
        <path id="Trazado_101771" data-name="Trazado 101771" d="M285.55,32.93a231.169,231.169,0,0,0-25.36-1.4,229.542,229.542,0,0,0-24.85,457.71,9.794,9.794,0,1,0,2.14-19.47A209.944,209.944,0,1,1,283.4,52.4a9.794,9.794,0,0,0,2.15-19.47Z" fill="#e6e8d6"/>
        <g id="Grupo_54056" data-name="Grupo 54056">
          <path id="Trazado_101772" data-name="Trazado 101772" d="M398.81,70.69,85.56,68.47,78.7,74.35,81.98,301.7l317.41-8.54Z" fill="#376d5e" opacity="0.5"/>
          <path id="Trazado_101773" data-name="Trazado 101773" d="M404.69,64.08,83.76,66.49l4.1,228.6,317.93-14.16Z" fill="#eef0e3"/>
          <path id="Trazado_101774" data-name="Trazado 101774" d="M401.11,67.98,83.76,66.49l4.1,228.6,317.93-14.16Z" fill="#d5d9ba"/>
          <path id="Trazado_101775" data-name="Trazado 101775" d="M395.39,76.18,87.87,71.22l4.37,218.2,307.67-14.21Z" fill="#929488"/>
          <path id="Trazado_101776" data-name="Trazado 101776" d="M398.83,71.27,93.11,74.71l1.48,207.97,302.22-9.42Z" fill="#dde1c8"/>
          <path id="Trazado_101777" data-name="Trazado 101777" d="M394.96,75.15,97.02,78.51,98.45,278.8l294.49-9.11Z" fill="#35362f"/>
          <path id="Trazado_101778" data-name="Trazado 101778" d="M395,75.15,97,78.51C88.28,249.34,359,355.38,395,75.15Z" fill="#6b6d5d"/>
          <path id="Trazado_101779" data-name="Trazado 101779" d="M380.05,291.17l-151.44,3.58V307.1l152.75-.4Z" fill="#c19342"/>
          <path id="Trazado_101780" data-name="Trazado 101780" d="M380.05,285.28,228.61,289.2v13.53l152.75-.43Z" fill="#efca75"/>
          <path id="Trazado_101781" data-name="Trazado 101781" d="M365.91,280.42l-126,3.27v11.25L367,294.58Z" fill="#dbaf58"/>
          <path id="Trazado_101782" data-name="Trazado 101782" d="M345.45,285.83l-15.81-4.04-4.58,2.18,2.4,3.71,16.98,2.96Z" fill="#c19342"/>
          <path id="Trazado_101783" data-name="Trazado 101783" d="M274.08,291.26l16.29-.97,3.69-3.48-3.41-2.8-17.08,2.36Z" fill="#c19342"/>
          <path id="Trazado_101784" data-name="Trazado 101784" d="M346.98,284.6l-15.69-4.49-4.64,2.05,2.29,3.78,16.9,3.44Z" fill="#def9ee"/>
          <path id="Trazado_101785" data-name="Trazado 101785" d="M275.99,289.48l16.31.51,4-3.13-3.15-3.1-17.22.81Z" fill="#def9ee"/>
          <rect id="Rectángulo_5373" data-name="Rectángulo 5373" width="365.35" height="327.3" transform="translate(57.11 44.38)" fill="none"/>
        </g>
        <text id="Derechos_humanos_de_los_niños" data-name="Derechos 
humanos de 
los niños" transform="translate(209.05 112.58)" fill="#fff" font-size="25" font-family="GloriaHallelujah, Gloria Hallelujah"><tspan x="0" y="0">Derechos </tspan><tspan x="0" y="30">humanos de </tspan><tspan x="0" y="60">los niños</tspan></text>
        <g id="Grupo_54066" data-name="Grupo 54066" clip-path="url(#clip-path)">
          <g id="Grupo_54065" data-name="Grupo 54065">
            <g id="Grupo_54059" data-name="Grupo 54059">
              <path id="Trazado_101786" data-name="Trazado 101786" d="M147.29,181.75c-20.77,6.25-53.36,1.05-66.23-24.56,0,0,8.89-53.15,35.16-61.09s59.28-13.82,60.61,38.74C177.8,173,147.29,181.75,147.29,181.75Z" fill="#5d0303"/>
              <path id="Trazado_101787" data-name="Trazado 101787" d="M99.57,174.48l19.28-37.7,51.38-1.43C178.53,182,123.75,197.56,99.57,174.48Z" fill="#4c3028"/>
              <rect id="Rectángulo_5374" data-name="Rectángulo 5374" width="12.05" height="20.81" transform="translate(131.286 171.034) rotate(-11.34)" fill="#ffbc85"/>
              <path id="Trazado_101788" data-name="Trazado 101788" d="M163.08,186.8c9,2.09,45.23,46,50,56.06L212,255.18s-35.27-33.81-42.63-40.88Z" fill="#ffebb3"/>
              <path id="Trazado_101789" data-name="Trazado 101789" d="M213.71,242.14l-1.76,13s-35.27-33.81-42.63-40.88l-2-8.63c6.53,6.34,22.57,22.08,34.36,33.66C206.13,243.66,210.38,237.82,213.71,242.14Z" fill="#f7d19a"/>
              <path id="Trazado_101790" data-name="Trazado 101790" d="M214,238.23c-4.32-.87-3.93,20.13-3.93,20.13s11.32,4.53,15.8,2.83S219.37,239.31,214,238.23Z" fill="#ffebb3"/>
              <path id="Trazado_101791" data-name="Trazado 101791" d="M216.52,246.49c3.92-8.42,27.35-55.81,31.27-54.21S222.6,258,222.6,258C215.75,257,214.13,253.68,216.52,246.49Z" fill="#ffbc85"/>
              <path id="Trazado_101792" data-name="Trazado 101792" d="M222.71,245c3.92-8.42,23.3-51.75,25.08-52.75C251.71,193.86,222.6,258,222.6,258,216.89,256.69,220.32,252.21,222.71,245Z" fill="#f9a475"/>
              <path id="Trazado_101793" data-name="Trazado 101793" d="M161.17,482.44c9.41-45.64,29-159.73,10.58-192.41-14.53-25.79-40.08,6.64-40.08,6.64-18.09,31.57-34.75,185.77-34.75,185.77h7.29s33.71-165.07,47.2-167.84c17.9-3.67,3.5,167.84,3.5,167.84Z" fill="#ffbc85"/>
              <path id="Trazado_101794" data-name="Trazado 101794" d="M160.1,389.22c1-39.56-.3-76.34-8.69-74.62-6.18,1.27-16.62,36.66-26.11,74.62H109.4c6.19-38.86,14.09-78.26,22.27-92.55,0,0,25.55-32.43,40.08-6.64,9.83,17.45,8.83,58.12,4.33,99.19Z" fill="#f9a475"/>
              <path id="Trazado_101795" data-name="Trazado 101795" d="M184,371.36c-30.78-1.55-48.22-1-78.11-.39,1.7-27.15,5.87-48.75,15.23-95.75L175.94,269C183.23,307.74,184.48,330.48,184,371.36Z" fill="#9b6771"/>
              <path id="Trazado_101796" data-name="Trazado 101796" d="M116.93,296.47c1.27-6.5,2.66-13.52,4.2-21.25L175.94,269c7.29,38.79,8.54,61.53,8.07,102.41l-14-.07C173.14,295.33,163.5,289.05,116.93,296.47Z" fill="#7a3541"/>
              <path id="Trazado_101797" data-name="Trazado 101797" d="M178.8,282.74c5.6-41.92-.71-85.9-10.39-92.9-9.23-6.68-47.91,4.06-51.23,8.12-5,6.15,6.69,57.83,2.39,80.75C116.94,292.73,178.06,288.25,178.8,282.74Z" fill="#41556d"/>
              <g id="Grupo_54058" data-name="Grupo 54058" clip-path="url(#clip-path-2)">
                <g id="Grupo_54057" data-name="Grupo 54057">
                  <path id="Trazado_101798" data-name="Trazado 101798" d="M200.47,299.23,207,286.52l-8.44-16.12-5.42,18.75Z" fill="#6a89a5"/>
                  <path id="Trazado_101799" data-name="Trazado 101799" d="M198.65,271.77l6.53-12.71-8.43-16.13-5.43,18.76Z" fill="#6a89a5"/>
                  <path id="Trazado_101800" data-name="Trazado 101800" d="M196.93,245.68l6.53-12.71-8.44-16.13-5.43,18.76Z" fill="#6a89a5"/>
                  <path id="Trazado_101801" data-name="Trazado 101801" d="M195.23,219.93l6.52-12.71-8.43-16.13-5.43,18.76Z" fill="#6a89a5"/>
                  <path id="Trazado_101802" data-name="Trazado 101802" d="M193.52,194.19l6.53-12.72-8.43-16.12-5.43,18.76Z" fill="#6a89a5"/>
                  <path id="Trazado_101803" data-name="Trazado 101803" d="M191.87,169.12l6.53-12.71-8.44-16.12-5.43,18.75Z" fill="#6a89a5"/>
                  <path id="Trazado_101804" data-name="Trazado 101804" d="M213.99,296.67l6.52-12.71-8.43-16.13-5.43,18.76Z" fill="#6a89a5"/>
                  <path id="Trazado_101805" data-name="Trazado 101805" d="M212.17,269.2l6.53-12.71-8.44-16.12-5.42,18.75Z" fill="#6a89a5"/>
                  <path id="Trazado_101806" data-name="Trazado 101806" d="M210.44,243.11l6.53-12.71-8.43-16.12-5.43,18.75Z" fill="#6a89a5"/>
                  <path id="Trazado_101807" data-name="Trazado 101807" d="M208.74,217.37l6.53-12.71-8.43-16.13-5.43,18.75Z" fill="#6a89a5"/>
                  <path id="Trazado_101808" data-name="Trazado 101808" d="M207.04,191.62l6.53-12.71-8.44-16.13-5.42,18.76Z" fill="#6a89a5"/>
                  <path id="Trazado_101809" data-name="Trazado 101809" d="M205.38,166.56l6.53-12.71-8.43-16.13-5.43,18.76Z" fill="#6a89a5"/>
                  <path id="Trazado_101810" data-name="Trazado 101810" d="M174.13,304.23l6.53-12.71-8.44-16.13-5.42,18.76Z" fill="#6a89a5"/>
                  <path id="Trazado_101811" data-name="Trazado 101811" d="M172.31,276.77l6.53-12.71-8.43-16.13-5.43,18.76Z" fill="#6a89a5"/>
                  <path id="Trazado_101812" data-name="Trazado 101812" d="M170.59,250.68l6.53-12.71-8.44-16.13-5.42,18.76Z" fill="#6a89a5"/>
                  <path id="Trazado_101813" data-name="Trazado 101813" d="M168.89,224.93l6.53-12.71-8.44-16.13-5.43,18.76Z" fill="#6a89a5"/>
                  <path id="Trazado_101814" data-name="Trazado 101814" d="M167.19,199.18l6.52-12.71-8.43-16.12-5.43,18.76Z" fill="#6a89a5"/>
                  <path id="Trazado_101815" data-name="Trazado 101815" d="M165.53,174.12l6.53-12.71-8.44-16.12-5.43,18.75Z" fill="#6a89a5"/>
                  <path id="Trazado_101816" data-name="Trazado 101816" d="M187.65,301.67l6.53-12.72-8.44-16.12-5.43,18.76Z" fill="#6a89a5"/>
                  <path id="Trazado_101817" data-name="Trazado 101817" d="M185.83,274.2l6.53-12.71-8.43-16.13-5.43,18.76Z" fill="#6a89a5"/>
                  <path id="Trazado_101818" data-name="Trazado 101818" d="M184.11,248.11l6.52-12.71-8.43-16.13-5.43,18.76Z" fill="#6a89a5"/>
                  <path id="Trazado_101819" data-name="Trazado 101819" d="M182.4,222.36l6.53-12.71-8.43-16.12-5.43,18.76Z" fill="#6a89a5"/>
                  <path id="Trazado_101820" data-name="Trazado 101820" d="M180.7,196.62l6.53-12.71-8.43-16.13-5.43,18.76Z" fill="#6a89a5"/>
                  <path id="Trazado_101821" data-name="Trazado 101821" d="M179.05,171.56l6.52-12.71-8.43-16.13-5.43,18.76Z" fill="#6a89a5"/>
                  <path id="Trazado_101822" data-name="Trazado 101822" d="M148.14,309.16l6.53-12.71-8.44-16.12-5.42,18.75Z" fill="#6a89a5"/>
                  <path id="Trazado_101823" data-name="Trazado 101823" d="M146.32,281.7l6.53-12.71-8.43-16.13-5.43,18.76Z" fill="#6a89a5"/>
                  <path id="Trazado_101824" data-name="Trazado 101824" d="M144.6,255.61l6.53-12.71-8.44-16.13-5.43,18.76Z" fill="#6a89a5"/>
                  <path id="Trazado_101825" data-name="Trazado 101825" d="M142.9,229.86l6.53-12.71-8.44-16.12-5.43,18.75Z" fill="#6a89a5"/>
                  <path id="Trazado_101826" data-name="Trazado 101826" d="M141.19,204.12l6.53-12.71-8.43-16.13-5.43,18.76Z" fill="#6a89a5"/>
                  <path id="Trazado_101827" data-name="Trazado 101827" d="M139.54,179.06l6.52-12.72-8.43-16.12-5.43,18.76Z" fill="#6a89a5"/>
                  <path id="Trazado_101828" data-name="Trazado 101828" d="M161.66,306.6l6.52-12.71-8.43-16.13-5.43,18.76Z" fill="#6a89a5"/>
                  <path id="Trazado_101829" data-name="Trazado 101829" d="M159.84,279.13l6.53-12.71-8.44-16.12-5.43,18.76Z" fill="#6a89a5"/>
                  <path id="Trazado_101830" data-name="Trazado 101830" d="M158.11,253.04l6.53-12.71-8.43-16.12-5.43,18.76Z" fill="#6a89a5"/>
                  <path id="Trazado_101831" data-name="Trazado 101831" d="M156.41,227.3l6.53-12.71-8.43-16.13-5.43,18.76Z" fill="#6a89a5"/>
                  <path id="Trazado_101832" data-name="Trazado 101832" d="M154.71,201.55l6.53-12.71-8.44-16.12-5.42,18.75Z" fill="#6a89a5"/>
                  <path id="Trazado_101833" data-name="Trazado 101833" d="M153.05,176.49l6.53-12.71-8.43-16.13-5.43,18.76Z" fill="#6a89a5"/>
                  <path id="Trazado_101834" data-name="Trazado 101834" d="M121.8,314.16l6.53-12.71-8.44-16.12-5.42,18.75Z" fill="#6a89a5"/>
                  <path id="Trazado_101835" data-name="Trazado 101835" d="M119.99,286.7l6.52-12.71-8.43-16.13-5.43,18.76Z" fill="#6a89a5"/>
                  <path id="Trazado_101836" data-name="Trazado 101836" d="M118.26,260.61l6.53-12.71-8.44-16.13-5.42,18.76Z" fill="#6a89a5"/>
                  <path id="Trazado_101837" data-name="Trazado 101837" d="M116.56,234.86l6.53-12.71-8.44-16.12-5.43,18.75Z" fill="#6a89a5"/>
                  <path id="Trazado_101838" data-name="Trazado 101838" d="M114.86,209.12l6.52-12.71-8.43-16.13-5.43,18.76Z" fill="#6a89a5"/>
                  <path id="Trazado_101839" data-name="Trazado 101839" d="M113.2,184.05l6.53-12.7-8.44-16.13-5.43,18.76Z" fill="#6a89a5"/>
                  <path id="Trazado_101840" data-name="Trazado 101840" d="M135.32,311.6l6.52-12.71-8.43-16.13-5.43,18.76Z" fill="#6a89a5"/>
                  <path id="Trazado_101841" data-name="Trazado 101841" d="M133.5,284.13l6.53-12.71-8.44-16.12-5.42,18.76Z" fill="#6a89a5"/>
                  <path id="Trazado_101842" data-name="Trazado 101842" d="M131.78,258.04l6.52-12.71-8.43-16.12-5.43,18.75Z" fill="#6a89a5"/>
                  <path id="Trazado_101843" data-name="Trazado 101843" d="M130.07,232.3l6.53-12.71-8.43-16.13-5.43,18.76Z" fill="#6a89a5"/>
                  <path id="Trazado_101844" data-name="Trazado 101844" d="M128.37,206.55l6.53-12.71-8.44-16.13-5.42,18.76Z" fill="#6a89a5"/>
                  <path id="Trazado_101845" data-name="Trazado 101845" d="M126.71,181.49l6.53-12.71-8.43-16.13-5.43,18.76Z" fill="#6a89a5"/>
                  <path id="Trazado_101846" data-name="Trazado 101846" d="M108.98,316.6l6.53-12.72-8.44-16.12-5.42,18.75Z" fill="#6a89a5"/>
                  <path id="Trazado_101847" data-name="Trazado 101847" d="M107.16,289.13l6.53-12.71-8.43-16.12-5.43,18.75Z" fill="#6a89a5"/>
                  <path id="Trazado_101848" data-name="Trazado 101848" d="M105.44,263.04l6.53-12.71-8.44-16.12-5.42,18.75Z" fill="#6a89a5"/>
                  <path id="Trazado_101849" data-name="Trazado 101849" d="M103.73,237.29l6.53-12.7-8.43-16.13L96.4,227.22Z" fill="#6a89a5"/>
                  <path id="Trazado_101850" data-name="Trazado 101850" d="M102.03,211.55l6.53-12.71-8.43-16.13L94.7,201.47Z" fill="#6a89a5"/>
                  <path id="Trazado_101851" data-name="Trazado 101851" d="M100.38,186.49l6.52-12.71-8.43-16.13-5.43,18.76Z" fill="#6a89a5"/>
                </g>
              </g>
              <path id="Trazado_101853" data-name="Trazado 101853" d="M162.92,187.9c-7.63,7.64-26.95,16.34-43.16,8.6C136.33,189,144.56,185.37,162.92,187.9Z" fill="#ffa836"/>
              <path id="Trazado_101854" data-name="Trazado 101854" d="M159.15,187.88c-8,6.45-20.28,12.1-36,7.23C139.72,187.63,140.79,185.34,159.15,187.88Z" fill="#ffebb3"/>
              <path id="Trazado_101855" data-name="Trazado 101855" d="M158.68,184.26c1.29,2.5-8,7.63-11.46,6.73s-6.52-6.3-5.72-8.06S157.6,182.18,158.68,184.26Z" fill="#ffebb3"/>
              <path id="Trazado_101856" data-name="Trazado 101856" d="M124.32,190.84c-.26,2.55,10,3.45,12.85,1.44s3.61-7.64,2.25-8.81S124.53,188.7,124.32,190.84Z" fill="#ffebb3"/>
              <path id="Trazado_101857" data-name="Trazado 101857" d="M139.09,185.3c-1.05-1.19-5.79,3.1-6.07,5.23s1.95,4.86,3.06,4.74S140,186.3,139.09,185.3Z" fill="#f7d19a"/>
              <path id="Trazado_101858" data-name="Trazado 101858" d="M142.61,184.64c.53-1.67,6.77,0,7.88,1.89s.08,5.61-1,6.05S142.17,186,142.61,184.64Z" fill="#f7d19a"/>
              <path id="Trazado_101859" data-name="Trazado 101859" d="M117.36,200.47c-7.42,3-27.84,48-33.85,57l5.21,9.63s24.67-34.64,30.2-42.18C121.25,216,123.17,206.27,117.36,200.47Z" fill="#ffebb3"/>
              <path id="Trazado_101860" data-name="Trazado 101860" d="M121.11,209.44c.37,4.81-.83,10.28-2.19,15.5-5.53,7.54-30.2,42.18-30.2,42.18l-5.33-10.4c3.77-6.6,7.89-2.87,9.75-5.5C102.81,237.49,114.47,218.79,121.11,209.44Z" fill="#f7d19a"/>
              <path id="Trazado_101861" data-name="Trazado 101861" d="M79.68,253.54c1.86-3.38,18.47,6.67,18.47,6.67s-3.9,9.78-7.6,11.59S77.37,257.72,79.68,253.54Z" fill="#ffebb3"/>
              <path id="Trazado_101862" data-name="Trazado 101862" d="M83.81,257.59c-5.48,6.7-39.39,51.57-36.43,54S89.94,266,89.94,266C90.27,260.81,89.79,257.81,83.81,257.59Z" fill="#ffbc85"/>
              <path id="Trazado_101863" data-name="Trazado 101863" d="M89.46,260.38a12.66,12.66,0,0,1,.48,5.62s-39.59,47.91-42.56,45.54c-.38-.3-.14-1.31.55-2.83C58.5,298.73,84.58,266.45,89.46,260.38Z" fill="#f9a475"/>
              <path id="Trazado_101864" data-name="Trazado 101864" d="M53,305.92c2.85,3.22-6.36,18.64-9.25,17.19-7.4-3.69-7.88-9-7.11-10.83S50,302.55,53,305.92Z" fill="#ffbc85"/>
              <path id="Trazado_101865" data-name="Trazado 101865" d="M54.11,304.34c2.35,3.6-6.75,19.05-9.64,17.61-7.4-3.7-5-8.66-4.19-10.48S52.94,302.56,54.11,304.34Z" fill="#f9a475"/>
              <path id="Trazado_101866" data-name="Trazado 101866" d="M243.26,200.57c-3.45-2.37,4.38-19.79,7.51-19.06,8,1.86,6.29,9.32,5.91,11.14S246.88,203,243.26,200.57Z" fill="#ffbc85"/>
              <path id="Trazado_101867" data-name="Trazado 101867" d="M244.51,199.59c-3.46-2.36,4.55-17.5,7.64-16.62,5.7,1.62,4.72,8,4.53,9.68C256.48,194.49,248.13,202.06,244.51,199.59Z" fill="#f9a475"/>
              <path id="Trazado_101868" data-name="Trazado 101868" d="M154,484c1-5,3.31-6.86,9.57-7.82,7.12-1.09,17.14,4.13,23.06,7.82Z" fill="#f7ead0"/>
              <path id="Trazado_101869" data-name="Trazado 101869" d="M73.75,484c2.94-4.75,12.92-8.22,19-7.67,6.51.61,11.63,1.1,12.46,7.67Z" fill="#f7ead0"/>
              <path id="Trazado_101870" data-name="Trazado 101870" d="M153.77,482.14l33.05.76.15,1.09H153.7Z" fill="#d3c2a3"/>
              <path id="Trazado_101871" data-name="Trazado 101871" d="M73.31,483.1l32.3-.99.15,1.92H73.39Z" fill="#d3c2a3"/>
              <path id="Trazado_101872" data-name="Trazado 101872" d="M96.41,476.84c2.83,1.54-.16,6.48-6.44-.66Z" fill="#ffbc85"/>
              <path id="Trazado_101873" data-name="Trazado 101873" d="M162.32,476.21c-2.56,1.33-.07,6.41,5.72-.24Z" fill="#ffbc85"/>
              <path id="Trazado_101874" data-name="Trazado 101874" d="M47.21,317.83c-2.08-1.52-5.23,4-5.58,5.12s.34,1.58,1.39,1.63S49.32,319.37,47.21,317.83Z" fill="#ffbc85"/>
              <path id="Trazado_101875" data-name="Trazado 101875" d="M43.73,312.73c-2-1.55-5.73,4.93-6.19,6.25s.23,1.76,1.32,1.73S45.8,314.3,43.73,312.73Z" fill="#ffbc85"/>
              <path id="Trazado_101876" data-name="Trazado 101876" d="M38.09,311.08c-1.53-2.53-4,3.11-4.23,4.38a2,2,0,0,0,1,2.45C35.67,318.32,39.65,313.66,38.09,311.08Z" fill="#ffbc85"/>
              <path id="Trazado_101877" data-name="Trazado 101877" d="M51,303.79c2.11,2.5-12.37,6.47-13.84,5.95s-2.18-1.27-1-2.27S49,301.33,51,303.79Z" fill="#ffbc85"/>
              <path id="Trazado_101878" data-name="Trazado 101878" d="M172.93,279.39c2.64-19.76,5.17-40.93,6.1-58.52a241.79,241.79,0,0,1-.23,61.87c-.66,5-50.44,9.1-58.27-.43C136,287.26,172.37,283.63,172.93,279.39Z" fill="#477784" opacity="0.3"/>
              <path id="Trazado_101879" data-name="Trazado 101879" d="M249.26,208.7c-1.1,0-.41-17.06.76-34.21,1.49-21.86,4-66.25,5.47-66.09s-1.43,45.29-2.08,66.41C252.85,192.83,252.06,208.67,249.26,208.7Z" fill="#8e624c"/>
              <path id="Trazado_101880" data-name="Trazado 101880" d="M248.8,176.45c-3,.53-.53,6.63-2.35,8.93s-4.21,7.28-2.26,8.26,4.95-2,5.78-5.55C251.28,182.55,251.46,176,248.8,176.45Z" fill="#ffbc85"/>
              <path id="Trazado_101881" data-name="Trazado 101881" d="M257.86,182.14c-1.23-1.87-8.37,3.11-7,4.86S259.41,184.47,257.86,182.14Z" fill="#ffbc85"/>
              <path id="Trazado_101882" data-name="Trazado 101882" d="M258.11,186.52c-1.13-1.92-8.53,2.71-7.23,4.53S259.52,188.93,258.11,186.52Z" fill="#ffbc85"/>
              <path id="Trazado_101883" data-name="Trazado 101883" d="M257.85,191.19c-.88-2-8.8,1.76-7.73,3.72S259,193.74,257.85,191.19Z" fill="#ffbc85"/>
              <path id="Trazado_101884" data-name="Trazado 101884" d="M104,368.47c31.77-2.41,54.79-2.64,82,0v5c-30-3.32-48.84-3.45-81-1.57Z" fill="#8ea5b2"/>
              <path id="Trazado_101885" data-name="Trazado 101885" d="M116,202.86c.15-2.35.51-4.06,1.2-4.9.82-1,3.78-2.4,7.91-3.85L127.7,193c-2-.42-3.48-1.16-3.38-2.14.13-1.33,5.42-4.31,9.73-6.09L131.29,171l11.82-2.37L145.8,182c4.85-.11,12.15.81,12.88,2.22.43.83-.32,1.94-1.61,3,1.84.13,3.77.33,5.85.61l-.09.09a18,18,0,0,1,2.95.62v-.09a3.711,3.711,0,0,1,.65.3,8.44,8.44,0,0,1,2,1,10.089,10.089,0,0,1,2.25,2.4c1.05,1,2.19,2.27,3.39,3.64-7.19,4.75-18.48,8.3-31.36,9.29A76.45,76.45,0,0,1,116,202.86Z" fill="#7a3715" opacity="0.4"/>
              <path id="Trazado_101886" data-name="Trazado 101886" d="M139.5,175.39c18.69-3.21,35.33-16.28,31.84-41.86-2.34-17.08-17.83-35-42.88-31.56-19.35,2.64-31.83,21.68-28.79,43.95C101.84,161.86,114.57,179.66,139.5,175.39Z" fill="#f9a475"/>
              <path id="Trazado_101887" data-name="Trazado 101887" d="M142.15,171.38c17.1-3,32.27-15.31,28.94-39.64-2.22-16.25-16.49-33.33-39.41-30.21C114,104,102.64,122,105.53,143.17,107.6,158.34,119.34,175.32,142.15,171.38Z" fill="#ffbc85"/>
              <path id="Trazado_101888" data-name="Trazado 101888" d="M114.79,102.37c12.55-2.24,8.4,71.43-12.37,73S97.5,105.47,114.79,102.37Z" fill="#5d0303"/>
              <path id="Trazado_101889" data-name="Trazado 101889" d="M118.44,105.05c2.53,1.69,15.09-12.57,16.35-13.41,0,0-5-3.6-10.59,2C119.91,97.93,116.55,103.8,118.44,105.05Z" fill="#ffc364"/>
              <path id="Trazado_101890" data-name="Trazado 101890" d="M115.59,135.7c-4.35-3.12-11.28,10,.49,12.59C116.08,148.29,120.38,139.14,115.59,135.7Z" fill="#ffbc85"/>
              <path id="Trazado_101891" data-name="Trazado 101891" d="M131,126.37c-1.8.28-.6,13.93,2.54,13.67C136,139.83,135.92,125.59,131,126.37Z" fill="#563f30"/>
              <path id="Trazado_101892" data-name="Trazado 101892" d="M154.61,124.56c-1.76.24-.91,13.54,2.15,13.36C159.16,137.78,159.44,123.92,154.61,124.56Z" fill="#563f30"/>
              <path id="Trazado_101893" data-name="Trazado 101893" d="M156.15,150c2.84,2.51-4.79,16.73-10,17.28-6.63.71-11.15-12.7-9.8-15.11,1.12-2,5.86-1.08,10.28-1.3S155.36,149.35,156.15,150Z" fill="#563228"/>
              <path id="Trazado_101894" data-name="Trazado 101894" d="M155,149.74c.65.78-1.43,5.34-1.43,5.34s-8.85,1.56-15,.78l-1.69-4.43C139.24,150.39,153.3,149.61,155,149.74Z" fill="#ffeee1"/>
              <path id="Trazado_101895" data-name="Trazado 101895" d="M147.59,139.32l.11-.52c5.34,2.09,2.47,8.07-1.56,7l.09-.39a3.49,3.49,0,0,0,1.36-6.09Z" fill="#ed9774"/>
              <path id="Trazado_101896" data-name="Trazado 101896" d="M161.89,125.13c-1.82-2.34-7.94-5.46-11.32-3.51C154.08,116.41,159.67,118.89,161.89,125.13Z" fill="#6b4c40"/>
              <path id="Trazado_101897" data-name="Trazado 101897" d="M125,128.54c.57-2.83,4.42-8,8.1-7.57C128,117.61,124.27,122,125,128.54Z" fill="#6b4c40"/>
              <path id="Trazado_101898" data-name="Trazado 101898" d="M122.88,150.18c-.44-1.32,1.25-3.07,3.77-3.92s4.93-.47,5.37.85-1.24,3.07-3.77,3.92S123.33,151.49,122.88,150.18Z" fill="#f9a475"/>
              <path id="Trazado_101899" data-name="Trazado 101899" d="M157.91,144.91c.22-1.37,2.54-2.12,5.16-1.68s4.57,1.91,4.34,3.28-2.55,2.12-5.17,1.68S157.67,146.28,157.91,144.91Z" fill="#f9a475"/>
            </g>
            <g id="Grupo_54064" data-name="Grupo 54064">
              <path id="Trazado_101900" data-name="Trazado 101900" d="M433.07,347.52c-.18-4.8-8.09-8.36-17.66-8s-17.19,4.63-17,9.43,8.08,8.36,17.66,7.95S433.24,352.32,433.07,347.52Z" fill="#f4cf92"/>
              <path id="Trazado_101901" data-name="Trazado 101901" d="M425.41,352.66c.54,3.57,7.75,2,9-2.48S424.46,346.37,425.41,352.66Z" fill="#f4cf92"/>
              <path id="Trazado_101902" data-name="Trazado 101902" d="M429.69,351.49c1.89,2.63,11.29-1.68,6.33-6.8S428.54,349.88,429.69,351.49Z" fill="#ffbc85"/>
              <path id="Trazado_101903" data-name="Trazado 101903" d="M429.58,351.27c1.1,2.63,6.6-1.68,3.7-6.8S428.9,349.66,429.58,351.27Z" fill="#f9a475"/>
              <path id="Trazado_101904" data-name="Trazado 101904" d="M437.42,347.47c.46-1.27,0-5.38-1-5.38s-1,4.59-.86,5S437,348.57,437.42,347.47Z" fill="#f9a475"/>
              <path id="Trazado_101905" data-name="Trazado 101905" d="M350.55,485.46s-2.66-95-2.66-104.52l48.95-9.41S392,436.6,384.39,484.39h-6s13.87-84.26-5.27-85.44c-21.56-1.33-16.06,86.51-16.06,86.51Z" fill="#7a3541"/>
              <g id="Grupo_54060" data-name="Grupo 54060">
                <path id="Trazado_101906" data-name="Trazado 101906" d="M353.2,482.29s-2.34-83.76-2.63-101.87l-2.68.52c0,9.55,2.66,104.52,2.66,104.52h6.52s-.07-1.15-.16-3.17Z" fill="#a04b37"/>
                <path id="Trazado_101907" data-name="Trazado 101907" d="M381.05,481.22s13.87-84.26-5.27-85.44c-3.35-.21-6,1.73-8.2,5.16a7.52,7.52,0,0,1,5.55-2c19.14,1.18,5.27,85.44,5.27,85.44h6c.16-1.05.33-2.11.49-3.17Z" fill="#a04b37"/>
              </g>
              <path id="Trazado_101908" data-name="Trazado 101908" d="M396.77,376.12a.412.412,0,0,1,0-.11,6,6,0,0,0,0-.85l-48.85,9.09c0,1.32.32,10.3.42,14.5C365.85,399.77,396,386.7,396.77,376.12Z" fill="#b34300" opacity="0.3"/>
              <path id="Trazado_101909" data-name="Trazado 101909" d="M399.2,352.1s-5.2-12-19.9-32.67l2.9-24.89s14.07,14.2,22.36,53.52Z" fill="#ffebb3"/>
              <path id="Trazado_101910" data-name="Trazado 101910" d="M386.25,307.6,383,295.38c-.48-.56-.75-.84-.75-.84l-2.9,24.89c14.7,20.69,19.9,32.67,19.9,32.67l4.07-3.07C400.58,343.27,398.11,326.47,386.25,307.6Z" fill="#f4cf92"/>
              <path id="Trazado_101911" data-name="Trazado 101911" d="M346.91,384.29c-2.93-27-9.2-58.56-12.71-74.64a1.44,1.44,0,0,1,.64-1.54c5-2.89,30.68-16.9,48.2-13.92a2.38,2.38,0,0,1,1.81,1.61c2.53,7.55,14.66,45.69,12.94,79.21C397.56,379.56,347.76,392.16,346.91,384.29Z" fill="#41556d"/>
              <g id="Grupo_54062" data-name="Grupo 54062" clip-path="url(#clip-path-3)">
                <g id="Grupo_54061" data-name="Grupo 54061">
                  <path id="Trazado_101912" data-name="Trazado 101912" d="M364.87,384.87l-5.35-6.07,3.16-9.53,4.4,8.07Z" fill="#4d677c"/>
                  <path id="Trazado_101913" data-name="Trazado 101913" d="M372.43,383.88l-5.48-6.14,3.25-9.65,4.5,8.16Z" fill="#4d677c"/>
                  <path id="Trazado_101914" data-name="Trazado 101914" d="M380.33,382.65l-5.61-6.21,3.33-9.78,4.62,8.26Z" fill="#4d677c"/>
                  <path id="Trazado_101915" data-name="Trazado 101915" d="M388.43,381.38l-5.75-6.27,3.42-9.91,4.73,8.35Z" fill="#4d677c"/>
                  <path id="Trazado_101916" data-name="Trazado 101916" d="M396.51,379.5l-5.89-6.33,3.07-10.23,5.29,8.63Z" fill="#4d677c"/>
                  <path id="Trazado_101917" data-name="Trazado 101917" d="M357.66,386.02l-5.23-6.01,3.09-9.42,4.3,7.99Z" fill="#4d677c"/>
                  <path id="Trazado_101918" data-name="Trazado 101918" d="M350.8,387.49l-5.12-5.96,3.02-9.3,4.21,7.91Z" fill="#4d677c"/>
                  <path id="Trazado_101919" data-name="Trazado 101919" d="M362.61,370.42l-5.32-5.93,3.15-9.59,4.37,7.96Z" fill="#4d677c"/>
                  <path id="Trazado_101920" data-name="Trazado 101920" d="M370.54,370.66l-5.86-7.4,3.22-9.71,5.18,7.76Z" fill="#4d677c"/>
                  <path id="Trazado_101921" data-name="Trazado 101921" d="M378.11,369.11l-5.72-7.33,3.31-9.83,4.59,8.13Z" fill="#4d677c"/>
                  <path id="Trazado_101922" data-name="Trazado 101922" d="M386.02,366.4l-5.72-6.13,3.4-9.97,4.7,8.23Z" fill="#4d677c"/>
                  <path id="Trazado_101923" data-name="Trazado 101923" d="M394.05,364.34l-5.86-6.18,3.15-10.37,5.25,6.24Z" fill="#4d677c"/>
                  <path id="Trazado_101924" data-name="Trazado 101924" d="M355.44,371.73l-5.19-5.88,3.07-9.46,4.28,7.86Z" fill="#4d677c"/>
                  <path id="Trazado_101925" data-name="Trazado 101925" d="M348.63,373.36l-5.08-5.83,2.99-9.35,4.19,7.79Z" fill="#4d677c"/>
                  <path id="Trazado_101926" data-name="Trazado 101926" d="M360.36,356.06l-5.28-5.81,3.12-9.63,4.35,7.83Z" fill="#4d677c"/>
                  <path id="Trazado_101927" data-name="Trazado 101927" d="M367.82,354.72l-5.4-5.86,3.2-9.76,4.45,7.92Z" fill="#4d677c"/>
                  <path id="Trazado_101928" data-name="Trazado 101928" d="M375.62,353.13l-5.54-5.92,3.29-9.89,4.56,8.01Z" fill="#4d677c"/>
                  <path id="Trazado_101929" data-name="Trazado 101929" d="M383.62,351.5l-5.68-5.98,3.37-10.02,4.67,8.1Z" fill="#4d677c"/>
                  <path id="Trazado_101930" data-name="Trazado 101930" d="M391.59,349.26l-5.81-6.03,3.46-10.16,5.27,6.56Z" fill="#4d677c"/>
                  <path id="Trazado_101931" data-name="Trazado 101931" d="M353.25,357.53l-5.17-5.75,3.05-9.52,4.25,7.75Z" fill="#4d677c"/>
                  <path id="Trazado_101932" data-name="Trazado 101932" d="M346.47,359.31l-5.05-5.7,2.98-9.41,4.16,7.69Z" fill="#4d677c"/>
                  <path id="Trazado_101933" data-name="Trazado 101933" d="M358.46,341.9l-5.25-5.67,3.1-9.7,4.33,7.73Z" fill="#4d677c"/>
                  <path id="Trazado_101934" data-name="Trazado 101934" d="M365.89,340.4l-5.38-5.73,3.18-9.82,4.43,7.81Z" fill="#4d677c"/>
                  <path id="Trazado_101935" data-name="Trazado 101935" d="M373.64,338.64l-5.51-5.79,3.27-9.95,4.53,7.89Z" fill="#4d677c"/>
                  <path id="Trazado_101936" data-name="Trazado 101936" d="M381.59,336.83l-5.64-5.84,3.35-10.09,4.64,7.98Z" fill="#4d677c"/>
                  <path id="Trazado_101937" data-name="Trazado 101937" d="M389.52,334.41l-5.78-5.89,3.44-10.22,4.76,8.06Z" fill="#4d677c"/>
                  <path id="Trazado_101938" data-name="Trazado 101938" d="M351.38,343.53l-5.13-5.63,3.03-9.57,4.23,7.66Z" fill="#4d677c"/>
                  <path id="Trazado_101939" data-name="Trazado 101939" d="M344.65,345.46l-5.03-5.58,2.96-9.45,4.14,7.57Z" fill="#4d677c"/>
                  <path id="Trazado_101940" data-name="Trazado 101940" d="M356.24,327.69l-5.22-5.54,3.08-9.75,4.3,7.61Z" fill="#4d677c"/>
                  <path id="Trazado_101941" data-name="Trazado 101941" d="M363.62,326.02l-5.35-5.6,3.16-9.87,4.4,7.69Z" fill="#4d677c"/>
                  <path id="Trazado_101942" data-name="Trazado 101942" d="M371.32,324.08l-5.47-5.64,3.24-10.01,4.51,7.77Z" fill="#4d677c"/>
                  <path id="Trazado_101943" data-name="Trazado 101943" d="M379.22,322.1l-5.61-5.71,3.33-10.13,4.61,7.85Z" fill="#4d677c"/>
                  <path id="Trazado_101944" data-name="Trazado 101944" d="M387.34,319.89l-5.99-6.13,3.42-10.28,4.83,6.89Z" fill="#4d677c"/>
                  <path id="Trazado_101945" data-name="Trazado 101945" d="M349.21,329.47l-5.11-5.49,3.01-9.62,4.21,7.54Z" fill="#4d677c"/>
                  <path id="Trazado_101946" data-name="Trazado 101946" d="M342.51,331.55l-5-5.45,2.95-9.5,4.11,7.47Z" fill="#4d677c"/>
                  <path id="Trazado_101947" data-name="Trazado 101947" d="M354.2,313.71l-5.19-5.42,3.06-9.8,4.28,7.51Z" fill="#4d677c"/>
                  <path id="Trazado_101948" data-name="Trazado 101948" d="M361.53,311.87l-5.31-5.47,3.14-9.92,4.38,7.58Z" fill="#4d677c"/>
                  <path id="Trazado_101949" data-name="Trazado 101949" d="M369.19,309.77l-5.44-5.52,3.22-10.06,4.48,7.66Z" fill="#4d677c"/>
                  <path id="Trazado_101950" data-name="Trazado 101950" d="M377.05,307.61l-5.58-5.57,3.31-10.19,4.59,7.73Z" fill="#4d677c"/>
                  <path id="Trazado_101951" data-name="Trazado 101951" d="M384.88,304.85l-5.72-5.61,3.4-10.34,4.7,7.81Z" fill="#4d677c"/>
                  <path id="Trazado_101952" data-name="Trazado 101952" d="M347.21,315.64l-5.08-5.36,2.99-9.68,4.19,7.43Z" fill="#4d677c"/>
                  <path id="Trazado_101953" data-name="Trazado 101953" d="M340.56,317.87l-4.98-5.33,2.93-9.55,4.09,7.36Z" fill="#4d677c"/>
                </g>
              </g>
              <path id="Trazado_101955" data-name="Trazado 101955" d="M336.06,484.22c1.82-3.12,6.7-5.83,11.43-5.75,4.16.07,8.21,1.76,10,5.75Z" fill="#d8bf93"/>
              <path id="Trazado_101956" data-name="Trazado 101956" d="M350.53,378.22a200.569,200.569,0,0,0-11.3-46.43c3,15.54,6.2,34.53,8.06,51.62.84,7.72,50.29-4.06,50.52-8.51a167.324,167.324,0,0,0-.69-21.51C384,355.72,363.81,341.4,350.53,378.22Z" fill="#477784" opacity="0.3"/>
              <path id="Trazado_101957" data-name="Trazado 101957" d="M370.2,345.42s-23.87,9.22-30.8,5.71c-4.45-2.26-3.88-6.59.41-19.46a5.929,5.929,0,0,0,.44-2.18c-.21-3.45-1.08-13.64-4.52-20.11a.65.65,0,0,0-.67-.36.69.69,0,0,0-.56.54c-2.34,10-10.7,39.48-2.24,48.59,6.73,7.24,30.39-.22,39.16-4.61Z" fill="#ffebb3"/>
              <g id="Grupo_54063" data-name="Grupo 54063">
                <path id="Trazado_101958" data-name="Trazado 101958" d="M335.86,349.23a7.091,7.091,0,0,0,1.72.55c-2.33-2.61-1.34-7.4,2.23-18.11a7.632,7.632,0,0,0,.42-1.66C337.06,336,330.09,346.3,335.86,349.23Z" fill="#f4cf92"/>
                <path id="Trazado_101959" data-name="Trazado 101959" d="M370.2,345.42s-1.18.45-3.08,1.12l.77,5.1c-7.49,3.75-25.84,9.73-35.23,6.89,7.21,6.58,30.15-.68,38.76-5Z" fill="#f4cf92"/>
              </g>
              <path id="Trazado_101960" data-name="Trazado 101960" d="M366,345.27l2.48,11.25s10-3.16,8.55-8.27C375.36,342.23,366,345.27,366,345.27Z" fill="#ffebb3"/>
              <path id="Trazado_101961" data-name="Trazado 101961" d="M373.87,348.71c-1.08-3.71,5.48-7.65,9.52-6,4.61,1.89-.27,7.76-1.09,8.34S374.55,351.05,373.87,348.71Z" fill="#ffbc85"/>
              <path id="Trazado_101962" data-name="Trazado 101962" d="M384.14,343.12c2.34.76,7.28,6.12,5.71,6.8-1,.44-6.53-3.62-6.12-5.16S384.14,343.12,384.14,343.12Z" fill="#ffbc85"/>
              <path id="Trazado_101963" data-name="Trazado 101963" d="M384,345.81c.79,0,4,3.69,1.64,4.68-1.42.61-2.88-3.33-2.21-4S384,345.81,384,345.81Z" fill="#ffbc85"/>
              <path id="Trazado_101964" data-name="Trazado 101964" d="M381.84,347.28c.79,0,4,3.68,1.64,4.67-1.41.61-2.88-3.32-2.21-4S381.84,347.28,381.84,347.28Z" fill="#ffbc85"/>
              <path id="Trazado_101965" data-name="Trazado 101965" d="M433.15,348.23c1,1.4-5.34,4.23-9,5.31s-49.89,3.72-51.45,2.11a2.5,2.5,0,0,1-.3-3.65C373,351.37,432.2,346.91,433.15,348.23Z" fill="#9acccc"/>
              <path id="Trazado_101966" data-name="Trazado 101966" d="M397.62,349.73c-13.15,1-25,2-25.23,2.27a2.45,2.45,0,0,0-.64,1.78C378.12,352.7,387.72,351.19,397.62,349.73Z" fill="#b0e2e0"/>
              <path id="Trazado_101967" data-name="Trazado 101967" d="M433.15,348.23c-.34-.47-20.33.31-30.32.89-.13,2.08-4.54,4.12-15.39,5.28a131.184,131.184,0,0,1-15,1,3.575,3.575,0,0,0,.26.29c1.56,1.61,47.77-1,51.45-2.11S434.14,349.63,433.15,348.23Z" fill="#76a5a4"/>
              <path id="Trazado_101968" data-name="Trazado 101968" d="M400,352.28a197.177,197.177,0,0,1,24.3,1.21c3.7-1.12,9.82-3.89,8.84-5.26-.34-.47-20.33.31-30.32.89-.07,1.11-1.37,2.21-4.21,3.17Z" fill="#568481"/>
              <path id="Trazado_101969" data-name="Trazado 101969" d="M396.3,350.24c-1.72-3,4.53-55.12,7-56.29s44.73,10.15,45.46,13.63-13.41,40.23-15.61,41.24S397.42,352.18,396.3,350.24Z" fill="#76a5a4"/>
              <path id="Trazado_101970" data-name="Trazado 101970" d="M400.1,350.75c-1.55-2.84,4.95-52.65,7.18-53.92s40.25,7.77,40.91,11.14-11.94,40-13.91,41.08S401.11,352.58,400.1,350.75Z" fill="#beeae9"/>
              <path id="Trazado_101971" data-name="Trazado 101971" d="M400.87,349.35c-1.5-2.74,4.78-50.9,6.94-52.12s38.92,7.51,39.56,10.77-11.55,38.66-13.45,39.72S401.85,351.13,400.87,349.35Z" fill="#9acccc"/>
              <path id="Trazado_101972" data-name="Trazado 101972" d="M437,342.94c4.16-8.65,11.95-32.6,11.42-35.13-.64-3.12-38.95-13.49-41.18-12.44-.73.35-2,6.58-2.8,13.37C422,301,437.59,323,437,342.94Z" fill="#beeae9"/>
              <path id="Trazado_101973" data-name="Trazado 101973" d="M440.79,333.54c-5.05-18-20.39-33.11-36.16-26.76-.08.64-.17,1.29-.24,2C422,301,437.59,323,437,342.94,438.05,340.65,439.41,337.29,440.79,333.54Z" fill="#d2f9f7"/>
              <path id="Trazado_101974" data-name="Trazado 101974" d="M364.38,284.02l-10.3-1.28-.84,12.37,11.14-1.55Z" fill="#ffbc85"/>
              <path id="Trazado_101975" data-name="Trazado 101975" d="M344.7,303c5.4,1.86,18.19,9.37,22,7.52,3.3-1.25,6.13-12.16,8.63-16.79C363.23,294.51,355.72,296.78,344.7,303Z" fill="#ffc064"/>
              <path id="Trazado_101976" data-name="Trazado 101976" d="M346.47,302c4.69,1.56,15.24,8.34,18.56,6.76,2.9-1.07,6-10.88,8.16-14.81C362.64,294.64,356.12,296.69,346.47,302Z" fill="#ffebb3"/>
              <path id="Trazado_101977" data-name="Trazado 101977" d="M348.36,300.91l.93-8.64,18.57-2.71,3.27,5.09-8.17,5.73Z" fill="#ffebb3"/>
              <path id="Trazado_101978" data-name="Trazado 101978" d="M357.86,300.04l.77-7.51,2.52-.52,3.99,5.63-2.76,3.61Z" fill="#af543f"/>
              <path id="Trazado_101979" data-name="Trazado 101979" d="M361.72,308.6l-.41-8,1.5-.65,5.21,6.3S366.53,310.6,361.72,308.6Z" fill="#af543f"/>
              <path id="Trazado_101980" data-name="Trazado 101980" d="M396.53,351.64a2.75,2.75,0,0,0,3.44-.24,1.88,1.88,0,0,0,.14-2.95,2.76,2.76,0,0,0-3.44.24,1.89,1.89,0,0,0-.14,2.95Z" fill="#9acccc"/>
              <path id="Trazado_101981" data-name="Trazado 101981" d="M397.33,350.9a1.54,1.54,0,0,0,1.89-.13,1,1,0,0,0,.09-1.59,1.54,1.54,0,0,0-1.89.13,1,1,0,0,0-.09,1.59Z" fill="#76a5a4"/>
              <path id="Trazado_101982" data-name="Trazado 101982" d="M424.45,321.72c2.89-3.27,7.86,1.71,3.38,6.57C422.92,333.63,419.89,326.88,424.45,321.72Z" fill="#76a5a4"/>
              <path id="Trazado_101983" data-name="Trazado 101983" d="M424.6,322.1c2.59-2.93,7,1.54,3,5.9C423.23,332.79,420.5,326.73,424.6,322.1Z" fill="#beeae9"/>
              <path id="Trazado_101984" data-name="Trazado 101984" d="M377.65,385.87c-.11-.84-1.77-1.29-3.7-1s-3.42,1.2-3.31,2,1.76,1.29,3.7,1S377.75,386.71,377.65,385.87Z" fill="#c18b67"/>
              <path id="Trazado_101985" data-name="Trazado 101985" d="M434,350.91c-.71-1.11-1.23-5.2-.28-5.49s1.91,4.17,1.91,4.61S434.59,351.86,434,350.91Z" fill="#ffbc85"/>
              <path id="Trazado_101986" data-name="Trazado 101986" d="M435.68,349.08c-.71-1.11-1.23-5.19-.27-5.49s1.9,4.17,1.9,4.61S436.29,350,435.68,349.08Z" fill="#ffbc85"/>
              <path id="Trazado_101987" data-name="Trazado 101987" d="M424.6,322.1a9.256,9.256,0,0,0-.88,1.18c1.86-.2,4,1.71,3.17,5.44a7,7,0,0,0,.74-.72C431.65,323.64,427.19,319.17,424.6,322.1Z" fill="#d2f9f7"/>
              <path id="Trazado_101988" data-name="Trazado 101988" d="M354.69,311.38c13.9-1.94,25.51-7.28,30.85-13.47-.28-.85-.51-1.57-.7-2.11a2.34,2.34,0,0,0-1.8-1.61,34.091,34.091,0,0,0-7.81-.31l.09-.18c-1.59.11-3.1.24-4.55.4l-2.91-4.54-3.48.51V284l-10.3-1.29-.6,8.93-4.19.61-.93,8.64h.11l-2,1.07h0l-1.8,1h0c-4.74,2.23-8.33,4.23-9.89,5.13a1.44,1.44,0,0,0-.64,1.54c.05.19.09.4.13.6a4.288,4.288,0,0,1-.25,1.05A68.07,68.07,0,0,0,354.69,311.38Z" fill="#b34300" opacity="0.4"/>
              <path id="Trazado_101989" data-name="Trazado 101989" d="M377.74,275.64a4.7,4.7,0,0,1,7,0,5.6,5.6,0,0,1-.59,7.48,4.71,4.71,0,0,1-7,0A5.61,5.61,0,0,1,377.74,275.64Z" fill="#8c0404"/>
              <path id="Trazado_101990" data-name="Trazado 101990" d="M384.42,272.21a4.59,4.59,0,0,1,6.82.14,5.47,5.47,0,0,1-.44,7.31,4.58,4.58,0,0,1-6.81-.14,5.45,5.45,0,0,1,.43-7.31Z" fill="#8c0404"/>
              <path id="Trazado_101991" data-name="Trazado 101991" d="M391,266.63c2.22-2.2,5.44-2.31,7.2-.25s1.39,5.5-.82,7.7-5.45,2.3-7.21.24S388.8,268.81,391,266.63Z" fill="#8c0404"/>
              <path id="Trazado_101992" data-name="Trazado 101992" d="M346.49,270.12c-1.83-2.35-4.94-2.79-6.93-1a5.61,5.61,0,0,0-.29,7.5c1.83,2.35,4.93,2.78,6.93,1a5.59,5.59,0,0,0,.29-7.5Z" fill="#8c0404"/>
              <path id="Trazado_101993" data-name="Trazado 101993" d="M340.26,265.8a4.59,4.59,0,0,0-6.77-.79,5.47,5.47,0,0,0-.44,7.32,4.61,4.61,0,0,0,6.78.78A5.46,5.46,0,0,0,340.26,265.8Z" fill="#8c0404"/>
              <path id="Trazado_101994" data-name="Trazado 101994" d="M334.38,259.36c-1.94-2.48-5.13-3-7.12-1.22s-2,5.27-.1,7.75,5.13,3,7.13,1.22S336.32,261.83,334.38,259.36Z" fill="#8c0404"/>
              <path id="Trazado_101995" data-name="Trazado 101995" d="M337,258.29c-4.47,3.44-23.95,3.07-19.8-8.07,1.91-5.16,8.3-2.58,8.3-2.58s-1.43-3.78.48-5.67a4.64,4.64,0,0,1,6.55,0s-7.67-9.62-2.08-16.5,11.66-2.23,11.66-2.23-4.63-8.59,3.2-12.89,12.77-2.92,13.57-2.4c0,0,3.2-6.36,11.82-6s8.63,6.53,8.63,6.53,5.91-1.72,10.22,4.3,1.76,11.34,1.76,11.34,4.61-1.25,6.55.34c2.71,2.23,5.75,5-.81,12.2,0,0,5-1.2,5.28,4.12s-4.47,4.64-4.47,4.64,4.95.86,5.26,5-2.23,4.12-2.23,4.12,10.54.86,4.31,9.62-13.42-.51-13.42-.51Z" fill="#c83737"/>
              <path id="Trazado_101996" data-name="Trazado 101996" d="M400.92,255s2.55,0,2.23-4.16a4.5,4.5,0,0,0-.54-1.88,61.75,61.75,0,0,1-32.41,8.73c-17.47,0-32.87-6.58-42-16.59a4.62,4.62,0,0,0-2.23,1.24c-1.91,1.91-.48,5.72-.48,5.72s-6.39-2.6-8.3,2.6c-4.15,11.26,15.33,11.63,19.8,8.16l54.78,5.38s7.19,9.37,13.42.52S400.92,255,400.92,255Z" fill="#8c0404"/>
              <path id="Trazado_101997" data-name="Trazado 101997" d="M359.71,286.22c-9.46-1.43-32.58-13.67-24.55-40.47s25.39-25.91,32.34-24.62,34.73,6.32,26.71,42.27C388.82,287.54,366.34,287.21,359.71,286.22Z" fill="#f9a475"/>
              <path id="Trazado_101998" data-name="Trazado 101998" d="M360.16,284.09c-9-1.37-30.92-13.14-23.3-38.92s24.1-24.92,30.69-23.68,33,6.08,25.35,40.66C387.79,285.37,366.46,285,360.16,284.09Z" fill="#ffbc85"/>
              <path id="Trazado_101999" data-name="Trazado 101999" d="M333.63,250.83c-2.17-2.11-8.83,7.12-2.25,9.44S333.63,250.83,333.63,250.83Z" fill="#f9a475"/>
              <path id="Trazado_102000" data-name="Trazado 102000" d="M392.45,266.49c1.15,2.69,10.07-3,5.16-7.5S392.45,266.49,392.45,266.49Z" fill="#f9a475"/>
              <path id="Trazado_102001" data-name="Trazado 102001" d="M391.33,261c.82,3.84,8.27.12,7.31-4s-2.16-18.69-3.95-18.69C390.94,238.27,390.73,258.12,391.33,261Z" fill="#c83737"/>
              <path id="Trazado_102002" data-name="Trazado 102002" d="M338.54,253.71c-1.15,3.7-6.63-.88-5.32-4.85s4.18-18.22,5.61-18C341.83,231.31,339.39,251,338.54,253.71Z" fill="#c83737"/>
              <path id="Trazado_102003" data-name="Trazado 102003" d="M387.58,229.17c-2.63,1.2-16-.95-13.57-9.19S387.58,229.17,387.58,229.17Z" fill="#c83737"/>
              <path id="Trazado_102004" data-name="Trazado 102004" d="M397.84,240.87c-2.85.29-15-6.09-10.36-13.18S397.84,240.87,397.84,240.87Z" fill="#c83737"/>
              <path id="Trazado_102005" data-name="Trazado 102005" d="M377.52,220c-1.62,2.55-13.93,8.44-16,.1S377.52,220,377.52,220Z" fill="#c83737"/>
              <path id="Trazado_102006" data-name="Trazado 102006" d="M362.59,218.83c-.9,3.47-12.22,15.48-17.28,7.5S362.59,218.83,362.59,218.83Z" fill="#c83737"/>
              <path id="Trazado_102007" data-name="Trazado 102007" d="M336.45,237.26c2.54,0,13-6.33,8.66-12.06S336.45,237.26,336.45,237.26Z" fill="#c83737"/>
              <path id="Trazado_102008" data-name="Trazado 102008" d="M350.23,263.31c-.23,1.58-.5,11.76,10.53,14.1,8.7,1.84,13.88-4.87,14.91-9.19.63-2.66-8.42-.87-13.25-1.71S350.44,261.74,350.23,263.31Z" fill="#6d3424"/>
              <path id="Trazado_102009" data-name="Trazado 102009" d="M351.22,262.92l.45,4.72c7.48,2.64,14.45,4.09,21.33,3.32l.92-4.31C365.26,266.5,360,265.51,351.22,262.92Z" fill="#ffede9"/>
              <path id="Trazado_102010" data-name="Trazado 102010" d="M354,251c1.69.46,4.67-8.76,1.8-9.66S351.09,250.26,354,251Z" fill="#563936"/>
              <path id="Trazado_102011" data-name="Trazado 102011" d="M376.6,255.8c1.69.46,4.67-8.76,1.8-9.66S373.73,255,376.6,255.8Z" fill="#563936"/>
              <path id="Trazado_102012" data-name="Trazado 102012" d="M366.26,256.72c.63,3.48-2,4.62-4,4,1.52,2.52,6.74,2.15,5.87-2.64a2.69,2.69,0,0,0-2.24-2.51,4.119,4.119,0,0,1,.37,1.15Z" fill="#fca372"/>
              <path id="Trazado_102013" data-name="Trazado 102013" d="M383.33,245.07a2.16,2.16,0,0,0,0-2.67,7.23,7.23,0,0,0-2.42-2,1,1,0,0,0-1.23.3l-.48.62a1.2,1.2,0,0,0-.21.92,1.1,1.1,0,0,0,.55.75,6,6,0,0,1,2.15,2,1,1,0,0,0,1.68,0Z" fill="#c83737"/>
              <path id="Trazado_102014" data-name="Trazado 102014" d="M356.53,236.23a1.32,1.32,0,0,0-1.26-1.07,7.14,7.14,0,0,0-3.14.69,1.65,1.65,0,0,0-.84,1.83h0a1.37,1.37,0,0,0,.67.94,1.22,1.22,0,0,0,1.1,0,5.78,5.78,0,0,1,2.57-.48,1,1,0,0,0,.81-.41,1.16,1.16,0,0,0,.21-.94Z" fill="#c83737"/>
              <path id="Trazado_102015" data-name="Trazado 102015" d="M379.58,264.88c.09-3.19,6.94-4.28,6.94.15C386.52,268.39,379.45,269.56,379.58,264.88Z" fill="#f9a475"/>
              <path id="Trazado_102016" data-name="Trazado 102016" d="M341.93,255.14c1.92-2.44,7.91,1.27,5.36,4.74C345.35,262.52,339.13,258.72,341.93,255.14Z" fill="#f9a475"/>
              <path id="Trazado_102017" data-name="Trazado 102017" d="M376.44,267.57a.73.73,0,1,0-.73.75.74.74,0,0,0,.73-.75Z" fill="#6d3424"/>
              <path id="Trazado_102018" data-name="Trazado 102018" d="M350.94,262.8a.73.73,0,1,0-.73.74.74.74,0,0,0,.73-.74Z" fill="#6d3424"/>
              <path id="Trazado_102019" data-name="Trazado 102019" d="M380.26,482.84c.15-2.09,1.93-5.87,4.35-5.67s.52,5.07.52,5.07Z" fill="#f2d9b1"/>
              <path id="Trazado_102020" data-name="Trazado 102020" d="M354.1,480.79c-.42-2-2.52-5.52-4.65-5s.25,5.09.25,5.09Z" fill="#f2d9b1"/>
              <path id="Trazado_102021" data-name="Trazado 102021" d="M378,484.6c.67-3,7.22-5.83,12.32-5.75,4.49.07,8.86,1.76,10.75,5.75Z" fill="#d8bf93"/>
              <path id="Trazado_102022" data-name="Trazado 102022" d="M383.19,484.6c-.33-2.89,4-5.94,7.95-5.82,5,.14,8.36,2.27,9.88,5.82Z" fill="#f2d9b1"/>
              <path id="Trazado_102023" data-name="Trazado 102023" d="M341.59,484.16c-.28-2.75,3.52-5.65,7-5.54,4.43.14,7.36,2.16,8.7,5.54Z" fill="#f2d9b1"/>
              <rect id="Rectángulo_5375" data-name="Rectángulo 5375" width="24.61" height="1.76" transform="translate(377.68 483.75)" fill="#c18b67"/>
              <path id="Trazado_102024" data-name="Trazado 102024" d="M357.62,483.75H335.73l-.42,1.76h22.31Z" fill="#c18b67"/>
            </g>
          </g>
        </g>
        <g id="Grupo_54069" data-name="Grupo 54069">
          <path id="Trazado_102025" data-name="Trazado 102025" d="M147.29,181.75c-20.77,6.25-53.36,1.05-66.23-24.56,0,0,8.89-53.15,35.16-61.09s59.28-13.82,60.61,38.74C177.8,173,147.29,181.75,147.29,181.75Z" fill="#5d0303"/>
          <path id="Trazado_102026" data-name="Trazado 102026" d="M99.57,174.48l19.28-37.7,51.38-1.43C178.53,182,123.75,197.56,99.57,174.48Z" fill="#2d0109"/>
          <rect id="Rectángulo_5376" data-name="Rectángulo 5376" width="12.05" height="20.81" transform="translate(131.286 171.034) rotate(-11.34)" fill="#ffbc85"/>
          <path id="Trazado_102027" data-name="Trazado 102027" d="M163.08,186.8c9,2.09,45.23,46,50,56.06L212,255.18s-35.27-33.81-42.63-40.88Z" fill="#ffebb3"/>
          <path id="Trazado_102028" data-name="Trazado 102028" d="M213.71,242.14l-1.76,13s-35.27-33.81-42.63-40.88l-2-8.63c6.53,6.34,22.57,22.08,34.36,33.66C206.13,243.66,210.38,237.82,213.71,242.14Z" fill="#f7d19a"/>
          <path id="Trazado_102029" data-name="Trazado 102029" d="M214,238.23c-4.32-.87-3.93,20.13-3.93,20.13s11.32,4.53,15.8,2.83S219.37,239.31,214,238.23Z" fill="#ffebb3"/>
          <path id="Trazado_102030" data-name="Trazado 102030" d="M216.52,246.49c3.92-8.42,27.35-55.81,31.27-54.21S222.6,258,222.6,258C215.75,257,214.13,253.68,216.52,246.49Z" fill="#ffbc85"/>
          <path id="Trazado_102031" data-name="Trazado 102031" d="M222.71,245c3.92-8.42,23.3-51.75,25.08-52.75C251.71,193.86,222.6,258,222.6,258,216.89,256.69,220.32,252.21,222.71,245Z" fill="#f9a475"/>
          <path id="Trazado_102032" data-name="Trazado 102032" d="M178.8,282.74c5.6-41.92-.71-85.9-10.39-92.9-9.23-6.68-47.91,4.06-51.23,8.12-5,6.15,6.69,57.83,2.39,80.75C116.94,292.73,178.06,288.25,178.8,282.74Z" fill="#41556d"/>
          <g id="Grupo_54068" data-name="Grupo 54068" clip-path="url(#clip-path-2)">
            <g id="Grupo_54067" data-name="Grupo 54067">
              <path id="Trazado_102033" data-name="Trazado 102033" d="M200.47,299.23,207,286.52l-8.44-16.12-5.42,18.75Z" fill="#6a89a5"/>
              <path id="Trazado_102034" data-name="Trazado 102034" d="M198.65,271.77l6.53-12.71-8.43-16.13-5.43,18.76Z" fill="#6a89a5"/>
              <path id="Trazado_102035" data-name="Trazado 102035" d="M196.93,245.68l6.53-12.71-8.44-16.13-5.43,18.76Z" fill="#6a89a5"/>
              <path id="Trazado_102036" data-name="Trazado 102036" d="M195.23,219.93l6.52-12.71-8.43-16.13-5.43,18.76Z" fill="#6a89a5"/>
              <path id="Trazado_102037" data-name="Trazado 102037" d="M193.52,194.19l6.53-12.72-8.43-16.12-5.43,18.76Z" fill="#6a89a5"/>
              <path id="Trazado_102038" data-name="Trazado 102038" d="M191.87,169.12l6.53-12.71-8.44-16.12-5.43,18.75Z" fill="#6a89a5"/>
              <path id="Trazado_102039" data-name="Trazado 102039" d="M213.99,296.67l6.52-12.71-8.43-16.13-5.43,18.76Z" fill="#6a89a5"/>
              <path id="Trazado_102040" data-name="Trazado 102040" d="M212.17,269.2l6.53-12.71-8.44-16.12-5.42,18.75Z" fill="#6a89a5"/>
              <path id="Trazado_102041" data-name="Trazado 102041" d="M210.44,243.11l6.53-12.71-8.43-16.12-5.43,18.75Z" fill="#6a89a5"/>
              <path id="Trazado_102042" data-name="Trazado 102042" d="M208.74,217.37l6.53-12.71-8.43-16.13-5.43,18.75Z" fill="#6a89a5"/>
              <path id="Trazado_102043" data-name="Trazado 102043" d="M207.04,191.62l6.53-12.71-8.44-16.13-5.42,18.76Z" fill="#6a89a5"/>
              <path id="Trazado_102044" data-name="Trazado 102044" d="M205.38,166.56l6.53-12.71-8.43-16.13-5.43,18.76Z" fill="#6a89a5"/>
              <path id="Trazado_102045" data-name="Trazado 102045" d="M174.13,304.23l6.53-12.71-8.44-16.13-5.42,18.76Z" fill="#6a89a5"/>
              <path id="Trazado_102046" data-name="Trazado 102046" d="M172.31,276.77l6.53-12.71-8.43-16.13-5.43,18.76Z" fill="#6a89a5"/>
              <path id="Trazado_102047" data-name="Trazado 102047" d="M170.59,250.68l6.53-12.71-8.44-16.13-5.42,18.76Z" fill="#6a89a5"/>
              <path id="Trazado_102048" data-name="Trazado 102048" d="M168.89,224.93l6.53-12.71-8.44-16.13-5.43,18.76Z" fill="#6a89a5"/>
              <path id="Trazado_102049" data-name="Trazado 102049" d="M167.19,199.18l6.52-12.71-8.43-16.12-5.43,18.76Z" fill="#6a89a5"/>
              <path id="Trazado_102050" data-name="Trazado 102050" d="M165.53,174.12l6.53-12.71-8.44-16.12-5.43,18.75Z" fill="#6a89a5"/>
              <path id="Trazado_102051" data-name="Trazado 102051" d="M187.65,301.67l6.53-12.72-8.44-16.12-5.43,18.76Z" fill="#6a89a5"/>
              <path id="Trazado_102052" data-name="Trazado 102052" d="M185.83,274.2l6.53-12.71-8.43-16.13-5.43,18.76Z" fill="#6a89a5"/>
              <path id="Trazado_102053" data-name="Trazado 102053" d="M184.11,248.11l6.52-12.71-8.43-16.13-5.43,18.76Z" fill="#6a89a5"/>
              <path id="Trazado_102054" data-name="Trazado 102054" d="M182.4,222.36l6.53-12.71-8.43-16.12-5.43,18.76Z" fill="#6a89a5"/>
              <path id="Trazado_102055" data-name="Trazado 102055" d="M180.7,196.62l6.53-12.71-8.43-16.13-5.43,18.76Z" fill="#6a89a5"/>
              <path id="Trazado_102056" data-name="Trazado 102056" d="M179.05,171.56l6.52-12.71-8.43-16.13-5.43,18.76Z" fill="#6a89a5"/>
              <path id="Trazado_102057" data-name="Trazado 102057" d="M148.14,309.16l6.53-12.71-8.44-16.12-5.42,18.75Z" fill="#6a89a5"/>
              <path id="Trazado_102058" data-name="Trazado 102058" d="M146.32,281.7l6.53-12.71-8.43-16.13-5.43,18.76Z" fill="#6a89a5"/>
              <path id="Trazado_102059" data-name="Trazado 102059" d="M144.6,255.61l6.53-12.71-8.44-16.13-5.43,18.76Z" fill="#6a89a5"/>
              <path id="Trazado_102060" data-name="Trazado 102060" d="M142.9,229.86l6.53-12.71-8.44-16.12-5.43,18.75Z" fill="#6a89a5"/>
              <path id="Trazado_102061" data-name="Trazado 102061" d="M141.19,204.12l6.53-12.71-8.43-16.13-5.43,18.76Z" fill="#6a89a5"/>
              <path id="Trazado_102062" data-name="Trazado 102062" d="M139.54,179.06l6.52-12.72-8.43-16.12-5.43,18.76Z" fill="#6a89a5"/>
              <path id="Trazado_102063" data-name="Trazado 102063" d="M161.66,306.6l6.52-12.71-8.43-16.13-5.43,18.76Z" fill="#6a89a5"/>
              <path id="Trazado_102064" data-name="Trazado 102064" d="M159.84,279.13l6.53-12.71-8.44-16.12-5.43,18.76Z" fill="#6a89a5"/>
              <path id="Trazado_102065" data-name="Trazado 102065" d="M158.11,253.04l6.53-12.71-8.43-16.12-5.43,18.76Z" fill="#6a89a5"/>
              <path id="Trazado_102066" data-name="Trazado 102066" d="M156.41,227.3l6.53-12.71-8.43-16.13-5.43,18.76Z" fill="#6a89a5"/>
              <path id="Trazado_102067" data-name="Trazado 102067" d="M154.71,201.55l6.53-12.71-8.44-16.12-5.42,18.75Z" fill="#6a89a5"/>
              <path id="Trazado_102068" data-name="Trazado 102068" d="M153.05,176.49l6.53-12.71-8.43-16.13-5.43,18.76Z" fill="#6a89a5"/>
              <path id="Trazado_102069" data-name="Trazado 102069" d="M121.8,314.16l6.53-12.71-8.44-16.12-5.42,18.75Z" fill="#6a89a5"/>
              <path id="Trazado_102070" data-name="Trazado 102070" d="M119.99,286.7l6.52-12.71-8.43-16.13-5.43,18.76Z" fill="#6a89a5"/>
              <path id="Trazado_102071" data-name="Trazado 102071" d="M118.26,260.61l6.53-12.71-8.44-16.13-5.42,18.76Z" fill="#6a89a5"/>
              <path id="Trazado_102072" data-name="Trazado 102072" d="M116.56,234.86l6.53-12.71-8.44-16.12-5.43,18.75Z" fill="#6a89a5"/>
              <path id="Trazado_102073" data-name="Trazado 102073" d="M114.86,209.12l6.52-12.71-8.43-16.13-5.43,18.76Z" fill="#6a89a5"/>
              <path id="Trazado_102074" data-name="Trazado 102074" d="M113.2,184.05l6.53-12.7-8.44-16.13-5.43,18.76Z" fill="#6a89a5"/>
              <path id="Trazado_102075" data-name="Trazado 102075" d="M135.32,311.6l6.52-12.71-8.43-16.13-5.43,18.76Z" fill="#6a89a5"/>
              <path id="Trazado_102076" data-name="Trazado 102076" d="M133.5,284.13l6.53-12.71-8.44-16.12-5.42,18.76Z" fill="#6a89a5"/>
              <path id="Trazado_102077" data-name="Trazado 102077" d="M131.78,258.04l6.52-12.71-8.43-16.12-5.43,18.75Z" fill="#6a89a5"/>
              <path id="Trazado_102078" data-name="Trazado 102078" d="M130.07,232.3l6.53-12.71-8.43-16.13-5.43,18.76Z" fill="#6a89a5"/>
              <path id="Trazado_102079" data-name="Trazado 102079" d="M128.37,206.55l6.53-12.71-8.44-16.13-5.42,18.76Z" fill="#6a89a5"/>
              <path id="Trazado_102080" data-name="Trazado 102080" d="M126.71,181.49l6.53-12.71-8.43-16.13-5.43,18.76Z" fill="#6a89a5"/>
              <path id="Trazado_102081" data-name="Trazado 102081" d="M108.98,316.6l6.53-12.72-8.44-16.12-5.42,18.75Z" fill="#6a89a5"/>
              <path id="Trazado_102082" data-name="Trazado 102082" d="M107.16,289.13l6.53-12.71-8.43-16.12-5.43,18.75Z" fill="#6a89a5"/>
              <path id="Trazado_102083" data-name="Trazado 102083" d="M105.44,263.04l6.53-12.71-8.44-16.12-5.42,18.75Z" fill="#6a89a5"/>
              <path id="Trazado_102084" data-name="Trazado 102084" d="M103.73,237.29l6.53-12.7-8.43-16.13L96.4,227.22Z" fill="#6a89a5"/>
              <path id="Trazado_102085" data-name="Trazado 102085" d="M102.03,211.55l6.53-12.71-8.43-16.13L94.7,201.47Z" fill="#6a89a5"/>
              <path id="Trazado_102086" data-name="Trazado 102086" d="M100.38,186.49l6.52-12.71-8.43-16.13-5.43,18.76Z" fill="#6a89a5"/>
            </g>
          </g>
          <path id="Trazado_102088" data-name="Trazado 102088" d="M162.92,187.9c-7.63,7.64-26.95,16.34-43.16,8.6C136.33,189,144.56,185.37,162.92,187.9Z" fill="#ffa836"/>
          <path id="Trazado_102089" data-name="Trazado 102089" d="M159.15,187.88c-8,6.45-20.28,12.1-36,7.23C139.72,187.63,140.79,185.34,159.15,187.88Z" fill="#ffebb3"/>
          <path id="Trazado_102090" data-name="Trazado 102090" d="M158.68,184.26c1.29,2.5-8,7.63-11.46,6.73s-6.52-6.3-5.72-8.06S157.6,182.18,158.68,184.26Z" fill="#ffebb3"/>
          <path id="Trazado_102091" data-name="Trazado 102091" d="M124.32,190.84c-.26,2.55,10,3.45,12.85,1.44s3.61-7.64,2.25-8.81S124.53,188.7,124.32,190.84Z" fill="#ffebb3"/>
          <path id="Trazado_102092" data-name="Trazado 102092" d="M139.09,185.3c-1.05-1.19-5.79,3.1-6.07,5.23s1.95,4.86,3.06,4.74S140,186.3,139.09,185.3Z" fill="#f7d19a"/>
          <path id="Trazado_102093" data-name="Trazado 102093" d="M142.61,184.64c.53-1.67,6.77,0,7.88,1.89s.08,5.61-1,6.05S142.17,186,142.61,184.64Z" fill="#f7d19a"/>
          <path id="Trazado_102094" data-name="Trazado 102094" d="M117.36,200.47c-7.42,3-27.84,48-33.85,57l5.21,9.63s24.67-34.64,30.2-42.18C121.25,216,123.17,206.27,117.36,200.47Z" fill="#ffebb3"/>
          <path id="Trazado_102095" data-name="Trazado 102095" d="M121.11,209.44c.37,4.81-.83,10.28-2.19,15.5-5.53,7.54-30.2,42.18-30.2,42.18l-5.33-10.4c3.77-6.6,7.89-2.87,9.75-5.5C102.81,237.49,114.47,218.79,121.11,209.44Z" fill="#f7d19a"/>
          <path id="Trazado_102096" data-name="Trazado 102096" d="M79.68,253.54c1.86-3.38,18.47,6.67,18.47,6.67s-3.9,9.78-7.6,11.59S77.37,257.72,79.68,253.54Z" fill="#ffebb3"/>
          <path id="Trazado_102097" data-name="Trazado 102097" d="M83.81,257.59c-5.48,6.7-39.39,51.57-36.43,54S89.94,266,89.94,266C90.27,260.81,89.79,257.81,83.81,257.59Z" fill="#ffbc85"/>
          <path id="Trazado_102098" data-name="Trazado 102098" d="M89.46,260.38a12.66,12.66,0,0,1,.48,5.62s-39.59,47.91-42.56,45.54c-.38-.3-.14-1.31.55-2.83C58.5,298.73,84.58,266.45,89.46,260.38Z" fill="#f9a475"/>
          <path id="Trazado_102099" data-name="Trazado 102099" d="M53,305.92c2.85,3.22-6.36,18.64-9.25,17.19-7.4-3.69-7.88-9-7.11-10.83S50,302.55,53,305.92Z" fill="#ffbc85"/>
          <path id="Trazado_102100" data-name="Trazado 102100" d="M54.11,304.34c2.35,3.6-6.75,19.05-9.64,17.61-7.4-3.7-5-8.66-4.19-10.48S52.94,302.56,54.11,304.34Z" fill="#f9a475"/>
          <path id="Trazado_102101" data-name="Trazado 102101" d="M243.26,200.57c-3.45-2.37,4.38-19.79,7.51-19.06,8,1.86,6.29,9.32,5.91,11.14S246.88,203,243.26,200.57Z" fill="#ffbc85"/>
          <path id="Trazado_102102" data-name="Trazado 102102" d="M244.51,199.59c-3.46-2.36,4.55-17.5,7.64-16.62,5.7,1.62,4.72,8,4.53,9.68C256.48,194.49,248.13,202.06,244.51,199.59Z" fill="#f9a475"/>
          <path id="Trazado_102103" data-name="Trazado 102103" d="M47.21,317.83c-2.08-1.52-5.23,4-5.58,5.12s.34,1.58,1.39,1.63S49.32,319.37,47.21,317.83Z" fill="#ffbc85"/>
          <path id="Trazado_102104" data-name="Trazado 102104" d="M43.73,312.73c-2-1.55-5.73,4.93-6.19,6.25s.23,1.76,1.32,1.73S45.8,314.3,43.73,312.73Z" fill="#ffbc85"/>
          <path id="Trazado_102105" data-name="Trazado 102105" d="M38.09,311.08c-1.53-2.53-4,3.11-4.23,4.38a2,2,0,0,0,1,2.45C35.67,318.32,39.65,313.66,38.09,311.08Z" fill="#ffbc85"/>
          <path id="Trazado_102106" data-name="Trazado 102106" d="M51,303.79c2.11,2.5-12.37,6.47-13.84,5.95s-2.18-1.27-1-2.27S49,301.33,51,303.79Z" fill="#ffbc85"/>
          <path id="Trazado_102107" data-name="Trazado 102107" d="M172.93,279.39c2.64-19.76,5.17-40.93,6.1-58.52a241.79,241.79,0,0,1-.23,61.87c-.66,5-50.44,9.1-58.27-.43C136,287.26,172.37,283.63,172.93,279.39Z" fill="#477784" opacity="0.3"/>
          <path id="Trazado_102108" data-name="Trazado 102108" d="M249.26,208.7c-1.1,0-.41-17.06.76-34.21,1.49-21.86,4-66.25,5.47-66.09s-1.43,45.29-2.08,66.41C252.85,192.83,252.06,208.67,249.26,208.7Z" fill="#8e624c"/>
          <path id="Trazado_102109" data-name="Trazado 102109" d="M248.8,176.45c-3,.53-.53,6.63-2.35,8.93s-4.21,7.28-2.26,8.26,4.95-2,5.78-5.55C251.28,182.55,251.46,176,248.8,176.45Z" fill="#ffbc85"/>
          <path id="Trazado_102110" data-name="Trazado 102110" d="M257.86,182.14c-1.23-1.87-8.37,3.11-7,4.86S259.41,184.47,257.86,182.14Z" fill="#ffbc85"/>
          <path id="Trazado_102111" data-name="Trazado 102111" d="M258.11,186.52c-1.13-1.92-8.53,2.71-7.23,4.53S259.52,188.93,258.11,186.52Z" fill="#ffbc85"/>
          <path id="Trazado_102112" data-name="Trazado 102112" d="M257.85,191.19c-.88-2-8.8,1.76-7.73,3.72S259,193.74,257.85,191.19Z" fill="#ffbc85"/>
          <path id="Trazado_102113" data-name="Trazado 102113" d="M116,202.86c.15-2.35.51-4.06,1.2-4.9.82-1,3.78-2.4,7.91-3.85L127.7,193c-2-.42-3.48-1.16-3.38-2.14.13-1.33,5.42-4.31,9.73-6.09L131.29,171l11.82-2.37L145.8,182c4.85-.11,12.15.81,12.88,2.22.43.83-.32,1.94-1.61,3,1.84.13,3.77.33,5.85.61l-.09.09a18,18,0,0,1,2.95.62v-.09a3.711,3.711,0,0,1,.65.3,8.44,8.44,0,0,1,2,1,10.089,10.089,0,0,1,2.25,2.4c1.05,1,2.19,2.27,3.39,3.64-7.19,4.75-18.48,8.3-31.36,9.29A76.45,76.45,0,0,1,116,202.86Z" fill="#7a3715" opacity="0.4"/>
          <path id="Trazado_102114" data-name="Trazado 102114" d="M139.5,175.39c18.69-3.21,35.33-16.28,31.84-41.86-2.34-17.08-17.83-35-42.88-31.56-19.35,2.64-31.83,21.68-28.79,43.95C101.84,161.86,114.57,179.66,139.5,175.39Z" fill="#f9a475"/>
          <path id="Trazado_102115" data-name="Trazado 102115" d="M142.15,171.38c17.1-3,32.27-15.31,28.94-39.64-2.22-16.25-16.49-33.33-39.41-30.21C114,104,102.64,122,105.53,143.17,107.6,158.34,119.34,175.32,142.15,171.38Z" fill="#ffbc85"/>
          <path id="Trazado_102116" data-name="Trazado 102116" d="M114.79,102.37c12.55-2.24,8.4,71.43-12.37,73S97.5,105.47,114.79,102.37Z" fill="#5d0303"/>
          <path id="Trazado_102117" data-name="Trazado 102117" d="M118.44,105.05c2.53,1.69,15.09-12.57,16.35-13.41,0,0-5-3.6-10.59,2C119.91,97.93,116.55,103.8,118.44,105.05Z" fill="#ffc364"/>
          <path id="Trazado_102118" data-name="Trazado 102118" d="M115.59,135.7c-4.35-3.12-11.28,10,.49,12.59C116.08,148.29,120.38,139.14,115.59,135.7Z" fill="#ffbc85"/>
          <path id="Trazado_102119" data-name="Trazado 102119" d="M131,126.37c-1.8.28-.6,13.93,2.54,13.67C136,139.83,135.92,125.59,131,126.37Z" fill="#563f30"/>
          <path id="Trazado_102120" data-name="Trazado 102120" d="M154.61,124.56c-1.76.24-.91,13.54,2.15,13.36C159.16,137.78,159.44,123.92,154.61,124.56Z" fill="#563f30"/>
          <path id="Trazado_102121" data-name="Trazado 102121" d="M156.15,150c2.84,2.51-4.79,16.73-10,17.28-6.63.71-11.15-12.7-9.8-15.11,1.12-2,5.86-1.08,10.28-1.3S155.36,149.35,156.15,150Z" fill="#563228"/>
          <path id="Trazado_102122" data-name="Trazado 102122" d="M155,149.74c.65.78-1.43,5.34-1.43,5.34s-8.85,1.56-15,.78l-1.69-4.43C139.24,150.39,153.3,149.61,155,149.74Z" fill="#ffeee1"/>
          <path id="Trazado_102123" data-name="Trazado 102123" d="M147.59,139.32l.11-.52c5.34,2.09,2.47,8.07-1.56,7l.09-.39a3.49,3.49,0,0,0,1.36-6.09Z" fill="#ed9774"/>
          <path id="Trazado_102124" data-name="Trazado 102124" d="M161.89,125.13c-1.82-2.34-7.94-5.46-11.32-3.51C154.08,116.41,159.67,118.89,161.89,125.13Z" fill="#6b4c40"/>
          <path id="Trazado_102125" data-name="Trazado 102125" d="M125,128.54c.57-2.83,4.42-8,8.1-7.57C128,117.61,124.27,122,125,128.54Z" fill="#6b4c40"/>
          <path id="Trazado_102126" data-name="Trazado 102126" d="M122.88,150.18c-.44-1.32,1.25-3.07,3.77-3.92s4.93-.47,5.37.85-1.24,3.07-3.77,3.92S123.33,151.49,122.88,150.18Z" fill="#f9a475"/>
          <path id="Trazado_102127" data-name="Trazado 102127" d="M157.91,144.91c.22-1.37,2.54-2.12,5.16-1.68s4.57,1.91,4.34,3.28-2.55,2.12-5.17,1.68S157.67,146.28,157.91,144.91Z" fill="#f9a475"/>
        </g>
      </g>
    </g>
  </g>
</svg>
