<svg xmlns="http://www.w3.org/2000/svg" xmlns:xlink="http://www.w3.org/1999/xlink" width="400" height="400" viewBox="0 0 400 400">
  <defs>
    <clipPath id="clip-path">
      <circle id="Elipse_4073" data-name="Elipse 4073" cx="170.096" cy="170.096" r="170.096" fill="none"/>
    </clipPath>
  </defs>
  <g id="Grupo_55719" data-name="Grupo 55719" transform="translate(-959 -1764)">
    <g id="CF1_1.2_derechos_humanos" data-name="CF1_1.2 derechos humanos" transform="translate(959 1764)">
      <g id="Capa_2" data-name="Capa 2">
        <rect id="Rectángulo_5365" data-name="Rectángulo 5365" width="400" height="400" fill="none"/>
        <circle id="Elipse_4072" data-name="Elipse 4072" cx="170.096" cy="170.096" r="170.096" transform="translate(32.032 29.904)" fill="#eef0e3"/>
        <g id="Grupo_54046" data-name="Grupo 54046" transform="translate(32.032 29.904)" clip-path="url(#clip-path)">
          <g id="Grupo_54045" data-name="Grupo 54045" transform="translate(16.312 56.904)">
            <g id="Grupo_54044" data-name="Grupo 54044" transform="translate(20.888)" opacity="0.26">
              <path id="Trazado_101690" data-name="Trazado 101690" d="M209.777,108.51c-19.2,3.016,0,30.632,0,30.632S228.953,111.526,209.777,108.51Z" transform="translate(-109.481 -108.51)" fill="#6f400f"/>
              <g id="Grupo_54042" data-name="Grupo 54042" transform="translate(9.384 28.984)">
                <path id="Trazado_101691" data-name="Trazado 101691" d="M128.108,216.1l3.928-68.064,1.336.6L148.484,216.1h2.248l-15.456-69.024-5.248-2.336L125.9,216.1Z" transform="translate(-103.796 -144.74)" fill="#3d4144"/>
                <path id="Trazado_101692" data-name="Trazado 101692" d="M100.574,216.43l21.832-69.376-2.088-.664L98.27,216.43Z" transform="translate(-98.27 -145.07)" fill="#3d4144"/>
              </g>
              <path id="Trazado_101693" data-name="Trazado 101693" d="M86.54,232.35c.128,14.4,14.648,25.984,32.56,25.984s32.44-11.624,32.56-25.984Z" transform="translate(-86.54 -133.278)" fill="#6f400f"/>
              <g id="Grupo_54043" data-name="Grupo 54043" transform="translate(144.272 28.984)">
                <path id="Trazado_101694" data-name="Trazado 101694" d="M319.514,216.43l-22.048-70.04-2.1.664,21.84,69.376Z" transform="translate(-272.578 -145.07)" fill="#3d4144"/>
                <path id="Trazado_101695" data-name="Trazado 101695" d="M269.128,216.1l15.112-67.464,1.336-.6L289.5,216.1h2.2l-4.12-71.36-5.248,2.336L266.88,216.1Z" transform="translate(-266.88 -144.74)" fill="#3d4144"/>
              </g>
              <path id="Trazado_101696" data-name="Trazado 101696" d="M320.992,232.35c-.12,14.4-14.648,25.984-32.56,25.984S255.976,246.71,255.88,232.35Z" transform="translate(-120.408 -133.278)" fill="#6f400f"/>
              <path id="Trazado_101697" data-name="Trazado 101697" d="M150.4,239.264a21.336,21.336,0,0,0,1.264-6.944H86.54a21.336,21.336,0,0,0,1.264,6.944Z" transform="translate(-86.54 -133.272)" fill="#f4bc02"/>
              <path id="Trazado_101698" data-name="Trazado 101698" d="M319.736,239.264a21.337,21.337,0,0,0,1.256-6.944H255.88a21.336,21.336,0,0,0,1.256,6.944Z" transform="translate(-120.408 -133.272)" fill="#f4bc02"/>
              <path id="Trazado_101699" data-name="Trazado 101699" d="M221.21,149.684l-12.4-4.944-12.4,4.944s12.048,34.032,3.272,88.56l9.128,2.568,9.12-2.568C209.162,183.716,221.21,149.684,221.21,149.684Z" transform="translate(-108.514 -115.756)" fill="#7c4a10"/>
              <path id="Trazado_101700" data-name="Trazado 101700" d="M235.188,271.966c-3.872-8.872-16.288-15.376-31.04-15.376s-27.2,6.5-31.048,15.376Z" transform="translate(-103.852 -138.126)" fill="#7c4a10"/>
              <path id="Trazado_101701" data-name="Trazado 101701" d="M219.62,254.126c0,3.936-4.6,7.136-10.28,7.136s-10.28-3.2-10.28-7.136,4.6-7.136,10.28-7.136S219.62,250.2,219.62,254.126Z" transform="translate(-109.044 -136.206)" fill="#6f400f"/>
              <path id="Trazado_101702" data-name="Trazado 101702" d="M209.794,145.23c-.392.36-.736.688-.984.928-.248-.24-.592-.568-.984-.928l-11.416,4.552a99.78,99.78,0,0,1,3.2,12.888c1.64.5,7.2,1.272,9.2-10.4,1.968,11.68,7.56,10.9,9.2,10.4a99.778,99.778,0,0,1,3.2-12.888Z" transform="translate(-108.514 -115.854)" fill="#818078" opacity="0.35"/>
              <path id="Trazado_101703" data-name="Trazado 101703" d="M191.508,134.331s-15.2-16.464-30.12-9.88-32.8,22.7-51.488,9.88c0,0-.736,30.4,40.8,13.544,0,0,13.328-8.8,30.544,2.192C181.244,150.067,190.412,154.467,191.508,134.331Z" transform="translate(-91.212 -111.387)" fill="#7c4a10"/>
              <path id="Trazado_101704" data-name="Trazado 101704" d="M211.91,134.331s15.2-16.464,30.12-9.88,32.8,22.7,51.488,9.88c0,0,.736,30.4-40.8,13.544,0,0-13.336-8.8-30.552,2.192C222.166,150.067,213.006,154.467,211.91,134.331Z" transform="translate(-111.614 -111.387)" fill="#7c4a10"/>
              <path id="Trazado_101705" data-name="Trazado 101705" d="M217.112,143.006a6.936,6.936,0,1,1-6.936-6.936A6.936,6.936,0,0,1,217.112,143.006Z" transform="translate(-109.88 -114.022)" fill="#f4bc02"/>
              <path id="Trazado_101706" data-name="Trazado 101706" d="M240.968,284.958H163.48l1.392-4.16a9.048,9.048,0,0,1,8.576-6.168H231a9.056,9.056,0,0,1,8.576,6.168Z" transform="translate(-101.928 -141.734)" fill="#6f400f"/>
              <path id="Trazado_101707" data-name="Trazado 101707" d="M247.394,296.012H152.77l2.32-6.112a9.04,9.04,0,0,1,8.456-5.84h73.072a9.04,9.04,0,0,1,8.456,5.841Z" transform="translate(-99.786 -143.62)" fill="#6f400f"/>
            </g>
            <path id="Trazado_101708" data-name="Trazado 101708" d="M60.43,249.67A167.08,167.08,0,0,0,227.686,416.926a10.328,10.328,0,0,0,0-20.648A146.456,146.456,0,0,1,81.07,249.67a10.32,10.32,0,1,0-20.64,0Z" transform="translate(-60.43 -134.678)" fill="#6b6d5d"/>
            <path id="Trazado_101709" data-name="Trazado 101709" d="M288.968,131.044c-4.952-2.152-19.488-4.968-26.136-5.024s-21.176,2.872-26.128,5.024c-23.024,10.008-23.3,29.456-23.3,59.76h98.88C312.28,160.5,311.992,141.052,288.968,131.044Z" transform="translate(-91.024 -112.012)" fill="#3c3c3c"/>
            <path id="Trazado_101710" data-name="Trazado 101710" d="M267.392,391.206l39.344-47.536c-27.88-27.528-22.024-60.8-22.024-60.8H246.384s5.856,33.3-22.024,60.8L263.7,391.206" transform="translate(-93.216 -143.382)" fill="#fcc083"/>
            <path id="Trazado_101711" data-name="Trazado 101711" d="M288.988,282.84H250.66s2.84,16.224-4.92,35.376c16-6.24,28.8-19.416,42.848-31.512a38.72,38.72,0,0,1,.4-3.864Z" transform="translate(-97.492 -143.376)" fill="#e8aa63"/>
            <path id="Trazado_101712" data-name="Trazado 101712" d="M267.392,397.926l39.344-47.536a74.52,74.52,0,0,1-19.96-33.9l-21.032,11.608L244.32,316.47a74.52,74.52,0,0,1-19.96,33.9L263.7,397.91" transform="translate(-93.216 -150.102)" fill="#eceded"/>
            <path id="Trazado_101713" data-name="Trazado 101713" d="M283.813,397.926,273.8,343.742s20.8-16.76,17.936-27.256l-21.064,11.608L249.245,316.47c-2.832,10.5,18.536,26.96,18.536,26.96L257.1,397.91" transform="translate(-98.141 -150.102)" fill="#353535"/>
            <path id="Trazado_101714" data-name="Trazado 101714" d="M313.59,193.2c-1.48-3.816-4.064-1.848-6.08.664.576-29.6-15.048-44.632-15.048-44.632H233.71s-15.728,15-15.2,44.416c-1.984-2.4-4.456-4.152-5.9-.448-2.664,6.88,3.608,16.312,2.4,25.872-.8,6.464,4.288,5.808,7.512,4a112.057,112.057,0,0,0,5.92,17.4c6.136,14.272,23.752,27.272,34.56,27.272s28.16-13.1,34.552-27.272a82.512,82.512,0,0,0,5.944-17.488c3.2,1.872,8.5,2.64,7.664-3.92C309.942,209.51,316.214,200.078,313.59,193.2Z" transform="translate(-90.733 -116.654)" fill="#fcc083"/>
            <path id="Trazado_101715" data-name="Trazado 101715" d="M299.152,322.51l-11.168-6.52L268.4,328.014,248.816,315.99l-11.176,6.52,19.248,27.3L268.4,332.694l11.512,17.112Z" transform="translate(-95.872 -150.006)" fill="#7d7d7d" opacity="0.35"/>
            <path id="Trazado_101716" data-name="Trazado 101716" d="M276.09,326.484,287.6,342.156l18.416-27.288-10.344-6.528Z" transform="translate(-103.562 -148.476)" fill="#eceded"/>
            <path id="Trazado_101717" data-name="Trazado 101717" d="M268.52,326.484l-11.512,15.672L238.24,315.548l10.312-7.208Z" transform="translate(-95.992 -148.476)" fill="#eceded"/>
            <path id="Trazado_101718" data-name="Trazado 101718" d="M376.578,429.852c-2.256-27.088-11.12-84.224-15.024-91.328-7.464-13.6-64.448-27.3-64.448-27.3v.216l-.72-.216c0,.072,1.88,18.872-6.9,45.744-2.9,8.912-6.176,17.952-9.024,25.512-1.112,2.968-10.976,48.8-10.976,48.8" transform="translate(-102.242 -149.052)" fill="#4d5053"/>
            <path id="Trazado_101719" data-name="Trazado 101719" d="M276.214,436s-31.512-50.552-32.6-53.52c-2.84-7.56-6.112-16.6-9.024-25.512-8.8-26.872-6.9-45.672-6.9-45.744l-.712.216v-.216c0-.008-56.992,13.72-64.456,27.3-3.9,7.1-12.76,64.24-15.016,91.328" transform="translate(-77.846 -149.052)" fill="#4d5053"/>
            <path id="Trazado_101720" data-name="Trazado 101720" d="M275.988,398.662l44.8-56.36-12.376-5.976,7.248-20.984-17.088-5.032s1.072,18.224-6.784,44.272A417,417,0,0,1,275.94,396.87" transform="translate(-103.532 -148.87)" fill="#787878"/>
            <path id="Trazado_101721" data-name="Trazado 101721" d="M264.78,396.87a441.554,441.554,0,0,1-15.6-42.288c-7.856-26.048-6.776-44.272-6.776-44.272l-17.1,5.032,7.248,20.984L220.18,342.3l44.656,56.36" transform="translate(-92.38 -148.87)" fill="#787878"/>
            <path id="Trazado_101722" data-name="Trazado 101722" d="M233,143.724s32.92,61.768,84.6-2.4C317.6,141.324,272.3,105.34,233,143.724Z" transform="translate(-94.944 -112.012)" fill="#3c3c3c"/>
            <path id="Trazado_101723" data-name="Trazado 101723" d="M229.086,216.288c-2.12-18.264-3.92-61,23.424-72.92l-8.368-4.048s-24.464,4.952-26.712,42.728l6.56,39.888h.056a5.056,5.056,0,0,0,5.04-5.648Z" transform="translate(-91.83 -114.672)" fill="#3c3c3c"/>
            <path id="Trazado_101724" data-name="Trazado 101724" d="M318.452,222h.272l6.5-39.632c-2.248-37.784-26.712-42.728-26.712-42.728l-8.376,4.048c27.328,11.912,25.552,54.584,23.432,72.872a4.88,4.88,0,0,0,4.88,5.44Z" transform="translate(-106.372 -114.736)" fill="#3c3c3c"/>
            <path id="Trazado_101725" data-name="Trazado 101725" d="M309.522,221.064a56.935,56.935,0,0,1-7.568,1.6,50.51,50.51,0,0,1-5.6.528,32.5,32.5,0,0,1-9.784-.912s1.376-7.736,2.3-8.512c.352-.288,2.872-.432,5.96-.448,2.592,0,5.6.1,8,.288a17.824,17.824,0,0,1,4.432.7C309.482,215.344,309.522,221.064,309.522,221.064Z" transform="translate(-105.658 -129.472)" fill="#fff"/>
            <path id="Trazado_101726" data-name="Trazado 101726" d="M268.955,211c1.328,12.432-5.416,26.624-6.776,29.36s14,4.392,19.9-.176c-6.832,2.656-16.184.232-16.44-.576S273.427,226.328,268.955,211Z" transform="translate(-100.763 -129.008)" fill="#e69675"/>
            <path id="Trazado_101727" data-name="Trazado 101727" d="M304.212,217.334a5.864,5.864,0,0,1-2.6,5.32,50.889,50.889,0,0,1-5.6.528,5.856,5.856,0,0,1-1.52-9.872c2.592,0,5.6.1,8,.288A5.9,5.9,0,0,1,304.212,217.334Z" transform="translate(-106.827 -129.47)" fill="#4b5774"/>
            <path id="Trazado_101728" data-name="Trazado 101728" d="M260.292,223.526c-1.1.136-2.152.224-3.2.3h-.44c-2.4.184-4.576.224-6.48.192a51.307,51.307,0,0,1-8.392-.664s.48-7.48,1.984-7.9a56.106,56.106,0,0,1,6.672-.752c1.96-.136,4-.224,5.6-.184a6.739,6.739,0,0,1,2.984.424C260.356,216.046,260.292,223.526,260.292,223.526Z" transform="translate(-96.7 -129.71)" fill="#fff"/>
            <path id="Trazado_101729" data-name="Trazado 101729" d="M279.26,200.176c10.744-.728,30.664-.04,30.664-.04s-1.5-4.256-3.768-5.3-25.224-1.2-25.224-1.2S278.908,198.336,279.26,200.176Z" transform="translate(-104.188 -125.536)" fill="#3c3c3c"/>
            <path id="Trazado_101730" data-name="Trazado 101730" d="M261.146,200.142c-9.784-.448-27.856.8-27.856.8s1.248-4.3,3.28-5.4,22.88-1.872,22.88-1.872S261.41,198.286,261.146,200.142Z" transform="translate(-95.002 -125.542)" fill="#3c3c3c"/>
            <path id="Trazado_101731" data-name="Trazado 101731" d="M255.88,258.694c18.144,4.568,36.288-1.7,36.288-1.7C289.5,266.206,270.152,286.83,255.88,258.694Z" transform="translate(-99.52 -138.206)" fill="#fff"/>
            <path id="Trazado_101732" data-name="Trazado 101732" d="M257.331,219.182a6.248,6.248,0,0,1-1.512,4.648h-.432a64.008,64.008,0,0,1-6.488.16,6.312,6.312,0,0,1-1.856-4.064,6.064,6.064,0,0,1,2.128-5.224c1.952-.136,4-.224,5.6-.184a6.088,6.088,0,0,1,2.56,4.664Z" transform="translate(-97.747 -129.71)" fill="#4b5774"/>
            <path id="Trazado_101733" data-name="Trazado 101733" d="M288.77,212.519l.112,1.552s17.792-.56,20.184,1.856C309.5,211.223,288.77,212.519,288.77,212.519Z" transform="translate(-106.098 -129.279)" fill="#64413f"/>
            <path id="Trazado_101734" data-name="Trazado 101734" d="M244.29,215.178c6.768-1.344,15.72-.136,15.72-.136l.12-1.824S244.282,211.938,244.29,215.178Z" transform="translate(-97.202 -129.402)" fill="#64413f"/>
          </g>
        </g>
        <path id="Trazado_101735" data-name="Trazado 101735" d="M251.486,419.236a169.256,169.256,0,0,0,169.432-169.4,6.056,6.056,0,1,0-12.112,0,157.16,157.16,0,0,1-157.32,157.32,6.056,6.056,0,1,0,0,12.112Z" transform="translate(-49.086 -48.756)" fill="#b3b4aa"/>
        <g id="Grupo_54047" data-name="Grupo 54047" transform="translate(17.343 16.064)">
          <path id="Trazado_101736" data-name="Trazado 101736" d="M439.511,70.435A165.728,165.728,0,0,1,451.1,83.843c3.44,4.456,6.688,9.168,10.328,14.784a10.8,10.8,0,1,0,18.13-11.737c-3.834-5.927-7.442-11.2-11.362-16.239a184.213,184.213,0,0,0-13.088-15.144,10.8,10.8,0,1,0-15.6,14.928Z" transform="translate(-104.646 -26.499)" fill="#d5d9ba"/>
          <path id="Trazado_101737" data-name="Trazado 101737" d="M415.447,34.29c3.152,2.4-3.008-2.568,0,0" transform="translate(-100.262 -22.77)" fill="#9b6771"/>
          <path id="Trazado_101738" data-name="Trazado 101738" d="M424.228,29.768a11.831,11.831,0,0,0-.48-1.512,11.317,11.317,0,0,0-.8-1.6c-.216-.352-.384-.592-.528-.8-.272-.376-.456-.584-.6-.752-.28-.312-.424-.456-.544-.576l-.424-.4c-.176-.16-.288-.248-.408-.352l-.584-.48c-.3-.248-.6-.488-.9-.72l-.488-.376c-.112-.08-.224-.168-.5-.344l-.256-.168c-.176-.112-.376-.24-.864-.5a11.336,11.336,0,0,0-1.16-.5,10.4,10.4,0,0,0-1.24-.384c-.344-.072-.76-.16-1.3-.224h-1.24a10.7,10.7,0,0,0-3.36.544,10.287,10.287,0,0,0-1.984.88,10.76,10.76,0,0,0-5.32,7.768,10.287,10.287,0,0,0-.12,1.6,10.775,10.775,0,0,0,.5,3.256,11.537,11.537,0,0,0,.64,1.6,11.734,11.734,0,0,0,.8,1.4c.2.272.344.456.464.608.232.28.376.432.5.56s.32.336.424.432l.36.336.432.376.5.44.24.176.208.176h0l.872.656.5.352c.136.088.272.184.632.4.2.1.424.248.944.488a10.744,10.744,0,0,0,1.192.464,5.036,5.036,0,0,0,.544.16h1.088a7.872,7.872,0,0,0,.984.112h1.024a11,11,0,0,0,3.584-.72,10.79,10.79,0,0,0,6.728-8.048,11.606,11.606,0,0,0,.192-2.024,10.927,10.927,0,0,0-.256-2.3ZM412.94,20.088ZM410.964,42.72ZM411.068,42.72ZM411.516,42.824Z" transform="translate(-97.571 -20.08)" fill="#bd9aa0"/>
          <path id="Trazado_101739" data-name="Trazado 101739" d="M91.26,465.108A218.128,218.128,0,0,1,33.18,410.86" transform="translate(-23.979 -98.236)" fill="#590212"/>
          <path id="Trazado_101740" data-name="Trazado 101740" d="M93.936,455.066a208.967,208.967,0,0,1-55.656-52,9.2,9.2,0,1,0-14.8,10.929,227.2,227.2,0,0,0,60.537,56.559,9.2,9.2,0,1,0,9.92-15.488Z" transform="translate(-21.679 -95.93)" fill="#deccd0"/>
          <path id="Trazado_101741" data-name="Trazado 101741" d="M55.5,100.6c2.184-2.856-2.336,2.728,0,0" transform="translate(-28.305 -36.016)" fill="#9b6771"/>
          <path id="Trazado_101742" data-name="Trazado 101742" d="M48.862,81.692a14.249,14.249,0,0,0-2.088.68,14.711,14.711,0,0,0-2.128,1.088c-.472.3-.8.52-1.056.712-.5.384-.8.624-1,.8-.424.376-.608.568-.8.728-.28.288-.4.424-.512.544l-.4.464-.5.6-.68.952c-.128.16-.24.312-.424.56l-.176.24-.192.272-.216.328c-.072.1-.152.232-.248.4s-.168.272-.28.472a16,16,0,0,0-.712,1.48,14.518,14.518,0,0,0-1.144,5.672,14.8,14.8,0,0,0,6.072,11.952,14.928,14.928,0,0,0,2.48,1.48,14.7,14.7,0,0,0,3.512,1.144,14.4,14.4,0,0,0,2.736.256,14.72,14.72,0,0,0,5.664-1.128,13.336,13.336,0,0,0,1.6-.8,15.912,15.912,0,0,0,1.528-.976c.32-.24.536-.416.712-.568.344-.28.536-.464.688-.608.288-.264.424-.416.544-.536s.312-.328.416-.448.264-.3.4-.448l.424-.5c.088-.1.16-.216.248-.32s.168-.192.248-.3h0c.264-.344.456-.592.664-.88l.176-.248c.048-.064.1-.144.168-.248s.112-.16.192-.28L65,103.9c.064-.1.144-.232.24-.4s.16-.28.264-.48a15.2,15.2,0,0,0,.68-1.464,13.687,13.687,0,0,0,.552-1.68,14.455,14.455,0,0,0,.312-1.464,15.288,15.288,0,0,0,.192-2.344,15.488,15.488,0,0,0-.392-3.376,14.976,14.976,0,0,0-1.456-3.784,15.2,15.2,0,0,0-2.4-3.2,14.851,14.851,0,0,0-6.568-3.872,14.728,14.728,0,0,0-3.2-.536h-.8a15.2,15.2,0,0,0-3.56.392Z" transform="translate(-24.605 -32.324)" fill="#eef0e3"/>
          <path id="Trazado_101743" data-name="Trazado 101743" d="M446.6,382.12a197.96,197.96,0,0,1-49.248,52.7" transform="translate(-96.813 -92.488)" fill="#590212"/>
          <path id="Trazado_101744" data-name="Trazado 101744" d="M439.162,376.764a191.2,191.2,0,0,1-47.552,50.912,6.8,6.8,0,1,0,8.081,10.937,204.448,204.448,0,0,0,50.935-54.537,6.8,6.8,0,1,0-11.465-7.313Z" transform="translate(-95.113 -90.788)" fill="#f1cdcd"/>
        </g>
      </g>
      <g id="Layer_1" data-name="Layer 1" transform="translate(29.448 16.752)">
        <path id="Trazado_101745" data-name="Trazado 101745" d="M382.17,207.16a172.68,172.68,0,1,0-345.36,0,12.8,12.8,0,0,0,25.52,0,147.2,147.2,0,1,1,294.32,0,12.8,12.8,0,0,0,25.52,0Z" transform="translate(-36.81 -23.648)" fill="#d5d9ba"/>
        <path id="Trazado_101746" data-name="Trazado 101746" d="M226.892,386a184.877,184.877,0,0,0,20.3,1.112A183.61,183.61,0,0,0,267.02,20.988a7.839,7.839,0,1,0-1.712,15.585A167.944,167.944,0,0,1,414.908,203.3a171.322,171.322,0,0,1-1.016,18.568,167.753,167.753,0,0,1-185.24,148.556,7.839,7.839,0,1,0-1.745,15.581Z" transform="translate(-73.436 -20.94)" fill="#e6e8d6"/>
        <g id="Grupo_54054" data-name="Grupo 54054" transform="translate(16.848 80.344)">
          <g id="Grupo_54052" data-name="Grupo 54052" transform="translate(225.699)">
            <g id="Grupo_54049" data-name="Grupo 54049">
              <path id="Trazado_101747" data-name="Trazado 101747" d="M418.879,121.37h-60.04c-2.656,1.5-9.832,9.912-12,12.8-16.9,22.792,2.808,24,2.808,24l63.64-12.752C399.127,134.9,415.479,123.53,418.879,121.37Z" transform="translate(-339.994 -121.37)" fill="#9fa4a4"/>
              <g id="Grupo_54048" data-name="Grupo 54048" transform="translate(9.613 20.08)">
                <path id="Trazado_101748" data-name="Trazado 101748" d="M412.078,146.47H374.27c-.272,3.744-1.4,10.952-5.88,16.36l9.424-.32,30.592-1.032S420.078,151.174,412.078,146.47Z" transform="translate(-355.286 -146.47)" fill="#8a9090"/>
                <path id="Trazado_101749" data-name="Trazado 101749" d="M352.234,146.47a8.968,8.968,0,0,1,5.984,8.4c0,4-1.488,6.616-6.208,8.4l13.1-.44c4.48-5.408,5.6-12.616,5.88-16.36Z" transform="translate(-352.01 -146.47)" fill="#c6c9c9"/>
              </g>
            </g>
            <g id="Grupo_54051" data-name="Grupo 54051" transform="translate(0 80)">
              <path id="Trazado_101750" data-name="Trazado 101750" d="M358.735,258.21h60.048c-3.592-2.3-19.536-13.552-5.5-24.04l-63.64-12.8s-19.7,1.232-2.808,24C348.975,248.314,356,256.538,358.735,258.21Z" transform="translate(-339.994 -221.37)" fill="#9fa4a4"/>
              <g id="Grupo_54050" data-name="Grupo 54050" transform="translate(9.613 0.024)">
                <path id="Trazado_101751" data-name="Trazado 101751" d="M412.078,238.3H374.27c-.272-3.744-1.4-10.944-5.88-16.352l9.424.32,30.592,1.024S420.078,233.606,412.078,238.3Z" transform="translate(-355.286 -221.51)" fill="#8a9090"/>
                <path id="Trazado_101752" data-name="Trazado 101752" d="M352.234,238.192a8.952,8.952,0,0,0,5.984-8.4c0-4-1.488-6.608-6.208-8.392l13.1.44c4.48,5.408,5.6,12.608,5.88,16.352Z" transform="translate(-352.01 -221.4)" fill="#c6c9c9"/>
              </g>
            </g>
            <path id="Trazado_101753" data-name="Trazado 101753" d="M449.136,121.37H364c9.288,7.152,15.032,29.832,15.032,58.512,0,26.84-5.744,51.36-15.032,58.512h85.136c9.28-7.152,15.024-31.672,15.024-58.512C464.16,151.2,458.4,128.522,449.136,121.37Z" transform="translate(-344.795 -121.37)" fill="#dbdddd"/>
            <path id="Trazado_101754" data-name="Trazado 101754" d="M379,194.51c0,26.84-5.744,51.36-15.032,58.512h85.16C426.546,210.1,379,194.51,379,194.51Z" transform="translate(-344.789 -135.998)" fill="#969696" opacity="0.34"/>
          </g>
          <path id="Trazado_101755" data-name="Trazado 101755" d="M225.12,430.514V323.09l-8.7-8.56-5.648,1.656v.088c-17.456,5.136-43.4,14.048-48.272,22.912-3.9,7.1-12.76,64.24-15.016,91.328" transform="translate(-75.792 -160.002)" fill="#c6c8c8" opacity="0.74"/>
          <path id="Trazado_101756" data-name="Trazado 101756" d="M196.632,311.214l-26.352-25.9v25.9Z" transform="translate(-80.352 -154.158)" fill="#cdcdcd"/>
          <path id="Trazado_101757" data-name="Trazado 101757" d="M174.15,424.67V311.214H147.8v-25.9H57.87V424.67" transform="translate(-57.87 -154.158)" fill="#e8e9e9"/>
          <path id="Trazado_101758" data-name="Trazado 101758" d="M170.28,311.214h26.352l-26.352-25.9Z" transform="translate(-80.352 -154.158)" fill="#a8a8a8"/>
          <rect id="Rectángulo_5366" data-name="Rectángulo 5366" width="89.992" height="6.032" transform="translate(14.344 200.832)" fill="#b5b8b8"/>
          <rect id="Rectángulo_5367" data-name="Rectángulo 5367" width="89.992" height="6.032" transform="translate(14.344 211.88)" fill="#b5b8b8"/>
          <rect id="Rectángulo_5368" data-name="Rectángulo 5368" width="89.992" height="6.032" transform="translate(14.344 222.928)" fill="#b5b8b8"/>
          <g id="Grupo_54053" data-name="Grupo 54053" transform="translate(14.344 168.08)">
            <rect id="Rectángulo_5369" data-name="Rectángulo 5369" width="89.992" height="6.032" fill="#b5b8b8"/>
            <rect id="Rectángulo_5370" data-name="Rectángulo 5370" width="89.992" height="6.032" transform="translate(0 11.056)" fill="#b5b8b8"/>
            <rect id="Rectángulo_5371" data-name="Rectángulo 5371" width="89.992" height="6.032" transform="translate(0 22.104)" fill="#b5b8b8"/>
          </g>
          <path id="Trazado_101759" data-name="Trazado 101759" d="M110.676,285.31v.952a6.935,6.935,0,0,0-.1-.952H99.548c0,.352-.048.688-.048.976a5.143,5.143,0,0,0-.3-.976H88.876a6.664,6.664,0,0,0-.176,2.152,3.752,3.752,0,0,0-.672-2.12H80.7a8.44,8.44,0,0,0-1.192,4.664v11.056c0,2.816,1.848,5.112,4.224,5.136h.088a4.28,4.28,0,0,0,3.824-2.68,5.856,5.856,0,0,0,.552-2.4V289.766h.9l-.056,14.552L89,308.262c-.048,3.256,2.144,5.92,4.888,5.944h.1c2.752,0,5.016-2.584,5.064-5.84V307.11l.088-17.272h1.136l-.1,17.32V310.3c-.048,3.256,2.136,5.912,4.888,5.944h.1c2.744,0,5.008-2.592,5.056-5.848l.064-5.192.072-15.368h1.032l-.056,14.88v3.544c-.048,3.256,2.136,5.92,4.88,5.944h.1c2.744,0,5.008-2.584,5.056-5.84,0,0,.2-17.9.2-18.328h0c0-1.328.1-3.032,0-4.664Z" transform="translate(-62.196 -154.158)" fill="#c6c8c8" opacity="0.74"/>
          <path id="Trazado_101760" data-name="Trazado 101760" d="M117.792,285.215c0-3.656.8-10.176-3.816-10.176-2.888-.168-4.168.152-5.032.56-2.5,1.168-1.944,7.072-1.944,7.072.048-6.024-2.08-7.048-5.528-7.12-6.832-.152-5.6,7.12-5.6,7.12,0-3.584-2.144-5.792-5.184-5.792-6.576,0-5.68,5.792-5.68,5.792a3.848,3.848,0,0,0-2.456-3.576,5.372,5.372,0,0,0-4.8.5,7.429,7.429,0,0,0-1.992,5.6v11.1c0,2.816,1.856,5.12,4.232,5.144h.088a4.288,4.288,0,0,0,3.872-2.656,5.672,5.672,0,0,0,.552-2.4V285.023h.888l-.056,14.552v3.872c-.048,3.256,2.136,5.92,4.888,5.944h.1c2.744,0,5.008-2.584,5.056-5.84v-1.256l.088-17.272h1.128l-.1,17.32-.04,3.144c0,3.256,2.144,5.912,4.888,5.944h.1c2.744,0,5.008-2.592,5.056-5.84l.064-5.2.072-15.368h1.032l-.056,14.88-.048,3.544c-.048,3.256,2.144,5.92,4.888,5.944h.1c2.744,0,5.008-2.584,5.056-5.84,0,0,.2-17.9.2-18.328Z" transform="translate(-61.448 -152.095)" fill="#fcc083"/>
        </g>
      </g>
    </g>
  </g>
</svg>
