<svg xmlns="http://www.w3.org/2000/svg" xmlns:xlink="http://www.w3.org/1999/xlink" width="500" height="500" viewBox="0 0 500 500">
  <defs>
    <clipPath id="clip-path">
      <circle id="Elipse_4079" data-name="Elipse 4079" cx="212.62" cy="212.62" r="212.62" transform="translate(48.9 47.58)" fill="none"/>
    </clipPath>
  </defs>
  <g id="Grupo_55722" data-name="Grupo 55722" transform="translate(-863 -3623)">
    <g id="CF1_1.3_constitucion_1" data-name="CF1_1.3 constitucion 1" transform="translate(863 3623)">
      <g id="Capa_2" data-name="Capa 2">
        <rect id="Rectángulo_5379" data-name="Rectángulo 5379" width="500" height="500" fill="none"/>
        <circle id="Elipse_4076" data-name="Elipse 4076" cx="212.62" cy="212.62" r="212.62" transform="translate(48.9 47.58)" fill="#eef0e3"/>
        <path id="Trazado_102129" data-name="Trazado 102129" d="M267.1,478.82A211.59,211.59,0,0,0,478.86,267.06a7.57,7.57,0,1,0-15.14,0A196.45,196.45,0,0,1,267.1,463.68a7.57,7.57,0,1,0,0,15.14Z" fill="#b3b4aa"/>
        <g id="Grupo_54071" data-name="Grupo 54071">
          <path id="Trazado_102130" data-name="Trazado 102130" d="M98.51,475.72c-3.93-3,3.76,3.21,0,0" fill="#9b6771"/>
          <path id="Trazado_102131" data-name="Trazado 102131" d="M480.72,423a12.549,12.549,0,0,0,1.89-.6,12.883,12.883,0,0,0,2-1c.44-.27.73-.48,1-.65a11.775,11.775,0,0,0,.93-.76c.4-.35.57-.53.72-.68s.4-.41.51-.53l.43-.5.61-.73.89-1.12.48-.62.43-.61.21-.33c.13-.22.3-.47.61-1.07a12.931,12.931,0,0,0,.64-1.46,13.357,13.357,0,0,0,.47-1.55,12.667,12.667,0,0,0,.28-1.62h0v-.72a.381.381,0,0,1,0-.1,1.853,1.853,0,0,1,0-.23v-.48h0a16.132,16.132,0,0,0-.13-1.84,14.422,14.422,0,0,0-.55-2.36,13.061,13.061,0,0,0-1.1-2.47,13.451,13.451,0,0,0-6.37-5.7,13.192,13.192,0,0,0-3.34-1,13.529,13.529,0,0,0-6.09.48,13.19,13.19,0,0,0-2,.79,13.6,13.6,0,0,0-1.75,1.05,9.427,9.427,0,0,0-.76.58,8.5,8.5,0,0,0-.7.61c-.28.26-.42.41-.54.53l-.43.46-.47.53-.54.64c-.08.09-.15.19-.23.29l-.22.26h0l-.82,1.09c-.13.17-.24.32-.44.63s-.23.34-.5.79a12.685,12.685,0,0,0-.61,1.17,11.631,11.631,0,0,0-.59,1.5c-.06.2-.13.42-.2.68h0v.08a1.47,1.47,0,0,0,0,.17v.21a1.688,1.688,0,0,0-.05.24h0v.61c-.05.31-.1.71-.14,1.23V409a.221.221,0,0,1,0,.08c0,.2,0,.41,0,.65v.11h0a2.283,2.283,0,0,0,0,.37,12.708,12.708,0,0,0,.22,2.11,13.167,13.167,0,0,0,.67,2.38,13.76,13.76,0,0,0,2.88,4.51,13.52,13.52,0,0,0,7.2,3.89,12.682,12.682,0,0,0,2.52.24A13.057,13.057,0,0,0,480.72,423Zm12.11-14.11ZM464.54,406.42ZM464.54,406.55ZM464.41,407.12Z" fill="#bd9aa0"/>
          <path id="Trazado_102132" data-name="Trazado 102132" d="M408.39,31.53A272.51,272.51,0,0,1,481,99.34" fill="#590212"/>
          <path id="Trazado_102133" data-name="Trazado 102133" d="M402.21,41.23a260.85,260.85,0,0,1,69.53,64.94,11.5,11.5,0,1,0,18.5-13.661A283.931,283.931,0,0,0,414.58,21.84a11.5,11.5,0,1,0-12.37,19.39Z" fill="#deccd0"/>
          <path id="Trazado_102134" data-name="Trazado 102134" d="M458.51,409.39c-2.73,3.57,2.91-3.41,0,0" fill="#9b6771"/>
          <path id="Trazado_102135" data-name="Trazado 102135" d="M158.63,55.59a17.42,17.42,0,0,0,2.61-.85A19.189,19.189,0,0,0,164,53.37c.59-.37,1-.65,1.31-.89.64-.48,1-.78,1.26-1,.52-.47.75-.71.95-.91.36-.36.5-.53.64-.68l.5-.58.62-.75c.3-.37.6-.73.9-1.11l.53-.7.21-.3.24-.34c.08-.11.16-.24.27-.41s.19-.29.32-.5l.34-.59a17.659,17.659,0,0,0,.89-1.85,17.892,17.892,0,0,0,.75-2.14c.14-.51.29-1.12.43-1.91a19.49,19.49,0,0,0,.26-3.09,18.78,18.78,0,0,0-1-5.85,18.44,18.44,0,0,0-6.65-9.09,18.2,18.2,0,0,0-3.13-1.85,18.44,18.44,0,0,0-4.36-1.39,17.94,17.94,0,0,0-3.41-.32,18.49,18.49,0,0,0-7.09,1.41,17.489,17.489,0,0,0-2,1,19.411,19.411,0,0,0-1.9,1.22c-.4.3-.68.52-.9.71-.42.35-.66.58-.86.76-.35.33-.53.52-.68.67s-.38.41-.51.56l-.51.56-.53.62c-.11.13-.2.27-.3.4s-.22.24-.32.37h0c-.32.43-.56.74-.82,1.1l-.22.31a3.782,3.782,0,0,0-.22.31c-.07.09-.14.2-.24.35l-.26.42c-.09.13-.18.29-.31.5s-.2.35-.33.6a18,18,0,0,0-1.54,3.93,18.5,18.5,0,0,0,16.84,23.23h1a19,19,0,0,0,4.46-.56Z" fill="#eef0e3"/>
          <path id="Trazado_102136" data-name="Trazado 102136" d="M55.27,128.08a247.3,247.3,0,0,1,61.56-65.91" fill="#590212"/>
          <path id="Trazado_102137" data-name="Trazado 102137" d="M62.44,132.65A238.651,238.651,0,0,1,121.88,69a8.5,8.5,0,1,0-10.1-13.68A256,256,0,0,0,48.1,123.51a8.5,8.5,0,1,0,14.34,9.14Z" fill="#f1cdcd"/>
        </g>
      </g>
      <g id="Layer_1" data-name="Layer 1">
        <path id="Trazado_102138" data-name="Trazado 102138" d="M242.7,493a230.851,230.851,0,0,0,25.35,1.4A229.316,229.316,0,0,0,495.94,290a233.644,233.644,0,0,0,1.39-25.36A229.421,229.421,0,0,0,292.9,36.66a9.794,9.794,0,1,0-2.14,19.47A209.933,209.933,0,1,1,244.9,473.485,9.82,9.82,0,0,0,242.7,493Z" fill="#9b6771"/>
        <g id="Grupo_54093" data-name="Grupo 54093" clip-path="url(#clip-path)">
          <g id="Grupo_54092" data-name="Grupo 54092">
            <path id="Trazado_102139" data-name="Trazado 102139" d="M321.65,118.07c9.43-33.67,31-33.67,35.69-25.25,34.68-6.73,58.58,28.62,33.67,63,14.81,18.18.34,40.07-23.91,34.35S321.65,118.07,321.65,118.07Z" fill="#deccd0"/>
            <g id="Grupo_54072" data-name="Grupo 54072">
              <path id="Trazado_102140" data-name="Trazado 102140" d="M384.27,152.75c1-15.82-8.08-20.2-8.08-20.2,7.07,24.24,8.76,31.31-1.34,33.33-8,1.6-5.25,17.05-3.58,25,21.67,2.41,33.73-17.98,19.73-35.1,24.91-34.34,1-69.69-33.67-63C396.73,97.2,400.44,140,384.27,152.75Z" fill="#9b6771"/>
            </g>
            <path id="Trazado_102141" data-name="Trazado 102141" d="M330.74,111c-19.53-10.44-26.6-.33-26.6-.33C259,108,257,131.88,266.1,134.23c-31.65,23.91-14.15,58.25,1.68,65.66s78.45,26.6,78.45,26.6c14.48-1.69,20.2-21.55,20.2-22.56,17.51-10.1,16.83-40.07,3-54.21C364.07,123.46,345.89,111.34,330.74,111Z" fill="#f1cdcd"/>
            <g id="Grupo_54073" data-name="Grupo 54073">
              <path id="Trazado_102142" data-name="Trazado 102142" d="M359.7,149.05c14.14,13.47,2.35,32-12.12,16.5,4.37,16.49-12.13,9.76-12.13,9.76l4,23.23s6.68,21.31,8.6,27.61c13.1-3.07,18.34-21.25,18.34-22.22,17.51-10.1,16.83-40.07,3-54.21C364,123.46,345.82,111.34,330.67,111,349.93,122.11,361,134.57,359.7,149.05Z" fill="#9b6771"/>
            </g>
            <path id="Trazado_102143" data-name="Trazado 102143" d="M286.3,150.06c6.39,22.56,36,32,49.15,25.25,8.08,20.2,22.23,20.2,22.23,20.2s-1,13.17-.16,14.16c-7.59,37.36-11.63,102,9.92,124.22S432.93,385.41,442,440.46H167.78c7.07-47,38.38-85.86,78.28-104.55s51-40.4,49-78.78c-27.78-27.78-30.3-58.08-30.3-83.33A45.12,45.12,0,0,0,286.3,150.06Z" fill="#deccd0"/>
            <g id="Grupo_54074" data-name="Grupo 54074">
              <path id="Trazado_102144" data-name="Trazado 102144" d="M340,438.44c-43.94-7.58-51.51-23.23-64.14-43.44s-18.18-35.85-42.42-48.48c37.87,11.62,39.89,30.3,54.54,54.54S326.36,434.9,340,438.44Z" fill="#9b6771"/>
            </g>
            <g id="Grupo_54075" data-name="Grupo 54075">
              <path id="Trazado_102145" data-name="Trazado 102145" d="M262.22,408.13c13.13,15.16,26.77,21.22,37.38,23.74C272.83,433.89,265.25,417.73,262.22,408.13Z" fill="#9b6771"/>
            </g>
            <g id="Grupo_54076" data-name="Grupo 54076">
              <path id="Trazado_102146" data-name="Trazado 102146" d="M266,180.61c34.6-2.52,70.2,1.27,70.2,1.27C299.09,176.32,272.58,176.57,266,180.61Z" fill="#9b6771"/>
            </g>
            <g id="Grupo_54077" data-name="Grupo 54077">
              <path id="Trazado_102147" data-name="Trazado 102147" d="M267.78,191a188.478,188.478,0,0,1,34.09,2.27C288.23,187.94,267.78,191,267.78,191Z" fill="#9b6771"/>
            </g>
            <g id="Grupo_54078" data-name="Grupo 54078">
              <path id="Trazado_102148" data-name="Trazado 102148" d="M269.8,209.15c9.85,1.26,14.9.5,20.71-1.77s12.12-3.53,18.68-.76,39.9-.75,39.9-.75c-17.42,3.53-29.54,5.68-39.77,2.77s-15.28-1.76-19.07.76S275.23,211.8,269.8,209.15Z" fill="#9b6771"/>
            </g>
            <g id="Grupo_54079" data-name="Grupo 54079">
              <path id="Trazado_102149" data-name="Trazado 102149" d="M292.65,210.16c0,2-1.89,6.19-2.14,7.07s8.58,6.19,8.58,6.19c-2.78-1.39-12-3.67-11.74-5.18S292.65,210.16,292.65,210.16Z" fill="#9b6771"/>
            </g>
            <g id="Grupo_54080" data-name="Grupo 54080">
              <path id="Trazado_102150" data-name="Trazado 102150" d="M285.71,231.12c11-.89,30.93,0,30.93,0C304,227.2,291.14,227.58,285.71,231.12Z" fill="#9b6771"/>
            </g>
            <g id="Grupo_54081" data-name="Grupo 54081">
              <path id="Trazado_102151" data-name="Trazado 102151" d="M294.8,238.19c2,.5,11.49,0,11.49,0C301.74,241.09,297.32,240.84,294.8,238.19Z" fill="#9b6771"/>
            </g>
            <g id="Grupo_54082" data-name="Grupo 54082">
              <path id="Trazado_102152" data-name="Trazado 102152" d="M300.35,258.26c2.28,1.27,8.08,2.28,15.41-.38s31.31-24.87,35.6-37C340.25,251.07,309.7,287.68,300.35,258.26Z" fill="#9b6771"/>
            </g>
            <g id="Grupo_54083" data-name="Grupo 54083">
              <path id="Trazado_102153" data-name="Trazado 102153" d="M315.5,179.35c14.15,1.26,18.69,1.77,20.21,6.31s.25,14.65,1.51,17.43-.5,2.52,1.26,4.54c4.8,8.08-1.51,34.35-13.63,44.19A134.4,134.4,0,0,0,339,238.44c-2,20.2-10.1,63.89,20.2,109.34,27.48,41.23,8.23,78.71-13.68,92.68H442c-9.09-55-53-84.34-74.58-106.57s-17.49-86.89-9.9-124.22c-.82-1,.16-14.16.16-14.16s-14.15,0-22.23-20.2c-13.13,6.73-42.76-2.69-49.15-25.25C287.48,164.7,301.36,178.09,315.5,179.35Z" fill="#9b6771"/>
            </g>
            <g id="Grupo_54086" data-name="Grupo 54086">
              <circle id="Elipse_4077" data-name="Elipse 4077" cx="12.7" cy="12.7" r="12.7" transform="translate(349.44 190.47)" fill="#f1cdcd"/>
              <g id="Grupo_54084" data-name="Grupo 54084">
                <circle id="Elipse_4078" data-name="Elipse 4078" cx="12.7" cy="12.7" r="12.7" transform="translate(349.4 190.47)" fill="#9b6771"/>
              </g>
              <g id="Grupo_54085" data-name="Grupo 54085">
                <path id="Trazado_102154" data-name="Trazado 102154" d="M353.09,203.17a9.1,9.1,0,0,0,3.81,7.38.61.61,0,0,0,.31.09.52.52,0,0,0,.44-.22.54.54,0,0,0-.13-.75,8,8,0,0,1-3.33-6,5.41,5.41,0,1,0,4.88-7.74h-.34a8,8,0,0,1,9.68,2.27.55.55,0,0,0,.76.09.54.54,0,0,0,.09-.75,9.05,9.05,0,0,0-16.17,5.6Zm1.63-1.82a4.35,4.35,0,1,1,4.35,4.35,4.35,4.35,0,0,1-4.35-4.35Z" fill="#9b6771"/>
              </g>
            </g>
            <g id="Grupo_54087" data-name="Grupo 54087">
              <path id="Trazado_102155" data-name="Trazado 102155" d="M290.67,138.61c8.76,25.93,40.07,25.59,47.81,22.9C309.87,175.31,295.05,158.81,290.67,138.61Z" fill="#9b6771"/>
            </g>
            <path id="Trazado_102156" data-name="Trazado 102156" d="M464.74,456.67H142.53a19.19,19.19,0,0,1,19.19-19.19H445.55A19.19,19.19,0,0,1,464.74,456.67Z" fill="#e39b9b"/>
            <g id="Grupo_54088" data-name="Grupo 54088">
              <path id="Trazado_102157" data-name="Trazado 102157" d="M458.57,442.57a19.11,19.11,0,0,0-13-5.09H393.28a19.19,19.19,0,0,1,19.19,19.19h52.27A19.13,19.13,0,0,0,458.57,442.57Z" fill="#9b6771"/>
            </g>
            <g id="Grupo_54090" data-name="Grupo 54090">
              <path id="Trazado_102158" data-name="Trazado 102158" d="M490.56,476H116.72a19.19,19.19,0,0,1,19.19-19.19H471.37A19.2,19.2,0,0,1,490.56,476Z" fill="#d66969"/>
              <g id="Grupo_54089" data-name="Grupo 54089">
                <path id="Trazado_102159" data-name="Trazado 102159" d="M484.38,461.93a19.11,19.11,0,0,0-13-5.09h-78.1A19.19,19.19,0,0,1,412.47,476h78.09a19.14,19.14,0,0,0-6.18-14.07Z" fill="#9b6771"/>
              </g>
            </g>
            <g id="Grupo_54091" data-name="Grupo 54091">
              <path id="Trazado_102160" data-name="Trazado 102160" d="M237.27,457s2.35-10.44,18.85-19.19c-17.51-21.55,0-60.6,8.08-62.63,0,0-8.42-11.78-16.16-18.51,0,0,24.58-21.22,41.41-36s8.76-52,6.74-63a8.07,8.07,0,0,0,4.16.57c-16.2-9-23.1-43.5-16.28-49.31,0,0-14.4-9.59-7.83-18.68-2.27-1.52-2.53-8.08.76-10.11A82.08,82.08,0,0,1,278.26,168a39.39,39.39,0,0,1-13.51,5.76c-7.45-5.62-2.91-31.77,15.78-39.85-8.58-3.78.25-13.13,21.72-17.67,0,0,10.1,11.36,24.24,12.12,0,0-13.64-3.28-18.18-14.14,0,0,8.33-6.57,22.43-3.26,0-3,15.95-8.61,36.66-1.29-3-10.35-19.19-11.36-28-4.8,0-3.78,5.3-14.39,18-12.09h0c-4.21-7.52-21.84-8.32-32.28,15.57-15.23-5.82-20.92,2.28-20.92,2.28C259,108,257,131.88,266.1,134.23c-30.63,23.13-15.23,56,.13,64.85,2.66,18.92,9.85,39.07,28.82,58,2,38.38-9.09,60.1-49,78.78C207,354.2,176.2,391.85,168.28,437.48h-6.56a19.189,19.189,0,0,0-19.14,17.847l-6.67,0a18.67,18.67,0,0,0-15,7.77,21.64,21.64,0,0,0-4.2,12.93h89.6C206.66,474.3,210.34,459.55,237.27,457Z" fill="#f1cdcd"/>
            </g>
          </g>
        </g>
        <g id="Grupo_54114" data-name="Grupo 54114">
          <path id="Trazado_102161" data-name="Trazado 102161" d="M97.86,183.72c12.33,4.37,23.4,21.06,26.36,26.83s16.85,8.9,16.85,8.9-3.12,12.63-3.27,13.72c-8,6.24-15.76,17.16-33.23,10S97.86,183.72,97.86,183.72Z" fill="#9b6771"/>
          <path id="Trazado_102162" data-name="Trazado 102162" d="M85.48,182c1.17-.31,12.38,1.7,12.38,1.7,12.64,10.3,10.92,38.38,10,49s4.52,44.1,4.52,44.1c-23.08,23.09-67.19,7.85-67.19,7.85C38.62,270,38.59,199.32,41.71,194s24.8-12.32,24.8-12.32Z" fill="#fff"/>
          <rect id="Rectángulo_5380" data-name="Rectángulo 5380" width="46.1" height="4.75" transform="translate(106.15 273.39) rotate(180)" fill="#2b1710"/>
          <g id="Grupo_54094" data-name="Grupo 54094">
            <path id="Trazado_102163" data-name="Trazado 102163" d="M45.32,452.67l1.8,11c-2.31,6-1.32,13.67-1.32,13.67l44.91.18c-4.83-9.11-25.89-9.86-28.09-14.22S59.48,446,59.48,446Z" fill="#ff8762"/>
            <path id="Trazado_102164" data-name="Trazado 102164" d="M55.37,464.26c-.06-1.57,1.12-7.23,5.2-8.9a30.9,30.9,0,0,0,2,7.93c2.2,4.36,23.26,5.11,28.09,14.22l-44.91-.18s-1-7.64,1.32-13.67C47.12,463.66,55.22,467.1,55.37,464.26Z" fill="#2b1710"/>
            <path id="Trazado_102165" data-name="Trazado 102165" d="M89.51,475.77a9.8,9.8,0,0,1,1.2,1.74l-44.91-.18s-.09-.67-.15-1.78Z" fill="#693e2f"/>
            <path id="Trazado_102166" data-name="Trazado 102166" d="M59.33,465.44a.26.26,0,0,0,.23-.17,4.74,4.74,0,0,1,2-2.42,2.12,2.12,0,0,1,1.74,0,.26.26,0,1,0,.2-.48,2.6,2.6,0,0,0-2.15,0,5.1,5.1,0,0,0-2.27,2.71.26.26,0,0,0,.15.33Z" fill="#693e2f"/>
            <path id="Trazado_102167" data-name="Trazado 102167" d="M63.57,468.43a.26.26,0,0,0,.23-.17,4.7,4.7,0,0,1,2-2.42,2.16,2.16,0,0,1,1.74,0,.256.256,0,1,0,.2-.47,2.64,2.64,0,0,0-2.15,0,5.13,5.13,0,0,0-2.27,2.72.27.27,0,0,0,.16.33Z" fill="#693e2f"/>
            <path id="Trazado_102168" data-name="Trazado 102168" d="M70.53,470.44a.27.27,0,0,0,.23-.17,4.7,4.7,0,0,1,2-2.42,2.12,2.12,0,0,1,1.74,0,.26.26,0,0,0,.34-.14.25.25,0,0,0-.14-.34,2.6,2.6,0,0,0-2.15,0,5.16,5.16,0,0,0-2.27,2.71.27.27,0,0,0,.16.33Z" fill="#693e2f"/>
          </g>
          <g id="Grupo_54095" data-name="Grupo 54095">
            <path id="Trazado_102169" data-name="Trazado 102169" d="M99.21,452.68l1.83,11c-2.29,6-1.28,13.67-1.28,13.67l44.91.05c-4.85-9.09-25.92-9.78-28.14-14.14S113.35,446,113.35,446Z" fill="#ff8762"/>
            <path id="Trazado_102170" data-name="Trazado 102170" d="M109.3,464.24c-.07-1.58,1.09-7.24,5.16-8.92a31.44,31.44,0,0,0,2.07,7.92c2.22,4.36,23.29,5.05,28.14,14.14l-44.91-.05s-1-7.64,1.28-13.67C101,463.66,109.15,467.08,109.3,464.24Z" fill="#2b1710"/>
            <path id="Trazado_102171" data-name="Trazado 102171" d="M143.46,475.64a9.352,9.352,0,0,1,1.21,1.74l-44.91-.05s-.09-.67-.16-1.77Z" fill="#693e2f"/>
            <path id="Trazado_102172" data-name="Trazado 102172" d="M113.26,465.4a.27.27,0,0,0,.23-.17,4.71,4.71,0,0,1,2-2.42,2.14,2.14,0,0,1,1.75,0,.25.25,0,0,0,.33-.14.26.26,0,0,0-.13-.34,2.71,2.71,0,0,0-2.16,0,5.16,5.16,0,0,0-2.26,2.72.26.26,0,0,0,.16.33A.18.18,0,0,0,113.26,465.4Z" fill="#693e2f"/>
            <path id="Trazado_102173" data-name="Trazado 102173" d="M117.5,468.38a.25.25,0,0,0,.23-.17,4.7,4.7,0,0,1,2-2.42,2.12,2.12,0,0,1,1.74,0,.26.26,0,1,0,.2-.47,2.6,2.6,0,0,0-2.15,0,5.09,5.09,0,0,0-2.26,2.72.26.26,0,0,0,.15.33Z" fill="#693e2f"/>
            <path id="Trazado_102174" data-name="Trazado 102174" d="M124.47,470.37a.27.27,0,0,0,.23-.17,4.76,4.76,0,0,1,2-2.43,2.18,2.18,0,0,1,1.75,0,.26.26,0,0,0,.2-.48,2.6,2.6,0,0,0-2.15,0,5.15,5.15,0,0,0-2.27,2.72.27.27,0,0,0,.16.33Z" fill="#693e2f"/>
          </g>
          <path id="Trazado_102175" data-name="Trazado 102175" d="M119.48,462H96.85L83.57,356.74,68.56,462H45.72c-.61-33.14-7.42-158.11,4.17-188.83h60.27C117,342.18,119.48,462,119.48,462Z" fill="#35362f"/>
          <g id="Grupo_54096" data-name="Grupo 54096">
            <path id="Trazado_102176" data-name="Trazado 102176" d="M83.57,353.36a.26.26,0,0,0,.26-.24l3-53.57,4.47-1.17a.25.25,0,0,0,.19-.27L90.5,284a.25.25,0,0,0-.28-.24A.26.26,0,0,0,90,284l1,13.94-4.44,1.15a.28.28,0,0,0-.2.24l-3,53.76a.26.26,0,0,0,.25.27Z" fill="#e0c9c0"/>
          </g>
          <g id="Grupo_54097" data-name="Grupo 54097">
            <path id="Trazado_102177" data-name="Trazado 102177" d="M98.06,458.12H118a.26.26,0,0,0,0-.52H98.06a.26.26,0,0,0,0,.52Z" fill="#e0c9c0"/>
          </g>
          <g id="Grupo_54098" data-name="Grupo 54098">
            <path id="Trazado_102178" data-name="Trazado 102178" d="M47.94,458.52h19.4a.26.26,0,1,0,0-.51H47.94a.26.26,0,1,0,0,.51Z" fill="#e0c9c0"/>
          </g>
          <g id="Grupo_54099" data-name="Grupo 54099">
            <path id="Trazado_102179" data-name="Trazado 102179" d="M53.93,293.81h0c2.62-.26,11.17-2.22,11.69-16.82a.26.26,0,1,0-.52,0c-.33,9.57-4.53,15.67-11.22,16.32a.26.26,0,1,0,0,.52Z" fill="#e0c9c0"/>
          </g>
          <g id="Grupo_54100" data-name="Grupo 54100">
            <path id="Trazado_102180" data-name="Trazado 102180" d="M48.48,455.56h0a.26.26,0,0,0,.25-.27c0-1.3,1-154.83,5-176.24a.26.26,0,0,0-.51-.1c-4,21.47-5.09,175.06-5.05,176.36a.26.26,0,0,0,.31.25Z" fill="#e0c9c0"/>
          </g>
          <g id="Grupo_54104" data-name="Grupo 54104">
            <path id="Trazado_102181" data-name="Trazado 102181" d="M42.18,294.93c-.41,2.26-3.44,9.66-1.17,11.8s4.77,5.43,4.64,9.24,3.58,7.29,3.25,8.07-4.77-1.43-6-3.42-.8-3.15-1.84-2.36-2.5,13.24-2.53,17.31-2.69-.59-2.69-.59c-1.72.72-2.94-1.58-2.94-1.58-2.71.58-4-7.29-4.62-6.81-3.08.82-4-7.84-2.44-12.51s3.7-8.36,3.8-12.72.32-10.12.32-10.12Z" fill="#ff8762"/>
            <g id="Grupo_54101" data-name="Grupo 54101">
              <path id="Trazado_102182" data-name="Trazado 102182" d="M35.78,334.27a.24.24,0,0,1-.17-.18c-.08-.36-1.93-8.85-.2-14.27a.24.24,0,0,1,.3-.15.23.23,0,0,1,.15.29c-1.69,5.3.18,13.94.2,14a.24.24,0,0,1-.17.28Z" fill="#9b6771"/>
            </g>
            <g id="Grupo_54102" data-name="Grupo 54102">
              <path id="Trazado_102183" data-name="Trazado 102183" d="M32.29,332.43a.23.23,0,0,1-.17-.15c-.1-.29-2.58-7.2-1.66-11.92a.23.23,0,0,1,.28-.18.22.22,0,0,1,.18.27c-.9,4.59,1.62,11.6,1.65,11.67a.23.23,0,0,1-.15.3.19.19,0,0,1-.13.01Z" fill="#9b6771"/>
            </g>
            <g id="Grupo_54103" data-name="Grupo 54103">
              <path id="Trazado_102184" data-name="Trazado 102184" d="M28.41,325.58a.25.25,0,0,1-.18-.18,15.41,15.41,0,0,1-.42-4.88.24.24,0,0,1,.47.08,15.22,15.22,0,0,0,.41,4.7.23.23,0,0,1-.18.28Z" fill="#9b6771"/>
            </g>
          </g>
          <path id="Trazado_102185" data-name="Trazado 102185" d="M104.34,288.08c-1.23-12.68-2.2-42.89-2-51.75.23-12,.42-39.5-12.7-54,3.63.51,8.26,1.34,8.26,1.34,12.64,10.3,10.92,38.38,10,49s5.3,49.78,5.3,49.78C111.05,284.59,106.74,286.57,104.34,288.08Z" fill="#7a3541"/>
          <path id="Trazado_102186" data-name="Trazado 102186" d="M45.18,284.65C38.62,270,38.59,199.32,41.71,194c1.92-3.26,10.86-7.17,17.46-9.7,7.87,12.47,11.45,24.45,9.91,55.62a446.544,446.544,0,0,0,.34,49.39,106.46,106.46,0,0,1-24.24-4.66Z" fill="#7a3541"/>
          <path id="Trazado_102187" data-name="Trazado 102187" d="M97.81,254.85h36.8a2.24,2.24,0,0,0,2.22-1.91l6.67-45a2.24,2.24,0,0,0-2.22-2.57h-36.8a2.24,2.24,0,0,0-2.22,1.91l-6.67,45a2.24,2.24,0,0,0,2.22,2.57Z" fill="#ba0505"/>
          <rect id="Rectángulo_5381" data-name="Rectángulo 5381" width="21.99" height="6.08" rx="2.43" transform="translate(111.43 203.85)" fill="#ddd5e0"/>
          <path id="Trazado_102188" data-name="Trazado 102188" d="M119.84,202.5a2.81,2.81,0,1,0,2.81-2.81A2.81,2.81,0,0,0,119.84,202.5Z" fill="#ddd5e0"/>
          <path id="Trazado_102189" data-name="Trazado 102189" d="M143.53,238c5.5-4,7.72-17.67-1.41-20.59a21.808,21.808,0,0,0-.81,4s-13.69,1.29-14.28,5.5c-2.1,2.23.24,4.68.24,4.68-.24,2.46,5.73,4,5.73,4s-3.63-.7-3.51,1S139.43,239.76,143.53,238Z" fill="#ff8762"/>
          <g id="Grupo_54105" data-name="Grupo 54105">
            <path id="Trazado_102190" data-name="Trazado 102190" d="M131.36,228.15c3.08,0,7.8-.32,10.95-2a.152.152,0,0,0-.14-.27c-4.93,2.64-13.81,1.87-13.9,1.86a.15.15,0,0,0-.16.13.16.16,0,0,0,.14.17S129.54,228.15,131.36,228.15Z" fill="#9b6771"/>
          </g>
          <g id="Grupo_54106" data-name="Grupo 54106">
            <path id="Trazado_102191" data-name="Trazado 102191" d="M138.57,233.36h.05a.15.15,0,0,0,.14-.15.14.14,0,0,0-.15-.15,41.14,41.14,0,0,1-10.72-1.57.146.146,0,1,0-.08.28A41.09,41.09,0,0,0,138.57,233.36Z" fill="#9b6771"/>
          </g>
          <g id="Grupo_54107" data-name="Grupo 54107">
            <path id="Trazado_102192" data-name="Trazado 102192" d="M136.4,236.12h.47A.15.15,0,0,0,137,236a.16.16,0,0,0-.16-.14,11.38,11.38,0,0,1-3.29-.35.15.15,0,0,0-.07.29,12,12,0,0,0,2.92.32Z" fill="#9b6771"/>
          </g>
          <path id="Trazado_102193" data-name="Trazado 102193" d="M44.55,191.21c7,5.38,15.1,17.08,8.54,39.31s-5.46,74.24-5.46,74.24l-23.87.94C19.08,270.6,22.68,203.07,44.55,191.21Z" fill="#9b6771"/>
          <g id="Grupo_54109" data-name="Grupo 54109">
            <g id="Grupo_54108" data-name="Grupo 54108">
              <path id="Trazado_102194" data-name="Trazado 102194" d="M74.79,196.32a.2.2,0,0,0,.18-.1L80.73,187l8.85,6.09a.22.22,0,0,0,.25-.36l-9-6.21a.2.2,0,0,0-.17,0,.19.19,0,0,0-.14.09l-5.77,9.22a24.37,24.37,0,0,1-9.23-8.09.21.21,0,0,0-.29-.07.22.22,0,0,0-.08.3,24.85,24.85,0,0,0,9.59,8.33A.15.15,0,0,0,74.79,196.32Z" fill="#d1d1d1"/>
            </g>
            <path id="Trazado_102195" data-name="Trazado 102195" d="M80.73,187.05s6.15,4,6.2,4.21c.85,3.34-.34,9.33-.5,9.21-3.73-.45-5.6.85-5.6.85-3.22-2.09-4.26-7.64-4.26-7.64Z" fill="#7a3541"/>
            <path id="Trazado_102196" data-name="Trazado 102196" d="M86.43,200.47c5.42,6.73,8.3,24.52,6.94,34.86s5.09,22,5.09,22l-7.8,20.17s-14.57-16.78-15.25-17.62c-3.9-10,5.08-21.36,6.78-31.19s-1.36-27.4-1.36-27.4C82.53,199.4,86.43,200.47,86.43,200.47Z" fill="#5f4f66"/>
          </g>
          <path id="Trazado_102197" data-name="Trazado 102197" d="M68.42,151.66C66.63,139.06,75,136.11,78.82,137c7.67-2,14.49,1.27,16.49,1.27s.21,4.09,0,4.83c1.47,5-.21,10.92-.84,14.18S95,167,95.84,170s.35,8.06-8.55,9.18c-13.2,3-14.88,2.27-14.88,2S71.15,167,71.15,167L71,160Z" fill="#2b1710"/>
          <path id="Trazado_102198" data-name="Trazado 102198" d="M75.6,176.06c3.43,3.23,8.89,4,11.69,3.16,0,0-3.37.19.84,3.2-6,9.18-9.83,4.7-25,.09,8.88-5.83,8.33-24.23,8.33-24.23S70.59,171,75.6,176.06Z" fill="#ff8762"/>
          <path id="Trazado_102199" data-name="Trazado 102199" d="M75.18,146.93c-.91,7.57-1.61,15.41,2.45,16.81s10.08-1.61,15.68.07c.07-5.81.92-12.81.92-12.81A23,23,0,0,0,91,145.32c-3.22.07-6.3-3.08-6.3-3.08-.91,2.31-2.66,2.17-5,2.1S75.18,146.93,75.18,146.93Z" fill="#ff8762"/>
          <path id="Trazado_102200" data-name="Trazado 102200" d="M81.13,165.16c3.68-.42,10.92-.26,11.08,0-.16,2.89-1.57,7-5.41,6.41S81.13,165.16,81.13,165.16Z" fill="#ff8762"/>
          <path id="Trazado_102201" data-name="Trazado 102201" d="M84.33,156.89c0,1.05-.5,1.91-1.13,1.91s-1.12-.86-1.12-1.91.5-1.92,1.12-1.92S84.33,155.83,84.33,156.89Z" fill="#2b1710"/>
          <path id="Trazado_102202" data-name="Trazado 102202" d="M92.79,156.73c0,1.06-.51,1.92-1.13,1.92s-1.13-.86-1.13-1.92.51-1.92,1.13-1.92S92.79,155.67,92.79,156.73Z" fill="#2b1710"/>
          <path id="Trazado_102203" data-name="Trazado 102203" d="M87.33,162.43a.27.27,0,0,1-.27-.25.26.26,0,0,1,.25-.28,30.491,30.491,0,0,0,4.36-.47c-.12-.18-.4-.51-.63-.78a12.11,12.11,0,0,1-1.7-2.36,6.75,6.75,0,0,1-.29-3.69c0-.4.09-.8.11-1.22a.27.27,0,1,1,.54,0,12.161,12.161,0,0,1-.11,1.24,6.12,6.12,0,0,0,.24,3.41,12,12,0,0,0,1.62,2.24c.58.69.82,1,.82,1.23s0,.63-4.93.9Z" fill="#2b1710"/>
          <path id="Trazado_102204" data-name="Trazado 102204" d="M86.34,167.33a14.479,14.479,0,0,1-4.13-.5.26.26,0,0,1-.18-.33.27.27,0,0,1,.34-.18c2.92.91,8.07.26,8.69,0a.27.27,0,0,1,.35.14.26.26,0,0,1-.15.35,19.94,19.94,0,0,1-4.92.52Z" fill="#2b1710"/>
          <g id="Grupo_54110" data-name="Grupo 54110">
            <path id="Trazado_102205" data-name="Trazado 102205" d="M86,170.26a.27.27,0,0,1-.25-.18.26.26,0,0,1,.16-.34c2.31-.86,3.28-.36,3.38-.3a.271.271,0,0,1-.27.47s-.85-.44-2.92.33Z" fill="#9b6771"/>
          </g>
          <path id="Trazado_102206" data-name="Trazado 102206" d="M77.4,152.82c3.84-.16,8.56-.11,8.72-.11C85.54,151.08,81.13,148.3,77.4,152.82Z" fill="#2b1710"/>
          <path id="Trazado_102207" data-name="Trazado 102207" d="M90.16,152.76a8.09,8.09,0,0,1,3.94.53C92.84,150.35,90.11,151.08,90.16,152.76Z" fill="#2b1710"/>
          <path id="Trazado_102208" data-name="Trazado 102208" d="M82.14,161.45a2.66,2.66,0,1,1-2.27-2.87A2.59,2.59,0,0,1,82.14,161.45Z" fill="#ff7557"/>
          <g id="Grupo_54112" data-name="Grupo 54112">
            <path id="Trazado_102209" data-name="Trazado 102209" d="M72.34,158.57a3.37,3.37,0,1,1-2.72-3.93,3.37,3.37,0,0,1,2.72,3.93Z" fill="#ff7a52"/>
            <g id="Grupo_54111" data-name="Grupo 54111">
              <path id="Trazado_102210" data-name="Trazado 102210" d="M69.45,155.6a2.39,2.39,0,0,0-2,.56.142.142,0,1,0,.18.22,2.1,2.1,0,0,1,1.79-.5,2.28,2.28,0,0,1,.86.36h-.09a1.44,1.44,0,1,0-.52,2.83,1.42,1.42,0,0,0,1.42-.57,2.14,2.14,0,0,1-1.15,1.41.14.14,0,0,0-.07.19.12.12,0,0,0,.1.07.1.1,0,0,0,.09,0,2.4,2.4,0,0,0-.59-4.54Zm.25,3.17a1.15,1.15,0,1,1,1.35-.93,1.15,1.15,0,0,1-1.35.93Z" fill="#9b6771"/>
            </g>
          </g>
          <g id="Grupo_54113" data-name="Grupo 54113">
            <path id="Trazado_102211" data-name="Trazado 102211" d="M71.69,165.85l.09.62v.1l.09.55v.17a3.337,3.337,0,0,0,.09.52,1.551,1.551,0,0,0,0,.21l.09.48.06.26a1.85,1.85,0,0,0,.1.44,2.29,2.29,0,0,0,.07.28,1.631,1.631,0,0,0,.11.42,2.809,2.809,0,0,0,.08.31,1.428,1.428,0,0,0,.11.39c.04.13.07.22.1.32l.12.38.12.33a.953.953,0,0,0,.13.34c.05.11.09.23.13.34l.14.33.15.34.14.3.18.34c0,.09.09.19.14.28l.2.34c.05.08.1.17.16.25s.15.23.23.35a1.7,1.7,0,0,0,.15.21,3.441,3.441,0,0,0,.28.36l.13.17a5,5,0,0,0,.44.48,7.211,7.211,0,0,0,.66.58h.06c.21.17.43.33.65.48l.25.15.49.31.33.18c.14.08.28.16.43.23l.41.19.37.17.48.18.32.12.54.18.26.08.59.15.21.06.67.13h.12l.71.1h.07l.74.07h0a10.75,10.75,0,0,0,2.59-.12c-.48.2-.89.63-.13,1.57C82,188.57,72.39,179.39,71.69,165.85Z" fill="#ff7557"/>
            <path id="Trazado_102212" data-name="Trazado 102212" d="M87.24,179.23h0a6.581,6.581,0,0,1-.67.15h0a6,6,0,0,0,.67-.15Z" fill="#ff7557"/>
          </g>
        </g>
        <g id="Grupo_54127" data-name="Grupo 54127">
          <g id="Grupo_54120" data-name="Grupo 54120">
            <path id="Trazado_102213" data-name="Trazado 102213" d="M200.34,471.29h0a1.64,1.64,0,0,0,1.51,2.28H348.18a13.41,13.41,0,0,0,9.19-3.51,13,13,0,0,0,4.17-9.57V430.2a13.38,13.38,0,0,0-2-7.19,13.11,13.11,0,0,0-11.06-6.09H201.9a1.65,1.65,0,0,0-1.53,2.26v.13a1.65,1.65,0,0,0,1.53,1h3s10.42,12.34,10.17,12.44-2.28,34-2.28,34L205,470.32h-3.1a1.63,1.63,0,0,0-1.56.97Z" fill="#c83737"/>
            <path id="Trazado_102214" data-name="Trazado 102214" d="M143,471.29h0a1.64,1.64,0,0,0,1.51,2.28H244.84a13.41,13.41,0,0,0,9.19-3.51,13,13,0,0,0,4.17-9.57V430.2a13.3,13.3,0,0,0-2-7.19,13.09,13.09,0,0,0-11.05-6.09H144.51a1.65,1.65,0,0,0-1.53,2.26l.05.13a1.65,1.65,0,0,0,1.53,1h3s10.42,12.34,10.17,12.44-2.28,34-2.28,34l-7.86,3.54h-3.1A1.63,1.63,0,0,0,143,471.29Z" fill="#fa5f70"/>
            <path id="Trazado_102215" data-name="Trazado 102215" d="M245.12,470.47H146.66l1.46-3.48a55.67,55.67,0,0,0,.4-42.3L146.66,420h98.46a10,10,0,0,1,10,10v30.49a10,10,0,0,1-10,10Z" fill="#fff"/>
            <g id="Grupo_54115" data-name="Grupo 54115">
              <rect id="Rectángulo_5382" data-name="Rectángulo 5382" width="54.22" height="3.51" rx="1.64" transform="translate(156.77 426.77)" fill="#9b6771"/>
            </g>
            <g id="Grupo_54116" data-name="Grupo 54116">
              <rect id="Rectángulo_5383" data-name="Rectángulo 5383" width="54.22" height="3.51" rx="1.64" transform="translate(167.11 442.8)" fill="#9b6771"/>
            </g>
            <g id="Grupo_54117" data-name="Grupo 54117">
              <rect id="Rectángulo_5384" data-name="Rectángulo 5384" width="13.49" height="3.51" rx="1.64" transform="translate(156.77 458.82)" fill="#9b6771"/>
            </g>
            <g id="Grupo_54118" data-name="Grupo 54118">
              <rect id="Rectángulo_5385" data-name="Rectángulo 5385" width="65.93" height="3.51" rx="1.64" transform="translate(177.97 458.82)" fill="#9b6771"/>
            </g>
            <g id="Grupo_54119" data-name="Grupo 54119">
              <rect id="Rectángulo_5386" data-name="Rectángulo 5386" width="21.68" height="3.51" rx="1.64" transform="translate(215.68 426.77)" fill="#9b6771"/>
            </g>
          </g>
          <g id="Grupo_54126" data-name="Grupo 54126">
            <rect id="Rectángulo_5387" data-name="Rectángulo 5387" width="96.65" height="47.19" transform="translate(207.079 368.969) rotate(-47.98)" fill="#f5cb78"/>
            <rect id="Rectángulo_5388" data-name="Rectángulo 5388" width="96.65" height="18.77" transform="translate(228.189 387.992) rotate(-47.98)" fill="#f5ae78"/>
            <rect id="Rectángulo_5389" data-name="Rectángulo 5389" width="78.46" height="59.7" transform="translate(208.52 358.018) rotate(-47.98)" fill="#7a3541"/>
            <g id="Grupo_54121" data-name="Grupo 54121">
              <path id="Trazado_102216" data-name="Trazado 102216" d="M293.85,329.27,280.8,343.74a48.08,48.08,0,0,1-64.88,6.05l-7.4,8.21,44.35,40,52.52-58.29Z" fill="#ffece8"/>
            </g>
            <rect id="Rectángulo_5390" data-name="Rectángulo 5390" width="44.35" height="7.39" transform="translate(264.287 385.317) rotate(-47.98)" fill="#f5cb78"/>
            <rect id="Rectángulo_5391" data-name="Rectángulo 5391" width="33.35" height="6.82" transform="translate(273.457 386.182) rotate(-47.98)" fill="#f5ae78"/>
            <path id="Trazado_102217" data-name="Trazado 102217" d="M297.68,369.45l-16,17.75,93,83.76a11.93,11.93,0,0,0,16.86-.88h0a11.94,11.94,0,0,0-.88-16.86Z" fill="#7a3541"/>
            <g id="Grupo_54122" data-name="Grupo 54122">
              <path id="Trazado_102218" data-name="Trazado 102218" d="M390.66,453.22l-.43-.39a12.129,12.129,0,0,1-.64,3.31,11.88,11.88,0,0,1-2.41,4.09h0a11.94,11.94,0,0,1-16.86.87l-85.67-77.18-2.95,3.28,93,83.76a11.93,11.93,0,0,0,16.86-.88h0a11.94,11.94,0,0,0-.88-16.86Z" fill="#ffece8"/>
            </g>
            <path id="Trazado_102219" data-name="Trazado 102219" d="M318.11,325.55h0a11.52,11.52,0,0,1-16.26.85L274.6,301.85a11.52,11.52,0,0,1-.85-16.26h0a11.51,11.51,0,0,1,16.26-.85l27.25,24.55a11.52,11.52,0,0,1,.85,16.26Z" fill="#7a3541"/>
            <path id="Trazado_102220" data-name="Trazado 102220" d="M239.82,412.45h0a11.52,11.52,0,0,1-16.26.85l-27.25-24.55a11.51,11.51,0,0,1-.84-16.26h0a11.5,11.5,0,0,1,16.26-.85L239,396.19a11.51,11.51,0,0,1,.85,16.26Z" fill="#7a3541"/>
            <g id="Grupo_54123" data-name="Grupo 54123">
              <rect id="Rectángulo_5392" data-name="Rectángulo 5392" width="36.39" height="9.95" rx="4.65" transform="translate(235.744 332.045) rotate(-47.98)" fill="#5a545c"/>
            </g>
            <g id="Grupo_54124" data-name="Grupo 54124">
              <rect id="Rectángulo_5393" data-name="Rectángulo 5393" width="8.24" height="42.93" rx="3.85" transform="translate(294.84 380.072) rotate(-48.5)" fill="#1e1c1f"/>
            </g>
            <g id="Grupo_54125" data-name="Grupo 54125">
              <path id="Trazado_102221" data-name="Trazado 102221" d="M345.26,419.28h0a4.13,4.13,0,0,1-5.82.35l-3.83-3.33a4.14,4.14,0,0,1-.36-5.82h0a4.13,4.13,0,0,1,5.82-.35l3.83,3.33A4.14,4.14,0,0,1,345.26,419.28Z" fill="#1e1c1f"/>
            </g>
          </g>
        </g>
      </g>
    </g>
  </g>
</svg>
