<svg xmlns="http://www.w3.org/2000/svg" width="500" height="500" viewBox="0 0 500 500">
  <g id="Grupo_55753" data-name="Grupo 55753" transform="translate(-834 -4763)">
    <g id="CF1_demogracia" transform="translate(834 4762.98)">
      <g id="Layer_1" data-name="Layer 1">
        <g id="Grupo_55709" data-name="Grupo 55709">
          <rect id="Rectángulo_5980" data-name="Rectángulo 5980" width="500" height="500" transform="translate(0 0.02)" fill="none"/>
          <circle id="Elipse_4214" data-name="Elipse 4214" cx="212.62" cy="212.62" r="212.62" transform="translate(48.9 47.6)" fill="#eceee1"/>
          <path id="Trazado_108316" data-name="Trazado 108316" d="M261.14,47.12A211.6,211.6,0,0,0,49.38,258.87a7.57,7.57,0,0,0,15.14,0A196.45,196.45,0,0,1,261.14,62.26a7.57,7.57,0,1,0,0-15.14Z" fill="#b1b2a8"/>
          <g id="Grupo_55708" data-name="Grupo 55708">
            <path id="Trazado_108317" data-name="Trazado 108317" d="M73.92,435.21a205.2,205.2,0,0,1-14.49-16.76C55.13,412.88,51.07,407,46.52,400a13.5,13.5,0,1,0-22.67,14.67c4.8,7.41,9.31,14,14.2,20.31a232.122,232.122,0,0,0,16.37,18.93,13.5,13.5,0,1,0,19.5-18.671Z" fill="#d5d9ba"/>
            <path id="Trazado_108318" data-name="Trazado 108318" d="M98.51,475.74c-3.93-3,3.76,3.21,0,0" fill="#996771"/>
            <path id="Trazado_108319" data-name="Trazado 108319" d="M84.23,478a12.55,12.55,0,0,0,.6,1.89,12.879,12.879,0,0,0,1,2c.27.43.48.73.65,1,.35.47.58.73.76.94.34.39.53.57.68.72s.41.39.53.5l.5.44.73.6,1.12.9.62.47c.14.1.28.21.61.43l.33.22c.22.13.47.3,1.07.61a12.928,12.928,0,0,0,1.46.64,13.356,13.356,0,0,0,1.55.47,14.7,14.7,0,0,0,1.62.28h1.55a12.537,12.537,0,0,0,1.84-.13,13.252,13.252,0,0,0,2.35-.54,14.209,14.209,0,0,0,2.48-1.1,13.57,13.57,0,0,0,5.7-6.37,13.13,13.13,0,0,0,1-3.35,12.858,12.858,0,0,0,.15-2,13.61,13.61,0,0,0-1.42-6,12.9,12.9,0,0,0-1-1.75c-.24-.35-.43-.58-.58-.77-.29-.35-.46-.54-.61-.7s-.41-.41-.53-.53-.33-.32-.46-.43l-.53-.47-.64-.55c-.09-.08-.19-.14-.29-.22l-.26-.22h0c-.45-.34-.77-.59-1.09-.82s-.32-.24-.63-.44c-.16-.11-.34-.24-.79-.5-.24-.14-.53-.31-1.17-.62a13.778,13.778,0,0,0-1.5-.58c-.2-.07-.42-.13-.68-.2h-.46l-.24-.05h-.71a11.854,11.854,0,0,0-1.23-.14H97a14.045,14.045,0,0,0-2.1.23,13.166,13.166,0,0,0-2.38.67,13.38,13.38,0,0,0-6.92,6,13.069,13.069,0,0,0-1.48,4.07,12.619,12.619,0,0,0-.24,2.52,13.12,13.12,0,0,0,.35,2.88ZM98.34,490.1ZM100.81,461.82ZM100.68,461.82ZM100.11,461.69Z" fill="#bd9aa0"/>
            <path id="Trazado_108320" data-name="Trazado 108320" d="M408.39,31.56A272.31,272.31,0,0,1,481,99.36" fill="#590212"/>
            <path id="Trazado_108321" data-name="Trazado 108321" d="M402.21,41.25a261,261,0,0,1,69.53,65,11.5,11.5,0,1,0,18.5-13.67,284.089,284.089,0,0,0-75.66-70.67A11.5,11.5,0,1,0,402.21,41.3Z" fill="#deccd0"/>
            <path id="Trazado_108322" data-name="Trazado 108322" d="M458.51,409.41c-2.73,3.57,2.91-3.41,0,0" fill="#996771"/>
            <path id="Trazado_108323" data-name="Trazado 108323" d="M462.13,428.43a17,17,0,0,0,2.61-.85,18.152,18.152,0,0,0,2.71-1.37c.59-.37,1-.65,1.32-.89.63-.47,1-.78,1.25-1,.52-.47.76-.71,1-.91.36-.36.51-.53.65-.68l.5-.58.62-.75.89-1.11c.15-.2.3-.38.53-.7l.22-.29c.06-.1.14-.2.23-.35s.17-.23.28-.41l.31-.5c.09-.15.21-.34.34-.59a18.8,18.8,0,0,0,.9-1.84,19.28,19.28,0,0,0,.74-2.15,17.748,17.748,0,0,0,.43-1.91,18.605,18.605,0,0,0-7.35-18.05,19.36,19.36,0,0,0-3.14-1.85,18.519,18.519,0,0,0-14.86-.3,17.2,17.2,0,0,0-2,1,16.754,16.754,0,0,0-1.91,1.23c-.4.29-.67.51-.9.7-.42.35-.66.58-.86.76l-.68.67c-.25.26-.38.41-.51.56l-.5.57c-.16.18-.34.38-.53.61s-.2.27-.31.4-.21.24-.31.37h0l-.83,1.1-.22.31-.22.31c-.06.09-.14.2-.23.35s-.16.24-.27.42-.18.29-.3.5-.2.35-.34.6a18.994,18.994,0,0,0-.84,1.84,18.28,18.28,0,0,0-1.32,6.85,18.332,18.332,0,0,0,.49,4.23,18.371,18.371,0,0,0,13,13.57,17.7,17.7,0,0,0,4,.67h1a18.45,18.45,0,0,0,4.41-.54Z" fill="#eef0e3"/>
            <path id="Trazado_108324" data-name="Trazado 108324" d="M55.27,128.1a247.451,247.451,0,0,1,61.56-65.91" fill="#590212"/>
            <path id="Trazado_108325" data-name="Trazado 108325" d="M62.44,132.67A238.8,238.8,0,0,1,121.88,69a8.5,8.5,0,1,0-10.1-13.671A255.91,255.91,0,0,0,48.1,123.53a8.5,8.5,0,0,0,14.34,9.14Z" fill="#f1cdcd"/>
          </g>
          <path id="Trazado_108326" data-name="Trazado 108326" d="M285.55,33a233.648,233.648,0,0,0-25.36-1.39,229.516,229.516,0,0,0-24.85,457.66,9.8,9.8,0,1,0,2.14-19.481A209.928,209.928,0,1,1,283.347,52.446,9.8,9.8,0,0,0,285.55,33Z" fill="#e6e8d6"/>
        </g>
        <g id="Grupo_55714" data-name="Grupo 55714">
          <g id="Grupo_55710" data-name="Grupo 55710">
            <path id="Trazado_108327" data-name="Trazado 108327" d="M329,254.31v1c-.53,5.67-5.29,9.8-9.89,13.8l-.9.78A104.631,104.631,0,0,0,303,286.29l-.65.87c-1.83,2.48-3.72,5-6.26,6.67-3.56,2.26-8.08,2.53-12.06,2.77a.77.77,0,0,0,0,1.54h0a37.08,37.08,0,0,0,9.44-1.44c-.41,15.51-.84,31.52-.87,47.43-8.57,1.93-17,4-25.33,6.11l-11.67,3c-15.93,4.07-32.16,8.21-48.55,11.54q.72-4.2,1.45-8.41c3.24-18.46,6.56-37.54,6.35-56.65.35.24.72.47,1.08.69,0,0,3.28,1.89,5,1.89a1.24,1.24,0,0,0,.68-.17,1,1,0,0,0,.43-1,.78.78,0,0,0-.87-.66.75.75,0,0,0-.48.27,19.769,19.769,0,0,1-3.95-1.67,20.386,20.386,0,0,1-2.06-1.42.74.74,0,0,0-.28-.21,20,20,0,0,1-2.28-2.15c-4.56-5-6.49-12.05-8.35-18.85-.54-2-1-3.8-1.61-5.61-3.29-10.49-6.18-20-8.37-29.67v-.09l3.16-1.14c.45.61.87,1.26,1.33,2,.33.53.7,1.1,1.14,1.76a18.92,18.92,0,0,0,14.1,7.09,14.366,14.366,0,0,0,1.48-.08,10.73,10.73,0,0,0,8.54-6,12.24,12.24,0,0,0,4.23,4.14A10.7,10.7,0,0,0,233,250h1.08a35.17,35.17,0,0,0,7.88,34.3.75.75,0,0,0,.56.24.77.77,0,0,0,.56-1.3,33.58,33.58,0,0,1-7.35-33.42l.72-.09a32.59,32.59,0,0,0,14-6,15.51,15.51,0,0,0,6,1.09,37.7,37.7,0,0,0,5.8-.55c4.1-.64,8.6-1.78,11.09-5.22a16.578,16.578,0,0,0,2.7,1.26,21.45,21.45,0,0,0,7.4,1,.72.72,0,0,0,.19.38c2.15,2.27,2.55,5.7,2.93,9l.06.57c.57,4.85,1.83,11.9,6.13,17.08a.767.767,0,0,0,1.18-.98c-4-4.87-5.23-11.63-5.78-16.28v-.36a32.869,32.869,0,0,0,4.79,8.51.36.36,0,0,0,.3.14.42.42,0,0,0,.24-.07.4.4,0,0,0,.06-.55,31.87,31.87,0,0,1-5.9-12.26.38.38,0,0,0-.15-.22l-.18-.74a28.171,28.171,0,0,0,10.71,10.92.461.461,0,0,0,.2.05.39.39,0,0,0,.33-.19.4.4,0,0,0-.15-.53,27.41,27.41,0,0,1-11.51-12.86,31.58,31.58,0,0,0,8.24,2.88,16,16,0,0,0,2.63.22,11.86,11.86,0,0,0,6.76-1.93.773.773,0,1,0-.88-1.27,11.23,11.23,0,0,1-8.25,1.47,32.86,32.86,0,0,1-8.43-3,1.509,1.509,0,0,0-.22-.11c7.65-.56,13-2.83,16.21-6.94a.76.76,0,0,0-.12-1.07.78.78,0,0,0-1.09.12c-3.19,4-8.72,6.16-16.87,6.45a.81.81,0,0,0-.46,0,21.391,21.391,0,0,1-7.81-.87,23.19,23.19,0,0,1-6-3.55,40.215,40.215,0,0,1-4.43-3.79,18.77,18.77,0,0,0,6,1.48,26,26,0,0,0,2.9.21,10.18,10.18,0,0,0,2.39-.26,5.7,5.7,0,0,0,4.16-3.33,7,7,0,0,0,.32-2.79c-.05-1.14-.22-2.3-.37-3.42-.4-2.8-.78-5.44.32-7.83a.46.46,0,0,0,0-.26,3.124,3.124,0,0,1,.32-.15.39.39,0,0,0,.19-.17c3.73-.41,7.43-1.09,11.08-1.77l1.84-.34a20,20,0,0,1,7.36-.39,11.8,11.8,0,0,1,5.49,2.92.76.76,0,0,0,.6.59,18,18,0,0,1,2.17,2.59,47.7,47.7,0,0,1,3.94,7.57c.33.74.67,1.48,1,2.22a86.417,86.417,0,0,0,6.44,11.5c.3.46.61.92.93,1.37l.17.25C326.18,245.54,329,249.74,329,254.31Zm-16.84,11.18a.39.39,0,0,0-.37-.41,14.94,14.94,0,0,1-10.06-4.63.39.39,0,0,0-.56.53,15.73,15.73,0,0,0,10.59,4.87h0a.38.38,0,0,0,.35-.36ZM298.3,272a.76.76,0,0,0-.24-1.06l-2.35-1.47a.75.75,0,0,0-1.06.24.78.78,0,0,0,.25,1.06l2.34,1.46a.7.7,0,0,0,.41.12A.76.76,0,0,0,298.3,272Zm-2.36-10.24a.39.39,0,0,0-.24-.49l-.76-.26a.39.39,0,1,0-.25.73l.76.26h.13a.38.38,0,0,0,.36-.2Zm-9.8,39.77a.39.39,0,0,0,.12-.53.38.38,0,0,0-.53-.12,2.57,2.57,0,0,1-3.1-.41.39.39,0,0,0-.54,0,.37.37,0,0,0,0,.54,3.28,3.28,0,0,0,2.4,1,3.17,3.17,0,0,0,1.65-.44Zm-.94,2.95a.38.38,0,0,0-.29-.46l-1.27-.29a.38.38,0,1,0-.17.74l1.28.3h.08a.37.37,0,0,0,.37-.25Zm-1.05-16.3a.39.39,0,0,0-.22-.49l-6.42-2.55a.39.39,0,0,0-.49.21.38.38,0,0,0,.22.5l6.41,2.55a.31.31,0,0,0,.13,0,.4.4,0,0,0,.37-.18Zm-3.3,2.71a.38.38,0,0,0-.33-.43,22.11,22.11,0,0,1-11.33-5.05.383.383,0,1,0-.5.58,22.79,22.79,0,0,0,11.73,5.23h.05a.38.38,0,0,0,.38-.29Zm-23.6,12a.4.4,0,0,0-.17-.52l-.77-.38a.39.39,0,0,0-.35.69l.77.38a.38.38,0,0,0,.17,0,.4.4,0,0,0,.35-.06Zm-1.17,2.72a.38.38,0,0,0-.13-.53L254,304a.39.39,0,0,0-.4.67l1.92,1.15a.35.35,0,0,0,.2.05.4.4,0,0,0,.36-.2Zm-.07,3.55a.39.39,0,0,0-.06-.54,24.518,24.518,0,0,0-3.81-2.5.385.385,0,0,0-.36.68,23.138,23.138,0,0,1,3.68,2.42.49.49,0,0,0,.25.08.41.41,0,0,0,.29-.08ZM249.58,282a.39.39,0,0,0-.26-.48,3,3,0,0,1-2.11-2.5.38.38,0,0,0-.42-.33.37.37,0,0,0-.34.42,3.79,3.79,0,0,0,2.66,3.15.2.2,0,0,0,.11,0,.38.38,0,0,0,.36-.26Zm-.82,3.69a.38.38,0,0,0-.17-.52,12.31,12.31,0,0,1-6.51-9.47.39.39,0,0,0-.43-.34.37.37,0,0,0-.33.42,13.08,13.08,0,0,0,6.93,10.08.33.33,0,0,0,.17,0,.37.37,0,0,0,.34-.15Zm-.17,4.27a.76.76,0,0,0-.3-1,6.73,6.73,0,0,1-2.47-2.36.773.773,0,1,0-1.31.82,8.42,8.42,0,0,0,3,2.89.77.77,0,0,0,1-.31Zm-2.39,12.43a.39.39,0,0,0-.77,0,115.49,115.49,0,0,1-4.71,28.71.4.4,0,0,0,.26.48h.11a.39.39,0,0,0,.37-.27,116.551,116.551,0,0,0,4.74-28.9Zm-11-5.17a.381.381,0,1,0-.6-.47,1.234,1.234,0,0,1-1.9-.2.38.38,0,1,0-.68.34,1.86,1.86,0,0,0,1.5,1h.23a1.8,1.8,0,0,0,1.42-.65Zm-3.88,2.6a.385.385,0,1,0-.01-.77,10.92,10.92,0,0,1-4.44-.9.39.39,0,1,0-.31.71,11.56,11.56,0,0,0,4.6,1Zm-15-23.12a.381.381,0,0,0-.66-.38,56,56,0,0,0-4.74,10.54.4.4,0,0,0,.25.49h.12a.37.37,0,0,0,.36-.26,55.128,55.128,0,0,1,4.62-10.37Zm-4.44,1.06a.383.383,0,1,0-.58-.5,12.23,12.23,0,0,0-2.61,5,.39.39,0,0,0,.28.47H209a.39.39,0,0,0,.38-.3,11.35,11.35,0,0,1,2.45-4.65Zm-3.52-3.22a.383.383,0,1,0-.74-.2l-.53,2.05a.38.38,0,0,0,.27.47h.1a.37.37,0,0,0,.37-.29Z" fill="#f1cdcd"/>
            <path id="Trazado_108328" data-name="Trazado 108328" d="M322.52,226.59a56.68,56.68,0,0,0,.17,10.95,82.642,82.642,0,0,1-5.41-9.85c-.26-.55-.5-1.1-.75-1.65C318.53,226.18,320.53,226.35,322.52,226.59Z" fill="#f1cdcd"/>
            <path id="Trazado_108329" data-name="Trazado 108329" d="M316.16,175.16a75.71,75.71,0,0,1,8.15,28.21q-7.31.06-14.36.3a14.69,14.69,0,0,0,3.84-3.33.785.785,0,0,0-1.21-1,15.53,15.53,0,0,1-6.2,4.41c-2.32.1-4.63.2-6.93.32a17.589,17.589,0,0,0,4.8-3.2.4.4,0,0,0,0-.55.39.39,0,0,0-.54,0,16.85,16.85,0,0,1-6.91,3.92l-3.08.19v-.89h.09a51.439,51.439,0,0,0,7.95-6.16,17.69,17.69,0,0,0,5.07-8.86.765.765,0,1,0-1.5-.3,16.23,16.23,0,0,1-4.66,8.08,44.35,44.35,0,0,1-6.56,5.18l.27-5.78c.11-2.28.23-4.87-.74-7.22a8.9,8.9,0,0,0-4.45-4.65.78.78,0,0,0-.85.15.75.75,0,0,0-.18.84A57.35,57.35,0,0,1,292,211.87h0c-6.84,1.26-13.88,2.43-20.75,1.56l-.57-.07a13.69,13.69,0,0,0-3.57-.15,6.61,6.61,0,0,0-2.67,1,84.7,84.7,0,0,1-4.78-30.55,12.83,12.83,0,0,1,.95-5.26,12.23,12.23,0,0,1,2.62-3.22,48,48,0,0,1,12.73-8.69.77.77,0,1,0-.65-1.39,49.589,49.589,0,0,0-13.14,9,13.5,13.5,0,0,0-2.94,3.66,14.13,14.13,0,0,0-1.11,5.9,86.131,86.131,0,0,0,5,31.57,9.441,9.441,0,0,0-1.24,1.48,10.83,10.83,0,0,0-1.38,8.6c1.12,4.06,4.14,7.22,7.32,9.81-4.91,2.38-9.7,4.39-14.48,3.3a.4.4,0,0,0-.46.29.39.39,0,0,0,.3.46,13,13,0,0,0,2.91.32c4.11,0,8.19-1.79,12.34-3.81h0q.57.45,1.14.87c.74.56,1.53,1.15,2.38,1.7-2.19,2.92-6.28,3.93-10,4.52-3.9.62-8,1-11.38-.59-4.62-2.13-7.09-7.28-9.08-12.52a227.919,227.919,0,0,1-8.71-28.46,28.47,28.47,0,0,1-1.08-9.12c.47-5.27,3.67-9.94,6.49-14.07a.74.74,0,0,0-.2-1.06.77.77,0,0,0-1.07.2c-2.78,4.06-6.24,9.13-6.76,14.79a30,30,0,0,0,1.12,9.61,231.126,231.126,0,0,0,8.77,28.66c1.95,5.11,4.36,10.16,8.75,12.76a31,31,0,0,1-12.66,5.3c-3.25.56-5.75.34-7.65-.69-2.15-1.16-3.59-3.36-4.88-5.53-5.09-8.54-9.51-18.18-14.34-31.27-1.67-4.53-3.18-9.33-1.73-13.66.91-2.75,2.87-4.92,4.94-7.22a31.7,31.7,0,0,0,4.25-5.44.77.77,0,0,0-.29-1,.76.76,0,0,0-1,.28,30.809,30.809,0,0,1-4,5.18c-2.09,2.32-4.25,4.71-5.27,7.77-1.6,4.8,0,9.89,1.75,14.67,4.86,13.18,9.32,22.91,14.46,31.53.1.15.19.31.29.47a.5.5,0,0,0-.1.14,9.36,9.36,0,0,1-7.67,5.78c-.38,0-.78.06-1.18.07a14.34,14.34,0,0,0,4.29-2.42.383.383,0,1,0-.49-.59,13.73,13.73,0,0,1-6.05,2.84,17.64,17.64,0,0,1-10.72-6.27c-.41-.61-.76-1.17-1.09-1.69a20.14,20.14,0,0,0-2.81-3.76,46,46,0,0,1-5-8.78.7.7,0,0,0,0-.43.81.81,0,0,0-.36-.43A77.378,77.378,0,0,1,187,210.11c0-5.86,3.66-11,7.51-16.35a33.27,33.27,0,0,0,7.8-13.24l.46-.79c2.1-3.55,4.28-7.22,8.83-7.22.92,0,1.83,0,2.75.06,3.66.12,7.45.25,10.71-1.7l.71-.44c7.56-4.54,15.38-9.24,24-5.67a.38.38,0,0,0,.15.05c4.51.9,8.82-1.22,12.1-3.19a11.07,11.07,0,0,0,2.65-2.82,9.75,9.75,0,0,1,3.35-3.25c4.59-1.83,7.67-1.86,10-.12,7.41,5.93,16.21,11.91,26.86,7.82,5.21-1.74,8.83,4.56,9.83,6.53a11,11,0,0,1,.7,2.49,11.648,11.648,0,0,0,.75,2.89Zm-8.27,22.77a.38.38,0,1,0-.49-.58l-1.53,1.28a.39.39,0,0,0,0,.55.37.37,0,0,0,.29.14.33.33,0,0,0,.24-.1Zm-26.12,11.32a.382.382,0,1,0-.46-.61,12.43,12.43,0,0,1-10,2.18.4.4,0,0,0-.46.29.39.39,0,0,0,.3.46,12.391,12.391,0,0,0,2.72.3A13.2,13.2,0,0,0,281.77,209.25Zm-.12-31.18a.39.39,0,0,0-.29-.46,28.22,28.22,0,0,0-18.76,2.18.38.38,0,0,0-.18.51.4.4,0,0,0,.34.22.34.34,0,0,0,.17-.05,27.5,27.5,0,0,1,18.26-2.11.4.4,0,0,0,.46-.29Zm-4.64-3a.38.38,0,0,0-.38-.39h-3.34a.39.39,0,0,0,0,.77h3.34a.38.38,0,0,0,.37-.38Zm-12.83,60.08a.39.39,0,0,0-.53-.57,6.63,6.63,0,0,1-4.45,1.81.39.39,0,0,0,0,.77h0a7.46,7.46,0,0,0,4.98-2.01Zm-16.06-46.72a.38.38,0,0,0-.2-.5,10.84,10.84,0,0,0-7.19-.13,31.32,31.32,0,0,0-6.47,3,.4.4,0,0,0-.15.53.42.42,0,0,0,.34.19.45.45,0,0,0,.19,0,31,31,0,0,1,6.31-3,10.12,10.12,0,0,1,6.67.11.38.38,0,0,0,.5-.2Zm-1.65,2.42a.39.39,0,1,0-.14-.76c-2.58.47-5.18,1-7.74,1.67a.39.39,0,0,0,.1.76h.1c2.53-.66,5.11-1.21,7.68-1.67Zm-1.27,49.68a.39.39,0,0,0,.11-.54.38.38,0,0,0-.54-.1,48.691,48.691,0,0,1-11.29,5.59.37.37,0,0,0-.23.48.38.38,0,0,0,.36.26h.13a49.74,49.74,0,0,0,11.46-5.69Zm-6.67,1.24a.385.385,0,1,0-.55-.54,4.86,4.86,0,0,1-3.15,1.33.39.39,0,0,0-.37.4.4.4,0,0,0,.39.37h0a5.65,5.65,0,0,0,3.68-1.56Zm-1.91-2.08a.39.39,0,0,0,.11-.53.38.38,0,0,0-.53-.11l-.77.52a.38.38,0,0,0,.21.7.33.33,0,0,0,.21-.07ZM226.21,197a.39.39,0,0,0-.43-.64,30,30,0,0,1-14.12,5,107.4,107.4,0,0,1,11.86-4.68.39.39,0,0,0-.1-.75,27.36,27.36,0,0,0-14.42,3.6.383.383,0,0,0,.37.67,26.61,26.61,0,0,1,11.51-3.42c-3.93,1.38-7.74,3.11-11.45,4.77a.387.387,0,0,0,.16.74h0A30.87,30.87,0,0,0,226.21,197Zm-10.1,48.38a.385.385,0,0,0-.34-.69l-3.08,1.51a.37.37,0,0,0-.18.51.39.39,0,0,0,.34.22.53.53,0,0,0,.17,0Zm-13.83-39.82a.384.384,0,1,0-.44-.63A22.16,22.16,0,0,1,191,208.69a87.415,87.415,0,0,1,8.65-3.82.386.386,0,0,0-.22-.74l-10,2.35a.4.4,0,0,0-.29.46.38.38,0,0,0,.47.28L194.9,206c-2,.87-3.88,1.8-5.76,2.8a.38.38,0,0,0-.2.43.39.39,0,0,0,.37.29h.23a22.88,22.88,0,0,0,12.74-3.93Z" fill="#f1cdcd"/>
            <path id="Trazado_108330" data-name="Trazado 108330" d="M292.22,189.06c.84,2,.73,4.43.63,6.55a59.09,59.09,0,0,0-2.43-9.13,7.16,7.16,0,0,1,1.8,2.58Z" fill="#f1cdcd"/>
            <path id="Trazado_108331" data-name="Trazado 108331" d="M281.16,226.82a6.661,6.661,0,0,1-.27,2.49,3.562,3.562,0,0,1-.42.76,13.26,13.26,0,0,0-.85-2.77c-.09-.23-.18-.45-.26-.68a12.36,12.36,0,0,1-.89-6.55,6.82,6.82,0,0,1,2.46-4.22c-.87,2.42-.51,5.05-.14,7.61C280.94,224.57,281.1,225.72,281.16,226.82Z" fill="#f4dab5"/>
            <path id="Trazado_108332" data-name="Trazado 108332" d="M279.78,230.75v.08a5.75,5.75,0,0,1-2.55,1.32,14.56,14.56,0,0,1-5,0c-2.77-.32-5.9-.82-7.87-2.85a9.14,9.14,0,0,1-1.92-3.28c-.56-1.49-1.3-4.36,0-6.67a.41.41,0,0,0,0-.4,7.781,7.781,0,0,1,.76-1.46,5.91,5.91,0,0,1,4.1-2.75,11.73,11.73,0,0,1,3.16.16l.59.07a46.882,46.882,0,0,0,9.62.12,7.46,7.46,0,0,0-2.92,4.82,13,13,0,0,0,.93,6.95c.08.23.17.46.26.69A9.851,9.851,0,0,1,279.78,230.75Z" fill="#f1cdcd"/>
          </g>
          <g id="Grupo_55711" data-name="Grupo 55711">
            <path id="Trazado_108333" data-name="Trazado 108333" d="M491.15,387.09a.77.77,0,0,0,.27.17,78.4,78.4,0,0,0-26.36,55.45c-10.72-10.4-43.89-27.5-55.73-31.39-11.15-3.66-24.16-7.7-37.6-9.45-31.85-4.13-63.48,4.8-94.08,13.44-17.75,5-36.11,10.2-54.41,12.82-36.94,5.31-74.38-.05-101.54-5.45a174.179,174.179,0,0,0-2.81-24.6,19,19,0,0,0,8.09,2.79h0a.39.39,0,0,0,0-.77,18.14,18.14,0,0,1-8.37-3.08c-.11-.6-.21-1.19-.33-1.77a16.17,16.17,0,0,0,6.31,2.69h.07a.389.389,0,0,0,.07-.77,15.34,15.34,0,0,1-6.7-3.08,163.491,163.491,0,0,0-10.34-32.18,25.752,25.752,0,0,0,5,3.26c16.47,8.57,35.63,8.47,50.48,7.43,10.35-.73,20.65-2.09,30.9-3.85a.76.76,0,0,0,.54.23h0a.73.73,0,0,0,.66-.44c20.54-3.59,40.83-8.77,60.67-13.85l11.66-3c26.79-6.77,55-13.34,83.74-15h.21c6.94-.4,13.92-.51,20.9-.27,12.35.44,27.29,3.65,42.61,8.69a.73.73,0,0,0,.5.16C444.6,354.89,474.77,371,491.15,387.09ZM368.67,371.5a.38.38,0,0,0-.13-.52L366,369.44a.39.39,0,0,0-.53.13.37.37,0,0,0,.13.52l2.56,1.54a.36.36,0,0,0,.2.06A.39.39,0,0,0,368.67,371.5Zm-1.62,6.25a.39.39,0,0,0,.06-.55,5.87,5.87,0,0,0-3.85-2.13.39.39,0,0,0-.43.34.38.38,0,0,0,.34.42,5.09,5.09,0,0,1,3.34,1.86.39.39,0,0,0,.3.14.43.43,0,0,0,.24-.08Zm.06,4.57a.38.38,0,0,0-.18-.51l-7-3.38a.37.37,0,0,0-.5.19.36.36,0,0,0,.17.5l7,3.38a.53.53,0,0,0,.17,0,.39.39,0,0,0,.34-.18Zm-119.34,7.12a.39.39,0,0,0,0-.54,3.17,3.17,0,0,0-2.42-1,.39.39,0,0,0-.38.39.4.4,0,0,0,.39.38,2.42,2.42,0,0,1,1.85.78.37.37,0,0,0,.28.13.4.4,0,0,0,.28-.14Zm-2.06,5.11a.38.38,0,0,0-.19-.51,7,7,0,0,0-3.24-.58.39.39,0,0,0-.37.4.38.38,0,0,0,.41.36,6.18,6.18,0,0,1,2.88.52h.16A.37.37,0,0,0,245.71,394.55Zm-123.19-1.88a.39.39,0,0,0-.25-.48,10.331,10.331,0,0,1-3-1.46.38.38,0,1,0-.44.62,11.449,11.449,0,0,0,3.19,1.58h.11a.39.39,0,0,0,.39-.26Z" fill="#1b75b8"/>
            <path id="Trazado_108334" data-name="Trazado 108334" d="M478.72,288.2a185.3,185.3,0,0,0,.47,56.76c-19.93-7.68-45.29-5-63.4-1.22-15.51-5.12-30.66-8.39-43.16-8.83-6.82-.24-13.62-.14-20.39.23a80.323,80.323,0,0,0-1-8.38,8.46,8.46,0,0,0,4.21,1.16h.36a.39.39,0,0,0,.37-.41.36.36,0,0,0-.4-.36,7.56,7.56,0,0,1-4.72-1.42c-.13-.65-.25-1.32-.39-2a10.381,10.381,0,0,0,2.69,1.33h.13a.38.38,0,0,0,.11-.75,9.53,9.53,0,0,1-3.18-1.75,97.369,97.369,0,0,0-8.37-23.4,13.09,13.09,0,0,0,3.3.41,31,31,0,0,0,6-.77c8.92-1.78,17.9-4,26.58-6.07,12.1-2.94,24.61-6,37.09-8C440.21,280.75,461,281.87,478.72,288.2Zm-35.84,21.66a.37.37,0,0,0,.09-.53,6,6,0,0,0-1.67-1.61.38.38,0,0,0-.53.11.37.37,0,0,0,.11.53,5.44,5.44,0,0,1,1.46,1.41.393.393,0,0,0,.54.09Zm-.77,3.07a.39.39,0,0,0,.05-.54,3.46,3.46,0,0,0-2.32-1.17.39.39,0,0,0-.41.36.38.38,0,0,0,.36.41,2.65,2.65,0,0,1,1.78.9.37.37,0,0,0,.3.13.33.33,0,0,0,.24-.09Zm-.22,2a.39.39,0,0,0,0-.54,8.81,8.81,0,0,0-3.22-1.89.39.39,0,0,0-.48.25.38.38,0,0,0,.24.48,8.16,8.16,0,0,1,2.93,1.72.39.39,0,0,0,.26.1.36.36,0,0,0,.27-.05ZM353,320.28a.4.4,0,0,0-.17-.52l-1.55-.76a.38.38,0,0,0-.51.17.39.39,0,0,0,.18.52l1.53.76a.38.38,0,0,0,.17,0A.37.37,0,0,0,353,320.28Z" fill="#1b75b8"/>
            <path id="Trazado_108335" data-name="Trazado 108335" d="M404.42,332c-6.86,1.35-13.87,2.43-20.76,3.9a188.747,188.747,0,0,1,32.13,7.82c18.11-3.75,43.47-6.46,63.4,1.22q-1.33-8.16-1.92-16.37C453.7,321.26,428,327.4,404.42,332Z" fill="#ba0505"/>
            <path id="Trazado_108336" data-name="Trazado 108336" d="M362.82,317.94a196,196,0,0,0,24.07-4.55c13.27-3.66,26.49-6.59,40.28-7.49,12.37-.8,24,.88,36.18,2.59,4.26.6,9.39,1.2,13.46,2.63.29-5.85,1.3-16.77,2.15-22.58-17.69-6.33-38.52-7.45-63.7-3.42-12.48,2-25,5-37.09,8-8.67,2.12-17.66,4.3-26.57,6.08a31.1,31.1,0,0,1-6,.76,13.211,13.211,0,0,1-3.31-.4c2.26,4.36,3,14.1,4.55,18.93a97.071,97.071,0,0,0,15.98-.55Z" fill="#edb20a"/>
            <path id="Trazado_108337" data-name="Trazado 108337" d="M412.14,225.2a200.64,200.64,0,0,1-.63,20.7c-.56,8.54-1.13,17.37-.3,26,.47,4.95.66,9.29-1.92,12.26-10.69,2-21.35,4.54-31.71,7.05-8.67,2.11-17.63,4.29-26.52,6.07l-2,.36a12.768,12.768,0,0,1,1.63-2.18.39.39,0,0,0-.56-.53,13.889,13.889,0,0,0-2,2.86,21,21,0,0,1-2.8.23,17.52,17.52,0,0,1,4.46-5.74.391.391,0,1,0-.5-.6,18.52,18.52,0,0,0-4.8,6.3,11.1,11.1,0,0,1-2.36-.4,2.33,2.33,0,0,1-1.37-.83c-.62-1,.71-2.53,1.32-3.14,8-8.06,17.24-15,26.18-21.79,3.65-2.75,7.43-5.6,11.07-8.49,10.84-8.59,24.27-20.45,31.85-36A20.847,20.847,0,0,0,412.14,225.2Zm-8.79,31.17a.38.38,0,0,0,.17-.52,2.35,2.35,0,0,0-1.53-1.22.4.4,0,0,0-.47.28.39.39,0,0,0,.29.47,1.63,1.63,0,0,1,1,.82.39.39,0,0,0,.34.21A.33.33,0,0,0,403.35,256.37Zm-.39,2.48a.38.38,0,0,0,.08-.54,3.59,3.59,0,0,0-2.38-1.38.4.4,0,0,0-.43.34.38.38,0,0,0,.34.42,2.83,2.83,0,0,1,1.85,1.08.4.4,0,0,0,.31.15.48.48,0,0,0,.27-.07Zm-50,31.52a.383.383,0,1,0-.5-.58l-.82.71a.38.38,0,0,0,0,.54.39.39,0,0,0,.29.13.38.38,0,0,0,.25-.09Z" fill="#1b75b8"/>
            <path id="Trazado_108338" data-name="Trazado 108338" d="M411.72,219.38c.13,2-.49,4.38-1.93,7.32-4.37,9-10.76,16.72-17.45,23.3l-1.44-2.83a.39.39,0,0,0-.52-.17.4.4,0,0,0-.16.53l1.54,3-1.64,1.58a12.091,12.091,0,0,0-1.74-3.27.39.39,0,0,0-.62.46,11.568,11.568,0,0,1,1.57,2.84.38.38,0,0,0,0,.49l.11.15-1,.9c-21.3-17.55-46.39-27.66-72.59-29.26-.66-1.45-1.36-2.91-2.14-4.34a22,22,0,0,1,6.64.93.25.25,0,0,0,.12,0,.382.382,0,0,0,.1-.75,22.74,22.74,0,0,0-7.29-1c-.33-.57-.68-1.13-1-1.67a14.412,14.412,0,0,0-1.28-1.65,71.4,71.4,0,0,1,20.31,3.72.69.69,0,0,0,.25,0,.78.78,0,0,0,.73-.52.77.77,0,0,0-.49-1,72.341,72.341,0,0,0-22.3-3.84,14.47,14.47,0,0,0-4.34-2.85,191.2,191.2,0,0,1,53.9,9.72.62.62,0,0,0,.23,0,.77.77,0,0,0,.25-1.49,193.19,193.19,0,0,0-65.7-9.89.5.5,0,0,0-.13,0c0-.6.07-1.21.09-1.82a142.321,142.321,0,0,1,38.44,1.71h.07a.37.37,0,0,0,.38-.31.39.39,0,0,0-.31-.45,143.539,143.539,0,0,0-38.55-1.73v-1.42a591.266,591.266,0,0,1,62.42-.55c15.33.61,31.67,1.84,47.27,6.56,3.13,1,6.21,2.19,7.57,4.81a6.44,6.44,0,0,1,.63,1.93h0Zm-11.4,6.74a.41.41,0,0,0,.11-.54l-.51-.77a.39.39,0,1,0-.65.43l.52.77a.37.37,0,0,0,.31.17.51.51,0,0,0,.22-.06Zm-1.52,3.57a.38.38,0,0,0,.06-.54l-1-1.28a.384.384,0,0,0-.6.48l1,1.28a.36.36,0,0,0,.3.14.43.43,0,0,0,.24-.08Zm-4.95,18.24a.39.39,0,0,0,.2-.51l-.76-1.79a.4.4,0,0,0-.51-.21.39.39,0,0,0-.2.51l.77,1.79a.38.38,0,0,0,.35.24Zm-55.87-38a.38.38,0,0,0-.38-.38H335a.38.38,0,0,0-.39.38.39.39,0,0,0,.39.39h2.56a.39.39,0,0,0,.44-.41Zm-1.12,11.79a.77.77,0,0,0,.74-.8.76.76,0,0,0-.8-.73,2.92,2.92,0,0,1-1.62-.43.77.77,0,0,0-1.05.27.76.76,0,0,0,.26,1.05,4.47,4.47,0,0,0,2.31.64Zm-11.71-.14a.38.38,0,0,0-.24-.49l-.77-.25a.384.384,0,0,0-.24.73l.77.25a.27.27,0,0,0,.12,0,.38.38,0,0,0,.36-.26Z" fill="#1b75b8"/>
            <path id="Trazado_108339" data-name="Trazado 108339" d="M306,210.1c6.51-.85,13.55.17,19.76.79,10.6,1.06,20.68,5.34,31.21,6.93,17.24,2.61,34,7.42,49,16.66.76-1.32,3.1-6.4,3.77-7.78,1.44-2.94,2.06-5.33,1.93-7.32l-.06-.6h0a6.44,6.44,0,0,0-.63-1.93c-1.36-2.62-4.44-3.86-7.57-4.81-15.6-4.72-31.94-5.95-47.27-6.56a591.277,591.277,0,0,0-62.42.55c0,.47,0,.95,0,1.42a143.541,143.541,0,0,1,38.55,1.73.39.39,0,0,1,.31.45.37.37,0,0,1-.38.31h-.07a142.319,142.319,0,0,0-38.44-1.71c0,.61-.05,1.22-.09,1.82a.5.5,0,0,1,.13,0Q299.91,209.86,306,210.1Zm93.38,14.6a.4.4,0,0,1,.54.11l.51.77a.41.41,0,0,1-.11.54.51.51,0,0,1-.22.06.37.37,0,0,1-.31-.17l-.52-.77a.4.4,0,0,1,.11-.54ZM335,209.53h2.56a.38.38,0,0,1,.38.38.39.39,0,0,1-.38.39H335a.39.39,0,0,1-.39-.39.38.38,0,0,1,.39-.38Z" fill="#edb20a"/>
            <path id="Trazado_108340" data-name="Trazado 108340" d="M375.42,234.16a213.338,213.338,0,0,0-24.54-6.91q-7.56-1.67-15.2-2.75a.77.77,0,0,1-.39.14h-.16a4.38,4.38,0,0,1-2-.49q-8.43-1.1-16.92-1.54a24.1,24.1,0,0,1,2.77.63.39.39,0,0,1,.25.48.37.37,0,0,1-.36.27h-.12a21.67,21.67,0,0,0-6.64-.93c.79,1.42,1.48,2.88,2.14,4.33,26.21,1.6,51.29,11.71,72.6,29.27l1-.9-.11-.15a.39.39,0,0,1,0-.5,11.052,11.052,0,0,0-1.57-2.83.39.39,0,0,1,.62-.46,11.89,11.89,0,0,1,1.74,3.26c.56-.52,1.1-1,1.65-1.57l-1.55-3a.39.39,0,0,1,.16-.52.4.4,0,0,1,.53.17l1.43,2.83c2.49-2.45,4.93-5.05,7.24-7.82a109.921,109.921,0,0,0-22.57-11.01Zm-51.83-9.67a.41.41,0,0,1-.37.27h-.12l-.77-.26a.384.384,0,0,1,.24-.73l.77.26A.37.37,0,0,1,323.59,224.49Zm68.69,26.37h-.15a.38.38,0,0,1-.35-.24l-.77-1.79a.39.39,0,0,1,.71-.3l.77,1.79a.4.4,0,0,1-.21.54Z" fill="#ba0505"/>
            <path id="Trazado_108341" data-name="Trazado 108341" d="M202.79,310.7a8.239,8.239,0,0,1,.07,1.48,7.87,7.87,0,0,0-3.51-1.95.41.41,0,0,0-.47.28.4.4,0,0,0,.29.47,7,7,0,0,1,3.61,2.23,2.9,2.9,0,0,1-.14.7c-.21.53-.4,1.07-.6,1.61-2.27,4.73-8.63,6.83-14.1,8.13l-55.86,13.27c-7,1.66-13.43,3.41-18.68,6.6a81.71,81.71,0,0,1-50.32-14.14c-2-1.36-4.19-3-5.21-5.34a15.587,15.587,0,0,1-.78-6.48v-.78a70.5,70.5,0,0,0-.44-8.53l3.65,1.14h.11a.38.38,0,0,0,.11-.75l-3.86-1.21h-.1c-.07-.57-.15-1.14-.23-1.72a4.44,4.44,0,0,0,2,.51,3.191,3.191,0,0,0,.54,0,.383.383,0,1,0-.09-.76,3.82,3.82,0,0,1-2.36-.49.42.42,0,0,0-.27-.05c-2-12.81-7.11-24.61-12.48-36.95-1.06-2.43-2.13-4.91-3.19-7.41,4.47,4.94,10.35,8.11,15.12,10.35,13.79,6.5,28.65,10,43.71,12.3h.06c9.27,1.43,18.61,2.41,27.84,3.38,20.53,2.15,41.75,4.38,61.26,11.38,4.33,1.54,7.76,3.1,10.45,5.67a12.69,12.69,0,0,1,3.49,5.59,9.75,9.75,0,0,0-4.12-2.34.383.383,0,1,0-.2.74A8.89,8.89,0,0,1,202.79,310.7Zm-.86,4.12a.39.39,0,0,0-.28-.47l-1-.26a.39.39,0,0,0-.47.28.4.4,0,0,0,.28.47l1,.26h.09a.37.37,0,0,0,.38-.28Zm-33.79-10.27a.4.4,0,0,0,.23-.5L167.6,302a.38.38,0,0,0-.5-.22.39.39,0,0,0-.22.49l.77,2.05a.36.36,0,0,0,.35.25Zm-1.5,1.52a.38.38,0,0,0,.09-.53,12.42,12.42,0,0,0-2-2.19.383.383,0,1,0-.5.58,12.449,12.449,0,0,1,1.91,2.06.39.39,0,0,0,.53.08ZM69.76,326v-1a.39.39,0,0,0-.77,0v1a.39.39,0,1,0,.77,0Zm-2.93-.13a.38.38,0,0,0,.37-.4l-.07-2a.39.39,0,0,0-.77,0l.07,2a.39.39,0,0,0,.39.37Zm-8.17-24a.38.38,0,0,0,.35-.42.39.39,0,0,0-.42-.34,2,2,0,0,1-1.28-.32.39.39,0,0,0-.53.11.37.37,0,0,0,.11.53,2.68,2.68,0,0,0,1.5.46Z" fill="#1b75b8"/>
            <path id="Trazado_108342" data-name="Trazado 108342" d="M491.15,387.09c-16.38-16.14-46.55-32.2-75.47-41.79a.73.73,0,0,1-.5-.16c-15.32-5-30.26-8.25-42.61-8.69-7-.24-14-.13-20.9.27h-.21c-28.73,1.66-56.95,8.23-83.74,15l-11.66,3c-19.84,5.08-40.13,10.26-60.67,13.85a.73.73,0,0,1-.66.44h0a.76.76,0,0,1-.54-.23c-10.25,1.76-20.55,3.12-30.9,3.85-14.85,1-34,1.14-50.48-7.43a25.749,25.749,0,0,1-5-3.26A226.281,226.281,0,0,1,117.56,389c18.07,7.12,39.42,7.21,58.15,5.89,27.2-1.92,53.88-9.43,80.66-14.2,14.41-2.57,25.47-4.74,39.74-8,13.83-3.16,27.56-7,41.57-9.3s28.08-3,42.17-1c13.62,1.92,27,4.91,39.57,10.37a230.252,230.252,0,0,1,34.88,19c5.7,3.77,11.21,7.8,16.58,12,1.59,1.24,3.2,2.48,4.8,3.74,4-6.35,10.1-15.29,15.74-20.24a.771.771,0,0,1-.27-.17Z" fill="#ffc203"/>
            <path id="Trazado_108343" data-name="Trazado 108343" d="M410.83,259.46c.1-4.55.39-9.1.68-13.56a200.623,200.623,0,0,0,.63-20.7,20.092,20.092,0,0,1-1,2.18c-7.58,15.55-21,27.41-31.85,36-3.64,2.89-7.42,5.74-11.07,8.49-8.94,6.75-18.19,13.73-26.18,21.79-.61.61-1.94,2.14-1.32,3.14a2.33,2.33,0,0,0,1.37.83,11.1,11.1,0,0,0,2.36.4,18.52,18.52,0,0,1,4.8-6.3.39.39,0,0,1,.5.6,17.521,17.521,0,0,0-4.46,5.74,21,21,0,0,0,2.8-.23,13.89,13.89,0,0,1,2-2.86.39.39,0,0,1,.56.53,12.772,12.772,0,0,0-1.63,2.18l2-.36c4-.81,8-1.7,12-2.62C377.08,280.54,396.29,273,410.83,259.46Zm-9.31-4.55a.4.4,0,0,1,.47-.28,2.35,2.35,0,0,1,1.53,1.22.38.38,0,0,1-.17.52.33.33,0,0,1-.17,0,.39.39,0,0,1-.34-.21,1.63,1.63,0,0,0-1-.82.39.39,0,0,1-.32-.43Zm-.86,2a3.59,3.59,0,0,1,2.38,1.38.38.38,0,0,1-.08.54.48.48,0,0,1-.23.07.4.4,0,0,1-.31-.15,2.83,2.83,0,0,0-1.85-1.08.38.38,0,0,1-.34-.42.4.4,0,0,1,.43-.32Zm-48.53,34.15a.38.38,0,0,1-.25.09.39.39,0,0,1-.29-.13.38.38,0,0,1,0-.54l.82-.71a.383.383,0,1,1,.5.58Z" fill="#ffc203"/>
            <path id="Trazado_108344" data-name="Trazado 108344" d="M198.88,310.51a.41.41,0,0,1,.47-.28,7.87,7.87,0,0,1,3.51,1.95,8.239,8.239,0,0,0-.07-1.48,8.89,8.89,0,0,0-4.64-3.1.383.383,0,1,1,.2-.74,9.75,9.75,0,0,1,4.12,2.34,12.69,12.69,0,0,0-3.49-5.59c-2.69-2.57-6.12-4.13-10.45-5.67-19.51-7-40.73-9.23-61.26-11.38-9.23-1-18.57-1.95-27.84-3.38h-.06c-15.06-2.31-29.92-5.8-43.71-12.3-4.77-2.24-10.65-5.41-15.12-10.35,1.06,2.5,2.13,5,3.19,7.41,3.49,8,6.56,22.28,9.05,30.28,1.28.66,2.59,1.27,3.93,1.8,5.64,2.22,11.87,3.31,17.85,4.16,13.51,1.91,27.15,2.66,40.66,4.73a366.71,366.71,0,0,1,41.52,8.48c10,2.75,19.33-.18,26.22,7.45l5-1.18c5.47-1.3,11.83-3.4,14.1-8.13.2-.54.39-1.08.6-1.61.06-.23.1-.47.14-.7a7,7,0,0,0-3.61-2.23.4.4,0,0,1-.31-.48Zm-32.24-4.44a.39.39,0,0,1-.53-.08,12.45,12.45,0,0,0-1.91-2.06.383.383,0,0,1,.5-.58,12.419,12.419,0,0,1,2,2.19A.38.38,0,0,1,166.64,306.07Zm1.5-1.52H168a.36.36,0,0,1-.35-.25l-.77-2.05a.384.384,0,1,1,.72-.27l.77,2.05a.4.4,0,0,1-.23.52Zm32,9.82a.39.39,0,0,1,.47-.28l1,.26a.39.39,0,0,1,.28.47.37.37,0,0,1-.37.29h-.09l-1-.26a.4.4,0,0,1-.27-.48Z" fill="#ffc203"/>
            <path id="Trazado_108345" data-name="Trazado 108345" d="M402.62,389.53a110.8,110.8,0,0,0-35.4-7.84h-.57l.28.14a.38.38,0,0,1,.18.51.39.39,0,0,1-.35.22.531.531,0,0,1-.17,0l-1.82-.88a172.379,172.379,0,0,0-33.55,2.69c-24.48,4.21-48.29,11.67-72.32,17.81-25.92,6.62-51.85,12.48-78.77,11.66a298.644,298.644,0,0,1-59.92-7.57q1.13,8.12,1.49,16.47c27.16,5.4,64.6,10.76,101.54,5.45,18.3-2.62,36.66-7.8,54.41-12.82,30.6-8.64,62.23-17.57,94.08-13.44,13.44,1.75,26.45,5.79,37.6,9.45,11.84,3.89,45,21,55.73,31.39a76.867,76.867,0,0,1,4-21.63C448.07,408.3,425.53,398.37,402.62,389.53Z" fill="#ba0505"/>
            <path id="Trazado_108346" data-name="Trazado 108346" d="M411.18,271.64l-.29.31c-6.28,6.14-14,10.66-21.28,15.46-.78.52-1.57,1-2.35,1.53,7.27-1.72,14.64-3.38,22-4.73,2.58-3,2.39-7.31,1.92-12.26Z" fill="#128807"/>
            <path id="Trazado_108347" data-name="Trazado 108347" d="M101.88,327.45c-15-2.89-31.66-7.06-44.92-15.7.1,1.65.16,3.33.14,5v.78c0,2.23-.08,4.52.78,6.48,1,2.33,3.23,4,5.21,5.34a81.71,81.71,0,0,0,50.32,14.14c5.25-3.19,11.66-4.94,18.68-6.6l9.61-2.29C128.45,332.08,115.12,330,101.88,327.45Zm-35-1.62h0a.39.39,0,0,1-.39-.37l-.07-2a.39.39,0,0,1,.77,0l.07,2a.38.38,0,0,1-.43.37Zm2.93.13a.39.39,0,1,1-.77,0v-1a.39.39,0,0,1,.77,0Z" fill="#ba0505"/>
            <path id="Trazado_108348" data-name="Trazado 108348" d="M195.64,238.38a3.717,3.717,0,0,1,.27.29c-30.68,10.93-89.36,35.24-96.77,42.91-14.78-2.3-29.34-5.75-42.83-12.1-4.54-2.14-10.13-5.14-14.4-9.74l.93-2.56a.383.383,0,0,0-.72-.26l-.79,2.17c-.29-.32-.56-.65-.83-1s-.43-.57-.64-.87a13.84,13.84,0,0,1,1.63-3.32.38.38,0,0,0-.11-.53.4.4,0,0,0-.54.1,15.4,15.4,0,0,0-1.52,3c-.3-.46-.59-.93-.85-1.41a12.33,12.33,0,0,1,2.49-4.4.38.38,0,0,0,0-.55.39.39,0,0,0-.53,0,13.07,13.07,0,0,0-2.42,4c-.07-.16-.16-.33-.24-.5-.32-.82-.65-1.64-1-2.47h0a16.87,16.87,0,0,1,0-11c3.65-9.86,16.08-12.86,25.12-14.26a327.707,327.707,0,0,1,60.43-3.72c7.85.25,15.83.78,23.53,1.3,14,.94,28.5,1.9,42.77,1.17h.06l.3.87a27.281,27.281,0,0,1-7.11,1.19.38.38,0,0,0-.38.39.4.4,0,0,0,.39.38h0a27.871,27.871,0,0,0,7.35-1.24c.21.59.44,1.18.67,1.77-15.5,5-32.16,5.72-48.28,6.43-9.26.41-18.82.84-28.12,2-7.54,1-15.1,2.52-22.41,4a.77.77,0,0,0,.15,1.52h.15c7.29-1.47,14.82-3,22.31-4,9.23-1.2,18.76-1.63,28-2,16.28-.73,33.08-1.48,48.82-6.55.3.68.6,1.34.93,2C175.26,235.93,159,240.86,143,246a.77.77,0,0,0,.24,1.5.66.66,0,0,0,.23,0c16.07-5.19,32.44-10.14,48.66-14.72.43.8.88,1.6,1.36,2.39-5.84,2.15-11.9,4.18-18.31,6.34-12.57,4.23-25.58,8.6-36.95,13.88a.77.77,0,0,0-.37,1,.76.76,0,0,0,.7.44.74.74,0,0,0,.32-.07c11.29-5.24,24.25-9.6,36.8-13.81,6.52-2.2,12.69-4.28,18.65-6.47.4.6.81,1.21,1.24,1.81Zm-17.21-11a.39.39,0,0,0,.12-.53.86.86,0,0,0-1.38,0,.39.39,0,0,0,.63.45.09.09,0,0,1,.1,0,.39.39,0,0,0,.33.18.41.41,0,0,0,.2-.06Zm-40.71,21.81a.78.78,0,0,0,.17-1.08.77.77,0,0,0-1.07-.18,7.23,7.23,0,0,1-3.72,1.36.77.77,0,0,0,.07,1.53h.05a8.91,8.91,0,0,0,4.5-1.59Zm-58.37,4.54a.39.39,0,0,0,.07-.54,1.8,1.8,0,0,0-2-.62.39.39,0,0,0,.25.73,1,1,0,0,1,1.1.35.37.37,0,0,0,.3.15.4.4,0,0,0,.28-.03Z" fill="#1b75b8"/>
            <path id="Trazado_108349" data-name="Trazado 108349" d="M195.56,238.29c-.43-.6-.84-1.21-1.24-1.81-6,2.19-12.13,4.27-18.65,6.47-12.55,4.21-25.51,8.57-36.8,13.81a.74.74,0,0,1-.32.07.76.76,0,0,1-.7-.44.77.77,0,0,1,.37-1c11.37-5.28,24.38-9.65,36.95-13.88,6.41-2.16,12.47-4.19,18.31-6.34-.43-.71-.83-1.43-1.23-2.16l-1.64.2c-15.73,4.47-31.58,9.26-47.15,14.29a.66.66,0,0,1-.23,0,.76.76,0,0,1-.73-.53.75.75,0,0,1,.08-.64,232.344,232.344,0,0,0-25.71,7.71c-11.21,4.27-22.08,8.9-32.44,15a81.718,81.718,0,0,1-12.6,6.45,188,188,0,0,0,27.31,6.11c7.41-7.67,66.09-32,96.77-42.91a3.714,3.714,0,0,0-.27-.29Zm-62.34,12.57h-.05a.77.77,0,0,1-.07-1.53,7.23,7.23,0,0,0,3.72-1.36.77.77,0,0,1,1.07.18.78.78,0,0,1-.17,1.08,8.91,8.91,0,0,1-4.5,1.63Z" fill="#147209"/>
            <path id="Trazado_108350" data-name="Trazado 108350" d="M41.91,259.74a86.937,86.937,0,0,0,11.57,9.18c0-1,3.92-7.07,4.38-7.89,9.34-16.35,33.29-21.46,55.82-23.09,21.73-1.57,43.18-3.54,64.62-7.05a106.141,106.141,0,0,0,11.58-2.95c-.23-.59-.46-1.18-.67-1.77a27.87,27.87,0,0,1-7.35,1.24h0a.4.4,0,0,1-.39-.38.38.38,0,0,1,.38-.39,27.28,27.28,0,0,0,7.11-1.19l-.3-.87h-.06c-14.27.73-28.76-.23-42.77-1.17-7.7-.52-15.68-1-23.53-1.3a327.708,327.708,0,0,0-60.43,3.72c-9,1.4-21.47,4.4-25.12,14.26a16.87,16.87,0,0,0,0,11h0c.31.83.64,1.65,1,2.47.08.17.17.34.24.5a13.07,13.07,0,0,1,2.42-4,.39.39,0,0,1,.53,0,.38.38,0,0,1,0,.55,12.33,12.33,0,0,0-2.49,4.4,12.845,12.845,0,0,0,.85,1.41,15.4,15.4,0,0,1,1.52-3,.4.4,0,0,1,.54-.1.38.38,0,0,1,.11.53,13.839,13.839,0,0,0-1.63,3.32c.21.3.42.59.64.87s.54.67.83,1l.79-2.17a.383.383,0,0,1,.72.26Zm135.26-32.89a.86.86,0,0,1,1.38,0,.39.39,0,0,1-.12.53.41.41,0,0,1-.2.06.39.39,0,0,1-.33-.18.09.09,0,0,0-.1,0,.39.39,0,0,1-.63-.45Z" fill="#edb20a"/>
            <path id="Trazado_108351" data-name="Trazado 108351" d="M188.29,325.14c4.24-1,9-2.48,12.22-5.24a141.08,141.08,0,0,0-6.6,47.34,309.818,309.818,0,0,1-30.76,3.83c-14.64,1-33.53,1.14-49.65-7.25-.56-.29-1.14-.6-1.73-.95l1.22-2.14a.39.39,0,1,0-.67-.38l-1.2,2.12c-.53-.34-1.06-.7-1.58-1.09a2.61,2.61,0,0,1,1.23-2.13.38.38,0,0,0,.13-.53.39.39,0,0,0-.53-.13,3.4,3.4,0,0,0-1.54,2.22,11.631,11.631,0,0,1-1.19-1.14,9.86,9.86,0,0,1,2.25-5.28.38.38,0,0,0,0-.54.39.39,0,0,0-.54,0,10.74,10.74,0,0,0-2.34,5,9.821,9.821,0,0,1-1.23-2,1.209,1.209,0,0,0-.2-.26c-.3-2.79,1.55-5.45,2.76-6.84,5.62-6.54,14.26-9,24.14-11.36Zm3.65,6.53a.38.38,0,1,0-.56-.51,2.69,2.69,0,0,1-2.53.79.4.4,0,0,0-.46.29.39.39,0,0,0,.3.46,2.811,2.811,0,0,0,.71.08,3.45,3.45,0,0,0,2.54-1.11Zm.27,2.75a.38.38,0,0,0-.38-.39h-.51a.39.39,0,0,0,0,.77h.51a.38.38,0,0,0,.38-.38ZM174,351.64a.38.38,0,0,0-.23-.49l-1.3-.47a.383.383,0,1,0-.26.72l1.3.47a.27.27,0,0,0,.13,0A.38.38,0,0,0,174,351.64Zm-.1,3a.37.37,0,0,0-.06-.54,7.34,7.34,0,0,0-4-1.56.386.386,0,1,0-.05.77,6.5,6.5,0,0,1,3.6,1.39.37.37,0,0,0,.24.08.36.36,0,0,0,.3-.13Z" fill="#efeeed"/>
            <path id="Trazado_108352" data-name="Trazado 108352" d="M194,357.59c-7.45,3.21-16,4.47-24.17,5.54-6,.79-12.34,1.41-18,3.66a83.479,83.479,0,0,0-8.91,4.52,148.454,148.454,0,0,0,20.26-.24,309.809,309.809,0,0,0,30.76-3.83C193.81,364,193.83,360.81,194,357.59Z" fill="#147209"/>
            <path id="Trazado_108353" data-name="Trazado 108353" d="M152.69,349.46c14-2.86,30.55-3.15,43.15-10.39a133.494,133.494,0,0,1,4.67-19.17c-3.25,2.76-8,4.24-12.22,5.24l-55.85,13.27c-9.88,2.35-18.52,4.82-24.14,11.36-1.21,1.39-3.06,4.05-2.76,6.84a1,1,0,0,1,.2.26,9.82,9.82,0,0,0,1.23,2,10.74,10.74,0,0,1,2.34-5,.39.39,0,0,1,.54,0,.38.38,0,0,1,0,.54,9.86,9.86,0,0,0-2.25,5.28,11.634,11.634,0,0,0,1.19,1.14,3.4,3.4,0,0,1,1.54-2.22.39.39,0,0,1,.53.13.38.38,0,0,1-.13.53,2.61,2.61,0,0,0-1.23,2.13,16.33,16.33,0,0,0,1.58,1.09l1.2-2.12a.39.39,0,1,1,.67.38l-1.22,2.14c.59.35,1.17.66,1.73.95a57.937,57.937,0,0,0,6.2,2.78C127.35,356.49,140,352.05,152.69,349.46Zm39.52-15a.38.38,0,0,1-.38.38h-.51a.39.39,0,0,1,0-.77h.51a.38.38,0,0,1,.38.35Zm-3.82-2.18a.4.4,0,0,1,.46-.29,2.69,2.69,0,0,0,2.53-.79.38.38,0,1,1,.56.51,3.45,3.45,0,0,1-2.54,1.11,2.81,2.81,0,0,1-.71-.08.39.39,0,0,1-.3-.5Z" fill="#dd7e28"/>
          </g>
          <g id="Grupo_55712" data-name="Grupo 55712">
            <path id="Trazado_108354" data-name="Trazado 108354" d="M330.31,224.67c4.76.72,9.52,1.18,14.28,1.82,9,1.2,18.19,2.5,27.23,3,.07,0,.07-.1,0-.13-9-3.65-18.62-6.08-27.89-8.94-4.56-1.41-9.13-2.59-13.77-3.68-2.18-.52-4.53-1.27-6.89-1.87-1.62-.86-3.29-1.65-5-2.39,6.45.92,12.63,2.9,19.06,4.38,7.89,1.82,15.82,4.15,23.84,5.28,8.53,1.21,17,2.65,25.52,4,.36.06.67-.46.27-.65-16.14-7.39-32.78-13.4-50.34-16.3-8.23-1.35-16.8-1-25.13-1.28a96.936,96.936,0,0,0-13,.15,12.71,12.71,0,0,0-5.5,1.38,1.421,1.421,0,0,1,0-.16c.22-1-.58-3.07-.2-4.37a1.64,1.64,0,0,0,1.33.27,1.76,1.76,0,0,0,.95-.58,2.7,2.7,0,0,0,.59.09c4.59.11,9.14-.22,13.71-.51,2.71-.18,5.81,0,8.51-.72,1.31.81,3.58-.25,3.06-2.2-1.62-6.06-3.6-12-5-18.11-.85-3.88-1.81-8-5.13-10.55-2.82-2.14-6.46-2.68-9.25-.27-1.83,1.57-2.66,3.83-5,4.81-2.14.88-4.27,0-6.36.68-3.68,1.28-3.91,4.88-3.5,8.18.75,6,.75,13.4-5.08,17-4.62,2.83-11.71,3.31-16.31.2-3.91-2.64-5.28-7-6.14-11.45a25.164,25.164,0,0,1-.18-3,64.437,64.437,0,0,1,1.06-8.41,22.586,22.586,0,0,0,.2-3.15,1,1,0,0,0,.67-.34,66.718,66.718,0,0,1,6.48-6.76,51.69,51.69,0,0,1,5.29-3.58H273l-.38.15c-1.12.82-2.26,1.6-3.41,2.36v.07c2.1-1.09,8.28-2.47,8.36-5.53.06-2.71-2.92-3.51-5-3.26-2.59.32-5.17,1.67-7.56,2.64a27.379,27.379,0,0,0-5.42,2.55c-3.86,2.7-3.2,6.09-2.93,10.25.35,5.19-1.63,10.13-1,15.34.73,5.49,2.79,11.35-.2,16.54a11.78,11.78,0,0,1-13.18,5.78c-4.74-1.31-6.65-5.39-9.46-8.9a.54.54,0,0,0-.68-.14,48.084,48.084,0,0,1-1.73-8.05,14.79,14.79,0,0,1,1.77-9.17,18.153,18.153,0,0,0,2.51-5.21c1.95-2.42,5-6,4-8.5s-4.05-1.54-5.28.18a6.74,6.74,0,0,0-1,3.33c-.28,2.7-.28,4.78-1.53,7.34a29.3,29.3,0,0,0-3.39,12.85c-.11,5.16,1.68,10.17,3.12,15.06.79,2.71,2.08,6.11,1.77,9s-2.48,4.56-4.91,5.95c-1.63.93-2.61,1.54-4.51,1.09a9.28,9.28,0,0,1-4.22-2.3,22.85,22.85,0,0,1-4.65-5.44A92.52,92.52,0,0,1,207.42,207a.35.35,0,0,0-.34-.2c-1.24-3.66-1.83-7.53,0-11.15a22,22,0,0,1,3.61-4.7.781.781,0,0,0,.21-.16c1.94-2.06,5.25-4.43,5.87-7.35a3.17,3.17,0,0,0-2.42-4c-2.06-.32-3.6,1.39-4.12,3.21-.83,2.88-.2,6-1.68,8.65a19.09,19.09,0,0,0-4.08,4.24,20,20,0,0,0-2.79,12.49c.56,5.37,3.11,10.57,5.32,15.42,1,2.22,2,5,3.25,7.46-4.84,2.19-12-1.12-15.16-4.52-4.38-4.67-5.86-10.95-8-16.76a.17.17,0,0,0-.32.09c.11.81.24,1.61.39,2.42a.18.18,0,0,0-.06.14,44.25,44.25,0,0,0,2.16,12,.63.63,0,0,0-.24,0H189c-1.91-.45-4.33.32-6.05.83a1.721,1.721,0,0,0-.49.24,52.158,52.158,0,0,0-7.72,1.13c-4.53.81-9.08,1.46-13.64,2-9.32,1.12-18.66,2.11-28,3.31-8.84,1.14-17.6,2.91-26.3,4.8-4.41,1-8.8,2-13.15,3.24-2.3.65-4.58,1.34-6.86,2-2.07.65-5.38,2.51-7.54,1.69-.1,0-.14.1-.07.15,2.4,1.62,5.46.23,8-.29a144.171,144.171,0,0,1,15.9-2.26c9.75-.9,19.49-.83,29.26-1.14,6.15-.19,12.31-.48,18.45-.95-1.35.63-2.71,1.25-4.11,1.8-15.68,6.2-31.3,12.41-46.71,19.28-.06,0,0,.13,0,.11,16.06-4.76,32.31-8.56,48.67-12.09,1.28-.28,2.52-.62,3.76-1-2.75,1.35-5.5,2.7-8.23,4.08-5.14,2.59-9.82,6.32-15.08,8.6-.11.05,0,.24.07.24,5.19-.23,9.65-3.2,14.45-4.91,5.39-1.92,10.92-3.25,16.44-4.71a103.509,103.509,0,0,0,15.7-5.48c5-2.27,10.23-5.07,15.81-5.59a4.94,4.94,0,0,0,3.78-2.2,31.833,31.833,0,0,0,1.93,2.6,1.14,1.14,0,0,0-.25.06,1,1,0,0,0-.38-.08,4.219,4.219,0,0,0-1.17.21,1.27,1.27,0,0,0-.49-.13,1.78,1.78,0,0,0-1.79,1,1.14,1.14,0,0,0,.48,1.58,5.252,5.252,0,0,0,0,.8v.32a8.16,8.16,0,0,0,1,4.07c.18.58.35,1.1.48,1.53a.62.62,0,0,0,.69.49c2.58,4.36,7.75,7,12.18,9.14,6.51,3.1,14.07,5.34,19,10.93.32.36.62.74.91,1.12,1,2.3,2.31,4.48,2.65,7.09.36,2.78-.46,4.73-1.06,7.31-.4,1.79-.35,3.93-1.39,5.5-2.24,3.34-9,2.66-12.38,1.74a14.44,14.44,0,0,1-10.22-9.26h-.08a14.35,14.35,0,0,0,4.57,10.1c1.21,3.31,4,6.05,6.77,8.14a41.57,41.57,0,0,0,5.28,3.68c2.05,1.11,4.32,2,5.82,3.83,3.53,4.4,6,9.31,6.21,15a93.583,93.583,0,0,1-.51,11.08,10.73,10.73,0,0,0-.15,2.24c-.07,1.23-.13,2.45-.13,3.67a.62.62,0,0,0,.62.62,2.18,2.18,0,0,0,1.9-1.12v.76a67.465,67.465,0,0,0,1.16,6.87,40.572,40.572,0,0,1,.35,8c-.12,3,4.21,2.83,4.54,0a48.179,48.179,0,0,1,2.41-10.11,38.811,38.811,0,0,0,1.78-10c.48-6.27.24-12.78,1.09-19,.4-2.92,1-5.83,1.43-8.76,1.13-.33,2,.63,2.74,2.06.06.55.13,1.11.22,1.67.88,5.67,2,11.18,2.07,16.95a.065.065,0,0,0,.13,0c.83-5.59,2.53-10.84,4-16.27,1.32-4.74,1.49-9.82,1.77-14.75.62.17,1.22.3,1.71.42A100.5,100.5,0,0,0,274,300c.62.07,1.25.1,1.87.12l2.92,1.51c1.71.91,3.36,2,5.14,2.79.57,5.28,1.24,10.56,1.37,15.86.1,4.26.11,8.53.11,12.79s-.43,8.66.32,12.84c0,.23.4.21.45,0s.05-.3.08-.45a.94.94,0,0,0,1.37.27,3.11,3.11,0,0,0,1.85.31c4.8-.46,3.93-7.19,3.95-10.36q.09-10.75.16-21.5c0-3.57-.09-7.17.1-10.74a79.435,79.435,0,0,0,.52-8.42,20.76,20.76,0,0,0,3.9-2.57c6.21-5.34,11.47-12.17,17.08-18.13,4.7-5,11.15-10.09,13.68-16.61,2.65-6.88-2.24-11.15-5.13-16.88a.28.28,0,0,0-.34-.14l-1.45-3c.53.34,1.46.07,1.37-.69a15.161,15.161,0,0,0-.43-2.34,1.381,1.381,0,0,0,0-.5l-.15-.92h0c.12-1.45.23-2.9.28-4.35a3.21,3.21,0,0,0-.5-2.05.92.92,0,0,0-.81-1.12l-1.78-.3c-.34-.87-.69-1.74-1.05-2.6C322.62,222.94,326.79,224.14,330.31,224.67Zm-73.13,59.79a21.471,21.471,0,0,1-1.14-2c-1.17-12.63,7.63-22,19-26.57,1.71-.68,3-1.23,4.63-.16a10,10,0,0,1,3,3.6c1.13,2.26,1.87,4.57,3.18,6.75,3.64,6.08-2.51,11.07-7.21,14.33a35.71,35.71,0,0,1-14.77,6.16C261.08,286.94,258.85,286.92,257.18,284.46Zm42.41-10.79a10.34,10.34,0,0,0,3.16.36,8.64,8.64,0,0,1-4.39,1.33c-2.7,0-4.94-1.86-6.34-4-.11-.16-.25-.4-.42-.7a10.048,10.048,0,0,0-.18-1.73,13.109,13.109,0,0,0,5.08,3.62,22.6,22.6,0,0,0,3.09,1.12Zm-8.43.34.29.42-.33-.29a.651.651,0,0,0,.04-.14Zm-5-18.52ZM295,260.7l.72.64a20.458,20.458,0,0,0,4.28,3.73,35.34,35.34,0,0,0,6.6,3.76,10.63,10.63,0,0,1-6.6,0l-1-.4a19.46,19.46,0,0,1-6.39-10.14C293.37,259.1,294.18,259.92,295,260.7Zm31.28-9.22v.02ZM191.36,224.57a1.543,1.543,0,0,0-.08-.19Zm131.15,27.2a15,15,0,0,1-8.16,9.58,5.459,5.459,0,0,1-2,.4c-8.64-1.58-13.89-10.78-20.52-17.12a22,22,0,0,0,8.57,1.74c5.44-.1,9.87-2.59,11.38-8.05a.73.73,0,0,0-.88-.88c-2.5.62-5,.54-7.48,1-1.26.23-2.47.41-3.69.52a19.58,19.58,0,0,0,6.94-5.13,7.11,7.11,0,0,0,1.79-3.28c0-.08,0-2.4.21-1.31a2.23,2.23,0,0,0-1.26-1.93c-1.79-1.16-3.69-.5-5.3.61-2.84,2-5,4.06-8.41,5.2a33.1,33.1,0,0,1-20.34-.18c-7.24-2.6-12.73-8.89-10.58-16.47.16-.18.31-.36.49-.53,2.32-2.32,3.92-1.67,6.85-1.54a77.87,77.87,0,0,0,13.47-.9c2.32-.3,5.37-.32,7.49-1.64a.7.7,0,0,0,.06.19,1.43,1.43,0,0,0,1.74.61c2.7.34,5.88-.4,8.49-.54L304,212c1.5,1.63,3.6,2.24,5.45,3.6,1,.76,1.87,1.79,2.82,2.63a4.24,4.24,0,0,0,2.51,4.42,31.907,31.907,0,0,0,1.6,2.85,1,1,0,0,0,.25,1.41v.33a2.1,2.1,0,0,0,.1.81,49.631,49.631,0,0,0,2.47,9.77C320.76,242.31,323.73,246.86,322.51,251.77Z" fill="#ccc"/>
            <path id="Trazado_108355" data-name="Trazado 108355" d="M381.19,247.61a.85.85,0,0,0,.13,1l.48.49a1.65,1.65,0,0,0,1.37.45,33.56,33.56,0,0,0,4.38,4.29,1.47,1.47,0,0,0,2,0,85.628,85.628,0,0,0,12.3-13.54,10.672,10.672,0,0,0,.79-1l.81-1.1a96.9,96.9,0,0,0,5.64-8.68c1.33-2.31,3.34-4.78,2.95-7.53a.33.33,0,0,0-.38-.23,11.39,11.39,0,0,0,.23-5.81.212.212,0,1,0-.42.05c-.05,8.26-8,14.83-13.82,19.87a103.389,103.389,0,0,1-9.32,7.08C386.15,244.43,382.74,245.47,381.19,247.61Z" fill="#ccc"/>
            <path id="Trazado_108356" data-name="Trazado 108356" d="M434.34,340.43a31.408,31.408,0,0,0-7.21-2.56c-5.34-2.7-11.91-3.59-17.77-4.43a159.848,159.848,0,0,0-18.56-1.3c-6.69-.16-13.36-.57-20,.23-4.66.55-9.9.92-14.66,2.05v-.16a1.471,1.471,0,0,0,.38-.11c3.87-1.58,4.61-4.23,4.3-8.31a38.43,38.43,0,0,0-3-12.3c-2.17-5.07-6.46-11.86-12-14.76a27.518,27.518,0,0,0,5.24-.82c5.75-1.15,11.5-2.44,17.22-3.76,9.05-2.08,18.09-4.47,27-7.12a50.8,50.8,0,0,0,6.72-.94c2.65-.36,5.91-.38,8.07-2.17,2.32-1.94,3.26-6.33,2.08-9.37a4,4,0,0,0-.32-2.06,1.319,1.319,0,0,0-.16-.25,1.28,1.28,0,0,0-1.73-1.73A300.836,300.836,0,0,1,376.33,287a158.481,158.481,0,0,1-16.84,5.65c-2.52.68-5.06,1.27-7.61,1.8l1.15-1.08c1.47-1.33,3.24-2.59,3.1-4.8a.84.84,0,0,0-.82-.81c-2.2-.15-3.47,1.62-4.81,3.08s-2.81,2.81-3.33,4.62c-2.23.38-4.49.4-6-1.26a.42.42,0,0,0-.7.19c-.47,1.69.16,2.63,1.28,3.11a.54.54,0,0,0-.32.76,15.16,15.16,0,0,0,1.29,2.23c1.68,5.35,4.18,10.42,5.84,15.79.2.69.41,1.37.6,2.05.46,2.23.95,4.45,1.37,6.69.47,2.48.37,6.2,1.56,8.76a3.15,3.15,0,0,0-.24,1.16,1.1,1.1,0,0,0,.23.76h-.13a.28.28,0,0,0,.07.54c6.1.81,12.67-.67,18.79-1.06,1.1-.08,2.21-.11,3.32-.14,4,.87,8.22,1.34,12.27,2.15,5.06,1,10,2.33,15,3.64,4.33,1.14,8.85,2.72,13.29,3.34a6.62,6.62,0,0,0,4.06-.65,1,1,0,0,0,.69.28,14.43,14.43,0,0,0,6-1.06,1.55,1.55,0,0,0,.22-.12,2.41,2.41,0,0,0,2.12-.65,16.172,16.172,0,0,0,2.86-.1l3.27.11C434.71,342,435.11,340.77,434.34,340.43Z" fill="#ccc"/>
            <path id="Trazado_108357" data-name="Trazado 108357" d="M110.25,274.11a32,32,0,0,0-5.51-.76c-5.4-2.51-11.08-3.13-17.22-3.77a169.868,169.868,0,0,1-20.94-3.06c-12.68-3-28.29-9.49-31.11-23.82h0a17.24,17.24,0,0,0,1,7.35C38,263.17,52.75,269,63.56,273.18a156.917,156.917,0,0,0,22.19,7c3.78.87,7.89,1.84,11.69,1.32a2.8,2.8,0,0,0,.74.63,1.67,1.67,0,0,0,1.66,0,86,86,0,0,0,10.62-6.36.92.92,0,0,0-.21-1.66Z" fill="#ccc"/>
            <path id="Trazado_108358" data-name="Trazado 108358" d="M202.74,308.08a.33.33,0,0,0-.42-.26,8.1,8.1,0,0,0-1.27-3.26c-.08-.14-.33-.05-.27.11,4.91,12-13.35,14.78-20.88,16.82l-4.08,1.11c-5.38.94-10.75,2-16.11,3.07-3,.29-6.05.48-9.07.76a142.136,142.136,0,0,0-27.29,5,106.8,106.8,0,0,0-12.26,4.45c-3.68,1.61-7.74,3.26-10.18,6.59a1.45,1.45,0,0,0,.23,1.77l.2.17a1.43,1.43,0,0,0,2.18-.28l.08-.13.09-.06a1.37,1.37,0,0,0,.7.27c4.28.41,10.4.11,13.82-3,5-.74,9.9-3.31,14.89-4.2,7.38-1.33,14.77-2.36,22.1-4q10.67-2.35,21.2-5.28l1.12-.3a79.932,79.932,0,0,0,14.67-4,23.831,23.831,0,0,0,3.4-1.68c1.13.24,2.32-.57,3.13-1.36,1-.94,2.27-2.17,2.35-3.58a10.31,10.31,0,0,0,1.67-8.73Z" fill="#ccc"/>
            <path id="Trazado_108359" data-name="Trazado 108359" d="M195.15,357.72a1.22,1.22,0,0,0-2-1.17,1.91,1.91,0,0,0-1.27-.12,221.809,221.809,0,0,1-44.7,6.15,183.76,183.76,0,0,1-21.51-.4c-5.78-.53-18-.82-20.32-7.47a.15.15,0,0,0-.29,0,5,5,0,0,0,1.63,4.39.22.22,0,0,0,.08.15c10.09,9.29,25.08,12.79,38.43,13.37,7.77.34,15.59-.73,23.32-1.38l11.87-1c3.81-.32,8.14,0,11.61-1.75a2,2,0,0,0,.91-.88,1.469,1.469,0,0,0,.36,0,1.18,1.18,0,0,0,2-.83C195.15,363.92,194.49,360.53,195.15,357.72Zm-65.82,7.92-.93-.22c.51.05,1,.09,1.54.12Z" fill="#ccc"/>
            <path id="Trazado_108360" data-name="Trazado 108360" d="M117.18,372.92c-2.62-4.2-6-9.15-10.08-12-.25-.17-.47.15-.38.38.39.88.83,1.74,1.29,2.59.69,4.73,3.26,9.71,4.94,14.18a135,135,0,0,1,4.68,14.53,105.869,105.869,0,0,1,2.77,15.89c.43,4.52-.21,9.34.68,13.78v.28c-.15.82,1,1.42,1.42.6,5.9-10.62,5.21-23.47,1.74-34.79a66.5,66.5,0,0,0-7.06-15.44Z" fill="#ccc"/>
            <path id="Trazado_108361" data-name="Trazado 108361" d="M370.26,382a2.33,2.33,0,0,0,.93-3.86c-2.35-1.85-5.83-3.76-8.89-3.86a.89.89,0,0,0-.76,1.37h0a10.142,10.142,0,0,0,1.07,1.6c-1.8-.78-3.76-1.26-5.35-.54a.57.57,0,0,0-.25.62c.32,1.65,1.63,2.52,2.81,3.66,1.73,1.67,3.49,3.3,5.25,4.93,2.48,2.31,5.73,4.58,8.77,1.81a1.9,1.9,0,0,0,0-2.67C372.67,384.06,371.49,383,370.26,382Z" fill="#ccc"/>
            <path id="Trazado_108362" data-name="Trazado 108362" d="M370.39,374.94a1.52,1.52,0,0,0,1.91-1.46,3.41,3.41,0,0,0-.82-2.09,7.19,7.19,0,0,0-1.63-1.33,23.061,23.061,0,0,0-3.59-1.5c-.86-.31-1.66,1-.92,1.58C367.16,371.59,368.08,374.2,370.39,374.94Z" fill="#ccc"/>
            <path id="Trazado_108363" data-name="Trazado 108363" d="M247.34,395.06c-2.88-1.29-7.08-2.89-10.25-1.85a.77.77,0,0,0-.33,1.27c2,2.1,5.68,3.32,8.29,4.5S250,396.24,247.34,395.06Z" fill="#ccc"/>
            <path id="Trazado_108364" data-name="Trazado 108364" d="M241.88,388.93c-.73.36-.3,1.34.38,1.41,1.88.17,3.35,1.54,5.19,1.78,1.13.14,1.63-1.27,1.21-2.11C247.4,387.55,243.94,387.9,241.88,388.93Z" fill="#ccc"/>
            <path id="Trazado_108365" data-name="Trazado 108365" d="M248,384.45a5.05,5.05,0,0,1-2.17-.41c-.92-.45-2.07.77-1.17,1.52A5.73,5.73,0,0,0,248,387a1.25,1.25,0,0,0,1.11-.63,1.28,1.28,0,0,0,.13-1,1.36,1.36,0,0,0-1.24-.92Z" fill="#ccc"/>
            <path id="Trazado_108366" data-name="Trazado 108366" d="M130.43,399.36a.84.84,0,0,0-.22,1.65c1.18.4,2.69,1.1,3.89.34a1,1,0,0,0,.19-1.47C133.27,398.87,131.69,399.21,130.43,399.36Z" fill="#ccc"/>
            <path id="Trazado_108367" data-name="Trazado 108367" d="M134.71,394.6h-.25a.74.74,0,1,0,0,1.42h.25a.71.71,0,1,0,0-1.42Z" fill="#ccc"/>
            <path id="Trazado_108368" data-name="Trazado 108368" d="M156.6,345.34a1.11,1.11,0,0,0-.4-1.5,14.371,14.371,0,0,0-2.47-.92c-1-.3-1.39,1-.65,1.53a11.857,11.857,0,0,0,2,1.28,1.12,1.12,0,0,0,1.52-.39Z" fill="#ccc"/>
            <path id="Trazado_108369" data-name="Trazado 108369" d="M160.4,339a.59.59,0,1,0,.59.59A.59.59,0,0,0,160.4,339Z" fill="#ccc"/>
            <path id="Trazado_108370" data-name="Trazado 108370" d="M170.27,355.06a2.43,2.43,0,0,0,2.92,2,1.86,1.86,0,0,0,1.32-1.48,2.17,2.17,0,0,0,2-3.25,4.7,4.7,0,0,0-3.78-2,26.329,26.329,0,0,0-3.43.22.78.78,0,0,0-.2,1.53,4.24,4.24,0,0,1,1.13.72,5.41,5.41,0,0,0,.04,2.26Z" fill="#ccc"/>
            <path id="Trazado_108371" data-name="Trazado 108371" d="M195.12,333.34a3.25,3.25,0,0,0-3.08-4,6.3,6.3,0,0,0-3.12.69c-.82.34-2,1.59-1.6,2.6a3.17,3.17,0,0,0,1.43,1.69c.11.06.89.49.35.14a11.622,11.622,0,0,0,1.33.82,3.25,3.25,0,0,0,4.69-1.94Z" fill="#ccc"/>
            <path id="Trazado_108372" data-name="Trazado 108372" d="M165,305a17.288,17.288,0,0,0,3.13,1.08,2.77,2.77,0,1,0,0-5.35,22,22,0,0,1-3.37.87c-.78.15-1.92.58-1.72,1.59A2.732,2.732,0,0,0,165,305Z" fill="#ccc"/>
            <path id="Trazado_108373" data-name="Trazado 108373" d="M62.61,306h-.1a2.7,2.7,0,0,0-.63-.07h-.14c-.41-.17-.49-.2-.23-.1a.76.76,0,0,1-.19-.12,1.25,1.25,0,0,0-1.82.74,3.17,3.17,0,0,0,1.71,3.34,4.42,4.42,0,0,0,1.45.31,2,2,0,1,0,0-4Z" fill="#ccc"/>
            <path id="Trazado_108374" data-name="Trazado 108374" d="M63.67,304a1,1,0,0,0,.41,0,.51.51,0,0,0,.37-.48.82.82,0,0,0,0-.39,1.83,1.83,0,0,0-.79-1.45c-.47-.34-1-.65-1.45-1-1-.67-2,.79-1.25,1.61S62.62,304.28,63.67,304Z" fill="#ccc"/>
            <path id="Trazado_108375" data-name="Trazado 108375" d="M69,324.11a1.22,1.22,0,0,0-.38-.22.81.81,0,0,0-1.14.26,1.56,1.56,0,0,0-.27.93,2.94,2.94,0,0,0,.29,1,2,2,0,0,0,.74.88,1.64,1.64,0,0,0,1.67-.06,1.51,1.51,0,0,0-.91-2.8Z" fill="#ccc"/>
            <path id="Trazado_108376" data-name="Trazado 108376" d="M76,254.17a3.71,3.71,0,0,0,5-1,2.52,2.52,0,0,0-.89-3.37,4.16,4.16,0,0,0-3.75-.1c-.81.3-1.85.59-2.18,1.54C73.8,252.36,75.13,253.67,76,254.17Z" fill="#ccc"/>
            <path id="Trazado_108377" data-name="Trazado 108377" d="M447.32,310.07c-.91-2.76-1.7-5.51-4.83-6.33a7.316,7.316,0,0,0-6.35,9.09,1.21,1.21,0,0,0-.18,1.08c.48,1.71,1.82,2.63,3,3.78a3.32,3.32,0,0,0,4.63,0,6.941,6.941,0,0,0,1.39-2.24,4.51,4.51,0,0,0,2.34-5.38Z" fill="#ccc"/>
            <path id="Trazado_108378" data-name="Trazado 108378" d="M398.24,257.44a9.729,9.729,0,0,0,1.45,1.49,5.62,5.62,0,0,0,2.26,1.43c2.22.55,3.68-2.6,1.59-3.77a7.77,7.77,0,0,0-4.77-.45.89.89,0,0,0-.53,1.3Z" fill="#ccc"/>
            <path id="Trazado_108379" data-name="Trazado 108379" d="M401.35,254.72a4.309,4.309,0,0,0,1.09.5,1.58,1.58,0,0,0,1.21-2.89,3,3,0,0,0-.94-.48,5.66,5.66,0,0,0-1-.08,1.34,1.34,0,0,0-1.22.83,1.4,1.4,0,0,0,.27,1.47,3.7,3.7,0,0,0,.59.65Z" fill="#ccc"/>
            <path id="Trazado_108380" data-name="Trazado 108380" d="M399.41,231.36c3.1-.69,6.65-4.2,5.43-7.57a4,4,0,0,0-5.75-2.34c-.47.28-.86.78-1.32,1l.45-.33-.44.31c-.18.11-.47.22-.66.35a4.239,4.239,0,0,0-1.09.53,4.4,4.4,0,0,0,3.38,8Z" fill="#ccc"/>
            <path id="Trazado_108381" data-name="Trazado 108381" d="M71.49,241a1.38,1.38,0,0,0,1.35-1.34,1.36,1.36,0,0,0-1.35-1.35,1.51,1.51,0,0,1-1.65-.66.89.89,0,0,0-1.62.68A3.25,3.25,0,0,0,71.49,241Z" fill="#ccc"/>
            <path id="Trazado_108382" data-name="Trazado 108382" d="M60.91,244.11c.31-.05.37-.42.27-.66s-.26-.35-.19-.56c.27-.8-1.08-1.16-1.25-.34S60,244.26,60.91,244.11Z" fill="#ccc"/>
          </g>
          <g id="Grupo_55713" data-name="Grupo 55713">
            <path id="Trazado_108383" data-name="Trazado 108383" d="M493.5,386.49a.75.75,0,0,0-1.07-.1.869.869,0,0,0-.19-.4c-16.05-15.79-45.16-31.51-73.53-41.27,18-3.47,42-5.58,60.81,2a.78.78,0,0,0,.69.43h.13l.11-.05a.8.8,0,0,0,.3.06.77.77,0,0,0,.71-.47.75.75,0,0,0-.41-1l-.19-.08a183.83,183.83,0,0,1-.51-58,.77.77,0,0,0-.65-.87,1.07,1.07,0,0,0-.25,0c-18-6.48-39.12-7.64-64.66-3.56l-3.34.57c2.1-3.63,1.64-8.41,1.29-12-.82-8.55-.25-17.32.31-25.8.56-8.68,1.13-17.64.23-26.44a8.08,8.08,0,0,0-.87-3.45c-1.63-3.14-5.21-4.57-8.5-5.56-15.76-4.79-32.21-6-47.65-6.63-10.55-.42-20.64-.61-30.41-.55a77.13,77.13,0,0,0-8.31-28.9,10.46,10.46,0,0,1-.71-2.5,11.7,11.7,0,0,0-.83-2.88c-3-6-7.38-8.74-11.73-7.29-9.91,3.82-18.3-1.91-25.39-7.58-3.62-2.72-8.05-1.48-11.57-.08a11.17,11.17,0,0,0-3.95,3.74,10,10,0,0,1-2.24,2.44c-4.44,2.67-7.81,3.59-10.91,3-9.27-3.82-17.77,1.29-25.27,5.8l-.71.42c-2.87,1.73-6.27,1.62-9.87,1.49-.93,0-1.87-.06-2.8-.06-5.43,0-7.93,4.25-10.15,8l-.5.84a1,1,0,0,0-.07.15,31.56,31.56,0,0,1-7.5,12.76l-.08.1c-3.85,5.39-7.83,11-7.83,17.36v.11a92.674,92.674,0,0,0,2.76,12.79c-14.08.69-28.4-.26-42.26-1.19-7.73-.51-15.72-1-23.58-1.3a330,330,0,0,0-60.73,3.74c-9.41,1.46-22.39,4.63-26.32,15.24a19.21,19.21,0,0,0,1,14.65c1.91,4.88,4,9.67,6,14.34,6.91,15.89,13.45,30.9,13.24,48.21v.77c0,2.39-.08,4.86.92,7.13,1.13,2.57,3.42,4.4,5.74,6a83.21,83.21,0,0,0,47,14.52h1.83a24.79,24.79,0,0,0-3.86,3.61c-1.51,1.74-3.9,5.23-3,9v.09a.11.11,0,0,1,0,.05,165.67,165.67,0,0,1,15.93,64.5c-2.19-.44-4.31-.88-6.34-1.31a.77.77,0,0,0-.32,1.5c2.15.46,4.4.92,6.71,1.39,0,1.09.09,2.19.1,3.29a.92.92,0,0,0-.66.12,1.36,1.36,0,0,0-.41,1.61,1.08,1.08,0,0,0,1,.71h.22c.43-.09,1.42-.49,1.38-2.37,0-1-.06-2-.09-3,27.25,5.4,64.7,10.71,101.7,5.4,18.41-2.64,36.82-7.84,54.62-12.87,30.45-8.6,61.93-17.48,93.46-13.4,13.31,1.73,26.24,5.75,37.32,9.39,12.24,4,47.49,22.26,56.36,32.3a.76.76,0,0,0,.57.26.8.8,0,0,0,.27,0,.78.78,0,0,0,.5-.72,76.75,76.75,0,0,1,26.86-57,.77.77,0,0,0,.15-1.2ZM415,284.79c25.18-4,46-2.92,63.69,3.41a185.3,185.3,0,0,0,.47,56.76c-19.93-7.68-45.29-5-63.4-1.22-15.51-5.12-30.66-8.39-43.16-8.83-6.82-.24-13.62-.14-20.39.23a80.323,80.323,0,0,0-1-8.38,8.46,8.46,0,0,0,4.21,1.16h.36a.39.39,0,0,0,.37-.41.36.36,0,0,0-.4-.36,7.56,7.56,0,0,1-4.72-1.42c-.13-.65-.25-1.32-.39-2a10.38,10.38,0,0,0,2.69,1.33h.13a.38.38,0,0,0,.11-.75,9.53,9.53,0,0,1-3.18-1.75,97.369,97.369,0,0,0-8.37-23.4,13.09,13.09,0,0,0,3.3.41,31,31,0,0,0,6-.77c8.92-1.78,17.9-4,26.58-6.07C390,289.82,402.55,286.78,415,284.79ZM284,298.14h0a37.08,37.08,0,0,0,9.44-1.44c-.41,15.51-.84,31.52-.87,47.43-8.57,1.93-17,4-25.33,6.11l-11.67,3c-15.93,4.07-32.16,8.21-48.55,11.54q.72-4.2,1.45-8.41c3.24-18.46,6.56-37.54,6.35-56.65.35.24.72.47,1.08.69,0,0,3.28,1.89,5,1.89a1.24,1.24,0,0,0,.68-.17,1,1,0,0,0,.43-1,.78.78,0,0,0-.87-.66.75.75,0,0,0-.48.27,19.769,19.769,0,0,1-3.95-1.67,20.383,20.383,0,0,1-2.06-1.42.74.74,0,0,0-.28-.21,20,20,0,0,1-2.28-2.15c-4.56-5-6.49-12.05-8.35-18.85-.54-2-1-3.8-1.61-5.61-3.29-10.49-6.18-20-8.37-29.67v-.09l3.16-1.14c.45.61.87,1.26,1.33,2,.33.53.7,1.1,1.14,1.76a18.92,18.92,0,0,0,14.1,7.09,14.366,14.366,0,0,0,1.48-.08,10.73,10.73,0,0,0,8.54-6,12.24,12.24,0,0,0,4.23,4.14A10.7,10.7,0,0,0,233,250h1.08a35.17,35.17,0,0,0,7.88,34.3.75.75,0,0,0,.56.24.77.77,0,0,0,.56-1.3,33.58,33.58,0,0,1-7.35-33.42l.72-.09a32.59,32.59,0,0,0,14-6,15.51,15.51,0,0,0,6,1.09,37.7,37.7,0,0,0,5.8-.55c4.1-.64,8.6-1.78,11.09-5.22a16.578,16.578,0,0,0,2.7,1.26,21.45,21.45,0,0,0,7.4,1,.72.72,0,0,0,.19.38c2.15,2.27,2.55,5.7,2.93,9l.06.57c.57,4.85,1.83,11.9,6.13,17.08a.767.767,0,0,0,1.18-.98c-4-4.87-5.23-11.63-5.78-16.28v-.36a32.869,32.869,0,0,0,4.79,8.51.36.36,0,0,0,.3.14.42.42,0,0,0,.24-.07.4.4,0,0,0,.06-.55,31.87,31.87,0,0,1-5.9-12.26.38.38,0,0,0-.15-.22l-.18-.74a28.171,28.171,0,0,0,10.71,10.92.461.461,0,0,0,.2.05.39.39,0,0,0,.33-.19.4.4,0,0,0-.15-.53,27.41,27.41,0,0,1-11.51-12.86,31.58,31.58,0,0,0,8.24,2.88,16,16,0,0,0,2.63.22,11.86,11.86,0,0,0,6.76-1.93.773.773,0,1,0-.88-1.27,11.23,11.23,0,0,1-8.25,1.47,32.86,32.86,0,0,1-8.43-3,1.509,1.509,0,0,0-.22-.11c7.65-.56,13-2.83,16.21-6.94a.76.76,0,0,0-.12-1.07.78.78,0,0,0-1.09.12c-3.19,4-8.72,6.16-16.87,6.45a.81.81,0,0,0-.46,0,21.391,21.391,0,0,1-7.81-.87,23.19,23.19,0,0,1-6-3.55,40.215,40.215,0,0,1-4.43-3.79,18.77,18.77,0,0,0,6,1.48,26,26,0,0,0,2.9.21,10.18,10.18,0,0,0,2.39-.26,5.7,5.7,0,0,0,4.16-3.33,7,7,0,0,0,.32-2.79c-.05-1.14-.22-2.3-.37-3.42-.4-2.8-.78-5.44.32-7.83a.46.46,0,0,0,0-.26,3.124,3.124,0,0,1,.32-.15.44.44,0,0,0,.19-.17c3.73-.41,7.43-1.09,11.08-1.77l1.84-.34a20,20,0,0,1,7.36-.39,11.8,11.8,0,0,1,5.49,2.92.76.76,0,0,0,.6.59,18,18,0,0,1,2.17,2.59,47.7,47.7,0,0,1,3.94,7.57c.33.74.67,1.48,1,2.22a86.417,86.417,0,0,0,6.44,11.5c.3.46.61.92.93,1.37l.17.25c2.75,4.08,5.52,8.28,5.52,12.85v1c-.53,5.67-5.29,9.8-9.89,13.8l-.9.78A104.628,104.628,0,0,0,303,286.29l-.65.87c-1.83,2.48-3.72,5-6.26,6.67-3.56,2.26-8.08,2.53-12.06,2.77a.77.77,0,0,0,0,1.54Zm-84,4.35c-3-2.91-7.09-4.61-11-6-19.69-7-41-9.29-61.62-11.45-8.73-.92-17.57-1.85-26.34-3.15,9.09-7.4,58.7-28.43,91.26-40.29,2.2,9.73,5.1,19.21,8.39,29.7.56,1.78,1.06,3.61,1.59,5.55,1.9,7,3.88,14.19,8.69,19.48a20.924,20.924,0,0,0,2.37,2.25c.36,19.35-3,38.75-6.32,57.52-.52,3-1,6-1.56,9-3.35.67-6.7,1.3-10.07,1.89a137.92,137.92,0,0,1,8-50.85,10.54,10.54,0,0,0,.63-1.71h0v-.09c1.09-3.91-.51-8.55-4.02-11.85ZM262.4,219a7.781,7.781,0,0,1,.76-1.46,5.91,5.91,0,0,1,4.1-2.75,11.731,11.731,0,0,1,3.16.16l.59.07a46.88,46.88,0,0,0,9.62.12,7.46,7.46,0,0,0-2.92,4.82,13,13,0,0,0,.93,6.95c.08.23.17.46.26.69a9.85,9.85,0,0,1,.88,3.17v.08a5.75,5.75,0,0,1-2.55,1.32,14.56,14.56,0,0,1-5,0c-2.77-.32-5.9-.82-7.87-2.85a9.14,9.14,0,0,1-1.92-3.28c-.56-1.49-1.3-4.36,0-6.67a.41.41,0,0,0-.04-.37Zm18.39,4.48c.15,1.11.31,2.26.37,3.36a6.66,6.66,0,0,1-.27,2.49,3.559,3.559,0,0,1-.42.76,13.26,13.26,0,0,0-.85-2.77c-.09-.23-.18-.45-.26-.68a12.36,12.36,0,0,1-.89-6.55,6.82,6.82,0,0,1,2.46-4.22c-.87,2.4-.51,5.03-.14,7.59Zm12.06-27.85a59.091,59.091,0,0,0-2.43-9.13,7.16,7.16,0,0,1,1.8,2.58,14.591,14.591,0,0,1,.63,6.53Zm.66,16a.659.659,0,0,1,0-.14,1.362,1.362,0,0,0,.29.06h.2Zm29.18,25.93a82.635,82.635,0,0,1-5.41-9.85c-.26-.55-.5-1.1-.75-1.65,2,.14,4,.31,6,.55a56.68,56.68,0,0,0,.16,10.93ZM295.08,296.1a12.87,12.87,0,0,0,1.83-1c2.79-1.77,4.77-4.45,6.68-7l.64-.87a104,104,0,0,1,14.9-16.13l.9-.77c4.6-4,9.82-8.53,10.4-14.81.53-5.47-2.55-10.19-5.64-14.75a48.671,48.671,0,0,1-.74-14c22.79,3,44.47,12.59,63.21,28-3,2.71-6.05,5.18-8.88,7.43-3.63,2.88-7.4,5.72-11.05,8.47-9,6.78-18.27,13.79-26.34,21.93-1.82,1.84-2.37,3.6-1.56,5h0a93.75,93.75,0,0,1,11.28,37.66c-19.17,1.16-38.09,4.48-56.5,8.56.05-16,.48-32,.89-47.58C295.1,296.17,295.08,296.14,295.08,296.1Zm116.43-50.2c-.56,8.54-1.13,17.37-.3,26,.47,4.95.66,9.29-1.92,12.26-10.69,2-21.35,4.54-31.71,7.05-8.67,2.11-17.63,4.29-26.52,6.07l-2,.36a12.77,12.77,0,0,1,1.63-2.18.39.39,0,0,0-.56-.53,13.889,13.889,0,0,0-2,2.86,21,21,0,0,1-2.8.23,17.52,17.52,0,0,1,4.46-5.74.391.391,0,1,0-.5-.6,18.521,18.521,0,0,0-4.8,6.3,11.1,11.1,0,0,1-2.36-.4,2.33,2.33,0,0,1-1.37-.83c-.62-1,.71-2.53,1.32-3.14,8-8.06,17.24-15,26.18-21.79,3.65-2.75,7.43-5.6,11.07-8.49,10.84-8.59,24.27-20.45,31.85-36,.32-.66.65-1.4,1-2.18a200.634,200.634,0,0,1-.67,20.75ZM356.2,205.45c15.33.61,31.67,1.84,47.27,6.56,3.13,1,6.21,2.19,7.57,4.81a6.44,6.44,0,0,1,.63,1.93h0l.06.6c.13,2-.49,4.38-1.93,7.32-4.37,9-10.76,16.72-17.45,23.3l-1.44-2.83a.39.39,0,0,0-.52-.17.4.4,0,0,0-.16.53l1.54,3-1.64,1.58a12.089,12.089,0,0,0-1.74-3.27.39.39,0,0,0-.62.46,11.57,11.57,0,0,1,1.57,2.84.38.38,0,0,0,0,.49l.11.15-1,.9c-21.3-17.55-46.39-27.66-72.59-29.26-.66-1.45-1.36-2.91-2.14-4.34a22,22,0,0,1,6.64.93.25.25,0,0,0,.12,0,.382.382,0,0,0,.1-.75,22.741,22.741,0,0,0-7.29-1c-.33-.57-.68-1.13-1-1.67a13.59,13.59,0,0,0-1.28-1.65,71.4,71.4,0,0,1,20.31,3.72.69.69,0,0,0,.25,0,.78.78,0,0,0,.73-.52.77.77,0,0,0-.49-1,72.341,72.341,0,0,0-22.3-3.84,14.47,14.47,0,0,0-4.34-2.85,191.2,191.2,0,0,1,53.9,9.72.62.62,0,0,0,.23,0,.77.77,0,0,0,.25-1.49,193.19,193.19,0,0,0-65.7-9.89.5.5,0,0,0-.13,0c0-.6.07-1.21.09-1.82a142.32,142.32,0,0,1,38.44,1.71h.07a.37.37,0,0,0,.38-.31.39.39,0,0,0-.31-.45,143.54,143.54,0,0,0-38.55-1.73c0-.47,0-.95,0-1.42a591.274,591.274,0,0,1,62.36-.29ZM187,210.11c0-5.86,3.66-11,7.51-16.35a33.27,33.27,0,0,0,7.8-13.24l.46-.79c2.1-3.55,4.28-7.22,8.83-7.22.92,0,1.83,0,2.75.06,3.66.12,7.45.25,10.71-1.7l.71-.44c7.56-4.54,15.38-9.24,24-5.67a.38.38,0,0,0,.15.05c4.51.9,8.82-1.22,12.1-3.19a11.07,11.07,0,0,0,2.65-2.82,9.75,9.75,0,0,1,3.35-3.25c4.59-1.83,7.67-1.86,10-.12,7.41,5.93,16.21,11.91,26.86,7.82,5.21-1.74,8.83,4.56,9.83,6.53a11,11,0,0,1,.7,2.49,11.65,11.65,0,0,0,.83,2.89,75.711,75.711,0,0,1,8.15,28.21q-7.31.06-14.36.3a14.69,14.69,0,0,0,3.84-3.33.785.785,0,0,0-1.21-1,15.53,15.53,0,0,1-6.2,4.41c-2.32.1-4.63.2-6.93.32a17.59,17.59,0,0,0,4.8-3.2.4.4,0,0,0,0-.55.39.39,0,0,0-.54,0,16.851,16.851,0,0,1-6.91,3.92l-3.08.19v-.89h.09a51.438,51.438,0,0,0,7.95-6.16,17.69,17.69,0,0,0,5.07-8.86.765.765,0,0,0-1.5-.3,16.23,16.23,0,0,1-4.66,8.08,44.348,44.348,0,0,1-6.56,5.18l.27-5.78c.11-2.28.23-4.87-.74-7.22a8.9,8.9,0,0,0-4.45-4.65.78.78,0,0,0-.85.15.75.75,0,0,0-.18.84A57.351,57.351,0,0,1,292,211.87h0c-6.84,1.26-13.88,2.43-20.75,1.56l-.57-.07a13.69,13.69,0,0,0-3.57-.15,6.61,6.61,0,0,0-2.67,1,84.7,84.7,0,0,1-4.78-30.55,12.83,12.83,0,0,1,.95-5.26,12.23,12.23,0,0,1,2.62-3.22,48,48,0,0,1,12.73-8.69.77.77,0,1,0-.65-1.39,49.589,49.589,0,0,0-13.14,9,13.5,13.5,0,0,0-2.94,3.66,14.13,14.13,0,0,0-1.11,5.9,86.131,86.131,0,0,0,5,31.57,9.441,9.441,0,0,0-1.24,1.48,10.83,10.83,0,0,0-1.38,8.6c1.12,4.06,4.14,7.22,7.32,9.81-4.91,2.38-9.7,4.39-14.48,3.3a.4.4,0,0,0-.46.29.39.39,0,0,0,.3.46,13,13,0,0,0,2.91.32c4.11,0,8.19-1.79,12.34-3.81h0q.57.45,1.14.87c.74.56,1.53,1.15,2.38,1.7-2.19,2.92-6.28,3.93-10,4.52-3.9.62-8,1-11.38-.59-4.62-2.13-7.09-7.28-9.08-12.52a227.919,227.919,0,0,1-8.71-28.46,28.47,28.47,0,0,1-1.08-9.12c.47-5.27,3.67-9.94,6.49-14.07a.74.74,0,0,0-.2-1.06.77.77,0,0,0-1.07.2c-2.78,4.06-6.24,9.13-6.76,14.79a30,30,0,0,0,1.12,9.61,231.126,231.126,0,0,0,8.77,28.66c1.95,5.11,4.36,10.16,8.75,12.76a31,31,0,0,1-12.66,5.3c-3.25.56-5.75.34-7.65-.69-2.15-1.16-3.59-3.36-4.88-5.53-5.09-8.54-9.51-18.18-14.34-31.27-1.67-4.53-3.18-9.33-1.73-13.66.91-2.75,2.87-4.92,4.94-7.22a31.7,31.7,0,0,0,4.25-5.44.77.77,0,0,0-.29-1,.75.75,0,0,0-1,.28,30.809,30.809,0,0,1-4,5.18c-2.09,2.32-4.25,4.71-5.27,7.77-1.6,4.8,0,9.89,1.75,14.67,4.86,13.18,9.32,22.91,14.46,31.53.1.15.19.31.29.47a.5.5,0,0,0-.1.14,9.36,9.36,0,0,1-7.67,5.78c-.38,0-.78.06-1.18.07a14.34,14.34,0,0,0,4.29-2.42.383.383,0,1,0-.49-.59,13.73,13.73,0,0,1-6.05,2.84,17.64,17.64,0,0,1-10.72-6.27c-.41-.61-.76-1.17-1.09-1.69a20.14,20.14,0,0,0-2.81-3.76,46,46,0,0,1-5-8.78.7.7,0,0,0,0-.43.81.81,0,0,0-.36-.43A77.378,77.378,0,0,1,187,210.11ZM39.86,257.23a13.84,13.84,0,0,1,1.63-3.32.38.38,0,0,0-.11-.53.4.4,0,0,0-.54.1,15.4,15.4,0,0,0-1.52,3c-.3-.46-.59-.93-.85-1.41a12.33,12.33,0,0,1,2.49-4.4.38.38,0,0,0,0-.55.39.39,0,0,0-.53,0,13.07,13.07,0,0,0-2.42,4c-.07-.16-.16-.33-.24-.5-.32-.82-.65-1.64-1-2.47h0a16.87,16.87,0,0,1,0-11c3.65-9.86,16.08-12.86,25.12-14.26a327.712,327.712,0,0,1,60.43-3.72c7.85.25,15.83.78,23.53,1.3,14,.94,28.5,1.9,42.77,1.17h.06l.3.87a27.279,27.279,0,0,1-7.11,1.19.38.38,0,0,0-.38.39.4.4,0,0,0,.39.38h0a27.87,27.87,0,0,0,7.35-1.24c.21.59.44,1.18.67,1.77-15.5,5-32.16,5.71-48.28,6.43-9.26.41-18.82.84-28.12,2-7.54,1-15.1,2.52-22.41,4a.77.77,0,0,0,.15,1.52h.15c7.29-1.47,14.82-3,22.31-4,9.23-1.2,18.76-1.63,28-2,16.28-.73,33.08-1.48,48.82-6.55.3.68.6,1.34.93,2C175.26,235.93,159,240.86,143,246a.77.77,0,0,0,.24,1.5.66.66,0,0,0,.23,0c16.07-5.19,32.44-10.14,48.66-14.72.43.8.88,1.6,1.36,2.39-5.84,2.15-11.9,4.18-18.31,6.34-12.57,4.23-25.58,8.6-36.95,13.88a.77.77,0,0,0-.37,1,.76.76,0,0,0,.7.44.74.74,0,0,0,.32-.07c11.29-5.24,24.25-9.6,36.8-13.81,6.52-2.2,12.69-4.28,18.65-6.47.4.6.81,1.21,1.24,1.81l.08.09a3.708,3.708,0,0,1,.27.29c-30.68,10.93-89.36,35.24-96.77,42.91-14.78-2.3-29.34-5.75-42.83-12.1-4.54-2.14-10.13-5.14-14.4-9.74l.93-2.56a.383.383,0,0,0-.72-.26l-.79,2.17c-.29-.32-.56-.65-.83-1S40.07,257.53,39.86,257.23Zm23.22,72.15c-2-1.36-4.19-3-5.21-5.34a15.587,15.587,0,0,1-.78-6.48v-.78a70.5,70.5,0,0,0-.44-8.53l3.65,1.14h.11a.38.38,0,0,0,.11-.75l-3.86-1.21h-.1c-.07-.57-.15-1.14-.23-1.72a4.44,4.44,0,0,0,2,.51,3.191,3.191,0,0,0,.54,0,.383.383,0,1,0-.09-.76,3.82,3.82,0,0,1-2.36-.49.42.42,0,0,0-.27-.05c-2-12.81-7.11-24.61-12.48-36.95-1.06-2.43-2.13-4.91-3.19-7.41,4.47,4.94,10.35,8.11,15.12,10.35,13.79,6.5,28.65,10,43.71,12.3h.06c9.27,1.43,18.61,2.41,27.84,3.38,20.53,2.15,41.75,4.38,61.26,11.38,4.33,1.54,7.76,3.1,10.45,5.67a12.69,12.69,0,0,1,3.49,5.59,9.75,9.75,0,0,0-4.12-2.34.383.383,0,1,0-.2.74,8.89,8.89,0,0,1,4.64,3.1,8.241,8.241,0,0,1,.07,1.48,7.87,7.87,0,0,0-3.51-1.95.41.41,0,0,0-.47.28.4.4,0,0,0,.29.47,7,7,0,0,1,3.61,2.23,2.9,2.9,0,0,1-.14.7c-.21.53-.4,1.07-.6,1.61-2.27,4.73-8.63,6.83-14.1,8.13l-55.86,13.27c-7,1.66-13.43,3.41-18.68,6.6a81.71,81.71,0,0,1-50.26-14.17Zm46.77,24.47a.39.39,0,0,0-.54,0,10.74,10.74,0,0,0-2.34,5,9.819,9.819,0,0,1-1.23-2,1,1,0,0,0-.2-.26c-.3-2.79,1.55-5.45,2.76-6.84,5.62-6.54,14.26-9,24.14-11.36l55.85-13.27c4.24-1,9-2.48,12.22-5.24a141.08,141.08,0,0,0-6.6,47.34,309.8,309.8,0,0,1-30.76,3.83c-14.64,1-33.53,1.14-49.65-7.25-.56-.29-1.14-.6-1.73-.95l1.22-2.14a.39.39,0,1,0-.67-.38l-1.2,2.12c-.53-.34-1.06-.7-1.58-1.09a2.61,2.61,0,0,1,1.23-2.13.38.38,0,0,0,.13-.53.39.39,0,0,0-.53-.13,3.4,3.4,0,0,0-1.54,2.22,11.627,11.627,0,0,1-1.19-1.14,9.86,9.86,0,0,1,2.25-5.28.38.38,0,0,0-.04-.52Zm355.21,88.86c-10.72-10.4-43.89-27.5-55.73-31.39-11.15-3.66-24.16-7.7-37.6-9.45-31.85-4.13-63.48,4.8-94.08,13.44-17.75,5-36.11,10.2-54.41,12.82-36.94,5.31-74.38-.05-101.54-5.45a174.179,174.179,0,0,0-2.81-24.6,19,19,0,0,0,8.09,2.79h0a.39.39,0,0,0,0-.77,18.14,18.14,0,0,1-8.37-3.08c-.11-.6-.21-1.19-.33-1.77a16.17,16.17,0,0,0,6.31,2.69h.07a.389.389,0,0,0,.07-.77,15.34,15.34,0,0,1-6.7-3.08,163.491,163.491,0,0,0-10.34-32.18,25.752,25.752,0,0,0,5,3.26c16.47,8.57,35.63,8.47,50.48,7.43,10.35-.73,20.65-2.09,30.9-3.85a.76.76,0,0,0,.54.23h0a.73.73,0,0,0,.66-.44c20.54-3.59,40.83-8.77,60.67-13.85l11.66-3c26.79-6.77,55-13.34,83.74-15h.21c6.94-.4,13.92-.51,20.9-.27,12.35.44,27.29,3.65,42.61,8.69a.73.73,0,0,0,.5.16c28.92,9.59,59.09,25.65,75.47,41.79a.77.77,0,0,0,.27.17,78.4,78.4,0,0,0-26.24,55.48Z" fill="#49392b"/>
            <path id="Trazado_108384" data-name="Trazado 108384" d="M440.88,308.36a5.439,5.439,0,0,1,1.46,1.41.393.393,0,0,0,.54.09.37.37,0,0,0,.09-.53,6,6,0,0,0-1.67-1.61.38.38,0,0,0-.53.11.37.37,0,0,0,.11.53Z" fill="#49392b"/>
            <path id="Trazado_108385" data-name="Trazado 108385" d="M439.79,312a2.65,2.65,0,0,1,1.78.9.37.37,0,0,0,.3.13.33.33,0,0,0,.24-.09.39.39,0,0,0,.05-.54,3.46,3.46,0,0,0-2.32-1.17.39.39,0,0,0-.41.36.38.38,0,0,0,.36.41Z" fill="#49392b"/>
            <path id="Trazado_108386" data-name="Trazado 108386" d="M438.41,313.25a8.16,8.16,0,0,1,2.93,1.72.39.39,0,0,0,.26.1.36.36,0,0,0,.29-.12.39.39,0,0,0,0-.54,8.81,8.81,0,0,0-3.22-1.89.39.39,0,0,0-.48.25.38.38,0,0,0,.22.48Z" fill="#49392b"/>
            <path id="Trazado_108387" data-name="Trazado 108387" d="M402,254.63a.4.4,0,0,0-.47.28.39.39,0,0,0,.29.47,1.63,1.63,0,0,1,1,.82.39.39,0,0,0,.34.21.33.33,0,0,0,.17,0,.38.38,0,0,0,.17-.52,2.35,2.35,0,0,0-1.5-1.26Z" fill="#49392b"/>
            <path id="Trazado_108388" data-name="Trazado 108388" d="M400.66,256.93a.4.4,0,0,0-.43.34.38.38,0,0,0,.34.42,2.83,2.83,0,0,1,1.85,1.08.4.4,0,0,0,.31.15.48.48,0,0,0,.23-.07.38.38,0,0,0,.08-.54A3.59,3.59,0,0,0,400.66,256.93Z" fill="#49392b"/>
            <path id="Trazado_108389" data-name="Trazado 108389" d="M399.79,226a.37.37,0,0,0,.31.17.51.51,0,0,0,.22-.06.41.41,0,0,0,.11-.54l-.51-.77a.39.39,0,1,0-.65.43Z" fill="#49392b"/>
            <path id="Trazado_108390" data-name="Trazado 108390" d="M398.26,229.63a.36.36,0,0,0,.3.14.43.43,0,0,0,.24-.08.38.38,0,0,0,.06-.54l-1-1.28a.384.384,0,0,0-.6.48Z" fill="#49392b"/>
            <path id="Trazado_108391" data-name="Trazado 108391" d="M393.35,247.72a.38.38,0,0,0,.35.24h.15a.39.39,0,0,0,.2-.51l-.76-1.79a.4.4,0,0,0-.51-.21.39.39,0,0,0-.2.51Z" fill="#49392b"/>
            <path id="Trazado_108392" data-name="Trazado 108392" d="M368.54,371,366,369.44a.39.39,0,0,0-.53.13.37.37,0,0,0,.13.52l2.56,1.54a.36.36,0,0,0,.2.06.39.39,0,0,0,.33-.19.38.38,0,0,0-.15-.5Z" fill="#49392b"/>
            <path id="Trazado_108393" data-name="Trazado 108393" d="M363.26,375.07a.39.39,0,0,0-.43.34.38.38,0,0,0,.34.42,5.09,5.09,0,0,1,3.34,1.86.39.39,0,0,0,.3.14.43.43,0,0,0,.24-.08.39.39,0,0,0,.06-.55,5.87,5.87,0,0,0-3.85-2.13Z" fill="#49392b"/>
            <path id="Trazado_108394" data-name="Trazado 108394" d="M366.93,381.81l-7-3.38a.37.37,0,0,0-.5.19.36.36,0,0,0,.17.5l7,3.38a.53.53,0,0,0,.17,0,.39.39,0,0,0,.35-.22.38.38,0,0,0-.19-.47Z" fill="#49392b"/>
            <path id="Trazado_108395" data-name="Trazado 108395" d="M352.87,319.76l-1.55-.76a.38.38,0,0,0-.51.17.39.39,0,0,0,.18.52l1.53.76a.38.38,0,0,0,.17,0,.37.37,0,0,0,.35-.21.4.4,0,0,0-.17-.48Z" fill="#49392b"/>
            <path id="Trazado_108396" data-name="Trazado 108396" d="M352.45,289.79l-.82.71a.38.38,0,0,0,0,.54.39.39,0,0,0,.29.13.38.38,0,0,0,.25-.09l.82-.71a.383.383,0,1,0-.5-.58Z" fill="#49392b"/>
            <path id="Trazado_108397" data-name="Trazado 108397" d="M335,210.3h2.56a.39.39,0,0,0,.38-.39.38.38,0,0,0-.38-.38H335a.38.38,0,0,0-.39.38.39.39,0,0,0,.39.39Z" fill="#49392b"/>
            <path id="Trazado_108398" data-name="Trazado 108398" d="M336.8,220.17a2.92,2.92,0,0,1-1.62-.43.77.77,0,0,0-1.05.27.76.76,0,0,0,.26,1.05,4.47,4.47,0,0,0,2.31.64h.16a.77.77,0,0,0,.74-.8.76.76,0,0,0-.8-.73Z" fill="#49392b"/>
            <path id="Trazado_108399" data-name="Trazado 108399" d="M324.91,221.07l-.77-.25a.384.384,0,1,0-.24.73l.77.25a.27.27,0,0,0,.12,0,.375.375,0,0,0,.12-.73Z" fill="#49392b"/>
            <path id="Trazado_108400" data-name="Trazado 108400" d="M311.71,265.85h0a.38.38,0,0,0,.38-.36.39.39,0,0,0-.37-.41,14.94,14.94,0,0,1-10.06-4.63.38.38,0,0,0-.55,0,.39.39,0,0,0,0,.54,15.78,15.78,0,0,0,10.6,4.86Z" fill="#49392b"/>
            <path id="Trazado_108401" data-name="Trazado 108401" d="M305.83,199.18a.37.37,0,0,0,.29.14.33.33,0,0,0,.24-.1l1.53-1.29a.38.38,0,1,0-.49-.58l-1.53,1.28a.39.39,0,0,0-.04.55Z" fill="#49392b"/>
            <path id="Trazado_108402" data-name="Trazado 108402" d="M294.65,269.75a.78.78,0,0,0,.25,1.06l2.34,1.46a.7.7,0,0,0,.41.12.76.76,0,0,0,.41-1.41l-2.35-1.47a.75.75,0,0,0-1.06.24Z" fill="#49392b"/>
            <path id="Trazado_108403" data-name="Trazado 108403" d="M294.69,261.78l.76.26h.13a.38.38,0,0,0,.36-.26.39.39,0,0,0-.24-.49l-.76-.26a.39.39,0,1,0-.25.73Z" fill="#49392b"/>
            <path id="Trazado_108404" data-name="Trazado 108404" d="M282.09,300.49a.37.37,0,0,0,0,.54,3.28,3.28,0,0,0,2.4,1,3.17,3.17,0,0,0,1.67-.45.39.39,0,0,0,.12-.53.38.38,0,0,0-.53-.12,2.57,2.57,0,0,1-3.1-.41.39.39,0,0,0-.56-.03Z" fill="#49392b"/>
            <path id="Trazado_108405" data-name="Trazado 108405" d="M284.91,304.06l-1.27-.29a.38.38,0,1,0-.17.74l1.28.3h.08a.37.37,0,0,0,.37-.29.38.38,0,0,0-.29-.46Z" fill="#49392b"/>
            <path id="Trazado_108406" data-name="Trazado 108406" d="M283.78,288.47a.41.41,0,0,0,.37-.25.39.39,0,0,0-.22-.49l-6.42-2.55a.39.39,0,0,0-.49.21.38.38,0,0,0,.22.5l6.41,2.55a.31.31,0,0,0,.13.03Z" fill="#49392b"/>
            <path id="Trazado_108407" data-name="Trazado 108407" d="M281.31,208.64a12.43,12.43,0,0,1-10,2.18.4.4,0,0,0-.46.29.39.39,0,0,0,.3.46,12.391,12.391,0,0,0,2.72.3,13.2,13.2,0,0,0,7.88-2.62.376.376,0,0,0-.44-.61Z" fill="#49392b"/>
            <path id="Trazado_108408" data-name="Trazado 108408" d="M262.6,179.79a.38.38,0,0,0-.18.51.4.4,0,0,0,.34.22.34.34,0,0,0,.17-.05,27.5,27.5,0,0,1,18.26-2.11.4.4,0,0,0,.46-.29.39.39,0,0,0-.29-.46,28.22,28.22,0,0,0-18.76,2.18Z" fill="#49392b"/>
            <path id="Trazado_108409" data-name="Trazado 108409" d="M280.52,290.5a22.11,22.11,0,0,1-11.33-5.05.383.383,0,1,0-.5.58,22.79,22.79,0,0,0,11.73,5.23h.05a.38.38,0,0,0,0-.76Z" fill="#49392b"/>
            <path id="Trazado_108410" data-name="Trazado 108410" d="M272.91,175.07a.39.39,0,0,0,.38.38h3.34a.39.39,0,0,0,0-.77h-3.34A.39.39,0,0,0,272.91,175.07Z" fill="#49392b"/>
            <path id="Trazado_108411" data-name="Trazado 108411" d="M259.21,237.16h0a7.46,7.46,0,0,0,5-2,.39.39,0,0,0-.53-.57,6.63,6.63,0,0,1-4.45,1.81.39.39,0,0,0,0,.77Z" fill="#49392b"/>
            <path id="Trazado_108412" data-name="Trazado 108412" d="M257.08,302.43l-.77-.38a.39.39,0,0,0-.35.69l.77.38a.38.38,0,0,0,.17,0,.39.39,0,0,0,.18-.73Z" fill="#49392b"/>
            <path id="Trazado_108413" data-name="Trazado 108413" d="M256,305.14,254,304a.4.4,0,0,0-.53.13.39.39,0,0,0,.13.53l1.92,1.16a.35.35,0,0,0,.2.05.4.4,0,0,0,.33-.18.38.38,0,0,0-.05-.55Z" fill="#49392b"/>
            <path id="Trazado_108414" data-name="Trazado 108414" d="M252.14,306.18a.385.385,0,0,0-.36.68,23.139,23.139,0,0,1,3.68,2.42.49.49,0,0,0,.25.08.41.41,0,0,0,.3-.14.39.39,0,0,0-.06-.54A24.522,24.522,0,0,0,252.14,306.18Z" fill="#49392b"/>
            <path id="Trazado_108415" data-name="Trazado 108415" d="M249.32,281.54a3,3,0,0,1-2.11-2.5.38.38,0,0,0-.42-.33.37.37,0,0,0-.34.42,3.79,3.79,0,0,0,2.66,3.15.2.2,0,0,0,.11,0,.38.38,0,0,0,.36-.28.39.39,0,0,0-.26-.46Z" fill="#49392b"/>
            <path id="Trazado_108416" data-name="Trazado 108416" d="M248.59,285.19a12.31,12.31,0,0,1-6.51-9.47.39.39,0,0,0-.43-.34.37.37,0,0,0-.33.42,13.08,13.08,0,0,0,6.93,10.08.33.33,0,0,0,.17,0,.37.37,0,0,0,.34-.21.38.38,0,0,0-.17-.48Z" fill="#49392b"/>
            <path id="Trazado_108417" data-name="Trazado 108417" d="M248.29,288.94a6.73,6.73,0,0,1-2.47-2.36.773.773,0,1,0-1.31.82,8.42,8.42,0,0,0,3,2.89.77.77,0,0,0,1-.31A.76.76,0,0,0,248.29,288.94Z" fill="#49392b"/>
            <path id="Trazado_108418" data-name="Trazado 108418" d="M234.11,191.35a.42.42,0,0,0,.34.19.45.45,0,0,0,.19,0,31,31,0,0,1,6.31-3,10.12,10.12,0,0,1,6.67.11.39.39,0,0,0,.3-.71,10.84,10.84,0,0,0-7.19-.13,31.318,31.318,0,0,0-6.47,3,.4.4,0,0,0-.15.54Z" fill="#49392b"/>
            <path id="Trazado_108419" data-name="Trazado 108419" d="M245.37,387.87a.39.39,0,0,0-.38.39.4.4,0,0,0,.39.38,2.38,2.38,0,0,1,1.84.78.41.41,0,0,0,.29.13.4.4,0,0,0,.26-.11.39.39,0,0,0,0-.54,3.17,3.17,0,0,0-2.4-1.03Z" fill="#49392b"/>
            <path id="Trazado_108420" data-name="Trazado 108420" d="M246.33,190.09c-2.58.47-5.18,1-7.74,1.67a.39.39,0,0,0,.1.76h.1c2.53-.65,5.11-1.2,7.68-1.66a.39.39,0,1,0-.14-.76Z" fill="#49392b"/>
            <path id="Trazado_108421" data-name="Trazado 108421" d="M245.82,302a.39.39,0,0,0-.39.37,115.49,115.49,0,0,1-4.71,28.71.4.4,0,0,0,.26.48h.11a.39.39,0,0,0,.37-.27,116.55,116.55,0,0,0,4.74-28.9.4.4,0,0,0-.38-.39Z" fill="#49392b"/>
            <path id="Trazado_108422" data-name="Trazado 108422" d="M245.52,394a7,7,0,0,0-3.24-.58.39.39,0,0,0-.37.4.38.38,0,0,0,.41.36,6.18,6.18,0,0,1,2.88.52h.16a.37.37,0,0,0,.35-.22.38.38,0,0,0-.19-.48Z" fill="#49392b"/>
            <path id="Trazado_108423" data-name="Trazado 108423" d="M233.61,246.22h.13a49.739,49.739,0,0,0,11.46-5.67.39.39,0,0,0,.11-.54.38.38,0,0,0-.54-.1,48.689,48.689,0,0,1-11.29,5.59.37.37,0,0,0-.23.48.38.38,0,0,0,.36.24Z" fill="#49392b"/>
            <path id="Trazado_108424" data-name="Trazado 108424" d="M234.87,243.32h0a5.65,5.65,0,0,0,3.65-1.55.385.385,0,1,0-.55-.54,4.86,4.86,0,0,1-3.15,1.33.39.39,0,0,0-.37.4.4.4,0,0,0,.42.36Z" fill="#49392b"/>
            <path id="Trazado_108425" data-name="Trazado 108425" d="M235.64,240.27a.33.33,0,0,0,.21-.07l.77-.51a.39.39,0,0,0,.11-.53.38.38,0,0,0-.53-.11l-.77.52a.38.38,0,0,0,.21.7Z" fill="#49392b"/>
            <path id="Trazado_108426" data-name="Trazado 108426" d="M234.57,296.77a1.234,1.234,0,0,1-1.9-.2.38.38,0,0,0-.68.34,1.86,1.86,0,0,0,1.5,1h.23a1.8,1.8,0,0,0,1.44-.66.381.381,0,0,0-.6-.47Z" fill="#49392b"/>
            <path id="Trazado_108427" data-name="Trazado 108427" d="M231.28,299.07a10.92,10.92,0,0,1-4.44-.9.39.39,0,1,0-.31.71,11.56,11.56,0,0,0,4.6,1h.16a.405.405,0,0,0-.01-.81Z" fill="#49392b"/>
            <path id="Trazado_108428" data-name="Trazado 108428" d="M208.89,200.05a.37.37,0,0,0,.52.15,26.61,26.61,0,0,1,11.51-3.42c-3.93,1.38-7.74,3.11-11.45,4.77a.387.387,0,0,0,.16.74h0A30.87,30.87,0,0,0,226.21,197a.39.39,0,0,0-.43-.64,30,30,0,0,1-14.12,5,107.4,107.4,0,0,1,11.86-4.68.39.39,0,0,0-.1-.75,27.36,27.36,0,0,0-14.42,3.6.37.37,0,0,0-.11.52Z" fill="#49392b"/>
            <path id="Trazado_108429" data-name="Trazado 108429" d="M212.85,247a.53.53,0,0,0,.17,0l3.09-1.51a.385.385,0,0,0-.34-.69l-3.08,1.51a.37.37,0,0,0-.18.51A.39.39,0,0,0,212.85,247Z" fill="#49392b"/>
            <path id="Trazado_108430" data-name="Trazado 108430" d="M216.13,276.2a.38.38,0,0,0-.52.14,56,56,0,0,0-4.74,10.54.4.4,0,0,0,.25.49h.12a.37.37,0,0,0,.36-.26,55.131,55.131,0,0,1,4.67-10.4.38.38,0,0,0-.14-.51Z" fill="#49392b"/>
            <path id="Trazado_108431" data-name="Trazado 108431" d="M211.8,277.24a.39.39,0,0,0-.55,0,12.23,12.23,0,0,0-2.61,5,.39.39,0,0,0,.28.47H209a.39.39,0,0,0,.38-.3,11.35,11.35,0,0,1,2.44-4.72.39.39,0,0,0-.02-.45Z" fill="#49392b"/>
            <path id="Trazado_108432" data-name="Trazado 108432" d="M208,274.09a.38.38,0,0,0-.47.27l-.53,2.05a.38.38,0,0,0,.27.47h.1a.37.37,0,0,0,.37-.29l.53-2a.38.38,0,0,0-.27-.5Z" fill="#49392b"/>
            <path id="Trazado_108433" data-name="Trazado 108433" d="M202.38,205.06a.38.38,0,0,0-.54-.1A22.16,22.16,0,0,1,191,208.69a87.42,87.42,0,0,1,8.65-3.82.386.386,0,0,0-.22-.74l-10,2.35a.4.4,0,0,0-.29.46.38.38,0,0,0,.47.28L194.9,206c-2,.87-3.88,1.8-5.76,2.8a.38.38,0,0,0-.2.43.39.39,0,0,0,.37.29h.23a22.88,22.88,0,0,0,12.74-3.91.38.38,0,0,0,.1-.55Z" fill="#49392b"/>
            <path id="Trazado_108434" data-name="Trazado 108434" d="M200.44,314.84l1,.26h.09a.37.37,0,0,0,.37-.29.39.39,0,0,0-.28-.47l-1-.26a.39.39,0,0,0-.47.28A.4.4,0,0,0,200.44,314.84Z" fill="#49392b"/>
            <path id="Trazado_108435" data-name="Trazado 108435" d="M188.69,332.7a2.811,2.811,0,0,0,.71.08,3.45,3.45,0,0,0,2.54-1.11.38.38,0,1,0-.56-.51,2.69,2.69,0,0,1-2.53.79.4.4,0,0,0-.46.29.39.39,0,0,0,.3.46Z" fill="#49392b"/>
            <path id="Trazado_108436" data-name="Trazado 108436" d="M191.32,334a.39.39,0,0,0,0,.77h.51a.39.39,0,0,0,0-.77Z" fill="#49392b"/>
            <path id="Trazado_108437" data-name="Trazado 108437" d="M177.8,227.3a.09.09,0,0,1,.1,0,.39.39,0,0,0,.33.18.41.41,0,0,0,.2-.06.39.39,0,0,0,.12-.53.86.86,0,0,0-1.38,0,.39.39,0,0,0,.63.45Z" fill="#49392b"/>
            <path id="Trazado_108438" data-name="Trazado 108438" d="M172.24,351.4l1.3.47a.27.27,0,0,0,.13,0,.38.38,0,0,0,.13-.74l-1.3-.47a.383.383,0,1,0-.26.72Z" fill="#49392b"/>
            <path id="Trazado_108439" data-name="Trazado 108439" d="M169.79,353.32a6.5,6.5,0,0,1,3.6,1.39.37.37,0,0,0,.24.08.38.38,0,0,0,.24-.68,7.34,7.34,0,0,0-4-1.56.387.387,0,0,0-.08.77Z" fill="#49392b"/>
            <path id="Trazado_108440" data-name="Trazado 108440" d="M167.65,304.32a.36.36,0,0,0,.35.25h.14a.4.4,0,0,0,.23-.5L167.6,302a.384.384,0,1,0-.72.27Z" fill="#49392b"/>
            <path id="Trazado_108441" data-name="Trazado 108441" d="M166.11,306a.39.39,0,0,0,.53.08.38.38,0,0,0,.09-.53,12.42,12.42,0,0,0-2-2.19.383.383,0,0,0-.5.58,12.452,12.452,0,0,1,1.88,2.06Z" fill="#49392b"/>
            <path id="Trazado_108442" data-name="Trazado 108442" d="M133.17,250.86h.05a8.91,8.91,0,0,0,4.5-1.63.78.78,0,0,0,.17-1.08.77.77,0,0,0-1.07-.18,7.23,7.23,0,0,1-3.72,1.36.77.77,0,0,0,.07,1.53Z" fill="#49392b"/>
            <path id="Trazado_108443" data-name="Trazado 108443" d="M122.27,392.19a10.33,10.33,0,0,1-3-1.46.38.38,0,1,0-.44.62,11.449,11.449,0,0,0,3.19,1.58h.11a.38.38,0,0,0,.12-.75Z" fill="#49392b"/>
            <path id="Trazado_108444" data-name="Trazado 108444" d="M77.71,253.34a1,1,0,0,1,1.1.35.37.37,0,0,0,.3.15.4.4,0,0,0,.24-.07.39.39,0,0,0,.07-.54,1.8,1.8,0,0,0-2-.62.39.39,0,0,0,.25.73Z" fill="#49392b"/>
            <path id="Trazado_108445" data-name="Trazado 108445" d="M69.38,324.55a.38.38,0,0,0-.39.38v1a.39.39,0,1,0,.77,0v-1A.38.38,0,0,0,69.38,324.55Z" fill="#49392b"/>
            <path id="Trazado_108446" data-name="Trazado 108446" d="M66.73,323a.39.39,0,0,0-.37.39l.07,2a.39.39,0,0,0,.39.37h0a.38.38,0,0,0,.37-.4l-.07-2A.39.39,0,0,0,66.73,323Z" fill="#49392b"/>
            <path id="Trazado_108447" data-name="Trazado 108447" d="M58.59,301.08a2,2,0,0,1-1.28-.32.39.39,0,0,0-.53.11.37.37,0,0,0,.11.53,2.68,2.68,0,0,0,1.5.46h.27a.38.38,0,0,0,.35-.42.39.39,0,0,0-.42-.36Z" fill="#49392b"/>
          </g>
        </g>
      </g>
    </g>
  </g>
</svg>
