<svg xmlns="http://www.w3.org/2000/svg" width="335" height="288.027" viewBox="0 0 335 288.027">
  <g id="Grupo_55729" data-name="Grupo 55729" transform="translate(-949 -7146)">
    <g id="CF1_1.5_derechos_3" data-name="CF1_1.5 derechos 3" transform="translate(934.8 7068.441)">
      <g id="Layer_1" data-name="Layer 1" transform="translate(14.2 77.559)">
        <g id="Grupo_54472" data-name="Grupo 54472">
          <g id="Grupo_54416" data-name="Grupo 54416" transform="translate(218.588 87.766)">
            <path id="Trazado_103990" data-name="Trazado 103990" d="M340.6,213.7s-5.422.837-9.68-1.7c-2.037-1.214-5.195-3.094-5.493-3.882-.156-.419,1.419,0,1.767.114l3.073.8a27.366,27.366,0,0,0-6.983-2.129c-.39-.071-.5-.6-.149-.71a8.507,8.507,0,0,1,6.614.852,9.283,9.283,0,0,0-6.927-1.689c-.986.135-.532-.667-.341-.809,3.336-2.6,7.658.121,7.658.121a28.693,28.693,0,0,0-6.905-1.611.291.291,0,0,1-.128-.532c1.654-1.036,5.834-2.356,17.352,3.846C341.782,212.959,340.6,213.7,340.6,213.7Z" transform="translate(-322.206 -201.347)" fill="#ffab6d"/>
            <path id="Trazado_103991" data-name="Trazado 103991" d="M343.749,205.729s-7.154-4.932-9.325-4.471-1.462,1.036-.348,1.576,5.486,5.039,5.486,5.039Z" transform="translate(-325.344 -201.227)" fill="#ffab6d"/>
          </g>
          <g id="Grupo_54471" data-name="Grupo 54471">
            <g id="Grupo_54421" data-name="Grupo 54421" transform="translate(0 27.721)">
              <g id="Grupo_54418" data-name="Grupo 54418" transform="translate(0 0.745)">
                <g id="Grupo_54417" data-name="Grupo 54417" transform="translate(2.711 0.454)">
                  <rect id="Rectángulo_5593" data-name="Rectángulo 5593" width="3.002" height="227.341" fill="#a6aa91"/>
                  <rect id="Rectángulo_5594" data-name="Rectángulo 5594" width="3.002" height="227.341" transform="translate(69.613)" fill="#a6aa91"/>
                </g>
                <rect id="Rectángulo_5595" data-name="Rectángulo 5595" width="78.427" height="3.25" fill="#a6aa91"/>
                <rect id="Rectángulo_5596" data-name="Rectángulo 5596" width="69.613" height="3.25" transform="translate(3.456 44.724)" fill="#a6aa91"/>
              </g>
              <g id="Grupo_54419" data-name="Grupo 54419" transform="translate(6.641 44.455)">
                <path id="Trazado_103992" data-name="Trazado 103992" d="M97.9,179.26H72.462l-6.174,48.259a3.485,3.485,0,0,0,3.79,3.917c7.473-.71,21.887-3.761,20.162-16.323-2.314-16.919,13.768-27.678,9.226-35.484Z" transform="translate(-35.955 -179.26)" fill="#fec1c0"/>
                <path id="Trazado_103993" data-name="Trazado 103993" d="M75.936,179.26H50.465L44.3,227.519a3.485,3.485,0,0,0,3.79,3.917c7.48-.71,21.88-3.761,20.155-16.323-2.314-16.919,13.768-27.678,9.261-35.484Z" transform="translate(-29.571 -179.26)" fill="#f9f2d7"/>
                <path id="Trazado_103994" data-name="Trazado 103994" d="M55.424,179.26H29.968l-6.387,49.8A2.228,2.228,0,0,0,26,231.592c6.742-.44,23.647-2.9,21.787-16.479-2.314-16.919,13.768-27.678,9.261-35.484Z" transform="translate(-23.558 -179.26)" fill="#ff7f42"/>
              </g>
              <g id="Grupo_54420" data-name="Grupo 54420" transform="translate(4.801)">
                <path id="Trazado_103995" data-name="Trazado 103995" d="M103.4,116.62H75.067L68.09,176.368a3.492,3.492,0,0,0,3.8,3.882c8.147-.788,24.931-4.3,22.973-19.978-2.576-20.581,15.322-33.753,10.3-43.241Z" transform="translate(-34.639 -116.62)" fill="#e6efe4"/>
                <path id="Trazado_103996" data-name="Trazado 103996" d="M78.931,116.62H50.6l-7.019,60.118a3.194,3.194,0,0,0,3.456,3.548c7.991-.71,25.343-4.088,23.356-20.013-2.576-20.581,15.315-33.753,10.3-43.241Z" transform="translate(-27.525 -116.62)" fill="#0d7657"/>
                <path id="Trazado_103997" data-name="Trazado 103997" d="M56.24,116.62H27.909L20.99,176.028a3.776,3.776,0,0,0,4.137,4.187c8.282-.859,24.52-4.507,22.6-19.942-2.576-20.581,15.315-33.753,10.3-43.241Z" transform="translate(-20.965 -116.62)" fill="#eae4cc"/>
              </g>
            </g>
            <g id="Grupo_54442" data-name="Grupo 54442" transform="translate(124.962 42.76)">
              <g id="Grupo_54427" data-name="Grupo 54427" transform="translate(1.221 87.618)">
                <rect id="Rectángulo_5597" data-name="Rectángulo 5597" width="68.719" height="124.131" transform="translate(135.848)" fill="#6c6f58"/>
                <g id="Grupo_54426" data-name="Grupo 54426">
                  <rect id="Rectángulo_5598" data-name="Rectángulo 5598" width="68.719" height="124.997" fill="#6c6f58"/>
                  <g id="Grupo_54425" data-name="Grupo 54425" transform="translate(8.41 6.941)">
                    <g id="Grupo_54422" data-name="Grupo 54422">
                      <rect id="Rectángulo_5599" data-name="Rectángulo 5599" width="51.899" height="25.222" fill="#a6aa91"/>
                      <path id="Trazado_103998" data-name="Trazado 103998" d="M253.638,294.043H208.551a.241.241,0,0,1-.241-.241V274.541a.241.241,0,0,1,.241-.241h45.086a.241.241,0,0,1,.241.241V293.8a.241.241,0,0,1-.241.241Zm-44.838-.483h44.59V274.8H208.8Z" transform="translate(-205.145 -271.994)" fill="#d1ddcf"/>
                      <path id="Trazado_103999" data-name="Trazado 103999" d="M238.722,287.4a4.145,4.145,0,1,1,4.137-4.137A4.145,4.145,0,0,1,238.722,287.4Zm0-7.807a3.648,3.648,0,1,1,0,.014Z" transform="translate(-212.768 -273.39)" fill="#d1ddcf"/>
                    </g>
                    <g id="Grupo_54423" data-name="Grupo 54423" transform="translate(0 33.142)">
                      <rect id="Rectángulo_5600" data-name="Rectángulo 5600" width="51.899" height="25.222" fill="#a6aa91"/>
                      <path id="Trazado_104000" data-name="Trazado 104000" d="M253.638,340.741H208.551a.241.241,0,0,1-.241-.241V321.238a.248.248,0,0,1,.241-.248h45.086a.248.248,0,0,1,.241.248V340.5a.241.241,0,0,1-.241.241Zm-44.838-.49h44.59V321.48H208.8Z" transform="translate(-205.145 -318.691)" fill="#d1ddcf"/>
                      <path id="Trazado_104001" data-name="Trazado 104001" d="M238.722,334.1a4.145,4.145,0,1,1,4.137-4.145,4.145,4.145,0,0,1-4.137,4.145Zm0-7.807a3.651,3.651,0,1,1,0,.007Z" transform="translate(-212.768 -320.09)" fill="#d1ddcf"/>
                    </g>
                    <g id="Grupo_54424" data-name="Grupo 54424" transform="translate(0 66.278)">
                      <rect id="Rectángulo_5601" data-name="Rectángulo 5601" width="51.899" height="25.222" fill="#a6aa91"/>
                      <path id="Trazado_104002" data-name="Trazado 104002" d="M253.638,387.432H208.551a.248.248,0,0,1-.241-.248V367.9a.248.248,0,0,1,.241-.241h45.086a.241.241,0,0,1,.241.241v19.261a.248.248,0,0,1-.241.27Zm-44.838-.49h44.59V368.171H208.8Z" transform="translate(-205.145 -365.375)" fill="#d1ddcf"/>
                      <path id="Trazado_104003" data-name="Trazado 104003" d="M238.722,380.8a4.145,4.145,0,1,1,4.137-4.145A4.145,4.145,0,0,1,238.722,380.8Zm0-7.807a3.651,3.651,0,1,1,0,.007Z" transform="translate(-212.768 -366.783)" fill="#f9f2d7"/>
                    </g>
                  </g>
                </g>
              </g>
              <g id="Grupo_54441" data-name="Grupo 54441">
                <rect id="Rectángulo_5602" data-name="Rectángulo 5602" width="208.868" height="6.103" transform="translate(0.007 84.19)" fill="#a6aa91"/>
                <path id="Trazado_104004" data-name="Trazado 104004" d="M190.28,238.583l209.322-.412-18.069-42.432-177.216-.809Z" transform="translate(-190.28 -154.393)" fill="#d2d4c8"/>
                <g id="Grupo_54429" data-name="Grupo 54429" transform="translate(16.616 64.503)">
                  <g id="Grupo_54428" data-name="Grupo 54428">
                    <path id="Trazado_104005" data-name="Trazado 104005" d="M255.127,232.253A29.17,29.17,0,0,0,248.74,234l-.241.1-1.611.653-1.419.575s-1.313,5.308-5.181,4.741l-.291-.05h-.085l-.319-.078-.177-.05-.575-.192-.1-.043c-.27-.1-.539-.213-.823-.341l-.106-.05-.185-.085-.078-.035-.17-.078-.49-.241-.128-.064-1.228-.653-.334-.185-.951-.539-.135-.078-.461-.27-.206-.114-.128-.078-.185-.106-.277-.156-1.27-.71-.277-.156-.625-.355-.156-.092-.213-.121-.284-.156-.837-.454-.142-.071-.71-.355-.412-.2-.27-.128-.128-.064-.135-.064-.135-.064-.135-.057-.128-.057-.135-.057c-.22-.1-.433-.185-.646-.27l-.114-.043-.511-.185-.128-.043c-.227-.078-.447-.142-.667-.2h-.1l-.447-.106h-.078l-.22-.043a19.147,19.147,0,0,0-9.283-3.357v.05a.131.131,0,0,1-.05.121v.185c0,.064-.057.135-.078.2l-.043.114V230a6.31,6.31,0,0,0-.185.653.2.2,0,0,1-.035.142h0v.128a.383.383,0,0,1-.035.185v.128a.554.554,0,0,0,0,.114h0a.787.787,0,0,0,0,.121h0v.142h0a1.054,1.054,0,0,0,0,.149h0a1.065,1.065,0,0,0,0,.156h0v1.32a.862.862,0,0,0,.05.348c.05.121,0,.114,0,.177l.043.177v.263a.525.525,0,0,0,0,.1,1.042,1.042,0,0,0,.078.27,2,2,0,0,0,.071.22,8.977,8.977,0,0,0,1.143,2.25s.44.5,1.171,1.377a5.273,5.273,0,0,0,6.962,1h0a.468.468,0,0,1,.163-.121h.05l.376-.248.057.085a6.647,6.647,0,0,1,.667-.22h0c1.327-.355,2.555-.227,4.443.965l.305.2h0l.156.106.135.1c1.121.823,2.3,2.385,3.776,3.7,2.065,1.845,4.719,3.215,8.594,1.419,6.763-3.158,14.073-10.3,14.194-12.405h0C256.653,232.381,256.021,232.2,255.127,232.253Z" transform="translate(-213.854 -228.839)" fill="#ff1715"/>
                    <path id="Trazado_104006" data-name="Trazado 104006" d="M246.734,234.686c-.66,4.386-4.407,8.268-9.439,7.587a3.911,3.911,0,0,1-.71-.121,10.944,10.944,0,0,1-2.278-.8c-.277-.121-.554-.263-.837-.4-1.036-.539-2.129-1.192-3.158-1.866-3.726-2.349-7.544-4.925-10.922-3.776a6.231,6.231,0,0,1-5.188-.568,6.979,6.979,0,0,1-.234-.852c-.823-3.811.468-4.854.468-4.854a18.845,18.845,0,0,1,9.368,3.364c2.569.383,6.068,2.47,9.339,4.365,2.69,1.561,5.223,2.988,6.969,3.243,3.868.568,5.181-4.741,5.181-4.741Z" transform="translate(-213.693 -228.796)" fill="#f66"/>
                    <path id="Trazado_104007" data-name="Trazado 104007" d="M223.873,232.319a23.214,23.214,0,0,0-8.275-3.47,1.421,1.421,0,0,1-.312-.057c-.468-.078-.71-.092-.71-.092s-1.348,1.3-.525,5.11a6.281,6.281,0,0,0,5.167-.248c3.165-1.646,7.352.312,11.4,2.058.88.376,1.76.745,2.612,1.065C229.92,234.789,226.421,232.7,223.873,232.319Z" transform="translate(-213.72 -228.7)" fill="#ff8585"/>
                  </g>
                  <path id="Trazado_104008" data-name="Trazado 104008" d="M267.395,233.51a10.468,10.468,0,0,1-1.973,2.967c-3.9,4.5-11.518,10.106-8.027,6.153a22.876,22.876,0,0,0,1.512-1.909c1.8-2.576,1.994-4.357,1.866-5.365l.241-.1A29.069,29.069,0,0,1,267.395,233.51Z" transform="translate(-226.122 -230.096)" fill="#ff3e3e"/>
                </g>
                <g id="Grupo_54437" data-name="Grupo 54437" transform="translate(23.881)">
                  <g id="Grupo_54430" data-name="Grupo 54430" transform="translate(9.545 0.823)">
                    <path id="Trazado_104009" data-name="Trazado 104009" d="M271.459,154.476a18.232,18.232,0,0,1-5.1-.71l-27.834-8.09a1.583,1.583,0,0,1,.248-3.094l27.316-3.385a30.424,30.424,0,0,1,13.165,1.277l14.378,4.712a1.5,1.5,0,0,1,.326.149l6.444,3.917a1.587,1.587,0,0,1-.71,2.931l-26.705,2.228Q272.225,154.476,271.459,154.476Zm-24.669-9.694,20.453,5.926a15.088,15.088,0,0,0,5.486.546l21.865-1.824-2.129-1.292-14.194-4.656a27.3,27.3,0,0,0-11.788-1.143Z" transform="translate(-237.379 -138.969)" fill="#9e9282"/>
                    <path id="Trazado_104010" data-name="Trazado 104010" d="M264.212,150.317a1.576,1.576,0,0,1-1.483-2.129l2.569-6.735a1.584,1.584,0,1,1,2.959,1.128l-2.569,6.735A1.575,1.575,0,0,1,264.212,150.317Z" transform="translate(-244.709 -139.394)" fill="#9e9282"/>
                    <path id="Trazado_104011" data-name="Trazado 104011" d="M281.118,154.521h-.185a1.6,1.6,0,0,1-1.178-.759l-6.849-11.454a1.585,1.585,0,0,1,2.718-1.632l5.819,9.694,7.849-8.019a1.583,1.583,0,0,1,2.264,2.214l-9.283,9.481a1.583,1.583,0,0,1-1.157.475Z" transform="translate(-247.628 -139.241)" fill="#9e9282"/>
                  </g>
                  <rect id="Rectángulo_5603" data-name="Rectángulo 5603" width="3.761" height="13.967" rx="0.75" transform="translate(9.972 4.954) rotate(0.13)" fill="#9e9282"/>
                  <g id="Grupo_54431" data-name="Grupo 54431" transform="translate(7.424 34.726)">
                    <rect id="Rectángulo_5604" data-name="Rectángulo 5604" width="8.793" height="1.419" transform="translate(0.003 0) rotate(0.13)" fill="#6c6f58"/>
                    <rect id="Rectángulo_5605" data-name="Rectángulo 5605" width="2.058" height="6.025" rx="0.7" transform="translate(3.481 0.928) rotate(0.12)" fill="#6c6f58"/>
                    <rect id="Rectángulo_5606" data-name="Rectángulo 5606" width="0.284" height="3.832" transform="translate(4.711 5.875)" fill="#6c6f58"/>
                  </g>
                  <path id="Trazado_104012" data-name="Trazado 104012" d="M247.665,152.562a10.027,10.027,0,0,0,2.356,2.8,12.923,12.923,0,0,0,11.284,2.8l21.794-4.847a27.047,27.047,0,0,1,6-.653l16.82.035v12.831s-24.42-1.05-38.94-.9a45.377,45.377,0,0,0-14.9,2.683l-2.016.71-1.717,4.6H244.23l.043-20.141Z" transform="translate(-229.823 -142.066)" fill="#6c6f58"/>
                  <path id="Trazado_104013" data-name="Trazado 104013" d="M292.859,209.344c.121.255.241.5.369.71h6.387v-10.73l-50.565-.114a5.28,5.28,0,0,0,4.826,3.7C264.273,203.61,291.177,205.654,292.859,209.344Z" transform="translate(-231.223 -155.635)" fill="#9e9282"/>
                  <path id="Trazado_104014" data-name="Trazado 104014" d="M331.144,177.479l-.575,3.186H312.38l1.377-20.907a5.223,5.223,0,0,1,1.476-3.336L316.61,155a7.175,7.175,0,0,1,4.428-2.129l2.839-.277a6.309,6.309,0,0,1,5.784,2.647h0a5.734,5.734,0,0,1,.986,4.017l-1.3,10.134Z" transform="translate(-249.608 -142.094)" fill="#877d6e"/>
                  <g id="Grupo_54435" data-name="Grupo 54435" transform="translate(54.128)">
                    <g id="Grupo_54434" data-name="Grupo 54434" transform="translate(0.213 0.192)">
                      <g id="Grupo_54432" data-name="Grupo 54432">
                        <path id="Trazado_104015" data-name="Trazado 104015" d="M318.767,138.08a18.225,18.225,0,1,0,18.182,18.267,18.225,18.225,0,0,0-18.182-18.267Zm-.071,32.475a14.251,14.251,0,1,1,14.286-14.194A14.251,14.251,0,0,1,318.7,170.555Z" transform="translate(-300.5 -138.08)" fill="#666052"/>
                        <path id="Trazado_104016" data-name="Trazado 104016" d="M329.493,161.484a5.607,5.607,0,1,1-5.592-5.614,5.607,5.607,0,0,1,5.592,5.614Z" transform="translate(-305.662 -143.245)" fill="#666052"/>
                      </g>
                      <g id="Grupo_54433" data-name="Grupo 54433" transform="translate(3.569 2.239)">
                        <rect id="Rectángulo_5607" data-name="Rectángulo 5607" width="3.123" height="31.978" transform="translate(27.73 6.667) rotate(60.13)" fill="#666052"/>
                        <rect id="Rectángulo_5608" data-name="Rectángulo 5608" width="3.123" height="31.978" transform="translate(13.13 0) rotate(0.13)" fill="#666052"/>
                        <rect id="Rectángulo_5609" data-name="Rectángulo 5609" width="3.123" height="31.978" transform="translate(0.053 9.318) rotate(-59.87)" fill="#666052"/>
                      </g>
                    </g>
                    <path id="Trazado_104017" data-name="Trazado 104017" d="M318.6,174.572h-.043a18.381,18.381,0,0,1,.043-36.762h.043a18.381,18.381,0,1,1-.043,36.762Zm0-33.469a15.088,15.088,0,0,0-.035,30.176h.035a15.1,15.1,0,0,0,15.1-15.052h0a15.109,15.109,0,0,0-15.06-15.123Z" transform="translate(-300.2 -137.81)" fill="#7a715e"/>
                    <path id="Trazado_104018" data-name="Trazado 104018" d="M328.319,162.086a3.619,3.619,0,1,1-3.612-3.626,3.619,3.619,0,0,1,3.612,3.626Z" transform="translate(-306.262 -143.805)" fill="#6c6f58"/>
                    <rect id="Rectángulo_5610" data-name="Rectángulo 5610" width="0.639" height="9.716" transform="translate(21.348 15) rotate(45.12)" fill="#666052"/>
                  </g>
                  <path id="Trazado_104019" data-name="Trazado 104019" d="M298.992,213.752a19.268,19.268,0,0,1,11.568-4.081c6.99-.156,9.034,2.959,9.552,4.123h4.755l.05-21.766L307.061,192v4.258c.433,9.361-5.067,10.269-5.067,10.269-6.87,1.419-8.332,5.152-8.594,7.21Z" transform="translate(-244.098 -153.542)" fill="#877d6e"/>
                  <path id="Trazado_104020" data-name="Trazado 104020" d="M332.239,195.315a1.065,1.065,0,1,1-1.065-1.065A1.064,1.064,0,0,1,332.239,195.315Z" transform="translate(-254.756 -154.195)" fill="#6c6f58"/>
                  <rect id="Rectángulo_5611" data-name="Rectángulo 5611" width="10.425" height="25.031" rx="0.74" transform="translate(6.704 9.694) rotate(0.13)" fill="#6c6f58"/>
                  <path id="Trazado_104021" data-name="Trazado 104021" d="M0,0H15.883V3.832H1.6A1.6,1.6,0,0,1,0,2.228V.007Z" transform="translate(7.337 43.59) rotate(0.13)" fill="#877d6e"/>
                  <g id="Grupo_54436" data-name="Grupo 54436" transform="translate(10.475 5.656)">
                    <path id="Trazado_104022" data-name="Trazado 104022" d="M240.961,146.915a1.135,1.135,0,1,1-1.135-1.135A1.136,1.136,0,0,1,240.961,146.915Z" transform="translate(-238.69 -145.78)" fill="#6c6f58"/>
                    <path id="Trazado_104023" data-name="Trazado 104023" d="M240.131,148.016h0a.234.234,0,0,1-.241-.248v-1.419a.248.248,0,0,1,.248-.248h0a.248.248,0,0,1,.248.248v1.419a.241.241,0,0,1-.256.248Z" transform="translate(-239.038 -145.873)" fill="#9e9282"/>
                  </g>
                  <path id="Trazado_104024" data-name="Trazado 104024" d="M223.93,199.14c.937,1.838,4.386,7.565,11.4,8.119,8.353.66,7.175,17.323,13.179,14.5,5.812-2.732.4-21.454.05-22.618Z" transform="translate(-223.93 -155.615)" fill="#ff3e3e"/>
                </g>
                <path id="Trazado_104025" data-name="Trazado 104025" d="M342.531,154.215l-16,6a1.15,1.15,0,0,1-1.483-.71h0a1.164,1.164,0,0,1,.674-1.483l16-6a1.157,1.157,0,0,1,1.483.71h0a1.15,1.15,0,0,1-.674,1.483Z" transform="translate(-229.386 -141.916)" fill="#6c6f58"/>
                <g id="Grupo_54440" data-name="Grupo 54440" transform="translate(111.162 8.289)">
                  <g id="Grupo_54438" data-name="Grupo 54438" transform="translate(0 0.185)">
                    <path id="Trazado_104026" data-name="Trazado 104026" d="M353.061,149.75v5.521c-.27-.128-.532-.241-.788-.348a11.739,11.739,0,0,0-1.845-.6,5.159,5.159,0,0,0-.6-.106h-.355v-3.364a6.813,6.813,0,0,0,.958-.142h.1a11.889,11.889,0,0,0,2.037-.71Z" transform="translate(-347.657 -149.75)" fill="#e39b9b"/>
                    <path id="Trazado_104027" data-name="Trazado 104027" d="M350.41,152.961a1.781,1.781,0,0,1-.05.39,1.71,1.71,0,0,1-1.256,1.256h-.071a1.419,1.419,0,0,1-.305,0,1.7,1.7,0,1,1,0-3.4h0a1.639,1.639,0,0,1,.788.2,1.682,1.682,0,0,1,.852,1.114A1.42,1.42,0,0,1,350.41,152.961Z" transform="translate(-346.915 -150.172)" fill="#e39b9b"/>
                  </g>
                  <g id="Grupo_54439" data-name="Grupo 54439" transform="translate(3.417)">
                    <path id="Trazado_104028" data-name="Trazado 104028" d="M357.691,152.478a2.981,2.981,0,1,1-2.974-2.988,2.981,2.981,0,0,1,2.974,2.988Z" transform="translate(-351.73 -149.49)" fill="#e06c1e"/>
                    <path id="Trazado_104029" data-name="Trazado 104029" d="M356.853,153.058a1.561,1.561,0,1,1-1.554-1.568A1.561,1.561,0,0,1,356.853,153.058Z" transform="translate(-352.311 -150.071)" fill="#8e3624"/>
                    <path id="Trazado_104030" data-name="Trazado 104030" d="M356.685,153.175a1.277,1.277,0,1,1-1.27-1.285,1.277,1.277,0,0,1,1.27,1.285Z" transform="translate(-352.427 -150.187)" fill="#1a091b"/>
                  </g>
                  <path id="Trazado_104031" data-name="Trazado 104031" d="M353.234,152.8a.5.5,0,1,1-.5-.5.5.5,0,0,1,.5.5Z" transform="translate(-348.461 -150.306)" fill="#ed823a"/>
                  <path id="Trazado_104032" data-name="Trazado 104032" d="M353.456,154.2a.206.206,0,0,1-.213.206.213.213,0,1,1,.213-.213Z" transform="translate(-348.69 -150.793)" fill="#ed823a"/>
                  <path id="Trazado_104033" data-name="Trazado 104033" d="M349.107,154.551h-.064a1.419,1.419,0,0,1-.305,0,1.7,1.7,0,1,1,0-3.4h0a6.814,6.814,0,0,0,.958-.142h.1C347.5,151.762,348.561,154.317,349.107,154.551Z" transform="translate(-346.918 -149.931)" fill="#bf550c"/>
                </g>
              </g>
            </g>
            <g id="Grupo_54467" data-name="Grupo 54467" transform="translate(218.953)">
              <g id="Grupo_54464" data-name="Grupo 54464">
                <g id="Grupo_54463" data-name="Grupo 54463">
                  <g id="Grupo_54461" data-name="Grupo 54461">
                    <g id="Grupo_54459" data-name="Grupo 54459" transform="translate(0 7.215)">
                      <g id="Grupo_54444" data-name="Grupo 54444" transform="translate(72.35)">
                        <g id="Grupo_54443" data-name="Grupo 54443" transform="translate(9.789 8.335)">
                          <path id="Trazado_104034" data-name="Trazado 104034" d="M438.81,105.609v.93c0,.994.05,3.009.17,7.033.071,2.328.17,5.316.305,9.169h0q.085,2.314.185,5.053c.092,2.37.192,4.968.312,7.885a5.088,5.088,0,0,0,4.123,4.8c4.819.887,8.821-1.419,11.234-3.406a5.017,5.017,0,0,0,1.675-5.237l-5.436-19.467-1.128-4.01-.5-1.788L448,100.3l-.234-.83-.326.227-7.395,5.06Z" transform="translate(-438.562 -99.47)" fill="#ffab6d"/>
                          <path id="Trazado_104035" data-name="Trazado 104035" d="M438.46,107.1c0,.972.071,2.931.213,6.834.092,2.257.213,5.167.369,8.907h0c2.5.71,5.585.135,8.126-4.535a19.317,19.317,0,0,0,2.491-9.339,10.283,10.283,0,0,0-.057-1.334,13.547,13.547,0,0,0-1.625-5.642,6.557,6.557,0,0,0-.582-.866,4.1,4.1,0,0,0-.546-.6,1.788,1.788,0,0,0-1.008-.518c-1.043-.071-3.7,2.051-6.188,5.379A17.589,17.589,0,0,0,438.46,107.1Z" transform="translate(-438.46 -99.626)" fill="#ff7f42"/>
                        </g>
                        <path id="Trazado_104036" data-name="Trazado 104036" d="M428.643,92.221s-7.629,19.516-1.753,20.879c7.459,1.739,14.7.646,17.813-6.217,1.519-3.364.845-10.2.27-14.194a5.152,5.152,0,0,0-3.747-4.223C437.316,87.4,430.964,86.678,428.643,92.221Z" transform="translate(-424.667 -87.725)" fill="#ffab6d"/>
                      </g>
                      <g id="Grupo_54458" data-name="Grupo 54458" transform="translate(0 26.453)">
                        <g id="Grupo_54446" data-name="Grupo 54446" transform="translate(62.2 175.775)">
                          <path id="Trazado_104037" data-name="Trazado 104037" d="M425.66,373.2l1,3.7,7.452,31.6,5.33,22.625,3.925,16.628,16.72-7.217-.972-8.3L455.3,399.776l-3.179-27.1Z" transform="translate(-414.806 -372.68)" fill="#ffab6d"/>
                          <g id="Grupo_54445" data-name="Grupo 54445" transform="translate(0 56.619)">
                            <path id="Trazado_104038" data-name="Trazado 104038" d="M433.114,452.46l-3.328,6.515s-15.94,4-17.82,7.26-1.583,7.9-1.583,7.9l46.513-.915-.71-13.349-19.076-1.7Z" transform="translate(-410.366 -452.46)" fill="#50564e"/>
                            <path id="Trazado_104039" data-name="Trazado 104039" d="M444.987,467.832a.163.163,0,0,1-.114-.043l-7.494-6.075a.185.185,0,0,1,0-.255.192.192,0,0,1,.263,0l7.459,6.047a.185.185,0,0,1,0,.255.2.2,0,0,1-.114.071Z" transform="translate(-418.193 -455.057)" fill="#bdd1b8"/>
                            <path id="Trazado_104040" data-name="Trazado 104040" d="M436.654,469.754a.178.178,0,0,1-.128-.057l-6.543-6.55a.185.185,0,0,1,.255-.263l6.579,6.55a.19.19,0,0,1-.163.319Z" transform="translate(-416.049 -455.475)" fill="#bdd1b8"/>
                          </g>
                          <path id="Trazado_104041" data-name="Trazado 104041" d="M437.57,421.282l5.33,22.625,19.751,5.245-3.811-32.461Z" transform="translate(-418.263 -385.457)" fill="#ff7f42"/>
                        </g>
                        <path id="Trazado_104042" data-name="Trazado 104042" d="M418.49,315.61c1.356,17.032,5.067,58.9,6.692,77.2,2.874,1.725,7.274,2.9,12.292,3.548,9.559,1.256,21.347.639,29.1-1.5,0-1.384-5.394-74.141-5.337-75.106,1.831-28.629,2.008-56.526-6.891-63.95-9.148-7.622-21.709-4.968-21.709-4.968S430.285,273.412,418.49,315.61Z" transform="translate(-350.524 -161.402)" fill="#dde1c8"/>
                        <path id="Trazado_104043" data-name="Trazado 104043" d="M418.49,315.6c1.356,17.032,5.067,58.9,6.692,77.2,2.874,1.725,7.274,2.9,12.292,3.548l14.492-103.4,2.37-37.166c-9.148-7.622-21.709-4.968-21.709-4.968S430.285,273.406,418.49,315.6Z" transform="translate(-350.524 -161.397)" fill="#aaa281"/>
                        <g id="Grupo_54448" data-name="Grupo 54448" transform="translate(30.084 195.824)">
                          <path id="Trazado_104044" data-name="Trazado 104044" d="M413.114,414.3l-1.469-13.37H387.53l4.237,18.608,4.343,19.055,4.088,17.934,16.777-7.09-.483-4.4Z" transform="translate(-371.62 -400.93)" fill="#ffab6d"/>
                          <g id="Grupo_54447" data-name="Grupo 54447" transform="translate(0 37.095)">
                            <path id="Trazado_104045" data-name="Trazado 104045" d="M388.019,453.2l-3.385,6.494s-15.961,3.875-17.87,7.1-1.639,7.849-1.639,7.849l46.52-.561-.6-13.356L392,458.913Z" transform="translate(-365.112 -453.2)" fill="#373a36"/>
                            <path id="Trazado_104046" data-name="Trazado 104046" d="M399.887,468.591a.177.177,0,0,1-.114-.043l-7.445-6.125a.185.185,0,0,1,0-.255.192.192,0,0,1,.263,0l7.445,6.132a.185.185,0,0,1-.121.319Z" transform="translate(-372.998 -455.789)" fill="#bdd1b8"/>
                            <path id="Trazado_104047" data-name="Trazado 104047" d="M391.465,470.451a.192.192,0,0,1-.128-.057l-6.529-6.6a.177.177,0,0,1,0-.255.192.192,0,0,1,.263,0l6.529,6.6a.177.177,0,0,1,0,.255A.192.192,0,0,1,391.465,470.451Z" transform="translate(-370.814 -456.186)" fill="#bdd1b8"/>
                          </g>
                          <path id="Trazado_104048" data-name="Trazado 104048" d="M393.5,424.389l4.343,19.055,20.382,6.444-3.378-30.736-.447-1.512Z" transform="translate(-373.353 -405.781)" fill="#ff7f42"/>
                        </g>
                        <path id="Trazado_104049" data-name="Trazado 104049" d="M448.024,258.437c-.092,1.043-.887,18.821-6.777,32.78S421.29,393.774,418.217,396s-34.356-3.037-41.687-12.9c3.861-17.494,31.588-114.259,31.588-114.259l1.171-14.364Z" transform="translate(-338.342 -162.587)" fill="#dde1c8"/>
                        <g id="Grupo_54451" data-name="Grupo 54451" transform="translate(21.614 25.208)">
                          <g id="Grupo_54450" data-name="Grupo 54450" transform="translate(0.641 2.638)">
                            <g id="Grupo_54449" data-name="Grupo 54449" transform="translate(12.81 3.686)">
                              <path id="Trazado_104050" data-name="Trazado 104050" d="M373.2,169.43l-1.072,8.516S405,200.273,423.724,206.561c8.559,2.839,14.194,2.4,12.349-5.081a33.858,33.858,0,0,1-.93-7.516c-.156-8.083,1.519-10.645-19.779-14.634C388.51,174.242,373.2,169.43,373.2,169.43Z" transform="translate(-372.13 -169.43)" fill="#ffbe92"/>
                              <path id="Trazado_104051" data-name="Trazado 104051" d="M452.58,188.4l.837,25.3c6.387,1.107,12.526-1.632,8.3-8.814-1.689-2.839-2.64-12.64-3.406-14.769Z" transform="translate(-395.486 -174.937)" fill="#e39b9b"/>
                            </g>
                            <path id="Trazado_104052" data-name="Trazado 104052" d="M354.832,170.917l1.235.3s-.426-.206-1.249-.518c-.043-.71-.078-1.455-.142-2.179a7.516,7.516,0,0,1,.745.376,6.677,6.677,0,0,0-.759-.5,13.216,13.216,0,0,0-.582-3.073,10.574,10.574,0,0,1,1.76.795s-1.49-5.237,12.065,1.788c1.682,7.693,1.086,8.154,1.086,8.154s-7.1,1.5-12.107-1.384l-1.725-.994a20.948,20.948,0,0,1-.326-2.761Z" transform="translate(-354.08 -164.236)" fill="#ffbe92"/>
                          </g>
                          <path id="Trazado_104053" data-name="Trazado 104053" d="M367.567,161.57s-.646-.163-1.611-.362c-2.37-.483-6.664-1.171-8.218-.192-2.193,1.37-1.192,1.717.248,1.866s6.756,3.03,6.756,3.03Z" transform="translate(-354.13 -160.52)" fill="#ffbe92"/>
                          <path id="Trazado_104054" data-name="Trazado 104054" d="M371.4,162.1s-2.576-1.419-4-.511-.135,3.641,1.178,5.677a74.206,74.206,0,0,0,4.258,6.217c.156-.078,1.5-5.677,1.5-5.677A9.655,9.655,0,0,0,371.4,162.1Z" transform="translate(-357.127 -160.741)" fill="#ffbe92"/>
                          <path id="Trazado_104055" data-name="Trazado 104055" d="M353.669,164.2a1.9,1.9,0,0,0,.043,2.626c-.625,1.143-.078,2.186,1.065,2.839-.341,1.3-.241,2.47,1.419,3.186s4.521-.121,4.109-.71a6.7,6.7,0,0,0-3.875-1.753c3.293-.241,4.421-1.292,3.279-1.916s-3.428-1.874-4.755-1.49c4.3-.057,4.393-.561,3.626-1.54S355.216,163.757,353.669,164.2Z" transform="translate(-353.176 -161.55)" fill="#ffbe92"/>
                        </g>
                        <g id="Grupo_54452" data-name="Grupo 54452" transform="translate(45.143)">
                          <path id="Trazado_104056" data-name="Trazado 104056" d="M459.04,233.961a23.562,23.562,0,0,1-10.56,2.91c-19.3,1.057-43.844-15.272-43.844-15.272s-.341-7.4.071-17.905c.5-13.044,2.172-30.857,7.1-45.207a53.013,53.013,0,0,1,7.473-14.847c4.123-5.457,9.389-9.034,16.1-9.524,29.346-2.129,18.544,51.53,20.822,84.453.128,1.81.291,3.548.5,5.223a44.711,44.711,0,0,0,2.335,10.17Z" transform="translate(-391.606 -127.628)" fill="#b27e2a"/>
                          <path id="Trazado_104057" data-name="Trazado 104057" d="M454.071,125s-9.51,5.5-19.247,2.924a33.649,33.649,0,0,0-.106,7.359s14.527,5.394,21.5.326A46.841,46.841,0,0,1,454.071,125Z" transform="translate(-400.333 -125)" fill="#b27e2a"/>
                          <path id="Trazado_104058" data-name="Trazado 104058" d="M451.6,227.67h-5.855l-2.7,13.072-6,41.226a13.917,13.917,0,0,1-15.166,11.845l-35.555-3.605,11.121-77.6.809-5.124,7.161-45.2a52.4,52.4,0,0,1,7.6-14.84l10.7,2.03,6.494,52.808,14.591,19.531,6.061.639h.2Z" transform="translate(-386.33 -131.515)" fill="#e39b9b"/>
                          <path id="Trazado_104059" data-name="Trazado 104059" d="M434.08,146.046l21.035-14.116.4,3.577-19.005,11.937Z" transform="translate(-400.192 -127.012)" fill="#e39b9b"/>
                        </g>
                        <g id="Grupo_54457" data-name="Grupo 54457" transform="translate(0 15.457)">
                          <g id="Grupo_54455" data-name="Grupo 54455" transform="translate(0 28.806)">
                            <g id="Grupo_54453" data-name="Grupo 54453" transform="translate(14.463)">
                              <path id="Trazado_104060" data-name="Trazado 104060" d="M343.1,200.639l2.974,9.276s33.944,2.356,50.515-1.072c7.572-1.561,11.518-4.329,6.948-9.077a29.1,29.1,0,0,1-3.953-5.2c-3.6-5.919-3.456-8.516-20.943-2.306C356.591,200.092,343.1,200.639,343.1,200.639Z" transform="translate(-343.1 -187.751)" fill="#ffab6d"/>
                              <path id="Trazado_104061" data-name="Trazado 104061" d="M409.82,188.569l11.525,18.36c5.2-1.93,8.566-6.614,2.342-10.1-2.484-1.419-7.409-8.218-8.892-9.46Z" transform="translate(-362.47 -187.37)" fill="#ff7f42"/>
                            </g>
                            <g id="Grupo_54454" data-name="Grupo 54454" transform="translate(0 9.709)">
                              <path id="Trazado_104062" data-name="Trazado 104062" d="M341.115,213.528s-5.422.837-9.68-1.7c-2.044-1.214-5.2-3.1-5.493-3.882-.156-.419,1.419,0,1.76.114l3.073.8a27.231,27.231,0,0,0-6.983-2.129c-.39-.071-.5-.61-.142-.71a8.486,8.486,0,0,1,6.607.852,9.283,9.283,0,0,0-6.927-1.689c-.986.135-.525-.667-.334-.816,3.328-2.6,7.658.128,7.658.128a28.692,28.692,0,0,0-6.905-1.611.291.291,0,0,1-.128-.532c1.654-1.036,5.834-2.356,17.345,3.846C342.3,212.789,341.115,213.528,341.115,213.528Z" transform="translate(-322.721 -201.172)" fill="#ffab6d"/>
                              <path id="Trazado_104063" data-name="Trazado 104063" d="M344.27,205.557s-7.161-4.968-9.325-4.471-1.462,1.036-.348,1.576,5.479,5.039,5.479,5.039Z" transform="translate(-325.861 -201.051)" fill="#ffab6d"/>
                            </g>
                          </g>
                          <g id="Grupo_54456" data-name="Grupo 54456" transform="translate(61.182)">
                            <path id="Trazado_104064" data-name="Trazado 104064" d="M408.93,176.267l11.6,13.633,3.69,4.343s33.966-29.807,26.024-42.531q-.121-.192-.255-.383c-3.818-5.358-8.9-5.479-14.194-2.959-9.176,4.386-18.963,16.749-23.8,23.42C410.073,174.493,408.93,176.267,408.93,176.267Z" transform="translate(-408.93 -146.78)" fill="#b27e2a"/>
                            <path id="Trazado_104065" data-name="Trazado 104065" d="M413.27,171.818a15.705,15.705,0,0,0,20.971,1.618c8.133-6.387,16.536-14.478,17.224-21.291a1.185,1.185,0,0,0-.213-.816h0c-3.818-5.358-8.9-5.479-14.194-2.959C427.889,152.755,418.1,165.118,413.27,171.818Z" transform="translate(-410.19 -146.78)" fill="#cc984c"/>
                            <path id="Trazado_104066" data-name="Trazado 104066" d="M425.345,202.149a.177.177,0,0,1-.135-.064l-14.641-16.692a.183.183,0,0,1,.263-.255l14.648,16.706a.184.184,0,0,1,0,.263.191.191,0,0,1-.135.043Z" transform="translate(-409.391 -157.9)" fill="#cc984c"/>
                            <path id="Trazado_104067" data-name="Trazado 104067" d="M424.844,197.9a.2.2,0,0,1-.142-.057L411.928,183.3a.184.184,0,0,1,0-.263.177.177,0,0,1,.255,0l12.774,14.541a.185.185,0,0,1,0,.256A.192.192,0,0,1,424.844,197.9Z" transform="translate(-409.784 -157.29)" fill="#cc984c"/>
                          </g>
                        </g>
                      </g>
                    </g>
                    <path id="Trazado_104068" data-name="Trazado 104068" d="M445.146,103.957s-5.1-.185-1.554-5.841c-2.008-.788-2.555-.532-2.555-.532s1.057,8.09-4.336,9.567-12.228.475-12.228.475-3.47,7.324-.71,9.517,11.589,1.2,13.7-.568S439.7,107.094,445.146,103.957Z" transform="translate(-351.745 -83.361)" fill="#493136"/>
                    <path id="Trazado_104069" data-name="Trazado 104069" d="M445.461,91.136s-1.866,1.483-2.037,2.207-1.866-.667-1.866-.667a14.639,14.639,0,0,0-11.014-2.64c-6.153,1.221-6.387-4.847-4.585-7.807a3.683,3.683,0,0,1,3.662-1.732,3.988,3.988,0,0,0,3.179-1.263,4.449,4.449,0,0,1,4.847-1.419c3.79,1.306,10.851,3.094,13.136,8.168s.859,12.554-.419,13.8S443.957,106.217,445.461,91.136Z" transform="translate(-352.408 -77.559)" fill="#493136"/>
                    <g id="Grupo_54460" data-name="Grupo 54460" transform="translate(90.585 13.585)">
                      <path id="Trazado_104070" data-name="Trazado 104070" d="M455.222,100.9c-.568,1.895-2.065,3.123-3.35,2.739s-1.859-2.236-1.292-4.13,2.072-3.123,3.357-2.739S455.782,99.042,455.222,100.9Z" transform="translate(-450.362 -96.701)" fill="#ffab6d"/>
                      <path id="Trazado_104071" data-name="Trazado 104071" d="M453.216,102.689a1.228,1.228,0,0,1-.227,0,.123.123,0,1,1,.043-.241c.88.149,1.774-.774,1.994-2.065s-.319-2.456-1.206-2.612a.121.121,0,1,1,.043-.234c1.015.17,1.646,1.469,1.419,2.888S454.152,102.689,453.216,102.689Z" transform="translate(-451.095 -96.942)" fill="#e39b9b"/>
                    </g>
                    <path id="Trazado_104072" data-name="Trazado 104072" d="M435.167,102.362h-.284a3.231,3.231,0,0,1,.561-6.437,3.187,3.187,0,0,1,2.193,1.135,3.229,3.229,0,0,1-2.47,5.308Zm0-6.018a2.789,2.789,0,0,0-2.129,4.585,2.739,2.739,0,0,0,1.895.986,2.792,2.792,0,0,0,.483-5.564Z" transform="translate(-354.426 -82.887)"/>
                    <path id="Trazado_104073" data-name="Trazado 104073" d="M424.508,101.66h-.284a3.186,3.186,0,0,1-2.193-1.135A3.239,3.239,0,0,1,427,96.365a3.22,3.22,0,0,1-2.491,5.294Zm0-6.025a2.768,2.768,0,0,0-1.788.66,2.739,2.739,0,0,0-.986,1.895,2.789,2.789,0,1,0,3.023-2.541Z" transform="translate(-351.332 -82.682)"/>
                    <rect id="Rectángulo_5612" data-name="Rectángulo 5612" width="0.241" height="1.476" transform="translate(76.259 15.403) rotate(-85.03)"/>
                    <path id="Trazado_104074" data-name="Trazado 104074" d="M440.76,99.209v-.241c3.761-.475,7.9-1.15,8.147-1.419a.064.064,0,0,0,0,.057l.234-.085a.206.206,0,0,1,0,.156C448.737,98.159,442.634,98.975,440.76,99.209Z" transform="translate(-356.989 -83.354)"/>
                    <path id="Trazado_104075" data-name="Trazado 104075" d="M468.739,225.613a.177.177,0,0,1-.17-.128,61.4,61.4,0,0,1-1.76-22.9,111.474,111.474,0,0,1,3.009-16.507,17.62,17.62,0,0,0,.745-3.719.177.177,0,0,1,.135-.22.184.184,0,0,1,.22.135c.1.426-.156,1.5-.745,3.889-1.732,7.04-5.8,23.526-1.256,39.217a.184.184,0,0,1-.128.227Z" transform="translate(-364.451 -107.918)" fill="#cc984c"/>
                  </g>
                  <g id="Grupo_54462" data-name="Grupo 54462" transform="translate(56.134 130.687)">
                    <rect id="Rectángulo_5613" data-name="Rectángulo 5613" width="24.576" height="37.06" transform="translate(24.477 39.114) rotate(-174.857)" fill="#e39b9b"/>
                    <path id="Trazado_104076" data-name="Trazado 104076" d="M426.958,303.35h0l-24.385-2.129a.185.185,0,0,1-.163-.2l3.2-36.769a.185.185,0,0,1,.2-.163l24.385,2.129a.177.177,0,0,1,.163.2l-3.2,36.769a.177.177,0,0,1-.2.163Zm-24.193-2.47,24.023,2.094,3.172-36.407-24.023-2.094Z" transform="translate(-401.989 -262.398)" fill="#f4c8a9"/>
                  </g>
                  <path id="Trazado_104077" data-name="Trazado 104077" d="M429.077,274.089h0l-22.767-1.98a.192.192,0,0,1-.17-.2.184.184,0,0,1,.2-.17l22.767,1.98a.185.185,0,1,1-.028.369Z" transform="translate(-346.938 -133.932)" fill="#f4c8a9"/>
                  <path id="Trazado_104078" data-name="Trazado 104078" d="M427.956,344.733h0l-39.281-3.414a.185.185,0,0,1,0-.369l39.288,3.421a.185.185,0,0,1,0,.369Z" transform="translate(-341.814 -154.025)" fill="#f4c8a9"/>
                </g>
                <path id="Trazado_104079" data-name="Trazado 104079" d="M419.344,195.651h0a1.164,1.164,0,0,1,.83-1.419l1.724-.447a1.164,1.164,0,0,1,1.419.823h0a1.164,1.164,0,0,1-.83,1.419l-1.725.447a1.157,1.157,0,0,1-1.419-.823Z" transform="translate(-350.761 -111.289)" fill="#7a4c08"/>
                <path id="Trazado_104080" data-name="Trazado 104080" d="M435.855,199.891h0a1.171,1.171,0,0,1,.83-1.419l1.725-.447a1.164,1.164,0,0,1,1.419.83h0a1.164,1.164,0,0,1-.83,1.419l-1.725.447a1.164,1.164,0,0,1-1.419-.83Z" transform="translate(-355.555 -112.521)" fill="#7a4c08"/>
                <path id="Trazado_104081" data-name="Trazado 104081" d="M456.984,160.771h0a1.164,1.164,0,0,1,.83-1.419l1.725-.447a1.164,1.164,0,0,1,1.419.83h0a1.164,1.164,0,0,1-.83,1.419l-1.725.447a1.164,1.164,0,0,1-1.419-.83Z" transform="translate(-361.688 -101.163)" fill="#7a4c08"/>
                <path id="Trazado_104082" data-name="Trazado 104082" d="M466.474,177.661h0a1.164,1.164,0,0,1,.83-1.419l1.725-.447a1.164,1.164,0,0,1,1.419.823h0a1.164,1.164,0,0,1-.83,1.419l-1.725.454a1.164,1.164,0,0,1-1.419-.83Z" transform="translate(-364.443 -106.067)" fill="#7a4c08"/>
                <path id="Trazado_104083" data-name="Trazado 104083" d="M446.354,169.471h0a1.164,1.164,0,0,1,.83-1.419l1.725-.447a1.164,1.164,0,0,1,1.419.823h0a1.164,1.164,0,0,1-.83,1.419l-1.725.447a1.157,1.157,0,0,1-1.419-.823Z" transform="translate(-358.602 -103.689)" fill="#7a4c08"/>
                <path id="Trazado_104084" data-name="Trazado 104084" d="M459.164,207.218h0a1.157,1.157,0,0,1,.83-1.419l1.717-.454a1.164,1.164,0,0,1,1.419.83h0a1.157,1.157,0,0,1-.83,1.419l-1.717.447a1.164,1.164,0,0,1-1.419-.823Z" transform="translate(-362.321 -114.646)" fill="#7a4c08"/>
                <path id="Trazado_104085" data-name="Trazado 104085" d="M468.984,218.4h0a1.157,1.157,0,0,1,.823-1.419l1.725-.454a1.164,1.164,0,0,1,1.419.83h0a1.164,1.164,0,0,1-.83,1.419l-1.717.447a1.157,1.157,0,0,1-1.419-.823Z" transform="translate(-365.171 -117.891)" fill="#7a4c08"/>
                <path id="Trazado_104086" data-name="Trazado 104086" d="M423.9,183.3h0a1.164,1.164,0,0,1,.83-1.419l1.725-.447a1.164,1.164,0,0,1,1.419.83h0a1.164,1.164,0,0,1-.83,1.419l-1.725.447A1.164,1.164,0,0,1,423.9,183.3Z" transform="translate(-352.085 -107.704)" fill="#7a4c08"/>
                <path id="Trazado_104087" data-name="Trazado 104087" d="M451.984,219.962h0a1.164,1.164,0,0,1,.83-1.419l1.725-.447a1.171,1.171,0,0,1,1.419.83h0a1.164,1.164,0,0,1-.83,1.419l-1.725.447a1.157,1.157,0,0,1-1.419-.83Z" transform="translate(-360.237 -118.348)" fill="#7a4c08"/>
                <path id="Trazado_104088" data-name="Trazado 104088" d="M440.228,182.475h0a1.093,1.093,0,0,1-.71-1.377l.511-1.59a1.093,1.093,0,0,1,1.377-.71h0a1.093,1.093,0,0,1,.71,1.37l-.518,1.6a1.093,1.093,0,0,1-1.37.71Z" transform="translate(-356.613 -106.935)" fill="#7a4c08"/>
                <path id="Trazado_104089" data-name="Trazado 104089" d="M460.732,195.256h0a1.157,1.157,0,0,1-.745-1.455l.546-1.7a1.157,1.157,0,0,1,1.455-.71h0a1.157,1.157,0,0,1,.745,1.419l-.547,1.7a1.157,1.157,0,0,1-1.455.745Z" transform="translate(-362.555 -110.59)" fill="#7a4c08"/>
                <path id="Trazado_104090" data-name="Trazado 104090" d="M471.8,200.571h0a1.164,1.164,0,0,1-.745-1.462l.546-1.689a1.157,1.157,0,0,1,1.419-.71h0a1.15,1.15,0,0,1,.745,1.419l-.546,1.7a1.164,1.164,0,0,1-1.419.745Z" transform="translate(-365.769 -112.136)" fill="#7a4c08"/>
                <path id="Trazado_104091" data-name="Trazado 104091" d="M450.043,206.693h0a1.164,1.164,0,0,1-.745-1.455l.546-1.7a1.164,1.164,0,0,1,1.462-.745h0a1.164,1.164,0,0,1,.745,1.455l-.546,1.7A1.171,1.171,0,0,1,450.043,206.693Z" transform="translate(-359.452 -113.901)" fill="#7a4c08"/>
                <path id="Trazado_104092" data-name="Trazado 104092" d="M461.186,152.033h0a1.15,1.15,0,0,1-.745-1.419l.546-1.689a1.164,1.164,0,0,1,1.419-.752h0a1.164,1.164,0,0,1,.745,1.462l-.546,1.689a1.157,1.157,0,0,1-1.419.71Z" transform="translate(-362.689 -98.046)" fill="#7a4c08"/>
                <path id="Trazado_104093" data-name="Trazado 104093" d="M471.28,166.216h0a1.171,1.171,0,0,1-.752-1.462l.546-1.689a1.164,1.164,0,0,1,1.462-.71h0a1.164,1.164,0,0,1,.745,1.419l-.546,1.7A1.164,1.164,0,0,1,471.28,166.216Z" transform="translate(-365.616 -102.159)" fill="#7a4c08"/>
                <path id="Trazado_104094" data-name="Trazado 104094" d="M414,182.788h0a1.157,1.157,0,0,1-.986-1.306l.248-1.76a1.157,1.157,0,0,1,1.306-.986h0a1.157,1.157,0,0,1,.987,1.306l-.248,1.76a1.157,1.157,0,0,1-1.306.986Z" transform="translate(-348.931 -106.928)" fill="#7a4c08"/>
                <path id="Trazado_104095" data-name="Trazado 104095" d="M436.212,163.928h0a1.157,1.157,0,0,1-.986-1.306l.248-1.76a1.157,1.157,0,0,1,1.306-.986h0a1.164,1.164,0,0,1,.987,1.306l-.248,1.767a1.157,1.157,0,0,1-1.306.979Z" transform="translate(-355.379 -101.453)" fill="#7a4c08"/>
                <path id="Trazado_104096" data-name="Trazado 104096" d="M433.682,146.118h0a1.157,1.157,0,0,1-.986-1.306l.248-1.76a1.157,1.157,0,0,1,1.306-.986h0a1.157,1.157,0,0,1,.987,1.306l-.248,1.76a1.157,1.157,0,0,1-1.306.986Z" transform="translate(-354.645 -96.283)" fill="#7a4c08"/>
                <path id="Trazado_104097" data-name="Trazado 104097" d="M428.355,170.4h0a1.157,1.157,0,0,1-1.419.837l-1.725-.44a1.157,1.157,0,0,1-.837-1.419h0a1.164,1.164,0,0,1,1.419-.837l1.725.44a1.157,1.157,0,0,1,.837,1.419Z" transform="translate(-352.221 -103.962)" fill="#7a4c08"/>
                <path id="Trazado_104098" data-name="Trazado 104098" d="M447.355,153.154h0a1.164,1.164,0,0,1-1.419.837l-1.725-.44a1.157,1.157,0,0,1-.837-1.419h0a1.157,1.157,0,0,1,1.419-.837l1.725.44a1.157,1.157,0,0,1,.837,1.419Z" transform="translate(-357.737 -98.954)" fill="#7a4c08"/>
                <path id="Trazado_104099" data-name="Trazado 104099" d="M446.355,137.034h0a1.164,1.164,0,0,1-1.419.837l-1.725-.44a1.157,1.157,0,0,1-.837-1.419h0a1.157,1.157,0,0,1,1.419-.837l1.725.44a1.157,1.157,0,0,1,.837,1.419Z" transform="translate(-357.447 -94.274)" fill="#7a4c08"/>
                <path id="Trazado_104100" data-name="Trazado 104100" d="M445.816,190.078a.156.156,0,0,1-.106-.043.177.177,0,0,1-.035-.255c2.874-3.776,9.112-13.385,12.114-18,1.036-1.6,1.5-2.306,1.568-2.392a.185.185,0,0,1,.284.227h0c-.064.078-.71,1.036-1.547,2.363-3,4.62-9.226,14.236-12.129,18.026A.2.2,0,0,1,445.816,190.078Z" transform="translate(-358.404 -104.205)" fill="#7a4c08"/>
              </g>
              <g id="Grupo_54466" data-name="Grupo 54466" transform="translate(2.909 62.592)">
                <g id="Grupo_54465" data-name="Grupo 54465">
                  <path id="Trazado_104101" data-name="Trazado 104101" d="M352.72,166.553a26.187,26.187,0,0,0-2.505,5.387l-.078.227-.483,1.483-.426,1.306s2.881,3.981.248,6.309l-.206.17-.064.05-.234.17-.142.092c-.149.1-.305.192-.468.284l-.085.05c-.22.121-.454.241-.71.362l-.092.05-.17.078h-.064l-.156.071-.454.2-.114.043-1.157.468-.326.121-.923.341-.135.05-.447.163-.2.071-.121.043-.177.064-.277.1c-.412.149-.83.291-1.242.447l-.27.092-.6.227-.149.057-.213.078-.27.1-.795.312-.135.057-.639.27-.376.163-.248.106-.121.057-.121.057-.121.057-.114.057-.121.057-.114.057-.554.284-.1.057-.426.241-.1.064c-.185.114-.362.227-.525.341l-.071.057a4.076,4.076,0,0,0-.334.248l-.05.043-.156.135a17.284,17.284,0,0,0-7.693,4.421v.05l.057.1v.057a.178.178,0,0,1,0,.05.3.3,0,0,0,0,.05l.092.17.057.092.043.078a.176.176,0,0,1,0,.05c.106.163.22.334.341.5l.078.106h0a.8.8,0,0,1,.071.092l.106.128a.8.8,0,0,1,.071.092.369.369,0,0,1,.071.078h0l.078.085h0l.085.092h0l.1.092h0l.106.1h0a.61.61,0,0,1,.1.092l.114.092.106.1.355.277.255.177.27.163.135.085.149.078.071.043h.064l.078.035.078.043.241.106.185.078a8.46,8.46,0,0,0,2.214.518h1.618a4.727,4.727,0,0,0,4.726-4.194h0a.411.411,0,0,1,0-.185v-.043l.043-.4h.092c.078-.206.156-.4.241-.589h0c.525-1.114,1.327-1.881,3.243-2.491l.312-.092h0l.163-.043.149-.043c1.206-.284,2.966-.192,4.727-.44,2.47-.348,4.968-1.37,5.954-5.081,1.753-6.472,1.1-15.613-.27-16.954h0C353.678,165.588,353.2,165.929,352.72,166.553Z" transform="translate(-326.901 -165.755)" fill="#ff1715"/>
                  <path id="Trazado_104102" data-name="Trazado 104102" d="M349.636,176.88c2.626,2.995,3.123,7.807-.263,10.879l-.49.4a9.878,9.878,0,0,1-1.866,1.1c-.248.114-.5.227-.766.334-.972.4-2.037.71-3.116,1.093-3.768,1.192-7.757,2.321-8.928,5.308a5.621,5.621,0,0,1-3.4,3.229,6.084,6.084,0,0,1-.71-.334c-3.094-1.646-3.059-3.137-3.059-3.137a17.008,17.008,0,0,1,7.743-4.478c1.753-1.547,5.216-2.739,8.417-3.882,2.626-.937,5.074-1.852,6.267-2.9,2.633-2.328-.248-6.309-.248-6.309Z" transform="translate(-326.884 -168.985)" fill="#f66"/>
                  <path id="Trazado_104103" data-name="Trazado 104103" d="M334.712,195.582a20.964,20.964,0,0,0-7.189,3.662.922.922,0,0,1-.22.185c-.319.277-.483.44-.483.44s.114,1.682,3.208,3.328a5.678,5.678,0,0,0,2.839-3.69c.71-3.13,4.478-4.868,8.027-6.636.774-.383,1.533-.766,2.25-1.171C339.928,192.843,336.465,194.042,334.712,195.582Z" transform="translate(-326.82 -173.287)" fill="#ff8585"/>
                </g>
                <path id="Trazado_104104" data-name="Trazado 104104" d="M362.143,166.88a9.58,9.58,0,0,1,.887,3.073c.83,5.287.255,13.768-.433,9.077a21.066,21.066,0,0,0-.433-2.129c-.71-2.725-1.831-3.9-2.6-4.393l.078-.227A26.184,26.184,0,0,1,362.143,166.88Z" transform="translate(-336.325 -166.082)" fill="#ff3e3e"/>
              </g>
            </g>
            <g id="Grupo_54470" data-name="Grupo 54470" transform="translate(18.31 170.856)">
              <g id="Grupo_54469" data-name="Grupo 54469" transform="translate(0)">
                <path id="Trazado_104105" data-name="Trazado 104105" d="M91.917,321.318s-12.377-6.274-25.967-.71c3.257,19.665,25.549,33.625,32.922,27.415s2.086-12.469,2.086-12.469,8.6.653,8.857-4.79S92.627,321.957,91.917,321.318Z" transform="translate(-47.534 -318.307)" fill="#91ad8a"/>
                <path id="Trazado_104106" data-name="Trazado 104106" d="M183,374.763c-14.371,13.818-40.594,11.681-42.78,2.3S146,365.813,146,365.813l-.114-.071c-.908-.61-6.948-4.883-4.123-9.063,1.206-1.781,4.421-1.661,7.934-.859.326.071.667.156,1,.241,1.3.334,2.612.71,3.854,1.157l1.277.447c2.505.887,4.592,1.753,5.493,2.037a1.477,1.477,0,0,0,.433.1s.312.05.866.192a34.6,34.6,0,0,1,9.51,3.988l.341.213A31.518,31.518,0,0,1,183,374.763Z" transform="translate(-68.986 -329.035)" fill="#fec1c0"/>
                <path id="Trazado_104107" data-name="Trazado 104107" d="M61.291,350.338S47.587,352.708,40,365.3c14.378,13.81,40.6,11.66,42.78,2.278S77,356.334,77,356.334s7.288-4.62,4.258-9.134S62.206,350.416,61.291,350.338Z" transform="translate(-40 -326.284)" fill="#e6efe4"/>
                <path id="Trazado_104108" data-name="Trazado 104108" d="M74.527,414.821a.276.276,0,0,1-.128,0,.305.305,0,0,1-.149-.4c5.883-12.327,9.673-22.05,11.582-29.729s1.966-13.342.17-17.345c-1.476-3.3-4.216-5.493-8.381-6.707-7.1-2.072-16.124.376-22.426,2.8a83.382,83.382,0,0,0-12.107,5.819.305.305,0,0,1-.319-.518,84.327,84.327,0,0,1,12.192-5.9c6.387-2.456,15.528-4.932,22.816-2.839,4.343,1.263,7.218,3.548,8.772,7.04,1.852,4.137,1.81,9.936-.135,17.742S80.7,402.288,74.832,414.651A.305.305,0,0,1,74.527,414.821Z" transform="translate(-40.767 -330.182)" fill="#91ad8a"/>
                <path id="Trazado_104109" data-name="Trazado 104109" d="M93.754,399.548a.312.312,0,0,1-.177-.057.3.3,0,0,1-.071-.426,181.08,181.08,0,0,0,10.411-16.99c6.7-12.5,10.049-22.866,9.694-29.956-.319-6.259-5.571-12.263-15.613-17.842a125.512,125.512,0,0,0-21.22-8.821c-2.306-.724-2.314-.724-2.385-.972a.312.312,0,0,1,.192-.39.327.327,0,0,1,.312.071c.185.1,1.043.383,2.044.71a125.873,125.873,0,0,1,21.291,8.871c10.241,5.677,15.613,11.859,15.918,18.345.206,4.024-.71,9.02-2.789,14.854a111.8,111.8,0,0,1-6.976,15.429,182.559,182.559,0,0,1-10.411,17.033A.312.312,0,0,1,93.754,399.548ZM74.976,324.322ZM74.976,324.322Z" transform="translate(-49.981 -319.983)" fill="#f9f2d7"/>
                <path id="Trazado_104110" data-name="Trazado 104110" d="M98.946,415.493h0a.291.291,0,0,1-.277-.326,83.644,83.644,0,0,1,3.03-15.443,64.525,64.525,0,0,1,5.422-13.207,37.365,37.365,0,0,1,9.5-11.469,25.676,25.676,0,0,1,12.015-5.124,34.008,34.008,0,0,1,11.646.376,49.43,49.43,0,0,1,13.754,4.968l.156.085a.305.305,0,0,1-.27.546l-.177-.1c-5.159-2.768-22.9-11.029-36.776-.241-8.048,6.245-12.441,16.7-14.7,24.364a83.034,83.034,0,0,0-3.016,15.322.305.305,0,0,1-.305.248Z" transform="translate(-57.032 -333.196)" fill="#eda4a4"/>
                <g id="Grupo_54468" data-name="Grupo 54468" transform="translate(27.28 59.183)">
                  <path id="Trazado_104111" data-name="Trazado 104111" d="M116.127,401.7l-.781,6.181-3.2,25.158a4.613,4.613,0,0,1-4.62,4.62H86.59A4.592,4.592,0,0,1,82,433.075L79.16,407.881l-.71-6.181Z" transform="translate(-78.443 -401.7)" fill="#d4ad93"/>
                  <path id="Trazado_104112" data-name="Trazado 104112" d="M116.124,401.7l-.781,6.181h-36.2l-.7-6.181Z" transform="translate(-78.44 -401.7)" fill="#c1947c"/>
                </g>
              </g>
              <path id="Trazado_104113" data-name="Trazado 104113" d="M144.952,376.416a27.962,27.962,0,0,1-3.612,4.819,27.813,27.813,0,0,1,6.1-10.3,27.967,27.967,0,0,1-2.491,5.486Z" transform="translate(-69.42 -333.584)" fill="#eda4a4"/>
              <path id="Trazado_104114" data-name="Trazado 104114" d="M148.243,360.426a16.862,16.862,0,0,1,.781,4.613,17.374,17.374,0,0,1-2.03-4.216,17.033,17.033,0,0,1-.774-4.613A17.217,17.217,0,0,1,148.243,360.426Z" transform="translate(-70.837 -329.311)" fill="#eda4a4"/>
              <path id="Trazado_104115" data-name="Trazado 104115" d="M150.682,379.481a43.948,43.948,0,0,1-3,6.969,44.584,44.584,0,0,1,1.76-7.381,43.944,43.944,0,0,1,3-6.969,44.762,44.762,0,0,1-1.76,7.381Z" transform="translate(-71.261 -333.924)" fill="#eda4a4"/>
              <path id="Trazado_104116" data-name="Trazado 104116" d="M154.763,358.9a25.7,25.7,0,0,1-.71,5.727,25.876,25.876,0,0,1-.6-5.741,25.315,25.315,0,0,1,.2-2.839c.326.071.667.156,1,.241C154.72,357.072,154.77,357.959,154.763,358.9Z" transform="translate(-72.936 -329.264)" fill="#eda4a4"/>
              <path id="Trazado_104117" data-name="Trazado 104117" d="M157.979,381.164a44.05,44.05,0,0,1-2.129,7.281,44.163,44.163,0,0,1,2.981-14.825,44.123,44.123,0,0,1-.852,7.544Z" transform="translate(-73.633 -334.365)" fill="#eda4a4"/>
              <path id="Trazado_104118" data-name="Trazado 104118" d="M161.786,358.467v.255a44.556,44.556,0,0,1-1.214,7.487,44,44,0,0,1-.092-7.587c0-.206.035-.4.05-.6Z" transform="translate(-74.942 -329.836)" fill="#eda4a4"/>
              <path id="Trazado_104119" data-name="Trazado 104119" d="M166.163,382.288a36.635,36.635,0,0,1-.653,6.848,35.86,35.86,0,0,1,0-13.7A36.634,36.634,0,0,1,166.163,382.288Z" transform="translate(-76.246 -334.894)" fill="#eda4a4"/>
              <path id="Trazado_104120" data-name="Trazado 104120" d="M170.337,361.811c-.114.255-.241.518-.369.781a36.855,36.855,0,0,1-3.548,5.883,36.116,36.116,0,0,1,2.377-6.451l.248-.5a1.477,1.477,0,0,0,.433.1S169.784,361.669,170.337,361.811Z" transform="translate(-76.701 -330.852)" fill="#eda4a4"/>
              <path id="Trazado_104121" data-name="Trazado 104121" d="M173.8,382.381a24.839,24.839,0,0,1,1.285,5.521,24.527,24.527,0,0,1-3.8-10.6A24.839,24.839,0,0,1,173.8,382.381Z" transform="translate(-78.112 -335.434)" fill="#eda4a4"/>
              <path id="Trazado_104122" data-name="Trazado 104122" d="M181.785,367.757a25.413,25.413,0,0,1-4.414,2.4,24.776,24.776,0,0,1-5.45,1.561,24.662,24.662,0,0,1,4.968-2.768,25.37,25.37,0,0,1,4.577-1.419Z" transform="translate(-78.298 -332.597)" fill="#eda4a4"/>
              <path id="Trazado_104123" data-name="Trazado 104123" d="M182.9,381.08a24.691,24.691,0,0,1,4.428,3.548,24.478,24.478,0,0,1-9.552-5.969,25.039,25.039,0,0,1,5.124,2.42Z" transform="translate(-79.999 -335.828)" fill="#eda4a4"/>
              <rect id="Rectángulo_5614" data-name="Rectángulo 5614" width="40.899" height="4.57" rx="1.2" transform="translate(25.18 59.062)" fill="#d4ad93"/>
            </g>
          </g>
        </g>
      </g>
    </g>
  </g>
</svg>
