<svg xmlns="http://www.w3.org/2000/svg" xmlns:xlink="http://www.w3.org/1999/xlink" width="300" height="300" viewBox="0 0 300 300">
  <defs>
    <clipPath id="clip-path">
      <circle id="Elipse_4205" data-name="Elipse 4205" cx="127.572" cy="127.572" r="127.572" fill="none"/>
    </clipPath>
  </defs>
  <g id="Grupo_55715" data-name="Grupo 55715" transform="translate(-1221 -2971)">
    <g id="Layer_1" data-name="Layer 1" transform="translate(1221 2970.98)">
      <g id="Grupo_55658" data-name="Grupo 55658" transform="translate(0 0.02)">
        <rect id="Rectángulo_5975" data-name="Rectángulo 5975" width="300" height="300" fill="none"/>
        <circle id="Elipse_4204" data-name="Elipse 4204" cx="127.572" cy="127.572" r="127.572" transform="translate(29.34 28.548)" fill="#eceee1"/>
        <path id="Trazado_107572" data-name="Trazado 107572" d="M176.436,47.12A126.96,126.96,0,0,0,49.38,174.17a4.542,4.542,0,0,0,9.084,0A117.871,117.871,0,0,1,176.436,56.2a4.542,4.542,0,1,0,0-9.084Z" transform="translate(-19.752 -18.86)" fill="#b1b2a8"/>
        <g id="Grupo_55652" data-name="Grupo 55652" transform="translate(13.009 12.05)">
          <path id="Trazado_107573" data-name="Trazado 107573" d="M53.025,418.658A122.877,122.877,0,0,1,44.331,408.6c-2.58-3.342-5.016-6.869-7.746-11.07a8.1,8.1,0,1,0-13.6,8.8c2.88,4.445,5.586,8.4,8.52,12.186a138.9,138.9,0,0,0,9.822,11.357,8.1,8.1,0,1,0,11.7-11.2Z" transform="translate(-21.682 -169.596)" fill="#d5d9ba"/>
          <path id="Trazado_107574" data-name="Trazado 107574" d="M98.049,475.4c-2.358-1.8,2.256,1.926,0,0" transform="translate(-51.952 -202.02)" fill="#996771"/>
          <path id="Trazado_107575" data-name="Trazado 107575" d="M84.09,471.451a7.563,7.563,0,0,0,.36,1.135,7.813,7.813,0,0,0,.6,1.2c.162.258.288.438.39.6.209.281.348.439.456.564.2.234.318.342.408.432s.246.234.318.3l.3.264.438.359.672.541.372.281c.084.061.168.125.366.258l.2.131c.132.078.283.182.642.367a7.594,7.594,0,0,0,.876.385,8.1,8.1,0,0,0,.93.281,8.616,8.616,0,0,0,.972.168h.93a8.065,8.065,0,0,0,2.514-.4,8.613,8.613,0,0,0,1.488-.658,8.158,8.158,0,0,0,3.42-3.822,7.932,7.932,0,0,0,.6-2.01,7.753,7.753,0,0,0,.09-1.2,8.157,8.157,0,0,0-.852-3.6,7.658,7.658,0,0,0-.6-1.051c-.144-.209-.258-.348-.348-.461-.174-.211-.275-.324-.366-.42s-.246-.246-.318-.318-.2-.193-.276-.26l-.318-.281-.384-.33c-.054-.047-.114-.084-.174-.131l-.156-.133h0c-.27-.205-.462-.354-.654-.492s-.192-.145-.378-.264a5.511,5.511,0,0,0-.474-.3c-.144-.084-.317-.186-.7-.371a8.27,8.27,0,0,0-.9-.348c-.12-.041-.252-.078-.408-.119h-.276l-.144-.031h-.426a7.2,7.2,0,0,0-.738-.084h-.786a8.525,8.525,0,0,0-1.26.137,8.089,8.089,0,0,0-5.58,4,7.821,7.821,0,0,0-.888,2.441,7.589,7.589,0,0,0-.145,1.512A7.9,7.9,0,0,0,84.09,471.451ZM92.556,478.711ZM94.038,461.744ZM93.96,461.744ZM93.618,461.664Z" transform="translate(-46.561 -196.713)" fill="#bd9aa0"/>
          <path id="Trazado_107576" data-name="Trazado 107576" d="M408.389,31.56a163.4,163.4,0,0,1,43.568,40.68" transform="translate(-176.364 -24.686)" fill="#590212"/>
          <path id="Trazado_107577" data-name="Trazado 107577" d="M400.084,32.791a156.62,156.62,0,0,1,41.717,39,6.9,6.9,0,0,0,11.1-8.2,170.47,170.47,0,0,0-45.4-42.4,6.9,6.9,0,0,0-7.422,11.634Z" transform="translate(-171.767 -20.104)" fill="#deccd0"/>
          <path id="Trazado_107578" data-name="Trazado 107578" d="M458.2,409.023c-1.637,2.143,1.746-2.047,0,0" transform="translate(-196.105 -175.439)" fill="#996771"/>
          <path id="Trazado_107579" data-name="Trazado 107579" d="M452.971,413.035a10.234,10.234,0,0,0,1.564-.51,10.869,10.869,0,0,0,1.627-.824c.354-.221.6-.389.791-.533.379-.281.6-.467.75-.6.313-.283.457-.426.6-.547.215-.215.3-.316.389-.406l.3-.348.373-.451.533-.664c.09-.121.18-.23.318-.422l.131-.174c.037-.061.086-.119.139-.209s.1-.139.168-.248l.186-.3c.053-.09.125-.205.205-.354a10.6,10.6,0,0,0,.982-2.395,10.934,10.934,0,0,0,.26-1.146,11.165,11.165,0,0,0-4.412-10.83,11.674,11.674,0,0,0-1.883-1.109,11.095,11.095,0,0,0-8.916-.18,10.277,10.277,0,0,0-1.2.6,9.935,9.935,0,0,0-1.145.738c-.24.174-.4.3-.541.42-.252.211-.395.348-.516.455l-.408.4c-.15.156-.229.246-.307.338l-.3.342c-.1.105-.2.227-.318.365s-.121.162-.186.24-.125.143-.187.221h0l-.5.66-.133.188-.131.186c-.037.053-.084.119-.141.209s-.094.145-.16.252-.107.174-.182.3-.117.211-.2.359a11.7,11.7,0,0,0-.506,1.1,10.655,10.655,0,0,0-.652,2.359,10.511,10.511,0,0,0-.139,1.752,11.05,11.05,0,0,0,8.094,10.68,10.748,10.748,0,0,0,2.4.4h.6A11.093,11.093,0,0,0,452.971,413.035Z" transform="translate(-188.701 -168.037)" fill="#eef0e3"/>
          <path id="Trazado_107580" data-name="Trazado 107580" d="M55.27,101.736A148.467,148.467,0,0,1,92.206,62.19" transform="translate(-35.117 -36.938)" fill="#590212"/>
          <path id="Trazado_107581" data-name="Trazado 107581" d="M56.171,101.068a143.277,143.277,0,0,1,35.664-38.2,5.1,5.1,0,1,0-6.061-8.2A153.544,153.544,0,0,0,47.567,95.584a5.1,5.1,0,1,0,8.6,5.484Z" transform="translate(-31.716 -33.528)" fill="#f1cdcd"/>
        </g>
        <path id="Trazado_107582" data-name="Trazado 107582" d="M183.694,32.444a140.184,140.184,0,0,0-15.216-.834,137.71,137.71,0,0,0-14.91,274.6,5.88,5.88,0,1,0,1.284-11.689,125.957,125.957,0,1,1,27.52-250.405,5.88,5.88,0,0,0,1.322-11.668Z" transform="translate(-12.364 -12.656)" fill="#e6e8d6"/>
        <g id="Grupo_55657" data-name="Grupo 55657" transform="translate(29.34 28.548)" clip-path="url(#clip-path)">
          <g id="Grupo_55656" data-name="Grupo 55656" transform="translate(38.507 31.058)">
            <g id="Grupo_55653" data-name="Grupo 55653" transform="translate(121.033 52.311)">
              <path id="Trazado_107583" data-name="Trazado 107583" d="M359.919,245.9s11.473-9.521,16.314-18.516,10.11-16.2,12-22.4-3.665-8.777-5.855-9.09-7.566-1.937-7.566-1.937.811-5.838-3.12-7.074-8.357,1.482-8.357,1.482a9.974,9.974,0,0,0-6.637.63c-3.437,1.613-15.06,5.567-17.2,6.306s-2.6,1.866-2.6,1.866a6.9,6.9,0,0,0-7.614,5.609s-4.831-2.117-6.7,4.087a63.935,63.935,0,0,0-.385,32.081c3.348,13.381,1.728,14.137.6,30.973s-8,73.884-8,73.884,28.266,5.557,46.361,2.232C361.161,346.035,359.229,255.411,359.919,245.9Z" transform="translate(-314.8 -186.554)" fill="#590212"/>
              <path id="Trazado_107584" data-name="Trazado 107584" d="M400.279,206.09s2.3,10.236,14.557,11.358c0,0-9,2-12.721-3.33A27.086,27.086,0,0,1,400.279,206.09Z" transform="translate(-348.991 -194.365)" fill="#5d0303"/>
              <path id="Trazado_107585" data-name="Trazado 107585" d="M388.213,216.024s-8.893,5.178-8.887,12.419c0,0-19.564-.149-27.232,15.438A17.663,17.663,0,0,0,339.6,228.756s1.99-5.045-1.082-6.714c0,0,4.609,1.278,5.545-1.134,0,0,4,6.732,14.525,1.519l15.961-8.946a12,12,0,0,1,.785-11.28C375.336,202.219,373.98,218.142,388.213,216.024Z" transform="translate(-324.288 -192.809)" fill="#5d0303"/>
              <path id="Trazado_107586" data-name="Trazado 107586" d="M326.141,287.27s4.963,3.516,13.435,2.352c0,0-6.5,1.687-7.056,13.2l-1.386-9.6-9.443,54S327.551,299.456,326.141,287.27Z" transform="translate(-317.557 -226.837)" fill="#c83737"/>
              <path id="Trazado_107587" data-name="Trazado 107587" d="M326.206,206.858c1.872-6.2,6.7-4.086,6.7-4.086a6.9,6.9,0,0,1,7.612-5.609s.475-1.134,2.605-1.866,13.757-4.691,17.2-6.306a9.97,9.97,0,0,1,6.636-.631s4.429-2.742,8.357-1.481,3.12,7.074,3.12,7.074,5.4,1.619,7.565,1.938,7.729,2.887,5.856,9.09a31.222,31.222,0,0,1-1.944,4.771l-.114-.1s2.677-7.765-4.35-9.858-15.984-2.172-15.984-2.172a8.788,8.788,0,0,1-.06-2.112c.072.265.108.426.108.426l-.1-.558c.18-1.482.888-3.084,3.215-2.718l3.6.743s-.937-5.634-7.735-3.329l.938,5.3v.132c-.463-1.638-2.455-7.356-7.2-4.752a81.632,81.632,0,0,1-12.449,5.238h7.242s4.151,2.01,4.366,8.075a10.666,10.666,0,0,0-9.965-5.712c-7.146.313-13.476-.318-14.285,5.124l9.378,1.11s4.7.444,5.754,8.058c0,0-3.03-5.4-8.617-5.567s-12.6-.714-12.6-.714a12.747,12.747,0,0,0,4.2,7.991s-5.544-3.335-6.8-6.8c0,0,.389,7.914,4.308,10.843,0,0-5.839-1.8-7.1-5.274,0,0-1.277,15.858-.516,22.956A64.344,64.344,0,0,1,326.206,206.858Z" transform="translate(-318.467 -186.547)" fill="#c83737"/>
              <path id="Trazado_107588" data-name="Trazado 107588" d="M408.07,198.229l-5.117-1.5h.127a3.707,3.707,0,0,0-.758.035,2.89,2.89,0,0,0-.742.216,2.392,2.392,0,0,0-1.111.96,3.726,3.726,0,0,0-.492,1.542,9.563,9.563,0,0,0,0,1.8,19.962,19.962,0,0,0,1.6,7.3,7.676,7.676,0,0,0,2.287,2.8,8.648,8.648,0,0,0,3.342,1.482,19.87,19.87,0,0,0,7.549-.1h0a.265.265,0,0,1,.3.216.268.268,0,0,1-.209.307,20.555,20.555,0,0,1-7.8.336,9.5,9.5,0,0,1-3.721-1.512,8.753,8.753,0,0,1-2.664-3.048,21.2,21.2,0,0,1-1.955-7.645,6.766,6.766,0,0,1,.545-4.2,3.863,3.863,0,0,1,1.711-1.584,4.712,4.712,0,0,1,1.092-.354,4.942,4.942,0,0,1,1.2-.077h.119l5.16,1.338a.852.852,0,0,1-.426,1.65Z" transform="translate(-348.323 -190.008)" fill="#2c041c"/>
              <path id="Trazado_107589" data-name="Trazado 107589" d="M337.342,212.179l13,1.59h-.066a7.661,7.661,0,0,1,1.535.313,8.134,8.134,0,0,1,1.395.6,7.95,7.95,0,0,1,2.326,1.926,8.7,8.7,0,0,1,1.434,2.622,10.752,10.752,0,0,1,.373,1.416c.09.479.18.96.227,1.386l.822,5.347a21.225,21.225,0,0,1,.229,5.628,6.007,6.007,0,0,1-1.115,2.9,4.612,4.612,0,0,1-1.236,1.11,5.924,5.924,0,0,1-1.482.6,15.067,15.067,0,0,1-2.832.42,14.27,14.27,0,0,1-1.445,0,13.057,13.057,0,0,1-1.441-.168,10.07,10.07,0,0,1-2.807-.9,8.275,8.275,0,0,1-2.4-1.842,8.916,8.916,0,0,1-1.951-5.551l.6.792h0a13.461,13.461,0,0,1-2.479-1.386,14.6,14.6,0,0,1-2.123-1.8,13.033,13.033,0,0,1-1.748-2.112,13.716,13.716,0,0,1-1.283-2.4.228.228,0,0,1-.008-.172.222.222,0,0,1,.123-.122.216.216,0,0,1,.275.091h0a12.774,12.774,0,0,0,1.482,2.124,12.365,12.365,0,0,0,1.854,1.77,13.731,13.731,0,0,0,2.137,1.392,12.422,12.422,0,0,0,2.285.948h0a.88.88,0,0,1,.564.78,7.2,7.2,0,0,0,1.529,4.481,6.551,6.551,0,0,0,1.873,1.435,8.226,8.226,0,0,0,2.326.744,12.453,12.453,0,0,0,5.018-.24,3.967,3.967,0,0,0,1.014-.408,2.827,2.827,0,0,0,.768-.689,4.37,4.37,0,0,0,.781-2.1,19.816,19.816,0,0,0-.223-5.154c-.252-1.758-.6-3.534-.828-5.347-.055-.468-.133-.876-.211-1.284a7.7,7.7,0,0,0-.311-1.2,6.886,6.886,0,0,0-1.146-2.106,6.168,6.168,0,0,0-1.8-1.5,6.552,6.552,0,0,0-1.1-.468,6.12,6.12,0,0,0-1.1-.229h-.066l-12.947-1.548a.855.855,0,0,1-.742-.5.852.852,0,0,1,.945-1.189Z" transform="translate(-322.821 -196.793)" fill="#2c041c"/>
              <path id="Trazado_107590" data-name="Trazado 107590" d="M347.818,230.578a12.794,12.794,0,0,0,.252,3.217,9.741,9.741,0,0,0,1.115,2.85,11.8,11.8,0,0,0,1.992,2.4c.383.372.828.684,1.242,1.057s.906.636,1.352,1.014h0a.236.236,0,0,1-.223.39,15.551,15.551,0,0,1-1.693-.521,11.35,11.35,0,0,1-1.584-.853c-.246-.174-.5-.342-.738-.534a7.436,7.436,0,0,1-.678-.6,8.225,8.225,0,0,1-1.164-1.458,7.432,7.432,0,0,1-1.092-3.552,6.456,6.456,0,0,1,.781-3.528.215.215,0,0,1,.287-.084.21.21,0,0,1,.107.192Z" transform="translate(-327.514 -204.069)" fill="#2c041c"/>
              <path id="Trazado_107591" data-name="Trazado 107591" d="M351.561,203.211s10.086-1.71,13.836-1.53,6.1.979,7.025,8.454a76.763,76.763,0,0,1,.715,11.826s-1.8,7.248-8.473,5.646" transform="translate(-329.504 -192.595)" fill="none" stroke="#2c041c" stroke-linecap="round" stroke-linejoin="round" stroke-width="2.83"/>
              <path id="Trazado_107592" data-name="Trazado 107592" d="M395.621,189.57s2.754.666,2.76,5.873" transform="translate(-347.129 -187.757)" fill="none" stroke="#2c041c" stroke-linecap="round" stroke-linejoin="round" stroke-width="2.83"/>
              <path id="Trazado_107593" data-name="Trazado 107593" d="M386.936,227.342c.4.12.787.271,1.2.373l.6.107.3.054h.3a4.41,4.41,0,0,0,2.279-.437,5.118,5.118,0,0,0,1.8-1.513,7.551,7.551,0,0,0,1.123-2.153v.132l.307-8.61a.522.522,0,0,1,1.043.024l-.18,8.622h0a.454.454,0,0,1,0,.126,8.348,8.348,0,0,1-1.291,2.574,6.257,6.257,0,0,1-2.215,1.908,5.738,5.738,0,0,1-2.885.6h-.373l-.354-.061-.721-.113c-.461-.114-.91-.271-1.367-.408a.666.666,0,1,1,.385-1.272h0Z" transform="translate(-343.275 -197.845)" fill="#2c041c"/>
              <path id="Trazado_107594" data-name="Trazado 107594" d="M339.368,233.6v2.221a9.257,9.257,0,0,1-7.8-.8s17.148,7.572,17.785,17.431c0,0,4.348-15.769,23.9-19.2,0,0,1.039-7.3,10.4-8.473a9.942,9.942,0,0,1-6.264-1.157s-.312,1.2-3.846,1.8c0,0,1.043,6.714-7.32,6.479,0,0-.8-1.062-1.555.438s-2.441,4.5-6.437,4.134c0,0-1.674-.678-1.955,1.613s-4.723,5.839-12.055,1.987c0,0-1.734.426-2.4-5.586Z" transform="translate(-321.508 -201.377)" fill="#2c041c"/>
              <path id="Trazado_107595" data-name="Trazado 107595" d="M378.389,269.959s-1.379,19.705-1.379,20.137-.979-22.41-.979-22.41c-7.523-.792-8.01-4.164-8.01-4.164,23.07-3.426,35.459-27.462,35.459-27.462v.773c-1.883,3.181-3.971,6.6-6,10.351-4.842,9-16.312,18.516-16.312,18.516-.666,9.51,1.266,100.134,1.266,100.134a71.674,71.674,0,0,1-11.137,1.032C376.338,332.756,378.389,269.959,378.389,269.959Z" transform="translate(-336.089 -206.352)" fill="#2c041c"/>
              <path id="Trazado_107596" data-name="Trazado 107596" d="M325.15,266.62s3,14.3,15.954,11.9c0,0-6.738,3.131-13.8-2.4Z" transform="translate(-318.94 -218.576)" fill="#2c041c"/>
              <path id="Trazado_107597" data-name="Trazado 107597" d="M411.143,198.246s3.154,1.8,2.236,7.458c0,0-6.6-.318-8.152-4.068s-.416-4.866-.416-4.866Z" transform="translate(-350.644 -190.636)" fill="none" stroke="#2c041c" stroke-linecap="round" stroke-linejoin="round" stroke-width="2.83"/>
              <path id="Trazado_107598" data-name="Trazado 107598" d="M359.919,245.9s11.473-9.521,16.314-18.516,10.11-16.2,12-22.4-3.665-8.777-5.855-9.09-7.566-1.937-7.566-1.937.811-5.838-3.12-7.074-8.357,1.482-8.357,1.482a9.974,9.974,0,0,0-6.637.63c-3.437,1.613-15.06,5.567-17.2,6.306s-2.6,1.866-2.6,1.866a6.9,6.9,0,0,0-7.614,5.609s-4.831-2.117-6.7,4.087a63.935,63.935,0,0,0-.385,32.081c3.348,13.381,1.728,14.137.6,30.973s-8,73.884-8,73.884,28.266,5.557,46.361,2.232C361.161,346.035,359.229,255.411,359.919,245.9Z" transform="translate(-314.8 -186.554)" fill="none" stroke="#2c041c" stroke-linecap="round" stroke-linejoin="round" stroke-width="2.83"/>
            </g>
            <g id="Grupo_55654" data-name="Grupo 55654" transform="translate(0 77.722)">
              <path id="Trazado_107599" data-name="Trazado 107599" d="M163.725,287.281s6.264-13.53,6.762-23.737,2.16-18.966,1.2-25.373-7.086-6.348-9.2-5.688-7.662,1.506-7.662,1.506-1.8-5.615-5.862-5.046-6.906,4.938-6.906,4.938a10.006,10.006,0,0,0-5.724,3.42c-2.4,2.939-11.2,11.508-12.8,13.092s-1.548,2.808-1.548,2.808a6.894,6.894,0,0,0-4.458,8.341s-5.274.161-4.3,6.569a63.965,63.965,0,0,0,13.452,29.124c8.772,10.638,7.644,12,13.872,27.7s24.6,70.122,24.6,70.122,27.906-7.146,42.816-17.934C207.951,377.125,167.217,296.161,163.725,287.281Z" transform="translate(-113.09 -228.901)" fill="#eef0e3"/>
              <path id="Trazado_107600" data-name="Trazado 107600" d="M172.64,250.109s6.486,8.244,18.03,3.99c0,0-7.29,5.682-12.918,2.466A27.077,27.077,0,0,1,172.64,250.109Z" transform="translate(-136.903 -237.384)" fill="#d1d3d4"/>
              <path id="Trazado_107601" data-name="Trazado 107601" d="M171.72,253.72s-5.8,8.5-2.682,15.036c0,0-17.73,8.274-17.94,25.645a17.675,17.675,0,0,0-17.79-8.28s-.366-5.4-3.858-5.592c0,0,4.709-.834,4.512-3.408,0,0,6.51,4.356,13.771-4.878L158.3,257.314a12,12,0,0,1-4.146-10.524S159.78,261.755,171.72,253.72Z" transform="translate(-119.627 -236.057)" fill="#a4a88f"/>
              <path id="Trazado_107602" data-name="Trazado 107602" d="M143.32,351.564s6,1.039,13.14-3.654c0,0-5.143,4.314-.685,14.953l-5.4-8.084,14.712,52.8S149.836,361.963,143.32,351.564Z" transform="translate(-125.175 -276.505)" fill="#898a7d"/>
              <path id="Trazado_107603" data-name="Trazado 107603" d="M113.2,268.109c-.979-6.407,4.3-6.569,4.3-6.569a6.893,6.893,0,0,1,4.458-8.341s-.06-1.2,1.548-2.807,10.4-10.153,12.8-13.093a10.007,10.007,0,0,1,5.724-3.42s2.832-4.362,6.906-4.937,5.862,5.046,5.862,5.046,5.55-.853,7.662-1.506,8.22-.715,9.2,5.688a31.612,31.612,0,0,1,.3,5.143l-.15-.042s-.924-8.161-8.166-7.026-15.354,4.932-15.354,4.932a8.736,8.736,0,0,1-.966-1.878c.18.2.282.336.282.336l-.324-.456c-.474-1.416-.528-3.174,1.728-3.84l3.558-.87s-3.27-4.686-8.4.318l3.126,4.392a.143.143,0,0,0,.042.12c-1.122-1.284-5.4-5.586-8.55-1.2a81.756,81.756,0,0,1-8.952,10.063l6.54-3.1s4.62,0,7.422,5.4a10.661,10.661,0,0,0-11.454-.87c-6.312,3.354-12.3,5.508-10.692,10.77l8.946-3.035s4.428-1.614,8.658,4.8c0,0-5.058-3.6-10.2-1.32s-11.658,4.764-11.658,4.764a12.7,12.7,0,0,0,7.242,5.4s-6.438-.63-9.06-3.21c0,0,3.756,6.979,8.55,7.938,0,0-6.048.871-8.676-1.709,0,0,5.67,14.861,9.408,20.945A63.851,63.851,0,0,1,113.2,268.109Z" transform="translate(-113.079 -228.901)" fill="#a4a88f"/>
              <path id="Trazado_107604" data-name="Trazado 107604" d="M177.245,237.648l-5.269.846.126-.036a3.43,3.43,0,0,0-.666.354,3.182,3.182,0,0,0-.6.516,2.438,2.438,0,0,0-.6,1.35,3.711,3.711,0,0,0,.222,1.6,9.018,9.018,0,0,0,.78,1.615,19.959,19.959,0,0,0,4.578,5.9,7.73,7.73,0,0,0,3.27,1.542,8.636,8.636,0,0,0,3.654-.1,19.933,19.933,0,0,0,6.774-3.336h0a.263.263,0,0,1,.306.425,20.437,20.437,0,0,1-6.9,3.667,9.494,9.494,0,0,1-4.008.233,8.628,8.628,0,0,1-3.714-1.607,21.033,21.033,0,0,1-5.058-6.06,6.627,6.627,0,0,1-1.309-4.015,3.9,3.9,0,0,1,.864-2.16,4.546,4.546,0,0,1,.834-.792,4.909,4.909,0,0,1,1.026-.6h.12l5.237-1.014a.852.852,0,1,1,.318,1.674Z" transform="translate(-135.375 -231.727)" fill="#35362f"/>
              <path id="Trazado_107605" data-name="Trazado 107605" d="M119.6,278.895l12.408-4.2h-.054a7.4,7.4,0,0,1,1.518-.384,8.016,8.016,0,0,1,4.44.671,8.716,8.716,0,0,1,2.4,1.753,9.839,9.839,0,0,1,.948,1.116,13.8,13.8,0,0,1,.8,1.151l3.042,4.476a21.265,21.265,0,0,1,2.623,4.98,5.961,5.961,0,0,1,.24,3.1,4.574,4.574,0,0,1-.636,1.53,6.182,6.182,0,0,1-1.08,1.2,15.433,15.433,0,0,1-2.4,1.6c-.414.252-.864.42-1.3.631a14.446,14.446,0,0,1-1.374.468,9.89,9.89,0,0,1-2.922.4,8.118,8.118,0,0,1-2.952-.636,8.893,8.893,0,0,1-4.146-4.2l.87.462h0a13.688,13.688,0,0,1-2.832-.187,15.22,15.22,0,0,1-2.682-.685,12.967,12.967,0,0,1-2.484-1.157,13.4,13.4,0,0,1-2.19-1.607.232.232,0,0,1,.294-.354h0a12.9,12.9,0,0,0,2.256,1.277,12.015,12.015,0,0,0,2.436.8,13.693,13.693,0,0,0,2.526.342,12.7,12.7,0,0,0,2.466-.125h.03a.851.851,0,0,1,.84.462,7.2,7.2,0,0,0,3.312,3.383,6.564,6.564,0,0,0,2.31.487,8.048,8.048,0,0,0,2.4-.33,12.37,12.37,0,0,0,4.422-2.371,4,4,0,0,0,.744-.8,2.814,2.814,0,0,0,.4-.955,4.395,4.395,0,0,0-.2-2.23,19.758,19.758,0,0,0-2.4-4.555c-.978-1.481-2.034-2.946-3.042-4.476-.252-.4-.5-.732-.738-1.068a8.753,8.753,0,0,0-.8-.942,7.024,7.024,0,0,0-1.938-1.41,6,6,0,0,0-2.28-.569,6.483,6.483,0,0,0-1.2.048,5.5,5.5,0,0,0-1.1.27h-.054l-12.415,4.158a.858.858,0,0,1-1.08-.54A.847.847,0,0,1,119.6,278.895Z" transform="translate(-115.452 -247.035)" fill="#35362f"/>
              <path id="Trazado_107606" data-name="Trazado 107606" d="M136.324,294.461a12.842,12.842,0,0,0,1.608,2.8,9.7,9.7,0,0,0,2.231,2.087,11.57,11.57,0,0,0,2.826,1.3c.5.174,1.044.264,1.578.419s1.092.192,1.656.342h0a.229.229,0,0,1,.163.276.243.243,0,0,1-.174.162,16.583,16.583,0,0,1-1.752.258,12.179,12.179,0,0,1-1.8-.09c-.3-.054-.6-.1-.9-.162a8.5,8.5,0,0,1-.882-.276,7.79,7.79,0,0,1-1.674-.816,7.336,7.336,0,0,1-2.514-2.735,6.488,6.488,0,0,1-.816-3.522.211.211,0,0,1,.228-.2.223.223,0,0,1,.18.127Z" transform="translate(-122.193 -255.06)" fill="#35362f"/>
              <path id="Trazado_107607" data-name="Trazado 107607" d="M127.87,263.938s8.364-5.886,11.832-7.332,5.928-1.746,9.978,4.607a76.89,76.89,0,0,1,5.729,10.369s1.422,7.2-5.292,8.646" transform="translate(-118.995 -239.638)" fill="none" stroke="#35362f" stroke-linecap="round" stroke-linejoin="round" stroke-width="2.83"/>
              <path id="Trazado_107608" data-name="Trazado 107608" d="M161.33,237.184s2.772-.6,5.016,4.116" transform="translate(-132.379 -232.204)" fill="none" stroke="#35362f" stroke-linecap="round" stroke-linejoin="round" stroke-width="2.83"/>
              <path id="Trazado_107609" data-name="Trazado 107609" d="M173.477,272.395c.408-.061.828-.1,1.23-.169l.6-.156.3-.077.269-.126a4.458,4.458,0,0,0,1.891-1.368,5.068,5.068,0,0,0,1-2.154,7.313,7.313,0,0,0,.1-2.448l.035.121-3.378-7.934a.411.411,0,0,1,.751-.335l3.6,7.843h0a.373.373,0,0,1,.035.113,8.485,8.485,0,0,1-.035,2.862,6.28,6.28,0,0,1-1.165,2.67,5.692,5.692,0,0,1-2.321,1.8l-.336.157-.349.1-.7.205c-.462.1-.937.155-1.4.233a.669.669,0,0,1-.216-1.32h0Z" transform="translate(-136.978 -240.342)" fill="#35362f"/>
              <path id="Trazado_107610" data-name="Trazado 107610" d="M132.738,286.927l.936,2.011a9.283,9.283,0,0,1-7.4,2.64s18.738-.54,23.556,8.081c0,0-2.862-16.1,13.326-27.6,0,0-2.208-7.033,5.742-12.12a9.907,9.907,0,0,1-6.15,1.649s.222,1.2-2.706,3.264c0,0,3.828,5.61-3.816,9,0,0-1.2-.6-1.2,1.063s-.27,5.111-4.032,6.5c0,0-1.8.106-1.074,2.3s-1.752,7.3-10.032,6.978c0,0-1.374,1.128-4.548-4.015Z" transform="translate(-118.355 -241.317)" fill="#6b6d5d"/>
              <path id="Trazado_107611" data-name="Trazado 107611" d="M188.239,307.024s7.23,18.379,7.4,18.774S185.12,306,185.12,306c-7.135,2.521-9-.317-9-.317,19.35-13.021,20.2-40.052,20.2-40.052l.348.7c-.335,3.684-.743,7.674-.947,11.916-.5,10.2-6.762,23.735-6.762,23.735,3.491,8.874,44.226,89.845,44.226,89.845a71.325,71.325,0,0,1-9.6,5.724C213.4,364.59,188.239,307.024,188.239,307.024Z" transform="translate(-138.295 -243.593)" fill="#6c6f58"/>
              <path id="Trazado_107612" data-name="Trazado 107612" d="M130.86,337.08s8.844,11.615,19.524,3.869c0,0-4.74,5.729-13.506,3.785Z" transform="translate(-120.191 -272.172)" fill="#babdaa"/>
              <path id="Trazado_107613" data-name="Trazado 107613" d="M179.289,237.311s3.6.264,5.226,5.772c0,0-6.1,2.556-9.108-.163s-2.472-4.2-2.472-4.2Z" transform="translate(-137.005 -232.265)" fill="none" stroke="#35362f" stroke-miterlimit="10" stroke-width="2.83"/>
              <path id="Trazado_107614" data-name="Trazado 107614" d="M163.725,287.281s6.264-13.53,6.762-23.737,2.16-18.966,1.2-25.373-7.086-6.348-9.2-5.688-7.662,1.506-7.662,1.506-1.8-5.615-5.862-5.046-6.906,4.938-6.906,4.938a10.006,10.006,0,0,0-5.724,3.42c-2.4,2.939-11.2,11.508-12.8,13.092s-1.548,2.808-1.548,2.808a6.894,6.894,0,0,0-4.458,8.341s-5.274.161-4.3,6.569a63.965,63.965,0,0,0,13.452,29.124c8.772,10.638,7.644,12,13.872,27.7s24.6,70.122,24.6,70.122,27.906-7.146,42.816-17.934C207.951,377.125,167.217,296.161,163.725,287.281Z" transform="translate(-113.09 -228.901)" fill="none" stroke="#35362f" stroke-linecap="round" stroke-linejoin="round" stroke-width="2.83"/>
            </g>
            <g id="Grupo_55655" data-name="Grupo 55655" transform="translate(22.734)">
              <path id="Trazado_107615" data-name="Trazado 107615" d="M195.988,183.487s-17.292-12.6-25.038-25.032-15.96-22.266-19.2-30.978,4.453-12.9,7.554-13.554,10.656-3.462,10.656-3.462-1.68-8.28,3.829-10.41,12.1,1.368,12.1,1.368a14.316,14.316,0,0,1,9.564.288c5.063,2,22.068,6.6,25.2,7.47s3.906,2.436,3.906,2.436,8.729-1.734,11.4,7.344c0,0,6.72-3.474,9.966,5.238s7.043,26.442,3.474,45.9-1.2,20.4,1.944,44.4,18.113,105.072,18.113,105.072-39.966,10.524-66.18,7.41C203.3,326.983,197.824,197.047,195.988,183.487Z" transform="translate(-150.969 -99.364)" fill="#c83737"/>
              <path id="Trazado_107616" data-name="Trazado 107616" d="M190.8,126.85s-2.37,14.868-19.8,17.592c0,0,13.11,2.04,17.916-5.922A38.917,38.917,0,0,0,190.8,126.85Z" transform="translate(-158.981 -110.358)" fill="#d32d49"/>
              <path id="Trazado_107617" data-name="Trazado 107617" d="M175.62,142.236s13.2,6.6,13.86,16.974c0,0,28-2,40.392,19.626,0,0-.114-16.386,16.512-22.8,0,0-3.312-7.038.937-9.708,0,0-6.486,2.245-8.04-1.116,0,0-5.112,10-20.664,3.492l-23.664-11.328s3.57-8.466-2.154-16.086C192.8,121.29,196.194,143.976,175.62,142.236Z" transform="translate(-160.829 -108.134)" fill="#d32d49"/>
              <path id="Trazado_107618" data-name="Trazado 107618" d="M300.645,236.62s-6.786,5.49-19.015,4.6c0,0,9.456,1.8,11.3,18.271l1.115-13.9,18.408,76.464S299.739,254.2,300.645,236.62Z" transform="translate(-203.233 -154.266)" fill="#f7f7f7"/>
              <path id="Trazado_107619" data-name="Trazado 107619" d="M245.954,124.195c-3.246-8.712-9.966-5.238-9.966-5.238-2.682-9.078-11.4-7.344-11.4-7.344s-.78-1.578-3.906-2.436-20.124-5.466-25.2-7.47a14.314,14.314,0,0,0-9.564-.288s-6.6-3.5-12.1-1.368-3.828,10.41-3.828,10.41-7.548,2.813-10.656,3.462-10.8,4.842-7.554,13.554a45.287,45.287,0,0,0,3.216,6.654l.149-.156s-4.536-10.878,5.334-14.514,22.692-4.53,22.692-4.53a12.694,12.694,0,0,0-.1-3c-.083.384-.12.6-.12.6l.09-.8c-.391-2.106-1.554-4.344-4.849-3.6l-5.07,1.392s.828-8.154,10.8-5.472l-.882,7.692v.18c.509-2.4,2.843-10.758,9.888-7.458a117.138,117.138,0,0,0,18.258,6.336l-10.356.684s-5.771,3.252-5.526,11.964a15.316,15.316,0,0,1,13.752-9.09c10.254-.2,19.26-1.68,20.916,6.042l-13.326,2.436s-6.678,1.068-7.5,12.072c0,0,3.846-8.022,11.826-8.76s17.939-2.166,17.939-2.166a18.229,18.229,0,0,1-5.316,11.826s7.632-5.286,9.12-10.356c0,0,.168,11.37-5.178,15.918,0,0,8.19-3.126,9.678-8.2,0,0,3.276,22.59,2.832,32.826C252.458,148.165,248.966,132.289,245.954,124.195Z" transform="translate(-150.979 -99.364)" fill="#f7f7f7"/>
              <path id="Trazado_107620" data-name="Trazado 107620" d="M176.942,114.887l7.254-2.4h.037a.2.2,0,0,1,.084,0,6.416,6.416,0,0,1,1.6,0,5.884,5.884,0,0,1,1.523.384,5.23,5.23,0,0,1,2.448,1.98,5.574,5.574,0,0,1,.4.684l.3.714a6.207,6.207,0,0,1,.2.726,4.043,4.043,0,0,1,.149.738,15.21,15.21,0,0,1,.1,2.9c-.186,3.678-.437,7.536-2.033,11.046a12.092,12.092,0,0,1-1.465,2.472,10.7,10.7,0,0,1-2,2.046,13.387,13.387,0,0,1-5.1,2.5,29.3,29.3,0,0,1-11.147.27.264.264,0,0,1,.06-.522h0a28.8,28.8,0,0,0,10.878-.5,12.6,12.6,0,0,0,4.728-2.442,10.249,10.249,0,0,0,1.8-1.95,11.616,11.616,0,0,0,1.3-2.322,19.356,19.356,0,0,0,1.338-5.2,53.371,53.371,0,0,0,.354-5.472,13.587,13.587,0,0,0-.139-2.634,3.433,3.433,0,0,0-.145-.6,6.1,6.1,0,0,0-.174-.6l-.251-.558a3.927,3.927,0,0,0-.312-.51,3.764,3.764,0,0,0-1.8-1.4,4.723,4.723,0,0,0-1.158-.264,5.087,5.087,0,0,0-1.2,0h.12l-7.2,2.58a.855.855,0,0,1-.6-1.6Z" transform="translate(-158.21 -104.593)" fill="#5d0303"/>
              <path id="Trazado_107621" data-name="Trazado 107621" d="M273.613,132.292l-18.468,3.468h-.078a9.067,9.067,0,0,0-1.662.456,9.624,9.624,0,0,0-1.584.8,9.132,9.132,0,0,0-2.568,2.4,10.6,10.6,0,0,0-1.506,3.234,13.584,13.584,0,0,0-.348,1.8c-.072.6-.15,1.2-.187,1.884-.2,2.6-.5,5.178-.689,7.734a28.661,28.661,0,0,0,.149,7.5,6.6,6.6,0,0,0,1.393,3.1,4.563,4.563,0,0,0,1.266,1,6.372,6.372,0,0,0,1.6.534,20.075,20.075,0,0,0,3.7.306c.6,0,1.23-.072,1.849-.1l.905-.144.456-.072.444-.114a12.229,12.229,0,0,0,3.366-1.314,9.7,9.7,0,0,0,2.658-2.322,10.712,10.712,0,0,0,1.865-6.792.84.84,0,0,1,.511-.81h0a18.082,18.082,0,0,0,3.222-1.662,20.5,20.5,0,0,0,2.922-2.262c.468-.414.876-.876,1.308-1.326a10.445,10.445,0,0,0,1.158-1.458,18.819,18.819,0,0,0,1.89-3.234h0a.223.223,0,0,1,.295-.1.229.229,0,0,1,.107.282,19.2,19.2,0,0,1-1.668,3.486c-.312.57-.714,1.08-1.08,1.62a11.392,11.392,0,0,1-1.254,1.494,20.86,20.86,0,0,1-2.892,2.646,19.494,19.494,0,0,1-3.384,2.112h0l.534-.822c0,.678,0,1.362-.061,2.046l-.15,1.026-.078.516c-.029.168-.09.336-.132.5l-.3,1a9.312,9.312,0,0,1-.414.966,9.973,9.973,0,0,1-4.2,4.579,13.7,13.7,0,0,1-3.834,1.506l-.5.12-.5.084-1.009.162c-.672.036-1.35.138-2.022.114a21.561,21.561,0,0,1-4.025-.342,8.13,8.13,0,0,1-2.076-.69,6.375,6.375,0,0,1-1.758-1.385,6.592,6.592,0,0,1-1.158-1.873,9.936,9.936,0,0,1-.6-2.016,30.155,30.155,0,0,1-.18-7.974c.18-2.6.5-5.172.689-7.734.036-.6.114-1.3.2-1.98a15.722,15.722,0,0,1,.4-2.017,12.262,12.262,0,0,1,1.758-3.762,10.94,10.94,0,0,1,4.932-3.81,10.254,10.254,0,0,1,2.076-.564h-.06L273.3,130.63a.849.849,0,0,1,.313,1.669Z" transform="translate(-188.448 -111.865)" fill="#5d0303"/>
              <path id="Trazado_107622" data-name="Trazado 107622" d="M275.6,157.054a9.894,9.894,0,0,1,1.2,4.932,11.036,11.036,0,0,1-1.254,5.034c-.211.384-.462.738-.689,1.11a6.061,6.061,0,0,1-.792,1.032,11.567,11.567,0,0,1-.882.947c-.313.289-.648.559-.973.834a7.051,7.051,0,0,1-1.039.738l-1.072.667c-.757.365-1.524.7-2.292,1a.225.225,0,0,1-.171,0,.223.223,0,0,1-.117-.123.226.226,0,0,1,.06-.251h0c.63-.528,1.29-1,1.919-1.477l.895-.792a9.149,9.149,0,0,0,.865-.792c.269-.289.527-.6.8-.846a9.954,9.954,0,0,0,.72-.9,13.709,13.709,0,0,0,1.242-1.914c.146-.349.313-.684.475-1.026s.239-.72.372-1.074a12.539,12.539,0,0,0,.467-2.232,15.584,15.584,0,0,0-.155-4.686h0a.21.21,0,0,1,.168-.246A.2.2,0,0,1,275.6,157.054Z" transform="translate(-197.582 -122.406)" fill="#5d0303"/>
              <path id="Trazado_107623" data-name="Trazado 107623" d="M253.953,119.067s-14.6-1.53-19.949-.93-8.652,1.956-9.294,12.744a110.19,110.19,0,0,0,.054,16.992s3.6,9.954,12.99,7.05" transform="translate(-180.357 -106.818)" fill="none" stroke="#5d0303" stroke-linecap="round" stroke-linejoin="round" stroke-width="2.83"/>
              <path id="Trazado_107624" data-name="Trazado 107624" d="M206.9,102.79s-3.876,1.2-3.413,8.658" transform="translate(-171.959 -100.734)" fill="none" stroke="#35362f" stroke-linecap="round" stroke-linejoin="round" stroke-width="2.83"/>
              <path id="Trazado_107625" data-name="Trazado 107625" d="M216.293,158.037c-.6.234-1.241.5-1.878.714l-.99.24-.492.12-.516.042c-.342.03-.684.066-1.032.084l-1.038-.084a5.032,5.032,0,0,1-1.025-.2l-.51-.132-.486-.2A8.87,8.87,0,0,1,205,156.17a11.789,11.789,0,0,1-1.2-1.656,11.159,11.159,0,0,1-.911-1.86.617.617,0,0,1-.037-.145h0l-1.2-12.312a.852.852,0,1,1,1.692-.168h0l1.05,12.325-.036-.174a10.622,10.622,0,0,0,1.8,3.042,7.4,7.4,0,0,0,2.754,2.088l.391.174.419.107a3.9,3.9,0,0,0,.84.18l.864.084c.294,0,.6-.042.883-.06h.438l.438-.1.875-.2c.6-.179,1.134-.419,1.7-.629l.1-.03a.655.655,0,0,1,.847.4A.666.666,0,0,1,216.293,158.037Z" transform="translate(-171.238 -115.301)" fill="#35362f"/>
              <path id="Trazado_107626" data-name="Trazado 107626" d="M244.117,163.512l.234,3.174s6,1.92,11.124-1.86c0,0-23.868,12.408-23.88,26.574,0,0-7.662-22.2-36-25.3,0,0-2.142-10.35-15.666-11.178A14.286,14.286,0,0,0,188.8,152.7s.559,1.662,5.67,2.2c0,0-.888,9.714,11.064,8.622,0,0,1.056-1.6,2.273.48s3.9,6.215,9.6,5.333c0,0,2.34-1.122,2.953,2.136s7.3,7.932,17.441,1.74c0,0,2.514.462,2.9-8.208Z" transform="translate(-162.553 -120.699)" fill="#43020e"/>
              <path id="Trazado_107627" data-name="Trazado 107627" d="M207.358,218.475s3.769,28.087,3.834,28.7S210.551,215,210.551,215c10.7-1.8,11.094-6.7,11.094-6.7C188.3,205.5,168.37,172.21,168.37,172.21l.042,1.115c3,4.374,6.294,9.1,9.516,14.269,7.746,12.443,25.021,25.032,25.021,25.032,1.8,13.56,7.289,143.5,7.289,143.5a102.249,102.249,0,0,0,16.044.462C216,308.2,207.358,218.475,207.358,218.475Z" transform="translate(-157.929 -128.502)" fill="#43020e"/>
              <path id="Trazado_107628" data-name="Trazado 107628" d="M302.608,206.71s-3,20.742-21.769,18.48c0,0,9.937,3.876,19.572-4.68Z" transform="translate(-202.916 -142.303)" fill="#43020e"/>
              <path id="Trazado_107629" data-name="Trazado 107629" d="M179.449,116.638s-4.356,2.856-2.521,10.884c0,0,9.426-1.05,11.3-6.564s.15-7.008.15-7.008Z" transform="translate(-161.172 -105.199)" fill="none" stroke="#5d0303" stroke-miterlimit="10" stroke-width="2.83"/>
              <path id="Trazado_107630" data-name="Trazado 107630" d="M195.988,183.487s-17.292-12.6-25.038-25.032-15.96-22.266-19.2-30.978,4.453-12.9,7.554-13.554,10.656-3.462,10.656-3.462-1.68-8.28,3.829-10.41,12.1,1.368,12.1,1.368a14.316,14.316,0,0,1,9.564.288c5.063,2,22.068,6.6,25.2,7.47s3.906,2.436,3.906,2.436,8.729-1.734,11.4,7.344c0,0,6.72-3.474,9.966,5.238s7.043,26.442,3.474,45.9-1.2,20.4,1.944,44.4,18.113,105.072,18.113,105.072-39.966,10.524-66.18,7.41C203.3,326.983,197.824,197.047,195.988,183.487Z" transform="translate(-150.969 -99.364)" fill="none" stroke="#5d0303" stroke-linecap="round" stroke-linejoin="round" stroke-width="2.83"/>
            </g>
          </g>
        </g>
      </g>
    </g>
  </g>
</svg>
