<svg xmlns="http://www.w3.org/2000/svg" xmlns:xlink="http://www.w3.org/1999/xlink" width="459.5" height="298.854" viewBox="0 0 459.5 298.854">
  <defs>
    <radialGradient id="radial-gradient" cx="0.906" cy="0.686" r="0.455" gradientTransform="translate(-1.159 -0.005) scale(2.376 1.01)" gradientUnits="objectBoundingBox">
      <stop offset="0" stop-color="#30363f"/>
      <stop offset="1" stop-color="#424750"/>
    </radialGradient>
    <linearGradient id="linear-gradient" x1="0.441" y1="0.327" x2="0.923" y2="0.474" gradientUnits="objectBoundingBox">
      <stop offset="0" stop-color="#424750"/>
      <stop offset="0.72" stop-color="#30363f"/>
    </linearGradient>
    <radialGradient id="radial-gradient-2" cx="0.654" cy="-0.033" r="0.745" gradientTransform="translate(-0.205) scale(1.409 1)" xlink:href="#radial-gradient"/>
    <radialGradient id="radial-gradient-3" cx="0.524" cy="0.514" r="0.353" gradientTransform="translate(-0.334) scale(1.667 1)" xlink:href="#radial-gradient"/>
    <radialGradient id="radial-gradient-4" cx="0.559" cy="0.335" r="0.289" gradientTransform="translate(0.501 -0.002) scale(1.399 1.01)" gradientUnits="objectBoundingBox">
      <stop offset="0" stop-color="#323742"/>
      <stop offset="1" stop-color="#434752"/>
    </radialGradient>
    <radialGradient id="radial-gradient-5" cx="1.979" cy="0.541" r="0.364" gradientTransform="matrix(-1.38, 0, 0, 1.01, 562.241, -0.005)" gradientUnits="objectBoundingBox">
      <stop offset="0" stop-color="#486280"/>
      <stop offset="1" stop-color="#5e7fa5"/>
    </radialGradient>
    <radialGradient id="radial-gradient-6" cx="1.754" cy="0.405" r="0.457" gradientTransform="matrix(-1.608, 0, 0, 1.01, 496.657, -0.004)" xlink:href="#radial-gradient-4"/>
    <radialGradient id="radial-gradient-7" cx="3.808" cy="0.458" r="0.35" gradientTransform="matrix(-5.577, 0, 0, 1.01, 2821.391, -0.005)" gradientUnits="objectBoundingBox">
      <stop offset="0" stop-color="#573f2c"/>
      <stop offset="1" stop-color="#7e5e44"/>
    </radialGradient>
    <radialGradient id="radial-gradient-8" cx="203.471" cy="0.529" r="0.343" gradientTransform="translate(-0.577) scale(2.155 1)" xlink:href="#radial-gradient-5"/>
  </defs>
  <g id="Grupo_55716" data-name="Grupo 55716" transform="translate(-265 -890.073)">
    <g id="CF1_intro_1_copia" data-name="CF1_intro 1 copia" transform="translate(174.54 774.285)">
      <g id="Layer_1" data-name="Layer 1" transform="translate(90.46 115.788)">
        <g id="Grupo_54001" data-name="Grupo 54001">
          <path id="Trazado_101264" data-name="Trazado 101264" d="M90.46,459.11s102.863,8.77,229.75,8.77,229.75-8.77,229.75-8.77-102.863-8.77-229.75-8.77S90.46,459.11,90.46,459.11Z" transform="translate(-90.46 -169.027)" fill="#d5d9ba" opacity="0.4"/>
          <g id="Grupo_53975" data-name="Grupo 53975" transform="translate(162.514 34.839)">
            <g id="Grupo_53969" data-name="Grupo 53969" transform="translate(40.286 78.656)">
              <g id="Grupo_53968" data-name="Grupo 53968" transform="translate(19.701 110.151)">
                <path id="Trazado_101265" data-name="Trazado 101265" d="M370.74,382.1l.4,35.9h3.363l1.682-36.25Z" transform="translate(-357.564 -381.76)" fill="#b3adaa"/>
                <path id="Trazado_101266" data-name="Trazado 101266" d="M369.314,423.03h5.693l1.682,24.074L371.9,448.92,367.38,447.1Z" transform="translate(-357.029 -388.327)" fill="#8c8480"/>
                <path id="Trazado_101267" data-name="Trazado 101267" d="M365.827,454.813c0-1.741-.925-3.153-2.069-3.153s-2.069,1.413-2.069,3.153.925,3.145,2.069,3.145S365.827,456.545,365.827,454.813Z" transform="translate(-356.123 -392.883)" fill="#544f4c"/>
                <ellipse id="Elipse_4059" data-name="Elipse 4059" cx="2.069" cy="3.145" rx="2.069" ry="3.145" transform="translate(0 58.785)" fill="#544f4c"/>
                <path id="Trazado_101268" data-name="Trazado 101268" d="M369.945,452.79l-14.875-1.421,1.244-4.019,13.008,2.464Z" transform="translate(-355.07 -392.198)" fill="#6f6864"/>
                <path id="Trazado_101269" data-name="Trazado 101269" d="M371,452.79l-9.308-1.421.774-4.019,8.148,2.464Z" transform="translate(-356.123 -392.198)" fill="#8c8480"/>
                <ellipse id="Elipse_4060" data-name="Elipse 4060" cx="2.069" cy="3.145" rx="2.069" ry="3.145" transform="translate(20.046 58.785)" fill="#544f4c"/>
                <ellipse id="Elipse_4061" data-name="Elipse 4061" cx="2.069" cy="3.145" rx="2.069" ry="3.145" transform="translate(25.604 58.785)" fill="#544f4c"/>
                <path id="Trazado_101270" data-name="Trazado 101270" d="M372.76,452.79l14.867-1.421-1.236-4.019-13.008,2.464Z" transform="translate(-357.885 -392.198)" fill="#6f6864"/>
                <path id="Trazado_101271" data-name="Trazado 101271" d="M372.76,452.79l9.308-1.421-.774-4.019-8.148,2.464Z" transform="translate(-357.885 -392.198)" fill="#8c8480"/>
              </g>
              <path id="Trazado_101272" data-name="Trazado 101272" d="M423.025,274.431c-1.724,16.918-30,88.039-30,88.039l-61.383,1.379.336-7.248,28.976-1.371s12.764-97.709,14.833-100.82c1.455-2.195,10.141-4.2,20.223-3.506h0a52.5,52.5,0,0,1,12.865,2.472C411.388,254.2,424.758,257.513,423.025,274.431Z" transform="translate(-331.64 -250.762)" fill="#34271f"/>
              <path id="Trazado_101273" data-name="Trazado 101273" d="M424.78,269.6c0,16.229-29.313,84.928-29.313,84.928l-28.968.706s12.764-97.709,14.833-100.82c1.455-2.195,10.141-4.2,20.223-3.506h0C412.218,253.2,424.78,258.892,424.78,269.6Z" transform="translate(-337.187 -250.762)" fill="#4a382e"/>
            </g>
            <g id="Grupo_53974" data-name="Grupo 53974" transform="translate(0)">
              <path id="Trazado_101274" data-name="Trazado 101274" d="M385.778,218.433c1.076-5.045-35.821-4.919-32.205,1.253-5.356-7.248-.126-22.426-.126-22.426s33.567,3.49,33.937,3.624S390.882,214.405,385.778,218.433Z" transform="translate(-294.46 -163.592)" fill="#492b23"/>
              <path id="Trazado_101275" data-name="Trazado 101275" d="M382.442,220.117c-6.727-2.977-18.793-.631-21.753.622-.547,4.684,1.076,13.6,1.076,13.6l13.21-1.446S381.811,223.8,382.442,220.117Z" transform="translate(-295.959 -166.999)" fill="#dcdce5"/>
              <path id="Trazado_101276" data-name="Trazado 101276" d="M366.658,208.88c-.185,6.122-4.028,21.072-4.028,21.072l2.338,4.591,13.757-7.114s-2.3-14.127-2.119-17.995S366.658,208.88,366.658,208.88Z" transform="translate(-296.286 -165.231)" fill="#e4ac91"/>
              <path id="Trazado_101277" data-name="Trazado 101277" d="M338.015,239c-5.289,21.173-10.09,54.522-10.09,54.522L317.54,297.3l1.505,4.347s12.655.572,14.354-.757,4.911-14.177,7.568-23.057S347.265,239.387,338.015,239Z" transform="translate(-289.11 -170.234)" fill="url(#radial-gradient)"/>
              <path id="Trazado_101278" data-name="Trazado 101278" d="M304.327,454.223s-12.462.429-14.867,4.827H308.3a7.374,7.374,0,0,0-.286-4.255C307.16,452.381,304.327,454.223,304.327,454.223Z" transform="translate(-284.642 -204.376)" fill="#1c1f26"/>
              <path id="Trazado_101279" data-name="Trazado 101279" d="M308.187,454.223s-12.462.429-14.867,4.827h18.835a7.375,7.375,0,0,0-.286-4.255C311.029,452.381,308.187,454.223,308.187,454.223Z" transform="translate(-285.256 -204.376)" fill="#262932"/>
              <path id="Trazado_101280" data-name="Trazado 101280" d="M327.632,343.084s-30.019,8.8-43.9,20.7c5.667,29.489,19.685,72.584,19.685,72.584l4.389-.277s-2.834-57.843-11.041-65.789c5.373-1.682,59.474-18.146,59.474-19s-4.255-10.494-5.1-9.922S327.632,343.084,327.632,343.084Z" transform="translate(-283.73 -186.523)" fill="url(#linear-gradient)"/>
              <path id="Trazado_101281" data-name="Trazado 101281" d="M375.539,340.71c2.834,12.193,1.984,22.7-3.363,25.52s-51.293,2.523-51.293,2.523,1.135,13.891,1.135,27.219-7.652,40.832-7.652,40.832l-3.683-.572s-4.246-67.765.572-75.14,42.766-15.312,42.766-15.312Z" transform="translate(-287.744 -186.42)" fill="url(#radial-gradient-2)"/>
              <path id="Trazado_101282" data-name="Trazado 101282" d="M383.818,322.3c-6.727,6.407-22.83,13.689-31,2.38l-.286-.4-.252.437c-4.877,8.064-12.781,4.339-18.087-.437,2.523-10.629,7.013-23.586,6.836-34.745s-2.7-20.341-3.061-24.654,5.937-18.541,5.937-20.341-3.237-7.921-3.237-7.921l8.5-5.962,5.129-3.582,6.651-3.061c.092.362-.446,11.52-.446,11.52l6.651-11.427s9.7,1.261,11.419,2.523,5.482,3.6,5.482,3.6l.454.261c2.329,1.345,12.848,7.475,13.563,8.913.841,1.623-14.774,21.022-16.632,25.747C376.982,276.583,376.267,304.659,383.818,322.3Z" transform="translate(-291.76 -167.85)" fill="url(#radial-gradient-3)"/>
              <g id="Grupo_53970" data-name="Grupo 53970" transform="translate(44.208 127.414)">
                <path id="Trazado_101283" data-name="Trazado 101283" d="M347.047,313.862a18,18,0,0,1-3.9.151,5.508,5.508,0,0,1-2.253.446,10.761,10.761,0,0,1-1.413-.126l-.639-.109c-.362-.059-.732-.135-1.059-.21l-.723-.177a2.32,2.32,0,0,1-.748-.277c-.151-.227,3.3-4.734,4.431-4.81s5.407,1.951,5.407,1.951S347.652,313.559,347.047,313.862Z" transform="translate(-336.304 -308.748)" fill="#f8c5a5"/>
                <path id="Trazado_101284" data-name="Trazado 101284" d="M341.742,312.77l-1.783,2.2-.639-.109C340.077,314.183,341.574,312.829,341.742,312.77Z" transform="translate(-336.784 -309.388)" fill="#de9b88"/>
                <path id="Trazado_101285" data-name="Trazado 101285" d="M339.681,311.61l-1.757,2.859-.723-.177Z" transform="translate(-336.447 -309.203)" fill="#de9b88"/>
              </g>
              <path id="Trazado_101286" data-name="Trazado 101286" d="M387.283,230.49c-3.3,5.794-15.388,25.688-31.2,35.316h0c-.5.3-1,.6-1.505.841-1.379-3.439-4.4-14.606-2.615-36.014l5.129-3.582,6.651-3.061c.067.269-.2,6.281-.353,9.51-.05,1.2-.092,2.01-.092,2.01l.118-.2,6.534-11.226s9.7,1.261,11.419,2.523,5.482,3.6,5.482,3.6Z" transform="translate(-294.501 -167.846)" fill="#dcdce5"/>
              <path id="Trazado_101287" data-name="Trazado 101287" d="M377.57,321.8a13.637,13.637,0,0,0,7.82-1.959C383.977,322.808,378.848,322.5,377.57,321.8Z" transform="translate(-298.663 -183.099)" fill="#262932"/>
              <path id="Trazado_101288" data-name="Trazado 101288" d="M340.445,319.76c.841,1.488,2.624,1.085,3.17,1.219C341.857,321.988,340.176,321.047,340.445,319.76Z" transform="translate(-292.751 -183.086)" fill="#262932"/>
              <g id="Grupo_53971" data-name="Grupo 53971" transform="translate(58.567 98.793)">
                <path id="Trazado_101289" data-name="Trazado 101289" d="M355.869,332.747l-.286-.4-.252.437c-.656-6.315-3.565-36.931-.732-58.079l.53.076C352.3,295.883,355.213,326.474,355.869,332.747Z" transform="translate(-353.381 -274.71)" fill="#7a3541"/>
              </g>
              <path id="Trazado_101290" data-name="Trazado 101290" d="M359.28,289.357a1.085,1.085,0,1,1-.511-1.018A1.085,1.085,0,0,1,359.28,289.357Z" transform="translate(-295.408 -178.06)" fill="#262932"/>
              <path id="Trazado_101291" data-name="Trazado 101291" d="M359.589,317.466a1.085,1.085,0,1,1-1.076-1.076,1.085,1.085,0,0,1,1.076,1.076Z" transform="translate(-295.457 -182.55)" fill="#262932"/>
              <path id="Trazado_101292" data-name="Trazado 101292" d="M364.178,237.136c-2.4,8.039-6.534,22.7-7.307,30.456h0l-.521-.05c.841-8.35,5.558-24.679,7.828-32.222-.05,1.2-.092,2.01-.092,2.01Z" transform="translate(-295.286 -169.649)" fill="#dcdce5"/>
              <path id="Trazado_101293" data-name="Trazado 101293" d="M352.73,230.289c-1.623-.362-3.153,1.438-3.506,2.161s-1.488,10.7-.95,12.865a6.584,6.584,0,0,0,2.338,3.422,11.982,11.982,0,0,0-1.438,6.836c.362,3.961,4.675,13.143,4.675,13.143s19.1-9.4,21.577-13.319a9.056,9.056,0,0,0,.9-6.66,6.777,6.777,0,0,0,6.29-3.061c2.338-3.6,7.736-12.42,7.2-13.319s-3.6-2.338-3.6-2.338-12.722,23.889-31.642,36.536C350.073,251.437,352.73,230.289,352.73,230.289Z" transform="translate(-293.978 -168.805)" fill="#636976"/>
              <path id="Trazado_101294" data-name="Trazado 101294" d="M364.791,223.54a12.958,12.958,0,0,0-2.968,6.306L358.14,226.6a26.409,26.409,0,0,1,2.161-5.491C361.386,223.019,364.791,223.54,364.791,223.54Z" transform="translate(-295.571 -167.387)" fill="#eeeef4"/>
              <path id="Trazado_101295" data-name="Trazado 101295" d="M373.43,223.535c2.245,2.43,2.153,6.3,2.153,6.3s7.105-1.614,10.09-3.775a11.452,11.452,0,0,0-1.169-5.667S381.065,222.728,373.43,223.535Z" transform="translate(-298.004 -167.273)" fill="#eeeef4"/>
              <path id="Trazado_101296" data-name="Trazado 101296" d="M388.282,258.515c3.2,22.308-1.892,38.562-1.892,38.562l-38.89,2.464.37,4.532s41.2,1.135,44.566.95c8.686-17.2,10.931-46.542,7.828-62.7C393.714,242.984,388.282,258.515,388.282,258.515Z" transform="translate(-293.878 -170.763)" fill="#7a3541"/>
              <g id="Grupo_53973" data-name="Grupo 53973" transform="translate(53.112)">
                <path id="Trazado_101297" data-name="Trazado 101297" d="M393.581,171.668c.446,10.561-.841,36.712-2.951,41.724a2.925,2.925,0,0,0,3.759,0s9.653-34.383-.538-47.812C392.774,167.9,393.581,171.668,393.581,171.668Z" transform="translate(-353.853 -158.551)" fill="#5f3a30"/>
                <path id="Trazado_101298" data-name="Trazado 101298" d="M388.474,170.448c1.539,6.079.084,8.77.622,14.774s-.269,11.015-2.523,14.682-5.81,7.433-10.729,7.433-10.645-5.373-13.681-12.176-3.313-13.168-3.582-17.91.538-13.79,5.457-17.1C368.512,157.145,384.446,154.623,388.474,170.448Z" transform="translate(-348.746 -157.331)" fill="#f8c5a5"/>
                <g id="Grupo_53972" data-name="Grupo 53972" transform="translate(21.649 36.451)">
                  <path id="Trazado_101299" data-name="Trazado 101299" d="M372.64,200.57c.118.227.244.471.37.7s.168.277.261.42c1.614,2.573,4.011,4.339,6.206,3.784a4.947,4.947,0,0,0,3.061-2.867,5.61,5.61,0,0,1-.992.118,17.162,17.162,0,0,1-8.9-2.153Z" transform="translate(-372.64 -200.57)" fill="#7c2639"/>
                  <path id="Trazado_101300" data-name="Trazado 101300" d="M373.08,201.4c1.614,2.8,4.154,4.793,6.466,4.2C379.429,203.965,376.864,202.745,373.08,201.4Z" transform="translate(-372.71 -200.702)" fill="#d86872"/>
                  <path id="Trazado_101301" data-name="Trazado 101301" d="M372.64,200.57c.118.227.244.471.37.7s.168.277.261.42c1.682.841,5.945,2.716,8.274,1.034a17.162,17.162,0,0,1-8.9-2.153Z" transform="translate(-372.64 -200.57)" fill="#fff"/>
                </g>
                <path id="Trazado_101302" data-name="Trazado 101302" d="M379.02,157.439c6.676.614-1.614,10.57-10.738,18.272s-15.564,17.725-12.891,39.041a4.145,4.145,0,0,1-4.12-.185s-7.509-25.428-2.859-39.218S363.456,156.009,379.02,157.439Z" transform="translate(-346.893 -157.22)" fill="#5f3a30"/>
                <path id="Trazado_101303" data-name="Trazado 101303" d="M388.416,159.654c11.469,8.493,8.005,23.225,8.005,23.225s0-10.032-3.666-12.176-7.425-7.526-7.425-7.526l2.127-3.363a.664.664,0,0,1,.959-.16Z" transform="translate(-353.01 -157.586)" fill="#5f3a30"/>
                <path id="Trazado_101304" data-name="Trazado 101304" d="M376.732,178.86c0,.269-.084,1.253-.084,1.253s-9.662-.891-10.469-.891a2.119,2.119,0,0,0-1.43.841s.446-1.522,1.253-1.884S375.421,179.213,376.732,178.86Z" transform="translate(-349.735 -160.546)" fill="#5f3a30"/>
                <path id="Trazado_101305" data-name="Trazado 101305" d="M382.76,178.929l.269,1.253s8.224-1.884,8.854-1.682a3.893,3.893,0,0,1,1.337.992s-.353-1.522-1.16-1.976S382.76,178.929,382.76,178.929Z" transform="translate(-352.601 -160.439)" fill="#5f3a30"/>
                <path id="Trazado_101306" data-name="Trazado 101306" d="M376.009,190.451c-3.187,1.682-8.686-.471-9.359-1.034,1.009-3.935,3.826-4.406,5.743-4.2S376.009,187.5,376.009,190.451Z" transform="translate(-350.037 -161.669)" fill="#614343"/>
                <path id="Trazado_101307" data-name="Trazado 101307" d="M381.943,184.85c.362,4.742.984,7.341,2.413,10.208.538,1.076-1.64,1.791-2.716,2.06,1.446-.605,1.984-1.345,2.052-1.682S381.682,192.359,381.943,184.85Z" transform="translate(-352.423 -161.617)" fill="#de9b88"/>
                <path id="Trazado_101308" data-name="Trazado 101308" d="M376.149,190.57c-3.187,1.682-7.946,0-8.619-.572.706-3.363,3.052-4.2,4.969-4.061S376.149,187.619,376.149,190.57Z" transform="translate(-350.177 -161.788)" fill="#fff"/>
                <circle id="Elipse_4062" data-name="Elipse 4062" cx="2.346" cy="2.346" r="2.346" transform="translate(18.53 24.62)" fill="#4c5971"/>
                <path id="Trazado_101309" data-name="Trazado 101309" d="M391.479,187.975l.572-.942s-.513-3.506-3.624-3.3c-2.724.185-4.2,2.64-4.019,5.953C386.518,185.688,391.479,187.975,391.479,187.975Z" transform="translate(-352.861 -161.437)" fill="#614343"/>
                <path id="Trazado_101310" data-name="Trazado 101310" d="M384.409,189.8a7.526,7.526,0,0,0,1.682.471c2.809.42,4.978-.975,5.373-2.178-.841-3.9-3.321-4.33-5.045-2.825l-.235.219-.084.084a6.508,6.508,0,0,0-1.682,3.624,2.017,2.017,0,0,0,0,.311,1.681,1.681,0,0,0-.008.294Z" transform="translate(-352.863 -161.556)" fill="#fff"/>
                <path id="Trazado_101311" data-name="Trazado 101311" d="M384.44,189.388a2.346,2.346,0,1,0,1.917-3.708h-.135l-.084.084A6.508,6.508,0,0,0,384.44,189.388Z" transform="translate(-352.868 -161.749)" fill="#4c5971"/>
                <path id="Trazado_101312" data-name="Trazado 101312" d="M360.215,195.042c-3.363-6-8.047-3.221-7.156,0s8.341,8.972,8.232,5.1A13.883,13.883,0,0,0,360.215,195.042Z" transform="translate(-347.857 -162.677)" fill="#f8c5a5"/>
                <path id="Trazado_101313" data-name="Trazado 101313" d="M355.649,193.853a1.144,1.144,0,0,1,.883,0,4.12,4.12,0,0,1,1.429.975,8.728,8.728,0,0,1,1.11,1.312,5.752,5.752,0,0,1,.774,1.539l.1.32-.294-.16h0a4.389,4.389,0,0,0-1.085-.462.841.841,0,0,0-.547,0,.479.479,0,0,0-.219.446,2.069,2.069,0,0,0,.454,1.085,2.279,2.279,0,0,0,.925.765,1.943,1.943,0,0,1-.58-.244,2.817,2.817,0,0,1-.488-.412,2.136,2.136,0,0,1-.37-.53,1.782,1.782,0,0,1-.21-.647.941.941,0,0,1,.059-.4.639.639,0,0,1,.294-.32,1.034,1.034,0,0,1,.732-.067,3.229,3.229,0,0,1,.841.32,9.245,9.245,0,0,0-.622-1.085,8.5,8.5,0,0,0-1.051-1.278,5.462,5.462,0,0,0-.622-.547,3.48,3.48,0,0,0-.69-.429,1.085,1.085,0,0,0-.757-.084.992.992,0,0,0-.547.572,1,1,0,0,1,.479-.673Z" transform="translate(-348.21 -163.036)" fill="#de9b88"/>
              </g>
            </g>
          </g>
          <g id="Grupo_53983" data-name="Grupo 53983" transform="translate(290.881 16.715)">
            <g id="Grupo_53977" data-name="Grupo 53977" transform="translate(33.626 88.378)">
              <g id="Grupo_53976" data-name="Grupo 53976" transform="translate(20.761 116.309)">
                <path id="Trazado_101314" data-name="Trazado 101314" d="M517.58,379.452l.429,37.9h3.54l1.774-38.259Z" transform="translate(-503.697 -379.09)" fill="#b1aaa5"/>
                <path id="Trazado_101315" data-name="Trazado 101315" d="M516.082,422.64h6l1.774,25.419-5.045,1.909-4.776-1.909Z" transform="translate(-503.132 -386.02)" fill="#8a817c"/>
                <path id="Trazado_101316" data-name="Trazado 101316" d="M512.4,456.191c0-1.833-.975-3.321-2.178-3.321s-2.178,1.488-2.178,3.321.975,3.321,2.178,3.321S512.4,458.025,512.4,456.191Z" transform="translate(-502.179 -390.831)" fill="#544f4b"/>
                <path id="Trazado_101317" data-name="Trazado 101317" d="M505.426,456.191c0-1.833-.975-3.321-2.178-3.321s-2.178,1.488-2.178,3.321.975,3.321,2.178,3.321S505.426,458.025,505.426,456.191Z" transform="translate(-501.07 -390.831)" fill="#544f4b"/>
                <path id="Trazado_101318" data-name="Trazado 101318" d="M516.744,454.055l-15.674-1.5,1.3-4.238,13.715,2.6Z" transform="translate(-501.07 -390.107)" fill="#6e6761"/>
                <path id="Trazado_101319" data-name="Trazado 101319" d="M517.853,454.055l-9.813-1.5.816-4.238,8.585,2.6Z" transform="translate(-502.179 -390.107)" fill="#8a817c"/>
                <path id="Trazado_101320" data-name="Trazado 101320" d="M526.19,456.191c0-1.833.975-3.321,2.178-3.321s2.186,1.488,2.186,3.321-.975,3.321-2.186,3.321S526.19,458.025,526.19,456.191Z" transform="translate(-505.067 -390.831)" fill="#544f4b"/>
                <path id="Trazado_101321" data-name="Trazado 101321" d="M533.16,456.191c0-1.833.975-3.321,2.178-3.321s2.186,1.488,2.186,3.321-.975,3.321-2.186,3.321S533.16,458.025,533.16,456.191Z" transform="translate(-506.177 -390.831)" fill="#544f4b"/>
                <path id="Trazado_101322" data-name="Trazado 101322" d="M519.71,454.055l15.674-1.5-1.312-4.238-13.715,2.6Z" transform="translate(-504.036 -390.107)" fill="#6e6761"/>
                <path id="Trazado_101323" data-name="Trazado 101323" d="M519.71,454.055l9.813-1.5-.824-4.238-8.585,2.6Z" transform="translate(-504.036 -390.107)" fill="#8a817c"/>
              </g>
              <path id="Trazado_101324" data-name="Trazado 101324" d="M572.693,265.794c-1.816,17.86-31.625,92.891-31.625,92.891l-64.688,1.463.353-7.66,30.532-1.455S520.719,247.9,522.9,244.621c1.539-2.312,10.7-4.448,21.316-3.7h0a55.412,55.412,0,0,1,13.563,2.607C560.416,244.444,574.509,247.934,572.693,265.794Z" transform="translate(-476.38 -240.769)" fill="#382a20"/>
              <path id="Trazado_101325" data-name="Trazado 101325" d="M574.544,260.7c0,17.12-30.9,89.636-30.9,89.636l-30.532.732s13.454-103.132,15.632-106.412c1.539-2.312,10.7-4.448,21.316-3.7h0C561.292,243.4,574.544,249.378,574.544,260.7Z" transform="translate(-482.225 -240.775)" fill="#4d392b"/>
            </g>
            <g id="Grupo_53982" data-name="Grupo 53982">
              <path id="Trazado_101326" data-name="Trazado 101326" d="M460.339,454.809l.2,4.574H442.647s-.277-1.547.269-2.094,7.635-2.523,10.267-5.2C453.183,452.093,458.362,451.53,460.339,454.809Z" transform="translate(-437.374 -186.014)" fill="#292c36"/>
              <path id="Trazado_101327" data-name="Trazado 101327" d="M483.008,343.863s-37.62,15.85-46.618,25.411c3.271,28.152,14.429,66.042,14.429,66.042s5.466,2.211,8.737.841c-1.362-8.2-2.447-53.21-5.718-59.777,12.268-4.919,49.611-12.293,49.611-12.293l2.178-21.316-9.25-3.01Z" transform="translate(-436.39 -168.144)" fill="url(#radial-gradient-4)"/>
              <path id="Trazado_101328" data-name="Trazado 101328" d="M492.323,455.25l.076,4.011H476.127s-.269-1.547.277-2.094,6-2.523,8.627-5.2C485.032,451.971,489.876,449.061,492.323,455.25Z" transform="translate(-442.703 -185.892)" fill="#292c36"/>
              <path id="Trazado_101329" data-name="Trazado 101329" d="M509.808,344.123c0,4.919-2.993,9.838-8.72,12.84S485,369.265,483.64,370.9s1,64.04,1,64.04,6.164,2.632,8.9,1.27c2.993-11.772,6.727-52.462,5.886-59.029,17.986-1.909,36.25-8.745,38.436-12.84s1.362-22.956,1.362-22.956Z" transform="translate(-443.842 -168.404)" fill="#170105"/>
              <path id="Trazado_101330" data-name="Trazado 101330" d="M474.884,238.42c-1.892,9.182-5.34,49.813-5.34,49.813l-10.174,9.653s4.2,4.2,5.81,4.2,12.722-3.464,16.178-6.559,7.265-26.79,7.265-26.79-.908-18.037-2.909-20.038S474.884,238.42,474.884,238.42Z" transform="translate(-440.047 -152.018)" fill="#220107"/>
              <path id="Trazado_101331" data-name="Trazado 101331" d="M534.87,187.51a96.681,96.681,0,0,0,2.523,22.039s-12.176,6.021-18.5,4.381-6.9-2.741-6.9-2.741,2.354-6.012,2.523-10.2S534.87,187.51,534.87,187.51Z" transform="translate(-448.42 -143.916)" fill="#e4ac91"/>
              <path id="Trazado_101332" data-name="Trazado 101332" d="M515.193,273.638c-24.259,0-7.9-56.574-6.542-57.667s12,4.642,12,4.642L539,215.24S544.884,270.628,515.193,273.638Z" transform="translate(-446.831 -148.329)" fill="#dad9e4"/>
              <path id="Trazado_101333" data-name="Trazado 101333" d="M515.641,224.132l2.909,2.455-7.45,36.351,4.087,6.281,5.457-4.642,1.362-37.629,4.726-2.817s-2.186-6.382-6.18-6.836S515.641,224.132,515.641,224.132Z" transform="translate(-448.279 -148.653)" fill="#4d437e"/>
              <path id="Trazado_101334" data-name="Trazado 101334" d="M508.679,267.816v1.009l-1.421,46.727a51.467,51.467,0,0,1-1.177,8.552,11.758,11.758,0,0,1-.378,1.261,3.414,3.414,0,0,1-1.354,2.026c-2.363,1.093-15.976.732-16.355-2.523s.908-9.292,1.816-16.4-1.27-56.119-1.27-56.119-12.722-14.4-10.721-16.767,14.354-11.839,23.443-15.136c0,0-.547,3.826,0,17.658S508.679,267.816,508.679,267.816Z" transform="translate(-442.949 -149.158)" fill="#2d0109"/>
              <path id="Trazado_101335" data-name="Trazado 101335" d="M513.612,278l-1.421,46.727a51.464,51.464,0,0,1-1.177,8.552c-2.926-10.973-2.59-50.09-.992-52.739A38.274,38.274,0,0,0,513.612,278Z" transform="translate(-447.915 -158.316)" fill="#343845" opacity="0.1"/>
              <path id="Trazado_101336" data-name="Trazado 101336" d="M522.34,216.213a63.334,63.334,0,0,1,6.727,10.292s10.931-4.827,13.168-12.024c0-1.732-2.178-4.011-2.178-4.011S535.424,215.574,522.34,216.213Z" transform="translate(-450.068 -147.57)" fill="#ececf3"/>
              <path id="Trazado_101337" data-name="Trazado 101337" d="M520.259,216.576c-6.542-.454-8.636-3.826-8.636-3.826l-2.363,4.557s1.455,5.642,5.272,8.653C515.894,224.228,520.259,216.576,520.259,216.576Z" transform="translate(-447.986 -147.933)" fill="#ececf3"/>
              <path id="Trazado_101338" data-name="Trazado 101338" d="M543.4,218.71s22.535,12.386,24.528,15.3-18.348,23.872-18.348,23.872-6.365,32.247-6.55,39.168,2.733,22.956,2.733,25.688-24.738,8.409-32.533,3.834c-4.364-2.523-4.2-52.478-2.363-55.5,8.72-5.373,21.266-19.769,23.082-24.864s4.2-11.848,4.2-11.848Z" transform="translate(-448.048 -148.881)" fill="#2d0109"/>
              <path id="Trazado_101339" data-name="Trazado 101339" d="M517.249,289.073a1.455,1.455,0,1,1-.423-1.034,1.455,1.455,0,0,1,.423,1.034Z" transform="translate(-448.794 -159.845)" fill="#292c36"/>
              <path id="Trazado_101340" data-name="Trazado 101340" d="M517.449,315.5a1.455,1.455,0,1,1-1.455-1.455,1.455,1.455,0,0,1,1.455,1.455Z" transform="translate(-448.826 -164.053)" fill="#292c36"/>
              <path id="Trazado_101341" data-name="Trazado 101341" d="M540.49,318.543l9.25-1.463S546.309,324.581,540.49,318.543Z" transform="translate(-452.956 -164.535)" fill="#292c36"/>
              <path id="Trazado_101342" data-name="Trazado 101342" d="M494.885,318.208l-4.549-.908s-.547,3.464,1.278,3.826S494.885,318.208,494.885,318.208Z" transform="translate(-444.962 -164.57)" fill="#292c36"/>
              <path id="Trazado_101343" data-name="Trazado 101343" d="M510.176,212.75c-8.72,16.582-1.993,42.178,3.641,53.933-.185.841-2.094,1.909-2.094,1.909s-9.25-14.412-10.09-21.585c-.547-4.742,2.447-8.838,2.447-8.838a5.6,5.6,0,0,1-3.633-4.2C498.639,226.692,506,213.751,510.176,212.75Z" transform="translate(-446.539 -147.933)" fill="#616777"/>
              <path id="Trazado_101344" data-name="Trazado 101344" d="M539.16,211.76c2.741,1.194,6.727,4.3,6.2,11.31s-2.026,13.849-3.784,15.035a8.913,8.913,0,0,1-4.305,1.177,24.467,24.467,0,0,1,.908,8.568c-.362,4.642-13.9,16.817-27.076,22.132,6.088-4.827,19.811-19.222,24.991-34.8S539.16,211.76,539.16,211.76Z" transform="translate(-448.279 -147.775)" fill="#616777"/>
              <g id="Grupo_53979" data-name="Grupo 53979" transform="translate(41.415 85.133)">
                <g id="Grupo_53978" data-name="Grupo 53978" transform="translate(0 57.41)">
                  <path id="Trazado_101345" data-name="Trazado 101345" d="M499.01,311.378c-.748.4-4.843.311-4.843.311a6.979,6.979,0,0,1-2.8.639,13.24,13.24,0,0,1-1.766-.118l-.79-.109c-.454-.067-.908-.151-1.329-.227l-.891-.2a2.523,2.523,0,0,1-.942-.328c-.185-.277,4.129-6.029,5.533-6.155s6.727,2.279,6.727,2.279S499.75,310.974,499.01,311.378Z" transform="translate(-485.643 -305.184)" fill="#f8c5a5"/>
                  <path id="Trazado_101346" data-name="Trazado 101346" d="M492.429,310.2l-2.228,2.809-.79-.109C490.352,312.016,492.227,310.276,492.429,310.2Z" transform="translate(-486.243 -305.982)" fill="#de9b88"/>
                  <path id="Trazado_101347" data-name="Trazado 101347" d="M489.864,308.81l-2.2,3.641-.891-.2Z" transform="translate(-485.822 -305.761)" fill="#de9b88"/>
                </g>
                <path id="Trazado_101348" data-name="Trazado 101348" d="M503.079,307.7l-2.884.168a10.14,10.14,0,0,0,.471,4.583,33.353,33.353,0,0,0,5.382-.336Z" transform="translate(-487.946 -248.175)" fill="#ececf3"/>
                <path id="Trazado_101349" data-name="Trazado 101349" d="M502.645,296.082c-1.245,2.279,0,5.55,0,5.55s54.892,2.716,56.481.4,14.295-45.239,7.66-65.125c-1.682,1.034-17.255,12.756-18.44,23.721.429,6.18-2.624,28.732-3.111,28.976C537.154,293.669,502.645,296.082,502.645,296.082Z" transform="translate(-488.261 -236.91)" fill="#170105"/>
              </g>
              <g id="Grupo_53981" data-name="Grupo 53981" transform="translate(56.225)">
                <path id="Trazado_101350" data-name="Trazado 101350" d="M540.585,160.423c-.4,4.726-3.313,13.454-3.313,13.454s-.6,1.547-1.472,3.759c-.547,1.387-1.2,3.036-1.884,4.726-1.682,4.2-3.506,8.577-4.2,9.737-1.413,2.363-9.292,5.651-11.251,6.441s-10.09-.7-11.293-2.178c-1.043-1.278-4.028-13.21-3.91-18.76a4.431,4.431,0,0,1,.05-.841,4.32,4.32,0,0,1,.277-1.286,30,30,0,0,0,2.111-9.8,32.2,32.2,0,0,1,2.153-10.856c1.076-2.809,6.323-7.652,9.25-8.409,1.9-.5,1.623,1.682,5.188,1.421,6.634-.53,14.16,1.976,14.16,1.976S540.981,155.68,540.585,160.423Z" transform="translate(-503.256 -137.363)" fill="#f8c5a5"/>
                <path id="Trazado_101351" data-name="Trazado 101351" d="M522.45,177.731a11.4,11.4,0,0,0,3.363.765h.345c.563,0,1.1.05,1.606,0a21.435,21.435,0,0,0,2.682-.2s.252-1.984-.479-2.447a5.953,5.953,0,0,0-1.488-.454c-.841-.177-1.858-.336-2.741-.462-.454-.05-.883-.1-1.219-.126h-.362a1.094,1.094,0,0,0-.479,0l-.059.076h0A17.042,17.042,0,0,0,522.45,177.731Z" transform="translate(-506.31 -141.89)" fill="#fff"/>
                <path id="Trazado_101352" data-name="Trazado 101352" d="M522.45,177.745a11.4,11.4,0,0,0,3.363.765h.345a2.884,2.884,0,0,0,.219-1.118,2.472,2.472,0,0,0-1.858-2.523h0a1.373,1.373,0,0,0-.261,0h-.1a1.977,1.977,0,0,0-.538.109h0a17.028,17.028,0,0,0-1.169,2.766Z" transform="translate(-506.31 -141.903)" fill="#4b2f1f"/>
                <path id="Trazado_101353" data-name="Trazado 101353" d="M517.106,173.13c-.109,4.372-3.078,8.989-3.675,9.88s4.633,2.161,6.878.841c-2.523.605-5.6-.664-5.651-.95S517.955,178.654,517.106,173.13Z" transform="translate(-504.868 -141.628)" fill="#de9b88"/>
                <path id="Trazado_101354" data-name="Trazado 101354" d="M507.7,176.189a17.893,17.893,0,0,0,2.867.614l.3.05c.572.076,1.228.143,1.942.177h1.261s.37-2.59-.05-3.027a2.312,2.312,0,0,0-1-.277c-.547-.084-1.253-.151-1.942-.185a2.913,2.913,0,0,1-.664-.05h-1.682C508.213,173.616,507.7,176.189,507.7,176.189Z" transform="translate(-503.963 -141.685)" fill="#fff"/>
                <path id="Trazado_101355" data-name="Trazado 101355" d="M520.8,171.1a81.106,81.106,0,0,1,11.394,1.606s-.193-3.027-.942-3.868S522,166.65,522,166.65A22.367,22.367,0,0,0,520.8,171.1Z" transform="translate(-506.048 -140.597)" fill="#944936"/>
                <path id="Trazado_101356" data-name="Trazado 101356" d="M515.409,165.77s-.4,3.86-.648,4.793c-3.885-.42-9.838.681-9.821.471a8.321,8.321,0,0,1,1.085-3.406C506.781,166.745,515.409,165.77,515.409,165.77Z" transform="translate(-503.524 -140.457)" fill="#944936"/>
                <path id="Trazado_101357" data-name="Trazado 101357" d="M523.68,174.43v.547s6.164.614,6.878,1.564C530.895,174.909,523.68,174.43,523.68,174.43Z" transform="translate(-506.506 -141.835)" fill="#64413f"/>
                <path id="Trazado_101358" data-name="Trazado 101358" d="M508.94,173.458a19.846,19.846,0,0,1,5.432.673l.126-.631S509.091,172.34,508.94,173.458Z" transform="translate(-504.161 -141.603)" fill="#64413f"/>
                <path id="Trazado_101359" data-name="Trazado 101359" d="M540.962,154.64c5.045,7.358-1.2,23.157-1.2,23.157l2.38,1.228s2.211-.7,2.228-.967,2.523-1.942,4.373-10.284-.984-13.3-2.2-14.093S540.962,154.64,540.962,154.64Z" transform="translate(-509.065 -138.5)" fill="#ab6a51"/>
                <path id="Trazado_101360" data-name="Trazado 101360" d="M535.841,183.36c-.547,1.387-1.2,3.036-1.883,4.726-1.682,4.2-3.506,8.577-4.2,9.737-1.413,2.363-9.292,5.651-11.251,6.441s-10.09-.7-11.293-2.178c-1.043-1.278-4.028-13.21-3.91-18.76a4.434,4.434,0,0,1,.05-.841c7.484,5.129,20.248,5.045,30.641-.076Z" transform="translate(-503.262 -143.104)" fill="#9dc4e1" opacity="0.3"/>
                <path id="Trazado_101361" data-name="Trazado 101361" d="M539.605,184.062c2.926-3.363,7.669-3.666,6.929.454s-9.065,11.074-8.686,5.81A15.456,15.456,0,0,1,539.605,184.062Z" transform="translate(-508.759 -142.957)" fill="#f8c5a5"/>
                <path id="Trazado_101362" data-name="Trazado 101362" d="M544.963,185.161c-1.11-3-5.424,2.321-4.288,4.818C540.918,187.5,543.491,184.127,544.963,185.161Z" transform="translate(-509.181 -143.4)" fill="#de9b88"/>
                <path id="Trazado_101363" data-name="Trazado 101363" d="M513.36,190.421c5.583,1.1,12.571-1.421,12.571-1.421S518.943,194.407,513.36,190.421Z" transform="translate(-504.864 -144.153)" fill="#fff"/>
                <path id="Trazado_101364" data-name="Trazado 101364" d="M544.9,148.787c-.067.555-.294,1.127-1.833,1.833a13.72,13.72,0,0,1-1.345.547h0c-1.253.429-2.993.925-5.449,1.5l-1.27.261c-.605.1-1.236.2-1.909.286h0a46.406,46.406,0,0,1-7.391.286c-1.118-.05-2.237-.135-3.363-.261-6.214-.715-12.251-2.808-14.841-7.089-3.759-6.206.336-7.694,3.263-4.986-.5-4.12,1.144-5.735,3.363-5.466a4.389,4.389,0,0,1,1.085.252,10.873,10.873,0,0,1,4.919,4.011c-.193-1.589.5-2.279,1.64-2.178a3.993,3.993,0,0,1,.9.2,9.594,9.594,0,0,1,3.153,2.027c-1.53-1.724.151-3.111,5.844-1.942.622.126,1.3.286,2.018.479.471.118.917.261,1.354.412C541.533,141.177,545.216,146.088,544.9,148.787Z" transform="translate(-503.69 -135.666)" fill="#944936"/>
                <g id="Grupo_53980" data-name="Grupo 53980" transform="translate(9.241 0.029)">
                  <path id="Trazado_101365" data-name="Trazado 101365" d="M515.342,141.721c-.547-2.615-.185-4.869.841-5.6a1.462,1.462,0,0,1,.32-.168,4.389,4.389,0,0,0-1.085-.252c-1.118,1.093-1.471,3.448-.908,6.189a16.212,16.212,0,0,0,9.1,11.352c1.118.126,2.237.21,3.363.261A15.3,15.3,0,0,1,515.342,141.721Z" transform="translate(-514.246 -135.7)" fill="#a1523c"/>
                  <path id="Trazado_101366" data-name="Trazado 101366" d="M524.739,141.51a3.873,3.873,0,0,1,.79-3.128,3.992,3.992,0,0,0-.9-.2,5.314,5.314,0,0,0-.7,3.363c.336,4.2,3.708,9.342,11.991,12.033h0c.673-.084,1.3-.185,1.909-.286C528.717,150.919,525.076,145.723,524.739,141.51Z" transform="translate(-515.781 -136.095)" fill="#a1523c"/>
                  <path id="Trazado_101367" data-name="Trazado 101367" d="M535.916,141.9a2.28,2.28,0,0,1,.126-2.3c.555-.58,1.833-.631,3.582-.135v-.059A12.318,12.318,0,0,0,538.27,139c-.715-.193-1.4-.353-2.018-.479a2.195,2.195,0,0,0-.841.521c-.648.689-.748,1.766-.294,3.12,1.068,3.178,5.432,7.955,11.15,9.46h0a13.717,13.717,0,0,0,1.345-.547C541.7,150.048,536.992,145.1,535.916,141.9Z" transform="translate(-517.523 -136.149)" fill="#a1523c"/>
                </g>
                <path id="Trazado_101368" data-name="Trazado 101368" d="M507.7,176.2a17.893,17.893,0,0,0,2.867.614l.3.05a3.364,3.364,0,0,0,.235-1.278,3.086,3.086,0,0,0-.689-2.035h-1.682C508.213,173.626,507.7,176.2,507.7,176.2Z" transform="translate(-503.963 -141.695)" fill="#4b2f1f"/>
              </g>
            </g>
          </g>
          <g id="Grupo_53989" data-name="Grupo 53989" transform="translate(84.003 94.868)">
            <g id="Grupo_53984" data-name="Grupo 53984" transform="translate(228.06 71.692)">
              <path id="Trazado_101369" data-name="Trazado 101369" d="M461.58,316.283l29.994-.227,11.041-.084V314.08l-11-.067-29.725-.143Z" transform="translate(-461.58 -313.87)" fill="#fdf6ef"/>
              <path id="Trazado_101370" data-name="Trazado 101370" d="M497.25,316.083,508.291,316v-1.892l-11-.067Z" transform="translate(-467.256 -313.897)" fill="#ccc7c1"/>
            </g>
            <rect id="Rectángulo_5322" data-name="Rectángulo 5322" width="215.951" height="195.216" transform="translate(246.828 195.216) rotate(180)" fill="#eef0e3"/>
            <g id="Grupo_53985" data-name="Grupo 53985" transform="translate(42.581 6.609)">
              <path id="Trazado_101371" data-name="Trazado 101371" d="M287.218,297.76l2.186,15.749H274.21l3.448-15.59Z" transform="translate(-246.285 -246.223)" fill="#4c5971"/>
              <path id="Trazado_101372" data-name="Trazado 101372" d="M291.6,299.39l3.6,14.328-5.634.782-.631-15.43Z" transform="translate(-248.627 -246.432)" fill="#1b2638"/>
              <path id="Trazado_101373" data-name="Trazado 101373" d="M241,236.47v53.74l74.686.2h3s-.252-52.5-.252-53.555h-2.817Z" transform="translate(-241 -236.47)" fill="#4c5971"/>
              <path id="Trazado_101374" data-name="Trazado 101374" d="M329.8,290.485h3s-.252-52.5-.252-53.555H329.73Z" transform="translate(-255.12 -236.543)" fill="#1b2638"/>
              <path id="Trazado_101375" data-name="Trazado 101375" d="M313.706,240.1v48.173l-68.926-.16.311-47.854Z" transform="translate(-241.602 -237.048)" fill="#99d0e3"/>
              <path id="Trazado_101376" data-name="Trazado 101376" d="M256.966,238.23c.933,6.138-2.977,8.812-2.977,8.812H245.53s3.439-.782,3.288-8.5C251.164,238.381,256.966,238.23,256.966,238.23Z" transform="translate(-241.721 -236.75)" fill="#a6ba5f"/>
            </g>
            <rect id="Rectángulo_5323" data-name="Rectángulo 5323" width="215.951" height="118.806" transform="translate(246.828 195.216) rotate(180)" fill="#dde1c8"/>
            <rect id="Rectángulo_5324" data-name="Rectángulo 5324" width="139.567" height="5.155" transform="translate(139.567 78.823) rotate(180)" fill="#d7a17c"/>
            <rect id="Rectángulo_5325" data-name="Rectángulo 5325" width="5.844" height="195.216" transform="translate(246.828 195.216) rotate(180)" fill="#a4a78e"/>
            <rect id="Rectángulo_5326" data-name="Rectángulo 5326" width="45.112" height="195.216" transform="translate(145.747 195.216) rotate(180)" fill="#a4a78e"/>
            <rect id="Rectángulo_5327" data-name="Rectángulo 5327" width="5.844" height="195.216" transform="translate(94.791 0.008)" fill="#eef0e3"/>
            <rect id="Rectángulo_5328" data-name="Rectángulo 5328" width="69.784" height="5.155" transform="translate(316.553 78.823) rotate(180)" fill="#805d3a"/>
            <path id="Trazado_101377" data-name="Trazado 101377" d="M467.662,242.523l-.168,11.251-9.165-.387s.673-9.636-.219-11.427C461.448,243.532,467.662,242.523,467.662,242.523Z" transform="translate(-232.968 -230.734)" fill="#f7b87b"/>
            <path id="Trazado_101378" data-name="Trazado 101378" d="M460.737,265.653c0,.732-.69,11.7-.69,11.7l-8.114-1.009L451,265.51Z" transform="translate(-231.837 -234.482)" fill="#cd525f"/>
            <g id="Grupo_53986" data-name="Grupo 53986" transform="translate(215.372 51.797)">
              <path id="Trazado_101379" data-name="Trazado 101379" d="M463.805,299.08,462.46,312.2a.917.917,0,0,1-.908.841h-7.77a.908.908,0,0,1-.9-.841l-1.2-13.008Z" transform="translate(-447.317 -291.621)" fill="#4f4a54"/>
              <path id="Trazado_101380" data-name="Trazado 101380" d="M449,311.164h.067l3.448-.109v-1.236l-3.439.109a.891.891,0,0,1-.917-.841l-.454-5.356a.883.883,0,0,1,.219-.673.908.908,0,0,1,.647-.3l2.951-.067V301.46l-2.96.067a2.127,2.127,0,0,0-2.06,2.3l.462,5.356A2.119,2.119,0,0,0,449,311.164Z" transform="translate(-446.491 -292)" fill="#4f4a54"/>
              <path id="Trazado_101381" data-name="Trazado 101381" d="M459.176,296.02s-3.363-1.337-3.229-1.951,7.938-.05,7.425-1.959-8.552-1.9-8.552-1.9,5.583,1.026,5.634,2-4.919.673-4.97,1.858S456.477,296.76,459.176,296.02Z" transform="translate(-447.817 -290.21)" fill="#dff1f4"/>
            </g>
            <g id="Grupo_53988" data-name="Grupo 53988" transform="translate(134.051 6.609)">
              <path id="Trazado_101382" data-name="Trazado 101382" d="M396,297.76l2.195,15.749H383l3.448-15.59Z" transform="translate(-355.066 -246.223)" fill="#4c5971"/>
              <path id="Trazado_101383" data-name="Trazado 101383" d="M400.377,299.39l3.607,14.328-5.642.782-.622-15.43Z" transform="translate(-357.409 -246.432)" fill="#1b2638"/>
              <path id="Trazado_101384" data-name="Trazado 101384" d="M349.78,236.47v53.74l74.686.2h3s-.252-52.5-.252-53.555H424.39Z" transform="translate(-349.78 -236.47)" fill="#4c5971"/>
              <path id="Trazado_101385" data-name="Trazado 101385" d="M438.586,290.485h3s-.252-52.5-.252-53.555H438.51Z" transform="translate(-363.9 -236.543)" fill="#1b2638"/>
              <path id="Trazado_101386" data-name="Trazado 101386" d="M422.487,240.1v48.173l-68.917-.16.311-47.854Z" transform="translate(-350.383 -237.048)" fill="#fdf6ef"/>
              <g id="Grupo_53987" data-name="Grupo 53987" transform="translate(8.938 11.116)">
                <path id="Trazado_101387" data-name="Trazado 101387" d="M415.407,261.025l10.41,2.2a9.788,9.788,0,1,1-9.056-13.538,9.62,9.62,0,0,1,3.044.488C418.434,253.314,415.407,261.025,415.407,261.025Z" transform="translate(-367.822 -249.69)" fill="#a6ba5f"/>
                <path id="Trazado_101388" data-name="Trazado 101388" d="M423.2,251l-4.2,9.477,9.191,1.606A9.863,9.863,0,0,0,423.2,251Z" transform="translate(-369.734 -249.898)" fill="#eb6f84"/>
                <rect id="Rectángulo_5329" data-name="Rectángulo 5329" width="17.751" height="1.362" transform="translate(40.353 22.83)" fill="#cccac6"/>
                <rect id="Rectángulo_5330" data-name="Rectángulo 5330" width="17.751" height="1.362" transform="translate(40.505 25.546)" fill="#cccac6"/>
                <rect id="Rectángulo_5331" data-name="Rectángulo 5331" width="17.751" height="1.362" transform="translate(40.656 28.27)" fill="#cccac6"/>
                <rect id="Rectángulo_5332" data-name="Rectángulo 5332" width="10.57" height="1.362" transform="translate(0.193 15.119)" fill="#cccac6"/>
                <rect id="Rectángulo_5333" data-name="Rectángulo 5333" width="10.57" height="1.362" transform="translate(0.286 17.835)" fill="#cccac6"/>
                <rect id="Rectángulo_5334" data-name="Rectángulo 5334" width="10.57" height="1.362" transform="translate(0.37 20.559)" fill="#cccac6"/>
                <rect id="Rectángulo_5335" data-name="Rectángulo 5335" width="10.57" height="1.362" transform="translate(0.193 23.586)" fill="#cccac6"/>
                <rect id="Rectángulo_5336" data-name="Rectángulo 5336" width="10.57" height="1.362" transform="translate(0.286 26.302)" fill="#cccac6"/>
                <rect id="Rectángulo_5337" data-name="Rectángulo 5337" width="10.57" height="1.362" transform="translate(0.37 29.027)" fill="#cccac6"/>
                <rect id="Rectángulo_5338" data-name="Rectángulo 5338" width="10.57" height="1.362" transform="translate(14.261 15.119)" fill="#cccac6"/>
                <rect id="Rectángulo_5339" data-name="Rectángulo 5339" width="10.57" height="1.362" transform="translate(14.354 17.835)" fill="#cccac6"/>
                <rect id="Rectángulo_5340" data-name="Rectángulo 5340" width="10.57" height="1.362" transform="translate(14.446 20.559)" fill="#cccac6"/>
                <rect id="Rectángulo_5341" data-name="Rectángulo 5341" width="10.57" height="1.362" transform="translate(14.261 23.586)" fill="#cccac6"/>
                <rect id="Rectángulo_5342" data-name="Rectángulo 5342" width="10.57" height="1.362" transform="translate(14.354 26.302)" fill="#cccac6"/>
                <rect id="Rectángulo_5343" data-name="Rectángulo 5343" width="10.57" height="1.362" transform="translate(14.446 29.027)" fill="#cccac6"/>
                <rect id="Rectángulo_5344" data-name="Rectángulo 5344" width="0.605" height="29.027" transform="translate(31.028 0.303)" fill="#cccac6"/>
                <path id="Trazado_101389" data-name="Trazado 101389" d="M385.585,260.931v.605H360.46V250.05h.605v10.881Z" transform="translate(-360.418 -249.747)" fill="#cccac6"/>
                <path id="Trazado_101390" data-name="Trazado 101390" d="M361.025,261.631l-.5-.336c.118-.168,2.783-4.162,4.793-5.1,1.312-.605,2.018.656,2.59,1.682.437.79.841,1.53,1.413,1.48s.589-.387.774-1.16.5-2.119,2.279-2.018a9.6,9.6,0,0,1,1.455.16c1.572.219,2.1.294,3.221-2.4.647-1.556,1.682-2.43,2.96-2.455h.067a4.2,4.2,0,0,1,3.54,2.6c1.118,2.4,2.228,2.867,2.237,2.867l-.21.572c-.05,0-1.329-.53-2.573-3.178a3.582,3.582,0,0,0-3.044-2.254c-1.026,0-1.867.74-2.422,2.085-1.244,3-2.035,3.019-3.86,2.758a13.843,13.843,0,0,0-1.4-.151c-1.278-.067-1.446.647-1.682,1.556-.168.715-.362,1.53-1.295,1.614s-1.48-.841-1.993-1.783c-.69-1.219-1.093-1.757-1.816-1.413C363.707,257.612,361.05,261.589,361.025,261.631Z" transform="translate(-360.428 -249.976)" fill="#eb6f84"/>
                <path id="Trazado_101391" data-name="Trazado 101391" d="M385.628,252.927l-.109.6c-.589-.109-1.186,1.4-1.682,2.607s-.984,2.439-1.682,2.7a.841.841,0,0,1-.673-.042,5.389,5.389,0,0,1-1.5-1.312c-.757-.841-1.068-1.135-1.64-.69a11.266,11.266,0,0,0-1.043,1c-1.118,1.16-2.523,2.607-4.457,2.237-1.11-.21-2.186-1.421-3.321-2.7-1.48-1.682-3.01-3.363-4.482-2.766-1.8.765-3.254,3.885-4.028,5.886-.261.673-.446,1.228-.547,1.522h-.059v-1.682c.168-.437.37-.942.605-1.463.841-1.942,2.186-4.2,3.792-4.869,1.867-.79,3.616,1.177,5.163,2.918,1.026,1.144,2.077,2.338,2.977,2.523,1.64.311,2.851-.95,3.918-2.06a11.424,11.424,0,0,1,1.11-1.051c1.068-.841,1.808,0,2.464.757a4.741,4.741,0,0,0,1.32,1.177.21.21,0,0,0,.185,0c.429-.16.917-1.379,1.3-2.346C383.946,254.281,384.56,252.733,385.628,252.927Z" transform="translate(-360.41 -250.203)" fill="#a6ba5f"/>
              </g>
              <path id="Trazado_101392" data-name="Trazado 101392" d="M402,248.512l9.821-.109s1.682-5.928.353-10.174C411,237.909,402,248.512,402,248.512Z" transform="translate(-358.09 -236.749)" fill="#575454" opacity="0.3"/>
              <path id="Trazado_101393" data-name="Trazado 101393" d="M411.365,238.23c1.169,7.669-3.725,11.015-3.725,11.015H397.07s4.305-.984,4.112-10.629C404.116,238.423,411.365,238.23,411.365,238.23Z" transform="translate(-357.305 -236.75)" fill="#f4e07f"/>
            </g>
            <path id="Trazado_101394" data-name="Trazado 101394" d="M354.62,316.662l30-.227,11.041-.093V314.45l-11.007-.059-29.725-.151Z" transform="translate(-216.499 -242.237)" fill="#fdf6ef"/>
            <path id="Trazado_101395" data-name="Trazado 101395" d="M390.3,316.463l11.041-.093v-1.892l-11.007-.059Z" transform="translate(-222.177 -242.265)" fill="#ccc7c1"/>
            <rect id="Rectángulo_5345" data-name="Rectángulo 5345" width="139.567" height="5.155" transform="translate(240.21 78.823) rotate(180)" fill="#d7a17c"/>
            <rect id="Rectángulo_5346" data-name="Rectángulo 5346" width="70.566" height="5.155" transform="translate(240.984 78.823) rotate(180)" fill="#805d3a"/>
          </g>
          <g id="Grupo_53995" data-name="Grupo 53995" transform="translate(311.306 176.029)">
            <g id="Grupo_53990" data-name="Grupo 53990" transform="translate(17.397 4.692)">
              <path id="Trazado_101396" data-name="Trazado 101396" d="M481.37,349.646v3.019c.084,11.991.572,24.209.748,25.276.311,1.892,1.253,25.5,1.253,25.5l3.759-1.572,1.589-28.034c0-1.278-.084-2.523-.16-3.742-.05-1.043-.126-2.077-.21-3.069a118.39,118.39,0,0,0-2.035-14.295c-.235-1.127-.462-2.195-.7-3.229-1.791-7.9-3.649-13.538-3.473-18.793C481.538,334.1,481.353,341.6,481.37,349.646Z" transform="translate(-481.369 -330.71)" fill="#8a9a4e"/>
              <path id="Trazado_101397" data-name="Trazado 101397" d="M481.37,353.2v3.019l4.919.067c-.235-1.127-.462-2.195-.7-3.229a11.771,11.771,0,0,1-4.221.143Z" transform="translate(-481.369 -334.267)" fill="#a8b968"/>
              <path id="Trazado_101398" data-name="Trazado 101398" d="M483.15,377.576l.219,2.834,5.474-3.431c-.05-1.043-.126-2.077-.21-3.069Z" transform="translate(-481.652 -337.585)" fill="#a8b968"/>
            </g>
            <g id="Grupo_53991" data-name="Grupo 53991" transform="translate(24.436 32.743)">
              <path id="Trazado_101399" data-name="Trazado 101399" d="M489.74,398.049c1-.252,4.145-5.718,7.568-12.193.53-1.009,1.076-2.052,1.614-3.094,1.278-2.523,2.573-5.045,3.776-7.416.538-1.11,1.068-2.186,1.564-3.187,2.211-4.465,3.8-7.778,3.952-8.089a26.859,26.859,0,0,0-4.625,4.3c-.605.639-1.228,1.371-1.884,2.186a61.023,61.023,0,0,0-4.423,6.214c-.563.908-1.135,1.858-1.682,2.884a83.59,83.59,0,0,0-4.591,9.586S490.051,395.216,489.74,398.049Z" transform="translate(-489.74 -364.07)" fill="#8a9a4e"/>
              <path id="Trazado_101400" data-name="Trazado 101400" d="M504,371.366l.992,4.793c.538-1.11,1.068-2.186,1.564-3.187a17.21,17.21,0,0,0-.673-3.792A24.068,24.068,0,0,0,504,371.366Z" transform="translate(-492.009 -364.883)" fill="#a8b968"/>
              <path id="Trazado_101401" data-name="Trazado 101401" d="M496.69,382.054a30.272,30.272,0,0,1,1.724,6.206c.53-1.009,1.076-2.052,1.614-3.094a24.52,24.52,0,0,0-1.682-6C497.792,380.078,497.253,381.028,496.69,382.054Z" transform="translate(-490.846 -366.473)" fill="#a8b968"/>
            </g>
            <g id="Grupo_53992" data-name="Grupo 53992" transform="translate(0 21.694)">
              <path id="Trazado_101402" data-name="Trazado 101402" d="M460.68,350.93s1.051,6.618,2.918,15.321c.277,1.32.589,2.708.908,4.12,1.152,5.045,2.523,10.477,4.1,15.623h0q.639,2.094,1.32,4.1a63.441,63.441,0,0,0,5.474,12.453c4.07,1.892,5.045,0,5.045,0l-3.792-15.4c-1.043-1.783-2.069-3.666-3.069-5.617-.765-1.488-1.514-3.01-2.245-4.549-1.614-3.405-3.128-6.853-4.482-10.09-.5-1.211-.975-2.38-1.446-3.5C462.522,356.261,460.68,350.93,460.68,350.93Z" transform="translate(-460.68 -350.93)" fill="#8a9a4e"/>
              <path id="Trazado_101403" data-name="Trazado 101403" d="M464.15,368.614c.277,1.32.589,2.708.908,4.12a29.562,29.562,0,0,1,2.354-3.456c-.5-1.211-.975-2.38-1.446-3.5Z" transform="translate(-461.232 -353.293)" fill="#a8b968"/>
              <path id="Trazado_101404" data-name="Trazado 101404" d="M470.11,390.924h0q.639,2.094,1.32,4.1a84,84,0,0,1,3.633-8.568c-.765-1.488-1.514-3.01-2.245-4.549a36.449,36.449,0,0,0-2.708,9.014Z" transform="translate(-462.181 -355.86)" fill="#a8b968"/>
            </g>
            <g id="Grupo_53993" data-name="Grupo 53993" transform="translate(20.745 6.298)">
              <path id="Trazado_101405" data-name="Trazado 101405" d="M489.353,399.368a241.607,241.607,0,0,0,3.363-27.807c.1-1.463.177-2.884.252-4.272.277-5.617.378-10.8.412-15.438v-3.582c0-6.466,0-11.772.3-15.649-1.387,2.792-2.523,7.778-3.422,13.824-.177,1.2-.353,2.43-.513,3.708-.589,4.482-1.068,9.376-1.488,14.295-.143,1.749-.294,3.5-.42,5.247-1.127,14.925-1.682,28.732-2.3,30.271C484.341,403.118,489.353,399.368,489.353,399.368Z" transform="translate(-485.351 -332.62)" fill="#a6ba5f"/>
              <path id="Trazado_101406" data-name="Trazado 101406" d="M490.65,352.735c1.043.437,2.523,1.093,3.607,1.682v-3.582a9.813,9.813,0,0,0-3.12-1.825C490.986,350.229,490.81,351.457,490.65,352.735Z" transform="translate(-486.194 -335.228)" fill="#c5d87b"/>
              <path id="Trazado_101407" data-name="Trazado 101407" d="M488.38,375.687l4.852,1.867c.1-1.463.177-2.884.252-4.272a13.092,13.092,0,0,0-4.684-2.842C488.657,372.189,488.506,373.938,488.38,375.687Z" transform="translate(-485.833 -338.638)" fill="#c5d87b"/>
            </g>
            <g id="Grupo_53994" data-name="Grupo 53994" transform="translate(5.962)">
              <path id="Trazado_101408" data-name="Trazado 101408" d="M467.77,325.13c.067.555,1.16,8.661,2.708,19.407.151,1.085.32,2.2.471,3.363.622,4.28,1.312,8.863,2.026,13.454.21,1.371.429,2.741.639,4.129.69,4.457,1.413,8.871,2.119,13h0c.185,1.085.362,2.144.547,3.178a165.584,165.584,0,0,0,3.7,17.414c1.867,5.886,2.817-.311,2.817-.311a151.35,151.35,0,0,0-.774-21.938c-.126-1.177-.261-2.321-.4-3.456-.639-4.911-1.455-9.561-2.388-13.891-.252-1.219-.53-2.388-.841-3.548h0c-1.026-4.381-2.169-8.409-3.3-11.966-.362-1.169-.723-2.287-1.1-3.363A121.4,121.4,0,0,0,467.77,325.13Z" transform="translate(-467.77 -325.13)" fill="#a6ba5f"/>
              <path id="Trazado_101409" data-name="Trazado 101409" d="M471,347.47c.151,1.085.32,2.2.471,3.363a20.578,20.578,0,0,1,4.2-3.91c-.362-1.169-.723-2.287-1.1-3.363C473.523,344.611,472.06,346.259,471,347.47Z" transform="translate(-468.284 -328.063)" fill="#c5d87b"/>
              <path id="Trazado_101410" data-name="Trazado 101410" d="M474,367.2c.21,1.371.429,2.741.639,4.129,1-1.589,3.363-4.97,5.617-6-.252-1.219-.53-2.388-.841-3.548C476.8,364.193,474.891,366.169,474,367.2Z" transform="translate(-468.761 -330.962)" fill="#c5d87b"/>
              <path id="Trazado_101411" data-name="Trazado 101411" d="M477.24,387.622h0c.185,1.085.362,2.144.547,3.178a66.581,66.581,0,0,1,5.743-4.835c-.126-1.177-.261-2.321-.4-3.456A12.681,12.681,0,0,0,477.24,387.622Z" transform="translate(-469.277 -334.261)" fill="#c5d87b"/>
            </g>
            <path id="Trazado_101412" data-name="Trazado 101412" d="M493.936,454.429l-24.436.32,4.8-43.136,14.724-1.892Z" transform="translate(-462.084 -338.591)" fill="#d6a878"/>
          </g>
          <g id="Grupo_54000" data-name="Grupo 54000" transform="translate(23.721)">
            <path id="Trazado_101413" data-name="Trazado 101413" d="M153.29,255.876c1.505.992,3.363,1.194,5.1,2.111s2.321.227,3.094.69a1.194,1.194,0,0,1-.235,2.228c-1.329.429-8.955-.521-10.343-.841s-6.912.042-8.51-.353,1.909-2.262,2.851-3.607S152.289,255.178,153.29,255.876Z" transform="translate(-122.38 -137.977)" fill="#f8c5a5"/>
            <path id="Trazado_101414" data-name="Trazado 101414" d="M180.1,186.18s-34.8,13.37-41.976,18.894c-5.331,4.087,4.793,38.512,5.558,40.059s8.627,1.774,8.871-1.253c.378-4.608-1.9-27.471-1.9-27.471l22.762-8.821Z" transform="translate(-121.521 -126.99)" fill="url(#radial-gradient-5)"/>
            <g id="Grupo_53997" data-name="Grupo 53997" transform="translate(0 121.336)">
              <g id="Grupo_53996" data-name="Grupo 53996" transform="translate(45.239 100.57)">
                <path id="Trazado_101415" data-name="Trazado 101415" d="M188.98,380.052l.429,37.99h3.54l1.774-38.352Z" transform="translate(-175.097 -379.69)" fill="#b1aaa5"/>
                <path id="Trazado_101416" data-name="Trazado 101416" d="M187.482,423.35h6l1.766,25.478-5.037,1.917-4.776-1.917Z" transform="translate(-174.532 -386.638)" fill="#8a817c"/>
                <ellipse id="Elipse_4063" data-name="Elipse 4063" cx="2.178" cy="3.33" rx="2.178" ry="3.33" transform="translate(5.861 62.19)" fill="#544f4b"/>
                <path id="Trazado_101417" data-name="Trazado 101417" d="M176.826,456.973c0-1.841-.975-3.363-2.178-3.363s-2.178,1.488-2.178,3.363.975,3.363,2.178,3.363S176.826,458.815,176.826,456.973Z" transform="translate(-172.47 -391.453)" fill="#544f4b"/>
                <path id="Trazado_101418" data-name="Trazado 101418" d="M188.144,454.842l-15.674-1.505,1.3-4.246,13.715,2.6Z" transform="translate(-172.47 -390.734)" fill="#6e6761"/>
                <path id="Trazado_101419" data-name="Trazado 101419" d="M189.253,454.842l-9.813-1.505.816-4.246,8.585,2.6Z" transform="translate(-173.579 -390.734)" fill="#8a817c"/>
                <path id="Trazado_101420" data-name="Trazado 101420" d="M197.59,456.973c0-1.841.975-3.363,2.178-3.363s2.186,1.488,2.186,3.363-.975,3.363-2.186,3.363S197.59,458.815,197.59,456.973Z" transform="translate(-176.467 -391.453)" fill="#544f4b"/>
                <path id="Trazado_101421" data-name="Trazado 101421" d="M204.56,456.973c0-1.841.975-3.363,2.178-3.363s2.186,1.488,2.186,3.363-.975,3.363-2.186,3.363S204.56,458.815,204.56,456.973Z" transform="translate(-177.577 -391.453)" fill="#544f4b"/>
                <path id="Trazado_101422" data-name="Trazado 101422" d="M191.11,454.842l15.674-1.505-1.312-4.246-13.715,2.6Z" transform="translate(-175.436 -390.734)" fill="#6e6761"/>
                <path id="Trazado_101423" data-name="Trazado 101423" d="M191.11,454.842l9.813-1.505-.816-4.246-8.594,2.6Z" transform="translate(-175.436 -390.734)" fill="#8a817c"/>
              </g>
              <path id="Trazado_101424" data-name="Trazado 101424" d="M118.67,267.842c0,34.669,18.5,96.027,21.022,98.861,1.354,1.522,26.63,2.052,49.8,2,19.828,0,38.108-.479,38.545-1.06.942-1.253,3.86-6.29.942-8.5-1.253-.942-34.476.95-34.476.95s-16.3-87.215-23.2-92.882a21.858,21.858,0,0,0-1.833-1.337C154.1,255.927,118.67,260.283,118.67,267.842Z" transform="translate(-118.67 -260.087)" fill="#4d392b"/>
              <path id="Trazado_101425" data-name="Trazado 101425" d="M198.783,369.8c19.828,0,38.108-.479,38.545-1.06.942-1.253,3.86-6.29.942-8.5-1.253-.942-34.476.95-34.476.95s-16.271-87.215-23.166-92.882a21.858,21.858,0,0,0-1.833-1.337C171.816,268.114,190.954,354.513,198.783,369.8Z" transform="translate(-127.999 -261.182)" fill="#382a20"/>
            </g>
            <path id="Trazado_101426" data-name="Trazado 101426" d="M300.177,347.19s39.781,15.741,44.011,21.728-5.794,62.813-5.794,62.813l-2.977-.471s-4.7-23.3-4.541-35.266,2.195-18.692,2.195-18.692-31.171-1.1-34.618-3.775-5.794-18.583-5.794-18.583Z" transform="translate(-146.358 -152.612)" fill="url(#radial-gradient-6)"/>
            <path id="Trazado_101427" data-name="Trazado 101427" d="M336.491,347.19s39.79,15.741,44.019,21.728-5.8,62.813-5.8,62.813l-2.968-.471s-4.7-23.3-4.549-35.266,2.161-18.692,2.161-18.692-31.171-1.1-34.618-3.775-5.794-18.583-5.794-18.583Z" transform="translate(-152.131 -152.612)" fill="#170105"/>
            <path id="Trazado_101428" data-name="Trazado 101428" d="M198.7,450.758s3.448,4.717,4.7,5.508,8.3.471,9.712.16,1.253,2.523.622,2.834-20.046,0-20.046,0-1.093-5.2,1.253-9.6S198.7,450.758,198.7,450.758Z" transform="translate(-130.568 -168.646)" fill="#443221"/>
            <path id="Trazado_101429" data-name="Trazado 101429" d="M206.153,450.758s3.448,4.717,4.7,5.508,8.3.471,9.712.16,1.253,2.523.631,2.834-20.055,0-20.055,0-1.093-5.2,1.253-9.6S206.153,450.758,206.153,450.758Z" transform="translate(-131.754 -168.646)" fill="#4f3a28"/>
            <path id="Trazado_101430" data-name="Trazado 101430" d="M179.948,295.61c-2.195,7.87-3.918,13.538,2.195,25.344.933,24.873,1.093,29.758.151,36.367S179.166,374,180.57,387.7s11.436,38.1,11.436,38.1l3.759-.631s-1.875-24.873-1.093-45.5,7.046-43.725,7.046-43.725l-4.852-39.672S184.177,289.657,179.948,295.61Z" transform="translate(-128.1 -144.009)" fill="url(#radial-gradient-7)"/>
            <path id="Trazado_101431" data-name="Trazado 101431" d="M220.563,309.154c1.682,16.372,6.113,53.681,6.113,60.61s-22.09,56.994-22.09,56.994l-3.759-1.085s.942-31.8,4.541-42.043,6.9-13.227,6.9-13.227-10.326-34.324-14.53-43.3-9.4-18.1-5.045-27.387S220.563,309.154,220.563,309.154Z" transform="translate(-130.187 -144.646)" fill="#7e5e44"/>
            <path id="Trazado_101432" data-name="Trazado 101432" d="M196.91,172.4l15.346,5.045,2.523-5.97s12.436,4.1,17.7,1.884c1.026-.42,1.572-4.515,1.892-8.173,0-.4.059-.841.084-1.2a8.108,8.108,0,0,1,.059-.95v-.076c.126-2.06.168-3.616.168-3.616s3.128.168,3.759-1.253-3.759-10.09-4.2-11.772.614-3.767.244-7.719c-.79-8.106-4.314-12.277-4.314-12.277s-18.011,2.666-21.619,5.819-4.07,20.181-5.163,26.613S196.91,172.4,196.91,172.4Z" transform="translate(-131.121 -117.464)" fill="#f8c5a5"/>
            <path id="Trazado_101433" data-name="Trazado 101433" d="M216.4,156.45c-5.331-6.517-7.677-1.825-6.424,2.481s5.407,6.189,6.811,3.363S216.4,156.45,216.4,156.45Z" transform="translate(-133.147 -121.746)" fill="#de9b88"/>
            <path id="Trazado_101434" data-name="Trazado 101434" d="M237.007,149.657v-.6s-4.2.513-5.087,1.261-1.059,2.951-1.059,2.951Z" transform="translate(-136.523 -121.083)" fill="#7a3541"/>
            <path id="Trazado_101435" data-name="Trazado 101435" d="M213.852,151.207s3.448-2.363,3.288-5.667-4.381-10.233-4.2-13.227,15.354-4.1,20.526-5.667,1.564-6.609-1.1-9.762-7.046,2.211-14.564.79-14.724-2.993-18.011-.79-6.584,14.648-2.977,12.613c-5.642,8.972-3.918,16.531-.471,21.728s4.7,8.182,7.517,8.5,5.171-.16,5.953-3.3S213.852,151.207,213.852,151.207Z" transform="translate(-130.522 -115.788)" fill="#7a3541"/>
            <path id="Trazado_101436" data-name="Trazado 101436" d="M231.79,165.62c2,3.363,5.7,4.415,7.366,4.751,0-.4.067-.841.092-1.211a7.846,7.846,0,0,1,.059-.942v-.076a17.411,17.411,0,0,1-2.195-.412,22.174,22.174,0,0,1-5.323-2.111Z" transform="translate(-136.671 -123.718)" fill="#fff"/>
            <path id="Trazado_101437" data-name="Trazado 101437" d="M230.81,153.383l3.422,1.27,2.3.841a7.442,7.442,0,0,0,.572-5.415,2.121,2.121,0,0,0-.1-.328l-.69.084c-1.177.143-3.515.5-4.322,1.085a3.523,3.523,0,0,0-1.177,2.464Z" transform="translate(-136.515 -121.193)" fill="#fff"/>
            <path id="Trazado_101438" data-name="Trazado 101438" d="M234.878,154.668l2.3.841a7.442,7.442,0,0,0,.572-5.415.908.908,0,0,0-.471-.244h-.32c-.841.177-1.682,1.581-2,3.363a6.819,6.819,0,0,0-.076,1.455Z" transform="translate(-137.161 -121.209)" fill="#4c5971"/>
            <path id="Trazado_101439" data-name="Trazado 101439" d="M240.681,141a13.109,13.109,0,0,1-.311,3.7s-9.636-.235-11.52.841c1.337-2.279,1.884-2.909,3.212-3.363S240.681,141,240.681,141Z" transform="translate(-136.203 -119.8)" fill="#7a3541"/>
            <path id="Trazado_101440" data-name="Trazado 101440" d="M217.143,156.2c-5.323-6.517-7.669-1.825-6.416,2.481s5.045,6.256,6.416,3.363A7.383,7.383,0,0,0,217.143,156.2Z" transform="translate(-133.267 -121.707)" fill="#f8c5a5"/>
            <path id="Trazado_101441" data-name="Trazado 101441" d="M215.719,191.552c-1.564-5.659-2.977-6.609-2.977-6.609s-13.942-5.979-16.607-5.508-5.045,5.508-5.045,5.508Z" transform="translate(-130.194 -125.912)" fill="#aaccdf"/>
            <path id="Trazado_101442" data-name="Trazado 101442" d="M284.83,244.65l15.186,2.817c0-.462,2.363-12.748,2.363-12.748s8.451,4.415,10.8,3.3c1.127-.53,2.472-3.414,3.582-6.29.454-1.219.883-2.43,1.2-3.456.53-1.564.841-2.682.841-2.682s4.331-.647,4-2.211-2.279-4.885-2.279-7.7,1.884-10.09,1.4-15.741-6.1-9.451-6.1-9.451l-11.772,4.2L293.087,209.83a101.6,101.6,0,0,0-2.035,15.909C290.783,233.946,284.83,244.65,284.83,244.65Z" transform="translate(-145.112 -127.676)" fill="#f8c5a5"/>
            <path id="Trazado_101443" data-name="Trazado 101443" d="M324.647,215.464V214.4a4.843,4.843,0,0,0-5.247,4.364C320.838,216.8,324.647,215.464,324.647,215.464Z" transform="translate(-150.613 -131.477)" fill="#d66969"/>
            <path id="Trazado_101444" data-name="Trazado 101444" d="M306.378,217.75c-.782-5.432-7.2-7.475-7.2-1.186s2.893,8.5,4.927,8.5C305.251,225.066,307.109,222.812,306.378,217.75Z" transform="translate(-147.395 -131.207)" fill="#de9b88"/>
            <path id="Trazado_101445" data-name="Trazado 101445" d="M319.39,218.936a4.348,4.348,0,0,1,2.245.6,10.528,10.528,0,0,1,1.825,1.219,13.4,13.4,0,0,0,1.186-5.112,5.046,5.046,0,0,0-1.556-.151C321.332,215.631,320,216.851,319.39,218.936Z" transform="translate(-150.611 -131.652)" fill="#fff"/>
            <path id="Trazado_101446" data-name="Trazado 101446" d="M322.059,219.533a10.529,10.529,0,0,1,1.825,1.219,13.4,13.4,0,0,0,1.186-5.112,5.045,5.045,0,0,0-1.556-.151,4.969,4.969,0,0,0-1.295,2.422,5.81,5.81,0,0,0-.16,1.623Z" transform="translate(-151.035 -131.652)" fill="#50384b"/>
            <path id="Trazado_101447" data-name="Trazado 101447" d="M328.486,208.214l-.387,2.127a41.291,41.291,0,0,0-5.567-1.968,6.366,6.366,0,0,0-3.052.841,5.155,5.155,0,0,1,2.96-2.228C324.332,206.558,328.486,208.214,328.486,208.214Z" transform="translate(-150.626 -130.29)" fill="#d66969"/>
            <path id="Trazado_101448" data-name="Trazado 101448" d="M276.711,211.355c1.32,3.969,9.443,8.812,11.848,12.554s7.778-.151,9.418-6.525,4.4-4.1,4.4-4.1c2.06-2.792,4.415-3.01,5.365-7.568a24.162,24.162,0,0,0,.437-4.633c.118-9.25,8.888-9.889,8.888-9.889s-.454-5.18-10.755-9.157-21.022.2-25.857,5.6c-2.523,2.775-3.75,7.913-4.2,12.8C275.8,205.056,276.072,209.429,276.711,211.355Z" transform="translate(-143.711 -126.081)" fill="#d66969"/>
            <path id="Trazado_101449" data-name="Trazado 101449" d="M317.25,231.15s.328,5.163,4.12,6.979c.454-1.219.841-2.43,1.2-3.464a11.3,11.3,0,0,1-5.323-3.515Z" transform="translate(-150.271 -134.146)" fill="#fff"/>
            <path id="Trazado_101450" data-name="Trazado 101450" d="M304.336,259.586c0-.631-2.817-6.727-2.817-6.727l-18.642-3.069L279.43,256Z" transform="translate(-144.252 -137.112)" fill="#f0f0f6"/>
            <path id="Trazado_101451" data-name="Trazado 101451" d="M378.67,314.6c0,.227,2.178.664,4.145.227a5.768,5.768,0,0,0,2.859-1.4h0a13.959,13.959,0,0,0,2.035.362,5.259,5.259,0,0,0,.95,0c.664-.042.933-.244.446-.471-.7-.286-1.581-1.774-2.279-1.984a13.075,13.075,0,0,0-4.145-.378,15.445,15.445,0,0,0-2.968,2.2,8,8,0,0,0-1.043,1.446Z" transform="translate(-160.045 -146.841)" fill="#f8c5a5"/>
            <path id="Trazado_101452" data-name="Trazado 101452" d="M387,313.678h0a13.959,13.959,0,0,0,2.035.362,5.254,5.254,0,0,0,.95,0,5.045,5.045,0,0,1-2.682-1.522C387.2,312.366,387,313.678,387,313.678Z" transform="translate(-161.37 -147.093)" fill="#e4ac91"/>
            <path id="Trazado_101453" data-name="Trazado 101453" d="M315.189,263.085c-6.9-4.1-42.884-8.19-46.054-6.929s-4.2,7.089-4.2,7.089l54.824,79.966s7.988-7.568,8.3-9.914-7.677-8.972-9.25-25.5-1.724-20.778-1.724-20.778,12.848,17.944,15.665,19.205,29.918.151,29.918.151l.16-2.985-25.688-6.3S316.938,264.127,315.189,263.085Z" transform="translate(-141.945 -138.088)" fill="#f0f0f6"/>
            <path id="Trazado_101454" data-name="Trazado 101454" d="M379.469,447.17a12.394,12.394,0,0,0-1.959,4.642c0,1.177,1.017,7.24,1.017,7.24h.942l1.48-6.138s1.488,5.508,2.279,6.063,5.945,0,6.971,0,.311-2.2,0-2.758-2.977-.4-4.465-2.127-3.3-6.449-3.3-6.449Z" transform="translate(-159.86 -168.522)" fill="#243c55"/>
            <path id="Trazado_101455" data-name="Trazado 101455" d="M343.139,447.17a12.394,12.394,0,0,0-1.959,4.642c0,1.177,1.017,7.24,1.017,7.24h.942l1.488-6.138s1.488,5.508,2.27,6.063,5.953,0,6.971,0,.311-2.2,0-2.758-2.977-.4-4.465-2.127-3.288-6.449-3.288-6.449Z" transform="translate(-154.079 -168.522)" fill="#243c55"/>
            <g id="Grupo_53999" data-name="Grupo 53999" transform="translate(109.018 121.336)">
              <g id="Grupo_53998" data-name="Grupo 53998" transform="translate(45.239 100.57)">
                <path id="Trazado_101456" data-name="Trazado 101456" d="M318.63,380.052l.429,37.99h3.54l1.774-38.352Z" transform="translate(-304.747 -379.69)" fill="#b1aaa5"/>
                <path id="Trazado_101457" data-name="Trazado 101457" d="M317.133,423.35h6l1.774,25.478-5.045,1.917-4.768-1.917Z" transform="translate(-304.184 -386.638)" fill="#8a817c"/>
                <path id="Trazado_101458" data-name="Trazado 101458" d="M313.454,456.973c0-1.841-.984-3.363-2.186-3.363s-2.178,1.488-2.178,3.363.975,3.363,2.178,3.363S313.454,458.815,313.454,456.973Z" transform="translate(-303.229 -391.453)" fill="#544f4b"/>
                <path id="Trazado_101459" data-name="Trazado 101459" d="M306.484,456.973c0-1.841-.984-3.363-2.186-3.363s-2.178,1.488-2.178,3.363.975,3.363,2.178,3.363S306.484,458.815,306.484,456.973Z" transform="translate(-302.12 -391.453)" fill="#544f4b"/>
                <path id="Trazado_101460" data-name="Trazado 101460" d="M317.794,454.842l-15.674-1.505,1.3-4.246,13.715,2.6Z" transform="translate(-302.12 -390.734)" fill="#6e6761"/>
                <path id="Trazado_101461" data-name="Trazado 101461" d="M318.9,454.842l-9.813-1.505.816-4.246,8.585,2.6Z" transform="translate(-303.229 -390.734)" fill="#8a817c"/>
                <path id="Trazado_101462" data-name="Trazado 101462" d="M327.24,456.973c0-1.841.975-3.363,2.186-3.363s2.178,1.488,2.178,3.363-.975,3.363-2.178,3.363S327.24,458.815,327.24,456.973Z" transform="translate(-306.117 -391.453)" fill="#544f4b"/>
                <path id="Trazado_101463" data-name="Trazado 101463" d="M334.21,456.973c0-1.841.975-3.363,2.186-3.363s2.178,1.488,2.178,3.363-.975,3.363-2.178,3.363S334.21,458.815,334.21,456.973Z" transform="translate(-307.227 -391.453)" fill="#544f4b"/>
                <path id="Trazado_101464" data-name="Trazado 101464" d="M320.76,454.842l15.674-1.505-1.3-4.246-13.715,2.6Z" transform="translate(-305.086 -390.734)" fill="#6e6761"/>
                <path id="Trazado_101465" data-name="Trazado 101465" d="M320.76,454.842l9.813-1.505-.816-4.246-8.585,2.6Z" transform="translate(-305.086 -390.734)" fill="#8a817c"/>
              </g>
              <path id="Trazado_101466" data-name="Trazado 101466" d="M248.32,267.842c0,34.669,18.5,96.027,21.022,98.861,1.354,1.522,26.63,2.052,49.8,2,19.819,0,38.1-.479,38.545-1.06.933-1.253,3.851-6.29.933-8.5-1.253-.942-34.476.95-34.476.95s-16.3-87.215-23.2-92.882a21.7,21.7,0,0,0-1.825-1.337C283.763,255.927,248.32,260.283,248.32,267.842Z" transform="translate(-248.32 -260.087)" fill="#4d392b"/>
              <path id="Trazado_101467" data-name="Trazado 101467" d="M328.442,369.8c19.819,0,38.1-.479,38.545-1.06.933-1.253,3.851-6.29.933-8.5-1.253-.942-34.476.95-34.476.95s-16.271-87.215-23.166-92.882a21.7,21.7,0,0,0-1.825-1.337C301.467,268.114,320.605,354.513,328.442,369.8Z" transform="translate(-257.65 -261.182)" fill="#382a20"/>
            </g>
            <path id="Trazado_101468" data-name="Trazado 101468" d="M264.411,259.99c-3.313,1.362-3,4.515-6.13,5.222s-4.549-3.7-4.549-3.7l-4.852-2.094s3.288-3.178,4.2-3.456S266.471,256.736,264.411,259.99Z" transform="translate(-139.391 -138.088)" fill="#f8c5a5"/>
            <path id="Trazado_101469" data-name="Trazado 101469" d="M223.564,200.325c-3.136-9.292-29.918-15.749-35.249-15.27s-13.109,9.317-14.253,14.009c-3.6,14.8,9.552,52.9,9.25,60.29s-4.07,19.054-4.07,19.054,2.035-2.052,11.587,1.572,20.677,12.907,27.749,13.067c4.541-10.393,4.692-53.815,4.692-53.815Z" transform="translate(-127.385 -126.807)" fill="url(#radial-gradient-8)"/>
            <path id="Trazado_101470" data-name="Trazado 101470" d="M244.692,249.394c5.045-.79,6.887,5.356,6.1,8.03S230.9,274.242,227.925,274.9s-7.669-5.979-8.77-10.864-6.424-42.506-5.323-49.611,14.564-13.857,16.136-11.335S232,258.03,232,258.03,241.7,249.865,244.692,249.394Z" transform="translate(-133.79 -129.595)" fill="#5e7fa5"/>
            <path id="Trazado_101471" data-name="Trazado 101471" d="M276.239,203.869c4.919-1.211,10.326-1.959,10.326-1.959s6.676,12.428,21.173,7.24c-.95,4.541-3.3,4.759-5.365,7.568,0,0-2.741-2.262-4.4,4.1s-7,10.275-9.418,6.525-10.528-8.585-11.848-12.554C276.071,212.841,275.8,208.469,276.239,203.869Z" transform="translate(-143.71 -129.493)" fill="#d66969" opacity="0.4"/>
            <path id="Trazado_101472" data-name="Trazado 101472" d="M263.55,192.439c.227,12.47,2.859,17.053,9.325,19.962s5.592-2.144,10.3-4.33,8.106-12.369,4.381-18.5c-.925-1.514-1.841-2.859-2.741-4.061-10.679-14.127-19.659-6.424-21.072,3.784A21.636,21.636,0,0,0,263.55,192.439Z" transform="translate(-141.725 -125.656)" fill="#d66969"/>
            <path id="Trazado_101473" data-name="Trazado 101473" d="M263.55,193.9c.227,12.47,2.859,17.053,9.325,19.962s5.592-2.144,10.3-4.33,8.106-12.369,4.381-18.5c-.925-1.514-1.841-2.859-2.741-4.061,1.345,4.532,4.339,10.494.605,13.815-1.421,1.261-3.809,1.488-4.9,3.052s-.841,3.246-2.422,4.557c-3.027,2.447-7.568.967-9.973-1.564a17.4,17.4,0,0,1-4.2-11.772c0-1.345-.143-2.842-.16-4.314A21.642,21.642,0,0,0,263.55,193.9Z" transform="translate(-141.725 -127.116)" fill="#d66969" opacity="0.4"/>
            <path id="Trazado_101474" data-name="Trazado 101474" d="M306.936,217.33c-.782-5.432-7.206-7.484-7.206-1.186s2.9,8.51,4.936,8.51C305.843,224.654,307.668,222.392,306.936,217.33Z" transform="translate(-147.483 -131.139)" fill="#f8c5a5"/>
            <path id="Trazado_101475" data-name="Trazado 101475" d="M212.62,156.645c1.253-2.943,3.363.841,3.86,2.674-2.035-.891-1.682,1.261-.412,2.2-2.775-1.051-1.984-3.515-.21-2.724C214.285,155.854,213.663,155.484,212.62,156.645Z" transform="translate(-133.621 -122.117)" fill="#de9b88"/>
            <path id="Trazado_101476" data-name="Trazado 101476" d="M302.72,216.5c1.825-2.615,3.1,1.505,3.246,3.414-1.816-1.287-1.892.891-.841,2.069-2.523-1.589-1.228-3.843.345-2.708C304.519,216.071,303.981,215.584,302.72,216.5Z" transform="translate(-147.959 -131.68)" fill="#de9b88"/>
          </g>
        </g>
      </g>
    </g>
  </g>
</svg>
