<svg xmlns="http://www.w3.org/2000/svg" xmlns:xlink="http://www.w3.org/1999/xlink" width="322.262" height="278.161" viewBox="0 0 322.262 278.161">
  <defs>
    <clipPath id="clip-path">
      <rect id="Rectángulo_43293" data-name="Rectángulo 43293" width="228.277" height="147.659" fill="none"/>
    </clipPath>
    <clipPath id="clip-path-2">
      <rect id="Rectángulo_43287" data-name="Rectángulo 43287" width="228.278" height="147.659" fill="none"/>
    </clipPath>
    <clipPath id="clip-path-3">
      <rect id="Rectángulo_43286" data-name="Rectángulo 43286" width="3.901" height="24.974" fill="none"/>
    </clipPath>
    <clipPath id="clip-path-5">
      <rect id="Rectángulo_43288" data-name="Rectángulo 43288" width="19.498" height="9.506" fill="none"/>
    </clipPath>
    <clipPath id="clip-path-6">
      <rect id="Rectángulo_43289" data-name="Rectángulo 43289" width="15.514" height="15.378" fill="none"/>
    </clipPath>
    <clipPath id="clip-path-7">
      <rect id="Rectángulo_43290" data-name="Rectángulo 43290" width="6.48" height="15.582" fill="none"/>
    </clipPath>
    <clipPath id="clip-path-8">
      <rect id="Rectángulo_43291" data-name="Rectángulo 43291" width="3.901" height="24.971" fill="none"/>
    </clipPath>
    <clipPath id="clip-path-9">
      <rect id="Rectángulo_43297" data-name="Rectángulo 43297" width="98.799" height="104.502" fill="none"/>
    </clipPath>
    <clipPath id="clip-path-11">
      <rect id="Rectángulo_43294" data-name="Rectángulo 43294" width="73.419" height="49.383" fill="none"/>
    </clipPath>
    <clipPath id="clip-path-12">
      <rect id="Rectángulo_43295" data-name="Rectángulo 43295" width="31.772" height="48.376" fill="none"/>
    </clipPath>
    <clipPath id="clip-path-13">
      <rect id="Rectángulo_43301" data-name="Rectángulo 43301" width="187.969" height="149.877" fill="none"/>
    </clipPath>
    <clipPath id="clip-path-15">
      <rect id="Rectángulo_43298" data-name="Rectángulo 43298" width="186.877" height="106.041" fill="none"/>
    </clipPath>
    <clipPath id="clip-path-16">
      <rect id="Rectángulo_43299" data-name="Rectángulo 43299" width="47.447" height="27.082" fill="none"/>
    </clipPath>
  </defs>
  <g id="Grupo_143817" data-name="Grupo 143817" transform="translate(-334 -4488.841)">
    <g id="Grupo_143795" data-name="Grupo 143795" transform="translate(334 4488.841)">
      <g id="Grupo_143794" data-name="Grupo 143794" clip-path="url(#clip-path)">
        <path id="Trazado_190053" data-name="Trazado 190053" d="M41.652,243.283v40.37l42.1-24.308v-40.37Z" transform="translate(-32.993 -173.454)" fill="#9b9a9a"/>
        <path id="Trazado_190054" data-name="Trazado 190054" d="M0,351.91l8.658,5V316.86l-8.658-5Z" transform="translate(0 -247.031)" fill="#bfbebe"/>
        <path id="Trazado_190055" data-name="Trazado 190055" d="M0,219.236l8.658,5,42.1-24.308-8.658-5Z" transform="translate(0 -154.406)" fill="#e2e2e2"/>
        <g id="Grupo_143779" data-name="Grupo 143779">
          <g id="Grupo_143778" data-name="Grupo 143778" clip-path="url(#clip-path-2)">
            <g id="Grupo_143777" data-name="Grupo 143777" transform="translate(37.895 68.344)" opacity="0.5" style="mix-blend-mode: multiply;isolation: isolate">
              <g id="Grupo_143776" data-name="Grupo 143776">
                <g id="Grupo_143775" data-name="Grupo 143775" clip-path="url(#clip-path-3)">
                  <path id="Trazado_190056" data-name="Trazado 190056" d="M182.294,331.023v22.72l3.9-2.252V328.768Z" transform="translate(-182.294 -328.768)" fill="#aaa9a9"/>
                </g>
              </g>
            </g>
          </g>
        </g>
        <path id="Trazado_190057" data-name="Trazado 190057" d="M627.167,584.878l-1.3.751-1.3.751v5.7l1.3-.75,1.3-.751,1.3-.751v-5.7Z" transform="translate(-494.731 -462.699)" fill="#8c8c8c"/>
        <path id="Trazado_190058" data-name="Trazado 190058" d="M274.233,392.7l-91.94-53.081v14.574l91.94,44.205Z" transform="translate(-144.398 -269.015)" fill="#8c8c8c"/>
        <path id="Trazado_190059" data-name="Trazado 190059" d="M278.134,381.852l-91.94-53.084-1.3.752h0l-1.3.752h0l-1.3.754,91.94,53.081Z" transform="translate(-144.398 -260.423)" fill="#e2e2e2"/>
        <path id="Trazado_190060" data-name="Trazado 190060" d="M583.8,604.778v0l-3.349,1.933h0l-3.319,1.917v5.7l3.349-1.933h0l3.191-1.842v0l3.349-1.933v-5.7Z" transform="translate(-457.161 -477.584)" fill="#e8e8e8"/>
        <g id="Grupo_143793" data-name="Grupo 143793">
          <g id="Grupo_143792" data-name="Grupo 143792" clip-path="url(#clip-path-2)">
            <path id="Trazado_190061" data-name="Trazado 190061" d="M642.479,582.087h0Z" transform="translate(-508.92 -461.083)" fill="#bfbebe"/>
            <path id="Trazado_190062" data-name="Trazado 190062" d="M543.115,587.213c-4.9,2.831-12.853,2.831-17.756,0-2.452-1.415-3.678-3.271-3.678-5.126v19.774h.017c.152,1.731,1.371,3.436,3.661,4.758,4.9,2.831,12.853,2.831,17.756,0,2.29-1.322,3.509-3.027,3.661-4.758h.017V582.087c0,1.855-1.226,3.71-3.677,5.126" transform="translate(-413.234 -461.083)" fill="#bfbebe"/>
            <path id="Trazado_190063" data-name="Trazado 190063" d="M543.115,549.338c-4.9-2.831-12.853-2.831-17.757,0-2.452,1.415-3.677,3.271-3.677,5.126s1.226,3.71,3.678,5.126c4.9,2.831,12.853,2.831,17.756,0,2.452-1.415,3.677-3.271,3.677-5.126s-1.226-3.71-3.678-5.126" transform="translate(-413.234 -433.46)" fill="#aaa9a9"/>
            <g id="Grupo_143782" data-name="Grupo 143782" transform="translate(113.643 118.617)" opacity="0.5" style="mix-blend-mode: multiply;isolation: isolate">
              <g id="Grupo_143781" data-name="Grupo 143781">
                <g id="Grupo_143780" data-name="Grupo 143780" clip-path="url(#clip-path-5)">
                  <path id="Trazado_190064" data-name="Trazado 190064" d="M546.677,573.349l1,1.63,8.736,5.128c.069,0,.175-.013.3-.028.075-.009.151-.018.6-.089.045-.007,1-.189,1.042-.193.074-.006.832-.191,1.225-.3.551-.155.962-.3,1.087-.349a12.579,12.579,0,0,0,2.371-1.1,10.62,10.62,0,0,0,1.512-1.1,6.944,6.944,0,0,0,.8-.8,6.155,6.155,0,0,0,.827-1.3c-1.007-.745-2.015-1.511-3.066-2.24-1.285-.891-2.527-1.742-2.81-2Z" transform="translate(-546.677 -570.601)" fill="#aaa9a9"/>
                </g>
              </g>
            </g>
            <path id="Trazado_190065" data-name="Trazado 190065" d="M579.671,416.525v-43.2l8.643-5.712v43.929Z" transform="translate(-459.169 -291.19)" fill="#9b9a9a"/>
            <path id="Trazado_190066" data-name="Trazado 190066" d="M546.677,419.162l6.859,3.976v-43.2l-6.859-3.976Z" transform="translate(-433.034 -297.803)" fill="#bfbebe"/>
            <g id="Grupo_143785" data-name="Grupo 143785" transform="translate(113.643 89.385)" opacity="0.5" style="mix-blend-mode: multiply;isolation: isolate">
              <g id="Grupo_143784" data-name="Grupo 143784">
                <g id="Grupo_143783" data-name="Grupo 143783" clip-path="url(#clip-path-6)">
                  <path id="Trazado_190067" data-name="Trazado 190067" d="M546.677,429.982v10.589l6.859,4.789,8.642-4.949.013-1.472Z" transform="translate(-546.677 -429.982)" fill="#aaa9a9"/>
                </g>
              </g>
            </g>
            <path id="Trazado_190068" data-name="Trazado 190068" d="M371.222,3.847c-15.445,8.917-27.966,30.6-27.966,48.437s12.521,25.062,27.966,16.145,27.966-30.6,27.966-48.437S386.667-5.07,371.222,3.847" transform="translate(-271.9 -0.022)" fill="#b2abb1"/>
            <path id="Trazado_190069" data-name="Trazado 190069" d="M478.221,52.113,391.5,2.2c-5.1-3.253-12.292-2.967-20.276,1.642-15.445,8.917-27.966,30.6-27.966,48.437,0,10.032,3.962,16.708,10.177,19.042l84.034,48.517Z" transform="translate(-271.9 -0.022)" fill="#c9c7c7"/>
            <path id="Trazado_190070" data-name="Trazado 190070" d="M790.491,245.3c-15.445,8.917-27.966,30.6-27.966,48.437s12.521,25.062,27.966,16.145,27.966-30.6,27.966-48.437-12.521-25.062-27.966-16.145" transform="translate(-604.011 -191.278)" fill="#6d6c6c"/>
            <path id="Trazado_190071" data-name="Trazado 190071" d="M871.756,350.776c-5.23,3.02-9.47,10.363-9.47,16.4s4.24,8.487,9.47,5.467,9.47-10.364,9.47-16.4-4.24-8.487-9.47-5.467" transform="translate(-683.034 -276.832)" fill="#7f7f7f"/>
            <path id="Trazado_190072" data-name="Trazado 190072" d="M884.344,349.517c1.369,1.106,2.195,3.068,2.195,5.729,0,6.039-4.24,13.383-9.47,16.4a8.542,8.542,0,0,1-4.225,1.28c1.737,1.4,4.351,1.427,7.276-.262,5.23-3.02,9.47-10.363,9.47-16.4,0-4.284-2.139-6.748-5.246-6.748" transform="translate(-691.396 -276.859)" fill="#43545e"/>
            <path id="Trazado_190073" data-name="Trazado 190073" d="M869.775,373.92c0,4.253,2.986,5.977,6.669,3.85a14.741,14.741,0,0,0,6.669-11.551c0-4.253-2.986-5.977-6.669-3.85a14.74,14.74,0,0,0-6.669,11.551m1.856-1.072a10.638,10.638,0,0,1,4.813-8.336c2.658-1.535,4.813-.291,4.813,2.779a10.638,10.638,0,0,1-4.813,8.336c-2.658,1.535-4.813.291-4.813-2.779" transform="translate(-688.966 -286.318)" fill="#687d8c"/>
            <path id="Trazado_190074" data-name="Trazado 190074" d="M878.7,381.98c0,3.069,2.155,4.313,4.813,2.779a10.639,10.639,0,0,0,4.813-8.336c0-3.069-2.155-4.314-4.813-2.779a10.638,10.638,0,0,0-4.813,8.337m1.789-1.033a6.683,6.683,0,0,1,3.024-5.237,3.364,3.364,0,0,1,.342-.158,3.261,3.261,0,0,0-.121.824c0,1.23.863,1.729,1.929,1.114a3.4,3.4,0,0,0,.814-.685,3.479,3.479,0,0,1,.059.65,6.684,6.684,0,0,1-3.023,5.237c-1.67.964-3.024.183-3.024-1.746" transform="translate(-696.038 -295.449)" fill="#445768"/>
            <path id="Trazado_190075" data-name="Trazado 190075" d="M890.334,385.486a3.357,3.357,0,0,1,.343-.158,3.258,3.258,0,0,0-.121.824c0,1.23.864,1.729,1.929,1.114a3.4,3.4,0,0,0,.814-.685,3.442,3.442,0,0,1,.06.65,6.683,6.683,0,0,1-3.024,5.237c-1.67.964-3.024.183-3.024-1.746a6.683,6.683,0,0,1,3.024-5.237" transform="translate(-702.856 -305.226)" fill="#151d26"/>
            <path id="Trazado_190076" data-name="Trazado 190076" d="M895.916,288.734a5.024,5.024,0,0,0,2.273-3.937c0-1.45-1.018-2.037-2.273-1.312a5.024,5.024,0,0,0-2.273,3.937c0,1.45,1.018,2.037,2.273,1.312" transform="translate(-707.872 -224.308)" fill="#dbdbdb"/>
            <path id="Trazado_190077" data-name="Trazado 190077" d="M895.916,505.144a5.024,5.024,0,0,0-2.273,3.937c0,1.45,1.018,2.037,2.273,1.312a5.025,5.025,0,0,0,2.273-3.937c0-1.45-1.018-2.037-2.273-1.312" transform="translate(-707.872 -399.888)" fill="#dbdbdb"/>
            <path id="Trazado_190078" data-name="Trazado 190078" d="M991.9,338.9a5.025,5.025,0,0,0-2.273,3.937c0,1.45,1.018,2.037,2.273,1.313a5.025,5.025,0,0,0,2.273-3.937c0-1.45-1.018-2.037-2.273-1.312" transform="translate(-783.903 -268.202)" fill="#dbdbdb"/>
            <path id="Trazado_190079" data-name="Trazado 190079" d="M802.205,451.043c0-1.45-1.018-2.037-2.273-1.312a5.025,5.025,0,0,0-2.273,3.937c0,1.45,1.018,2.037,2.273,1.312a5.024,5.024,0,0,0,2.273-3.937" transform="translate(-631.842 -355.995)" fill="#dbdbdb"/>
            <path id="Trazado_190080" data-name="Trazado 190080" d="M962.18,282.169c.888.512,2.327-.318,3.215-1.856s.888-3.2,0-3.712-2.327.319-3.215,1.856-.888,3.2,0,3.712" transform="translate(-761.634 -218.981)" fill="#dbdbdb"/>
            <path id="Trazado_190081" data-name="Trazado 190081" d="M829.652,511.708c-.888-.512-2.327.318-3.215,1.856s-.888,3.2,0,3.712,2.327-.318,3.215-1.856.888-3.2,0-3.712" transform="translate(-654.11 -405.214)" fill="#dbdbdb"/>
            <path id="Trazado_190082" data-name="Trazado 190082" d="M965.395,433.337c-.888-.512-2.327.319-3.215,1.856s-.888,3.2,0,3.712,2.327-.318,3.215-1.856.888-3.2,0-3.712" transform="translate(-761.635 -343.135)" fill="#dbdbdb"/>
            <path id="Trazado_190083" data-name="Trazado 190083" d="M826.438,360.539c.888.512,2.327-.318,3.215-1.856s.888-3.2,0-3.712-2.327.318-3.215,1.856-.888,3.2,0,3.712" transform="translate(-654.11 -281.06)" fill="#dbdbdb"/>
            <path id="Trazado_190084" data-name="Trazado 190084" d="M933.89,270.378c-1.158.108-2.49,1.507-2.975,3.124s.06,2.84,1.218,2.732,2.49-1.507,2.975-3.124-.06-2.84-1.218-2.732" transform="translate(-737.256 -214.166)" fill="#dbdbdb"/>
            <path id="Trazado_190085" data-name="Trazado 190085" d="M859.694,517.649c-1.158.108-2.49,1.507-2.975,3.124s.06,2.84,1.218,2.732,2.49-1.507,2.975-3.124-.06-2.84-1.218-2.732" transform="translate(-678.484 -410.035)" fill="#dbdbdb"/>
            <path id="Trazado_190086" data-name="Trazado 190086" d="M985.317,385.739c-1.158.108-2.49,1.507-2.975,3.124s.06,2.84,1.218,2.732,2.49-1.507,2.975-3.124-.06-2.84-1.218-2.732" transform="translate(-777.992 -305.546)" fill="#dbdbdb"/>
            <path id="Trazado_190087" data-name="Trazado 190087" d="M806.51,408.143c1.158-.108,2.49-1.507,2.975-3.124s-.06-2.84-1.218-2.732-2.49,1.507-2.975,3.124.06,2.84,1.218,2.732" transform="translate(-637.747 -318.654)" fill="#dbdbdb"/>
            <path id="Trazado_190088" data-name="Trazado 190088" d="M982.639,305.876c.476,1.067,1.8.943,2.965-.277s1.718-3.074,1.242-4.141-1.8-.943-2.965.277-1.718,3.074-1.242,4.141" transform="translate(-778.233 -238.216)" fill="#dbdbdb"/>
            <path id="Trazado_190089" data-name="Trazado 190089" d="M809.189,488.007c-.476-1.067-1.8-.943-2.965.277s-1.718,3.074-1.243,4.141,1.8.943,2.965-.277,1.718-3.074,1.242-4.141" transform="translate(-637.507 -385.985)" fill="#dbdbdb"/>
            <path id="Trazado_190090" data-name="Trazado 190090" d="M931.417,476.582c-1.162,1.22-1.718,3.074-1.242,4.141s1.8.943,2.965-.277,1.718-3.074,1.242-4.141-1.8-.943-2.965.277" transform="translate(-736.675 -376.715)" fill="#dbdbdb"/>
            <path id="Trazado_190091" data-name="Trazado 190091" d="M858.689,313.436c-1.162,1.22-1.718,3.074-1.243,4.141s1.8.943,2.965-.277,1.718-3.074,1.242-4.141-1.8-.943-2.965.277" transform="translate(-679.065 -247.485)" fill="#dbdbdb"/>
            <path id="Trazado_190092" data-name="Trazado 190092" d="M884.346,331.208a3.5,3.5,0,0,0,1.276-2.992c-.187-.922-1.061-1.077-1.953-.346a3.5,3.5,0,0,0-1.276,2.992c.187.922,1.061,1.077,1.953.346" transform="translate(-698.933 -259.348)" fill="#dbdbdb"/>
            <path id="Trazado_190093" data-name="Trazado 190093" d="M912.235,468.81a3.5,3.5,0,0,0-1.276,2.992c.187.922,1.061,1.077,1.953.346a3.5,3.5,0,0,0,1.276-2.992c-.187-.922-1.061-1.077-1.953-.346" transform="translate(-721.561 -370.989)" fill="#dbdbdb"/>
            <path id="Trazado_190094" data-name="Trazado 190094" d="M966.8,345.827a3.5,3.5,0,0,0,1.276-2.992c-.187-.922-1.061-1.077-1.953-.346a3.5,3.5,0,0,0-1.276,2.992c.187.922,1.061,1.077,1.953.346" transform="translate(-764.248 -270.927)" fill="#dbdbdb"/>
            <path id="Trazado_190095" data-name="Trazado 190095" d="M830.456,457.53a3.5,3.5,0,0,0,1.276-2.992c-.187-.922-1.061-1.077-1.953-.346a3.5,3.5,0,0,0-1.276,2.992c.187.922,1.061,1.077,1.953.346" transform="translate(-656.246 -359.409)" fill="#dbdbdb"/>
            <path id="Trazado_190096" data-name="Trazado 190096" d="M937.3,308.57c-.763-.135-1.785.7-2.283,1.871s-.284,2.225.478,2.36,1.785-.7,2.283-1.871.284-2.225-.478-2.36" transform="translate(-740.432 -244.413)" fill="#dbdbdb"/>
            <path id="Trazado_190097" data-name="Trazado 190097" d="M858.8,489.086c-.5,1.168-.284,2.225.478,2.36s1.785-.7,2.283-1.871.284-2.225-.478-2.36-1.785.7-2.283,1.871" transform="translate(-680.063 -385.922)" fill="#dbdbdb"/>
            <path id="Trazado_190098" data-name="Trazado 190098" d="M957.977,410.59c.5-1.168.284-2.225-.478-2.36s-1.785.7-2.283,1.87-.284,2.225.478,2.36,1.785-.7,2.283-1.871" transform="translate(-756.432 -323.356)" fill="#dbdbdb"/>
            <path id="Trazado_190099" data-name="Trazado 190099" d="M838.606,389.426c-.5,1.168-.284,2.225.478,2.36s1.785-.7,2.283-1.871.284-2.225-.478-2.36-1.785.7-2.283,1.871" transform="translate(-664.063 -306.979)" fill="#dbdbdb"/>
            <path id="Trazado_190100" data-name="Trazado 190100" d="M909.847,314c-.172,1.133.413,1.793,1.308,1.476a3.518,3.518,0,0,0,1.932-2.625c.172-1.132-.413-1.793-1.308-1.476A3.518,3.518,0,0,0,909.847,314" transform="translate(-720.684 -246.584)" fill="#dbdbdb"/>
            <path id="Trazado_190101" data-name="Trazado 190101" d="M886.734,486.013c.172-1.133-.413-1.793-1.308-1.476a3.517,3.517,0,0,0-1.932,2.625c-.173,1.133.413,1.793,1.308,1.476a3.517,3.517,0,0,0,1.932-2.625" transform="translate(-699.81 -383.749)" fill="#dbdbdb"/>
            <path id="Trazado_190102" data-name="Trazado 190102" d="M966.373,377.784a3.519,3.519,0,0,0,1.932-2.625c.172-1.133-.414-1.793-1.308-1.476a3.517,3.517,0,0,0-1.932,2.625c-.172,1.132.414,1.793,1.308,1.476" transform="translate(-764.424 -295.938)" fill="#dbdbdb"/>
            <path id="Trazado_190103" data-name="Trazado 190103" d="M829.584,426.333a3.518,3.518,0,0,0,1.932-2.625c.172-1.133-.413-1.793-1.308-1.476a3.518,3.518,0,0,0-1.932,2.625c-.172,1.133.413,1.793,1.308,1.476" transform="translate(-656.07 -334.395)" fill="#dbdbdb"/>
            <path id="Trazado_190104" data-name="Trazado 190104" d="M956.9,322.665c.754-1.025.952-2.323.441-2.9s-1.536-.212-2.291.813-.952,2.323-.441,2.9,1.536.212,2.291-.813" transform="translate(-755.937 -253.076)" fill="#dbdbdb"/>
            <path id="Trazado_190105" data-name="Trazado 190105" d="M839.688,477.351c-.754,1.025-.952,2.323-.441,2.9s1.536.212,2.291-.813.952-2.323.441-2.9-1.536-.212-2.291.813" transform="translate(-664.559 -377.258)" fill="#dbdbdb"/>
            <path id="Trazado_190106" data-name="Trazado 190106" d="M936.413,443.021c-.755,1.025-.952,2.323-.441,2.9s1.536.212,2.291-.813.952-2.323.441-2.9-1.536-.212-2.291.813" transform="translate(-741.177 -350.065)" fill="#dbdbdb"/>
            <path id="Trazado_190107" data-name="Trazado 190107" d="M858.321,354.907c-.754,1.025-.952,2.323-.441,2.9s1.536.212,2.291-.813.952-2.323.441-2.9-1.536-.212-2.291.813" transform="translate(-679.319 -280.268)" fill="#dbdbdb"/>
            <path id="Trazado_190108" data-name="Trazado 190108" d="M497.629,1.914A13.645,13.645,0,0,0,495.074.751a14.5,14.5,0,0,0-2.7-.61,18.34,18.34,0,0,0-6.683.426A24.158,24.158,0,0,0,482.115,1.7c-.231.091-1.251.5-2.554,1.154-.711.358-1.31.691-1.775.961l87.158,50.2c.5-.283,1.206-.663,2.062-1.074a32.379,32.379,0,0,1,4.034-1.649,20.939,20.939,0,0,1,9.385-.681,19.081,19.081,0,0,1,3.331.886L497.629,1.914" transform="translate(-378.463 0)" fill="#c1c1c1"/>
            <g id="Grupo_143788" data-name="Grupo 143788" transform="translate(108.464 131.179)" opacity="0.5" style="mix-blend-mode: multiply;isolation: isolate">
              <g id="Grupo_143787" data-name="Grupo 143787">
                <g id="Grupo_143786" data-name="Grupo 143786" clip-path="url(#clip-path-7)">
                  <path id="Trazado_190109" data-name="Trazado 190109" d="M528.242,632.133v14.478s-6.1-1.779-6.479-5.983v-9.6Z" transform="translate(-521.763 -631.03)" fill="#aaa9a9"/>
                </g>
              </g>
            </g>
            <path id="Trazado_190110" data-name="Trazado 190110" d="M196.344,437.683,104.4,384.6v5.7l91.94,53.081Z" transform="translate(-82.701 -304.651)" fill="#aaa9a9"/>
            <path id="Trazado_190111" data-name="Trazado 190111" d="M190.089,441.294l-91.94-53.081v5.7l91.94,53.081Z" transform="translate(-77.746 -307.511)" fill="#aaa9a9"/>
            <g id="Grupo_143791" data-name="Grupo 143791" transform="translate(19.103 79.198)" opacity="0.5" style="mix-blend-mode: multiply;isolation: isolate">
              <g id="Grupo_143790" data-name="Grupo 143790">
                <g id="Grupo_143789" data-name="Grupo 143789" clip-path="url(#clip-path-8)">
                  <path id="Trazado_190112" data-name="Trazado 190112" d="M91.9,383.232v22.716l3.9-2.252V380.978Z" transform="translate(-91.895 -380.978)" fill="#aaa9a9"/>
                </g>
              </g>
            </g>
            <path id="Trazado_190113" data-name="Trazado 190113" d="M536.768,637.088l-1.3.751-1.3.751v5.7l1.3-.751,1.3-.751,1.3-.751v-5.7Z" transform="translate(-423.124 -504.055)" fill="#8c8c8c"/>
            <path id="Trazado_190114" data-name="Trazado 190114" d="M183.835,444.9,91.9,391.823v14.56l91.94,44.219Z" transform="translate(-72.792 -310.371)" fill="#aaa9a9"/>
            <path id="Trazado_190115" data-name="Trazado 190115" d="M187.735,434.062,95.8,380.977l-1.3.752h0l-1.3.752h0l-1.3.754,91.94,53.081Z" transform="translate(-72.792 -301.78)" fill="#e2e2e2"/>
            <path id="Trazado_190116" data-name="Trazado 190116" d="M397.535,18.373c-.818.475-1.863,1.118-3.037,1.939a43.462,43.462,0,0,0-3.937,3.111,66.485,66.485,0,0,0-8.1,8.725,64.061,64.061,0,0,0-5.987,9.433l87.2,50.124a65.111,65.111,0,0,1,5.8-9.142,53.641,53.641,0,0,1,9.672-10.148,50.206,50.206,0,0,1,5.554-3.843l-87.158-50.2" transform="translate(-298.213 -14.554)" fill="#dbdbdb"/>
            <path id="Trazado_190117" data-name="Trazado 190117" d="M864.443,274.886a18.827,18.827,0,0,0-8.22-15.232h0c-.147-.094-8.855-5.659-13.775-7.7a15.335,15.335,0,0,0-2.142-.7,16.149,16.149,0,0,0-4.413-.368,22.458,22.458,0,0,0-6.845,1.5,32.577,32.577,0,0,0-4.412,2.036,44.37,44.37,0,0,0-7.609,5.346,52.6,52.6,0,0,0-7.224,7.661,63.281,63.281,0,0,0-6.684,10.408l15.3,9.11c3.453-12.144,12.131-21.414,22.829-24.31a16.7,16.7,0,0,1,7.885-.143,4.292,4.292,0,0,1,2.167,1.642,4.387,4.387,0,0,1,.616,3.3l12.527,7.449" transform="translate(-636.166 -198.718)" fill="#b2b1b1"/>
            <path id="Trazado_190118" data-name="Trazado 190118" d="M824.152,269.217l15.131,8.544a31.325,31.325,0,0,0-6.262,3.128,33.709,33.709,0,0,0-7.178,6.408,37.267,37.267,0,0,0-4.67,7.115,38.567,38.567,0,0,0-2.753,7.073c-5.1-3.044-10.2-6.065-15.3-9.11.657-1.25,1.441-2.647,2.343-4.106.209-.337,1.254-2.02,2.571-3.851a56.1,56.1,0,0,1,7.291-8.506,51.624,51.624,0,0,1,8.829-6.695" transform="translate(-636.166 -213.252)" fill="#bfbfbf"/>
            <path id="Trazado_190119" data-name="Trazado 190119" d="M1007.008,304.339c.115.007,2.909.218,4.1,1.988a6.733,6.733,0,0,1,.958,2.932c0,.029,0,.053.006.069l13.876,7.81a16.123,16.123,0,0,0-1.884-4.786,17.1,17.1,0,0,0-5.487-5.544,18.042,18.042,0,0,0-11.569-2.469" transform="translate(-797.671 -240.97)" fill="#514f4f"/>
          </g>
        </g>
      </g>
    </g>
    <g id="Grupo_143805" data-name="Grupo 143805" transform="translate(355.34 4662.5)">
      <g id="Grupo_143804" data-name="Grupo 143804" clip-path="url(#clip-path-9)">
        <g id="Grupo_143803" data-name="Grupo 143803">
          <g id="Grupo_143802" data-name="Grupo 143802" clip-path="url(#clip-path-9)">
            <g id="Grupo_143798" data-name="Grupo 143798" transform="translate(0 55.119)" opacity="0.49" style="mix-blend-mode: multiply;isolation: isolate">
              <g id="Grupo_143797" data-name="Grupo 143797">
                <g id="Grupo_143796" data-name="Grupo 143796" clip-path="url(#clip-path-11)">
                  <path id="Trazado_190120" data-name="Trazado 190120" d="M28.17,269.535c19.713-9.588,39.517-9.5,44.233.2s-7.441,25.33-27.154,34.918-39.517,9.5-44.233-.2,7.441-25.33,27.154-34.918" transform="translate(0 -262.401)" fill="#b2abb1"/>
                </g>
              </g>
            </g>
            <path id="Trazado_190121" data-name="Trazado 190121" d="M125.661,5.845l.778-1.38-5.984-2.978-.073-.036-.052-.026,0,0C108.1-4.368,88.161,7.947,74.965,29.793c-13.652,22.6-14.921,46.84-2.835,54.141.188.113.383.208.575.311l-.011.018.568.284.039.02,6.241,3.117.943-1.674c11.942-.27,27.378-11.786,38.246-29.778,11.844-19.608,14.361-40.443,6.928-50.386" transform="translate(-50.425 0)" fill="#e2e2e2"/>
            <path id="Trazado_190122" data-name="Trazado 190122" d="M152.461,17.607c-12.086-7.3-32.951,5.1-46.6,27.7S90.937,92.15,103.023,99.45s32.951-5.1,46.6-27.7,14.921-46.84,2.835-54.141" transform="translate(-74.83 -12.255)" fill="#c6c6c6"/>
            <g id="Grupo_143801" data-name="Grupo 143801" transform="translate(19.876 40.816)" opacity="0.5" style="mix-blend-mode: multiply;isolation: isolate">
              <g id="Grupo_143800" data-name="Grupo 143800">
                <g id="Grupo_143799" data-name="Grupo 143799" clip-path="url(#clip-path-12)">
                  <path id="Trazado_190123" data-name="Trazado 190123" d="M112.542,194.307,94.649,221.069a15.729,15.729,0,0,0,.057,2.328c.045.754.056,1.585.177,2.494a20.9,20.9,0,0,0,.723,3.919,37.584,37.584,0,0,0,1.588,4.434,16.515,16.515,0,0,0,3.126,4.4,15.076,15.076,0,0,0,4.841,3.13c.414.175.711.192.949.323,0,0,8.61,2.981,20.285-4.5Z" transform="translate(-94.622 -194.307)" fill="#aaa9a9"/>
                </g>
              </g>
            </g>
            <path id="Trazado_190124" data-name="Trazado 190124" d="M199.588,74.271l-.005.009c-4.609-6.565-13.256-7.844-23.227-2.215-14.952,8.442-27.207,29.2-27.372,46.372-.12,12.473,6.177,19.611,15.362,19.35l-.005.008c-.176-.017,20.5,1.767,20.5,1.767l28.039-49.667Z" transform="translate(-117.687 -54.116)" fill="#e2e2e2"/>
            <path id="Trazado_190125" data-name="Trazado 190125" d="M314.385,169.418c.127-13.15-9.054-18.568-20.505-12.1s-20.837,22.366-20.964,35.515,9.054,18.568,20.505,12.1,20.837-22.366,20.964-35.515" transform="translate(-215.587 -122.115)" fill="#c6c6c6"/>
            <path id="Trazado_190126" data-name="Trazado 190126" d="M335.053,200.951c.094-9.792-6.742-13.827-15.27-9.013s-15.517,16.655-15.611,26.448,6.742,13.827,15.27,9.013,15.517-16.655,15.611-26.447" transform="translate(-240.278 -150.015)" fill="#575959"/>
            <path id="Trazado_190127" data-name="Trazado 190127" d="M251.062,58.961c.22-1.181-.52-1.815-1.653-1.415a4.166,4.166,0,0,0-2.451,2.863c-.22,1.181.52,1.815,1.653,1.415a4.165,4.165,0,0,0,2.451-2.863" transform="translate(-195.052 -45.363)" fill="#ed1c24"/>
            <path id="Trazado_190128" data-name="Trazado 190128" d="M339.208,201.017c.078-8.054-4.535-12.208-10.919-10.752a15.216,15.216,0,0,1,.931,5.7c-.094,9.792-7.084,21.633-15.611,26.447a16.25,16.25,0,0,1-4.351,1.74c2.138,5.461,7.729,7.049,14.338,3.318,8.528-4.815,15.517-16.656,15.612-26.448" transform="translate(-244.296 -150.071)" fill="#7a7a7a"/>
            <path id="Trazado_190129" data-name="Trazado 190129" d="M349.1,238.918a16.713,16.713,0,0,0-7.86,12.9c-.114,4.807,3.225,6.842,7.445,4.538a16.713,16.713,0,0,0,7.861-12.9c.114-4.807-3.225-6.842-7.445-4.538m-.369,15.515c-3.291,1.8-5.9.209-5.806-3.539a13.036,13.036,0,0,1,6.13-10.057c3.291-1.8,5.9-.209,5.807,3.539a13.035,13.035,0,0,1-6.13,10.057" transform="translate(-269.558 -187.982)" fill="#c6c6c6"/>
            <path id="Trazado_190130" data-name="Trazado 190130" d="M344.528,220.414c.18-7.539-5.059-10.732-11.678-7.118s-12.15,12.688-12.329,20.227,5.059,10.732,11.678,7.118,12.15-12.688,12.33-20.227m-12.284,18.309c-5.69,3.107-10.194.362-10.04-6.119s4.909-14.282,10.6-17.389,10.194-.362,10.04,6.119-4.909,14.282-10.6,17.389" transform="translate(-253.189 -167.316)" fill="#c6c6c6"/>
            <path id="Trazado_190131" data-name="Trazado 190131" d="M334.65,201.474c.233-9.785-6.567-13.93-15.158-9.239s-15.77,16.468-16,26.253,6.566,13.93,15.157,9.239,15.77-16.468,16-26.253m-15.957,24.335c-7.662,4.184-13.727.487-13.519-8.24s6.61-19.231,14.273-23.415,13.727-.487,13.519,8.24-6.61,19.231-14.273,23.415" transform="translate(-239.735 -150.329)" fill="#c6c6c6"/>
            <path id="Trazado_190132" data-name="Trazado 190132" d="M365.435,264.669a7.153,7.153,0,0,0-3.368,5.526c-.049,2.063,1.379,2.933,3.19,1.944a7.152,7.152,0,0,0,3.368-5.525c.049-2.063-1.379-2.933-3.19-1.945" transform="translate(-286.012 -208.751)" fill="#5f6060"/>
            <path id="Trazado_190133" data-name="Trazado 190133" d="M328.628,188.434c.109-11.268-7.758-15.912-17.571-10.372S293.2,197.229,293.092,208.5s7.758,15.912,17.571,10.372,17.856-19.166,17.965-30.434m-16.71,13.3a6.575,6.575,0,0,0,.824-.888l7.754,5.806a31.1,31.1,0,0,1-9.243,9.063Zm1.8-2.5c.061-.136.112-.273.164-.411l11.682-3.034a35.34,35.34,0,0,1-4.042,9.289Zm12.725-9.277a23.625,23.625,0,0,1-.408,3.772l-11.74,3.049c0-.026.006-.054.006-.08a3.347,3.347,0,0,0-.16-1.017l9.665-14.413c1.743,1.911,2.728,4.867,2.637,8.689m-4.072-9.916-9.662,14.408a1.966,1.966,0,0,0-.441,0l.691-14.546c3.719-1.58,7.011-1.439,9.413.134m-11.335.827-.692,14.563a6.459,6.459,0,0,0-.712.742l-8.225-6.159a30.434,30.434,0,0,1,9.629-9.147m-10.66,10.717,8.245,6.174c-.088.184-.17.367-.242.555l-12.313,3.2a35.254,35.254,0,0,1,4.31-9.927m-5.093,15.386a23.424,23.424,0,0,1,.352-3.41l12.316-3.2c0,.043-.009.087-.009.129a3.451,3.451,0,0,0,.123.882l-9.812,14.632c-1.95-1.89-3.067-4.975-2.97-9.035m4.473,10.161,9.659-14.4a1.937,1.937,0,0,0,.583.005l-.667,14.033c-3.744,1.746-7.089,1.775-9.575.365" transform="translate(-231.525 -138.812)" fill="#ededed"/>
            <path id="Trazado_190134" data-name="Trazado 190134" d="M291.63,88.84,279.873,75.017,277.3,71.909,276.25,70.86a13.682,13.682,0,0,0-4.089-2.669c-10.458-4.359-22.717,6.624-23.485,7.33l22.673,14.966a24.761,24.761,0,0,1,6.893-3.868c2.8-1.018,6.249-1.708,9.48-.41a11.53,11.53,0,0,1,3.907,2.631" transform="translate(-196.44 -53.062)" fill="#efefef"/>
            <path id="Trazado_190135" data-name="Trazado 190135" d="M225.1,121.887a45.32,45.32,0,0,0-11.375,13.077l-23.6-13.472a58.992,58.992,0,0,1,12.3-14.571L225.1,121.887" transform="translate(-150.195 -84.462)" fill="#e8e8e8"/>
          </g>
        </g>
      </g>
    </g>
    <g id="Grupo_143815" data-name="Grupo 143815" transform="translate(468.293 4604)">
      <g id="Grupo_143814" data-name="Grupo 143814" clip-path="url(#clip-path-13)">
        <g id="Grupo_143813" data-name="Grupo 143813">
          <g id="Grupo_143812" data-name="Grupo 143812" clip-path="url(#clip-path-13)">
            <g id="Grupo_143808" data-name="Grupo 143808" transform="translate(0 43.836)" opacity="0.49" style="mix-blend-mode: multiply;isolation: isolate">
              <g id="Grupo_143807" data-name="Grupo 143807">
                <g id="Grupo_143806" data-name="Grupo 143806" clip-path="url(#clip-path-15)">
                  <path id="Trazado_190136" data-name="Trazado 190136" d="M5.364,264.4l100.42,54c6.978,3.753,18.2,3.413,24.941-.754l51.223-31.676c6.739-4.168,6.543-10.647-.435-14.4l-100.42-54c-6.978-3.753-18.2-3.413-24.941.755L4.93,250c-6.739,4.168-6.543,10.647.435,14.4" transform="translate(0 -214.966)" fill="#b2abb1"/>
                </g>
              </g>
            </g>
            <path id="Trazado_190137" data-name="Trazado 190137" d="M130.715,267.392l51.223-31.676c3.079-1.9,4.693-4.291,4.891-6.679h.006l.913-7.009-2.459,2.334a12.03,12.03,0,0,0-3.787-3.044l-100.42-54c-6.979-3.753-18.2-3.413-24.941.754L4.919,199.75A13.835,13.835,0,0,0,2.6,201.536l-1.294-4.1-1.237,8.59c-.009.061-.019.122-.026.183l-.011.079.008-.007c-.313,2.89,1.461,5.8,5.318,7.871l100.42,54c6.979,3.753,18.2,3.413,24.941-.755" transform="translate(0 -131.124)" fill="#a6afb2"/>
            <path id="Trazado_190138" data-name="Trazado 190138" d="M10.716,174.263l100.42,54c6.978,3.753,18.2,3.413,24.941-.754L187.3,195.83c6.739-4.168,6.543-10.647-.435-14.4l-100.42-54c-6.978-3.753-18.2-3.413-24.941.755L10.281,159.864c-6.739,4.168-6.543,10.647.435,14.4m40.525-25.7-6.433,3.978-5.687-3.058,6.433-3.978Zm87.573,65.151,24.812-15.344,3.172,1.706-24.812,15.343ZM19.772,175.723,89.025,132.9l88.816,47.757-69.554,43.012Z" transform="translate(-4.261 -99.372)" fill="#e1e7ea"/>
            <path id="Trazado_190139" data-name="Trazado 190139" d="M147.12,158.938,235.9,206.72l-71.317,44.1L76.064,202.879Z" transform="translate(-60.553 -126.527)" fill="#4dd0e1"/>
            <g id="Grupo_143811" data-name="Grupo 143811" transform="translate(47.565 78.353)" opacity="0.49" style="mix-blend-mode: multiply;isolation: isolate">
              <g id="Grupo_143810" data-name="Grupo 143810">
                <g id="Grupo_143809" data-name="Grupo 143809" clip-path="url(#clip-path-16)">
                  <path id="Trazado_190140" data-name="Trazado 190140" d="M265.543,384.232l15.155,8.75-31.753,18.333-15.694-8.439Z" transform="translate(-233.251 -384.232)" fill="#b2abb1"/>
                </g>
              </g>
            </g>
            <path id="Trazado_190141" data-name="Trazado 190141" d="M278.322,43.829a99.684,99.684,0,0,0,11.666-10.99A124.1,124.1,0,0,0,311.367,0c6.475,7.09,14.736,8.508,21.379,8.153a41.515,41.515,0,0,0,11.666-2.482c.23,5.18.206,18.9-7.166,37.264A121.533,121.533,0,0,1,311.367,82.5c-4.055.607-17.21,1.911-25.88-9.681-7.371-9.855-7.4-23.544-7.165-28.99" transform="translate(-221.516 -0.001)" fill="#5ba9c1"/>
            <path id="Trazado_190142" data-name="Trazado 190142" d="M479.109,10.14l-5.451-4.469S453.431,14.1,440.614,0c0,0,14.46,20.327,38.5,10.14" transform="translate(-350.763)" fill="#c3ccb0"/>
            <path id="Trazado_190143" data-name="Trazado 190143" d="M317.062,4.47a119.232,119.232,0,0,1-14.8,24.943A119.19,119.19,0,0,1,284.017,48.3l-5.451-4.469a119.2,119.2,0,0,0,18.269-18.92A119.234,119.234,0,0,0,311.611,0,22.922,22.922,0,0,0,314.2,2.477a22.94,22.94,0,0,0,2.86,1.993" transform="translate(-221.76 -0.001)" fill="#889177"/>
            <path id="Trazado_190144" data-name="Trazado 190144" d="M278.07,214.928l5.451,4.469a45.331,45.331,0,0,0,.529,11.535,39.413,39.413,0,0,0,3.2,11.594c.34.7.7,1.35,1.056,1.99,1.079,1.72,9.592,14.254,28.261,13.552a31.156,31.156,0,0,1-31.33-14.15l.03,0c-.414-.547-.833-1.128-1.254-1.777a37.36,37.36,0,0,1-4.551-11.13,51.279,51.279,0,0,1-1.391-16.087" transform="translate(-221.265 -171.1)" fill="#516039"/>
            <path id="Trazado_190145" data-name="Trazado 190145" d="M305.051,65.743a99.678,99.678,0,0,0,11.666-10.989A124.1,124.1,0,0,0,338.1,21.915c6.475,7.09,14.736,8.508,21.379,8.153a41.5,41.5,0,0,0,11.666-2.482c.23,5.181.206,18.9-7.166,37.264A121.533,121.533,0,0,1,338.1,104.414c-4.055.607-17.21,1.911-25.879-9.681-7.371-9.855-7.4-23.544-7.166-28.99" transform="translate(-242.795 -17.446)" fill="#ffca28"/>
            <path id="Trazado_190146" data-name="Trazado 190146" d="M379.869,188.2l19.6,9.063,12.348-18.6-11.932,27.458Z" transform="translate(-302.405 -142.235)" fill="#fff"/>
          </g>
        </g>
      </g>
    </g>
  </g>
</svg>
