<svg xmlns="http://www.w3.org/2000/svg" xmlns:xlink="http://www.w3.org/1999/xlink" width="1242" height="324" viewBox="0 0 1242 324">
  <defs>
    <clipPath id="clip-path">
      <rect id="Rectángulo_43847" data-name="Rectángulo 43847" width="191.141" height="114.836" fill="none"/>
    </clipPath>
    <clipPath id="clip-path-3">
      <rect id="Rectángulo_43862" data-name="Rectángulo 43862" width="179.546" height="87.417" fill="none"/>
    </clipPath>
    <clipPath id="clip-path-6">
      <rect id="Rectángulo_43750" data-name="Rectángulo 43750" width="36.701" height="31" transform="translate(16)" fill="#ffa726"/>
    </clipPath>
  </defs>
  <g id="Grupo_144979" data-name="Grupo 144979" transform="translate(-178 -9081)">
    <g id="Grupo_144944" data-name="Grupo 144944">
      <path id="Trazado_192674" data-name="Trazado 192674" d="M0,0H1242V324H0Z" transform="translate(178 9081)" fill="#f6f6f6"/>
      <g id="Grupo_144907" data-name="Grupo 144907" transform="translate(606.615 9181.04)">
        <g id="Grupo_144898" data-name="Grupo 144898" transform="translate(12)" clip-path="url(#clip-path)">
          <path id="Trazado_192563" data-name="Trazado 192563" d="M49.071,31.684A10.381,10.381,0,1,0,59.451,42.065,10.381,10.381,0,0,0,49.071,31.684" transform="translate(-15.988 -13.093)" fill="#26a69a"/>
          <path id="Trazado_192564" data-name="Trazado 192564" d="M49.071,126.275a10.381,10.381,0,1,0,10.381,10.381,10.381,10.381,0,0,0-10.381-10.381" transform="translate(-15.988 -52.18)" fill="#26a69a"/>
          <path id="Trazado_192565" data-name="Trazado 192565" d="M155.913,52.444a10.381,10.381,0,1,0-10.381-10.381,10.381,10.381,0,0,0,10.381,10.381" transform="translate(-60.138 -13.092)" fill="#26a69a"/>
          <path id="Trazado_192566" data-name="Trazado 192566" d="M103.2,77.9a10.38,10.38,0,1,0,10.381,10.381A10.381,10.381,0,0,0,103.2,77.9" transform="translate(-38.356 -32.189)" fill="#26a69a"/>
          <path id="Trazado_192567" data-name="Trazado 192567" d="M209.346,77.9a10.38,10.38,0,1,0,10.381,10.381A10.381,10.381,0,0,0,209.346,77.9" transform="translate(-82.217 -32.189)" fill="#26a69a"/>
          <path id="Trazado_192568" data-name="Trazado 192568" d="M155.913,126.275a10.381,10.381,0,1,0,10.381,10.381,10.381,10.381,0,0,0-10.381-10.381" transform="translate(-60.138 -52.18)" fill="#26a69a"/>
          <path id="Trazado_192569" data-name="Trazado 192569" d="M262.755,52.444a10.381,10.381,0,1,0-10.381-10.381,10.381,10.381,0,0,0,10.381,10.381" transform="translate(-104.287 -13.092)" fill="#26a69a"/>
          <path id="Trazado_192570" data-name="Trazado 192570" d="M262.755,126.275a10.381,10.381,0,1,0,10.381,10.381,10.381,10.381,0,0,0-10.381-10.381" transform="translate(-104.287 -52.18)" fill="#26a69a"/>
          <path id="Trazado_192571" data-name="Trazado 192571" d="M80.716,115.739a69.877,69.877,0,0,1,4.362-7.168,13.916,13.916,0,0,1-1.994-3.144,62.7,62.7,0,0,0-5.415,8.615c-1,1.8-1.99,3.572-3.028,5.2a13.9,13.9,0,0,1,2.01,3.286c1.465-2.122,2.773-4.469,4.066-6.792" transform="translate(-30.844 -43.565)" fill="#1a323d"/>
          <path id="Trazado_192572" data-name="Trazado 192572" d="M82.931,75.089A13.843,13.843,0,0,1,84.888,71.7c-.965-1.543-1.889-3.2-2.826-4.885a65.086,65.086,0,0,0-5.218-8.364,13.873,13.873,0,0,1-1.927,3.262,75.073,75.073,0,0,1,4.1,6.8c1.249,2.244,2.513,4.511,3.917,6.575" transform="translate(-30.958 -24.154)" fill="#1a323d"/>
          <path id="Trazado_192573" data-name="Trazado 192573" d="M189.1,75.54a13.865,13.865,0,0,1,1.93-3.419c-.988-1.571-1.932-3.265-2.889-4.985a69.775,69.775,0,0,0-4.869-7.911,13.892,13.892,0,0,1-2.021,3.172c1.344,1.95,2.582,4.171,3.842,6.436,1.276,2.292,2.566,4.608,4.007,6.707" transform="translate(-74.899 -24.473)" fill="#1a323d"/>
          <path id="Trazado_192574" data-name="Trazado 192574" d="M137.066,60.373a77.5,77.5,0,0,0-4.377,7.238c-1.016,1.825-2.018,3.622-3.072,5.273a13.828,13.828,0,0,1,1.854,3.5,79.592,79.592,0,0,0,4.266-7.078c1.149-2.064,2.278-4.092,3.487-5.911a13.952,13.952,0,0,1-2.158-3.023" transform="translate(-53.561 -24.948)" fill="#1a323d"/>
          <path id="Trazado_192575" data-name="Trazado 192575" d="M238.637,67.3c-.995,1.787-1.975,3.546-3,5.167a13.87,13.87,0,0,1,1.882,3.471c1.507-2.161,2.846-4.564,4.17-6.942,1.223-2.2,2.425-4.352,3.723-6.26a13.919,13.919,0,0,1-2.07-3.119,72.2,72.2,0,0,0-4.7,7.682" transform="translate(-97.369 -24.634)" fill="#1a323d"/>
          <path id="Trazado_192576" data-name="Trazado 192576" d="M307.279,80.479a1.73,1.73,0,0,0-.422-.058l-.108,0c-5.888-.781-9.192-6.712-12.675-12.968A74.843,74.843,0,0,0,289.537,60a13.931,13.931,0,0,1-2.111,3.074c1.252,1.863,2.415,3.952,3.6,6.08,2.736,4.915,5.537,9.94,9.759,12.7-4.923,2.53-7.994,8.039-10.988,13.416-.855,1.536-1.7,3.051-2.574,4.475a13.945,13.945,0,0,1,2.2,3.057c1.211-1.86,2.324-3.856,3.426-5.835,3.678-6.606,7.157-12.848,13.69-13.048a14.433,14.433,0,0,0,1.55.083,1.744,1.744,0,0,0,0-3.488c-.275,0-.542-.014-.806-.035" transform="translate(-118.688 -24.794)" fill="#1a323d"/>
          <path id="Trazado_192577" data-name="Trazado 192577" d="M236.2,116.867a65.8,65.8,0,0,0,5.157,8.285,13.8,13.8,0,0,1,1.694-3.6c-1.33-1.937-2.555-4.136-3.8-6.378a80.432,80.432,0,0,0-4.22-7.013,13.948,13.948,0,0,1-2.319,2.792c1.211,1.821,2.341,3.852,3.491,5.917" transform="translate(-96.16 -44.694)" fill="#1a323d"/>
          <path id="Trazado_192578" data-name="Trazado 192578" d="M135.027,124.573a13.827,13.827,0,0,1,1.806-3.5c-1.225-1.837-2.368-3.888-3.53-5.976a79.081,79.081,0,0,0-4.293-7.118,13.965,13.965,0,0,1-2.3,2.815c1.231,1.842,2.378,3.9,3.545,6a71.114,71.114,0,0,0,4.772,7.78" transform="translate(-52.359 -44.619)" fill="#1a323d"/>
          <path id="Trazado_192579" data-name="Trazado 192579" d="M186.782,115.659a68.715,68.715,0,0,1,4.428-7.257,13.932,13.932,0,0,1-1.969-3.167,61.666,61.666,0,0,0-5.507,8.728c-.927,1.665-1.841,3.306-2.794,4.834a13.914,13.914,0,0,1,2.107,3.167c1.332-1.992,2.54-4.158,3.735-6.3" transform="translate(-74.769 -43.486)" fill="#1a323d"/>
          <path id="Trazado_192580" data-name="Trazado 192580" d="M215.563,161.827c-3.738,6.715-7.269,13.057-14.011,13.057s-10.273-6.342-14.011-13.057a72.862,72.862,0,0,0-4.658-7.623,13.925,13.925,0,0,1-2.1,3.079c1.293,1.9,2.49,4.051,3.709,6.241,4.064,7.3,8.266,14.849,17.059,14.849s12.995-7.549,17.059-14.849c1.294-2.325,2.565-4.606,3.951-6.594a13.905,13.905,0,0,1-2.008-3.173,68.058,68.058,0,0,0-4.991,8.07" transform="translate(-74.705 -63.536)" fill="#1a323d"/>
          <path id="Trazado_192581" data-name="Trazado 192581" d="M109.489,161.826c-3.738,6.714-7.269,13.057-14.012,13.057S85.2,168.541,81.465,161.826a68.043,68.043,0,0,0-4.993-8.072,13.9,13.9,0,0,1-2.007,3.173c1.387,1.989,2.658,4.269,3.953,6.6,4.064,7.3,8.267,14.848,17.06,14.848s13-7.549,17.059-14.849c1.218-2.188,2.415-4.335,3.708-6.238a13.894,13.894,0,0,1-2.1-3.078,73,73,0,0,0-4.655,7.619" transform="translate(-30.771 -63.535)" fill="#1a323d"/>
          <path id="Trazado_192582" data-name="Trazado 192582" d="M293.4,16.546c3.738-6.715,7.27-13.057,14.012-13.057a1.744,1.744,0,0,0,0-3.488c-8.793,0-13,7.549-17.06,14.849-.922,1.656-1.833,3.291-2.781,4.812a13.934,13.934,0,0,1,2.138,3.124c1.315-1.973,2.51-4.116,3.691-6.239" transform="translate(-118.83 0)" fill="#1a323d"/>
          <path id="Trazado_192583" data-name="Trazado 192583" d="M307.614,175.513c-6.742,0-10.273-6.342-14.011-13.057a78.185,78.185,0,0,0-4.336-7.178,13.931,13.931,0,0,1-2.192,2.976c1.206,1.817,2.333,3.84,3.48,5.9,4.064,7.3,8.266,14.849,17.059,14.849a1.744,1.744,0,0,0,0-3.488" transform="translate(-118.627 -64.165)" fill="#1a323d"/>
          <path id="Trazado_192584" data-name="Trazado 192584" d="M17.151,162.456c-3.738,6.715-7.27,13.058-14.012,13.058a1.744,1.744,0,0,0,0,3.488c8.793,0,13-7.549,17.06-14.849,1.146-2.058,2.273-4.082,3.479-5.9a13.935,13.935,0,0,1-2.192-2.975,78.314,78.314,0,0,0-4.335,7.176" transform="translate(-0.576 -64.166)" fill="#1a323d"/>
          <path id="Trazado_192585" data-name="Trazado 192585" d="M2.55,84.407a1.73,1.73,0,0,0,.422.058l.108,0c5.888.781,9.192,6.712,12.675,12.968a76.946,76.946,0,0,0,4.406,7.277,13.848,13.848,0,0,1,1.912-3.394c-1.128-1.733-2.19-3.64-3.27-5.58-2.736-4.915-5.537-9.94-9.759-12.7,4.923-2.53,7.994-8.039,10.988-13.416,1.078-1.936,2.139-3.84,3.264-5.571a13.973,13.973,0,0,1-2.241-2.926c-1.467,2.124-2.776,4.474-4.071,6.8-3.678,6.606-7.157,12.848-13.69,13.048a14.433,14.433,0,0,0-1.55-.083,1.744,1.744,0,0,0,0,3.488c.275,0,.542.014.806.035" transform="translate(0 -25.256)" fill="#1a323d"/>
          <path id="Trazado_192586" data-name="Trazado 192586" d="M187.326,16.545c3.738-6.714,7.269-13.057,14.012-13.057s10.274,6.342,14.012,13.057a69.361,69.361,0,0,0,4.9,7.948,13.831,13.831,0,0,1,1.792-3.5c-1.267-1.879-2.445-3.99-3.642-6.142C214.334,7.549,210.131,0,201.338,0s-13,7.549-17.059,14.849c-1,1.791-1.98,3.554-3.012,5.178a13.885,13.885,0,0,1,2.047,3.235c1.444-2.1,2.736-4.422,4.014-6.717" transform="translate(-74.904)" fill="#1a323d"/>
          <path id="Trazado_192587" data-name="Trazado 192587" d="M81.254,16.546C84.992,9.831,88.523,3.488,95.265,3.488s10.273,6.342,14.012,13.057a74.691,74.691,0,0,0,4.53,7.449,13.843,13.843,0,0,1,1.9-3.4c-1.168-1.777-2.264-3.744-3.379-5.746C108.26,7.549,104.057,0,95.265,0S82.27,7.549,78.206,14.849c-1.075,1.931-2.134,3.83-3.255,5.558A13.9,13.9,0,0,1,76.9,23.75a77.948,77.948,0,0,0,4.354-7.2" transform="translate(-30.972)" fill="#1a323d"/>
          <path id="Trazado_192588" data-name="Trazado 192588" d="M2.442,3.488c6.742,0,10.273,6.342,14.011,13.057,1.326,2.382,2.668,4.789,4.178,6.953a13.9,13.9,0,0,1,2-3.287c-1.075-1.675-2.094-3.5-3.129-5.362C15.437,7.549,11.235,0,2.442,0a1.744,1.744,0,0,0,0,3.488" transform="translate(-0.288)" fill="#1a323d"/>
        </g>
        <g id="Grupo_144906" data-name="Grupo 144906" transform="translate(12)" clip-path="url(#clip-path)">
          <path id="Trazado_192595" data-name="Trazado 192595" d="M49.071,31.684A10.381,10.381,0,1,0,59.451,42.065,10.381,10.381,0,0,0,49.071,31.684" transform="translate(-15.988 -13.093)" fill="#1565c0"/>
          <path id="Trazado_192596" data-name="Trazado 192596" d="M49.071,126.275a10.381,10.381,0,1,0,10.381,10.381,10.381,10.381,0,0,0-10.381-10.381" transform="translate(-15.988 -52.18)" fill="#1565c0"/>
          <path id="Trazado_192597" data-name="Trazado 192597" d="M155.913,52.444a10.381,10.381,0,1,0-10.381-10.381,10.381,10.381,0,0,0,10.381,10.381" transform="translate(-60.138 -13.092)" fill="#1565c0"/>
          <path id="Trazado_192598" data-name="Trazado 192598" d="M103.2,77.9a10.38,10.38,0,1,0,10.381,10.381A10.381,10.381,0,0,0,103.2,77.9" transform="translate(-38.356 -32.189)" fill="#1565c0"/>
          <path id="Trazado_192599" data-name="Trazado 192599" d="M209.346,77.9a10.38,10.38,0,1,0,10.381,10.381A10.381,10.381,0,0,0,209.346,77.9" transform="translate(-82.217 -32.189)" fill="#1565c0"/>
          <path id="Trazado_192600" data-name="Trazado 192600" d="M155.913,126.275a10.381,10.381,0,1,0,10.381,10.381,10.381,10.381,0,0,0-10.381-10.381" transform="translate(-60.138 -52.18)" fill="#1565c0"/>
          <path id="Trazado_192601" data-name="Trazado 192601" d="M262.755,52.444a10.381,10.381,0,1,0-10.381-10.381,10.381,10.381,0,0,0,10.381,10.381" transform="translate(-104.287 -13.092)" fill="#1565c0"/>
          <path id="Trazado_192602" data-name="Trazado 192602" d="M262.755,126.275a10.381,10.381,0,1,0,10.381,10.381,10.381,10.381,0,0,0-10.381-10.381" transform="translate(-104.287 -52.18)" fill="#1565c0"/>
          <path id="Trazado_192603" data-name="Trazado 192603" d="M80.716,115.739a69.877,69.877,0,0,1,4.362-7.168,13.916,13.916,0,0,1-1.994-3.144,62.7,62.7,0,0,0-5.415,8.615c-1,1.8-1.99,3.572-3.028,5.2a13.9,13.9,0,0,1,2.01,3.286c1.465-2.122,2.773-4.469,4.066-6.792" transform="translate(-30.844 -43.565)" fill="#1a323d"/>
          <path id="Trazado_192604" data-name="Trazado 192604" d="M82.931,75.089A13.843,13.843,0,0,1,84.888,71.7c-.965-1.543-1.889-3.2-2.826-4.885a65.086,65.086,0,0,0-5.218-8.364,13.873,13.873,0,0,1-1.927,3.262,75.073,75.073,0,0,1,4.1,6.8c1.249,2.244,2.513,4.511,3.917,6.575" transform="translate(-30.958 -24.154)" fill="#1a323d"/>
          <path id="Trazado_192605" data-name="Trazado 192605" d="M189.1,75.54a13.865,13.865,0,0,1,1.93-3.419c-.988-1.571-1.932-3.265-2.889-4.985a69.775,69.775,0,0,0-4.869-7.911,13.892,13.892,0,0,1-2.021,3.172c1.344,1.95,2.582,4.171,3.842,6.436,1.276,2.292,2.566,4.608,4.007,6.707" transform="translate(-74.899 -24.473)" fill="#1a323d"/>
          <path id="Trazado_192606" data-name="Trazado 192606" d="M137.066,60.373a77.5,77.5,0,0,0-4.377,7.238c-1.016,1.825-2.018,3.622-3.072,5.273a13.828,13.828,0,0,1,1.854,3.5,79.592,79.592,0,0,0,4.266-7.078c1.149-2.064,2.278-4.092,3.487-5.911a13.952,13.952,0,0,1-2.158-3.023" transform="translate(-53.561 -24.948)" fill="#1a323d"/>
          <path id="Trazado_192607" data-name="Trazado 192607" d="M238.637,67.3c-.995,1.787-1.975,3.546-3,5.167a13.87,13.87,0,0,1,1.882,3.471c1.507-2.161,2.846-4.564,4.17-6.942,1.223-2.2,2.425-4.352,3.723-6.26a13.919,13.919,0,0,1-2.07-3.119,72.2,72.2,0,0,0-4.7,7.682" transform="translate(-97.369 -24.634)" fill="#1a323d"/>
          <path id="Trazado_192608" data-name="Trazado 192608" d="M307.279,80.479a1.73,1.73,0,0,0-.422-.058l-.108,0c-5.888-.781-9.192-6.712-12.675-12.968A74.843,74.843,0,0,0,289.537,60a13.931,13.931,0,0,1-2.111,3.074c1.252,1.863,2.415,3.952,3.6,6.08,2.736,4.915,5.537,9.94,9.759,12.7-4.923,2.53-7.994,8.039-10.988,13.416-.855,1.536-1.7,3.051-2.574,4.475a13.945,13.945,0,0,1,2.2,3.057c1.211-1.86,2.324-3.856,3.426-5.835,3.678-6.606,7.157-12.848,13.69-13.048a14.433,14.433,0,0,0,1.55.083,1.744,1.744,0,0,0,0-3.488c-.275,0-.542-.014-.806-.035" transform="translate(-118.688 -24.794)" fill="#1a323d"/>
          <path id="Trazado_192609" data-name="Trazado 192609" d="M236.2,116.867a65.8,65.8,0,0,0,5.157,8.285,13.8,13.8,0,0,1,1.694-3.6c-1.33-1.937-2.555-4.136-3.8-6.378a80.432,80.432,0,0,0-4.22-7.013,13.948,13.948,0,0,1-2.319,2.792c1.211,1.821,2.341,3.852,3.491,5.917" transform="translate(-96.16 -44.694)" fill="#1a323d"/>
          <path id="Trazado_192610" data-name="Trazado 192610" d="M135.027,124.573a13.827,13.827,0,0,1,1.806-3.5c-1.225-1.837-2.368-3.888-3.53-5.976a79.081,79.081,0,0,0-4.293-7.118,13.965,13.965,0,0,1-2.3,2.815c1.231,1.842,2.378,3.9,3.545,6a71.114,71.114,0,0,0,4.772,7.78" transform="translate(-52.359 -44.619)" fill="#1a323d"/>
          <path id="Trazado_192611" data-name="Trazado 192611" d="M186.782,115.659a68.715,68.715,0,0,1,4.428-7.257,13.932,13.932,0,0,1-1.969-3.167,61.666,61.666,0,0,0-5.507,8.728c-.927,1.665-1.841,3.306-2.794,4.834a13.914,13.914,0,0,1,2.107,3.167c1.332-1.992,2.54-4.158,3.735-6.3" transform="translate(-74.769 -43.486)" fill="#1a323d"/>
          <path id="Trazado_192612" data-name="Trazado 192612" d="M215.563,161.827c-3.738,6.715-7.269,13.057-14.011,13.057s-10.273-6.342-14.011-13.057a72.862,72.862,0,0,0-4.658-7.623,13.925,13.925,0,0,1-2.1,3.079c1.293,1.9,2.49,4.051,3.709,6.241,4.064,7.3,8.266,14.849,17.059,14.849s12.995-7.549,17.059-14.849c1.294-2.325,2.565-4.606,3.951-6.594a13.905,13.905,0,0,1-2.008-3.173,68.058,68.058,0,0,0-4.991,8.07" transform="translate(-74.705 -63.536)" fill="#1a323d"/>
          <path id="Trazado_192613" data-name="Trazado 192613" d="M109.489,161.826c-3.738,6.714-7.269,13.057-14.012,13.057S85.2,168.541,81.465,161.826a68.043,68.043,0,0,0-4.993-8.072,13.9,13.9,0,0,1-2.007,3.173c1.387,1.989,2.658,4.269,3.953,6.6,4.064,7.3,8.267,14.848,17.06,14.848s13-7.549,17.059-14.849c1.218-2.188,2.415-4.335,3.708-6.238a13.894,13.894,0,0,1-2.1-3.078,73,73,0,0,0-4.655,7.619" transform="translate(-30.771 -63.535)" fill="#1a323d"/>
          <path id="Trazado_192614" data-name="Trazado 192614" d="M293.4,16.546c3.738-6.715,7.27-13.057,14.012-13.057a1.744,1.744,0,0,0,0-3.488c-8.793,0-13,7.549-17.06,14.849-.922,1.656-1.833,3.291-2.781,4.812a13.934,13.934,0,0,1,2.138,3.124c1.315-1.973,2.51-4.116,3.691-6.239" transform="translate(-118.83 0)" fill="#1a323d"/>
          <path id="Trazado_192615" data-name="Trazado 192615" d="M307.614,175.513c-6.742,0-10.273-6.342-14.011-13.057a78.185,78.185,0,0,0-4.336-7.178,13.931,13.931,0,0,1-2.192,2.976c1.206,1.817,2.333,3.84,3.48,5.9,4.064,7.3,8.266,14.849,17.059,14.849a1.744,1.744,0,0,0,0-3.488" transform="translate(-118.627 -64.165)" fill="#1a323d"/>
          <path id="Trazado_192616" data-name="Trazado 192616" d="M17.151,162.456c-3.738,6.715-7.27,13.058-14.012,13.058a1.744,1.744,0,0,0,0,3.488c8.793,0,13-7.549,17.06-14.849,1.146-2.058,2.273-4.082,3.479-5.9a13.935,13.935,0,0,1-2.192-2.975,78.314,78.314,0,0,0-4.335,7.176" transform="translate(-0.576 -64.166)" fill="#1a323d"/>
          <path id="Trazado_192617" data-name="Trazado 192617" d="M2.55,84.407a1.73,1.73,0,0,0,.422.058l.108,0c5.888.781,9.192,6.712,12.675,12.968a76.946,76.946,0,0,0,4.406,7.277,13.848,13.848,0,0,1,1.912-3.394c-1.128-1.733-2.19-3.64-3.27-5.58-2.736-4.915-5.537-9.94-9.759-12.7,4.923-2.53,7.994-8.039,10.988-13.416,1.078-1.936,2.139-3.84,3.264-5.571a13.973,13.973,0,0,1-2.241-2.926c-1.467,2.124-2.776,4.474-4.071,6.8-3.678,6.606-7.157,12.848-13.69,13.048a14.433,14.433,0,0,0-1.55-.083,1.744,1.744,0,0,0,0,3.488c.275,0,.542.014.806.035" transform="translate(0 -25.256)" fill="#1a323d"/>
          <path id="Trazado_192618" data-name="Trazado 192618" d="M187.326,16.545c3.738-6.714,7.269-13.057,14.012-13.057s10.274,6.342,14.012,13.057a69.361,69.361,0,0,0,4.9,7.948,13.831,13.831,0,0,1,1.792-3.5c-1.267-1.879-2.445-3.99-3.642-6.142C214.334,7.549,210.131,0,201.338,0s-13,7.549-17.059,14.849c-1,1.791-1.98,3.554-3.012,5.178a13.885,13.885,0,0,1,2.047,3.235c1.444-2.1,2.736-4.422,4.014-6.717" transform="translate(-74.904)" fill="#1a323d"/>
          <path id="Trazado_192619" data-name="Trazado 192619" d="M81.254,16.546C84.992,9.831,88.523,3.488,95.265,3.488s10.273,6.342,14.012,13.057a74.691,74.691,0,0,0,4.53,7.449,13.843,13.843,0,0,1,1.9-3.4c-1.168-1.777-2.264-3.744-3.379-5.746C108.26,7.549,104.057,0,95.265,0S82.27,7.549,78.206,14.849c-1.075,1.931-2.134,3.83-3.255,5.558A13.9,13.9,0,0,1,76.9,23.75a77.948,77.948,0,0,0,4.354-7.2" transform="translate(-30.972)" fill="#1a323d"/>
          <path id="Trazado_192620" data-name="Trazado 192620" d="M2.442,3.488c6.742,0,10.273,6.342,14.011,13.057,1.326,2.382,2.668,4.789,4.178,6.953a13.9,13.9,0,0,1,2-3.287c-1.075-1.675-2.094-3.5-3.129-5.362C15.437,7.549,11.235,0,2.442,0a1.744,1.744,0,0,0,0,3.488" transform="translate(-0.288)" fill="#1a323d"/>
        </g>
      </g>
      <g id="Grupo_144910" data-name="Grupo 144910" transform="translate(239 9202.281)">
        <g id="Grupo_144904" data-name="Grupo 144904" transform="translate(0 0)" clip-path="url(#clip-path-3)">
          <path id="Trazado_192593" data-name="Trazado 192593" d="M28.524,70.794a8.872,8.872,0,1,0,8.87-8.874,8.886,8.886,0,0,0-8.87,8.874m110.7,8.874a8.874,8.874,0,1,0-8.874-8.874,8.886,8.886,0,0,0,8.874,8.874m-83.47-35.5H161.691l6.773,7.3a1.052,1.052,0,0,0,.763.33h8.264l.928,6.728h-3.73a1.3,1.3,0,0,0-1.3,1.3v2.106a1.3,1.3,0,0,0,1.3,1.3h4.385l.386,2.781a3.956,3.956,0,0,1-3.866,4.775H155.843a16.621,16.621,0,1,1-33.242,0H54.017a16.623,16.623,0,1,1-33.246,0H4.18c-3.171,0-4.566-2.821-4.088-5.956l.977-6.431A5.192,5.192,0,0,1,4.3,54.364l.153-.056c.116-.049.225-.1.325-.153H40.863Z" transform="translate(-0.001 0)" fill="#15224b"/>
          <path id="Trazado_192594" data-name="Trazado 192594" d="M73.718,30.561V7.74H35.629a1.336,1.336,0,0,0-1.19.749l-7.19,22.072ZM36.054,46.711a4.5,4.5,0,1,0-4.5-4.5,4.5,4.5,0,0,0,4.5,4.5m45.413-16.15h46.47L107.23,8.006a1.3,1.3,0,0,0-.783-.266H81.467ZM7.072,50.995l.623-2.058,4.011.965a2.592,2.592,0,0,0,3.131-1.921l1.736-7.226a2.592,2.592,0,0,0-1.921-3.128l-3.271-.787.868-2.846A5.181,5.181,0,0,1,15.022,30.8l.832-.386c1.086-.5,3.513-1.358,4.032-2.436l7.58-22.869A9.068,9.068,0,0,1,35.629,0h70.818a9.069,9.069,0,0,1,5.4,1.776l27.878,27.87,30.694,8.7a3.959,3.959,0,0,1,2.548,2.034s.824,1.72,1.8,3.77l-11.576-1.721a1.044,1.044,0,0,0-.916,1.744H56.34L41.448,54.154H5.364c1.162-.627,1.282-1.768,1.708-3.159" transform="translate(-0.587 0)" fill="#d21053"/>
        </g>
      </g>
      <path id="Trazado_192682" data-name="Trazado 192682" d="M9.893-6.025H4.5v3.389h6.367V0H1.074V-14.219h9.814v2.646H4.5v3H9.893Zm7.676-3.467,2.324-4.727h3.916L19.834-7.168,23.916,0H19.961L17.568-4.814,15.176,0H11.23L15.3-7.168l-3.965-7.051h3.906Zm18.623-2.08H31.924V0H28.5V-11.572H24.307v-2.646H36.191ZM42.92-5.02H41.064V0H37.637V-14.219h5.6A6.241,6.241,0,0,1,47.188-13.1a3.807,3.807,0,0,1,1.426,3.174,4.625,4.625,0,0,1-.6,2.461,4.264,4.264,0,0,1-1.88,1.582L49.1-.146V0H45.43ZM41.064-7.666h2.168a1.949,1.949,0,0,0,1.47-.513A1.979,1.979,0,0,0,45.2-9.609a2,2,0,0,0-.5-1.44,1.931,1.931,0,0,0-1.465-.522H41.064Zm17.7,5.01h-4.7L53.242,0H49.58l5.215-14.219h3.223L63.271,0H59.59ZM54.883-5.3h3.057l-1.533-4.932Zm20.723.488a5.193,5.193,0,0,1-.8,2.622A4.833,4.833,0,0,1,72.749-.43,7,7,0,0,1,69.727.2a5.584,5.584,0,0,1-4.414-1.826A7.54,7.54,0,0,1,63.7-6.787v-.7a8.607,8.607,0,0,1,.728-3.657,5.513,5.513,0,0,1,2.095-2.422,5.844,5.844,0,0,1,3.164-.854,6.129,6.129,0,0,1,4.16,1.362,5.383,5.383,0,0,1,1.787,3.755H72.217a2.547,2.547,0,0,0-.654-1.865,2.691,2.691,0,0,0-1.875-.566,2.048,2.048,0,0,0-1.875.957,6.151,6.151,0,0,0-.625,3.057v1.006a6.806,6.806,0,0,0,.571,3.252,2.091,2.091,0,0,0,1.968.977,2.632,2.632,0,0,0,1.807-.557A2.363,2.363,0,0,0,72.2-4.814Zm13.125,0a5.193,5.193,0,0,1-.8,2.622A4.833,4.833,0,0,1,85.874-.43,7,7,0,0,1,82.852.2a5.584,5.584,0,0,1-4.414-1.826,7.54,7.54,0,0,1-1.611-5.156v-.7a8.607,8.607,0,0,1,.728-3.657,5.513,5.513,0,0,1,2.095-2.422,5.844,5.844,0,0,1,3.164-.854,6.129,6.129,0,0,1,4.16,1.362A5.383,5.383,0,0,1,88.76-9.307H85.342a2.547,2.547,0,0,0-.654-1.865,2.691,2.691,0,0,0-1.875-.566,2.048,2.048,0,0,0-1.875.957,6.151,6.151,0,0,0-.625,3.057v1.006a6.806,6.806,0,0,0,.571,3.252,2.091,2.091,0,0,0,1.968.977,2.632,2.632,0,0,0,1.807-.557,2.363,2.363,0,0,0,.664-1.768ZM94,0H90.586V-14.219H94Zm14.424-6.816a8.385,8.385,0,0,1-.771,3.682,5.7,5.7,0,0,1-2.192,2.466A6.1,6.1,0,0,1,102.227.2,6.191,6.191,0,0,1,99-.64a5.692,5.692,0,0,1-2.192-2.388,8.144,8.144,0,0,1-.825-3.564v-.8a8.422,8.422,0,0,1,.767-3.687,5.688,5.688,0,0,1,2.2-2.466,6.147,6.147,0,0,1,3.257-.869,6.087,6.087,0,0,1,3.223.859,5.79,5.79,0,0,1,2.2,2.446,8.18,8.18,0,0,1,.8,3.638Zm-3.486-.6a5.979,5.979,0,0,0-.708-3.218,2.271,2.271,0,0,0-2.026-1.1q-2.578,0-2.725,3.867l-.01,1.045a6.149,6.149,0,0,0,.693,3.213,2.268,2.268,0,0,0,2.061,1.123,2.24,2.24,0,0,0,2-1.1,5.982,5.982,0,0,0,.713-3.174Zm-2.334-10.615h3.477l-2.715,3.066h-2.686ZM122.07,0h-3.408l-5.039-8.848V0H110.2V-14.219h3.428l5.029,8.848v-8.848h3.418Zm7.148,0V-14.219h4.58a6.737,6.737,0,0,1,3.389.854,6.006,6.006,0,0,1,2.349,2.412,7.283,7.283,0,0,1,.854,3.491v.654a7.325,7.325,0,0,1-.825,3.5,6.032,6.032,0,0,1-2.324,2.422A6.589,6.589,0,0,1,133.9,0Zm3.428-11.572v8.936h1.191a2.666,2.666,0,0,0,2.266-1.05,5.145,5.145,0,0,0,.791-3.12v-.615a5.1,5.1,0,0,0-.791-3.105,2.713,2.713,0,0,0-2.3-1.045Zm18.32,5.547h-5.391v3.389h6.367V0h-9.795V-14.219h9.814v2.646h-6.387v3h5.391Zm18.857,1.211a5.193,5.193,0,0,1-.8,2.622A4.833,4.833,0,0,1,166.968-.43,7,7,0,0,1,163.945.2a5.584,5.584,0,0,1-4.414-1.826,7.54,7.54,0,0,1-1.611-5.156v-.7a8.607,8.607,0,0,1,.728-3.657,5.513,5.513,0,0,1,2.095-2.422,5.844,5.844,0,0,1,3.164-.854,6.129,6.129,0,0,1,4.16,1.362,5.383,5.383,0,0,1,1.787,3.755h-3.418a2.547,2.547,0,0,0-.654-1.865,2.691,2.691,0,0,0-1.875-.566,2.048,2.048,0,0,0-1.875.957,6.151,6.151,0,0,0-.625,3.057v1.006a6.806,6.806,0,0,0,.571,3.252,2.091,2.091,0,0,0,1.968.977,2.632,2.632,0,0,0,1.807-.557,2.363,2.363,0,0,0,.664-1.768Zm9.7,2.158h-4.7L174,0h-3.662l5.215-14.219h3.223L184.033,0h-3.682ZM175.645-5.3H178.7l-1.533-4.932Zm14.707.283H188.5V0h-3.428V-14.219h5.6a6.241,6.241,0,0,1,3.955,1.123,3.807,3.807,0,0,1,1.426,3.174,4.625,4.625,0,0,1-.6,2.461,4.264,4.264,0,0,1-1.88,1.582l2.969,5.732V0h-3.672ZM188.5-7.666h2.168a1.949,1.949,0,0,0,1.47-.513,1.979,1.979,0,0,0,.493-1.431,2,2,0,0,0-.5-1.44,1.931,1.931,0,0,0-1.465-.522H188.5Zm17.7,5.01h-4.7L200.674,0h-3.662l5.215-14.219h3.223L210.7,0h-3.682ZM202.314-5.3h3.057l-1.533-4.932Zm20.723.488a5.193,5.193,0,0,1-.8,2.622A4.833,4.833,0,0,1,220.181-.43,7,7,0,0,1,217.158.2a5.584,5.584,0,0,1-4.414-1.826,7.54,7.54,0,0,1-1.611-5.156v-.7a8.607,8.607,0,0,1,.728-3.657,5.513,5.513,0,0,1,2.095-2.422,5.844,5.844,0,0,1,3.164-.854,6.129,6.129,0,0,1,4.16,1.362,5.383,5.383,0,0,1,1.787,3.755h-3.418a2.547,2.547,0,0,0-.654-1.865,2.691,2.691,0,0,0-1.875-.566,2.048,2.048,0,0,0-1.875.957,6.151,6.151,0,0,0-.625,3.057v1.006a6.806,6.806,0,0,0,.571,3.252,2.091,2.091,0,0,0,1.968.977,2.632,2.632,0,0,0,1.807-.557,2.363,2.363,0,0,0,.664-1.768Zm12.5-6.758H231.27V0h-3.428V-11.572h-4.189v-2.646h11.885ZM245.8-6.025H240.41v3.389h6.367V0h-9.795V-14.219H246.8v2.646H240.41v3H245.8Zm7.656,1.006H251.6V0h-3.428V-14.219h5.6a6.241,6.241,0,0,1,3.955,1.123,3.807,3.807,0,0,1,1.426,3.174,4.625,4.625,0,0,1-.6,2.461,4.264,4.264,0,0,1-1.88,1.582l2.969,5.732V0h-3.672ZM251.6-7.666h2.168a1.949,1.949,0,0,0,1.47-.513,1.979,1.979,0,0,0,.493-1.431,2,2,0,0,0-.5-1.44,1.931,1.931,0,0,0-1.465-.522H251.6ZM264.873,0h-3.418V-14.219h3.418Zm-1.3-18.027h3.477l-2.715,3.066H261.65ZM274.59-3.779a1.408,1.408,0,0,0-.532-1.172,6.615,6.615,0,0,0-1.87-.869A17.941,17.941,0,0,1,270-6.689q-2.764-1.357-2.764-3.73a3.345,3.345,0,0,1,.688-2.085,4.453,4.453,0,0,1,1.948-1.406,7.582,7.582,0,0,1,2.832-.5,6.632,6.632,0,0,1,2.749.547,4.352,4.352,0,0,1,1.89,1.558,4.068,4.068,0,0,1,.674,2.31H274.6a1.719,1.719,0,0,0-.532-1.348,2.075,2.075,0,0,0-1.44-.479,2.34,2.34,0,0,0-1.45.405,1.243,1.243,0,0,0-.532,1.03,1.252,1.252,0,0,0,.586.991,7.389,7.389,0,0,0,2.061.918,12.623,12.623,0,0,1,2.422,1.021,4.07,4.07,0,0,1,2.3,3.662,3.472,3.472,0,0,1-1.406,2.93A6.255,6.255,0,0,1,272.754.2a7.653,7.653,0,0,1-3.13-.62,4.719,4.719,0,0,1-2.109-1.7,4.427,4.427,0,0,1-.708-2.485h3.438a2.181,2.181,0,0,0,.591,1.685,2.793,2.793,0,0,0,1.919.542,2.206,2.206,0,0,0,1.343-.366A1.209,1.209,0,0,0,274.59-3.779Zm16.348-7.793H286.67V0h-3.428V-11.572h-4.189v-2.646h11.885ZM296.035,0h-3.418V-14.219h3.418Zm13.887-4.814a5.193,5.193,0,0,1-.8,2.622A4.833,4.833,0,0,1,307.065-.43,7,7,0,0,1,304.043.2a5.584,5.584,0,0,1-4.414-1.826,7.54,7.54,0,0,1-1.611-5.156v-.7a8.607,8.607,0,0,1,.728-3.657,5.512,5.512,0,0,1,2.095-2.422A5.844,5.844,0,0,1,304-14.424a6.129,6.129,0,0,1,4.16,1.362,5.383,5.383,0,0,1,1.787,3.755h-3.418a2.547,2.547,0,0,0-.654-1.865A2.691,2.691,0,0,0,304-11.738a2.047,2.047,0,0,0-1.875.957,6.151,6.151,0,0,0-.625,3.057v1.006a6.806,6.806,0,0,0,.571,3.252,2.091,2.091,0,0,0,1.968.977,2.632,2.632,0,0,0,1.807-.557,2.363,2.363,0,0,0,.664-1.768Zm9.7,2.158h-4.7L314.1,0h-3.662l5.215-14.219h3.223L324.131,0h-3.682ZM315.742-5.3H318.8l-1.533-4.932ZM332.5-3.779a1.408,1.408,0,0,0-.532-1.172,6.615,6.615,0,0,0-1.87-.869,17.941,17.941,0,0,1-2.187-.869q-2.764-1.357-2.764-3.73a3.345,3.345,0,0,1,.688-2.085,4.453,4.453,0,0,1,1.948-1.406,7.582,7.582,0,0,1,2.832-.5,6.632,6.632,0,0,1,2.749.547,4.352,4.352,0,0,1,1.89,1.558,4.068,4.068,0,0,1,.674,2.31H332.51a1.719,1.719,0,0,0-.532-1.348,2.075,2.075,0,0,0-1.44-.479,2.34,2.34,0,0,0-1.45.405,1.243,1.243,0,0,0-.532,1.03,1.252,1.252,0,0,0,.586.991,7.389,7.389,0,0,0,2.061.918,12.623,12.623,0,0,1,2.422,1.021,4.07,4.07,0,0,1,2.3,3.662,3.472,3.472,0,0,1-1.406,2.93A6.255,6.255,0,0,1,330.664.2a7.653,7.653,0,0,1-3.13-.62,4.719,4.719,0,0,1-2.109-1.7,4.427,4.427,0,0,1-.708-2.485h3.438a2.181,2.181,0,0,0,.591,1.685,2.793,2.793,0,0,0,1.919.542,2.206,2.206,0,0,0,1.343-.366A1.209,1.209,0,0,0,332.5-3.779Zm15.947-4.287h3.33v2.822h-3.33v3.818h-3.076V-5.244h-3.34V-8.066h3.34v-3.711h3.076Zm21.387,3.252a5.193,5.193,0,0,1-.8,2.622A4.833,4.833,0,0,1,366.978-.43,7,7,0,0,1,363.955.2a5.584,5.584,0,0,1-4.414-1.826,7.54,7.54,0,0,1-1.611-5.156v-.7a8.607,8.607,0,0,1,.728-3.657,5.512,5.512,0,0,1,2.095-2.422,5.844,5.844,0,0,1,3.164-.854,6.129,6.129,0,0,1,4.16,1.362,5.383,5.383,0,0,1,1.787,3.755h-3.418a2.547,2.547,0,0,0-.654-1.865,2.691,2.691,0,0,0-1.875-.566,2.047,2.047,0,0,0-1.875.957,6.151,6.151,0,0,0-.625,3.057v1.006a6.806,6.806,0,0,0,.571,3.252,2.091,2.091,0,0,0,1.968.977,2.632,2.632,0,0,0,1.807-.557,2.363,2.363,0,0,0,.664-1.768Zm5.049,2.178h5.967V0h-9.395V-14.219h3.428Zm15.674-.02h-4.7L385.039,0h-3.662l5.215-14.219h3.223L395.068,0h-3.682ZM386.68-5.3h3.057L388.2-10.234Zm16.758,1.523a1.408,1.408,0,0,0-.532-1.172,6.615,6.615,0,0,0-1.87-.869,17.941,17.941,0,0,1-2.187-.869q-2.764-1.357-2.764-3.73a3.345,3.345,0,0,1,.688-2.085,4.453,4.453,0,0,1,1.948-1.406,7.582,7.582,0,0,1,2.832-.5,6.632,6.632,0,0,1,2.749.547,4.352,4.352,0,0,1,1.89,1.558,4.068,4.068,0,0,1,.674,2.31h-3.418a1.719,1.719,0,0,0-.532-1.348,2.075,2.075,0,0,0-1.44-.479,2.34,2.34,0,0,0-1.45.405,1.243,1.243,0,0,0-.532,1.03,1.252,1.252,0,0,0,.586.991,7.389,7.389,0,0,0,2.061.918,12.623,12.623,0,0,1,2.422,1.021,4.07,4.07,0,0,1,2.3,3.662,3.472,3.472,0,0,1-1.406,2.93A6.255,6.255,0,0,1,401.6.2a7.653,7.653,0,0,1-3.13-.62,4.719,4.719,0,0,1-2.109-1.7,4.427,4.427,0,0,1-.708-2.485h3.438a2.181,2.181,0,0,0,.591,1.685,2.793,2.793,0,0,0,1.919.542,2.206,2.206,0,0,0,1.343-.366A1.209,1.209,0,0,0,403.438-3.779ZM412.275,0h-3.418V-14.219h3.418Zm11.338-5.664h-5.527V0h-3.428V-14.219h9.512v2.646h-6.084V-8.3h5.527ZM429.248,0H425.83V-14.219h3.418Zm13.887-4.814a5.193,5.193,0,0,1-.8,2.622A4.833,4.833,0,0,1,440.278-.43,7,7,0,0,1,437.256.2a5.584,5.584,0,0,1-4.414-1.826,7.54,7.54,0,0,1-1.611-5.156v-.7a8.607,8.607,0,0,1,.728-3.657,5.512,5.512,0,0,1,2.095-2.422,5.844,5.844,0,0,1,3.164-.854,6.129,6.129,0,0,1,4.16,1.362,5.383,5.383,0,0,1,1.787,3.755h-3.418a2.547,2.547,0,0,0-.654-1.865,2.691,2.691,0,0,0-1.875-.566,2.047,2.047,0,0,0-1.875.957,6.151,6.151,0,0,0-.625,3.057v1.006a6.806,6.806,0,0,0,.571,3.252,2.091,2.091,0,0,0,1.968.977,2.632,2.632,0,0,0,1.807-.557,2.363,2.363,0,0,0,.664-1.768Zm9.7,2.158h-4.7L447.314,0h-3.662l5.215-14.219h3.223L457.344,0h-3.682ZM448.955-5.3h3.057l-1.533-4.932Zm20.723.488a5.193,5.193,0,0,1-.8,2.622A4.833,4.833,0,0,1,466.821-.43,7,7,0,0,1,463.8.2a5.584,5.584,0,0,1-4.414-1.826,7.54,7.54,0,0,1-1.611-5.156v-.7a8.607,8.607,0,0,1,.728-3.657,5.512,5.512,0,0,1,2.095-2.422,5.844,5.844,0,0,1,3.164-.854,6.129,6.129,0,0,1,4.16,1.362,5.383,5.383,0,0,1,1.787,3.755h-3.418a2.547,2.547,0,0,0-.654-1.865,2.691,2.691,0,0,0-1.875-.566,2.047,2.047,0,0,0-1.875.957,6.151,6.151,0,0,0-.625,3.057v1.006a6.806,6.806,0,0,0,.571,3.252,2.091,2.091,0,0,0,1.968.977,2.632,2.632,0,0,0,1.807-.557,2.363,2.363,0,0,0,.664-1.768ZM474.951,0h-3.418V-14.219h3.418Zm14.424-6.816a8.385,8.385,0,0,1-.771,3.682,5.7,5.7,0,0,1-2.192,2.466A6.1,6.1,0,0,1,483.174.2a6.191,6.191,0,0,1-3.223-.835,5.692,5.692,0,0,1-2.192-2.388,8.144,8.144,0,0,1-.825-3.564v-.8a8.422,8.422,0,0,1,.767-3.687,5.688,5.688,0,0,1,2.2-2.466,6.147,6.147,0,0,1,3.257-.869,6.087,6.087,0,0,1,3.223.859,5.79,5.79,0,0,1,2.2,2.446,8.18,8.18,0,0,1,.8,3.638Zm-3.486-.6a5.979,5.979,0,0,0-.708-3.218,2.271,2.271,0,0,0-2.026-1.1q-2.578,0-2.725,3.867l-.01,1.045a6.149,6.149,0,0,0,.693,3.213,2.268,2.268,0,0,0,2.061,1.123,2.24,2.24,0,0,0,2-1.1,5.982,5.982,0,0,0,.713-3.174Zm-2.334-10.615h3.477l-2.715,3.066h-2.686ZM503.018,0h-3.408L494.57-8.848V0h-3.428V-14.219h3.428L499.6-5.371v-8.848h3.418Z" transform="translate(559 9352)" fill="#12263f"/>
      <path id="Trazado_192676" data-name="Trazado 192676" d="M12,0H177a12,12,0,0,1,12,12V136a12,12,0,0,1-12,12H12A12,12,0,0,1,0,136V12A12,12,0,0,1,12,0Z" transform="translate(1158 9164)" fill="#4dd0e1"/>
      <g id="Grupo_144911" data-name="Grupo 144911" transform="translate(805.859 9181.04)">
        <g id="Grupo_144898-2" data-name="Grupo 144898" transform="translate(12)" clip-path="url(#clip-path)">
          <path id="Trazado_192563-2" data-name="Trazado 192563" d="M49.071,31.684A10.381,10.381,0,1,0,59.451,42.065,10.381,10.381,0,0,0,49.071,31.684" transform="translate(-15.988 -13.093)" fill="#26a69a"/>
          <path id="Trazado_192564-2" data-name="Trazado 192564" d="M49.071,126.275a10.381,10.381,0,1,0,10.381,10.381,10.381,10.381,0,0,0-10.381-10.381" transform="translate(-15.988 -52.18)" fill="#26a69a"/>
          <path id="Trazado_192565-2" data-name="Trazado 192565" d="M155.913,52.444a10.381,10.381,0,1,0-10.381-10.381,10.381,10.381,0,0,0,10.381,10.381" transform="translate(-60.138 -13.092)" fill="#26a69a"/>
          <path id="Trazado_192566-2" data-name="Trazado 192566" d="M103.2,77.9a10.38,10.38,0,1,0,10.381,10.381A10.381,10.381,0,0,0,103.2,77.9" transform="translate(-38.356 -32.189)" fill="#26a69a"/>
          <path id="Trazado_192567-2" data-name="Trazado 192567" d="M209.346,77.9a10.38,10.38,0,1,0,10.381,10.381A10.381,10.381,0,0,0,209.346,77.9" transform="translate(-82.217 -32.189)" fill="#26a69a"/>
          <path id="Trazado_192568-2" data-name="Trazado 192568" d="M155.913,126.275a10.381,10.381,0,1,0,10.381,10.381,10.381,10.381,0,0,0-10.381-10.381" transform="translate(-60.138 -52.18)" fill="#26a69a"/>
          <path id="Trazado_192569-2" data-name="Trazado 192569" d="M262.755,52.444a10.381,10.381,0,1,0-10.381-10.381,10.381,10.381,0,0,0,10.381,10.381" transform="translate(-104.287 -13.092)" fill="#26a69a"/>
          <path id="Trazado_192570-2" data-name="Trazado 192570" d="M262.755,126.275a10.381,10.381,0,1,0,10.381,10.381,10.381,10.381,0,0,0-10.381-10.381" transform="translate(-104.287 -52.18)" fill="#26a69a"/>
          <path id="Trazado_192571-2" data-name="Trazado 192571" d="M80.716,115.739a69.877,69.877,0,0,1,4.362-7.168,13.916,13.916,0,0,1-1.994-3.144,62.7,62.7,0,0,0-5.415,8.615c-1,1.8-1.99,3.572-3.028,5.2a13.9,13.9,0,0,1,2.01,3.286c1.465-2.122,2.773-4.469,4.066-6.792" transform="translate(-30.844 -43.565)" fill="#1a323d"/>
          <path id="Trazado_192572-2" data-name="Trazado 192572" d="M82.931,75.089A13.843,13.843,0,0,1,84.888,71.7c-.965-1.543-1.889-3.2-2.826-4.885a65.086,65.086,0,0,0-5.218-8.364,13.873,13.873,0,0,1-1.927,3.262,75.073,75.073,0,0,1,4.1,6.8c1.249,2.244,2.513,4.511,3.917,6.575" transform="translate(-30.958 -24.154)" fill="#1a323d"/>
          <path id="Trazado_192573-2" data-name="Trazado 192573" d="M189.1,75.54a13.865,13.865,0,0,1,1.93-3.419c-.988-1.571-1.932-3.265-2.889-4.985a69.775,69.775,0,0,0-4.869-7.911,13.892,13.892,0,0,1-2.021,3.172c1.344,1.95,2.582,4.171,3.842,6.436,1.276,2.292,2.566,4.608,4.007,6.707" transform="translate(-74.899 -24.473)" fill="#1a323d"/>
          <path id="Trazado_192574-2" data-name="Trazado 192574" d="M137.066,60.373a77.5,77.5,0,0,0-4.377,7.238c-1.016,1.825-2.018,3.622-3.072,5.273a13.828,13.828,0,0,1,1.854,3.5,79.592,79.592,0,0,0,4.266-7.078c1.149-2.064,2.278-4.092,3.487-5.911a13.952,13.952,0,0,1-2.158-3.023" transform="translate(-53.561 -24.948)" fill="#1a323d"/>
          <path id="Trazado_192575-2" data-name="Trazado 192575" d="M238.637,67.3c-.995,1.787-1.975,3.546-3,5.167a13.87,13.87,0,0,1,1.882,3.471c1.507-2.161,2.846-4.564,4.17-6.942,1.223-2.2,2.425-4.352,3.723-6.26a13.919,13.919,0,0,1-2.07-3.119,72.2,72.2,0,0,0-4.7,7.682" transform="translate(-97.369 -24.634)" fill="#1a323d"/>
          <path id="Trazado_192576-2" data-name="Trazado 192576" d="M307.279,80.479a1.73,1.73,0,0,0-.422-.058l-.108,0c-5.888-.781-9.192-6.712-12.675-12.968A74.843,74.843,0,0,0,289.537,60a13.931,13.931,0,0,1-2.111,3.074c1.252,1.863,2.415,3.952,3.6,6.08,2.736,4.915,5.537,9.94,9.759,12.7-4.923,2.53-7.994,8.039-10.988,13.416-.855,1.536-1.7,3.051-2.574,4.475a13.945,13.945,0,0,1,2.2,3.057c1.211-1.86,2.324-3.856,3.426-5.835,3.678-6.606,7.157-12.848,13.69-13.048a14.433,14.433,0,0,0,1.55.083,1.744,1.744,0,0,0,0-3.488c-.275,0-.542-.014-.806-.035" transform="translate(-118.688 -24.794)" fill="#1a323d"/>
          <path id="Trazado_192577-2" data-name="Trazado 192577" d="M236.2,116.867a65.8,65.8,0,0,0,5.157,8.285,13.8,13.8,0,0,1,1.694-3.6c-1.33-1.937-2.555-4.136-3.8-6.378a80.432,80.432,0,0,0-4.22-7.013,13.948,13.948,0,0,1-2.319,2.792c1.211,1.821,2.341,3.852,3.491,5.917" transform="translate(-96.16 -44.694)" fill="#1a323d"/>
          <path id="Trazado_192578-2" data-name="Trazado 192578" d="M135.027,124.573a13.827,13.827,0,0,1,1.806-3.5c-1.225-1.837-2.368-3.888-3.53-5.976a79.081,79.081,0,0,0-4.293-7.118,13.965,13.965,0,0,1-2.3,2.815c1.231,1.842,2.378,3.9,3.545,6a71.114,71.114,0,0,0,4.772,7.78" transform="translate(-52.359 -44.619)" fill="#1a323d"/>
          <path id="Trazado_192579-2" data-name="Trazado 192579" d="M186.782,115.659a68.715,68.715,0,0,1,4.428-7.257,13.932,13.932,0,0,1-1.969-3.167,61.666,61.666,0,0,0-5.507,8.728c-.927,1.665-1.841,3.306-2.794,4.834a13.914,13.914,0,0,1,2.107,3.167c1.332-1.992,2.54-4.158,3.735-6.3" transform="translate(-74.769 -43.486)" fill="#1a323d"/>
          <path id="Trazado_192580-2" data-name="Trazado 192580" d="M215.563,161.827c-3.738,6.715-7.269,13.057-14.011,13.057s-10.273-6.342-14.011-13.057a72.862,72.862,0,0,0-4.658-7.623,13.925,13.925,0,0,1-2.1,3.079c1.293,1.9,2.49,4.051,3.709,6.241,4.064,7.3,8.266,14.849,17.059,14.849s12.995-7.549,17.059-14.849c1.294-2.325,2.565-4.606,3.951-6.594a13.905,13.905,0,0,1-2.008-3.173,68.058,68.058,0,0,0-4.991,8.07" transform="translate(-74.705 -63.536)" fill="#1a323d"/>
          <path id="Trazado_192581-2" data-name="Trazado 192581" d="M109.489,161.826c-3.738,6.714-7.269,13.057-14.012,13.057S85.2,168.541,81.465,161.826a68.043,68.043,0,0,0-4.993-8.072,13.9,13.9,0,0,1-2.007,3.173c1.387,1.989,2.658,4.269,3.953,6.6,4.064,7.3,8.267,14.848,17.06,14.848s13-7.549,17.059-14.849c1.218-2.188,2.415-4.335,3.708-6.238a13.894,13.894,0,0,1-2.1-3.078,73,73,0,0,0-4.655,7.619" transform="translate(-30.771 -63.535)" fill="#1a323d"/>
          <path id="Trazado_192582-2" data-name="Trazado 192582" d="M293.4,16.546c3.738-6.715,7.27-13.057,14.012-13.057a1.744,1.744,0,0,0,0-3.488c-8.793,0-13,7.549-17.06,14.849-.922,1.656-1.833,3.291-2.781,4.812a13.934,13.934,0,0,1,2.138,3.124c1.315-1.973,2.51-4.116,3.691-6.239" transform="translate(-118.83 0)" fill="#1a323d"/>
          <path id="Trazado_192583-2" data-name="Trazado 192583" d="M307.614,175.513c-6.742,0-10.273-6.342-14.011-13.057a78.185,78.185,0,0,0-4.336-7.178,13.931,13.931,0,0,1-2.192,2.976c1.206,1.817,2.333,3.84,3.48,5.9,4.064,7.3,8.266,14.849,17.059,14.849a1.744,1.744,0,0,0,0-3.488" transform="translate(-118.627 -64.165)" fill="#1a323d"/>
          <path id="Trazado_192584-2" data-name="Trazado 192584" d="M17.151,162.456c-3.738,6.715-7.27,13.058-14.012,13.058a1.744,1.744,0,0,0,0,3.488c8.793,0,13-7.549,17.06-14.849,1.146-2.058,2.273-4.082,3.479-5.9a13.935,13.935,0,0,1-2.192-2.975,78.314,78.314,0,0,0-4.335,7.176" transform="translate(-0.576 -64.166)" fill="#1a323d"/>
          <path id="Trazado_192585-2" data-name="Trazado 192585" d="M2.55,84.407a1.73,1.73,0,0,0,.422.058l.108,0c5.888.781,9.192,6.712,12.675,12.968a76.946,76.946,0,0,0,4.406,7.277,13.848,13.848,0,0,1,1.912-3.394c-1.128-1.733-2.19-3.64-3.27-5.58-2.736-4.915-5.537-9.94-9.759-12.7,4.923-2.53,7.994-8.039,10.988-13.416,1.078-1.936,2.139-3.84,3.264-5.571a13.973,13.973,0,0,1-2.241-2.926c-1.467,2.124-2.776,4.474-4.071,6.8-3.678,6.606-7.157,12.848-13.69,13.048a14.433,14.433,0,0,0-1.55-.083,1.744,1.744,0,0,0,0,3.488c.275,0,.542.014.806.035" transform="translate(0 -25.256)" fill="#1a323d"/>
          <path id="Trazado_192586-2" data-name="Trazado 192586" d="M187.326,16.545c3.738-6.714,7.269-13.057,14.012-13.057s10.274,6.342,14.012,13.057a69.361,69.361,0,0,0,4.9,7.948,13.831,13.831,0,0,1,1.792-3.5c-1.267-1.879-2.445-3.99-3.642-6.142C214.334,7.549,210.131,0,201.338,0s-13,7.549-17.059,14.849c-1,1.791-1.98,3.554-3.012,5.178a13.885,13.885,0,0,1,2.047,3.235c1.444-2.1,2.736-4.422,4.014-6.717" transform="translate(-74.904)" fill="#1a323d"/>
          <path id="Trazado_192587-2" data-name="Trazado 192587" d="M81.254,16.546C84.992,9.831,88.523,3.488,95.265,3.488s10.273,6.342,14.012,13.057a74.691,74.691,0,0,0,4.53,7.449,13.843,13.843,0,0,1,1.9-3.4c-1.168-1.777-2.264-3.744-3.379-5.746C108.26,7.549,104.057,0,95.265,0S82.27,7.549,78.206,14.849c-1.075,1.931-2.134,3.83-3.255,5.558A13.9,13.9,0,0,1,76.9,23.75a77.948,77.948,0,0,0,4.354-7.2" transform="translate(-30.972)" fill="#1a323d"/>
          <path id="Trazado_192588-2" data-name="Trazado 192588" d="M2.442,3.488c6.742,0,10.273,6.342,14.011,13.057,1.326,2.382,2.668,4.789,4.178,6.953a13.9,13.9,0,0,1,2-3.287c-1.075-1.675-2.094-3.5-3.129-5.362C15.437,7.549,11.235,0,2.442,0a1.744,1.744,0,0,0,0,3.488" transform="translate(-0.288)" fill="#1a323d"/>
        </g>
        <g id="Grupo_144906-2" data-name="Grupo 144906" transform="translate(12)" clip-path="url(#clip-path)">
          <path id="Trazado_192595-2" data-name="Trazado 192595" d="M49.071,31.684A10.381,10.381,0,1,0,59.451,42.065,10.381,10.381,0,0,0,49.071,31.684" transform="translate(-15.988 -13.093)" fill="#ffa726"/>
          <path id="Trazado_192596-2" data-name="Trazado 192596" d="M49.071,126.275a10.381,10.381,0,1,0,10.381,10.381,10.381,10.381,0,0,0-10.381-10.381" transform="translate(-15.988 -52.18)" fill="#ffa726"/>
          <path id="Trazado_192597-2" data-name="Trazado 192597" d="M155.913,52.444a10.381,10.381,0,1,0-10.381-10.381,10.381,10.381,0,0,0,10.381,10.381" transform="translate(-60.138 -13.092)" fill="#ffa726"/>
          <path id="Trazado_192598-2" data-name="Trazado 192598" d="M103.2,77.9a10.38,10.38,0,1,0,10.381,10.381A10.381,10.381,0,0,0,103.2,77.9" transform="translate(-38.356 -32.189)" fill="#ffa726"/>
          <path id="Trazado_192599-2" data-name="Trazado 192599" d="M209.346,77.9a10.38,10.38,0,1,0,10.381,10.381A10.381,10.381,0,0,0,209.346,77.9" transform="translate(-82.217 -32.189)" fill="#4dd0e1"/>
          <path id="Trazado_192600-2" data-name="Trazado 192600" d="M155.913,126.275a10.381,10.381,0,1,0,10.381,10.381,10.381,10.381,0,0,0-10.381-10.381" transform="translate(-60.138 -52.18)" fill="#ffa726"/>
          <path id="Trazado_192601-2" data-name="Trazado 192601" d="M262.755,52.444a10.381,10.381,0,1,0-10.381-10.381,10.381,10.381,0,0,0,10.381,10.381" transform="translate(-104.287 -13.092)" fill="#4dd0e1"/>
          <path id="Trazado_192602-2" data-name="Trazado 192602" d="M262.755,126.275a10.381,10.381,0,1,0,10.381,10.381,10.381,10.381,0,0,0-10.381-10.381" transform="translate(-104.287 -52.18)" fill="#4dd0e1"/>
          <path id="Trazado_192603-2" data-name="Trazado 192603" d="M80.716,115.739a69.877,69.877,0,0,1,4.362-7.168,13.916,13.916,0,0,1-1.994-3.144,62.7,62.7,0,0,0-5.415,8.615c-1,1.8-1.99,3.572-3.028,5.2a13.9,13.9,0,0,1,2.01,3.286c1.465-2.122,2.773-4.469,4.066-6.792" transform="translate(-30.844 -43.565)" fill="#1a323d"/>
          <path id="Trazado_192604-2" data-name="Trazado 192604" d="M82.931,75.089A13.843,13.843,0,0,1,84.888,71.7c-.965-1.543-1.889-3.2-2.826-4.885a65.086,65.086,0,0,0-5.218-8.364,13.873,13.873,0,0,1-1.927,3.262,75.073,75.073,0,0,1,4.1,6.8c1.249,2.244,2.513,4.511,3.917,6.575" transform="translate(-30.958 -24.154)" fill="#1a323d"/>
          <path id="Trazado_192605-2" data-name="Trazado 192605" d="M189.1,75.54a13.865,13.865,0,0,1,1.93-3.419c-.988-1.571-1.932-3.265-2.889-4.985a69.775,69.775,0,0,0-4.869-7.911,13.892,13.892,0,0,1-2.021,3.172c1.344,1.95,2.582,4.171,3.842,6.436,1.276,2.292,2.566,4.608,4.007,6.707" transform="translate(-74.899 -24.473)" fill="#1a323d"/>
          <path id="Trazado_192606-2" data-name="Trazado 192606" d="M137.066,60.373a77.5,77.5,0,0,0-4.377,7.238c-1.016,1.825-2.018,3.622-3.072,5.273a13.828,13.828,0,0,1,1.854,3.5,79.592,79.592,0,0,0,4.266-7.078c1.149-2.064,2.278-4.092,3.487-5.911a13.952,13.952,0,0,1-2.158-3.023" transform="translate(-53.561 -24.948)" fill="#1a323d"/>
          <path id="Trazado_192607-2" data-name="Trazado 192607" d="M238.637,67.3c-.995,1.787-1.975,3.546-3,5.167a13.87,13.87,0,0,1,1.882,3.471c1.507-2.161,2.846-4.564,4.17-6.942,1.223-2.2,2.425-4.352,3.723-6.26a13.919,13.919,0,0,1-2.07-3.119,72.2,72.2,0,0,0-4.7,7.682" transform="translate(-97.369 -24.634)" fill="#1a323d"/>
          <path id="Trazado_192608-2" data-name="Trazado 192608" d="M307.279,80.479a1.73,1.73,0,0,0-.422-.058l-.108,0c-5.888-.781-9.192-6.712-12.675-12.968A74.843,74.843,0,0,0,289.537,60a13.931,13.931,0,0,1-2.111,3.074c1.252,1.863,2.415,3.952,3.6,6.08,2.736,4.915,5.537,9.94,9.759,12.7-4.923,2.53-7.994,8.039-10.988,13.416-.855,1.536-1.7,3.051-2.574,4.475a13.945,13.945,0,0,1,2.2,3.057c1.211-1.86,2.324-3.856,3.426-5.835,3.678-6.606,7.157-12.848,13.69-13.048a14.433,14.433,0,0,0,1.55.083,1.744,1.744,0,0,0,0-3.488c-.275,0-.542-.014-.806-.035" transform="translate(-118.688 -24.794)" fill="#1a323d"/>
          <path id="Trazado_192609-2" data-name="Trazado 192609" d="M236.2,116.867a65.8,65.8,0,0,0,5.157,8.285,13.8,13.8,0,0,1,1.694-3.6c-1.33-1.937-2.555-4.136-3.8-6.378a80.432,80.432,0,0,0-4.22-7.013,13.948,13.948,0,0,1-2.319,2.792c1.211,1.821,2.341,3.852,3.491,5.917" transform="translate(-96.16 -44.694)" fill="#1a323d"/>
          <path id="Trazado_192610-2" data-name="Trazado 192610" d="M135.027,124.573a13.827,13.827,0,0,1,1.806-3.5c-1.225-1.837-2.368-3.888-3.53-5.976a79.081,79.081,0,0,0-4.293-7.118,13.965,13.965,0,0,1-2.3,2.815c1.231,1.842,2.378,3.9,3.545,6a71.114,71.114,0,0,0,4.772,7.78" transform="translate(-52.359 -44.619)" fill="#1a323d"/>
          <path id="Trazado_192611-2" data-name="Trazado 192611" d="M186.782,115.659a68.715,68.715,0,0,1,4.428-7.257,13.932,13.932,0,0,1-1.969-3.167,61.666,61.666,0,0,0-5.507,8.728c-.927,1.665-1.841,3.306-2.794,4.834a13.914,13.914,0,0,1,2.107,3.167c1.332-1.992,2.54-4.158,3.735-6.3" transform="translate(-74.769 -43.486)" fill="#1a323d"/>
          <path id="Trazado_192612-2" data-name="Trazado 192612" d="M215.563,161.827c-3.738,6.715-7.269,13.057-14.011,13.057s-10.273-6.342-14.011-13.057a72.862,72.862,0,0,0-4.658-7.623,13.925,13.925,0,0,1-2.1,3.079c1.293,1.9,2.49,4.051,3.709,6.241,4.064,7.3,8.266,14.849,17.059,14.849s12.995-7.549,17.059-14.849c1.294-2.325,2.565-4.606,3.951-6.594a13.905,13.905,0,0,1-2.008-3.173,68.058,68.058,0,0,0-4.991,8.07" transform="translate(-74.705 -63.536)" fill="#1a323d"/>
          <path id="Trazado_192613-2" data-name="Trazado 192613" d="M109.489,161.826c-3.738,6.714-7.269,13.057-14.012,13.057S85.2,168.541,81.465,161.826a68.043,68.043,0,0,0-4.993-8.072,13.9,13.9,0,0,1-2.007,3.173c1.387,1.989,2.658,4.269,3.953,6.6,4.064,7.3,8.267,14.848,17.06,14.848s13-7.549,17.059-14.849c1.218-2.188,2.415-4.335,3.708-6.238a13.894,13.894,0,0,1-2.1-3.078,73,73,0,0,0-4.655,7.619" transform="translate(-30.771 -63.535)" fill="#1a323d"/>
          <path id="Trazado_192614-2" data-name="Trazado 192614" d="M293.4,16.546c3.738-6.715,7.27-13.057,14.012-13.057a1.744,1.744,0,0,0,0-3.488c-8.793,0-13,7.549-17.06,14.849-.922,1.656-1.833,3.291-2.781,4.812a13.934,13.934,0,0,1,2.138,3.124c1.315-1.973,2.51-4.116,3.691-6.239" transform="translate(-118.83 0)" fill="#1a323d"/>
          <path id="Trazado_192615-2" data-name="Trazado 192615" d="M307.614,175.513c-6.742,0-10.273-6.342-14.011-13.057a78.185,78.185,0,0,0-4.336-7.178,13.931,13.931,0,0,1-2.192,2.976c1.206,1.817,2.333,3.84,3.48,5.9,4.064,7.3,8.266,14.849,17.059,14.849a1.744,1.744,0,0,0,0-3.488" transform="translate(-118.627 -64.165)" fill="#1a323d"/>
          <path id="Trazado_192616-2" data-name="Trazado 192616" d="M17.151,162.456c-3.738,6.715-7.27,13.058-14.012,13.058a1.744,1.744,0,0,0,0,3.488c8.793,0,13-7.549,17.06-14.849,1.146-2.058,2.273-4.082,3.479-5.9a13.935,13.935,0,0,1-2.192-2.975,78.314,78.314,0,0,0-4.335,7.176" transform="translate(-0.576 -64.166)" fill="#1a323d"/>
          <path id="Trazado_192617-2" data-name="Trazado 192617" d="M2.55,84.407a1.73,1.73,0,0,0,.422.058l.108,0c5.888.781,9.192,6.712,12.675,12.968a76.946,76.946,0,0,0,4.406,7.277,13.848,13.848,0,0,1,1.912-3.394c-1.128-1.733-2.19-3.64-3.27-5.58-2.736-4.915-5.537-9.94-9.759-12.7,4.923-2.53,7.994-8.039,10.988-13.416,1.078-1.936,2.139-3.84,3.264-5.571a13.973,13.973,0,0,1-2.241-2.926c-1.467,2.124-2.776,4.474-4.071,6.8-3.678,6.606-7.157,12.848-13.69,13.048a14.433,14.433,0,0,0-1.55-.083,1.744,1.744,0,0,0,0,3.488c.275,0,.542.014.806.035" transform="translate(0 -25.256)" fill="#1a323d"/>
          <path id="Trazado_192618-2" data-name="Trazado 192618" d="M187.326,16.545c3.738-6.714,7.269-13.057,14.012-13.057s10.274,6.342,14.012,13.057a69.361,69.361,0,0,0,4.9,7.948,13.831,13.831,0,0,1,1.792-3.5c-1.267-1.879-2.445-3.99-3.642-6.142C214.334,7.549,210.131,0,201.338,0s-13,7.549-17.059,14.849c-1,1.791-1.98,3.554-3.012,5.178a13.885,13.885,0,0,1,2.047,3.235c1.444-2.1,2.736-4.422,4.014-6.717" transform="translate(-74.904)" fill="#1a323d"/>
          <path id="Trazado_192619-2" data-name="Trazado 192619" d="M81.254,16.546C84.992,9.831,88.523,3.488,95.265,3.488s10.273,6.342,14.012,13.057a74.691,74.691,0,0,0,4.53,7.449,13.843,13.843,0,0,1,1.9-3.4c-1.168-1.777-2.264-3.744-3.379-5.746C108.26,7.549,104.057,0,95.265,0S82.27,7.549,78.206,14.849c-1.075,1.931-2.134,3.83-3.255,5.558A13.9,13.9,0,0,1,76.9,23.75a77.948,77.948,0,0,0,4.354-7.2" transform="translate(-30.972)" fill="#1a323d"/>
        </g>
      </g>
      <path id="Trazado_192678" data-name="Trazado 192678" d="M9.688-3.609A4.185,4.185,0,0,1,8.355-.824a4.365,4.365,0,0,1-2.98.98,4.008,4.008,0,0,1-3.23-1.445A5.815,5.815,0,0,1,.93-5.156V-6.25A6.481,6.481,0,0,1,1.5-9.039,4.231,4.231,0,0,1,3.1-10.887a4.47,4.47,0,0,1,2.406-.645A4.11,4.11,0,0,1,8.414-10.52a4.235,4.235,0,0,1,1.273,2.8H8.18a3.254,3.254,0,0,0-.848-1.969A2.569,2.569,0,0,0,5.508-10.3,2.685,2.685,0,0,0,3.254-9.234a4.875,4.875,0,0,0-.816,3.023v1.1a5.011,5.011,0,0,0,.773,2.945A2.5,2.5,0,0,0,5.375-1.07a2.887,2.887,0,0,0,1.918-.566A3.143,3.143,0,0,0,8.18-3.609Zm1.438-.7a4.993,4.993,0,0,1,.488-2.234A3.643,3.643,0,0,1,12.973-8.07a3.7,3.7,0,0,1,1.988-.539,3.565,3.565,0,0,1,2.793,1.2,4.6,4.6,0,0,1,1.066,3.18v.1a5.036,5.036,0,0,1-.473,2.215A3.589,3.589,0,0,1,17-.391a3.743,3.743,0,0,1-2.02.547,3.556,3.556,0,0,1-2.785-1.2A4.575,4.575,0,0,1,11.125-4.2Zm1.453.172a3.616,3.616,0,0,0,.652,2.258,2.088,2.088,0,0,0,1.746.852,2.075,2.075,0,0,0,1.75-.863A3.955,3.955,0,0,0,17.375-4.3a3.61,3.61,0,0,0-.66-2.254,2.1,2.1,0,0,0-1.754-.863,2.075,2.075,0,0,0-1.727.852A3.925,3.925,0,0,0,12.578-4.133ZM22.2,0H20.758V-12H22.2Zm1.93-4.3a4.993,4.993,0,0,1,.488-2.234A3.643,3.643,0,0,1,25.98-8.07a3.7,3.7,0,0,1,1.988-.539,3.565,3.565,0,0,1,2.793,1.2,4.6,4.6,0,0,1,1.066,3.18v.1a5.036,5.036,0,0,1-.473,2.215A3.589,3.589,0,0,1,30-.391a3.743,3.743,0,0,1-2.02.547,3.556,3.556,0,0,1-2.785-1.2A4.575,4.575,0,0,1,24.133-4.2Zm1.453.172a3.616,3.616,0,0,0,.652,2.258,2.088,2.088,0,0,0,1.746.852,2.075,2.075,0,0,0,1.75-.863A3.955,3.955,0,0,0,30.383-4.3a3.61,3.61,0,0,0-.66-2.254,2.1,2.1,0,0,0-1.754-.863,2.075,2.075,0,0,0-1.727.852A3.925,3.925,0,0,0,25.586-4.133ZM37.727-7.156a4.331,4.331,0,0,0-.711-.055A1.9,1.9,0,0,0,35.086-6V0H33.641V-8.453h1.406l.023.977a2.251,2.251,0,0,1,2.016-1.133,1.477,1.477,0,0,1,.641.109Zm5.242,6.4a.905.905,0,0,1,.223-.625.848.848,0,0,1,.668-.25.874.874,0,0,1,.676.25.887.887,0,0,1,.23.625.839.839,0,0,1-.23.6.89.89,0,0,1-.676.242.863.863,0,0,1-.668-.242A.855.855,0,0,1,42.969-.758Zm.008-6.9a.905.905,0,0,1,.223-.625.848.848,0,0,1,.668-.25.874.874,0,0,1,.676.25.887.887,0,0,1,.23.625.839.839,0,0,1-.23.6.89.89,0,0,1-.676.242.863.863,0,0,1-.668-.242A.855.855,0,0,1,42.977-7.656ZM55.25-4.6H52.578V0H51.07V-11.375h3.766a4.457,4.457,0,0,1,2.957.875,3.148,3.148,0,0,1,1.035,2.547A3.062,3.062,0,0,1,58.254-6.1a3.428,3.428,0,0,1-1.6,1.18L59.328-.094V0H57.719ZM52.578-5.828h2.3a2.6,2.6,0,0,0,1.777-.578,1.953,1.953,0,0,0,.66-1.547,2.057,2.057,0,0,0-.629-1.617,2.666,2.666,0,0,0-1.816-.57h-2.3ZM60.32-4.3a4.993,4.993,0,0,1,.488-2.234A3.643,3.643,0,0,1,62.168-8.07a3.7,3.7,0,0,1,1.988-.539,3.565,3.565,0,0,1,2.793,1.2,4.6,4.6,0,0,1,1.066,3.18v.1a5.036,5.036,0,0,1-.473,2.215A3.589,3.589,0,0,1,66.191-.391a3.743,3.743,0,0,1-2.02.547,3.556,3.556,0,0,1-2.785-1.2A4.575,4.575,0,0,1,60.32-4.2Zm1.453.172a3.616,3.616,0,0,0,.652,2.258,2.088,2.088,0,0,0,1.746.852,2.075,2.075,0,0,0,1.75-.863A3.955,3.955,0,0,0,66.57-4.3a3.61,3.61,0,0,0-.66-2.254,2.1,2.1,0,0,0-1.754-.863,2.075,2.075,0,0,0-1.727.852A3.925,3.925,0,0,0,61.773-4.133Zm9.547-4.32V.977q0,2.438-2.211,2.438a2.682,2.682,0,0,1-.883-.141V2.117a2.794,2.794,0,0,0,.656.063.982.982,0,0,0,.738-.262,1.294,1.294,0,0,0,.254-.91V-8.453ZM69.727-10.7a.867.867,0,0,1,.215-.59.79.79,0,0,1,.629-.246.819.819,0,0,1,.641.242.854.854,0,0,1,.219.594.826.826,0,0,1-.219.586.834.834,0,0,1-.641.234.808.808,0,0,1-.633-.234A.843.843,0,0,1,69.727-10.7ZM73.266-4.3a4.993,4.993,0,0,1,.488-2.234A3.643,3.643,0,0,1,75.113-8.07,3.7,3.7,0,0,1,77.1-8.609a3.565,3.565,0,0,1,2.793,1.2,4.6,4.6,0,0,1,1.066,3.18v.1a5.036,5.036,0,0,1-.473,2.215A3.589,3.589,0,0,1,79.137-.391a3.743,3.743,0,0,1-2.02.547,3.556,3.556,0,0,1-2.785-1.2A4.575,4.575,0,0,1,73.266-4.2Zm1.453.172a3.616,3.616,0,0,0,.652,2.258,2.088,2.088,0,0,0,1.746.852,2.075,2.075,0,0,0,1.75-.863A3.955,3.955,0,0,0,79.516-4.3a3.61,3.61,0,0,0-.66-2.254A2.1,2.1,0,0,0,77.1-7.422a2.075,2.075,0,0,0-1.727.852A3.925,3.925,0,0,0,74.719-4.133ZM3.258,12.625l3.719,9.281L10.7,12.625h1.945V24h-1.5V19.57l.141-4.781L7.547,24H6.4L2.672,14.813,2.82,19.57V24H1.32V12.625ZM20.281,24a3.036,3.036,0,0,1-.2-.891,3.225,3.225,0,0,1-2.406,1.047,2.984,2.984,0,0,1-2.051-.707,2.287,2.287,0,0,1-.8-1.793,2.39,2.39,0,0,1,1-2.051,4.733,4.733,0,0,1,2.824-.73h1.406v-.664A1.623,1.623,0,0,0,19.6,17a1.821,1.821,0,0,0-1.336-.449,2.108,2.108,0,0,0-1.3.391,1.151,1.151,0,0,0-.523.945H14.992a2,2,0,0,1,.449-1.223,3.066,3.066,0,0,1,1.219-.934,4.1,4.1,0,0,1,1.691-.344,3.342,3.342,0,0,1,2.289.73,2.635,2.635,0,0,1,.859,2.012v3.891a4.757,4.757,0,0,0,.3,1.852V24Zm-2.4-1.1a2.54,2.54,0,0,0,1.289-.352,2.127,2.127,0,0,0,.883-.914V19.9H18.922q-2.656,0-2.656,1.555a1.316,1.316,0,0,0,.453,1.063A1.742,1.742,0,0,0,17.883,22.9Zm9.969-6.055a4.331,4.331,0,0,0-.711-.055A1.9,1.9,0,0,0,25.211,18v6H23.766V15.547h1.406l.023.977a2.251,2.251,0,0,1,2.016-1.133,1.477,1.477,0,0,1,.641.109Zm4.57,6.133a2.082,2.082,0,0,0,1.352-.469,1.649,1.649,0,0,0,.641-1.172h1.367a2.621,2.621,0,0,1-.5,1.383,3.293,3.293,0,0,1-1.23,1.047,3.55,3.55,0,0,1-1.629.391A3.482,3.482,0,0,1,29.676,23a4.59,4.59,0,0,1-1.02-3.152v-.242a5.089,5.089,0,0,1,.453-2.2,3.451,3.451,0,0,1,1.3-1.492,3.7,3.7,0,0,1,2-.531,3.39,3.39,0,0,1,2.363.852,3.043,3.043,0,0,1,1,2.211H34.414a1.992,1.992,0,0,0-.621-1.348,1.932,1.932,0,0,0-1.379-.527,2.023,2.023,0,0,0-1.707.793,3.724,3.724,0,0,0-.605,2.293v.273a3.65,3.65,0,0,0,.6,2.25A2.033,2.033,0,0,0,32.422,22.977ZM42.625,24a3.036,3.036,0,0,1-.2-.891,3.225,3.225,0,0,1-2.406,1.047,2.984,2.984,0,0,1-2.051-.707,2.287,2.287,0,0,1-.8-1.793,2.39,2.39,0,0,1,1-2.051,4.733,4.733,0,0,1,2.824-.73H42.4v-.664A1.623,1.623,0,0,0,41.945,17a1.821,1.821,0,0,0-1.336-.449,2.107,2.107,0,0,0-1.3.391,1.151,1.151,0,0,0-.523.945H37.336a2,2,0,0,1,.449-1.223A3.066,3.066,0,0,1,39,15.734a4.1,4.1,0,0,1,1.691-.344,3.342,3.342,0,0,1,2.289.73,2.635,2.635,0,0,1,.859,2.012v3.891a4.757,4.757,0,0,0,.3,1.852V24Zm-2.4-1.1a2.54,2.54,0,0,0,1.289-.352,2.127,2.127,0,0,0,.883-.914V19.9H41.266q-2.656,0-2.656,1.555a1.316,1.316,0,0,0,.453,1.063A1.742,1.742,0,0,0,40.227,22.9Zm9.8.344a.905.905,0,0,1,.223-.625.848.848,0,0,1,.668-.25.874.874,0,0,1,.676.25.887.887,0,0,1,.23.625.839.839,0,0,1-.23.6.89.89,0,0,1-.676.242.8.8,0,0,1-.891-.844Zm.008-6.9a.905.905,0,0,1,.223-.625.848.848,0,0,1,.668-.25.874.874,0,0,1,.676.25.887.887,0,0,1,.23.625.839.839,0,0,1-.23.6.89.89,0,0,1-.676.242.8.8,0,0,1-.891-.844Zm14.375,2.633H59.633V24h-1.5V12.625H65.18v1.234H59.633V17.75h4.773Zm1.8.719a4.993,4.993,0,0,1,.488-2.234,3.643,3.643,0,0,1,1.359-1.531,3.7,3.7,0,0,1,1.988-.539,3.565,3.565,0,0,1,2.793,1.2,4.6,4.6,0,0,1,1.066,3.18v.1a5.036,5.036,0,0,1-.473,2.215,3.589,3.589,0,0,1-1.352,1.527,3.743,3.743,0,0,1-2.02.547,3.556,3.556,0,0,1-2.785-1.2A4.575,4.575,0,0,1,66.2,19.8Zm1.453.172a3.616,3.616,0,0,0,.652,2.258,2.211,2.211,0,0,0,3.5-.012,3.955,3.955,0,0,0,.648-2.418,3.61,3.61,0,0,0-.66-2.254,2.1,2.1,0,0,0-1.754-.863,2.075,2.075,0,0,0-1.727.852A3.925,3.925,0,0,0,67.656,19.867ZM79.8,16.844a4.331,4.331,0,0,0-.711-.055A1.9,1.9,0,0,0,77.156,18v6H75.711V15.547h1.406l.023.977a2.251,2.251,0,0,1,2.016-1.133,1.477,1.477,0,0,1,.641.109Zm.828,2.859a4.952,4.952,0,0,1,.922-3.129,3.137,3.137,0,0,1,4.766-.168V12h1.445V24H86.43l-.07-.906a2.943,2.943,0,0,1-2.414,1.063,2.887,2.887,0,0,1-2.395-1.2,5.008,5.008,0,0,1-.926-3.141Zm1.445.164a3.749,3.749,0,0,0,.594,2.25,1.92,1.92,0,0,0,1.641.813A2.109,2.109,0,0,0,86.313,21.7V17.813a2.125,2.125,0,0,0-1.992-1.2,1.929,1.929,0,0,0-1.656.82A4.128,4.128,0,0,0,82.07,19.867ZM3.258,36.625l3.719,9.281L10.7,36.625h1.945V48h-1.5V43.57l.141-4.781L7.547,48H6.4L2.672,38.813,2.82,43.57V48H1.32V36.625ZM14.68,43.7a4.993,4.993,0,0,1,.488-2.234,3.643,3.643,0,0,1,1.359-1.531,3.7,3.7,0,0,1,1.988-.539,3.565,3.565,0,0,1,2.793,1.2,4.6,4.6,0,0,1,1.066,3.18v.1a5.036,5.036,0,0,1-.473,2.215,3.589,3.589,0,0,1-1.352,1.527,3.743,3.743,0,0,1-2.02.547,3.556,3.556,0,0,1-2.785-1.2A4.575,4.575,0,0,1,14.68,43.8Zm1.453.172a3.616,3.616,0,0,0,.652,2.258,2.211,2.211,0,0,0,3.5-.012A3.955,3.955,0,0,0,20.93,43.7a3.61,3.61,0,0,0-.66-2.254,2.1,2.1,0,0,0-1.754-.863,2.075,2.075,0,0,0-1.727.852A3.925,3.925,0,0,0,16.133,43.867Zm7.7-.164a4.952,4.952,0,0,1,.922-3.129,3.137,3.137,0,0,1,4.766-.168V36h1.445V48H29.641l-.07-.906a2.943,2.943,0,0,1-2.414,1.063,2.887,2.887,0,0,1-2.395-1.2,5.008,5.008,0,0,1-.926-3.141Zm1.445.164a3.749,3.749,0,0,0,.594,2.25,1.92,1.92,0,0,0,1.641.813A2.108,2.108,0,0,0,29.523,45.7V41.813a2.125,2.125,0,0,0-1.992-1.2,1.929,1.929,0,0,0-1.656.82A4.128,4.128,0,0,0,25.281,43.867Zm11.438,4.289a3.693,3.693,0,0,1-2.8-1.129,4.19,4.19,0,0,1-1.078-3.02v-.266a5.073,5.073,0,0,1,.48-2.246,3.748,3.748,0,0,1,1.344-1.547,3.378,3.378,0,0,1,1.871-.559A3.166,3.166,0,0,1,39.1,40.477a4.7,4.7,0,0,1,.914,3.109v.6H34.289a3,3,0,0,0,.73,2.02,2.3,2.3,0,0,0,1.777.77,2.517,2.517,0,0,0,1.3-.312,3.258,3.258,0,0,0,.93-.828l.883.688A3.55,3.55,0,0,1,36.719,48.156Zm-.18-7.578a1.928,1.928,0,0,0-1.469.637A3.1,3.1,0,0,0,34.336,43H38.57v-.109a2.753,2.753,0,0,0-.594-1.707A1.815,1.815,0,0,0,36.539,40.578ZM43.258,48H41.813V36h1.445Zm1.93-4.3a4.993,4.993,0,0,1,.488-2.234,3.643,3.643,0,0,1,1.359-1.531,3.7,3.7,0,0,1,1.988-.539,3.565,3.565,0,0,1,2.793,1.2,4.6,4.6,0,0,1,1.066,3.18v.1a5.036,5.036,0,0,1-.473,2.215,3.589,3.589,0,0,1-1.352,1.527,3.743,3.743,0,0,1-2.02.547,3.556,3.556,0,0,1-2.785-1.2A4.575,4.575,0,0,1,45.188,43.8Zm1.453.172a3.616,3.616,0,0,0,.652,2.258,2.211,2.211,0,0,0,3.5-.012,3.955,3.955,0,0,0,.648-2.418,3.61,3.61,0,0,0-.66-2.254,2.1,2.1,0,0,0-1.754-.863,2.075,2.075,0,0,0-1.727.852A3.925,3.925,0,0,0,46.641,43.867Zm11.969,3.375a.905.905,0,0,1,.223-.625.848.848,0,0,1,.668-.25.874.874,0,0,1,.676.25.887.887,0,0,1,.23.625.839.839,0,0,1-.23.6.89.89,0,0,1-.676.242.8.8,0,0,1-.891-.844Zm.008-6.9a.905.905,0,0,1,.223-.625.848.848,0,0,1,.668-.25.874.874,0,0,1,.676.25.887.887,0,0,1,.23.625.839.839,0,0,1-.23.6.89.89,0,0,1-.676.242.8.8,0,0,1-.891-.844Zm10.039-3.719,3.719,9.281,3.719-9.281h1.945V48h-1.5V43.57l.141-4.781L72.945,48H71.8L68.07,38.813l.148,4.758V48h-1.5V36.625ZM85.68,47.164a3.07,3.07,0,0,1-2.477.992,2.628,2.628,0,0,1-2.059-.785,3.4,3.4,0,0,1-.715-2.324v-5.5h1.445v5.461q0,1.922,1.563,1.922a2.163,2.163,0,0,0,2.2-1.234V39.547h1.445V48H85.711ZM94.2,45.758a1.064,1.064,0,0,0-.441-.91,4.249,4.249,0,0,0-1.539-.559,7.277,7.277,0,0,1-1.742-.562,2.479,2.479,0,0,1-.953-.781,1.869,1.869,0,0,1-.309-1.078,2.193,2.193,0,0,1,.879-1.758,3.432,3.432,0,0,1,2.246-.719,3.532,3.532,0,0,1,2.332.742,2.357,2.357,0,0,1,.895,1.9H94.117a1.3,1.3,0,0,0-.5-1.023,1.888,1.888,0,0,0-1.27-.43,1.976,1.976,0,0,0-1.234.344,1.082,1.082,0,0,0-.445.9.877.877,0,0,0,.414.789,5.1,5.1,0,0,0,1.5.508,7.8,7.8,0,0,1,1.754.578,2.558,2.558,0,0,1,1,.809,1.988,1.988,0,0,1,.324,1.152,2.163,2.163,0,0,1-.906,1.816,3.8,3.8,0,0,1-2.352.684,4.257,4.257,0,0,1-1.8-.359,2.922,2.922,0,0,1-1.223-1A2.42,2.42,0,0,1,88.93,45.4h1.445a1.5,1.5,0,0,0,.582,1.152,2.258,2.258,0,0,0,1.434.426,2.331,2.331,0,0,0,1.316-.332A1.02,1.02,0,0,0,94.2,45.758ZM99.492,37.5v2.047h1.578v1.117H99.492v5.242a1.171,1.171,0,0,0,.211.762.888.888,0,0,0,.719.254,3.5,3.5,0,0,0,.688-.094V48a4.19,4.19,0,0,1-1.109.156,1.8,1.8,0,0,1-1.461-.586,2.517,2.517,0,0,1-.492-1.664V40.664H96.508V39.547h1.539V37.5ZM107.977,48a3.036,3.036,0,0,1-.2-.891,3.225,3.225,0,0,1-2.406,1.047,2.984,2.984,0,0,1-2.051-.707,2.288,2.288,0,0,1-.8-1.793,2.39,2.39,0,0,1,1-2.051,4.733,4.733,0,0,1,2.824-.73h1.406v-.664A1.623,1.623,0,0,0,107.3,41a1.821,1.821,0,0,0-1.336-.449,2.107,2.107,0,0,0-1.3.391,1.151,1.151,0,0,0-.523.945h-1.453a2,2,0,0,1,.449-1.223,3.066,3.066,0,0,1,1.219-.934,4.1,4.1,0,0,1,1.691-.344,3.342,3.342,0,0,1,2.289.73,2.635,2.635,0,0,1,.859,2.012v3.891a4.757,4.757,0,0,0,.3,1.852V48Zm-2.4-1.1a2.54,2.54,0,0,0,1.289-.352,2.127,2.127,0,0,0,.883-.914V43.9h-1.133q-2.656,0-2.656,1.555a1.316,1.316,0,0,0,.453,1.063A1.742,1.742,0,0,0,105.578,46.9Zm7.25-7.352.047,1.063a3.08,3.08,0,0,1,2.531-1.219q2.68,0,2.7,3.023V48h-1.445V42.406a1.946,1.946,0,0,0-.418-1.352,1.675,1.675,0,0,0-1.277-.437,2.086,2.086,0,0,0-1.234.375,2.546,2.546,0,0,0-.828.984V48h-1.445V39.547Zm7.117,4.156a4.968,4.968,0,0,1,.914-3.145,3.151,3.151,0,0,1,4.836-.074l.07-.937h1.32V47.8a3.439,3.439,0,0,1-.973,2.586,3.589,3.589,0,0,1-2.613.945,4.348,4.348,0,0,1-1.789-.391,3.08,3.08,0,0,1-1.336-1.07l.75-.867a2.826,2.826,0,0,0,2.273,1.148,2.214,2.214,0,0,0,1.645-.594,2.269,2.269,0,0,0,.59-1.672v-.727a2.971,2.971,0,0,1-2.367,1,2.887,2.887,0,0,1-2.4-1.2A5.224,5.224,0,0,1,119.945,43.7Zm1.453.164a3.79,3.79,0,0,0,.586,2.246,1.9,1.9,0,0,0,1.641.816,2.117,2.117,0,0,0,2.008-1.242V41.828a2.142,2.142,0,0,0-1.992-1.211,1.921,1.921,0,0,0-1.648.82A4.128,4.128,0,0,0,121.4,43.867Z" transform="translate(1176 9219)" fill="#12263f"/>
    </g>
    <g id="Grupo_144949" data-name="Grupo 144949" transform="translate(440.299 9220.5)">
      <g id="Grupo_144706" data-name="Grupo 144706" clip-path="url(#clip-path-6)">
        <path id="Trazado_191827" data-name="Trazado 191827" d="M52.7,15.5a2.605,2.605,0,0,0-.63-1.6L39.67.722A2.663,2.663,0,0,0,36.28.528,2.422,2.422,0,0,0,36.3,3.919l8.719,9.252h-26.7a2.325,2.325,0,1,0,0,4.65h26.7L36.3,27.073a2.561,2.561,0,0,0-.024,3.391,2.628,2.628,0,0,0,3.391-.194l12.4-13.176a2.237,2.237,0,0,0,.63-1.6Z" transform="translate(0 0)" fill="#ffa726"/>
      </g>
    </g>
    <g id="Grupo_144950" data-name="Grupo 144950" transform="translate(1045.299 9220.5)">
      <g id="Grupo_144706-2" data-name="Grupo 144706" clip-path="url(#clip-path-6)">
        <path id="Trazado_191827-2" data-name="Trazado 191827" d="M52.7,15.5a2.605,2.605,0,0,0-.63-1.6L39.67.722A2.663,2.663,0,0,0,36.28.528,2.422,2.422,0,0,0,36.3,3.919l8.719,9.252h-26.7a2.325,2.325,0,1,0,0,4.65h26.7L36.3,27.073a2.561,2.561,0,0,0-.024,3.391,2.628,2.628,0,0,0,3.391-.194l12.4-13.176a2.237,2.237,0,0,0,.63-1.6Z" transform="translate(0 0)" fill="#ffa726"/>
      </g>
    </g>
    <path id="Trazado_192872" data-name="Trazado 192872" d="M.024,0,3.1-17.773l5.225.012a6.808,6.808,0,0,1,4.028,1.215,6.531,6.531,0,0,1,2.441,3.314,9.077,9.077,0,0,1,.378,3.979l-.085.745A10.5,10.5,0,0,1,13.5-4.175a9.09,9.09,0,0,1-3.235,3.046A8.816,8.816,0,0,1,5.994,0ZM6.714-14.465,4.773-3.3l1.221.012a4.162,4.162,0,0,0,3.448-1.66,9.3,9.3,0,0,0,1.544-5.078l.024-.4a4.85,4.85,0,0,0-.61-2.966,2.478,2.478,0,0,0-2.087-1.062ZM22.2.244a6.14,6.14,0,0,1-3.156-.836,5.269,5.269,0,0,1-2.094-2.295,6.166,6.166,0,0,1-.562-3.241l.037-.342A8.1,8.1,0,0,1,18.7-11.627a6.264,6.264,0,0,1,4.742-1.825,5.113,5.113,0,0,1,2.905.861,4.81,4.81,0,0,1,1.77,2.307,7.056,7.056,0,0,1,.366,3.3L28.247-5.31H20.386a2.575,2.575,0,0,0,.586,1.685,2.152,2.152,0,0,0,1.636.684,4.157,4.157,0,0,0,3.137-1.343l1.685,2.234A4.972,4.972,0,0,1,25.348-.385a7.292,7.292,0,0,1-2.924.629Zm.977-10.535a2.06,2.06,0,0,0-1.483.537,4.511,4.511,0,0,0-1.093,1.88h4.016l.073-.354a2.707,2.707,0,0,0,.024-.806A1.415,1.415,0,0,0,23.181-10.291ZM35.535.244a6.14,6.14,0,0,1-3.156-.836,5.269,5.269,0,0,1-2.094-2.295,6.166,6.166,0,0,1-.562-3.241l.037-.342a8.1,8.1,0,0,1,2.264-5.157,6.264,6.264,0,0,1,4.742-1.825,5.113,5.113,0,0,1,2.905.861,4.81,4.81,0,0,1,1.77,2.307,7.056,7.056,0,0,1,.366,3.3L41.577-5.31H33.716A2.575,2.575,0,0,0,34.3-3.625a2.152,2.152,0,0,0,1.636.684,4.157,4.157,0,0,0,3.137-1.343l1.685,2.234A4.972,4.972,0,0,1,38.678-.385a7.292,7.292,0,0,1-2.924.629Zm.977-10.535a2.06,2.06,0,0,0-1.483.537,4.511,4.511,0,0,0-1.093,1.88h4.016l.073-.354a2.707,2.707,0,0,0,.024-.806A1.415,1.415,0,0,0,36.511-10.291Zm18.835,3.7A10.971,10.971,0,0,1,54.26-2.9,6.038,6.038,0,0,1,52.2-.494a4.746,4.746,0,0,1-2.74.751,3.588,3.588,0,0,1-2.808-1.367l-1.2,6.189H41.443l3.174-18.286,3.711-.012-.208,1.257a3.882,3.882,0,0,1,3.137-1.489,3.7,3.7,0,0,1,3.009,1.379,6.1,6.1,0,0,1,1.154,3.7A14.269,14.269,0,0,1,55.347-6.592ZM51.44-8.228q-.061-2.014-1.367-2.051a2.367,2.367,0,0,0-2.112,1.038L47.021-4a1.63,1.63,0,0,0,1.685,1.086q2.136.037,2.625-3.674Q51.44-7.764,51.44-8.228ZM67.163-3.3H74.4L73.828,0H62.415l3.076-17.773h4.187Zm14.9,3.54a6.14,6.14,0,0,1-3.156-.836,5.269,5.269,0,0,1-2.094-2.295,6.166,6.166,0,0,1-.562-3.241l.037-.342a8.1,8.1,0,0,1,2.264-5.157A6.264,6.264,0,0,1,83.3-13.452a5.113,5.113,0,0,1,2.905.861,4.81,4.81,0,0,1,1.77,2.307,7.056,7.056,0,0,1,.366,3.3L88.11-5.31H80.249a2.575,2.575,0,0,0,.586,1.685,2.152,2.152,0,0,0,1.636.684,4.157,4.157,0,0,0,3.137-1.343l1.685,2.234A4.972,4.972,0,0,1,85.211-.385a7.292,7.292,0,0,1-2.924.629Zm.977-10.535a2.06,2.06,0,0,0-1.483.537,4.511,4.511,0,0,0-1.093,1.88h4.016l.073-.354a2.707,2.707,0,0,0,.024-.806A1.415,1.415,0,0,0,83.044-10.291ZM96.277,0a3.581,3.581,0,0,1-.171-1.2A4.074,4.074,0,0,1,92.871.244,3.981,3.981,0,0,1,90.015-.9a3.449,3.449,0,0,1-1.062-2.722,3.874,3.874,0,0,1,1.794-3.3,8.46,8.46,0,0,1,4.736-1.154l1.343.024.146-.745.049-.647A1.049,1.049,0,0,0,95.911-10.6a1.544,1.544,0,0,0-1.624,1.453l-4.028.012a3.826,3.826,0,0,1,.867-2.313,5.137,5.137,0,0,1,2.191-1.514,7.656,7.656,0,0,1,2.948-.494,5.9,5.9,0,0,1,2.631.629,3.916,3.916,0,0,1,1.691,1.648,4.21,4.21,0,0,1,.427,2.435l-.989,6.213-.061.757A3.336,3.336,0,0,0,100.2-.232L100.183,0ZM93.982-2.661a2.59,2.59,0,0,0,2.161-1.086l.4-2.124-1.038-.012a2.735,2.735,0,0,0-1.66.568,2.153,2.153,0,0,0-.818,1.483,1.081,1.081,0,0,0,.189.824A.966.966,0,0,0,93.982-2.661Zm17.371-6.824a11.49,11.49,0,0,0-1.245-.122,3.1,3.1,0,0,0-2.759,1.245L105.859,0h-4.016l2.295-13.208,3.748-.012-.305,1.733a3.667,3.667,0,0,1,3.052-2,5.755,5.755,0,0,1,1.245.171Zm5.737-3.735-.281,1.587a4.7,4.7,0,0,1,3.821-1.831,3.153,3.153,0,0,1,2.728,1.361,5.7,5.7,0,0,1,.653,3.79L122.62,0h-4.028L120-8.337a4.306,4.306,0,0,0,.024-.781q-.085-1.16-1.367-1.16a2.511,2.511,0,0,0-1.941.94L115.063,0h-4.016l2.295-13.208ZM129.163,0h-4.028l2.295-13.208h4.028Zm-1.379-16.541a1.862,1.862,0,0,1,.629-1.489,2.257,2.257,0,0,1,1.581-.6,2.33,2.33,0,0,1,1.569.537,1.831,1.831,0,0,1,.653,1.4,1.866,1.866,0,0,1-.623,1.5A2.264,2.264,0,0,1,130-14.6a2.359,2.359,0,0,1-1.556-.531A1.809,1.809,0,0,1,127.783-16.541Zm9.888,3.32-.281,1.587a4.7,4.7,0,0,1,3.821-1.831,3.153,3.153,0,0,1,2.728,1.361,5.7,5.7,0,0,1,.653,3.79L143.2,0h-4.028l1.4-8.337a4.306,4.306,0,0,0,.024-.781q-.085-1.16-1.367-1.16a2.511,2.511,0,0,0-1.941.94L135.645,0h-4.016l2.295-13.208Zm8.521,6.592a10.036,10.036,0,0,1,1.093-3.6,6.339,6.339,0,0,1,2.155-2.435,5.188,5.188,0,0,1,2.93-.8,3.607,3.607,0,0,1,3,1.428l.427-1.184,3.711.012-2.161,12.7a6.2,6.2,0,0,1-2.356,4.236A7.5,7.5,0,0,1,150.037,5.2a7.076,7.076,0,0,1-2.551-.525,5.5,5.5,0,0,1-2.112-1.514l1.9-2.368a3.457,3.457,0,0,0,2.759,1.379q2.673.049,3.394-2.844l.1-.4A4.13,4.13,0,0,1,150.513.244,4.072,4.072,0,0,1,148.279-.4a4.214,4.214,0,0,1-1.514-1.813,7.05,7.05,0,0,1-.623-2.637A11.463,11.463,0,0,1,146.191-6.628Zm3.967,1.306a3.2,3.2,0,0,0,.4,1.746,1.366,1.366,0,0,0,1.172.647,2.684,2.684,0,0,0,2.063-.879l1.038-5.6a1.779,1.779,0,0,0-1.636-.879,2.337,2.337,0,0,0-1.965.995,5.363,5.363,0,0,0-1,2.679Q150.159-5.847,150.159-5.322Z" transform="translate(262 9148)" fill="#ffa726"/>
    <path id="Trazado_192873" data-name="Trazado 192873" d="M3.584,0H.244L2.715-14.219h3.33ZM17.5,0H14.268l-3.4-8.975L9.307,0H5.967L8.428-14.219h3.262l3.389,8.975,1.553-8.975h3.34Zm6.367-4.824L23.027,0h-3.34l2.461-14.219,5.107.01a5.145,5.145,0,0,1,3.735,1.318,4.065,4.065,0,0,1,1.2,3.418,4.65,4.65,0,0,1-.918,2.49,5.085,5.085,0,0,1-2.114,1.611,7.476,7.476,0,0,1-2.944.557Zm.459-2.646,2.012.02a2.485,2.485,0,0,0,1.943-.825,2.453,2.453,0,0,0,.537-1.958,1.5,1.5,0,0,0-.454-.942,1.557,1.557,0,0,0-.991-.386l-2.334-.01Zm21.426-6.748L44.17-4.941a5.834,5.834,0,0,1-1.987,3.8A6.057,6.057,0,0,1,38.037.205a5.654,5.654,0,0,1-2.7-.669,3.919,3.919,0,0,1-1.685-1.807,4.861,4.861,0,0,1-.366-2.661l1.582-9.287h3.359l-1.572,9.3a4.465,4.465,0,0,0-.02.928,1.675,1.675,0,0,0,.454,1.123,1.662,1.662,0,0,0,1.147.43q2.148.068,2.588-2.49l1.582-9.287Zm12.5,2.646H54.111L52.109,0H48.76l2.012-11.572H46.7l.469-2.646H58.711Z" transform="translate(295 9348)" fill="#12263f"/>
    <path id="Trazado_192876" data-name="Trazado 192876" d="M5.889.2A4.816,4.816,0,0,1,2.334-1.27,5.966,5.966,0,0,1,.82-5.059a10.831,10.831,0,0,1,.186-2.759,9.693,9.693,0,0,1,1.006-2.925,7.361,7.361,0,0,1,1.807-2.227A6.179,6.179,0,0,1,8-14.414a5.141,5.141,0,0,1,2.544.669A4.666,4.666,0,0,1,12.285-11.9a6.612,6.612,0,0,1,.762,2.734A11.208,11.208,0,0,1,12.915-6.7a10.162,10.162,0,0,1-.771,2.637,8.059,8.059,0,0,1-1.45,2.212A6.671,6.671,0,0,1,8.6-.337,6.059,6.059,0,0,1,5.889.2ZM9.7-9.2Q9.6-11.641,7.8-11.738a2.615,2.615,0,0,0-2.295,1.1A7.053,7.053,0,0,0,4.307-7.2,12.017,12.017,0,0,0,4.17-5.02q.1,2.48,1.914,2.549a2.536,2.536,0,0,0,2.051-.854,5.527,5.527,0,0,0,1.24-2.656A12.76,12.76,0,0,0,9.7-9.2Zm17.158-5.02L25.273-4.941a5.834,5.834,0,0,1-1.987,3.8A6.057,6.057,0,0,1,19.141.205a5.654,5.654,0,0,1-2.7-.669,3.919,3.919,0,0,1-1.685-1.807,4.861,4.861,0,0,1-.366-2.661l1.582-9.287h3.359l-1.572,9.3a4.465,4.465,0,0,0-.02.928A1.675,1.675,0,0,0,18.2-2.871a1.662,1.662,0,0,0,1.147.43q2.148.068,2.588-2.49l1.582-9.287Zm12.5,2.646H35.215L33.213,0h-3.35l2.012-11.572H27.8l.469-2.646H39.814Zm3.652,6.748L42.168,0h-3.34l2.461-14.219,5.107.01a5.145,5.145,0,0,1,3.735,1.318,4.065,4.065,0,0,1,1.2,3.418,4.65,4.65,0,0,1-.918,2.49A5.085,5.085,0,0,1,48.3-5.371a7.476,7.476,0,0,1-2.944.557Zm.459-2.646,2.012.02a2.485,2.485,0,0,0,1.943-.825,2.453,2.453,0,0,0,.537-1.958,1.5,1.5,0,0,0-.454-.942,1.557,1.557,0,0,0-.991-.386l-2.334-.01Zm21.426-6.748L63.311-4.941a5.834,5.834,0,0,1-1.987,3.8A6.057,6.057,0,0,1,57.178.205a5.654,5.654,0,0,1-2.7-.669A3.919,3.919,0,0,1,52.8-2.271a4.861,4.861,0,0,1-.366-2.661l1.582-9.287h3.359L55.8-4.922a4.465,4.465,0,0,0-.02.928,1.675,1.675,0,0,0,.454,1.123,1.662,1.662,0,0,0,1.147.43q2.148.068,2.588-2.49l1.582-9.287Zm12.5,2.646H73.252L71.25,0H67.9l2.012-11.572H65.84l.469-2.646H77.852Z" transform="translate(1213 9351)" fill="#12263f"/>
    <path id="Trazado_192874" data-name="Trazado 192874" d="M11.934-4.844a5.127,5.127,0,0,1-.981,2.656A5.551,5.551,0,0,1,8.706-.4,6.954,6.954,0,0,1,5.693.2,4.683,4.683,0,0,1,2.188-1.24,5.77,5.77,0,0,1,.791-5a12.245,12.245,0,0,1,.347-3.447,9.112,9.112,0,0,1,1.416-3.247,6.506,6.506,0,0,1,2.314-2.07,6.008,6.008,0,0,1,2.915-.659,5.086,5.086,0,0,1,3.677,1.4,5.467,5.467,0,0,1,1.47,3.74L9.6-9.3a2.739,2.739,0,0,0-.469-1.855,2.058,2.058,0,0,0-1.543-.6q-2.637-.088-3.213,4.1a22.537,22.537,0,0,0-.264,2.705q-.049,2.4,1.777,2.471a2.609,2.609,0,0,0,1.885-.581,2.906,2.906,0,0,0,.9-1.753ZM21.2-2.656H16.66L15.4,0H11.719l7.529-14.219h3.145L25.02,0H21.543ZM17.91-5.3h2.949l-.625-4.9Zm14.326.283H30.381L29.5,0h-3.34l2.461-14.219,5.02.01a5.511,5.511,0,0,1,3.716,1.128A3.511,3.511,0,0,1,38.525-10a4.6,4.6,0,0,1-.889,2.554,5.232,5.232,0,0,1-2.187,1.6L37.363-.166V0H33.8ZM30.83-7.666l1.953.02a2.465,2.465,0,0,0,1.392-.391,2.151,2.151,0,0,0,.845-1.069,2.507,2.507,0,0,0,.146-1.313,1.31,1.31,0,0,0-1.387-1.143l-2.266-.01Z" transform="translate(1174 9196)" fill="#12263f"/>
    <path id="Trazado_192875" data-name="Trazado 192875" d="M11.553,0H8.32l-3.4-8.975L3.359,0H.02L2.48-14.219H5.742L9.131-5.244l1.553-8.975h3.34Zm8.057.2A4.816,4.816,0,0,1,16.055-1.27a5.966,5.966,0,0,1-1.514-3.789,10.831,10.831,0,0,1,.186-2.759,9.693,9.693,0,0,1,1.006-2.925,7.361,7.361,0,0,1,1.807-2.227,6.179,6.179,0,0,1,4.18-1.445,5.141,5.141,0,0,1,2.544.669A4.666,4.666,0,0,1,26.006-11.9a6.612,6.612,0,0,1,.762,2.734A11.207,11.207,0,0,1,26.636-6.7a10.162,10.162,0,0,1-.771,2.637,8.059,8.059,0,0,1-1.45,2.212A6.671,6.671,0,0,1,22.319-.337,6.059,6.059,0,0,1,19.609.2ZM23.418-9.2q-.1-2.441-1.895-2.539a2.615,2.615,0,0,0-2.295,1.1,7.053,7.053,0,0,0-1.2,3.442,12.017,12.017,0,0,0-.137,2.178q.1,2.48,1.914,2.549a2.536,2.536,0,0,0,2.051-.854A5.527,5.527,0,0,0,23.1-5.981,12.76,12.76,0,0,0,23.418-9.2Zm15.84-2.373H35.117L33.115,0h-3.35l2.012-11.572H27.705l.469-2.646H39.717ZM54.99-4.844a5.127,5.127,0,0,1-.981,2.656A5.551,5.551,0,0,1,51.763-.4,6.954,6.954,0,0,1,48.75.2,4.683,4.683,0,0,1,45.244-1.24,5.77,5.77,0,0,1,43.848-5a12.245,12.245,0,0,1,.347-3.447,9.112,9.112,0,0,1,1.416-3.247,6.506,6.506,0,0,1,2.314-2.07,6.008,6.008,0,0,1,2.915-.659,5.086,5.086,0,0,1,3.677,1.4,5.467,5.467,0,0,1,1.47,3.74l-3.33-.01a2.739,2.739,0,0,0-.469-1.855,2.058,2.058,0,0,0-1.543-.6q-2.637-.088-3.213,4.1a22.537,22.537,0,0,0-.264,2.705q-.049,2.4,1.777,2.471a2.609,2.609,0,0,0,1.885-.581,2.906,2.906,0,0,0,.9-1.753Zm9.268,2.188H59.717L58.457,0H54.775L62.3-14.219h3.145L68.076,0H64.6ZM60.967-5.3h2.949l-.625-4.9Zm14.326.283H73.438L72.559,0h-3.34L71.68-14.219l5.02.01a5.511,5.511,0,0,1,3.716,1.128A3.511,3.511,0,0,1,81.582-10a4.6,4.6,0,0,1-.889,2.554,5.232,5.232,0,0,1-2.187,1.6L80.42-.166V0H76.855ZM73.887-7.666l1.953.02a2.465,2.465,0,0,0,1.392-.391,2.151,2.151,0,0,0,.845-1.069,2.507,2.507,0,0,0,.146-1.313,1.31,1.31,0,0,0-1.387-1.143l-2.266-.01Z" transform="translate(1176 9292)" fill="#fff"/>
  </g>
</svg>
