<svg xmlns="http://www.w3.org/2000/svg" xmlns:xlink="http://www.w3.org/1999/xlink" width="690" height="325" viewBox="0 0 690 325">
  <defs>
    <clipPath id="clip-path">
      <rect id="Rectángulo_43765" data-name="Rectángulo 43765" width="99.185" height="122.001" fill="none"/>
    </clipPath>
    <clipPath id="clip-path-2">
      <rect id="Rectángulo_43766" data-name="Rectángulo 43766" width="117.06" height="117.061" transform="translate(0 0)" fill="none"/>
    </clipPath>
    <clipPath id="clip-path-3">
      <rect id="Rectángulo_43767" data-name="Rectángulo 43767" width="90.476" height="97.35" transform="translate(0 0)" fill="none"/>
    </clipPath>
    <clipPath id="clip-path-4">
      <rect id="Rectángulo_43750" data-name="Rectángulo 43750" width="165.632" height="31" transform="translate(-112.931)" fill="#ffa726"/>
    </clipPath>
  </defs>
  <g id="Grupo_144942" data-name="Grupo 144942" transform="translate(-456 -6945)">
    <rect id="Rectángulo_43771" data-name="Rectángulo 43771" width="690" height="325" rx="12" transform="translate(456 6945)" fill="#fff"/>
    <g id="Grupo_144737" data-name="Grupo 144737" transform="translate(571.907 7008.119)">
      <g id="Grupo_144736" data-name="Grupo 144736" clip-path="url(#clip-path)">
        <path id="Trazado_191829" data-name="Trazado 191829" d="M67.614,165.074H37.824A31.12,31.12,0,0,0,6.8,194.347H98.643a31.12,31.12,0,0,0-31.029-29.273" transform="translate(-3.127 -75.963)" fill="#b3e2f1"/>
        <path id="Trazado_191830" data-name="Trazado 191830" d="M51.21,32.109H54.9q2.672,0,5.345.015c4.039.016,8.216.032,12.332-.03l.175,0A12.1,12.1,0,0,1,84.505,42.231a11.747,11.747,0,0,1,.074,3.416c-.815,6.539-1.733,13.252-2.73,19.951q-.177,1.189-.357,2.378l-.043.286a11.764,11.764,0,0,1-10.407,9.512c-.842.067-1.69.1-2.522.1l-3.686,0c-10.445.006-21.246.013-31.868,0a11.811,11.811,0,0,1-9.655-4.53,13.173,13.173,0,0,1-2.674-6.989l-.1-.727c-.792-6.013-1.658-12.475-2.619-18.99a13.766,13.766,0,0,1,.05-4.4,11.944,11.944,0,0,1,8.638-9.721A13.342,13.342,0,0,1,29.9,32.13c2.783-.022,5.6-.028,8.386-.028,1.547,0,3.086,0,4.606,0q2.321,0,4.641,0ZM45.882,9.384a5.768,5.768,0,1,1,5.769,5.769,5.775,5.775,0,0,1-5.769-5.769M88.167,46.1a15.169,15.169,0,0,0,.11-2.357H89.1a6.206,6.206,0,0,1,6.2,6.2v7.921a6.206,6.206,0,0,1-6.2,6.2H85.732c.883-6.037,1.7-12.07,2.436-17.962m-75,17.962a6.206,6.206,0,0,1-6.2-6.2V49.937a6.206,6.206,0,0,1,6.2-6.2h1.01a17.554,17.554,0,0,0,.17,3.429c.85,5.76,1.626,11.485,2.342,16.89Zm34.37-35.564q-2.318,0-4.637,0c-4.268-.005-8.682-.01-13.024.024a16.913,16.913,0,0,0-4.191.512,15.414,15.414,0,0,0-10.941,11.1H13.165A9.826,9.826,0,0,0,3.35,49.937v7.921a9.826,9.826,0,0,0,9.815,9.815h4.013a16.228,16.228,0,0,0,3.335,7.961A15.425,15.425,0,0,0,32.961,81.49c5.014.008,10.068.011,15.106.011,5.637,0,11.253,0,16.77-.007l3.685,0c.925,0,1.87-.038,2.81-.113A15.3,15.3,0,0,0,85.024,68.8l.044-.288c.043-.281.084-.562.126-.843H89.1a9.826,9.826,0,0,0,9.815-9.815V49.937A9.826,9.826,0,0,0,89.1,40.121H87.737A16.008,16.008,0,0,0,82.87,32.3a15.3,15.3,0,0,0-10.351-3.825c-4.081.063-8.242.046-12.264.03L57.1,28.5c-.038,0-.076,0-.114,0h-3.96V18.667a9.387,9.387,0,1,0-3.617-.17v10Z" transform="translate(-1.542)" fill="#2b3e60"/>
        <path id="Trazado_191831" data-name="Trazado 191831" d="M57.989,86.343h-.012a5.23,5.23,0,0,1-5.28-5.29h0a5.315,5.315,0,0,1,1.589-3.8,5.234,5.234,0,0,1,3.7-1.526h.055a5.308,5.308,0,1,1-.056,10.617m8.96-5.239a8.805,8.805,0,0,0-2.582-6.309,8.917,8.917,0,0,0-6.285-2.684h-.093a8.924,8.924,0,1,0-.02,17.849h.021a8.977,8.977,0,0,0,8.96-8.855" transform="translate(-22.585 -33.183)" fill="#2b3e60"/>
        <path id="Trazado_191832" data-name="Trazado 191832" d="M111,75.976h.023a5.162,5.162,0,0,1,3.664,1.528,5.236,5.236,0,0,1-3.7,8.954h-.016a5.21,5.21,0,0,1-3.718-1.571,5.147,5.147,0,0,1-1.508-3.692A5.3,5.3,0,0,1,111,75.976m-.035,14.1h.026a8.857,8.857,0,0,0,.033-17.714h-.039a8.928,8.928,0,0,0-8.85,8.8,8.871,8.871,0,0,0,8.831,8.918" transform="translate(-46.999 -33.298)" fill="#2b3e60"/>
        <path id="Trazado_191833" data-name="Trazado 191833" d="M3.668,191.264A31.12,31.12,0,0,1,34.7,161.991h29.79a31.12,31.12,0,0,1,31.029,29.273Zm60.819-32.889H34.7A34.737,34.737,0,0,0,0,193.072a1.808,1.808,0,0,0,1.808,1.808H97.376a1.808,1.808,0,0,0,1.808-1.808,34.737,34.737,0,0,0-34.7-34.7" transform="translate(0 -72.88)" fill="#2b3e60"/>
        <path id="Trazado_191834" data-name="Trazado 191834" d="M74.164,125.893a1.808,1.808,0,0,0,1.808,1.808H92.5a1.808,1.808,0,0,0,0-3.616H75.972a1.808,1.808,0,0,0-1.808,1.808" transform="translate(-34.128 -57.101)" fill="#2b3e60"/>
      </g>
    </g>
    <g id="Grupo_144739" data-name="Grupo 144739" transform="translate(932.589 7021.709)">
      <g id="Grupo_144738" data-name="Grupo 144738" transform="translate(0 -0.001)" clip-path="url(#clip-path-2)">
        <path id="Trazado_191835" data-name="Trazado 191835" d="M117.06,58.529A58.53,58.53,0,1,1,58.53,0a58.53,58.53,0,0,1,58.53,58.53" transform="translate(0 0.001)" fill="#4aadd2"/>
        <path id="Trazado_191836" data-name="Trazado 191836" d="M1137.77,905.916c-.453.031-.72.785-1,1.159a6.668,6.668,0,0,1-2.092,1.863,2.716,2.716,0,0,0-1.384,2.7,10.042,10.042,0,0,1-.707,2.835,2.457,2.457,0,0,0,.1,1.648c.333.814.768.348,1.2.858v.066c1.052,1.153,2.376-2.459,2.688-3.049a11.408,11.408,0,0,0,.922-2.16,12,12,0,0,0,.095-2.7c.542.918.57-.894.517-1.263a11.589,11.589,0,0,0-.344-1.964" transform="translate(-1044.274 -835.348)" fill="#005689"/>
        <path id="Trazado_191837" data-name="Trazado 191837" d="M658.471,118.513c-.478.332-.912.87-1.419.394-.4-.372-.328-1.153-1.136-.725-.605.32-.247.816-.525,1.317s-.816.493-1.242.809c-.511.38-.512.578-1.2.509-.464-.047-1.278-.13-.911-.774.29-.513,2.722.126,2.291-1.2-.219-.674-1.987-1.121-2.571-1.238-.543-.109-1.1-.108-1.648-.211a3.044,3.044,0,0,1-1.187-.531,4.575,4.575,0,0,0-3.032-.062,18.325,18.325,0,0,0-2.886.738c-.932.359-1.641,1.419-2.337,2.094-.723.7-1.538,1.231-2.309,1.9a5.432,5.432,0,0,1-1.435.859c-.465.226-.852.429-.855,1.005a3.658,3.658,0,0,0,.575,1.454c.374.678.564.613,1.22.344,1.066-.438,1.8-.34,2.359.837.212.446-.073,1.3.348,1.637.306.242.976-.07,1.236-.366.369-.419.142-.743.31-1.218a6.641,6.641,0,0,1,1.024-1.373c.452-.614.218-.543.112-1.18a1.88,1.88,0,0,1,.382-1.39c.346-.384.781-.52,1.123-.922.241-.283.97-.966,1.452-.448.463.5-1.347,1.859-1.438,2.492-.208,1.417,1.406,1.273,2.308,1.058.45-.107,1.174-.574,1.651-.4.609.218.474.693-.069.794-.454.085-1.179-.217-1.648.015-.642.318-.043.7-.142,1.228-.527.066-.877-.454-1.374-.323-.641.168-.459.872-.462,1.388-.01,1.7-1.334.542-2.439.791-.645.146-.79.531-1.45.46a5.444,5.444,0,0,1-1.384-.11c-.764-.3-.506-.661-.4-1.207a3.534,3.534,0,0,0-.209-1.44c-.734-.124-1.324,1.108-1.245,1.7.135,1.015.525,1.27-.788,1.319-1.17.043-1.535,1-2.435,1.648a17.422,17.422,0,0,1-2.493,1.73c-.431.206-2.983-.262-2.011,1.04.623.835,1.737.962,1.665,2.305-.075,1.394-1.5.712-2.506.659a2.73,2.73,0,0,0-1.583.262c-.551.39-.368.8-.458,1.386-.15.976-.72,1.836-.4,2.835.4,1.26,1.751-.237,2.109,1.253l.33-.264c.231.334,1.211.05,1.584-.064,1.087-.332,1.388-1.282,2.057-2.1.364-.444.843-.539,1.242-.939.514-.516.189-.924.455-1.453.289-.574.831-.159,1.32-.128.789.049.695-.294,1.2-.641.657-.447,2.024.367,2.608.857a16.54,16.54,0,0,1,2.338,1.812.886.886,0,0,1-.08,1.267c-.342.265-1.254-.288-1.392.266-.076.3.754.838.977.875.495.082.738-.284,1.12-.628a1.129,1.129,0,0,0,.481-1.172c-.06-.754-.14-.685.715-.733-.063-.481-.712-.527-1.063-.7-.466-.228-.523-.46-.857-.789-.54-.532-1.855-1.078-1.966-1.928-.2-1.5,1.776.03,2.164.344.765.622,1.921,1.133,2.4,2.026.279.514.171,1.1.431,1.6.2.387.6.633.758,1.037.179.456.1,1.205.774,1.258.816.063.425-.682.339-1.113.741.117.438-.331.3-.653-.194-.467-.535-.764-.116-1.272.624-.754,1.638-.187,2.374-.128,2.03.163-.041-1.241.28-2.1.251-.669,1.267-2.03,1.965-1.995a2.182,2.182,0,0,1,.739.249c.182.159.052.4.229.56.491.447.907-.084,1.467-.2.91-.187,1.945.683,2.686,1.124.816.487,2.431,1.031,1.2,1.979-.956.74-1.942-.009-3.1.048a10.112,10.112,0,0,1-1.582.132,4.437,4.437,0,0,0-1.65-.067c-.466.123-.8.517-1.249.663-.645.21-1.077-.153-.973.593.15,1.073.467,1.976,1.7,1.976,1.058,0,2.1-.222,3.165-.264.825-.033.91.083.806.806a11.737,11.737,0,0,0-.147,1.568c-.011,1.048-.021,2.218-1.319,2.308-1.068.074-2.242-.132-3.362-.132a5.817,5.817,0,0,1-1.6-.117,10.56,10.56,0,0,0-1.5-.461,3.667,3.667,0,0,0-1.652.048c-.28.2-.059.453-.26.665s-.316.122-.593.195c-1.3.343-1.458-.438-2.436-1.005-.49-.284-1.054-.408-1.52-.727s-.435-.7-.775-1.119c-.183-.223-.5-.3-.614-.577-.093-.221.093-.564,0-.791-.248-.638-.775-.3-1.388-.392a15.78,15.78,0,0,0-3.1-.084,6.8,6.8,0,0,0-2.773.985,3.083,3.083,0,0,1-1.381.546c-.467-.016-.758-.39-1.253-.4-1.08-.013-1.574,1.054-2.225,1.782-.278.31-.785.563-1.007.905-.311.48-.056,1.018-.246,1.534-.344.936-1.473,1.037-1.994,1.779l-.263.329c-.421.537-1.019.569-1.4,1.118a18.114,18.114,0,0,0-.9,2.179,7.3,7.3,0,0,0-.6.985c-.081.392.213.655.32.992a3.154,3.154,0,0,1-.051,2.256c-.231.547-.163,1.121-.394,1.633-.267.591-.511.769-.413,1.517.164,1.263,1.593,1.887,2.423,2.719.876.878,2.084,1.227,2.52,2.437.342.948.17,1.3,1.255,1.239.615-.036,1.23-.264,1.845-.267.565,0,1.018.2,1.582.2a5.987,5.987,0,0,0,2.3-.542c1.066-.452,2.264-1.055,3.171-.051.5.549.71.955,1.448,1.106.646.132.894.07,1.269.659.728,1.144-.255,2.24.046,3.443.248.99,1.4,1.851,1.932,2.7.347.559.152,1.031.262,1.65a13.925,13.925,0,0,0,.694,1.678c.4,1.259-.5,2.18-.694,3.335a13.126,13.126,0,0,0-.345,2.16,9.569,9.569,0,0,0,.345,1.727,5.176,5.176,0,0,0,.529,1.766c.293.48.835.833.974,1.4.262,1.064-.037,2.248.341,3.282.188.514.574.731.862,1.133a8.616,8.616,0,0,1,.628,1.322c.42.871-.076,2.2.936,2.57l.33.725a3.024,3.024,0,0,0,1.4-.377c.606-.282.833-.113,1.5-.149a5.647,5.647,0,0,0,2.767-1.466,8.683,8.683,0,0,0,2.326-2.212,2.92,2.92,0,0,0,.447-1.465c0-.474-.323-.952,0-1.383a.18.18,0,0,1,.009-.123c.769-.427,2.193-.678,2.036-1.989-.067-.563-.6-.837-.531-1.451a3.314,3.314,0,0,1,.857-1.465,7.222,7.222,0,0,1,1.37-1.518c.5-.351,1.036-.457,1.381-.973.7-1.054.322-2.2.495-3.363.124-.835,0-.78-.4-1.52a1.755,1.755,0,0,1-.228-1.4c.095-.26.346-.188.348-.577,0-.272-.287-.355-.332-.592-.11-.563.232-.96.413-1.436a4.617,4.617,0,0,1,.629-1.4,10.509,10.509,0,0,1,1.269-1.251c.932-.857,1.634-1.887,2.639-2.655,1.622-1.239,2.276-3.795,2.649-5.7.1-.528.462-1.04-.082-1.267a2.007,2.007,0,0,0-1.467.247,6.132,6.132,0,0,1-2.95,1.005c-1.158-.069-1.7-1.012-1.923-2.032-.454-.25-.525-.676-.846-1.053s-.786-.535-1.055-.936-.274-.938-.542-1.318c-.387-.549-.666-.562-.776-1.253a3.592,3.592,0,0,0-.312-1.516c-.319-.513-.764-.494-1.156-.841-.984-.874-.83-1.944-1.186-3.049-.176-.537-.932-2.41-.329-2.825.44.513.6.788,1.155.6.606-.208.63-.495,1.037.251a8.988,8.988,0,0,0,1.3,2.192A9.034,9.034,0,0,1,658.635,152a11.145,11.145,0,0,1,.381,1.649c.148.567.441.638.873,1.037a4.549,4.549,0,0,1,1.632,2.389c.116.937-.419,2.4,1.055,2.373.964-.019,2.1-.777,3.029-1.059,1.318-.4,1.781-1.228,2.758-2.187.864-.848,1.766-1.444,2.058-2.622.076-.305.02-.443.195-.727s.586-.339.531-.788c-.046-.368-.63-.739-.906-1.006-.334-.321-.6-.7-.871-.976-.513-.518-.59-.237-.925.267-.506.761-2.178,1.146-2.817.311-.414-.541-.115-1.015-.875-1.415-.534-.282-1.016-.257-1.19-.94-.221-.865-.272-2.875,1.128-1.994.416.262.505.723.771,1.086a7.019,7.019,0,0,0,1.22,1.288c.84.652,1.951.167,2.7.921.418.419.427.523,1.036.678.441.112.95.291,1.4.381,1.173.234,2.225-.61,3.412-.513a3.234,3.234,0,0,1,2.179,1.315c.344.442.167.915.575,1.34.292.3.97.779,1.388.7.1-.4.276-.848.737-.72.769.214.6,1.311.659,1.85.115,1.193,1.126,2.5,1.6,3.626a22.542,22.542,0,0,1,.806,3.659c.209.883,1.59,1.361,1.682.923.115-.545.812-.771.992-1.282a9.706,9.706,0,0,0-.069-3.234,3.312,3.312,0,0,1,1.6-2.487c.246-.167.506-.326.739-.514A58.557,58.557,0,0,0,663.3,117.49a11.688,11.688,0,0,1-1.516.363c-1.26.124-2.216-.105-3.313.66" transform="translate(-572.035 -107.487)" fill="#005689"/>
        <path id="Trazado_191838" data-name="Trazado 191838" d="M1455.839,702.236v.066c-.219.26-.129.616-.238.916-.092.255-.332.414-.495.632-.237.316-.466,1.122-.057,1.378s.807-.32,1.045-.593c.331-.379.591-.728.4-1.212-.112-.291-.359-1.085-.66-1.186" transform="translate(-1341.499 -647.534)" fill="#005689"/>
        <path id="Trazado_191839" data-name="Trazado 191839" d="M703.354,262.926c.172.36.743.263.732.641v.049h.3c.509-.418,1.454-.633,1.632-1.385a3.105,3.105,0,0,1,.111-.594c.094-.21.266-.172.284-.444.034-.509-.5-.575-.853-.408-.309.148-.482.494-.741.691-.378.29-.875.168-1.237.446a.923.923,0,0,0-.225,1" transform="translate(-648.504 -240.396)" fill="#005689"/>
        <path id="Trazado_191840" data-name="Trazado 191840" d="M644.391,149.358c0,.016,1.088-.017,1.088,0h.3c.509-.418,2.337-.336,2.515-1.088.048-.2-.086-.543,0-.742s-.508-.321-.49-.593c.034-.508-.5-.575-.853-.408-.309.148-.483.494-.741.691-.378.29-.875.168-1.237.446-.227.174-1.475.712-1.313,1.052.172.361.742.264.732.642" transform="translate(-593.507 -135.037)" fill="#005689"/>
        <path id="Trazado_191841" data-name="Trazado 191841" d="M742.094,226.9l.3.2c.144-.209.768-.1,1.049-.187.362-.11.582-.461.941-.592.258-.094.976.089,1.164-.072.406-.347-.312-.648-.386-.93-.046-.172.166-.322.1-.544-.083-.279-.159-.16-.335-.308s-.6-.384-.643-.691c-.051-.33.194-.3.25-.521.072-.276-.021-.2-.063-.458-.045-.278-.07-.2-.011-.445.047-.195.262-.235.21-.494-.1-.493-.723-.186-.947-.6.281-.149.57-.532.19-.828-.3-.232-.84.071-1.074.286a2.1,2.1,0,0,0-.409,2.289c.186.312.542.4.607.778.062.358-.2.657-.258.989-.062.349.1.816-.1,1.126-.277.432-.528.413-.582,1" transform="translate(-684.287 -203.181)" fill="#005689"/>
        <path id="Trazado_191842" data-name="Trazado 191842" d="M417.167,36.961a3.214,3.214,0,0,1,1.434.645c.638.485.188.551.148,1.136-.048.673.551.408.89.655.587.426-.266.45-.586.54-.021.421.061.642-.254.894-.285.228-.551.245-.791.581a3.836,3.836,0,0,0-.593,2.176c-.03.65.546,3.92,1.533,3.412l.346-.1c.511,1.194,1.815.294,2.327-.308a7.419,7.419,0,0,1,.826-1.039c.365-.307.827-.512,1.2-.816A5.792,5.792,0,0,0,424.5,43.7a1.761,1.761,0,0,1,1.176-.543,5.389,5.389,0,0,0,2.524-.7,4.192,4.192,0,0,1,2.754-.989c.6-.029,2.315-.033,2.6-.73.142-.349-.287-.68.232-.9.394-.17.849.3,1.036-.15s-.515-.612-.358-1.036.851-.207,1.2-.247c.826-.094.858-.705.9-1.426a.89.89,0,0,0,.635-.849c.071-.566.09-.779.643-1.089.7-.4,1.524-.491,2.188-.888.19-.114.783-.47.683-.744s-.89-.156-1.14-.148c-1.118.036-2.213.5-3.361.447-2.079-.1-4.02-.939-6.12-.941a12.808,12.808,0,0,0-3.979.544,19.155,19.155,0,0,1-3.784.645,13.578,13.578,0,0,1-1.8.245,4.591,4.591,0,0,0-.881.087q-2.414.953-4.717,2.114c.04.036.083.073.133.112a4,4,0,0,0,2.112.454" transform="translate(-382.601 -30.209)" fill="#005689"/>
        <path id="Trazado_191843" data-name="Trazado 191843" d="M283.734,116.419a2.776,2.776,0,0,0-.624.546.6.6,0,0,1-.618.3h-.2l-.519-.148a3.028,3.028,0,0,0-.84-.2c-.328-.029-.45.119-.7.3-.693.5.117.766.669.766.68,0,1.152-.076,1.661.421a4.828,4.828,0,0,0,1.409,1.137c.212.093.795.377,1.014.224.335-.234-.091-.58-.107-.793-.018-.255.3-.209.5-.179.347.053.56.072.793-.26.424-.6.164-.939-.069-1.561a.391.391,0,0,1,.414-.546c.339.037.4.5.691.644.76.377,2.142-.779,1.009-1.189-.482-.175-1.1-.159-1.355-.661-.215-.419-.05-.524.2-.845.427-.541-.591-1.072-1.263-1.338q-1.13.7-2.226,1.456a2.786,2.786,0,0,0,.194.3c.42.535.54,1.175-.044,1.631" transform="translate(-258.16 -104.225)" fill="#005689"/>
        <path id="Trazado_191844" data-name="Trazado 191844" d="M331.053,289.358c-.522.622-.8,1.469-1.55,1.855-.319.164-.632.222-.857.518s-.282.539.066.657a1.543,1.543,0,0,0,.857,0c.265-.107.45-.363.766-.392a2.4,2.4,0,0,1,.784.167c.263.084.445.308.692.4.808.284.571-.438.659-.89a7.288,7.288,0,0,1,.139-.786c.076-.224.411-.466-.072-.469-.2,0-.336.151-.5.2l-.263.165c-.678.185-.89-.525-.488-.98.136-.154.513-.315.424-.6-.041-.131-.107-.18-.184-.18a1.434,1.434,0,0,1-.345.2c-.053.052-.1.1-.132.144" transform="translate(-302.881 -266.5)" fill="#005689"/>
        <path id="Trazado_191845" data-name="Trazado 191845" d="M46.573,216.974c1.483.2,1.005,1.537,1.121,2.638.169,1.606,1.7,1.592,1.994.015.12-.651-.154-1.209-.082-1.862.088-.8.508-1.092,1.039-1.645a16.08,16.08,0,0,1,1.846-1.849,5.533,5.533,0,0,0,1.6-1.845,8.929,8.929,0,0,1,3.247-3.216,10.289,10.289,0,0,0,1.711-1.2,8.8,8.8,0,0,1,1.439-1.2,6.764,6.764,0,0,1,1.568-.768c-.218,1.087.326,1.164,1.247.9.78-.225,2.222-.22,1.137-1.088-.392-.313-.667-.242-.527-.939.066-.332.552-.843.4-1.187-.268-.606-1.944-.249-2.5-.274-.273-1.25,2.187-.869,2.825-.847a6.48,6.48,0,0,0,1.648,0,6.687,6.687,0,0,0,1.516-.741c.44-.23.973-.315,1.385-.49a1.435,1.435,0,0,0,.345-.2.917.917,0,0,0,.314-.875c-.106-1.125-1.53-1.355-1.714-2.505s.237-2.859-1.45-1.925c-.394.219-1.122.514-1.518.147-.36-.334-.227-.893-.588-1.254-.51-.51-1.847-1.258-2.578-.926-.343.156-.75,1.124-1,1.452-.276.359-.975.75-1.106,1.121-.093.262.129.528.068.793a1.829,1.829,0,0,1-.593.791c-.462.446-1.094.649-1.469,1.183-.406.58-.5.971-1.108,1.4-.409.291-.872.622-1.3.9a2.8,2.8,0,0,1,0-1.574c.18-.736.386-.763-.225-1.139a58.488,58.488,0,0,0-10.928,18.579,3.861,3.861,0,0,1,.588-.151,4.738,4.738,0,0,1,1.648-.214" transform="translate(-40.883 -178.655)" fill="#005689"/>
        <path id="Trazado_191846" data-name="Trazado 191846" d="M7.634,588.711c.284.469.219.922.531,1.373a4.356,4.356,0,0,0,1.254,1,5.733,5.733,0,0,0,1.333.705c.617.171.652-.13,1.132-.377,1.3-.668,1.305,1.229,1.306,2.028a2.447,2.447,0,0,1-.4,1.45l-.593,1.187c.106.066.2.048.122.254-.9.268-.727.654-1.032,1.463-.3.79-.065,1.116-.076,1.909-.009.642-.506.631-.649,1.135-.115.4.394,1.024.578,1.374a7.571,7.571,0,0,0,.8,1.5c.481.533.886.719,1.225,1.386.475.937.606,2.284,1.318,3.065a13.231,13.231,0,0,0,2.39,1.564,5.4,5.4,0,0,1,2.044,3.3,37.734,37.734,0,0,1-.063,4.809c-.083,1.863.472,3.5.393,5.344a15,15,0,0,0,.531,4.533c.317,1.258,1.379,1.779,1.793,3.1a32.831,32.831,0,0,0,1.434,4.021c.468,1.01.957,2.684,2.227,2.653.8-.019.637-.118,1.084.645.361.616.812.51,1.238.872H27.43c.4,0,1.4.244,1.714,0,.574-.449-.284-.8-.659-1a5.213,5.213,0,0,1-2.129-2.143c-.584-1.079,1.089-1.719.619-2.659-.26-.52-2.534-.518-1.8-1.53.194-.267.666-.273.874-.577l-.2-.4c.359-.858-.026-.837-.381-1.531a1.438,1.438,0,0,1-.15-.908c.18-.407.481-.186.8-.326.545-.241.573-.8,1.048-1.139.5-.355,1.453-.2,1.785-.773.63-1.084-2.176-2.413-.331-2.509.6-.031,1.15.113,1.714.133.746.027.783-.243,1.055-.859a9.844,9.844,0,0,0,.6-1.582,1.658,1.658,0,0,1,.381-.857c.164-.2.425-.271.593-.477a3.812,3.812,0,0,0,.674-1.5c.061-.521-.288-1.039-.137-1.582a3.177,3.177,0,0,1,2.245-1.913c.537-.073,1.151.149,1.584-.26.359-.339.439-.929.807-1.3.452-.459.8-.6.906-1.269a9.082,9.082,0,0,0-.066-1.714,6.586,6.586,0,0,1,.661-3.163,6.943,6.943,0,0,1,.61-1.569c.307-.433.8-.754,1.092-1.2a2.983,2.983,0,0,0,.209-1.65c0-.759-.168-.791-.643-1.317a4.388,4.388,0,0,0-2.456-1.58,6.138,6.138,0,0,1-2.967-1.123c-.906-.794-1.962-.315-2.9-.872a3.292,3.292,0,0,1-1.125-1.039,12.056,12.056,0,0,0-.477-1.317c-.487-.854-.766-1.911-1.764-2.3-.86-.333-2.275.059-2.752-.74a3.556,3.556,0,0,0-.74-1.137c-.335-.3-.769-.48-1.073-.773-.366-.352-.474-.788-.921-1.044a2.189,2.189,0,0,0-1.433-.145,4.121,4.121,0,0,1-1.589.135,7.914,7.914,0,0,1-1.246-.681c-.553-.277-.883-.475-1.337,0-.319.336-.161,1.172-.7,1.061.034-.359.141-.822-.262-.99-.089-.588.493-.612.436-1.1-.745.409-1.635.563-2.424.9a1.451,1.451,0,0,0-.927.941c-.116.35-.086.583-.313.875-.16.2-.4.286-.542.509l-.4-.461c-.346-1.118-1.67-.009-2.376-.248a2.124,2.124,0,0,1-1.235-2.06c.038-.763.369-2.253-.282-2.7s-1.989-.037-2.754-.277c-.12-.737.673-1.294.995-1.833a9.106,9.106,0,0,0,.378-.99,6.259,6.259,0,0,0,.479-.9c.215-1.076-.9-.69-1.534-.612a2.213,2.213,0,0,0-.259.048,58.32,58.32,0,0,0-1.059,6.127c.02.009.04.019.061.026a3.536,3.536,0,0,1,2.228,1.593" transform="translate(-4.929 -535.544)" fill="#005689"/>
        <path id="Trazado_191847" data-name="Trazado 191847" d="M64.533,566.3c-.41-.216-.734-.629-1.162-.817a3.381,3.381,0,0,0-1.383-.068,5.224,5.224,0,0,0-1.383.043c-.43.127-.97.7-.277.952l.5-.055c.429.093.619-.324,1.054-.279a6.286,6.286,0,0,1,.827.4c.774.284,1.263.383,1.438,1.2.15.708.266.483.94.443.318-.019,1.12.156,1.344-.1.626-.7-1.5-1.52-1.9-1.73" transform="translate(-55.323 -521.334)" fill="#005689"/>
        <path id="Trazado_191848" data-name="Trazado 191848" d="M145.826,593.417c-.209-.09-.4-.238-.664-.153-.373.12-.144.03-.178.288-.089.669.2.74-.541.985-.219.072-.49-.063-.485.264,0,.2.388.358.541.4a4.547,4.547,0,0,0,1.811-.015c.206-.113.221-.207.512-.263.394-.075,1.059.2,1.106-.332.059-.652-1.627-.97-2.1-1.174" transform="translate(-132.744 -547.026)" fill="#005689"/>
      </g>
    </g>
    <g id="Grupo_144741" data-name="Grupo 144741" transform="translate(755 6970.445)">
      <g id="Grupo_144740" data-name="Grupo 144740" transform="translate(0 0.004)" clip-path="url(#clip-path-3)">
        <path id="Trazado_191849" data-name="Trazado 191849" d="M170.741,1827.474c0,1.245-18.219,2.255-40.693,2.255s-40.693-1.01-40.693-2.255,18.219-2.255,40.693-2.255,40.693,1.009,40.693,2.255" transform="translate(-84.811 -1732.378)" fill="#e6e6e6"/>
        <path id="Trazado_191850" data-name="Trazado 191850" d="M1201.049,119.5s46.917-9.347-10.172,45.046" transform="translate(-1130.302 -112.839)" fill="none" stroke="#fbcc34" stroke-linecap="round" stroke-miterlimit="10" stroke-width="6"/>
        <path id="Trazado_191851" data-name="Trazado 191851" d="M49.44,119.5s-46.917-9.347,10.172,45.046" transform="translate(-29.712 -112.839)" fill="none" stroke="#fbcc34" stroke-linecap="round" stroke-miterlimit="10" stroke-width="6"/>
        <path id="Trazado_191852" data-name="Trazado 191852" d="M1002.087,1310.134c-.675.1-.627.1-.086.036l.086-.036" transform="translate(-950.641 -1243.493)" fill="#c3922e"/>
        <path id="Trazado_191853" data-name="Trazado 191853" d="M402.77,7.7a1.639,1.639,0,0,0,.428-1.722,2.568,2.568,0,0,0-1.584-1.683c-23.134-8.623-47.125-1.872-52.622-.1a2.306,2.306,0,0,0-1.6,2.449,2.117,2.117,0,0,0,.921,1.5C352.35,6.2,369.591-.483,402.77,7.7" transform="translate(-329.703 -0.004)" fill="#fbcc34"/>
        <path id="Trazado_191854" data-name="Trazado 191854" d="M411.242,76.42c.1-.2.163-.309.163-.309l7.55,1.794q.088-.042.18-.078a3.309,3.309,0,0,0,1.13-.681c-33.179-8.181-50.42-1.5-54.46.446a3.774,3.774,0,0,0,1.124.526l.043.014c13.424-5.9,32.8-3.787,44.272-1.711" transform="translate(-347.197 -69.452)" fill="#c3a567"/>
        <path id="Trazado_191855" data-name="Trazado 191855" d="M1259.261,130.908s-.062.11-.163.309c3.259.59,5.88,1.177,7.542,1.576.056-.032.113-.063.171-.091Z" transform="translate(-1195.053 -124.249)" fill="#c3a567"/>
        <path id="Trazado_191856" data-name="Trazado 191856" d="M447.265,1747.1H415.507c-2.336,1.664-2.288,5.6-2.288,5.6h-3.529a5.548,5.548,0,0,1,2.28-5.6h-3.422a3.322,3.322,0,0,0-3.322,3.322v2.906h50.135l-4.879-.623Z" transform="translate(-384.614 -1658.237)" fill="#fbc926"/>
        <path id="Trazado_191857" data-name="Trazado 191857" d="M518.579,1629.13a5.074,5.074,0,0,1,2.791-3.371c-.654-.1-1.026-.158-1.026-.158a12.292,12.292,0,0,0,1.209-.934h-4.185a3.322,3.322,0,0,0-3.322,3.322v2.906h1.208a11.1,11.1,0,0,1,3.325-1.765" transform="translate(-487.899 -1542.027)" fill="#fbcc34"/>
        <path id="Trazado_191858" data-name="Trazado 191858" d="M612.32,1653.063a6.778,6.778,0,0,0-2.43,4.057,4.122,4.122,0,0,0-2.551.727H639.1a22.97,22.97,0,0,0-3.661-3.48c-2.379,1.442-16.492-.358-23.116-1.3" transform="translate(-576.446 -1568.979)" fill="#fbcc34"/>
        <path id="Trazado_191859" data-name="Trazado 191859" d="M666.433,1331.44c2.6-.464,3.313-12.282,3.436-14.8-.728-.091-1.468-.213-2.218-.37a17.307,17.307,0,0,1-6.03,15.687h2.547a22.526,22.526,0,0,1,2.265-.519" transform="translate(-627.967 -1249.319)" fill="#fbcc34"/>
        <path id="Trazado_191860" data-name="Trazado 191860" d="M801.3,1325.681l-1.143,12.55a4.515,4.515,0,0,1-2.02,2.595h13.127c-4.66-1.284-5.338-13.32-5.416-15.212a31.021,31.021,0,0,1-4.547.067" transform="translate(-757.535 -1258.186)" fill="#fbcc34"/>
        <path id="Trazado_191861" data-name="Trazado 191861" d="M707.445,1625.394a4.213,4.213,0,0,0-2.176.718c6.623.945,20.736,2.745,23.116,1.3a15.893,15.893,0,0,0-5.266-2.747H709.992a5.458,5.458,0,0,1-2.547.727" transform="translate(-669.395 -1542.027)" fill="#fbcc34"/>
        <path id="Trazado_191862" data-name="Trazado 191862" d="M638.887,1625.759a13.222,13.222,0,0,1,2.729-1.092H639.07a12.31,12.31,0,0,1-1.209.934s.372.059,1.026.158" transform="translate(-605.416 -1542.027)" fill="#fbcc34"/>
        <path id="Trazado_191863" data-name="Trazado 191863" d="M490.92,1752.711h3.529s-.048-3.941,2.288-5.605H493.2a5.549,5.549,0,0,0-2.28,5.605" transform="translate(-465.844 -1658.238)" fill="#f4e09c"/>
        <path id="Trazado_191864" data-name="Trazado 191864" d="M543.887,1650.542a6.777,6.777,0,0,1,2.43-4.057c-.99-.141-1.812-.263-2.4-.353a5.074,5.074,0,0,0-2.791,3.372,11.1,11.1,0,0,0-3.325,1.764h3.537a4.121,4.121,0,0,1,2.551-.727" transform="translate(-510.443 -1562.401)" fill="#f4e09c"/>
        <path id="Trazado_191865" data-name="Trazado 191865" d="M718.1,1336.273l1.143-12.55c-.608-.037-1.229-.093-1.859-.172-.123,2.515-.839,14.334-3.436,14.8a22.576,22.576,0,0,0-2.265.519h4.4a4.515,4.515,0,0,0,2.02-2.595" transform="translate(-675.486 -1256.229)" fill="#f4e09c"/>
        <path id="Trazado_191866" data-name="Trazado 191866" d="M662.609,1625.394a5.458,5.458,0,0,0,2.547-.727h-4.4a13.222,13.222,0,0,0-2.729,1.092c.591.089,1.413.211,2.4.352a4.213,4.213,0,0,1,2.176-.718" transform="translate(-624.559 -1542.027)" fill="#f4e09c"/>
        <path id="Trazado_191867" data-name="Trazado 191867" d="M1234.908,1752.711l4.879.623v-2.906a3.322,3.322,0,0,0-3.322-3.322h-4.775Z" transform="translate(-1169.039 -1658.238)" fill="#e6bb30"/>
        <path id="Trazado_191868" data-name="Trazado 191868" d="M1122.5,1627.414a22.984,22.984,0,0,1,3.661,3.481h3.218v-2.906a3.321,3.321,0,0,0-3.322-3.322h-5.552a12.394,12.394,0,0,0,1.192.934c1.252.863,1.411,1.444.8,1.813" transform="translate(-1063.514 -1542.027)" fill="#e6bb30"/>
        <path id="Trazado_191869" data-name="Trazado 191869" d="M955.126,1331.54H958.4c-5.535-4.913-5.324-13.579-5.18-15.709a32.927,32.927,0,0,1-3.507.5c.078,1.892.757,13.927,5.416,15.212" transform="translate(-901.402 -1248.901)" fill="#e6bb30"/>
        <path id="Trazado_191870" data-name="Trazado 191870" d="M1061.459,1627.414c.609-.369.45-.95-.8-1.813a12.4,12.4,0,0,1-1.192-.934h-3.271a15.89,15.89,0,0,1,5.266,2.747" transform="translate(-1002.47 -1542.027)" fill="#e6bb30"/>
        <path id="Trazado_191871" data-name="Trazado 191871" d="M483.835,143.053s3.114-3.218,2.18-6.747-1.453-5.4-1.453-5.4l-4.152.83s2.906,7.474,0,9.861c-2.845,2.337,2.075,37.457,14.591,48.6q.263.051.54.1c-1.965-4.118-13.319-28.84-11.706-47.245" transform="translate(-455.23 -124.25)" fill="#f4e09c"/>
        <path id="Trazado_191872" data-name="Trazado 191872" d="M381.394,107.486c2.906-2.387,0-9.861,0-9.861l4.152-.83s.519,1.868,1.453,5.4-2.18,6.747-2.18,6.747c-1.613,18.4,9.741,43.127,11.706,47.245a32.593,32.593,0,0,0,11.92.054c4.569-5.061,15.272-43.8,11.561-47.61-3.477-3.569-.5-10.041.252-11.524-11.467-2.076-30.847-4.19-44.272,1.711a2.327,2.327,0,0,1,1.392,1.177c2.46,4.941.335,7.425-1.109,8.453a2.324,2.324,0,0,0-.958,2.084c2.512,30.828,15.283,42.364,19.3,45.263.411.1.871.194,1.374.291-12.517-11.141-17.436-46.261-14.591-48.6" transform="translate(-356.214 -90.136)" fill="#fbcc34"/>
        <path id="Trazado_191873" data-name="Trazado 191873" d="M1046.294,149.95a2.63,2.63,0,0,0-.659-1.995c-3.111-3.51-1.305-7.1-.272-8.614a2.571,2.571,0,0,1,.837-.773c-1.662-.4-4.282-.986-7.542-1.576-.754,1.483-3.73,7.955-.252,11.524,3.711,3.808-6.993,42.549-11.561,47.61l.151-.031c15.156-11.09,18.7-39.854,19.3-46.144" transform="translate(-974.614 -130.024)" fill="#c3922e"/>
        <path id="Trazado_191874" data-name="Trazado 191874" d="M1001.755,1310.862l.1-.029c-.323.049-.332.056-.1.029" transform="translate(-950.646 -1244.157)" fill="#c3a567"/>
        <path id="Trazado_191875" data-name="Trazado 191875" d="M780.974,1306.891c-.729-.147-1.5-.334-2.308-.567.028.17.053.339.076.506.75.157,1.49.279,2.218.37.006-.128.011-.232.014-.31" transform="translate(-739.059 -1239.877)" fill="#c3a567"/>
        <path id="Trazado_191876" data-name="Trazado 191876" d="M860.334,1323.5l-.016.175a31.056,31.056,0,0,0,4.547-.067c0-.012,0-.024,0-.036a19.3,19.3,0,0,1-4.53-.072" transform="translate(-816.557 -1256.176)" fill="#c3a567"/>
        <path id="Trazado_191877" data-name="Trazado 191877" d="M825.642,1317.774c-.588-.074-1.208-.175-1.861-.307,0,.077-.008.181-.014.31q.946.119,1.859.172Z" transform="translate(-781.866 -1250.453)" fill="#c3a567"/>
        <path id="Trazado_191878" data-name="Trazado 191878" d="M952.821,1306.518l-.239.036-.1.029.25-.029a11.641,11.641,0,0,1-3.053.716v.036a32.921,32.921,0,0,0,3.507-.5c.021-.311.041-.484.041-.484a4.009,4.009,0,0,1-.41.194" transform="translate(-901.376 -1239.877)" fill="#c3a567"/>
        <path id="Trazado_191879" data-name="Trazado 191879" d="M782.416,1296.61q-.278-.05-.54-.1.408.363.827.693s-.1-.205-.287-.593" transform="translate(-742.105 -1230.562)" fill="#c3a567"/>
        <path id="Trazado_191880" data-name="Trazado 191880" d="M798.133,1310.134" transform="translate(-757.535 -1243.493)" fill="#c3a567"/>
        <path id="Trazado_191881" data-name="Trazado 191881" d="M757.062,1291.765q-.419-.328-.827-.693c-.5-.1-.963-.2-1.374-.291a12.049,12.049,0,0,0,1.211.791s.369.082.99.194" transform="translate(-716.465 -1225.125)" fill="#c3a567"/>
        <path id="Trazado_191882" data-name="Trazado 191882" d="M792.493,1298.482c.185.388.287.593.287.593.363.065.812.14,1.325.214l1.874.226a27.611,27.611,0,0,0,4.5.1,13.377,13.377,0,0,0,2.81-.473c-.235.026-.225.019.1-.029.224-.069.441-.145.649-.229l.065-.046a2.781,2.781,0,0,0,.311-.3,32.589,32.589,0,0,1-11.92-.053" transform="translate(-752.182 -1232.434)" fill="#c3a567"/>
        <path id="Trazado_191883" data-name="Trazado 191883" d="M779.656,1306.518h0c-.622-.111-.99-.194-.99-.194.81.233,1.579.419,2.308.567,0-.1.007-.159.007-.159-.513-.074-.962-.149-1.325-.214" transform="translate(-739.059 -1239.877)" fill="#c3a567"/>
        <path id="Trazado_191884" data-name="Trazado 191884" d="M860.651,1318.789h0l-.022.239a19.3,19.3,0,0,0,4.53.072c-.006-.139-.008-.214-.008-.214a27.6,27.6,0,0,1-4.5-.1" transform="translate(-816.854 -1251.708)" fill="#c3a567"/>
        <path id="Trazado_191885" data-name="Trazado 191885" d="M824.179,1314.344c.559.081,1.194.161,1.874.226Z" transform="translate(-782.257 -1247.489)" fill="#c3a567"/>
        <path id="Trazado_191886" data-name="Trazado 191886" d="M825.932,1314.57h0c-.68-.065-1.315-.145-1.874-.226,0,0,0,.055-.007.159.652.132,1.273.233,1.861.307Z" transform="translate(-782.134 -1247.489)" fill="#c3a567"/>
        <path id="Trazado_191887" data-name="Trazado 191887" d="M1006.935,1306.518a4,4,0,0,0,.41-.194c-.209.084-.426.16-.649.229l.239-.036" transform="translate(-955.49 -1239.877)" fill="#c3a567"/>
        <path id="Trazado_191888" data-name="Trazado 191888" d="M949.542,1311.55a11.639,11.639,0,0,0,3.053-.716l-.25.029a13.385,13.385,0,0,1-2.81.473s0,.075.008.214" transform="translate(-901.235 -1244.158)" fill="#c3a567"/>
        <path id="Trazado_191889" data-name="Trazado 191889" d="M1020.737,1299.253c.155-.108.309-.219.462-.331l-.151.031a2.777,2.777,0,0,1-.311.3" transform="translate(-968.816 -1232.851)" fill="#c3a567"/>
        <path id="Trazado_191890" data-name="Trazado 191890" d="M665.859,407.454l2.923,9h9.46l-7.654,5.561,2.923,9-7.654-5.561-7.654,5.561,2.923-9-7.654-5.561h9.46Z" transform="translate(-620.236 -386.729)" fill="#c3922e"/>
        <path id="Trazado_191891" data-name="Trazado 191891" d="M607.847,266.9l-2.185.474a.794.794,0,0,0-.566.474l-.848,2.068-1.126-1.931a.793.793,0,0,0-.626-.392l-2.229-.168,1.489-1.667a.794.794,0,0,0,.179-.716l-.529-2.172,2.046.9a.793.793,0,0,0,.737-.051l1.9-1.175-.225,2.224a.793.793,0,0,0,.276.685Z" transform="translate(-569.734 -249.189)" fill="#fffac2"/>
        <path id="Trazado_191892" data-name="Trazado 191892" d="M409.911,387.512l-1.35.293a.49.49,0,0,0-.35.293l-.524,1.278-.7-1.194a.49.49,0,0,0-.387-.242l-1.378-.1.92-1.03a.49.49,0,0,0,.111-.443l-.327-1.342,1.264.557a.49.49,0,0,0,.455-.032l1.176-.726-.139,1.375a.49.49,0,0,0,.171.423Z" transform="translate(-384.614 -365.246)" fill="#fffac2"/>
        <path id="Trazado_191893" data-name="Trazado 191893" d="M1307.817,356.061l-.835.181a.3.3,0,0,0-.216.181l-.324.79-.43-.738a.3.3,0,0,0-.239-.15l-.852-.064.569-.637a.3.3,0,0,0,.068-.274l-.2-.83.781.344a.3.3,0,0,0,.281-.02l.726-.449-.086.85a.3.3,0,0,0,.105.262Z" transform="translate(-1238.546 -336.371)" fill="#fffac2"/>
      </g>
    </g>
    <path id="Trazado_192662" data-name="Trazado 192662" d="M-25.223-3.223h-5.65L-31.947,0h-3.427l5.822-15.641h2.986L-20.711,0h-3.427ZM-30-5.833h3.91l-1.966-5.854Zm10.1-.064a6.812,6.812,0,0,1,1.273-4.308A4.125,4.125,0,0,1-15.2-11.838a3.617,3.617,0,0,1,2.976,1.311l.129-1.1h2.814V-.387a4.968,4.968,0,0,1-.693,2.653,4.45,4.45,0,0,1-1.95,1.719,6.854,6.854,0,0,1-2.943.591,6.373,6.373,0,0,1-2.492-.51A4.423,4.423,0,0,1-19.2,2.75L-17.821.859a3.637,3.637,0,0,0,2.814,1.3A2.662,2.662,0,0,0-13.084,1.5,2.478,2.478,0,0,0-12.4-.376V-1A3.591,3.591,0,0,1-15.222.215a4.114,4.114,0,0,1-3.389-1.638,6.81,6.81,0,0,1-1.294-4.345Zm3.1.226A4.23,4.23,0,0,0-16.167-3.2a2.017,2.017,0,0,0,1.74.9A2.157,2.157,0,0,0-12.4-3.362V-8.25a2.152,2.152,0,0,0-2.009-1.063,2.03,2.03,0,0,0-1.756.913A4.768,4.768,0,0,0-16.8-5.672ZM-1.547.215A5.706,5.706,0,0,1-5.709-1.354,5.575,5.575,0,0,1-7.315-5.532v-.3a7.021,7.021,0,0,1,.677-3.131,4.967,4.967,0,0,1,1.917-2.127,5.382,5.382,0,0,1,2.831-.747,4.824,4.824,0,0,1,3.754,1.5,6.111,6.111,0,0,1,1.37,4.265V-4.8h-7.4A2.884,2.884,0,0,0-3.26-2.976a2.744,2.744,0,0,0,1.917.688,3.351,3.351,0,0,0,2.8-1.3L2.986-1.88A4.66,4.66,0,0,1,1.1-.338,6.2,6.2,0,0,1-1.547.215ZM-1.9-9.324A1.944,1.944,0,0,0-3.4-8.7a3.219,3.219,0,0,0-.736,1.783H.183v-.247a2.3,2.3,0,0,0-.559-1.6A2.006,2.006,0,0,0-1.9-9.324Zm9.754-2.3.1,1.343a4.058,4.058,0,0,1,3.341-1.558,3.372,3.372,0,0,1,2.75,1.085,5.062,5.062,0,0,1,.924,3.244V0h-3.1V-7.434a2.014,2.014,0,0,0-.43-1.434A1.924,1.924,0,0,0,10-9.313,2.136,2.136,0,0,0,8.035-8.2V0h-3.1V-11.623ZM21.033-14.48v2.857h1.987v2.277H21.033v5.8a1.385,1.385,0,0,0,.247.924,1.241,1.241,0,0,0,.945.279,4.951,4.951,0,0,0,.913-.075V-.064a6.391,6.391,0,0,1-1.88.279q-3.266,0-3.33-3.3V-9.346h-1.7v-2.277h1.7V-14.48ZM30.1.215a5.706,5.706,0,0,1-4.163-1.568,5.575,5.575,0,0,1-1.606-4.179v-.3a7.021,7.021,0,0,1,.677-3.131,4.967,4.967,0,0,1,1.917-2.127,5.382,5.382,0,0,1,2.831-.747,4.824,4.824,0,0,1,3.754,1.5,6.111,6.111,0,0,1,1.37,4.265V-4.8h-7.4a2.884,2.884,0,0,0,.908,1.826,2.744,2.744,0,0,0,1.917.688,3.351,3.351,0,0,0,2.8-1.3L34.633-1.88A4.66,4.66,0,0,1,32.742-.338,6.2,6.2,0,0,1,30.1.215Zm-.354-9.539a1.944,1.944,0,0,0-1.5.623,3.219,3.219,0,0,0-.736,1.783h4.318v-.247a2.3,2.3,0,0,0-.559-1.6A2.006,2.006,0,0,0,29.745-9.324Z" transform="translate(621.5 7167)" fill="#12263f"/>
    <path id="Trazado_192665" data-name="Trazado 192665" d="M-37.318-3.223h-5.65L-44.043,0H-47.47l5.822-15.641h2.986L-32.807,0h-3.427Zm-4.78-2.61h3.91l-1.966-5.854Zm12.944-5.79.1,1.3a4.085,4.085,0,0,1,3.341-1.515,3.1,3.1,0,0,1,3.083,1.772,3.991,3.991,0,0,1,3.491-1.772,3.467,3.467,0,0,1,2.814,1.1A5.061,5.061,0,0,1-15.4-7.423V0H-18.52V-7.412a2.213,2.213,0,0,0-.387-1.445,1.714,1.714,0,0,0-1.364-.457A1.938,1.938,0,0,0-22.2-7.981L-22.193,0h-3.1V-7.4a2.186,2.186,0,0,0-.4-1.461,1.731,1.731,0,0,0-1.354-.451,2.012,2.012,0,0,0-1.912,1.1V0h-3.1V-11.623ZM-2.546-5.7A7.038,7.038,0,0,1-3.738-1.348,3.95,3.95,0,0,1-7.068.215a3.629,3.629,0,0,1-3.019-1.45L-10.227,0H-13.02V-16.5h3.1v5.919A3.536,3.536,0,0,1-7.09-11.838a3.982,3.982,0,0,1,3.335,1.563,7.048,7.048,0,0,1,1.208,4.4Zm-3.1-.226A4.624,4.624,0,0,0-6.209-8.5a1.889,1.889,0,0,0-1.665-.811A2.048,2.048,0,0,0-9.915-8.1v4.587A2.076,2.076,0,0,0-7.853-2.288,1.917,1.917,0,0,0-5.876-3.771,7.647,7.647,0,0,0-5.65-5.93ZM2.643,0H-.473V-11.623H2.643Zm-3.3-14.631A1.529,1.529,0,0,1-.188-15.78a1.755,1.755,0,0,1,1.273-.451,1.759,1.759,0,0,1,1.268.451,1.52,1.52,0,0,1,.473,1.149,1.524,1.524,0,0,1-.478,1.16,1.764,1.764,0,0,1-1.262.451,1.764,1.764,0,0,1-1.262-.451A1.524,1.524,0,0,1-.655-14.631ZM10.549.215A5.706,5.706,0,0,1,6.386-1.354,5.575,5.575,0,0,1,4.78-5.532v-.3a7.021,7.021,0,0,1,.677-3.131,4.967,4.967,0,0,1,1.917-2.127,5.382,5.382,0,0,1,2.831-.747,4.824,4.824,0,0,1,3.754,1.5,6.111,6.111,0,0,1,1.37,4.265V-4.8h-7.4a2.884,2.884,0,0,0,.908,1.826,2.744,2.744,0,0,0,1.917.688,3.351,3.351,0,0,0,2.8-1.3L15.082-1.88A4.66,4.66,0,0,1,13.191-.338,6.2,6.2,0,0,1,10.549.215Zm-.354-9.539A1.944,1.944,0,0,0,8.7-8.7,3.219,3.219,0,0,0,7.96-6.918h4.318v-.247a2.3,2.3,0,0,0-.559-1.6A2.006,2.006,0,0,0,10.194-9.324Zm9.754-2.3.1,1.343a4.058,4.058,0,0,1,3.341-1.558,3.372,3.372,0,0,1,2.75,1.085,5.062,5.062,0,0,1,.924,3.244V0h-3.1V-7.434a2.014,2.014,0,0,0-.43-1.434A1.924,1.924,0,0,0,22.1-9.313,2.136,2.136,0,0,0,20.131-8.2V0h-3.1V-11.623ZM33.129-14.48v2.857h1.987v2.277H33.129v5.8a1.385,1.385,0,0,0,.247.924,1.241,1.241,0,0,0,.945.279,4.951,4.951,0,0,0,.913-.075V-.064a6.391,6.391,0,0,1-1.88.279q-3.266,0-3.33-3.3V-9.346h-1.7v-2.277h1.7V-14.48ZM42.2.215a5.706,5.706,0,0,1-4.163-1.568,5.575,5.575,0,0,1-1.606-4.179v-.3A7.021,7.021,0,0,1,37.1-8.964a4.967,4.967,0,0,1,1.917-2.127,5.382,5.382,0,0,1,2.831-.747,4.824,4.824,0,0,1,3.754,1.5,6.111,6.111,0,0,1,1.37,4.265V-4.8h-7.4a2.884,2.884,0,0,0,.908,1.826,2.744,2.744,0,0,0,1.917.688,3.351,3.351,0,0,0,2.8-1.3L46.729-1.88A4.66,4.66,0,0,1,44.838-.338,6.2,6.2,0,0,1,42.2.215Zm-.354-9.539a1.944,1.944,0,0,0-1.5.623,3.219,3.219,0,0,0-.736,1.783h4.318v-.247a2.3,2.3,0,0,0-.559-1.6A2.006,2.006,0,0,0,41.841-9.324Z" transform="translate(996.5 7167)" fill="#12263f"/>
    <path id="Trazado_192663" data-name="Trazado 192663" d="M-59.66-10.141h-3.656V0h-1.492V-10.141h-3.648v-1.234h8.8Zm.3,5.836a4.993,4.993,0,0,1,.488-2.234A3.643,3.643,0,0,1-57.508-8.07a3.7,3.7,0,0,1,1.988-.539,3.565,3.565,0,0,1,2.793,1.2,4.6,4.6,0,0,1,1.066,3.18v.1a5.036,5.036,0,0,1-.473,2.215A3.589,3.589,0,0,1-53.484-.391,3.743,3.743,0,0,1-55.5.156a3.556,3.556,0,0,1-2.785-1.2A4.575,4.575,0,0,1-59.355-4.2Zm1.453.172a3.616,3.616,0,0,0,.652,2.258,2.088,2.088,0,0,0,1.746.852,2.075,2.075,0,0,0,1.75-.863A3.955,3.955,0,0,0-53.105-4.3a3.61,3.61,0,0,0-.66-2.254,2.1,2.1,0,0,0-1.754-.863,2.075,2.075,0,0,0-1.727.852A3.925,3.925,0,0,0-57.9-4.133Zm9.414-4.32.039.938a3.122,3.122,0,0,1,2.508-1.094A2.417,2.417,0,0,1-43.527-7.25a3.2,3.2,0,0,1,1.1-.984,3.242,3.242,0,0,1,1.6-.375q2.781,0,2.828,2.945V0h-1.445V-5.578a1.941,1.941,0,0,0-.414-1.355,1.823,1.823,0,0,0-1.391-.449,1.916,1.916,0,0,0-1.336.48,1.949,1.949,0,0,0-.617,1.293V0H-44.66V-5.539a1.613,1.613,0,0,0-1.8-1.844A1.934,1.934,0,0,0-48.41-6.172V0h-1.445V-8.453ZM-30.605,0a3.036,3.036,0,0,1-.2-.891A3.225,3.225,0,0,1-33.215.156a2.984,2.984,0,0,1-2.051-.707,2.287,2.287,0,0,1-.8-1.793,2.39,2.39,0,0,1,1-2.051,4.733,4.733,0,0,1,2.824-.73h1.406v-.664A1.623,1.623,0,0,0-31.285-7a1.821,1.821,0,0,0-1.336-.449,2.107,2.107,0,0,0-1.3.391,1.151,1.151,0,0,0-.523.945h-1.453a2,2,0,0,1,.449-1.223,3.066,3.066,0,0,1,1.219-.934,4.1,4.1,0,0,1,1.691-.344,3.342,3.342,0,0,1,2.289.73,2.635,2.635,0,0,1,.859,2.012v3.891a4.757,4.757,0,0,0,.3,1.852V0ZM-33-1.1a2.54,2.54,0,0,0,1.289-.352,2.127,2.127,0,0,0,.883-.914V-4.1h-1.133q-2.656,0-2.656,1.555a1.316,1.316,0,0,0,.453,1.063A1.742,1.742,0,0,0-33-1.1Zm15.063.266a3.07,3.07,0,0,1-2.477.992,2.628,2.628,0,0,1-2.059-.785,3.4,3.4,0,0,1-.715-2.324v-5.5h1.445v5.461q0,1.922,1.563,1.922A2.163,2.163,0,0,0-17.98-2.3V-8.453h1.445V0H-17.91Zm4.969-7.617.047,1.063a3.08,3.08,0,0,1,2.531-1.219q2.68,0,2.7,3.023V0H-9.137V-5.594a1.946,1.946,0,0,0-.418-1.352,1.675,1.675,0,0,0-1.277-.437,2.086,2.086,0,0,0-1.234.375,2.546,2.546,0,0,0-.828.984V0H-14.34V-8.453ZM-.293,0A3.036,3.036,0,0,1-.5-.891,3.225,3.225,0,0,1-2.9.156,2.984,2.984,0,0,1-4.953-.551a2.287,2.287,0,0,1-.8-1.793,2.39,2.39,0,0,1,1-2.051,4.733,4.733,0,0,1,2.824-.73H-.52v-.664A1.623,1.623,0,0,0-.973-7a1.821,1.821,0,0,0-1.336-.449,2.107,2.107,0,0,0-1.3.391,1.151,1.151,0,0,0-.523.945H-5.582a2,2,0,0,1,.449-1.223,3.066,3.066,0,0,1,1.219-.934,4.1,4.1,0,0,1,1.691-.344,3.342,3.342,0,0,1,2.289.73A2.635,2.635,0,0,1,.926-5.867v3.891a4.757,4.757,0,0,0,.3,1.852V0Zm-2.4-1.1A2.54,2.54,0,0,0-1.4-1.453,2.127,2.127,0,0,0-.52-2.367V-4.1H-1.652q-2.656,0-2.656,1.555a1.316,1.316,0,0,0,.453,1.063A1.742,1.742,0,0,0-2.691-1.1ZM12.371,0a3.036,3.036,0,0,1-.2-.891A3.225,3.225,0,0,1,9.762.156,2.984,2.984,0,0,1,7.711-.551a2.287,2.287,0,0,1-.8-1.793,2.39,2.39,0,0,1,1-2.051,4.733,4.733,0,0,1,2.824-.73h1.406v-.664A1.623,1.623,0,0,0,11.691-7a1.821,1.821,0,0,0-1.336-.449,2.107,2.107,0,0,0-1.3.391,1.151,1.151,0,0,0-.523.945H7.082a2,2,0,0,1,.449-1.223A3.066,3.066,0,0,1,8.75-8.266a4.1,4.1,0,0,1,1.691-.344,3.342,3.342,0,0,1,2.289.73,2.635,2.635,0,0,1,.859,2.012v3.891a4.757,4.757,0,0,0,.3,1.852V0Zm-2.4-1.1a2.54,2.54,0,0,0,1.289-.352,2.127,2.127,0,0,0,.883-.914V-4.1H11.012q-2.656,0-2.656,1.555a1.316,1.316,0,0,0,.453,1.063A1.742,1.742,0,0,0,9.973-1.1Zm9.273.078A2.082,2.082,0,0,0,20.6-1.492a1.649,1.649,0,0,0,.641-1.172h1.367a2.621,2.621,0,0,1-.5,1.383,3.293,3.293,0,0,1-1.23,1.047,3.55,3.55,0,0,1-1.629.391A3.482,3.482,0,0,1,16.5-1a4.59,4.59,0,0,1-1.02-3.152v-.242a5.089,5.089,0,0,1,.453-2.2,3.451,3.451,0,0,1,1.3-1.492,3.7,3.7,0,0,1,2-.531,3.39,3.39,0,0,1,2.363.852,3.043,3.043,0,0,1,1,2.211H21.238a1.992,1.992,0,0,0-.621-1.348,1.932,1.932,0,0,0-1.379-.527,2.023,2.023,0,0,0-1.707.793,3.724,3.724,0,0,0-.605,2.293v.273a3.65,3.65,0,0,0,.6,2.25A2.033,2.033,0,0,0,19.246-1.023Zm8.375,0a2.082,2.082,0,0,0,1.352-.469,1.649,1.649,0,0,0,.641-1.172H30.98a2.621,2.621,0,0,1-.5,1.383A3.293,3.293,0,0,1,29.25-.234a3.55,3.55,0,0,1-1.629.391A3.482,3.482,0,0,1,24.875-1a4.59,4.59,0,0,1-1.02-3.152v-.242a5.089,5.089,0,0,1,.453-2.2,3.451,3.451,0,0,1,1.3-1.492,3.7,3.7,0,0,1,2-.531,3.39,3.39,0,0,1,2.363.852,3.043,3.043,0,0,1,1,2.211H29.613a1.992,1.992,0,0,0-.621-1.348,1.932,1.932,0,0,0-1.379-.527,2.023,2.023,0,0,0-1.707.793A3.724,3.724,0,0,0,25.3-4.336v.273a3.65,3.65,0,0,0,.6,2.25A2.033,2.033,0,0,0,27.621-1.023ZM34.176,0H32.73V-8.453h1.445ZM32.613-10.7a.863.863,0,0,1,.215-.594.807.807,0,0,1,.637-.242.819.819,0,0,1,.641.242.854.854,0,0,1,.219.594.826.826,0,0,1-.219.586.834.834,0,0,1-.641.234.821.821,0,0,1-.637-.234A.834.834,0,0,1,32.613-10.7ZM36.105-4.3a4.993,4.993,0,0,1,.488-2.234A3.643,3.643,0,0,1,37.953-8.07a3.7,3.7,0,0,1,1.988-.539,3.565,3.565,0,0,1,2.793,1.2A4.6,4.6,0,0,1,43.8-4.234v.1a5.036,5.036,0,0,1-.473,2.215A3.589,3.589,0,0,1,41.977-.391a3.743,3.743,0,0,1-2.02.547,3.556,3.556,0,0,1-2.785-1.2A4.575,4.575,0,0,1,36.105-4.2Zm1.453.172a3.616,3.616,0,0,0,.652,2.258,2.088,2.088,0,0,0,1.746.852,2.075,2.075,0,0,0,1.75-.863A3.955,3.955,0,0,0,42.355-4.3a3.61,3.61,0,0,0-.66-2.254,2.1,2.1,0,0,0-1.754-.863,2.075,2.075,0,0,0-1.727.852A3.925,3.925,0,0,0,37.559-4.133ZM40.6-12h1.75L40.254-9.7H39.09ZM46.98-8.453l.047,1.063a3.08,3.08,0,0,1,2.531-1.219q2.68,0,2.7,3.023V0H50.816V-5.594A1.946,1.946,0,0,0,50.4-6.945a1.675,1.675,0,0,0-1.277-.437,2.086,2.086,0,0,0-1.234.375,2.546,2.546,0,0,0-.828.984V0H45.613V-8.453ZM61.168-2.117l1.969-6.336h1.547L61.285,1.3Q60.5,3.414,58.777,3.414L58.5,3.391l-.539-.1V2.117l.391.031a1.923,1.923,0,0,0,1.145-.3A2.148,2.148,0,0,0,60.176.766l.32-.859L57.48-8.453h1.578ZM-87.172,19.7a4.993,4.993,0,0,1,.488-2.234,3.643,3.643,0,0,1,1.359-1.531,3.7,3.7,0,0,1,1.988-.539,3.565,3.565,0,0,1,2.793,1.2,4.6,4.6,0,0,1,1.066,3.18v.1a5.036,5.036,0,0,1-.473,2.215A3.589,3.589,0,0,1-81.3,23.609a3.743,3.743,0,0,1-2.02.547,3.556,3.556,0,0,1-2.785-1.2A4.575,4.575,0,0,1-87.172,19.8Zm1.453.172a3.616,3.616,0,0,0,.652,2.258,2.088,2.088,0,0,0,1.746.852,2.075,2.075,0,0,0,1.75-.863,3.955,3.955,0,0,0,.648-2.418,3.61,3.61,0,0,0-.66-2.254,2.1,2.1,0,0,0-1.754-.863,2.075,2.075,0,0,0-1.727.852A3.925,3.925,0,0,0-85.719,19.867Zm15.211,0A5.026,5.026,0,0,1-71.4,22.98a2.846,2.846,0,0,1-2.391,1.176,2.947,2.947,0,0,1-2.477-1.133l-.07.977h-1.328V12h1.445v4.477A2.93,2.93,0,0,1-73.8,15.391a2.863,2.863,0,0,1,2.418,1.164,5.177,5.177,0,0,1,.879,3.188Zm-1.445-.164a3.906,3.906,0,0,0-.57-2.281,1.888,1.888,0,0,0-1.641-.8,2.122,2.122,0,0,0-2.055,1.328V21.6a2.181,2.181,0,0,0,2.07,1.328,1.878,1.878,0,0,0,1.617-.8A4.153,4.153,0,0,0-71.953,19.7Zm5.227-6.2v2.047h1.578v1.117h-1.578v5.242a1.171,1.171,0,0,0,.211.762.888.888,0,0,0,.719.254,3.5,3.5,0,0,0,.688-.094V24a4.19,4.19,0,0,1-1.109.156,1.8,1.8,0,0,1-1.461-.586,2.517,2.517,0,0,1-.492-1.664V16.664h-1.539V15.547h1.539V13.5ZM-61.891,24h-1.445V15.547h1.445Zm-1.562-10.7a.863.863,0,0,1,.215-.594.807.807,0,0,1,.637-.242.819.819,0,0,1,.641.242.854.854,0,0,1,.219.594.826.826,0,0,1-.219.586.834.834,0,0,1-.641.234.821.821,0,0,1-.637-.234A.834.834,0,0,1-63.453,13.3Zm7.383,10.852a3.693,3.693,0,0,1-2.8-1.129,4.19,4.19,0,0,1-1.078-3.02v-.266a5.073,5.073,0,0,1,.48-2.246,3.748,3.748,0,0,1,1.344-1.547,3.378,3.378,0,0,1,1.871-.559,3.166,3.166,0,0,1,2.563,1.086,4.7,4.7,0,0,1,.914,3.109v.6H-58.5a3,3,0,0,0,.73,2.02,2.3,2.3,0,0,0,1.777.77,2.517,2.517,0,0,0,1.3-.312,3.259,3.259,0,0,0,.93-.828l.883.688A3.55,3.55,0,0,1-56.07,24.156Zm-.18-7.578a1.928,1.928,0,0,0-1.469.637A3.1,3.1,0,0,0-58.453,19h4.234v-.109a2.753,2.753,0,0,0-.594-1.707A1.815,1.815,0,0,0-56.25,16.578Zm6.516-1.031.047,1.063a3.08,3.08,0,0,1,2.531-1.219q2.68,0,2.7,3.023V24H-45.9V18.406a1.946,1.946,0,0,0-.418-1.352,1.675,1.675,0,0,0-1.277-.437,2.086,2.086,0,0,0-1.234.375,2.546,2.546,0,0,0-.828.984V24H-51.1V15.547Zm10.969,8.609a3.693,3.693,0,0,1-2.8-1.129,4.19,4.19,0,0,1-1.078-3.02v-.266a5.073,5.073,0,0,1,.48-2.246,3.748,3.748,0,0,1,1.344-1.547,3.378,3.378,0,0,1,1.871-.559,3.166,3.166,0,0,1,2.563,1.086,4.7,4.7,0,0,1,.914,3.109v.6H-41.2a3,3,0,0,0,.73,2.02,2.3,2.3,0,0,0,1.777.77,2.517,2.517,0,0,0,1.3-.312,3.259,3.259,0,0,0,.93-.828l.883.688A3.55,3.55,0,0,1-38.766,24.156Zm-.18-7.578a1.928,1.928,0,0,0-1.469.637A3.1,3.1,0,0,0-41.148,19h4.234v-.109a2.753,2.753,0,0,0-.594-1.707A1.815,1.815,0,0,0-38.945,16.578Zm14.328,6.586a3.07,3.07,0,0,1-2.477.992,2.628,2.628,0,0,1-2.059-.785,3.4,3.4,0,0,1-.715-2.324v-5.5h1.445v5.461q0,1.922,1.563,1.922a2.163,2.163,0,0,0,2.2-1.234V15.547h1.445V24h-1.375Zm4.969-7.617.047,1.063a3.08,3.08,0,0,1,2.531-1.219q2.68,0,2.7,3.023V24h-1.445V18.406a1.946,1.946,0,0,0-.418-1.352,1.675,1.675,0,0,0-1.277-.437,2.086,2.086,0,0,0-1.234.375,2.546,2.546,0,0,0-.828.984V24h-1.445V15.547ZM-6.969,24a3.036,3.036,0,0,1-.2-.891,3.225,3.225,0,0,1-2.406,1.047,2.984,2.984,0,0,1-2.051-.707,2.287,2.287,0,0,1-.8-1.793,2.39,2.39,0,0,1,1-2.051,4.733,4.733,0,0,1,2.824-.73H-7.2v-.664A1.623,1.623,0,0,0-7.648,17a1.821,1.821,0,0,0-1.336-.449,2.108,2.108,0,0,0-1.3.391,1.151,1.151,0,0,0-.523.945h-1.453a2,2,0,0,1,.449-1.223,3.066,3.066,0,0,1,1.219-.934A4.1,4.1,0,0,1-8.9,15.391a3.342,3.342,0,0,1,2.289.73,2.635,2.635,0,0,1,.859,2.012v3.891a4.757,4.757,0,0,0,.3,1.852V24Zm-2.4-1.1a2.54,2.54,0,0,0,1.289-.352,2.127,2.127,0,0,0,.883-.914V19.9H-8.328q-2.656,0-2.656,1.555a1.316,1.316,0,0,0,.453,1.063A1.742,1.742,0,0,0-9.367,22.9Zm13.93-6.055a4.331,4.331,0,0,0-.711-.055A1.9,1.9,0,0,0,1.922,18v6H.477V15.547H1.883l.023.977a2.251,2.251,0,0,1,2.016-1.133,1.477,1.477,0,0,1,.641.109ZM9.25,24.156a3.693,3.693,0,0,1-2.8-1.129,4.19,4.19,0,0,1-1.078-3.02v-.266a5.073,5.073,0,0,1,.48-2.246A3.748,3.748,0,0,1,7.2,15.949a3.378,3.378,0,0,1,1.871-.559,3.166,3.166,0,0,1,2.563,1.086,4.7,4.7,0,0,1,.914,3.109v.6H6.82a3,3,0,0,0,.73,2.02,2.3,2.3,0,0,0,1.777.77,2.517,2.517,0,0,0,1.3-.312,3.259,3.259,0,0,0,.93-.828l.883.688A3.55,3.55,0,0,1,9.25,24.156Zm-.18-7.578a1.928,1.928,0,0,0-1.469.637A3.1,3.1,0,0,0,6.867,19H11.1v-.109a2.753,2.753,0,0,0-.594-1.707A1.815,1.815,0,0,0,9.07,16.578Zm8.539,6.4a2.082,2.082,0,0,0,1.352-.469,1.649,1.649,0,0,0,.641-1.172h1.367a2.621,2.621,0,0,1-.5,1.383,3.293,3.293,0,0,1-1.23,1.047,3.55,3.55,0,0,1-1.629.391A3.482,3.482,0,0,1,14.863,23a4.59,4.59,0,0,1-1.02-3.152v-.242a5.089,5.089,0,0,1,.453-2.2,3.451,3.451,0,0,1,1.3-1.492,3.7,3.7,0,0,1,2-.531,3.39,3.39,0,0,1,2.363.852,3.043,3.043,0,0,1,1,2.211H19.6a1.992,1.992,0,0,0-.621-1.348,1.932,1.932,0,0,0-1.379-.527,2.023,2.023,0,0,0-1.707.793,3.724,3.724,0,0,0-.605,2.293v.273a3.65,3.65,0,0,0,.6,2.25A2.033,2.033,0,0,0,17.609,22.977Zm4.6-3.281a4.993,4.993,0,0,1,.488-2.234,3.643,3.643,0,0,1,1.359-1.531,3.7,3.7,0,0,1,1.988-.539,3.565,3.565,0,0,1,2.793,1.2,4.6,4.6,0,0,1,1.066,3.18v.1a5.036,5.036,0,0,1-.473,2.215,3.589,3.589,0,0,1-1.352,1.527,3.743,3.743,0,0,1-2.02.547,3.556,3.556,0,0,1-2.785-1.2A4.575,4.575,0,0,1,22.211,19.8Zm1.453.172a3.616,3.616,0,0,0,.652,2.258,2.211,2.211,0,0,0,3.5-.012,3.955,3.955,0,0,0,.648-2.418,3.61,3.61,0,0,0-.66-2.254,2.1,2.1,0,0,0-1.754-.863,2.075,2.075,0,0,0-1.727.852A3.925,3.925,0,0,0,23.664,19.867Zm9.414-4.32.039.938a3.122,3.122,0,0,1,2.508-1.094,2.417,2.417,0,0,1,2.414,1.359,3.2,3.2,0,0,1,1.1-.984,3.242,3.242,0,0,1,1.6-.375q2.781,0,2.828,2.945V24H42.117V18.422a1.941,1.941,0,0,0-.414-1.355,1.823,1.823,0,0,0-1.391-.449,1.916,1.916,0,0,0-1.336.48,1.949,1.949,0,0,0-.617,1.293V24H36.906V18.461a1.613,1.613,0,0,0-1.8-1.844,1.934,1.934,0,0,0-1.945,1.211V24H31.711V15.547Zm19.8,4.32A5.062,5.062,0,0,1,52,22.977a2.829,2.829,0,0,1-2.391,1.18,3.1,3.1,0,0,1-2.422-.977v4.07H45.742v-11.7h1.32l.07.938a2.977,2.977,0,0,1,2.453-1.094A2.882,2.882,0,0,1,52,16.539a5.117,5.117,0,0,1,.887,3.2ZM51.438,19.7a3.735,3.735,0,0,0-.609-2.258,1.963,1.963,0,0,0-1.672-.828,2.125,2.125,0,0,0-1.969,1.164V21.82a2.129,2.129,0,0,0,1.984,1.156,1.954,1.954,0,0,0,1.652-.824A4.077,4.077,0,0,0,51.438,19.7Zm6.789,4.453a3.693,3.693,0,0,1-2.8-1.129,4.19,4.19,0,0,1-1.078-3.02v-.266a5.073,5.073,0,0,1,.48-2.246,3.748,3.748,0,0,1,1.344-1.547,3.378,3.378,0,0,1,1.871-.559,3.166,3.166,0,0,1,2.563,1.086,4.7,4.7,0,0,1,.914,3.109v.6H55.8a3,3,0,0,0,.73,2.02,2.3,2.3,0,0,0,1.777.77,2.517,2.517,0,0,0,1.3-.312,3.259,3.259,0,0,0,.93-.828l.883.688A3.55,3.55,0,0,1,58.227,24.156Zm-.18-7.578a1.928,1.928,0,0,0-1.469.637A3.1,3.1,0,0,0,55.844,19h4.234v-.109a2.753,2.753,0,0,0-.594-1.707A1.815,1.815,0,0,0,58.047,16.578Zm6.516-1.031.047,1.063a3.08,3.08,0,0,1,2.531-1.219q2.68,0,2.7,3.023V24H68.4V18.406a1.946,1.946,0,0,0-.418-1.352,1.675,1.675,0,0,0-1.277-.437,2.086,2.086,0,0,0-1.234.375,2.546,2.546,0,0,0-.828.984V24H63.2V15.547Zm12.383,6.211a1.064,1.064,0,0,0-.441-.91,4.249,4.249,0,0,0-1.539-.559,7.277,7.277,0,0,1-1.742-.562,2.478,2.478,0,0,1-.953-.781,1.869,1.869,0,0,1-.309-1.078,2.193,2.193,0,0,1,.879-1.758,3.432,3.432,0,0,1,2.246-.719,3.532,3.532,0,0,1,2.332.742,2.357,2.357,0,0,1,.895,1.9H76.859a1.3,1.3,0,0,0-.5-1.023,1.888,1.888,0,0,0-1.27-.43,1.976,1.976,0,0,0-1.234.344,1.082,1.082,0,0,0-.445.9.877.877,0,0,0,.414.789,5.1,5.1,0,0,0,1.5.508,7.8,7.8,0,0,1,1.754.578,2.558,2.558,0,0,1,1,.809,1.988,1.988,0,0,1,.324,1.152,2.163,2.163,0,0,1-.906,1.816,3.8,3.8,0,0,1-2.352.684,4.257,4.257,0,0,1-1.8-.359,2.922,2.922,0,0,1-1.223-1,2.42,2.42,0,0,1-.441-1.395h1.445a1.5,1.5,0,0,0,.582,1.152,2.258,2.258,0,0,0,1.434.426,2.331,2.331,0,0,0,1.316-.332A1.02,1.02,0,0,0,76.945,21.758ZM85.492,24a3.036,3.036,0,0,1-.2-.891,3.225,3.225,0,0,1-2.406,1.047,2.984,2.984,0,0,1-2.051-.707,2.288,2.288,0,0,1-.8-1.793,2.39,2.39,0,0,1,1-2.051,4.733,4.733,0,0,1,2.824-.73h1.406v-.664A1.623,1.623,0,0,0,84.813,17a1.821,1.821,0,0,0-1.336-.449,2.108,2.108,0,0,0-1.3.391,1.151,1.151,0,0,0-.523.945H80.2a2,2,0,0,1,.449-1.223,3.066,3.066,0,0,1,1.219-.934,4.1,4.1,0,0,1,1.691-.344,3.342,3.342,0,0,1,2.289.73,2.635,2.635,0,0,1,.859,2.012v3.891a4.757,4.757,0,0,0,.3,1.852V24Zm-2.4-1.1a2.54,2.54,0,0,0,1.289-.352,2.127,2.127,0,0,0,.883-.914V19.9H84.133q-2.656,0-2.656,1.555a1.316,1.316,0,0,0,.453,1.063A1.742,1.742,0,0,0,83.094,22.9Z" transform="translate(621.5 7215)" fill="#12263f"/>
    <g id="Grupo_144742" data-name="Grupo 144742" transform="translate(774.701 7130.12) rotate(180)">
      <g id="Grupo_144706" data-name="Grupo 144706" clip-path="url(#clip-path-4)">
        <path id="Trazado_191827" data-name="Trazado 191827" d="M52.7,15.5a2.605,2.605,0,0,0-.63-1.6L39.67.722A2.663,2.663,0,0,0,36.28.528,2.422,2.422,0,0,0,36.3,3.919l8.719,9.252-153.487.726a2.325,2.325,0,0,0-2.325,2.325,2.325,2.325,0,0,0,2.325,2.325l153.487-.726L36.3,27.073a2.561,2.561,0,0,0-.024,3.391,2.628,2.628,0,0,0,3.391-.194l12.4-13.176a2.237,2.237,0,0,0,.63-1.6Z" transform="translate(0 0)" fill="#ffa726"/>
      </g>
    </g>
    <path id="Trazado_192661" data-name="Trazado 192661" d="M-22.57-4.227V0h-1.977V-11.375H-20.2a4.4,4.4,0,0,1,3.027.992,3.334,3.334,0,0,1,1.121,2.625,3.224,3.224,0,0,1-1.1,2.6,4.617,4.617,0,0,1-3.074.93Zm0-1.586H-20.2a2.339,2.339,0,0,0,1.609-.5,1.823,1.823,0,0,0,.555-1.434,1.967,1.967,0,0,0-.562-1.473,2.168,2.168,0,0,0-1.547-.566h-2.43Zm12.492-.906a4.7,4.7,0,0,0-.773-.062,1.741,1.741,0,0,0-1.758,1V0h-1.9V-8.453H-12.7l.047.945a2.139,2.139,0,0,1,1.906-1.1,1.777,1.777,0,0,1,.672.109ZM-5.3.156A3.928,3.928,0,0,1-8.23-.98,4.124,4.124,0,0,1-9.352-4.008v-.234A5.072,5.072,0,0,1-8.863-6.5,3.716,3.716,0,0,1-7.492-8.055a3.625,3.625,0,0,1,1.969-.555,3.318,3.318,0,0,1,2.668,1.1,4.658,4.658,0,0,1,.941,3.117v.766H-7.437a2.539,2.539,0,0,0,.7,1.656A2.1,2.1,0,0,0-5.2-1.359,2.571,2.571,0,0,0-3.07-2.414l1.023.977A3.418,3.418,0,0,1-3.4-.262,4.244,4.244,0,0,1-5.3.156Zm-.227-7.242a1.6,1.6,0,0,0-1.262.547,2.835,2.835,0,0,0-.613,1.523h3.617v-.141A2.307,2.307,0,0,0-4.3-6.6,1.586,1.586,0,0,0-5.531-7.086ZM1.344-8.453,1.4-7.57A3.042,3.042,0,0,1,3.836-8.609a2.337,2.337,0,0,1,2.32,1.3,3,3,0,0,1,2.594-1.3,2.636,2.636,0,0,1,2.082.773,3.405,3.405,0,0,1,.7,2.281V0h-1.9V-5.5a1.681,1.681,0,0,0-.352-1.18,1.539,1.539,0,0,0-1.164-.375,1.581,1.581,0,0,0-1.059.348,1.833,1.833,0,0,0-.574.91L6.492,0h-1.9V-5.562A1.354,1.354,0,0,0,3.07-7.055a1.671,1.671,0,0,0-1.617.93V0h-1.9V-8.453ZM15.5,0H13.6V-8.453h1.9ZM13.484-10.648a1.008,1.008,0,0,1,.277-.727,1.048,1.048,0,0,1,.793-.289,1.061,1.061,0,0,1,.8.289,1,1,0,0,1,.281.727.977.977,0,0,1-.281.715,1.069,1.069,0,0,1-.8.285,1.056,1.056,0,0,1-.793-.285A.984.984,0,0,1,13.484-10.648ZM17.211-4.3A4.984,4.984,0,0,1,17.7-6.543a3.6,3.6,0,0,1,1.383-1.531,3.9,3.9,0,0,1,2.047-.535,3.692,3.692,0,0,1,2.777,1.1,4.333,4.333,0,0,1,1.152,2.922l.008.445a5.029,5.029,0,0,1-.48,2.234A3.551,3.551,0,0,1,23.215-.383a3.925,3.925,0,0,1-2.066.539,3.667,3.667,0,0,1-2.863-1.191,4.563,4.563,0,0,1-1.074-3.176Zm1.9.164A3.406,3.406,0,0,0,19.648-2.1a1.752,1.752,0,0,0,1.5.738,1.733,1.733,0,0,0,1.5-.75,3.762,3.762,0,0,0,.535-2.2,3.362,3.362,0,0,0-.551-2.031,1.759,1.759,0,0,0-1.5-.75,1.743,1.743,0,0,0-1.477.738A3.691,3.691,0,0,0,19.109-4.141Z" transform="translate(804.816 7094.3)" fill="#12263f"/>
    <g id="Grupo_144743" data-name="Grupo 144743" transform="translate(3.316 6)">
      <line id="Línea_1899" data-name="Línea 1899" x2="36" y2="36" transform="translate(783.5 7146.5)" fill="none" stroke="#ff2c2c" stroke-linecap="round" stroke-width="6"/>
      <line id="Línea_1900" data-name="Línea 1900" x1="36" y2="36" transform="translate(783.5 7146.5)" fill="none" stroke="#ff2c2c" stroke-linecap="round" stroke-width="6"/>
    </g>
    <path id="Trazado_192664" data-name="Trazado 192664" d="M-42.672-4.227V0h-1.977V-11.375H-40.3a4.4,4.4,0,0,1,3.027.992,3.334,3.334,0,0,1,1.121,2.625,3.224,3.224,0,0,1-1.1,2.6,4.617,4.617,0,0,1-3.074.93Zm0-1.586H-40.3a2.339,2.339,0,0,0,1.609-.5,1.823,1.823,0,0,0,.555-1.434A1.967,1.967,0,0,0-38.7-9.215a2.168,2.168,0,0,0-1.547-.566h-2.43ZM-30.984.156A3.928,3.928,0,0,1-33.91-.98a4.124,4.124,0,0,1-1.121-3.027v-.234A5.072,5.072,0,0,1-34.543-6.5a3.716,3.716,0,0,1,1.371-1.551A3.625,3.625,0,0,1-31.2-8.609a3.318,3.318,0,0,1,2.668,1.1,4.658,4.658,0,0,1,.941,3.117v.766h-5.523a2.539,2.539,0,0,0,.7,1.656,2.1,2.1,0,0,0,1.543.609A2.571,2.571,0,0,0-28.75-2.414l1.023.977A3.418,3.418,0,0,1-29.082-.262,4.244,4.244,0,0,1-30.984.156Zm-.227-7.242a1.6,1.6,0,0,0-1.262.547,2.835,2.835,0,0,0-.613,1.523h3.617v-.141A2.307,2.307,0,0,0-29.977-6.6,1.586,1.586,0,0,0-31.211-7.086Zm6.852-1.367.055.977a3.039,3.039,0,0,1,2.461-1.133q2.641,0,2.688,3.023V0h-1.9V-5.477A1.741,1.741,0,0,0-21.4-6.668a1.462,1.462,0,0,0-1.137-.387A1.829,1.829,0,0,0-24.25-6.016V0h-1.9V-8.453ZM-12.172,0a2.93,2.93,0,0,1-.219-.789,2.955,2.955,0,0,1-2.219.945A2.982,2.982,0,0,1-16.687-.57a2.325,2.325,0,0,1-.8-1.8,2.4,2.4,0,0,1,1-2.074,4.865,4.865,0,0,1,2.871-.723h1.164v-.555A1.481,1.481,0,0,0-12.82-6.77a1.456,1.456,0,0,0-1.117-.395A1.672,1.672,0,0,0-15-6.84a1,1,0,0,0-.414.824h-1.9a2.107,2.107,0,0,1,.461-1.3A3.071,3.071,0,0,1-15.6-8.266a4.4,4.4,0,0,1,1.77-.344,3.547,3.547,0,0,1,2.367.746,2.661,2.661,0,0,1,.906,2.1v3.813a4.321,4.321,0,0,0,.32,1.82V0Zm-2.086-1.367A2.159,2.159,0,0,0-13.2-1.641a1.827,1.827,0,0,0,.746-.734V-3.969h-1.023a2.8,2.8,0,0,0-1.586.367,1.189,1.189,0,0,0-.531,1.039,1.109,1.109,0,0,0,.363.871A1.407,1.407,0,0,0-14.258-1.367ZM-6.547,0h-1.9V-12h1.9Zm4.086,0h-1.9V-8.453h1.9ZM-4.477-10.648a1.008,1.008,0,0,1,.277-.727,1.048,1.048,0,0,1,.793-.289,1.061,1.061,0,0,1,.8.289,1,1,0,0,1,.281.727.977.977,0,0,1-.281.715,1.069,1.069,0,0,1-.8.285A1.056,1.056,0,0,1-4.2-9.934.984.984,0,0,1-4.477-10.648ZM1.633-1.516h4.5V0H-.727V-1.242l4.289-5.68H-.648V-8.453H5.969v1.2ZM12.7,0a2.93,2.93,0,0,1-.219-.789,2.955,2.955,0,0,1-2.219.945A2.982,2.982,0,0,1,8.188-.57a2.325,2.325,0,0,1-.8-1.8,2.4,2.4,0,0,1,1-2.074,4.865,4.865,0,0,1,2.871-.723h1.164v-.555a1.481,1.481,0,0,0-.367-1.051,1.456,1.456,0,0,0-1.117-.395,1.672,1.672,0,0,0-1.062.324,1,1,0,0,0-.414.824h-1.9a2.107,2.107,0,0,1,.461-1.3,3.071,3.071,0,0,1,1.254-.949,4.4,4.4,0,0,1,1.77-.344,3.547,3.547,0,0,1,2.367.746,2.661,2.661,0,0,1,.906,2.1v3.813a4.321,4.321,0,0,0,.32,1.82V0ZM10.617-1.367a2.159,2.159,0,0,0,1.059-.273,1.827,1.827,0,0,0,.746-.734V-3.969H11.4A2.8,2.8,0,0,0,9.813-3.6a1.189,1.189,0,0,0-.531,1.039,1.109,1.109,0,0,0,.363.871A1.407,1.407,0,0,0,10.617-1.367Zm9.164.008a1.716,1.716,0,0,0,1.18-.414,1.415,1.415,0,0,0,.5-1.023H23.25a2.789,2.789,0,0,1-.492,1.473,3.228,3.228,0,0,1-1.25,1.082,3.725,3.725,0,0,1-1.7.4A3.6,3.6,0,0,1,16.992-.992a4.555,4.555,0,0,1-1.039-3.172v-.2a4.479,4.479,0,0,1,1.031-3.09A3.571,3.571,0,0,1,19.8-8.609a3.473,3.473,0,0,1,2.457.879,3.148,3.148,0,0,1,1,2.309H21.461a1.738,1.738,0,0,0-.5-1.2,1.6,1.6,0,0,0-1.184-.469,1.671,1.671,0,0,0-1.422.668,3.408,3.408,0,0,0-.508,2.027v.3a3.465,3.465,0,0,0,.5,2.051A1.669,1.669,0,0,0,19.781-1.359ZM26.7,0H24.8V-8.453h1.9ZM24.688-10.648a1.008,1.008,0,0,1,.277-.727,1.048,1.048,0,0,1,.793-.289,1.061,1.061,0,0,1,.8.289,1,1,0,0,1,.281.727.977.977,0,0,1-.281.715,1.069,1.069,0,0,1-.8.285,1.056,1.056,0,0,1-.793-.285A.984.984,0,0,1,24.688-10.648ZM28.414-4.3a4.984,4.984,0,0,1,.492-2.238,3.6,3.6,0,0,1,1.383-1.531,3.9,3.9,0,0,1,2.047-.535,3.692,3.692,0,0,1,2.777,1.1,4.333,4.333,0,0,1,1.152,2.922l.008.445a5.029,5.029,0,0,1-.48,2.234A3.551,3.551,0,0,1,34.418-.383a3.925,3.925,0,0,1-2.066.539,3.667,3.667,0,0,1-2.863-1.191,4.563,4.563,0,0,1-1.074-3.176Zm1.9.164A3.406,3.406,0,0,0,30.852-2.1a1.752,1.752,0,0,0,1.5.738,1.733,1.733,0,0,0,1.5-.75,3.762,3.762,0,0,0,.535-2.2,3.362,3.362,0,0,0-.551-2.031,1.759,1.759,0,0,0-1.5-.75,1.743,1.743,0,0,0-1.477.738A3.691,3.691,0,0,0,30.313-4.141ZM32.859-12h2.164L32.859-9.633H31.336Zm6.781,3.547.055.977a3.039,3.039,0,0,1,2.461-1.133q2.641,0,2.688,3.023V0h-1.9V-5.477A1.741,1.741,0,0,0,42.6-6.668a1.462,1.462,0,0,0-1.137-.387A1.829,1.829,0,0,0,39.75-6.016V0h-1.9V-8.453Z" transform="translate(805 7215)" fill="#12263f"/>
  </g>
</svg>
