<svg xmlns="http://www.w3.org/2000/svg" xmlns:xlink="http://www.w3.org/1999/xlink" width="349.419" height="321.237" viewBox="0 0 349.419 321.237">
  <defs>
    <clipPath id="clip-path">
      <rect id="Rectángulo_42750" data-name="Rectángulo 42750" width="203.627" height="200.362" fill="none"/>
    </clipPath>
    <clipPath id="clip-path-3">
      <rect id="Rectángulo_42747" data-name="Rectángulo 42747" width="201.732" height="91.271" fill="none"/>
    </clipPath>
    <clipPath id="clip-path-5">
      <rect id="Rectángulo_42751" data-name="Rectángulo 42751" width="43.863" height="23.069" transform="translate(0 0)" fill="#ffa726"/>
    </clipPath>
    <clipPath id="clip-path-6">
      <rect id="Rectángulo_42750-2" data-name="Rectángulo 42750" width="150.831" height="148.413" fill="none"/>
    </clipPath>
    <clipPath id="clip-path-8">
      <rect id="Rectángulo_42747-2" data-name="Rectángulo 42747" width="149.428" height="67.606" fill="none"/>
    </clipPath>
    <clipPath id="clip-path-10">
      <rect id="Rectángulo_42750-3" data-name="Rectángulo 42750" width="139.179" height="136.947" fill="none"/>
    </clipPath>
    <clipPath id="clip-path-12">
      <rect id="Rectángulo_42747-3" data-name="Rectángulo 42747" width="137.884" height="62.383" fill="none"/>
    </clipPath>
    <clipPath id="clip-path-14">
      <rect id="Rectángulo_42751-2" data-name="Rectángulo 42751" width="43.863" height="23.069" transform="translate(0 0)" fill="#4dd0e1"/>
    </clipPath>
  </defs>
  <g id="Grupo_143749" data-name="Grupo 143749" transform="translate(-353.068 -3644)">
    <g id="Grupo_143742" data-name="Grupo 143742" transform="translate(353.068 3764.875)">
      <g id="Grupo_143741" data-name="Grupo 143741" clip-path="url(#clip-path)">
        <g id="Grupo_143738" data-name="Grupo 143738">
          <g id="Grupo_143737" data-name="Grupo 143737" clip-path="url(#clip-path)">
            <g id="Grupo_143736" data-name="Grupo 143736" transform="translate(1.871 109.091)" opacity="0.15">
              <g id="Grupo_143735" data-name="Grupo 143735">
                <g id="Grupo_143734" data-name="Grupo 143734" clip-path="url(#clip-path-3)">
                  <path id="Trazado_189698" data-name="Trazado 189698" d="M3.17,143.828s-2.192,3.014-1.644,3.835,25.889,24.247,47.121,27.123c0,0,6.028,1.1,11.233-.821S203.169,93.143,203.169,93.143L188.1,83.828Z" transform="translate(-1.438 -83.828)" fill="#1b283d"/>
                </g>
              </g>
            </g>
          </g>
        </g>
        <path id="Trazado_189699" data-name="Trazado 189699" d="M59.512,129.315,78.1,138.968V123.94l-8.95-4.85Z" transform="translate(17.935 35.89)" fill="#131c2a"/>
        <path id="Trazado_189700" data-name="Trazado 189700" d="M118.713,99.545l-2.767,16.245L152.258,94.9l-.9-14.761Z" transform="translate(34.943 24.151)" fill="#131c2a"/>
        <path id="Trazado_189701" data-name="Trazado 189701" d="M133.727,88.276l18.59,9.423V82.9l-8.951-4.849Z" transform="translate(40.302 23.522)" fill="#131c2a"/>
        <g id="Grupo_143740" data-name="Grupo 143740">
          <g id="Grupo_143739" data-name="Grupo 143739" clip-path="url(#clip-path)">
            <path id="Trazado_189702" data-name="Trazado 189702" d="M146.411,91.251c-.014.109-.021.221-.039.329,0,0,.018-.121.039-.329" transform="translate(44.112 27.5)" fill="#131c2a"/>
            <path id="Trazado_189703" data-name="Trazado 189703" d="M146.461,91.323c.04-.429.091-.856.091-1.294a3.883,3.883,0,0,0-.2-1.167,12.622,12.622,0,0,1,.1,2.461" transform="translate(44.108 26.781)" fill="#131c2a"/>
            <path id="Trazado_189704" data-name="Trazado 189704" d="M146.448,90.753c-.021.215-.017.435-.046.648.016-.163.033-.39.046-.648" transform="translate(44.121 27.35)" fill="#131c2a"/>
            <path id="Trazado_189705" data-name="Trazado 189705" d="M140.4,87.149c-5.4,2.8-8.648,11.42-6.334,14.761a8.7,8.7,0,0,0,4.8,3.114c-.453-.636-2.857-2.914-2.85-3.794l.007-.139a14.935,14.935,0,0,1,7.864-13.019l.843-.452a3.871,3.871,0,0,1,5.556,2.268c-.458-3.091-2.444-6.6-9.887-2.741" transform="translate(40.177 25.753)" fill="#131c2a"/>
            <path id="Trazado_189706" data-name="Trazado 189706" d="M145.95,86.757a3.884,3.884,0,0,0-1.844.472l-.843.452A14.935,14.935,0,0,0,135.4,100.7l-.007.138a3.855,3.855,0,0,0,.717,2.3,3.908,3.908,0,0,0,5.14,1.12l1.139-.655a14.943,14.943,0,0,0,7.293-10.666,14.268,14.268,0,0,0,.176-2.271,3.906,3.906,0,0,0-3.907-3.907m-3.449,13.1-.6.346a2.041,2.041,0,0,1-3.058-1.787l.007-.069a7.8,7.8,0,0,1,4.1-6.8l.441-.233a2,2,0,0,1,.963-.246,2.038,2.038,0,0,1,2.038,2.039,7.793,7.793,0,0,1-3.9,6.752" transform="translate(40.803 26.146)" fill="#31486e"/>
            <path id="Trazado_189707" data-name="Trazado 189707" d="M143.558,90.068a2,2,0,0,0-.963.246l-.44.233a7.794,7.794,0,0,0-4.1,6.8l-.005.069A2.04,2.04,0,0,0,141.1,99.2l.6-.346a7.794,7.794,0,0,0,3.9-6.752,2.039,2.039,0,0,0-2.039-2.039" transform="translate(41.603 27.144)" fill="#e6e6e6"/>
            <path id="Trazado_189708" data-name="Trazado 189708" d="M55.705,132.576,74.3,142V127.2l-8.951-4.849Z" transform="translate(16.788 36.873)" fill="#131c2a"/>
            <path id="Trazado_189709" data-name="Trazado 189709" d="M51.887,136.6,49.12,152.841l23.715-13.316-.9-14.761Z" transform="translate(14.803 37.6)" fill="#131c2a"/>
            <path id="Trazado_189710" data-name="Trazado 189710" d="M59.508,132.717c-5.73,2.971-9.173,12.114-6.72,15.658a9.226,9.226,0,0,0,5.095,3.3c-.482-.674-3.032-3.089-3.026-4.024l.008-.147A15.842,15.842,0,0,1,63.206,133.7l.9-.481a4.11,4.11,0,0,1,5.893,2.4c-.487-3.277-2.6-6.992-10.486-2.9" transform="translate(15.667 39.455)" fill="#131c2a"/>
            <path id="Trazado_189711" data-name="Trazado 189711" d="M65.881,137.07c-.016.115-.022.232-.04.346,0,0,.018-.128.04-.346" transform="translate(19.843 41.309)" fill="#131c2a"/>
            <path id="Trazado_189712" data-name="Trazado 189712" d="M65.92,136.544c-.022.226-.018.459-.048.685.017-.172.034-.413.048-.685" transform="translate(19.852 41.151)" fill="#131c2a"/>
            <path id="Trazado_189713" data-name="Trazado 189713" d="M65.935,137.151c.043-.458.1-.914.1-1.379a4.118,4.118,0,0,0-.208-1.243,13.413,13.413,0,0,1,.111,2.622" transform="translate(19.837 40.543)" fill="#131c2a"/>
            <path id="Trazado_189714" data-name="Trazado 189714" d="M65.393,132.3a4.13,4.13,0,0,0-1.956.5l-.894.48A15.842,15.842,0,0,0,54.2,147.089l-.008.147a4.139,4.139,0,0,0,6.215,3.624l1.208-.694a15.86,15.86,0,0,0,7.737-11.313,15.247,15.247,0,0,0,.186-2.41,4.144,4.144,0,0,0-4.145-4.145m-3.658,13.9-.634.367a2.165,2.165,0,0,1-3.244-1.895l.007-.073a8.274,8.274,0,0,1,4.352-7.216l.468-.246a2.12,2.12,0,0,1,1.022-.262,2.161,2.161,0,0,1,2.162,2.163,8.263,8.263,0,0,1-4.132,7.161" transform="translate(16.332 39.871)" fill="#31486e"/>
            <path id="Trazado_189715" data-name="Trazado 189715" d="M62.855,135.812a2.124,2.124,0,0,0-1.022.262l-.467.246a8.274,8.274,0,0,0-4.352,7.215l-.007.073a2.164,2.164,0,0,0,3.243,1.9l.634-.367a8.263,8.263,0,0,0,4.132-7.161,2.161,2.161,0,0,0-2.162-2.163" transform="translate(17.181 40.93)" fill="#e6e6e6"/>
            <path id="Trazado_189716" data-name="Trazado 189716" d="M133.216,98.86c-.014.109-.021.221-.039.329,0,0,.018-.121.039-.329" transform="translate(40.136 29.794)" fill="#131c2a"/>
            <path id="Trazado_189717" data-name="Trazado 189717" d="M127.207,94.759c-5.4,2.8-8.648,11.42-6.335,14.761a8.7,8.7,0,0,0,4.8,3.113c-.454-.635-2.857-2.912-2.851-3.792l.007-.139a14.939,14.939,0,0,1,7.866-13.019l.843-.453a3.874,3.874,0,0,1,5.556,2.267c-.458-3.091-2.445-6.6-9.887-2.738" transform="translate(36.2 28.046)" fill="#131c2a"/>
            <path id="Trazado_189718" data-name="Trazado 189718" d="M133.253,98.363c-.021.215-.017.435-.046.647.016-.163.033-.389.046-.647" transform="translate(40.145 29.644)" fill="#131c2a"/>
            <path id="Trazado_189719" data-name="Trazado 189719" d="M133.266,98.933c.04-.429.091-.858.091-1.295a3.885,3.885,0,0,0-.2-1.169,12.65,12.65,0,0,1,.1,2.463" transform="translate(40.131 29.073)" fill="#131c2a"/>
            <path id="Trazado_189720" data-name="Trazado 189720" d="M132.755,94.366a3.889,3.889,0,0,0-1.843.471l-.845.453a14.939,14.939,0,0,0-7.866,13.019l-.007.138a3.9,3.9,0,0,0,5.859,3.417l1.139-.656a14.938,14.938,0,0,0,7.293-10.665,14.27,14.27,0,0,0,.176-2.271,3.9,3.9,0,0,0-3.907-3.907m-3.449,13.1-.6.346a2.041,2.041,0,0,1-3.058-1.788l.007-.069a7.8,7.8,0,0,1,4.1-6.8l.441-.233a2.015,2.015,0,0,1,.963-.246,2.038,2.038,0,0,1,2.038,2.039,7.793,7.793,0,0,1-3.895,6.752" transform="translate(36.826 28.439)" fill="#31486e"/>
            <path id="Trazado_189721" data-name="Trazado 189721" d="M130.363,97.678a2.013,2.013,0,0,0-.964.246l-.44.233a7.8,7.8,0,0,0-4.1,6.8l0,.069a2.039,2.039,0,0,0,3.057,1.787l.6-.345a7.793,7.793,0,0,0,3.894-6.752,2.036,2.036,0,0,0-2.037-2.039" transform="translate(37.627 29.437)" fill="#e6e6e6"/>
            <path id="Trazado_189722" data-name="Trazado 189722" d="M32.118,62.452,86.356,93.766,193.947,31.928,138.966,0Z" transform="translate(9.679)" fill="#ffca28"/>
            <path id="Trazado_189723" data-name="Trazado 189723" d="M73.8,153.143,181.387,92.454V24.534L73.8,86.374Z" transform="translate(22.24 7.394)" fill="#ffa726"/>
            <path id="Trazado_189724" data-name="Trazado 189724" d="M178.115,26.716a.272.272,0,0,0-.269.269v62.4L76.208,146.782V85.716a.269.269,0,1,0-.537,0V147.7L178.246,89.78l.137-.078V26.985a.271.271,0,0,0-.268-.269" transform="translate(22.805 8.051)" fill="#fff"/>
            <path id="Trazado_189725" data-name="Trazado 189725" d="M32.118,49.448V116.5l54.239,29.1V79.3L32.118,47.989Z" transform="translate(9.679 14.463)" fill="#ffd391"/>
            <path id="Trazado_189726" data-name="Trazado 189726" d="M6.522,93.853,4.541,92.708A1.7,1.7,0,0,0,2,94.176v5.161a.538.538,0,0,0,1.076,0V94.176a.609.609,0,0,1,.308-.537.624.624,0,0,1,.623,0l1.981,1.145a.537.537,0,1,0,.537-.93" transform="translate(0.602 27.87)" fill="#293c5c"/>
            <path id="Trazado_189727" data-name="Trazado 189727" d="M4.918,96.295,2.51,95.423A2,2,0,0,0,0,97.545V107.82a2.287,2.287,0,0,0,1.029,1.966l2.406,1.464c1.287.782,2.834-.29,2.834-1.965V98.416a2.213,2.213,0,0,0-1.352-2.121" transform="translate(0 28.727)" fill="#293c5c"/>
            <path id="Trazado_189728" data-name="Trazado 189728" d="M9.451,85.953l46.956,26.672C65.086,94.3,74.6,87.506,74.6,87.506L27.644,60.834s-8.8,7.63-18.193,25.119" transform="translate(2.848 18.334)" fill="#e9eef5"/>
            <path id="Trazado_189729" data-name="Trazado 189729" d="M23.431,62.542,70.387,89.213,84.021,81.8,36.237,55.17Z" transform="translate(7.061 16.627)" fill="#dbe3ee"/>
            <path id="Trazado_189730" data-name="Trazado 189730" d="M11.889,80.136a219.8,219.8,0,0,0-9.854,33.626l-.672,29.445a4.287,4.287,0,0,0,1.387,3.266c5.2,4.785,24.058,20.994,47.918,27.968a1.608,1.608,0,0,1,.372.077,3.806,3.806,0,0,0,1.715.1c.1-3.788.92-34.587.783-35.953-.146-1.455,3.032-21.143,5.306-31.86Z" transform="translate(0.41 24.151)" fill="#dbe3ee"/>
            <path id="Trazado_189731" data-name="Trazado 189731" d="M11.733,80.136a219.8,219.8,0,0,0-9.854,33.626s50.338,29.906,50.2,28.539c-.144-1.455,4.335-24.777,6.608-35.494Z" transform="translate(0.566 24.151)" fill="#293c5c"/>
            <path id="Trazado_189732" data-name="Trazado 189732" d="M1.616,120.191,1.35,131.815a2.776,2.776,0,0,0,.877,2.1c4.323,4.049,23.693,21.223,48.444,28.457a1.7,1.7,0,0,1,.375.077,3.747,3.747,0,0,0,1.676.107c-.072-1.21-.3-5.281-.638-13.614-27.818-11.284-41.2-20.193-50.469-28.749" transform="translate(0.407 36.222)" fill="#a4bbd9"/>
            <path id="Trazado_189733" data-name="Trazado 189733" d="M55.461,106.68,13.069,82.752a.843.843,0,0,0-1.2.423,200.787,200.787,0,0,0-8.035,27.6.856.856,0,0,0,.409.93L48.46,136.775a.844.844,0,0,0,1.253-.592c.658-3.974,2.946-17.165,6.145-28.546a.836.836,0,0,0-.4-.958" transform="translate(1.149 24.906)" fill="#b1d4e7"/>
            <path id="Trazado_189734" data-name="Trazado 189734" d="M54.328,103.332,37.356,93.751q-14.816,8.7-29.786,17.136l39.757,22.54a.844.844,0,0,0,1.253-.592c.658-3.974,2.946-17.165,6.145-28.546a.84.84,0,0,0-.4-.958" transform="translate(2.281 28.254)" fill="#7db7d7"/>
            <path id="Trazado_189735" data-name="Trazado 189735" d="M45.533,108.164,77.359,90.839v-15.2l-13.634,7.41s-8.462,4.838-18.192,25.119" transform="translate(13.722 22.794)" fill="#a4bbd9"/>
            <path id="Trazado_189736" data-name="Trazado 189736" d="M40.759,135.966a285.132,285.132,0,0,0,.23,36.5,9.412,9.412,0,0,0,1.687-.423l11.783-5.971s-.479-14.005,6.883-18.291,17.608-9.929,17.608-9.929V87.318L47.122,104.643s-5.779,23.123-6.362,31.323" transform="translate(12.134 26.315)" fill="#a4bbd9"/>
            <path id="Trazado_189737" data-name="Trazado 189737" d="M41.293,151.435a2.049,2.049,0,0,1-.636.207c.092,1.6.172,2.752.213,3.316a9.415,9.415,0,0,0,1.687-.423l11.783-5.971s-.043-1.273.1-3.165c-4.472,1.943-9.039,4.106-13.144,6.036" transform="translate(12.253 43.819)" fill="#293c5c"/>
            <path id="Trazado_189738" data-name="Trazado 189738" d="M45.268,105.745c.078-.044,21.575-11.548,32.171-17.665v-.763L45.613,104.643a5.076,5.076,0,0,0-.345,1.1" transform="translate(13.643 26.315)" fill="#293c5c"/>
            <path id="Trazado_189739" data-name="Trazado 189739" d="M70.019,92.31,50.494,102.877a1.677,1.677,0,0,0-.8.972c-3.4,10.853-6.05,22.653-6.55,27.788a1.662,1.662,0,0,0,2.639,1.5l26.353-17.515a1.665,1.665,0,0,0,.682-1.343l-.341-20.5a1.663,1.663,0,0,0-2.454-1.463" transform="translate(12.999 27.759)" fill="#7db7d7"/>
            <path id="Trazado_189740" data-name="Trazado 189740" d="M72.462,91.67a2.721,2.721,0,0,0-2.706-.056L50.231,102.18a2.782,2.782,0,0,0-1.317,1.6C45.4,115.018,42.8,126.844,42.32,131.785a2.7,2.7,0,0,0,1.366,2.635,2.775,2.775,0,0,0,1.373.37,2.638,2.638,0,0,0,1.566-.511l26.392-17.544a2.756,2.756,0,0,0,1.12-2.227L73.8,94.022a2.718,2.718,0,0,0-1.335-2.352m-.675,23.3L45.394,132.516a.577.577,0,0,1-.643.036.566.566,0,0,1-.29-.561c.468-4.831,3.031-16.465,6.5-27.571a.607.607,0,0,1,.288-.349L70.78,93.5a.571.571,0,0,1,.58.012.589.589,0,0,1,.288.523l.34,20.485a.576.576,0,0,1-.2.446" transform="translate(12.75 27.51)" fill="#293c5c"/>
            <path id="Trazado_189741" data-name="Trazado 189741" d="M5.924,132.512s11.826,12.543,33.685,19.711v-5.735S24.021,141.83,5.924,127.316Z" transform="translate(1.785 38.369)" fill="#293c5c"/>
            <path id="Trazado_189742" data-name="Trazado 189742" d="M28.5,135.455l11.288,4.973v-6.115L28.5,130.483Z" transform="translate(8.59 39.324)" fill="#fff"/>
            <path id="Trazado_189743" data-name="Trazado 189743" d="M3.2,120.886l8.735,6,.134-5.868L3.2,114.167Z" transform="translate(0.965 34.407)" fill="#fff"/>
            <path id="Trazado_189744" data-name="Trazado 189744" d="M10.777,125.61a77.8,77.8,0,0,0,21.544,12.42v-5.2a146.1,146.1,0,0,1-21.544-12.826Z" transform="translate(3.248 36.167)" fill="#293c5c"/>
            <path id="Trazado_189745" data-name="Trazado 189745" d="M49.219,121.393l-2.408-.871a2,2,0,0,0-2.512,2.121v10.274a2.29,2.29,0,0,0,1.029,1.966l2.408,1.464c1.287.783,2.836-.29,2.836-1.965V123.515a2.214,2.214,0,0,0-1.353-2.123" transform="translate(13.351 36.291)" fill="#293c5c"/>
            <path id="Trazado_189746" data-name="Trazado 189746" d="M46.657,116.527l-1.894-1.137a.538.538,0,0,0-.552.923l1.946,1.165a1.987,1.987,0,0,1,1.16,1.86v18.8a.688.688,0,0,1-.345.605.675.675,0,0,1-.677.023l-3.348-2.017a.543.543,0,0,0-.738.185.537.537,0,0,0,.183.737l3.368,2.029a1.761,1.761,0,0,0,1.761-.033,1.762,1.762,0,0,0,.871-1.529V119.347a3.026,3.026,0,0,0-1.735-2.82" transform="translate(12.698 34.752)" fill="#293c5c"/>
            <path id="Trazado_189747" data-name="Trazado 189747" d="M73.8,150.349l60.883-34.987s-2.189-9.094,5.558-15l30.141-16.7V81.329L73.8,135.549Z" transform="translate(22.24 24.51)" fill="#293c5c"/>
            <path id="Trazado_189748" data-name="Trazado 189748" d="M80.811,115.905c-.3,0-.537.439-.537.98s.239.98.537.98.537-.439.537-.98-.241-.98-.537-.98" transform="translate(24.192 34.931)" fill="#fff"/>
            <path id="Trazado_189749" data-name="Trazado 189749" d="M85.815,113.076c-.3,0-.537.44-.537.98s.241.98.537.98.537-.439.537-.98-.241-.98-.537-.98" transform="translate(25.7 34.078)" fill="#fff"/>
            <path id="Trazado_189750" data-name="Trazado 189750" d="M90.818,110.247c-.3,0-.537.44-.537.981s.241.979.537.979.537-.437.537-.979-.239-.981-.537-.981" transform="translate(27.208 33.225)" fill="#fff"/>
            <path id="Trazado_189751" data-name="Trazado 189751" d="M95.822,107.418c-.3,0-.537.439-.537.98s.241.98.537.98.537-.439.537-.98-.241-.98-.537-.98" transform="translate(28.716 32.373)" fill="#fff"/>
            <path id="Trazado_189752" data-name="Trazado 189752" d="M100.826,104.589c-.3,0-.537.439-.537.98s.241.98.537.98.537-.439.537-.98-.241-.98-.537-.98" transform="translate(30.224 31.52)" fill="#fff"/>
            <path id="Trazado_189753" data-name="Trazado 189753" d="M105.83,101.76c-.3,0-.537.439-.537.98s.239.98.537.98.537-.439.537-.98-.241-.98-.537-.98" transform="translate(31.732 30.668)" fill="#fff"/>
            <path id="Trazado_189754" data-name="Trazado 189754" d="M110.834,98.931c-.3,0-.537.439-.537.98s.241.98.537.98.537-.439.537-.98-.241-.98-.537-.98" transform="translate(33.24 29.815)" fill="#fff"/>
            <path id="Trazado_189755" data-name="Trazado 189755" d="M115.838,96.1c-.3,0-.537.44-.537.98s.241.98.537.98.537-.439.537-.98-.239-.98-.537-.98" transform="translate(34.748 28.962)" fill="#fff"/>
            <path id="Trazado_189756" data-name="Trazado 189756" d="M120.842,93.273c-.3,0-.537.44-.537.98s.241.98.537.98.537-.439.537-.98-.241-.98-.537-.98" transform="translate(36.257 28.11)" fill="#fff"/>
            <path id="Trazado_189757" data-name="Trazado 189757" d="M125.846,90.444c-.3,0-.537.439-.537.98s.239.98.537.98.537-.439.537-.98-.241-.98-.537-.98" transform="translate(37.765 27.257)" fill="#fff"/>
            <path id="Trazado_189758" data-name="Trazado 189758" d="M130.85,87.615c-.3,0-.537.439-.537.98s.241.98.537.98.537-.439.537-.98-.241-.98-.537-.98" transform="translate(39.273 26.405)" fill="#fff"/>
            <path id="Trazado_189759" data-name="Trazado 189759" d="M135.853,84.786c-.3,0-.537.439-.537.98s.241.98.537.98.537-.439.537-.98-.239-.98-.537-.98" transform="translate(40.78 25.552)" fill="#fff"/>
            <path id="Trazado_189760" data-name="Trazado 189760" d="M140.857,81.957c-.3,0-.537.439-.537.98s.241.98.537.98.537-.439.537-.98-.241-.98-.537-.98" transform="translate(42.289 24.7)" fill="#fff"/>
            <path id="Trazado_189761" data-name="Trazado 189761" d="M145.861,79.128c-.3,0-.537.44-.537.98s.241.98.537.98.537-.439.537-.98-.241-.98-.537-.98" transform="translate(43.797 23.847)" fill="#fff"/>
            <path id="Trazado_189762" data-name="Trazado 189762" d="M150.865,76.3c-.3,0-.537.44-.537.981s.241.979.537.979.537-.437.537-.979-.241-.981-.537-.981" transform="translate(45.305 22.994)" fill="#fff"/>
          </g>
        </g>
      </g>
    </g>
    <g id="Grupo_143744" data-name="Grupo 143744" transform="translate(364.137 3786.61)">
      <g id="Grupo_143743" data-name="Grupo 143743" clip-path="url(#clip-path-5)">
        <path id="Trazado_189763" data-name="Trazado 189763" d="M12.1,20.588a1.453,1.453,0,1,0,2.055,2.055,11,11,0,0,1,15.542,0,1.453,1.453,0,1,0,2.055-2.055,13.91,13.91,0,0,0-19.652,0" fill="#ffa726"/>
        <path id="Trazado_189764" data-name="Trazado 189764" d="M6.185,14.667A1.453,1.453,0,0,0,8.24,16.722a19.386,19.386,0,0,1,27.383,0,1.453,1.453,0,1,0,2.055-2.055,22.294,22.294,0,0,0-31.493,0" fill="#ffa726"/>
        <path id="Trazado_189765" data-name="Trazado 189765" d="M21.931,0A30.218,30.218,0,0,0,.425,8.908a1.454,1.454,0,0,0,2.056,2.056,27.506,27.506,0,0,1,38.9,0,1.454,1.454,0,0,0,2.056-2.056A30.222,30.222,0,0,0,21.931,0" fill="#ffa726"/>
      </g>
    </g>
    <g id="Grupo_143745" data-name="Grupo 143745" transform="translate(395.068 3644)" opacity="0.729">
      <g id="Grupo_143741-2" data-name="Grupo 143741" clip-path="url(#clip-path-6)">
        <g id="Grupo_143738-2" data-name="Grupo 143738">
          <g id="Grupo_143737-2" data-name="Grupo 143737" clip-path="url(#clip-path-6)">
            <g id="Grupo_143736-2" data-name="Grupo 143736" transform="translate(1.386 80.806)" opacity="0.15">
              <g id="Grupo_143735-2" data-name="Grupo 143735">
                <g id="Grupo_143734-2" data-name="Grupo 143734" clip-path="url(#clip-path-8)">
                  <path id="Trazado_189698-2" data-name="Trazado 189698" d="M2.721,128.271S1.1,130.5,1.5,131.112s19.177,17.96,34.9,20.091a18.124,18.124,0,0,0,8.321-.608c3.856-1.421,106.136-59.866,106.136-59.866l-11.162-6.9Z" transform="translate(-1.438 -83.828)" fill="#1b283d"/>
                </g>
              </g>
            </g>
          </g>
        </g>
        <path id="Trazado_189699-2" data-name="Trazado 189699" d="M59.512,126.664l13.769,7.151V122.683l-6.629-3.593Z" transform="translate(-2.145 -4.293)" fill="#131c2a"/>
        <path id="Trazado_189700-2" data-name="Trazado 189700" d="M118,94.512l-2.049,12.033,26.9-15.475-.665-10.934Z" transform="translate(-4.179 -2.888)" fill="#131c2a"/>
        <path id="Trazado_189701-2" data-name="Trazado 189701" d="M133.727,85.625,147.5,92.6V81.643l-6.63-3.592Z" transform="translate(-4.82 -2.813)" fill="#131c2a"/>
        <g id="Grupo_143740-2" data-name="Grupo 143740">
          <g id="Grupo_143739-2" data-name="Grupo 143739" clip-path="url(#clip-path-6)">
            <path id="Trazado_189702-2" data-name="Trazado 189702" d="M146.4,91.251c-.011.081-.015.164-.029.244,0,0,.013-.09.029-.244" transform="translate(-5.276 -3.289)" fill="#131c2a"/>
            <path id="Trazado_189703-2" data-name="Trazado 189703" d="M146.434,90.685c.03-.318.067-.634.067-.958a2.876,2.876,0,0,0-.145-.865,9.349,9.349,0,0,1,.077,1.823" transform="translate(-5.275 -3.203)" fill="#131c2a"/>
            <path id="Trazado_189704-2" data-name="Trazado 189704" d="M146.436,90.753c-.015.159-.013.322-.034.48.012-.12.024-.289.034-.48" transform="translate(-5.277 -3.271)" fill="#131c2a"/>
            <path id="Trazado_189705-2" data-name="Trazado 189705" d="M138.565,86.709c-4,2.074-6.405,8.459-4.692,10.934a6.446,6.446,0,0,0,3.556,2.307c-.335-.471-2.116-2.158-2.111-2.81l0-.1a11.063,11.063,0,0,1,5.825-9.643l.625-.334a2.867,2.867,0,0,1,4.115,1.68c-.339-2.289-1.81-4.888-7.323-2.03" transform="translate(-4.805 -3.08)" fill="#131c2a"/>
            <path id="Trazado_189706-2" data-name="Trazado 189706" d="M143.213,86.757a2.877,2.877,0,0,0-1.366.35l-.625.334a11.063,11.063,0,0,0-5.825,9.643l0,.1a2.855,2.855,0,0,0,.531,1.7,2.9,2.9,0,0,0,3.808.83l.843-.485a11.068,11.068,0,0,0,5.4-7.9,10.57,10.57,0,0,0,.13-1.682,2.893,2.893,0,0,0-2.894-2.894m-2.555,9.7-.442.256a1.512,1.512,0,0,1-2.265-1.324l0-.051a5.776,5.776,0,0,1,3.038-5.039l.327-.173a1.482,1.482,0,0,1,.713-.182,1.509,1.509,0,0,1,1.51,1.511,5.772,5.772,0,0,1-2.885,5" transform="translate(-4.88 -3.127)" fill="#31486e"/>
            <path id="Trazado_189707-2" data-name="Trazado 189707" d="M142.129,90.068a1.482,1.482,0,0,0-.713.182l-.326.173a5.773,5.773,0,0,0-3.039,5.039l0,.051a1.511,1.511,0,0,0,2.264,1.324l.442-.256a5.773,5.773,0,0,0,2.886-5,1.51,1.51,0,0,0-1.511-1.511" transform="translate(-4.976 -3.246)" fill="#e6e6e6"/>
            <path id="Trazado_189708-2" data-name="Trazado 189708" d="M55.705,129.924l13.77,6.98V125.942l-6.63-3.592Z" transform="translate(-2.008 -4.41)" fill="#131c2a"/>
            <path id="Trazado_189709-2" data-name="Trazado 189709" d="M51.17,133.529,49.12,145.562,66.686,135.7l-.664-10.934Z" transform="translate(-1.771 -4.497)" fill="#131c2a"/>
            <path id="Trazado_189710-2" data-name="Trazado 189710" d="M57.558,132.25c-4.244,2.2-6.795,8.973-4.978,11.6a6.834,6.834,0,0,0,3.774,2.447c-.357-.5-2.246-2.288-2.241-2.981l.006-.109A11.735,11.735,0,0,1,60.3,132.977l.663-.357a3.045,3.045,0,0,1,4.365,1.778c-.361-2.427-1.923-5.179-7.768-2.149" transform="translate(-1.874 -4.719)" fill="#131c2a"/>
            <path id="Trazado_189711-2" data-name="Trazado 189711" d="M65.871,137.07c-.012.085-.016.172-.03.256,0,0,.013-.094.03-.256" transform="translate(-2.373 -4.941)" fill="#131c2a"/>
            <path id="Trazado_189712-2" data-name="Trazado 189712" d="M65.908,136.544c-.016.168-.013.34-.036.507.013-.127.025-.306.036-.507" transform="translate(-2.374 -4.922)" fill="#131c2a"/>
            <path id="Trazado_189713-2" data-name="Trazado 189713" d="M65.906,136.471c.032-.339.072-.677.072-1.022a3.05,3.05,0,0,0-.154-.921,9.935,9.935,0,0,1,.082,1.942" transform="translate(-2.373 -4.849)" fill="#131c2a"/>
            <path id="Trazado_189714-2" data-name="Trazado 189714" d="M62.489,132.3a3.059,3.059,0,0,0-1.449.371l-.662.356a11.735,11.735,0,0,0-6.18,10.229l-.006.109a3.066,3.066,0,0,0,4.6,2.685l.895-.514a11.748,11.748,0,0,0,5.731-8.38,11.293,11.293,0,0,0,.138-1.785,3.069,3.069,0,0,0-3.07-3.07m-2.71,10.293-.469.272a1.6,1.6,0,0,1-2.4-1.4l0-.054a6.129,6.129,0,0,1,3.223-5.345l.347-.182a1.571,1.571,0,0,1,.757-.194,1.6,1.6,0,0,1,1.6,1.6,6.121,6.121,0,0,1-3.061,5.3" transform="translate(-1.953 -4.769)" fill="#31486e"/>
            <path id="Trazado_189715-2" data-name="Trazado 189715" d="M61.339,135.812a1.573,1.573,0,0,0-.757.194l-.346.182a6.128,6.128,0,0,0-3.223,5.344l0,.054a1.6,1.6,0,0,0,2.4,1.4l.469-.272a6.121,6.121,0,0,0,3.061-5.3,1.6,1.6,0,0,0-1.6-1.6" transform="translate(-2.055 -4.895)" fill="#e6e6e6"/>
            <path id="Trazado_189716-2" data-name="Trazado 189716" d="M133.206,98.86c-.011.081-.015.164-.029.244,0,0,.013-.09.029-.244" transform="translate(-4.8 -3.563)" fill="#131c2a"/>
            <path id="Trazado_189717-2" data-name="Trazado 189717" d="M125.369,94.319c-4,2.074-6.405,8.459-4.693,10.934a6.445,6.445,0,0,0,3.557,2.306c-.336-.47-2.116-2.157-2.112-2.809l0-.1A11.065,11.065,0,0,1,127.952,95l.625-.335a2.87,2.87,0,0,1,4.115,1.679c-.339-2.289-1.811-4.886-7.323-2.028" transform="translate(-4.33 -3.354)" fill="#131c2a"/>
            <path id="Trazado_189718-2" data-name="Trazado 189718" d="M133.241,98.363c-.015.159-.013.322-.034.479.012-.12.024-.288.034-.479" transform="translate(-4.801 -3.545)" fill="#131c2a"/>
            <path id="Trazado_189719-2" data-name="Trazado 189719" d="M133.239,98.295c.03-.318.067-.635.067-.959a2.878,2.878,0,0,0-.145-.866,9.37,9.37,0,0,1,.077,1.825" transform="translate(-4.8 -3.477)" fill="#131c2a"/>
            <path id="Trazado_189720-2" data-name="Trazado 189720" d="M130.018,94.366a2.881,2.881,0,0,0-1.365.349l-.626.335a11.066,11.066,0,0,0-5.826,9.643l0,.1a2.89,2.89,0,0,0,4.34,2.531l.843-.486a11.065,11.065,0,0,0,5.4-7.9,10.57,10.57,0,0,0,.13-1.682,2.892,2.892,0,0,0-2.894-2.894m-2.554,9.7-.442.256A1.512,1.512,0,0,1,124.755,103l0-.051a5.775,5.775,0,0,1,3.038-5.038l.327-.173a1.493,1.493,0,0,1,.713-.182,1.51,1.51,0,0,1,1.51,1.511,5.772,5.772,0,0,1-2.885,5" transform="translate(-4.405 -3.401)" fill="#31486e"/>
            <path id="Trazado_189721-2" data-name="Trazado 189721" d="M128.934,97.678a1.491,1.491,0,0,0-.714.182l-.326.173a5.776,5.776,0,0,0-3.039,5.038l0,.051a1.51,1.51,0,0,0,2.264,1.324l.442-.255a5.773,5.773,0,0,0,2.884-5,1.508,1.508,0,0,0-1.509-1.511" transform="translate(-4.5 -3.521)" fill="#e6e6e6"/>
            <path id="Trazado_189722-2" data-name="Trazado 189722" d="M32.118,46.259l40.176,23.2L151.989,23.65,111.262,0Z" transform="translate(-1.158)" fill="#ffca28"/>
            <path id="Trazado_189723-2" data-name="Trazado 189723" d="M73.8,119.8l79.7-44.954V24.534L73.8,70.34Z" transform="translate(-2.66 -0.884)" fill="#ffa726"/>
            <path id="Trazado_189724-2" data-name="Trazado 189724" d="M151.554,26.716a.2.2,0,0,0-.2.2V73.139L76.069,115.651V70.419a.2.2,0,1,0-.4,0v45.915l75.98-42.9.1-.058V26.916a.2.2,0,0,0-.2-.2" transform="translate(-2.728 -0.963)" fill="#fff"/>
            <path id="Trazado_189725-2" data-name="Trazado 189725" d="M32.118,49.07V98.734L72.294,120.29v-49.1l-40.176-23.2Z" transform="translate(-1.158 -1.73)" fill="#ffd391"/>
            <path id="Trazado_189726-2" data-name="Trazado 189726" d="M5.349,93.5l-1.467-.848A1.256,1.256,0,0,0,2,93.735v3.823a.4.4,0,0,0,.8,0V93.735a.451.451,0,0,1,.228-.4.462.462,0,0,1,.462,0l1.467.848a.4.4,0,0,0,.4-.689" transform="translate(-0.072 -3.333)" fill="#293c5c"/>
            <path id="Trazado_189727-2" data-name="Trazado 189727" d="M3.643,96.042,1.859,95.4A1.479,1.479,0,0,0,0,96.968v7.61a1.694,1.694,0,0,0,.762,1.457l1.782,1.084a1.447,1.447,0,0,0,2.1-1.456V97.613a1.639,1.639,0,0,0-1-1.571" transform="translate(0 -3.436)" fill="#293c5c"/>
            <path id="Trazado_189728-2" data-name="Trazado 189728" d="M9.451,79.44,44.232,99.2C50.661,85.624,57.709,80.59,57.709,80.59L22.927,60.834S16.408,66.486,9.451,79.44" transform="translate(-0.341 -2.193)" fill="#e9eef5"/>
            <path id="Trazado_189729-2" data-name="Trazado 189729" d="M23.431,60.63,58.212,80.387l10.1-5.49L32.917,55.17Z" transform="translate(-0.845 -1.989)" fill="#dbe3ee"/>
            <path id="Trazado_189730-2" data-name="Trazado 189730" d="M9.159,80.136a162.81,162.81,0,0,0-7.3,24.908l-.5,21.81a3.175,3.175,0,0,0,1.028,2.42c3.852,3.544,17.821,15.551,35.494,20.716a1.191,1.191,0,0,1,.276.057,2.819,2.819,0,0,0,1.27.076c.074-2.806.682-25.619.58-26.631-.108-1.078,2.246-15.661,3.93-23.6Z" transform="translate(-0.049 -2.888)" fill="#dbe3ee"/>
            <path id="Trazado_189731-2" data-name="Trazado 189731" d="M9.178,80.136a162.809,162.809,0,0,0-7.3,24.908s37.287,22.152,37.186,21.14c-.107-1.078,3.211-18.353,4.895-26.291Z" transform="translate(-0.068 -2.888)" fill="#293c5c"/>
            <path id="Trazado_189732-2" data-name="Trazado 189732" d="M1.547,120.191l-.2,8.61A2.057,2.057,0,0,0,2,130.355c3.2,3,17.55,15.72,35.883,21.079a1.259,1.259,0,0,1,.278.057,2.775,2.775,0,0,0,1.242.079c-.053-.9-.222-3.912-.472-10.084-20.606-8.358-30.517-14.958-37.383-21.295" transform="translate(-0.049 -4.332)" fill="#a4bbd9"/>
            <path id="Trazado_189733-2" data-name="Trazado 189733" d="M42.069,100.447l-31.4-17.724a.624.624,0,0,0-.891.313A148.727,148.727,0,0,0,3.826,103.48a.634.634,0,0,0,.3.689L36.883,122.74a.625.625,0,0,0,.928-.439c.488-2.944,2.182-12.715,4.552-21.144a.62.62,0,0,0-.294-.709" transform="translate(-0.137 -2.979)" fill="#b1d4e7"/>
            <path id="Trazado_189734-2" data-name="Trazado 189734" d="M42.2,100.848l-12.572-7.1Q18.658,100.193,7.57,106.444l29.449,16.7a.625.625,0,0,0,.928-.439c.488-2.944,2.182-12.715,4.552-21.144a.622.622,0,0,0-.294-.709" transform="translate(-0.273 -3.379)" fill="#7db7d7"/>
            <path id="Trazado_189735-2" data-name="Trazado 189735" d="M45.533,99.73,69.107,86.9V75.635l-10.1,5.489S52.74,84.708,45.533,99.73" transform="translate(-1.641 -2.726)" fill="#a4bbd9"/>
            <path id="Trazado_189736-2" data-name="Trazado 189736" d="M40.63,123.353a211.2,211.2,0,0,0,.171,27.033,6.974,6.974,0,0,0,1.249-.313l8.728-4.423s-.355-10.374,5.1-13.548,13.042-7.355,13.042-7.355V87.318L45.343,100.151s-4.281,17.128-4.713,23.2" transform="translate(-1.451 -3.147)" fill="#a4bbd9"/>
            <path id="Trazado_189737-2" data-name="Trazado 189737" d="M41.128,149.87a1.517,1.517,0,0,1-.471.153c.068,1.185.127,2.039.158,2.456a6.972,6.972,0,0,0,1.249-.313l8.728-4.423s-.032-.943.072-2.344c-3.312,1.439-6.7,3.041-9.736,4.471" transform="translate(-1.465 -5.241)" fill="#293c5c"/>
            <path id="Trazado_189738-2" data-name="Trazado 189738" d="M45.268,100.968c.058-.033,15.981-8.554,23.83-13.085v-.565L45.523,100.151a3.76,3.76,0,0,0-.255.816" transform="translate(-1.632 -3.147)" fill="#293c5c"/>
            <path id="Trazado_189739-2" data-name="Trazado 189739" d="M63.048,92.257l-14.463,7.827a1.242,1.242,0,0,0-.595.72c-2.515,8.039-4.481,16.78-4.852,20.583a1.231,1.231,0,0,0,1.955,1.108l19.52-12.974a1.233,1.233,0,0,0,.505-.995l-.253-15.186a1.232,1.232,0,0,0-1.818-1.083" transform="translate(-1.555 -3.32)" fill="#7db7d7"/>
            <path id="Trazado_189740-2" data-name="Trazado 189740" d="M64.644,91.569a2.016,2.016,0,0,0-2-.041L48.177,99.354a2.061,2.061,0,0,0-.976,1.185c-2.6,8.325-4.529,17.084-4.884,20.744a2,2,0,0,0,1.012,1.952,2.055,2.055,0,0,0,1.017.274,1.954,1.954,0,0,0,1.16-.379l19.549-13a2.041,2.041,0,0,0,.83-1.649l-.252-15.175a2.013,2.013,0,0,0-.989-1.742m-.5,17.26-19.55,13a.427.427,0,0,1-.476.027.419.419,0,0,1-.215-.415c.347-3.578,2.245-12.2,4.818-20.422a.449.449,0,0,1,.213-.258L63.4,92.928a.423.423,0,0,1,.43.009.436.436,0,0,1,.213.388l.252,15.174a.426.426,0,0,1-.148.331" transform="translate(-1.525 -3.29)" fill="#293c5c"/>
            <path id="Trazado_189741-2" data-name="Trazado 189741" d="M5.924,131.165s8.759,9.291,24.951,14.6v-4.248s-11.546-3.45-24.951-14.2Z" transform="translate(-0.214 -4.589)" fill="#293c5c"/>
            <path id="Trazado_189742-2" data-name="Trazado 189742" d="M28.5,134.166l8.361,3.683v-4.53L28.5,130.483Z" transform="translate(-1.027 -4.703)" fill="#fff"/>
            <path id="Trazado_189743-2" data-name="Trazado 189743" d="M3.2,119.144l6.47,4.447.1-4.346L3.2,114.167Z" transform="translate(-0.115 -4.115)" fill="#fff"/>
            <path id="Trazado_189744-2" data-name="Trazado 189744" d="M10.777,124.158a57.628,57.628,0,0,0,15.958,9.2v-3.849a108.218,108.218,0,0,1-15.958-9.5Z" transform="translate(-0.388 -4.326)" fill="#293c5c"/>
            <path id="Trazado_189745-2" data-name="Trazado 189745" d="M47.944,121.14,46.16,120.5a1.478,1.478,0,0,0-1.86,1.571v7.61a1.7,1.7,0,0,0,.762,1.457l1.783,1.084a1.447,1.447,0,0,0,2.1-1.456v-8.05a1.64,1.64,0,0,0-1-1.572" transform="translate(-1.597 -4.34)" fill="#293c5c"/>
            <path id="Trazado_189746-2" data-name="Trazado 189746" d="M45.484,116.212l-1.4-.842a.4.4,0,0,0-.409.683l1.441.863a1.472,1.472,0,0,1,.859,1.377v13.922a.51.51,0,0,1-.255.448.5.5,0,0,1-.5.017l-2.48-1.494a.4.4,0,0,0-.547.137.4.4,0,0,0,.136.546l2.495,1.5a1.3,1.3,0,0,0,1.3-.024,1.3,1.3,0,0,0,.645-1.133V118.3a2.242,2.242,0,0,0-1.285-2.089" transform="translate(-1.519 -4.156)" fill="#293c5c"/>
            <path id="Trazado_189747-2" data-name="Trazado 189747" d="M73.8,132.453l45.1-25.916a11.275,11.275,0,0,1,4.117-11.111l22.326-12.371V81.329L73.8,121.491Z" transform="translate(-2.66 -2.931)" fill="#293c5c"/>
            <path id="Trazado_189748-2" data-name="Trazado 189748" d="M80.672,115.905c-.221,0-.4.325-.4.726s.177.726.4.726.4-.325.4-.726-.178-.726-.4-.726" transform="translate(-2.893 -4.178)" fill="#fff"/>
            <path id="Trazado_189749-2" data-name="Trazado 189749" d="M85.676,113.076c-.22,0-.4.326-.4.726s.178.726.4.726.4-.325.4-.726-.178-.726-.4-.726" transform="translate(-3.074 -4.076)" fill="#fff"/>
            <path id="Trazado_189750-2" data-name="Trazado 189750" d="M90.679,110.247c-.22,0-.4.326-.4.727s.178.725.4.725.4-.324.4-.725-.177-.727-.4-.727" transform="translate(-3.254 -3.974)" fill="#fff"/>
            <path id="Trazado_189751-2" data-name="Trazado 189751" d="M95.683,107.418c-.22,0-.4.325-.4.726s.178.726.4.726.4-.325.4-.726-.178-.726-.4-.726" transform="translate(-3.435 -3.872)" fill="#fff"/>
            <path id="Trazado_189752-2" data-name="Trazado 189752" d="M100.687,104.589c-.22,0-.4.325-.4.726s.178.726.4.726.4-.325.4-.726-.178-.726-.4-.726" transform="translate(-3.615 -3.77)" fill="#fff"/>
            <path id="Trazado_189753-2" data-name="Trazado 189753" d="M105.691,101.76c-.221,0-.4.325-.4.726s.177.726.4.726.4-.325.4-.726-.178-.726-.4-.726" transform="translate(-3.795 -3.668)" fill="#fff"/>
            <path id="Trazado_189754-2" data-name="Trazado 189754" d="M110.7,98.931c-.22,0-.4.325-.4.726s.178.726.4.726.4-.325.4-.726-.178-.726-.4-.726" transform="translate(-3.976 -3.566)" fill="#fff"/>
            <path id="Trazado_189755-2" data-name="Trazado 189755" d="M115.7,96.1c-.22,0-.4.326-.4.726s.178.726.4.726.4-.325.4-.726-.177-.726-.4-.726" transform="translate(-4.156 -3.464)" fill="#fff"/>
            <path id="Trazado_189756-2" data-name="Trazado 189756" d="M120.7,93.273c-.22,0-.4.326-.4.726s.178.726.4.726.4-.325.4-.726-.178-.726-.4-.726" transform="translate(-4.336 -3.362)" fill="#fff"/>
            <path id="Trazado_189757-2" data-name="Trazado 189757" d="M125.707,90.444c-.221,0-.4.325-.4.726s.177.726.4.726.4-.325.4-.726-.178-.726-.4-.726" transform="translate(-4.517 -3.26)" fill="#fff"/>
            <path id="Trazado_189758-2" data-name="Trazado 189758" d="M130.711,87.615c-.22,0-.4.325-.4.726s.178.726.4.726.4-.325.4-.726-.178-.726-.4-.726" transform="translate(-4.697 -3.158)" fill="#fff"/>
            <path id="Trazado_189759-2" data-name="Trazado 189759" d="M135.714,84.786c-.22,0-.4.325-.4.726s.178.726.4.726.4-.325.4-.726-.177-.726-.4-.726" transform="translate(-4.877 -3.056)" fill="#fff"/>
            <path id="Trazado_189760-2" data-name="Trazado 189760" d="M140.718,81.957c-.22,0-.4.325-.4.726s.178.726.4.726.4-.325.4-.726-.178-.726-.4-.726" transform="translate(-5.058 -2.954)" fill="#fff"/>
            <path id="Trazado_189761-2" data-name="Trazado 189761" d="M145.722,79.128c-.22,0-.4.326-.4.726s.178.726.4.726.4-.325.4-.726-.178-.726-.4-.726" transform="translate(-5.238 -2.852)" fill="#fff"/>
            <path id="Trazado_189762-2" data-name="Trazado 189762" d="M150.726,76.3c-.22,0-.4.326-.4.727s.178.725.4.725.4-.324.4-.725-.178-.727-.4-.727" transform="translate(-5.419 -2.75)" fill="#fff"/>
          </g>
        </g>
      </g>
    </g>
    <g id="Grupo_143746" data-name="Grupo 143746" transform="translate(563.309 3723.939)" opacity="0.729">
      <g id="Grupo_143741-3" data-name="Grupo 143741" clip-path="url(#clip-path-10)">
        <g id="Grupo_143738-3" data-name="Grupo 143738">
          <g id="Grupo_143737-3" data-name="Grupo 143737" clip-path="url(#clip-path-10)">
            <g id="Grupo_143736-3" data-name="Grupo 143736" transform="translate(1.279 74.564)" opacity="0.15">
              <g id="Grupo_143735-3" data-name="Grupo 143735">
                <g id="Grupo_143734-3" data-name="Grupo 143734" clip-path="url(#clip-path-12)">
                  <path id="Trazado_189698-3" data-name="Trazado 189698" d="M2.622,124.838s-1.5,2.06-1.123,2.621S19.194,144.032,33.706,146a16.724,16.724,0,0,0,7.678-.561c3.558-1.311,97.937-55.241,97.937-55.241l-10.3-6.367Z" transform="translate(-1.438 -83.828)" fill="#1b283d"/>
                </g>
              </g>
            </g>
          </g>
        </g>
        <path id="Trazado_189699-3" data-name="Trazado 189699" d="M59.512,126.079l12.705,6.6V122.405L66.1,119.09Z" transform="translate(-6.577 -13.161)" fill="#131c2a"/>
        <path id="Trazado_189700-3" data-name="Trazado 189700" d="M117.837,93.4l-1.891,11.1,24.819-14.28-.614-10.089Z" transform="translate(-12.814 -8.856)" fill="#131c2a"/>
        <path id="Trazado_189701-3" data-name="Trazado 189701" d="M133.727,85.04l12.706,6.441V81.365l-6.118-3.314Z" transform="translate(-14.779 -8.626)" fill="#131c2a"/>
        <g id="Grupo_143740-3" data-name="Grupo 143740">
          <g id="Grupo_143739-3" data-name="Grupo 143739" clip-path="url(#clip-path-10)">
            <path id="Trazado_189702-3" data-name="Trazado 189702" d="M146.4,91.251c-.01.075-.014.151-.027.225,0,0,.012-.083.027-.225" transform="translate(-16.176 -10.085)" fill="#131c2a"/>
            <path id="Trazado_189703-3" data-name="Trazado 189703" d="M146.428,90.544c.028-.294.062-.585.062-.884a2.654,2.654,0,0,0-.133-.8,8.627,8.627,0,0,1,.071,1.682" transform="translate(-16.175 -9.821)" fill="#131c2a"/>
            <path id="Trazado_189704-3" data-name="Trazado 189704" d="M146.433,90.753c-.014.147-.012.3-.031.443.011-.111.022-.267.031-.443" transform="translate(-16.18 -10.03)" fill="#131c2a"/>
            <path id="Trazado_189705-3" data-name="Trazado 189705" d="M138.159,86.612c-3.692,1.914-5.911,7.805-4.329,10.089a5.948,5.948,0,0,0,3.281,2.129c-.31-.435-1.952-1.992-1.948-2.593l0-.1a10.208,10.208,0,0,1,5.375-8.9l.576-.309a2.646,2.646,0,0,1,3.8,1.55c-.313-2.113-1.67-4.511-6.757-1.873" transform="translate(-14.733 -9.444)" fill="#131c2a"/>
            <path id="Trazado_189706-3" data-name="Trazado 189706" d="M142.608,86.757a2.655,2.655,0,0,0-1.26.323l-.576.309a10.208,10.208,0,0,0-5.375,8.9l0,.094a2.635,2.635,0,0,0,.49,1.57,2.671,2.671,0,0,0,3.513.766l.778-.447a10.213,10.213,0,0,0,4.985-7.29,9.755,9.755,0,0,0,.12-1.552,2.669,2.669,0,0,0-2.67-2.67m-2.357,8.954-.408.237a1.4,1.4,0,0,1-2.09-1.221l0-.047a5.33,5.33,0,0,1,2.8-4.649l.3-.159a1.367,1.367,0,0,1,.658-.168,1.393,1.393,0,0,1,1.393,1.394,5.326,5.326,0,0,1-2.662,4.615" transform="translate(-14.963 -9.588)" fill="#31486e"/>
            <path id="Trazado_189707-3" data-name="Trazado 189707" d="M141.814,90.068a1.367,1.367,0,0,0-.658.168l-.3.159a5.327,5.327,0,0,0-2.8,4.649l0,.047a1.394,1.394,0,0,0,2.089,1.221l.408-.237a5.327,5.327,0,0,0,2.663-4.615,1.393,1.393,0,0,0-1.394-1.394" transform="translate(-15.256 -9.954)" fill="#e6e6e6"/>
            <path id="Trazado_189708-3" data-name="Trazado 189708" d="M55.705,129.339l12.706,6.441V125.665l-6.118-3.314Z" transform="translate(-6.156 -13.522)" fill="#131c2a"/>
            <path id="Trazado_189709-3" data-name="Trazado 189709" d="M51.011,132.852l-1.891,11.1,16.209-9.1-.613-10.089Z" transform="translate(-5.429 -13.788)" fill="#131c2a"/>
            <path id="Trazado_189710-3" data-name="Trazado 189710" d="M57.127,132.147c-3.916,2.031-6.27,8.28-4.593,10.7a6.306,6.306,0,0,0,3.482,2.257c-.329-.461-2.072-2.112-2.068-2.75l.005-.1a10.828,10.828,0,0,1,5.7-9.438l.612-.329a2.809,2.809,0,0,1,4.028,1.641c-.333-2.24-1.775-4.779-7.167-1.983" transform="translate(-5.745 -14.468)" fill="#131c2a"/>
            <path id="Trazado_189711-3" data-name="Trazado 189711" d="M65.869,137.07c-.011.078-.015.158-.028.237,0,0,.012-.087.028-.237" transform="translate(-7.276 -15.148)" fill="#131c2a"/>
            <path id="Trazado_189712-3" data-name="Trazado 189712" d="M65.9,136.544c-.015.155-.012.314-.033.468.012-.117.023-.282.033-.468" transform="translate(-7.28 -15.09)" fill="#131c2a"/>
            <path id="Trazado_189713-3" data-name="Trazado 189713" d="M65.9,136.321c.029-.313.067-.624.067-.943a2.814,2.814,0,0,0-.142-.849,9.167,9.167,0,0,1,.076,1.792" transform="translate(-7.275 -14.867)" fill="#131c2a"/>
            <path id="Trazado_189714-3" data-name="Trazado 189714" d="M61.848,132.3a2.823,2.823,0,0,0-1.337.342l-.611.328a10.828,10.828,0,0,0-5.7,9.438l-.005.1a2.829,2.829,0,0,0,4.248,2.477l.825-.474a10.84,10.84,0,0,0,5.288-7.732,10.421,10.421,0,0,0,.127-1.647,2.832,2.832,0,0,0-2.833-2.833m-2.5,9.5-.433.251a1.48,1.48,0,0,1-2.217-1.3l0-.05a5.655,5.655,0,0,1,2.974-4.932L60,135.6a1.449,1.449,0,0,1,.7-.179,1.477,1.477,0,0,1,1.477,1.478,5.648,5.648,0,0,1-2.824,4.895" transform="translate(-5.989 -14.621)" fill="#31486e"/>
            <path id="Trazado_189715-3" data-name="Trazado 189715" d="M61,135.812a1.452,1.452,0,0,0-.7.179l-.319.168a5.655,5.655,0,0,0-2.974,4.931l0,.05a1.479,1.479,0,0,0,2.217,1.3l.433-.251a5.648,5.648,0,0,0,2.824-4.895A1.477,1.477,0,0,0,61,135.812" transform="translate(-6.3 -15.009)" fill="#e6e6e6"/>
            <path id="Trazado_189716-3" data-name="Trazado 189716" d="M133.2,98.86c-.01.075-.014.151-.027.225,0,0,.012-.083.027-.225" transform="translate(-14.718 -10.925)" fill="#131c2a"/>
            <path id="Trazado_189717-3" data-name="Trazado 189717" d="M124.963,94.222c-3.692,1.914-5.911,7.805-4.33,10.089a5.948,5.948,0,0,0,3.282,2.128c-.31-.434-1.952-1.991-1.949-2.592l0-.1a10.211,10.211,0,0,1,5.376-8.9l.576-.31a2.648,2.648,0,0,1,3.8,1.549c-.313-2.113-1.671-4.509-6.757-1.871" transform="translate(-13.275 -10.285)" fill="#131c2a"/>
            <path id="Trazado_189718-3" data-name="Trazado 189718" d="M133.238,98.363c-.014.147-.012.3-.031.442.011-.111.022-.266.031-.442" transform="translate(-14.721 -10.871)" fill="#131c2a"/>
            <path id="Trazado_189719-3" data-name="Trazado 189719" d="M133.233,98.154c.028-.294.062-.586.062-.885a2.656,2.656,0,0,0-.133-.8,8.646,8.646,0,0,1,.071,1.684" transform="translate(-14.716 -10.661)" fill="#131c2a"/>
            <path id="Trazado_189720-3" data-name="Trazado 189720" d="M129.413,94.366a2.658,2.658,0,0,0-1.26.322l-.577.31a10.211,10.211,0,0,0-5.376,8.9l0,.094a2.667,2.667,0,0,0,4,2.336l.778-.448a10.21,10.21,0,0,0,4.985-7.289,9.751,9.751,0,0,0,.12-1.552,2.669,2.669,0,0,0-2.67-2.67m-2.357,8.954-.408.237a1.4,1.4,0,0,1-2.09-1.222l0-.047a5.329,5.329,0,0,1,2.8-4.648l.3-.159a1.378,1.378,0,0,1,.658-.168,1.393,1.393,0,0,1,1.393,1.394,5.326,5.326,0,0,1-2.662,4.615" transform="translate(-13.504 -10.429)" fill="#31486e"/>
            <path id="Trazado_189721-3" data-name="Trazado 189721" d="M128.619,97.678a1.376,1.376,0,0,0-.659.168l-.3.159a5.33,5.33,0,0,0-2.8,4.648l0,.047a1.394,1.394,0,0,0,2.089,1.221l.408-.236a5.327,5.327,0,0,0,2.661-4.615,1.392,1.392,0,0,0-1.392-1.394" transform="translate(-13.798 -10.795)" fill="#e6e6e6"/>
            <path id="Trazado_189722-3" data-name="Trazado 189722" d="M32.118,42.686l37.072,21.4,73.538-42.267L105.148,0Z" transform="translate(-3.549)" fill="#ffca28"/>
            <path id="Trazado_189723-3" data-name="Trazado 189723" d="M73.8,112.438l73.538-41.481V24.534L73.8,66.8Z" transform="translate(-8.156 -2.711)" fill="#ffa726"/>
            <path id="Trazado_189724-3" data-name="Trazado 189724" d="M145.691,26.716a.186.186,0,0,0-.184.184V69.553L76.038,108.781V67.043a.184.184,0,1,0-.367,0v42.368l70.11-39.59.093-.053V26.9a.185.185,0,0,0-.183-.184" transform="translate(-8.363 -2.953)" fill="#fff"/>
            <path id="Trazado_189725-3" data-name="Trazado 189725" d="M32.118,48.986V94.814L69.19,114.7V69.393l-37.072-21.4Z" transform="translate(-3.549 -5.304)" fill="#ffd391"/>
            <path id="Trazado_189726-3" data-name="Trazado 189726" d="M5.09,93.417l-1.354-.783a1.159,1.159,0,0,0-1.74,1v3.528a.368.368,0,0,0,.736,0V93.638a.416.416,0,0,1,.211-.367.426.426,0,0,1,.426,0l1.354.783a.367.367,0,1,0,.367-.636" transform="translate(-0.221 -10.22)" fill="#293c5c"/>
            <path id="Trazado_189727-3" data-name="Trazado 189727" d="M3.361,95.986l-1.646-.6A1.365,1.365,0,0,0,0,96.841v7.022a1.563,1.563,0,0,0,.7,1.344l1.645,1a1.335,1.335,0,0,0,1.937-1.343V97.436a1.512,1.512,0,0,0-.924-1.45" transform="translate(0 -10.534)" fill="#293c5c"/>
            <path id="Trazado_189728-3" data-name="Trazado 189728" d="M9.451,78l32.094,18.23C47.477,83.709,53.98,79.064,53.98,79.064L21.886,60.834S15.87,66.049,9.451,78" transform="translate(-1.044 -6.723)" fill="#e9eef5"/>
            <path id="Trazado_189729-3" data-name="Trazado 189729" d="M23.431,60.208l32.094,18.23,9.319-5.066-32.66-18.2Z" transform="translate(-2.589 -6.097)" fill="#dbe3ee"/>
            <path id="Trazado_189730-3" data-name="Trazado 189730" d="M8.557,80.136a150.232,150.232,0,0,0-6.735,22.983l-.459,20.125a2.93,2.93,0,0,0,.948,2.233c3.554,3.271,16.444,14.349,32.752,19.116a1.1,1.1,0,0,1,.254.052,2.6,2.6,0,0,0,1.172.07c.068-2.589.629-23.64.535-24.574-.1-.994,2.072-14.451,3.626-21.776Z" transform="translate(-0.151 -8.856)" fill="#dbe3ee"/>
            <path id="Trazado_189731-3" data-name="Trazado 189731" d="M8.614,80.136a150.232,150.232,0,0,0-6.735,22.983s34.406,20.44,34.313,19.506c-.1-.994,2.963-16.935,4.517-24.26Z" transform="translate(-0.208 -8.856)" fill="#293c5c"/>
            <path id="Trazado_189732-3" data-name="Trazado 189732" d="M1.531,120.191l-.181,7.945a1.9,1.9,0,0,0,.6,1.434c2.955,2.767,16.194,14.506,33.111,19.45a1.161,1.161,0,0,1,.256.052,2.562,2.562,0,0,0,1.146.073c-.049-.827-.2-3.61-.436-9.3-19.014-7.713-28.159-13.8-34.5-19.65" transform="translate(-0.149 -13.283)" fill="#a4bbd9"/>
            <path id="Trazado_189733-3" data-name="Trazado 189733" d="M39.114,99.072,10.139,82.717a.576.576,0,0,0-.822.289A137.237,137.237,0,0,0,3.825,101.87a.585.585,0,0,0,.279.636l30.224,17.136a.577.577,0,0,0,.857-.4c.45-2.716,2.014-11.732,4.2-19.511a.572.572,0,0,0-.271-.655" transform="translate(-0.421 -9.133)" fill="#b1d4e7"/>
            <path id="Trazado_189734-3" data-name="Trazado 189734" d="M39.529,100.3l-11.6-6.548Q17.8,99.695,7.57,105.464L34.744,120.87a.577.577,0,0,0,.857-.4c.45-2.716,2.014-11.732,4.2-19.511a.574.574,0,0,0-.271-.655" transform="translate(-0.837 -10.361)" fill="#7db7d7"/>
            <path id="Trazado_189735-3" data-name="Trazado 189735" d="M45.533,97.869,67.286,86.027V75.635L57.967,80.7s-5.783,3.307-12.434,17.169" transform="translate(-5.032 -8.359)" fill="#a4bbd9"/>
            <path id="Trazado_189736-3" data-name="Trazado 189736" d="M40.6,120.569a194.887,194.887,0,0,0,.157,24.945,6.435,6.435,0,0,0,1.153-.289l8.053-4.081s-.327-9.573,4.7-12.5S66.7,121.855,66.7,121.855V87.318L44.95,99.16S41,114.964,40.6,120.569" transform="translate(-4.449 -9.65)" fill="#a4bbd9"/>
            <path id="Trazado_189737-3" data-name="Trazado 189737" d="M41.092,149.524a1.4,1.4,0,0,1-.435.141c.063,1.093.117,1.881.146,2.266a6.434,6.434,0,0,0,1.153-.289l8.053-4.081s-.029-.87.067-2.163c-3.056,1.328-6.178,2.806-8.984,4.125" transform="translate(-4.493 -16.069)" fill="#293c5c"/>
            <path id="Trazado_189738-3" data-name="Trazado 189738" d="M45.268,99.913c.053-.03,14.747-7.893,21.989-12.074v-.521L45.5,99.16a3.469,3.469,0,0,0-.236.753" transform="translate(-5.003 -9.65)" fill="#293c5c"/>
            <path id="Trazado_189739-3" data-name="Trazado 189739" d="M61.51,92.246,48.164,99.468a1.146,1.146,0,0,0-.549.664,120.173,120.173,0,0,0-4.477,18.993,1.136,1.136,0,0,0,1.8,1.022l18.012-11.972a1.138,1.138,0,0,0,.466-.918l-.233-14.013a1.137,1.137,0,0,0-1.678-1" transform="translate(-4.767 -10.179)" fill="#7db7d7"/>
            <path id="Trazado_189740-3" data-name="Trazado 189740" d="M62.918,91.547a1.86,1.86,0,0,0-1.849-.038L47.723,98.73a1.9,1.9,0,0,0-.9,1.093,120.991,120.991,0,0,0-4.507,19.142,1.845,1.845,0,0,0,.934,1.8,1.9,1.9,0,0,0,.938.253,1.8,1.8,0,0,0,1.07-.35L63.3,108.678a1.884,1.884,0,0,0,.766-1.522l-.232-14a1.858,1.858,0,0,0-.913-1.607m-.462,15.926-18.04,11.992a.394.394,0,0,1-.439.025.387.387,0,0,1-.2-.383,119.432,119.432,0,0,1,4.446-18.845.415.415,0,0,1,.2-.238L61.768,92.8a.39.39,0,0,1,.4.008.4.4,0,0,1,.2.358l.232,14a.394.394,0,0,1-.137.305" transform="translate(-4.676 -10.088)" fill="#293c5c"/>
            <path id="Trazado_189741-3" data-name="Trazado 189741" d="M5.924,130.868s8.083,8.573,23.023,13.472v-3.92s-10.654-3.184-23.023-13.1Z" transform="translate(-0.655 -14.07)" fill="#293c5c"/>
            <path id="Trazado_189742-3" data-name="Trazado 189742" d="M28.5,133.882l7.715,3.4V133.1L28.5,130.483Z" transform="translate(-3.15 -14.42)" fill="#fff"/>
            <path id="Trazado_189743-3" data-name="Trazado 189743" d="M3.2,118.76l5.97,4.1.092-4.011L3.2,114.167Z" transform="translate(-0.354 -12.617)" fill="#fff"/>
            <path id="Trazado_189744-3" data-name="Trazado 189744" d="M10.777,123.837A53.176,53.176,0,0,0,25.5,132.326v-3.552a99.857,99.857,0,0,1-14.725-8.767Z" transform="translate(-1.191 -13.263)" fill="#293c5c"/>
            <path id="Trazado_189745-3" data-name="Trazado 189745" d="M47.662,121.084l-1.646-.6a1.364,1.364,0,0,0-1.717,1.45v7.022a1.565,1.565,0,0,0,.7,1.344l1.646,1a1.335,1.335,0,0,0,1.938-1.343v-7.428a1.513,1.513,0,0,0-.925-1.451" transform="translate(-4.896 -13.308)" fill="#293c5c"/>
            <path id="Trazado_189746-3" data-name="Trazado 189746" d="M45.225,116.143l-1.294-.777a.367.367,0,0,0-.377.631l1.33.8a1.358,1.358,0,0,1,.793,1.271V130.91a.47.47,0,0,1-.236.414.461.461,0,0,1-.463.016l-2.289-1.379a.367.367,0,0,0-.379.63l2.3,1.387a1.2,1.2,0,0,0,1.2-.022,1.2,1.2,0,0,0,.6-1.045v-12.84a2.069,2.069,0,0,0-1.186-1.928" transform="translate(-4.656 -12.744)" fill="#293c5c"/>
            <path id="Trazado_189747-3" data-name="Trazado 189747" d="M73.8,128.5,115.41,104.59a10.4,10.4,0,0,1,3.8-10.252l20.6-11.416V81.329L73.8,118.389Z" transform="translate(-8.156 -8.988)" fill="#293c5c"/>
            <path id="Trazado_189748-3" data-name="Trazado 189748" d="M80.641,115.905c-.2,0-.367.3-.367.67s.164.67.367.67.367-.3.367-.67-.165-.67-.367-.67" transform="translate(-8.871 -12.809)" fill="#fff"/>
            <path id="Trazado_189749-3" data-name="Trazado 189749" d="M85.645,113.076c-.2,0-.367.3-.367.67s.165.67.367.67.367-.3.367-.67-.165-.67-.367-.67" transform="translate(-9.424 -12.497)" fill="#fff"/>
            <path id="Trazado_189750-3" data-name="Trazado 189750" d="M90.648,110.247c-.2,0-.367.3-.367.671s.165.669.367.669.367-.3.367-.669-.164-.671-.367-.671" transform="translate(-9.977 -12.184)" fill="#fff"/>
            <path id="Trazado_189751-3" data-name="Trazado 189751" d="M95.652,107.418c-.2,0-.367.3-.367.67s.165.67.367.67.367-.3.367-.67-.165-.67-.367-.67" transform="translate(-10.53 -11.871)" fill="#fff"/>
            <path id="Trazado_189752-3" data-name="Trazado 189752" d="M100.656,104.589c-.2,0-.367.3-.367.67s.165.67.367.67.367-.3.367-.67-.165-.67-.367-.67" transform="translate(-11.083 -11.559)" fill="#fff"/>
            <path id="Trazado_189753-3" data-name="Trazado 189753" d="M105.66,101.76c-.2,0-.367.3-.367.67s.164.67.367.67.367-.3.367-.67-.165-.67-.367-.67" transform="translate(-11.636 -11.246)" fill="#fff"/>
            <path id="Trazado_189754-3" data-name="Trazado 189754" d="M110.664,98.931c-.2,0-.367.3-.367.67s.165.67.367.67.367-.3.367-.67-.165-.67-.367-.67" transform="translate(-12.189 -10.933)" fill="#fff"/>
            <path id="Trazado_189755-3" data-name="Trazado 189755" d="M115.668,96.1c-.2,0-.367.3-.367.67s.165.67.367.67.367-.3.367-.67-.164-.67-.367-.67" transform="translate(-12.742 -10.621)" fill="#fff"/>
            <path id="Trazado_189756-3" data-name="Trazado 189756" d="M120.672,93.273c-.2,0-.367.3-.367.67s.165.67.367.67.367-.3.367-.67-.165-.67-.367-.67" transform="translate(-13.295 -10.308)" fill="#fff"/>
            <path id="Trazado_189757-3" data-name="Trazado 189757" d="M125.676,90.444c-.2,0-.367.3-.367.67s.164.67.367.67.367-.3.367-.67-.165-.67-.367-.67" transform="translate(-13.849 -9.995)" fill="#fff"/>
            <path id="Trazado_189758-3" data-name="Trazado 189758" d="M130.68,87.615c-.2,0-.367.3-.367.67s.165.67.367.67.367-.3.367-.67-.165-.67-.367-.67" transform="translate(-14.401 -9.683)" fill="#fff"/>
            <path id="Trazado_189759-3" data-name="Trazado 189759" d="M135.683,84.786c-.2,0-.367.3-.367.67s.165.67.367.67.367-.3.367-.67-.164-.67-.367-.67" transform="translate(-14.954 -9.37)" fill="#fff"/>
            <path id="Trazado_189760-3" data-name="Trazado 189760" d="M140.687,81.957c-.2,0-.367.3-.367.67s.165.67.367.67.367-.3.367-.67-.165-.67-.367-.67" transform="translate(-15.507 -9.057)" fill="#fff"/>
            <path id="Trazado_189761-3" data-name="Trazado 189761" d="M145.691,79.128c-.2,0-.367.3-.367.67s.165.67.367.67.367-.3.367-.67-.165-.67-.367-.67" transform="translate(-16.06 -8.745)" fill="#fff"/>
            <path id="Trazado_189762-3" data-name="Trazado 189762" d="M150.7,76.3c-.2,0-.367.3-.367.671s.165.669.367.669.367-.3.367-.669-.165-.671-.367-.671" transform="translate(-16.613 -8.432)" fill="#fff"/>
          </g>
        </g>
      </g>
    </g>
    <g id="Grupo_143747" data-name="Grupo 143747" transform="translate(534.764 3753.341)">
      <g id="Grupo_143743-2" data-name="Grupo 143743" clip-path="url(#clip-path-14)">
        <path id="Trazado_189763-2" data-name="Trazado 189763" d="M12.1,20.588a1.453,1.453,0,1,0,2.055,2.055,11,11,0,0,1,15.542,0,1.453,1.453,0,1,0,2.055-2.055,13.91,13.91,0,0,0-19.652,0" fill="#4dd0e1"/>
        <path id="Trazado_189764-2" data-name="Trazado 189764" d="M6.185,14.667A1.453,1.453,0,0,0,8.24,16.722a19.386,19.386,0,0,1,27.383,0,1.453,1.453,0,1,0,2.055-2.055,22.294,22.294,0,0,0-31.493,0" fill="#4dd0e1"/>
        <path id="Trazado_189765-2" data-name="Trazado 189765" d="M21.931,0A30.218,30.218,0,0,0,.425,8.908a1.454,1.454,0,0,0,2.056,2.056,27.506,27.506,0,0,1,38.9,0,1.454,1.454,0,0,0,2.056-2.056A30.222,30.222,0,0,0,21.931,0" fill="#4dd0e1"/>
      </g>
    </g>
    <g id="Grupo_143748" data-name="Grupo 143748" transform="translate(408 3648.341)">
      <g id="Grupo_143743-3" data-name="Grupo 143743" clip-path="url(#clip-path-14)">
        <path id="Trazado_189763-3" data-name="Trazado 189763" d="M12.1,20.588a1.453,1.453,0,1,0,2.055,2.055,11,11,0,0,1,15.542,0,1.453,1.453,0,1,0,2.055-2.055,13.91,13.91,0,0,0-19.652,0" fill="#4dd0e1"/>
        <path id="Trazado_189764-3" data-name="Trazado 189764" d="M6.185,14.667A1.453,1.453,0,0,0,8.24,16.722a19.386,19.386,0,0,1,27.383,0,1.453,1.453,0,1,0,2.055-2.055,22.294,22.294,0,0,0-31.493,0" fill="#4dd0e1"/>
        <path id="Trazado_189765-3" data-name="Trazado 189765" d="M21.931,0A30.218,30.218,0,0,0,.425,8.908a1.454,1.454,0,0,0,2.056,2.056,27.506,27.506,0,0,1,38.9,0,1.454,1.454,0,0,0,2.056-2.056A30.222,30.222,0,0,0,21.931,0" fill="#4dd0e1"/>
      </g>
    </g>
  </g>
</svg>
