<svg xmlns="http://www.w3.org/2000/svg" xmlns:xlink="http://www.w3.org/1999/xlink" width="1133" height="714" viewBox="0 0 1133 714">
  <defs>
    <clipPath id="clip-path">
      <rect id="Rectángulo_43637" data-name="Rectángulo 43637" width="54.113" height="61.523" fill="#fff"/>
    </clipPath>
    <clipPath id="clip-path-2">
      <rect id="Rectángulo_43638" data-name="Rectángulo 43638" width="69.519" height="69.525" fill="#fff"/>
    </clipPath>
    <clipPath id="clip-path-3">
      <rect id="Rectángulo_43640" data-name="Rectángulo 43640" width="50.113" height="53.969" fill="#fff"/>
    </clipPath>
    <clipPath id="clip-path-4">
      <rect id="Rectángulo_43642" data-name="Rectángulo 43642" width="51.813" height="64.765" fill="#fff"/>
    </clipPath>
    <clipPath id="clip-path-5">
      <rect id="Rectángulo_43643" data-name="Rectángulo 43643" width="43.258" height="43.257" fill="#fff"/>
    </clipPath>
  </defs>
  <g id="Grupo_144955" data-name="Grupo 144955" transform="translate(2380 9591)">
    <g id="Grupo_144687" data-name="Grupo 144687">
      <circle id="Elipse_5192" data-name="Elipse 5192" cx="158.5" cy="158.5" r="158.5" transform="translate(-1832 -9467)" fill="#039be5"/>
      <text id="MACHINE_LEARNING" data-name="MACHINE LEARNING" transform="translate(-1782 -9351)" fill="#fff" font-size="27" font-family="Roboto-BoldItalic, Roboto" font-weight="700" font-style="italic"><tspan x="0" y="0">MACHINE LEARNING</tspan></text>
      <text id="Disciplina_científica_del_ámbito_de_la_Inteligencia_Artificial_que_crea_sistemas_que_aprenden_automáticamente" data-name="Disciplina científica del ámbito de la Inteligencia Artificial que crea sistemas que aprenden automáticamente" transform="translate(-1797 -9319)" fill="#fff" font-size="20" font-family="ArialMT, Arial"><tspan x="27.343" y="18">Disciplina científica del </tspan><tspan x="17.875" y="41">ámbito de la Inteligencia </tspan><tspan x="9.569" y="64">Artificial que crea sistemas </tspan><tspan x="66.776" y="87">que aprenden </tspan><tspan x="51.791" y="110">automáticamente</tspan></text>
      <path id="Trazado_191698" data-name="Trazado 191698" d="M-3648.958-9439.073l-59.788-59.788" transform="translate(1548)" fill="none" stroke="#26a69a" stroke-width="2" stroke-dasharray="6"/>
      <circle id="Elipse_5193" data-name="Elipse 5193" cx="51.5" cy="51.5" r="51.5" transform="translate(-2246 -9591)" fill="#26a69a"/>
      <path id="Trazado_191699" data-name="Trazado 191699" d="M-3719-9319h-76.25" transform="translate(1548)" fill="none" stroke="#26a69a" stroke-width="2" stroke-dasharray="6"/>
      <circle id="Elipse_5194" data-name="Elipse 5194" cx="51.5" cy="51.5" r="51.5" transform="translate(-2357 -9370)" fill="#26a69a"/>
      <path id="Trazado_191700" data-name="Trazado 191700" d="M-3648.958-9498.86l-59.788,59.788" transform="translate(1548 330.999)" fill="none" stroke="#26a69a" stroke-width="2" stroke-dasharray="6"/>
      <circle id="Elipse_5195" data-name="Elipse 5195" cx="51.5" cy="51.5" r="51.5" transform="translate(-2246 -9128)" fill="#26a69a"/>
      <text id="Concepto_Concepto_más_amplio_que_el_Machine_Learning" data-name="Concepto
Concepto más amplio que el 
Machine Learning" transform="translate(-2380 -9487)" fill="#07645b" font-size="16" font-family="Roboto-Bold, Roboto" font-weight="700"><tspan x="0" y="0">Concepto</tspan><tspan font-family="Roboto-Regular, Roboto" font-weight="400"><tspan x="0" y="24">Concepto más amplio que el </tspan></tspan><tspan font-family="Roboto-Italic, Roboto" font-weight="400" font-style="italic"><tspan x="0" y="48">Machine Learning</tspan></tspan></text>
      <text id="Funciones_Imitar_las_funciones_cognitivas_de_los_humanos_haciendo_uso_de_la_computación" data-name="Funciones
Imitar las funciones cognitivas de los humanos, haciendo uso de la computación" transform="translate(-2380 -9258)" fill="#07645b" font-size="16" font-family="Roboto-Bold, Roboto" font-weight="700"><tspan x="0" y="17">Funciones</tspan><tspan font-family="Roboto-Regular, Roboto" font-weight="400"><tspan x="0" y="41">Imitar las funciones </tspan><tspan x="0" y="65">cognitivas de los humanos, </tspan><tspan x="0" y="89">haciendo uso de la </tspan><tspan x="0" y="113">computación</tspan></tspan></text>
      <text id="Algoritmos_Se_trata_de_realizar_tareas_basadas_en_algoritmos_de_una_manera_inteligente_" data-name="Algoritmos
Se trata de realizar tareas basadas en algoritmos de una manera “inteligente”" transform="translate(-2380 -9037)" fill="#07645b" font-size="16" font-family="Roboto-Bold, Roboto" font-weight="700"><tspan x="0" y="17">Algoritmos</tspan><tspan font-family="Roboto-Regular, Roboto" font-weight="400"><tspan x="0" y="41">Se trata de realizar tareas </tspan><tspan x="0" y="65">basadas en algoritmos de una </tspan><tspan x="0" y="89">manera “inteligente”</tspan></tspan></text>
      <path id="Trazado_191701" data-name="Trazado 191701" d="M-3708.746-9439.073l59.788-59.788" transform="translate(2126)" fill="none" stroke="#1565c0" stroke-width="2" stroke-dasharray="6"/>
      <path id="Trazado_191702" data-name="Trazado 191702" d="M-3719-9319h-76.25" transform="translate(2282)" fill="none" stroke="#1565c0" stroke-width="2" stroke-dasharray="6"/>
      <path id="Trazado_191703" data-name="Trazado 191703" d="M-3708.746-9498.86l59.788,59.788" transform="translate(2126 330.999)" fill="none" stroke="#1565c0" stroke-width="2" stroke-dasharray="6"/>
      <text id="Aprendizaje_Automático_Se_trata_de_la_capacidad_de_las_máquinas_para_recibir_un_conjunto_de_datos_y_aprender_por_sí_mismos_aprendizaje_automático_" data-name="Aprendizaje Automático
Se trata de la capacidad de las máquinas para recibir un conjunto de datos y aprender por sí mismos (aprendizaje automático)" transform="translate(-1612 -9013)" fill="#084386" font-size="16" font-family="Roboto-Bold, Roboto" font-weight="700"><tspan x="0" y="17">Aprendizaje Automático</tspan><tspan font-family="Roboto-Regular, Roboto" font-weight="400"><tspan x="0" y="41">Se trata de la capacidad de las máquinas para </tspan><tspan x="0" y="65">recibir un conjunto de datos y aprender por sí </tspan><tspan x="0" y="89">mismos (aprendizaje automático)</tspan></tspan></text>
      <g id="Elipse_5196" data-name="Elipse 5196" transform="translate(-2293 -9583)" fill="none" stroke="#26a69a" stroke-width="1" stroke-dasharray="6">
        <circle cx="279" cy="279" r="279" stroke="none"/>
        <circle cx="279" cy="279" r="278.5" fill="none"/>
      </g>
      <g id="Elipse_5197" data-name="Elipse 5197" transform="translate(-1947 -9583)" fill="none" stroke="#1565c0" stroke-width="1" stroke-dasharray="6">
        <circle cx="279" cy="279" r="279" stroke="none"/>
        <circle cx="279" cy="279" r="278.5" fill="none"/>
      </g>
      <text id="Algoritmos_Los_algoritmos_se_adaptan_a_medida_que_aprenden_más_sobre_la_información_que_procesan." data-name="Algoritmos
Los algoritmos se adaptan a medida que aprenden más sobre la información que procesan." transform="translate(-1448 -9258)" fill="#084386" font-size="16" font-family="Roboto-Bold, Roboto" font-weight="700"><tspan x="0" y="17">Algoritmos</tspan><tspan font-family="Roboto-Regular, Roboto" font-weight="400"><tspan x="0" y="41">Los algoritmos se adaptan </tspan><tspan x="0" y="65">a medida que aprenden </tspan><tspan x="0" y="89">más sobre la información </tspan><tspan x="0" y="113">que procesan.</tspan></tspan></text>
      <text id="Concepto_Subconjunto_de_la_Inteligencia_Artificial._" data-name="Concepto
Subconjunto de la Inteligencia Artificial.
" transform="translate(-1448 -9492)" fill="#084386" font-size="16" font-family="Roboto-Bold, Roboto" font-weight="700"><tspan x="0" y="17">Concepto</tspan><tspan font-family="Roboto-Regular, Roboto" font-weight="400"><tspan x="0" y="41">Subconjunto de la </tspan><tspan x="0" y="65">Inteligencia Artificial.</tspan></tspan></text>
      <circle id="Elipse_5198" data-name="Elipse 5198" cx="158.5" cy="158.5" r="158.5" transform="translate(-2171 -9467)" fill="#26a69a"/>
      <text id="Inteligencia_Artificial" data-name="Inteligencia Artificial" transform="translate(-2139 -9351)" fill="#fff" font-size="27" font-family="Roboto-Bold, Roboto" font-weight="700"><tspan x="0" y="0">Inteligencia Artificial</tspan></text>
      <text id="Combinación_de_algoritmos_con_el_propósito_de_crear_máquinas_que_presenten_las_mismas_capacidades_que_el_ser_humano." data-name="Combinación de algoritmos con el propósito de crear máquinas que presenten las mismas capacidades que el ser humano." transform="translate(-2143 -9319)" fill="#fff" font-size="20" font-family="ArialMT, Arial"><tspan x="7.328" y="18">Combinación de algoritmos </tspan><tspan x="18.437" y="41">con el propósito de crear </tspan><tspan x="2.86" y="64">máquinas que presenten las </tspan><tspan x="5.102" y="87">mismas capacidades que el </tspan><tspan x="72.914" y="110">ser humano.</tspan></text>
      <circle id="Elipse_5199" data-name="Elipse 5199" cx="51.5" cy="51.5" r="51.5" transform="translate(-1540 -9591)" fill="#039be5"/>
      <circle id="Elipse_5200" data-name="Elipse 5200" cx="51.5" cy="51.5" r="51.5" transform="translate(-1431 -9372)" fill="#039be5"/>
      <circle id="Elipse_5201" data-name="Elipse 5201" cx="51.5" cy="51.5" r="51.5" transform="translate(-1540 -9128)" fill="#039be5"/>
      <g id="Grupo_144681" data-name="Grupo 144681" transform="translate(-2333.556 -9351.762)">
        <g id="Grupo_144437" data-name="Grupo 144437" clip-path="url(#clip-path)">
          <path id="Trazado_190981" data-name="Trazado 190981" d="M101.12,127.013a14.245,14.245,0,0,1,4.063,9.855v.745a1.009,1.009,0,0,0,.021.242c0,.011.01.021.013.032a1.028,1.028,0,0,0,.106.26c.01.016.016.033.027.049a1.059,1.059,0,0,0,.2.219l.043.036a1.022,1.022,0,0,0,.263.146l.033.01a1.015,1.015,0,0,0,.324.057,1,1,0,0,0,.241-.031l11.941-2.592c.01,0,.017-.006.027-.009a1,1,0,0,0,.119-.039c.025-.01.049-.018.073-.029a1.146,1.146,0,0,0,.1-.059c.022-.014.046-.027.068-.043a1.167,1.167,0,0,0,.091-.078c.019-.017.038-.033.055-.052a1.011,1.011,0,0,0,.078-.1c.014-.019.028-.037.041-.057a.9.9,0,0,0,.057-.111c.011-.023.022-.045.031-.069a.928.928,0,0,0,.032-.111c.008-.029.015-.057.02-.087,0-.012.007-.024.008-.037a14.282,14.282,0,0,1,3.9-8.1,15.215,15.215,0,0,0-11.8-25.754,15.211,15.211,0,0,0-10.167,25.7ZM111.4,103.358a13.16,13.16,0,0,1,10.215,22.283,16.389,16.389,0,0,0-4.336,8.544l-10.067,2.185A16.309,16.309,0,0,0,102.6,125.6a13.064,13.064,0,0,1-3.649-9.226A13.2,13.2,0,0,1,111.4,103.358Z" transform="translate(-85.072 -88.923)" fill="#fff"/>
          <path id="Trazado_190982" data-name="Trazado 190982" d="M184.44,213.964v12.694a1.025,1.025,0,0,0,2.05,0V213.964l3.706-3.706a1.025,1.025,0,1,0-1.45-1.45l-3.282,3.282-3.281-3.282a1.025,1.025,0,0,0-1.45,1.45Z" transform="translate(-158.408 -183.055)" fill="#fff"/>
          <path id="Trazado_190983" data-name="Trazado 190983" d="M177.011,401.466l-11.967,2.6a1.025,1.025,0,1,0,.436,2l11.967-2.6a1.025,1.025,0,0,0-.436-2Z" transform="translate(-144.188 -352.438)" fill="#fff"/>
          <path id="Trazado_190984" data-name="Trazado 190984" d="M178.709,434.308a1.024,1.024,0,0,0-1.22-.784l-11.967,2.6a1.025,1.025,0,1,0,.436,2l11.967-2.6A1.027,1.027,0,0,0,178.709,434.308Z" transform="translate(-144.608 -380.583)" fill="#fff"/>
          <path id="Trazado_190985" data-name="Trazado 190985" d="M196.508,462.234a1.026,1.026,0,1,0-2.034-.267,2.655,2.655,0,0,1-4.515,1.514,2.36,2.36,0,0,1-.354-.446,1.025,1.025,0,1,0-1.758,1.055,4.392,4.392,0,0,0,.662.84,4.706,4.706,0,0,0,8-2.7Z" transform="translate(-164.789 -404.791)" fill="#fff"/>
          <path id="Trazado_190986" data-name="Trazado 190986" d="M1.025,215.3H7.4a1.025,1.025,0,0,0,0-2.05H1.025a1.025,1.025,0,0,0,0,2.05" transform="translate(0 -187.221)" fill="#fff"/>
          <path id="Trazado_190987" data-name="Trazado 190987" d="M374.238,214.277a1.025,1.025,0,0,0,1.025,1.025h6.379a1.025,1.025,0,1,0,0-2.05h-6.379a1.025,1.025,0,0,0-1.025,1.025" transform="translate(-328.555 -187.22)" fill="#fff"/>
          <path id="Trazado_190988" data-name="Trazado 190988" d="M214.275,8.43A1.025,1.025,0,0,0,215.3,7.4V1.025a1.025,1.025,0,1,0-2.05,0V7.4A1.025,1.025,0,0,0,214.275,8.43Z" transform="translate(-187.219)" fill="#fff"/>
          <path id="Trazado_190989" data-name="Trazado 190989" d="M328.114,69.021a1.021,1.021,0,0,0,.725-.3l4.511-4.511a1.025,1.025,0,0,0-1.45-1.45l-4.511,4.511a1.025,1.025,0,0,0,.725,1.75Z" transform="translate(-287.162 -54.836)" fill="#fff"/>
          <path id="Trazado_190990" data-name="Trazado 190990" d="M67.265,327.39,62.755,331.9a1.026,1.026,0,0,0,1.451,1.45l4.511-4.511a1.026,1.026,0,0,0-1.451-1.45Z" transform="translate(-54.83 -287.162)" fill="#fff"/>
          <path id="Trazado_190991" data-name="Trazado 190991" d="M67.269,68.719a1.026,1.026,0,0,0,1.451-1.45l-4.511-4.511a1.025,1.025,0,1,0-1.45,1.45Z" transform="translate(-54.834 -54.833)" fill="#fff"/>
          <path id="Trazado_190992" data-name="Trazado 190992" d="M332.622,333.651a1.025,1.025,0,0,0,.725-1.75l-4.511-4.511a1.025,1.025,0,0,0-1.45,1.45l4.511,4.511A1.02,1.02,0,0,0,332.622,333.651Z" transform="translate(-287.159 -287.162)" fill="#fff"/>
        </g>
      </g>
      <g id="Grupo_144682" data-name="Grupo 144682" transform="translate(-1522.958 -9111.262)">
        <g id="Grupo_144439" data-name="Grupo 144439" clip-path="url(#clip-path-2)">
          <path id="Trazado_190993" data-name="Trazado 190993" d="M314.506,103.26a4.752,4.752,0,1,0,3.361,1.391A4.719,4.719,0,0,0,314.506,103.26Z" transform="translate(-264.742 -88.255)" fill="#fff"/>
          <path id="Trazado_190994" data-name="Trazado 190994" d="M314.506,309.77a4.754,4.754,0,1,0,3.361,1.392A4.719,4.719,0,0,0,314.506,309.77Z" transform="translate(-264.742 -264.757)" fill="#fff"/>
          <path id="Trazado_190995" data-name="Trazado 190995" d="M4.753,206.51A4.754,4.754,0,1,0,8.115,207.9a4.718,4.718,0,0,0-3.362-1.391Z" transform="translate(0 -176.502)" fill="#fff"/>
          <path id="Trazado_190996" data-name="Trazado 190996" d="M266.645,60.148a6.55,6.55,0,0,1-.616.535l6.06,6.06a6.269,6.269,0,0,1,.535-.616,6.665,6.665,0,0,1,.616-.535l-6.06-6.06a6.378,6.378,0,0,1-.535.616" transform="translate(-227.372 -50.881)" fill="#fff"/>
          <path id="Trazado_190997" data-name="Trazado 190997" d="M211.26,413.03a4.753,4.753,0,1,0,3.361,1.391,4.723,4.723,0,0,0-3.361-1.391" transform="translate(-176.501 -353.013)" fill="#fff"/>
          <path id="Trazado_190998" data-name="Trazado 190998" d="M66.115,163.4a6.367,6.367,0,0,1-.535-.616l-6.06,6.06a5.709,5.709,0,0,1,1.151,1.151l6.06-6.06a6.52,6.52,0,0,1-.616-.535" transform="translate(-50.871 -139.128)" fill="#fff"/>
          <path id="Trazado_190999" data-name="Trazado 190999" d="M369.885,163.4a6.233,6.233,0,0,1-.616.535l6.062,6.062a6.285,6.285,0,0,1,.534-.617,6.64,6.64,0,0,1,.616-.535l-6.06-6.06A6.137,6.137,0,0,1,369.885,163.4Z" transform="translate(-315.611 -139.128)" fill="#fff"/>
          <path id="Trazado_191000" data-name="Trazado 191000" d="M417.777,216.015a4.754,4.754,0,1,0-3.362-1.392A4.723,4.723,0,0,0,417.777,216.015Z" transform="translate(-353.009 -176.5)" fill="#fff"/>
          <path id="Trazado_191001" data-name="Trazado 191001" d="M211.253,216.018a4.754,4.754,0,1,0-3.36-1.392A4.724,4.724,0,0,0,211.253,216.018Z" transform="translate(-176.494 -176.502)" fill="#fff"/>
          <path id="Trazado_191002" data-name="Trazado 191002" d="M169.365,375.888a6.7,6.7,0,0,1,.616-.535l-6.06-6.06a5.777,5.777,0,0,1-1.151,1.151l6.062,6.06A6.229,6.229,0,0,1,169.365,375.888Z" transform="translate(-139.118 -315.631)" fill="#fff"/>
          <path id="Trazado_191003" data-name="Trazado 191003" d="M272.635,369.908a6.234,6.234,0,0,1-.535-.616l-6.06,6.06a5.781,5.781,0,0,1,1.151,1.151l6.06-6.06a6.4,6.4,0,0,1-.616-.535" transform="translate(-227.382 -315.63)" fill="#fff"/>
          <path id="Trazado_191004" data-name="Trazado 191004" d="M375.875,266.658a6.489,6.489,0,0,1-.535-.616l-6.06,6.06a6.3,6.3,0,0,1,.616.535,6.359,6.359,0,0,1,.535.616l6.06-6.06A6.394,6.394,0,0,1,375.875,266.658Z" transform="translate(-315.62 -227.384)" fill="#fff"/>
          <path id="Trazado_191005" data-name="Trazado 191005" d="M163.385,66.138a6.236,6.236,0,0,1,.535.616l6.06-6.06a6.5,6.5,0,0,1-.616-.535,6.352,6.352,0,0,1-.535-.616l-6.06,6.06a6.29,6.29,0,0,1,.616.535" transform="translate(-139.117 -50.891)" fill="#fff"/>
          <path id="Trazado_191006" data-name="Trazado 191006" d="M169.365,266.658a6.232,6.232,0,0,1-.535-.616l-6.06,6.06a6.5,6.5,0,0,1,.616.535,6.351,6.351,0,0,1,.535.616l6.06-6.06a6.365,6.365,0,0,1-.616-.535" transform="translate(-139.118 -227.384)" fill="#fff"/>
          <path id="Trazado_191007" data-name="Trazado 191007" d="M108,319.268a4.754,4.754,0,1,0-3.361-1.392A4.719,4.719,0,0,0,108,319.268Z" transform="translate(-88.24 -264.749)" fill="#fff"/>
          <path id="Trazado_191008" data-name="Trazado 191008" d="M108,112.764a4.753,4.753,0,1,0-3.361-1.392A4.72,4.72,0,0,0,108,112.764Z" transform="translate(-88.24 -88.254)" fill="#fff"/>
          <path id="Trazado_191009" data-name="Trazado 191009" d="M211.249,9.508a4.754,4.754,0,0,0,3.361-8.115,4.754,4.754,0,0,0-6.722,6.723,4.721,4.721,0,0,0,3.361,1.392" transform="translate(-176.49)" fill="#fff"/>
        </g>
      </g>
      <g id="Grupo_144683" data-name="Grupo 144683" transform="translate(-1403.613 -9348.977)">
        <g id="Grupo_144441" data-name="Grupo 144441" clip-path="url(#clip-path-3)">
          <path id="Trazado_191010" data-name="Trazado 191010" d="M69.739,208.861a.773.773,0,0,0,.771-.771v-2.775a.773.773,0,0,0-.771-.771H51.775v-2.082a.773.773,0,0,0-.771-.771.728.728,0,0,0-.771.771v2.082H32.269a.773.773,0,0,0-.771.771v2.775a.773.773,0,0,0,.771.771.728.728,0,0,0,.771-.771v-2.082H50.232v2.082a.773.773,0,0,0,.771.771.728.728,0,0,0,.771-.771v-2.082H68.967v2.082a.728.728,0,0,0,.771.771Z" transform="translate(-25.947 -166.149)" fill="#fff"/>
          <path id="Trazado_191011" data-name="Trazado 191011" d="M116.42,249.818h-7.478a2.6,2.6,0,0,0-2.621,2.621v4.7a2.6,2.6,0,0,0,2.621,2.621h7.478a2.6,2.6,0,0,0,2.621-2.621v-4.7a2.649,2.649,0,0,0-2.621-2.621" transform="translate(-87.584 -205.795)" fill="#fff"/>
          <path id="Trazado_191012" data-name="Trazado 191012" d="M222.29,249.818h-7.478a2.6,2.6,0,0,0-2.621,2.621v4.7a2.6,2.6,0,0,0,2.621,2.621h7.478a2.6,2.6,0,0,0,2.621-2.621v-4.7a2.6,2.6,0,0,0-2.621-2.621" transform="translate(-174.798 -205.795)" fill="#fff"/>
          <path id="Trazado_191013" data-name="Trazado 191013" d="M10.1,249.818H2.621A2.6,2.6,0,0,0,0,252.439v4.7a2.6,2.6,0,0,0,2.621,2.621H10.1a2.6,2.6,0,0,0,2.621-2.621v-4.7a2.6,2.6,0,0,0-2.621-2.621" transform="translate(0 -205.795)" fill="#fff"/>
          <rect id="Rectángulo_43639" data-name="Rectángulo 43639" width="12.721" height="9.946" rx="4.973" transform="translate(18.736 24.363)" fill="#fff"/>
          <path id="Trazado_191014" data-name="Trazado 191014" d="M90.9,79.076h16.807a.773.773,0,0,0,.771-.771V69.9a.773.773,0,0,0-.771-.771H90.9a.773.773,0,0,0-.771.771v8.4a.728.728,0,0,0,.771.771" transform="translate(-74.246 -56.948)" fill="#fff"/>
          <path id="Trazado_191015" data-name="Trazado 191015" d="M90.9,9.946h16.807a.773.773,0,0,0,.771-.771V.771A.773.773,0,0,0,107.706,0H90.9a.773.773,0,0,0-.771.771v8.4a.728.728,0,0,0,.771.771" transform="translate(-74.246)" fill="#fff"/>
          <path id="Trazado_191016" data-name="Trazado 191016" d="M7.879,39.976h7.555L13.2,42.212a.745.745,0,0,0,0,1.079.7.7,0,0,0,.54.231.833.833,0,0,0,.54-.231l3.469-3.469c.077-.077.154-.154.154-.231s.077-.154.077-.308a.582.582,0,0,0-.077-.308c0-.077-.077-.154-.154-.231L14.587,35.5a.763.763,0,0,0-1.079,1.079l1.928,1.928H7.879a1.186,1.186,0,0,1-1.156-1.156v-8.4a1.186,1.186,0,0,1,1.156-1.156h9.329a.773.773,0,0,0,.771-.771.728.728,0,0,0-.771-.771H7.879a2.6,2.6,0,0,0-2.621,2.621v8.4A2.618,2.618,0,0,0,7.879,39.976Z" transform="translate(-4.331 -21.627)" fill="#fff"/>
          <path id="Trazado_191017" data-name="Trazado 191017" d="M194.374,98.521H203.7a1.337,1.337,0,0,1,1.156,1.311v7.324a1.019,1.019,0,0,1-1.156,1H193.448l1.773-1.773a.763.763,0,1,0-1.079-1.079l-2.93,2.93a.674.674,0,0,0-.463.694v.385c0,.077.077.077.077.154s.077.077.077.154l3.469,3.392a.745.745,0,0,0,1.079,0,.745.745,0,0,0,0-1.079l-2.236-2.159h10.408a2.536,2.536,0,0,0,2.621-2.544V99.908a2.788,2.788,0,0,0-2.621-2.775h-9.252a.773.773,0,0,0-.771.771c0,.463.308.617.771.617Z" transform="translate(-157.136 -80.016)" fill="#fff"/>
        </g>
      </g>
      <g id="Grupo_144684" data-name="Grupo 144684" transform="translate(-2220.406 -9108.883)">
        <g id="Grupo_144443" data-name="Grupo 144443" clip-path="url(#clip-path-4)">
          <path id="Trazado_191018" data-name="Trazado 191018" d="M94.949,0h22.667a1.74,1.74,0,0,1,1.619,1.619V4.857a1.62,1.62,0,0,1-1.619,1.619H94.949A1.74,1.74,0,0,1,93.33,4.857V1.619A1.619,1.619,0,0,1,94.949,0Z" transform="translate(-80.378)" fill="#fff"/>
          <path id="Trazado_191019" data-name="Trazado 191019" d="M94.949,420h22.667a1.74,1.74,0,0,1,1.619,1.619v3.238a1.62,1.62,0,0,1-1.619,1.619H94.949a1.74,1.74,0,0,1-1.619-1.619v-3.238A1.619,1.619,0,0,1,94.949,420Z" transform="translate(-80.378 -361.713)" fill="#fff"/>
          <path id="Trazado_191020" data-name="Trazado 191020" d="M96.574,326.662H116a3.479,3.479,0,0,1,3.238,3.238A3.238,3.238,0,0,1,116,333.138H96.574a3.479,3.479,0,0,1-3.238-3.238,3.238,3.238,0,0,1,3.238-3.238" transform="translate(-80.383 -281.327)" fill="#fff"/>
          <path id="Trazado_191021" data-name="Trazado 191021" d="M6.477,96.568A3.238,3.238,0,1,1,3.239,93.33a3.238,3.238,0,0,1,3.238,3.238" transform="translate(0 -80.378)" fill="#fff"/>
          <path id="Trazado_191022" data-name="Trazado 191022" d="M169.81,236.568a3.238,3.238,0,1,1-3.238-3.238,3.238,3.238,0,0,1,3.238,3.238" transform="translate(-140.666 -200.948)" fill="#fff"/>
          <path id="Trazado_191023" data-name="Trazado 191023" d="M152.955,99.811a6.477,6.477,0,1,1-6.477-6.477,6.476,6.476,0,0,1,6.477,6.477" transform="translate(-120.572 -80.381)" fill="#fff"/>
          <path id="Trazado_191024" data-name="Trazado 191024" d="M283.244,186.662h6.477a3.479,3.479,0,0,1,3.238,3.238v6.477a3.238,3.238,0,0,1-3.238,3.238h-6.477a3.479,3.479,0,0,1-3.238-3.238V189.9A3.238,3.238,0,0,1,283.244,186.662Z" transform="translate(-241.146 -160.757)" fill="#fff"/>
          <path id="Trazado_191025" data-name="Trazado 191025" d="M19.119,26.481V21.542a2.432,2.432,0,0,1,2.429-2.429h4.857V17.494H21.548A4.052,4.052,0,0,0,17.5,21.542v4.939A4.052,4.052,0,0,1,19.119,26.481Z" transform="translate(-15.071 -15.066)" fill="#fff"/>
          <path id="Trazado_191026" data-name="Trazado 191026" d="M181.642,61.568a7.957,7.957,0,0,1,.809.082V58.33h-1.619v3.32A7.956,7.956,0,0,1,181.642,61.568Z" transform="translate(-155.736 -50.235)" fill="#fff"/>
          <path id="Trazado_191027" data-name="Trazado 191027" d="M293.289,19.119a2.432,2.432,0,0,1,2.429,2.429V39.359h1.619V21.547a4.052,4.052,0,0,0-4.047-4.047H291.67v1.619Z" transform="translate(-251.192 -15.071)" fill="#fff"/>
          <path id="Trazado_191028" data-name="Trazado 191028" d="M181.645,197.824a7.96,7.96,0,0,1-.809-.082v3.4h0a4.049,4.049,0,0,1,1.619,0v-3.4A7.961,7.961,0,0,1,181.645,197.824Z" transform="translate(-155.739 -170.299)" fill="#fff"/>
          <path id="Trazado_191029" data-name="Trazado 191029" d="M182.453,291.072a4.03,4.03,0,0,1-1.619,0v3.32h1.619Z" transform="translate(-155.738 -250.677)" fill="#fff"/>
          <path id="Trazado_191030" data-name="Trazado 191030" d="M295.718,309.473a2.432,2.432,0,0,1-2.429,2.429H291.67v1.619h1.619a4.052,4.052,0,0,0,4.047-4.047V291.662h-1.619Z" transform="translate(-251.192 -251.185)" fill="#fff"/>
          <rect id="Rectángulo_43641" data-name="Rectángulo 43641" width="1.619" height="3.238" transform="translate(25.097 53.431)" fill="#fff"/>
          <path id="Trazado_191031" data-name="Trazado 191031" d="M36.2,164.919H21.548a2.432,2.432,0,0,1-2.429-2.429V151.074a4.032,4.032,0,0,1-1.619,0V162.49a4.052,4.052,0,0,0,4.048,4.048H36.2a4.052,4.052,0,0,1,0-1.619" transform="translate(-15.071 -130.108)" fill="#fff"/>
        </g>
      </g>
      <g id="Grupo_144685" data-name="Grupo 144685" transform="translate(-1509.129 -9562.129)">
        <g id="Grupo_144445" data-name="Grupo 144445" clip-path="url(#clip-path-5)">
          <path id="Trazado_191032" data-name="Trazado 191032" d="M119.082,19.415H99.65V0a23.064,23.064,0,0,1,19.432,19.415" transform="translate(-75.824)" fill="#fff"/>
          <path id="Trazado_191033" data-name="Trazado 191033" d="M40.7,34.266v0A20.487,20.487,0,1,1,17.132,10.72V34.266Z" transform="translate(0 -8.157)" fill="#fff"/>
        </g>
      </g>
      <g id="Grupo_144686" data-name="Grupo 144686" transform="translate(-2218 -9562.129)">
        <path id="Trazado_191034" data-name="Trazado 191034" d="M0,128.179l22.706,10.743V114.891L0,105.277Z" transform="translate(0 -93.666)" fill="#fff"/>
        <path id="Trazado_191035" data-name="Trazado 191035" d="M220.96,114.9v24.031l22.629-10.743v-22.9Z" transform="translate(-196.589 -93.67)" fill="#fff"/>
        <path id="Trazado_191036" data-name="Trazado 191036" d="M24.609,0,1.34,10.025l23.292,9.948L48.164,10Z" transform="translate(-1.192)" fill="#fff"/>
      </g>
      <circle id="Elipse_5202" data-name="Elipse 5202" cx="37.5" cy="37.5" r="37.5" transform="translate(-1878 -9327)" fill="#12263f"/>
      <text id="Vs." transform="translate(-1855 -9283)" fill="#fff" font-size="27" font-family="Roboto-Bold, Roboto" font-weight="700"><tspan x="0" y="0">Vs.</tspan></text>
    </g>
  </g>
</svg>
