<svg xmlns="http://www.w3.org/2000/svg" xmlns:xlink="http://www.w3.org/1999/xlink" width="204.685" height="134.053" viewBox="0 0 204.685 134.053">
  <defs>
    <clipPath id="clip-path">
      <rect id="Rectángulo_43550" data-name="Rectángulo 43550" width="123.784" height="134.053" fill="none"/>
    </clipPath>
    <clipPath id="clip-path-3">
      <rect id="Rectángulo_43548" data-name="Rectángulo 43548" width="123.657" height="133.894" fill="none"/>
    </clipPath>
    <clipPath id="clip-path-4">
      <rect id="Rectángulo_43556" data-name="Rectángulo 43556" width="102.196" height="94.381" fill="none"/>
    </clipPath>
    <clipPath id="clip-path-5">
      <rect id="Rectángulo_43555" data-name="Rectángulo 43555" width="102.196" height="94.38" fill="none"/>
    </clipPath>
    <clipPath id="clip-path-6">
      <rect id="Rectángulo_43553" data-name="Rectángulo 43553" width="71.025" height="58.246" fill="none"/>
    </clipPath>
    <clipPath id="clip-path-7">
      <rect id="Rectángulo_43554" data-name="Rectángulo 43554" width="44.619" height="32.995" fill="none"/>
    </clipPath>
  </defs>
  <g id="Grupo_144952" data-name="Grupo 144952" transform="translate(5168.453 6715.026)">
    <g id="Grupo_144340" data-name="Grupo 144340" transform="translate(-5168.453 -6715.026)">
      <g id="Grupo_144315" data-name="Grupo 144315" clip-path="url(#clip-path)">
        <g id="Grupo_144314" data-name="Grupo 144314">
          <g id="Grupo_144313" data-name="Grupo 144313" clip-path="url(#clip-path)">
            <path id="Trazado_190746" data-name="Trazado 190746" d="M81.281.339,66.869.019,66.8,2.373C43.4,9.594,25.625,35.161,24.768,65.981s15.472,57.144,38.447,65.395l-.065,2.354,14.412.32c30.184.67,55.486-28.719,56.513-65.642S111.465,1.009,81.281.339" transform="translate(-10.324 -0.008)" fill="#cf931d"/>
            <path id="Trazado_190747" data-name="Trazado 190747" d="M109.339,68.079C108.311,105,83.01,134.391,52.826,133.721S-1,102.575.032,65.652,26.36-.66,56.545.01s53.821,31.146,52.794,68.069" transform="translate(0 0.001)" fill="#fbc03d"/>
            <path id="Trazado_190748" data-name="Trazado 190748" d="M71.617,129.81a39.311,39.311,0,0,1-14.463,2.433c-12.686-.282-24.564-6.744-33.445-18.2C14.437,102.094,9.588,86.28,10.054,69.52A72.158,72.158,0,0,1,21.1,32.469C27.537,22.439,36.424,14.955,46.12,11.4A39.3,39.3,0,0,1,60.583,8.965c12.686.282,24.564,6.744,33.445,18.2,9.272,11.954,14.121,27.768,13.655,44.527a72.158,72.158,0,0,1-11.043,37.051c-6.44,10.03-15.326,17.514-25.023,21.071" transform="translate(-4.183 -3.738)" fill="#fbc03d"/>
            <path id="Trazado_190749" data-name="Trazado 190749" d="M28.509,114.171c-9.249-11.926-14.087-27.7-13.622-44.43s6.174-32.27,16.076-43.77c8.9-10.342,20.194-16.179,32.005-16.607q-1.124-.091-2.257-.118c-12.626-.28-24.795,5.624-34.266,16.625-9.9,11.5-15.61,27.045-16.075,43.77s4.372,32.5,13.622,44.43c8.847,11.408,20.673,17.844,33.3,18.124.756.017,1.509.01,2.261-.017-11.773-.953-22.725-7.282-31.043-18.007" transform="translate(-4.315 -3.855)" fill="#cf931d"/>
            <path id="Trazado_190750" data-name="Trazado 190750" d="M75.936,93.432l.073-.046.068.046.073-.046.068.046.073-.046.068.046.073-.046.068.046.073-.046.068.046.073-.046.068.046.073-.046.068.046L77,93.386l.068.046.073-.046.068.046.074-.046.068.046.073-.046.068.046.074-.046.068.046.073-.046.068.046.073-.046.068.046.073-.046.068.046.074-.046.068.046.073-.046.068.046.073-.046.068.046.073-.046.068.046.073-.046.068.046.073-.046.068.046.074-.046.068.046.073-.046.068.046.073-.046.068.046.073-.046.068.046.073-.046.068.046.073-.046.068.046.073-.046.068.046.073-.046.068.046.073-.046.068.046.073-.046.068.046.073-.046.068.046.073-.046.068.046.073-.046.068.046.073-.046.068.046.073-.046.068.046.073-.046.068.046.073-.046.068.046.074-.046.068.046.073-.046.068.046.073-.046.068.046.073-.046.068.046.073-.046.068.046.073-.046.068.046.073-.046.068.046.073-.046.068.046.073-.046.068.046.073-.046.068.046.074-.046.068.046.073-.046.068.046.073-.046.068.046L107.713,77.96,94.581,52.407l-3.2-6.229-3.928-7.641-4.31-8.386-.067.144L83,30.15l-.068.144-.074-.144-.067.144-.075-.144-.067.144-.074-.144-.067.144-.075-.144-.067.144-.074-.144-.067.144-.075-.144-.067.144-.074-.144-.067.144-.075-.144-.067.144-.074-.144-.067.144-.075-.144-.067.144-.074-.144-.067.144-.075-.144-.067.144-.074-.144-.067.144-.075-.144-.067.144-.074-.144-.067.144-.075-.144-.067.144L80.6,30.15l-.067.144-.075-.144-.067.144-.074-.144-.067.144-.075-.144-.067.144-.074-.144-.067.144-.075-.144-.067.144-.074-.144-.067.144-.075-.144-.067.144-.074-.144-.067.144-.075-.144-.067.144-.074-.144-.068.144-.074-.144-.067.144L78.9,30.15l-.066.144-.075-.144-.067.144-.074-.144-.067.144-.075-.144-.067.144-.074-.144-.067.144L78.2,30.15l-.067.144-.075-.144-.066.144-.075-.144-.067.144-.074-.144-.067.144-.075-.144-.067.144-.075-.144-.067.144-.074-.144-.067.144-.075-.144-.066.144-.075-.144L77,30.294l-.074-.144-.068.144-.074-.144-.067.144-.074-.144-.068.144L76.5,30.15l-.067.144-.075-.144-.066.144-.075-.144-.067.144-.074-.144-.067.144-.075-.144L63.92,56.044,53.649,78.178l-.023.048,5.208,3.549Z" transform="translate(-22.381 -12.583)" fill="#cf931d"/>
            <path id="Trazado_190751" data-name="Trazado 190751" d="M107.143,125.35l-.207.127.066-.127-.207.127.065-.127-.207.127.065-.127-.206.127.065-.127-.207.127.066-.127-.207.127.065-.127-.207.127.065-.127-.206.127.065-.127-.207.127.065-.127-.206.127.065-.127-.207.127.065-.127-.206.127.065-.127-.207.127.066-.127-.207.127.065-.127-.207.127.065-.127-.206.127.065-.127-.207.127.066-.127-.207.127.065-.127-.207.127.065-.127-.207.127.066-.127-.207.127.065-.127-.206.127.065-.127-.207.127.065-.127-.206.127.065-.127-.207.127.065-.127-.206.127.065-.127-.207.127.065-.127-.206.127.065-.127-.207.127.065-.127-.206.127.065-.127-.207.127.065-.127-.207.127.066-.127-.207.127.065-.127-.206.127.065-.127-.207.127.065-.127-.206.127.065-.127-.207.127.065-.127-.206.127.065-.127-.207.127.065-.127-.207.127.065-.127-.206.127.065-.127-.207.127.066-.127-.207.127.065-.127-.207.127.065-.127-.206.127.065-.127-.206.127.065-.127-.207.127.065-.127-.207.127.066-.127-.207.127.065-.127-.207.127.066-.127L80.384,137.473,62.836,125.265l-.507-.353.068.146-.209-.146.067.146-.209-.146.068.146-.209-.146.068.146-.209-.146.068.146-.209-.146.068.146-.209-.146.068.146-.209-.146.067.146-.209-.146.068.146-.209-.146.067.146-.208-.146.067.146-.209-.146.067.146-.209-.146.068.146-.209-.146.067.146-.209-.146.068.146-.209-.146.068.146-.209-.146.068.146-.209-.146.067.146-.209-.146.068.146-.209-.146.067.146-.209-.146.068.146-.209-.146.067.146-.209-.146.068.146-.209-.146.067.146-.209-.146.068.146-.209-.146.067.146-.209-.146.068.146-.209-.146.067.146-.209-.146.068.146-.209-.146.067.146-.209-.146.068.146-.209-.146.067.146-.209-.146.068.146-.209-.146.067.146-.209-.146.068.146-.209-.146.067.146-.209-.146.068.146-.209-.146.067.146-.209-.146.068.146-.209-.146.067.146-.209-.146.068.146-.209-.146.067.146-.209-.146.068.146-.209-.146.067.146-.209-.146.068.146-.209-.146.067.146-.209-.146.068.146-.209-.146.067.146-.209-.146.068.146-.209-.146.067.146-.209-.146.068.146-.209-.146.274.591,16.7,35.988,4.463,9.618.075-.144.067.144.074-.144.067.144.075-.144.067.144.074-.144.067.144.075-.144.067.144.074-.144.067.144.075-.144.067.144.074-.144.067.144.075-.144.067.144.074-.144.067.144.075-.144.067.144.074-.144.067.144.075-.144.067.144.074-.144.067.144.075-.144.067.144.074-.144.067.144.075-.144.067.144.074-.144.067.144.075-.144.067.144.074-.144.067.144.075-.144.067.144.074-.144.067.144.075-.144.067.144.074-.144.067.144.075-.144.067.144.074-.144.067.144.075-.144.067.144.074-.144.067.144.075-.144.067.144.074-.144.067.144.075-.144.067.144.074-.144.068.144.074-.144.067.144.075-.144.066.144.075-.144.067.144.074-.144.067.144.075-.144.067.144.074-.144.068.144.074-.144.067.144.074-.144.067.144.075-.144.067.144.074-.144.068.144.074-.144.067.144.074-.144.068.144.074-.144.067.144.075-.144.067.144.074-.144.067.144.074-.144.068.144.074-.144.067.144.074-.144.068.144.074-.144.067.144,13.351-25.977,10.167-19.782-.207.127Z" transform="translate(-23.006 -52.133)" fill="#cf931d"/>
            <path id="Trazado_190752" data-name="Trazado 190752" d="M55.123,124.913l.274.591.232-.239Z" transform="translate(-23.006 -52.133)" fill="#fdd77e"/>
            <path id="Trazado_190753" data-name="Trazado 190753" d="M75.936,93.432l24.571-15.473L87.374,52.406l-3.2-6.228-3.928-7.641-4.31-8.387L63.92,56.043,53.649,78.177l-.023.049,5.208,3.549Z" transform="translate(-22.381 -12.583)" fill="#fdd77e"/>
            <path id="Trazado_190754" data-name="Trazado 190754" d="M55.827,125.518l-.232.239,16.7,35.987,4.463,9.619,13.351-25.978L100.275,125.6,76.757,140.079Z" transform="translate(-23.203 -52.386)" fill="#fdd77e"/>
            <g id="Grupo_144312" data-name="Grupo 144312" transform="translate(0.064 0.079)" opacity="0.52">
              <g id="Grupo_144311" data-name="Grupo 144311">
                <g id="Grupo_144310" data-name="Grupo 144310" clip-path="url(#clip-path-3)">
                  <path id="Trazado_190755" data-name="Trazado 190755" d="M71.066.467,56.654.147a46.4,46.4,0,0,0-22.54,5.347L5.983,37.78A79.554,79.554,0,0,0,.141,65.789a81.2,81.2,0,0,0,1.1,15.862L71.953.5c-.3-.012-.591-.027-.887-.033" transform="translate(-0.109 -0.136)" fill="#ffebc2"/>
                  <path id="Trazado_190756" data-name="Trazado 190756" d="M9,99.924,90.955,5.86a46.637,46.637,0,0,0-4.416-1.632L7.222,95.259Q8.035,97.641,9,99.924" transform="translate(-3.078 -1.844)" fill="#ffebc2"/>
                  <path id="Trazado_190757" data-name="Trazado 190757" d="M45.828,141.811l84.547-97.035a65.177,65.177,0,0,0-6.863-10.485L36.138,134.571a52.914,52.914,0,0,0,9.69,7.24" transform="translate(-15.146 -14.391)" fill="#ffebc2"/>
                  <path id="Trazado_190758" data-name="Trazado 190758" d="M90.719,172.066l7.768.172,63.063-72.378a80.4,80.4,0,0,0-.875-8.177L90.64,172.063l.079,0" transform="translate(-37.893 -38.344)" fill="#ffebc2"/>
                </g>
              </g>
            </g>
          </g>
        </g>
      </g>
    </g>
    <g id="Grupo_144339" data-name="Grupo 144339" transform="translate(-5065.965 -6710.19)">
      <g id="Grupo_144338" data-name="Grupo 144338" clip-path="url(#clip-path-4)">
        <g id="Grupo_144337" data-name="Grupo 144337" transform="translate(0 0)">
          <g id="Grupo_144336" data-name="Grupo 144336" clip-path="url(#clip-path-5)">
            <path id="Trazado_190777" data-name="Trazado 190777" d="M12.052,94.383A12.034,12.034,0,0,1,1.531,76.506L40.577,6.195a12.034,12.034,0,0,1,21.042,0l39.047,70.311A12.035,12.035,0,0,1,90.145,94.383Z" transform="translate(0 -0.003)" fill="#fff"/>
            <path id="Trazado_190778" data-name="Trazado 190778" d="M30.64,104.625,69.687,34.313a9.565,9.565,0,0,1,16.724,0l39.047,70.312a9.565,9.565,0,0,1-8.362,14.209H39a9.565,9.565,0,0,1-8.362-14.209" transform="translate(-26.951 -26.922)" fill="#ffd008"/>
            <g id="Grupo_144332" data-name="Grupo 144332" transform="translate(15.804 33.664)" opacity="0.21" style="mix-blend-mode: multiply;isolation: isolate">
              <g id="Grupo_144331" data-name="Grupo 144331">
                <g id="Grupo_144330" data-name="Grupo 144330" clip-path="url(#clip-path-6)">
                  <path id="Trazado_190779" data-name="Trazado 190779" d="M227.046,455.719q16.062-16.01,32.058-32.085l-12.779-23.01-26.9,26.9-29.347,29.347-2,2h35.793c1.056-1.052,2.118-2.1,3.174-3.151" transform="translate(-188.079 -400.623)" fill="#ffaf10"/>
                </g>
              </g>
            </g>
            <g id="Grupo_144335" data-name="Grupo 144335" transform="translate(55.105 58.916)" opacity="0.43" style="mix-blend-mode: multiply;isolation: isolate">
              <g id="Grupo_144334" data-name="Grupo 144334">
                <g id="Grupo_144333" data-name="Grupo 144333" clip-path="url(#clip-path-7)">
                  <path id="Trazado_190780" data-name="Trazado 190780" d="M688.738,701.129q-7.041,7.065-14.082,14.129-9.432,9.444-18.887,18.865h35.04a9.565,9.565,0,0,0,8.362-14.209Z" transform="translate(-655.769 -701.129)" fill="#ffaf10"/>
                </g>
              </g>
            </g>
            <path id="Trazado_190781" data-name="Trazado 190781" d="M506.264,439.44l-2.508-27.756v-.523a2.409,2.409,0,0,1,2.409-2.409h12.717a2.409,2.409,0,0,1,2.409,2.409v.523l-2.563,27.76a2.3,2.3,0,0,1-2.29,2.088h-7.882a2.3,2.3,0,0,1-2.291-2.093m-.4,13.087v-5.92a1.849,1.849,0,0,1,1.849-1.849h9.556a1.849,1.849,0,0,1,1.849,1.849v5.92a1.849,1.849,0,0,1-1.849,1.849h-9.556a1.849,1.849,0,0,1-1.849-1.849" transform="translate(-461.425 -374.405)" fill="#12263f"/>
          </g>
        </g>
      </g>
    </g>
  </g>
</svg>
