<svg xmlns="http://www.w3.org/2000/svg" xmlns:xlink="http://www.w3.org/1999/xlink" width="612" height="496" viewBox="0 0 612 496">
  <defs>
    <clipPath id="clip-path">
      <rect id="Rectángulo_43476" data-name="Rectángulo 43476" width="127.871" height="130.515" fill="none"/>
    </clipPath>
    <clipPath id="clip-path-2">
      <rect id="Rectángulo_43475" data-name="Rectángulo 43475" width="127.871" height="130.516" fill="none"/>
    </clipPath>
    <clipPath id="clip-path-3">
      <rect id="Rectángulo_43470" data-name="Rectángulo 43470" width="56.055" height="48.11" fill="none"/>
    </clipPath>
    <clipPath id="clip-path-4">
      <rect id="Rectángulo_43471" data-name="Rectángulo 43471" width="10.757" height="64.747" fill="none"/>
    </clipPath>
    <clipPath id="clip-path-7">
      <rect id="Rectángulo_43474" data-name="Rectángulo 43474" width="63.935" height="17.658" fill="none"/>
    </clipPath>
    <clipPath id="clip-path-8">
      <rect id="Rectángulo_43481" data-name="Rectángulo 43481" width="94" height="41.774" fill="none"/>
    </clipPath>
    <clipPath id="clip-path-10">
      <rect id="Rectángulo_43479" data-name="Rectángulo 43479" width="47.273" height="41.774" fill="none"/>
    </clipPath>
  </defs>
  <g id="Grupo_144946" data-name="Grupo 144946" transform="translate(-178 -2278)">
    <rect id="Rectángulo_43454" data-name="Rectángulo 43454" width="612" height="496" transform="translate(178 2278)" fill="#f6f6f6"/>
    <text id="Sistema_Tradicional" data-name="Sistema Tradicional" transform="translate(377 2334)" fill="#12263f" font-size="24" font-family="Roboto-Black, Roboto" font-weight="800"><tspan x="0" y="0">Sistema Tradicional</tspan></text>
    <g id="Grupo_144679" data-name="Grupo 144679">
      <path id="Trazado_191679" data-name="Trazado 191679" d="M0,0H16V317H0Z" transform="translate(476 2401)" fill="#4dd0e1"/>
      <path id="Trazado_191675" data-name="Trazado 191675" d="M0,0H16V317H0Z" transform="translate(642.5 2551.5) rotate(90)" fill="#4dd0e1"/>
      <g id="Grupo_144159" data-name="Grupo 144159" transform="translate(420.065 2478.742)">
        <g id="Grupo_144158" data-name="Grupo 144158" clip-path="url(#clip-path)">
          <rect id="Rectángulo_43456" data-name="Rectángulo 43456" width="21.515" height="4.059" transform="translate(18.267 48.11)" fill="#c6c6c6"/>
          <rect id="Rectángulo_43457" data-name="Rectángulo 43457" width="21.515" height="4.059" transform="translate(18.267 108.798)" fill="#c6c6c6"/>
          <g id="Grupo_144157" data-name="Grupo 144157" transform="translate(0 0)">
            <g id="Grupo_144156" data-name="Grupo 144156" clip-path="url(#clip-path-2)">
              <path id="Trazado_190584" data-name="Trazado 190584" d="M30.273,88.757H13.223a258.131,258.131,0,0,1,0-56.628H30.273a258.131,258.131,0,0,1,0,56.628" transform="translate(7.277 20.041)" fill="#ededed"/>
              <rect id="Rectángulo_43458" data-name="Rectángulo 43458" width="21.515" height="4.059" transform="translate(53.178 48.11)" fill="#c6c6c6"/>
              <rect id="Rectángulo_43459" data-name="Rectángulo 43459" width="21.515" height="4.059" transform="translate(53.178 108.798)" fill="#c6c6c6"/>
              <path id="Trazado_190585" data-name="Trazado 190585" d="M51.773,88.757H34.723a258.131,258.131,0,0,1,0-56.628H51.773a258.131,258.131,0,0,1,0,56.628" transform="translate(20.687 20.041)" fill="#ededed"/>
              <rect id="Rectángulo_43460" data-name="Rectángulo 43460" width="21.515" height="4.059" transform="translate(88.089 48.11)" fill="#c6c6c6"/>
              <rect id="Rectángulo_43461" data-name="Rectángulo 43461" width="21.515" height="4.059" transform="translate(88.089 108.798)" fill="#c6c6c6"/>
              <path id="Trazado_190586" data-name="Trazado 190586" d="M56.223,88.757H73.273a257.931,257.931,0,0,0,0-56.628H56.223a258.131,258.131,0,0,0,0,56.628" transform="translate(34.098 20.041)" fill="#ededed"/>
              <rect id="Rectángulo_43462" data-name="Rectángulo 43462" width="113.715" height="5.886" transform="translate(7.078 112.858)" fill="#ededed"/>
              <rect id="Rectángulo_43463" data-name="Rectángulo 43463" width="120.322" height="5.886" transform="translate(3.774 118.744)" fill="#ededed"/>
              <rect id="Rectángulo_43464" data-name="Rectángulo 43464" width="127.871" height="5.886" transform="translate(0 124.63)" fill="#ededed"/>
              <rect id="Rectángulo_43465" data-name="Rectángulo 43465" width="113.715" height="2.942" transform="translate(7.078 115.801)" fill="#c6c6c6"/>
              <rect id="Rectángulo_43466" data-name="Rectángulo 43466" width="120.322" height="2.942" transform="translate(3.774 121.688)" fill="#c6c6c6"/>
              <rect id="Rectángulo_43467" data-name="Rectángulo 43467" width="127.871" height="2.942" transform="translate(0 127.574)" fill="#c6c6c6"/>
              <rect id="Rectángulo_43468" data-name="Rectángulo 43468" width="101.891" height="7.307" transform="translate(12.99 40.803)" fill="#ededed"/>
              <rect id="Rectángulo_43469" data-name="Rectángulo 43469" width="112.109" height="7.081" transform="translate(7.88 33.722)" fill="#c6c6c6"/>
              <path id="Trazado_190587" data-name="Trazado 190587" d="M4.853,33.722,60.909,0l56.054,33.722Z" transform="translate(3.027 0.001)" fill="#c6c6c6"/>
              <path id="Trazado_190588" data-name="Trazado 190588" d="M60.908,7.58,93.567,27.227H28.25Zm0-7.58L4.853,33.722H116.964Z" transform="translate(3.027 0)" fill="#c6c6c6"/>
              <path id="Trazado_190589" data-name="Trazado 190589" d="M4.853,33.722,60.909,0l56.054,33.722Z" transform="translate(3.027 0.001)" fill="#c6c6c6"/>
              <path id="Trazado_190590" data-name="Trazado 190590" d="M60.908,7.58,93.567,27.227H28.25Zm0-7.58L4.853,33.722H116.964Z" transform="translate(3.027 0)" fill="#ededed"/>
              <path id="Trazado_190591" data-name="Trazado 190591" d="M45.147,15.316a3.315,3.315,0,0,0-.762-1.029,4.2,4.2,0,0,0-1.055-.7q-.589-.275-1.159-.486l-1.039-.38a4.271,4.271,0,0,1-.994-.536,1.014,1.014,0,0,1-.39-.865,1,1,0,0,1,.362-.805,3.591,3.591,0,0,1,2.8-.32,4.824,4.824,0,0,1,.536.216l.408.2a.789.789,0,0,0,.362.088.675.675,0,0,0,.416-.13,1.113,1.113,0,0,0,.287-.322,1.593,1.593,0,0,0,.164-.391,1.457,1.457,0,0,0,.052-.356.79.79,0,0,0-.3-.633,2.517,2.517,0,0,0-.752-.417,4.616,4.616,0,0,0-.971-.235,7.263,7.263,0,0,0-.934-.07V7.688a.379.379,0,0,0-.182-.307.691.691,0,0,0-.406-.13.661.661,0,0,0-.416.13.373.373,0,0,0-.174.3v.486a5.662,5.662,0,0,0-1.263.312,3.432,3.432,0,0,0-1.073.632,2.946,2.946,0,0,0-.744,1,3.36,3.36,0,0,0-.278,1.427,2.913,2.913,0,0,0,.3,1.393,3.1,3.1,0,0,0,.789.953,4.73,4.73,0,0,0,1.081.648q.6.261,1.185.486l1.039.416a3.178,3.178,0,0,1,.926.6,1.309,1.309,0,0,1,.372,1,1.258,1.258,0,0,1-.364.953,1.879,1.879,0,0,1-.934.466,3.059,3.059,0,0,1-2.009-.258,5.111,5.111,0,0,1-.7-.434l-.546-.406a.8.8,0,0,0-.484-.182.64.64,0,0,0-.38.12,1.283,1.283,0,0,0-.3.3,1.666,1.666,0,0,0-.208.4,1.175,1.175,0,0,0-.078.391,1.241,1.241,0,0,0,.278.737,2.814,2.814,0,0,0,.77.685,4.667,4.667,0,0,0,1.169.511,5.1,5.1,0,0,0,1.453.2v.49a.381.381,0,0,0,.174.305.661.661,0,0,0,.416.13.689.689,0,0,0,.406-.128.376.376,0,0,0,.182-.3v-.536a4.077,4.077,0,0,0,2.363-1.153,3.435,3.435,0,0,0,.908-2.517,3.385,3.385,0,0,0-.294-1.489" transform="translate(23.281 4.523)" fill="#575756"/>
              <path id="Trazado_190592" data-name="Trazado 190592" d="M44.716,14.848a3.36,3.36,0,0,0-.762-1.029,4.225,4.225,0,0,0-1.055-.7q-.589-.275-1.159-.486l-1.039-.38a4.318,4.318,0,0,1-1-.536,1.017,1.017,0,0,1-.388-.865,1,1,0,0,1,.362-.805,3.6,3.6,0,0,1,2.8-.32,5.161,5.161,0,0,1,.536.216c.156.076.292.141.408.2a.787.787,0,0,0,.362.086.675.675,0,0,0,.416-.13,1.107,1.107,0,0,0,.286-.322,1.6,1.6,0,0,0,.166-.391,1.446,1.446,0,0,0,.052-.356.79.79,0,0,0-.3-.633,2.542,2.542,0,0,0-.753-.417,4.577,4.577,0,0,0-.969-.235,7.239,7.239,0,0,0-.934-.068V7.22a.374.374,0,0,0-.182-.305.681.681,0,0,0-.406-.132.661.661,0,0,0-.416.13.369.369,0,0,0-.174.3V7.7a5.663,5.663,0,0,0-1.263.312,3.431,3.431,0,0,0-1.073.632,2.946,2.946,0,0,0-.744,1,3.36,3.36,0,0,0-.278,1.427,2.913,2.913,0,0,0,.3,1.393,3.1,3.1,0,0,0,.789.953,4.616,4.616,0,0,0,1.081.648q.6.261,1.185.486l1.039.416a3.178,3.178,0,0,1,.926.6,1.312,1.312,0,0,1,.372,1,1.258,1.258,0,0,1-.364.953,1.879,1.879,0,0,1-.934.466,3.059,3.059,0,0,1-2.009-.258,5.111,5.111,0,0,1-.7-.434l-.546-.406a.8.8,0,0,0-.484-.182.64.64,0,0,0-.38.12,1.283,1.283,0,0,0-.3.3,1.666,1.666,0,0,0-.208.4,1.175,1.175,0,0,0-.078.391,1.241,1.241,0,0,0,.278.737,2.791,2.791,0,0,0,.77.685,4.609,4.609,0,0,0,1.169.511,5.1,5.1,0,0,0,1.453.2v.49a.377.377,0,0,0,.174.305.661.661,0,0,0,.416.13.689.689,0,0,0,.406-.128.376.376,0,0,0,.182-.3v-.536A4.077,4.077,0,0,0,44.1,18.854a3.433,3.433,0,0,0,.908-2.517,3.385,3.385,0,0,0-.294-1.489" transform="translate(23.012 4.231)" fill="#ededed"/>
              <g id="Grupo_144143" data-name="Grupo 144143" transform="translate(7.881 0)" opacity="0.1">
                <g id="Grupo_144142" data-name="Grupo 144142" transform="translate(0 0)">
                  <g id="Grupo_144141" data-name="Grupo 144141" clip-path="url(#clip-path-3)">
                    <path id="Trazado_190593" data-name="Trazado 190593" d="M4.853,33.722V40.8h5.11V48.11H60.909V0Z" transform="translate(-4.853 0)" fill="#1d1d1b"/>
                  </g>
                </g>
              </g>
              <g id="Grupo_144146" data-name="Grupo 144146" transform="translate(18.267 48.11)" opacity="0.1">
                <g id="Grupo_144145" data-name="Grupo 144145">
                  <g id="Grupo_144144" data-name="Grupo 144144" clip-path="url(#clip-path-4)">
                    <path id="Trazado_190594" data-name="Trazado 190594" d="M22.007,29.629H11.25v4.059h2.233a258.131,258.131,0,0,0,0,56.628H11.25v4.059H22.007Z" transform="translate(-11.25 -29.629)" fill="#1d1d1b"/>
                  </g>
                </g>
              </g>
              <g id="Grupo_144149" data-name="Grupo 144149" transform="translate(53.178 48.11)" opacity="0.1">
                <g id="Grupo_144148" data-name="Grupo 144148">
                  <g id="Grupo_144147" data-name="Grupo 144147" clip-path="url(#clip-path-4)">
                    <path id="Trazado_190595" data-name="Trazado 190595" d="M43.507,29.629H32.75v4.059h2.233a258.131,258.131,0,0,0,0,56.628H32.75v4.059H43.507Z" transform="translate(-32.75 -29.629)" fill="#1d1d1b"/>
                  </g>
                </g>
              </g>
              <g id="Grupo_144152" data-name="Grupo 144152" transform="translate(88.089 48.11)" opacity="0.1">
                <g id="Grupo_144151" data-name="Grupo 144151">
                  <g id="Grupo_144150" data-name="Grupo 144150" clip-path="url(#clip-path-4)">
                    <path id="Trazado_190596" data-name="Trazado 190596" d="M65.007,29.629H54.25v4.059h2.233a258.131,258.131,0,0,0,0,56.628H54.25v4.059H65.007Z" transform="translate(-54.25 -29.629)" fill="#1d1d1b"/>
                  </g>
                </g>
              </g>
              <g id="Grupo_144155" data-name="Grupo 144155" transform="translate(0 112.858)" opacity="0.1">
                <g id="Grupo_144154" data-name="Grupo 144154">
                  <g id="Grupo_144153" data-name="Grupo 144153" clip-path="url(#clip-path-7)">
                    <path id="Trazado_190597" data-name="Trazado 190597" d="M63.935,69.5H7.078V75.39h-3.3v5.886H0v5.886H63.935Z" transform="translate(0 -69.504)" fill="#1d1d1b"/>
                  </g>
                </g>
              </g>
            </g>
          </g>
        </g>
      </g>
      <path id="Trazado_191676" data-name="Trazado 191676" d="M1.4,0V-15.641H6.875a7.194,7.194,0,0,1,4.318,1.09,3.728,3.728,0,0,1,1.472,3.2,3.534,3.534,0,0,1-.591,2.025,3.413,3.413,0,0,1-1.644,1.284,3.3,3.3,0,0,1,1.9,1.214A3.589,3.589,0,0,1,13.02-4.6,4.128,4.128,0,0,1,11.58-1.182,6.48,6.48,0,0,1,7.477,0ZM4.619-6.811v4.222H7.38a2.664,2.664,0,0,0,1.778-.542A1.86,1.86,0,0,0,9.8-4.63,1.964,1.964,0,0,0,7.573-6.811Zm0-2.277H7q2.438-.043,2.438-1.944a1.8,1.8,0,0,0-.618-1.531,3.249,3.249,0,0,0-1.95-.467H4.619ZM24.267-3.223h-5.65L17.542,0H14.115l5.822-15.641h2.986L28.778,0H25.352Zm-4.78-2.61H23.4l-1.966-5.854ZM42.958,0H39.735L33.462-10.291V0H30.239V-15.641h3.223L39.746-5.328V-15.641h3.212ZM58.051-5.21a5.535,5.535,0,0,1-1.864,3.975A6.546,6.546,0,0,1,51.756.215,5.886,5.886,0,0,1,47.024-1.81,8.3,8.3,0,0,1,45.3-7.369v-.956a9.376,9.376,0,0,1,.795-3.975,5.957,5.957,0,0,1,2.272-2.637,6.364,6.364,0,0,1,3.432-.918,6.376,6.376,0,0,1,4.361,1.45,5.948,5.948,0,0,1,1.912,4.071H54.85a3.266,3.266,0,0,0-.843-2.2,3.123,3.123,0,0,0-2.208-.682,2.738,2.738,0,0,0-2.412,1.155,6.472,6.472,0,0,0-.822,3.583v1.182a6.927,6.927,0,0,0,.768,3.706,2.687,2.687,0,0,0,2.422,1.171A3.182,3.182,0,0,0,53.985-3.1a3.081,3.081,0,0,0,.843-2.111ZM73.015-7.466a9.442,9.442,0,0,1-.816,4.05A6.148,6.148,0,0,1,69.862-.73a6.463,6.463,0,0,1-3.486.945,6.507,6.507,0,0,1-3.47-.935,6.209,6.209,0,0,1-2.363-2.669,9.172,9.172,0,0,1-.849-3.991v-.773a9.392,9.392,0,0,1,.833-4.066,6.2,6.2,0,0,1,2.353-2.7,6.471,6.471,0,0,1,3.475-.94,6.471,6.471,0,0,1,3.475.94,6.2,6.2,0,0,1,2.353,2.7,9.366,9.366,0,0,1,.833,4.055Zm-3.266-.709a6.582,6.582,0,0,0-.881-3.738,2.871,2.871,0,0,0-2.514-1.278,2.872,2.872,0,0,0-2.5,1.262,6.507,6.507,0,0,0-.892,3.7v.763a6.664,6.664,0,0,0,.881,3.717,2.863,2.863,0,0,0,2.535,1.321A2.837,2.837,0,0,0,68.868-3.7a6.626,6.626,0,0,0,.881-3.711Z" transform="translate(448 2567)" fill="#12263f"/>
      <g id="Grupo_144166" data-name="Grupo 144166" transform="translate(241 2538.613)">
        <g id="Grupo_144165" data-name="Grupo 144165" clip-path="url(#clip-path-8)">
          <path id="Trazado_190598" data-name="Trazado 190598" d="M.192,4.722,0,40.33H88.955L88.763,4.722Z" transform="translate(0 1.443)" fill="#8a947e"/>
          <path id="Trazado_190599" data-name="Trazado 190599" d="M90.392,2.056H1.821L1.631,37.665H90.584Z" transform="translate(0.498 0.628)" fill="#9da88f"/>
          <path id="Trazado_190600" data-name="Trazado 190600" d="M4.056,0,3.864,35.609H92.819L92.627,0Z" transform="translate(1.181 0)" fill="#edf5d0"/>
          <path id="Trazado_190601" data-name="Trazado 190601" d="M88.1,30.842H6.791l.138-27.9H87.967ZM8.318,29.295H86.577L86.46,4.479H8.436Z" transform="translate(2.075 0.899)" fill="#9da88f"/>
          <g id="Grupo_144164" data-name="Grupo 144164" transform="translate(0 0)">
            <g id="Grupo_144163" data-name="Grupo 144163" clip-path="url(#clip-path-8)">
              <path id="Trazado_190602" data-name="Trazado 190602" d="M40.192,3.687c-5.318,0-9.643,5.938-9.651,13.24-.005,4.768,1.828,8.953,4.575,11.3a7.5,7.5,0,0,0,10.151,0c2.748-2.35,4.581-6.536,4.575-11.3-.008-7.3-4.332-13.24-9.649-13.24m3.752,23.646a5.958,5.958,0,0,1-7.506,0c-2.611-1.948-4.384-5.885-4.38-10.407.007-6.456,3.648-11.7,8.134-11.7s8.126,5.246,8.132,11.7c.005,4.521-1.769,8.459-4.38,10.407" transform="translate(9.332 1.127)" fill="#9da88f"/>
              <path id="Trazado_190603" data-name="Trazado 190603" d="M61.612,14.38a3.414,3.414,0,1,1-3.424-3.468,3.429,3.429,0,0,1,3.424,3.468" transform="translate(16.739 3.334)" fill="#9da88f"/>
              <path id="Trazado_190604" data-name="Trazado 190604" d="M22.132,10.342A2.845,2.845,0,1,1,19.3,7.391a2.889,2.889,0,0,1,2.834,2.951" transform="translate(5.025 2.258)" fill="#9da88f"/>
              <path id="Trazado_190605" data-name="Trazado 190605" d="M28.908,14.7H12.216l.007-1.542H28.911Z" transform="translate(3.732 4.02)" fill="#9da88f"/>
              <path id="Trazado_190606" data-name="Trazado 190606" d="M26.68,17.055H13.587l.007-1.543H26.684Z" transform="translate(4.152 4.74)" fill="#9da88f"/>
              <path id="Trazado_190607" data-name="Trazado 190607" d="M24.919,19.312H14.67l.005-1.544H24.923Z" transform="translate(4.482 5.429)" fill="#9da88f"/>
              <path id="Trazado_190608" data-name="Trazado 190608" d="M44.92,14.995c-.016-.016-.016-.016-.03-.016v-.016a19.511,19.511,0,0,0,.073-4.406,3.966,3.966,0,0,0-1.5-2.31,4.529,4.529,0,0,0-2.031-.693,12.893,12.893,0,0,0-4.154,0,4.529,4.529,0,0,0-2.031.693,3.966,3.966,0,0,0-1.5,2.31,19.588,19.588,0,0,0,.073,4.406v.016c-.014,0-.014,0-.03.016-.394.077-.607.849-.441,1.712s.606,1.48,1,1.419a7.446,7.446,0,0,0,.787,3.009c.44.68.8,1.205,1.123,1.637v2.674L35.6,26.2l-.487.556H35.1l-.821.339a7.492,7.492,0,0,0,10.149,0l-.82-.339h-.016L43.1,26.2l-.653-.757V22.772c.317-.432.681-.957,1.121-1.637a7.444,7.444,0,0,0,.789-3.009c.394.061.849-.555,1-1.419s-.047-1.635-.441-1.712" transform="translate(10.17 2.257)" fill="#9da88f"/>
              <g id="Grupo_144162" data-name="Grupo 144162" opacity="0.1">
                <g id="Grupo_144161" data-name="Grupo 144161">
                  <g id="Grupo_144160" data-name="Grupo 144160" clip-path="url(#clip-path-10)">
                    <path id="Trazado_190609" data-name="Trazado 190609" d="M5.238,0,5.223,2.684H2.32L2.3,6.165H.192L0,41.774H47.274V0Z" transform="translate(0 0)" fill="#1d1d1b"/>
                  </g>
                </g>
              </g>
            </g>
          </g>
        </g>
      </g>
      <g id="Grupo_144167" data-name="Grupo 144167" transform="translate(627 2538.613)">
        <g id="Grupo_144165-2" data-name="Grupo 144165" clip-path="url(#clip-path-8)">
          <path id="Trazado_190598-2" data-name="Trazado 190598" d="M.192,4.722,0,40.33H88.955L88.763,4.722Z" transform="translate(0 1.443)" fill="#8a947e"/>
          <path id="Trazado_190599-2" data-name="Trazado 190599" d="M90.392,2.056H1.821L1.631,37.665H90.584Z" transform="translate(0.498 0.628)" fill="#9da88f"/>
          <path id="Trazado_190600-2" data-name="Trazado 190600" d="M4.056,0,3.864,35.609H92.819L92.627,0Z" transform="translate(1.181 0)" fill="#edf5d0"/>
          <path id="Trazado_190601-2" data-name="Trazado 190601" d="M88.1,30.842H6.791l.138-27.9H87.967ZM8.318,29.295H86.577L86.46,4.479H8.436Z" transform="translate(2.075 0.899)" fill="#9da88f"/>
          <g id="Grupo_144164-2" data-name="Grupo 144164" transform="translate(0 0)">
            <g id="Grupo_144163-2" data-name="Grupo 144163" clip-path="url(#clip-path-8)">
              <path id="Trazado_190602-2" data-name="Trazado 190602" d="M40.192,3.687c-5.318,0-9.643,5.938-9.651,13.24-.005,4.768,1.828,8.953,4.575,11.3a7.5,7.5,0,0,0,10.151,0c2.748-2.35,4.581-6.536,4.575-11.3-.008-7.3-4.332-13.24-9.649-13.24m3.752,23.646a5.958,5.958,0,0,1-7.506,0c-2.611-1.948-4.384-5.885-4.38-10.407.007-6.456,3.648-11.7,8.134-11.7s8.126,5.246,8.132,11.7c.005,4.521-1.769,8.459-4.38,10.407" transform="translate(9.332 1.127)" fill="#9da88f"/>
              <path id="Trazado_190603-2" data-name="Trazado 190603" d="M61.612,14.38a3.414,3.414,0,1,1-3.424-3.468,3.429,3.429,0,0,1,3.424,3.468" transform="translate(16.739 3.334)" fill="#9da88f"/>
              <path id="Trazado_190604-2" data-name="Trazado 190604" d="M22.132,10.342A2.845,2.845,0,1,1,19.3,7.391a2.889,2.889,0,0,1,2.834,2.951" transform="translate(5.025 2.258)" fill="#9da88f"/>
              <path id="Trazado_190605-2" data-name="Trazado 190605" d="M28.908,14.7H12.216l.007-1.542H28.911Z" transform="translate(3.732 4.02)" fill="#9da88f"/>
              <path id="Trazado_190606-2" data-name="Trazado 190606" d="M26.68,17.055H13.587l.007-1.543H26.684Z" transform="translate(4.152 4.74)" fill="#9da88f"/>
              <path id="Trazado_190607-2" data-name="Trazado 190607" d="M24.919,19.312H14.67l.005-1.544H24.923Z" transform="translate(4.482 5.429)" fill="#9da88f"/>
              <path id="Trazado_190608-2" data-name="Trazado 190608" d="M44.92,14.995c-.016-.016-.016-.016-.03-.016v-.016a19.511,19.511,0,0,0,.073-4.406,3.966,3.966,0,0,0-1.5-2.31,4.529,4.529,0,0,0-2.031-.693,12.893,12.893,0,0,0-4.154,0,4.529,4.529,0,0,0-2.031.693,3.966,3.966,0,0,0-1.5,2.31,19.588,19.588,0,0,0,.073,4.406v.016c-.014,0-.014,0-.03.016-.394.077-.607.849-.441,1.712s.606,1.48,1,1.419a7.446,7.446,0,0,0,.787,3.009c.44.68.8,1.205,1.123,1.637v2.674L35.6,26.2l-.487.556H35.1l-.821.339a7.492,7.492,0,0,0,10.149,0l-.82-.339h-.016L43.1,26.2l-.653-.757V22.772c.317-.432.681-.957,1.121-1.637a7.444,7.444,0,0,0,.789-3.009c.394.061.849-.555,1-1.419s-.047-1.635-.441-1.712" transform="translate(10.17 2.257)" fill="#9da88f"/>
              <g id="Grupo_144162-2" data-name="Grupo 144162" opacity="0.1">
                <g id="Grupo_144161-2" data-name="Grupo 144161">
                  <g id="Grupo_144160-2" data-name="Grupo 144160" clip-path="url(#clip-path-10)">
                    <path id="Trazado_190609-2" data-name="Trazado 190609" d="M5.238,0,5.223,2.684H2.32L2.3,6.165H.192L0,41.774H47.274V0Z" transform="translate(0 0)" fill="#1d1d1b"/>
                  </g>
                </g>
              </g>
            </g>
          </g>
        </g>
      </g>
      <g id="Grupo_144168" data-name="Grupo 144168" transform="translate(437 2396.613)">
        <g id="Grupo_144165-3" data-name="Grupo 144165" clip-path="url(#clip-path-8)">
          <path id="Trazado_190598-3" data-name="Trazado 190598" d="M.192,4.722,0,40.33H88.955L88.763,4.722Z" transform="translate(0 1.443)" fill="#8a947e"/>
          <path id="Trazado_190599-3" data-name="Trazado 190599" d="M90.392,2.056H1.821L1.631,37.665H90.584Z" transform="translate(0.498 0.628)" fill="#9da88f"/>
          <path id="Trazado_190600-3" data-name="Trazado 190600" d="M4.056,0,3.864,35.609H92.819L92.627,0Z" transform="translate(1.181 0)" fill="#edf5d0"/>
          <path id="Trazado_190601-3" data-name="Trazado 190601" d="M88.1,30.842H6.791l.138-27.9H87.967ZM8.318,29.295H86.577L86.46,4.479H8.436Z" transform="translate(2.075 0.899)" fill="#9da88f"/>
          <g id="Grupo_144164-3" data-name="Grupo 144164" transform="translate(0 0)">
            <g id="Grupo_144163-3" data-name="Grupo 144163" clip-path="url(#clip-path-8)">
              <path id="Trazado_190602-3" data-name="Trazado 190602" d="M40.192,3.687c-5.318,0-9.643,5.938-9.651,13.24-.005,4.768,1.828,8.953,4.575,11.3a7.5,7.5,0,0,0,10.151,0c2.748-2.35,4.581-6.536,4.575-11.3-.008-7.3-4.332-13.24-9.649-13.24m3.752,23.646a5.958,5.958,0,0,1-7.506,0c-2.611-1.948-4.384-5.885-4.38-10.407.007-6.456,3.648-11.7,8.134-11.7s8.126,5.246,8.132,11.7c.005,4.521-1.769,8.459-4.38,10.407" transform="translate(9.332 1.127)" fill="#9da88f"/>
              <path id="Trazado_190603-3" data-name="Trazado 190603" d="M61.612,14.38a3.414,3.414,0,1,1-3.424-3.468,3.429,3.429,0,0,1,3.424,3.468" transform="translate(16.739 3.334)" fill="#9da88f"/>
              <path id="Trazado_190604-3" data-name="Trazado 190604" d="M22.132,10.342A2.845,2.845,0,1,1,19.3,7.391a2.889,2.889,0,0,1,2.834,2.951" transform="translate(5.025 2.258)" fill="#9da88f"/>
              <path id="Trazado_190605-3" data-name="Trazado 190605" d="M28.908,14.7H12.216l.007-1.542H28.911Z" transform="translate(3.732 4.02)" fill="#9da88f"/>
              <path id="Trazado_190606-3" data-name="Trazado 190606" d="M26.68,17.055H13.587l.007-1.543H26.684Z" transform="translate(4.152 4.74)" fill="#9da88f"/>
              <path id="Trazado_190607-3" data-name="Trazado 190607" d="M24.919,19.312H14.67l.005-1.544H24.923Z" transform="translate(4.482 5.429)" fill="#9da88f"/>
              <path id="Trazado_190608-3" data-name="Trazado 190608" d="M44.92,14.995c-.016-.016-.016-.016-.03-.016v-.016a19.511,19.511,0,0,0,.073-4.406,3.966,3.966,0,0,0-1.5-2.31,4.529,4.529,0,0,0-2.031-.693,12.893,12.893,0,0,0-4.154,0,4.529,4.529,0,0,0-2.031.693,3.966,3.966,0,0,0-1.5,2.31,19.588,19.588,0,0,0,.073,4.406v.016c-.014,0-.014,0-.03.016-.394.077-.607.849-.441,1.712s.606,1.48,1,1.419a7.446,7.446,0,0,0,.787,3.009c.44.68.8,1.205,1.123,1.637v2.674L35.6,26.2l-.487.556H35.1l-.821.339a7.492,7.492,0,0,0,10.149,0l-.82-.339h-.016L43.1,26.2l-.653-.757V22.772c.317-.432.681-.957,1.121-1.637a7.444,7.444,0,0,0,.789-3.009c.394.061.849-.555,1-1.419s-.047-1.635-.441-1.712" transform="translate(10.17 2.257)" fill="#9da88f"/>
              <g id="Grupo_144162-3" data-name="Grupo 144162" opacity="0.1">
                <g id="Grupo_144161-3" data-name="Grupo 144161">
                  <g id="Grupo_144160-3" data-name="Grupo 144160" clip-path="url(#clip-path-10)">
                    <path id="Trazado_190609-3" data-name="Trazado 190609" d="M5.238,0,5.223,2.684H2.32L2.3,6.165H.192L0,41.774H47.274V0Z" transform="translate(0 0)" fill="#1d1d1b"/>
                  </g>
                </g>
              </g>
            </g>
          </g>
        </g>
      </g>
      <g id="Grupo_144169" data-name="Grupo 144169" transform="translate(437 2676.227)">
        <g id="Grupo_144165-4" data-name="Grupo 144165" clip-path="url(#clip-path-8)">
          <path id="Trazado_190598-4" data-name="Trazado 190598" d="M.192,4.722,0,40.33H88.955L88.763,4.722Z" transform="translate(0 1.443)" fill="#8a947e"/>
          <path id="Trazado_190599-4" data-name="Trazado 190599" d="M90.392,2.056H1.821L1.631,37.665H90.584Z" transform="translate(0.498 0.628)" fill="#9da88f"/>
          <path id="Trazado_190600-4" data-name="Trazado 190600" d="M4.056,0,3.864,35.609H92.819L92.627,0Z" transform="translate(1.181 0)" fill="#edf5d0"/>
          <path id="Trazado_190601-4" data-name="Trazado 190601" d="M88.1,30.842H6.791l.138-27.9H87.967ZM8.318,29.295H86.577L86.46,4.479H8.436Z" transform="translate(2.075 0.899)" fill="#9da88f"/>
          <g id="Grupo_144164-4" data-name="Grupo 144164" transform="translate(0 0)">
            <g id="Grupo_144163-4" data-name="Grupo 144163" clip-path="url(#clip-path-8)">
              <path id="Trazado_190602-4" data-name="Trazado 190602" d="M40.192,3.687c-5.318,0-9.643,5.938-9.651,13.24-.005,4.768,1.828,8.953,4.575,11.3a7.5,7.5,0,0,0,10.151,0c2.748-2.35,4.581-6.536,4.575-11.3-.008-7.3-4.332-13.24-9.649-13.24m3.752,23.646a5.958,5.958,0,0,1-7.506,0c-2.611-1.948-4.384-5.885-4.38-10.407.007-6.456,3.648-11.7,8.134-11.7s8.126,5.246,8.132,11.7c.005,4.521-1.769,8.459-4.38,10.407" transform="translate(9.332 1.127)" fill="#9da88f"/>
              <path id="Trazado_190603-4" data-name="Trazado 190603" d="M61.612,14.38a3.414,3.414,0,1,1-3.424-3.468,3.429,3.429,0,0,1,3.424,3.468" transform="translate(16.739 3.334)" fill="#9da88f"/>
              <path id="Trazado_190604-4" data-name="Trazado 190604" d="M22.132,10.342A2.845,2.845,0,1,1,19.3,7.391a2.889,2.889,0,0,1,2.834,2.951" transform="translate(5.025 2.258)" fill="#9da88f"/>
              <path id="Trazado_190605-4" data-name="Trazado 190605" d="M28.908,14.7H12.216l.007-1.542H28.911Z" transform="translate(3.732 4.02)" fill="#9da88f"/>
              <path id="Trazado_190606-4" data-name="Trazado 190606" d="M26.68,17.055H13.587l.007-1.543H26.684Z" transform="translate(4.152 4.74)" fill="#9da88f"/>
              <path id="Trazado_190607-4" data-name="Trazado 190607" d="M24.919,19.312H14.67l.005-1.544H24.923Z" transform="translate(4.482 5.429)" fill="#9da88f"/>
              <path id="Trazado_190608-4" data-name="Trazado 190608" d="M44.92,14.995c-.016-.016-.016-.016-.03-.016v-.016a19.511,19.511,0,0,0,.073-4.406,3.966,3.966,0,0,0-1.5-2.31,4.529,4.529,0,0,0-2.031-.693,12.893,12.893,0,0,0-4.154,0,4.529,4.529,0,0,0-2.031.693,3.966,3.966,0,0,0-1.5,2.31,19.588,19.588,0,0,0,.073,4.406v.016c-.014,0-.014,0-.03.016-.394.077-.607.849-.441,1.712s.606,1.48,1,1.419a7.446,7.446,0,0,0,.787,3.009c.44.68.8,1.205,1.123,1.637v2.674L35.6,26.2l-.487.556H35.1l-.821.339a7.492,7.492,0,0,0,10.149,0l-.82-.339h-.016L43.1,26.2l-.653-.757V22.772c.317-.432.681-.957,1.121-1.637a7.444,7.444,0,0,0,.789-3.009c.394.061.849-.555,1-1.419s-.047-1.635-.441-1.712" transform="translate(10.17 2.257)" fill="#9da88f"/>
              <g id="Grupo_144162-4" data-name="Grupo 144162" opacity="0.1">
                <g id="Grupo_144161-4" data-name="Grupo 144161">
                  <g id="Grupo_144160-4" data-name="Grupo 144160" clip-path="url(#clip-path-10)">
                    <path id="Trazado_190609-4" data-name="Trazado 190609" d="M5.238,0,5.223,2.684H2.32L2.3,6.165H.192L0,41.774H47.274V0Z" transform="translate(0 0)" fill="#1d1d1b"/>
                  </g>
                </g>
              </g>
            </g>
          </g>
        </g>
      </g>
      <path id="Trazado_191681" data-name="Trazado 191681" d="M9.18-10.141H5.523V0H4.031V-10.141H.383v-1.234h8.8Zm4.961,2.984a4.331,4.331,0,0,0-.711-.055A1.9,1.9,0,0,0,11.5-6V0H10.055V-8.453h1.406l.023.977A2.251,2.251,0,0,1,13.5-8.609a1.477,1.477,0,0,1,.641.109ZM20.375,0a3.036,3.036,0,0,1-.2-.891A3.225,3.225,0,0,1,17.766.156a2.984,2.984,0,0,1-2.051-.707,2.287,2.287,0,0,1-.8-1.793,2.39,2.39,0,0,1,1-2.051,4.733,4.733,0,0,1,2.824-.73h1.406v-.664A1.623,1.623,0,0,0,19.7-7a1.821,1.821,0,0,0-1.336-.449,2.108,2.108,0,0,0-1.3.391,1.151,1.151,0,0,0-.523.945H15.086a2,2,0,0,1,.449-1.223,3.066,3.066,0,0,1,1.219-.934,4.1,4.1,0,0,1,1.691-.344,3.342,3.342,0,0,1,2.289.73,2.635,2.635,0,0,1,.859,2.012v3.891a4.757,4.757,0,0,0,.3,1.852V0Zm-2.4-1.1a2.54,2.54,0,0,0,1.289-.352,2.127,2.127,0,0,0,.883-.914V-4.1H19.016q-2.656,0-2.656,1.555a1.316,1.316,0,0,0,.453,1.063A1.742,1.742,0,0,0,17.977-1.1Zm7.25-7.352.047,1.063A3.08,3.08,0,0,1,27.8-8.609q2.68,0,2.7,3.023V0H29.063V-5.594a1.946,1.946,0,0,0-.418-1.352,1.675,1.675,0,0,0-1.277-.437,2.086,2.086,0,0,0-1.234.375,2.546,2.546,0,0,0-.828.984V0H23.859V-8.453ZM37.609-2.242a1.064,1.064,0,0,0-.441-.91,4.249,4.249,0,0,0-1.539-.559,7.277,7.277,0,0,1-1.742-.562,2.479,2.479,0,0,1-.953-.781,1.869,1.869,0,0,1-.309-1.078A2.193,2.193,0,0,1,33.5-7.891a3.432,3.432,0,0,1,2.246-.719,3.532,3.532,0,0,1,2.332.742,2.357,2.357,0,0,1,.895,1.9H37.523a1.3,1.3,0,0,0-.5-1.023,1.888,1.888,0,0,0-1.27-.43,1.976,1.976,0,0,0-1.234.344,1.082,1.082,0,0,0-.445.9.877.877,0,0,0,.414.789,5.1,5.1,0,0,0,1.5.508,7.8,7.8,0,0,1,1.754.578,2.558,2.558,0,0,1,1,.809,1.988,1.988,0,0,1,.324,1.152,2.163,2.163,0,0,1-.906,1.816A3.8,3.8,0,0,1,35.8.156,4.257,4.257,0,0,1,34-.2a2.922,2.922,0,0,1-1.223-1A2.42,2.42,0,0,1,32.336-2.6h1.445a1.5,1.5,0,0,0,.582,1.152,2.258,2.258,0,0,0,1.434.426,2.331,2.331,0,0,0,1.316-.332A1.02,1.02,0,0,0,37.609-2.242ZM46.156,0a3.036,3.036,0,0,1-.2-.891A3.225,3.225,0,0,1,43.547.156,2.984,2.984,0,0,1,41.5-.551a2.287,2.287,0,0,1-.8-1.793,2.39,2.39,0,0,1,1-2.051,4.733,4.733,0,0,1,2.824-.73H45.93v-.664A1.623,1.623,0,0,0,45.477-7a1.821,1.821,0,0,0-1.336-.449,2.107,2.107,0,0,0-1.3.391,1.151,1.151,0,0,0-.523.945H40.867a2,2,0,0,1,.449-1.223,3.066,3.066,0,0,1,1.219-.934,4.1,4.1,0,0,1,1.691-.344,3.342,3.342,0,0,1,2.289.73,2.635,2.635,0,0,1,.859,2.012v3.891a4.757,4.757,0,0,0,.3,1.852V0Zm-2.4-1.1a2.54,2.54,0,0,0,1.289-.352,2.127,2.127,0,0,0,.883-.914V-4.1H44.8q-2.656,0-2.656,1.555a1.316,1.316,0,0,0,.453,1.063A1.742,1.742,0,0,0,43.758-1.1Zm9.273.078a2.082,2.082,0,0,0,1.352-.469,1.649,1.649,0,0,0,.641-1.172h1.367a2.621,2.621,0,0,1-.5,1.383A3.293,3.293,0,0,1,54.66-.234a3.55,3.55,0,0,1-1.629.391A3.482,3.482,0,0,1,50.285-1a4.59,4.59,0,0,1-1.02-3.152v-.242a5.089,5.089,0,0,1,.453-2.2,3.451,3.451,0,0,1,1.3-1.492,3.7,3.7,0,0,1,2-.531,3.39,3.39,0,0,1,2.363.852,3.043,3.043,0,0,1,1,2.211H55.023A1.992,1.992,0,0,0,54.4-6.895a1.932,1.932,0,0,0-1.379-.527,2.023,2.023,0,0,0-1.707.793,3.724,3.724,0,0,0-.605,2.293v.273a3.65,3.65,0,0,0,.6,2.25A2.033,2.033,0,0,0,53.031-1.023Zm8.375,0a2.082,2.082,0,0,0,1.352-.469A1.649,1.649,0,0,0,63.4-2.664h1.367a2.621,2.621,0,0,1-.5,1.383,3.293,3.293,0,0,1-1.23,1.047,3.55,3.55,0,0,1-1.629.391A3.482,3.482,0,0,1,58.66-1a4.59,4.59,0,0,1-1.02-3.152v-.242a5.089,5.089,0,0,1,.453-2.2,3.451,3.451,0,0,1,1.3-1.492,3.7,3.7,0,0,1,2-.531,3.39,3.39,0,0,1,2.363.852,3.043,3.043,0,0,1,1,2.211H63.4a1.992,1.992,0,0,0-.621-1.348A1.932,1.932,0,0,0,61.4-7.422a2.023,2.023,0,0,0-1.707.793,3.724,3.724,0,0,0-.605,2.293v.273a3.65,3.65,0,0,0,.6,2.25A2.033,2.033,0,0,0,61.406-1.023ZM67.961,0H66.516V-8.453h1.445ZM66.4-10.7a.863.863,0,0,1,.215-.594.807.807,0,0,1,.637-.242.819.819,0,0,1,.641.242.854.854,0,0,1,.219.594.826.826,0,0,1-.219.586.834.834,0,0,1-.641.234.821.821,0,0,1-.637-.234A.834.834,0,0,1,66.4-10.7ZM69.891-4.3a4.993,4.993,0,0,1,.488-2.234A3.643,3.643,0,0,1,71.738-8.07a3.7,3.7,0,0,1,1.988-.539,3.565,3.565,0,0,1,2.793,1.2,4.6,4.6,0,0,1,1.066,3.18v.1a5.036,5.036,0,0,1-.473,2.215A3.589,3.589,0,0,1,75.762-.391a3.743,3.743,0,0,1-2.02.547,3.556,3.556,0,0,1-2.785-1.2A4.575,4.575,0,0,1,69.891-4.2Zm1.453.172A3.616,3.616,0,0,0,72-1.875a2.088,2.088,0,0,0,1.746.852,2.075,2.075,0,0,0,1.75-.863A3.955,3.955,0,0,0,76.141-4.3a3.61,3.61,0,0,0-.66-2.254,2.1,2.1,0,0,0-1.754-.863A2.075,2.075,0,0,0,72-6.57,3.925,3.925,0,0,0,71.344-4.133ZM74.383-12h1.75L74.039-9.7H72.875Zm6.383,3.547.047,1.063a3.08,3.08,0,0,1,2.531-1.219q2.68,0,2.7,3.023V0H84.6V-5.594a1.946,1.946,0,0,0-.418-1.352,1.675,1.675,0,0,0-1.277-.437,2.086,2.086,0,0,0-1.234.375,2.546,2.546,0,0,0-.828.984V0H79.4V-8.453Z" transform="translate(437 2739)" fill="#12263f"/>
      <path id="Trazado_191680" data-name="Trazado 191680" d="M9.18-10.141H5.523V0H4.031V-10.141H.383v-1.234h8.8Zm4.961,2.984a4.331,4.331,0,0,0-.711-.055A1.9,1.9,0,0,0,11.5-6V0H10.055V-8.453h1.406l.023.977A2.251,2.251,0,0,1,13.5-8.609a1.477,1.477,0,0,1,.641.109ZM20.375,0a3.036,3.036,0,0,1-.2-.891A3.225,3.225,0,0,1,17.766.156a2.984,2.984,0,0,1-2.051-.707,2.287,2.287,0,0,1-.8-1.793,2.39,2.39,0,0,1,1-2.051,4.733,4.733,0,0,1,2.824-.73h1.406v-.664A1.623,1.623,0,0,0,19.7-7a1.821,1.821,0,0,0-1.336-.449,2.108,2.108,0,0,0-1.3.391,1.151,1.151,0,0,0-.523.945H15.086a2,2,0,0,1,.449-1.223,3.066,3.066,0,0,1,1.219-.934,4.1,4.1,0,0,1,1.691-.344,3.342,3.342,0,0,1,2.289.73,2.635,2.635,0,0,1,.859,2.012v3.891a4.757,4.757,0,0,0,.3,1.852V0Zm-2.4-1.1a2.54,2.54,0,0,0,1.289-.352,2.127,2.127,0,0,0,.883-.914V-4.1H19.016q-2.656,0-2.656,1.555a1.316,1.316,0,0,0,.453,1.063A1.742,1.742,0,0,0,17.977-1.1Zm7.25-7.352.047,1.063A3.08,3.08,0,0,1,27.8-8.609q2.68,0,2.7,3.023V0H29.063V-5.594a1.946,1.946,0,0,0-.418-1.352,1.675,1.675,0,0,0-1.277-.437,2.086,2.086,0,0,0-1.234.375,2.546,2.546,0,0,0-.828.984V0H23.859V-8.453ZM37.609-2.242a1.064,1.064,0,0,0-.441-.91,4.249,4.249,0,0,0-1.539-.559,7.277,7.277,0,0,1-1.742-.562,2.479,2.479,0,0,1-.953-.781,1.869,1.869,0,0,1-.309-1.078A2.193,2.193,0,0,1,33.5-7.891a3.432,3.432,0,0,1,2.246-.719,3.532,3.532,0,0,1,2.332.742,2.357,2.357,0,0,1,.895,1.9H37.523a1.3,1.3,0,0,0-.5-1.023,1.888,1.888,0,0,0-1.27-.43,1.976,1.976,0,0,0-1.234.344,1.082,1.082,0,0,0-.445.9.877.877,0,0,0,.414.789,5.1,5.1,0,0,0,1.5.508,7.8,7.8,0,0,1,1.754.578,2.558,2.558,0,0,1,1,.809,1.988,1.988,0,0,1,.324,1.152,2.163,2.163,0,0,1-.906,1.816A3.8,3.8,0,0,1,35.8.156,4.257,4.257,0,0,1,34-.2a2.922,2.922,0,0,1-1.223-1A2.42,2.42,0,0,1,32.336-2.6h1.445a1.5,1.5,0,0,0,.582,1.152,2.258,2.258,0,0,0,1.434.426,2.331,2.331,0,0,0,1.316-.332A1.02,1.02,0,0,0,37.609-2.242ZM46.156,0a3.036,3.036,0,0,1-.2-.891A3.225,3.225,0,0,1,43.547.156,2.984,2.984,0,0,1,41.5-.551a2.287,2.287,0,0,1-.8-1.793,2.39,2.39,0,0,1,1-2.051,4.733,4.733,0,0,1,2.824-.73H45.93v-.664A1.623,1.623,0,0,0,45.477-7a1.821,1.821,0,0,0-1.336-.449,2.107,2.107,0,0,0-1.3.391,1.151,1.151,0,0,0-.523.945H40.867a2,2,0,0,1,.449-1.223,3.066,3.066,0,0,1,1.219-.934,4.1,4.1,0,0,1,1.691-.344,3.342,3.342,0,0,1,2.289.73,2.635,2.635,0,0,1,.859,2.012v3.891a4.757,4.757,0,0,0,.3,1.852V0Zm-2.4-1.1a2.54,2.54,0,0,0,1.289-.352,2.127,2.127,0,0,0,.883-.914V-4.1H44.8q-2.656,0-2.656,1.555a1.316,1.316,0,0,0,.453,1.063A1.742,1.742,0,0,0,43.758-1.1Zm9.273.078a2.082,2.082,0,0,0,1.352-.469,1.649,1.649,0,0,0,.641-1.172h1.367a2.621,2.621,0,0,1-.5,1.383A3.293,3.293,0,0,1,54.66-.234a3.55,3.55,0,0,1-1.629.391A3.482,3.482,0,0,1,50.285-1a4.59,4.59,0,0,1-1.02-3.152v-.242a5.089,5.089,0,0,1,.453-2.2,3.451,3.451,0,0,1,1.3-1.492,3.7,3.7,0,0,1,2-.531,3.39,3.39,0,0,1,2.363.852,3.043,3.043,0,0,1,1,2.211H55.023A1.992,1.992,0,0,0,54.4-6.895a1.932,1.932,0,0,0-1.379-.527,2.023,2.023,0,0,0-1.707.793,3.724,3.724,0,0,0-.605,2.293v.273a3.65,3.65,0,0,0,.6,2.25A2.033,2.033,0,0,0,53.031-1.023Zm8.375,0a2.082,2.082,0,0,0,1.352-.469A1.649,1.649,0,0,0,63.4-2.664h1.367a2.621,2.621,0,0,1-.5,1.383,3.293,3.293,0,0,1-1.23,1.047,3.55,3.55,0,0,1-1.629.391A3.482,3.482,0,0,1,58.66-1a4.59,4.59,0,0,1-1.02-3.152v-.242a5.089,5.089,0,0,1,.453-2.2,3.451,3.451,0,0,1,1.3-1.492,3.7,3.7,0,0,1,2-.531,3.39,3.39,0,0,1,2.363.852,3.043,3.043,0,0,1,1,2.211H63.4a1.992,1.992,0,0,0-.621-1.348A1.932,1.932,0,0,0,61.4-7.422a2.023,2.023,0,0,0-1.707.793,3.724,3.724,0,0,0-.605,2.293v.273a3.65,3.65,0,0,0,.6,2.25A2.033,2.033,0,0,0,61.406-1.023ZM67.961,0H66.516V-8.453h1.445ZM66.4-10.7a.863.863,0,0,1,.215-.594.807.807,0,0,1,.637-.242.819.819,0,0,1,.641.242.854.854,0,0,1,.219.594.826.826,0,0,1-.219.586.834.834,0,0,1-.641.234.821.821,0,0,1-.637-.234A.834.834,0,0,1,66.4-10.7ZM69.891-4.3a4.993,4.993,0,0,1,.488-2.234A3.643,3.643,0,0,1,71.738-8.07a3.7,3.7,0,0,1,1.988-.539,3.565,3.565,0,0,1,2.793,1.2,4.6,4.6,0,0,1,1.066,3.18v.1a5.036,5.036,0,0,1-.473,2.215A3.589,3.589,0,0,1,75.762-.391a3.743,3.743,0,0,1-2.02.547,3.556,3.556,0,0,1-2.785-1.2A4.575,4.575,0,0,1,69.891-4.2Zm1.453.172A3.616,3.616,0,0,0,72-1.875a2.088,2.088,0,0,0,1.746.852,2.075,2.075,0,0,0,1.75-.863A3.955,3.955,0,0,0,76.141-4.3a3.61,3.61,0,0,0-.66-2.254,2.1,2.1,0,0,0-1.754-.863A2.075,2.075,0,0,0,72-6.57,3.925,3.925,0,0,0,71.344-4.133ZM74.383-12h1.75L74.039-9.7H72.875Zm6.383,3.547.047,1.063a3.08,3.08,0,0,1,2.531-1.219q2.68,0,2.7,3.023V0H84.6V-5.594a1.946,1.946,0,0,0-.418-1.352,1.675,1.675,0,0,0-1.277-.437,2.086,2.086,0,0,0-1.234.375,2.546,2.546,0,0,0-.828.984V0H79.4V-8.453Z" transform="translate(629 2600)" fill="#12263f"/>
      <path id="Trazado_191678" data-name="Trazado 191678" d="M9.18-10.141H5.523V0H4.031V-10.141H.383v-1.234h8.8Zm4.961,2.984a4.331,4.331,0,0,0-.711-.055A1.9,1.9,0,0,0,11.5-6V0H10.055V-8.453h1.406l.023.977A2.251,2.251,0,0,1,13.5-8.609a1.477,1.477,0,0,1,.641.109ZM20.375,0a3.036,3.036,0,0,1-.2-.891A3.225,3.225,0,0,1,17.766.156a2.984,2.984,0,0,1-2.051-.707,2.287,2.287,0,0,1-.8-1.793,2.39,2.39,0,0,1,1-2.051,4.733,4.733,0,0,1,2.824-.73h1.406v-.664A1.623,1.623,0,0,0,19.7-7a1.821,1.821,0,0,0-1.336-.449,2.108,2.108,0,0,0-1.3.391,1.151,1.151,0,0,0-.523.945H15.086a2,2,0,0,1,.449-1.223,3.066,3.066,0,0,1,1.219-.934,4.1,4.1,0,0,1,1.691-.344,3.342,3.342,0,0,1,2.289.73,2.635,2.635,0,0,1,.859,2.012v3.891a4.757,4.757,0,0,0,.3,1.852V0Zm-2.4-1.1a2.54,2.54,0,0,0,1.289-.352,2.127,2.127,0,0,0,.883-.914V-4.1H19.016q-2.656,0-2.656,1.555a1.316,1.316,0,0,0,.453,1.063A1.742,1.742,0,0,0,17.977-1.1Zm7.25-7.352.047,1.063A3.08,3.08,0,0,1,27.8-8.609q2.68,0,2.7,3.023V0H29.063V-5.594a1.946,1.946,0,0,0-.418-1.352,1.675,1.675,0,0,0-1.277-.437,2.086,2.086,0,0,0-1.234.375,2.546,2.546,0,0,0-.828.984V0H23.859V-8.453ZM37.609-2.242a1.064,1.064,0,0,0-.441-.91,4.249,4.249,0,0,0-1.539-.559,7.277,7.277,0,0,1-1.742-.562,2.479,2.479,0,0,1-.953-.781,1.869,1.869,0,0,1-.309-1.078A2.193,2.193,0,0,1,33.5-7.891a3.432,3.432,0,0,1,2.246-.719,3.532,3.532,0,0,1,2.332.742,2.357,2.357,0,0,1,.895,1.9H37.523a1.3,1.3,0,0,0-.5-1.023,1.888,1.888,0,0,0-1.27-.43,1.976,1.976,0,0,0-1.234.344,1.082,1.082,0,0,0-.445.9.877.877,0,0,0,.414.789,5.1,5.1,0,0,0,1.5.508,7.8,7.8,0,0,1,1.754.578,2.558,2.558,0,0,1,1,.809,1.988,1.988,0,0,1,.324,1.152,2.163,2.163,0,0,1-.906,1.816A3.8,3.8,0,0,1,35.8.156,4.257,4.257,0,0,1,34-.2a2.922,2.922,0,0,1-1.223-1A2.42,2.42,0,0,1,32.336-2.6h1.445a1.5,1.5,0,0,0,.582,1.152,2.258,2.258,0,0,0,1.434.426,2.331,2.331,0,0,0,1.316-.332A1.02,1.02,0,0,0,37.609-2.242ZM46.156,0a3.036,3.036,0,0,1-.2-.891A3.225,3.225,0,0,1,43.547.156,2.984,2.984,0,0,1,41.5-.551a2.287,2.287,0,0,1-.8-1.793,2.39,2.39,0,0,1,1-2.051,4.733,4.733,0,0,1,2.824-.73H45.93v-.664A1.623,1.623,0,0,0,45.477-7a1.821,1.821,0,0,0-1.336-.449,2.107,2.107,0,0,0-1.3.391,1.151,1.151,0,0,0-.523.945H40.867a2,2,0,0,1,.449-1.223,3.066,3.066,0,0,1,1.219-.934,4.1,4.1,0,0,1,1.691-.344,3.342,3.342,0,0,1,2.289.73,2.635,2.635,0,0,1,.859,2.012v3.891a4.757,4.757,0,0,0,.3,1.852V0Zm-2.4-1.1a2.54,2.54,0,0,0,1.289-.352,2.127,2.127,0,0,0,.883-.914V-4.1H44.8q-2.656,0-2.656,1.555a1.316,1.316,0,0,0,.453,1.063A1.742,1.742,0,0,0,43.758-1.1Zm9.273.078a2.082,2.082,0,0,0,1.352-.469,1.649,1.649,0,0,0,.641-1.172h1.367a2.621,2.621,0,0,1-.5,1.383A3.293,3.293,0,0,1,54.66-.234a3.55,3.55,0,0,1-1.629.391A3.482,3.482,0,0,1,50.285-1a4.59,4.59,0,0,1-1.02-3.152v-.242a5.089,5.089,0,0,1,.453-2.2,3.451,3.451,0,0,1,1.3-1.492,3.7,3.7,0,0,1,2-.531,3.39,3.39,0,0,1,2.363.852,3.043,3.043,0,0,1,1,2.211H55.023A1.992,1.992,0,0,0,54.4-6.895a1.932,1.932,0,0,0-1.379-.527,2.023,2.023,0,0,0-1.707.793,3.724,3.724,0,0,0-.605,2.293v.273a3.65,3.65,0,0,0,.6,2.25A2.033,2.033,0,0,0,53.031-1.023Zm8.375,0a2.082,2.082,0,0,0,1.352-.469A1.649,1.649,0,0,0,63.4-2.664h1.367a2.621,2.621,0,0,1-.5,1.383,3.293,3.293,0,0,1-1.23,1.047,3.55,3.55,0,0,1-1.629.391A3.482,3.482,0,0,1,58.66-1a4.59,4.59,0,0,1-1.02-3.152v-.242a5.089,5.089,0,0,1,.453-2.2,3.451,3.451,0,0,1,1.3-1.492,3.7,3.7,0,0,1,2-.531,3.39,3.39,0,0,1,2.363.852,3.043,3.043,0,0,1,1,2.211H63.4a1.992,1.992,0,0,0-.621-1.348A1.932,1.932,0,0,0,61.4-7.422a2.023,2.023,0,0,0-1.707.793,3.724,3.724,0,0,0-.605,2.293v.273a3.65,3.65,0,0,0,.6,2.25A2.033,2.033,0,0,0,61.406-1.023ZM67.961,0H66.516V-8.453h1.445ZM66.4-10.7a.863.863,0,0,1,.215-.594.807.807,0,0,1,.637-.242.819.819,0,0,1,.641.242.854.854,0,0,1,.219.594.826.826,0,0,1-.219.586.834.834,0,0,1-.641.234.821.821,0,0,1-.637-.234A.834.834,0,0,1,66.4-10.7ZM69.891-4.3a4.993,4.993,0,0,1,.488-2.234A3.643,3.643,0,0,1,71.738-8.07a3.7,3.7,0,0,1,1.988-.539,3.565,3.565,0,0,1,2.793,1.2,4.6,4.6,0,0,1,1.066,3.18v.1a5.036,5.036,0,0,1-.473,2.215A3.589,3.589,0,0,1,75.762-.391a3.743,3.743,0,0,1-2.02.547,3.556,3.556,0,0,1-2.785-1.2A4.575,4.575,0,0,1,69.891-4.2Zm1.453.172A3.616,3.616,0,0,0,72-1.875a2.088,2.088,0,0,0,1.746.852,2.075,2.075,0,0,0,1.75-.863A3.955,3.955,0,0,0,76.141-4.3a3.61,3.61,0,0,0-.66-2.254,2.1,2.1,0,0,0-1.754-.863A2.075,2.075,0,0,0,72-6.57,3.925,3.925,0,0,0,71.344-4.133ZM74.383-12h1.75L74.039-9.7H72.875Zm6.383,3.547.047,1.063a3.08,3.08,0,0,1,2.531-1.219q2.68,0,2.7,3.023V0H84.6V-5.594a1.946,1.946,0,0,0-.418-1.352,1.675,1.675,0,0,0-1.277-.437,2.086,2.086,0,0,0-1.234.375,2.546,2.546,0,0,0-.828.984V0H79.4V-8.453Z" transform="translate(242 2600)" fill="#12263f"/>
      <path id="Trazado_191677" data-name="Trazado 191677" d="M9.18-10.141H5.523V0H4.031V-10.141H.383v-1.234h8.8Zm4.961,2.984a4.331,4.331,0,0,0-.711-.055A1.9,1.9,0,0,0,11.5-6V0H10.055V-8.453h1.406l.023.977A2.251,2.251,0,0,1,13.5-8.609a1.477,1.477,0,0,1,.641.109ZM20.375,0a3.036,3.036,0,0,1-.2-.891A3.225,3.225,0,0,1,17.766.156a2.984,2.984,0,0,1-2.051-.707,2.287,2.287,0,0,1-.8-1.793,2.39,2.39,0,0,1,1-2.051,4.733,4.733,0,0,1,2.824-.73h1.406v-.664A1.623,1.623,0,0,0,19.7-7a1.821,1.821,0,0,0-1.336-.449,2.108,2.108,0,0,0-1.3.391,1.151,1.151,0,0,0-.523.945H15.086a2,2,0,0,1,.449-1.223,3.066,3.066,0,0,1,1.219-.934,4.1,4.1,0,0,1,1.691-.344,3.342,3.342,0,0,1,2.289.73,2.635,2.635,0,0,1,.859,2.012v3.891a4.757,4.757,0,0,0,.3,1.852V0Zm-2.4-1.1a2.54,2.54,0,0,0,1.289-.352,2.127,2.127,0,0,0,.883-.914V-4.1H19.016q-2.656,0-2.656,1.555a1.316,1.316,0,0,0,.453,1.063A1.742,1.742,0,0,0,17.977-1.1Zm7.25-7.352.047,1.063A3.08,3.08,0,0,1,27.8-8.609q2.68,0,2.7,3.023V0H29.063V-5.594a1.946,1.946,0,0,0-.418-1.352,1.675,1.675,0,0,0-1.277-.437,2.086,2.086,0,0,0-1.234.375,2.546,2.546,0,0,0-.828.984V0H23.859V-8.453ZM37.609-2.242a1.064,1.064,0,0,0-.441-.91,4.249,4.249,0,0,0-1.539-.559,7.277,7.277,0,0,1-1.742-.562,2.479,2.479,0,0,1-.953-.781,1.869,1.869,0,0,1-.309-1.078A2.193,2.193,0,0,1,33.5-7.891a3.432,3.432,0,0,1,2.246-.719,3.532,3.532,0,0,1,2.332.742,2.357,2.357,0,0,1,.895,1.9H37.523a1.3,1.3,0,0,0-.5-1.023,1.888,1.888,0,0,0-1.27-.43,1.976,1.976,0,0,0-1.234.344,1.082,1.082,0,0,0-.445.9.877.877,0,0,0,.414.789,5.1,5.1,0,0,0,1.5.508,7.8,7.8,0,0,1,1.754.578,2.558,2.558,0,0,1,1,.809,1.988,1.988,0,0,1,.324,1.152,2.163,2.163,0,0,1-.906,1.816A3.8,3.8,0,0,1,35.8.156,4.257,4.257,0,0,1,34-.2a2.922,2.922,0,0,1-1.223-1A2.42,2.42,0,0,1,32.336-2.6h1.445a1.5,1.5,0,0,0,.582,1.152,2.258,2.258,0,0,0,1.434.426,2.331,2.331,0,0,0,1.316-.332A1.02,1.02,0,0,0,37.609-2.242ZM46.156,0a3.036,3.036,0,0,1-.2-.891A3.225,3.225,0,0,1,43.547.156,2.984,2.984,0,0,1,41.5-.551a2.287,2.287,0,0,1-.8-1.793,2.39,2.39,0,0,1,1-2.051,4.733,4.733,0,0,1,2.824-.73H45.93v-.664A1.623,1.623,0,0,0,45.477-7a1.821,1.821,0,0,0-1.336-.449,2.107,2.107,0,0,0-1.3.391,1.151,1.151,0,0,0-.523.945H40.867a2,2,0,0,1,.449-1.223,3.066,3.066,0,0,1,1.219-.934,4.1,4.1,0,0,1,1.691-.344,3.342,3.342,0,0,1,2.289.73,2.635,2.635,0,0,1,.859,2.012v3.891a4.757,4.757,0,0,0,.3,1.852V0Zm-2.4-1.1a2.54,2.54,0,0,0,1.289-.352,2.127,2.127,0,0,0,.883-.914V-4.1H44.8q-2.656,0-2.656,1.555a1.316,1.316,0,0,0,.453,1.063A1.742,1.742,0,0,0,43.758-1.1Zm9.273.078a2.082,2.082,0,0,0,1.352-.469,1.649,1.649,0,0,0,.641-1.172h1.367a2.621,2.621,0,0,1-.5,1.383A3.293,3.293,0,0,1,54.66-.234a3.55,3.55,0,0,1-1.629.391A3.482,3.482,0,0,1,50.285-1a4.59,4.59,0,0,1-1.02-3.152v-.242a5.089,5.089,0,0,1,.453-2.2,3.451,3.451,0,0,1,1.3-1.492,3.7,3.7,0,0,1,2-.531,3.39,3.39,0,0,1,2.363.852,3.043,3.043,0,0,1,1,2.211H55.023A1.992,1.992,0,0,0,54.4-6.895a1.932,1.932,0,0,0-1.379-.527,2.023,2.023,0,0,0-1.707.793,3.724,3.724,0,0,0-.605,2.293v.273a3.65,3.65,0,0,0,.6,2.25A2.033,2.033,0,0,0,53.031-1.023Zm8.375,0a2.082,2.082,0,0,0,1.352-.469A1.649,1.649,0,0,0,63.4-2.664h1.367a2.621,2.621,0,0,1-.5,1.383,3.293,3.293,0,0,1-1.23,1.047,3.55,3.55,0,0,1-1.629.391A3.482,3.482,0,0,1,58.66-1a4.59,4.59,0,0,1-1.02-3.152v-.242a5.089,5.089,0,0,1,.453-2.2,3.451,3.451,0,0,1,1.3-1.492,3.7,3.7,0,0,1,2-.531,3.39,3.39,0,0,1,2.363.852,3.043,3.043,0,0,1,1,2.211H63.4a1.992,1.992,0,0,0-.621-1.348A1.932,1.932,0,0,0,61.4-7.422a2.023,2.023,0,0,0-1.707.793,3.724,3.724,0,0,0-.605,2.293v.273a3.65,3.65,0,0,0,.6,2.25A2.033,2.033,0,0,0,61.406-1.023ZM67.961,0H66.516V-8.453h1.445ZM66.4-10.7a.863.863,0,0,1,.215-.594.807.807,0,0,1,.637-.242.819.819,0,0,1,.641.242.854.854,0,0,1,.219.594.826.826,0,0,1-.219.586.834.834,0,0,1-.641.234.821.821,0,0,1-.637-.234A.834.834,0,0,1,66.4-10.7ZM69.891-4.3a4.993,4.993,0,0,1,.488-2.234A3.643,3.643,0,0,1,71.738-8.07a3.7,3.7,0,0,1,1.988-.539,3.565,3.565,0,0,1,2.793,1.2,4.6,4.6,0,0,1,1.066,3.18v.1a5.036,5.036,0,0,1-.473,2.215A3.589,3.589,0,0,1,75.762-.391a3.743,3.743,0,0,1-2.02.547,3.556,3.556,0,0,1-2.785-1.2A4.575,4.575,0,0,1,69.891-4.2Zm1.453.172A3.616,3.616,0,0,0,72-1.875a2.088,2.088,0,0,0,1.746.852,2.075,2.075,0,0,0,1.75-.863A3.955,3.955,0,0,0,76.141-4.3a3.61,3.61,0,0,0-.66-2.254,2.1,2.1,0,0,0-1.754-.863A2.075,2.075,0,0,0,72-6.57,3.925,3.925,0,0,0,71.344-4.133ZM74.383-12h1.75L74.039-9.7H72.875Zm6.383,3.547.047,1.063a3.08,3.08,0,0,1,2.531-1.219q2.68,0,2.7,3.023V0H84.6V-5.594a1.946,1.946,0,0,0-.418-1.352,1.675,1.675,0,0,0-1.277-.437,2.086,2.086,0,0,0-1.234.375,2.546,2.546,0,0,0-.828.984V0H79.4V-8.453Z" transform="translate(441 2387)" fill="#12263f"/>
    </g>
  </g>
</svg>
