<svg xmlns="http://www.w3.org/2000/svg" xmlns:xlink="http://www.w3.org/1999/xlink" width="1242" height="324" viewBox="0 0 1242 324">
  <defs>
    <clipPath id="clip-path">
      <rect id="Rectángulo_43847" data-name="Rectángulo 43847" width="191.141" height="114.836" fill="none"/>
    </clipPath>
    <clipPath id="clip-path-3">
      <rect id="Rectángulo_43848" data-name="Rectángulo 43848" width="123.213" height="87.2" fill="none"/>
    </clipPath>
    <clipPath id="clip-path-4">
      <rect id="Rectángulo_43861" data-name="Rectángulo 43861" width="138.771" height="78.636" fill="none"/>
    </clipPath>
    <clipPath id="clip-path-5">
      <rect id="Rectángulo_43862" data-name="Rectángulo 43862" width="179.546" height="87.417" fill="none"/>
    </clipPath>
    <clipPath id="clip-path-6">
      <rect id="Rectángulo_43750" data-name="Rectángulo 43750" width="36.701" height="31" transform="translate(16)" fill="#ffa726"/>
    </clipPath>
  </defs>
  <g id="Grupo_144978" data-name="Grupo 144978" transform="translate(-178 -8726)">
    <g id="Grupo_144945" data-name="Grupo 144945">
      <g id="Grupo_144943" data-name="Grupo 144943">
        <path id="Trazado_192666" data-name="Trazado 192666" d="M0,0H1242V324H0Z" transform="translate(178 8726)" fill="#f6f6f6"/>
        <g id="Grupo_144899" data-name="Grupo 144899" transform="translate(892.369 8826.04)">
          <g id="Grupo_144898" data-name="Grupo 144898" transform="translate(12)" clip-path="url(#clip-path)">
            <path id="Trazado_192563" data-name="Trazado 192563" d="M49.071,31.684A10.381,10.381,0,1,0,59.451,42.065,10.381,10.381,0,0,0,49.071,31.684" transform="translate(-15.988 -13.093)" fill="#26a69a"/>
            <path id="Trazado_192564" data-name="Trazado 192564" d="M49.071,126.275a10.381,10.381,0,1,0,10.381,10.381,10.381,10.381,0,0,0-10.381-10.381" transform="translate(-15.988 -52.18)" fill="#26a69a"/>
            <path id="Trazado_192565" data-name="Trazado 192565" d="M155.913,52.444a10.381,10.381,0,1,0-10.381-10.381,10.381,10.381,0,0,0,10.381,10.381" transform="translate(-60.138 -13.092)" fill="#26a69a"/>
            <path id="Trazado_192566" data-name="Trazado 192566" d="M103.2,77.9a10.38,10.38,0,1,0,10.381,10.381A10.381,10.381,0,0,0,103.2,77.9" transform="translate(-38.356 -32.189)" fill="#26a69a"/>
            <path id="Trazado_192567" data-name="Trazado 192567" d="M209.346,77.9a10.38,10.38,0,1,0,10.381,10.381A10.381,10.381,0,0,0,209.346,77.9" transform="translate(-82.217 -32.189)" fill="#26a69a"/>
            <path id="Trazado_192568" data-name="Trazado 192568" d="M155.913,126.275a10.381,10.381,0,1,0,10.381,10.381,10.381,10.381,0,0,0-10.381-10.381" transform="translate(-60.138 -52.18)" fill="#26a69a"/>
            <path id="Trazado_192569" data-name="Trazado 192569" d="M262.755,52.444a10.381,10.381,0,1,0-10.381-10.381,10.381,10.381,0,0,0,10.381,10.381" transform="translate(-104.287 -13.092)" fill="#26a69a"/>
            <path id="Trazado_192570" data-name="Trazado 192570" d="M262.755,126.275a10.381,10.381,0,1,0,10.381,10.381,10.381,10.381,0,0,0-10.381-10.381" transform="translate(-104.287 -52.18)" fill="#26a69a"/>
            <path id="Trazado_192571" data-name="Trazado 192571" d="M80.716,115.739a69.877,69.877,0,0,1,4.362-7.168,13.916,13.916,0,0,1-1.994-3.144,62.7,62.7,0,0,0-5.415,8.615c-1,1.8-1.99,3.572-3.028,5.2a13.9,13.9,0,0,1,2.01,3.286c1.465-2.122,2.773-4.469,4.066-6.792" transform="translate(-30.844 -43.565)" fill="#1a323d"/>
            <path id="Trazado_192572" data-name="Trazado 192572" d="M82.931,75.089A13.843,13.843,0,0,1,84.888,71.7c-.965-1.543-1.889-3.2-2.826-4.885a65.086,65.086,0,0,0-5.218-8.364,13.873,13.873,0,0,1-1.927,3.262,75.073,75.073,0,0,1,4.1,6.8c1.249,2.244,2.513,4.511,3.917,6.575" transform="translate(-30.958 -24.154)" fill="#1a323d"/>
            <path id="Trazado_192573" data-name="Trazado 192573" d="M189.1,75.54a13.865,13.865,0,0,1,1.93-3.419c-.988-1.571-1.932-3.265-2.889-4.985a69.775,69.775,0,0,0-4.869-7.911,13.892,13.892,0,0,1-2.021,3.172c1.344,1.95,2.582,4.171,3.842,6.436,1.276,2.292,2.566,4.608,4.007,6.707" transform="translate(-74.899 -24.473)" fill="#1a323d"/>
            <path id="Trazado_192574" data-name="Trazado 192574" d="M137.066,60.373a77.5,77.5,0,0,0-4.377,7.238c-1.016,1.825-2.018,3.622-3.072,5.273a13.828,13.828,0,0,1,1.854,3.5,79.592,79.592,0,0,0,4.266-7.078c1.149-2.064,2.278-4.092,3.487-5.911a13.952,13.952,0,0,1-2.158-3.023" transform="translate(-53.561 -24.948)" fill="#1a323d"/>
            <path id="Trazado_192575" data-name="Trazado 192575" d="M238.637,67.3c-.995,1.787-1.975,3.546-3,5.167a13.87,13.87,0,0,1,1.882,3.471c1.507-2.161,2.846-4.564,4.17-6.942,1.223-2.2,2.425-4.352,3.723-6.26a13.919,13.919,0,0,1-2.07-3.119,72.2,72.2,0,0,0-4.7,7.682" transform="translate(-97.369 -24.634)" fill="#1a323d"/>
            <path id="Trazado_192576" data-name="Trazado 192576" d="M307.279,80.479a1.73,1.73,0,0,0-.422-.058l-.108,0c-5.888-.781-9.192-6.712-12.675-12.968A74.843,74.843,0,0,0,289.537,60a13.931,13.931,0,0,1-2.111,3.074c1.252,1.863,2.415,3.952,3.6,6.08,2.736,4.915,5.537,9.94,9.759,12.7-4.923,2.53-7.994,8.039-10.988,13.416-.855,1.536-1.7,3.051-2.574,4.475a13.945,13.945,0,0,1,2.2,3.057c1.211-1.86,2.324-3.856,3.426-5.835,3.678-6.606,7.157-12.848,13.69-13.048a14.433,14.433,0,0,0,1.55.083,1.744,1.744,0,0,0,0-3.488c-.275,0-.542-.014-.806-.035" transform="translate(-118.688 -24.794)" fill="#1a323d"/>
            <path id="Trazado_192577" data-name="Trazado 192577" d="M236.2,116.867a65.8,65.8,0,0,0,5.157,8.285,13.8,13.8,0,0,1,1.694-3.6c-1.33-1.937-2.555-4.136-3.8-6.378a80.432,80.432,0,0,0-4.22-7.013,13.948,13.948,0,0,1-2.319,2.792c1.211,1.821,2.341,3.852,3.491,5.917" transform="translate(-96.16 -44.694)" fill="#1a323d"/>
            <path id="Trazado_192578" data-name="Trazado 192578" d="M135.027,124.573a13.827,13.827,0,0,1,1.806-3.5c-1.225-1.837-2.368-3.888-3.53-5.976a79.081,79.081,0,0,0-4.293-7.118,13.965,13.965,0,0,1-2.3,2.815c1.231,1.842,2.378,3.9,3.545,6a71.114,71.114,0,0,0,4.772,7.78" transform="translate(-52.359 -44.619)" fill="#1a323d"/>
            <path id="Trazado_192579" data-name="Trazado 192579" d="M186.782,115.659a68.715,68.715,0,0,1,4.428-7.257,13.932,13.932,0,0,1-1.969-3.167,61.666,61.666,0,0,0-5.507,8.728c-.927,1.665-1.841,3.306-2.794,4.834a13.914,13.914,0,0,1,2.107,3.167c1.332-1.992,2.54-4.158,3.735-6.3" transform="translate(-74.769 -43.486)" fill="#1a323d"/>
            <path id="Trazado_192580" data-name="Trazado 192580" d="M215.563,161.827c-3.738,6.715-7.269,13.057-14.011,13.057s-10.273-6.342-14.011-13.057a72.862,72.862,0,0,0-4.658-7.623,13.925,13.925,0,0,1-2.1,3.079c1.293,1.9,2.49,4.051,3.709,6.241,4.064,7.3,8.266,14.849,17.059,14.849s12.995-7.549,17.059-14.849c1.294-2.325,2.565-4.606,3.951-6.594a13.905,13.905,0,0,1-2.008-3.173,68.058,68.058,0,0,0-4.991,8.07" transform="translate(-74.705 -63.536)" fill="#1a323d"/>
            <path id="Trazado_192581" data-name="Trazado 192581" d="M109.489,161.826c-3.738,6.714-7.269,13.057-14.012,13.057S85.2,168.541,81.465,161.826a68.043,68.043,0,0,0-4.993-8.072,13.9,13.9,0,0,1-2.007,3.173c1.387,1.989,2.658,4.269,3.953,6.6,4.064,7.3,8.267,14.848,17.06,14.848s13-7.549,17.059-14.849c1.218-2.188,2.415-4.335,3.708-6.238a13.894,13.894,0,0,1-2.1-3.078,73,73,0,0,0-4.655,7.619" transform="translate(-30.771 -63.535)" fill="#1a323d"/>
            <path id="Trazado_192582" data-name="Trazado 192582" d="M293.4,16.546c3.738-6.715,7.27-13.057,14.012-13.057a1.744,1.744,0,0,0,0-3.488c-8.793,0-13,7.549-17.06,14.849-.922,1.656-1.833,3.291-2.781,4.812a13.934,13.934,0,0,1,2.138,3.124c1.315-1.973,2.51-4.116,3.691-6.239" transform="translate(-118.83 0)" fill="#1a323d"/>
            <path id="Trazado_192583" data-name="Trazado 192583" d="M307.614,175.513c-6.742,0-10.273-6.342-14.011-13.057a78.185,78.185,0,0,0-4.336-7.178,13.931,13.931,0,0,1-2.192,2.976c1.206,1.817,2.333,3.84,3.48,5.9,4.064,7.3,8.266,14.849,17.059,14.849a1.744,1.744,0,0,0,0-3.488" transform="translate(-118.627 -64.165)" fill="#1a323d"/>
            <path id="Trazado_192584" data-name="Trazado 192584" d="M17.151,162.456c-3.738,6.715-7.27,13.058-14.012,13.058a1.744,1.744,0,0,0,0,3.488c8.793,0,13-7.549,17.06-14.849,1.146-2.058,2.273-4.082,3.479-5.9a13.935,13.935,0,0,1-2.192-2.975,78.314,78.314,0,0,0-4.335,7.176" transform="translate(-0.576 -64.166)" fill="#1a323d"/>
            <path id="Trazado_192585" data-name="Trazado 192585" d="M2.55,84.407a1.73,1.73,0,0,0,.422.058l.108,0c5.888.781,9.192,6.712,12.675,12.968a76.946,76.946,0,0,0,4.406,7.277,13.848,13.848,0,0,1,1.912-3.394c-1.128-1.733-2.19-3.64-3.27-5.58-2.736-4.915-5.537-9.94-9.759-12.7,4.923-2.53,7.994-8.039,10.988-13.416,1.078-1.936,2.139-3.84,3.264-5.571a13.973,13.973,0,0,1-2.241-2.926c-1.467,2.124-2.776,4.474-4.071,6.8-3.678,6.606-7.157,12.848-13.69,13.048a14.433,14.433,0,0,0-1.55-.083,1.744,1.744,0,0,0,0,3.488c.275,0,.542.014.806.035" transform="translate(0 -25.256)" fill="#1a323d"/>
            <path id="Trazado_192586" data-name="Trazado 192586" d="M187.326,16.545c3.738-6.714,7.269-13.057,14.012-13.057s10.274,6.342,14.012,13.057a69.361,69.361,0,0,0,4.9,7.948,13.831,13.831,0,0,1,1.792-3.5c-1.267-1.879-2.445-3.99-3.642-6.142C214.334,7.549,210.131,0,201.338,0s-13,7.549-17.059,14.849c-1,1.791-1.98,3.554-3.012,5.178a13.885,13.885,0,0,1,2.047,3.235c1.444-2.1,2.736-4.422,4.014-6.717" transform="translate(-74.904)" fill="#1a323d"/>
            <path id="Trazado_192587" data-name="Trazado 192587" d="M81.254,16.546C84.992,9.831,88.523,3.488,95.265,3.488s10.273,6.342,14.012,13.057a74.691,74.691,0,0,0,4.53,7.449,13.843,13.843,0,0,1,1.9-3.4c-1.168-1.777-2.264-3.744-3.379-5.746C108.26,7.549,104.057,0,95.265,0S82.27,7.549,78.206,14.849c-1.075,1.931-2.134,3.83-3.255,5.558A13.9,13.9,0,0,1,76.9,23.75a77.948,77.948,0,0,0,4.354-7.2" transform="translate(-30.972)" fill="#1a323d"/>
            <path id="Trazado_192588" data-name="Trazado 192588" d="M2.442,3.488c6.742,0,10.273,6.342,14.011,13.057,1.326,2.382,2.668,4.789,4.178,6.953a13.9,13.9,0,0,1,2-3.287c-1.075-1.675-2.094-3.5-3.129-5.362C15.437,7.549,11.235,0,2.442,0a1.744,1.744,0,0,0,0,3.488" transform="translate(-0.288)" fill="#1a323d"/>
          </g>
          <g id="Grupo_144906" data-name="Grupo 144906" transform="translate(12)" clip-path="url(#clip-path)">
            <path id="Trazado_192595" data-name="Trazado 192595" d="M49.071,31.684A10.381,10.381,0,1,0,59.451,42.065,10.381,10.381,0,0,0,49.071,31.684" transform="translate(-15.988 -13.093)" fill="#4dd0e1"/>
            <path id="Trazado_192596" data-name="Trazado 192596" d="M49.071,126.275a10.381,10.381,0,1,0,10.381,10.381,10.381,10.381,0,0,0-10.381-10.381" transform="translate(-15.988 -52.18)" fill="#4dd0e1"/>
            <path id="Trazado_192597" data-name="Trazado 192597" d="M155.913,52.444a10.381,10.381,0,1,0-10.381-10.381,10.381,10.381,0,0,0,10.381,10.381" transform="translate(-60.138 -13.092)" fill="#4dd0e1"/>
            <path id="Trazado_192598" data-name="Trazado 192598" d="M103.2,77.9a10.38,10.38,0,1,0,10.381,10.381A10.381,10.381,0,0,0,103.2,77.9" transform="translate(-38.356 -32.189)" fill="#4dd0e1"/>
            <path id="Trazado_192599" data-name="Trazado 192599" d="M209.346,77.9a10.38,10.38,0,1,0,10.381,10.381A10.381,10.381,0,0,0,209.346,77.9" transform="translate(-82.217 -32.189)" fill="#4dd0e1"/>
            <path id="Trazado_192600" data-name="Trazado 192600" d="M155.913,126.275a10.381,10.381,0,1,0,10.381,10.381,10.381,10.381,0,0,0-10.381-10.381" transform="translate(-60.138 -52.18)" fill="#4dd0e1"/>
            <path id="Trazado_192601" data-name="Trazado 192601" d="M262.755,52.444a10.381,10.381,0,1,0-10.381-10.381,10.381,10.381,0,0,0,10.381,10.381" transform="translate(-104.287 -13.092)" fill="#4dd0e1"/>
            <path id="Trazado_192602" data-name="Trazado 192602" d="M262.755,126.275a10.381,10.381,0,1,0,10.381,10.381,10.381,10.381,0,0,0-10.381-10.381" transform="translate(-104.287 -52.18)" fill="#4dd0e1"/>
            <path id="Trazado_192603" data-name="Trazado 192603" d="M80.716,115.739a69.877,69.877,0,0,1,4.362-7.168,13.916,13.916,0,0,1-1.994-3.144,62.7,62.7,0,0,0-5.415,8.615c-1,1.8-1.99,3.572-3.028,5.2a13.9,13.9,0,0,1,2.01,3.286c1.465-2.122,2.773-4.469,4.066-6.792" transform="translate(-30.844 -43.565)" fill="#1a323d"/>
            <path id="Trazado_192604" data-name="Trazado 192604" d="M82.931,75.089A13.843,13.843,0,0,1,84.888,71.7c-.965-1.543-1.889-3.2-2.826-4.885a65.086,65.086,0,0,0-5.218-8.364,13.873,13.873,0,0,1-1.927,3.262,75.073,75.073,0,0,1,4.1,6.8c1.249,2.244,2.513,4.511,3.917,6.575" transform="translate(-30.958 -24.154)" fill="#1a323d"/>
            <path id="Trazado_192605" data-name="Trazado 192605" d="M189.1,75.54a13.865,13.865,0,0,1,1.93-3.419c-.988-1.571-1.932-3.265-2.889-4.985a69.775,69.775,0,0,0-4.869-7.911,13.892,13.892,0,0,1-2.021,3.172c1.344,1.95,2.582,4.171,3.842,6.436,1.276,2.292,2.566,4.608,4.007,6.707" transform="translate(-74.899 -24.473)" fill="#1a323d"/>
            <path id="Trazado_192606" data-name="Trazado 192606" d="M137.066,60.373a77.5,77.5,0,0,0-4.377,7.238c-1.016,1.825-2.018,3.622-3.072,5.273a13.828,13.828,0,0,1,1.854,3.5,79.592,79.592,0,0,0,4.266-7.078c1.149-2.064,2.278-4.092,3.487-5.911a13.952,13.952,0,0,1-2.158-3.023" transform="translate(-53.561 -24.948)" fill="#1a323d"/>
            <path id="Trazado_192607" data-name="Trazado 192607" d="M238.637,67.3c-.995,1.787-1.975,3.546-3,5.167a13.87,13.87,0,0,1,1.882,3.471c1.507-2.161,2.846-4.564,4.17-6.942,1.223-2.2,2.425-4.352,3.723-6.26a13.919,13.919,0,0,1-2.07-3.119,72.2,72.2,0,0,0-4.7,7.682" transform="translate(-97.369 -24.634)" fill="#1a323d"/>
            <path id="Trazado_192608" data-name="Trazado 192608" d="M307.279,80.479a1.73,1.73,0,0,0-.422-.058l-.108,0c-5.888-.781-9.192-6.712-12.675-12.968A74.843,74.843,0,0,0,289.537,60a13.931,13.931,0,0,1-2.111,3.074c1.252,1.863,2.415,3.952,3.6,6.08,2.736,4.915,5.537,9.94,9.759,12.7-4.923,2.53-7.994,8.039-10.988,13.416-.855,1.536-1.7,3.051-2.574,4.475a13.945,13.945,0,0,1,2.2,3.057c1.211-1.86,2.324-3.856,3.426-5.835,3.678-6.606,7.157-12.848,13.69-13.048a14.433,14.433,0,0,0,1.55.083,1.744,1.744,0,0,0,0-3.488c-.275,0-.542-.014-.806-.035" transform="translate(-118.688 -24.794)" fill="#1a323d"/>
            <path id="Trazado_192609" data-name="Trazado 192609" d="M236.2,116.867a65.8,65.8,0,0,0,5.157,8.285,13.8,13.8,0,0,1,1.694-3.6c-1.33-1.937-2.555-4.136-3.8-6.378a80.432,80.432,0,0,0-4.22-7.013,13.948,13.948,0,0,1-2.319,2.792c1.211,1.821,2.341,3.852,3.491,5.917" transform="translate(-96.16 -44.694)" fill="#1a323d"/>
            <path id="Trazado_192610" data-name="Trazado 192610" d="M135.027,124.573a13.827,13.827,0,0,1,1.806-3.5c-1.225-1.837-2.368-3.888-3.53-5.976a79.081,79.081,0,0,0-4.293-7.118,13.965,13.965,0,0,1-2.3,2.815c1.231,1.842,2.378,3.9,3.545,6a71.114,71.114,0,0,0,4.772,7.78" transform="translate(-52.359 -44.619)" fill="#1a323d"/>
            <path id="Trazado_192611" data-name="Trazado 192611" d="M186.782,115.659a68.715,68.715,0,0,1,4.428-7.257,13.932,13.932,0,0,1-1.969-3.167,61.666,61.666,0,0,0-5.507,8.728c-.927,1.665-1.841,3.306-2.794,4.834a13.914,13.914,0,0,1,2.107,3.167c1.332-1.992,2.54-4.158,3.735-6.3" transform="translate(-74.769 -43.486)" fill="#1a323d"/>
            <path id="Trazado_192612" data-name="Trazado 192612" d="M215.563,161.827c-3.738,6.715-7.269,13.057-14.011,13.057s-10.273-6.342-14.011-13.057a72.862,72.862,0,0,0-4.658-7.623,13.925,13.925,0,0,1-2.1,3.079c1.293,1.9,2.49,4.051,3.709,6.241,4.064,7.3,8.266,14.849,17.059,14.849s12.995-7.549,17.059-14.849c1.294-2.325,2.565-4.606,3.951-6.594a13.905,13.905,0,0,1-2.008-3.173,68.058,68.058,0,0,0-4.991,8.07" transform="translate(-74.705 -63.536)" fill="#1a323d"/>
            <path id="Trazado_192613" data-name="Trazado 192613" d="M109.489,161.826c-3.738,6.714-7.269,13.057-14.012,13.057S85.2,168.541,81.465,161.826a68.043,68.043,0,0,0-4.993-8.072,13.9,13.9,0,0,1-2.007,3.173c1.387,1.989,2.658,4.269,3.953,6.6,4.064,7.3,8.267,14.848,17.06,14.848s13-7.549,17.059-14.849c1.218-2.188,2.415-4.335,3.708-6.238a13.894,13.894,0,0,1-2.1-3.078,73,73,0,0,0-4.655,7.619" transform="translate(-30.771 -63.535)" fill="#1a323d"/>
            <path id="Trazado_192614" data-name="Trazado 192614" d="M293.4,16.546c3.738-6.715,7.27-13.057,14.012-13.057a1.744,1.744,0,0,0,0-3.488c-8.793,0-13,7.549-17.06,14.849-.922,1.656-1.833,3.291-2.781,4.812a13.934,13.934,0,0,1,2.138,3.124c1.315-1.973,2.51-4.116,3.691-6.239" transform="translate(-118.83 0)" fill="#1a323d"/>
            <path id="Trazado_192615" data-name="Trazado 192615" d="M307.614,175.513c-6.742,0-10.273-6.342-14.011-13.057a78.185,78.185,0,0,0-4.336-7.178,13.931,13.931,0,0,1-2.192,2.976c1.206,1.817,2.333,3.84,3.48,5.9,4.064,7.3,8.266,14.849,17.059,14.849a1.744,1.744,0,0,0,0-3.488" transform="translate(-118.627 -64.165)" fill="#1a323d"/>
            <path id="Trazado_192616" data-name="Trazado 192616" d="M17.151,162.456c-3.738,6.715-7.27,13.058-14.012,13.058a1.744,1.744,0,0,0,0,3.488c8.793,0,13-7.549,17.06-14.849,1.146-2.058,2.273-4.082,3.479-5.9a13.935,13.935,0,0,1-2.192-2.975,78.314,78.314,0,0,0-4.335,7.176" transform="translate(-0.576 -64.166)" fill="#1a323d"/>
            <path id="Trazado_192617" data-name="Trazado 192617" d="M2.55,84.407a1.73,1.73,0,0,0,.422.058l.108,0c5.888.781,9.192,6.712,12.675,12.968a76.946,76.946,0,0,0,4.406,7.277,13.848,13.848,0,0,1,1.912-3.394c-1.128-1.733-2.19-3.64-3.27-5.58-2.736-4.915-5.537-9.94-9.759-12.7,4.923-2.53,7.994-8.039,10.988-13.416,1.078-1.936,2.139-3.84,3.264-5.571a13.973,13.973,0,0,1-2.241-2.926c-1.467,2.124-2.776,4.474-4.071,6.8-3.678,6.606-7.157,12.848-13.69,13.048a14.433,14.433,0,0,0-1.55-.083,1.744,1.744,0,0,0,0,3.488c.275,0,.542.014.806.035" transform="translate(0 -25.256)" fill="#1a323d"/>
            <path id="Trazado_192618" data-name="Trazado 192618" d="M187.326,16.545c3.738-6.714,7.269-13.057,14.012-13.057s10.274,6.342,14.012,13.057a69.361,69.361,0,0,0,4.9,7.948,13.831,13.831,0,0,1,1.792-3.5c-1.267-1.879-2.445-3.99-3.642-6.142C214.334,7.549,210.131,0,201.338,0s-13,7.549-17.059,14.849c-1,1.791-1.98,3.554-3.012,5.178a13.885,13.885,0,0,1,2.047,3.235c1.444-2.1,2.736-4.422,4.014-6.717" transform="translate(-74.904)" fill="#1a323d"/>
            <path id="Trazado_192619" data-name="Trazado 192619" d="M81.254,16.546C84.992,9.831,88.523,3.488,95.265,3.488s10.273,6.342,14.012,13.057a74.691,74.691,0,0,0,4.53,7.449,13.843,13.843,0,0,1,1.9-3.4c-1.168-1.777-2.264-3.744-3.379-5.746C108.26,7.549,104.057,0,95.265,0S82.27,7.549,78.206,14.849c-1.075,1.931-2.134,3.83-3.255,5.558A13.9,13.9,0,0,1,76.9,23.75a77.948,77.948,0,0,0,4.354-7.2" transform="translate(-30.972)" fill="#1a323d"/>
            <path id="Trazado_192620" data-name="Trazado 192620" d="M2.442,3.488c6.742,0,10.273,6.342,14.011,13.057,1.326,2.382,2.668,4.789,4.178,6.953a13.9,13.9,0,0,1,2-3.287c-1.075-1.675-2.094-3.5-3.129-5.362C15.437,7.549,11.235,0,2.442,0a1.744,1.744,0,0,0,0,3.488" transform="translate(-0.288)" fill="#1a323d"/>
          </g>
        </g>
        <g id="Grupo_144901" data-name="Grupo 144901" transform="translate(684.771 8841.858)">
          <g id="Grupo_144900" data-name="Grupo 144900" clip-path="url(#clip-path-3)">
            <path id="Trazado_192589" data-name="Trazado 192589" d="M119.193,52.9a6.93,6.93,0,0,0,1.091-7.939c-2.817.2-6.869,1.04-8.187,4.1a28.106,28.106,0,0,1,1.231,6.339.582.582,0,0,1-.529.63l-.051,0a.582.582,0,0,1-.579-.532c0-.045-.4-4.495-1.226-6.168-.731-1.475-4.423-1.463-5.659-1.343a.582.582,0,0,1-.114-1.158c.495-.049,4.358-.372,6.161,1.161,1.652-2.912,5.375-3.865,8.229-4.15q-.091-.114-.186-.224a6.933,6.933,0,0,0,.381-10.518c-2.7-.424-7.1-.674-7.737,1.321a7.387,7.387,0,0,0-.3,2.62c.039,1.981-.195,3.3-3.757,4.939a.582.582,0,0,1-.486-1.058c3.126-1.437,3.109-2.3,3.078-3.858a9.1,9.1,0,0,1,.224-2.546c-3.688-2.086-5.066-.639-5.106-.6a.582.582,0,0,1-.9-.735c.077-.1,1.893-2.264,6.437.239,1.313-2.059,5.2-1.955,7.809-1.617a6.922,6.922,0,0,0-.966-7.434.575.575,0,0,1-.313.147,13.293,13.293,0,0,1-1.7.108,6.084,6.084,0,0,1-3.669-.927,2.211,2.211,0,0,1-.5-.581,7,7,0,0,1-4.3,1.606,4.142,4.142,0,0,1-1.1-.128.582.582,0,1,1,.331-1.116c.022.007,2.227.624,4.793-1.647.118-1.7.019-4.425-.746-5.167a.48.48,0,0,0-.425-.146.582.582,0,0,1-.136-1.156,1.638,1.638,0,0,1,1.372.467c1.419,1.375,1.137,5.608,1.082,6.284a.947.947,0,0,0,.367.686c1,.825,3.567.686,4.474.563a.578.578,0,0,1,.3.04,6.931,6.931,0,0,0-5.2-9.193A6.935,6.935,0,0,0,105.81,6.28a6.882,6.882,0,0,0-1.1.09,1.581,1.581,0,0,1,.049.444A4.782,4.782,0,0,1,103,9.734a2.282,2.282,0,0,1,.827.846c1.161,2.041-.3,5.974-.474,6.415a.582.582,0,0,1-1.086-.419c.408-1.058,1.3-4.1.547-5.421a1.149,1.149,0,0,0-.873-.587.581.581,0,0,1-.475-.477c-1.119-.3-3.8-.823-5.413.6a.582.582,0,0,1-.77-.873c2.2-1.939,5.654-1.111,6.756-.777,1.51-1.426,1.621-2.223,1.532-2.409a.582.582,0,0,1,.04-.784.646.646,0,0,1,.072-.058A6.935,6.935,0,0,0,91.642,3.524l-.161.207a6.906,6.906,0,0,0-1.358,4.123c0,1.544-.142,3.275,0,4.863l.028,3.191a14.948,14.948,0,0,1,7.5,4.191c2.6-1.923,7.665,1.385,7.894,1.536a.582.582,0,1,1-.643.97,14.124,14.124,0,0,0-1.249-.728l-5.33-.824a1.635,1.635,0,0,0-.209.19c-.446,1.405-1.229,5.022-.038,6.709a.582.582,0,1,1-.951.671c-1.579-2.236-.52-6.382-.173-7.556a13.472,13.472,0,0,0-6.78-3.937v-.49H79.753V7.536a1.34,1.34,0,0,0-1.34-1.34H62.437v.4a7.536,7.536,0,1,0,0,1.872v.4H77.072v9.106a1.34,1.34,0,0,0,1.34,1.34H90.176v-.454l.091,10.47H70.145v-4.8a1.34,1.34,0,0,0-1.34-1.34H40.122a7.536,7.536,0,1,0,0,2.681H67.465v4.8a1.34,1.34,0,0,0,1.34,1.34H90.283v-.7l.014,1.631a.573.573,0,0,1,.292.073c.809.46,7.653,4.458,7.622,8.106,4.081,2.463,2.234,9.462,2.15,9.767a.582.582,0,0,1-.561.43.6.6,0,0,1-.153-.02.582.582,0,0,1-.409-.714c.018-.066,1.7-6.444-1.633-8.467a4.3,4.3,0,0,0-1.783,4.5.583.583,0,0,1-.494.658.633.633,0,0,1-.083.006.581.581,0,0,1-.575-.5,5.485,5.485,0,0,1,2.379-5.678c.022-2.384-4.572-5.615-6.743-6.9l.068,7.831H14.949a7.536,7.536,0,1,0,0,2.681H90.4l.081,9.41c1.7.162,3.894.609,4.795,1.822a8.6,8.6,0,0,1,7.23,3.176.582.582,0,0,1-.931.7,7.518,7.518,0,0,0-6.285-2.707,5.958,5.958,0,0,0-.76,4.819.582.582,0,0,1-.41.713.6.6,0,0,1-.152.02.582.582,0,0,1-.561-.43,7.139,7.139,0,0,1,.866-5.69c-.61-.7-2.205-1.087-3.765-1.251v-.118H69.028a1.341,1.341,0,0,0-1.34,1.34v4.8H40.345a7.536,7.536,0,1,0,0,2.681H69.028a1.341,1.341,0,0,0,1.341-1.34v-4.8H90.507V57.2L90.6,67.878H78.859a1.34,1.34,0,0,0-1.34,1.34v9.106H62.884v.4a7.536,7.536,0,1,0,0,1.872V81H78.859a1.34,1.34,0,0,0,1.34-1.34V70.559H90.622l.043,5a12.63,12.63,0,0,0-.116,3.344,6.939,6.939,0,0,0,8.78,6.69,6.938,6.938,0,0,0,8.348-4.282,14.794,14.794,0,0,1-3.839.571,5.8,5.8,0,0,1-4.284-1.49,4.4,4.4,0,0,1-2.471,1.263,4.291,4.291,0,0,1-.619.044,5.83,5.83,0,0,1-3.234-1.106.582.582,0,0,1,.708-.923,4.5,4.5,0,0,0,2.987.832,3.663,3.663,0,0,0,2.405-1.629c.01-.014.023-.025.034-.038A6.136,6.136,0,0,0,97.2,74.06a.582.582,0,0,1,.8-.841,7.01,7.01,0,0,1,2.431,6.407c2.174,2.164,7.321.441,7.392.416a.572.572,0,0,1,.189-.029v0l.09,0a6.938,6.938,0,0,0,6.87-5.969,6.942,6.942,0,0,0,4.62-7.68,12.756,12.756,0,0,1-4.808.9,14.586,14.586,0,0,1-6.754-1.7,6.03,6.03,0,0,1-4.571,2.92,11.372,11.372,0,0,1-1.856.147,11.551,11.551,0,0,1-1.914-.148.582.582,0,0,1,.21-1.145,11.1,11.1,0,0,0,3.4-.006c2.224-.379,3.608-1.5,4.115-3.319a7.273,7.273,0,0,0-2.164-7.433.582.582,0,0,1,.736-.9,8.433,8.433,0,0,1,2.55,8.646c-.016.056-.035.11-.052.165a12.683,12.683,0,0,0,10.916.689.58.58,0,0,1,.444-.033,6.937,6.937,0,0,0-.654-12.24M54.962,12.39a4.855,4.855,0,1,1,4.855-4.855,4.86,4.86,0,0,1-4.855,4.855m-22.254,17a4.855,4.855,0,1,1,4.855-4.855,4.861,4.861,0,0,1-4.855,4.855M7.536,48.231a4.855,4.855,0,1,1,4.855-4.855,4.86,4.86,0,0,1-4.855,4.855m25.4,19.289a4.855,4.855,0,1,1,4.855-4.855,4.86,4.86,0,0,1-4.855,4.855m22.477,17a4.855,4.855,0,1,1,4.855-4.855,4.861,4.861,0,0,1-4.855,4.855" fill="#1a323d"/>
          </g>
        </g>
        <g id="Grupo_144903" data-name="Grupo 144903" transform="translate(535.615 8848.422)">
          <g id="Grupo_144902" data-name="Grupo 144902" clip-path="url(#clip-path-4)">
            <path id="Trazado_192590" data-name="Trazado 192590" d="M137.251,0H1.519A1.519,1.519,0,0,0,0,1.519v75.6a1.519,1.519,0,0,0,1.519,1.519H137.251a1.52,1.52,0,0,0,1.519-1.519V1.519A1.519,1.519,0,0,0,137.251,0M3.039,3.039H39.5V75.6H3.039ZM135.732,75.6H41.927V3.039h93.805Z" fill="#1a323d"/>
            <rect id="Rectángulo_43849" data-name="Rectángulo 43849" width="23.752" height="2.431" transform="translate(9.086 10.961)" fill="#1a323d"/>
            <rect id="Rectángulo_43850" data-name="Rectángulo 43850" width="23.752" height="2.431" transform="translate(9.086 18.878)" fill="#1a323d"/>
            <rect id="Rectángulo_43851" data-name="Rectángulo 43851" width="23.752" height="2.431" transform="translate(9.086 26.796)" fill="#1a323d"/>
            <rect id="Rectángulo_43852" data-name="Rectángulo 43852" width="23.752" height="2.431" transform="translate(9.086 34.713)" fill="#1a323d"/>
            <rect id="Rectángulo_43853" data-name="Rectángulo 43853" width="23.752" height="2.431" transform="translate(9.086 42.63)" fill="#1a323d"/>
            <rect id="Rectángulo_43854" data-name="Rectángulo 43854" width="23.752" height="2.431" transform="translate(9.086 50.548)" fill="#1a323d"/>
            <rect id="Rectángulo_43855" data-name="Rectángulo 43855" width="23.752" height="2.431" transform="translate(9.086 58.465)" fill="#1a323d"/>
            <path id="Trazado_192591" data-name="Trazado 192591" d="M137.292,59.743A18.392,18.392,0,0,0,154.1,48.825l-16.808-7.47V22.966a18.389,18.389,0,0,0,0,36.777" transform="translate(-71.312 -13.774)" fill="#1a323d"/>
            <path id="Trazado_192592" data-name="Trazado 192592" d="M193.359,33.764A18.389,18.389,0,0,0,174.97,15.375V33.764l16.807,7.47a18.32,18.32,0,0,0,1.582-7.47" transform="translate(-104.939 -9.221)" fill="#1a323d"/>
            <rect id="Rectángulo_43856" data-name="Rectángulo 43856" width="10.982" height="15.068" transform="translate(50.161 54.828)" fill="#1a323d"/>
            <rect id="Rectángulo_43857" data-name="Rectángulo 43857" width="10.982" height="9.194" transform="translate(65.189 60.702)" fill="#1a323d"/>
            <rect id="Rectángulo_43858" data-name="Rectángulo 43858" width="10.982" height="20.687" transform="translate(80.216 49.209)" fill="#1a323d"/>
            <rect id="Rectángulo_43859" data-name="Rectángulo 43859" width="10.982" height="9.194" transform="translate(95.244 60.702)" fill="#1a323d"/>
            <rect id="Rectángulo_43860" data-name="Rectángulo 43860" width="10.982" height="34.99" transform="translate(110.272 34.907)" fill="#1a323d"/>
          </g>
        </g>
        <g id="Grupo_144905" data-name="Grupo 144905" transform="translate(239 8847.281)">
          <g id="Grupo_144904" data-name="Grupo 144904" transform="translate(0 0)" clip-path="url(#clip-path-5)">
            <path id="Trazado_192593" data-name="Trazado 192593" d="M28.524,70.794a8.872,8.872,0,1,0,8.87-8.874,8.886,8.886,0,0,0-8.87,8.874m110.7,8.874a8.874,8.874,0,1,0-8.874-8.874,8.886,8.886,0,0,0,8.874,8.874m-83.47-35.5H161.691l6.773,7.3a1.052,1.052,0,0,0,.763.33h8.264l.928,6.728h-3.73a1.3,1.3,0,0,0-1.3,1.3v2.106a1.3,1.3,0,0,0,1.3,1.3h4.385l.386,2.781a3.956,3.956,0,0,1-3.866,4.775H155.843a16.621,16.621,0,1,1-33.242,0H54.017a16.623,16.623,0,1,1-33.246,0H4.18c-3.171,0-4.566-2.821-4.088-5.956l.977-6.431A5.192,5.192,0,0,1,4.3,54.364l.153-.056c.116-.049.225-.1.325-.153H40.863Z" transform="translate(-0.001 0)" fill="#15224b"/>
            <path id="Trazado_192594" data-name="Trazado 192594" d="M73.718,30.561V7.74H35.629a1.336,1.336,0,0,0-1.19.749l-7.19,22.072ZM36.054,46.711a4.5,4.5,0,1,0-4.5-4.5,4.5,4.5,0,0,0,4.5,4.5m45.413-16.15h46.47L107.23,8.006a1.3,1.3,0,0,0-.783-.266H81.467ZM7.072,50.995l.623-2.058,4.011.965a2.592,2.592,0,0,0,3.131-1.921l1.736-7.226a2.592,2.592,0,0,0-1.921-3.128l-3.271-.787.868-2.846A5.181,5.181,0,0,1,15.022,30.8l.832-.386c1.086-.5,3.513-1.358,4.032-2.436l7.58-22.869A9.068,9.068,0,0,1,35.629,0h70.818a9.069,9.069,0,0,1,5.4,1.776l27.878,27.87,30.694,8.7a3.959,3.959,0,0,1,2.548,2.034s.824,1.72,1.8,3.77l-11.576-1.721a1.044,1.044,0,0,0-.916,1.744H56.34L41.448,54.154H5.364c1.162-.627,1.282-1.768,1.708-3.159" transform="translate(-0.587 0)" fill="#d21053"/>
          </g>
        </g>
        <path id="Trazado_192670" data-name="Trazado 192670" d="M9.893-6.025H4.5v3.389h6.367V0H1.074V-14.219h9.814v2.646H4.5v3H9.893Zm7.676-3.467,2.324-4.727h3.916L19.834-7.168,23.916,0H19.961L17.568-4.814,15.176,0H11.23L15.3-7.168l-3.965-7.051h3.906Zm18.623-2.08H31.924V0H28.5V-11.572H24.307v-2.646H36.191ZM42.92-5.02H41.064V0H37.637V-14.219h5.6A6.241,6.241,0,0,1,47.188-13.1a3.807,3.807,0,0,1,1.426,3.174,4.625,4.625,0,0,1-.6,2.461,4.264,4.264,0,0,1-1.88,1.582L49.1-.146V0H45.43ZM41.064-7.666h2.168a1.949,1.949,0,0,0,1.47-.513A1.979,1.979,0,0,0,45.2-9.609a2,2,0,0,0-.5-1.44,1.931,1.931,0,0,0-1.465-.522H41.064Zm17.7,5.01h-4.7L53.242,0H49.58l5.215-14.219h3.223L63.271,0H59.59ZM54.883-5.3h3.057l-1.533-4.932Zm20.723.488a5.193,5.193,0,0,1-.8,2.622A4.833,4.833,0,0,1,72.749-.43,7,7,0,0,1,69.727.2a5.584,5.584,0,0,1-4.414-1.826A7.54,7.54,0,0,1,63.7-6.787v-.7a8.607,8.607,0,0,1,.728-3.657,5.513,5.513,0,0,1,2.095-2.422,5.844,5.844,0,0,1,3.164-.854,6.129,6.129,0,0,1,4.16,1.362,5.383,5.383,0,0,1,1.787,3.755H72.217a2.547,2.547,0,0,0-.654-1.865,2.691,2.691,0,0,0-1.875-.566,2.048,2.048,0,0,0-1.875.957,6.151,6.151,0,0,0-.625,3.057v1.006a6.806,6.806,0,0,0,.571,3.252,2.091,2.091,0,0,0,1.968.977,2.632,2.632,0,0,0,1.807-.557A2.363,2.363,0,0,0,72.2-4.814Zm13.125,0a5.193,5.193,0,0,1-.8,2.622A4.833,4.833,0,0,1,85.874-.43,7,7,0,0,1,82.852.2a5.584,5.584,0,0,1-4.414-1.826,7.54,7.54,0,0,1-1.611-5.156v-.7a8.607,8.607,0,0,1,.728-3.657,5.513,5.513,0,0,1,2.095-2.422,5.844,5.844,0,0,1,3.164-.854,6.129,6.129,0,0,1,4.16,1.362A5.383,5.383,0,0,1,88.76-9.307H85.342a2.547,2.547,0,0,0-.654-1.865,2.691,2.691,0,0,0-1.875-.566,2.048,2.048,0,0,0-1.875.957,6.151,6.151,0,0,0-.625,3.057v1.006a6.806,6.806,0,0,0,.571,3.252,2.091,2.091,0,0,0,1.968.977,2.632,2.632,0,0,0,1.807-.557,2.363,2.363,0,0,0,.664-1.768ZM94,0H90.586V-14.219H94Zm14.424-6.816a8.385,8.385,0,0,1-.771,3.682,5.7,5.7,0,0,1-2.192,2.466A6.1,6.1,0,0,1,102.227.2,6.191,6.191,0,0,1,99-.64a5.692,5.692,0,0,1-2.192-2.388,8.144,8.144,0,0,1-.825-3.564v-.8a8.422,8.422,0,0,1,.767-3.687,5.688,5.688,0,0,1,2.2-2.466,6.147,6.147,0,0,1,3.257-.869,6.087,6.087,0,0,1,3.223.859,5.79,5.79,0,0,1,2.2,2.446,8.18,8.18,0,0,1,.8,3.638Zm-3.486-.6a5.979,5.979,0,0,0-.708-3.218,2.271,2.271,0,0,0-2.026-1.1q-2.578,0-2.725,3.867l-.01,1.045a6.149,6.149,0,0,0,.693,3.213,2.268,2.268,0,0,0,2.061,1.123,2.24,2.24,0,0,0,2-1.1,5.982,5.982,0,0,0,.713-3.174Zm-2.334-10.615h3.477l-2.715,3.066h-2.686ZM122.07,0h-3.408l-5.039-8.848V0H110.2V-14.219h3.428l5.029,8.848v-8.848h3.418Zm7.148,0V-14.219h4.58a6.737,6.737,0,0,1,3.389.854,6.006,6.006,0,0,1,2.349,2.412,7.283,7.283,0,0,1,.854,3.491v.654a7.325,7.325,0,0,1-.825,3.5,6.032,6.032,0,0,1-2.324,2.422A6.589,6.589,0,0,1,133.9,0Zm3.428-11.572v8.936h1.191a2.666,2.666,0,0,0,2.266-1.05,5.145,5.145,0,0,0,.791-3.12v-.615a5.1,5.1,0,0,0-.791-3.105,2.713,2.713,0,0,0-2.3-1.045Zm18.32,5.547h-5.391v3.389h6.367V0h-9.795V-14.219h9.814v2.646h-6.387v3h5.391Zm18.857,1.211a5.193,5.193,0,0,1-.8,2.622A4.833,4.833,0,0,1,166.968-.43,7,7,0,0,1,163.945.2a5.584,5.584,0,0,1-4.414-1.826,7.54,7.54,0,0,1-1.611-5.156v-.7a8.607,8.607,0,0,1,.728-3.657,5.513,5.513,0,0,1,2.095-2.422,5.844,5.844,0,0,1,3.164-.854,6.129,6.129,0,0,1,4.16,1.362,5.383,5.383,0,0,1,1.787,3.755h-3.418a2.547,2.547,0,0,0-.654-1.865,2.691,2.691,0,0,0-1.875-.566,2.048,2.048,0,0,0-1.875.957,6.151,6.151,0,0,0-.625,3.057v1.006a6.806,6.806,0,0,0,.571,3.252,2.091,2.091,0,0,0,1.968.977,2.632,2.632,0,0,0,1.807-.557,2.363,2.363,0,0,0,.664-1.768Zm9.7,2.158h-4.7L174,0h-3.662l5.215-14.219h3.223L184.033,0h-3.682ZM175.645-5.3H178.7l-1.533-4.932Zm14.707.283H188.5V0h-3.428V-14.219h5.6a6.241,6.241,0,0,1,3.955,1.123,3.807,3.807,0,0,1,1.426,3.174,4.625,4.625,0,0,1-.6,2.461,4.264,4.264,0,0,1-1.88,1.582l2.969,5.732V0h-3.672ZM188.5-7.666h2.168a1.949,1.949,0,0,0,1.47-.513,1.979,1.979,0,0,0,.493-1.431,2,2,0,0,0-.5-1.44,1.931,1.931,0,0,0-1.465-.522H188.5Zm17.7,5.01h-4.7L200.674,0h-3.662l5.215-14.219h3.223L210.7,0h-3.682ZM202.314-5.3h3.057l-1.533-4.932Zm20.723.488a5.193,5.193,0,0,1-.8,2.622A4.833,4.833,0,0,1,220.181-.43,7,7,0,0,1,217.158.2a5.584,5.584,0,0,1-4.414-1.826,7.54,7.54,0,0,1-1.611-5.156v-.7a8.607,8.607,0,0,1,.728-3.657,5.513,5.513,0,0,1,2.095-2.422,5.844,5.844,0,0,1,3.164-.854,6.129,6.129,0,0,1,4.16,1.362,5.383,5.383,0,0,1,1.787,3.755h-3.418a2.547,2.547,0,0,0-.654-1.865,2.691,2.691,0,0,0-1.875-.566,2.048,2.048,0,0,0-1.875.957,6.151,6.151,0,0,0-.625,3.057v1.006a6.806,6.806,0,0,0,.571,3.252,2.091,2.091,0,0,0,1.968.977,2.632,2.632,0,0,0,1.807-.557,2.363,2.363,0,0,0,.664-1.768Zm12.5-6.758H231.27V0h-3.428V-11.572h-4.189v-2.646h11.885ZM245.8-6.025H240.41v3.389h6.367V0h-9.795V-14.219H246.8v2.646H240.41v3H245.8Zm7.656,1.006H251.6V0h-3.428V-14.219h5.6a6.241,6.241,0,0,1,3.955,1.123,3.807,3.807,0,0,1,1.426,3.174,4.625,4.625,0,0,1-.6,2.461,4.264,4.264,0,0,1-1.88,1.582l2.969,5.732V0h-3.672ZM251.6-7.666h2.168a1.949,1.949,0,0,0,1.47-.513,1.979,1.979,0,0,0,.493-1.431,2,2,0,0,0-.5-1.44,1.931,1.931,0,0,0-1.465-.522H251.6ZM264.873,0h-3.418V-14.219h3.418Zm-1.3-18.027h3.477l-2.715,3.066H261.65ZM274.59-3.779a1.408,1.408,0,0,0-.532-1.172,6.615,6.615,0,0,0-1.87-.869A17.941,17.941,0,0,1,270-6.689q-2.764-1.357-2.764-3.73a3.345,3.345,0,0,1,.688-2.085,4.453,4.453,0,0,1,1.948-1.406,7.582,7.582,0,0,1,2.832-.5,6.632,6.632,0,0,1,2.749.547,4.352,4.352,0,0,1,1.89,1.558,4.068,4.068,0,0,1,.674,2.31H274.6a1.719,1.719,0,0,0-.532-1.348,2.075,2.075,0,0,0-1.44-.479,2.34,2.34,0,0,0-1.45.405,1.243,1.243,0,0,0-.532,1.03,1.252,1.252,0,0,0,.586.991,7.389,7.389,0,0,0,2.061.918,12.623,12.623,0,0,1,2.422,1.021,4.07,4.07,0,0,1,2.3,3.662,3.472,3.472,0,0,1-1.406,2.93A6.255,6.255,0,0,1,272.754.2a7.653,7.653,0,0,1-3.13-.62,4.719,4.719,0,0,1-2.109-1.7,4.427,4.427,0,0,1-.708-2.485h3.438a2.181,2.181,0,0,0,.591,1.685,2.793,2.793,0,0,0,1.919.542,2.206,2.206,0,0,0,1.343-.366A1.209,1.209,0,0,0,274.59-3.779Zm16.348-7.793H286.67V0h-3.428V-11.572h-4.189v-2.646h11.885ZM296.035,0h-3.418V-14.219h3.418Zm13.887-4.814a5.193,5.193,0,0,1-.8,2.622A4.833,4.833,0,0,1,307.065-.43,7,7,0,0,1,304.043.2a5.584,5.584,0,0,1-4.414-1.826,7.54,7.54,0,0,1-1.611-5.156v-.7a8.607,8.607,0,0,1,.728-3.657,5.512,5.512,0,0,1,2.095-2.422A5.844,5.844,0,0,1,304-14.424a6.129,6.129,0,0,1,4.16,1.362,5.383,5.383,0,0,1,1.787,3.755h-3.418a2.547,2.547,0,0,0-.654-1.865A2.691,2.691,0,0,0,304-11.738a2.047,2.047,0,0,0-1.875.957,6.151,6.151,0,0,0-.625,3.057v1.006a6.806,6.806,0,0,0,.571,3.252,2.091,2.091,0,0,0,1.968.977,2.632,2.632,0,0,0,1.807-.557,2.363,2.363,0,0,0,.664-1.768Zm9.7,2.158h-4.7L314.1,0h-3.662l5.215-14.219h3.223L324.131,0h-3.682ZM315.742-5.3H318.8l-1.533-4.932ZM332.5-3.779a1.408,1.408,0,0,0-.532-1.172,6.615,6.615,0,0,0-1.87-.869,17.941,17.941,0,0,1-2.187-.869q-2.764-1.357-2.764-3.73a3.345,3.345,0,0,1,.688-2.085,4.453,4.453,0,0,1,1.948-1.406,7.582,7.582,0,0,1,2.832-.5,6.632,6.632,0,0,1,2.749.547,4.352,4.352,0,0,1,1.89,1.558,4.068,4.068,0,0,1,.674,2.31H332.51a1.719,1.719,0,0,0-.532-1.348,2.075,2.075,0,0,0-1.44-.479,2.34,2.34,0,0,0-1.45.405,1.243,1.243,0,0,0-.532,1.03,1.252,1.252,0,0,0,.586.991,7.389,7.389,0,0,0,2.061.918,12.623,12.623,0,0,1,2.422,1.021,4.07,4.07,0,0,1,2.3,3.662,3.472,3.472,0,0,1-1.406,2.93A6.255,6.255,0,0,1,330.664.2a7.653,7.653,0,0,1-3.13-.62,4.719,4.719,0,0,1-2.109-1.7,4.427,4.427,0,0,1-.708-2.485h3.438a2.181,2.181,0,0,0,.591,1.685,2.793,2.793,0,0,0,1.919.542,2.206,2.206,0,0,0,1.343-.366A1.209,1.209,0,0,0,332.5-3.779Z" transform="translate(506 8997)" fill="#12263f"/>
        <path id="Trazado_192671" data-name="Trazado 192671" d="M12.578-4.814a5.193,5.193,0,0,1-.8,2.622A4.833,4.833,0,0,1,9.722-.43,7,7,0,0,1,6.7.2,5.584,5.584,0,0,1,2.285-1.631,7.54,7.54,0,0,1,.674-6.787v-.7A8.607,8.607,0,0,1,1.4-11.147,5.513,5.513,0,0,1,3.5-13.569a5.844,5.844,0,0,1,3.164-.854,6.129,6.129,0,0,1,4.16,1.362,5.383,5.383,0,0,1,1.787,3.755H9.189a2.547,2.547,0,0,0-.654-1.865,2.691,2.691,0,0,0-1.875-.566,2.048,2.048,0,0,0-1.875.957A6.151,6.151,0,0,0,4.16-7.725v1.006a6.806,6.806,0,0,0,.571,3.252A2.091,2.091,0,0,0,6.7-2.49a2.632,2.632,0,0,0,1.807-.557A2.363,2.363,0,0,0,9.17-4.814Zm5.049,2.178h5.967V0H14.2V-14.219h3.428ZM33.3-2.656H28.6L27.783,0H24.121l5.215-14.219h3.223L37.813,0H34.131ZM29.424-5.3H32.48l-1.533-4.932ZM46.182-3.779a1.408,1.408,0,0,0-.532-1.172,6.615,6.615,0,0,0-1.87-.869,17.942,17.942,0,0,1-2.187-.869q-2.764-1.357-2.764-3.73a3.345,3.345,0,0,1,.688-2.085,4.453,4.453,0,0,1,1.948-1.406,7.582,7.582,0,0,1,2.832-.5,6.632,6.632,0,0,1,2.749.547,4.352,4.352,0,0,1,1.89,1.558A4.068,4.068,0,0,1,49.609-10H46.191a1.719,1.719,0,0,0-.532-1.348,2.075,2.075,0,0,0-1.44-.479,2.339,2.339,0,0,0-1.45.405,1.243,1.243,0,0,0-.532,1.03,1.252,1.252,0,0,0,.586.991,7.389,7.389,0,0,0,2.061.918A12.623,12.623,0,0,1,47.3-7.461a4.07,4.07,0,0,1,2.3,3.662A3.472,3.472,0,0,1,48.2-.869,6.255,6.255,0,0,1,44.346.2a7.653,7.653,0,0,1-3.13-.62,4.719,4.719,0,0,1-2.109-1.7A4.428,4.428,0,0,1,38.4-4.609h3.438a2.181,2.181,0,0,0,.591,1.685,2.793,2.793,0,0,0,1.919.542,2.206,2.206,0,0,0,1.343-.366A1.209,1.209,0,0,0,46.182-3.779ZM55.02,0H51.6V-14.219H55.02ZM66.357-5.664H60.83V0H57.4V-14.219h9.512v2.646H60.83V-8.3h5.527ZM71.992,0H68.574V-14.219h3.418ZM85.879-4.814a5.193,5.193,0,0,1-.8,2.622A4.833,4.833,0,0,1,83.022-.43,7,7,0,0,1,80,.2a5.584,5.584,0,0,1-4.414-1.826,7.54,7.54,0,0,1-1.611-5.156v-.7a8.607,8.607,0,0,1,.728-3.657A5.513,5.513,0,0,1,76.8-13.569a5.844,5.844,0,0,1,3.164-.854,6.129,6.129,0,0,1,4.16,1.362,5.383,5.383,0,0,1,1.787,3.755H82.49a2.547,2.547,0,0,0-.654-1.865,2.691,2.691,0,0,0-1.875-.566,2.048,2.048,0,0,0-1.875.957,6.151,6.151,0,0,0-.625,3.057v1.006a6.806,6.806,0,0,0,.571,3.252A2.091,2.091,0,0,0,80-2.49a2.632,2.632,0,0,0,1.807-.557,2.363,2.363,0,0,0,.664-1.768Zm9.7,2.158h-4.7L90.059,0H86.4l5.215-14.219h3.223L100.088,0H96.406ZM91.7-5.3h3.057l-1.533-4.932Zm20.723.488a5.193,5.193,0,0,1-.8,2.622A4.833,4.833,0,0,1,109.565-.43,7,7,0,0,1,106.543.2a5.584,5.584,0,0,1-4.414-1.826,7.54,7.54,0,0,1-1.611-5.156v-.7a8.607,8.607,0,0,1,.728-3.657,5.513,5.513,0,0,1,2.095-2.422,5.844,5.844,0,0,1,3.164-.854,6.129,6.129,0,0,1,4.16,1.362,5.383,5.383,0,0,1,1.787,3.755h-3.418a2.547,2.547,0,0,0-.654-1.865,2.691,2.691,0,0,0-1.875-.566,2.048,2.048,0,0,0-1.875.957A6.151,6.151,0,0,0,104-7.725v1.006a6.806,6.806,0,0,0,.571,3.252,2.091,2.091,0,0,0,1.968.977,2.632,2.632,0,0,0,1.807-.557,2.363,2.363,0,0,0,.664-1.768ZM117.7,0h-3.418V-14.219H117.7Zm14.424-6.816a8.385,8.385,0,0,1-.771,3.682,5.7,5.7,0,0,1-2.192,2.466A6.1,6.1,0,0,1,125.918.2,6.191,6.191,0,0,1,122.7-.64,5.692,5.692,0,0,1,120.5-3.027a8.144,8.144,0,0,1-.825-3.564v-.8a8.422,8.422,0,0,1,.767-3.687,5.688,5.688,0,0,1,2.2-2.466,6.147,6.147,0,0,1,3.257-.869,6.087,6.087,0,0,1,3.223.859,5.79,5.79,0,0,1,2.2,2.446,8.18,8.18,0,0,1,.8,3.638Zm-3.486-.6a5.979,5.979,0,0,0-.708-3.218,2.271,2.271,0,0,0-2.026-1.1q-2.578,0-2.725,3.867l-.01,1.045a6.149,6.149,0,0,0,.693,3.213,2.268,2.268,0,0,0,2.061,1.123,2.24,2.24,0,0,0,2-1.1,5.982,5.982,0,0,0,.713-3.174ZM126.3-18.027h3.477l-2.715,3.066h-2.686ZM145.762,0h-3.408l-5.039-8.848V0h-3.428V-14.219h3.428l5.029,8.848v-8.848h3.418Z" transform="translate(926 8997)" fill="#12263f"/>
        <path id="Trazado_192668" data-name="Trazado 192668" d="M12,0H177a12,12,0,0,1,12,12V136a12,12,0,0,1-12,12H12A12,12,0,0,1,0,136V12A12,12,0,0,1,12,0Z" transform="translate(1158 8809)" fill="#4dd0e1"/>
      </g>
    </g>
    <g id="Grupo_144946" data-name="Grupo 144946" transform="translate(440.299 8868.5)">
      <g id="Grupo_144706" data-name="Grupo 144706" clip-path="url(#clip-path-6)">
        <path id="Trazado_191827" data-name="Trazado 191827" d="M52.7,15.5a2.605,2.605,0,0,0-.63-1.6L39.67.722A2.663,2.663,0,0,0,36.28.528,2.422,2.422,0,0,0,36.3,3.919l8.719,9.252h-26.7a2.325,2.325,0,1,0,0,4.65h26.7L36.3,27.073a2.561,2.561,0,0,0-.024,3.391,2.628,2.628,0,0,0,3.391-.194l12.4-13.176a2.237,2.237,0,0,0,.63-1.6Z" transform="translate(0 0)" fill="#ffa726"/>
      </g>
    </g>
    <g id="Grupo_144947" data-name="Grupo 144947" transform="translate(824.299 8868.5)">
      <g id="Grupo_144706-2" data-name="Grupo 144706" clip-path="url(#clip-path-6)">
        <path id="Trazado_191827-2" data-name="Trazado 191827" d="M52.7,15.5a2.605,2.605,0,0,0-.63-1.6L39.67.722A2.663,2.663,0,0,0,36.28.528,2.422,2.422,0,0,0,36.3,3.919l8.719,9.252h-26.7a2.325,2.325,0,1,0,0,4.65h26.7L36.3,27.073a2.561,2.561,0,0,0-.024,3.391,2.628,2.628,0,0,0,3.391-.194l12.4-13.176a2.237,2.237,0,0,0,.63-1.6Z" transform="translate(0 0)" fill="#ffa726"/>
      </g>
    </g>
    <g id="Grupo_144948" data-name="Grupo 144948" transform="translate(1088.299 8868.5)">
      <g id="Grupo_144706-3" data-name="Grupo 144706" clip-path="url(#clip-path-6)">
        <path id="Trazado_191827-3" data-name="Trazado 191827" d="M52.7,15.5a2.605,2.605,0,0,0-.63-1.6L39.67.722A2.663,2.663,0,0,0,36.28.528,2.422,2.422,0,0,0,36.3,3.919l8.719,9.252h-26.7a2.325,2.325,0,1,0,0,4.65h26.7L36.3,27.073a2.561,2.561,0,0,0-.024,3.391,2.628,2.628,0,0,0,3.391-.194l12.4-13.176a2.237,2.237,0,0,0,.63-1.6Z" transform="translate(0 0)" fill="#ffa726"/>
      </g>
    </g>
    <path id="Trazado_192868" data-name="Trazado 192868" d="M8.521-17.773l1.7,12.329,5.957-12.329h5.566L18.665,0h-4.2l.757-4.358,1.807-8.032L10.8,0H8.032L6.018-12.854,4.9-3.943,4.2,0H.024L3.1-17.773ZM28.662,0a3.581,3.581,0,0,1-.171-1.2A4.074,4.074,0,0,1,25.256.244,3.981,3.981,0,0,1,22.4-.9a3.449,3.449,0,0,1-1.062-2.722,3.874,3.874,0,0,1,1.794-3.3,8.46,8.46,0,0,1,4.736-1.154l1.343.024.146-.745.049-.647A1.049,1.049,0,0,0,28.3-10.6a1.544,1.544,0,0,0-1.624,1.453l-4.028.012a3.826,3.826,0,0,1,.867-2.313A5.137,5.137,0,0,1,25.7-12.958a7.656,7.656,0,0,1,2.948-.494,5.9,5.9,0,0,1,2.631.629,3.916,3.916,0,0,1,1.691,1.648A4.21,4.21,0,0,1,33.4-8.74L32.41-2.527l-.061.757a3.336,3.336,0,0,0,.232,1.538L32.568,0ZM26.367-2.661a2.59,2.59,0,0,0,2.161-1.086l.4-2.124-1.038-.012a2.735,2.735,0,0,0-1.66.568,2.153,2.153,0,0,0-.818,1.483,1.081,1.081,0,0,0,.189.824A.966.966,0,0,0,26.367-2.661ZM40.32-2.917A1.722,1.722,0,0,0,41.675-3.4,2.407,2.407,0,0,0,42.3-4.712l3.76-.012a4.943,4.943,0,0,1-.861,2.6A5.2,5.2,0,0,1,43.073-.348,6.279,6.279,0,0,1,40.21.244a4.959,4.959,0,0,1-4.065-1.9,6.564,6.564,0,0,1-1.16-4.779l.037-.293a8.849,8.849,0,0,1,1.123-3.546,6.425,6.425,0,0,1,2.374-2.386,6.158,6.158,0,0,1,3.29-.793,4.911,4.911,0,0,1,3.644,1.471,5.216,5.216,0,0,1,1.288,3.839l-3.76-.012q.061-2.1-1.5-2.136-2.124-.073-2.441,3.577l-.11,1.245L38.916-5Q38.916-2.954,40.32-2.917Zm12.415-8.85a4.316,4.316,0,0,1,3.406-1.7,3.433,3.433,0,0,1,2.948,1.453,5.53,5.53,0,0,1,.69,3.809L58.411,0H54.395l1.379-8.252a4.266,4.266,0,0,0,.024-.781,1.219,1.219,0,0,0-1.343-1.245,2.6,2.6,0,0,0-1.929.793L50.842,0H46.826l3.259-18.75H54.1ZM64.966,0H60.938l2.295-13.208h4.028ZM63.586-16.541a1.862,1.862,0,0,1,.629-1.489,2.257,2.257,0,0,1,1.581-.6,2.33,2.33,0,0,1,1.569.537,1.831,1.831,0,0,1,.653,1.4,1.866,1.866,0,0,1-.623,1.5,2.264,2.264,0,0,1-1.587.592,2.359,2.359,0,0,1-1.556-.531A1.809,1.809,0,0,1,63.586-16.541Zm9.888,3.32-.281,1.587a4.7,4.7,0,0,1,3.821-1.831A3.153,3.153,0,0,1,79.742-12.1a5.7,5.7,0,0,1,.653,3.79L79,0H74.976l1.4-8.337a4.306,4.306,0,0,0,.024-.781q-.085-1.16-1.367-1.16a2.511,2.511,0,0,0-1.941.94L71.448,0H67.432l2.295-13.208ZM87.878.244a6.14,6.14,0,0,1-3.156-.836,5.269,5.269,0,0,1-2.094-2.295,6.166,6.166,0,0,1-.562-3.241L82.1-6.47a8.1,8.1,0,0,1,2.264-5.157,6.264,6.264,0,0,1,4.742-1.825,5.113,5.113,0,0,1,2.905.861,4.81,4.81,0,0,1,1.77,2.307,7.056,7.056,0,0,1,.366,3.3L93.921-5.31H86.06a2.575,2.575,0,0,0,.586,1.685,2.152,2.152,0,0,0,1.636.684,4.157,4.157,0,0,0,3.137-1.343L93.1-2.051A4.972,4.972,0,0,1,91.022-.385,7.292,7.292,0,0,1,88.1.244Zm.977-10.535a2.06,2.06,0,0,0-1.483.537,4.511,4.511,0,0,0-1.093,1.88H90.3l.073-.354a2.707,2.707,0,0,0,.024-.806A1.415,1.415,0,0,0,88.855-10.291ZM105.737-3.3h7.239L112.4,0H100.989l3.076-17.773h4.187Zm14.9,3.54a6.14,6.14,0,0,1-3.156-.836,5.269,5.269,0,0,1-2.094-2.295,6.166,6.166,0,0,1-.562-3.241l.037-.342a8.1,8.1,0,0,1,2.264-5.157,6.264,6.264,0,0,1,4.742-1.825,5.113,5.113,0,0,1,2.905.861,4.81,4.81,0,0,1,1.77,2.307,7.056,7.056,0,0,1,.366,3.3l-.232,1.672h-7.861a2.575,2.575,0,0,0,.586,1.685,2.152,2.152,0,0,0,1.636.684,4.157,4.157,0,0,0,3.137-1.343l1.685,2.234a4.972,4.972,0,0,1-2.081,1.666,7.292,7.292,0,0,1-2.924.629Zm.977-10.535a2.06,2.06,0,0,0-1.483.537,4.511,4.511,0,0,0-1.093,1.88h4.016l.073-.354a2.707,2.707,0,0,0,.024-.806A1.415,1.415,0,0,0,121.619-10.291ZM134.851,0a3.581,3.581,0,0,1-.171-1.2,4.074,4.074,0,0,1-3.235,1.44A3.981,3.981,0,0,1,128.589-.9a3.449,3.449,0,0,1-1.062-2.722,3.874,3.874,0,0,1,1.794-3.3,8.46,8.46,0,0,1,4.736-1.154l1.343.024.146-.745.049-.647a1.049,1.049,0,0,0-1.111-1.147,1.544,1.544,0,0,0-1.624,1.453l-4.028.012a3.826,3.826,0,0,1,.867-2.313,5.137,5.137,0,0,1,2.191-1.514,7.656,7.656,0,0,1,2.948-.494,5.9,5.9,0,0,1,2.631.629,3.916,3.916,0,0,1,1.691,1.648,4.21,4.21,0,0,1,.427,2.435L138.6-2.527l-.061.757a3.336,3.336,0,0,0,.232,1.538L138.757,0Zm-2.295-2.661a2.59,2.59,0,0,0,2.161-1.086l.4-2.124-1.038-.012a2.735,2.735,0,0,0-1.66.568,2.153,2.153,0,0,0-.818,1.483,1.081,1.081,0,0,0,.189.824A.966.966,0,0,0,132.556-2.661Zm17.371-6.824a11.49,11.49,0,0,0-1.245-.122,3.1,3.1,0,0,0-2.759,1.245L144.434,0h-4.016l2.295-13.208,3.748-.012-.305,1.733a3.667,3.667,0,0,1,3.052-2,5.755,5.755,0,0,1,1.245.171Zm5.737-3.735-.281,1.587a4.7,4.7,0,0,1,3.821-1.831,3.153,3.153,0,0,1,2.728,1.361,5.7,5.7,0,0,1,.653,3.79L161.194,0h-4.028l1.4-8.337a4.306,4.306,0,0,0,.024-.781q-.085-1.16-1.367-1.16a2.511,2.511,0,0,0-1.941.94L153.638,0h-4.016l2.295-13.208ZM167.737,0h-4.028L166-13.208h4.028Zm-1.379-16.541a1.862,1.862,0,0,1,.629-1.489,2.257,2.257,0,0,1,1.581-.6,2.33,2.33,0,0,1,1.569.537,1.831,1.831,0,0,1,.653,1.4,1.866,1.866,0,0,1-.623,1.5,2.264,2.264,0,0,1-1.587.592,2.359,2.359,0,0,1-1.556-.531A1.809,1.809,0,0,1,166.357-16.541Zm9.888,3.32-.281,1.587a4.7,4.7,0,0,1,3.821-1.831,3.153,3.153,0,0,1,2.728,1.361,5.7,5.7,0,0,1,.653,3.79L181.775,0h-4.028l1.4-8.337a4.306,4.306,0,0,0,.024-.781q-.085-1.16-1.367-1.16a2.511,2.511,0,0,0-1.941.94L174.219,0H170.2L172.5-13.208Zm8.521,6.592a10.036,10.036,0,0,1,1.093-3.6,6.339,6.339,0,0,1,2.155-2.435,5.188,5.188,0,0,1,2.93-.8,3.607,3.607,0,0,1,3,1.428l.427-1.184,3.711.012-2.161,12.7a6.2,6.2,0,0,1-2.356,4.236A7.5,7.5,0,0,1,188.611,5.2a7.076,7.076,0,0,1-2.551-.525,5.5,5.5,0,0,1-2.112-1.514l1.9-2.368a3.457,3.457,0,0,0,2.759,1.379q2.673.049,3.394-2.844l.1-.4A4.13,4.13,0,0,1,189.087.244,4.072,4.072,0,0,1,186.853-.4a4.214,4.214,0,0,1-1.514-1.813,7.05,7.05,0,0,1-.623-2.637A11.463,11.463,0,0,1,184.766-6.628Zm3.967,1.306a3.2,3.2,0,0,0,.4,1.746,1.366,1.366,0,0,0,1.172.647,2.684,2.684,0,0,0,2.063-.879l1.038-5.6a1.779,1.779,0,0,0-1.636-.879,2.337,2.337,0,0,0-1.965.995,5.363,5.363,0,0,0-1,2.679Q188.733-5.847,188.733-5.322Z" transform="translate(262 8794)" fill="#ffa726"/>
    <path id="Trazado_192869" data-name="Trazado 192869" d="M3.584,0H.244L2.715-14.219h3.33ZM17.5,0H14.268l-3.4-8.975L9.307,0H5.967L8.428-14.219h3.262l3.389,8.975,1.553-8.975h3.34Zm6.367-4.824L23.027,0h-3.34l2.461-14.219,5.107.01a5.145,5.145,0,0,1,3.735,1.318,4.065,4.065,0,0,1,1.2,3.418,4.65,4.65,0,0,1-.918,2.49,5.085,5.085,0,0,1-2.114,1.611,7.476,7.476,0,0,1-2.944.557Zm.459-2.646,2.012.02a2.485,2.485,0,0,0,1.943-.825,2.453,2.453,0,0,0,.537-1.958,1.5,1.5,0,0,0-.454-.942,1.557,1.557,0,0,0-.991-.386l-2.334-.01Zm21.426-6.748L44.17-4.941a5.834,5.834,0,0,1-1.987,3.8A6.057,6.057,0,0,1,38.037.205a5.654,5.654,0,0,1-2.7-.669,3.919,3.919,0,0,1-1.685-1.807,4.861,4.861,0,0,1-.366-2.661l1.582-9.287h3.359l-1.572,9.3a4.465,4.465,0,0,0-.02.928,1.675,1.675,0,0,0,.454,1.123,1.662,1.662,0,0,0,1.147.43q2.148.068,2.588-2.49l1.582-9.287Zm12.5,2.646H54.111L52.109,0H48.76l2.012-11.572H46.7l.469-2.646H58.711Z" transform="translate(295 8997)" fill="#12263f"/>
    <path id="Trazado_192870" data-name="Trazado 192870" d="M5.889.2A4.816,4.816,0,0,1,2.334-1.27,5.966,5.966,0,0,1,.82-5.059a10.831,10.831,0,0,1,.186-2.759,9.693,9.693,0,0,1,1.006-2.925,7.361,7.361,0,0,1,1.807-2.227A6.179,6.179,0,0,1,8-14.414a5.141,5.141,0,0,1,2.544.669A4.666,4.666,0,0,1,12.285-11.9a6.612,6.612,0,0,1,.762,2.734A11.208,11.208,0,0,1,12.915-6.7a10.162,10.162,0,0,1-.771,2.637,8.059,8.059,0,0,1-1.45,2.212A6.671,6.671,0,0,1,8.6-.337,6.059,6.059,0,0,1,5.889.2ZM9.7-9.2Q9.6-11.641,7.8-11.738a2.615,2.615,0,0,0-2.295,1.1A7.053,7.053,0,0,0,4.307-7.2,12.017,12.017,0,0,0,4.17-5.02q.1,2.48,1.914,2.549a2.536,2.536,0,0,0,2.051-.854,5.527,5.527,0,0,0,1.24-2.656A12.76,12.76,0,0,0,9.7-9.2Zm17.158-5.02L25.273-4.941a5.834,5.834,0,0,1-1.987,3.8A6.057,6.057,0,0,1,19.141.205a5.654,5.654,0,0,1-2.7-.669,3.919,3.919,0,0,1-1.685-1.807,4.861,4.861,0,0,1-.366-2.661l1.582-9.287h3.359l-1.572,9.3a4.465,4.465,0,0,0-.02.928A1.675,1.675,0,0,0,18.2-2.871a1.662,1.662,0,0,0,1.147.43q2.148.068,2.588-2.49l1.582-9.287Zm12.5,2.646H35.215L33.213,0h-3.35l2.012-11.572H27.8l.469-2.646H39.814Zm3.652,6.748L42.168,0h-3.34l2.461-14.219,5.107.01a5.145,5.145,0,0,1,3.735,1.318,4.065,4.065,0,0,1,1.2,3.418,4.65,4.65,0,0,1-.918,2.49A5.085,5.085,0,0,1,48.3-5.371a7.476,7.476,0,0,1-2.944.557Zm.459-2.646,2.012.02a2.485,2.485,0,0,0,1.943-.825,2.453,2.453,0,0,0,.537-1.958,1.5,1.5,0,0,0-.454-.942,1.557,1.557,0,0,0-.991-.386l-2.334-.01Zm21.426-6.748L63.311-4.941a5.834,5.834,0,0,1-1.987,3.8A6.057,6.057,0,0,1,57.178.205a5.654,5.654,0,0,1-2.7-.669A3.919,3.919,0,0,1,52.8-2.271a4.861,4.861,0,0,1-.366-2.661l1.582-9.287h3.359L55.8-4.922a4.465,4.465,0,0,0-.02.928,1.675,1.675,0,0,0,.454,1.123,1.662,1.662,0,0,0,1.147.43q2.148.068,2.588-2.49l1.582-9.287Zm12.5,2.646H73.252L71.25,0H67.9l2.012-11.572H65.84l.469-2.646H77.852Z" transform="translate(1218 8997)" fill="#12263f"/>
    <path id="Trazado_192871" data-name="Trazado 192871" d="M-7.515-4.844A5.127,5.127,0,0,1-8.5-2.187,5.551,5.551,0,0,1-10.742-.4a6.954,6.954,0,0,1-3.013.6A4.683,4.683,0,0,1-17.261-1.24,5.77,5.77,0,0,1-18.657-5a12.245,12.245,0,0,1,.347-3.447,9.112,9.112,0,0,1,1.416-3.247,6.506,6.506,0,0,1,2.314-2.07,6.008,6.008,0,0,1,2.915-.659,5.086,5.086,0,0,1,3.677,1.4,5.467,5.467,0,0,1,1.47,3.74l-3.33-.01a2.739,2.739,0,0,0-.469-1.855,2.058,2.058,0,0,0-1.543-.6q-2.637-.088-3.213,4.1a22.537,22.537,0,0,0-.264,2.705q-.049,2.4,1.777,2.471a2.609,2.609,0,0,0,1.885-.581,2.906,2.906,0,0,0,.9-1.753ZM1.753-2.656H-2.788L-4.048,0H-7.729L-.2-14.219H2.944L5.571,0H2.095ZM-1.538-5.3H1.411l-.625-4.9Zm14.326.283H10.933L10.054,0H6.714L9.175-14.219l5.02.01a5.511,5.511,0,0,1,3.716,1.128A3.511,3.511,0,0,1,19.077-10a4.6,4.6,0,0,1-.889,2.554A5.232,5.232,0,0,1,16-5.85L17.915-.166V0H14.351ZM11.382-7.666l1.953.02a2.465,2.465,0,0,0,1.392-.391,2.151,2.151,0,0,0,.845-1.069,2.507,2.507,0,0,0,.146-1.313,1.31,1.31,0,0,0-1.387-1.143l-2.266-.01ZM-29.424,30h-3.232l-3.4-8.975L-37.617,30h-3.34L-38.5,15.781h3.262l3.389,8.975,1.553-8.975h3.34Zm8.057.2a4.816,4.816,0,0,1-3.555-1.465,5.966,5.966,0,0,1-1.514-3.789,10.831,10.831,0,0,1,.186-2.759,9.693,9.693,0,0,1,1.006-2.925,7.361,7.361,0,0,1,1.807-2.227,6.179,6.179,0,0,1,4.18-1.445,5.141,5.141,0,0,1,2.544.669A4.666,4.666,0,0,1-14.971,18.1a6.612,6.612,0,0,1,.762,2.734,11.208,11.208,0,0,1-.132,2.466,10.162,10.162,0,0,1-.771,2.637,8.059,8.059,0,0,1-1.45,2.212,6.671,6.671,0,0,1-2.095,1.519A6.059,6.059,0,0,1-21.367,30.2Zm3.809-9.395q-.1-2.441-1.895-2.539a2.615,2.615,0,0,0-2.295,1.1,7.053,7.053,0,0,0-1.2,3.442,12.017,12.017,0,0,0-.137,2.178q.1,2.48,1.914,2.549a2.536,2.536,0,0,0,2.051-.854,5.527,5.527,0,0,0,1.24-2.656A12.76,12.76,0,0,0-17.559,20.8Zm15.84-2.373H-5.859L-7.861,30h-3.35L-9.2,18.428h-4.072l.469-2.646H-1.26Zm15.732,6.729a5.127,5.127,0,0,1-.981,2.656A5.551,5.551,0,0,1,10.786,29.6a6.954,6.954,0,0,1-3.013.6A4.683,4.683,0,0,1,4.268,28.76,5.77,5.77,0,0,1,2.871,25a12.245,12.245,0,0,1,.347-3.447,9.112,9.112,0,0,1,1.416-3.247,6.506,6.506,0,0,1,2.314-2.07,6.008,6.008,0,0,1,2.915-.659,5.086,5.086,0,0,1,3.677,1.4,5.467,5.467,0,0,1,1.47,3.74l-3.33-.01a2.739,2.739,0,0,0-.469-1.855,2.058,2.058,0,0,0-1.543-.6q-2.637-.088-3.213,4.1a22.537,22.537,0,0,0-.264,2.705q-.049,2.4,1.777,2.471a2.609,2.609,0,0,0,1.885-.581,2.906,2.906,0,0,0,.9-1.753Zm9.268,2.188H18.74L17.48,30H13.8l7.529-14.219h3.145L27.1,30H23.623ZM19.99,24.7h2.949l-.625-4.9Zm14.326.283H32.461L31.582,30h-3.34L30.7,15.781l5.02.01a5.511,5.511,0,0,1,3.716,1.128A3.511,3.511,0,0,1,40.605,20a4.6,4.6,0,0,1-.889,2.554,5.232,5.232,0,0,1-2.187,1.6l1.914,5.684V30H35.879ZM32.91,22.334l1.953.02a2.465,2.465,0,0,0,1.392-.391,2.151,2.151,0,0,0,.845-1.069,2.507,2.507,0,0,0,.146-1.313,1.31,1.31,0,0,0-1.387-1.143l-2.266-.01Z" transform="translate(1254 8873)" fill="#fff"/>
  </g>
</svg>
