<svg id="Grupo_144139" data-name="Grupo 144139" xmlns="http://www.w3.org/2000/svg" xmlns:xlink="http://www.w3.org/1999/xlink" width="200.6" height="132.156" viewBox="0 0 200.6 132.156">
  <defs>
    <clipPath id="clip-path">
      <rect id="Rectángulo_43452" data-name="Rectángulo 43452" width="200.6" height="132.156" fill="none"/>
    </clipPath>
  </defs>
  <g id="Grupo_144138" data-name="Grupo 144138" clip-path="url(#clip-path)">
    <path id="Trazado_190494" data-name="Trazado 190494" d="M52.666,22.066l-.048-.018a1.482,1.482,0,0,0-1.906.887,1.521,1.521,0,0,0,.9,1.94,1.5,1.5,0,0,0,1.054-2.809" fill="#a09a9d"/>
    <path id="Trazado_190495" data-name="Trazado 190495" d="M25.975,52.224a1.479,1.479,0,0,0-1.979-.7,1.522,1.522,0,0,0-.722,2.01l.025.054a1.5,1.5,0,0,0,1.36.865,1.485,1.485,0,0,0,.635-.142,1.5,1.5,0,0,0,.723-1.994Z" fill="#a09a9d"/>
    <path id="Trazado_190496" data-name="Trazado 190496" d="M31.313,24.613l.79,1.277-.843-1.241a1.5,1.5,0,0,0,1.684,2.483l.112-.078a1.5,1.5,0,0,0-1.743-2.441" fill="#a09a9d"/>
    <path id="Trazado_190497" data-name="Trazado 190497" d="M29,56.98a1.47,1.47,0,0,0-2.082-.1,1.532,1.532,0,0,0-.122,2.132l.02.024a1.479,1.479,0,0,0,1.12.512,1.5,1.5,0,0,0,1.134-2.493L29,56.98" fill="#a09a9d"/>
    <path id="Trazado_190498" data-name="Trazado 190498" d="M24.374,46.783a1.5,1.5,0,0,0-2.959.494l1.495-.148-1.484.217a1.5,1.5,0,1,0,2.968-.435c0-.01-.018-.118-.02-.128" fill="#a09a9d"/>
    <path id="Trazado_190499" data-name="Trazado 190499" d="M25.088,33.721a1.5,1.5,0,0,0-1.975.772l-.042.1a1.46,1.46,0,0,0,.8,1.929,1.417,1.417,0,0,0,.57.118,1.573,1.573,0,0,0,1.424-.938,1.5,1.5,0,0,0-.773-1.976" fill="#a09a9d"/>
    <path id="Trazado_190500" data-name="Trazado 190500" d="M64.707,35.907l1.4-.526A1.5,1.5,0,1,0,63.3,36.433c.006.019.049.129.057.147a1.49,1.49,0,0,0,1.376.915,1.5,1.5,0,0,0,1.391-2.074Z" fill="#a09a9d"/>
    <path id="Trazado_190501" data-name="Trazado 190501" d="M23.026,39.462a1.5,1.5,0,0,0-1.665,1.314l-.01.078a1.5,1.5,0,1,0,2.974.394l.016-.122a1.5,1.5,0,0,0-1.315-1.664" fill="#a09a9d"/>
    <path id="Trazado_190502" data-name="Trazado 190502" d="M62.906,29.69a1.458,1.458,0,0,0-2.061-.234,1.543,1.543,0,0,0-.267,2.127,1.5,1.5,0,1,0,2.41-1.786c-.007-.009-.074-.1-.082-.107" fill="#a09a9d"/>
    <path id="Trazado_190503" data-name="Trazado 190503" d="M28.609,28.788a1.53,1.53,0,0,0-2.123.231l-.02.025a1.494,1.494,0,0,0,1.157,2.441,1.517,1.517,0,0,0,1.169-.547c.007-.007.06-.073.066-.081a1.467,1.467,0,0,0-.249-2.069" fill="#a09a9d"/>
    <path id="Trazado_190504" data-name="Trazado 190504" d="M33.363,60.814l-.125-.081a1.5,1.5,0,1,0-1.582,2.549l.043.028a1.5,1.5,0,0,0,1.664-2.5" fill="#a09a9d"/>
    <path id="Trazado_190505" data-name="Trazado 190505" d="M66.073,46.444a1.53,1.53,0,0,0-1.742,1.24,1.5,1.5,0,0,0,1.156,1.78,1.609,1.609,0,0,0,.314.032,1.5,1.5,0,0,0,1.465-1.189l.029-.149a1.481,1.481,0,0,0-1.222-1.714" fill="#a09a9d"/>
    <path id="Trazado_190506" data-name="Trazado 190506" d="M64.515,52.308A1.5,1.5,0,0,0,62.51,53l-.046.091a1.479,1.479,0,0,0,.7,1.975,1.464,1.464,0,0,0,.65.152,1.537,1.537,0,0,0,1.364-.839c0-.008.031-.062.036-.071a1.5,1.5,0,0,0-.695-2" fill="#a09a9d"/>
    <path id="Trazado_190507" data-name="Trazado 190507" d="M38.38,63.181a1.5,1.5,0,1,0-.882,2.867l.1.031a1.448,1.448,0,0,0,1.826-1.014,1.541,1.541,0,0,0-1.046-1.884" fill="#a09a9d"/>
    <path id="Trazado_190508" data-name="Trazado 190508" d="M59.232,57.676A1.5,1.5,0,0,0,61.4,59.754l.09-.1a1.471,1.471,0,0,0-.111-2.094,1.53,1.53,0,0,0-2.143.113" fill="#a09a9d"/>
    <path id="Trazado_190509" data-name="Trazado 190509" d="M65.976,40.381a1.542,1.542,0,0,0-1.357,1.676,1.5,1.5,0,0,0,1.492,1.368c.044,0,.089,0,.134-.006a1.5,1.5,0,0,0,1.362-1.626l-.009-.1a1.461,1.461,0,0,0-1.622-1.312" fill="#a09a9d"/>
    <path id="Trazado_190510" data-name="Trazado 190510" d="M49.624,63.429a1.5,1.5,0,0,0,.352,2.958,1.543,1.543,0,0,0,.355-.042l.138-.036A1.458,1.458,0,0,0,51.478,64.5a1.541,1.541,0,0,0-1.854-1.071" fill="#a09a9d"/>
    <path id="Trazado_190511" data-name="Trazado 190511" d="M58.371,25.2l-.088-.064a1.455,1.455,0,0,0-2.056.338A1.544,1.544,0,0,0,56.57,27.6a1.5,1.5,0,1,0,1.8-2.4" fill="#a09a9d"/>
    <path id="Trazado_190512" data-name="Trazado 190512" d="M44.083,64.1l-.144,0a1.5,1.5,0,0,0,0,3h.1a1.5,1.5,0,0,0,.043-3" fill="#a09a9d"/>
    <path id="Trazado_190513" data-name="Trazado 190513" d="M54.823,61.235a1.5,1.5,0,0,0,1.518,2.588l.117-.071a1.459,1.459,0,0,0,.451-2.024,1.544,1.544,0,0,0-2.086-.493" fill="#a09a9d"/>
    <path id="Trazado_190514" data-name="Trazado 190514" d="M37.213,21.708c-.031.01-.109.035-.14.047a1.478,1.478,0,0,0-.87,1.878,1.513,1.513,0,0,0,1.438,1.011,1.531,1.531,0,0,0,.442-.065,1.5,1.5,0,1,0-.87-2.871" fill="#a09a9d"/>
    <path id="Trazado_190515" data-name="Trazado 190515" d="M75.263,26.189l-.124.106a1.493,1.493,0,0,0,1,2.6,1.533,1.533,0,0,0,1.014-.382,1.5,1.5,0,0,0-1.895-2.326" fill="#a09a9d"/>
    <path id="Trazado_190516" data-name="Trazado 190516" d="M112.732,37.185a1.46,1.46,0,0,0-1.857-.958,1.54,1.54,0,0,0-.989,1.913,1.5,1.5,0,0,0,1.439,1.077,1.518,1.518,0,0,0,.424-.06,1.5,1.5,0,0,0,1.016-1.863Z" fill="#a09a9d"/>
    <path id="Trazado_190517" data-name="Trazado 190517" d="M77.069,59.074a1.5,1.5,0,0,0-1.9,2.325L76.2,60.3l-.994,1.123a1.5,1.5,0,1,0,1.988-2.246Z" fill="#a09a9d"/>
    <path id="Trazado_190518" data-name="Trazado 190518" d="M81.936,62.24a1.485,1.485,0,0,0-1.967.754,1.516,1.516,0,0,0,.758,1.992l.083.037a1.432,1.432,0,0,0,.578.123,1.487,1.487,0,0,0,1.348-.909,1.544,1.544,0,0,0-.8-2" fill="#a09a9d"/>
    <path id="Trazado_190519" data-name="Trazado 190519" d="M109.955,31.176a1.5,1.5,0,1,0-2.51,1.645l.056.084a1.5,1.5,0,1,0,2.51-1.644Z" fill="#a09a9d"/>
    <path id="Trazado_190520" data-name="Trazado 190520" d="M71.289,54.272a1.5,1.5,0,0,0-.483,2.066l.075.116a1.446,1.446,0,0,0,1.219.659,1.512,1.512,0,0,0,1.254-2.358,1.5,1.5,0,0,0-2.065-.483" fill="#a09a9d"/>
    <path id="Trazado_190521" data-name="Trazado 190521" d="M68.663,42.3a1.526,1.526,0,0,0-1.5,1.529v.043a1.5,1.5,0,1,0,3,0v-.1a1.476,1.476,0,0,0-1.5-1.471" fill="#a09a9d"/>
    <path id="Trazado_190522" data-name="Trazado 190522" d="M72.916,30.745a1.509,1.509,0,0,0-2.061.5l1.232.858-1.255-.822a1.5,1.5,0,0,0,2.51,1.645l.086-.137a1.494,1.494,0,0,0-.512-2.048" fill="#a09a9d"/>
    <path id="Trazado_190523" data-name="Trazado 190523" d="M69.938,36.2A1.5,1.5,0,0,0,68.1,37.264l-.014.047a1.5,1.5,0,1,0,2.871.869L71,38.032A1.5,1.5,0,0,0,69.938,36.2" fill="#a09a9d"/>
    <path id="Trazado_190524" data-name="Trazado 190524" d="M80.787,22.653l-.072.033a1.5,1.5,0,0,0,1.234,2.735l.111-.051a1.5,1.5,0,0,0-1.273-2.717" fill="#a09a9d"/>
    <path id="Trazado_190525" data-name="Trazado 190525" d="M69.1,48.468A1.5,1.5,0,0,0,68.08,50.33l.034.11a1.44,1.44,0,0,0,1.4,1.027,1.563,1.563,0,0,0,.459-.069,1.539,1.539,0,0,0,.988-1.913A1.5,1.5,0,0,0,69.1,48.468" fill="#a09a9d"/>
    <path id="Trazado_190526" data-name="Trazado 190526" d="M112.2,42.289a1.539,1.539,0,0,0-1.5,1.544v.1a1.5,1.5,0,1,0,3,0v-.189a1.464,1.464,0,0,0-1.5-1.456" fill="#a09a9d"/>
    <path id="Trazado_190527" data-name="Trazado 190527" d="M103.667,59.18a1.5,1.5,0,0,0,1.895,2.326l.124-.106a1.483,1.483,0,0,0,.114-2.1,1.52,1.52,0,0,0-2.133-.116" fill="#a09a9d"/>
    <path id="Trazado_190528" data-name="Trazado 190528" d="M100.155,22.69l-.145-.065a1.476,1.476,0,0,0-1.955.782,1.519,1.519,0,0,0,.793,1.984,1.5,1.5,0,0,0,1.307-2.7" fill="#a09a9d"/>
    <path id="Trazado_190529" data-name="Trazado 190529" d="M104.626,27.333l.994-1.123a1.5,1.5,0,1,0-1.988,2.246l.124.106a1.474,1.474,0,0,0,.938.335,1.5,1.5,0,0,0,.957-2.66Z" fill="#a09a9d"/>
    <path id="Trazado_190530" data-name="Trazado 190530" d="M109.57,54.34a1.5,1.5,0,0,0-2.077.433l-.069.1a1.5,1.5,0,0,0,2.536,1.606l.043-.067a1.5,1.5,0,0,0-.433-2.077" fill="#a09a9d"/>
    <path id="Trazado_190531" data-name="Trazado 190531" d="M111.755,48.527a1.5,1.5,0,0,0-1.87,1l-.043.148a1.5,1.5,0,0,0,1.065,1.833,1.474,1.474,0,0,0,.386.051,1.5,1.5,0,0,0,1.449-1.116l.014-.047a1.5,1.5,0,0,0-1-1.87" fill="#a09a9d"/>
    <path id="Trazado_190532" data-name="Trazado 190532" d="M93.236,63.907a1.5,1.5,0,0,0,.21,2.985,1.733,1.733,0,0,0,.214-.014l.106-.016a1.459,1.459,0,0,0,1.219-1.695,1.541,1.541,0,0,0-1.749-1.26" fill="#a09a9d"/>
    <path id="Trazado_190533" data-name="Trazado 190533" d="M87.156,20.794l-.106.016A1.459,1.459,0,0,0,85.831,22.5a1.559,1.559,0,0,0,1.749,1.26,1.5,1.5,0,0,0-.424-2.971" fill="#a09a9d"/>
    <path id="Trazado_190534" data-name="Trazado 190534" d="M87.574,63.9l-.106-.016a1.5,1.5,0,1,0-.424,2.971l.094.014a1.65,1.65,0,0,0,.22.015,1.5,1.5,0,0,0,.216-2.984" fill="#a09a9d"/>
    <path id="Trazado_190535" data-name="Trazado 190535" d="M93.73,20.8l-.053-.008a1.5,1.5,0,1,0-.435,2.969l.148.019a1.429,1.429,0,0,0,.172.01,1.5,1.5,0,0,0,.168-2.99" fill="#a09a9d"/>
    <path id="Trazado_190536" data-name="Trazado 190536" d="M98.853,62.271l-.11.051a1.465,1.465,0,0,0-.671,1.967,1.507,1.507,0,0,0,1.377.854,1.543,1.543,0,0,0,.631-.134l.025-.011a1.49,1.49,0,0,0,.74-1.978,1.51,1.51,0,0,0-1.992-.749" fill="#a09a9d"/>
    <path id="Trazado_190537" data-name="Trazado 190537" d="M126.787,22.653l-.072.033a1.5,1.5,0,0,0,1.234,2.735l.111-.051a1.5,1.5,0,0,0-1.273-2.717" fill="#a09a9d"/>
    <path id="Trazado_190538" data-name="Trazado 190538" d="M123.069,59.074a1.5,1.5,0,0,0-1.9,2.325l1.026-1.1-.994,1.123a1.5,1.5,0,1,0,1.988-2.246Z" fill="#a09a9d"/>
    <path id="Trazado_190539" data-name="Trazado 190539" d="M127.936,62.24a1.485,1.485,0,0,0-1.967.754,1.516,1.516,0,0,0,.758,1.992l.083.037a1.432,1.432,0,0,0,.578.123,1.487,1.487,0,0,0,1.348-.909,1.544,1.544,0,0,0-.8-2" fill="#a09a9d"/>
    <path id="Trazado_190540" data-name="Trazado 190540" d="M121.263,26.189l-.124.106a1.493,1.493,0,0,0,1,2.6,1.533,1.533,0,0,0,1.014-.382,1.5,1.5,0,0,0-1.895-2.326" fill="#a09a9d"/>
    <path id="Trazado_190541" data-name="Trazado 190541" d="M117.289,54.272a1.5,1.5,0,0,0-.483,2.066l.075.116a1.446,1.446,0,0,0,1.219.659,1.512,1.512,0,0,0,1.254-2.358,1.5,1.5,0,0,0-2.065-.483" fill="#a09a9d"/>
    <path id="Trazado_190542" data-name="Trazado 190542" d="M155.956,31.176a1.5,1.5,0,1,0-2.51,1.645l.056.084a1.5,1.5,0,1,0,2.51-1.644Z" fill="#a09a9d"/>
    <path id="Trazado_190543" data-name="Trazado 190543" d="M115.1,48.468a1.5,1.5,0,0,0-1.017,1.862l.034.11a1.44,1.44,0,0,0,1.4,1.027,1.563,1.563,0,0,0,.459-.069,1.539,1.539,0,0,0,.988-1.913,1.5,1.5,0,0,0-1.862-1.017" fill="#a09a9d"/>
    <path id="Trazado_190544" data-name="Trazado 190544" d="M158.732,37.185a1.46,1.46,0,0,0-1.857-.958,1.54,1.54,0,0,0-.989,1.913,1.5,1.5,0,0,0,1.439,1.077,1.518,1.518,0,0,0,.424-.06,1.5,1.5,0,0,0,1.016-1.863Z" fill="#a09a9d"/>
    <path id="Trazado_190545" data-name="Trazado 190545" d="M115.938,36.2a1.5,1.5,0,0,0-1.835,1.065l-.014.047a1.5,1.5,0,1,0,2.871.869l.043-.148a1.5,1.5,0,0,0-1.065-1.833" fill="#a09a9d"/>
    <path id="Trazado_190546" data-name="Trazado 190546" d="M114.663,42.3a1.526,1.526,0,0,0-1.5,1.529v.043a1.5,1.5,0,0,0,3,0v-.1a1.476,1.476,0,0,0-1.5-1.471" fill="#a09a9d"/>
    <path id="Trazado_190547" data-name="Trazado 190547" d="M118.916,30.745a1.508,1.508,0,0,0-2.061.5l1.232.858-1.255-.822a1.5,1.5,0,0,0,2.51,1.645l.086-.137a1.494,1.494,0,0,0-.512-2.048" fill="#a09a9d"/>
    <path id="Trazado_190548" data-name="Trazado 190548" d="M150.626,27.333l.994-1.123a1.5,1.5,0,0,0-1.988,2.246l.124.106a1.474,1.474,0,0,0,.938.335,1.5,1.5,0,0,0,.957-2.66Z" fill="#a09a9d"/>
    <path id="Trazado_190549" data-name="Trazado 190549" d="M155.57,54.34a1.5,1.5,0,0,0-2.077.433l-.069.1a1.5,1.5,0,0,0,2.536,1.606l.043-.067a1.5,1.5,0,0,0-.433-2.077" fill="#a09a9d"/>
    <path id="Trazado_190550" data-name="Trazado 190550" d="M157.755,48.527a1.5,1.5,0,0,0-1.87,1l-.043.148a1.5,1.5,0,0,0,1.065,1.833,1.474,1.474,0,0,0,.386.051,1.5,1.5,0,0,0,1.449-1.116l.014-.047a1.5,1.5,0,0,0-1-1.87" fill="#a09a9d"/>
    <path id="Trazado_190551" data-name="Trazado 190551" d="M149.667,59.18a1.5,1.5,0,0,0,1.895,2.326l.124-.106a1.483,1.483,0,0,0,.114-2.1,1.52,1.52,0,0,0-2.133-.116" fill="#a09a9d"/>
    <path id="Trazado_190552" data-name="Trazado 190552" d="M158.2,42.289a1.539,1.539,0,0,0-1.5,1.544v.1a1.5,1.5,0,0,0,3,0v-.189a1.464,1.464,0,0,0-1.5-1.456" fill="#a09a9d"/>
    <path id="Trazado_190553" data-name="Trazado 190553" d="M133.156,20.794l-.106.016a1.459,1.459,0,0,0-1.219,1.695,1.559,1.559,0,0,0,1.749,1.26,1.5,1.5,0,0,0-.424-2.971" fill="#a09a9d"/>
    <path id="Trazado_190554" data-name="Trazado 190554" d="M133.574,63.9l-.107-.016a1.5,1.5,0,0,0-.423,2.971l.094.014a1.65,1.65,0,0,0,.22.015,1.5,1.5,0,0,0,.216-2.984" fill="#a09a9d"/>
    <path id="Trazado_190555" data-name="Trazado 190555" d="M146.155,22.69l-.145-.065a1.477,1.477,0,0,0-1.955.782,1.519,1.519,0,0,0,.793,1.984,1.5,1.5,0,1,0,1.307-2.7" fill="#a09a9d"/>
    <path id="Trazado_190556" data-name="Trazado 190556" d="M139.236,63.907a1.5,1.5,0,0,0,.21,2.985,1.733,1.733,0,0,0,.214-.014l.106-.016a1.459,1.459,0,0,0,1.219-1.695,1.539,1.539,0,0,0-1.749-1.26" fill="#a09a9d"/>
    <path id="Trazado_190557" data-name="Trazado 190557" d="M144.853,62.271l-.11.051a1.465,1.465,0,0,0-.671,1.967,1.507,1.507,0,0,0,1.377.854,1.543,1.543,0,0,0,.631-.134L146.1,65a1.49,1.49,0,0,0,.74-1.978,1.51,1.51,0,0,0-1.992-.749" fill="#a09a9d"/>
    <path id="Trazado_190558" data-name="Trazado 190558" d="M139.73,20.8l-.053-.008a1.5,1.5,0,0,0-.435,2.969l.148.019a1.429,1.429,0,0,0,.172.01,1.5,1.5,0,0,0,.168-2.99" fill="#a09a9d"/>
    <path id="Trazado_190559" data-name="Trazado 190559" d="M45.233,55.055l.023,25.671,21.7,12.39,22.009-12.39V55.49L67.111,42.872Z" fill="#9eeef8"/>
    <path id="Trazado_190560" data-name="Trazado 190560" d="M89.715,54.191,67.861,41.573a1.5,1.5,0,0,0-1.48-.012L44.5,53.743a1.5,1.5,0,0,0-.77,1.312l.022,25.672a1.5,1.5,0,0,0,.756,1.3l21.7,12.389a1.495,1.495,0,0,0,1.48,0L89.7,82.033a1.5,1.5,0,0,0,.765-1.307V55.49a1.5,1.5,0,0,0-.75-1.3m-2.25,25.658-20.5,11.542L46.754,79.855l-.02-23.92L67.1,44.6l20.368,11.76Z" fill="#565154"/>
    <path id="Trazado_190561" data-name="Trazado 190561" d="M67.684,65.787,45.96,53.743l-1.455,2.623L65.456,67.982V93.116h3V67.1a1.5,1.5,0,0,0-.772-1.312" fill="#565154"/>
    <line id="Línea_1890" data-name="Línea 1890" x1="22.009" y2="11.609" transform="translate(66.957 55.49)" fill="#ed7545"/>
    <rect id="Rectángulo_43444" data-name="Rectángulo 43444" width="24.883" height="3.001" transform="translate(66.257 65.772) rotate(-27.812)" fill="#565154"/>
    <path id="Trazado_190562" data-name="Trazado 190562" d="M67.359,92.595l.023,25.671,21.7,12.39,22.009-12.39V93.03L89.237,80.412Z" fill="#9eeef8"/>
    <path id="Trazado_190563" data-name="Trazado 190563" d="M111.842,91.731,89.987,79.113a1.5,1.5,0,0,0-1.48-.012L66.629,91.284a1.5,1.5,0,0,0-.77,1.311l.023,25.672a1.5,1.5,0,0,0,.756,1.3l21.7,12.389a1.495,1.495,0,0,0,1.48,0l22.008-12.389a1.5,1.5,0,0,0,.765-1.307V93.03a1.5,1.5,0,0,0-.75-1.3m-2.25,25.658-20.5,11.542L68.881,117.395l-.021-23.92L89.223,82.136,109.592,93.9Z" fill="#565154"/>
    <path id="Trazado_190564" data-name="Trazado 190564" d="M89.811,103.327,68.086,91.283l-1.455,2.623,20.952,11.616v25.134h3V104.639a1.5,1.5,0,0,0-.772-1.312" fill="#565154"/>
    <line id="Línea_1891" data-name="Línea 1891" x1="22.009" y2="11.609" transform="translate(89.083 93.03)" fill="#ed7545"/>
    <rect id="Rectángulo_43445" data-name="Rectángulo 43445" width="24.883" height="3.001" transform="translate(88.384 103.312) rotate(-27.812)" fill="#565154"/>
    <path id="Trazado_190565" data-name="Trazado 190565" d="M1.5,55.241V80.477L23.221,93.1,45.21,80.477l.023-24.925L23.355,42.623Z" fill="#ffa726"/>
    <path id="Trazado_190566" data-name="Trazado 190566" d="M46,54.26,24.118,41.332a1.5,1.5,0,0,0-1.513-.008L.75,53.942a1.5,1.5,0,0,0-.75,1.3V80.477a1.5,1.5,0,0,0,.747,1.3l21.72,12.618a1.5,1.5,0,0,0,1.5,0l21.99-12.618a1.5,1.5,0,0,0,.753-1.3l.023-24.926A1.5,1.5,0,0,0,46,54.26M43.711,79.608,23.225,91.363,3,79.614V56.107L23.346,44.36,43.732,56.407Z" fill="#565154"/>
    <path id="Trazado_190567" data-name="Trazado 190567" d="M23.953,66.076,2.232,53.931.768,56.551,21.721,68.266V93.1h3V67.386a1.5,1.5,0,0,0-.768-1.31" fill="#565154"/>
    <line id="Línea_1892" data-name="Línea 1892" x1="22.012" y2="11.833" transform="translate(23.221 55.552)" fill="#ed7545"/>
    <rect id="Rectángulo_43446" data-name="Rectángulo 43446" width="24.991" height="3.001" transform="translate(22.51 66.064) rotate(-28.265)" fill="#565154"/>
    <path id="Trazado_190568" data-name="Trazado 190568" d="M23.221,91.749V117.52l22.012,12.619,21.724-12.162V92.284L45.232,79.916Z" fill="#9eeef8"/>
    <path id="Trazado_190569" data-name="Trazado 190569" d="M67.7,90.98,45.975,78.612a1.5,1.5,0,0,0-1.453-.018L22.51,90.427a1.5,1.5,0,0,0-.79,1.321V117.52a1.5,1.5,0,0,0,.754,1.3L44.486,131.44a1.5,1.5,0,0,0,1.479.007l21.723-12.161a1.5,1.5,0,0,0,.768-1.309V92.284a1.5,1.5,0,0,0-.758-1.3M65.456,117.1,45.241,128.414,24.72,116.651V92.645L45.211,81.629,65.456,93.156Z" fill="#565154"/>
    <path id="Trazado_190570" data-name="Trazado 190570" d="M45.63,102.585,23.954,90.44l-1.467,2.618L43.4,104.773v25.366h3V103.894a1.5,1.5,0,0,0-.767-1.309" fill="#565154"/>
    <line id="Línea_1893" data-name="Línea 1893" x1="22.06" y2="11.609" transform="translate(44.897 92.284)" fill="#ed7545"/>
    <rect id="Rectángulo_43447" data-name="Rectángulo 43447" width="24.929" height="2.999" transform="translate(44.198 102.568) rotate(-27.761)" fill="#565154"/>
    <path id="Trazado_190571" data-name="Trazado 190571" d="M133.241,55.055l.023,25.671,21.7,12.39,22.009-12.39V55.49L155.119,42.872Z" fill="#9eeef8"/>
    <path id="Trazado_190572" data-name="Trazado 190572" d="M177.724,54.191,155.869,41.573a1.5,1.5,0,0,0-1.48-.012L132.511,53.743a1.5,1.5,0,0,0-.77,1.312l.023,25.672a1.5,1.5,0,0,0,.756,1.3l21.7,12.389a1.5,1.5,0,0,0,1.48,0l22.008-12.389a1.5,1.5,0,0,0,.765-1.307V55.49a1.5,1.5,0,0,0-.75-1.3m-2.25,25.658-20.5,11.542L134.763,79.855l-.021-23.92L155.1,44.6l20.369,11.76Z" fill="#565154"/>
    <path id="Trazado_190573" data-name="Trazado 190573" d="M155.693,65.787,133.968,53.743l-1.455,2.623,20.952,11.616V93.116h3V67.1a1.5,1.5,0,0,0-.772-1.312" fill="#565154"/>
    <line id="Línea_1894" data-name="Línea 1894" x1="22.009" y2="11.609" transform="translate(154.965 55.49)" fill="#ed7545"/>
    <rect id="Rectángulo_43448" data-name="Rectángulo 43448" width="24.883" height="3.001" transform="translate(154.265 65.772) rotate(-27.812)" fill="#565154"/>
    <path id="Trazado_190574" data-name="Trazado 190574" d="M155.367,92.595l.023,25.671,21.7,12.39,22.009-12.39V93.03L177.245,80.412Z" fill="#9eeef8"/>
    <path id="Trazado_190575" data-name="Trazado 190575" d="M199.85,91.731,177.995,79.113a1.5,1.5,0,0,0-1.479-.012L154.638,91.284a1.5,1.5,0,0,0-.77,1.311l.022,25.672a1.5,1.5,0,0,0,.756,1.3l21.7,12.389a1.495,1.495,0,0,0,1.48,0l22.008-12.389a1.5,1.5,0,0,0,.765-1.307V93.03a1.5,1.5,0,0,0-.75-1.3m-2.25,25.658-20.5,11.542-20.207-11.536-.021-23.92,20.364-11.339L197.6,93.9Z" fill="#565154"/>
    <path id="Trazado_190576" data-name="Trazado 190576" d="M177.819,103.327,156.1,91.283l-1.455,2.623,20.951,11.616v25.134h3V104.639a1.5,1.5,0,0,0-.772-1.312" fill="#565154"/>
    <line id="Línea_1895" data-name="Línea 1895" x1="22.009" y2="11.609" transform="translate(177.091 93.03)" fill="#ed7545"/>
    <rect id="Rectángulo_43449" data-name="Rectángulo 43449" width="24.883" height="3.001" transform="translate(176.391 103.312) rotate(-27.812)" fill="#565154"/>
    <path id="Trazado_190577" data-name="Trazado 190577" d="M89.508,55.241V80.477L111.229,93.1l21.989-12.618.023-24.925L111.363,42.623Z" fill="#9eeef8"/>
    <path id="Trazado_190578" data-name="Trazado 190578" d="M134,54.26,112.126,41.332a1.493,1.493,0,0,0-1.512-.008L88.758,53.942a1.5,1.5,0,0,0-.75,1.3V80.477a1.5,1.5,0,0,0,.746,1.3l21.721,12.618a1.5,1.5,0,0,0,1.5,0l21.989-12.618a1.5,1.5,0,0,0,.754-1.3l.022-24.926A1.5,1.5,0,0,0,134,54.26m-2.284,25.348L111.234,91.363,91.008,79.614V56.107L111.355,44.36,131.74,56.407Z" fill="#565154"/>
    <path id="Trazado_190579" data-name="Trazado 190579" d="M111.961,66.076,90.24,53.931l-1.465,2.62,20.954,11.715V93.1h3V67.386a1.5,1.5,0,0,0-.768-1.31" fill="#565154"/>
    <line id="Línea_1896" data-name="Línea 1896" x1="22.012" y2="11.833" transform="translate(111.229 55.552)" fill="#ed7545"/>
    <rect id="Rectángulo_43450" data-name="Rectángulo 43450" width="24.991" height="3" transform="matrix(0.881, -0.473, 0.473, 0.881, 110.517, 66.061)" fill="#565154"/>
    <path id="Trazado_190580" data-name="Trazado 190580" d="M111.229,91.749V117.52l22.012,12.619,21.724-12.162V92.284L133.241,79.916Z" fill="#9eeef8"/>
    <path id="Trazado_190581" data-name="Trazado 190581" d="M155.707,90.98,133.983,78.612a1.5,1.5,0,0,0-1.453-.018L110.519,90.427a1.5,1.5,0,0,0-.79,1.321V117.52a1.5,1.5,0,0,0,.754,1.3l22.011,12.618a1.5,1.5,0,0,0,1.479.007L155.7,119.286a1.5,1.5,0,0,0,.768-1.309V92.284a1.5,1.5,0,0,0-.758-1.3M153.465,117.1l-20.216,11.316-20.52-11.763V92.645L133.22,81.629l20.245,11.527Z" fill="#565154"/>
    <path id="Trazado_190582" data-name="Trazado 190582" d="M133.638,102.585,111.962,90.44,110.5,93.058,131.4,104.773v25.366h3V103.894a1.5,1.5,0,0,0-.767-1.309" fill="#565154"/>
    <line id="Línea_1897" data-name="Línea 1897" x1="22.06" y2="11.609" transform="translate(132.905 92.284)" fill="#ed7545"/>
    <rect id="Rectángulo_43451" data-name="Rectángulo 43451" width="24.929" height="2.999" transform="translate(132.205 102.564) rotate(-27.744)" fill="#565154"/>
    <path id="Trazado_190583" data-name="Trazado 190583" d="M51.961,7.532a7.532,7.532,0,0,0-15.065,0v7.4H34.664v19.53H54.193V14.935H51.961ZM46.79,30.175H42.067l1.019-6.5a2.425,2.425,0,1,1,2.686,0ZM50.2,14.935H38.66v-7.4a5.768,5.768,0,0,1,11.537,0Z" fill="#1565c0"/>
  </g>
</svg>
