<svg xmlns="http://www.w3.org/2000/svg" xmlns:xlink="http://www.w3.org/1999/xlink" width="353.065" height="281.652" viewBox="0 0 353.065 281.652">
  <defs>
    <clipPath id="clip-path">
      <rect id="Rectángulo_42699" data-name="Rectángulo 42699" width="26.21" height="38.068" fill="#4dd0e1"/>
    </clipPath>
    <clipPath id="clip-path-2">
      <rect id="Rectángulo_42700" data-name="Rectángulo 42700" width="33.502" height="41.016" fill="#4dd0e1"/>
    </clipPath>
    <clipPath id="clip-path-3">
      <rect id="Rectángulo_42701" data-name="Rectángulo 42701" width="21.428" height="49.459" fill="#4dd0e1"/>
    </clipPath>
    <clipPath id="clip-path-4">
      <rect id="Rectángulo_42704" data-name="Rectángulo 42704" width="83.343" height="59.5" fill="none"/>
    </clipPath>
  </defs>
  <g id="Grupo_143616" data-name="Grupo 143616" transform="translate(-305.867 -2847.041)">
    <g id="Grupo_143606" data-name="Grupo 143606" transform="translate(-122 -440.984)">
      <path id="Trazado_189285" data-name="Trazado 189285" d="M243.147,385.22l-.163,104.625,88.525,51.109,1.6-116.474-47.941-63.862Z" transform="translate(265.854 3023.53)" fill="#eef4f5"/>
      <path id="Trazado_189286" data-name="Trazado 189286" d="M294.255,580.385l22.484,13.281.44-52.828-22.6-12.2Z" transform="translate(242.612 2947.367)" fill="#ffa726"/>
      <path id="Trazado_189287" data-name="Trazado 189287" d="M340.959,463.8l.241,22.743,11.032,6.331-.1-22.832Z" transform="translate(221.441 2976.755)" fill="#99dbde"/>
      <path id="Trazado_189288" data-name="Trazado 189288" d="M339.242,460.656l.279,25.113,12.865,7.4-.1-25.229Zm2.083,23.813-.206-20.371,9.3,5.2.1,20.438Z" transform="translate(222.22 2978.182)" fill="#fff"/>
      <path id="Trazado_189289" data-name="Trazado 189289" d="M336.188,456.168l.032,2.678,16.367,9.147-.008-2.695Z" transform="translate(223.604 2980.217)" fill="#fff"/>
      <path id="Trazado_189290" data-name="Trazado 189290" d="M336.744,502.495l.031,2.606,16.144,9.293-.009-2.62Z" transform="translate(223.353 2959.217)" fill="#fff"/>
      <path id="Trazado_189291" data-name="Trazado 189291" d="M362.045,498.367l11.2,6.428.042-22.925-11.342-6.339Z" transform="translate(211.929 2971.439)" fill="#99dbde"/>
      <path id="Trazado_189292" data-name="Trazado 189292" d="M360.34,497.575l13.062,7.508.059-25.331-13.244-7.392Zm11.208-16.462-.026,20.52-9.335-5.351-.08-20.453Z" transform="translate(212.712 2972.877)" fill="#fff"/>
      <path id="Trazado_189293" data-name="Trazado 189293" d="M357.148,470.525l16.621,9.288.009-2.706-16.645-9.272Z" transform="translate(214.11 2974.928)" fill="#fff"/>
      <path id="Trazado_189294" data-name="Trazado 189294" d="M357.418,516.967l16.39,9.435.009-2.631-16.414-9.42Z" transform="translate(213.987 2953.842)" fill="#fff"/>
      <path id="Trazado_189295" data-name="Trazado 189295" d="M264.937,421.006l.241,22.743,11.032,6.332-.1-22.832Z" transform="translate(255.903 2996.156)" fill="#99dbde"/>
      <path id="Trazado_189296" data-name="Trazado 189296" d="M263.219,417.858l.279,25.114,12.865,7.395-.1-25.229Zm2.083,23.814L265.1,421.3l9.3,5.2.1,20.438Z" transform="translate(256.682 2997.583)" fill="#fff"/>
      <path id="Trazado_189297" data-name="Trazado 189297" d="M260.166,413.37l.032,2.679,16.368,9.147-.008-2.695Z" transform="translate(258.065 2999.617)" fill="#fff"/>
      <path id="Trazado_189298" data-name="Trazado 189298" d="M260.722,459.7l.031,2.606L276.9,471.6l-.008-2.62Z" transform="translate(257.813 2978.617)" fill="#fff"/>
      <path id="Trazado_189299" data-name="Trazado 189299" d="M286.023,455.57l11.2,6.428.041-22.925-11.341-6.338Z" transform="translate(246.39 2990.839)" fill="#99dbde"/>
      <path id="Trazado_189300" data-name="Trazado 189300" d="M284.318,454.778l13.061,7.507.06-25.331-13.244-7.391Zm11.208-16.462-.026,20.52-9.335-5.351-.079-20.453Z" transform="translate(247.174 2992.277)" fill="#fff"/>
      <path id="Trazado_189301" data-name="Trazado 189301" d="M281.126,427.727l16.621,9.288.009-2.706-16.646-9.273Z" transform="translate(248.571 2994.328)" fill="#fff"/>
      <path id="Trazado_189302" data-name="Trazado 189302" d="M281.4,474.169l16.389,9.434.009-2.63-16.413-9.42Z" transform="translate(248.449 2973.242)" fill="#fff"/>
      <path id="Trazado_189303" data-name="Trazado 189303" d="M357.552,601.548l13.412,7.743.313-27.838-13.514-7.934Z" transform="translate(213.92 2927.021)" fill="#99dbde"/>
      <path id="Trazado_189304" data-name="Trazado 189304" d="M355.762,600.742l15.331,8.843.354-30.735-15.46-9.086Zm2.152-26.878,11.568,6.786-.273,24.939-11.49-6.64Z" transform="translate(214.731 2928.723)" fill="#fff"/>
      <path id="Trazado_189305" data-name="Trazado 189305" d="M352.519,567.477l19.405,11.395.039-3.26L352.54,564.185Z" transform="translate(216.201 2931.252)" fill="#fff"/>
      <path id="Trazado_189306" data-name="Trazado 189306" d="M352.136,624.622l19.243,11.089.038-3.2-19.26-11.12Z" transform="translate(216.375 2905.322)" fill="#fff"/>
      <path id="Trazado_189307" data-name="Trazado 189307" d="M257.444,543.919l13.412,7.743.313-27.838-13.513-7.935Z" transform="translate(259.299 2953.145)" fill="#99dbde"/>
      <path id="Trazado_189308" data-name="Trazado 189308" d="M255.655,543.113l15.331,8.843.353-30.735-15.46-9.086Zm2.152-26.878,11.568,6.786L269.1,547.96l-11.489-6.64Z" transform="translate(260.11 2954.846)" fill="#fff"/>
      <path id="Trazado_189309" data-name="Trazado 189309" d="M252.411,509.849l19.405,11.394.039-3.259-19.423-11.427Z" transform="translate(261.581 2957.375)" fill="#fff"/>
      <path id="Trazado_189310" data-name="Trazado 189310" d="M252.028,566.994l19.243,11.089.038-3.2-19.259-11.12Z" transform="translate(261.754 2931.445)" fill="#fff"/>
      <path id="Trazado_189311" data-name="Trazado 189311" d="M299.6,556.455l17.08,9.217.14-17.409-17.108-8.953Z" transform="translate(240.189 2942.528)" fill="#ffca28"/>
      <path id="Trazado_189312" data-name="Trazado 189312" d="M299.345,600.668l17.043,9.546.139-22.078-17.072-9.286Z" transform="translate(240.306 2924.604)" fill="#ffca28"/>
      <path id="Trazado_189313" data-name="Trazado 189313" d="M278.142,619.4l31.852,18.225,4.516-2.905L283,616.521Z" transform="translate(249.917 2907.527)" fill="#fff"/>
      <path id="Trazado_189314" data-name="Trazado 189314" d="M278.142,522.741l31.852,18.226,4.4-2.905-31.513-18.2Z" transform="translate(249.917 2951.342)" fill="#fff"/>
      <path id="Trazado_189315" data-name="Trazado 189315" d="M278.142,527.792l31.966,18.316.051-2.7-32.01-18.155Z" transform="translate(249.917 2948.899)" fill="#fff"/>
      <path id="Trazado_189316" data-name="Trazado 189316" d="M336.66,558.678l4.257-2.707V553.15l-4.231,2.905Z" transform="translate(223.39 2936.254)" fill="#fff"/>
      <path id="Trazado_189317" data-name="Trazado 189317" d="M278.142,624.447l31.966,18.316.051-2.7-32.01-18.155Z" transform="translate(249.917 2905.085)" fill="#fff"/>
      <path id="Trazado_189318" data-name="Trazado 189318" d="M336.66,655.333l4.257-2.707V649.8l-4.231,2.905Z" transform="translate(223.39 2892.439)" fill="#fff"/>
      <path id="Trazado_189319" data-name="Trazado 189319" d="M330.331,587.52a2.172,2.172,0,1,0,1.584,2.091,1.891,1.891,0,0,0-1.584-2.091" transform="translate(226.978 2920.674)" fill="#c8bd93"/>
      <path id="Trazado_189320" data-name="Trazado 189320" d="M404.911,548.014l109.7-63.945V376.192l-108.1,55.348Z" transform="translate(192.452 3016.471)" fill="#c9d6d9"/>
      <path id="Trazado_189321" data-name="Trazado 189321" d="M221.715,380.605s2.222,5.107,6.427,2.9l46.705-26.246,55.581,71.7c5.628,7.281,8.781,3.851,8.781,3.851l-63.984-82.288Z" transform="translate(275.495 3028.108)" fill="#ffca28"/>
      <path id="Trazado_189322" data-name="Trazado 189322" d="M319.6,302.3l63.983,82.288,103.074-58.015L422.67,244.152Z" transform="translate(231.125 3076.324)" fill="#ffca28"/>
      <path id="Trazado_189323" data-name="Trazado 189323" d="M443.29,563.974l.313,27.838,26.98-15.687-.211-28.03Z" transform="translate(175.054 2938.546)" fill="#99dbde"/>
      <path id="Trazado_189324" data-name="Trazado 189324" d="M456.957,553.857l-15.462,8.865v30.11l29.145-16.564-.22-30.324ZM443.734,589l-.275-25.1,11.527-6.658.131,11.348.107,13.777Zm13.46-7.657-.1-9.551-.116-15.586,11.516-6.648.2,25.077Z" transform="translate(175.868 2939.521)" fill="#fff"/>
      <path id="Trazado_189325" data-name="Trazado 189325" d="M550.48,508.551l.313,27.838,13.411-7.743-.21-28.03Z" transform="translate(126.465 2960.068)" fill="#99dbde"/>
      <path id="Trazado_189326" data-name="Trazado 189326" d="M548.683,505.949l.354,30.735,15.33-8.843-.225-30.977Zm2.238,26.738-.273-24.939,11.567-6.786.2,25.086Z" transform="translate(127.279 2961.77)" fill="#fff"/>
      <path id="Trazado_189327" data-name="Trazado 189327" d="M545.049,502.711l.039,3.259,19.405-11.395-.022-3.291Z" transform="translate(128.927 2964.298)" fill="#fff"/>
      <path id="Trazado_189328" data-name="Trazado 189328" d="M545.732,559.605l.039,3.2,19.242-11.089-.022-3.236Z" transform="translate(128.617 2938.369)" fill="#fff"/>
      <path id="Trazado_189329" data-name="Trazado 189329" d="M436.632,557.706l.04,3.26L471.1,540.641l-.022-3.292Z" transform="translate(178.072 2943.417)" fill="#fff"/>
      <path id="Trazado_189330" data-name="Trazado 189330" d="M437.315,615.114l.039,3.2,34.758-19.4-.022-3.235Z" transform="translate(177.763 2916.974)" fill="#fff"/>
      <path id="Trazado_189331" data-name="Trazado 189331" d="M338.33,358.433l-6.914,3.93,1.119,1.438,6.686-3.8a.9.9,0,1,0-.891-1.567" transform="translate(225.768 3024.574)" fill="#ffa726"/>
      <path id="Trazado_189332" data-name="Trazado 189332" d="M361.808,341.48,347.7,349.5a.9.9,0,0,0,.892,1.568l14.109-8.021a.9.9,0,1,0-.891-1.567" transform="translate(218.593 3032.259)" fill="#ffa726"/>
      <path id="Trazado_189333" data-name="Trazado 189333" d="M391.63,324.526l-14.11,8.021a.9.9,0,0,0,.892,1.567l14.109-8.021a.9.9,0,1,0-.891-1.567" transform="translate(205.075 3039.944)" fill="#ffa726"/>
      <path id="Trazado_189334" data-name="Trazado 189334" d="M421.451,307.574l-14.109,8.02a.9.9,0,0,0,.892,1.568l14.109-8.021a.9.9,0,1,0-.892-1.567" transform="translate(191.557 3047.629)" fill="#ffa726"/>
      <path id="Trazado_189335" data-name="Trazado 189335" d="M451.273,290.621l-14.109,8.021a.9.9,0,1,0,.891,1.567l14.109-8.021a.9.9,0,0,0-.892-1.568" transform="translate(178.038 3055.313)" fill="#ffa726"/>
      <path id="Trazado_189336" data-name="Trazado 189336" d="M481.1,273.668l-14.109,8.021a.9.9,0,1,0,.891,1.567l14.109-8.021a.9.9,0,0,0-.892-1.568" transform="translate(164.52 3062.998)" fill="#ffa726"/>
      <path id="Trazado_189337" data-name="Trazado 189337" d="M496.809,265.733a.9.9,0,1,0,.891,1.567l12.427-7.064L509.01,258.8Z" transform="translate(151.001 3069.686)" fill="#ffa726"/>
      <path id="Trazado_189338" data-name="Trazado 189338" d="M359.474,368.8l-14.109,8.021c-.013.008-.02.021-.033.029l1.113,1.431,13.92-7.913a.9.9,0,0,0-.891-1.567" transform="translate(219.459 3019.877)" fill="#ffa726"/>
      <path id="Trazado_189339" data-name="Trazado 189339" d="M388.946,351.843l-14.109,8.021a.9.9,0,0,0,.891,1.567l14.109-8.021a.9.9,0,0,0-.891-1.567" transform="translate(206.291 3027.561)" fill="#ffa726"/>
      <path id="Trazado_189340" data-name="Trazado 189340" d="M418.768,334.89l-14.109,8.021a.9.9,0,1,0,.892,1.567l14.109-8.021a.9.9,0,0,0-.891-1.567" transform="translate(192.772 3035.246)" fill="#ffa726"/>
      <path id="Trazado_189341" data-name="Trazado 189341" d="M448.59,317.937l-14.109,8.02a.9.9,0,0,0,.892,1.568l14.109-8.021a.9.9,0,1,0-.891-1.567" transform="translate(179.254 3042.932)" fill="#ffa726"/>
      <path id="Trazado_189342" data-name="Trazado 189342" d="M478.412,300.984,464.3,309a.9.9,0,1,0,.892,1.567l14.109-8.021a.9.9,0,1,0-.891-1.567" transform="translate(165.736 3050.615)" fill="#ffa726"/>
      <path id="Trazado_189343" data-name="Trazado 189343" d="M508.233,284.031l-14.109,8.021a.9.9,0,1,0,.891,1.567l14.109-8.021a.9.9,0,1,0-.891-1.567" transform="translate(152.218 3058.301)" fill="#5d4e51"/>
      <path id="Trazado_189344" data-name="Trazado 189344" d="M523.947,279.51a.9.9,0,1,0,.891,1.567l5.184-2.947-1.117-1.439Z" transform="translate(138.699 3061.574)" fill="#ffa726"/>
      <path id="Trazado_189345" data-name="Trazado 189345" d="M363.053,397.415l-3.824,2.173,1.118,1.439,3.6-2.045a.9.9,0,1,0-.891-1.567" transform="translate(213.159 3006.903)" fill="#ffa726"/>
      <path id="Trazado_189346" data-name="Trazado 189346" d="M383.968,380.463l-14.109,8.021a.9.9,0,1,0,.891,1.567l14.109-8.021a.9.9,0,1,0-.891-1.567" transform="translate(208.548 3014.588)" fill="#ffa726"/>
      <path id="Trazado_189347" data-name="Trazado 189347" d="M413.791,363.51l-14.109,8.021a.9.9,0,0,0,.891,1.568l14.109-8.021a.9.9,0,0,0-.891-1.568" transform="translate(195.029 3022.272)" fill="#ffa726"/>
      <path id="Trazado_189348" data-name="Trazado 189348" d="M443.613,346.556,429.5,354.577a.9.9,0,0,0,.891,1.568l14.109-8.021a.9.9,0,0,0-.891-1.568" transform="translate(181.511 3029.957)" fill="#ffa726"/>
      <path id="Trazado_189349" data-name="Trazado 189349" d="M473.434,329.6l-14.109,8.02a.9.9,0,0,0,.891,1.568l14.109-8.021a.9.9,0,0,0-.891-1.567" transform="translate(167.992 3037.643)" fill="#ffa726"/>
      <path id="Trazado_189350" data-name="Trazado 189350" d="M503.256,312.651l-14.109,8.021a.9.9,0,1,0,.892,1.567l14.109-8.021a.9.9,0,0,0-.891-1.567" transform="translate(154.474 3045.327)" fill="#ffa726"/>
      <path id="Trazado_189351" data-name="Trazado 189351" d="M533.078,295.7l-14.109,8.021a.9.9,0,1,0,.892,1.567l14.109-8.021a.9.9,0,0,0-.891-1.567" transform="translate(140.955 3053.012)" fill="#ffa726"/>
      <path id="Trazado_189352" data-name="Trazado 189352" d="M384.193,407.779l-11.057,6.286,1.119,1.438,10.83-6.157a.9.9,0,1,0-.891-1.567" transform="translate(206.855 3002.205)" fill="#ffa726"/>
      <path id="Trazado_189353" data-name="Trazado 189353" d="M411.107,390.825,397,398.846a.9.9,0,0,0,.892,1.568L412,392.393a.9.9,0,0,0-.891-1.567" transform="translate(196.245 3009.891)" fill="#ffa726"/>
      <path id="Trazado_189354" data-name="Trazado 189354" d="M440.928,373.873l-14.109,8.021a.9.9,0,1,0,.891,1.567l14.109-8.021a.9.9,0,1,0-.891-1.567" transform="translate(182.728 3017.574)" fill="#ffa726"/>
      <path id="Trazado_189355" data-name="Trazado 189355" d="M470.75,356.92l-14.109,8.021a.9.9,0,1,0,.891,1.567l14.109-8.021a.9.9,0,1,0-.891-1.567" transform="translate(169.209 3025.26)" fill="#ffa726"/>
      <path id="Trazado_189356" data-name="Trazado 189356" d="M500.572,339.967l-14.109,8.021a.9.9,0,0,0,.891,1.567l14.109-8.021a.9.9,0,1,0-.891-1.568" transform="translate(155.69 3032.944)" fill="#ffa726"/>
      <path id="Trazado_189357" data-name="Trazado 189357" d="M530.395,323.014l-14.109,8.021a.9.9,0,0,0,.891,1.568l14.109-8.021a.9.9,0,1,0-.891-1.567" transform="translate(142.172 3040.629)" fill="#ffa726"/>
      <path id="Trazado_189358" data-name="Trazado 189358" d="M546.108,317.044a.9.9,0,0,0,.891,1.567l8.257-4.694-1.117-1.439Z" transform="translate(128.653 3045.352)" fill="#ffa726"/>
      <path id="Trazado_189359" data-name="Trazado 189359" d="M387.776,436.4l-.733.417,1.118,1.438.507-.288a.9.9,0,0,0-.892-1.567" transform="translate(200.552 2989.231)" fill="#ffa726"/>
      <path id="Trazado_189360" data-name="Trazado 189360" d="M406.128,419.445l-14.109,8.021a.9.9,0,1,0,.891,1.567l14.109-8.021a.9.9,0,0,0-.892-1.567" transform="translate(198.502 2996.917)" fill="#ffa726"/>
      <path id="Trazado_189361" data-name="Trazado 189361" d="M435.95,402.493l-14.109,8.021a.9.9,0,1,0,.892,1.567l14.109-8.021a.9.9,0,1,0-.892-1.567" transform="translate(184.983 3004.602)" fill="#ffa726"/>
      <path id="Trazado_189362" data-name="Trazado 189362" d="M465.772,385.54l-14.109,8.021a.9.9,0,0,0,.892,1.567l14.109-8.021a.9.9,0,1,0-.892-1.568" transform="translate(171.465 3012.286)" fill="#ffa726"/>
      <path id="Trazado_189363" data-name="Trazado 189363" d="M495.6,368.587l-14.109,8.021a.9.9,0,0,0,.892,1.567l14.109-8.021a.9.9,0,1,0-.891-1.567" transform="translate(157.946 3019.971)" fill="#ffa726"/>
      <path id="Trazado_189364" data-name="Trazado 189364" d="M525.417,351.635l-14.109,8.02a.9.9,0,0,0,.892,1.568l14.109-8.021a.9.9,0,1,0-.891-1.567" transform="translate(144.428 3027.655)" fill="#ffa726"/>
      <path id="Trazado_189365" data-name="Trazado 189365" d="M555.239,334.681,541.13,342.7a.9.9,0,1,0,.892,1.568l14.109-8.021a.9.9,0,1,0-.891-1.567" transform="translate(130.909 3035.341)" fill="#ffa726"/>
      <path id="Trazado_189366" data-name="Trazado 189366" d="M570.952,331.534a.9.9,0,0,0,.891,1.567l2.269-1.29-1.117-1.439Z" transform="translate(117.392 3037.24)" fill="#ffa726"/>
      <path id="Trazado_189367" data-name="Trazado 189367" d="M408.916,446.762l-7.967,4.529,1.119,1.439,7.74-4.4a.9.9,0,0,0-.892-1.567" transform="translate(194.248 2984.533)" fill="#ffa726"/>
      <path id="Trazado_189368" data-name="Trazado 189368" d="M433.267,429.809l-14.109,8.02a.9.9,0,1,0,.891,1.568l14.109-8.021a.9.9,0,0,0-.892-1.567" transform="translate(186.2 2992.219)" fill="#ffa726"/>
      <path id="Trazado_189369" data-name="Trazado 189369" d="M463.089,412.855l-14.109,8.021a.9.9,0,0,0,.892,1.568l14.109-8.021a.9.9,0,0,0-.892-1.567" transform="translate(172.682 2999.904)" fill="#ffa726"/>
      <path id="Trazado_189370" data-name="Trazado 189370" d="M492.912,395.9,478.8,403.924a.9.9,0,1,0,.892,1.567l14.109-8.02a.9.9,0,0,0-.891-1.568" transform="translate(159.163 3007.588)" fill="#ffa726"/>
      <path id="Trazado_189371" data-name="Trazado 189371" d="M522.733,378.95l-14.109,8.021a.9.9,0,1,0,.892,1.567l14.109-8.021a.9.9,0,1,0-.891-1.567" transform="translate(145.645 3015.273)" fill="#ffa726"/>
      <path id="Trazado_189372" data-name="Trazado 189372" d="M552.555,362l-14.109,8.02a.9.9,0,0,0,.892,1.568l14.109-8.021a.9.9,0,1,0-.891-1.567" transform="translate(132.126 3022.958)" fill="#ffa726"/>
      <path id="Trazado_189373" data-name="Trazado 189373" d="M568.268,354.579a.9.9,0,0,0,.892,1.567l11.33-6.441-1.117-1.439Z" transform="translate(118.607 3029.129)" fill="#ffa726"/>
      <path id="Trazado_189374" data-name="Trazado 189374" d="M428.8,458.428l-13.947,7.929,1.118,1.438,13.72-7.8a.9.9,0,0,0-.891-1.568" transform="translate(187.943 2979.246)" fill="#ffa726"/>
      <path id="Trazado_189375" data-name="Trazado 189375" d="M458.112,441.475,444,449.5a.9.9,0,1,0,.891,1.568L459,443.043a.9.9,0,0,0-.891-1.568" transform="translate(174.938 2986.93)" fill="#ffa726"/>
      <path id="Trazado_189376" data-name="Trazado 189376" d="M487.933,424.524l-14.109,8.021a.9.9,0,0,0,.891,1.568l14.109-8.021a.9.9,0,0,0-.892-1.567" transform="translate(161.42 2994.614)" fill="#ffa726"/>
      <path id="Trazado_189377" data-name="Trazado 189377" d="M517.755,407.57l-14.109,8.021a.9.9,0,1,0,.891,1.567l14.109-8.021a.9.9,0,0,0-.892-1.567" transform="translate(147.901 3002.3)" fill="#ffa726"/>
      <path id="Trazado_189378" data-name="Trazado 189378" d="M547.577,390.617l-14.109,8.021a.9.9,0,1,0,.892,1.567l14.109-8.02a.9.9,0,0,0-.892-1.568" transform="translate(134.383 3009.984)" fill="#ffa726"/>
      <path id="Trazado_189379" data-name="Trazado 189379" d="M577.4,373.664l-14.109,8.021a.9.9,0,1,0,.892,1.567l14.109-8.021a.9.9,0,0,0-.891-1.567" transform="translate(120.864 3017.67)" fill="#ffa726"/>
      <path id="Trazado_189380" data-name="Trazado 189380" d="M593.113,369.068a.9.9,0,0,0,.892,1.568l5.342-3.037-1.117-1.439Z" transform="translate(107.346 3021.018)" fill="#5d4e51"/>
      <path id="Trazado_189381" data-name="Trazado 189381" d="M433.639,485.744l-4.877,2.773,1.118,1.439,4.65-2.644a.9.9,0,0,0-.891-1.567" transform="translate(181.64 2966.863)" fill="#ffa726"/>
      <path id="Trazado_189382" data-name="Trazado 189382" d="M455.428,468.792l-14.109,8.021a.9.9,0,1,0,.891,1.567l14.109-8.021a.9.9,0,0,0-.891-1.567" transform="translate(176.154 2974.547)" fill="#ffa726"/>
      <path id="Trazado_189383" data-name="Trazado 189383" d="M485.25,451.839l-14.109,8.021a.9.9,0,1,0,.891,1.567l14.109-8.021a.9.9,0,0,0-.891-1.567" transform="translate(162.636 2982.232)" fill="#ffa726"/>
      <path id="Trazado_189384" data-name="Trazado 189384" d="M515.072,434.885l-14.109,8.021a.9.9,0,1,0,.891,1.568l14.109-8.021a.9.9,0,0,0-.891-1.568" transform="translate(149.117 2989.918)" fill="#ffa726"/>
      <path id="Trazado_189385" data-name="Trazado 189385" d="M544.894,417.933l-14.109,8.021a.9.9,0,0,0,.891,1.568l14.109-8.021a.9.9,0,1,0-.891-1.567" transform="translate(135.599 2997.602)" fill="#ffa726"/>
      <path id="Trazado_189386" data-name="Trazado 189386" d="M574.716,400.98,560.608,409a.9.9,0,0,0,.891,1.568l14.109-8.021a.9.9,0,1,0-.891-1.567" transform="translate(122.08 3005.287)" fill="#ffa726"/>
      <path id="Trazado_189387" data-name="Trazado 189387" d="M604.538,384.1l-14.109,8.021a.9.9,0,0,0,.891,1.567l14.109-8.02a.9.9,0,0,0,.254-.22l-1.066-1.373a.812.812,0,0,0-.078.026" transform="translate(108.563 3012.896)" fill="#5d4e51"/>
      <path id="Trazado_189388" data-name="Trazado 189388" d="M495.688,286.463l9.23,5.208,9.046-5.193-9.151-5.284Z" transform="translate(151.302 3059.533)" fill="#55474a"/>
      <path id="Trazado_189389" data-name="Trazado 189389" d="M495.688,285.722l9.23,5.329v-3.257l-9.23-5.208Z" transform="translate(151.302 3058.902)" fill="#ab9ea1"/>
      <path id="Trazado_189390" data-name="Trazado 189390" d="M512.57,291.063l9.046-5.5v-2.952l-9.046,5.194Z" transform="translate(143.649 3058.891)" fill="#716567"/>
      <path id="Trazado_189391" data-name="Trazado 189391" d="M495.688,311.727l9.23,11.178V295.861l-9.23-5.208Z" transform="translate(151.302 3055.245)" fill="#eef4f5"/>
      <path id="Trazado_189392" data-name="Trazado 189392" d="M512.57,322.917l9.046-5.5V290.68l-9.046,5.193Z" transform="translate(143.649 3055.233)" fill="#c9d6d9"/>
      <path id="Trazado_189393" data-name="Trazado 189393" d="M495.688,278.216l9.23,5.208,9.046-5.193-9.151-5.284Z" transform="translate(151.302 3063.271)" fill="#12263f"/>
    </g>
    <g id="Grupo_143605" data-name="Grupo 143605" transform="translate(195 -311.542)">
      <path id="Trazado_189274" data-name="Trazado 189274" d="M87.176,6.2l-73,42.145a10.134,10.134,0,0,0-4.6,7.967l.472,166.424c.008,2.929,2.081,4.11,4.63,2.638l73-42.144a10.134,10.134,0,0,0,4.6-7.966L91.8,8.839C91.8,5.911,89.723,4.73,87.176,6.2M57.54,193.954,44.781,201.32c-.843.486-1.529.1-1.531-.872a3.355,3.355,0,0,1,1.521-2.637l12.759-7.367c.842-.487,1.528-.094,1.531.875a3.351,3.351,0,0,1-1.521,2.634M14.822,209.933l-.415-146.36L87.035,21.641,87.45,168Z" transform="translate(371.657 3184.477)" fill="#12263f"/>
      <path id="Trazado_189275" data-name="Trazado 189275" d="M85.447,343.566l-12.759,7.367a3.355,3.355,0,0,0-1.521,2.636c0,.969.688,1.36,1.531.873l12.759-7.366a3.353,3.353,0,0,0,1.521-2.635c0-.969-.688-1.361-1.531-.874" transform="translate(343.739 3031.354)" fill="#336f8d"/>
      <path id="Trazado_189276" data-name="Trazado 189276" d="M18.408,76.9l.415,146.36L91.45,181.328l-.415-146.36Z" transform="translate(367.655 3171.148)" fill="#4dd0e1"/>
      <path id="Trazado_189277" data-name="Trazado 189277" d="M19.167,302.223l72.627-41.932.043-51.129L19.21,251.095Z" transform="translate(367.312 3092.186)" fill="#fff"/>
      <path id="Trazado_189278" data-name="Trazado 189278" d="M77.6.633,4.6,42.778A10.135,10.135,0,0,0,0,50.745L.472,217.169a3.232,3.232,0,0,0,1.346,2.96l5.237,3.043a3.232,3.232,0,0,1-1.346-2.96L5.237,53.788a10.137,10.137,0,0,1,4.6-7.967l73-42.144a3.255,3.255,0,0,1,3.282-.321L80.877.312A3.254,3.254,0,0,0,77.6.633" transform="translate(376 3187)" fill="#17242b"/>
      <path id="Trazado_189279" data-name="Trazado 189279" d="M87.056,175.044c-3.6-2.053-8.321-1.394-13.036,1.329a37.411,37.411,0,0,0-13,13.705c-.751,1.3-.747,2.7.009,3.13a1.373,1.373,0,0,0,1.364-.138,3.929,3.929,0,0,0,1.36-1.435A29.571,29.571,0,0,1,74.031,180.8c3.729-2.153,7.463-2.676,10.312-1.055a1.366,1.366,0,0,0,1.362-.136,3.9,3.9,0,0,0,1.359-1.435c.751-1.3.746-2.7-.009-3.13" transform="translate(348.595 3108.197)" fill="#fff"/>
      <path id="Trazado_189280" data-name="Trazado 189280" d="M88.351,149.67c-5.771-3.289-13.337-2.231-20.894,2.132s-15.1,12.031-20.837,21.962c-.751,1.3-.747,2.7.009,3.13a1.368,1.368,0,0,0,1.361-.136,3.917,3.917,0,0,0,1.36-1.435c4.986-8.635,11.548-15.3,18.119-19.1s13.149-4.713,18.167-1.853A1.376,1.376,0,0,0,87,154.233a3.914,3.914,0,0,0,1.36-1.433c.748-1.3.744-2.7-.009-3.13" transform="translate(355.121 3120.027)" fill="#fff"/>
      <path id="Trazado_189281" data-name="Trazado 189281" d="M89.607,124.967c-7.636-4.351-17.769-3.324-28.535,2.891S40.2,144.732,32.613,157.873c-.751,1.3-.747,2.7.009,3.13a1.367,1.367,0,0,0,1.364-.138,3.9,3.9,0,0,0,1.36-1.435c6.863-11.883,16-21.524,25.738-27.144s18.9-6.549,25.808-2.615a1.372,1.372,0,0,0,1.365-.138,3.9,3.9,0,0,0,1.36-1.434c.751-1.3.747-2.7-.009-3.13" transform="translate(361.471 3131.555)" fill="#fff"/>
      <path id="Trazado_189282" data-name="Trazado 189282" d="M31.187,308.743l.048,16.771,14.6-8.428-.048-16.771Z" transform="translate(361.862 3050.865)" fill="#99dbde"/>
      <path id="Trazado_189283" data-name="Trazado 189283" d="M72.239,285.043l.048,16.771,14.6-8.427-.048-16.77Z" transform="translate(343.254 3061.608)" fill="#ffa726"/>
      <path id="Trazado_189284" data-name="Trazado 189284" d="M113.29,261.341l.048,16.771,14.6-8.427-.048-16.771Z" transform="translate(324.645 3072.353)" fill="#99dbde"/>
    </g>
    <g id="Grupo_143608" data-name="Grupo 143608" transform="translate(381.21 2906)">
      <g id="Grupo_143607" data-name="Grupo 143607" clip-path="url(#clip-path)">
        <path id="Trazado_189394" data-name="Trazado 189394" d="M16.117,36.535c-1.226-3.611-2.718-7.462-3.906-10.418s-2.073-5.019-2.078-5.03a2.206,2.206,0,0,0-.856-1.028.651.651,0,0,0-.861.036,67.308,67.308,0,0,0-4.156,5.476A38.49,38.49,0,0,0,1.379,30.48,17.3,17.3,0,0,0,.4,32.961,8.675,8.675,0,0,0,0,35.392a18.681,18.681,0,0,0,2.68,9.049,18.805,18.805,0,0,0,6.509,6.865c2.542,1.468,4.856,1.615,6.526.661s2.713-3.01,2.721-5.93a14.066,14.066,0,0,0-.385-2.886,64.578,64.578,0,0,0-1.934-6.616m-1.852,12.92c-1.3.742-3.088.631-5.069-.513a14.584,14.584,0,0,1-5.057-5.334A14.492,14.492,0,0,1,2.057,36.58a6.69,6.69,0,0,1,.317-1.822A20.471,20.471,0,0,1,4.211,30.7a53.456,53.456,0,0,1,3.863-5.749c.454-.595.862-1.112,1.193-1.523.817,1.972,2.108,5.152,3.367,8.522.975,2.6,1.929,5.322,2.63,7.661.35,1.167.635,2.241.828,3.143a10.777,10.777,0,0,1,.288,2.093c-.008,2.273-.813,3.863-2.116,4.605" transform="translate(0 -14.502)" fill="#4dd0e1"/>
        <path id="Trazado_189395" data-name="Trazado 189395" d="M67.85,8.943c-.622-1.83-1.37-3.76-1.968-5.246S64.845,1.181,64.84,1.168A2.207,2.207,0,0,0,63.982.141a.648.648,0,0,0-.859.036,33.1,33.1,0,0,0-2.089,2.752,19.75,19.75,0,0,0-1.459,2.485A9.366,9.366,0,0,0,59.066,6.7a4.853,4.853,0,0,0-.219,1.364,10.348,10.348,0,0,0,1.483,5.01,10.426,10.426,0,0,0,3.6,3.8,3.618,3.618,0,0,0,3.614.366,3.561,3.561,0,0,0,1.507-3.284,7.763,7.763,0,0,0-.211-1.612,33.232,33.232,0,0,0-.994-3.407M66.1,14.736a2.154,2.154,0,0,1-2.159-.219,6.2,6.2,0,0,1-2.151-2.269A6.141,6.141,0,0,1,60.9,9.256,2.8,2.8,0,0,1,61.04,8.5a9.864,9.864,0,0,1,.882-1.943,26.35,26.35,0,0,1,1.9-2.827l.151-.2c.362.894.8,2,1.227,3.143.478,1.279.947,2.615,1.285,3.741.167.562.3,1.072.391,1.484a4.654,4.654,0,0,1,.124.869,2.122,2.122,0,0,1-.9,1.961" transform="translate(-42.845 0)" fill="#4dd0e1"/>
      </g>
    </g>
    <g id="Grupo_143610" data-name="Grupo 143610" transform="translate(421.42 2875.459)">
      <g id="Grupo_143609" data-name="Grupo 143609" transform="translate(0 0)" clip-path="url(#clip-path-2)">
        <path id="Trazado_189396" data-name="Trazado 189396" d="M42.969,47.4c-2.246-1.3-4.073-.255-4.08,2.325a8.934,8.934,0,0,0,4.054,7.023c2.248,1.3,4.074.257,4.082-2.326A8.936,8.936,0,0,0,42.969,47.4" transform="translate(-26.206 -31.563)" fill="#4dd0e1"/>
        <path id="Trazado_189397" data-name="Trazado 189397" d="M22.056,23.66c.358-.2.36-.866,0-1.482a1.849,1.849,0,0,0-.643-.679.651.651,0,0,0-.646-.065c-2.162,1.23-3.251,3.86-3.258,7.1a22.259,22.259,0,0,0,3.208,10.836,1.858,1.858,0,0,0,.644.68.646.646,0,0,0,.645.064c.358-.2.36-.866,0-1.482a18.572,18.572,0,0,1-2.676-9.045c.008-2.714.913-4.9,2.719-5.93" transform="translate(-11.8 -14.403)" fill="#4dd0e1"/>
        <path id="Trazado_189398" data-name="Trazado 189398" d="M6.23,2.287c.358-.2.36-.866,0-1.482A1.85,1.85,0,0,0,5.591.126.65.65,0,0,0,4.945.06C1.664,1.928.014,5.914,0,10.837A33.808,33.808,0,0,0,4.868,27.281a1.857,1.857,0,0,0,.645.678.649.649,0,0,0,.645.066c.358-.2.36-.868,0-1.484A30.113,30.113,0,0,1,1.825,11.891C1.839,7.5,3.306,3.956,6.23,2.287" transform="translate(0 0)" fill="#4dd0e1"/>
        <path id="Trazado_189399" data-name="Trazado 189399" d="M71.412,46.852a.65.65,0,0,0-.647-.065c-.356.205-.358.867,0,1.482a18.567,18.567,0,0,1,2.679,9.046c-.008,2.714-.914,4.9-2.721,5.929-.356.205-.358.869,0,1.482a1.858,1.858,0,0,0,.645.681.651.651,0,0,0,.647.065c2.159-1.231,3.251-3.86,3.258-7.1a22.276,22.276,0,0,0-3.208-10.836,1.856,1.856,0,0,0-.645-.68" transform="translate(-47.474 -31.487)" fill="#4dd0e1"/>
        <path id="Trazado_189400" data-name="Trazado 189400" d="M83.779,39.774a.65.65,0,0,0-.647-.065c-.356.205-.358.867,0,1.482a30.105,30.105,0,0,1,4.339,14.652c-.014,4.391-1.481,7.935-4.407,9.6-.356.205-.358.869,0,1.484a1.858,1.858,0,0,0,.645.679.653.653,0,0,0,.647.067c3.278-1.87,4.931-5.856,4.945-10.778a33.81,33.81,0,0,0-4.868-16.442,1.856,1.856,0,0,0-.645-.68" transform="translate(-55.79 -26.718)" fill="#4dd0e1"/>
      </g>
    </g>
    <g id="Grupo_143612" data-name="Grupo 143612" transform="translate(468.35 2847.041)">
      <g id="Grupo_143611" data-name="Grupo 143611" clip-path="url(#clip-path-3)">
        <path id="Trazado_189401" data-name="Trazado 189401" d="M38.134,104.518a5.5,5.5,0,0,0-2.495-4.321c-1.383-.8-2.508-.158-2.512,1.43a5.412,5.412,0,0,0,1.22,3.179l-1.581,7.866L35.41,114.2l.378.219,2.645,1.527L36.9,106.281c.735-.078,1.229-.711,1.232-1.763" transform="translate(-24.906 -75.899)" fill="#4dd0e1"/>
        <path id="Trazado_189402" data-name="Trazado 189402" d="M20.668,66.784l-1.6-.922,0,1.54-1.529-.883,0-1.54L3.954,57.134l0,.817-1.527-.882,0-.817L.83,55.33c-.421-.243-.764-.048-.765.436L0,78.561a1.676,1.676,0,0,0,.76,1.317L20.6,91.332c.421.243.764.048.765-.436l.065-22.8a1.677,1.677,0,0,0-.76-1.317m-.829,22.352L1.53,78.565l.059-21.039L19.9,68.1Z" transform="translate(0 -41.977)" fill="#4dd0e1"/>
        <path id="Trazado_189403" data-name="Trazado 189403" d="M19.317,1.988l-1.671-.965C13.52-1.359,10.15.56,10.137,5.3l-.025,8.973,0,.817,1.527.882,0-.817.025-8.973c.011-3.775,2.692-5.3,5.978-3.406l1.671.965a13.108,13.108,0,0,1,5.939,10.287L25.226,23l0,1.54,1.528.883,0-1.54.025-8.973A16.468,16.468,0,0,0,19.317,1.988" transform="translate(-7.684 0)" fill="#4dd0e1"/>
      </g>
    </g>
    <g id="Grupo_143615" data-name="Grupo 143615" transform="translate(305.867 3069.192)">
      <path id="Trazado_189404" data-name="Trazado 189404" d="M411.548,128.717l4.157,5.573,1.4.879,1.085-4.5-3.2-2.348Z" transform="translate(-337.756 -105.311)" fill="#292929"/>
      <g id="Grupo_143614" data-name="Grupo 143614">
        <g id="Grupo_143613" data-name="Grupo 143613" clip-path="url(#clip-path-4)">
          <path id="Trazado_189405" data-name="Trazado 189405" d="M174.877,256.167c-3.841,1.863-7.737,7.77-6.114,10.113a6.1,6.1,0,0,0,3.369,2.184c-.318-.446-2-2.043-2-2.661l0-.1a10.477,10.477,0,0,1,5.518-9.133l.591-.318a2.731,2.731,0,0,1,4.035,2.41,10.044,10.044,0,0,1-.124,1.593l.6.323c.3-2.94-.592-6.979-5.884-4.414" transform="translate(-138.193 -209.566)" fill="#292929"/>
          <path id="Trazado_189406" data-name="Trazado 189406" d="M377.15,135c-1.128-.324-2.234.287-4.984,2.591a18.232,18.232,0,0,0-1.632,1.683c-.893.8-2.277,6.354-2.277,6.354s-.022.424,1.738,1.407c.9.5,2.176,1.194,2.176,1.194-.318-.446-1.641-1.914-1.637-2.532v-.1a10.486,10.486,0,0,1,5.518-9.129l.6-.318a2.727,2.727,0,0,1,1.293-.331,2.771,2.771,0,0,1,2.093.971s-.528-1.115-2.884-1.791" transform="translate(-302.228 -110.727)" fill="#292929"/>
          <path id="Trazado_189407" data-name="Trazado 189407" d="M81.156,18.063a34.667,34.667,0,0,0-7.53-6.295C67.957,8.263,57.836,2.031,56.679,1.505A16.8,16.8,0,0,0,52.044.6L49.621.552V.6l1.387,1.2L71.48,12.735a3.42,3.42,0,0,1,2.415,4.586C72.349,20.08,64.417,25,64.417,25l-1.1.609,0,0A16.593,16.593,0,0,1,64.59,29.12s-2.19,4.9-1.823,7.8L45.578,46.212l-.861-5.619-1.81-3.62c-.049-.013-.1-.031-.146-.048h0l-.49.269c-3.673.622-7.725.931-7.725.931s-1.249,2.194-5.3,4.763c-2.542,1.607-10.364,4.758-10.364,4.758s-2.8,2.5-9.088-1.355c-3.4-2.088-4.608-4.163-5.019-5.553l-1.21.1c.123.424.2.68.2.68C3.423,43.073,1.3,41.639.05,39.983H0c-.027,2.923.19,7.072.19,7.072s4.71,9.173,24.427,12.9A42.049,42.049,0,0,0,30.5,58.828s.066-.693.274-1.753c.543-2.8,2.065-8.157,5.906-10.02,5.293-2.565,6.179,1.475,5.884,4.414L63.6,39.728,66.373,38.7s-.067-5.782,3.019-10.064c0,0,0-.009,0-.009A7.547,7.547,0,0,1,70.721,27.1a10.041,10.041,0,0,1,.759-.666c4.512-3.567,6.436-1.9,7.258.243l0,0a11.272,11.272,0,0,1,.6,3.633l1.911-1.178s4.269-6.18.592-10.3c-.243-.274-.477-.529-.693-.772M16.083,55.442s-9.424-3.972-12.872-7.8V44.7s3.311,3.827,12.872,7.945Zm7.936-3.606c-2.057.238-6.621-.053-5.738-1.377A37.916,37.916,0,0,0,22.1,48.5c2.216-1.28,4.865-2.246,5.306-1.324s-1.324,4.414-3.386,4.657" transform="translate(0 -0.453)" fill="#ed5e3a"/>
          <path id="Trazado_189408" data-name="Trazado 189408" d="M197.029,18.062a34.662,34.662,0,0,0-7.53-6.295C183.831,8.262,173.709,2.03,172.553,1.5A16.791,16.791,0,0,0,167.918.6L165.494.551V.6l1.386,1.2,20.472,10.938a3.42,3.42,0,0,1,2.415,4.586C188.223,20.079,180.291,25,180.291,25l-1.1.609,0,0a16.6,16.6,0,0,1,1.271,3.509s-2.19,4.9-1.823,7.8l-17.189,9.292-.861-5.619-1.809-3.62c-.049-.013-.1-.031-.146-.048h0l-.49.269c-2.437.413-5.034.687-6.511.825-.036.171-6.653,9.358-7.835,11.343a19.744,19.744,0,0,0-2.605,10.5,34.871,34.871,0,0,0,5.188-1.031s.066-.693.274-1.753c.543-2.8,2.065-8.157,5.906-10.021,5.293-2.564,6.179,1.475,5.884,4.415l21.033-11.742,2.773-1.029s-.067-5.782,3.019-10.064a0,0,0,0,0,0,0,7.458,7.458,0,0,1,1.324-1.532,10,10,0,0,1,.759-.666c4.512-3.567,6.436-1.9,7.257.243l0,0a11.27,11.27,0,0,1,.6,3.633l1.911-1.178s4.269-6.18.592-10.3c-.243-.273-.476-.529-.693-.772" transform="translate(-115.873 -0.452)" fill="#c94831"/>
          <path id="Trazado_189409" data-name="Trazado 189409" d="M388.361,139.938a2.726,2.726,0,0,0-1.293.331l-.6.318a10.485,10.485,0,0,0-5.518,9.129v.1a2.735,2.735,0,0,0,4.1,2.4l.8-.464a10.473,10.473,0,0,0,5.235-9.071,2.712,2.712,0,0,0-.644-1.77,2.771,2.771,0,0,0-2.093-.971m-2.418,9.19-.419.243a1.431,1.431,0,0,1-2.145-1.253v-.053a5.482,5.482,0,0,1,2.882-4.768l.309-.163a1.407,1.407,0,0,1,.675-.172,1.429,1.429,0,0,1,1.43,1.43,5.467,5.467,0,0,1-2.732,4.736" transform="translate(-312.648 -114.847)" fill="#3a3a3a"/>
          <path id="Trazado_189410" data-name="Trazado 189410" d="M398.338,156.8a1.407,1.407,0,0,0-.675.172l-.309.163a5.482,5.482,0,0,0-2.882,4.768v.053a1.431,1.431,0,0,0,2.145,1.253l.419-.243a5.468,5.468,0,0,0,2.732-4.736,1.429,1.429,0,0,0-1.43-1.43" transform="translate(-323.741 -128.687)" fill="#e0e0e0"/>
          <path id="Trazado_189411" data-name="Trazado 189411" d="M256.853,3.989l19.626,11.368h5.8L262.115,3.747Z" transform="translate(-210.798 -3.075)" fill="#d3deed"/>
          <path id="Trazado_189412" data-name="Trazado 189412" d="M353.077,82.288l-5.787-2-1.536,1.1,1.982,7.729a35.927,35.927,0,0,0,5.875-3.977,1.641,1.641,0,0,0-.534-2.847" transform="translate(-283.759 -65.892)" fill="#d3deed"/>
          <path id="Trazado_189413" data-name="Trazado 189413" d="M158.171,2l-2.5-1.2a10.757,10.757,0,0,0-3.121,1c-5.549,2.763-13.137,6-16.509,8.925a2.994,2.994,0,0,0,.314,2.22l-.172.128a36.037,36.037,0,0,0,18.248,10.589l17.025-9.441a9.7,9.7,0,0,1,4.829-1.285h.971L158.176,2Z" transform="translate(-111.578 -0.654)" fill="#ed5e3a"/>
          <path id="Trazado_189414" data-name="Trazado 189414" d="M260.3,138.477l-17.636,9.709a11.259,11.259,0,0,1-3.359,1.982l1.81,3.619.861,5.619,17.189-9.292c-.367-2.9,2.912-8.428,2.912-8.428a8.842,8.842,0,0,0-1.777-3.209" transform="translate(-196.395 -113.648)" fill="#c94831"/>
          <path id="Trazado_189415" data-name="Trazado 189415" d="M259.385,137.76l-.059-.069-17.713,9.753-.119.065.043.051a14.629,14.629,0,0,1-3.2,1.858l-.252-.084,1.921,3.843.882,5.756,17.326-9.366.066-.036-.009-.075c-.358-2.83,2.865-8.3,2.9-8.358l.021-.035-.007-.04a8.827,8.827,0,0,0-1.8-3.263m-1.338,11.648-16.985,9.182-.838-5.464-1.752-3.515a13.813,13.813,0,0,0,3.274-1.962.29.29,0,0,0,.021-.037l17.506-9.638a8.571,8.571,0,0,1,1.688,3.048c-.3.514-3.209,5.557-2.915,8.388" transform="translate(-195.399 -113.002)" fill="#ed5e3a"/>
          <path id="Trazado_189416" data-name="Trazado 189416" d="M241.068,97.173l-2.282,4.966-.049,3.664a4.2,4.2,0,0,1,1.964.344,3.957,3.957,0,0,1,.609.314L258.7,96.82l-1.766-8.259Z" transform="translate(-195.931 -72.682)" fill="#d3deed"/>
          <path id="Trazado_189417" data-name="Trazado 189417" d="M252.558.1l-3.9-.053a10.68,10.68,0,0,0-2.732.1l2.5,1.2-.342-.316,5.8-.042Z" transform="translate(-201.829 0)" fill="#3a3a3a"/>
          <path id="Trazado_189418" data-name="Trazado 189418" d="M225.5,183.006a4,4,0,0,0-1.5-1.073,4.2,4.2,0,0,0-1.964-.344,2.466,2.466,0,0,0-1.135.344l-1.465-1.028s-1.546.1-.883,2.035a15.694,15.694,0,0,0,3.434,2h0l.093-.054.053.1a3.4,3.4,0,0,0,.887.185,8.5,8.5,0,0,0,2.22-.247.966.966,0,0,0,.6-1.466,4.181,4.181,0,0,0-.344-.454" transform="translate(-179.234 -148.468)" fill="#ed5e3a"/>
          <path id="Trazado_189419" data-name="Trazado 189419" d="M218.923,190.224a1.34,1.34,0,0,1-.2-.058,3.328,3.328,0,0,0,.105.374,15.691,15.691,0,0,0,3.434,2h0l.093-.054.053.1a3.4,3.4,0,0,0,.887.185,8.5,8.5,0,0,0,2.22-.247.962.962,0,0,0,.638-1.381c-2.383.912-4.72-.45-7.239-.922" transform="translate(-179.508 -156.069)" fill="#c94831"/>
          <path id="Trazado_189420" data-name="Trazado 189420" d="M238.491,203.163c.048.017.1.035.146.048l-.053-.1Z" transform="translate(-195.729 -166.691)" fill="#e8e7e7"/>
          <path id="Trazado_189421" data-name="Trazado 189421" d="M92.806,68.027c-.155-.172-.23-.269-.23-.269L83.1,78.617c5.3,10.687,21.042,12.854,21.042,12.854l6.913-12.854a36.037,36.037,0,0,1-18.248-10.59" transform="translate(-68.199 -55.609)" fill="#d3deed"/>
          <path id="Trazado_189422" data-name="Trazado 189422" d="M88.46,84.15,83.1,90.293a17.077,17.077,0,0,0,2.265,3.425c1.5-.365,3.027-.6,4.556-.9,2.778-.545,5.541-1.179,8.309-1.77q4.45-.949,8.9-1.92A36.827,36.827,0,0,1,95.1,81.985Q91.758,83,88.46,84.15" transform="translate(-68.2 -67.285)" fill="#d0e6ef"/>
          <path id="Trazado_189423" data-name="Trazado 189423" d="M185.533,258.55a2.737,2.737,0,0,0-1.294.331l-.591.318a10.476,10.476,0,0,0-5.518,9.133l0,.1a2.713,2.713,0,0,0,.5,1.611,2.743,2.743,0,0,0,3.607.786l.8-.459a10.486,10.486,0,0,0,5.116-7.482,10.043,10.043,0,0,0,.124-1.593,2.74,2.74,0,0,0-2.741-2.741m-2.419,9.19-.419.243a1.432,1.432,0,0,1-2.145-1.254l0-.048a5.47,5.47,0,0,1,2.877-4.772l.31-.164a1.415,1.415,0,0,1,.675-.172,1.43,1.43,0,0,1,1.43,1.431,5.467,5.467,0,0,1-2.732,4.736" transform="translate(-146.187 -212.191)" fill="#3a3a3a"/>
          <path id="Trazado_189424" data-name="Trazado 189424" d="M195.508,275.411a1.413,1.413,0,0,0-.675.172l-.309.163a5.47,5.47,0,0,0-2.878,4.772l0,.049a1.432,1.432,0,0,0,2.146,1.253l.419-.243a5.467,5.467,0,0,0,2.733-4.736,1.43,1.43,0,0,0-1.43-1.43" transform="translate(-157.279 -226.029)" fill="#e0e0e0"/>
          <path id="Trazado_189425" data-name="Trazado 189425" d="M35.1,131.914l-.075.031s-.984.98-1.36,1.249c-3.244,2.331-7.977,13.662-7.977,13.662a42.636,42.636,0,0,0,14.275,8.6s7.822-3.152,10.364-4.758c4.048-2.569,5.3-4.763,5.3-4.763A46.924,46.924,0,0,1,41.5,139.595a16.528,16.528,0,0,1-6.4-7.681" transform="translate(-21.083 -108.261)" fill="#ed5e3a"/>
          <path id="Trazado_189426" data-name="Trazado 189426" d="M105.263,260.245a37.868,37.868,0,0,1-3.818,1.956c-.883,1.325,3.681,1.616,5.738,1.377s3.827-3.735,3.386-4.657-3.09.045-5.306,1.324" transform="translate(-83.163 -212.196)" fill="#fff"/>
          <path id="Trazado_189427" data-name="Trazado 189427" d="M101.587,268.561a1.358,1.358,0,0,1-.223-.055c-.3,1.148,3.887,1.4,5.832,1.171,1.591-.187,3-2.306,3.361-3.689a11.989,11.989,0,0,1-8.97,2.574" transform="translate(-83.177 -218.295)" fill="#ebebeb"/>
          <path id="Trazado_189428" data-name="Trazado 189428" d="M134.144,58.374h-6.771a9.7,9.7,0,0,0-4.829,1.285L105.518,69.1,98.606,81.955S82.861,79.787,77.563,69.1L87.04,58.242s.075.1.23.269l.172-.128a2.994,2.994,0,0,1-.314-2.22,81.8,81.8,0,0,0-7.164,8.047c-.812,1.006-1.567,1.951-2.185,2.737-.645.813-1.144,1.453-1.426,1.819a9.341,9.341,0,0,0,.327.98,16.529,16.529,0,0,0,6.4,7.68,46.938,46.938,0,0,0,14.125,6.339s4.052-.309,7.725-.931l.49-.269a15.685,15.685,0,0,1-3.434-2c-.663-1.934.883-2.035.883-2.035l1.465,1.028a2.463,2.463,0,0,1,1.135-.344l.049-3.664,2.282-4.966,15.864-8.612,1.766,8.259-17.387,9.64a3.918,3.918,0,0,1,.887.759l17.047-9.384,1.1-.609s7.932-4.918,9.477-7.676a3.42,3.42,0,0,0-2.415-4.586m-1.629,6.961a35.914,35.914,0,0,1-5.875,3.977l-1.982-7.729,1.536-1.095,5.787,2a1.641,1.641,0,0,1,.534,2.847" transform="translate(-62.663 -46.093)" fill="#3a3a3a"/>
          <path id="Trazado_189429" data-name="Trazado 189429" d="M235.142,68.5h-6.771a9.776,9.776,0,0,0-1.759.164,31.771,31.771,0,0,0-3.536,1.941c-1.372.887-9.354,5.082-13.6,7.565a9.048,9.048,0,0,0-3.451,3.852c-2.382,4.748-4.809,8.915-6.6,11.763-.027.043,3.9-.382,6.511-.825l.49-.269a15.685,15.685,0,0,1-3.434-2c-.663-1.934.883-2.035.883-2.035l1.465,1.028a2.463,2.463,0,0,1,1.135-.344l.049-3.664,2.282-4.966,15.864-8.612,1.766,8.259-17.387,9.64a3.918,3.918,0,0,1,.887.759l17.047-9.384,1.1-.609s7.932-4.918,9.477-7.676a3.42,3.42,0,0,0-2.415-4.586m-1.629,6.961a35.913,35.913,0,0,1-5.875,3.977l-1.982-7.729,1.536-1.095,5.787,2a1.641,1.641,0,0,1,.534,2.847" transform="translate(-163.662 -56.214)" fill="#292929"/>
          <path id="Trazado_189430" data-name="Trazado 189430" d="M79.613,95a3.968,3.968,0,0,0-2.207-.918A.969.969,0,0,0,76.382,95.3a8.637,8.637,0,0,0,.821,2.079,3.583,3.583,0,0,0,.574.689c.618-.786,1.373-1.73,2.185-2.737A3.559,3.559,0,0,0,79.613,95" transform="translate(-62.661 -77.21)" fill="#ed5e3a"/>
          <path id="Trazado_189431" data-name="Trazado 189431" d="M76.386,98.615a.969.969,0,0,0,.013.4,8.634,8.634,0,0,0,.821,2.079,3.587,3.587,0,0,0,.574.689c.385-.49.828-1.046,1.3-1.636a3.229,3.229,0,0,1-2.708-1.536" transform="translate(-62.677 -80.933)" fill="#c94831"/>
          <path id="Trazado_189432" data-name="Trazado 189432" d="M25.718,216.935c.41,1.391,1.615,3.465,5.019,5.553,6.29,3.854,9.088,1.355,9.088,1.355a42.628,42.628,0,0,1-14.275-8.6,3.8,3.8,0,0,0,.168,1.691" transform="translate(-20.944 -176.65)" fill="#3a3a3a"/>
          <path id="Trazado_189433" data-name="Trazado 189433" d="M17.91,246.783v2.944c3.448,3.823,12.872,7.8,12.872,7.8v-2.794c-9.561-4.118-12.872-7.945-12.872-7.945" transform="translate(-14.699 -202.534)" fill="#3a3a3a"/>
          <path id="Trazado_189434" data-name="Trazado 189434" d="M20.593,126.783a28.744,28.744,0,0,0-8.824,7.261c-1.461,1.964-2.405,3.227-3.041,4.132l.358.07c.458,1.863,1.266,4.639,1.642,5.915l1.21-.1a3.8,3.8,0,0,1-.168-1.691s4.732-11.331,7.977-13.662c.375-.269,1.36-1.249,1.36-1.249l.075-.031a9.326,9.326,0,0,1-.327-.98l-.26.336" transform="translate(-7.162 -103.775)" fill="#ed5e3a"/>
          <path id="Trazado_189435" data-name="Trazado 189435" d="M1.933,191.931l-.358-.07A8.892,8.892,0,0,0,.2,194.35a12.342,12.342,0,0,0-.19,2.64H.061c1.254,1.656,3.373,3.09,3.716,1.536,0,0-.08-.256-.2-.68-.375-1.275-1.183-4.052-1.642-5.915" transform="translate(-0.01 -157.46)" fill="#fff"/>
          <path id="Trazado_189436" data-name="Trazado 189436" d="M3.465,215.838a.979.979,0,0,1-.363.038A4.814,4.814,0,0,1,.037,214.24c-.013.341-.022.715-.025,1.116H.061c1.254,1.655,3.373,3.09,3.716,1.536,0,0-.08-.256-.2-.68l-.11-.374" transform="translate(-0.01 -175.826)" fill="#ebebeb"/>
          <path id="Trazado_189437" data-name="Trazado 189437" d="M141.013,67.418a22.7,22.7,0,0,1-6.028-5.564c-.476-.715,0,.271,0,.271V62.7s5.531,7.593,19.049,11.071l.033-.547a28.225,28.225,0,0,1-3.675-1.05,42.791,42.791,0,0,1-9.38-4.754" transform="translate(-110.609 -50.55)" fill="#3a3a3a"/>
          <rect id="Rectángulo_42702" data-name="Rectángulo 42702" width="0.441" height="24.505" transform="translate(45.193 0.679) rotate(-60.45)" fill="#3a3a3a"/>
          <rect id="Rectángulo_42703" data-name="Rectángulo 42703" width="0.441" height="24.171" transform="translate(50.62 0.68) rotate(-60.009)" fill="#3a3a3a"/>
          <path id="Trazado_189438" data-name="Trazado 189438" d="M341.69,151.19l-2.043,1.137a.612.612,0,0,0-.294.672.347.347,0,0,0,.339.262.448.448,0,0,0,.219-.061l2.071-1.171a.563.563,0,0,0,.262-.651.37.37,0,0,0-.554-.189" transform="translate(-278.49 -124.033)" fill="#3a3a3a"/>
          <path id="Trazado_189439" data-name="Trazado 189439" d="M411.286,104.971a.749.749,0,0,0-.357.091l-.163.086a2.9,2.9,0,0,0-1.524,2.52v.027a.757.757,0,0,0,1.134.663l.222-.128a2.888,2.888,0,0,0,1.444-2.5.756.756,0,0,0-.756-.756" transform="translate(-335.863 -86.149)" fill="#3a3a3a"/>
        </g>
      </g>
    </g>
  </g>
</svg>
