<svg xmlns="http://www.w3.org/2000/svg" xmlns:xlink="http://www.w3.org/1999/xlink" width="610" height="496" viewBox="0 0 610 496">
  <defs>
    <clipPath id="clip-path">
      <rect id="Rectángulo_43481" data-name="Rectángulo 43481" width="94" height="41.774" fill="none"/>
    </clipPath>
    <clipPath id="clip-path-3">
      <rect id="Rectángulo_43479" data-name="Rectángulo 43479" width="47.273" height="41.774" fill="none"/>
    </clipPath>
  </defs>
  <g id="Grupo_144956" data-name="Grupo 144956" transform="translate(-810 -2278)">
    <rect id="Rectángulo_43455" data-name="Rectángulo 43455" width="610" height="496" transform="translate(810 2278)" fill="#4dd0e1"/>
    <text id="Sistema_Blockchain" data-name="Sistema Blockchain" transform="translate(1007 2334)" fill="#12263f" font-size="24" font-family="Roboto-Black, Roboto" font-weight="800"><tspan x="0" y="0">Sistema </tspan><tspan y="0" font-family="Roboto-BlackItalic, Roboto" font-style="italic">Blockchain</tspan></text>
    <g id="Grupo_144680" data-name="Grupo 144680">
      <path id="Trazado_191694" data-name="Trazado 191694" d="M0,0H16V317H0Z" transform="translate(911 2401)" fill="#fff"/>
      <path id="Trazado_191692" data-name="Trazado 191692" d="M9.18-10.141H5.523V0H4.031V-10.141H.383v-1.234h8.8Zm4.961,2.984a4.331,4.331,0,0,0-.711-.055A1.9,1.9,0,0,0,11.5-6V0H10.055V-8.453h1.406l.023.977A2.251,2.251,0,0,1,13.5-8.609a1.477,1.477,0,0,1,.641.109ZM20.375,0a3.036,3.036,0,0,1-.2-.891A3.225,3.225,0,0,1,17.766.156a2.984,2.984,0,0,1-2.051-.707,2.287,2.287,0,0,1-.8-1.793,2.39,2.39,0,0,1,1-2.051,4.733,4.733,0,0,1,2.824-.73h1.406v-.664A1.623,1.623,0,0,0,19.7-7a1.821,1.821,0,0,0-1.336-.449,2.108,2.108,0,0,0-1.3.391,1.151,1.151,0,0,0-.523.945H15.086a2,2,0,0,1,.449-1.223,3.066,3.066,0,0,1,1.219-.934,4.1,4.1,0,0,1,1.691-.344,3.342,3.342,0,0,1,2.289.73,2.635,2.635,0,0,1,.859,2.012v3.891a4.757,4.757,0,0,0,.3,1.852V0Zm-2.4-1.1a2.54,2.54,0,0,0,1.289-.352,2.127,2.127,0,0,0,.883-.914V-4.1H19.016q-2.656,0-2.656,1.555a1.316,1.316,0,0,0,.453,1.063A1.742,1.742,0,0,0,17.977-1.1Zm7.25-7.352.047,1.063A3.08,3.08,0,0,1,27.8-8.609q2.68,0,2.7,3.023V0H29.063V-5.594a1.946,1.946,0,0,0-.418-1.352,1.675,1.675,0,0,0-1.277-.437,2.086,2.086,0,0,0-1.234.375,2.546,2.546,0,0,0-.828.984V0H23.859V-8.453ZM37.609-2.242a1.064,1.064,0,0,0-.441-.91,4.249,4.249,0,0,0-1.539-.559,7.277,7.277,0,0,1-1.742-.562,2.479,2.479,0,0,1-.953-.781,1.869,1.869,0,0,1-.309-1.078A2.193,2.193,0,0,1,33.5-7.891a3.432,3.432,0,0,1,2.246-.719,3.532,3.532,0,0,1,2.332.742,2.357,2.357,0,0,1,.895,1.9H37.523a1.3,1.3,0,0,0-.5-1.023,1.888,1.888,0,0,0-1.27-.43,1.976,1.976,0,0,0-1.234.344,1.082,1.082,0,0,0-.445.9.877.877,0,0,0,.414.789,5.1,5.1,0,0,0,1.5.508,7.8,7.8,0,0,1,1.754.578,2.558,2.558,0,0,1,1,.809,1.988,1.988,0,0,1,.324,1.152,2.163,2.163,0,0,1-.906,1.816A3.8,3.8,0,0,1,35.8.156,4.257,4.257,0,0,1,34-.2a2.922,2.922,0,0,1-1.223-1A2.42,2.42,0,0,1,32.336-2.6h1.445a1.5,1.5,0,0,0,.582,1.152,2.258,2.258,0,0,0,1.434.426,2.331,2.331,0,0,0,1.316-.332A1.02,1.02,0,0,0,37.609-2.242ZM46.156,0a3.036,3.036,0,0,1-.2-.891A3.225,3.225,0,0,1,43.547.156,2.984,2.984,0,0,1,41.5-.551a2.287,2.287,0,0,1-.8-1.793,2.39,2.39,0,0,1,1-2.051,4.733,4.733,0,0,1,2.824-.73H45.93v-.664A1.623,1.623,0,0,0,45.477-7a1.821,1.821,0,0,0-1.336-.449,2.107,2.107,0,0,0-1.3.391,1.151,1.151,0,0,0-.523.945H40.867a2,2,0,0,1,.449-1.223,3.066,3.066,0,0,1,1.219-.934,4.1,4.1,0,0,1,1.691-.344,3.342,3.342,0,0,1,2.289.73,2.635,2.635,0,0,1,.859,2.012v3.891a4.757,4.757,0,0,0,.3,1.852V0Zm-2.4-1.1a2.54,2.54,0,0,0,1.289-.352,2.127,2.127,0,0,0,.883-.914V-4.1H44.8q-2.656,0-2.656,1.555a1.316,1.316,0,0,0,.453,1.063A1.742,1.742,0,0,0,43.758-1.1Zm9.273.078a2.082,2.082,0,0,0,1.352-.469,1.649,1.649,0,0,0,.641-1.172h1.367a2.621,2.621,0,0,1-.5,1.383A3.293,3.293,0,0,1,54.66-.234a3.55,3.55,0,0,1-1.629.391A3.482,3.482,0,0,1,50.285-1a4.59,4.59,0,0,1-1.02-3.152v-.242a5.089,5.089,0,0,1,.453-2.2,3.451,3.451,0,0,1,1.3-1.492,3.7,3.7,0,0,1,2-.531,3.39,3.39,0,0,1,2.363.852,3.043,3.043,0,0,1,1,2.211H55.023A1.992,1.992,0,0,0,54.4-6.895a1.932,1.932,0,0,0-1.379-.527,2.023,2.023,0,0,0-1.707.793,3.724,3.724,0,0,0-.605,2.293v.273a3.65,3.65,0,0,0,.6,2.25A2.033,2.033,0,0,0,53.031-1.023Zm8.375,0a2.082,2.082,0,0,0,1.352-.469A1.649,1.649,0,0,0,63.4-2.664h1.367a2.621,2.621,0,0,1-.5,1.383,3.293,3.293,0,0,1-1.23,1.047,3.55,3.55,0,0,1-1.629.391A3.482,3.482,0,0,1,58.66-1a4.59,4.59,0,0,1-1.02-3.152v-.242a5.089,5.089,0,0,1,.453-2.2,3.451,3.451,0,0,1,1.3-1.492,3.7,3.7,0,0,1,2-.531,3.39,3.39,0,0,1,2.363.852,3.043,3.043,0,0,1,1,2.211H63.4a1.992,1.992,0,0,0-.621-1.348A1.932,1.932,0,0,0,61.4-7.422a2.023,2.023,0,0,0-1.707.793,3.724,3.724,0,0,0-.605,2.293v.273a3.65,3.65,0,0,0,.6,2.25A2.033,2.033,0,0,0,61.406-1.023ZM67.961,0H66.516V-8.453h1.445ZM66.4-10.7a.863.863,0,0,1,.215-.594.807.807,0,0,1,.637-.242.819.819,0,0,1,.641.242.854.854,0,0,1,.219.594.826.826,0,0,1-.219.586.834.834,0,0,1-.641.234.821.821,0,0,1-.637-.234A.834.834,0,0,1,66.4-10.7ZM69.891-4.3a4.993,4.993,0,0,1,.488-2.234A3.643,3.643,0,0,1,71.738-8.07a3.7,3.7,0,0,1,1.988-.539,3.565,3.565,0,0,1,2.793,1.2,4.6,4.6,0,0,1,1.066,3.18v.1a5.036,5.036,0,0,1-.473,2.215A3.589,3.589,0,0,1,75.762-.391a3.743,3.743,0,0,1-2.02.547,3.556,3.556,0,0,1-2.785-1.2A4.575,4.575,0,0,1,69.891-4.2Zm1.453.172A3.616,3.616,0,0,0,72-1.875a2.088,2.088,0,0,0,1.746.852,2.075,2.075,0,0,0,1.75-.863A3.955,3.955,0,0,0,76.141-4.3a3.61,3.61,0,0,0-.66-2.254,2.1,2.1,0,0,0-1.754-.863A2.075,2.075,0,0,0,72-6.57,3.925,3.925,0,0,0,71.344-4.133ZM74.383-12h1.75L74.039-9.7H72.875Zm6.383,3.547.047,1.063a3.08,3.08,0,0,1,2.531-1.219q2.68,0,2.7,3.023V0H84.6V-5.594a1.946,1.946,0,0,0-.418-1.352,1.675,1.675,0,0,0-1.277-.437,2.086,2.086,0,0,0-1.234.375,2.546,2.546,0,0,0-.828.984V0H79.4V-8.453Z" transform="translate(873 2600)" fill="#12263f"/>
      <path id="Trazado_191696" data-name="Trazado 191696" d="M9.18-10.141H5.523V0H4.031V-10.141H.383v-1.234h8.8Zm4.961,2.984a4.331,4.331,0,0,0-.711-.055A1.9,1.9,0,0,0,11.5-6V0H10.055V-8.453h1.406l.023.977A2.251,2.251,0,0,1,13.5-8.609a1.477,1.477,0,0,1,.641.109ZM20.375,0a3.036,3.036,0,0,1-.2-.891A3.225,3.225,0,0,1,17.766.156a2.984,2.984,0,0,1-2.051-.707,2.287,2.287,0,0,1-.8-1.793,2.39,2.39,0,0,1,1-2.051,4.733,4.733,0,0,1,2.824-.73h1.406v-.664A1.623,1.623,0,0,0,19.7-7a1.821,1.821,0,0,0-1.336-.449,2.108,2.108,0,0,0-1.3.391,1.151,1.151,0,0,0-.523.945H15.086a2,2,0,0,1,.449-1.223,3.066,3.066,0,0,1,1.219-.934,4.1,4.1,0,0,1,1.691-.344,3.342,3.342,0,0,1,2.289.73,2.635,2.635,0,0,1,.859,2.012v3.891a4.757,4.757,0,0,0,.3,1.852V0Zm-2.4-1.1a2.54,2.54,0,0,0,1.289-.352,2.127,2.127,0,0,0,.883-.914V-4.1H19.016q-2.656,0-2.656,1.555a1.316,1.316,0,0,0,.453,1.063A1.742,1.742,0,0,0,17.977-1.1Zm7.25-7.352.047,1.063A3.08,3.08,0,0,1,27.8-8.609q2.68,0,2.7,3.023V0H29.063V-5.594a1.946,1.946,0,0,0-.418-1.352,1.675,1.675,0,0,0-1.277-.437,2.086,2.086,0,0,0-1.234.375,2.546,2.546,0,0,0-.828.984V0H23.859V-8.453ZM37.609-2.242a1.064,1.064,0,0,0-.441-.91,4.249,4.249,0,0,0-1.539-.559,7.277,7.277,0,0,1-1.742-.562,2.479,2.479,0,0,1-.953-.781,1.869,1.869,0,0,1-.309-1.078A2.193,2.193,0,0,1,33.5-7.891a3.432,3.432,0,0,1,2.246-.719,3.532,3.532,0,0,1,2.332.742,2.357,2.357,0,0,1,.895,1.9H37.523a1.3,1.3,0,0,0-.5-1.023,1.888,1.888,0,0,0-1.27-.43,1.976,1.976,0,0,0-1.234.344,1.082,1.082,0,0,0-.445.9.877.877,0,0,0,.414.789,5.1,5.1,0,0,0,1.5.508,7.8,7.8,0,0,1,1.754.578,2.558,2.558,0,0,1,1,.809,1.988,1.988,0,0,1,.324,1.152,2.163,2.163,0,0,1-.906,1.816A3.8,3.8,0,0,1,35.8.156,4.257,4.257,0,0,1,34-.2a2.922,2.922,0,0,1-1.223-1A2.42,2.42,0,0,1,32.336-2.6h1.445a1.5,1.5,0,0,0,.582,1.152,2.258,2.258,0,0,0,1.434.426,2.331,2.331,0,0,0,1.316-.332A1.02,1.02,0,0,0,37.609-2.242ZM46.156,0a3.036,3.036,0,0,1-.2-.891A3.225,3.225,0,0,1,43.547.156,2.984,2.984,0,0,1,41.5-.551a2.287,2.287,0,0,1-.8-1.793,2.39,2.39,0,0,1,1-2.051,4.733,4.733,0,0,1,2.824-.73H45.93v-.664A1.623,1.623,0,0,0,45.477-7a1.821,1.821,0,0,0-1.336-.449,2.107,2.107,0,0,0-1.3.391,1.151,1.151,0,0,0-.523.945H40.867a2,2,0,0,1,.449-1.223,3.066,3.066,0,0,1,1.219-.934,4.1,4.1,0,0,1,1.691-.344,3.342,3.342,0,0,1,2.289.73,2.635,2.635,0,0,1,.859,2.012v3.891a4.757,4.757,0,0,0,.3,1.852V0Zm-2.4-1.1a2.54,2.54,0,0,0,1.289-.352,2.127,2.127,0,0,0,.883-.914V-4.1H44.8q-2.656,0-2.656,1.555a1.316,1.316,0,0,0,.453,1.063A1.742,1.742,0,0,0,43.758-1.1Zm9.273.078a2.082,2.082,0,0,0,1.352-.469,1.649,1.649,0,0,0,.641-1.172h1.367a2.621,2.621,0,0,1-.5,1.383A3.293,3.293,0,0,1,54.66-.234a3.55,3.55,0,0,1-1.629.391A3.482,3.482,0,0,1,50.285-1a4.59,4.59,0,0,1-1.02-3.152v-.242a5.089,5.089,0,0,1,.453-2.2,3.451,3.451,0,0,1,1.3-1.492,3.7,3.7,0,0,1,2-.531,3.39,3.39,0,0,1,2.363.852,3.043,3.043,0,0,1,1,2.211H55.023A1.992,1.992,0,0,0,54.4-6.895a1.932,1.932,0,0,0-1.379-.527,2.023,2.023,0,0,0-1.707.793,3.724,3.724,0,0,0-.605,2.293v.273a3.65,3.65,0,0,0,.6,2.25A2.033,2.033,0,0,0,53.031-1.023Zm8.375,0a2.082,2.082,0,0,0,1.352-.469A1.649,1.649,0,0,0,63.4-2.664h1.367a2.621,2.621,0,0,1-.5,1.383,3.293,3.293,0,0,1-1.23,1.047,3.55,3.55,0,0,1-1.629.391A3.482,3.482,0,0,1,58.66-1a4.59,4.59,0,0,1-1.02-3.152v-.242a5.089,5.089,0,0,1,.453-2.2,3.451,3.451,0,0,1,1.3-1.492,3.7,3.7,0,0,1,2-.531,3.39,3.39,0,0,1,2.363.852,3.043,3.043,0,0,1,1,2.211H63.4a1.992,1.992,0,0,0-.621-1.348A1.932,1.932,0,0,0,61.4-7.422a2.023,2.023,0,0,0-1.707.793,3.724,3.724,0,0,0-.605,2.293v.273a3.65,3.65,0,0,0,.6,2.25A2.033,2.033,0,0,0,61.406-1.023ZM67.961,0H66.516V-8.453h1.445ZM66.4-10.7a.863.863,0,0,1,.215-.594.807.807,0,0,1,.637-.242.819.819,0,0,1,.641.242.854.854,0,0,1,.219.594.826.826,0,0,1-.219.586.834.834,0,0,1-.641.234.821.821,0,0,1-.637-.234A.834.834,0,0,1,66.4-10.7ZM69.891-4.3a4.993,4.993,0,0,1,.488-2.234A3.643,3.643,0,0,1,71.738-8.07a3.7,3.7,0,0,1,1.988-.539,3.565,3.565,0,0,1,2.793,1.2,4.6,4.6,0,0,1,1.066,3.18v.1a5.036,5.036,0,0,1-.473,2.215A3.589,3.589,0,0,1,75.762-.391a3.743,3.743,0,0,1-2.02.547,3.556,3.556,0,0,1-2.785-1.2A4.575,4.575,0,0,1,69.891-4.2Zm1.453.172A3.616,3.616,0,0,0,72-1.875a2.088,2.088,0,0,0,1.746.852,2.075,2.075,0,0,0,1.75-.863A3.955,3.955,0,0,0,76.141-4.3a3.61,3.61,0,0,0-.66-2.254,2.1,2.1,0,0,0-1.754-.863A2.075,2.075,0,0,0,72-6.57,3.925,3.925,0,0,0,71.344-4.133ZM74.383-12h1.75L74.039-9.7H72.875Zm6.383,3.547.047,1.063a3.08,3.08,0,0,1,2.531-1.219q2.68,0,2.7,3.023V0H84.6V-5.594a1.946,1.946,0,0,0-.418-1.352,1.675,1.675,0,0,0-1.277-.437,2.086,2.086,0,0,0-1.234.375,2.546,2.546,0,0,0-.828.984V0H79.4V-8.453Z" transform="translate(873 2737.613)" fill="#12263f"/>
      <path id="Trazado_191683" data-name="Trazado 191683" d="M0,0H16V291H0Z" transform="translate(967 2422.5) rotate(-90)" fill="#fff"/>
      <path id="Trazado_191695" data-name="Trazado 191695" d="M0,0H16V291H0Z" transform="translate(967 2705.113) rotate(-90)" fill="#fff"/>
      <path id="Trazado_191684" data-name="Trazado 191684" d="M0,0H16V317H0Z" transform="translate(1298 2401)" fill="#fff"/>
      <path id="Trazado_191693" data-name="Trazado 191693" d="M9.18-10.141H5.523V0H4.031V-10.141H.383v-1.234h8.8Zm4.961,2.984a4.331,4.331,0,0,0-.711-.055A1.9,1.9,0,0,0,11.5-6V0H10.055V-8.453h1.406l.023.977A2.251,2.251,0,0,1,13.5-8.609a1.477,1.477,0,0,1,.641.109ZM20.375,0a3.036,3.036,0,0,1-.2-.891A3.225,3.225,0,0,1,17.766.156a2.984,2.984,0,0,1-2.051-.707,2.287,2.287,0,0,1-.8-1.793,2.39,2.39,0,0,1,1-2.051,4.733,4.733,0,0,1,2.824-.73h1.406v-.664A1.623,1.623,0,0,0,19.7-7a1.821,1.821,0,0,0-1.336-.449,2.108,2.108,0,0,0-1.3.391,1.151,1.151,0,0,0-.523.945H15.086a2,2,0,0,1,.449-1.223,3.066,3.066,0,0,1,1.219-.934,4.1,4.1,0,0,1,1.691-.344,3.342,3.342,0,0,1,2.289.73,2.635,2.635,0,0,1,.859,2.012v3.891a4.757,4.757,0,0,0,.3,1.852V0Zm-2.4-1.1a2.54,2.54,0,0,0,1.289-.352,2.127,2.127,0,0,0,.883-.914V-4.1H19.016q-2.656,0-2.656,1.555a1.316,1.316,0,0,0,.453,1.063A1.742,1.742,0,0,0,17.977-1.1Zm7.25-7.352.047,1.063A3.08,3.08,0,0,1,27.8-8.609q2.68,0,2.7,3.023V0H29.063V-5.594a1.946,1.946,0,0,0-.418-1.352,1.675,1.675,0,0,0-1.277-.437,2.086,2.086,0,0,0-1.234.375,2.546,2.546,0,0,0-.828.984V0H23.859V-8.453ZM37.609-2.242a1.064,1.064,0,0,0-.441-.91,4.249,4.249,0,0,0-1.539-.559,7.277,7.277,0,0,1-1.742-.562,2.479,2.479,0,0,1-.953-.781,1.869,1.869,0,0,1-.309-1.078A2.193,2.193,0,0,1,33.5-7.891a3.432,3.432,0,0,1,2.246-.719,3.532,3.532,0,0,1,2.332.742,2.357,2.357,0,0,1,.895,1.9H37.523a1.3,1.3,0,0,0-.5-1.023,1.888,1.888,0,0,0-1.27-.43,1.976,1.976,0,0,0-1.234.344,1.082,1.082,0,0,0-.445.9.877.877,0,0,0,.414.789,5.1,5.1,0,0,0,1.5.508,7.8,7.8,0,0,1,1.754.578,2.558,2.558,0,0,1,1,.809,1.988,1.988,0,0,1,.324,1.152,2.163,2.163,0,0,1-.906,1.816A3.8,3.8,0,0,1,35.8.156,4.257,4.257,0,0,1,34-.2a2.922,2.922,0,0,1-1.223-1A2.42,2.42,0,0,1,32.336-2.6h1.445a1.5,1.5,0,0,0,.582,1.152,2.258,2.258,0,0,0,1.434.426,2.331,2.331,0,0,0,1.316-.332A1.02,1.02,0,0,0,37.609-2.242ZM46.156,0a3.036,3.036,0,0,1-.2-.891A3.225,3.225,0,0,1,43.547.156,2.984,2.984,0,0,1,41.5-.551a2.287,2.287,0,0,1-.8-1.793,2.39,2.39,0,0,1,1-2.051,4.733,4.733,0,0,1,2.824-.73H45.93v-.664A1.623,1.623,0,0,0,45.477-7a1.821,1.821,0,0,0-1.336-.449,2.107,2.107,0,0,0-1.3.391,1.151,1.151,0,0,0-.523.945H40.867a2,2,0,0,1,.449-1.223,3.066,3.066,0,0,1,1.219-.934,4.1,4.1,0,0,1,1.691-.344,3.342,3.342,0,0,1,2.289.73,2.635,2.635,0,0,1,.859,2.012v3.891a4.757,4.757,0,0,0,.3,1.852V0Zm-2.4-1.1a2.54,2.54,0,0,0,1.289-.352,2.127,2.127,0,0,0,.883-.914V-4.1H44.8q-2.656,0-2.656,1.555a1.316,1.316,0,0,0,.453,1.063A1.742,1.742,0,0,0,43.758-1.1Zm9.273.078a2.082,2.082,0,0,0,1.352-.469,1.649,1.649,0,0,0,.641-1.172h1.367a2.621,2.621,0,0,1-.5,1.383A3.293,3.293,0,0,1,54.66-.234a3.55,3.55,0,0,1-1.629.391A3.482,3.482,0,0,1,50.285-1a4.59,4.59,0,0,1-1.02-3.152v-.242a5.089,5.089,0,0,1,.453-2.2,3.451,3.451,0,0,1,1.3-1.492,3.7,3.7,0,0,1,2-.531,3.39,3.39,0,0,1,2.363.852,3.043,3.043,0,0,1,1,2.211H55.023A1.992,1.992,0,0,0,54.4-6.895a1.932,1.932,0,0,0-1.379-.527,2.023,2.023,0,0,0-1.707.793,3.724,3.724,0,0,0-.605,2.293v.273a3.65,3.65,0,0,0,.6,2.25A2.033,2.033,0,0,0,53.031-1.023Zm8.375,0a2.082,2.082,0,0,0,1.352-.469A1.649,1.649,0,0,0,63.4-2.664h1.367a2.621,2.621,0,0,1-.5,1.383,3.293,3.293,0,0,1-1.23,1.047,3.55,3.55,0,0,1-1.629.391A3.482,3.482,0,0,1,58.66-1a4.59,4.59,0,0,1-1.02-3.152v-.242a5.089,5.089,0,0,1,.453-2.2,3.451,3.451,0,0,1,1.3-1.492,3.7,3.7,0,0,1,2-.531,3.39,3.39,0,0,1,2.363.852,3.043,3.043,0,0,1,1,2.211H63.4a1.992,1.992,0,0,0-.621-1.348A1.932,1.932,0,0,0,61.4-7.422a2.023,2.023,0,0,0-1.707.793,3.724,3.724,0,0,0-.605,2.293v.273a3.65,3.65,0,0,0,.6,2.25A2.033,2.033,0,0,0,61.406-1.023ZM67.961,0H66.516V-8.453h1.445ZM66.4-10.7a.863.863,0,0,1,.215-.594.807.807,0,0,1,.637-.242.819.819,0,0,1,.641.242.854.854,0,0,1,.219.594.826.826,0,0,1-.219.586.834.834,0,0,1-.641.234.821.821,0,0,1-.637-.234A.834.834,0,0,1,66.4-10.7ZM69.891-4.3a4.993,4.993,0,0,1,.488-2.234A3.643,3.643,0,0,1,71.738-8.07a3.7,3.7,0,0,1,1.988-.539,3.565,3.565,0,0,1,2.793,1.2,4.6,4.6,0,0,1,1.066,3.18v.1a5.036,5.036,0,0,1-.473,2.215A3.589,3.589,0,0,1,75.762-.391a3.743,3.743,0,0,1-2.02.547,3.556,3.556,0,0,1-2.785-1.2A4.575,4.575,0,0,1,69.891-4.2Zm1.453.172A3.616,3.616,0,0,0,72-1.875a2.088,2.088,0,0,0,1.746.852,2.075,2.075,0,0,0,1.75-.863A3.955,3.955,0,0,0,76.141-4.3a3.61,3.61,0,0,0-.66-2.254,2.1,2.1,0,0,0-1.754-.863A2.075,2.075,0,0,0,72-6.57,3.925,3.925,0,0,0,71.344-4.133ZM74.383-12h1.75L74.039-9.7H72.875Zm6.383,3.547.047,1.063a3.08,3.08,0,0,1,2.531-1.219q2.68,0,2.7,3.023V0H84.6V-5.594a1.946,1.946,0,0,0-.418-1.352,1.675,1.675,0,0,0-1.277-.437,2.086,2.086,0,0,0-1.234.375,2.546,2.546,0,0,0-.828.984V0H79.4V-8.453Z" transform="translate(1258 2600)" fill="#12263f"/>
      <path id="Trazado_191682" data-name="Trazado 191682" d="M9.18-10.141H5.523V0H4.031V-10.141H.383v-1.234h8.8Zm4.961,2.984a4.331,4.331,0,0,0-.711-.055A1.9,1.9,0,0,0,11.5-6V0H10.055V-8.453h1.406l.023.977A2.251,2.251,0,0,1,13.5-8.609a1.477,1.477,0,0,1,.641.109ZM20.375,0a3.036,3.036,0,0,1-.2-.891A3.225,3.225,0,0,1,17.766.156a2.984,2.984,0,0,1-2.051-.707,2.287,2.287,0,0,1-.8-1.793,2.39,2.39,0,0,1,1-2.051,4.733,4.733,0,0,1,2.824-.73h1.406v-.664A1.623,1.623,0,0,0,19.7-7a1.821,1.821,0,0,0-1.336-.449,2.108,2.108,0,0,0-1.3.391,1.151,1.151,0,0,0-.523.945H15.086a2,2,0,0,1,.449-1.223,3.066,3.066,0,0,1,1.219-.934,4.1,4.1,0,0,1,1.691-.344,3.342,3.342,0,0,1,2.289.73,2.635,2.635,0,0,1,.859,2.012v3.891a4.757,4.757,0,0,0,.3,1.852V0Zm-2.4-1.1a2.54,2.54,0,0,0,1.289-.352,2.127,2.127,0,0,0,.883-.914V-4.1H19.016q-2.656,0-2.656,1.555a1.316,1.316,0,0,0,.453,1.063A1.742,1.742,0,0,0,17.977-1.1Zm7.25-7.352.047,1.063A3.08,3.08,0,0,1,27.8-8.609q2.68,0,2.7,3.023V0H29.063V-5.594a1.946,1.946,0,0,0-.418-1.352,1.675,1.675,0,0,0-1.277-.437,2.086,2.086,0,0,0-1.234.375,2.546,2.546,0,0,0-.828.984V0H23.859V-8.453ZM37.609-2.242a1.064,1.064,0,0,0-.441-.91,4.249,4.249,0,0,0-1.539-.559,7.277,7.277,0,0,1-1.742-.562,2.479,2.479,0,0,1-.953-.781,1.869,1.869,0,0,1-.309-1.078A2.193,2.193,0,0,1,33.5-7.891a3.432,3.432,0,0,1,2.246-.719,3.532,3.532,0,0,1,2.332.742,2.357,2.357,0,0,1,.895,1.9H37.523a1.3,1.3,0,0,0-.5-1.023,1.888,1.888,0,0,0-1.27-.43,1.976,1.976,0,0,0-1.234.344,1.082,1.082,0,0,0-.445.9.877.877,0,0,0,.414.789,5.1,5.1,0,0,0,1.5.508,7.8,7.8,0,0,1,1.754.578,2.558,2.558,0,0,1,1,.809,1.988,1.988,0,0,1,.324,1.152,2.163,2.163,0,0,1-.906,1.816A3.8,3.8,0,0,1,35.8.156,4.257,4.257,0,0,1,34-.2a2.922,2.922,0,0,1-1.223-1A2.42,2.42,0,0,1,32.336-2.6h1.445a1.5,1.5,0,0,0,.582,1.152,2.258,2.258,0,0,0,1.434.426,2.331,2.331,0,0,0,1.316-.332A1.02,1.02,0,0,0,37.609-2.242ZM46.156,0a3.036,3.036,0,0,1-.2-.891A3.225,3.225,0,0,1,43.547.156,2.984,2.984,0,0,1,41.5-.551a2.287,2.287,0,0,1-.8-1.793,2.39,2.39,0,0,1,1-2.051,4.733,4.733,0,0,1,2.824-.73H45.93v-.664A1.623,1.623,0,0,0,45.477-7a1.821,1.821,0,0,0-1.336-.449,2.107,2.107,0,0,0-1.3.391,1.151,1.151,0,0,0-.523.945H40.867a2,2,0,0,1,.449-1.223,3.066,3.066,0,0,1,1.219-.934,4.1,4.1,0,0,1,1.691-.344,3.342,3.342,0,0,1,2.289.73,2.635,2.635,0,0,1,.859,2.012v3.891a4.757,4.757,0,0,0,.3,1.852V0Zm-2.4-1.1a2.54,2.54,0,0,0,1.289-.352,2.127,2.127,0,0,0,.883-.914V-4.1H44.8q-2.656,0-2.656,1.555a1.316,1.316,0,0,0,.453,1.063A1.742,1.742,0,0,0,43.758-1.1Zm9.273.078a2.082,2.082,0,0,0,1.352-.469,1.649,1.649,0,0,0,.641-1.172h1.367a2.621,2.621,0,0,1-.5,1.383A3.293,3.293,0,0,1,54.66-.234a3.55,3.55,0,0,1-1.629.391A3.482,3.482,0,0,1,50.285-1a4.59,4.59,0,0,1-1.02-3.152v-.242a5.089,5.089,0,0,1,.453-2.2,3.451,3.451,0,0,1,1.3-1.492,3.7,3.7,0,0,1,2-.531,3.39,3.39,0,0,1,2.363.852,3.043,3.043,0,0,1,1,2.211H55.023A1.992,1.992,0,0,0,54.4-6.895a1.932,1.932,0,0,0-1.379-.527,2.023,2.023,0,0,0-1.707.793,3.724,3.724,0,0,0-.605,2.293v.273a3.65,3.65,0,0,0,.6,2.25A2.033,2.033,0,0,0,53.031-1.023Zm8.375,0a2.082,2.082,0,0,0,1.352-.469A1.649,1.649,0,0,0,63.4-2.664h1.367a2.621,2.621,0,0,1-.5,1.383,3.293,3.293,0,0,1-1.23,1.047,3.55,3.55,0,0,1-1.629.391A3.482,3.482,0,0,1,58.66-1a4.59,4.59,0,0,1-1.02-3.152v-.242a5.089,5.089,0,0,1,.453-2.2,3.451,3.451,0,0,1,1.3-1.492,3.7,3.7,0,0,1,2-.531,3.39,3.39,0,0,1,2.363.852,3.043,3.043,0,0,1,1,2.211H63.4a1.992,1.992,0,0,0-.621-1.348A1.932,1.932,0,0,0,61.4-7.422a2.023,2.023,0,0,0-1.707.793,3.724,3.724,0,0,0-.605,2.293v.273a3.65,3.65,0,0,0,.6,2.25A2.033,2.033,0,0,0,61.406-1.023ZM67.961,0H66.516V-8.453h1.445ZM66.4-10.7a.863.863,0,0,1,.215-.594.807.807,0,0,1,.637-.242.819.819,0,0,1,.641.242.854.854,0,0,1,.219.594.826.826,0,0,1-.219.586.834.834,0,0,1-.641.234.821.821,0,0,1-.637-.234A.834.834,0,0,1,66.4-10.7ZM69.891-4.3a4.993,4.993,0,0,1,.488-2.234A3.643,3.643,0,0,1,71.738-8.07a3.7,3.7,0,0,1,1.988-.539,3.565,3.565,0,0,1,2.793,1.2,4.6,4.6,0,0,1,1.066,3.18v.1a5.036,5.036,0,0,1-.473,2.215A3.589,3.589,0,0,1,75.762-.391a3.743,3.743,0,0,1-2.02.547,3.556,3.556,0,0,1-2.785-1.2A4.575,4.575,0,0,1,69.891-4.2Zm1.453.172A3.616,3.616,0,0,0,72-1.875a2.088,2.088,0,0,0,1.746.852,2.075,2.075,0,0,0,1.75-.863A3.955,3.955,0,0,0,76.141-4.3a3.61,3.61,0,0,0-.66-2.254,2.1,2.1,0,0,0-1.754-.863A2.075,2.075,0,0,0,72-6.57,3.925,3.925,0,0,0,71.344-4.133ZM74.383-12h1.75L74.039-9.7H72.875Zm6.383,3.547.047,1.063a3.08,3.08,0,0,1,2.531-1.219q2.68,0,2.7,3.023V0H84.6V-5.594a1.946,1.946,0,0,0-.418-1.352,1.675,1.675,0,0,0-1.277-.437,2.086,2.086,0,0,0-1.234.375,2.546,2.546,0,0,0-.828.984V0H79.4V-8.453Z" transform="translate(1258 2388)" fill="#12263f"/>
      <path id="Trazado_191697" data-name="Trazado 191697" d="M9.18-10.141H5.523V0H4.031V-10.141H.383v-1.234h8.8Zm4.961,2.984a4.331,4.331,0,0,0-.711-.055A1.9,1.9,0,0,0,11.5-6V0H10.055V-8.453h1.406l.023.977A2.251,2.251,0,0,1,13.5-8.609a1.477,1.477,0,0,1,.641.109ZM20.375,0a3.036,3.036,0,0,1-.2-.891A3.225,3.225,0,0,1,17.766.156a2.984,2.984,0,0,1-2.051-.707,2.287,2.287,0,0,1-.8-1.793,2.39,2.39,0,0,1,1-2.051,4.733,4.733,0,0,1,2.824-.73h1.406v-.664A1.623,1.623,0,0,0,19.7-7a1.821,1.821,0,0,0-1.336-.449,2.108,2.108,0,0,0-1.3.391,1.151,1.151,0,0,0-.523.945H15.086a2,2,0,0,1,.449-1.223,3.066,3.066,0,0,1,1.219-.934,4.1,4.1,0,0,1,1.691-.344,3.342,3.342,0,0,1,2.289.73,2.635,2.635,0,0,1,.859,2.012v3.891a4.757,4.757,0,0,0,.3,1.852V0Zm-2.4-1.1a2.54,2.54,0,0,0,1.289-.352,2.127,2.127,0,0,0,.883-.914V-4.1H19.016q-2.656,0-2.656,1.555a1.316,1.316,0,0,0,.453,1.063A1.742,1.742,0,0,0,17.977-1.1Zm7.25-7.352.047,1.063A3.08,3.08,0,0,1,27.8-8.609q2.68,0,2.7,3.023V0H29.063V-5.594a1.946,1.946,0,0,0-.418-1.352,1.675,1.675,0,0,0-1.277-.437,2.086,2.086,0,0,0-1.234.375,2.546,2.546,0,0,0-.828.984V0H23.859V-8.453ZM37.609-2.242a1.064,1.064,0,0,0-.441-.91,4.249,4.249,0,0,0-1.539-.559,7.277,7.277,0,0,1-1.742-.562,2.479,2.479,0,0,1-.953-.781,1.869,1.869,0,0,1-.309-1.078A2.193,2.193,0,0,1,33.5-7.891a3.432,3.432,0,0,1,2.246-.719,3.532,3.532,0,0,1,2.332.742,2.357,2.357,0,0,1,.895,1.9H37.523a1.3,1.3,0,0,0-.5-1.023,1.888,1.888,0,0,0-1.27-.43,1.976,1.976,0,0,0-1.234.344,1.082,1.082,0,0,0-.445.9.877.877,0,0,0,.414.789,5.1,5.1,0,0,0,1.5.508,7.8,7.8,0,0,1,1.754.578,2.558,2.558,0,0,1,1,.809,1.988,1.988,0,0,1,.324,1.152,2.163,2.163,0,0,1-.906,1.816A3.8,3.8,0,0,1,35.8.156,4.257,4.257,0,0,1,34-.2a2.922,2.922,0,0,1-1.223-1A2.42,2.42,0,0,1,32.336-2.6h1.445a1.5,1.5,0,0,0,.582,1.152,2.258,2.258,0,0,0,1.434.426,2.331,2.331,0,0,0,1.316-.332A1.02,1.02,0,0,0,37.609-2.242ZM46.156,0a3.036,3.036,0,0,1-.2-.891A3.225,3.225,0,0,1,43.547.156,2.984,2.984,0,0,1,41.5-.551a2.287,2.287,0,0,1-.8-1.793,2.39,2.39,0,0,1,1-2.051,4.733,4.733,0,0,1,2.824-.73H45.93v-.664A1.623,1.623,0,0,0,45.477-7a1.821,1.821,0,0,0-1.336-.449,2.107,2.107,0,0,0-1.3.391,1.151,1.151,0,0,0-.523.945H40.867a2,2,0,0,1,.449-1.223,3.066,3.066,0,0,1,1.219-.934,4.1,4.1,0,0,1,1.691-.344,3.342,3.342,0,0,1,2.289.73,2.635,2.635,0,0,1,.859,2.012v3.891a4.757,4.757,0,0,0,.3,1.852V0Zm-2.4-1.1a2.54,2.54,0,0,0,1.289-.352,2.127,2.127,0,0,0,.883-.914V-4.1H44.8q-2.656,0-2.656,1.555a1.316,1.316,0,0,0,.453,1.063A1.742,1.742,0,0,0,43.758-1.1Zm9.273.078a2.082,2.082,0,0,0,1.352-.469,1.649,1.649,0,0,0,.641-1.172h1.367a2.621,2.621,0,0,1-.5,1.383A3.293,3.293,0,0,1,54.66-.234a3.55,3.55,0,0,1-1.629.391A3.482,3.482,0,0,1,50.285-1a4.59,4.59,0,0,1-1.02-3.152v-.242a5.089,5.089,0,0,1,.453-2.2,3.451,3.451,0,0,1,1.3-1.492,3.7,3.7,0,0,1,2-.531,3.39,3.39,0,0,1,2.363.852,3.043,3.043,0,0,1,1,2.211H55.023A1.992,1.992,0,0,0,54.4-6.895a1.932,1.932,0,0,0-1.379-.527,2.023,2.023,0,0,0-1.707.793,3.724,3.724,0,0,0-.605,2.293v.273a3.65,3.65,0,0,0,.6,2.25A2.033,2.033,0,0,0,53.031-1.023Zm8.375,0a2.082,2.082,0,0,0,1.352-.469A1.649,1.649,0,0,0,63.4-2.664h1.367a2.621,2.621,0,0,1-.5,1.383,3.293,3.293,0,0,1-1.23,1.047,3.55,3.55,0,0,1-1.629.391A3.482,3.482,0,0,1,58.66-1a4.59,4.59,0,0,1-1.02-3.152v-.242a5.089,5.089,0,0,1,.453-2.2,3.451,3.451,0,0,1,1.3-1.492,3.7,3.7,0,0,1,2-.531,3.39,3.39,0,0,1,2.363.852,3.043,3.043,0,0,1,1,2.211H63.4a1.992,1.992,0,0,0-.621-1.348A1.932,1.932,0,0,0,61.4-7.422a2.023,2.023,0,0,0-1.707.793,3.724,3.724,0,0,0-.605,2.293v.273a3.65,3.65,0,0,0,.6,2.25A2.033,2.033,0,0,0,61.406-1.023ZM67.961,0H66.516V-8.453h1.445ZM66.4-10.7a.863.863,0,0,1,.215-.594.807.807,0,0,1,.637-.242.819.819,0,0,1,.641.242.854.854,0,0,1,.219.594.826.826,0,0,1-.219.586.834.834,0,0,1-.641.234.821.821,0,0,1-.637-.234A.834.834,0,0,1,66.4-10.7ZM69.891-4.3a4.993,4.993,0,0,1,.488-2.234A3.643,3.643,0,0,1,71.738-8.07a3.7,3.7,0,0,1,1.988-.539,3.565,3.565,0,0,1,2.793,1.2,4.6,4.6,0,0,1,1.066,3.18v.1a5.036,5.036,0,0,1-.473,2.215A3.589,3.589,0,0,1,75.762-.391a3.743,3.743,0,0,1-2.02.547,3.556,3.556,0,0,1-2.785-1.2A4.575,4.575,0,0,1,69.891-4.2Zm1.453.172A3.616,3.616,0,0,0,72-1.875a2.088,2.088,0,0,0,1.746.852,2.075,2.075,0,0,0,1.75-.863A3.955,3.955,0,0,0,76.141-4.3a3.61,3.61,0,0,0-.66-2.254,2.1,2.1,0,0,0-1.754-.863A2.075,2.075,0,0,0,72-6.57,3.925,3.925,0,0,0,71.344-4.133ZM74.383-12h1.75L74.039-9.7H72.875Zm6.383,3.547.047,1.063a3.08,3.08,0,0,1,2.531-1.219q2.68,0,2.7,3.023V0H84.6V-5.594a1.946,1.946,0,0,0-.418-1.352,1.675,1.675,0,0,0-1.277-.437,2.086,2.086,0,0,0-1.234.375,2.546,2.546,0,0,0-.828.984V0H79.4V-8.453Z" transform="translate(1258 2737.613)" fill="#12263f"/>
      <path id="Trazado_191687" data-name="Trazado 191687" d="M0,0H16V455.63H0Z" transform="matrix(0.574, -0.819, 0.819, 0.574, 911, 2436.645)" fill="#fff" opacity="0.695"/>
      <path id="Trazado_191690" data-name="Trazado 191690" d="M9.18-10.141H5.523V0H4.031V-10.141H.383v-1.234h8.8Zm4.961,2.984a4.331,4.331,0,0,0-.711-.055A1.9,1.9,0,0,0,11.5-6V0H10.055V-8.453h1.406l.023.977A2.251,2.251,0,0,1,13.5-8.609a1.477,1.477,0,0,1,.641.109ZM20.375,0a3.036,3.036,0,0,1-.2-.891A3.225,3.225,0,0,1,17.766.156a2.984,2.984,0,0,1-2.051-.707,2.287,2.287,0,0,1-.8-1.793,2.39,2.39,0,0,1,1-2.051,4.733,4.733,0,0,1,2.824-.73h1.406v-.664A1.623,1.623,0,0,0,19.7-7a1.821,1.821,0,0,0-1.336-.449,2.108,2.108,0,0,0-1.3.391,1.151,1.151,0,0,0-.523.945H15.086a2,2,0,0,1,.449-1.223,3.066,3.066,0,0,1,1.219-.934,4.1,4.1,0,0,1,1.691-.344,3.342,3.342,0,0,1,2.289.73,2.635,2.635,0,0,1,.859,2.012v3.891a4.757,4.757,0,0,0,.3,1.852V0Zm-2.4-1.1a2.54,2.54,0,0,0,1.289-.352,2.127,2.127,0,0,0,.883-.914V-4.1H19.016q-2.656,0-2.656,1.555a1.316,1.316,0,0,0,.453,1.063A1.742,1.742,0,0,0,17.977-1.1Zm7.25-7.352.047,1.063A3.08,3.08,0,0,1,27.8-8.609q2.68,0,2.7,3.023V0H29.063V-5.594a1.946,1.946,0,0,0-.418-1.352,1.675,1.675,0,0,0-1.277-.437,2.086,2.086,0,0,0-1.234.375,2.546,2.546,0,0,0-.828.984V0H23.859V-8.453ZM37.609-2.242a1.064,1.064,0,0,0-.441-.91,4.249,4.249,0,0,0-1.539-.559,7.277,7.277,0,0,1-1.742-.562,2.479,2.479,0,0,1-.953-.781,1.869,1.869,0,0,1-.309-1.078A2.193,2.193,0,0,1,33.5-7.891a3.432,3.432,0,0,1,2.246-.719,3.532,3.532,0,0,1,2.332.742,2.357,2.357,0,0,1,.895,1.9H37.523a1.3,1.3,0,0,0-.5-1.023,1.888,1.888,0,0,0-1.27-.43,1.976,1.976,0,0,0-1.234.344,1.082,1.082,0,0,0-.445.9.877.877,0,0,0,.414.789,5.1,5.1,0,0,0,1.5.508,7.8,7.8,0,0,1,1.754.578,2.558,2.558,0,0,1,1,.809,1.988,1.988,0,0,1,.324,1.152,2.163,2.163,0,0,1-.906,1.816A3.8,3.8,0,0,1,35.8.156,4.257,4.257,0,0,1,34-.2a2.922,2.922,0,0,1-1.223-1A2.42,2.42,0,0,1,32.336-2.6h1.445a1.5,1.5,0,0,0,.582,1.152,2.258,2.258,0,0,0,1.434.426,2.331,2.331,0,0,0,1.316-.332A1.02,1.02,0,0,0,37.609-2.242ZM46.156,0a3.036,3.036,0,0,1-.2-.891A3.225,3.225,0,0,1,43.547.156,2.984,2.984,0,0,1,41.5-.551a2.287,2.287,0,0,1-.8-1.793,2.39,2.39,0,0,1,1-2.051,4.733,4.733,0,0,1,2.824-.73H45.93v-.664A1.623,1.623,0,0,0,45.477-7a1.821,1.821,0,0,0-1.336-.449,2.107,2.107,0,0,0-1.3.391,1.151,1.151,0,0,0-.523.945H40.867a2,2,0,0,1,.449-1.223,3.066,3.066,0,0,1,1.219-.934,4.1,4.1,0,0,1,1.691-.344,3.342,3.342,0,0,1,2.289.73,2.635,2.635,0,0,1,.859,2.012v3.891a4.757,4.757,0,0,0,.3,1.852V0Zm-2.4-1.1a2.54,2.54,0,0,0,1.289-.352,2.127,2.127,0,0,0,.883-.914V-4.1H44.8q-2.656,0-2.656,1.555a1.316,1.316,0,0,0,.453,1.063A1.742,1.742,0,0,0,43.758-1.1Zm9.273.078a2.082,2.082,0,0,0,1.352-.469,1.649,1.649,0,0,0,.641-1.172h1.367a2.621,2.621,0,0,1-.5,1.383A3.293,3.293,0,0,1,54.66-.234a3.55,3.55,0,0,1-1.629.391A3.482,3.482,0,0,1,50.285-1a4.59,4.59,0,0,1-1.02-3.152v-.242a5.089,5.089,0,0,1,.453-2.2,3.451,3.451,0,0,1,1.3-1.492,3.7,3.7,0,0,1,2-.531,3.39,3.39,0,0,1,2.363.852,3.043,3.043,0,0,1,1,2.211H55.023A1.992,1.992,0,0,0,54.4-6.895a1.932,1.932,0,0,0-1.379-.527,2.023,2.023,0,0,0-1.707.793,3.724,3.724,0,0,0-.605,2.293v.273a3.65,3.65,0,0,0,.6,2.25A2.033,2.033,0,0,0,53.031-1.023Zm8.375,0a2.082,2.082,0,0,0,1.352-.469A1.649,1.649,0,0,0,63.4-2.664h1.367a2.621,2.621,0,0,1-.5,1.383,3.293,3.293,0,0,1-1.23,1.047,3.55,3.55,0,0,1-1.629.391A3.482,3.482,0,0,1,58.66-1a4.59,4.59,0,0,1-1.02-3.152v-.242a5.089,5.089,0,0,1,.453-2.2,3.451,3.451,0,0,1,1.3-1.492,3.7,3.7,0,0,1,2-.531,3.39,3.39,0,0,1,2.363.852,3.043,3.043,0,0,1,1,2.211H63.4a1.992,1.992,0,0,0-.621-1.348A1.932,1.932,0,0,0,61.4-7.422a2.023,2.023,0,0,0-1.707.793,3.724,3.724,0,0,0-.605,2.293v.273a3.65,3.65,0,0,0,.6,2.25A2.033,2.033,0,0,0,61.406-1.023ZM67.961,0H66.516V-8.453h1.445ZM66.4-10.7a.863.863,0,0,1,.215-.594.807.807,0,0,1,.637-.242.819.819,0,0,1,.641.242.854.854,0,0,1,.219.594.826.826,0,0,1-.219.586.834.834,0,0,1-.641.234.821.821,0,0,1-.637-.234A.834.834,0,0,1,66.4-10.7ZM69.891-4.3a4.993,4.993,0,0,1,.488-2.234A3.643,3.643,0,0,1,71.738-8.07a3.7,3.7,0,0,1,1.988-.539,3.565,3.565,0,0,1,2.793,1.2,4.6,4.6,0,0,1,1.066,3.18v.1a5.036,5.036,0,0,1-.473,2.215A3.589,3.589,0,0,1,75.762-.391a3.743,3.743,0,0,1-2.02.547,3.556,3.556,0,0,1-2.785-1.2A4.575,4.575,0,0,1,69.891-4.2Zm1.453.172A3.616,3.616,0,0,0,72-1.875a2.088,2.088,0,0,0,1.746.852,2.075,2.075,0,0,0,1.75-.863A3.955,3.955,0,0,0,76.141-4.3a3.61,3.61,0,0,0-.66-2.254,2.1,2.1,0,0,0-1.754-.863A2.075,2.075,0,0,0,72-6.57,3.925,3.925,0,0,0,71.344-4.133ZM74.383-12h1.75L74.039-9.7H72.875Zm6.383,3.547.047,1.063a3.08,3.08,0,0,1,2.531-1.219q2.68,0,2.7,3.023V0H84.6V-5.594a1.946,1.946,0,0,0-.418-1.352,1.675,1.675,0,0,0-1.277-.437,2.086,2.086,0,0,0-1.234.375,2.546,2.546,0,0,0-.828.984V0H79.4V-8.453Z" transform="translate(873 2388)" fill="#12263f"/>
      <g id="Grupo_144170" data-name="Grupo 144170" transform="translate(872 2396.613)">
        <g id="Grupo_144165" data-name="Grupo 144165" clip-path="url(#clip-path)">
          <path id="Trazado_190598" data-name="Trazado 190598" d="M.192,4.722,0,40.33H88.955L88.763,4.722Z" transform="translate(0 1.443)" fill="#8a947e"/>
          <path id="Trazado_190599" data-name="Trazado 190599" d="M90.392,2.056H1.821L1.631,37.665H90.584Z" transform="translate(0.498 0.628)" fill="#9da88f"/>
          <path id="Trazado_190600" data-name="Trazado 190600" d="M4.056,0,3.864,35.609H92.819L92.627,0Z" transform="translate(1.181 0)" fill="#edf5d0"/>
          <path id="Trazado_190601" data-name="Trazado 190601" d="M88.1,30.842H6.791l.138-27.9H87.967ZM8.318,29.295H86.577L86.46,4.479H8.436Z" transform="translate(2.075 0.899)" fill="#9da88f"/>
          <g id="Grupo_144164" data-name="Grupo 144164" transform="translate(0 0)">
            <g id="Grupo_144163" data-name="Grupo 144163" clip-path="url(#clip-path)">
              <path id="Trazado_190602" data-name="Trazado 190602" d="M40.192,3.687c-5.318,0-9.643,5.938-9.651,13.24-.005,4.768,1.828,8.953,4.575,11.3a7.5,7.5,0,0,0,10.151,0c2.748-2.35,4.581-6.536,4.575-11.3-.008-7.3-4.332-13.24-9.649-13.24m3.752,23.646a5.958,5.958,0,0,1-7.506,0c-2.611-1.948-4.384-5.885-4.38-10.407.007-6.456,3.648-11.7,8.134-11.7s8.126,5.246,8.132,11.7c.005,4.521-1.769,8.459-4.38,10.407" transform="translate(9.332 1.127)" fill="#9da88f"/>
              <path id="Trazado_190603" data-name="Trazado 190603" d="M61.612,14.38a3.414,3.414,0,1,1-3.424-3.468,3.429,3.429,0,0,1,3.424,3.468" transform="translate(16.739 3.334)" fill="#9da88f"/>
              <path id="Trazado_190604" data-name="Trazado 190604" d="M22.132,10.342A2.845,2.845,0,1,1,19.3,7.391a2.889,2.889,0,0,1,2.834,2.951" transform="translate(5.025 2.258)" fill="#9da88f"/>
              <path id="Trazado_190605" data-name="Trazado 190605" d="M28.908,14.7H12.216l.007-1.542H28.911Z" transform="translate(3.732 4.02)" fill="#9da88f"/>
              <path id="Trazado_190606" data-name="Trazado 190606" d="M26.68,17.055H13.587l.007-1.543H26.684Z" transform="translate(4.152 4.74)" fill="#9da88f"/>
              <path id="Trazado_190607" data-name="Trazado 190607" d="M24.919,19.312H14.67l.005-1.544H24.923Z" transform="translate(4.482 5.429)" fill="#9da88f"/>
              <path id="Trazado_190608" data-name="Trazado 190608" d="M44.92,14.995c-.016-.016-.016-.016-.03-.016v-.016a19.511,19.511,0,0,0,.073-4.406,3.966,3.966,0,0,0-1.5-2.31,4.529,4.529,0,0,0-2.031-.693,12.893,12.893,0,0,0-4.154,0,4.529,4.529,0,0,0-2.031.693,3.966,3.966,0,0,0-1.5,2.31,19.588,19.588,0,0,0,.073,4.406v.016c-.014,0-.014,0-.03.016-.394.077-.607.849-.441,1.712s.606,1.48,1,1.419a7.446,7.446,0,0,0,.787,3.009c.44.68.8,1.205,1.123,1.637v2.674L35.6,26.2l-.487.556H35.1l-.821.339a7.492,7.492,0,0,0,10.149,0l-.82-.339h-.016L43.1,26.2l-.653-.757V22.772c.317-.432.681-.957,1.121-1.637a7.444,7.444,0,0,0,.789-3.009c.394.061.849-.555,1-1.419s-.047-1.635-.441-1.712" transform="translate(10.17 2.257)" fill="#9da88f"/>
              <g id="Grupo_144162" data-name="Grupo 144162" opacity="0.1">
                <g id="Grupo_144161" data-name="Grupo 144161">
                  <g id="Grupo_144160" data-name="Grupo 144160" clip-path="url(#clip-path-3)">
                    <path id="Trazado_190609" data-name="Trazado 190609" d="M5.238,0,5.223,2.684H2.32L2.3,6.165H.192L0,41.774H47.274V0Z" transform="translate(0 0)" fill="#1d1d1b"/>
                  </g>
                </g>
              </g>
            </g>
          </g>
        </g>
      </g>
      <path id="Trazado_191688" data-name="Trazado 191688" d="M0,0H16V291H0Z" transform="translate(967 2567.5) rotate(-90)" fill="#fff" opacity="0.721"/>
      <path id="Trazado_191685" data-name="Trazado 191685" d="M0,0H16V369.337H0Z" transform="translate(955.928 2567.5) rotate(-111)" fill="#fff"/>
      <path id="Trazado_191689" data-name="Trazado 191689" d="M0,0H16V369.337H0Z" transform="translate(955.928 2698.796) rotate(-111)" fill="#fff" opacity="0.619"/>
      <g id="Grupo_144174" data-name="Grupo 144174" transform="translate(1257 2538.613)">
        <g id="Grupo_144165-2" data-name="Grupo 144165" clip-path="url(#clip-path)">
          <path id="Trazado_190598-2" data-name="Trazado 190598" d="M.192,4.722,0,40.33H88.955L88.763,4.722Z" transform="translate(0 1.443)" fill="#8a947e"/>
          <path id="Trazado_190599-2" data-name="Trazado 190599" d="M90.392,2.056H1.821L1.631,37.665H90.584Z" transform="translate(0.498 0.628)" fill="#9da88f"/>
          <path id="Trazado_190600-2" data-name="Trazado 190600" d="M4.056,0,3.864,35.609H92.819L92.627,0Z" transform="translate(1.181 0)" fill="#edf5d0"/>
          <path id="Trazado_190601-2" data-name="Trazado 190601" d="M88.1,30.842H6.791l.138-27.9H87.967ZM8.318,29.295H86.577L86.46,4.479H8.436Z" transform="translate(2.075 0.899)" fill="#9da88f"/>
          <g id="Grupo_144164-2" data-name="Grupo 144164" transform="translate(0 0)">
            <g id="Grupo_144163-2" data-name="Grupo 144163" clip-path="url(#clip-path)">
              <path id="Trazado_190602-2" data-name="Trazado 190602" d="M40.192,3.687c-5.318,0-9.643,5.938-9.651,13.24-.005,4.768,1.828,8.953,4.575,11.3a7.5,7.5,0,0,0,10.151,0c2.748-2.35,4.581-6.536,4.575-11.3-.008-7.3-4.332-13.24-9.649-13.24m3.752,23.646a5.958,5.958,0,0,1-7.506,0c-2.611-1.948-4.384-5.885-4.38-10.407.007-6.456,3.648-11.7,8.134-11.7s8.126,5.246,8.132,11.7c.005,4.521-1.769,8.459-4.38,10.407" transform="translate(9.332 1.127)" fill="#9da88f"/>
              <path id="Trazado_190603-2" data-name="Trazado 190603" d="M61.612,14.38a3.414,3.414,0,1,1-3.424-3.468,3.429,3.429,0,0,1,3.424,3.468" transform="translate(16.739 3.334)" fill="#9da88f"/>
              <path id="Trazado_190604-2" data-name="Trazado 190604" d="M22.132,10.342A2.845,2.845,0,1,1,19.3,7.391a2.889,2.889,0,0,1,2.834,2.951" transform="translate(5.025 2.258)" fill="#9da88f"/>
              <path id="Trazado_190605-2" data-name="Trazado 190605" d="M28.908,14.7H12.216l.007-1.542H28.911Z" transform="translate(3.732 4.02)" fill="#9da88f"/>
              <path id="Trazado_190606-2" data-name="Trazado 190606" d="M26.68,17.055H13.587l.007-1.543H26.684Z" transform="translate(4.152 4.74)" fill="#9da88f"/>
              <path id="Trazado_190607-2" data-name="Trazado 190607" d="M24.919,19.312H14.67l.005-1.544H24.923Z" transform="translate(4.482 5.429)" fill="#9da88f"/>
              <path id="Trazado_190608-2" data-name="Trazado 190608" d="M44.92,14.995c-.016-.016-.016-.016-.03-.016v-.016a19.511,19.511,0,0,0,.073-4.406,3.966,3.966,0,0,0-1.5-2.31,4.529,4.529,0,0,0-2.031-.693,12.893,12.893,0,0,0-4.154,0,4.529,4.529,0,0,0-2.031.693,3.966,3.966,0,0,0-1.5,2.31,19.588,19.588,0,0,0,.073,4.406v.016c-.014,0-.014,0-.03.016-.394.077-.607.849-.441,1.712s.606,1.48,1,1.419a7.446,7.446,0,0,0,.787,3.009c.44.68.8,1.205,1.123,1.637v2.674L35.6,26.2l-.487.556H35.1l-.821.339a7.492,7.492,0,0,0,10.149,0l-.82-.339h-.016L43.1,26.2l-.653-.757V22.772c.317-.432.681-.957,1.121-1.637a7.444,7.444,0,0,0,.789-3.009c.394.061.849-.555,1-1.419s-.047-1.635-.441-1.712" transform="translate(10.17 2.257)" fill="#9da88f"/>
              <g id="Grupo_144162-2" data-name="Grupo 144162" opacity="0.1">
                <g id="Grupo_144161-2" data-name="Grupo 144161">
                  <g id="Grupo_144160-2" data-name="Grupo 144160" clip-path="url(#clip-path-3)">
                    <path id="Trazado_190609-2" data-name="Trazado 190609" d="M5.238,0,5.223,2.684H2.32L2.3,6.165H.192L0,41.774H47.274V0Z" transform="translate(0 0)" fill="#1d1d1b"/>
                  </g>
                </g>
              </g>
            </g>
          </g>
        </g>
      </g>
      <path id="Trazado_191691" data-name="Trazado 191691" d="M0,0H16V369.337H0Z" transform="matrix(0.342, -0.94, 0.94, 0.342, 925.936, 2572.475)" fill="#fff"/>
      <g id="Grupo_144175" data-name="Grupo 144175" transform="translate(1257 2676.227)">
        <g id="Grupo_144165-3" data-name="Grupo 144165" clip-path="url(#clip-path)">
          <path id="Trazado_190598-3" data-name="Trazado 190598" d="M.192,4.722,0,40.33H88.955L88.763,4.722Z" transform="translate(0 1.443)" fill="#8a947e"/>
          <path id="Trazado_190599-3" data-name="Trazado 190599" d="M90.392,2.056H1.821L1.631,37.665H90.584Z" transform="translate(0.498 0.628)" fill="#9da88f"/>
          <path id="Trazado_190600-3" data-name="Trazado 190600" d="M4.056,0,3.864,35.609H92.819L92.627,0Z" transform="translate(1.181 0)" fill="#edf5d0"/>
          <path id="Trazado_190601-3" data-name="Trazado 190601" d="M88.1,30.842H6.791l.138-27.9H87.967ZM8.318,29.295H86.577L86.46,4.479H8.436Z" transform="translate(2.075 0.899)" fill="#9da88f"/>
          <g id="Grupo_144164-3" data-name="Grupo 144164" transform="translate(0 0)">
            <g id="Grupo_144163-3" data-name="Grupo 144163" clip-path="url(#clip-path)">
              <path id="Trazado_190602-3" data-name="Trazado 190602" d="M40.192,3.687c-5.318,0-9.643,5.938-9.651,13.24-.005,4.768,1.828,8.953,4.575,11.3a7.5,7.5,0,0,0,10.151,0c2.748-2.35,4.581-6.536,4.575-11.3-.008-7.3-4.332-13.24-9.649-13.24m3.752,23.646a5.958,5.958,0,0,1-7.506,0c-2.611-1.948-4.384-5.885-4.38-10.407.007-6.456,3.648-11.7,8.134-11.7s8.126,5.246,8.132,11.7c.005,4.521-1.769,8.459-4.38,10.407" transform="translate(9.332 1.127)" fill="#9da88f"/>
              <path id="Trazado_190603-3" data-name="Trazado 190603" d="M61.612,14.38a3.414,3.414,0,1,1-3.424-3.468,3.429,3.429,0,0,1,3.424,3.468" transform="translate(16.739 3.334)" fill="#9da88f"/>
              <path id="Trazado_190604-3" data-name="Trazado 190604" d="M22.132,10.342A2.845,2.845,0,1,1,19.3,7.391a2.889,2.889,0,0,1,2.834,2.951" transform="translate(5.025 2.258)" fill="#9da88f"/>
              <path id="Trazado_190605-3" data-name="Trazado 190605" d="M28.908,14.7H12.216l.007-1.542H28.911Z" transform="translate(3.732 4.02)" fill="#9da88f"/>
              <path id="Trazado_190606-3" data-name="Trazado 190606" d="M26.68,17.055H13.587l.007-1.543H26.684Z" transform="translate(4.152 4.74)" fill="#9da88f"/>
              <path id="Trazado_190607-3" data-name="Trazado 190607" d="M24.919,19.312H14.67l.005-1.544H24.923Z" transform="translate(4.482 5.429)" fill="#9da88f"/>
              <path id="Trazado_190608-3" data-name="Trazado 190608" d="M44.92,14.995c-.016-.016-.016-.016-.03-.016v-.016a19.511,19.511,0,0,0,.073-4.406,3.966,3.966,0,0,0-1.5-2.31,4.529,4.529,0,0,0-2.031-.693,12.893,12.893,0,0,0-4.154,0,4.529,4.529,0,0,0-2.031.693,3.966,3.966,0,0,0-1.5,2.31,19.588,19.588,0,0,0,.073,4.406v.016c-.014,0-.014,0-.03.016-.394.077-.607.849-.441,1.712s.606,1.48,1,1.419a7.446,7.446,0,0,0,.787,3.009c.44.68.8,1.205,1.123,1.637v2.674L35.6,26.2l-.487.556H35.1l-.821.339a7.492,7.492,0,0,0,10.149,0l-.82-.339h-.016L43.1,26.2l-.653-.757V22.772c.317-.432.681-.957,1.121-1.637a7.444,7.444,0,0,0,.789-3.009c.394.061.849-.555,1-1.419s-.047-1.635-.441-1.712" transform="translate(10.17 2.257)" fill="#9da88f"/>
              <g id="Grupo_144162-3" data-name="Grupo 144162" opacity="0.1">
                <g id="Grupo_144161-3" data-name="Grupo 144161">
                  <g id="Grupo_144160-3" data-name="Grupo 144160" clip-path="url(#clip-path-3)">
                    <path id="Trazado_190609-3" data-name="Trazado 190609" d="M5.238,0,5.223,2.684H2.32L2.3,6.165H.192L0,41.774H47.274V0Z" transform="translate(0 0)" fill="#1d1d1b"/>
                  </g>
                </g>
              </g>
            </g>
          </g>
        </g>
      </g>
      <g id="Grupo_144171" data-name="Grupo 144171" transform="translate(872 2538.613)">
        <g id="Grupo_144165-4" data-name="Grupo 144165" clip-path="url(#clip-path)">
          <path id="Trazado_190598-4" data-name="Trazado 190598" d="M.192,4.722,0,40.33H88.955L88.763,4.722Z" transform="translate(0 1.443)" fill="#8a947e"/>
          <path id="Trazado_190599-4" data-name="Trazado 190599" d="M90.392,2.056H1.821L1.631,37.665H90.584Z" transform="translate(0.498 0.628)" fill="#9da88f"/>
          <path id="Trazado_190600-4" data-name="Trazado 190600" d="M4.056,0,3.864,35.609H92.819L92.627,0Z" transform="translate(1.181 0)" fill="#edf5d0"/>
          <path id="Trazado_190601-4" data-name="Trazado 190601" d="M88.1,30.842H6.791l.138-27.9H87.967ZM8.318,29.295H86.577L86.46,4.479H8.436Z" transform="translate(2.075 0.899)" fill="#9da88f"/>
          <g id="Grupo_144164-4" data-name="Grupo 144164" transform="translate(0 0)">
            <g id="Grupo_144163-4" data-name="Grupo 144163" clip-path="url(#clip-path)">
              <path id="Trazado_190602-4" data-name="Trazado 190602" d="M40.192,3.687c-5.318,0-9.643,5.938-9.651,13.24-.005,4.768,1.828,8.953,4.575,11.3a7.5,7.5,0,0,0,10.151,0c2.748-2.35,4.581-6.536,4.575-11.3-.008-7.3-4.332-13.24-9.649-13.24m3.752,23.646a5.958,5.958,0,0,1-7.506,0c-2.611-1.948-4.384-5.885-4.38-10.407.007-6.456,3.648-11.7,8.134-11.7s8.126,5.246,8.132,11.7c.005,4.521-1.769,8.459-4.38,10.407" transform="translate(9.332 1.127)" fill="#9da88f"/>
              <path id="Trazado_190603-4" data-name="Trazado 190603" d="M61.612,14.38a3.414,3.414,0,1,1-3.424-3.468,3.429,3.429,0,0,1,3.424,3.468" transform="translate(16.739 3.334)" fill="#9da88f"/>
              <path id="Trazado_190604-4" data-name="Trazado 190604" d="M22.132,10.342A2.845,2.845,0,1,1,19.3,7.391a2.889,2.889,0,0,1,2.834,2.951" transform="translate(5.025 2.258)" fill="#9da88f"/>
              <path id="Trazado_190605-4" data-name="Trazado 190605" d="M28.908,14.7H12.216l.007-1.542H28.911Z" transform="translate(3.732 4.02)" fill="#9da88f"/>
              <path id="Trazado_190606-4" data-name="Trazado 190606" d="M26.68,17.055H13.587l.007-1.543H26.684Z" transform="translate(4.152 4.74)" fill="#9da88f"/>
              <path id="Trazado_190607-4" data-name="Trazado 190607" d="M24.919,19.312H14.67l.005-1.544H24.923Z" transform="translate(4.482 5.429)" fill="#9da88f"/>
              <path id="Trazado_190608-4" data-name="Trazado 190608" d="M44.92,14.995c-.016-.016-.016-.016-.03-.016v-.016a19.511,19.511,0,0,0,.073-4.406,3.966,3.966,0,0,0-1.5-2.31,4.529,4.529,0,0,0-2.031-.693,12.893,12.893,0,0,0-4.154,0,4.529,4.529,0,0,0-2.031.693,3.966,3.966,0,0,0-1.5,2.31,19.588,19.588,0,0,0,.073,4.406v.016c-.014,0-.014,0-.03.016-.394.077-.607.849-.441,1.712s.606,1.48,1,1.419a7.446,7.446,0,0,0,.787,3.009c.44.68.8,1.205,1.123,1.637v2.674L35.6,26.2l-.487.556H35.1l-.821.339a7.492,7.492,0,0,0,10.149,0l-.82-.339h-.016L43.1,26.2l-.653-.757V22.772c.317-.432.681-.957,1.121-1.637a7.444,7.444,0,0,0,.789-3.009c.394.061.849-.555,1-1.419s-.047-1.635-.441-1.712" transform="translate(10.17 2.257)" fill="#9da88f"/>
              <g id="Grupo_144162-4" data-name="Grupo 144162" opacity="0.1">
                <g id="Grupo_144161-4" data-name="Grupo 144161">
                  <g id="Grupo_144160-4" data-name="Grupo 144160" clip-path="url(#clip-path-3)">
                    <path id="Trazado_190609-4" data-name="Trazado 190609" d="M5.238,0,5.223,2.684H2.32L2.3,6.165H.192L0,41.774H47.274V0Z" transform="translate(0 0)" fill="#1d1d1b"/>
                  </g>
                </g>
              </g>
            </g>
          </g>
        </g>
      </g>
      <path id="Trazado_191686" data-name="Trazado 191686" d="M0,0H16V455.63H0Z" transform="translate(1300.06 2411.991) rotate(52)" fill="#fff" opacity="0.594"/>
      <g id="Grupo_144172" data-name="Grupo 144172" transform="translate(872 2676.227)">
        <g id="Grupo_144165-5" data-name="Grupo 144165" clip-path="url(#clip-path)">
          <path id="Trazado_190598-5" data-name="Trazado 190598" d="M.192,4.722,0,40.33H88.955L88.763,4.722Z" transform="translate(0 1.443)" fill="#8a947e"/>
          <path id="Trazado_190599-5" data-name="Trazado 190599" d="M90.392,2.056H1.821L1.631,37.665H90.584Z" transform="translate(0.498 0.628)" fill="#9da88f"/>
          <path id="Trazado_190600-5" data-name="Trazado 190600" d="M4.056,0,3.864,35.609H92.819L92.627,0Z" transform="translate(1.181 0)" fill="#edf5d0"/>
          <path id="Trazado_190601-5" data-name="Trazado 190601" d="M88.1,30.842H6.791l.138-27.9H87.967ZM8.318,29.295H86.577L86.46,4.479H8.436Z" transform="translate(2.075 0.899)" fill="#9da88f"/>
          <g id="Grupo_144164-5" data-name="Grupo 144164" transform="translate(0 0)">
            <g id="Grupo_144163-5" data-name="Grupo 144163" clip-path="url(#clip-path)">
              <path id="Trazado_190602-5" data-name="Trazado 190602" d="M40.192,3.687c-5.318,0-9.643,5.938-9.651,13.24-.005,4.768,1.828,8.953,4.575,11.3a7.5,7.5,0,0,0,10.151,0c2.748-2.35,4.581-6.536,4.575-11.3-.008-7.3-4.332-13.24-9.649-13.24m3.752,23.646a5.958,5.958,0,0,1-7.506,0c-2.611-1.948-4.384-5.885-4.38-10.407.007-6.456,3.648-11.7,8.134-11.7s8.126,5.246,8.132,11.7c.005,4.521-1.769,8.459-4.38,10.407" transform="translate(9.332 1.127)" fill="#9da88f"/>
              <path id="Trazado_190603-5" data-name="Trazado 190603" d="M61.612,14.38a3.414,3.414,0,1,1-3.424-3.468,3.429,3.429,0,0,1,3.424,3.468" transform="translate(16.739 3.334)" fill="#9da88f"/>
              <path id="Trazado_190604-5" data-name="Trazado 190604" d="M22.132,10.342A2.845,2.845,0,1,1,19.3,7.391a2.889,2.889,0,0,1,2.834,2.951" transform="translate(5.025 2.258)" fill="#9da88f"/>
              <path id="Trazado_190605-5" data-name="Trazado 190605" d="M28.908,14.7H12.216l.007-1.542H28.911Z" transform="translate(3.732 4.02)" fill="#9da88f"/>
              <path id="Trazado_190606-5" data-name="Trazado 190606" d="M26.68,17.055H13.587l.007-1.543H26.684Z" transform="translate(4.152 4.74)" fill="#9da88f"/>
              <path id="Trazado_190607-5" data-name="Trazado 190607" d="M24.919,19.312H14.67l.005-1.544H24.923Z" transform="translate(4.482 5.429)" fill="#9da88f"/>
              <path id="Trazado_190608-5" data-name="Trazado 190608" d="M44.92,14.995c-.016-.016-.016-.016-.03-.016v-.016a19.511,19.511,0,0,0,.073-4.406,3.966,3.966,0,0,0-1.5-2.31,4.529,4.529,0,0,0-2.031-.693,12.893,12.893,0,0,0-4.154,0,4.529,4.529,0,0,0-2.031.693,3.966,3.966,0,0,0-1.5,2.31,19.588,19.588,0,0,0,.073,4.406v.016c-.014,0-.014,0-.03.016-.394.077-.607.849-.441,1.712s.606,1.48,1,1.419a7.446,7.446,0,0,0,.787,3.009c.44.68.8,1.205,1.123,1.637v2.674L35.6,26.2l-.487.556H35.1l-.821.339a7.492,7.492,0,0,0,10.149,0l-.82-.339h-.016L43.1,26.2l-.653-.757V22.772c.317-.432.681-.957,1.121-1.637a7.444,7.444,0,0,0,.789-3.009c.394.061.849-.555,1-1.419s-.047-1.635-.441-1.712" transform="translate(10.17 2.257)" fill="#9da88f"/>
              <g id="Grupo_144162-5" data-name="Grupo 144162" opacity="0.1">
                <g id="Grupo_144161-5" data-name="Grupo 144161">
                  <g id="Grupo_144160-5" data-name="Grupo 144160" clip-path="url(#clip-path-3)">
                    <path id="Trazado_190609-5" data-name="Trazado 190609" d="M5.238,0,5.223,2.684H2.32L2.3,6.165H.192L0,41.774H47.274V0Z" transform="translate(0 0)" fill="#1d1d1b"/>
                  </g>
                </g>
              </g>
            </g>
          </g>
        </g>
      </g>
      <g id="Grupo_144173" data-name="Grupo 144173" transform="translate(1257 2396.613)">
        <g id="Grupo_144165-6" data-name="Grupo 144165" clip-path="url(#clip-path)">
          <path id="Trazado_190598-6" data-name="Trazado 190598" d="M.192,4.722,0,40.33H88.955L88.763,4.722Z" transform="translate(0 1.443)" fill="#8a947e"/>
          <path id="Trazado_190599-6" data-name="Trazado 190599" d="M90.392,2.056H1.821L1.631,37.665H90.584Z" transform="translate(0.498 0.628)" fill="#9da88f"/>
          <path id="Trazado_190600-6" data-name="Trazado 190600" d="M4.056,0,3.864,35.609H92.819L92.627,0Z" transform="translate(1.181 0)" fill="#edf5d0"/>
          <path id="Trazado_190601-6" data-name="Trazado 190601" d="M88.1,30.842H6.791l.138-27.9H87.967ZM8.318,29.295H86.577L86.46,4.479H8.436Z" transform="translate(2.075 0.899)" fill="#9da88f"/>
          <g id="Grupo_144164-6" data-name="Grupo 144164" transform="translate(0 0)">
            <g id="Grupo_144163-6" data-name="Grupo 144163" clip-path="url(#clip-path)">
              <path id="Trazado_190602-6" data-name="Trazado 190602" d="M40.192,3.687c-5.318,0-9.643,5.938-9.651,13.24-.005,4.768,1.828,8.953,4.575,11.3a7.5,7.5,0,0,0,10.151,0c2.748-2.35,4.581-6.536,4.575-11.3-.008-7.3-4.332-13.24-9.649-13.24m3.752,23.646a5.958,5.958,0,0,1-7.506,0c-2.611-1.948-4.384-5.885-4.38-10.407.007-6.456,3.648-11.7,8.134-11.7s8.126,5.246,8.132,11.7c.005,4.521-1.769,8.459-4.38,10.407" transform="translate(9.332 1.127)" fill="#9da88f"/>
              <path id="Trazado_190603-6" data-name="Trazado 190603" d="M61.612,14.38a3.414,3.414,0,1,1-3.424-3.468,3.429,3.429,0,0,1,3.424,3.468" transform="translate(16.739 3.334)" fill="#9da88f"/>
              <path id="Trazado_190604-6" data-name="Trazado 190604" d="M22.132,10.342A2.845,2.845,0,1,1,19.3,7.391a2.889,2.889,0,0,1,2.834,2.951" transform="translate(5.025 2.258)" fill="#9da88f"/>
              <path id="Trazado_190605-6" data-name="Trazado 190605" d="M28.908,14.7H12.216l.007-1.542H28.911Z" transform="translate(3.732 4.02)" fill="#9da88f"/>
              <path id="Trazado_190606-6" data-name="Trazado 190606" d="M26.68,17.055H13.587l.007-1.543H26.684Z" transform="translate(4.152 4.74)" fill="#9da88f"/>
              <path id="Trazado_190607-6" data-name="Trazado 190607" d="M24.919,19.312H14.67l.005-1.544H24.923Z" transform="translate(4.482 5.429)" fill="#9da88f"/>
              <path id="Trazado_190608-6" data-name="Trazado 190608" d="M44.92,14.995c-.016-.016-.016-.016-.03-.016v-.016a19.511,19.511,0,0,0,.073-4.406,3.966,3.966,0,0,0-1.5-2.31,4.529,4.529,0,0,0-2.031-.693,12.893,12.893,0,0,0-4.154,0,4.529,4.529,0,0,0-2.031.693,3.966,3.966,0,0,0-1.5,2.31,19.588,19.588,0,0,0,.073,4.406v.016c-.014,0-.014,0-.03.016-.394.077-.607.849-.441,1.712s.606,1.48,1,1.419a7.446,7.446,0,0,0,.787,3.009c.44.68.8,1.205,1.123,1.637v2.674L35.6,26.2l-.487.556H35.1l-.821.339a7.492,7.492,0,0,0,10.149,0l-.82-.339h-.016L43.1,26.2l-.653-.757V22.772c.317-.432.681-.957,1.121-1.637a7.444,7.444,0,0,0,.789-3.009c.394.061.849-.555,1-1.419s-.047-1.635-.441-1.712" transform="translate(10.17 2.257)" fill="#9da88f"/>
              <g id="Grupo_144162-6" data-name="Grupo 144162" opacity="0.1">
                <g id="Grupo_144161-6" data-name="Grupo 144161">
                  <g id="Grupo_144160-6" data-name="Grupo 144160" clip-path="url(#clip-path-3)">
                    <path id="Trazado_190609-6" data-name="Trazado 190609" d="M5.238,0,5.223,2.684H2.32L2.3,6.165H.192L0,41.774H47.274V0Z" transform="translate(0 0)" fill="#1d1d1b"/>
                  </g>
                </g>
              </g>
            </g>
          </g>
        </g>
      </g>
    </g>
  </g>
</svg>
