<svg xmlns="http://www.w3.org/2000/svg" xmlns:xlink="http://www.w3.org/1999/xlink" width="394.458" height="258.442" viewBox="0 0 394.458 258.442">
  <defs>
    <clipPath id="clip-path">
      <rect id="Rectángulo_43744" data-name="Rectángulo 43744" width="58.633" height="64.559" transform="translate(0 0)" fill="none"/>
    </clipPath>
    <clipPath id="clip-path-2">
      <rect id="Rectángulo_43745" data-name="Rectángulo 43745" width="45.817" height="44.115" transform="translate(0 0)" fill="none"/>
    </clipPath>
    <clipPath id="clip-path-3">
      <rect id="Rectángulo_43747" data-name="Rectángulo 43747" width="56.857" height="66.711" transform="translate(0 0)" fill="none"/>
    </clipPath>
    <clipPath id="clip-path-6">
      <rect id="Rectángulo_43741" data-name="Rectángulo 43741" width="48.512" height="73.167" transform="translate(0 0)" fill="none"/>
    </clipPath>
  </defs>
  <g id="Grupo_144723" data-name="Grupo 144723" transform="translate(-555.256 -5454.279)">
    <rect id="Rectángulo_43753" data-name="Rectángulo 43753" width="6" height="301" transform="matrix(0.848, -0.53, 0.53, 0.848, 719.703, 5457.458)" fill="#4dd0e1"/>
    <g id="Grupo_144716" data-name="Grupo 144716" transform="translate(681.817 5545.762)">
      <rect id="Rectángulo_43743" data-name="Rectángulo 43743" width="7.342" height="1.717" transform="matrix(0.39, -0.921, 0.921, 0.39, 26.255, 12.174)" fill="#578d38"/>
      <g id="Grupo_144696" data-name="Grupo 144696">
        <g id="Grupo_144695" data-name="Grupo 144695" clip-path="url(#clip-path)">
          <path id="Trazado_191767" data-name="Trazado 191767" d="M54.519,37.3A27.26,27.26,0,1,1,0,37.3C0,22.244,12.234,9.181,27.259,11.756c15.669-2.79,27.26,10.488,27.26,25.543" fill="#ff7000"/>
          <path id="Trazado_191768" data-name="Trazado 191768" d="M27.26,11.757C12.235,9.181,0,22.245,0,37.3A27.233,27.233,0,0,0,12.751,60.373,27.254,27.254,0,0,0,46.363,33.865c0-9.042-4.185-17.438-10.919-22.1a22.534,22.534,0,0,0-8.184-.006" fill="#ff892b"/>
          <path id="Trazado_191769" data-name="Trazado 191769" d="M29.124,5.426A16.667,16.667,0,0,0,41.59,11.19c8.149.11,17.044-5.364,17.044-5.364S49.89.112,41.741,0A16.667,16.667,0,0,0,29.124,5.426" fill="#50a822"/>
          <path id="Trazado_191770" data-name="Trazado 191770" d="M41.59,11.19c8.149.11,17.044-5.364,17.044-5.364s-.064-.042-.175-.112L29.211,5.533A16.731,16.731,0,0,0,41.59,11.19" fill="#578d38"/>
          <path id="Trazado_191771" data-name="Trazado 191771" d="M27.9,31.289a10.3,10.3,0,1,1-10.3-10.3,10.3,10.3,0,0,1,10.3,10.3" fill="#ffa861"/>
        </g>
      </g>
    </g>
    <g id="Grupo_144717" data-name="Grupo 144717" transform="translate(643 5501.647)">
      <g id="Grupo_144698" data-name="Grupo 144698" clip-path="url(#clip-path-2)">
        <path id="Trazado_191772" data-name="Trazado 191772" d="M44,5.839c-2.143-2.732-5.488-3.8-8.063-2.789C28.3-1.561,17.9-1.013,10.006,5.16,1.421,11.874-1.4,23.056,2.575,31.991c-2.6,2.065-3.358,5.442-1.691,7.567s5.132,2.2,7.763.173c7.735,6,19.283,5.938,27.867-.776,7.892-6.173,10.916-16.123,8.262-24.631,1.6-2.253,1.363-5.753-.78-8.485" fill="#549900"/>
        <path id="Trazado_191773" data-name="Trazado 191773" d="M40.092,10.885c1.466-2.061,1.247-5.261-.713-7.76-.1-.122-.2-.237-.3-.351a5.824,5.824,0,0,0-3.149.277C28.3-1.561,17.9-1.012,10.006,5.161A23.33,23.33,0,0,0,.9,25.5c.091.677.1,1.023.251,1.839a20.31,20.31,0,0,0,1.427,4.647A7.06,7.06,0,0,0,.544,34.554c1.656,1.338,4.38,1.2,6.509-.435,7.073,5.484,17.633,5.43,25.483-.71,7.218-5.645,9.983-14.744,7.556-22.524" fill="#64b009"/>
        <path id="Trazado_191774" data-name="Trazado 191774" d="M20.509,18.77a6.177,6.177,0,0,1-8.85-.527,6.5,6.5,0,0,1,.606-9.033,6.177,6.177,0,0,1,8.85.527,6.5,6.5,0,0,1-.606,9.033" fill="#97c75c"/>
      </g>
    </g>
    <g id="Grupo_144718" data-name="Grupo 144718" transform="translate(555.256 5511.331)">
      <g id="Grupo_144702" data-name="Grupo 144702" clip-path="url(#clip-path-3)">
        <path id="Trazado_191813" data-name="Trazado 191813" d="M27.172,18.466a44.176,44.176,0,0,0,1.952-8.542c.393-4.538-.617-7.725-.222-8.647A1.807,1.807,0,0,1,30.946.061c.184.063,1.93,2.251.751,9a44.545,44.545,0,0,1-3.311,10.266c-.522.8-1.765-.025-1.214-.866" fill="#7a663a"/>
        <path id="Trazado_191814" data-name="Trazado 191814" d="M42.425,12.769a16.911,16.911,0,0,1-12.9-1.964s6.885-6.68,14.432-8.48a16.907,16.907,0,0,1,12.9,1.964s-6.884,6.681-14.431,8.48" fill="#50a822"/>
        <path id="Trazado_191815" data-name="Trazado 191815" d="M56.857,4.289,29.526,10.805a16.909,16.909,0,0,0,12.9,1.964c7.547-1.8,14.431-8.48,14.431-8.48" fill="#578d38"/>
        <path id="Trazado_191816" data-name="Trazado 191816" d="M42.739,41.371c0,13.421-11.838,24.443-23.442,24.443S0,56.078,0,42.657,10.122,17.5,21.727,17.5,42.739,27.95,42.739,41.371" fill="#f89833"/>
        <path id="Trazado_191817" data-name="Trazado 191817" d="M49.029,42.758C49.029,55.987,40,66.71,28.87,66.71S8.71,55.987,8.71,42.758s9.026-23.953,20.16-23.953S49.029,29.529,49.029,42.758" fill="#eda42f"/>
        <path id="Trazado_191818" data-name="Trazado 191818" d="M28.87,18.806c-11.134,0-20.159,10.724-20.159,23.953A26.431,26.431,0,0,0,14.2,59.178a17.331,17.331,0,0,0,7.27,1.612c11.133,0,20.159-10.724,20.159-23.953A26.431,26.431,0,0,0,36.14,20.418a17.331,17.331,0,0,0-7.27-1.612" fill="#ffbe33"/>
        <path id="Trazado_191819" data-name="Trazado 191819" d="M12.283,42.758c0-12.513,8.077-22.779,18.373-23.854a17.318,17.318,0,0,0-1.786-.1c-11.134,0-20.16,10.724-20.16,23.953S17.736,66.71,28.87,66.71a17.319,17.319,0,0,0,1.786-.1c-10.3-1.075-18.373-11.341-18.373-23.854" fill="#f37230"/>
        <path id="Trazado_191820" data-name="Trazado 191820" d="M26,36.786c-.942,3.066-3.924,5.116-6.661,4.578s-4.193-3.461-3.251-6.527,3.923-5.116,6.661-4.577S26.941,33.72,26,36.786" fill="#ffce6b"/>
      </g>
    </g>
    <g id="Grupo_144719" data-name="Grupo 144719" transform="translate(705 5652.321)">
      <g id="Grupo_144698-2" data-name="Grupo 144698" clip-path="url(#clip-path-2)">
        <path id="Trazado_191772-2" data-name="Trazado 191772" d="M44,5.839c-2.143-2.732-5.488-3.8-8.063-2.789C28.3-1.561,17.9-1.013,10.006,5.16,1.421,11.874-1.4,23.056,2.575,31.991c-2.6,2.065-3.358,5.442-1.691,7.567s5.132,2.2,7.763.173c7.735,6,19.283,5.938,27.867-.776,7.892-6.173,10.916-16.123,8.262-24.631,1.6-2.253,1.363-5.753-.78-8.485" fill="#549900"/>
        <path id="Trazado_191773-2" data-name="Trazado 191773" d="M40.092,10.885c1.466-2.061,1.247-5.261-.713-7.76-.1-.122-.2-.237-.3-.351a5.824,5.824,0,0,0-3.149.277C28.3-1.561,17.9-1.012,10.006,5.161A23.33,23.33,0,0,0,.9,25.5c.091.677.1,1.023.251,1.839a20.31,20.31,0,0,0,1.427,4.647A7.06,7.06,0,0,0,.544,34.554c1.656,1.338,4.38,1.2,6.509-.435,7.073,5.484,17.633,5.43,25.483-.71,7.218-5.645,9.983-14.744,7.556-22.524" fill="#64b009"/>
        <path id="Trazado_191774-2" data-name="Trazado 191774" d="M20.509,18.77a6.177,6.177,0,0,1-8.85-.527,6.5,6.5,0,0,1,.606-9.033,6.177,6.177,0,0,1,8.85.527,6.5,6.5,0,0,1-.606,9.033" fill="#97c75c"/>
      </g>
    </g>
    <g id="Grupo_144720" data-name="Grupo 144720" transform="translate(606.279 5583.5)">
      <rect id="Rectángulo_43743-2" data-name="Rectángulo 43743" width="7.342" height="1.717" transform="matrix(0.39, -0.921, 0.921, 0.39, 26.255, 12.174)" fill="#578d38"/>
      <g id="Grupo_144696-2" data-name="Grupo 144696">
        <g id="Grupo_144695-2" data-name="Grupo 144695" clip-path="url(#clip-path)">
          <path id="Trazado_191767-2" data-name="Trazado 191767" d="M54.519,37.3A27.26,27.26,0,1,1,0,37.3C0,22.244,12.234,9.181,27.259,11.756c15.669-2.79,27.26,10.488,27.26,25.543" fill="#ff7000"/>
          <path id="Trazado_191768-2" data-name="Trazado 191768" d="M27.26,11.757C12.235,9.181,0,22.245,0,37.3A27.233,27.233,0,0,0,12.751,60.373,27.254,27.254,0,0,0,46.363,33.865c0-9.042-4.185-17.438-10.919-22.1a22.534,22.534,0,0,0-8.184-.006" fill="#ff892b"/>
          <path id="Trazado_191769-2" data-name="Trazado 191769" d="M29.124,5.426A16.667,16.667,0,0,0,41.59,11.19c8.149.11,17.044-5.364,17.044-5.364S49.89.112,41.741,0A16.667,16.667,0,0,0,29.124,5.426" fill="#50a822"/>
          <path id="Trazado_191770-2" data-name="Trazado 191770" d="M41.59,11.19c8.149.11,17.044-5.364,17.044-5.364s-.064-.042-.175-.112L29.211,5.533A16.731,16.731,0,0,0,41.59,11.19" fill="#578d38"/>
          <path id="Trazado_191771-2" data-name="Trazado 191771" d="M27.9,31.289a10.3,10.3,0,1,1-10.3-10.3,10.3,10.3,0,0,1,10.3,10.3" fill="#ffa861"/>
        </g>
      </g>
    </g>
    <g id="Grupo_144721" data-name="Grupo 144721" transform="translate(821.804 5468.643)">
      <g id="Grupo_144691" data-name="Grupo 144691" clip-path="url(#clip-path-6)">
        <path id="Trazado_191750" data-name="Trazado 191750" d="M48.512,41.857c0,22.128-13.76,36.733-24.256,29.362C14.894,78.454,0,64.836,0,41.857c0-13.4,11.49-19.149,23.405-15.745,13.617-3.4,25.107,2.349,25.107,15.745" fill="#d10008"/>
        <path id="Trazado_191751" data-name="Trazado 191751" d="M22.412,26.112c0-.064-.386-6.734-3.4-10.355-3.455-4.146-9.3-3.716-9.345-3.709a2.128,2.128,0,0,1-.6-4.213,14.044,14.044,0,0,1,12.149,5C25.358,17.812,24.7,25.952,24.674,26.3c-.1,1.108-2.364.987-2.262-.184" fill="#8d4706"/>
        <path id="Trazado_191752" data-name="Trazado 191752" d="M40.1,16.034c-5.366,6.078-15.413,5.977-15.413,5.977s-1.345-9.957,4.021-16.035S44.124,0,44.124,0,45.469,9.956,40.1,16.034" fill="#50a822"/>
        <path id="Trazado_191753" data-name="Trazado 191753" d="M44.124,0,24.69,22.011s10.047.1,15.413-5.977S44.124,0,44.124,0" fill="#578d38"/>
        <path id="Trazado_191754" data-name="Trazado 191754" d="M40.709,44.4A21.6,21.6,0,0,0,29.158,25.21a31.775,31.775,0,0,0-5.753.9C11.49,22.708,0,28.461,0,41.857A43.459,43.459,0,0,0,2.745,57.61,21.046,21.046,0,0,0,19.5,65.966,21.385,21.385,0,0,0,40.709,44.4" fill="#ed1c24"/>
        <path id="Trazado_191755" data-name="Trazado 191755" d="M19.913,43.331c-1.572,4.752-5.879,7.6-9.62,6.363S4.794,43.6,6.367,38.849s5.879-7.6,9.62-6.363,5.5,6.093,3.926,10.845" fill="#ff787f"/>
      </g>
    </g>
    <g id="Grupo_144722" data-name="Grupo 144722" transform="translate(901.202 5526.758)">
      <g id="Grupo_144704" data-name="Grupo 144704" clip-path="url(#clip-path-6)">
        <path id="Trazado_191821" data-name="Trazado 191821" d="M48.512,41.857c0,22.128-13.76,36.733-24.256,29.362C14.894,78.453,0,64.836,0,41.857c0-13.4,11.49-19.149,23.405-15.745,13.617-3.4,25.107,2.349,25.107,15.745" fill="#a2c83a"/>
        <path id="Trazado_191822" data-name="Trazado 191822" d="M22.412,26.112c0-.064-.386-6.734-3.4-10.355-3.455-4.146-9.3-3.716-9.345-3.709a2.128,2.128,0,0,1-.6-4.213,14.044,14.044,0,0,1,12.149,5C25.357,17.812,24.7,25.952,24.674,26.3c-.1,1.108-2.364.987-2.262-.184" fill="#8d4706"/>
        <path id="Trazado_191823" data-name="Trazado 191823" d="M40.1,16.034c-5.366,6.078-15.413,5.977-15.413,5.977s-1.345-9.957,4.021-16.035S44.124,0,44.124,0,45.47,9.956,40.1,16.034" fill="#50a822"/>
        <path id="Trazado_191824" data-name="Trazado 191824" d="M44.124,0,24.69,22.011s10.047.1,15.413-5.977S44.124,0,44.124,0" fill="#578d38"/>
        <path id="Trazado_191825" data-name="Trazado 191825" d="M40.709,44.4A21.6,21.6,0,0,0,29.158,25.21a31.775,31.775,0,0,0-5.753.9C11.49,22.708,0,28.461,0,41.857A43.459,43.459,0,0,0,2.745,57.61,21.046,21.046,0,0,0,19.5,65.966,21.385,21.385,0,0,0,40.709,44.4" fill="#aede2f"/>
        <path id="Trazado_191826" data-name="Trazado 191826" d="M19.913,43.331c-1.572,4.752-5.879,7.6-9.62,6.363S4.794,43.6,6.367,38.849s5.879-7.6,9.62-6.363,5.5,6.093,3.926,10.845" fill="#cced74"/>
      </g>
    </g>
  </g>
</svg>
