<svg xmlns="http://www.w3.org/2000/svg" width="117" height="117" viewBox="0 0 117 117">
  <g id="Grupo_144360" data-name="Grupo 144360" transform="translate(0.1)">
    <rect id="Rectángulo_43570" data-name="Rectángulo 43570" width="117" height="117" transform="translate(-0.1)" fill="#fff"/>
    <g id="Grupo_144342" data-name="Grupo 144342" transform="translate(19.089 9.849)">
      <path id="Trazado_190783" data-name="Trazado 190783" d="M16.431,48.243,42,63h.011L67.573,48.243,42,33.482Z" transform="translate(2.288 4.662)" fill="#ffa726"/>
      <path id="Trazado_190784" data-name="Trazado 190784" d="M38.883,61.2h-.011V90.735L64.449,75.962V46.439Z" transform="translate(5.413 6.466)" fill="#ffca28"/>
      <path id="Trazado_190785" data-name="Trazado 190785" d="M16.431,75.962,42,90.735V61.2L16.431,46.439Z" transform="translate(2.288 6.466)" fill="#ffe9a5"/>
      <path id="Trazado_190786" data-name="Trazado 190786" d="M41.894,0,16.384,14.855,42,29.523h.011L67.525,14.667Z" transform="translate(2.282 0)" fill="#8dfcff"/>
      <path id="Trazado_190787" data-name="Trazado 190787" d="M38.883,27.729h-.011l.108,29.534L64.5,42.4l-.107-29.522Z" transform="translate(5.413 1.793)" fill="#44d5e0"/>
      <path id="Trazado_190788" data-name="Trazado 190788" d="M42,27.707l.108,29.535L16.493,42.561l-.108-29.522Z" transform="translate(2.282 1.816)" fill="#71eeff"/>
      <path id="Trazado_190789" data-name="Trazado 190789" d="M40.461,26.841l.054,14.767L27.706,34.269l-.055-14.762Z" transform="translate(3.851 2.716)" fill="#5ee5ef"/>
      <path id="Trazado_190790" data-name="Trazado 190790" d="M38.883,26.818,38.83,41.584l12.809-7.339.055-14.876Z" transform="translate(5.407 2.697)" fill="#48d0d3"/>
      <path id="Trazado_190791" data-name="Trazado 190791" d="M53.264,33.274,40.509,40.7H40.5L27.694,33.368l12.755-7.427Z" transform="translate(3.857 3.612)" fill="#8dfcff"/>
      <path id="Trazado_190792" data-name="Trazado 190792" d="M40.5,27.79l-12.81-7.334L40.45,13.029" transform="translate(3.857 1.814)" fill="#5ee5ef"/>
      <path id="Trazado_190793" data-name="Trazado 190793" d="M38.89,13.028l12.815,7.333L38.95,27.79h-.007" transform="translate(5.416 1.814)" fill="#48d0d3"/>
      <path id="Trazado_190794" data-name="Trazado 190794" d="M0,65.118l12.81,7.334h.006L25.57,65.024,12.755,57.69Z" transform="translate(0 8.033)" fill="#8dfcff"/>
      <path id="Trazado_190795" data-name="Trazado 190795" d="M24,64.128l.054,14.761L11.3,86.323l-.054-14.767h.006Z" transform="translate(1.566 8.929)" fill="#44d5e0"/>
      <path id="Trazado_190796" data-name="Trazado 190796" d="M.054,78.971l12.81,7.34-.055-14.768L0,64.21Z" transform="translate(0 8.941)" fill="#71eeff"/>
    </g>
  </g>
</svg>
