<svg xmlns="http://www.w3.org/2000/svg" xmlns:xlink="http://www.w3.org/1999/xlink" width="205.453" height="134.053" viewBox="0 0 205.453 134.053">
  <defs>
    <clipPath id="clip-path">
      <rect id="Rectángulo_43547" data-name="Rectángulo 43547" width="123.784" height="134.053" fill="none"/>
    </clipPath>
    <clipPath id="clip-path-3">
      <rect id="Rectángulo_43545" data-name="Rectángulo 43545" width="123.656" height="133.894" fill="none"/>
    </clipPath>
    <clipPath id="clip-path-4">
      <rect id="Rectángulo_43544" data-name="Rectángulo 43544" width="127.562" height="113.98" fill="none"/>
    </clipPath>
    <clipPath id="clip-path-6">
      <rect id="Rectángulo_43517" data-name="Rectángulo 43517" width="115.556" height="83.876" fill="none"/>
    </clipPath>
    <clipPath id="clip-path-7">
      <rect id="Rectángulo_43518" data-name="Rectángulo 43518" width="106.329" height="100.39" fill="none"/>
    </clipPath>
    <clipPath id="clip-path-8">
      <rect id="Rectángulo_43519" data-name="Rectángulo 43519" width="103.533" height="89.789" fill="none"/>
    </clipPath>
    <clipPath id="clip-path-9">
      <rect id="Rectángulo_43520" data-name="Rectángulo 43520" width="21.829" height="44.977" fill="none"/>
    </clipPath>
    <clipPath id="clip-path-10">
      <rect id="Rectángulo_43521" data-name="Rectángulo 43521" width="22.888" height="21.971" fill="none"/>
    </clipPath>
    <clipPath id="clip-path-11">
      <rect id="Rectángulo_43522" data-name="Rectángulo 43522" width="21.409" height="20.552" fill="none"/>
    </clipPath>
    <clipPath id="clip-path-12">
      <rect id="Rectángulo_43523" data-name="Rectángulo 43523" width="6.527" height="3.175" fill="none"/>
    </clipPath>
    <clipPath id="clip-path-13">
      <rect id="Rectángulo_43524" data-name="Rectángulo 43524" width="12.838" height="4.584" fill="none"/>
    </clipPath>
    <clipPath id="clip-path-14">
      <rect id="Rectángulo_43525" data-name="Rectángulo 43525" width="6.912" height="9.429" fill="none"/>
    </clipPath>
    <clipPath id="clip-path-15">
      <rect id="Rectángulo_43526" data-name="Rectángulo 43526" width="3.791" height="10.967" fill="none"/>
    </clipPath>
    <clipPath id="clip-path-16">
      <rect id="Rectángulo_43527" data-name="Rectángulo 43527" width="2.409" height="1.836" fill="none"/>
    </clipPath>
    <clipPath id="clip-path-17">
      <rect id="Rectángulo_43528" data-name="Rectángulo 43528" width="3.916" height="2.984" fill="none"/>
    </clipPath>
    <clipPath id="clip-path-18">
      <rect id="Rectángulo_43529" data-name="Rectángulo 43529" width="3.025" height="2.528" fill="none"/>
    </clipPath>
    <clipPath id="clip-path-19">
      <rect id="Rectángulo_43530" data-name="Rectángulo 43530" width="2.092" height="1.748" fill="none"/>
    </clipPath>
    <clipPath id="clip-path-20">
      <rect id="Rectángulo_43531" data-name="Rectángulo 43531" width="2.376" height="1.985" fill="none"/>
    </clipPath>
    <clipPath id="clip-path-21">
      <rect id="Rectángulo_43532" data-name="Rectángulo 43532" width="1.959" height="1.638" fill="none"/>
    </clipPath>
    <clipPath id="clip-path-22">
      <rect id="Rectángulo_43533" data-name="Rectángulo 43533" width="2.062" height="1.913" fill="none"/>
    </clipPath>
    <clipPath id="clip-path-23">
      <rect id="Rectángulo_43534" data-name="Rectángulo 43534" width="2.045" height="1.897" fill="none"/>
    </clipPath>
    <clipPath id="clip-path-24">
      <rect id="Rectángulo_43535" data-name="Rectángulo 43535" width="2.716" height="2.519" fill="none"/>
    </clipPath>
    <clipPath id="clip-path-25">
      <rect id="Rectángulo_43536" data-name="Rectángulo 43536" width="2.296" height="2.13" fill="none"/>
    </clipPath>
    <clipPath id="clip-path-26">
      <rect id="Rectángulo_43537" data-name="Rectángulo 43537" width="1.51" height="1.401" fill="none"/>
    </clipPath>
    <clipPath id="clip-path-28">
      <rect id="Rectángulo_43539" data-name="Rectángulo 43539" width="2.998" height="2.781" fill="none"/>
    </clipPath>
    <clipPath id="clip-path-29">
      <rect id="Rectángulo_43540" data-name="Rectángulo 43540" width="63.857" height="74.967" fill="none"/>
    </clipPath>
    <clipPath id="clip-path-30">
      <rect id="Rectángulo_43541" data-name="Rectángulo 43541" width="60.136" height="65.814" fill="none"/>
    </clipPath>
    <clipPath id="clip-path-31">
      <rect id="Rectángulo_43542" data-name="Rectángulo 43542" width="20.598" height="14.492" fill="none"/>
    </clipPath>
  </defs>
  <g id="Grupo_144950" data-name="Grupo 144950" transform="translate(5168.453 7994.278)">
    <g id="Grupo_144309" data-name="Grupo 144309" transform="translate(-5168.453 -7994.278)">
      <g id="Grupo_144308" data-name="Grupo 144308" clip-path="url(#clip-path)">
        <g id="Grupo_144307" data-name="Grupo 144307">
          <g id="Grupo_144306" data-name="Grupo 144306" clip-path="url(#clip-path)">
            <path id="Trazado_190736" data-name="Trazado 190736" d="M81.281.339,66.869.019,66.8,2.373C43.4,9.594,25.625,35.161,24.768,65.981s15.472,57.144,38.447,65.395l-.065,2.354,14.412.32c30.184.67,55.486-28.719,56.513-65.642S111.465,1.009,81.281.339" transform="translate(-10.324 -0.008)" fill="#cf931d"/>
            <path id="Trazado_190737" data-name="Trazado 190737" d="M109.339,68.079C108.312,105,83.01,134.391,52.826,133.721S-1,102.575.032,65.652,26.36-.66,56.545.01s53.821,31.146,52.794,68.069" transform="translate(0 0.001)" fill="#fbc03d"/>
            <path id="Trazado_190738" data-name="Trazado 190738" d="M71.618,129.81a39.313,39.313,0,0,1-14.463,2.433c-12.686-.282-24.564-6.743-33.445-18.2C14.438,102.094,9.589,86.28,10.054,69.52A72.164,72.164,0,0,1,21.1,32.469c6.44-10.03,15.327-17.514,25.023-21.071A39.3,39.3,0,0,1,60.584,8.965c12.686.282,24.564,6.744,33.445,18.2,9.272,11.954,14.12,27.768,13.654,44.527a72.152,72.152,0,0,1-11.042,37.051c-6.441,10.03-15.326,17.514-25.023,21.071" transform="translate(-4.183 -3.738)" fill="#fbc03d"/>
            <path id="Trazado_190739" data-name="Trazado 190739" d="M28.509,114.172c-9.249-11.926-14.087-27.7-13.622-44.43s6.174-32.27,16.076-43.771c8.9-10.343,20.194-16.179,32.005-16.607q-1.124-.091-2.257-.118c-12.626-.28-24.795,5.624-34.266,16.625-9.9,11.5-15.61,27.045-16.075,43.771s4.372,32.5,13.622,44.43c8.847,11.408,20.673,17.844,33.3,18.124.756.017,1.509.01,2.261-.017-11.773-.953-22.725-7.282-31.043-18.007" transform="translate(-4.315 -3.855)" fill="#cf931d"/>
            <path id="Trazado_190740" data-name="Trazado 190740" d="M107.94,87.963a12.663,12.663,0,0,0-8.814-5.983c7.407-3.011,11.274-8.666,11.479-16.922q.207-8.323-4.762-13.433a14.652,14.652,0,0,0-8.29-4.268l.255-10.229-4.594-.115L84.9,38.171l-4.978-.124-.181.542-2.907.235L76.6,48.216l-6.6.44L68.3,117.4l6.578.25-.233,9.392,8.04.42.236-9.506,4.516.172L87.2,127.7l8.35.435.247-9.947a16.2,16.2,0,0,0,9.945-4.492q5.067-5,5.3-13.764a20.692,20.692,0,0,0-3.094-11.966M82.18,60.794l8.442-.4a5.382,5.382,0,0,1,4.524,1.767q1.694,1.91,1.6,5.737a8.747,8.747,0,0,1-1.888,5.81,6.153,6.153,0,0,1-4.618,2.046l-8.438.209Zm7.012-13.419-1.069.072,1.1-1.169Zm6.139,55.648a5.611,5.611,0,0,1-4.52,2.057l-9.727-.18.4-15.966,9.886-.053A5.106,5.106,0,0,1,95.7,91.1a9.53,9.53,0,0,1,1.561,6.025,9.066,9.066,0,0,1-1.935,5.9" transform="translate(-28.504 -15.448)" fill="#cf931d"/>
            <path id="Trazado_190741" data-name="Trazado 190741" d="M99.808,87.857a13.083,13.083,0,0,0-9.082-5.989c7.626-3.005,11.6-8.658,11.81-16.914q.207-8.322-4.914-13.436a15.267,15.267,0,0,0-8.542-4.274l.254-10.231-8.627.672-.238,9.569-4.662.3.236-9.506-8.307.647L67.5,48.086l-6.792.436L59,117.266l6.776.255-.234,9.392,8.281.425.236-9.506,4.651.175-.238,9.57,8.6.442.247-9.947a16.885,16.885,0,0,0,10.239-4.485q5.215-4.993,5.445-13.761a20.254,20.254,0,0,0-3.2-11.969M73.257,60.669l8.695-.394a5.634,5.634,0,0,1,4.66,1.77q1.746,1.91,1.652,5.737a8.568,8.568,0,0,1-1.94,5.808,6.413,6.413,0,0,1-4.754,2.043l-8.69.2Zm13.575,42.239a5.844,5.844,0,0,1-4.653,2.054l-10.018-.188.4-15.966,10.181-.046a5.319,5.319,0,0,1,4.469,2.222,9.334,9.334,0,0,1,1.612,6.026,8.888,8.888,0,0,1-1.989,5.9" transform="translate(-24.624 -15.448)" fill="#fdd77e"/>
            <g id="Grupo_144305" data-name="Grupo 144305" transform="translate(0)" opacity="0.52">
              <g id="Grupo_144304" data-name="Grupo 144304">
                <g id="Grupo_144303" data-name="Grupo 144303" clip-path="url(#clip-path-3)">
                  <path id="Trazado_190742" data-name="Trazado 190742" d="M70.957.331,56.545.011a46.4,46.4,0,0,0-22.54,5.348L5.874,37.644A79.567,79.567,0,0,0,.032,65.653a81.291,81.291,0,0,0,1.1,15.862L71.845.364c-.3-.012-.591-.027-.888-.033" transform="translate(0 0)" fill="#ffebc2"/>
                  <path id="Trazado_190743" data-name="Trazado 190743" d="M8.887,99.788,90.846,5.724a46.588,46.588,0,0,0-4.417-1.632L7.113,95.123q.813,2.382,1.774,4.665" transform="translate(-2.969 -1.708)" fill="#ffebc2"/>
                  <path id="Trazado_190744" data-name="Trazado 190744" d="M45.719,141.675,130.266,44.64A65.177,65.177,0,0,0,123.4,34.155L36.029,134.435a52.867,52.867,0,0,0,9.69,7.241" transform="translate(-15.037 -14.255)" fill="#ffebc2"/>
                  <path id="Trazado_190745" data-name="Trazado 190745" d="M90.61,171.929l7.767.172L161.44,99.724a80.4,80.4,0,0,0-.874-8.177L90.531,171.926l.079,0" transform="translate(-37.784 -38.208)" fill="#ffebc2"/>
                </g>
              </g>
            </g>
          </g>
        </g>
      </g>
    </g>
    <g id="Grupo_144302" data-name="Grupo 144302" transform="translate(-5090.562 -7974.205)">
      <g id="Grupo_144301" data-name="Grupo 144301" clip-path="url(#clip-path-4)">
        <g id="Grupo_144300" data-name="Grupo 144300" transform="translate(0 0)">
          <g id="Grupo_144299" data-name="Grupo 144299" clip-path="url(#clip-path-4)">
            <path id="Trazado_190628" data-name="Trazado 190628" d="M85.063,439.158s-2.558,8.134,16.49-3.521,66.594-20.563,89.086-17.719,6.613-50.62-10.08-59.2-68.9,28.478-95.5,80.443" transform="translate(-80.928 -340.557)" fill="#f7af41"/>
            <g id="Grupo_144223" data-name="Grupo 144223" transform="translate(5.283 16.872)" opacity="0.3">
              <g id="Grupo_144222" data-name="Grupo 144222">
                <g id="Grupo_144221" data-name="Grupo 144221" clip-path="url(#clip-path-6)">
                  <path id="Trazado_190629" data-name="Trazado 190629" d="M111.979,436.362s-4.071,9.933,14.978-1.722,66.594-20.563,89.086-17.719,6.613-50.62-10.08-59.2-67.391,26.679-93.984,78.643" transform="translate(-111.614 -356.432)" fill="#6c184e"/>
                </g>
              </g>
            </g>
            <path id="Trazado_190630" data-name="Trazado 190630" d="M87.091,423.32a3.673,3.673,0,0,1-2.379-.713c-1.795-1.452-.824-4.284-.782-4.4a.856.856,0,0,1,.046-.108,193.964,193.964,0,0,1,39.07-51.829c14.037-13.257,28.85-23.037,40.639-26.832,6.8-2.19,12.194-2.3,16.019-.336,6.062,3.117,12.387,12.03,16.92,23.842,4.441,11.574,5.9,22.962,3.807,29.721-1.509,4.872-4.73,7.4-9.368,7.4a14.214,14.214,0,0,1-1.789-.117c-23.142-2.926-70.3,6.448-88.52,17.6-6.314,3.863-10.828,5.776-13.663,5.776m-1.527-4.487c-.162.51-.418,1.877.251,2.415.561.451,3.231,1.408,14.025-5.2,9.028-5.524,24.9-10.776,43.541-14.409,18.049-3.517,35.287-4.8,46.112-3.431,4.715.594,7.833-1.446,9.265-6.069,1.983-6.4.538-17.351-3.769-28.576-4.317-11.251-10.481-20.03-16.086-22.912-3.349-1.722-8.426-1.568-14.682.446-11.55,3.718-26.119,13.354-39.974,26.438a192.222,192.222,0,0,0-38.683,51.295" transform="translate(-79.671 -321.718)" fill="#6c184e"/>
            <path id="Trazado_190631" data-name="Trazado 190631" d="M183.939,284.347c-2.643-.608.263-1.6-3.241-5.1a5.636,5.636,0,0,0-7.356-.622c.625-1.28.768-2.47.1-3.411-3.016-4.225-10.934-1.581-13.831-4.97s-9.816-.281-9.816-.281-41.316,24.661-53.143,53.067-10.924,37.125-5.784,35.158,8.93-6.4,12.694-2.907-.936,10.038,3.616,13.264c2.549,1.807,8.451-1.437,5.615-6.276s-6.592-13.811-.23-18.623,20.969-7.373,20.106-.614c-2.138,16.751,15.683,9.647,10.148,2.568-4.7-6.012-.376-16.565,10.1-10.755,8.8,4.877,7.679-1.764,16.357-4.615,6.473-2.127,18.385-2.2,18.385-2.2,8.359-4.91.8-7.333.8-7.333s7-5.393,5.248-9.119-.9-9.6-.75-15.54-6.377-11.09-9.02-11.7" transform="translate(-83.127 -255.948)" fill="#ffce00"/>
            <g id="Grupo_144226" data-name="Grupo 144226" transform="translate(4.537 12.717)" opacity="0.3">
              <g id="Grupo_144225" data-name="Grupo 144225">
                <g id="Grupo_144224" data-name="Grupo 144224" clip-path="url(#clip-path-7)">
                  <path id="Trazado_190632" data-name="Trazado 190632" d="M192.116,284.347c-2.643-.608.263-1.6-3.241-5.1a5.636,5.636,0,0,0-7.356-.622c.625-1.28.768-2.47.1-3.411-3.016-4.225-10.934-1.581-13.831-4.97s-9.816-.281-9.816-.281-.961.574-2.629,1.645c12.926,3.4,39.6,14.287,34.693,53.055,0,0-51.6,3.7-65.782,12.518-10.2,6.341-20.455,18.258-28.409,19.788.569,1.457,1.7,1.791,3.2,1.219,5.141-1.966,8.93-6.4,12.694-2.907s-.936,10.038,3.616,13.264c2.549,1.807,8.451-1.437,5.615-6.276s-6.592-13.811-.23-18.623,20.969-7.373,20.106-.614c-2.138,16.751,15.683,9.647,10.148,2.568-4.7-6.012-.376-16.565,10.1-10.755,8.8,4.877,7.679-1.764,16.357-4.615,6.473-2.127,18.385-2.2,18.385-2.2,8.359-4.91.8-7.333.8-7.333s7-5.393,5.248-9.119-.9-9.6-.75-15.54-6.377-11.09-9.02-11.7" transform="translate(-95.84 -268.666)" fill="#6c184e"/>
                </g>
              </g>
            </g>
            <g id="Grupo_144229" data-name="Grupo 144229" transform="translate(4.13 12.719)" opacity="0.65">
              <g id="Grupo_144228" data-name="Grupo 144228">
                <g id="Grupo_144227" data-name="Grupo 144227" clip-path="url(#clip-path-8)">
                  <path id="Trazado_190633" data-name="Trazado 190633" d="M2152.068,608.537a4.793,4.793,0,0,1,.772.261,12.289,12.289,0,0,0-2.036-1.23c.059.454.265.739,1.264.969" transform="translate(-2053.128 -591.528)" fill="#fff"/>
                  <path id="Trazado_190634" data-name="Trazado 190634" d="M2273.121,1395.758l-.045-.043-.025.02.07.024" transform="translate(-2169.588 -1342.368)" fill="#fff"/>
                  <path id="Trazado_190635" data-name="Trazado 190635" d="M1953.63,458.194a6.028,6.028,0,0,1,4.891-.9,5.259,5.259,0,0,0-4.384-1.491,4.145,4.145,0,0,1-.507,2.393" transform="translate(-1865.287 -446.902)" fill="#fff"/>
                  <path id="Trazado_190636" data-name="Trazado 190636" d="M1676.648,335.463c-2.614-2.518-7.529-1.779-10.863-2.833,2.262,2.434,7.273,1.57,10.863,2.833" transform="translate(-1591.067 -329.604)" fill="#fff"/>
                  <path id="Trazado_190637" data-name="Trazado 190637" d="M149.794,270a199.645,199.645,0,0,0-34.142,26.717,6.548,6.548,0,0,0-.88.791,6.628,6.628,0,0,0-.478.585c-7.325,7.526-13.935,16.066-17.644,24.974-11.107,26.675-10.987,35.989-6.674,35.4-1.488-3.432.443-13.678,8.932-34.067,3.193-7.669,8.536-15.065,14.635-21.776a2.422,2.422,0,0,0,.477.621c1.355,1.253,3.887.719,5.656-1.193s2.105-4.479.751-5.732a2.4,2.4,0,0,0-.432-.311,312.081,312.081,0,0,1,30.988-25.855s5.345-.739,8.582.088c-2.922-3.312-9.773-.236-9.773-.236" transform="translate(-87.261 -268.702)" fill="#fff"/>
                </g>
              </g>
            </g>
            <path id="Trazado_190638" data-name="Trazado 190638" d="M91.747,352.363a3.889,3.889,0,0,1-2.264-.665c-2.772-1.965-2.6-4.973-2.453-7.626.125-2.222.244-4.322-1.253-5.71-2.1-1.95-4.121-.963-7.507.949a31.752,31.752,0,0,1-4.279,2.134c-1.861.712-2.972.12-3.577-.5-3.859-3.973,2.351-21.666,8.24-35.809,6.179-14.84,20.409-28.6,31.259-37.525a204.618,204.618,0,0,1,22.244-15.957.879.879,0,0,1,.09-.047c.307-.138,7.555-3.333,10.84.511,1.136,1.329,3.41,1.567,5.816,1.819,2.923.306,6.236.653,8.062,3.211a3.285,3.285,0,0,1,.595,2.256,6.264,6.264,0,0,1,6.571,1.666c2.1,2.093,2.166,3.5,2.206,4.343.005.108.012.25.025.322a2.128,2.128,0,0,0,.588.2c3.045.7,9.866,6.176,9.7,12.574-.034,1.313-.1,2.626-.168,3.9-.228,4.39-.443,8.537.835,11.248,1.588,3.368-2.332,7.436-4.4,9.266a4.159,4.159,0,0,1,2.351,2.948c.2,1.776-1.226,3.532-4.35,5.367a.877.877,0,0,1-.438.12c-.118,0-11.851.094-18.117,2.153a17.336,17.336,0,0,0-6.418,3.871c-2.875,2.482-4.928,3.843-10.636.678-3.912-2.168-7.277-2.1-9.231.189-2.049,2.4-1.944,6.468.24,9.261a5.012,5.012,0,0,1,.192,6.4,7.071,7.071,0,0,1-7.946,2.309c-1.894-.772-4.927-3.208-3.952-10.845a2.163,2.163,0,0,0-1.114-2.387c-3.323-1.925-12.7.1-17.6,3.81-6.121,4.63-1.719,13.769.457,17.483a4.983,4.983,0,0,1-.764,6.555,5.82,5.82,0,0,1-3.848,1.543m-8.392-16.811a5.16,5.16,0,0,1,3.614,1.526c2.1,1.948,1.946,4.681,1.81,7.092-.142,2.519-.265,4.695,1.717,6.1.951.673,2.745.335,3.917-.74.73-.669,1.757-2.128.437-4.38-2.413-4.117-7.244-14.286,0-19.764,5.03-3.8,15.233-6.417,19.529-3.928a3.88,3.88,0,0,1,1.973,4.123c-.613,4.8.409,8,2.876,9a5.321,5.321,0,0,0,5.889-1.743,3.257,3.257,0,0,0-.174-4.263c-2.678-3.425-2.762-8.465-.192-11.476,2.507-2.937,6.773-3.155,11.411-.584,4.93,2.734,6.172,1.663,8.644-.472a19.074,19.074,0,0,1,7.015-4.209c6.1-2,16.645-2.216,18.414-2.238,3-1.8,3.358-2.992,3.3-3.545-.116-1.069-1.9-1.882-2.521-2.083a.876.876,0,0,1-.265-1.526c1.672-1.289,6.177-5.537,4.991-8.053-1.466-3.109-1.239-7.469-1-12.085.065-1.259.133-2.56.167-3.851.139-5.324-5.869-10.254-8.342-10.822-1.587-.365-1.916-1.034-1.969-2.141-.032-.664-.075-1.573-1.694-3.187a4.751,4.751,0,0,0-6.218-.538.876.876,0,0,1-1.307-1.087c.8-1.637.326-2.3.17-2.519-1.368-1.916-4.016-2.193-6.82-2.487-2.642-.277-5.374-.563-6.964-2.423-2.01-2.351-6.948-.868-8.746-.073a203.678,203.678,0,0,0-22.006,15.8c-10.689,8.8-24.7,22.329-30.735,36.829-4.329,10.4-7.193,18.728-8.514,24.762-1.49,6.809-.557,8.67-.086,9.155.129.132.522.536,1.7.088a30.429,30.429,0,0,0,4.044-2.023c1.958-1.105,3.958-2.234,5.944-2.234" transform="translate(-65.943 -238.383)" fill="#6c184e"/>
            <path id="Trazado_190639" data-name="Trazado 190639" d="M1540.064,1437.6c5-.9,10.016-1.712,15.061-2.365,2.523-.325,5.053-.61,7.593-.832s5.089-.381,7.652-.43a.766.766,0,1,1,.029,1.532h-.041c-2.515-.078-5.042-.047-7.57.045s-5.057.25-7.585.447c-5.055.4-10.1.954-15.14,1.6" transform="translate(-1467.166 -1366.097)" fill="#6c184e"/>
            <g id="Grupo_144232" data-name="Grupo 144232" transform="translate(89.036 18.056)" opacity="0.3">
              <g id="Grupo_144231" data-name="Grupo 144231">
                <g id="Grupo_144230" data-name="Grupo 144230" clip-path="url(#clip-path-9)">
                  <path id="Trazado_190640" data-name="Trazado 190640" d="M1881.008,381.539l.07-.049-.035-.026c-.012.025-.023.05-.035.075" transform="translate(-1881.008 -381.464)" fill="#6c184e"/>
                  <path id="Trazado_190641" data-name="Trazado 190641" d="M2288.566,748.729c-.155,5.943-1.007,11.814.75,15.54a2.9,2.9,0,0,1,.208.615c-.331-3.367.114-7.468.221-11.6a9.533,9.533,0,0,0-1.18-4.662c0,.037,0,.074,0,.111" transform="translate(-2268.949 -731.239)" fill="#6c184e"/>
                  <path id="Trazado_190642" data-name="Trazado 190642" d="M2205.958,1105.682c.05,3.573-5.53,7.869-5.53,7.869s2.922.938,3.122,2.827c1.926-1.9,4.438-4.993,3.305-7.4a11.2,11.2,0,0,1-.9-3.3" transform="translate(-2185.309 -1071.401)" fill="#6c184e"/>
                </g>
              </g>
            </g>
            <path id="Trazado_190643" data-name="Trazado 190643" d="M1296.594,444c.546,5.818-4.379,11.925-11,13.641s-12.434-1.609-12.98-7.427,4.379-11.925,11-13.641,12.434,1.609,12.981,7.427" transform="translate(-1212.334 -415.476)" fill="#ee1822"/>
            <g id="Grupo_144235" data-name="Grupo 144235" transform="translate(60.236 20.644)" opacity="0.65">
              <g id="Grupo_144234" data-name="Grupo 144234">
                <g id="Grupo_144233" data-name="Grupo 144233" clip-path="url(#clip-path-10)">
                  <path id="Trazado_190644" data-name="Trazado 190644" d="M1286.46,457.136c-6.245,1.618-11.726-1.517-12.241-7s4.13-11.245,10.375-12.864c4.593-1.19,8.769.193,10.864,3.189-2.093-3.521-6.725-5.208-11.844-3.882-6.623,1.716-11.548,7.823-11,13.641s6.358,9.143,12.981,7.427a15.544,15.544,0,0,0,4.818-2.193,14.606,14.606,0,0,1-3.951,1.685" transform="translate(-1272.57 -436.125)" fill="#fff"/>
                </g>
              </g>
            </g>
            <path id="Trazado_190645" data-name="Trazado 190645" d="M1547.8,495.442l1.446,15.4c4.043-1.769,6.847-5.751,6.489-9.566s-3.759-6.19-7.934-5.829" transform="translate(-1474.54 -471.956)" fill="#bd1622"/>
            <path id="Trazado_190646" data-name="Trazado 190646" d="M1343.808,516.719c-3.944,1.807-6.659,5.726-6.306,9.484s3.657,6.117,7.745,5.843Z" transform="translate(-1274.164 -492.26)" fill="#bd1622"/>
            <path id="Trazado_190647" data-name="Trazado 190647" d="M1343.808,516.719c-3.944,1.807-6.659,5.726-6.306,9.484s3.657,6.117,7.745,5.843Z" transform="translate(-1274.164 -492.26)" fill="#bd1622"/>
            <path id="Trazado_190648" data-name="Trazado 190648" d="M1441.265,625.194a3.321,3.321,0,0,0-2.066,3.107,2.213,2.213,0,0,0,2.538,1.915Z" transform="translate(-1371.066 -595.601)" fill="#ee1822"/>
            <path id="Trazado_190649" data-name="Trazado 190649" d="M1556.589,606a2.213,2.213,0,0,1,2.538,1.915,3.321,3.321,0,0,1-2.066,3.107Z" transform="translate(-1482.909 -577.305)" fill="#ee1822"/>
            <path id="Trazado_190650" data-name="Trazado 190650" d="M1267.22,443.921a11.183,11.183,0,0,1-6.462-1.917,9,9,0,0,1-3.824-6.633c-.578-6.156,4.605-12.629,11.555-14.43a12.187,12.187,0,0,1,10.082,1.443,9,9,0,0,1,3.824,6.633c.578,6.156-4.605,12.629-11.555,14.43a14.447,14.447,0,0,1-3.62.473m4.892-21.967a12.991,12.991,0,0,0-3.251.426c-6.274,1.626-10.961,7.392-10.449,12.852a7.533,7.533,0,0,0,3.2,5.556,10.719,10.719,0,0,0,8.856,1.222c6.274-1.626,10.961-7.392,10.449-12.853a7.534,7.534,0,0,0-3.2-5.556,9.7,9.7,0,0,0-5.605-1.648" transform="translate(-1197.396 -400.566)" fill="#6c184e"/>
            <path id="Trazado_190651" data-name="Trazado 190651" d="M1426.11,769.542a4.6,4.6,0,0,1,.194.651,1.978,1.978,0,0,1,.072.624.536.536,0,1,1-1.068-.082.549.549,0,0,1,.031-.143,1.972,1.972,0,0,1,.325-.538,4.568,4.568,0,0,1,.446-.512" transform="translate(-1357.841 -733.116)" fill="#f6c547"/>
            <path id="Trazado_190652" data-name="Trazado 190652" d="M1378.695,736.759a4.577,4.577,0,0,1-.15.665,2,2,0,0,1-.243.583.536.536,0,1,1-.892-.592.556.556,0,0,1,.1-.11,2,2,0,0,1,.548-.314,4.617,4.617,0,0,1,.641-.232" transform="translate(-1312.125 -701.885)" fill="#f6c547"/>
            <path id="Trazado_190653" data-name="Trazado 190653" d="M1363.287,680.283a4.135,4.135,0,0,1-.431.472,1.742,1.742,0,0,1-.467.353.537.537,0,0,1-.458-.97.558.558,0,0,1,.152-.046,1.742,1.742,0,0,1,.584.036,4.133,4.133,0,0,1,.62.155" transform="translate(-1297.171 -647.889)" fill="#f6c547"/>
            <path id="Trazado_190654" data-name="Trazado 190654" d="M1385.495,611.764a3.751,3.751,0,0,1-.593.117,1.531,1.531,0,0,1-.547,0,.538.538,0,1,1,.232-1.05.552.552,0,0,1,.16.063,1.532,1.532,0,0,1,.4.376,3.78,3.78,0,0,1,.351.492" transform="translate(-1318.426 -581.908)" fill="#f6c547"/>
            <path id="Trazado_190655" data-name="Trazado 190655" d="M1437.939,563.681a3.961,3.961,0,0,1-.541-.312,1.648,1.648,0,0,1-.431-.371.537.537,0,1,1,.856-.649.551.551,0,0,1,.078.145,1.646,1.646,0,0,1,.074.564,3.984,3.984,0,0,1-.036.623" transform="translate(-1368.846 -535.529)" fill="#f6c547"/>
            <path id="Trazado_190656" data-name="Trazado 190656" d="M1623.8,721.613a4.108,4.108,0,0,1,.522.363,1.722,1.722,0,0,1,.409.414.537.537,0,0,1-.9.581.548.548,0,0,1-.065-.146,1.716,1.716,0,0,1-.039-.581,4.088,4.088,0,0,1,.075-.632" transform="translate(-1546.856 -687.456)" fill="#f6c547"/>
            <path id="Trazado_190657" data-name="Trazado 190657" d="M1652.95,670.639a3.735,3.735,0,0,1,.6-.057,1.524,1.524,0,0,1,.544.053.537.537,0,1,1-.489.942,1.53,1.53,0,0,1-.357-.414,3.788,3.788,0,0,1-.3-.524" transform="translate(-1574.709 -638.838)" fill="#f6c547"/>
            <path id="Trazado_190658" data-name="Trazado 190658" d="M1652.3,600.756a3.98,3.98,0,0,1,.45-.432,1.645,1.645,0,0,1,.476-.311.537.537,0,0,1,.385,1,.556.556,0,0,1-.161.035,1.642,1.642,0,0,1-.562-.086,4,4,0,0,1-.588-.208" transform="translate(-1574.094 -571.578)" fill="#f6c547"/>
            <path id="Trazado_190659" data-name="Trazado 190659" d="M1623.753,546.088a4.436,4.436,0,0,1,.17-.647,1.918,1.918,0,0,1,.26-.56.536.536,0,1,1,.866.631.546.546,0,0,1-.1.107,1.915,1.915,0,0,1-.551.278,4.468,4.468,0,0,1-.641.191" transform="translate(-1546.894 -518.879)" fill="#f6c547"/>
            <path id="Trazado_190660" data-name="Trazado 190660" d="M1572.821,526.106a4.6,4.6,0,0,1-.167-.66,1.992,1.992,0,0,1-.047-.629.536.536,0,0,1,1.064.125.56.56,0,0,1-.036.141,2,2,0,0,1-.346.527,4.6,4.6,0,0,1-.467.5" transform="translate(-1498.16 -499.523)" fill="#f6c547"/>
            <path id="Trazado_190661" data-name="Trazado 190661" d="M1534.3,496.613a.743.743,0,0,1-.74-.673l-1.446-15.4a.743.743,0,0,1,.676-.81c4.673-.405,8.346,2.33,8.738,6.5.381,4.055-2.534,8.393-6.93,10.317a.743.743,0,0,1-.3.062m-.633-15.431,1.272,13.544c3.3-1.831,5.406-5.207,5.11-8.353-.291-3.1-2.919-5.192-6.371-5.192Z" transform="translate(-1459.588 -456.989)" fill="#bd1622"/>
            <path id="Trazado_190662" data-name="Trazado 190662" d="M1329.649,517.861c-4.231,0-7.482-2.665-7.846-6.538-.379-4.032,2.391-8.238,6.736-10.229a.743.743,0,0,1,1.049.606l1.44,15.328a.743.743,0,0,1-.69.811c-.232.016-.462.023-.689.023m-1.437-14.926c-3.185,1.854-5.217,5.183-4.929,8.249s2.79,5.129,6.192,5.191Z" transform="translate(-1259.204 -477.31)" fill="#bd1622"/>
            <path id="Trazado_190663" data-name="Trazado 190663" d="M750.642,1038.361c.511,5.442-4.1,11.155-10.291,12.76s-11.631-1.505-12.142-6.947,4.1-11.155,10.291-12.76,11.631,1.505,12.142,6.947" transform="translate(-693.702 -982.19)" fill="#ee1822"/>
            <g id="Grupo_144238" data-name="Grupo 144238" transform="translate(34.467 48.802)" opacity="0.65">
              <g id="Grupo_144237" data-name="Grupo 144237">
                <g id="Grupo_144236" data-name="Grupo 144236" clip-path="url(#clip-path-11)">
                  <path id="Trazado_190664" data-name="Trazado 190664" d="M741.161,1050.65c-5.842,1.514-10.968-1.419-11.45-6.551s3.863-10.519,9.7-12.033c4.3-1.113,8.2.181,10.162,2.983-1.958-3.293-6.291-4.872-11.079-3.631-6.195,1.605-10.8,7.318-10.292,12.76s5.947,8.552,12.142,6.947a14.539,14.539,0,0,0,4.507-2.051,13.66,13.66,0,0,1-3.7,1.576" transform="translate(-728.169 -1030.996)" fill="#fff"/>
                </g>
              </g>
            </g>
            <path id="Trazado_190665" data-name="Trazado 190665" d="M985.628,1086.482l1.353,14.4c3.782-1.654,6.4-5.379,6.069-8.949s-3.516-5.79-7.422-5.453" transform="translate(-938.974 -1035.022)" fill="#bd1622"/>
            <path id="Trazado_190666" data-name="Trazado 190666" d="M794.807,1106.385c-3.69,1.691-6.228,5.356-5.9,8.872s3.42,5.722,7.245,5.466Z" transform="translate(-751.539 -1054.015)" fill="#bd1622"/>
            <path id="Trazado_190667" data-name="Trazado 190667" d="M794.807,1106.385c-3.69,1.691-6.228,5.356-5.9,8.872s3.42,5.722,7.245,5.466Z" transform="translate(-751.539 -1054.015)" fill="#bd1622"/>
            <path id="Trazado_190668" data-name="Trazado 190668" d="M885.969,1207.854a3.106,3.106,0,0,0-1.933,2.907,2.071,2.071,0,0,0,2.374,1.791Z" transform="translate(-842.183 -1150.681)" fill="#ee1822"/>
            <path id="Trazado_190669" data-name="Trazado 190669" d="M993.846,1189.9a2.071,2.071,0,0,1,2.374,1.791,3.106,3.106,0,0,1-1.932,2.907Z" transform="translate(-946.803 -1133.567)" fill="#ee1822"/>
            <path id="Trazado_190670" data-name="Trazado 190670" d="M721.739,1036.938a10.533,10.533,0,0,1-6.085-1.806,8.486,8.486,0,0,1-3.607-6.256c-.544-5.791,4.329-11.88,10.862-13.573a11.474,11.474,0,0,1,9.489,1.361,8.486,8.486,0,0,1,3.607,6.256c.544,5.792-4.329,11.88-10.862,13.573a13.592,13.592,0,0,1-3.4.445m4.577-20.548a12.081,12.081,0,0,0-3.023.4c-5.837,1.513-10.2,6.872-9.721,11.947a6.977,6.977,0,0,0,2.962,5.146,9.956,9.956,0,0,0,8.226,1.132c5.837-1.512,10.2-6.872,9.721-11.947a6.977,6.977,0,0,0-2.962-5.146,9,9,0,0,0-5.2-1.528" transform="translate(-678.303 -966.822)" fill="#6c184e"/>
            <path id="Trazado_190671" data-name="Trazado 190671" d="M901.916,1347.594a4.245,4.245,0,0,1,.3.519,1.94,1.94,0,0,1,.2.525.441.441,0,0,1-.868.157.461.461,0,0,1-.006-.108,1.932,1.932,0,0,1,.137-.544,4.226,4.226,0,0,1,.24-.549" transform="translate(-858.864 -1283.806)" fill="#f6c547"/>
            <path id="Trazado_190672" data-name="Trazado 190672" d="M848,1330.724a4.561,4.561,0,0,1-.014.626,2.13,2.13,0,0,1-.106.58.441.441,0,1,1-.827-.3.471.471,0,0,1,.046-.091,2.134,2.134,0,0,1,.4-.428,4.618,4.618,0,0,1,.5-.382" transform="translate(-806.93 -1267.735)" fill="#f6c547"/>
            <path id="Trazado_190673" data-name="Trazado 190673" d="M817.4,1289.015a4.311,4.311,0,0,1-.3.523,1.975,1.975,0,0,1-.359.437.441.441,0,1,1-.571-.672.464.464,0,0,1,.089-.059,1.98,1.98,0,0,1,.543-.157,4.327,4.327,0,0,1,.6-.072" transform="translate(-777.391 -1228)" fill="#f6c547"/>
            <path id="Trazado_190674" data-name="Trazado 190674" d="M820.759,1227.621a3.749,3.749,0,0,1-.5.256,1.658,1.658,0,0,1-.493.153.442.442,0,0,1-.093-.878.46.46,0,0,1,.118,0,1.654,1.654,0,0,1,.484.182,3.762,3.762,0,0,1,.481.284" transform="translate(-780.501 -1169.063)" fill="#f6c547"/>
            <path id="Trazado_190675" data-name="Trazado 190675" d="M857.236,1170.618a3.622,3.622,0,0,1-.536-.12,1.6,1.6,0,0,1-.467-.2.442.442,0,1,1,.5-.73.454.454,0,0,1,.09.081,1.6,1.6,0,0,1,.242.445,3.63,3.63,0,0,1,.173.521" transform="translate(-815.52 -1114.137)" fill="#f6c547"/>
            <path id="Trazado_190676" data-name="Trazado 190676" d="M1057.516,1298.043a3.975,3.975,0,0,1,.456.355,1.787,1.787,0,0,1,.362.4.441.441,0,0,1-.752.462.456.456,0,0,1-.047-.1,1.789,1.789,0,0,1-.057-.534,3.986,3.986,0,0,1,.037-.576" transform="translate(-1007.424 -1236.601)" fill="#f6c547"/>
            <path id="Trazado_190677" data-name="Trazado 190677" d="M1083.982,1251.031a3.652,3.652,0,0,1,.546-.021,1.588,1.588,0,0,1,.5.07.442.442,0,0,1-.295.833.465.465,0,0,1-.108-.056,1.584,1.584,0,0,1-.344-.367,3.624,3.624,0,0,1-.3-.458" transform="translate(-1032.672 -1191.792)" fill="#f6c547"/>
            <path id="Trazado_190678" data-name="Trazado 190678" d="M1083.379,1186.3a3.856,3.856,0,0,1,.428-.369,1.713,1.713,0,0,1,.45-.269.441.441,0,0,1,.3.831.454.454,0,0,1-.114.025,1.709,1.709,0,0,1-.521-.059,3.843,3.843,0,0,1-.543-.159" transform="translate(-1032.098 -1129.514)" fill="#f6c547"/>
            <path id="Trazado_190679" data-name="Trazado 190679" d="M1056.67,1135.32a4.346,4.346,0,0,1,.185-.58,2.007,2.007,0,0,1,.259-.508.441.441,0,0,1,.7.533.451.451,0,0,1-.074.076,2,2,0,0,1-.5.275,4.358,4.358,0,0,1-.573.2" transform="translate(-1006.653 -1080.378)" fill="#f6c547"/>
            <path id="Trazado_190680" data-name="Trazado 190680" d="M1010.1,1116.7a4.519,4.519,0,0,1-.121-.609,2.091,2.091,0,0,1-.022-.583.441.441,0,0,1,.873.119.475.475,0,0,1-.026.1,2.094,2.094,0,0,1-.3.5,4.523,4.523,0,0,1-.4.473" transform="translate(-962.136 -1062.346)" fill="#f6c547"/>
            <path id="Trazado_190681" data-name="Trazado 190681" d="M971.569,1086.22a.765.765,0,0,1-.762-.694l-1.353-14.4a.766.766,0,0,1,.7-.835c4.408-.382,7.88,2.2,8.25,6.144.359,3.822-2.385,7.911-6.525,9.722a.764.764,0,0,1-.307.064m-.515-14.435,1.172,12.484c3.006-1.711,4.92-4.806,4.649-7.692-.266-2.837-2.664-4.764-5.822-4.792" transform="translate(-923.562 -1019.592)" fill="#bd1622"/>
            <path id="Trazado_190682" data-name="Trazado 190682" d="M780.138,1106.1c-3.995,0-7.065-2.519-7.409-6.18-.357-3.8,2.251-7.765,6.342-9.639a.766.766,0,0,1,1.081.625l1.346,14.338a.766.766,0,0,1-.711.836q-.329.022-.65.022m-1.4-13.915c-2.9,1.731-4.744,4.782-4.48,7.592s2.54,4.7,5.643,4.79Z" transform="translate(-736.122 -1038.604)" fill="#bd1622"/>
            <path id="Trazado_190683" data-name="Trazado 190683" d="M490.55,1215.243c-8.09.332-8.25,4.435-5.68,10.763,4.859-2.029,8.076-5.6,5.68-10.763" transform="translate(-460.516 -1157.72)" fill="#48c75a"/>
            <path id="Trazado_190684" data-name="Trazado 190684" d="M468.194,1212a.766.766,0,0,1-.725-.518c-1.235-3.613-2.141-7.3-.415-9.764,1.2-1.717,3.49-2.588,7-2.662a.758.758,0,0,1,.7.421,7.428,7.428,0,0,1,.525,5.969c-.9,2.581-3.3,4.884-6.764,6.484a.765.765,0,0,1-.321.071m5.4-11.4c-2.7.123-4.433.777-5.282,1.992-1.218,1.743-.584,4.722.334,7.564,2.633-1.379,4.5-3.252,5.19-5.219a5.815,5.815,0,0,0-.242-4.338" transform="translate(-444.037 -1142.299)" fill="#661a47"/>
            <path id="Trazado_190685" data-name="Trazado 190685" d="M538.9,1200.874a6.968,6.968,0,0,0-1.512.945,9.916,9.916,0,0,0-1.365,1.363,15.535,15.535,0,0,0-2.129,3.538,8.6,8.6,0,0,1,.293-2.151,9.857,9.857,0,0,1,.8-2.068,7.183,7.183,0,0,1,1.351-1.855,4.74,4.74,0,0,1,2.078-1.223.768.768,0,0,1,.513,1.44Z" transform="translate(-508.622 -1142.625)" fill="#651b47"/>
            <path id="Trazado_190686" data-name="Trazado 190686" d="M943.882,717.527c7.162-3.777,9.361-.31,10.319,6.452-5.221.687-9.794-.782-10.319-6.452" transform="translate(-899.204 -682.081)" fill="#48c75a"/>
            <path id="Trazado_190687" data-name="Trazado 190687" d="M937.607,709.512a11.182,11.182,0,0,1-7.356-2.292,7.428,7.428,0,0,1-2.544-5.425.765.765,0,0,1,.394-.716c3.072-1.7,5.49-2.1,7.39-1.215,2.732,1.267,3.8,4.907,4.546,8.651a.766.766,0,0,1-.679.912q-.9.084-1.751.084m-8.329-7.327a5.815,5.815,0,0,0,1.97,3.873c1.581,1.356,4.142,2.034,7.11,1.9-.634-2.919-1.583-5.813-3.512-6.708-1.346-.625-3.17-.32-5.568.931" transform="translate(-883.793 -666.304)" fill="#661a47"/>
            <path id="Trazado_190688" data-name="Trazado 190688" d="M929.386,729.979a4.746,4.746,0,0,1,2.412.014,7.192,7.192,0,0,1,2.1.926,9.859,9.859,0,0,1,1.728,1.388,8.6,8.6,0,0,1,1.334,1.713,15.533,15.533,0,0,0-3.618-1.99,9.961,9.961,0,0,0-1.865-.493,6.975,6.975,0,0,0-1.782-.057l-.027,0a.768.768,0,0,1-.281-1.5" transform="translate(-884.862 -695.283)" fill="#651b47"/>
            <path id="Trazado_190689" data-name="Trazado 190689" d="M1397.717,1230.974c-5.548-5.144-8.372-2.548-10.874,3.322,4.545,1.885,9.027,1.667,10.874-3.322" transform="translate(-1321.198 -1170.08)" fill="#48c75a"/>
            <path id="Trazado_190690" data-name="Trazado 190690" d="M1365.4,1221.954a14.613,14.613,0,0,1-5.038-.989.715.715,0,0,1-.392-.988c1.581-3.2,3.426-6.223,6.2-6.7,1.928-.337,4.013.609,6.374,2.886a.715.715,0,0,1,.182.741,6.94,6.94,0,0,1-3.61,4.279,8.561,8.561,0,0,1-3.714.776m-3.781-2.07a9.63,9.63,0,0,0,6.877,0,5.432,5.432,0,0,0,2.716-3.017c-1.861-1.71-3.433-2.426-4.8-2.189-1.958.34-3.515,2.723-4.794,5.2" transform="translate(-1295.523 -1155.78)" fill="#661a47"/>
            <path id="Trazado_190691" data-name="Trazado 190691" d="M1465.464,1262.694a6.512,6.512,0,0,0-1.622-.38,9.267,9.267,0,0,0-1.8-.007,14.5,14.5,0,0,0-3.747.919,8.017,8.017,0,0,1,1.619-1.223,9.209,9.209,0,0,1,1.9-.834,6.714,6.714,0,0,1,2.119-.327,4.432,4.432,0,0,1,2.179.572.717.717,0,0,1-.617,1.288Z" transform="translate(-1389.265 -1201.16)" fill="#651b47"/>
            <path id="Trazado_190692" data-name="Trazado 190692" d="M264.984,1560.815c.438.025.85.062,1.275.11s.845.106,1.271.182a11.824,11.824,0,0,1,1.3.295,5.5,5.5,0,0,1,1.383.581l.056.035a1.064,1.064,0,1,1-1.115,1.813,1.123,1.123,0,0,1-.161-.122,3.491,3.491,0,0,0-.824-.49,9.908,9.908,0,0,0-1.059-.41c-.369-.123-.748-.235-1.132-.336s-.779-.2-1.154-.273l-.017,0a.7.7,0,0,1,.182-1.382" transform="translate(-251.736 -1486.933)" fill="#48c75a"/>
            <g id="Grupo_144241" data-name="Grupo 144241" transform="translate(12.508 73.88)" opacity="0.3">
              <g id="Grupo_144240" data-name="Grupo 144240">
                <g id="Grupo_144239" data-name="Grupo 144239" clip-path="url(#clip-path-12)">
                  <path id="Trazado_190693" data-name="Trazado 190693" d="M264.984,1560.815c.438.025.85.062,1.275.11s.845.106,1.271.182a11.824,11.824,0,0,1,1.3.295,5.5,5.5,0,0,1,1.383.581l.056.035a1.064,1.064,0,1,1-1.115,1.813,1.123,1.123,0,0,1-.161-.122,3.491,3.491,0,0,0-.824-.49,9.908,9.908,0,0,0-1.059-.41c-.369-.123-.748-.235-1.132-.336s-.779-.2-1.154-.273l-.017,0a.7.7,0,0,1,.182-1.382" transform="translate(-264.244 -1560.814)" fill="#6c184e"/>
                </g>
              </g>
            </g>
            <path id="Trazado_190694" data-name="Trazado 190694" d="M257.412,1552.31a1.663,1.663,0,0,1-.874-.248,1.732,1.732,0,0,1-.251-.189,2.71,2.71,0,0,0-.669-.388,9.265,9.265,0,0,0-1-.385c-.35-.117-.718-.226-1.1-.325s-.773-.193-1.123-.266a1.31,1.31,0,0,1,.324-2.593c.424.025.84.06,1.307.113.446.049.888.113,1.311.188a12.345,12.345,0,0,1,1.36.31,6.039,6.039,0,0,1,1.531.647l.057.035a1.675,1.675,0,0,1-.881,3.1m-4.76-3.174a.089.089,0,0,0-.087.071.088.088,0,0,0,.069.1c.388.08.8.177,1.2.284s.8.222,1.17.347a10.458,10.458,0,0,1,1.123.435,3.907,3.907,0,0,1,.979.593.545.545,0,0,0,.07.053.454.454,0,0,0,.474-.774l-.057-.035a4.923,4.923,0,0,0-1.24-.517,11.143,11.143,0,0,0-1.223-.277c-.4-.072-.807-.13-1.233-.177-.446-.05-.841-.084-1.243-.107h0" transform="translate(-239.444 -1474.645)" fill="#661a47"/>
            <path id="Trazado_190695" data-name="Trazado 190695" d="M42.018,1487.949c-2.468-9.023-12.838-1.665-12.838-1.665s8.15,9.76,12.838,1.665" transform="translate(-27.799 -1413.238)" fill="#48c75a"/>
            <g id="Grupo_144244" data-name="Grupo 144244" transform="translate(1.381 70.219)" opacity="0.65">
              <g id="Grupo_144243" data-name="Grupo 144243">
                <g id="Grupo_144242" data-name="Grupo 144242" clip-path="url(#clip-path-13)">
                  <path id="Trazado_190696" data-name="Trazado 190696" d="M41.962,1488.041c.018-.031.037-.06.055-.091-2.468-9.023-12.838-1.665-12.838-1.665s.277.332.758.822c1.946-1.236,9.453-5.47,12.024.934" transform="translate(-29.18 -1483.458)" fill="#fff"/>
                </g>
              </g>
            </g>
            <path id="Trazado_190697" data-name="Trazado 190697" d="M9.339,1479.459c-4.486,0-8.982-4.862-9.18-5.079a.61.61,0,0,1,.114-.921c.26-.172,6.42-4.184,10.834-2.522a6.2,6.2,0,0,1,3.7,4.541.61.61,0,0,1-.061.467,6.28,6.28,0,0,1-4.769,3.481,5.925,5.925,0,0,1-.639.034m-7.751-5.37c1.339,1.3,4.992,4.473,8.261,4.121a5.018,5.018,0,0,0,3.71-2.658,4.934,4.934,0,0,0-2.88-3.473c-3.079-1.161-7.461,1.07-9.09,2.01" transform="translate(0 -1400.927)" fill="#661a47"/>
            <line id="Línea_1898" data-name="Línea 1898" x1="6.961" y1="0.903" transform="translate(7.258 73.808)" fill="#48c75a"/>
            <path id="Trazado_190698" data-name="Trazado 190698" d="M160.218,1559.524a14.544,14.544,0,0,1-1.743-.208c-.577-.1-1.15-.227-1.723-.358-1.145-.268-2.287-.561-3.417-.942,1.19-.081,2.369-.073,3.544-.04.587.02,1.175.039,1.757.094a14.594,14.594,0,0,1,1.738.244.613.613,0,0,1-.157,1.211" transform="translate(-146.077 -1484.208)" fill="#651b47"/>
            <path id="Trazado_190699" data-name="Trazado 190699" d="M192.8,1574.6q1.176-1.041,2.375-2.061c.8-.679,1.605-1.352,2.449-2a.614.614,0,0,1,.75.971.642.642,0,0,1-.1.062l0,0c-.92.459-1.837.962-2.749,1.47s-1.82,1.03-2.723,1.559" transform="translate(-183.675 -1496.074)" fill="#661a47"/>
            <path id="Trazado_190700" data-name="Trazado 190700" d="M170.807,1580.851s-5.263.318-6.468,9.429c0,0,10.749-3.421,6.468-9.429" transform="translate(-156.56 -1506.022)" fill="#48c75a"/>
            <g id="Grupo_144247" data-name="Grupo 144247" transform="translate(7.779 74.829)" opacity="0.65">
              <g id="Grupo_144246" data-name="Grupo 144246">
                <g id="Grupo_144245" data-name="Grupo 144245" clip-path="url(#clip-path-14)">
                  <path id="Trazado_190701" data-name="Trazado 190701" d="M165.856,1589.434c.988-7.47,5.244-7.859,5.395-7.87a6.627,6.627,0,0,0-.443-.713s-5.263.318-6.468,9.429a19.3,19.3,0,0,0,4.369-2.128,16.532,16.532,0,0,1-2.852,1.282" transform="translate(-164.339 -1580.851)" fill="#fff"/>
                </g>
              </g>
            </g>
            <path id="Trazado_190702" data-name="Trazado 190702" d="M152.051,1578.6a.611.611,0,0,1-.605-.691c1.257-9.5,6.8-9.944,7.037-9.958a.61.61,0,0,1,.534.255,4.861,4.861,0,0,1,.894,4.505c-1.26,3.78-7.413,5.777-7.675,5.86a.607.607,0,0,1-.185.029m6.179-9.376c-1.053.238-4.281,1.48-5.417,7.831,1.695-.684,5.142-2.337,5.94-4.732a3.506,3.506,0,0,0-.523-3.1" transform="translate(-144.272 -1493.732)" fill="#661a47"/>
            <path id="Trazado_190703" data-name="Trazado 190703" d="M238.213,1571.3q.58-1.106,1.2-2.2c.414-.729.833-1.451,1.315-2.169a.615.615,0,0,1,1.022.685.652.652,0,0,1-.1.115c-.595.537-1.176,1.133-1.746,1.732s-1.133,1.214-1.687,1.836" transform="translate(-226.937 -1492.504)" fill="#661a47"/>
            <path id="Trazado_190704" data-name="Trazado 190704" d="M227.944,1359.568s-4.907-1.929-3.237-10.967c0,0,9.165,6.576,3.237,10.967" transform="translate(-213.74 -1284.766)" fill="#48c75a"/>
            <g id="Grupo_144250" data-name="Grupo 144250" transform="translate(10.62 63.835)" opacity="0.65">
              <g id="Grupo_144249" data-name="Grupo 144249">
                <g id="Grupo_144248" data-name="Grupo 144248" clip-path="url(#clip-path-15)">
                  <path id="Trazado_190705" data-name="Trazado 190705" d="M226.132,1349.775a18.272,18.272,0,0,0-1.425-1.174c-1.67,9.037,3.237,10.967,3.237,10.967.072-.053.14-.107.208-.161-.978-.721-3.516-3.273-2.02-9.632" transform="translate(-224.36 -1348.601)" fill="#fff"/>
                </g>
              </g>
            </g>
            <path id="Trazado_190706" data-name="Trazado 190706" d="M215.6,1347.891a.611.611,0,0,1-.223-.042c-.219-.086-5.355-2.222-3.614-11.646a.61.61,0,0,1,.956-.385c.223.16,5.457,3.961,5.487,7.945a4.861,4.861,0,0,1-2.243,4.008.611.611,0,0,1-.363.12m-2.8-10.454c-.883,6.391,1.8,8.57,2.731,9.122a3.506,3.506,0,0,0,1.455-2.786c-.018-2.525-2.785-5.162-4.186-6.337" transform="translate(-201.394 -1272.478)" fill="#661a47"/>
            <path id="Trazado_190707" data-name="Trazado 190707" d="M266.28,1481.149q.5,1.143,1.037,2.267c.357.746.726,1.492,1.126,2.187a.615.615,0,1,1-1.066.615.661.661,0,0,1-.059-.14c-.236-.832-.412-1.648-.58-2.469s-.318-1.64-.458-2.461" transform="translate(-253.676 -1411.04)" fill="#661a47"/>
            <path id="Trazado_190708" data-name="Trazado 190708" d="M74.8,1603.051a.225.225,0,0,0,.064.077.368.368,0,0,0,.138.058,1.62,1.62,0,0,0,.591,0,6.62,6.62,0,0,0,1.5-.465,23.069,23.069,0,0,0,3.011-1.6c1.964-1.218,3.861-2.584,5.713-4.006s3.657-2.916,5.42-4.455q.661-.578,1.313-1.164c.439-.391.856-.788,1.313-1.183.225-.2.447-.4.674-.59l.7-.562.349-.28.359-.266.717-.532a51.8,51.8,0,0,1,12.652-6.378q3.334-1.193,6.77-2.045a67,67,0,0,1,6.923-1.381,82.934,82.934,0,0,0-13.491,3.967,65.394,65.394,0,0,0-6.386,2.893,45.1,45.1,0,0,0-5.92,3.694l-.687.535-.343.267-.332.28-.663.561c-.216.192-.426.391-.639.586-.425.383-.85.807-1.279,1.209s-.861.808-1.3,1.207q-2.612,2.393-5.366,4.632a64.841,64.841,0,0,1-5.744,4.213,24.418,24.418,0,0,1-3.181,1.759,8.026,8.026,0,0,1-1.851.6,3.081,3.081,0,0,1-1.162,0,1.893,1.893,0,0,1-.669-.284,1.754,1.754,0,0,1-.526-.569.766.766,0,0,1,1.324-.77Z" transform="translate(-69.898 -1503.566)" fill="#6c184e"/>
            <g id="Grupo_144253" data-name="Grupo 144253" transform="translate(92.442 62.479)" opacity="0.3">
              <g id="Grupo_144252" data-name="Grupo 144252">
                <g id="Grupo_144251" data-name="Grupo 144251" clip-path="url(#clip-path-16)">
                  <path id="Trazado_190709" data-name="Trazado 190709" d="M1955.349,1320.55c.124.478-.306,1-.959,1.172a1.1,1.1,0,0,1-1.407-.558c-.124-.478.306-1,.959-1.171a1.1,1.1,0,0,1,1.407.558" transform="translate(-1952.961 -1319.939)" fill="#6c184e"/>
                </g>
              </g>
            </g>
            <g id="Grupo_144256" data-name="Grupo 144256" transform="translate(86.057 58.78)" opacity="0.3">
              <g id="Grupo_144255" data-name="Grupo 144255">
                <g id="Grupo_144254" data-name="Grupo 144254" clip-path="url(#clip-path-17)">
                  <path id="Trazado_190710" data-name="Trazado 190710" d="M1821.963,1242.8c.2.776-.5,1.629-1.559,1.9a1.784,1.784,0,0,1-2.288-.907c-.2-.776.5-1.629,1.559-1.9a1.784,1.784,0,0,1,2.288.907" transform="translate(-1818.081 -1241.809)" fill="#6c184e"/>
                </g>
              </g>
            </g>
            <g id="Grupo_144259" data-name="Grupo 144259" transform="translate(73.8 50.518)" opacity="0.3">
              <g id="Grupo_144258" data-name="Grupo 144258">
                <g id="Grupo_144257" data-name="Grupo 144257" clip-path="url(#clip-path-18)">
                  <path id="Trazado_190711" data-name="Trazado 190711" d="M1562.079,1067.963a1.595,1.595,0,1,1-1.88-.592,1.414,1.414,0,0,1,1.88.592" transform="translate(-1559.117 -1067.247)" fill="#6c184e"/>
                </g>
              </g>
            </g>
            <g id="Grupo_144262" data-name="Grupo 144262" transform="translate(88.951 36.074)" opacity="0.3">
              <g id="Grupo_144261" data-name="Grupo 144261">
                <g id="Grupo_144260" data-name="Grupo 144260" clip-path="url(#clip-path-19)">
                  <path id="Trazado_190712" data-name="Trazado 190712" d="M1881.262,762.6a1.1,1.1,0,1,1-1.3-.409.978.978,0,0,1,1.3.409" transform="translate(-1879.214 -762.105)" fill="#6c184e"/>
                </g>
              </g>
            </g>
            <g id="Grupo_144265" data-name="Grupo 144265" transform="translate(90.743 47.079)" opacity="0.3">
              <g id="Grupo_144264" data-name="Grupo 144264">
                <g id="Grupo_144263" data-name="Grupo 144263" clip-path="url(#clip-path-20)">
                  <path id="Trazado_190713" data-name="Trazado 190713" d="M1919.394,995.16a1.252,1.252,0,1,1-1.476-.465,1.11,1.11,0,0,1,1.476.465" transform="translate(-1917.067 -994.597)" fill="#6c184e"/>
                </g>
              </g>
            </g>
            <g id="Grupo_144268" data-name="Grupo 144268" transform="translate(78.444 43.773)" opacity="0.3">
              <g id="Grupo_144267" data-name="Grupo 144267">
                <g id="Grupo_144266" data-name="Grupo 144266" clip-path="url(#clip-path-21)">
                  <path id="Trazado_190714" data-name="Trazado 190714" d="M1659.16,925.238a1.033,1.033,0,1,1-1.218-.383.916.916,0,0,1,1.218.383" transform="translate(-1657.241 -924.774)" fill="#6c184e"/>
                </g>
              </g>
            </g>
            <g id="Grupo_144271" data-name="Grupo 144271" transform="translate(61.299 57.455)" opacity="0.3">
              <g id="Grupo_144270" data-name="Grupo 144270">
                <g id="Grupo_144269" data-name="Grupo 144269" clip-path="url(#clip-path-22)">
                  <path id="Trazado_190715" data-name="Trazado 190715" d="M1296.959,1214.129a1.138,1.138,0,1,1-1.4-.058,1.009,1.009,0,0,1,1.4.058" transform="translate(-1295.031 -1213.819)" fill="#6c184e"/>
                </g>
              </g>
            </g>
            <g id="Grupo_144274" data-name="Grupo 144274" transform="translate(63.775 46.892)" opacity="0.3">
              <g id="Grupo_144273" data-name="Grupo 144273">
                <g id="Grupo_144272" data-name="Grupo 144272" clip-path="url(#clip-path-23)">
                  <path id="Trazado_190716" data-name="Trazado 190716" d="M1349.238,990.968a1.129,1.129,0,1,1-1.394-.057,1,1,0,0,1,1.394.057" transform="translate(-1347.326 -990.661)" fill="#6c184e"/>
                </g>
              </g>
            </g>
            <g id="Grupo_144277" data-name="Grupo 144277" transform="translate(29.865 74.506)" opacity="0.3">
              <g id="Grupo_144276" data-name="Grupo 144276">
                <g id="Grupo_144275" data-name="Grupo 144275" clip-path="url(#clip-path-24)">
                  <path id="Trazado_190717" data-name="Trazado 190717" d="M633.485,1574.451a1.5,1.5,0,1,1-1.85-.076,1.329,1.329,0,0,1,1.85.076" transform="translate(-630.947 -1574.043)" fill="#6c184e"/>
                </g>
              </g>
            </g>
            <g id="Grupo_144280" data-name="Grupo 144280" transform="translate(30.785 66.963)" opacity="0.3">
              <g id="Grupo_144279" data-name="Grupo 144279">
                <g id="Grupo_144278" data-name="Grupo 144278" clip-path="url(#clip-path-25)">
                  <path id="Trazado_190718" data-name="Trazado 190718" d="M652.527,1415.024a1.267,1.267,0,1,1-1.564-.064,1.123,1.123,0,0,1,1.564.064" transform="translate(-650.381 -1414.679)" fill="#6c184e"/>
                </g>
              </g>
            </g>
            <g id="Grupo_144283" data-name="Grupo 144283" transform="translate(19.408 82.477)" opacity="0.3">
              <g id="Grupo_144282" data-name="Grupo 144282">
                <g id="Grupo_144281" data-name="Grupo 144281" clip-path="url(#clip-path-26)">
                  <path id="Trazado_190719" data-name="Trazado 190719" d="M411.421,1742.656a.833.833,0,1,1-1.029-.042.739.739,0,0,1,1.029.042" transform="translate(-410.01 -1742.429)" fill="#6c184e"/>
                </g>
              </g>
            </g>
            <g id="Grupo_144286" data-name="Grupo 144286" transform="translate(31.056 52.824)" opacity="0.3">
              <g id="Grupo_144285" data-name="Grupo 144285">
                <g id="Grupo_144284" data-name="Grupo 144284" clip-path="url(#clip-path-25)">
                  <path id="Trazado_190720" data-name="Trazado 190720" d="M658.24,1116.322a1.267,1.267,0,1,1-1.564-.064,1.123,1.123,0,0,1,1.564.064" transform="translate(-656.094 -1115.977)" fill="#6c184e"/>
                </g>
              </g>
            </g>
            <g id="Grupo_144289" data-name="Grupo 144289" transform="translate(41.459 44.764)" opacity="0.3">
              <g id="Grupo_144288" data-name="Grupo 144288">
                <g id="Grupo_144287" data-name="Grupo 144287" clip-path="url(#clip-path-28)">
                  <path id="Trazado_190721" data-name="Trazado 190721" d="M878.679,946.138a1.655,1.655,0,1,1-2.043-.084,1.467,1.467,0,0,1,2.043.084" transform="translate(-875.876 -945.688)" fill="#6c184e"/>
                </g>
              </g>
            </g>
            <path id="Trazado_190722" data-name="Trazado 190722" d="M1368.9,83.268c-1.542,8.772,18.485,10.193,18.485,10.193s12.684-29.69-7.781-55.03-48.3-21.5-51.336-15.514,2.976,8.721,2.976,8.721,46.017,4.053,37.655,51.631" transform="translate(-1264.585 -17.619)" fill="#eb984e"/>
            <g id="Grupo_144292" data-name="Grupo 144292" transform="translate(62.832 0.875)" opacity="0.65">
              <g id="Grupo_144291" data-name="Grupo 144291">
                <g id="Grupo_144290" data-name="Grupo 144290" clip-path="url(#clip-path-29)">
                  <path id="Trazado_190723" data-name="Trazado 190723" d="M1379.609,38.431c-20.465-25.34-48.3-21.5-51.336-15.514-2.7,5.331,1.772,8.085,2.781,8.623-1.215-1.31-2.225-3.463-.667-6.538.663-1.308,2.6-2.506,5.425-3.267-.651.416-1.015.892-.937,1.331.159.887,2.055,1.291,4.235.9s3.82-1.425,3.661-2.312c-.057-.319-.34-.573-.778-.753,9.935-.247,24.339,3.937,36.117,18.522,19.025,23.558,7.233,51.159,7.233,51.159s-13.208-.937-16.518-6.106c.406,7.7,18.562,8.984,18.562,8.984s12.684-29.69-7.781-55.03" transform="translate(-1327.418 -18.494)" fill="#fff"/>
                </g>
              </g>
            </g>
            <g id="Grupo_144295" data-name="Grupo 144295" transform="translate(65.547 10.028)" opacity="0.3">
              <g id="Grupo_144294" data-name="Grupo 144294">
                <g id="Grupo_144293" data-name="Grupo 144293" clip-path="url(#clip-path-30)">
                  <path id="Trazado_190724" data-name="Trazado 190724" d="M1442.023,277.674a53.228,53.228,0,0,0,2.879-10.427,28,28,0,0,0-8.621-4.98,7.218,7.218,0,0,1-4.51-7.322c.709-8.184.674-18.5-6.42-27.279-16-19.812-37.684-17.122-40.586-12.494a7.2,7.2,0,0,0,1.117.68s46.017,4.053,37.655,51.631c-1.542,8.772,18.485,10.193,18.485,10.193" transform="translate(-1384.766 -211.86)" fill="#6c184e"/>
                </g>
              </g>
            </g>
            <path id="Trazado_190725" data-name="Trazado 190725" d="M1369.739,76.714l-.062,0c-.564-.04-13.852-1.041-18.069-6.441a5.839,5.839,0,0,1-1.216-4.776c2.485-14.141.339-25.753-6.378-34.515-10.882-14.195-30.3-16.075-30.492-16.092a.88.88,0,0,1-.285-.075,8.156,8.156,0,0,1-4-4.266,7.042,7.042,0,0,1,.608-5.647c1.191-2.349,5.229-4.157,10.54-4.717,11.6-1.223,28.795,3.407,42.257,20.077A54.085,54.085,0,0,1,1374.4,57.876a59.286,59.286,0,0,1-3.853,18.306.875.875,0,0,1-.8.531m-18.486-11.068.862.151a4.1,4.1,0,0,0,.872,3.4c3.263,4.178,13.515,5.451,16.178,5.715a60.46,60.46,0,0,0,3.488-17.2,52.353,52.353,0,0,0-11.375-36.354c-13.021-16.123-29.57-20.611-40.712-19.436-5.293.558-8.416,2.295-9.163,3.768a5.376,5.376,0,0,0-.521,4.264,6.36,6.36,0,0,0,2.964,3.206,52.141,52.141,0,0,1,11.375,2.738c5.921,2.112,14.227,6.255,20.172,14,7.035,9.169,9.3,21.246,6.722,35.9Z" transform="translate(-1246.935 0.004)" fill="#6c184e"/>
            <path id="Trazado_190726" data-name="Trazado 190726" d="M2198.313,1365.671s-3.918,4.424-11.659,2.023-9.555-7.752-6.826-12.216,24.035,1.164,18.485,10.193" transform="translate(-2075.51 -1289.829)" fill="#f7af41"/>
            <g id="Grupo_144298" data-name="Grupo 144298" transform="translate(103.124 64.087)" opacity="0.3">
              <g id="Grupo_144297" data-name="Grupo 144297">
                <g id="Grupo_144296" data-name="Grupo 144296" clip-path="url(#clip-path-31)">
                  <path id="Trazado_190727" data-name="Trazado 190727" d="M2198.313,1365.671s-3.918,4.424-11.659,2.023-9.555-7.752-6.826-12.216,24.035,1.164,18.485,10.193" transform="translate(-2178.634 -1353.916)" fill="#6c184e"/>
                </g>
              </g>
            </g>
            <path id="Trazado_190728" data-name="Trazado 190728" d="M2173.53,1351.681a15.9,15.9,0,0,1-4.72-.76c-5.357-1.661-7.394-4.432-8.161-6.464a7.938,7.938,0,0,1,.848-7.044c1.057-1.729,3.691-2.027,5.716-1.976,5.287.138,12.366,2.816,14.581,6.9a5.9,5.9,0,0,1-.32,6.181.883.883,0,0,1-.09.122,10.718,10.718,0,0,1-7.853,3.039m-6.733-14.5c-1.954,0-3.364.42-3.807,1.144a6.149,6.149,0,0,0-.7,5.513c.889,2.356,3.389,4.278,7.042,5.41,6.7,2.079,10.232-1.238,10.7-1.719a4.117,4.117,0,0,0,.228-4.357c-1.857-3.426-8.267-5.862-13.088-5.987q-.188,0-.37,0m13.931,10.88h0Z" transform="translate(-2057.924 -1272.22)" fill="#6c184e"/>
            <path id="Trazado_190729" data-name="Trazado 190729" d="M1633.234,131.094a2.921,2.921,0,0,1-.247-1.241,3.648,3.648,0,0,1,.234-1.261,2.906,2.906,0,0,1,.7-1.1,2.207,2.207,0,0,1,1.136-.613c-.2.4-.427.7-.594,1.036a10.364,10.364,0,0,0-.49.977c-.145.335-.273.684-.391,1.049s-.227.743-.346,1.151" transform="translate(-1555.691 -120.875)" fill="#6d184e"/>
            <path id="Trazado_190730" data-name="Trazado 190730" d="M1685.557,137.461a4.621,4.621,0,0,1,0-1.73,5.512,5.512,0,0,1,.578-1.659,4.362,4.362,0,0,1,1.122-1.375c.119-.09.234-.183.358-.264s.26-.144.392-.21a2.132,2.132,0,0,1,.411-.161,4.374,4.374,0,0,1,.427-.106c-.392.45-.787.8-1.106,1.231a9.671,9.671,0,0,0-.9,1.282,11.816,11.816,0,0,0-.706,1.428c-.211.5-.391,1.017-.573,1.565" transform="translate(-1605.693 -125.709)" fill="#6d184e"/>
            <path id="Trazado_190731" data-name="Trazado 190731" d="M2379.141,1014.971a5.071,5.071,0,0,1,1.649-.835,6,6,0,0,1,1.858-.26,4.744,4.744,0,0,1,1.854.384c.144.068.289.13.427.207s.266.173.394.264a2.342,2.342,0,0,1,.358.306c.11.113.219.224.316.346-.613-.163-1.142-.372-1.708-.469a9.845,9.845,0,0,0-1.67-.229,12.126,12.126,0,0,0-1.712.04c-.58.05-1.161.14-1.767.247" transform="translate(-2266.526 -965.884)" fill="#6d184e"/>
            <path id="Trazado_190732" data-name="Trazado 190732" d="M2358.609,1105.906a7.76,7.76,0,0,1,2.443-.738,8.827,8.827,0,0,1,2.586.015c.214.041.431.064.642.121s.422.115.63.178.408.158.609.241l.3.13.285.162c.187.113.377.219.555.341s.339.275.506.411a2.69,2.69,0,0,1,.241.214l.218.241c.14.164.279.326.406.5a17.524,17.524,0,0,0-2.222-1.082l-.277-.116-.287-.09c-.192-.057-.377-.133-.57-.182s-.387-.1-.581-.148-.393-.077-.588-.118a14.8,14.8,0,0,0-2.412-.218,20.573,20.573,0,0,0-2.484.142" transform="translate(-2246.966 -1052.772)" fill="#6d184e"/>
            <path id="Trazado_190733" data-name="Trazado 190733" d="M1830.273,946.954c6.2-3.271,8.107-.269,8.937,5.588-4.522.595-8.482-.677-8.937-5.588" transform="translate(-1743.638 -900.847)" fill="#48c75a"/>
            <path id="Trazado_190734" data-name="Trazado 190734" d="M1824.837,940.011a9.683,9.683,0,0,1-6.37-1.985,6.433,6.433,0,0,1-2.2-4.7.663.663,0,0,1,.341-.62c2.661-1.472,4.754-1.816,6.4-1.052,2.366,1.1,3.291,4.25,3.938,7.493a.663.663,0,0,1-.589.79c-.518.049-1.025.073-1.517.073m-7.213-6.346a5.036,5.036,0,0,0,1.706,3.354,8.933,8.933,0,0,0,6.157,1.65c-.549-2.528-1.371-5.035-3.041-5.81-1.165-.541-2.746-.277-4.823.806" transform="translate(-1730.291 -887.181)" fill="#661a47"/>
            <path id="Trazado_190735" data-name="Trazado 190735" d="M1817.719,957.736a4.11,4.11,0,0,1,2.089.012,6.235,6.235,0,0,1,1.819.8,8.532,8.532,0,0,1,1.5,1.2,7.439,7.439,0,0,1,1.156,1.484,13.446,13.446,0,0,0-3.134-1.724,8.62,8.62,0,0,0-1.615-.427,6.032,6.032,0,0,0-1.543-.049l-.024,0a.665.665,0,0,1-.243-1.3" transform="translate(-1731.217 -912.278)" fill="#651b47"/>
          </g>
        </g>
      </g>
    </g>
  </g>
</svg>
