<svg xmlns="http://www.w3.org/2000/svg" width="117" height="117" viewBox="0 0 117 117">
  <g id="Grupo_144361" data-name="Grupo 144361" transform="translate(0.1 0.128)">
    <rect id="Rectángulo_43568" data-name="Rectángulo 43568" width="117" height="117" transform="translate(-0.1 -0.128)" fill="#fff"/>
    <g id="Grupo_144348" data-name="Grupo 144348" transform="translate(16.815 8.868)">
      <path id="Trazado_190839" data-name="Trazado 190839" d="M42.437,0,31.786,6.2l10.7,6.123h0l10.652-6.2Z" transform="translate(0.468 0)" fill="#8dfcff"/>
      <path id="Trazado_190840" data-name="Trazado 190840" d="M52.983,6.035l.045,12.326L42.372,24.568l-.045-12.331h.005Z" transform="translate(0.624 0.089)" fill="#44d5e0"/>
      <path id="Trazado_190841" data-name="Trazado 190841" d="M42.482,12.236l.045,12.331-10.7-6.129L31.786,6.112Z" transform="translate(0.468 0.09)" fill="#71eeff"/>
      <path id="Trazado_190842" data-name="Trazado 190842" d="M53.2,42.876,42.528,49.039h-.005L31.85,42.876l10.673-6.163Z" transform="translate(0.469 0.541)" fill="#ffa726"/>
      <path id="Trazado_190843" data-name="Trazado 190843" d="M53.047,42.786V55.112L42.368,61.281V48.95h.005Z" transform="translate(0.624 0.631)" fill="#ffca28"/>
      <path id="Trazado_190844" data-name="Trazado 190844" d="M42.524,48.949V61.28L31.85,55.113V42.786Z" transform="translate(0.469 0.631)" fill="#ffe490"/>
      <path id="Trazado_190845" data-name="Trazado 190845" d="M53.113,79.549l-10.651,6.2h-.005l-10.7-6.124,10.651-6.2Z" transform="translate(0.468 1.082)" fill="#8dfcff"/>
      <path id="Trazado_190846" data-name="Trazado 190846" d="M42.307,85.663H42.3l.046,12.331L53,91.787,52.958,79.46Z" transform="translate(0.623 1.171)" fill="#44d5e0"/>
      <path id="Trazado_190847" data-name="Trazado 190847" d="M31.806,91.863l10.7,6.129-.046-12.331-10.7-6.124Z" transform="translate(0.468 1.172)" fill="#71eeff"/>
      <path id="Trazado_190848" data-name="Trazado 190848" d="M74.059,30.6l0,.005L84.775,36.7l-.081-12.329L73.981,18.278Z" transform="translate(1.09 0.27)" fill="#8dfcff"/>
      <path id="Trazado_190849" data-name="Trazado 190849" d="M63.572,36.658l10.721,6.1,10.635-6.231L74.215,30.429l0,0Z" transform="translate(0.937 0.449)" fill="#44d5e0"/>
      <path id="Trazado_190850" data-name="Trazado 190850" d="M74.213,30.6,63.574,36.837,63.5,24.51l10.635-6.231Z" transform="translate(0.936 0.27)" fill="#71eeff"/>
      <path id="Trazado_190851" data-name="Trazado 190851" d="M21.275,73.566,10.561,67.472l0-.005-.078-12.325,10.714,6.094Z" transform="translate(0.154 0.813)" fill="#8dfcff"/>
      <path id="Trazado_190852" data-name="Trazado 190852" d="M.073,73.522l10.72,6.1,10.636-6.23L10.715,67.293l0,0Z" transform="translate(0.001 0.992)" fill="#44d5e0"/>
      <path id="Trazado_190853" data-name="Trazado 190853" d="M0,61.374.074,73.7l10.639-6.234-.079-12.325Z" transform="translate(0 0.813)" fill="#71eeff"/>
      <path id="Trazado_190854" data-name="Trazado 190854" d="M.142,23.539l-.08,12.33,10.714-6.094,0,0,.078-12.326Z" transform="translate(0.001 0.257)" fill="#8dfcff"/>
      <path id="Trazado_190855" data-name="Trazado 190855" d="M10.776,29.6.062,35.69,10.7,41.92l10.721-6.1L10.779,29.59Z" transform="translate(0.001 0.436)" fill="#44d5e0"/>
      <path id="Trazado_190856" data-name="Trazado 190856" d="M10.622,29.77,21.262,36l.074-12.327L10.7,17.445Z" transform="translate(0.156 0.257)" fill="#71eeff"/>
      <path id="Trazado_190857" data-name="Trazado 190857" d="M63.562,72.732l10.714-6.093,0-.005.078-12.325L63.642,60.4Z" transform="translate(0.936 0.8)" fill="#8dfcff"/>
      <path id="Trazado_190858" data-name="Trazado 190858" d="M74.275,66.459,63.562,72.554,74.2,78.784l10.721-6.1L74.278,66.455Z" transform="translate(0.936 0.979)" fill="#44d5e0"/>
      <path id="Trazado_190859" data-name="Trazado 190859" d="M74.122,66.635l10.639,6.233.074-12.328L74.2,54.31Z" transform="translate(1.092 0.8)" fill="#71eeff"/>
    </g>
  </g>
</svg>
