<svg xmlns="http://www.w3.org/2000/svg" xmlns:xlink="http://www.w3.org/1999/xlink" width="117" height="117" viewBox="0 0 117 117">
  <defs>
    <clipPath id="clip-path">
      <rect id="Rect치ngulo_43571" data-name="Rect치ngulo 43571" width="93.318" height="96.527" fill="none"/>
    </clipPath>
  </defs>
  <g id="Grupo_144362" data-name="Grupo 144362" transform="translate(0.1 -0.371)">
    <rect id="Rect치ngulo_43569" data-name="Rect치ngulo 43569" width="117" height="117" transform="translate(-0.1 0.371)" fill="#fff"/>
    <g id="Grupo_144347" data-name="Grupo 144347" transform="translate(11.791 13.163)">
      <path id="Trazado_190797" data-name="Trazado 190797" d="M37.758,0l-2.9,1.641L84.514,30.4h.013l2.9-1.641Z" transform="translate(5.891 0)" fill="#8dfcff"/>
      <path id="Trazado_190798" data-name="Trazado 190798" d="M77.348,26.244h-.013V68.42l2.912-1.654V24.6Z" transform="translate(13.07 4.158)" fill="#44d5e0"/>
      <path id="Trazado_190799" data-name="Trazado 190799" d="M84.514,30.164V72.341L34.858,43.57V1.4Z" transform="translate(5.891 0.238)" fill="#71eeff"/>
      <path id="Trazado_190800" data-name="Trazado 190800" d="M89.957,66.229,52.319,86.173h-.013L2.651,57.415,40.29,37.469Z" transform="translate(0.448 6.333)" fill="#4dd0e1"/>
      <path id="Trazado_190801" data-name="Trazado 190801" d="M45.139,82.016h-.012v4.02l37.65-19.957V62.072Z" transform="translate(7.627 10.491)" fill="#44d5e0"/>
      <path id="Trazado_190802" data-name="Trazado 190802" d="M2.651,58.539,52.306,87.31V83.29L2.651,54.531Z" transform="translate(0.448 9.216)" fill="#71eeff"/>
      <path id="Trazado_190803" data-name="Trazado 190803" d="M81.672,30.322v37.96L36.983,42.387V4.438Z" transform="translate(6.25 0.75)" fill="#fff"/>
      <path id="Trazado_190804" data-name="Trazado 190804" d="M39.855,43.336l-3.764,1.994h0l-4.965-2.876,3.763-1.994Z" transform="translate(5.26 6.838)" fill="#5bced6"/>
      <path id="Trazado_190805" data-name="Trazado 190805" d="M45.465,46.842,41.7,48.837h0l-4.965-2.876L40.5,43.967Z" transform="translate(6.208 7.431)" fill="#a8f2f7"/>
      <path id="Trazado_190806" data-name="Trazado 190806" d="M51.284,50.266l-3.764,1.994h0l-4.965-2.876,3.763-1.994Z" transform="translate(7.192 8.009)" fill="#a8f2f7"/>
      <path id="Trazado_190807" data-name="Trazado 190807" d="M56.894,53.773l-3.764,1.994h0l-4.965-2.876L51.927,50.9Z" transform="translate(8.14 8.602)" fill="#a8f2f7"/>
      <path id="Trazado_190808" data-name="Trazado 190808" d="M35.4,46.038l-3.764,1.994h0L26.67,45.157l3.763-1.994Z" transform="translate(4.507 7.295)" fill="#5bced6"/>
      <path id="Trazado_190809" data-name="Trazado 190809" d="M41.219,49.462l-3.764,1.994h0L32.488,48.58l3.763-1.994Z" transform="translate(5.491 7.873)" fill="#a8f2f7"/>
      <path id="Trazado_190810" data-name="Trazado 190810" d="M46.829,52.968l-3.764,1.994h0L38.1,52.087l3.763-1.994Z" transform="translate(6.439 8.466)" fill="#a8f2f7"/>
      <path id="Trazado_190811" data-name="Trazado 190811" d="M44.487,65.743l-7.527,3.989L30.71,66.113l-9.931-5.751,7.527-3.99Z" transform="translate(3.512 9.527)" fill="#b3f9fd"/>
      <g id="Grupo_144344" data-name="Grupo 144344" transform="translate(0 0)">
        <g id="Grupo_144343" data-name="Grupo 144343" clip-path="url(#clip-path)">
          <path id="Trazado_190812" data-name="Trazado 190812" d="M57.554,27.787a25.3,25.3,0,0,1,9.168,10.157c.736,1.424.623,2.844-.236,3.2a1.53,1.53,0,0,1-1.328-.2A4.266,4.266,0,0,1,63.6,39.215,16.739,16.739,0,0,0,57.541,32.5c-2.375-1.371-4.614-1.462-6.137-.244a1.386,1.386,0,0,1-1.579-.072,3.948,3.948,0,0,1-1.309-1.3c-.864-1.339-.978-2.89-.247-3.465,2.315-1.839,5.7-1.7,9.285.372" transform="translate(8.076 4.416)" fill="#4dd0e1"/>
          <path id="Trazado_190813" data-name="Trazado 190813" d="M56.672,35.757a8.363,8.363,0,0,1,3.79,6.577c-.006,2.412-1.716,3.375-3.814,2.163a8.36,8.36,0,0,1-3.8-6.559c.007-2.423,1.727-3.391,3.825-2.18" transform="translate(8.931 5.955)" fill="#4dd0e1"/>
          <path id="Trazado_190814" data-name="Trazado 190814" d="M58.323,20.745c5.429,3.134,10.633,8.792,14.295,15.522.756,1.4.692,2.849-.147,3.249a1.481,1.481,0,0,1-1.379-.175A4.2,4.2,0,0,1,69.584,37.7C66.7,32.395,62.6,27.94,58.311,25.465c-4.325-2.5-8.469-2.78-11.366-.756a1.416,1.416,0,0,1-1.529-.1A4.119,4.119,0,0,1,44.037,23.2c-.835-1.355-.89-2.872-.129-3.4,3.679-2.572,8.937-2.222,14.415.94" transform="translate(7.33 3.059)" fill="#4dd0e1"/>
        </g>
      </g>
      <path id="Trazado_190815" data-name="Trazado 190815" d="M4.949,41.14l10.875-6.32-.011,3.928L4.937,45.068Z" transform="translate(0.834 5.885)" fill="#ffa726"/>
      <path id="Trazado_190816" data-name="Trazado 190816" d="M5.6,36.523,16.477,30.2l2.305,1.33L7.907,37.854Z" transform="translate(0.947 5.105)" fill="#faeaba"/>
      <path id="Trazado_190817" data-name="Trazado 190817" d="M12.191,44.506l10.875-6.32-.014,4.878L12.177,49.386Z" transform="translate(2.058 6.454)" fill="#ffa726"/>
      <g id="Grupo_144346" data-name="Grupo 144346" transform="translate(0 0)">
        <g id="Grupo_144345" data-name="Grupo 144345" clip-path="url(#clip-path)">
          <path id="Trazado_190818" data-name="Trazado 190818" d="M7.574,37.662l10.875-6.32a5.286,5.286,0,0,0,1.4.592L8.973,38.254a5.306,5.306,0,0,1-1.4-.593" transform="translate(1.28 5.297)" fill="#faeaba"/>
          <path id="Trazado_190819" data-name="Trazado 190819" d="M5.618,31.5l10.875-6.32-.016,5.875L5.6,37.372Z" transform="translate(0.947 4.255)" fill="#ffa726"/>
          <path id="Trazado_190820" data-name="Trazado 190820" d="M20.664,31.781,9.789,38.1a1.359,1.359,0,0,1-1.018.079l10.875-6.321a1.36,1.36,0,0,0,1.018-.078" transform="translate(1.482 5.371)" fill="#fce7a9"/>
          <path id="Trazado_190821" data-name="Trazado 190821" d="M5.629,26.761,16.5,20.441l1.971,1.137L7.6,27.9Z" transform="translate(0.951 3.455)" fill="#faeaba"/>
          <path id="Trazado_190822" data-name="Trazado 190822" d="M7.315,27.735l10.875-6.32a4.116,4.116,0,0,0,1.735.638L9.05,28.373a4.084,4.084,0,0,1-1.735-.638" transform="translate(1.236 3.62)" fill="#faeaba"/>
          <path id="Trazado_190823" data-name="Trazado 190823" d="M5.644,22.471l10.875-6.32L16.5,21.166,5.63,27.486Z" transform="translate(0.951 2.73)" fill="#ffa726"/>
          <path id="Trazado_190824" data-name="Trazado 190824" d="M.068,14.355l10.875-6.32,1.764,1.017L1.832,15.373Z" transform="translate(0.011 1.358)" fill="#ffa726"/>
          <path id="Trazado_190825" data-name="Trazado 190825" d="M8.8,28.288l10.875-6.32a1.86,1.86,0,0,0,.444-.05L9.243,28.238a1.86,1.86,0,0,1-.444.05" transform="translate(1.487 3.705)" fill="#faeaba"/>
          <path id="Trazado_190826" data-name="Trazado 190826" d="M20.253,21.844,9.378,28.164a.89.89,0,0,1-.2.087l10.875-6.32a.982.982,0,0,0,.2-.087" transform="translate(1.551 3.692)" fill="#f95d86"/>
          <path id="Trazado_190827" data-name="Trazado 190827" d="M12.315,32.668l10.875-6.32v.192L12.315,32.861Z" transform="translate(2.081 4.453)" fill="#f95d86"/>
          <path id="Trazado_190828" data-name="Trazado 190828" d="M25.291,39.125l-10.875,6.32q1.789-1.04,1.8-4.284a11.142,11.142,0,0,0-1-4.752l10.875-6.32a11.138,11.138,0,0,1,1,4.752q-.009,3.246-1.8,4.284" transform="translate(2.436 5.085)" fill="#faeaba"/>
          <path id="Trazado_190829" data-name="Trazado 190829" d="M12.315,32.833l10.875-6.32a12.989,12.989,0,0,1,3.254,4.18l-10.875,6.32a13,13,0,0,0-3.254-4.18" transform="translate(2.081 4.481)" fill="#faeaba"/>
          <path id="Trazado_190830" data-name="Trazado 190830" d="M5.015,17.211l10.875-6.32,2.65,1.529L7.665,18.741Z" transform="translate(0.848 1.841)" fill="#ffa726"/>
          <path id="Trazado_190831" data-name="Trazado 190831" d="M1.586,11.865l10.875-6.32,4.02,2.32L5.606,14.186Z" transform="translate(0.268 0.938)" fill="#ffca28"/>
          <path id="Trazado_190832" data-name="Trazado 190832" d="M5.026,13.85,15.9,7.531l-.011,3.928L5.014,17.778Z" transform="translate(0.847 1.273)" fill="#ffa726"/>
          <path id="Trazado_190833" data-name="Trazado 190833" d="M7.282,18.52,18.157,12.2q.947.545,1.8,1.108L9.085,19.629q-.857-.563-1.8-1.109" transform="translate(1.231 2.062)" fill="#ffa726"/>
          <path id="Trazado_190834" data-name="Trazado 190834" d="M25.418,27.989,14.543,34.31a2.487,2.487,0,0,0,.538-.428,4.677,4.677,0,0,0,1.045-3.41,10.55,10.55,0,0,0-2.359-6.635,17.384,17.384,0,0,0-1.515-1.692l10.875-6.32a17.091,17.091,0,0,1,1.515,1.69A10.554,10.554,0,0,1,27,24.152a4.68,4.68,0,0,1-1.046,3.41,2.459,2.459,0,0,1-.538.428" transform="translate(2.071 2.675)" fill="#faeaba"/>
          <path id="Trazado_190835" data-name="Trazado 190835" d="M8.834,16.05,19.709,9.73l4.01,2.315-10.875,6.32Z" transform="translate(1.493 1.645)" fill="#ffca28"/>
          <path id="Trazado_190836" data-name="Trazado 190836" d="M17.651,39.643a11.138,11.138,0,0,1,1,4.752q-.011,3.821-2.49,4.584a4.578,4.578,0,0,1-1.915.13l-.014,4.879-4.01-2.315.012-3.951c-.267-.143-.542-.29-.818-.449l-3.636-2.1L5.773,49.1l-4.02-2.322.012-3.928L0,41.835.079,13.862l1.764,1.017.011-3.928,4.02,2.32L5.863,17.2l2.65,1.53q.947.545,1.8,1.108l.011-4,4.01,2.315-.013,4.812a17.392,17.392,0,0,1,1.515,1.69A10.55,10.55,0,0,1,18.2,31.3a4.682,4.682,0,0,1-1.046,3.41,2.521,2.521,0,0,1-2.754.565v.192a13,13,0,0,1,3.254,4.182m-7.4,2.056c1.1.264,1.659-.358,1.662-1.818a4.581,4.581,0,0,0-.811-2.623,5.37,5.37,0,0,0-.836-.982,7.73,7.73,0,0,0-1.527-1.119L6.565,33.9l-.016,5.875,2.305,1.33a5.256,5.256,0,0,0,1.4.593M6.6,23.349l-.014,5.015L8.551,29.5a4.1,4.1,0,0,0,1.736.639,1.867,1.867,0,0,0,.444-.05c.513-.157.772-.677.774-1.549A3.834,3.834,0,0,0,10.3,25.816a8.717,8.717,0,0,0-1.87-1.409L6.6,23.349" transform="translate(0 1.851)" fill="#ffca28"/>
          <path id="Trazado_190837" data-name="Trazado 190837" d="M12.266,18.03l10.875-6.32-.013,4.81L12.252,22.842Z" transform="translate(2.071 1.98)" fill="#ffa726"/>
        </g>
      </g>
    </g>
  </g>
</svg>
