<svg id="Grupo_144357" data-name="Grupo 144357" xmlns="http://www.w3.org/2000/svg" xmlns:xlink="http://www.w3.org/1999/xlink" width="117" height="117" viewBox="0 0 117 117">
  <defs>
    <clipPath id="clip-path">
      <rect id="Rectángulo_43575" data-name="Rectángulo 43575" width="40.797" height="62.435" fill="none"/>
    </clipPath>
  </defs>
  <rect id="Rectángulo_43564" data-name="Rectángulo 43564" width="117" height="117" fill="#fff"/>
  <g id="Grupo_144354" data-name="Grupo 144354" transform="translate(38.052 23.912)">
    <rect id="Rectángulo_43574" data-name="Rectángulo 43574" width="40.797" height="38.989" transform="translate(0 23.446)" fill="#4dd0e1"/>
    <g id="Grupo_144353" data-name="Grupo 144353" transform="translate(0 0)">
      <g id="Grupo_144352" data-name="Grupo 144352" clip-path="url(#clip-path)">
        <path id="Trazado_190875" data-name="Trazado 190875" d="M34.915,11.072V23.448H30.006V11.072a5.549,5.549,0,0,0-5.3-5.749H11.743a5.533,5.533,0,0,0-5.3,5.749V23.448H1.532V11.072C1.532,4.977,6.1,0,11.743,0H24.7c5.621,0,10.211,4.977,10.211,11.072" transform="translate(2.175 0)" fill="#aaa"/>
        <path id="Trazado_190876" data-name="Trazado 190876" d="M18.845,19.234a6.515,6.515,0,1,1-6.516-6.516,6.515,6.515,0,0,1,6.516,6.516" transform="translate(8.256 18.054)" fill="#fff"/>
        <path id="Trazado_190877" data-name="Trazado 190877" d="M9.1,17.748,5.815,31.474H18.847L15.571,17.748Z" transform="translate(8.255 25.194)" fill="#fff"/>
      </g>
    </g>
  </g>
</svg>
