<svg xmlns="http://www.w3.org/2000/svg" xmlns:xlink="http://www.w3.org/1999/xlink" width="361.276" height="286.114" viewBox="0 0 361.276 286.114">
  <defs>
    <clipPath id="clip-path">
      <rect id="Rectángulo_43318" data-name="Rectángulo 43318" width="340.461" height="286.114" fill="none"/>
    </clipPath>
    <clipPath id="clip-path-3">
      <path id="Trazado_190171" data-name="Trazado 190171" d="M265.818,33.111s-111.764,65.136-123.272,71.92a2.533,2.533,0,0,0-1.512,1.03,4.4,4.4,0,0,0-1.157,1.834,26.152,26.152,0,0,0-1.525,3.817s-11.25,47.336-11.32,48.033c-.094.924.884,2.217,2.666,2.706a3.858,3.858,0,0,0,3.758-1.247c.365-.522,10.01-44.1,11.3-50.629,6.2-3.378,123.307-71.8,124.731-72.824,1.5-1.077,3.65-2.942,2.261-5.005a2.027,2.027,0,0,0-1.784-.732,12.1,12.1,0,0,0-4.146,1.1" transform="translate(-127.026 -32.014)" fill="none"/>
    </clipPath>
    <clipPath id="clip-path-5">
      <path id="Trazado_190178" data-name="Trazado 190178" d="M232.93,27c-6.4,2.193-44.394,61.378-44.718,62.675-.244.974-88.776,49.94-136.715,78.354-15.937,9.446-28.314,16.956-30.455,19.421-3.173,3.657-2.054,9.126.836,15.461,1.541,3.378,10.7,8.2,23.992,16.242C62,228.921,82.512,241.021,95.015,247.625c5.305,2.8,7.525,4.938,15.463,3.761,6.28-.933,8.022-1.832,20.153-8.566,44.753-24.85,143.332-83.548,143.674-84.2.434-.82,46.787-59.215,48.062-63.511,1.633-5.513,1.023-16.2-.419-19.22C319.714,71.21,244.6,26.9,233.683,26.9a2.355,2.355,0,0,0-.753.1" transform="translate(-19.129 -26.902)" fill="none"/>
    </clipPath>
    <clipPath id="clip-path-7">
      <path id="Trazado_190182" data-name="Trazado 190182" d="M311.244,38.922c-2.358,1.239-10.468,10.444-23.5,24.8a37.1,37.1,0,0,0-9.231,31.105s-2.737,4.474-1.258,7.985,5.874.42,5.874.42,3.727,5.636,18.883,17.234,42.38,20.176,42.38,20.176,4.478,6.384,7.133,6.3,3.358-8.406,3.358-8.406,9.53-2.19,24.756-23.118C392.22,98.13,390.55,88.1,390.55,88.1s7.106-3.419,7.972-5.464-7.133-6.305-7.133-6.305S375.245,58,357.82,49.011c-12.99-6.7-27.579-11.356-35.247-12.191-1.2-.13-4.228-2.437-5.454-2.522-.095-.006-.188-.009-.278-.009-2.963,0-3.309,3.431-5.6,4.633" transform="translate(-276.818 -34.289)" fill="none"/>
    </clipPath>
    <clipPath id="clip-path-9">
      <path id="Trazado_190186" data-name="Trazado 190186" d="M351.156,41.52c-3.146.761-2.686,6.928-2.686,6.928s-.915-2.287-5.455-3.363c-7.974-1.888-23,1.979-25.6,7.566-4.944,10.621,8.392,11.769,8.392,11.769l11.33,6.305.839,6.3s10.03,4.318,14.266-2.1c5.291-8.016,2.938-13.451,2.938-13.451s10.294.8,10.07-9.246c-.193-8.695-3.593-11.471-8.69-11.471a23.4,23.4,0,0,0-5.407.76" transform="translate(-316.319 -40.76)" fill="none"/>
    </clipPath>
    <clipPath id="clip-path-11">
      <path id="Trazado_190195" data-name="Trazado 190195" d="M186.977,112.215c-4.553,1.156-17.645,3.906-30.631,10.508-1.654.841-2.456,4.646-2.833,4.882-20.21,12.634-45.609,24.683-58.431,32.948-22.129,14.267-71.267,27.842-72.172,39.512-.692,8.934.687,11.614,5.455,15.552s83.256,43.294,86.019,46.657c3.185,3.877.637,22.068,7.133,21.436,5.455-.53,84.974-45.09,122.525-68.093.2-.124.646.164,1.329.45a5.653,5.653,0,0,0,5.385-.45c13.915-7.952,21-11.767,21.819-13.03,3.455-5.339-2.019-20.011-4.225-28.7-3.644-14.346-2.877-19.576-18.014-30.571-16.011-11.629-51.4-31.254-61.969-31.254a5.68,5.68,0,0,0-1.391.15" transform="translate(-22.743 -112.065)" fill="none"/>
    </clipPath>
    <clipPath id="clip-path-13">
      <path id="Trazado_190198" data-name="Trazado 190198" d="M271.053,149.669c.191.352,1.277.687,2.032,1.33a14.611,14.611,0,0,1,2.1,2.3,18.316,18.316,0,0,0-7-2.95c-1.923-.259-4.243.347-5.32.359s-2.763,1.848-.837,2.012c1.257.106,4.419.46,6.463.692,1.107.1,1.857.213,1.857.213s-.77-.09-1.857-.213c-2.7-.241-7.511-.392-8.751,1.418-1.747,2.553,1.135,4.559,3.745,5.125a50.558,50.558,0,0,1,5.451,1.588s-6.343-1.38-6.8-.03c-.4,1.16,3.937,2.115,6.483,2.5s5.08,2.707,7.483,2.917,6.005,3.587,7.45,2.43,3.082-4.76,2.511-6.037-3.578-3.343-4.68-4.574-1.733-6.749-4.931-8.605a9.494,9.494,0,0,0-4.357-1.451c-.923,0-1.373.359-1.037.975" transform="translate(-259.204 -148.694)" fill="none"/>
    </clipPath>
    <clipPath id="clip-path-14">
      <rect id="Rectángulo_43310" data-name="Rectángulo 43310" width="26.967" height="25.292" fill="none"/>
    </clipPath>
    <clipPath id="clip-path-16">
      <path id="Trazado_190201" data-name="Trazado 190201" d="M336.313,122.257c-5.379,2.273-9.9,6.626-10.49,11.769S320.677,154.953,310.3,154.2c-6.371-.46-6.759-2.126-11.33-2.522a6.677,6.677,0,0,0-2.781.423,4.049,4.049,0,0,1-1.834.418c-1.342-.322-2.216-1.484-2.938-1.261-3.4,1.049-5.93,6.115-4.616,8.827a24.745,24.745,0,0,0,2.847,3.058,18.19,18.19,0,0,0,3.446,4.088c8.669,7.02,29.552,19.444,45.738,2.942,10.952-11.166,8.743-24.9,7.553-31.524-1.09-6.063-4.119-16.674-8.751-16.675a3.367,3.367,0,0,0-1.32.282" transform="translate(-286.447 -121.975)" fill="none"/>
    </clipPath>
    <clipPath id="clip-path-18">
      <path id="Trazado_190205" data-name="Trazado 190205" d="M294.668,103.866c-4.822.18-18.125,5.437-27.694,7.985s-36.119,9.781-36.924,17.234.686,15.67,6.713,15.132,17.426-7.416,26.016-12.609,20.142-14.291,20.142-14.291,16.35-13.45,11.841-13.451h-.093" transform="translate(-229.847 -103.865)" fill="none"/>
    </clipPath>
    <clipPath id="clip-path-20">
      <path id="Trazado_190210" data-name="Trazado 190210" d="M328.556,58.445c-8.964,5.79-8.6,21.845-6.294,26.481,1.624,3.267,8.812,2.942,8.812,2.942s.119,5.431.839,5.885c1.6,1.01,6.23-1.175,6.713-2.522s-.839-5.884-.839-5.884,2.062-1.817,3.357-2.943a13.618,13.618,0,0,0,1.678-1.682s5.005.009,5.875-4.623-4.2-4.624-4.2-4.624-4.281-14.365-11.87-14.366a7.474,7.474,0,0,0-4.075,1.336" transform="translate(-320.872 -57.109)" fill="none"/>
    </clipPath>
    <clipPath id="clip-path-21">
      <rect id="Rectángulo_43314" data-name="Rectángulo 43314" width="28.307" height="41.43" fill="none"/>
    </clipPath>
    <clipPath id="clip-path-23">
      <path id="Trazado_190213" data-name="Trazado 190213" d="M227.938,145.726c-1.643,1.633-1.9,1.876-3.356,3.362-2,2.042-3.986,3.175-5.875,6.305-1.254,2.079-2.708,6.663-.839,7.565,1.3.629,3.356-6.725,3.356-6.725s-.953,4.052-.419,5.884.907,5.634,3.356,6.305c1.3.355,1.46-3.236,2.1-5.885a10.758,10.758,0,0,1,1.678-3.782,14.409,14.409,0,0,0-.419,8.407c.426,2.323,2.264,1.815,2.518-.841s2.016-9.571,2.518-8.407c.18.418.583,1.923.839,2.942.656,2.605.489,4.3,1.259,4.624,1.391.582,1.579-2.824,1.679-3.783.672-6.5-.764-7.4-.84-9.248-.044-1.08,2.518-2.522,2.518-2.522s1.509-3.747-.839-6.305a3.221,3.221,0,0,0-2.479-.988c-2.5,0-5.565,1.909-6.752,3.09" transform="translate(-216.975 -142.636)" fill="none"/>
    </clipPath>
    <clipPath id="clip-path-24">
      <rect id="Rectángulo_43316" data-name="Rectángulo 43316" width="30.853" height="33.347" fill="none"/>
    </clipPath>
    <clipPath id="clip-path-26">
      <path id="Trazado_190216" data-name="Trazado 190216" d="M393.342,128.9s-111.763,65.136-123.27,71.92a2.53,2.53,0,0,0-1.513,1.03,4.423,4.423,0,0,0-1.157,1.834,26.148,26.148,0,0,0-1.525,3.817s-11.25,47.336-11.32,48.033c-.095.924.885,2.217,2.666,2.706a3.86,3.86,0,0,0,3.758-1.247c.363-.523,10.008-44.1,11.3-50.629,6.2-3.378,123.306-71.8,124.729-72.824,1.5-1.076,3.652-2.942,2.261-5a2.025,2.025,0,0,0-1.784-.732,12.11,12.11,0,0,0-4.147,1.1" transform="translate(-254.551 -127.802)" fill="none"/>
    </clipPath>
    <clipPath id="clip-path-27">
      <rect id="Rectángulo_42700" data-name="Rectángulo 42700" width="33.502" height="41.016" fill="#ffca28"/>
    </clipPath>
    <clipPath id="clip-path-28">
      <rect id="Rectángulo_43319" data-name="Rectángulo 43319" width="33.542" height="44.423" fill="none"/>
    </clipPath>
    <clipPath id="clip-path-29">
      <rect id="Rectángulo_43320" data-name="Rectángulo 43320" width="17.797" height="44.424" fill="#ffca28"/>
    </clipPath>
    <clipPath id="clip-path-30">
      <rect id="Rectángulo_43321" data-name="Rectángulo 43321" width="71.339" height="40.623" fill="#4dd0e1"/>
    </clipPath>
    <clipPath id="clip-path-31">
      <rect id="Rectángulo_43322" data-name="Rectángulo 43322" width="28.175" height="32.298" fill="none"/>
    </clipPath>
  </defs>
  <g id="Grupo_143899" data-name="Grupo 143899" transform="translate(-315.882 -4887.386)">
    <g id="Grupo_143875" data-name="Grupo 143875" transform="translate(324.9 4887.386)">
      <g id="Grupo_143874" data-name="Grupo 143874" clip-path="url(#clip-path)">
        <g id="Grupo_143822" data-name="Grupo 143822">
          <g id="Grupo_143821" data-name="Grupo 143821" clip-path="url(#clip-path)">
            <path id="Trazado_190156" data-name="Trazado 190156" d="M57.236,336.626a6.51,6.51,0,0,0-6.78,6.3,6.648,6.648,0,0,0,6.78,6.415,6.51,6.51,0,0,0,6.779-6.3,6.645,6.645,0,0,0-6.779-6.414" transform="translate(-16.492 -110.029)" fill="#31034a" fill-rule="evenodd"/>
            <path id="Trazado_190157" data-name="Trazado 190157" d="M64.216,344.233A1.792,1.792,0,0,0,62.381,346a1.833,1.833,0,0,0,1.835,1.8,1.793,1.793,0,0,0,1.835-1.772,1.831,1.831,0,0,0-1.835-1.8" transform="translate(-20.39 -112.516)" fill="#68395a" fill-rule="evenodd"/>
            <path id="Trazado_190158" data-name="Trazado 190158" d="M174.065,406.157a6.512,6.512,0,0,0-6.78,6.3,6.649,6.649,0,0,0,6.78,6.415,6.51,6.51,0,0,0,6.779-6.3,6.647,6.647,0,0,0-6.779-6.414" transform="translate(-54.679 -132.756)" fill="#31034a" fill-rule="evenodd"/>
            <path id="Trazado_190159" data-name="Trazado 190159" d="M181.045,413.764a1.792,1.792,0,0,0-1.834,1.772,1.831,1.831,0,0,0,1.834,1.8,1.792,1.792,0,0,0,1.836-1.772,1.832,1.832,0,0,0-1.836-1.8" transform="translate(-58.577 -135.243)" fill="#68395a" fill-rule="evenodd"/>
            <path id="Trazado_190160" data-name="Trazado 190160" d="M49.221,342.425c.914.981,5.125,2.993,5.85,2.507s.958-5.152,4.18-5.85c4.456-.966,4.943,3.8,5.434,3.343s-.4-6.005-5.434-6.686-5.259-.09-7.94,1.672c-1.812,1.191-2.555,4.514-2.089,5.014" transform="translate(-16.044 -109.65)" fill="#9cabd0" fill-rule="evenodd"/>
            <path id="Trazado_190161" data-name="Trazado 190161" d="M165.862,411.016c.914.982,5.126,2.993,5.851,2.508s.957-5.152,4.18-5.851c4.455-.965,4.942,3.8,5.433,3.343s-.4-6-5.433-6.684-5.26-.091-7.94,1.67c-1.812,1.191-2.555,4.515-2.09,5.014" transform="translate(-54.169 -132.07)" fill="#9cabd0" fill-rule="evenodd"/>
            <path id="Trazado_190162" data-name="Trazado 190162" d="M409.264,274.3a6.508,6.508,0,0,0-6.778,6.3,6.646,6.646,0,0,0,6.778,6.415,6.51,6.51,0,0,0,6.779-6.3,6.646,6.646,0,0,0-6.779-6.414" transform="translate(-131.556 -89.657)" fill="#31034a" fill-rule="evenodd"/>
            <path id="Trazado_190163" data-name="Trazado 190163" d="M416.245,281.907a1.793,1.793,0,0,0-1.836,1.771,1.832,1.832,0,0,0,1.836,1.8,1.793,1.793,0,0,0,1.835-1.771,1.83,1.83,0,0,0-1.835-1.8" transform="translate(-135.454 -92.144)" fill="#68395a" fill-rule="evenodd"/>
            <path id="Trazado_190164" data-name="Trazado 190164" d="M401.062,279.157c.915.982,5.125,2.993,5.85,2.507s.957-5.151,4.18-5.85c4.455-.966,4.943,3.8,5.434,3.342s-.4-6-5.434-6.686-5.26-.09-7.94,1.671c-1.813,1.192-2.556,4.515-2.089,5.014" transform="translate(-131.046 -88.97)" fill="#9cabd0" fill-rule="evenodd"/>
            <path id="Trazado_190165" data-name="Trazado 190165" d="M411.481,227.342a3.787,3.787,0,0,1-3.327,2.048c-1.815-.081-3.032-1.126-3.144-2.048-.083-.695.04-91.4.04-91.4s.515-2.979,2.951-3.073c2.735-.106,3.315,1.5,3.5,2.56.184,1.025.228,91.282-.024,91.913" transform="translate(-132.372 -43.428)" fill="#9cabd0" fill-rule="evenodd"/>
            <path id="Trazado_190166" data-name="Trazado 190166" d="M177.445,359.058a3.785,3.785,0,0,1-3.327,2.048c-1.815-.081-3.033-1.126-3.144-2.048-.083-.7.04-91.4.04-91.4s.515-2.978,2.952-3.073c2.734-.107,3.315,1.5,3.5,2.56.184,1.025.229,91.281-.024,91.913" transform="translate(-55.875 -86.48)" fill="#9cabd0" fill-rule="evenodd"/>
            <path id="Trazado_190167" data-name="Trazado 190167" d="M60.993,320.891a3.787,3.787,0,0,1-3.327,2.049c-1.815-.081-3.032-1.127-3.144-2.049-.083-.695.041-30.3.041-30.3s.514-2.977,2.95-3.072c2.736-.106,3.315,1.5,3.5,2.561.184,1.026.228,30.177-.024,30.809" transform="translate(-17.811 -93.978)" fill="#9cabd0" fill-rule="evenodd"/>
            <path id="Trazado_190168" data-name="Trazado 190168" d="M178.062,331.95c-1.181.389-4.326.7-5.084-.91-.773-1.645.362-3.7,1.845-4.686,1.116-.738,154.533-88.822,154.533-88.822s3.23-1.337,4.608.678c1.546,2.263-.845,4.309-2.518,5.489-1.621,1.144-152.2,87.861-153.384,88.251" transform="translate(-56.458 -77.497)" fill="#9cabd0" fill-rule="evenodd"/>
            <path id="Trazado_190169" data-name="Trazado 190169" d="M271.749,32.746c-1.239-1.838-5.931.364-5.931.364s-111.763,65.136-123.271,71.92a2.532,2.532,0,0,0-1.512,1.03,4.408,4.408,0,0,0-1.157,1.834,26.152,26.152,0,0,0-1.525,3.817s-11.25,47.336-11.32,48.033c-.095.924.883,2.217,2.666,2.707a3.859,3.859,0,0,0,3.757-1.247c.365-.522,10.01-44.1,11.3-50.629,6.2-3.378,123.307-71.805,124.73-72.824,1.5-1.077,3.65-2.942,2.261-5.005" transform="translate(-41.52 -10.464)" fill="#9cabd0" fill-rule="evenodd"/>
          </g>
        </g>
        <g id="Grupo_143824" data-name="Grupo 143824" transform="translate(85.506 21.55)">
          <g id="Grupo_143823" data-name="Grupo 143823" clip-path="url(#clip-path-3)">
            <path id="Trazado_190170" data-name="Trazado 190170" d="M153.848,92.511a6.489,6.489,0,0,1,4.034,6.828L292.641,35.648s7.609-25.3,4.946-27.968,9.323-8.562-7.992-5.9-10.274-8.373-32.155,4.947S152.618,86.4,153.848,92.511" transform="translate(-135.789 -21.55)" fill="#635c78" fill-rule="evenodd"/>
          </g>
        </g>
        <g id="Grupo_143826" data-name="Grupo 143826">
          <g id="Grupo_143825" data-name="Grupo 143825" clip-path="url(#clip-path)">
            <path id="Trazado_190172" data-name="Trazado 190172" d="M274.342,170.889c-.342.647-98.938,59.343-143.7,84.19-12.133,6.734-13.876,7.633-20.157,8.566-7.938,1.178-10.159-.959-15.466-3.759-12.5-6.6-33.022-18.7-49.153-28.466-13.29-8.044-22.455-12.865-23.995-16.242-2.89-6.335-4.012-11.8-.837-15.46,2.142-2.464,14.52-9.975,30.459-19.42,47.949-28.411,136.5-77.376,136.74-78.349.324-1.3,38.329-60.48,44.725-62.673,7.493-2.568,86.739,44.077,89.034,48.885,1.441,3.021,2.051,13.707.417,19.22-1.273,4.3-47.635,62.688-48.07,63.508" transform="translate(-6.25 -12.804)" fill="#9cabd0" fill-rule="evenodd"/>
            <path id="Trazado_190173" data-name="Trazado 190173" d="M274.06,167.781c-.342.647-98.938,59.343-143.7,84.19-12.132,6.735-13.875,7.634-20.157,8.566-7.938,1.178-10.159-.958-15.466-3.759-12.5-6.606-33.022-18.7-49.153-28.466-13.29-8.043-22.455-12.866-24-16.242-2.89-6.334-4.011-11.8-.836-15.46,2.141-2.464,14.52-9.975,30.459-19.421,47.949-28.411,136.5-77.374,136.74-78.348.324-1.3,38.329-60.481,44.725-62.673,7.493-2.569,86.738,44.076,89.032,48.884,1.443,3.022,2.052,13.708.418,19.22-1.274,4.3-47.635,62.688-48.069,63.508" transform="translate(-6.158 -11.789)" fill="#b7bff2" fill-rule="evenodd"/>
            <path id="Trazado_190174" data-name="Trazado 190174" d="M273.464,161.544c-.341.647-98.937,59.343-143.7,84.19-12.132,6.734-13.875,7.633-20.156,8.566-7.938,1.178-10.159-.959-15.465-3.76-12.5-6.6-33.023-18.7-49.154-28.466-13.29-8.044-22.455-12.864-24-16.242-2.89-6.335-4.011-11.8-.837-15.46,2.142-2.464,14.52-9.975,30.46-19.419,47.948-28.413,136.5-77.375,136.74-78.349.324-1.3,38.329-60.481,44.725-62.673,7.493-2.568,86.738,44.077,89.034,48.885,1.441,3.02,2.051,13.707.417,19.22-1.273,4.3-47.635,62.688-48.07,63.507" transform="translate(-5.963 -9.75)" fill="#454a7e" fill-rule="evenodd"/>
            <path id="Trazado_190175" data-name="Trazado 190175" d="M274.3,158.624c-.343.647-98.921,59.346-143.674,84.2-12.13,6.734-13.872,7.633-20.152,8.566-7.938,1.178-10.158-.959-15.463-3.76-12.5-6.6-33.018-18.7-49.145-28.467-13.288-8.045-22.451-12.864-23.992-16.242-2.89-6.335-4.009-11.8-.836-15.461,2.141-2.465,14.517-9.975,30.455-19.421,47.939-28.413,136.471-77.381,136.715-78.354.324-1.3,38.323-60.482,44.718-62.675,7.492-2.571,86.723,44.077,89.018,48.887,1.441,3.02,2.052,13.706.418,19.22-1.274,4.3-47.627,62.692-48.061,63.512" transform="translate(-6.252 -8.793)" fill="#29bcde" fill-rule="evenodd"/>
          </g>
        </g>
        <g id="Grupo_143828" data-name="Grupo 143828" transform="translate(12.876 18.109)">
          <g id="Grupo_143827" data-name="Grupo 143827" clip-path="url(#clip-path-5)">
            <path id="Trazado_190176" data-name="Trazado 190176" d="M268.936,87.778c-.338,2.328,80.5,60.536,82.33,59.335s57.5-73.623,57.674-79.391c.112-3.683-88.161-49.216-94.87-46.38s-44.8,64.109-45.135,66.436" transform="translate(-100.781 -25.043)" fill="#2dcbec" fill-rule="evenodd"/>
            <path id="Trazado_190177" data-name="Trazado 190177" d="M317.056,88.273s1.086,2.3-12.955,22.564c-5.43,7.837-42.873,55.333-43.464,56.409-1.156,2.1-76.8,44.046-123.686,69.03-20.444,10.892-22.753,15.663-36.38,15.375-7.848-.168-18.9-7.378-37.863-18.291-23.163-13.332-46.329-24.466-46.385-32.093-.031-3.982-17.056,12.6-16.3,14.207S10.3,253.738,10.3,253.738s97.837,26.88,99.048,27.161c15.8,3.658,137.515-59.271,191.827-128.278C329.394,116.766,340.461,84.1,340.461,84.1Z" transform="translate(-12.876 -45.596)" fill="#1e93b4" fill-rule="evenodd"/>
          </g>
        </g>
        <g id="Grupo_143830" data-name="Grupo 143830">
          <g id="Grupo_143829" data-name="Grupo 143829" clip-path="url(#clip-path)">
            <path id="Trazado_190179" data-name="Trazado 190179" d="M277.256,102.813c-1.479-3.512,1.258-7.987,1.258-7.987a37.1,37.1,0,0,1,9.231-31.1c13.03-14.355,21.14-23.561,23.5-24.8s2.653-4.844,5.875-4.624c1.226.084,4.256,2.392,5.454,2.522,7.668.835,22.257,5.489,35.247,12.191C375.244,58,391.389,76.332,391.389,76.332s8,4.259,7.133,6.3S390.55,88.1,390.55,88.1s1.67,10.03-10.91,27.321c-15.227,20.929-24.757,23.118-24.757,23.118s-.7,8.327-3.357,8.407-7.133-6.305-7.133-6.305-27.224-8.577-42.38-20.175-18.882-17.234-18.882-17.234-4.4,3.092-5.875-.42" transform="translate(-90.481 -11.208)" fill="#e6f6fe" fill-rule="evenodd"/>
            <path id="Trazado_190180" data-name="Trazado 190180" d="M363.037,132.627s5.623-17.993-3.776-31.945c-4.635-6.879-11.416-11.18-11.749-11.769s0-3.362,0-3.362,10.954,2,15.106-4.2C366.789,75.11,365.974,70,365.974,70s2.951,2.516,5.036-1.681,4.814-9.742,2.1-11.349-13.007-.42-13.007-.42L344.993,67.056,338.28,80.507V95.218s13.867,21.513,13.847,22.278,10.91,15.132,10.91,15.132" transform="translate(-110.57 -18.345)" fill="#beccf8" fill-rule="evenodd"/>
          </g>
        </g>
        <g id="Grupo_143832" data-name="Grupo 143832" transform="translate(186.337 23.081)">
          <g id="Grupo_143831" data-name="Grupo 143831" clip-path="url(#clip-path-7)">
            <path id="Trazado_190181" data-name="Trazado 190181" d="M393.375,99.695s-2.781,3.228-6.295,2.942a12.054,12.054,0,0,1-5.874-2.1,66.873,66.873,0,0,1-10.071,20.6c-7.349,9.971-25.6,28.582-25.6,28.582s-1.443-1.109-5.874-6.305c-2.131-2.5-2.015-5.065-2.1-7.565-.23-6.956-2.518-10.088-2.518-10.088s-27.835,6.29-40.282-2.1c-3.467-2.336-5.185-7.528-7.973-9.248-15.754-9.715-15.106-20.6-15.106-20.6s-14.907,15.7-14.687,17.233,7.973,37.83,7.973,37.83L348.9,197.21l58.325-52.121Z" transform="translate(-270.34 -53.744)" fill="#beccf8" fill-rule="evenodd"/>
          </g>
        </g>
        <g id="Grupo_143834" data-name="Grupo 143834">
          <g id="Grupo_143833" data-name="Grupo 143833" clip-path="url(#clip-path)">
            <path id="Trazado_190183" data-name="Trazado 190183" d="M337.979,77.03s10.03,4.317,14.266-2.1c5.291-8.016,2.938-13.451,2.938-13.451s10.294.8,10.07-9.248c-.255-11.5-6.118-12.644-14.1-10.711-3.146.762-2.687,6.929-2.687,6.929s-.915-2.287-5.455-3.363c-7.973-1.889-23,1.979-25.6,7.566-4.945,10.621,8.392,11.769,8.392,11.769l11.33,6.305Z" transform="translate(-103.392 -13.323)" fill="#9391b9" fill-rule="evenodd"/>
          </g>
        </g>
        <g id="Grupo_143836" data-name="Grupo 143836" transform="translate(212.927 27.437)">
          <g id="Grupo_143835" data-name="Grupo 143835" clip-path="url(#clip-path-9)">
            <path id="Trazado_190184" data-name="Trazado 190184" d="M324.119,70.078s-.236-.076-.619-.228c-1.868-.736-5.975-2.608-5.145-6.826.769-3.9,2.566-6.887,7.044-7.7,4.944-.893,9.588-.7,13.448,3.848a26.161,26.161,0,0,1,5.763,12.185l-5.763,4.489Z" transform="translate(-316.949 -45.384)" fill="#636494" fill-rule="evenodd"/>
            <path id="Trazado_190185" data-name="Trazado 190185" d="M349.125,70.724s2.968-5.953,4.482-5.772,5.435.437,5.123,3.207-3.2,5.771-3.2,5.771,5.8-1.1,7.043-6.413c1.26-5.366,1.039-9.58,0-11.543s-3.842-7.055-3.842-7.055,1.3-.3,3.2,3.207,3.2,4.489,3.2,4.489,3.928.529,7.045-3.848c1.785-2.507,2.8-8.265-.641-12.184s-5.764-3.848-5.764-3.848,12.469-.555,12.809.641,3.6,16.056,3.2,16.674-1.921,19.88-1.921,19.88S364.235,87.442,363.214,87.4s-17.931-8.337-17.931-8.337Z" transform="translate(-325.786 -39.402)" fill="#636494" fill-rule="evenodd"/>
          </g>
        </g>
        <g id="Grupo_143838" data-name="Grupo 143838">
          <g id="Grupo_143837" data-name="Grupo 143837" clip-path="url(#clip-path)">
            <path id="Trazado_190187" data-name="Trazado 190187" d="M315.155,165.584c4.157-3.9,27-34.8,20.56-46.236s-15.985-17.77-24.757-16.392-17.776,8.436-23.5,19.756S266.224,139.852,269,146.669s17.308,25.079,26.016,26.061,15.984-3.24,20.141-7.146" transform="translate(-87.817 -33.591)" fill="#ffca28" fill-rule="evenodd"/>
            <path id="Trazado_190188" data-name="Trazado 190188" d="M268.351,173.89c-3.644-14.346-2.876-19.577-18.013-30.571-16.81-12.209-54.981-33.233-63.361-31.1-4.552,1.156-17.645,3.906-30.631,10.508-1.654.841-2.456,4.647-2.833,4.882-20.21,12.634-45.609,24.683-58.43,32.948-22.129,14.266-71.267,27.842-72.172,39.511-.693,8.934.686,11.614,5.454,15.552s83.257,43.294,86.02,46.657c3.185,3.877.637,22.068,7.133,21.437,5.456-.531,84.974-45.091,122.526-68.094.538-.329,2.781,2.247,6.713,0,13.915-7.951,21-11.766,21.819-13.03,3.455-5.339-2.019-20.011-4.225-28.7" transform="translate(-7.434 -36.63)" fill="#1c72bc" fill-rule="evenodd"/>
          </g>
        </g>
        <g id="Grupo_143840" data-name="Grupo 143840" transform="translate(15.309 75.435)">
          <g id="Grupo_143839" data-name="Grupo 143839" clip-path="url(#clip-path-11)">
            <path id="Trazado_190189" data-name="Trazado 190189" d="M304.106,187.038s-10.882,2.864-18.044-1.261-20.218-15.426-22.239-17.654-5.872-3.978-8.392-5.044a28.481,28.481,0,0,1-5.035-2.942h6.714s-8.41-.371-8.811-2.1a15.357,15.357,0,0,1-.42-2.942l5.455-2.522s-4.551-.318-4.2-1.261.145,1.5-4.2,3.362-10.07,0-10.07,0l1.259,1.682s.617,9.483-.419,8.827-2.938-4.624-2.938-4.624-.47,5.372-1.678,6.725-4.312,3.3-6.294.841-6.193-3.759-5.455-6.305,6.295-9.247,6.295-9.247l9.651-8.826,9.231,2.1,3.777,4.2,7.552,1.261,10.071,7.986,4.616,6.725,14.687,7.146Z" transform="translate(-86.976 -122.42)" fill="#1462ac" fill-rule="evenodd"/>
            <path id="Trazado_190190" data-name="Trazado 190190" d="M240.284,218.051s-2.24,6.358-9.651,11.348-108.827,63.553-113.714,60.527c-7.252-4.489-22.146-14.926-49.932-26.9s-44.725-22.218-47.835-25.64-9.787-1.287-10.49.841S13.277,256.3,13.277,256.3l38.6,61.368,55.808,21.437,80.563-15.973,65.039-67.252Z" transform="translate(-18.119 -146.708)" fill="#1462ac" fill-rule="evenodd"/>
            <path id="Trazado_190191" data-name="Trazado 190191" d="M334.4,196.524s-15.672,9.293-20.98,12.609-9.7,10.621-10.49,5.045,1.125-33.549-11.33-43.294-35.322-31.358-49.514-39.511c-18.227-10.471-30.228-9.75-34.828-9.667s-3.041-14.524-1.258-15.132S251.317,92.7,251.317,92.7l69.235,33.627,33.568,56.744Z" transform="translate(-82.065 -105.736)" fill="#e6f6fe" fill-rule="evenodd"/>
            <path id="Trazado_190192" data-name="Trazado 190192" d="M272.495,145.4a47.154,47.154,0,0,1,5.875-5.045c4.183-3.177,6.719-6.488,10.91-11.348,1.665-1.933,5.035-6.725,5.035-6.725s-14.642,3.421-15.525,3.783-13.428,10.508-13.428,10.508l-2.518,3.362Z" transform="translate(-101.222 -115.405)" fill="#bdcef9" fill-rule="evenodd"/>
            <path id="Trazado_190193" data-name="Trazado 190193" d="M328.393,186.208l4.2-2.1s10.575,3.055,15.106-3.363,8.812-21.437,8.812-21.437c.322-2.258,5.518,2.719,3.356,17.234-1.519,10.2-8.521,16.511-14.686,18.495-2.13.685-11.538-3.255-12.588-4.2s-4.2-4.623-4.2-4.623" transform="translate(-122.648 -127.336)" fill="#bdcef9" fill-rule="evenodd"/>
            <path id="Trazado_190194" data-name="Trazado 190194" d="M243.729,137.741c-13.108-4.437-19.1-14.326-28.222-5.269a9.209,9.209,0,0,0-.869,1c6.066.149,16.538,1.47,30.848,9.691,14.192,8.153,37.06,29.766,49.514,39.511,10.847,8.486,10.79,30.8,11.121,40.1a8.815,8.815,0,0,0,4.52.2s.37-29.78-11.33-42.453c-11.306-12.247-43.958-38.841-55.582-42.775" transform="translate(-85.466 -117.527)" fill="#bdcef9" fill-rule="evenodd"/>
          </g>
        </g>
        <g id="Grupo_143842" data-name="Grupo 143842">
          <g id="Grupo_143841" data-name="Grupo 143841" clip-path="url(#clip-path)">
            <path id="Trazado_190196" data-name="Trazado 190196" d="M283.547,169.361c1.445-1.157,3.081-4.76,2.51-6.037s-3.577-3.342-4.68-4.574-1.733-6.749-4.931-8.605c-3.331-1.933-6.1-1.771-5.394-.476.191.353,1.277.687,2.032,1.33a14.59,14.59,0,0,1,2.1,2.3,18.317,18.317,0,0,0-7-2.95c-1.923-.259-4.243.347-5.32.359s-2.763,1.848-.837,2.012,8.321.9,8.321.9-8.859-1.347-10.608,1.206,1.134,4.559,3.745,5.125a50.506,50.506,0,0,1,5.451,1.588s-6.343-1.38-6.8-.03c-.4,1.16,3.937,2.114,6.483,2.5s5.079,2.707,7.484,2.917,6.005,3.587,7.45,2.43" transform="translate(-84.723 -48.602)" fill="#eda88a" fill-rule="evenodd"/>
          </g>
        </g>
        <g id="Grupo_143847" data-name="Grupo 143847" transform="translate(174.481 100.092)">
          <g id="Grupo_143846" data-name="Grupo 143846" clip-path="url(#clip-path-13)">
            <g id="Grupo_143845" data-name="Grupo 143845" transform="translate(-6.274 -2.53)" opacity="0.7">
              <g id="Grupo_143844" data-name="Grupo 143844">
                <g id="Grupo_143843" data-name="Grupo 143843" clip-path="url(#clip-path-14)">
                  <path id="Trazado_190197" data-name="Trazado 190197" d="M267.281,145.806a13.95,13.95,0,0,0,2.61,2.613A8.807,8.807,0,0,1,272.5,151.9l-3.479-1.742s-5.592-2.9-6.959-2.612-6.424,2.079-4.349,2.612,4.318.273,5.8.582a2.287,2.287,0,0,1,2.024,2.031s-6.972-1.482-8.7-.87-2.967,1.644-1.74,1.741a43.233,43.233,0,0,1,4.572.947s-4.634.129-4.572.795c.118,1.279,1.29,1.031,4.349,1.742a16.744,16.744,0,0,1,5.987,3.234s-8.586-1.6-9.466-1.493c-1.226.145.238,1.136,2.61,1.742s8.562,1.329,10.438,1.741a20.067,20.067,0,0,1,6.089,2.613l1.74,2.612s-13.369,3.012-13.918,2.612-11.309-9.579-11.309-9.579l-1.74-9.579,4.35-6.1Z" transform="translate(-249.883 -144.935)" fill="#c65456" fill-rule="evenodd"/>
                </g>
              </g>
            </g>
          </g>
        </g>
        <g id="Grupo_143849" data-name="Grupo 143849">
          <g id="Grupo_143848" data-name="Grupo 143848" clip-path="url(#clip-path)">
            <path id="Trazado_190199" data-name="Trazado 190199" d="M346.385,138.65c-1.191-6.622-4.692-18.666-10.071-16.393s-9.9,6.626-10.49,11.769S320.677,154.953,310.3,154.2c-6.371-.46-6.76-2.126-11.33-2.522-2.2-.191-3.728,1.054-4.615.841-1.342-.322-2.215-1.484-2.937-1.261-3.4,1.049-5.931,6.115-4.616,8.828a24.717,24.717,0,0,0,2.848,3.057,18.117,18.117,0,0,0,3.446,4.088c8.669,7.021,29.551,19.444,45.737,2.942,10.953-11.166,8.743-24.9,7.553-31.525" transform="translate(-93.628 -39.869)" fill="#ffca28" fill-rule="evenodd"/>
          </g>
        </g>
        <g id="Grupo_143851" data-name="Grupo 143851" transform="translate(192.819 82.106)">
          <g id="Grupo_143850" data-name="Grupo 143850" clip-path="url(#clip-path-16)">
            <path id="Trazado_190200" data-name="Trazado 190200" d="M339.915,125s7.631,22.134-2.518,34.888c-7.823,9.831-16.575,14.711-28.534,11.349s-17.037-5.062-18.044-6.305c-2.15-2.658,0-8.407,0-8.407a21.077,21.077,0,0,0-1.677,2.1c-.274.386-.148,1.393-.839,2.1-1.673,1.712-4.2-2.522-4.2-2.522l-2.518,2.522s-1.679,23.538-.839,23.538,58.746,13.661,59.584,13.45,27.694-31.525,27.694-31.525Z" transform="translate(-284.508 -122.964)" fill="#ffe490" fill-rule="evenodd"/>
          </g>
        </g>
        <g id="Grupo_143853" data-name="Grupo 143853">
          <g id="Grupo_143852" data-name="Grupo 143852" clip-path="url(#clip-path)">
            <path id="Trazado_190202" data-name="Trazado 190202" d="M294.668,103.866c-4.822.18-18.125,5.437-27.694,7.985s-36.119,9.781-36.924,17.234.687,15.669,6.713,15.131,17.426-7.416,26.016-12.609,20.142-14.291,20.142-14.291,16.571-13.631,11.748-13.45" transform="translate(-75.128 -33.949)" fill="#fc97a1" fill-rule="evenodd"/>
            <path id="Trazado_190203" data-name="Trazado 190203" d="M294.668,103.866c-4.822.18-18.125,5.437-27.694,7.985s-36.119,9.781-36.924,17.234.687,15.669,6.713,15.131,17.426-7.416,26.016-12.609,20.142-14.291,20.142-14.291,16.571-13.631,11.748-13.45" transform="translate(-75.128 -33.949)" fill="#ffca28" fill-rule="evenodd"/>
          </g>
        </g>
        <g id="Grupo_143855" data-name="Grupo 143855" transform="translate(154.72 69.916)">
          <g id="Grupo_143854" data-name="Grupo 143854" clip-path="url(#clip-path-18)">
            <path id="Trazado_190204" data-name="Trazado 190204" d="M287.857,114.922s-7.111,2.722-21.721,12.75c-3.265,2.242-16.174,11.991-17.623,12.61a41.364,41.364,0,0,1-4.2,1.681c.484-.452,1.813-1.642,1.259-4.624s-1.259-3.783-1.259-3.783.311,4.856-.839,6.3-3.941,4.173-5.454,4.2a18.961,18.961,0,0,1-4.616-.841s-2.22-2.458-3.356-3.782c-.953-1.113-1.92-3.879-1.259-5.465s5.455-4.2,5.455-4.2-.715-.479-2.938.841a16.673,16.673,0,0,0-3.357,2.522,12.337,12.337,0,0,1,1.259-3.782c.788-1.078-1.925-1.261-2.1-1.261a36.5,36.5,0,0,0-4.2,4.2c-.04.325-1.678,6.725-1.678,6.725s7.823,10.339,7.973,10.087,9.627,3.3,10.071,2.943,47.835-31.1,47.835-31.1Z" transform="translate(-227.033 -107.479)" fill="#ffe490" fill-rule="evenodd"/>
          </g>
        </g>
        <g id="Grupo_143857" data-name="Grupo 143857">
          <g id="Grupo_143856" data-name="Grupo 143856" clip-path="url(#clip-path)">
            <path id="Trazado_190206" data-name="Trazado 190206" d="M344.5,71.475s-5.828-19.565-15.945-13.031c-8.964,5.79-8.6,21.846-6.295,26.481,1.624,3.267,8.812,2.942,8.812,2.942s.119,5.431.839,5.885c1.6,1.01,6.23-1.175,6.713-2.522s-.839-5.885-.839-5.885,2.062-1.816,3.358-2.942a13.68,13.68,0,0,0,1.678-1.682s5,.01,5.874-4.623-4.2-4.624-4.2-4.624" transform="translate(-104.88 -18.667)" fill="#eda88a" fill-rule="evenodd"/>
          </g>
        </g>
        <g id="Grupo_143862" data-name="Grupo 143862" transform="translate(215.992 38.442)">
          <g id="Grupo_143861" data-name="Grupo 143861" clip-path="url(#clip-path-20)">
            <g id="Grupo_143860" data-name="Grupo 143860" transform="translate(-0.822 -5.749)" opacity="0.7">
              <g id="Grupo_143859" data-name="Grupo 143859">
                <g id="Grupo_143858" data-name="Grupo 143858" clip-path="url(#clip-path-21)">
                  <path id="Trazado_190207" data-name="Trazado 190207" d="M320.931,66.04s2.405-7.777,6.4-9.619c2.487-1.146,5.638-1.752,8.965,1.282s7.685,10.261,7.685,10.261l1.922-1.924s-5.393-21.868-14.729-16.674S319.65,60.91,319.65,60.91Z" transform="translate(-319.65 -48.569)" fill="#c65456" fill-rule="evenodd"/>
                  <path id="Trazado_190208" data-name="Trazado 190208" d="M354.092,85.6s.948-4.07,2.927-3.848,2.2,1.539,2.2,1.539Z" transform="translate(-330.908 -59.412)" fill="#c65456" fill-rule="evenodd"/>
                  <path id="Trazado_190209" data-name="Trazado 190209" d="M322.435,96.191s2.81,4.565,7.621,3.52,8.355-2.78,10.024-4.27,4.064-3.425,4.064-3.425l1.28,3.848s-2.258-1.014-4.613,2.084-9.278,7.477-12.327,5.932-6.375-7.646-6.375-7.646Z" transform="translate(-320.454 -62.77)" fill="#c65456" fill-rule="evenodd"/>
                </g>
              </g>
            </g>
          </g>
        </g>
        <g id="Grupo_143864" data-name="Grupo 143864">
          <g id="Grupo_143863" data-name="Grupo 143863" clip-path="url(#clip-path)">
            <path id="Trazado_190211" data-name="Trazado 190211" d="M227.938,145.725c1.642-1.633,6.883-4.66,9.231-2.1s.839,6.3.839,6.3-2.563,1.443-2.518,2.522c.075,1.846,1.511,2.747.839,9.248-.1.959-.288,4.365-1.679,3.783-.77-.322-.6-2.019-1.259-4.624-.256-1.018-.659-2.524-.839-2.942-.5-1.163-2.264,5.751-2.518,8.408s-2.091,3.164-2.518.841a14.412,14.412,0,0,1,.419-8.408,10.757,10.757,0,0,0-1.678,3.784c-.637,2.649-.8,6.24-2.1,5.885-2.449-.672-2.823-4.473-3.357-6.305s.419-5.885.419-5.885-2.053,7.354-3.356,6.725c-1.869-.9-.415-5.487.839-7.566,1.889-3.129,3.879-4.262,5.875-6.3,1.451-1.486,1.714-1.729,3.356-3.363" transform="translate(-70.92 -46.622)" fill="#eda88a" fill-rule="evenodd"/>
          </g>
        </g>
        <g id="Grupo_143869" data-name="Grupo 143869" transform="translate(146.054 96.014)">
          <g id="Grupo_143868" data-name="Grupo 143868" clip-path="url(#clip-path-23)">
            <g id="Grupo_143867" data-name="Grupo 143867" transform="translate(-5.317 -3.047)" opacity="0.7">
              <g id="Grupo_143866" data-name="Grupo 143866">
                <g id="Grupo_143865" data-name="Grupo 143865" clip-path="url(#clip-path-24)">
                  <path id="Trazado_190212" data-name="Trazado 190212" d="M228.929,142.6c2.034-.779,4.383-.232,5.123,1.282s1.121,4.167.641,4.489a8.518,8.518,0,0,1-1.921.641s-1.38.776-.64,3.207a24.863,24.863,0,0,1,.64,6.412c.2,2.426.594,3.883,0,4.489a2.231,2.231,0,0,0-.64,1.283s-2.555-1.857-2.561-3.207,0-5.771,0-5.771-.618-1.588-1.281.641-1.414,5.576-1.281,7.054.039,2.1-.64,2.565a5.579,5.579,0,0,1-1.921.642,5.855,5.855,0,0,1-.64-3.207c.139-1.915,1.28-7.054,1.28-7.054a7.176,7.176,0,0,0-2.561,3.848c-.421,2.26.3,5.694-.64,5.771s-1.834.192-1.921-.641-.641-3.207-.641-3.207a7.679,7.679,0,0,1,0,3.207c-.415,1.2-1.921-1.924-1.921-1.924s-2.421,1.97-1.28-1.282,2.561-7.7,2.561-7.7-2.249,2.283-2.561,3.848-.623,4.578-1.921,3.848-1.92-6.413-1.92-6.413l6.4-11.543,8.966-1.924-2.562-3.848s-8.168,2.737-8.965,3.848-7.044,18.6-7.044,18.6l8.325,10.9s14.2-2.367,14.729-3.207,7.068-3.871,7.044-4.488,1.111-14.043.64-14.75-4.482-9.619-4.482-9.619-6.069-1.272-6.4-.642-1.65,4.479,0,3.848" transform="translate(-209.076 -138.11)" fill="#c65456" fill-rule="evenodd"/>
                </g>
              </g>
            </g>
          </g>
        </g>
        <g id="Grupo_143871" data-name="Grupo 143871">
          <g id="Grupo_143870" data-name="Grupo 143870" clip-path="url(#clip-path)">
            <path id="Trazado_190214" data-name="Trazado 190214" d="M399.272,128.534c-1.238-1.838-5.93.364-5.93.364s-111.763,65.136-123.27,71.92a2.53,2.53,0,0,0-1.513,1.03,4.419,4.419,0,0,0-1.157,1.834,26.14,26.14,0,0,0-1.525,3.818s-11.25,47.335-11.32,48.033c-.095.924.884,2.217,2.666,2.706a3.86,3.86,0,0,0,3.758-1.247c.363-.522,10.008-44.1,11.3-50.629,6.2-3.378,123.306-71.8,124.729-72.824,1.5-1.076,3.651-2.942,2.261-5" transform="translate(-83.202 -41.773)" fill="#9cabd0" fill-rule="evenodd"/>
          </g>
        </g>
        <g id="Grupo_143873" data-name="Grupo 143873" transform="translate(171.348 86.029)">
          <g id="Grupo_143872" data-name="Grupo 143872" clip-path="url(#clip-path-26)">
            <path id="Trazado_190215" data-name="Trazado 190215" d="M281.372,188.3a6.489,6.489,0,0,1,4.033,6.828l134.758-63.691s7.611-25.3,4.948-27.968,9.323-8.562-7.992-5.9-10.274-8.373-32.155,4.946S280.142,182.185,281.372,188.3" transform="translate(-263.313 -117.338)" fill="#635c78" fill-rule="evenodd"/>
          </g>
        </g>
      </g>
    </g>
    <g id="Grupo_143876" data-name="Grupo 143876" transform="translate(370.471 4947.908)">
      <g id="Grupo_143609" data-name="Grupo 143609" transform="translate(0 0)" clip-path="url(#clip-path-27)">
        <path id="Trazado_189396" data-name="Trazado 189396" d="M42.969,47.4c-2.246-1.3-4.073-.255-4.08,2.325a8.934,8.934,0,0,0,4.054,7.023c2.248,1.3,4.074.257,4.082-2.326A8.936,8.936,0,0,0,42.969,47.4" transform="translate(-26.206 -31.563)" fill="#ffca28"/>
        <path id="Trazado_189397" data-name="Trazado 189397" d="M22.056,23.66c.358-.2.36-.866,0-1.482a1.849,1.849,0,0,0-.643-.679.651.651,0,0,0-.646-.065c-2.162,1.23-3.251,3.86-3.258,7.1a22.259,22.259,0,0,0,3.208,10.836,1.858,1.858,0,0,0,.644.68.646.646,0,0,0,.645.064c.358-.2.36-.866,0-1.482a18.572,18.572,0,0,1-2.676-9.045c.008-2.714.913-4.9,2.719-5.93" transform="translate(-11.8 -14.403)" fill="#ffca28"/>
        <path id="Trazado_189398" data-name="Trazado 189398" d="M6.23,2.287c.358-.2.36-.866,0-1.482A1.85,1.85,0,0,0,5.591.126.65.65,0,0,0,4.945.06C1.664,1.928.014,5.914,0,10.837A33.808,33.808,0,0,0,4.868,27.281a1.857,1.857,0,0,0,.645.678.649.649,0,0,0,.645.066c.358-.2.36-.868,0-1.484A30.113,30.113,0,0,1,1.825,11.891C1.839,7.5,3.306,3.956,6.23,2.287" transform="translate(0 0)" fill="#ffca28"/>
        <path id="Trazado_189399" data-name="Trazado 189399" d="M71.412,46.852a.65.65,0,0,0-.647-.065c-.356.205-.358.867,0,1.482a18.567,18.567,0,0,1,2.679,9.046c-.008,2.714-.914,4.9-2.721,5.929-.356.205-.358.869,0,1.482a1.858,1.858,0,0,0,.645.681.651.651,0,0,0,.647.065c2.159-1.231,3.251-3.86,3.258-7.1a22.276,22.276,0,0,0-3.208-10.836,1.856,1.856,0,0,0-.645-.68" transform="translate(-47.474 -31.487)" fill="#ffca28"/>
        <path id="Trazado_189400" data-name="Trazado 189400" d="M83.779,39.774a.65.65,0,0,0-.647-.065c-.356.205-.358.867,0,1.482a30.105,30.105,0,0,1,4.339,14.652c-.014,4.391-1.481,7.935-4.407,9.6-.356.205-.358.869,0,1.484a1.858,1.858,0,0,0,.645.679.653.653,0,0,0,.647.067c3.278-1.87,4.931-5.856,4.945-10.778a33.81,33.81,0,0,0-4.868-16.442,1.856,1.856,0,0,0-.645-.68" transform="translate(-55.79 -26.718)" fill="#ffca28"/>
      </g>
    </g>
    <g id="Grupo_143878" data-name="Grupo 143878" transform="translate(620.275 5038.083)">
      <g id="Grupo_143877" data-name="Grupo 143877" clip-path="url(#clip-path-28)">
        <path id="Trazado_190217" data-name="Trazado 190217" d="M40.931,77.208l-.022,22.53a.742.742,0,0,1-.742.741l-20.07-.02a.742.742,0,0,1-.741-.742l.022-22.489-2.691-2.691-.028,28.3a.926.926,0,0,0,.925.927l25.088.025a.926.926,0,0,0,.927-.925l.029-28.352Z" transform="translate(-13.373 -59.812)" fill="#4dd0e1"/>
        <path id="Trazado_190219" data-name="Trazado 190219" d="M15.429,0h2.39A23.553,23.553,0,0,1,33.542,7.17v.042q-.969.917-1.887,1.887C27.961,5.621,23.726,2.915,16.9,2.725a20.121,20.121,0,0,0-8.763,1.8A21.161,21.161,0,0,0,2.6,8.218c-.152.138-.622.627-.671.629C1.74,8.855,1.18,8.1.964,7.882.6,7.513.264,7.137,0,6.918V6.876A23.639,23.639,0,0,1,15.429,0" fill="#ffca28" fill-rule="evenodd"/>
        <path id="Trazado_190220" data-name="Trazado 190220" d="M42.344,29.762a24.931,24.931,0,0,1-1.887,2.012A16.728,16.728,0,0,0,28.843,26.7c-5.261-.193-9.081,2.377-11.823,4.822-.383-.4-.921-.963-1.425-1.467-.127-.127-.5-.4-.5-.461-.008-.2,1.05-.99,1.216-1.132a19.023,19.023,0,0,1,26.037,1.3" transform="translate(-12.114 -19.197)" fill="#ffca28" fill-rule="evenodd"/>
        <path id="Trazado_190221" data-name="Trazado 190221" d="M50.751,54.228a11.505,11.505,0,0,0-16.016-.922,7.762,7.762,0,0,1-.755.713c-.149.007-.853-.853-.964-.964a5.928,5.928,0,0,1-.922-.964A14.347,14.347,0,0,1,41.485,47.9a13.761,13.761,0,0,1,10.188,3.522c.252.224,1,.781,1.006.922s-.843.843-.964.964a6,6,0,0,1-.964.922" transform="translate(-25.762 -38.422)" fill="#ffca28" fill-rule="evenodd"/>
        <path id="Trazado_190222" data-name="Trazado 190222" d="M61.6,77.024a7.378,7.378,0,0,0-6-2.348,7.512,7.512,0,0,0-4.486,2.138c-.507-.57-1.087-1.066-1.594-1.635a9.283,9.283,0,0,1,6.164-2.893A9.008,9.008,0,0,1,61.8,74.131c.143.107,1.415.98,1.426,1.216.007.178-.681.68-.838.839-.331.33-.538.563-.8.838" transform="translate(-39.751 -57.989)" fill="#ffca28" fill-rule="evenodd"/>
        <path id="Trazado_190223" data-name="Trazado 190223" d="M73.749,93.69a3.213,3.213,0,1,1-3.213-3.213,3.212,3.212,0,0,1,3.213,3.213" transform="translate(-54.043 -72.629)" fill="#ffca28" fill-rule="evenodd"/>
      </g>
    </g>
    <g id="Grupo_143880" data-name="Grupo 143880" transform="translate(659.361 5038.083)">
      <g id="Grupo_143879" data-name="Grupo 143879" clip-path="url(#clip-path-29)">
        <path id="Trazado_190224" data-name="Trazado 190224" d="M56.291,5.185A5.185,5.185,0,1,1,51.106,0a5.185,5.185,0,0,1,5.185,5.185" transform="translate(-42.278)" fill="#ffca28" fill-rule="evenodd"/>
        <path id="Trazado_190225" data-name="Trazado 190225" d="M3.923,151.93h9.95a4.01,4.01,0,0,1,3.924,3.924v10.37H14.714V158.8a.492.492,0,1,0-.981,0v25.5H9.389V170.989a.492.492,0,1,0-.981,0V184.3H4.064V158.8a.562.562,0,0,0-1.121,0v7.427H0v-10.37a4.01,4.01,0,0,1,3.924-3.924Z" transform="translate(0 -139.878)" fill="#ffca28" fill-rule="evenodd"/>
      </g>
    </g>
    <g id="Grupo_143896" data-name="Grupo 143896" transform="translate(315.882 4968.417)">
      <g id="Grupo_143895" data-name="Grupo 143895" transform="translate(0 0)" clip-path="url(#clip-path-30)">
        <path id="Trazado_190239" data-name="Trazado 190239" d="M59.089,15.573A19.669,19.669,0,0,0,21.337,13.03a7.337,7.337,0,0,0-9.57,8.233,9.782,9.782,0,1,0-1.985,19.36c.194,0,.386-.007.577-.018.12.009.24.018.363.018h47.8c.02,0,.038-.005.058-.006.078,0,.155.006.233.006a12.526,12.526,0,0,0,.278-25.049" transform="translate(0 0)" fill="#4dd0e1"/>
      </g>
    </g>
    <g id="Grupo_143898" data-name="Grupo 143898" transform="translate(622.959 4897.352)">
      <g id="Grupo_143897" data-name="Grupo 143897" transform="translate(0 0)" clip-path="url(#clip-path-31)">
        <path id="Trazado_190240" data-name="Trazado 190240" d="M14.217,0A14.042,14.042,0,0,0,4.262,4.126l9.962,9.962Z" transform="translate(-1.59 0)" fill="#ffca28"/>
        <path id="Trazado_190241" data-name="Trazado 190241" d="M14.088,6.576h-.007l.007,14.088-13.2-4.88a14.08,14.08,0,1,0,13.2-9.208" transform="translate(0 -2.454)" fill="#4dd0e1"/>
        <path id="Trazado_190242" data-name="Trazado 190242" d="M3.553,10.9a14.094,14.094,0,0,0-3.24,5.082L13.262,20.77Z" transform="translate(-0.117 -4.068)" fill="#fff"/>
      </g>
    </g>
  </g>
</svg>
