<svg xmlns="http://www.w3.org/2000/svg" xmlns:xlink="http://www.w3.org/1999/xlink" width="235.978" height="167.278" viewBox="0 0 235.978 167.278">
  <defs>
    <clipPath id="clip-path">
      <rect id="Rectángulo_43550" data-name="Rectángulo 43550" width="123.784" height="134.053" fill="none"/>
    </clipPath>
    <clipPath id="clip-path-3">
      <rect id="Rectángulo_43548" data-name="Rectángulo 43548" width="123.657" height="133.894" fill="none"/>
    </clipPath>
    <clipPath id="clip-path-4">
      <rect id="Rectángulo_43551" data-name="Rectángulo 43551" width="65.761" height="65.761" transform="translate(0 0)" fill="#4dd0e1"/>
    </clipPath>
    <clipPath id="clip-path-5">
      <rect id="Rectángulo_43551-2" data-name="Rectángulo 43551" width="41.171" height="41.171" fill="#26a69a"/>
    </clipPath>
    <clipPath id="clip-path-6">
      <rect id="Rectángulo_43552" data-name="Rectángulo 43552" width="63.376" height="72.775" fill="none"/>
    </clipPath>
  </defs>
  <g id="Grupo_144327" data-name="Grupo 144327" transform="translate(-947.608 -4312)">
    <g id="Grupo_144320" data-name="Grupo 144320" transform="translate(947.608 4345.225)">
      <g id="Grupo_144315" data-name="Grupo 144315" clip-path="url(#clip-path)">
        <g id="Grupo_144314" data-name="Grupo 144314">
          <g id="Grupo_144313" data-name="Grupo 144313" clip-path="url(#clip-path)">
            <path id="Trazado_190746" data-name="Trazado 190746" d="M81.281.339,66.869.019,66.8,2.373C43.4,9.594,25.625,35.161,24.768,65.981s15.472,57.144,38.447,65.395l-.065,2.354,14.412.32c30.184.67,55.486-28.719,56.513-65.642S111.465,1.009,81.281.339" transform="translate(-10.324 -0.008)" fill="#cf931d"/>
            <path id="Trazado_190747" data-name="Trazado 190747" d="M109.339,68.079C108.311,105,83.01,134.391,52.826,133.721S-1,102.575.032,65.652,26.36-.66,56.545.01s53.821,31.146,52.794,68.069" transform="translate(0 0.001)" fill="#fbc03d"/>
            <path id="Trazado_190748" data-name="Trazado 190748" d="M71.617,129.81a39.311,39.311,0,0,1-14.463,2.433c-12.686-.282-24.564-6.744-33.445-18.2C14.437,102.094,9.588,86.28,10.054,69.52A72.158,72.158,0,0,1,21.1,32.469C27.537,22.439,36.424,14.955,46.12,11.4A39.3,39.3,0,0,1,60.583,8.965c12.686.282,24.564,6.744,33.445,18.2,9.272,11.954,14.121,27.768,13.655,44.527a72.158,72.158,0,0,1-11.043,37.051c-6.44,10.03-15.326,17.514-25.023,21.071" transform="translate(-4.183 -3.738)" fill="#fbc03d"/>
            <path id="Trazado_190749" data-name="Trazado 190749" d="M28.509,114.171c-9.249-11.926-14.087-27.7-13.622-44.43s6.174-32.27,16.076-43.77c8.9-10.342,20.194-16.179,32.005-16.607q-1.124-.091-2.257-.118c-12.626-.28-24.795,5.624-34.266,16.625-9.9,11.5-15.61,27.045-16.075,43.77s4.372,32.5,13.622,44.43c8.847,11.408,20.673,17.844,33.3,18.124.756.017,1.509.01,2.261-.017-11.773-.953-22.725-7.282-31.043-18.007" transform="translate(-4.315 -3.855)" fill="#cf931d"/>
            <path id="Trazado_190750" data-name="Trazado 190750" d="M75.936,93.432l.073-.046.068.046.073-.046.068.046.073-.046.068.046.073-.046.068.046.073-.046.068.046.073-.046.068.046.073-.046.068.046L77,93.386l.068.046.073-.046.068.046.074-.046.068.046.073-.046.068.046.074-.046.068.046.073-.046.068.046.073-.046.068.046.073-.046.068.046.074-.046.068.046.073-.046.068.046.073-.046.068.046.073-.046.068.046.073-.046.068.046.073-.046.068.046.074-.046.068.046.073-.046.068.046.073-.046.068.046.073-.046.068.046.073-.046.068.046.073-.046.068.046.073-.046.068.046.073-.046.068.046.073-.046.068.046.073-.046.068.046.073-.046.068.046.073-.046.068.046.073-.046.068.046.073-.046.068.046.073-.046.068.046.073-.046.068.046.073-.046.068.046.074-.046.068.046.073-.046.068.046.073-.046.068.046.073-.046.068.046.073-.046.068.046.073-.046.068.046.073-.046.068.046.073-.046.068.046.073-.046.068.046.073-.046.068.046.074-.046.068.046.073-.046.068.046.073-.046.068.046L107.713,77.96,94.581,52.407l-3.2-6.229-3.928-7.641-4.31-8.386-.067.144L83,30.15l-.068.144-.074-.144-.067.144-.075-.144-.067.144-.074-.144-.067.144-.075-.144-.067.144-.074-.144-.067.144-.075-.144-.067.144-.074-.144-.067.144-.075-.144-.067.144-.074-.144-.067.144-.075-.144-.067.144-.074-.144-.067.144-.075-.144-.067.144-.074-.144-.067.144-.075-.144-.067.144-.074-.144-.067.144-.075-.144-.067.144L80.6,30.15l-.067.144-.075-.144-.067.144-.074-.144-.067.144-.075-.144-.067.144-.074-.144-.067.144-.075-.144-.067.144-.074-.144-.067.144-.075-.144-.067.144-.074-.144-.067.144-.075-.144-.067.144-.074-.144-.068.144-.074-.144-.067.144L78.9,30.15l-.066.144-.075-.144-.067.144-.074-.144-.067.144-.075-.144-.067.144-.074-.144-.067.144L78.2,30.15l-.067.144-.075-.144-.066.144-.075-.144-.067.144-.074-.144-.067.144-.075-.144-.067.144-.075-.144-.067.144-.074-.144-.067.144-.075-.144-.066.144-.075-.144L77,30.294l-.074-.144-.068.144-.074-.144-.067.144-.074-.144-.068.144L76.5,30.15l-.067.144-.075-.144-.066.144-.075-.144-.067.144-.074-.144-.067.144-.075-.144L63.92,56.044,53.649,78.178l-.023.048,5.208,3.549Z" transform="translate(-22.381 -12.583)" fill="#cf931d"/>
            <path id="Trazado_190751" data-name="Trazado 190751" d="M107.143,125.35l-.207.127.066-.127-.207.127.065-.127-.207.127.065-.127-.206.127.065-.127-.207.127.066-.127-.207.127.065-.127-.207.127.065-.127-.206.127.065-.127-.207.127.065-.127-.206.127.065-.127-.207.127.065-.127-.206.127.065-.127-.207.127.066-.127-.207.127.065-.127-.207.127.065-.127-.206.127.065-.127-.207.127.066-.127-.207.127.065-.127-.207.127.065-.127-.207.127.066-.127-.207.127.065-.127-.206.127.065-.127-.207.127.065-.127-.206.127.065-.127-.207.127.065-.127-.206.127.065-.127-.207.127.065-.127-.206.127.065-.127-.207.127.065-.127-.206.127.065-.127-.207.127.065-.127-.207.127.066-.127-.207.127.065-.127-.206.127.065-.127-.207.127.065-.127-.206.127.065-.127-.207.127.065-.127-.206.127.065-.127-.207.127.065-.127-.207.127.065-.127-.206.127.065-.127-.207.127.066-.127-.207.127.065-.127-.207.127.065-.127-.206.127.065-.127-.206.127.065-.127-.207.127.065-.127-.207.127.066-.127-.207.127.065-.127-.207.127.066-.127L80.384,137.473,62.836,125.265l-.507-.353.068.146-.209-.146.067.146-.209-.146.068.146-.209-.146.068.146-.209-.146.068.146-.209-.146.068.146-.209-.146.068.146-.209-.146.067.146-.209-.146.068.146-.209-.146.067.146-.208-.146.067.146-.209-.146.067.146-.209-.146.068.146-.209-.146.067.146-.209-.146.068.146-.209-.146.068.146-.209-.146.068.146-.209-.146.067.146-.209-.146.068.146-.209-.146.067.146-.209-.146.068.146-.209-.146.067.146-.209-.146.068.146-.209-.146.067.146-.209-.146.068.146-.209-.146.067.146-.209-.146.068.146-.209-.146.067.146-.209-.146.068.146-.209-.146.067.146-.209-.146.068.146-.209-.146.067.146-.209-.146.068.146-.209-.146.067.146-.209-.146.068.146-.209-.146.067.146-.209-.146.068.146-.209-.146.067.146-.209-.146.068.146-.209-.146.067.146-.209-.146.068.146-.209-.146.067.146-.209-.146.068.146-.209-.146.067.146-.209-.146.068.146-.209-.146.067.146-.209-.146.068.146-.209-.146.067.146-.209-.146.068.146-.209-.146.067.146-.209-.146.068.146-.209-.146.274.591,16.7,35.988,4.463,9.618.075-.144.067.144.074-.144.067.144.075-.144.067.144.074-.144.067.144.075-.144.067.144.074-.144.067.144.075-.144.067.144.074-.144.067.144.075-.144.067.144.074-.144.067.144.075-.144.067.144.074-.144.067.144.075-.144.067.144.074-.144.067.144.075-.144.067.144.074-.144.067.144.075-.144.067.144.074-.144.067.144.075-.144.067.144.074-.144.067.144.075-.144.067.144.074-.144.067.144.075-.144.067.144.074-.144.067.144.075-.144.067.144.074-.144.067.144.075-.144.067.144.074-.144.067.144.075-.144.067.144.074-.144.067.144.075-.144.067.144.074-.144.068.144.074-.144.067.144.075-.144.066.144.075-.144.067.144.074-.144.067.144.075-.144.067.144.074-.144.068.144.074-.144.067.144.074-.144.067.144.075-.144.067.144.074-.144.068.144.074-.144.067.144.074-.144.068.144.074-.144.067.144.075-.144.067.144.074-.144.067.144.074-.144.068.144.074-.144.067.144.074-.144.068.144.074-.144.067.144,13.351-25.977,10.167-19.782-.207.127Z" transform="translate(-23.006 -52.133)" fill="#cf931d"/>
            <path id="Trazado_190752" data-name="Trazado 190752" d="M55.123,124.913l.274.591.232-.239Z" transform="translate(-23.006 -52.133)" fill="#fdd77e"/>
            <path id="Trazado_190753" data-name="Trazado 190753" d="M75.936,93.432l24.571-15.473L87.374,52.406l-3.2-6.228-3.928-7.641-4.31-8.387L63.92,56.043,53.649,78.177l-.023.049,5.208,3.549Z" transform="translate(-22.381 -12.583)" fill="#fdd77e"/>
            <path id="Trazado_190754" data-name="Trazado 190754" d="M55.827,125.518l-.232.239,16.7,35.987,4.463,9.619,13.351-25.978L100.275,125.6,76.757,140.079Z" transform="translate(-23.203 -52.386)" fill="#fdd77e"/>
            <g id="Grupo_144312" data-name="Grupo 144312" transform="translate(0.064 0.079)" opacity="0.52">
              <g id="Grupo_144311" data-name="Grupo 144311">
                <g id="Grupo_144310" data-name="Grupo 144310" clip-path="url(#clip-path-3)">
                  <path id="Trazado_190755" data-name="Trazado 190755" d="M71.066.467,56.654.147a46.4,46.4,0,0,0-22.54,5.347L5.983,37.78A79.554,79.554,0,0,0,.141,65.789a81.2,81.2,0,0,0,1.1,15.862L71.953.5c-.3-.012-.591-.027-.887-.033" transform="translate(-0.109 -0.136)" fill="#ffebc2"/>
                  <path id="Trazado_190756" data-name="Trazado 190756" d="M9,99.924,90.955,5.86a46.637,46.637,0,0,0-4.416-1.632L7.222,95.259Q8.035,97.641,9,99.924" transform="translate(-3.078 -1.844)" fill="#ffebc2"/>
                  <path id="Trazado_190757" data-name="Trazado 190757" d="M45.828,141.811l84.547-97.035a65.177,65.177,0,0,0-6.863-10.485L36.138,134.571a52.914,52.914,0,0,0,9.69,7.24" transform="translate(-15.146 -14.391)" fill="#ffebc2"/>
                  <path id="Trazado_190758" data-name="Trazado 190758" d="M90.719,172.066l7.768.172,63.063-72.378a80.4,80.4,0,0,0-.875-8.177L90.64,172.063l.079,0" transform="translate(-37.893 -38.344)" fill="#ffebc2"/>
                </g>
              </g>
            </g>
          </g>
        </g>
      </g>
    </g>
    <g id="Grupo_144322" data-name="Grupo 144322" transform="translate(1083 4386.585)">
      <g id="Grupo_144321" data-name="Grupo 144321" clip-path="url(#clip-path-4)">
        <path id="Trazado_190761" data-name="Trazado 190761" d="M62.982,25.335H56.8a24.511,24.511,0,0,0-1.671-4.03L59.5,16.932A2.782,2.782,0,0,0,59.5,13L52.76,6.262a2.77,2.77,0,0,0-3.927,0l-4.372,4.372a24.707,24.707,0,0,0-4.035-1.676V2.78A2.778,2.778,0,0,0,37.646,0H28.115a2.778,2.778,0,0,0-2.779,2.78V8.958A24.707,24.707,0,0,0,21.3,10.634L16.929,6.262a2.77,2.77,0,0,0-3.927,0L6.259,13a2.781,2.781,0,0,0,0,3.931l4.372,4.373a24.6,24.6,0,0,0-1.672,4.03H2.78A2.78,2.78,0,0,0,0,28.115v9.53a2.778,2.778,0,0,0,2.78,2.78H8.959a24.959,24.959,0,0,0,1.672,4.035L6.259,48.832a2.782,2.782,0,0,0,0,3.932L13,59.5a2.778,2.778,0,0,0,3.927,0L21.3,55.13A25.049,25.049,0,0,0,25.336,56.8v6.179a2.778,2.778,0,0,0,2.779,2.78h9.531a2.778,2.778,0,0,0,2.78-2.78V56.8a25.049,25.049,0,0,0,4.035-1.672L48.833,59.5a2.778,2.778,0,0,0,3.927,0L59.5,52.764a2.784,2.784,0,0,0,0-3.932L55.131,44.46A24.955,24.955,0,0,0,56.8,40.425h6.18a2.778,2.778,0,0,0,2.779-2.78v-9.53a2.78,2.78,0,0,0-2.779-2.78m-30.1,19.974A12.428,12.428,0,1,1,45.309,32.88,12.429,12.429,0,0,1,32.881,45.309" fill="#4dd0e1"/>
        <path id="Trazado_190762" data-name="Trazado 190762" d="M32.88,54.62A21.74,21.74,0,1,1,54.62,32.88,21.765,21.765,0,0,1,32.88,54.62m0-41.345a19.605,19.605,0,1,0,19.6,19.605,19.628,19.628,0,0,0-19.6-19.605" fill="#fff"/>
      </g>
    </g>
    <g id="Grupo_144323" data-name="Grupo 144323" transform="translate(1142.414 4366)">
      <g id="Grupo_144321-2" data-name="Grupo 144321" transform="translate(0 0)" clip-path="url(#clip-path-5)">
        <path id="Trazado_190761-2" data-name="Trazado 190761" d="M39.431,15.862H35.562a15.346,15.346,0,0,0-1.046-2.523L37.253,10.6a1.742,1.742,0,0,0,0-2.461L33.032,3.92a1.734,1.734,0,0,0-2.459,0L27.836,6.658A15.468,15.468,0,0,0,25.31,5.608V1.74A1.739,1.739,0,0,0,23.569,0H17.6a1.739,1.739,0,0,0-1.74,1.74V5.608a15.469,15.469,0,0,0-2.526,1.049L10.6,3.92a1.734,1.734,0,0,0-2.459,0L3.919,8.14a1.741,1.741,0,0,0,0,2.461l2.737,2.738a15.4,15.4,0,0,0-1.047,2.523H1.74A1.741,1.741,0,0,0,0,17.6v5.966a1.739,1.739,0,0,0,1.74,1.74H5.609a15.626,15.626,0,0,0,1.047,2.526L3.919,30.572a1.742,1.742,0,0,0,0,2.462L8.14,37.253a1.739,1.739,0,0,0,2.459,0l2.737-2.737a15.683,15.683,0,0,0,2.526,1.047v3.868a1.739,1.739,0,0,0,1.74,1.74h5.967a1.739,1.739,0,0,0,1.74-1.74V35.562a15.683,15.683,0,0,0,2.526-1.047l2.737,2.737a1.739,1.739,0,0,0,2.459,0l4.222-4.218a1.743,1.743,0,0,0,0-2.462l-2.737-2.737a15.624,15.624,0,0,0,1.046-2.526h3.869a1.739,1.739,0,0,0,1.74-1.74V17.6a1.741,1.741,0,0,0-1.74-1.74M20.586,28.367a7.781,7.781,0,1,1,7.781-7.781,7.781,7.781,0,0,1-7.781,7.781" transform="translate(0 0)" fill="#1565c0"/>
        <path id="Trazado_190762-2" data-name="Trazado 190762" d="M24.751,38.362A13.611,13.611,0,1,1,38.362,24.751,13.626,13.626,0,0,1,24.751,38.362m0-25.885A12.274,12.274,0,1,0,37.025,24.751,12.288,12.288,0,0,0,24.751,12.477" transform="translate(-4.166 -4.166)" fill="#fff"/>
      </g>
    </g>
    <g id="Grupo_144326" data-name="Grupo 144326" transform="translate(1052.504 4312)">
      <g id="Grupo_144325" data-name="Grupo 144325" transform="translate(0 0)" clip-path="url(#clip-path-6)">
        <path id="Trazado_190763" data-name="Trazado 190763" d="M44.937,60.612a17.072,17.072,0,0,1,5.155-7.884,20.711,20.711,0,0,0,7.429-15.92A20.926,20.926,0,1,0,23.1,52.728a16.268,16.268,0,0,1,5.307,7.884Z" transform="translate(-4.91 -4.97)" fill="#f9ba2b"/>
        <path id="Trazado_190764" data-name="Trazado 190764" d="M39.3,101.351a5.061,5.061,0,0,0,9.4,0Z" transform="translate(-12.316 -31.76)" fill="#3e4b5e"/>
        <path id="Trazado_190765" data-name="Trazado 190765" d="M48.022,95.068H36.954a2.718,2.718,0,0,1-2.729-2.729V80.816H50.752V92.338a2.718,2.718,0,0,1-2.729,2.729" transform="translate(-10.725 -25.325)" fill="#3e4b5e"/>
        <path id="Trazado_190766" data-name="Trazado 190766" d="M49.839,87.684H33.465a1.668,1.668,0,1,1,0-3.336H49.839a1.668,1.668,0,0,1,0,3.336" transform="translate(-9.964 -26.432)" fill="#4b5a6a"/>
        <path id="Trazado_190767" data-name="Trazado 190767" d="M49.839,95.413H33.465a1.668,1.668,0,1,1,0-3.336H49.839a1.668,1.668,0,1,1,0,3.336" transform="translate(-9.964 -28.854)" fill="#4b5a6a"/>
        <path id="Trazado_190768" data-name="Trazado 190768" d="M45.457,0a1.519,1.519,0,0,0-1.516,1.516V6.671a1.519,1.519,0,0,0,1.516,1.517,1.432,1.432,0,0,0,1.516-1.517V1.516A1.519,1.519,0,0,0,45.457,0" transform="translate(-13.77 0)" fill="#f9ba2b"/>
        <path id="Trazado_190769" data-name="Trazado 190769" d="M15.385,13.261a1.5,1.5,0,0,0-2.122,2.122L16.9,19.023A1.5,1.5,0,1,0,19.023,16.9Z" transform="translate(-4.013 -4.013)" fill="#f9ba2b"/>
        <path id="Trazado_190770" data-name="Trazado 190770" d="M6.671,43.941H1.517a1.516,1.516,0,1,0,0,3.032H6.671a1.519,1.519,0,0,0,1.516-1.516,1.63,1.63,0,0,0-1.516-1.516" transform="translate(0 -13.77)" fill="#f9ba2b"/>
        <path id="Trazado_190771" data-name="Trazado 190771" d="M16.9,70.23l-3.638,3.638a1.5,1.5,0,1,0,2.122,2.123l3.638-3.639A1.5,1.5,0,1,0,16.9,70.23" transform="translate(-4.013 -21.865)" fill="#f9ba2b"/>
        <path id="Trazado_190772" data-name="Trazado 190772" d="M72.354,70.23a1.5,1.5,0,0,0-2.122,2.122l3.638,3.639a1.5,1.5,0,0,0,2.122-2.123Z" transform="translate(-21.865 -21.865)" fill="#f9ba2b"/>
        <path id="Trazado_190773" data-name="Trazado 190773" d="M87.045,43.941H81.89a1.516,1.516,0,1,0,0,3.032h5.155a1.516,1.516,0,0,0,0-3.032" transform="translate(-25.186 -13.77)" fill="#f9ba2b"/>
        <path id="Trazado_190774" data-name="Trazado 190774" d="M73.87,13.261,70.231,16.9a1.5,1.5,0,1,0,2.122,2.123l3.638-3.639a1.5,1.5,0,0,0-2.122-2.122" transform="translate(-21.865 -4.013)" fill="#f9ba2b"/>
        <path id="Trazado_190775" data-name="Trazado 190775" d="M34.689,67.835a49.976,49.976,0,0,0,4.048-9.856c.538-1.773,1.013-3.564,1.467-5.361.428-1.692.917-3.392,1.18-5.12.382-2.506.005-7.731-3.808-6.84-2.667.623-4.12,3.549-4.069,6.1.064,3.2,2.254,6.131,4.409,8.318a4.16,4.16,0,0,0,4.032,1.346,7.634,7.634,0,0,0,3.826-2.769c1.923-2.359,3.675-5.367,2.791-8.511-.316-1.122-1.182-2.743-2.421-3.053-1.673-.42-2.074,2.059-2.257,3.185a42.55,42.55,0,0,0-.352,5.825c-.047,1.957-.059,3.917.053,5.872a28.332,28.332,0,0,0,2.736,11.308c.509,1,2.02.12,1.511-.884-2.521-4.979-2.68-10.679-2.553-16.146.032-1.408.054-2.823.155-4.228A13.6,13.6,0,0,1,45.719,45a8.968,8.968,0,0,1,.24-.875c.034-.1.3-.68-.028-.352-.185.184-.148.075.079.3,1.843,1.848.931,4.747-.265,6.656C44.7,52.4,42.161,56,39.814,54.419a11.952,11.952,0,0,1-2.636-2.924A10.25,10.25,0,0,1,35.4,47.882c-.45-1.921.176-4.563,2.176-5.389a1.14,1.14,0,0,1,1.6.407,4.563,4.563,0,0,1,.6,1.932,12.483,12.483,0,0,1-.459,4.064c-1.454,6.176-3.034,12.473-6.143,18.054-.549.985.963,1.869,1.511.884" transform="translate(-10.36 -12.709)" fill="#fff"/>
        <path id="Trazado_190776" data-name="Trazado 190776" d="M47.709,21.769c4.393-.42,8.225,2.5,10.222,6.229a20.726,20.726,0,0,1,2.063,6.6c.369,2.354.719,5.021-.036,7.324-.352,1.073,1.338,1.533,1.688.466.829-2.53.463-5.378.082-7.962A22.107,22.107,0,0,0,59.3,26.859c-2.291-4.1-6.733-7.305-11.594-6.84-1.112.106-1.122,1.857,0,1.75" transform="translate(-14.688 -6.259)" fill="#fff"/>
      </g>
    </g>
  </g>
</svg>
