<svg id="Grupo_144317" data-name="Grupo 144317" xmlns="http://www.w3.org/2000/svg" xmlns:xlink="http://www.w3.org/1999/xlink" width="123.784" height="134.053" viewBox="0 0 123.784 134.053">
  <defs>
    <clipPath id="clip-path">
      <rect id="Rect치ngulo_43547" data-name="Rect치ngulo 43547" width="123.784" height="134.053" fill="none"/>
    </clipPath>
    <clipPath id="clip-path-3">
      <rect id="Rect치ngulo_43545" data-name="Rect치ngulo 43545" width="123.656" height="133.894" fill="none"/>
    </clipPath>
  </defs>
  <g id="Grupo_144308" data-name="Grupo 144308" clip-path="url(#clip-path)">
    <g id="Grupo_144307" data-name="Grupo 144307">
      <g id="Grupo_144306" data-name="Grupo 144306" clip-path="url(#clip-path)">
        <path id="Trazado_190736" data-name="Trazado 190736" d="M81.281.339,66.869.019,66.8,2.373C43.4,9.594,25.625,35.161,24.768,65.981s15.472,57.144,38.447,65.395l-.065,2.354,14.412.32c30.184.67,55.486-28.719,56.513-65.642S111.465,1.009,81.281.339" transform="translate(-10.324 -0.008)" fill="#cf931d"/>
        <path id="Trazado_190737" data-name="Trazado 190737" d="M109.339,68.079C108.312,105,83.01,134.391,52.826,133.721S-1,102.575.032,65.652,26.36-.66,56.545.01s53.821,31.146,52.794,68.069" transform="translate(0 0.001)" fill="#fbc03d"/>
        <path id="Trazado_190738" data-name="Trazado 190738" d="M71.618,129.81a39.313,39.313,0,0,1-14.463,2.433c-12.686-.282-24.564-6.743-33.445-18.2C14.438,102.094,9.589,86.28,10.054,69.52A72.164,72.164,0,0,1,21.1,32.469c6.44-10.03,15.327-17.514,25.023-21.071A39.3,39.3,0,0,1,60.584,8.965c12.686.282,24.564,6.744,33.445,18.2,9.272,11.954,14.12,27.768,13.654,44.527a72.152,72.152,0,0,1-11.042,37.051c-6.441,10.03-15.326,17.514-25.023,21.071" transform="translate(-4.183 -3.738)" fill="#fbc03d"/>
        <path id="Trazado_190739" data-name="Trazado 190739" d="M28.509,114.172c-9.249-11.926-14.087-27.7-13.622-44.43s6.174-32.27,16.076-43.771c8.9-10.343,20.194-16.179,32.005-16.607q-1.124-.091-2.257-.118c-12.626-.28-24.795,5.624-34.266,16.625-9.9,11.5-15.61,27.045-16.075,43.771s4.372,32.5,13.622,44.43c8.847,11.408,20.673,17.844,33.3,18.124.756.017,1.509.01,2.261-.017-11.773-.953-22.725-7.282-31.043-18.007" transform="translate(-4.315 -3.855)" fill="#cf931d"/>
        <path id="Trazado_190740" data-name="Trazado 190740" d="M107.94,87.963a12.663,12.663,0,0,0-8.814-5.983c7.407-3.011,11.274-8.666,11.479-16.922q.207-8.323-4.762-13.433a14.652,14.652,0,0,0-8.29-4.268l.255-10.229-4.594-.115L84.9,38.171l-4.978-.124-.181.542-2.907.235L76.6,48.216l-6.6.44L68.3,117.4l6.578.25-.233,9.392,8.04.42.236-9.506,4.516.172L87.2,127.7l8.35.435.247-9.947a16.2,16.2,0,0,0,9.945-4.492q5.067-5,5.3-13.764a20.692,20.692,0,0,0-3.094-11.966M82.18,60.794l8.442-.4a5.382,5.382,0,0,1,4.524,1.767q1.694,1.91,1.6,5.737a8.747,8.747,0,0,1-1.888,5.81,6.153,6.153,0,0,1-4.618,2.046l-8.438.209Zm7.012-13.419-1.069.072,1.1-1.169Zm6.139,55.648a5.611,5.611,0,0,1-4.52,2.057l-9.727-.18.4-15.966,9.886-.053A5.106,5.106,0,0,1,95.7,91.1a9.53,9.53,0,0,1,1.561,6.025,9.066,9.066,0,0,1-1.935,5.9" transform="translate(-28.504 -15.448)" fill="#cf931d"/>
        <path id="Trazado_190741" data-name="Trazado 190741" d="M99.808,87.857a13.083,13.083,0,0,0-9.082-5.989c7.626-3.005,11.6-8.658,11.81-16.914q.207-8.322-4.914-13.436a15.267,15.267,0,0,0-8.542-4.274l.254-10.231-8.627.672-.238,9.569-4.662.3.236-9.506-8.307.647L67.5,48.086l-6.792.436L59,117.266l6.776.255-.234,9.392,8.281.425.236-9.506,4.651.175-.238,9.57,8.6.442.247-9.947a16.885,16.885,0,0,0,10.239-4.485q5.215-4.993,5.445-13.761a20.254,20.254,0,0,0-3.2-11.969M73.257,60.669l8.695-.394a5.634,5.634,0,0,1,4.66,1.77q1.746,1.91,1.652,5.737a8.568,8.568,0,0,1-1.94,5.808,6.413,6.413,0,0,1-4.754,2.043l-8.69.2Zm13.575,42.239a5.844,5.844,0,0,1-4.653,2.054l-10.018-.188.4-15.966,10.181-.046a5.319,5.319,0,0,1,4.469,2.222,9.334,9.334,0,0,1,1.612,6.026,8.888,8.888,0,0,1-1.989,5.9" transform="translate(-24.624 -15.448)" fill="#fdd77e"/>
        <g id="Grupo_144305" data-name="Grupo 144305" transform="translate(0)" opacity="0.52">
          <g id="Grupo_144304" data-name="Grupo 144304">
            <g id="Grupo_144303" data-name="Grupo 144303" clip-path="url(#clip-path-3)">
              <path id="Trazado_190742" data-name="Trazado 190742" d="M70.957.331,56.545.011a46.4,46.4,0,0,0-22.54,5.348L5.874,37.644A79.567,79.567,0,0,0,.032,65.653a81.291,81.291,0,0,0,1.1,15.862L71.845.364c-.3-.012-.591-.027-.888-.033" transform="translate(0 0)" fill="#ffebc2"/>
              <path id="Trazado_190743" data-name="Trazado 190743" d="M8.887,99.788,90.846,5.724a46.588,46.588,0,0,0-4.417-1.632L7.113,95.123q.813,2.382,1.774,4.665" transform="translate(-2.969 -1.708)" fill="#ffebc2"/>
              <path id="Trazado_190744" data-name="Trazado 190744" d="M45.719,141.675,130.266,44.64A65.177,65.177,0,0,0,123.4,34.155L36.029,134.435a52.867,52.867,0,0,0,9.69,7.241" transform="translate(-15.037 -14.255)" fill="#ffebc2"/>
              <path id="Trazado_190745" data-name="Trazado 190745" d="M90.61,171.929l7.767.172L161.44,99.724a80.4,80.4,0,0,0-.874-8.177L90.531,171.926l.079,0" transform="translate(-37.784 -38.208)" fill="#ffebc2"/>
            </g>
          </g>
        </g>
      </g>
    </g>
  </g>
</svg>
