<svg xmlns="http://www.w3.org/2000/svg" xmlns:xlink="http://www.w3.org/1999/xlink" width="129.84" height="130.376" viewBox="0 0 129.84 130.376">
  <defs>
    <clipPath id="clip-path">
      <rect id="Rectángulo_43590" data-name="Rectángulo 43590" width="78.159" height="78.151" fill="#4dd0e1"/>
    </clipPath>
  </defs>
  <g id="Grupo_144394" data-name="Grupo 144394" transform="translate(-258 -6278.624)">
    <path id="Trazado_190880" data-name="Trazado 190880" d="M64.92,0a64.956,64.956,0,1,0,64.92,64.957A64.938,64.938,0,0,0,64.92,0" transform="translate(258 6278.624)" fill="#f0f0f0"/>
    <g id="Grupo_144387" data-name="Grupo 144387" transform="translate(283.84 6330.849)">
      <g id="Grupo_144386" data-name="Grupo 144386" transform="translate(0 0)" clip-path="url(#clip-path)">
        <path id="Trazado_190968" data-name="Trazado 190968" d="M56.912,0q.711,0,1.4.034.044.7.046,1.416a19.977,19.977,0,0,1-4.374,12.81,15.716,15.716,0,0,1,1.984-.139,20.835,20.835,0,0,1,15.283,6.323,24.289,24.289,0,0,1,2.587,3.121q8.794,12.37-.324,35.043a46.837,46.837,0,0,1-6.7,11.464q-.793,1.008-1.647,2Q57.191,81.3,46.306,76.526a17.661,17.661,0,0,0-7.218-1.358,17.71,17.71,0,0,0-7.229,1.358q-10.892,4.769-18.88-4.457-.854-.988-1.648-2A46.85,46.85,0,0,1,4.648,58.61q-9.125-22.674-.337-35.043a24.329,24.329,0,0,1,2.6-3.121,20.832,20.832,0,0,1,15.282-6.323,27.038,27.038,0,0,1,8.32,1.693L26.823.07h9.887l2.332,9.967A21.828,21.828,0,0,1,42.187,6.1,20.074,20.074,0,0,1,56.912,0" transform="translate(0 0)" fill="#4dd0e1" fill-rule="evenodd"/>
      </g>
    </g>
    <path id="Trazado_190969" data-name="Trazado 190969" d="M109.224,39.467a1.392,1.392,0,1,0,2.011,1.925,23.713,23.713,0,0,1,33.5-.736,1.392,1.392,0,1,0,1.924-2.011,26.5,26.5,0,0,0-37.437.822" transform="translate(194.956 6261.696)" fill="#ffa726"/>
    <path id="Trazado_190970" data-name="Trazado 190970" d="M122.36,57.151a1.392,1.392,0,1,0,2.011,1.925,16.116,16.116,0,0,1,22.768-.5,1.392,1.392,0,1,0,1.924-2.011,18.9,18.9,0,0,0-26.7.587" transform="translate(187.305 6250.033)" fill="#ffa726"/>
    <path id="Trazado_190971" data-name="Trazado 190971" d="M137.78,73.909a1.392,1.392,0,1,0,2.011,1.925,7.2,7.2,0,0,1,10.167-.223,1.392,1.392,0,0,0,1.924-2.012,9.982,9.982,0,0,0-14.1.31" transform="translate(178.324 6238.671)" fill="#ffa726"/>
  </g>
</svg>
