<svg xmlns="http://www.w3.org/2000/svg" xmlns:xlink="http://www.w3.org/1999/xlink" width="129.84" height="137.376" viewBox="0 0 129.84 137.376">
  <defs>
    <clipPath id="clip-path">
      <rect id="Rectángulo_43581" data-name="Rectángulo 43581" width="113.095" height="107.25" fill="#4dd0e1"/>
    </clipPath>
  </defs>
  <g id="Grupo_144420" data-name="Grupo 144420" transform="translate(-614.719 -6302.624)">
    <path id="Trazado_190922" data-name="Trazado 190922" d="M64.92,0a64.956,64.956,0,1,0,64.92,64.957A64.938,64.938,0,0,0,64.92,0" transform="translate(614.719 6302.624)" fill="#ffe490"/>
    <g id="Grupo_144368" data-name="Grupo 144368" transform="translate(623.719 6332.75)">
      <g id="Grupo_144367" data-name="Grupo 144367" transform="translate(0 0)" clip-path="url(#clip-path)">
        <path id="Trazado_190923" data-name="Trazado 190923" d="M28.48,9.65v3.633A11.651,11.651,0,0,0,24.1,15.316,8.427,8.427,0,0,0,20.782,22.4a10.138,10.138,0,0,0,.79,4.184,8.525,8.525,0,0,0,2.387,3.158c.065.059.131.118.2.176a20.92,20.92,0,0,0,4.322,2.526l.3.139c.29.131.567.257.83.374q2.819,1.288,3.553,1.738a4.439,4.439,0,0,1,1.184,1.026,1.955,1.955,0,0,1,.374,1.164,2.126,2.126,0,0,1-.927,1.776,4.929,4.929,0,0,1-2.9.692,16.942,16.942,0,0,1-2.409-.179,22.9,22.9,0,0,1-2.644-.552c-.185-.051-.369-.1-.553-.158a26.615,26.615,0,0,1-4.717-1.895v7.933a20.576,20.576,0,0,0,4.618,1.619,23.611,23.611,0,0,0,3.3.375v3.1h7.066V45.967a13.556,13.556,0,0,0,2.013-.69,10.387,10.387,0,0,0,4.481-3.71A9.686,9.686,0,0,0,43.6,36.138a8.866,8.866,0,0,0-1.658-5.507,7.357,7.357,0,0,0-.612-.711,17.1,17.1,0,0,0-5.309-3.414c-.162-.073-.32-.144-.474-.217-.176-.081-.347-.159-.513-.237a30.44,30.44,0,0,1-4.422-2.328,2.15,2.15,0,0,1-1.005-1.738,1.812,1.812,0,0,1,.789-1.5,4.1,4.1,0,0,1,2.507-.611,13.259,13.259,0,0,1,2.644.275,21.675,21.675,0,0,1,3.316.988q.975.371,2.013.848L43.6,15.118a26.912,26.912,0,0,0-8.053-2.23V9.65ZM2.466,29.625A28.61,28.61,0,0,1,11.131,8.664,28.607,28.607,0,0,1,32.092,0,28.54,28.54,0,0,1,53.034,8.664a28.569,28.569,0,0,1,8.685,20.961,28.5,28.5,0,0,1-8.685,20.941,28.494,28.494,0,0,1-20.942,8.684,28.561,28.561,0,0,1-20.961-8.684A28.536,28.536,0,0,1,2.466,29.625" transform="translate(0.454 0)" fill="#4dd0e1" fill-rule="evenodd"/>
        <path id="Trazado_190924" data-name="Trazado 190924" d="M77.6,64.513v-.019H68.462a8.326,8.326,0,0,1,.847-1.6,5.665,5.665,0,0,1,4.955-2.6,12.64,12.64,0,0,1,3.908.592,29.806,29.806,0,0,1,3.652,1.42l2.7-6.987a23.335,23.335,0,0,0-10.186-2.309,16.636,16.636,0,0,0-8.486,2.072,13.591,13.591,0,0,0-5.527,5.94,17.384,17.384,0,0,0-1.283,3.475H54.467v4.519h3.948c-.014.327-.019.653-.019.985v.3c0,.328,0,.65.019.97H54.467v4.519h4.579a17.039,17.039,0,0,0,1.283,3.492,13.6,13.6,0,0,0,5.527,5.942,16.63,16.63,0,0,0,8.486,2.091,23.355,23.355,0,0,0,10.186-2.328l-2.7-6.989a29.794,29.794,0,0,1-3.652,1.442,12.64,12.64,0,0,1-3.908.592A5.682,5.682,0,0,1,69.309,77.4a8.738,8.738,0,0,1-.867-1.616H73.2l1.756-4.519h-7.4c-.014-.333-.021-.676-.021-1.027v-.179c0-.356.007-.707.021-1.046h8.29ZM51.665,49.2a28.605,28.605,0,0,1,20.961-8.666,29.621,29.621,0,0,1,29.626,29.626A29.651,29.651,0,0,1,72.626,99.784,29.617,29.617,0,0,1,43,70.158,28.6,28.6,0,0,1,51.665,49.2" transform="translate(7.922 7.467)" fill="#4dd0e1" fill-rule="evenodd"/>
        <path id="Trazado_190925" data-name="Trazado 190925" d="M0,80.121,9.217,52.784l.02-.019L35.112,65.574,24,70.193Q31.28,87.458,51.14,87.542,39.2,92.552,29.9,90.818c-.42-.083-.834-.175-1.243-.277q-.778-.181-1.54-.413-9.9-3.03-16.559-14.368Z" transform="translate(0 9.72)" fill="#ffa726" fill-rule="evenodd"/>
        <path id="Trazado_190926" data-name="Trazado 190926" d="M103.457,16.4,94.24,43.735l-.02.02L68.344,30.944l11.112-4.616Q72.177,9.064,52.317,8.977,64.261,3.968,73.555,5.7q.629.124,1.242.276c.519.122,1.033.259,1.541.416q9.9,3.029,16.559,14.368Z" transform="translate(9.638 0.968)" fill="#ffa726" fill-rule="evenodd"/>
      </g>
    </g>
  </g>
</svg>
