<svg xmlns="http://www.w3.org/2000/svg" width="190" height="130" viewBox="0 0 190 130">
  <g id="t1-i1" transform="translate(-180 -404)">
    <rect id="Rectangle_5141" data-name="Rectangle 5141" width="190" height="130" transform="translate(180 404)" fill="#dbf6f9"/>
    <g id="disconnected" transform="translate(124.672 427)">
      <g id="Group_59092" data-name="Group 59092" transform="translate(84.076 1.245)">
        <g id="Group_59087" data-name="Group 59087" transform="translate(0 0)">
          <path id="Path_102141" data-name="Path 102141" d="M145.34,43.277H90.333v-31.3A4.472,4.472,0,0,1,94.805,7.5h46.062a4.472,4.472,0,0,1,4.472,4.472Z" transform="translate(-90.333 -7.5)" fill="#fff5d4"/>
        </g>
      </g>
      <g id="Group_59099" data-name="Group 59099" transform="translate(102.58 51.221)">
        <circle id="Ellipse_4057" data-name="Ellipse 4057" cx="8.999" cy="8.999" r="8.999" fill="#ffca28"/>
      </g>
      <g id="Group_59100" data-name="Group 59100" transform="translate(104.063 52.704)">
        <path id="Path_102151" data-name="Path 102151" d="M223.192,317.462a9,9,0,0,1-12.463,12.463,9,9,0,1,0,12.463-12.463Z" transform="translate(-210.729 -317.462)" fill="#ffa726"/>
      </g>
      <g id="Group_59101" data-name="Group 59101" transform="translate(82.83)">
        <path id="Path_102152" data-name="Path 102152" d="M134.61,0H88.548A5.724,5.724,0,0,0,82.83,5.718v22a1.245,1.245,0,0,0,2.49,0v-22A3.231,3.231,0,0,1,88.547,2.49H134.61a3.231,3.231,0,0,1,3.227,3.227v5.945a1.245,1.245,0,1,0,2.49,0V5.718A5.724,5.724,0,0,0,134.61,0Z" transform="translate(-82.83)"/>
        <path id="Path_102153" data-name="Path 102153" d="M139.083,97.75A1.245,1.245,0,0,0,137.838,99v18.3H85.32v-2.245a1.245,1.245,0,1,0-2.49,0v6.173a5.724,5.724,0,0,0,5.717,5.717h14.208l-2.84,9.584H98.163a1.245,1.245,0,0,0,0,2.49h3.542a10.235,10.235,0,0,0,5.945,12.182v4.108h-3.7a2.338,2.338,0,0,0-2.24,1.678H98.553a1.245,1.245,0,0,0,0,2.49h3.057v2.877H86.085a1.245,1.245,0,0,0,0,2.49h15.621a2.339,2.339,0,0,0,2.24,1.678h15.266a2.339,2.339,0,0,0,2.24-1.678h34.921a1.245,1.245,0,1,0,0-2.49H121.547v-2.876h33.581a1.245,1.245,0,1,0,0-2.49H121.452a2.339,2.339,0,0,0-2.24-1.678h-3.7V151.2a10.235,10.235,0,0,0,5.945-12.182h3.542a1.245,1.245,0,0,0,0-2.49h-1.753l-2.84-9.584H134.61a5.724,5.724,0,0,0,5.717-5.717V98.995a1.245,1.245,0,0,0-1.245-1.245ZM119.057,157.8v6.233H104.1V157.8Zm-8.917-2.491v-3.426a10.1,10.1,0,0,0,2.876,0v3.426Zm1.438-5.813a7.754,7.754,0,1,1,7.754-7.754A7.762,7.762,0,0,1,111.579,149.495Zm9.065-12.967h-.252a10.235,10.235,0,0,0-17.626,0h-.252l2.84-9.584H117.8Zm17.193-15.3a3.231,3.231,0,0,1-3.227,3.227H88.548a3.231,3.231,0,0,1-3.227-3.227v-1.438h52.517Z" transform="translate(-82.83 -81.522)"/>
        <path id="Path_102154" data-name="Path 102154" d="M96.185,457.05h6.657a1.245,1.245,0,1,0,0-2.49H96.185a1.245,1.245,0,1,0,0,2.49Z" transform="translate(-92.93 -379.096)"/>
        <path id="Path_100487" data-name="Path 100487" d="M494.106,4031.832a.971.971,0,0,0-1.373,0l-.374.374a.97.97,0,0,0,0,1.373l2.735,2.735a.97.97,0,0,0,1.373,0l5.631-5.493a.972.972,0,0,0,0-1.373l-.374-.375a.972.972,0,0,0-1.373,0l-4.57,4.433Z" transform="translate(-468.479 -3972.58)"/>
      </g>
    </g>
    <g id="disconnected-2" data-name="disconnected" transform="translate(192.17 427)">
      <g id="Group_59092-2" data-name="Group 59092" transform="translate(84.076 1.245)">
        <g id="Group_59087-2" data-name="Group 59087" transform="translate(0 0)">
          <path id="Path_102141-2" data-name="Path 102141" d="M145.34,43.277H90.333v-31.3A4.472,4.472,0,0,1,94.805,7.5h46.062a4.472,4.472,0,0,1,4.472,4.472Z" transform="translate(-90.333 -7.5)" fill="#a6f5ff"/>
        </g>
      </g>
      <g id="Group_59099-2" data-name="Group 59099" transform="translate(102.58 51.221)">
        <circle id="Ellipse_4057-2" data-name="Ellipse 4057" cx="8.999" cy="8.999" r="8.999" fill="#ffca28"/>
      </g>
      <g id="Group_59100-2" data-name="Group 59100" transform="translate(104.063 52.704)">
        <path id="Path_102151-2" data-name="Path 102151" d="M223.192,317.462a9,9,0,0,1-12.463,12.463,9,9,0,1,0,12.463-12.463Z" transform="translate(-210.729 -317.462)" fill="#ffa726"/>
      </g>
      <g id="Group_59101-2" data-name="Group 59101" transform="translate(82.83)">
        <path id="Path_102152-2" data-name="Path 102152" d="M134.61,0H88.548A5.724,5.724,0,0,0,82.83,5.718v22a1.245,1.245,0,0,0,2.49,0v-22A3.231,3.231,0,0,1,88.547,2.49H134.61a3.231,3.231,0,0,1,3.227,3.227v5.945a1.245,1.245,0,1,0,2.49,0V5.718A5.724,5.724,0,0,0,134.61,0Z" transform="translate(-82.83)"/>
        <path id="Path_102153-2" data-name="Path 102153" d="M139.083,97.75A1.245,1.245,0,0,0,137.838,99v18.3H85.32v-2.245a1.245,1.245,0,1,0-2.49,0v6.173a5.724,5.724,0,0,0,5.717,5.717h14.208l-2.84,9.584H98.163a1.245,1.245,0,0,0,0,2.49h3.542a10.235,10.235,0,0,0,5.945,12.182v4.108h-3.7a2.338,2.338,0,0,0-2.24,1.678H98.553a1.245,1.245,0,0,0,0,2.49h3.057v2.877H86.085a1.245,1.245,0,0,0,0,2.49h15.621a2.339,2.339,0,0,0,2.24,1.678h15.266a2.339,2.339,0,0,0,2.24-1.678h15.621a1.245,1.245,0,1,0,0-2.49H121.547v-2.876h15.525a1.245,1.245,0,1,0,0-2.49H121.452a2.339,2.339,0,0,0-2.24-1.678h-3.7V151.2a10.235,10.235,0,0,0,5.945-12.182h3.542a1.245,1.245,0,0,0,0-2.49h-1.753l-2.84-9.584H134.61a5.724,5.724,0,0,0,5.717-5.717V98.995a1.245,1.245,0,0,0-1.245-1.245ZM119.057,157.8v6.233H104.1V157.8Zm-8.917-2.491v-3.426a10.1,10.1,0,0,0,2.876,0v3.426Zm1.438-5.813a7.754,7.754,0,1,1,7.754-7.754A7.762,7.762,0,0,1,111.579,149.495Zm9.065-12.967h-.252a10.235,10.235,0,0,0-17.626,0h-.252l2.84-9.584H117.8Zm17.193-15.3a3.231,3.231,0,0,1-3.227,3.227H88.548a3.231,3.231,0,0,1-3.227-3.227v-1.438h52.517Z" transform="translate(-82.83 -81.522)"/>
        <path id="Path_102154-2" data-name="Path 102154" d="M96.185,457.05h6.657a1.245,1.245,0,1,0,0-2.49H96.185a1.245,1.245,0,1,0,0,2.49Z" transform="translate(-92.93 -379.096)"/>
        <path id="Path_102155" data-name="Path 102155" d="M494.106,4031.832a.971.971,0,0,0-1.373,0l-.374.374a.97.97,0,0,0,0,1.373l2.735,2.735a.97.97,0,0,0,1.373,0l5.631-5.493a.972.972,0,0,0,0-1.373l-.374-.375a.972.972,0,0,0-1.373,0l-4.57,4.433Z" transform="translate(-468.479 -3972.58)"/>
      </g>
    </g>
  </g>
</svg>
