<svg id="t1-i4" xmlns="http://www.w3.org/2000/svg" width="80" height="80" viewBox="0 0 80 80">
  <g id="Group_59075" data-name="Group 59075" transform="translate(1.172 1.172)">
    <g id="Group_59070" data-name="Group 59070" transform="translate(0 0)">
      <path id="Path_102127" data-name="Path 102127" d="M46.328,32.754H7.5v-22.1A3.157,3.157,0,0,1,10.657,7.5H43.171a3.157,3.157,0,0,1,3.157,3.157Z" transform="translate(-7.5 -7.5)" fill="#a6f5ff"/>
    </g>
  </g>
  <g id="Group_59081" data-name="Group 59081" transform="translate(40 40)">
    <g id="Group_59076" data-name="Group 59076">
      <path id="Path_102132" data-name="Path 102132" d="M294.828,281.254H256v-22.1A3.157,3.157,0,0,1,259.157,256h32.515a3.157,3.157,0,0,1,3.157,3.157Z" transform="translate(-256 -256)" fill="#ffca28"/>
    </g>
  </g>
  <g id="Group_59083" data-name="Group 59083" transform="translate(18.06 62.729)">
    <g id="Group_59082" data-name="Group 59082">
      <circle id="Ellipse_4055" data-name="Ellipse 4055" cx="2.525" cy="2.525" r="2.525" fill="#4dd0e1"/>
    </g>
  </g>
  <g id="Group_59085" data-name="Group 59085" transform="translate(56.889 12.22)">
    <g id="Group_59084" data-name="Group 59084">
      <circle id="Ellipse_4056" data-name="Ellipse 4056" cx="2.525" cy="2.525" r="2.525" fill="#4dd0e1"/>
    </g>
  </g>
  <g id="Group_59086" data-name="Group 59086" transform="translate(0 0)">
    <path id="Path_102137" data-name="Path 102137" d="M41.172,28.32V4.328A4.333,4.333,0,0,0,36.844,0H4.328A4.333,4.333,0,0,0,0,4.328V8.787a1.172,1.172,0,1,0,2.344,0V4.328A1.987,1.987,0,0,1,4.328,2.344H36.844a1.987,1.987,0,0,1,1.984,1.984V25.254H2.344v-11a1.172,1.172,0,0,0-2.344,0V28.32a4.334,4.334,0,0,0,4.329,4.329h9.637l-1.831,6.18H11.116a1.172,1.172,0,1,0,0,2.344H30.056a1.172,1.172,0,1,0,0-2.344H29.037l-1.831-6.18h9.637a4.334,4.334,0,0,0,4.329-4.329ZM26.593,38.828H14.579l1.831-6.18h8.352ZM36.843,30.3H4.329A1.987,1.987,0,0,1,2.344,28.32V27.6H38.828v.722A1.987,1.987,0,0,1,36.843,30.3Z" transform="translate(0 0)"/>
    <path id="Path_102138" data-name="Path 102138" d="M288.5,257.161a1.172,1.172,0,0,0,1.172-1.172v-3.161a4.333,4.333,0,0,0-4.328-4.328H252.828a4.333,4.333,0,0,0-4.328,4.328V276.82a4.333,4.333,0,0,0,4.328,4.328h9.637l-1.831,6.18h-1.019a1.172,1.172,0,0,0,0,2.344h18.941a1.172,1.172,0,0,0,0-2.344h-1.019l-1.831-6.18h9.638a4.333,4.333,0,0,0,4.328-4.328V261.458a1.172,1.172,0,0,0-2.344,0v12.3H261.965a1.172,1.172,0,1,0,0,2.344h25.363v.722a1.987,1.987,0,0,1-1.984,1.984H252.828a1.987,1.987,0,0,1-1.984-1.984V276.1H256.5a1.172,1.172,0,0,0,0-2.344h-5.652V252.828a1.987,1.987,0,0,1,1.984-1.984h32.516a1.987,1.987,0,0,1,1.984,1.984v3.161A1.172,1.172,0,0,0,288.5,257.161Zm-13.407,30.167H263.079l1.831-6.18h8.352Z" transform="translate(-209.672 -209.672)"/>
    <path id="Path_102139" data-name="Path 102139" d="M126.148,301.028H115.29a3.713,3.713,0,0,0-2.334-2.334V282a1.172,1.172,0,1,0-2.344,0v16.7a3.7,3.7,0,1,0,4.678,4.678h10.857a1.172,1.172,0,0,0,0-2.344Zm-14.363,2.525a1.354,1.354,0,1,1,1.354-1.354A1.355,1.355,0,0,1,111.784,303.554Z" transform="translate(-91.198 -236.946)"/>
    <path id="Path_102140" data-name="Path 102140" d="M282,75.58h10.858a3.713,3.713,0,0,0,2.334,2.334v16.7a1.172,1.172,0,0,0,2.344,0v-16.7a3.7,3.7,0,1,0-4.678-4.678H282a1.172,1.172,0,0,0,0,2.344Zm14.363-2.525a1.354,1.354,0,1,1-1.354,1.354A1.355,1.355,0,0,1,296.36,73.055Z" transform="translate(-236.946 -59.662)"/>
  </g>
</svg>
