<svg xmlns="http://www.w3.org/2000/svg" width="50" height="50.001" viewBox="0 0 50 50.001">
  <g id="t2-i2" transform="translate(-482.045 -4010.384)">
    <path id="Path_100486" data-name="Path 100486" d="M507.045,4060.385a25,25,0,1,1,25-25A25.029,25.029,0,0,1,507.045,4060.385Zm0-47.008a22.007,22.007,0,1,0,22.007,22.007A22.032,22.032,0,0,0,507.045,4013.377Z" transform="translate(0 0)" fill="#12263f"/>
    <path id="Path_100487" data-name="Path 100487" d="M498.935,4039.063a3.278,3.278,0,0,0-4.637,0l-1.263,1.264a3.275,3.275,0,0,0,0,4.636l9.236,9.236a3.277,3.277,0,0,0,4.635,0l19.014-18.55a3.28,3.28,0,0,0,0-4.636l-1.265-1.264a3.279,3.279,0,0,0-4.637,0l-15.431,14.969Z" transform="translate(-3.137 -5.756)" fill="#ffca28"/>
    <path id="Path_100488" data-name="Path 100488" d="M503.908,4055.975a4.744,4.744,0,0,1-3.376-1.4l-9.235-9.237a4.772,4.772,0,0,1,0-6.751l1.262-1.263a4.745,4.745,0,0,1,3.377-1.4h0a4.741,4.741,0,0,1,3.376,1.4l4.611,4.612,14.372-13.943a4.775,4.775,0,0,1,6.736.016l1.265,1.265a4.782,4.782,0,0,1,0,6.751l-19.028,18.564A4.732,4.732,0,0,1,503.908,4055.975Zm-7.971-17.057a1.771,1.771,0,0,0-1.26.522l-1.263,1.264a1.778,1.778,0,0,0,0,2.518l9.237,9.239a1.78,1.78,0,0,0,2.519,0L524.2,4033.9a1.782,1.782,0,0,0-.014-2.507l-1.264-1.264a1.783,1.783,0,0,0-2.521,0l-16.5,16.01-6.7-6.7a1.768,1.768,0,0,0-1.26-.522Z" transform="translate(-2.456 -5.076)" fill="#12263f"/>
  </g>
</svg>
