<svg xmlns="http://www.w3.org/2000/svg" width="64" height="64" viewBox="0 0 64 64">
  <g id="t3-i3" transform="translate(-518 -819)">
    <path id="Path_101941" data-name="Path 101941" d="M587.727-923.228c-1.426.717-2.89,1.356-4.333,2.041a10.276,10.276,0,0,0-1.742.887c.676.464,1.415.822,2.119,1.24,2.682,1.493,5.337,3.039,8.03,4.512.975-.563,2-1.047,2.938-1.671-.006-.044-.018-.133-.024-.179-.716-.411-1.44-.814-2.184-1.171.594-1.025,1.507-1.83,2.139-2.835-1.474.424-2.814,1.213-4.279,1.65a24.416,24.416,0,0,0,2.147-2.655c-1.271.344-2.437.982-3.671,1.433-.965.347-1.874.852-2.87,1.108,1.155-1.365,2.57-2.488,3.742-3.837-.618-.275-1.312-.9-2.011-.524m2.921-1.344a6.077,6.077,0,0,0-1.6.853,18.2,18.2,0,0,0,1.769.8c-.527.87-1.481,1.375-2.023,2.235a12.218,12.218,0,0,0,1.814-.656c1.439-.59,2.869-1.206,4.32-1.763-.615.962-1.531,1.692-2.139,2.659,1.4-.475,2.751-1.091,4.116-1.661-1,1.488-2.266,2.774-3.3,4.237a17.282,17.282,0,0,0,1.821,1.026c.313.169.636-.041.906-.194,1.891-1.133,3.877-2.1,5.746-3.263a11.245,11.245,0,0,0-1.919-.974q-3.967-1.848-7.936-3.692c-.551-.31-1.069.231-1.579.391m-.268-.55a11.217,11.217,0,0,1,1.426-.635,10.78,10.78,0,0,1,1.84.789c3.124,1.4,6.213,2.876,9.336,4.276a5.658,5.658,0,0,1,.663.387c-3.83,2.217-7.715,4.34-11.565,6.524-.315.248-.656-.018-.941-.174-3.663-2.149-7.389-4.187-11.043-6.346a10.881,10.881,0,0,1,1.838-.924c2.818-1.3,5.628-2.6,8.445-3.9m16.954,10.435q-6.1,3.829-12.211,7.643c-.23.147-.465.347-.417.652q0,7.588-.016,15.179a9.171,9.171,0,0,0,1.83-1.254c3.87-2.893,7.766-5.749,11.653-8.618.142-.128.335-.23.4-.418.215-3.762.584-7.515.777-11.28.136-.985.058-1.99.265-2.968l-.367-.047a11.052,11.052,0,0,0-1.916,1.111m-33.217-1.5a11.93,11.93,0,0,0,.123,2.84c.231,1.834.153,3.69.359,5.525.183,2.161.268,4.336.5,6.49a18.915,18.915,0,0,0,1.552,1.169q5.968,4.365,11.879,8.8a1.42,1.42,0,0,0,.665.281c-.011-5.236.01-10.473-.01-15.709-.02-.043-.062-.129-.082-.172-4.584-2.879-9.189-5.739-13.773-8.621a3.8,3.8,0,0,0-1.209-.609m16.793-11.229c-4.764,2.208-9.566,4.336-14.312,6.582a2.806,2.806,0,0,0,.8.625c2.679,1.46,5.283,3.05,7.939,4.55,2.034,1.171,4.068,2.342,6.088,3.536a.757.757,0,0,0,.814.055q7.414-4.278,14.822-8.567c0-.065-.006-.2-.007-.261-1.152-.428-2.241-1-3.366-1.493-3.766-1.705-7.518-3.441-11.271-5.175a1.518,1.518,0,0,0-1.51.146m.408-2.286c.771-.357,1.527.18,2.23.451,5.9,2.624,11.835,5.142,17.723,7.78.428.189.907.454,1.011.953a10.59,10.59,0,0,1-.1,2.495c-.02.858-.232,1.7-.193,2.557-.4,4.222-.656,8.461-1.089,12.682,0,1.118-.16,2.224-.2,3.339a1.123,1.123,0,0,1-.533.773c-2.068,1.569-4.147,3.123-6.178,4.738-.3.186-.2.561-.215.857a10.616,10.616,0,0,1-.354,3.66,11.026,11.026,0,0,1-8.032,7.155,12.2,12.2,0,0,1-6,.129,11.711,11.711,0,0,1-6.784-4,9.6,9.6,0,0,1-2.163-5.237c-.041-.689,0-1.379-.026-2.068-2.006-1.59-4.051-3.132-6.082-4.689a5.956,5.956,0,0,1-1.1-.884,3.781,3.781,0,0,1-.19-1.58c-.318-3.047-.537-6.1-.819-9.156-.15-1.9-.24-3.811-.42-5.714-.01-1.663-.432-3.305-.3-4.971a1.1,1.1,0,0,1,.7-.89c3.395-1.544,6.822-3.011,10.239-4.5,2.988-1.236,5.9-2.652,8.887-3.878" transform="translate(-41.468 1756.822)" fill="#ffa726"/>
    <rect id="Rectangle_7650" data-name="Rectangle 7650" width="64" height="64" transform="translate(518 819)" fill="none"/>
  </g>
</svg>
