<svg xmlns="http://www.w3.org/2000/svg" width="64" height="64" viewBox="0 0 64 64">
  <g id="t3-i2" transform="translate(-272 -820)">
    <path id="Path_101940" data-name="Path 101940" d="M-158.36-825.108a2.872,2.872,0,0,1,2-.762,2.63,2.63,0,0,1,1.843.795,3.379,3.379,0,0,1,.71,1.176q2.419,5.7,4.837,11.392,1.917-4.548,3.839-9.095a7.094,7.094,0,0,1,2.722-3.373,6.765,6.765,0,0,1,4.139-.863,6.991,6.991,0,0,1,4.517,2.548,10.254,10.254,0,0,1,4.605-2.471,7.236,7.236,0,0,1,1.792-.1,7.266,7.266,0,0,1,3.511,1,6.273,6.273,0,0,1,1.7,1.578,8.657,8.657,0,0,1,6.907-2.549,7.008,7.008,0,0,1,3.424,1.308,6.324,6.324,0,0,1,2.5,4,11.218,11.218,0,0,1,.105,2.129q0,4.867,0,9.733a3.194,3.194,0,0,1-1.124,2.508,2.929,2.929,0,0,1-2.325.507,2.554,2.554,0,0,1-1.612-.969,3.688,3.688,0,0,1-.649-2.42q0-4.269,0-8.538a4.8,4.8,0,0,0-.134-1.385,2.681,2.681,0,0,0-1.138-1.558,3.21,3.21,0,0,0-2.441-.352,2.788,2.788,0,0,0-1.718,1.188,3.047,3.047,0,0,0-.456,1.669c-.005,3.076,0,6.152-.005,9.228a3.492,3.492,0,0,1-.713,2.248,2.582,2.582,0,0,1-1.65.906,2.9,2.9,0,0,1-2.409-.66,3.328,3.328,0,0,1-.947-2.434q0-4.646,0-9.292A3.077,3.077,0,0,0-127.2-820a2.739,2.739,0,0,0-1.794-.946,3.181,3.181,0,0,0-2.44.659,2.878,2.878,0,0,0-.981,2.2q0,4.362,0,8.725a5.909,5.909,0,0,1-.117,1.531,2.809,2.809,0,0,1-1.158,1.734,3.026,3.026,0,0,1-2.129.4,2.559,2.559,0,0,1-1.651-.965,3.566,3.566,0,0,1-.667-2.2q0-5.615,0-11.231a.839.839,0,0,0-.477-.792.808.808,0,0,0-1.1.352q-2.419,5.328-4.863,10.645a14.36,14.36,0,0,1-1.64,3.012,3.206,3.206,0,0,1-1.8,1.169,3.742,3.742,0,0,1-3.005-.512,6.274,6.274,0,0,1-1.774-2.436q-3.028-6.549-6.048-13.1a3.31,3.31,0,0,1-.345-1.1,2.634,2.634,0,0,1,.83-2.252" transform="translate(439.21 1666.875)" fill="#ffa726"/>
    <rect id="Rectangle_7651" data-name="Rectangle 7651" width="64" height="64" transform="translate(272 820)" fill="none"/>
  </g>
</svg>
