<svg xmlns="http://www.w3.org/2000/svg" width="64" height="64" viewBox="0 0 64 64">
  <g id="t3-i5" transform="translate(-1017 -820)">
    <g id="Group_58850" data-name="Group 58850" transform="translate(818.333 1753.771)">
      <path id="Path_101946" data-name="Path 101946" d="M254.667-902.771a24,24,0,0,0-24-24,24,24,0,0,0-24,24,24,24,0,0,0,24,24,23.888,23.888,0,0,0,12.011-3.218l1,2.674,9.515-.006-3.371-8.993A23.894,23.894,0,0,0,254.667-902.771ZM238.8-913.733c-2.576-.4-8.889-1.212-8.889-1.212a56.864,56.864,0,0,0,7.929,1.768c5.4.909,6.414,1.817,6.414,1.817-.455.453-1.414.507-3.687.153a8.588,8.588,0,0,0-5.05.455,43.516,43.516,0,0,0-5.58,2.651c-2.5,1.591-3.636,6.06-.682,13.181a34.455,34.455,0,0,1,2.8,12.8c-.429.05-.682-1.566-1.086-2.172s-4.091-6.767-5.959-9.141a67.591,67.591,0,0,0-6.414-6.843,3.8,3.8,0,0,1-.934-3.232c.1-.808-.3-1.945-.353-3.914s1.389-6.944,1.667-7.752a9.809,9.809,0,0,1,1.237-2.2c.253-.328,1.061-2.449,1.364-2.8s.732-.025.884-.152-.884-1.262-.732-1.414.859.151.859.151a.7.7,0,0,1,.606-.631c.278,0,.657.051.884-.227s.379-.2.581-.051a2.207,2.207,0,0,0,1.515-.126c.581-.227.909.2,1.321.606s.6.1.75-.151,1.263.151,4.495,1.162a6.842,6.842,0,0,1,4.747,4.293c.4,1.162.959,1.465,4.394,2.626s3.737,3.081,3.737,3.081C244.1-912.874,241.378-913.329,238.8-913.733Z" fill="#ffa726"/>
      <path id="Path_101947" data-name="Path 101947" d="M345.49-879.536c-1.207-.365-2.348-.124-2.549.539s.615,1.5,1.823,1.862,2.348.124,2.549-.539S346.7-879.171,345.49-879.536Z" transform="translate(-112.381 -38.821)" fill="#ffa726"/>
    </g>
    <rect id="Rectangle_7652" data-name="Rectangle 7652" width="64" height="64" transform="translate(1017 820)" fill="none"/>
  </g>
</svg>
