<svg xmlns="http://www.w3.org/2000/svg" width="64" height="64" viewBox="0 0 64 64">
  <g id="t3-i4" transform="translate(-769 -820)">
    <g id="Group_58849" data-name="Group 58849" transform="translate(1280.005 1731.997)">
      <path id="Path_101942" data-name="Path 101942" d="M-352.218-760.456a5.458,5.458,0,0,0-.824-.068c-8.428.044-16.859-.037-25.285.04-.072,1.645-.012,3.295-.032,4.941.021,4.68-.037,9.359.028,14.037a8.477,8.477,0,0,0,1.066.228c8.348,1.12,16.685,2.336,25.036,3.41C-352.223-745.4-352.241-752.927-352.218-760.456Z" transform="translate(-102.787 -119.13)" fill="#ffa726"/>
      <path id="Path_101943" data-name="Path 101943" d="M-483.338-745.353c-.011-5.036.023-10.073-.016-15.109-2.977-.077-5.956-.009-8.935-.033-3.561.023-7.124-.042-10.685.033q-.026,8,0,15.994c1.86.373,3.757.544,5.635.824,4.653.649,9.312,1.275,13.964,1.93C-483.3-742.926-483.355-744.14-483.338-745.353Z" transform="translate(-0.015 -119.15)" fill="#ffa726"/>
      <path id="Path_101944" data-name="Path 101944" d="M-483.353-867.42c-.012-5.125.026-10.25-.019-15.373-5.928.808-11.858,1.61-17.781,2.46a13.483,13.483,0,0,0-1.836.277c0,5.423-.046,10.85.021,16.273q9.789-.031,19.578,0C-483.309-864.995-483.371-866.208-483.353-867.42Z" transform="translate(0 -18.299)" fill="#ffa726"/>
      <path id="Path_101945" data-name="Path 101945" d="M-378.323-882.081q13.04-.037,26.079-.005c-.019-7.632,0-15.265-.009-22.9-8.693,1.143-17.372,2.406-26.065,3.545a10.381,10.381,0,0,0-.063,1.867q0,7.8,0,15.6A10.916,10.916,0,0,0-378.323-882.081Z" transform="translate(-102.763)" fill="#ffa726"/>
    </g>
    <rect id="Rectangle_7649" data-name="Rectangle 7649" width="64" height="64" transform="translate(769 820)" fill="none"/>
  </g>
</svg>
