<svg xmlns="http://www.w3.org/2000/svg" width="166.722" height="165.667" viewBox="0 0 166.722 165.667">
  <g id="wamp-seeklogo.com" transform="translate(-19 -21)">
    <path id="Trazado_100535" data-name="Trazado 100535" d="M162.015,287.7A39.209,39.209,0,0,1,122.8,326.917H81.925A39.209,39.209,0,0,1,42.707,287.7v-14H19v16.074a60.72,60.72,0,0,0,60.709,60.709h45.3a60.72,60.72,0,0,0,60.709-60.709V273.7H162.015v14Z" transform="translate(0 -163.817)" fill="#f09"/>
    <path id="Trazado_100536" data-name="Trazado 100536" d="M42.707,83.785A39.209,39.209,0,0,1,81.925,44.566H122.8a39.209,39.209,0,0,1,39.218,39.218V98.206h23.707v-16.5A60.72,60.72,0,0,0,125.013,21h-45.3A60.72,60.72,0,0,0,19,81.709v16.5H42.707Z" fill="#f09"/>
    <path id="Trazado_100537" data-name="Trazado 100537" d="M191.467,122.6v65.634a5.663,5.663,0,0,1-11.326,0V164.07H155.66v24.164A5.659,5.659,0,0,1,150,193.9h0a5.659,5.659,0,0,1-5.663-5.663V122.6A29.005,29.005,0,0,0,120.1,151.2v37a28.987,28.987,0,0,0,28.983,28.983h2.04a28.32,28.32,0,0,0,11.08-2.216,30.574,30.574,0,0,0,5.663-3.13,30.573,30.573,0,0,0,5.663,3.13,29.1,29.1,0,0,0,11.08,2.216h2.04A28.987,28.987,0,0,0,215.631,188.2v-37A28.88,28.88,0,0,0,191.467,122.6Z" transform="translate(-65.54 -65.864)" fill="#f09"/>
  </g>
</svg>
