<svg id="xampp" xmlns="http://www.w3.org/2000/svg" width="164.547" height="165.832" viewBox="0 0 164.547 165.832">
  <path id="Trazado_100544" data-name="Trazado 100544" d="M82.228,0H146.3a26.907,26.907,0,0,1,7.907,1.017c5.576,1.7,8.528,5.7,9.685,11.208a32.5,32.5,0,0,1,.595,6.64q.051,22.436.06,44.874,0,40.864-.051,81.728c-.008,3.813-.211,7.669-2.093,11.143-2.088,3.853-4.947,6.9-9.288,8.243a8.427,8.427,0,0,1-2.407.518c-1.852,0-3.655.46-5.5.46q-62.734,0-125.467-.045a25.371,25.371,0,0,1-10.089-1.638,8.4,8.4,0,0,1-1.858-.938C3.677,160.074.883,156.164.284,150.874A50.755,50.755,0,0,1,0,145.16Q.01,81.573.032,17.986a23.831,23.831,0,0,1,.784-7.315C2.83,4.4,7.238.976,13.772.281A43.587,43.587,0,0,1,18.349.013Q50.286-.013,82.227,0Z" transform="translate(0)" fill="#fb7a24" fill-rule="evenodd"/>
  <path id="Trazado_100545" data-name="Trazado 100545" d="M95.253,122.8a33.029,33.029,0,0,1-1.824,7.835c-4.814,11.174-13.02,17.982-25.321,19.338A29.8,29.8,0,0,1,36.1,128.664c-1.464-5.051-1.317-10.2-.786-15.341a43.775,43.775,0,0,1,4.711-15.616,1.655,1.655,0,0,0-.1-1.914A29.585,29.585,0,0,1,35.09,76.554a28.122,28.122,0,0,1,2.881-10.608A30.357,30.357,0,0,1,68.3,49.278c12.778,1.208,24.613,12.231,26.461,24.627.093.622.268,1.233.472,2.151.306-1.662.527-3.034.813-4.393a30.224,30.224,0,0,1,29.03-23.192c15.838-.147,27.566,12.275,29.779,23.811a42.043,42.043,0,0,1,0,14.615,52.076,52.076,0,0,1-4.288,14,2.354,2.354,0,0,0,.177,2.6,29.613,29.613,0,0,1,4.724,17.391,29.962,29.962,0,0,1-22.5,28.024c-17.862,4.3-31.555-6.378-36.163-19.3a41.433,41.433,0,0,1-1.549-6.808Zm32.452-23.1a5.079,5.079,0,0,1,1.181-1.739c4.479-5.952,6.834-12.6,6.309-20.086a9.989,9.989,0,0,0-19.938.74c-.006.446.021.893-.006,1.336-.375,5.8-3.578,8.985-8.431,9.339-.886.065-1.775.144-2.663.147q-9.449.021-18.9.006a27.266,27.266,0,0,0-8.1,1.106c-12.23,3.773-19.361,12.137-21.723,24.6-.468,2.466-.889,5.026-.08,7.559,1.16,3.634,3.323,6.336,7.151,7.239a9.752,9.752,0,0,0,10.17-3.216,10.905,10.905,0,0,0,2.467-7.037c.343-6.759,4.024-10.137,10.162-10.086,9.416.078,18.833.017,28.25.024,1.671,0,1.687.023,1.695,1.676.016,3.053-.078,6.111.04,9.161a9.97,9.97,0,0,0,9.652,9.264c5.237.15,9.906-3.724,10.247-8.781a99.369,99.369,0,0,0-.012-13.161,8.14,8.14,0,0,0-5.165-7.21c-.746-.336-1.53-.587-2.308-.881ZM68.68,89.426c2.025,0,3.679-.019,5.33.008.819.013,1.122-.339,1.116-1.142-.027-3.177.137-6.365-.066-9.53a9.5,9.5,0,0,0-6.376-8.718c-3.986-1.561-7.635-.67-10.72,2.274S54.452,78.9,55.537,82.854a8.149,8.149,0,0,0,7.05,6.331A41.97,41.97,0,0,0,68.68,89.426Z" transform="translate(-12.482 -17.315)" fill="#fff" fill-rule="evenodd"/>
</svg>
