<svg xmlns="http://www.w3.org/2000/svg" width="48.93" height="48.93" viewBox="0 0 48.93 48.93">
  <g id="sistema-operativo-windows" transform="translate(-0.002 0)">
    <g id="Grupo_53785" data-name="Grupo 53785" transform="translate(0.002 0)">
      <g id="Grupo_53784" data-name="Grupo 53784" transform="translate(0 0)">
        <path id="Trazado_100523" data-name="Trazado 100523" d="M46.485,368H2.448A2.446,2.446,0,0,0,0,370.449v6.524a2.446,2.446,0,0,0,2.446,2.446H46.485a2.446,2.446,0,0,0,2.446-2.446v-6.524A2.447,2.447,0,0,0,46.485,368Zm.815,8.97a.816.816,0,0,1-.815.815H2.448a.816.816,0,0,1-.815-.815v-6.524a.816.816,0,0,1,.815-.815H46.485a.816.816,0,0,1,.815.815Z" transform="translate(-0.002 -330.49)" fill="#ffa726"/>
        <path id="Trazado_100524" data-name="Trazado 100524" d="M35.264,392a3.262,3.262,0,1,0,3.262,3.262A3.262,3.262,0,0,0,35.264,392Zm0,4.893a1.631,1.631,0,1,1,1.631-1.631A1.631,1.631,0,0,1,35.264,396.9Z" transform="translate(-28.74 -352.043)" fill="#ffa726"/>
        <path id="Trazado_100525" data-name="Trazado 100525" d="M145.437,416h-32.62a.815.815,0,0,0,0,1.631h32.62a.815.815,0,1,0,0-1.631Z" transform="translate(-100.585 -373.597)" fill="#ffa726"/>
        <path id="Trazado_100526" data-name="Trazado 100526" d="M248.7,184.3l16.31,2.446a.855.855,0,0,0,.121.009.816.816,0,0,0,.816-.815V168.819a.816.816,0,0,0-.816-.815h-16.31a.816.816,0,0,0-.815.815V183.5A.815.815,0,0,0,248.7,184.3Zm.936-14.67h14.679V185l-14.679-2.2Z" transform="translate(-222.722 -150.877)" fill="#ffa726"/>
        <path id="Trazado_100527" data-name="Trazado 100527" d="M248.818,16.31h16.31a.816.816,0,0,0,.815-.815V.816a.816.816,0,0,0-.979-.8l-16.31,3.262a.815.815,0,0,0-.652.8V15.494A.815.815,0,0,0,248.818,16.31Zm.815-11.564L264.312,1.81V14.679H249.633Z" transform="translate(-222.722 0)" fill="#ffa726"/>
        <path id="Trazado_100528" data-name="Trazado 100528" d="M56.7,181.042l16.31,2.446a.852.852,0,0,0,.121.009.816.816,0,0,0,.815-.815V168.819a.816.816,0,0,0-.815-.815H56.817a.816.816,0,0,0-.815.815v11.417A.815.815,0,0,0,56.7,181.042Zm.936-11.408H72.312v12.1l-14.679-2.2Z" transform="translate(-50.294 -150.877)" fill="#ffa726"/>
        <path id="Trazado_100529" data-name="Trazado 100529" d="M56.817,52.232h16.31a.816.816,0,0,0,.815-.815v-10.6a.816.816,0,0,0-.979-.8l-16.31,3.262a.815.815,0,0,0-.652.8v7.339A.815.815,0,0,0,56.817,52.232Zm.815-7.486L72.312,41.81V50.6H57.633Z" transform="translate(-50.294 -35.922)" fill="#ffa726"/>
      </g>
    </g>
  </g>
</svg>
