<svg xmlns="http://www.w3.org/2000/svg" width="45.669" height="48.931" viewBox="0 0 45.669 48.931">
  <g id="mysql" transform="translate(-22)">
    <g id="Grupo_53783" data-name="Grupo 53783" transform="translate(22 0)">
      <g id="Grupo_53782" data-name="Grupo 53782" transform="translate(0)">
        <path id="Trazado_100522" data-name="Trazado 100522" d="M118.834,0C107.763,0,96,3.428,96,9.786V39.145c0,6.426,11.486,9.786,22.834,9.786s22.834-3.36,22.834-9.786V9.786C141.669,3.428,129.906,0,118.834,0Zm19.572,39.145c0,3.086-8.038,6.524-19.572,6.524s-19.572-3.438-19.572-6.524V34.571c4.264,2.995,12.07,4.573,19.572,4.573s15.309-1.579,19.572-4.573Zm0-9.786c0,2.724-7.447,6.524-19.572,6.524s-19.572-3.8-19.572-6.524V24.785c4.264,2.995,12.07,4.573,19.572,4.573s15.309-1.579,19.572-4.573Zm0-9.786c0,2.724-7.447,6.524-19.572,6.524s-19.572-3.8-19.572-6.524V15c4.264,2.995,12.07,4.573,19.572,4.573S134.143,17.993,138.407,15ZM118.834,16.31c-12.125,0-19.572-3.8-19.572-6.524s7.447-6.524,19.572-6.524,19.572,3.8,19.572,6.524S130.959,16.31,118.834,16.31Z" transform="translate(-96 0)" fill="#ffa726"/>
      </g>
    </g>
  </g>
</svg>
