<svg xmlns="http://www.w3.org/2000/svg" width="170.335" height="171.666" viewBox="0 0 170.335 171.666">
  <g id="Grupo_54530" data-name="Grupo 54530" transform="translate(-1049.987 -1796)">
    <g id="xampp" transform="translate(1049.987 1796)">
      <path id="Trazado_100544" data-name="Trazado 100544" d="M85.12,0h66.326a27.854,27.854,0,0,1,8.185,1.053c5.772,1.759,8.828,5.9,10.026,11.6a33.646,33.646,0,0,1,.615,6.873q.053,23.225.063,46.452,0,42.3-.053,84.6c-.008,3.948-.218,7.939-2.167,11.535-2.162,3.988-5.121,7.145-9.615,8.533a8.724,8.724,0,0,1-2.492.536c-1.918,0-3.784.476-5.7.476q-64.941,0-129.881-.047a26.262,26.262,0,0,1-10.444-1.7,8.7,8.7,0,0,1-1.923-.971c-4.258-3.245-7.15-7.292-7.77-12.769A52.541,52.541,0,0,1,0,150.267Q.01,84.443.033,18.619a24.669,24.669,0,0,1,.811-7.572C2.93,4.555,7.493,1.011,14.257.291A45.121,45.121,0,0,1,18.994.013Q52.055-.014,85.12,0Z" transform="translate(0 0)" fill="#d2e1f1" fill-rule="evenodd"/>
    </g>
    <path id="Trazado_101245" data-name="Trazado 101245" d="M-32.019-11.4l3.506-19.169h7.307L-27.694,0h-7.643l-4.094-17.427L-43.441,0h-7.622l-6.509-30.57h7.328L-46.737-11.4l4.2-19.169h6.257Zm25.09-9.007,5-10.162H6.488L-2.058-15.411,6.719,0h-8.5L-6.929-10.351-12.073,0h-8.482L-11.8-15.411-20.324-30.57h8.4Zm40.25,10.057A11.164,11.164,0,0,1,31.6-4.714a10.391,10.391,0,0,1-4.42,3.79A15.043,15.043,0,0,1,20.681.42a12,12,0,0,1-9.49-3.926Q7.727-7.433,7.727-14.592V-16.1a18.5,18.5,0,0,1,1.564-7.863,11.852,11.852,0,0,1,4.5-5.207,12.566,12.566,0,0,1,6.8-1.837,13.176,13.176,0,0,1,8.944,2.929,11.573,11.573,0,0,1,3.842,8.073H26.035a5.475,5.475,0,0,0-1.407-4.01A5.786,5.786,0,0,0,20.6-25.237a4.4,4.4,0,0,0-4.031,2.058q-1.281,2.058-1.344,6.572v2.163q0,4.892,1.228,6.992a4.5,4.5,0,0,0,4.231,2.1,5.659,5.659,0,0,0,3.884-1.2,5.079,5.079,0,0,0,1.428-3.8ZM56.06-12.178H44.176V0h-7.37V-30.57h20.45v5.69H44.176v7.034H56.06Z" transform="translate(1134 1897)" fill="#12263f"/>
  </g>
</svg>
