<svg xmlns="http://www.w3.org/2000/svg" width="1240" height="424" viewBox="0 0 1240 424">
  <g id="Grupo_53796" data-name="Grupo 53796" transform="translate(-180 -3960)">
    <path id="Rectángulo_5197" data-name="Rectángulo 5197" d="M20,0H380a20,20,0,0,1,20,20V89a0,0,0,0,1,0,0H0a0,0,0,0,1,0,0V20A20,20,0,0,1,20,0Z" transform="translate(180 3960)" fill="#ffca28"/>
    <path id="Rectángulo_5198" data-name="Rectángulo 5198" d="M20,0H380a20,20,0,0,1,20,20V89a0,0,0,0,1,0,0H0a0,0,0,0,1,0,0V20A20,20,0,0,1,20,0Z" transform="translate(600 3960)" fill="#4dd0e1"/>
    <path id="Rectángulo_5199" data-name="Rectángulo 5199" d="M20,0H380a20,20,0,0,1,20,20V89a0,0,0,0,1,0,0H0a0,0,0,0,1,0,0V20A20,20,0,0,1,20,0Z" transform="translate(1020 3960)" fill="#ffa726"/>
    <rect id="Rectángulo_5208" data-name="Rectángulo 5208" width="370" height="60" transform="translate(210 4054)" fill="#ffca28"/>
    <rect id="Rectángulo_5216" data-name="Rectángulo 5216" width="1240" height="60" transform="translate(180 4194)" fill="#039be5"/>
    <rect id="Rectángulo_5217" data-name="Rectángulo 5217" width="1240" height="60" transform="translate(180 4259)" fill="#ffca28"/>
    <path id="Rectángulo_5218" data-name="Rectángulo 5218" d="M0,0H1240a0,0,0,0,1,0,0V40a20,20,0,0,1-20,20H20A20,20,0,0,1,0,40V0A0,0,0,0,1,0,0Z" transform="translate(180 4324)" fill="#ffa726"/>
    <rect id="Rectángulo_5212" data-name="Rectángulo 5212" width="370" height="60" transform="translate(630 4054)" fill="#4dd0e1"/>
    <rect id="Rectángulo_5214" data-name="Rectángulo 5214" width="370" height="60" transform="translate(1050 4054)" fill="#ffa726"/>
    <rect id="Rectángulo_5211" data-name="Rectángulo 5211" width="370" height="60" transform="translate(210 4119)" fill="#ffca28"/>
    <rect id="Rectángulo_5213" data-name="Rectángulo 5213" width="370" height="60" transform="translate(630 4119)" fill="#4dd0e1"/>
    <rect id="Rectángulo_5215" data-name="Rectángulo 5215" width="370" height="60" transform="translate(1050 4119)" fill="#ffa726"/>
    <path id="Trazado_101248" data-name="Trazado 101248" d="M9.15-2.656h-4.7L3.633,0H-.029L5.186-14.219H8.408L13.662,0H9.98ZM5.273-5.3H8.33L6.8-10.234Zm18.613.1a6.372,6.372,0,0,1-1.108,3.931A3.554,3.554,0,0,1,19.785.2,3.046,3.046,0,0,1,17.393-.869V4.063H14.1V-10.566h3.076l.1.977a3.046,3.046,0,0,1,2.49-1.172A3.582,3.582,0,0,1,22.8-9.321a6.45,6.45,0,0,1,1.084,3.96ZM20.6-5.41q0-2.812-1.641-2.812a1.549,1.549,0,0,0-1.562.84v4.16a1.6,1.6,0,0,0,1.582.879q1.572,0,1.621-2.715ZM28.809,0h-3.3V-15h3.3Zm5.5,0h-3.3V-10.566h3.3Zm-3.5-13.3a1.482,1.482,0,0,1,.508-1.159,1.909,1.909,0,0,1,1.318-.452,1.909,1.909,0,0,1,1.318.452,1.482,1.482,0,0,1,.508,1.159,1.482,1.482,0,0,1-.508,1.159,1.909,1.909,0,0,1-1.318.452,1.909,1.909,0,0,1-1.318-.452A1.482,1.482,0,0,1,30.811-13.3ZM40.8-2.344a1.464,1.464,0,0,0,1.074-.376,1.379,1.379,0,0,0,.371-1.05h3.086A3.653,3.653,0,0,1,44.087-.918,4.631,4.631,0,0,1,40.879.2,4.689,4.689,0,0,1,37.246-1.25a5.7,5.7,0,0,1-1.328-4v-.137a6.436,6.436,0,0,1,.591-2.827,4.3,4.3,0,0,1,1.7-1.885,5.081,5.081,0,0,1,2.637-.659,4.573,4.573,0,0,1,3.271,1.143,4.053,4.053,0,0,1,1.211,3.1H42.246a1.807,1.807,0,0,0-.4-1.26,1.382,1.382,0,0,0-1.074-.439q-1.279,0-1.494,1.631a11.507,11.507,0,0,0-.068,1.426,4.52,4.52,0,0,0,.381,2.207A1.319,1.319,0,0,0,40.8-2.344ZM52.676,0a3.716,3.716,0,0,1-.312-.947A3.06,3.06,0,0,1,49.824.2a3.749,3.749,0,0,1-2.539-.9A2.875,2.875,0,0,1,46.24-2.979a2.955,2.955,0,0,1,1.27-2.6A6.468,6.468,0,0,1,51.2-6.455h1.016v-.559q0-1.462-1.26-1.462a1.03,1.03,0,0,0-1.172,1.158H46.494a2.95,2.95,0,0,1,1.3-2.487,5.479,5.479,0,0,1,3.325-.956,4.8,4.8,0,0,1,3.193.986,3.429,3.429,0,0,1,1.2,2.705v4.678a4.79,4.79,0,0,0,.449,2.227V0ZM50.615-2.148a1.836,1.836,0,0,0,1.021-.264,1.653,1.653,0,0,0,.581-.6V-4.7H51.26q-1.719,0-1.719,1.543a.942.942,0,0,0,.3.728A1.1,1.1,0,0,0,50.615-2.148Zm11.191-.2a1.464,1.464,0,0,0,1.074-.376,1.379,1.379,0,0,0,.371-1.05h3.086A3.653,3.653,0,0,1,65.093-.918,4.631,4.631,0,0,1,61.885.2,4.689,4.689,0,0,1,58.252-1.25a5.7,5.7,0,0,1-1.328-4v-.137a6.436,6.436,0,0,1,.591-2.827,4.3,4.3,0,0,1,1.7-1.885,5.081,5.081,0,0,1,2.637-.659,4.573,4.573,0,0,1,3.271,1.143,4.053,4.053,0,0,1,1.211,3.1H63.252a1.807,1.807,0,0,0-.4-1.26,1.382,1.382,0,0,0-1.074-.439q-1.279,0-1.494,1.631a11.507,11.507,0,0,0-.068,1.426A4.52,4.52,0,0,0,60.6-2.959,1.319,1.319,0,0,0,61.807-2.344ZM71.2,0H67.9V-10.566h3.3Zm-3.5-13.3a1.482,1.482,0,0,1,.508-1.159,1.909,1.909,0,0,1,1.318-.452,1.909,1.909,0,0,1,1.318.452,1.482,1.482,0,0,1,.508,1.159,1.482,1.482,0,0,1-.508,1.159,1.909,1.909,0,0,1-1.318.452,1.909,1.909,0,0,1-1.318-.452A1.482,1.482,0,0,1,67.705-13.3Zm5.107,7.92A6.236,6.236,0,0,1,73.428-8.2,4.4,4.4,0,0,1,75.2-10.1a5.323,5.323,0,0,1,2.705-.664,4.858,4.858,0,0,1,3.74,1.47,5.64,5.64,0,0,1,1.367,4v.117a5.472,5.472,0,0,1-1.372,3.921A4.871,4.871,0,0,1,77.92.2,4.927,4.927,0,0,1,74.3-1.157a5.29,5.29,0,0,1-1.475-3.667Zm3.291.205a3.932,3.932,0,0,0,.459,2.148,1.529,1.529,0,0,0,1.357.684q1.758,0,1.8-2.705v-.332q0-2.842-1.816-2.842-1.65,0-1.787,2.451ZM78.35-15h3.477l-2.715,3.066-2.686,0Zm9.131,4.434.107,1.24a3.583,3.583,0,0,1,3.018-1.436,3.015,3.015,0,0,1,2.466.986,4.7,4.7,0,0,1,.845,2.969V0h-3.3V-6.67a1.783,1.783,0,0,0-.322-1.177,1.491,1.491,0,0,0-1.172-.376,1.569,1.569,0,0,0-1.436.762V0H84.395V-10.566ZM107.959,0h-3.3V-10.508l-3.242.947v-2.5l6.24-2.158h.3Z" transform="translate(325 4012)" fill="#12263f"/>
    <path id="Trazado_101251" data-name="Trazado 101251" d="M-78.988,0V-11.375h3.719a4.317,4.317,0,0,1,2.785.766,2.759,2.759,0,0,1,.934,2.266A2.31,2.31,0,0,1-72-6.934a2.937,2.937,0,0,1-1.234.949A2.638,2.638,0,0,1-71.781-5a2.814,2.814,0,0,1,.535,1.723,3.042,3.042,0,0,1-.992,2.406,4.1,4.1,0,0,1-2.8.875Zm1.5-5.32v4.094h2.477a2.385,2.385,0,0,0,1.652-.543,1.907,1.907,0,0,0,.605-1.5q0-2.055-2.234-2.055Zm0-1.2h2.266a2.375,2.375,0,0,0,1.574-.493,1.654,1.654,0,0,0,.59-1.339,1.626,1.626,0,0,0-.547-1.366,2.686,2.686,0,0,0-1.664-.427h-2.219ZM-67.684,0h-1.445V-8.453h1.445Zm-1.562-10.7a.863.863,0,0,1,.215-.594.807.807,0,0,1,.637-.242.819.819,0,0,1,.641.242.854.854,0,0,1,.219.594.826.826,0,0,1-.219.586.834.834,0,0,1-.641.234.821.821,0,0,1-.637-.234A.834.834,0,0,1-69.246-10.7Zm11.031,6.563a5.026,5.026,0,0,1-.891,3.113A2.846,2.846,0,0,1-61.5.156,2.947,2.947,0,0,1-63.973-.977l-.07.977h-1.328V-12h1.445v4.477a2.93,2.93,0,0,1,2.414-1.086,2.863,2.863,0,0,1,2.418,1.164,5.177,5.177,0,0,1,.879,3.188ZM-59.66-4.3a3.906,3.906,0,0,0-.57-2.281,1.888,1.888,0,0,0-1.641-.8,2.122,2.122,0,0,0-2.055,1.328V-2.4a2.181,2.181,0,0,0,2.07,1.328,1.878,1.878,0,0,0,1.617-.8A4.153,4.153,0,0,0-59.66-4.3ZM-54.824,0H-56.27V-12h1.445Zm3.883,0h-1.445V-8.453h1.445ZM-52.5-10.7a.863.863,0,0,1,.215-.594.807.807,0,0,1,.637-.242.819.819,0,0,1,.641.242.854.854,0,0,1,.219.594.826.826,0,0,1-.219.586.834.834,0,0,1-.641.234.821.821,0,0,1-.637-.234A.834.834,0,0,1-52.5-10.7ZM-49.012-4.3a4.993,4.993,0,0,1,.488-2.234A3.643,3.643,0,0,1-47.164-8.07a3.7,3.7,0,0,1,1.988-.539,3.565,3.565,0,0,1,2.793,1.2,4.6,4.6,0,0,1,1.066,3.18v.1a5.036,5.036,0,0,1-.473,2.215A3.589,3.589,0,0,1-43.141-.391a3.743,3.743,0,0,1-2.02.547,3.556,3.556,0,0,1-2.785-1.2A4.575,4.575,0,0,1-49.012-4.2Zm1.453.172a3.616,3.616,0,0,0,.652,2.258,2.088,2.088,0,0,0,1.746.852,2.075,2.075,0,0,0,1.75-.863A3.955,3.955,0,0,0-42.762-4.3a3.61,3.61,0,0,0-.66-2.254,2.1,2.1,0,0,0-1.754-.863A2.075,2.075,0,0,0-46.9-6.57,3.925,3.925,0,0,0-47.559-4.133ZM-37.543-10.5v2.047h1.578v1.117h-1.578v5.249a1.173,1.173,0,0,0,.211.763.888.888,0,0,0,.719.254,3.5,3.5,0,0,0,.688-.094V0a4.215,4.215,0,0,1-1.109.155A1.8,1.8,0,0,1-38.5-.43a2.517,2.517,0,0,1-.492-1.664V-7.336h-1.539V-8.453h1.539V-10.5ZM-30.77.156a3.693,3.693,0,0,1-2.8-1.129,4.19,4.19,0,0,1-1.078-3.02v-.266a5.073,5.073,0,0,1,.48-2.246A3.748,3.748,0,0,1-32.82-8.051a3.378,3.378,0,0,1,1.871-.559,3.166,3.166,0,0,1,2.563,1.086,4.7,4.7,0,0,1,.914,3.109v.6H-33.2a3,3,0,0,0,.73,2.02,2.3,2.3,0,0,0,1.777.77,2.517,2.517,0,0,0,1.3-.312,3.259,3.259,0,0,0,.93-.828l.883.688A3.55,3.55,0,0,1-30.77.156Zm-.18-7.578a1.928,1.928,0,0,0-1.469.637A3.1,3.1,0,0,0-33.152-5h4.234v-.109a2.753,2.753,0,0,0-.594-1.707A1.815,1.815,0,0,0-30.949-7.422Zm8.539,6.4a2.082,2.082,0,0,0,1.352-.469,1.649,1.649,0,0,0,.641-1.172h1.367a2.621,2.621,0,0,1-.5,1.383,3.293,3.293,0,0,1-1.23,1.047A3.55,3.55,0,0,1-22.41.156,3.482,3.482,0,0,1-25.156-1a4.59,4.59,0,0,1-1.02-3.152v-.242a5.089,5.089,0,0,1,.453-2.2,3.451,3.451,0,0,1,1.3-1.492,3.7,3.7,0,0,1,2-.531,3.39,3.39,0,0,1,2.363.852,3.043,3.043,0,0,1,1,2.211h-1.367a1.992,1.992,0,0,0-.621-1.348,1.932,1.932,0,0,0-1.379-.527,2.023,2.023,0,0,0-1.707.793,3.724,3.724,0,0,0-.605,2.293v.273a3.65,3.65,0,0,0,.6,2.25A2.033,2.033,0,0,0-22.41-1.023ZM-12.207,0a3.036,3.036,0,0,1-.2-.891A3.225,3.225,0,0,1-14.816.156a2.984,2.984,0,0,1-2.051-.707,2.287,2.287,0,0,1-.8-1.793,2.39,2.39,0,0,1,1-2.051,4.733,4.733,0,0,1,2.824-.73h1.406v-.664A1.623,1.623,0,0,0-12.887-7a1.821,1.821,0,0,0-1.336-.449,2.107,2.107,0,0,0-1.3.391,1.151,1.151,0,0,0-.523.945H-17.5a2,2,0,0,1,.449-1.223,3.066,3.066,0,0,1,1.219-.934,4.1,4.1,0,0,1,1.691-.344,3.342,3.342,0,0,1,2.289.73,2.635,2.635,0,0,1,.859,2.012v3.891a4.757,4.757,0,0,0,.3,1.852V0Zm-2.4-1.1a2.54,2.54,0,0,0,1.289-.352,2.127,2.127,0,0,0,.883-.914V-4.1h-1.133q-2.656,0-2.656,1.555a1.316,1.316,0,0,0,.453,1.063A1.742,1.742,0,0,0-14.605-1.1ZM-3.8-2.242a1.064,1.064,0,0,0-.441-.91,4.249,4.249,0,0,0-1.539-.559,7.277,7.277,0,0,1-1.742-.562,2.479,2.479,0,0,1-.953-.781,1.869,1.869,0,0,1-.309-1.078,2.193,2.193,0,0,1,.879-1.758A3.432,3.432,0,0,1-5.66-8.609a3.532,3.532,0,0,1,2.332.742,2.357,2.357,0,0,1,.895,1.9H-3.887a1.3,1.3,0,0,0-.5-1.023,1.888,1.888,0,0,0-1.27-.43,1.976,1.976,0,0,0-1.234.344,1.082,1.082,0,0,0-.445.9.877.877,0,0,0,.414.789,5.1,5.1,0,0,0,1.5.508A7.8,7.8,0,0,1-3.676-4.3a2.558,2.558,0,0,1,1,.809,1.988,1.988,0,0,1,.324,1.152A2.163,2.163,0,0,1-3.262-.527,3.8,3.8,0,0,1-5.613.156,4.257,4.257,0,0,1-7.41-.2a2.922,2.922,0,0,1-1.223-1A2.42,2.42,0,0,1-9.074-2.6h1.445a1.5,1.5,0,0,0,.582,1.152,2.258,2.258,0,0,0,1.434.426A2.331,2.331,0,0,0-4.3-1.355,1.02,1.02,0,0,0-3.8-2.242ZM3.777.977H2.535l4.75-12.352H8.52ZM18.441-4.6H15.77V0H14.262V-11.375h3.766a4.457,4.457,0,0,1,2.957.875A3.148,3.148,0,0,1,22.02-7.953,3.062,3.062,0,0,1,21.445-6.1a3.428,3.428,0,0,1-1.6,1.18L22.52-.094V0H20.91ZM15.77-5.828h2.3a2.6,2.6,0,0,0,1.777-.579,1.959,1.959,0,0,0,.66-1.55,2.062,2.062,0,0,0-.629-1.62,2.663,2.663,0,0,0-1.816-.571h-2.3ZM29.113-.836a3.07,3.07,0,0,1-2.477.992,2.628,2.628,0,0,1-2.059-.785,3.4,3.4,0,0,1-.715-2.324v-5.5h1.445v5.461q0,1.922,1.563,1.922a2.163,2.163,0,0,0,2.2-1.234V-8.453H30.52V0H29.145Zm4.969-7.617.047,1.063A3.08,3.08,0,0,1,36.66-8.609q2.68,0,2.7,3.023V0H37.918V-5.594A1.946,1.946,0,0,0,37.5-6.945a1.675,1.675,0,0,0-1.277-.437,2.086,2.086,0,0,0-1.234.375,2.546,2.546,0,0,0-.828.984V0H32.715V-8.453ZM43.5-10.5v2.047h1.578v1.117H43.5v5.249a1.173,1.173,0,0,0,.211.763.888.888,0,0,0,.719.254,3.5,3.5,0,0,0,.688-.094V0a4.215,4.215,0,0,1-1.109.155A1.8,1.8,0,0,1,42.551-.43a2.517,2.517,0,0,1-.492-1.664V-7.336H40.52V-8.453h1.539V-10.5ZM48.34,0H46.895V-8.453H48.34ZM46.777-10.7a.863.863,0,0,1,.215-.594.807.807,0,0,1,.637-.242.819.819,0,0,1,.641.242.854.854,0,0,1,.219.594.826.826,0,0,1-.219.586.834.834,0,0,1-.641.234.821.821,0,0,1-.637-.234A.834.834,0,0,1,46.777-10.7Zm5.234,2.242.039.938a3.122,3.122,0,0,1,2.508-1.094A2.417,2.417,0,0,1,56.973-7.25a3.2,3.2,0,0,1,1.1-.984,3.242,3.242,0,0,1,1.6-.375q2.781,0,2.828,2.945V0H61.051V-5.578a1.941,1.941,0,0,0-.414-1.355,1.823,1.823,0,0,0-1.391-.449,1.917,1.917,0,0,0-1.336.48,1.949,1.949,0,0,0-.617,1.293V0H55.84V-5.539a1.613,1.613,0,0,0-1.8-1.844A1.934,1.934,0,0,0,52.09-6.172V0H50.645V-8.453ZM68.184.156a3.693,3.693,0,0,1-2.8-1.129,4.19,4.19,0,0,1-1.078-3.02v-.266a5.073,5.073,0,0,1,.48-2.246,3.748,3.748,0,0,1,1.344-1.547A3.378,3.378,0,0,1,68-8.609a3.166,3.166,0,0,1,2.563,1.086,4.7,4.7,0,0,1,.914,3.109v.6H65.754a3,3,0,0,0,.73,2.02,2.3,2.3,0,0,0,1.777.77,2.517,2.517,0,0,0,1.3-.312,3.259,3.259,0,0,0,.93-.828l.883.688A3.55,3.55,0,0,1,68.184.156ZM68-7.422a1.928,1.928,0,0,0-1.469.637A3.1,3.1,0,0,0,65.8-5h4.234v-.109a2.753,2.753,0,0,0-.594-1.707A1.815,1.815,0,0,0,68-7.422Zm10.07,5.18a1.064,1.064,0,0,0-.441-.91,4.249,4.249,0,0,0-1.539-.559,7.277,7.277,0,0,1-1.742-.562,2.479,2.479,0,0,1-.953-.781,1.869,1.869,0,0,1-.309-1.078,2.193,2.193,0,0,1,.879-1.758,3.432,3.432,0,0,1,2.246-.719,3.532,3.532,0,0,1,2.332.742,2.357,2.357,0,0,1,.895,1.9H77.988a1.3,1.3,0,0,0-.5-1.023,1.888,1.888,0,0,0-1.27-.43,1.976,1.976,0,0,0-1.234.344,1.082,1.082,0,0,0-.445.9.877.877,0,0,0,.414.789,5.1,5.1,0,0,0,1.5.508A7.8,7.8,0,0,1,78.2-4.3a2.558,2.558,0,0,1,1,.809,1.988,1.988,0,0,1,.324,1.152,2.163,2.163,0,0,1-.906,1.816,3.8,3.8,0,0,1-2.352.684,4.257,4.257,0,0,1-1.8-.359,2.922,2.922,0,0,1-1.223-1A2.42,2.42,0,0,1,72.8-2.6h1.445a1.5,1.5,0,0,0,.582,1.152,2.258,2.258,0,0,0,1.434.426,2.331,2.331,0,0,0,1.316-.332A1.02,1.02,0,0,0,78.074-2.242Z" transform="translate(380 4091)" fill="#12263f"/>
    <path id="Trazado_101252" data-name="Trazado 101252" d="M-78.988,0V-11.375h3.719a4.317,4.317,0,0,1,2.785.766,2.759,2.759,0,0,1,.934,2.266A2.31,2.31,0,0,1-72-6.934a2.937,2.937,0,0,1-1.234.949A2.638,2.638,0,0,1-71.781-5a2.814,2.814,0,0,1,.535,1.723,3.042,3.042,0,0,1-.992,2.406,4.1,4.1,0,0,1-2.8.875Zm1.5-5.32v4.094h2.477a2.385,2.385,0,0,0,1.652-.543,1.907,1.907,0,0,0,.605-1.5q0-2.055-2.234-2.055Zm0-1.2h2.266a2.375,2.375,0,0,0,1.574-.493,1.654,1.654,0,0,0,.59-1.339,1.626,1.626,0,0,0-.547-1.366,2.686,2.686,0,0,0-1.664-.427h-2.219ZM-67.684,0h-1.445V-8.453h1.445Zm-1.562-10.7a.863.863,0,0,1,.215-.594.807.807,0,0,1,.637-.242.819.819,0,0,1,.641.242.854.854,0,0,1,.219.594.826.826,0,0,1-.219.586.834.834,0,0,1-.641.234.821.821,0,0,1-.637-.234A.834.834,0,0,1-69.246-10.7Zm11.031,6.563a5.026,5.026,0,0,1-.891,3.113A2.846,2.846,0,0,1-61.5.156,2.947,2.947,0,0,1-63.973-.977l-.07.977h-1.328V-12h1.445v4.477a2.93,2.93,0,0,1,2.414-1.086,2.863,2.863,0,0,1,2.418,1.164,5.177,5.177,0,0,1,.879,3.188ZM-59.66-4.3a3.906,3.906,0,0,0-.57-2.281,1.888,1.888,0,0,0-1.641-.8,2.122,2.122,0,0,0-2.055,1.328V-2.4a2.181,2.181,0,0,0,2.07,1.328,1.878,1.878,0,0,0,1.617-.8A4.153,4.153,0,0,0-59.66-4.3ZM-54.824,0H-56.27V-12h1.445Zm3.883,0h-1.445V-8.453h1.445ZM-52.5-10.7a.863.863,0,0,1,.215-.594.807.807,0,0,1,.637-.242.819.819,0,0,1,.641.242.854.854,0,0,1,.219.594.826.826,0,0,1-.219.586.834.834,0,0,1-.641.234.821.821,0,0,1-.637-.234A.834.834,0,0,1-52.5-10.7ZM-49.012-4.3a4.993,4.993,0,0,1,.488-2.234A3.643,3.643,0,0,1-47.164-8.07a3.7,3.7,0,0,1,1.988-.539,3.565,3.565,0,0,1,2.793,1.2,4.6,4.6,0,0,1,1.066,3.18v.1a5.036,5.036,0,0,1-.473,2.215A3.589,3.589,0,0,1-43.141-.391a3.743,3.743,0,0,1-2.02.547,3.556,3.556,0,0,1-2.785-1.2A4.575,4.575,0,0,1-49.012-4.2Zm1.453.172a3.616,3.616,0,0,0,.652,2.258,2.088,2.088,0,0,0,1.746.852,2.075,2.075,0,0,0,1.75-.863A3.955,3.955,0,0,0-42.762-4.3a3.61,3.61,0,0,0-.66-2.254,2.1,2.1,0,0,0-1.754-.863A2.075,2.075,0,0,0-46.9-6.57,3.925,3.925,0,0,0-47.559-4.133ZM-37.543-10.5v2.047h1.578v1.117h-1.578v5.249a1.173,1.173,0,0,0,.211.763.888.888,0,0,0,.719.254,3.5,3.5,0,0,0,.688-.094V0a4.215,4.215,0,0,1-1.109.155A1.8,1.8,0,0,1-38.5-.43a2.517,2.517,0,0,1-.492-1.664V-7.336h-1.539V-8.453h1.539V-10.5ZM-30.77.156a3.693,3.693,0,0,1-2.8-1.129,4.19,4.19,0,0,1-1.078-3.02v-.266a5.073,5.073,0,0,1,.48-2.246A3.748,3.748,0,0,1-32.82-8.051a3.378,3.378,0,0,1,1.871-.559,3.166,3.166,0,0,1,2.563,1.086,4.7,4.7,0,0,1,.914,3.109v.6H-33.2a3,3,0,0,0,.73,2.02,2.3,2.3,0,0,0,1.777.77,2.517,2.517,0,0,0,1.3-.312,3.259,3.259,0,0,0,.93-.828l.883.688A3.55,3.55,0,0,1-30.77.156Zm-.18-7.578a1.928,1.928,0,0,0-1.469.637A3.1,3.1,0,0,0-33.152-5h4.234v-.109a2.753,2.753,0,0,0-.594-1.707A1.815,1.815,0,0,0-30.949-7.422Zm8.539,6.4a2.082,2.082,0,0,0,1.352-.469,1.649,1.649,0,0,0,.641-1.172h1.367a2.621,2.621,0,0,1-.5,1.383,3.293,3.293,0,0,1-1.23,1.047A3.55,3.55,0,0,1-22.41.156,3.482,3.482,0,0,1-25.156-1a4.59,4.59,0,0,1-1.02-3.152v-.242a5.089,5.089,0,0,1,.453-2.2,3.451,3.451,0,0,1,1.3-1.492,3.7,3.7,0,0,1,2-.531,3.39,3.39,0,0,1,2.363.852,3.043,3.043,0,0,1,1,2.211h-1.367a1.992,1.992,0,0,0-.621-1.348,1.932,1.932,0,0,0-1.379-.527,2.023,2.023,0,0,0-1.707.793,3.724,3.724,0,0,0-.605,2.293v.273a3.65,3.65,0,0,0,.6,2.25A2.033,2.033,0,0,0-22.41-1.023ZM-12.207,0a3.036,3.036,0,0,1-.2-.891A3.225,3.225,0,0,1-14.816.156a2.984,2.984,0,0,1-2.051-.707,2.287,2.287,0,0,1-.8-1.793,2.39,2.39,0,0,1,1-2.051,4.733,4.733,0,0,1,2.824-.73h1.406v-.664A1.623,1.623,0,0,0-12.887-7a1.821,1.821,0,0,0-1.336-.449,2.107,2.107,0,0,0-1.3.391,1.151,1.151,0,0,0-.523.945H-17.5a2,2,0,0,1,.449-1.223,3.066,3.066,0,0,1,1.219-.934,4.1,4.1,0,0,1,1.691-.344,3.342,3.342,0,0,1,2.289.73,2.635,2.635,0,0,1,.859,2.012v3.891a4.757,4.757,0,0,0,.3,1.852V0Zm-2.4-1.1a2.54,2.54,0,0,0,1.289-.352,2.127,2.127,0,0,0,.883-.914V-4.1h-1.133q-2.656,0-2.656,1.555a1.316,1.316,0,0,0,.453,1.063A1.742,1.742,0,0,0-14.605-1.1ZM-3.8-2.242a1.064,1.064,0,0,0-.441-.91,4.249,4.249,0,0,0-1.539-.559,7.277,7.277,0,0,1-1.742-.562,2.479,2.479,0,0,1-.953-.781,1.869,1.869,0,0,1-.309-1.078,2.193,2.193,0,0,1,.879-1.758A3.432,3.432,0,0,1-5.66-8.609a3.532,3.532,0,0,1,2.332.742,2.357,2.357,0,0,1,.895,1.9H-3.887a1.3,1.3,0,0,0-.5-1.023,1.888,1.888,0,0,0-1.27-.43,1.976,1.976,0,0,0-1.234.344,1.082,1.082,0,0,0-.445.9.877.877,0,0,0,.414.789,5.1,5.1,0,0,0,1.5.508A7.8,7.8,0,0,1-3.676-4.3a2.558,2.558,0,0,1,1,.809,1.988,1.988,0,0,1,.324,1.152A2.163,2.163,0,0,1-3.262-.527,3.8,3.8,0,0,1-5.613.156,4.257,4.257,0,0,1-7.41-.2a2.922,2.922,0,0,1-1.223-1A2.42,2.42,0,0,1-9.074-2.6h1.445a1.5,1.5,0,0,0,.582,1.152,2.258,2.258,0,0,0,1.434.426A2.331,2.331,0,0,0-4.3-1.355,1.02,1.02,0,0,0-3.8-2.242ZM3.777.977H2.535l4.75-12.352H8.52ZM18.441-4.6H15.77V0H14.262V-11.375h3.766a4.457,4.457,0,0,1,2.957.875A3.148,3.148,0,0,1,22.02-7.953,3.062,3.062,0,0,1,21.445-6.1a3.428,3.428,0,0,1-1.6,1.18L22.52-.094V0H20.91ZM15.77-5.828h2.3a2.6,2.6,0,0,0,1.777-.579,1.959,1.959,0,0,0,.66-1.55,2.062,2.062,0,0,0-.629-1.62,2.663,2.663,0,0,0-1.816-.571h-2.3ZM29.113-.836a3.07,3.07,0,0,1-2.477.992,2.628,2.628,0,0,1-2.059-.785,3.4,3.4,0,0,1-.715-2.324v-5.5h1.445v5.461q0,1.922,1.563,1.922a2.163,2.163,0,0,0,2.2-1.234V-8.453H30.52V0H29.145Zm4.969-7.617.047,1.063A3.08,3.08,0,0,1,36.66-8.609q2.68,0,2.7,3.023V0H37.918V-5.594A1.946,1.946,0,0,0,37.5-6.945a1.675,1.675,0,0,0-1.277-.437,2.086,2.086,0,0,0-1.234.375,2.546,2.546,0,0,0-.828.984V0H32.715V-8.453ZM43.5-10.5v2.047h1.578v1.117H43.5v5.249a1.173,1.173,0,0,0,.211.763.888.888,0,0,0,.719.254,3.5,3.5,0,0,0,.688-.094V0a4.215,4.215,0,0,1-1.109.155A1.8,1.8,0,0,1,42.551-.43a2.517,2.517,0,0,1-.492-1.664V-7.336H40.52V-8.453h1.539V-10.5ZM48.34,0H46.895V-8.453H48.34ZM46.777-10.7a.863.863,0,0,1,.215-.594.807.807,0,0,1,.637-.242.819.819,0,0,1,.641.242.854.854,0,0,1,.219.594.826.826,0,0,1-.219.586.834.834,0,0,1-.641.234.821.821,0,0,1-.637-.234A.834.834,0,0,1,46.777-10.7Zm5.234,2.242.039.938a3.122,3.122,0,0,1,2.508-1.094A2.417,2.417,0,0,1,56.973-7.25a3.2,3.2,0,0,1,1.1-.984,3.242,3.242,0,0,1,1.6-.375q2.781,0,2.828,2.945V0H61.051V-5.578a1.941,1.941,0,0,0-.414-1.355,1.823,1.823,0,0,0-1.391-.449,1.917,1.917,0,0,0-1.336.48,1.949,1.949,0,0,0-.617,1.293V0H55.84V-5.539a1.613,1.613,0,0,0-1.8-1.844A1.934,1.934,0,0,0,52.09-6.172V0H50.645V-8.453ZM68.184.156a3.693,3.693,0,0,1-2.8-1.129,4.19,4.19,0,0,1-1.078-3.02v-.266a5.073,5.073,0,0,1,.48-2.246,3.748,3.748,0,0,1,1.344-1.547A3.378,3.378,0,0,1,68-8.609a3.166,3.166,0,0,1,2.563,1.086,4.7,4.7,0,0,1,.914,3.109v.6H65.754a3,3,0,0,0,.73,2.02,2.3,2.3,0,0,0,1.777.77,2.517,2.517,0,0,0,1.3-.312,3.259,3.259,0,0,0,.93-.828l.883.688A3.55,3.55,0,0,1,68.184.156ZM68-7.422a1.928,1.928,0,0,0-1.469.637A3.1,3.1,0,0,0,65.8-5h4.234v-.109a2.753,2.753,0,0,0-.594-1.707A1.815,1.815,0,0,0,68-7.422Zm10.07,5.18a1.064,1.064,0,0,0-.441-.91,4.249,4.249,0,0,0-1.539-.559,7.277,7.277,0,0,1-1.742-.562,2.479,2.479,0,0,1-.953-.781,1.869,1.869,0,0,1-.309-1.078,2.193,2.193,0,0,1,.879-1.758,3.432,3.432,0,0,1,2.246-.719,3.532,3.532,0,0,1,2.332.742,2.357,2.357,0,0,1,.895,1.9H77.988a1.3,1.3,0,0,0-.5-1.023,1.888,1.888,0,0,0-1.27-.43,1.976,1.976,0,0,0-1.234.344,1.082,1.082,0,0,0-.445.9.877.877,0,0,0,.414.789,5.1,5.1,0,0,0,1.5.508A7.8,7.8,0,0,1,78.2-4.3a2.558,2.558,0,0,1,1,.809,1.988,1.988,0,0,1,.324,1.152,2.163,2.163,0,0,1-.906,1.816,3.8,3.8,0,0,1-2.352.684,4.257,4.257,0,0,1-1.8-.359,2.922,2.922,0,0,1-1.223-1A2.42,2.42,0,0,1,72.8-2.6h1.445a1.5,1.5,0,0,0,.582,1.152,2.258,2.258,0,0,0,1.434.426,2.331,2.331,0,0,0,1.316-.332A1.02,1.02,0,0,0,78.074-2.242Z" transform="translate(800 4091)" fill="#12263f"/>
    <path id="Trazado_101253" data-name="Trazado 101253" d="M-78.988,0V-11.375h3.719a4.317,4.317,0,0,1,2.785.766,2.759,2.759,0,0,1,.934,2.266A2.31,2.31,0,0,1-72-6.934a2.937,2.937,0,0,1-1.234.949A2.638,2.638,0,0,1-71.781-5a2.814,2.814,0,0,1,.535,1.723,3.042,3.042,0,0,1-.992,2.406,4.1,4.1,0,0,1-2.8.875Zm1.5-5.32v4.094h2.477a2.385,2.385,0,0,0,1.652-.543,1.907,1.907,0,0,0,.605-1.5q0-2.055-2.234-2.055Zm0-1.2h2.266a2.375,2.375,0,0,0,1.574-.493,1.654,1.654,0,0,0,.59-1.339,1.626,1.626,0,0,0-.547-1.366,2.686,2.686,0,0,0-1.664-.427h-2.219ZM-67.684,0h-1.445V-8.453h1.445Zm-1.562-10.7a.863.863,0,0,1,.215-.594.807.807,0,0,1,.637-.242.819.819,0,0,1,.641.242.854.854,0,0,1,.219.594.826.826,0,0,1-.219.586.834.834,0,0,1-.641.234.821.821,0,0,1-.637-.234A.834.834,0,0,1-69.246-10.7Zm11.031,6.563a5.026,5.026,0,0,1-.891,3.113A2.846,2.846,0,0,1-61.5.156,2.947,2.947,0,0,1-63.973-.977l-.07.977h-1.328V-12h1.445v4.477a2.93,2.93,0,0,1,2.414-1.086,2.863,2.863,0,0,1,2.418,1.164,5.177,5.177,0,0,1,.879,3.188ZM-59.66-4.3a3.906,3.906,0,0,0-.57-2.281,1.888,1.888,0,0,0-1.641-.8,2.122,2.122,0,0,0-2.055,1.328V-2.4a2.181,2.181,0,0,0,2.07,1.328,1.878,1.878,0,0,0,1.617-.8A4.153,4.153,0,0,0-59.66-4.3ZM-54.824,0H-56.27V-12h1.445Zm3.883,0h-1.445V-8.453h1.445ZM-52.5-10.7a.863.863,0,0,1,.215-.594.807.807,0,0,1,.637-.242.819.819,0,0,1,.641.242.854.854,0,0,1,.219.594.826.826,0,0,1-.219.586.834.834,0,0,1-.641.234.821.821,0,0,1-.637-.234A.834.834,0,0,1-52.5-10.7ZM-49.012-4.3a4.993,4.993,0,0,1,.488-2.234A3.643,3.643,0,0,1-47.164-8.07a3.7,3.7,0,0,1,1.988-.539,3.565,3.565,0,0,1,2.793,1.2,4.6,4.6,0,0,1,1.066,3.18v.1a5.036,5.036,0,0,1-.473,2.215A3.589,3.589,0,0,1-43.141-.391a3.743,3.743,0,0,1-2.02.547,3.556,3.556,0,0,1-2.785-1.2A4.575,4.575,0,0,1-49.012-4.2Zm1.453.172a3.616,3.616,0,0,0,.652,2.258,2.088,2.088,0,0,0,1.746.852,2.075,2.075,0,0,0,1.75-.863A3.955,3.955,0,0,0-42.762-4.3a3.61,3.61,0,0,0-.66-2.254,2.1,2.1,0,0,0-1.754-.863A2.075,2.075,0,0,0-46.9-6.57,3.925,3.925,0,0,0-47.559-4.133ZM-37.543-10.5v2.047h1.578v1.117h-1.578v5.249a1.173,1.173,0,0,0,.211.763.888.888,0,0,0,.719.254,3.5,3.5,0,0,0,.688-.094V0a4.215,4.215,0,0,1-1.109.155A1.8,1.8,0,0,1-38.5-.43a2.517,2.517,0,0,1-.492-1.664V-7.336h-1.539V-8.453h1.539V-10.5ZM-30.77.156a3.693,3.693,0,0,1-2.8-1.129,4.19,4.19,0,0,1-1.078-3.02v-.266a5.073,5.073,0,0,1,.48-2.246A3.748,3.748,0,0,1-32.82-8.051a3.378,3.378,0,0,1,1.871-.559,3.166,3.166,0,0,1,2.563,1.086,4.7,4.7,0,0,1,.914,3.109v.6H-33.2a3,3,0,0,0,.73,2.02,2.3,2.3,0,0,0,1.777.77,2.517,2.517,0,0,0,1.3-.312,3.259,3.259,0,0,0,.93-.828l.883.688A3.55,3.55,0,0,1-30.77.156Zm-.18-7.578a1.928,1.928,0,0,0-1.469.637A3.1,3.1,0,0,0-33.152-5h4.234v-.109a2.753,2.753,0,0,0-.594-1.707A1.815,1.815,0,0,0-30.949-7.422Zm8.539,6.4a2.082,2.082,0,0,0,1.352-.469,1.649,1.649,0,0,0,.641-1.172h1.367a2.621,2.621,0,0,1-.5,1.383,3.293,3.293,0,0,1-1.23,1.047A3.55,3.55,0,0,1-22.41.156,3.482,3.482,0,0,1-25.156-1a4.59,4.59,0,0,1-1.02-3.152v-.242a5.089,5.089,0,0,1,.453-2.2,3.451,3.451,0,0,1,1.3-1.492,3.7,3.7,0,0,1,2-.531,3.39,3.39,0,0,1,2.363.852,3.043,3.043,0,0,1,1,2.211h-1.367a1.992,1.992,0,0,0-.621-1.348,1.932,1.932,0,0,0-1.379-.527,2.023,2.023,0,0,0-1.707.793,3.724,3.724,0,0,0-.605,2.293v.273a3.65,3.65,0,0,0,.6,2.25A2.033,2.033,0,0,0-22.41-1.023ZM-12.207,0a3.036,3.036,0,0,1-.2-.891A3.225,3.225,0,0,1-14.816.156a2.984,2.984,0,0,1-2.051-.707,2.287,2.287,0,0,1-.8-1.793,2.39,2.39,0,0,1,1-2.051,4.733,4.733,0,0,1,2.824-.73h1.406v-.664A1.623,1.623,0,0,0-12.887-7a1.821,1.821,0,0,0-1.336-.449,2.107,2.107,0,0,0-1.3.391,1.151,1.151,0,0,0-.523.945H-17.5a2,2,0,0,1,.449-1.223,3.066,3.066,0,0,1,1.219-.934,4.1,4.1,0,0,1,1.691-.344,3.342,3.342,0,0,1,2.289.73,2.635,2.635,0,0,1,.859,2.012v3.891a4.757,4.757,0,0,0,.3,1.852V0Zm-2.4-1.1a2.54,2.54,0,0,0,1.289-.352,2.127,2.127,0,0,0,.883-.914V-4.1h-1.133q-2.656,0-2.656,1.555a1.316,1.316,0,0,0,.453,1.063A1.742,1.742,0,0,0-14.605-1.1ZM-3.8-2.242a1.064,1.064,0,0,0-.441-.91,4.249,4.249,0,0,0-1.539-.559,7.277,7.277,0,0,1-1.742-.562,2.479,2.479,0,0,1-.953-.781,1.869,1.869,0,0,1-.309-1.078,2.193,2.193,0,0,1,.879-1.758A3.432,3.432,0,0,1-5.66-8.609a3.532,3.532,0,0,1,2.332.742,2.357,2.357,0,0,1,.895,1.9H-3.887a1.3,1.3,0,0,0-.5-1.023,1.888,1.888,0,0,0-1.27-.43,1.976,1.976,0,0,0-1.234.344,1.082,1.082,0,0,0-.445.9.877.877,0,0,0,.414.789,5.1,5.1,0,0,0,1.5.508A7.8,7.8,0,0,1-3.676-4.3a2.558,2.558,0,0,1,1,.809,1.988,1.988,0,0,1,.324,1.152A2.163,2.163,0,0,1-3.262-.527,3.8,3.8,0,0,1-5.613.156,4.257,4.257,0,0,1-7.41-.2a2.922,2.922,0,0,1-1.223-1A2.42,2.42,0,0,1-9.074-2.6h1.445a1.5,1.5,0,0,0,.582,1.152,2.258,2.258,0,0,0,1.434.426A2.331,2.331,0,0,0-4.3-1.355,1.02,1.02,0,0,0-3.8-2.242ZM3.777.977H2.535l4.75-12.352H8.52ZM18.441-4.6H15.77V0H14.262V-11.375h3.766a4.457,4.457,0,0,1,2.957.875A3.148,3.148,0,0,1,22.02-7.953,3.062,3.062,0,0,1,21.445-6.1a3.428,3.428,0,0,1-1.6,1.18L22.52-.094V0H20.91ZM15.77-5.828h2.3a2.6,2.6,0,0,0,1.777-.579,1.959,1.959,0,0,0,.66-1.55,2.062,2.062,0,0,0-.629-1.62,2.663,2.663,0,0,0-1.816-.571h-2.3ZM29.113-.836a3.07,3.07,0,0,1-2.477.992,2.628,2.628,0,0,1-2.059-.785,3.4,3.4,0,0,1-.715-2.324v-5.5h1.445v5.461q0,1.922,1.563,1.922a2.163,2.163,0,0,0,2.2-1.234V-8.453H30.52V0H29.145Zm4.969-7.617.047,1.063A3.08,3.08,0,0,1,36.66-8.609q2.68,0,2.7,3.023V0H37.918V-5.594A1.946,1.946,0,0,0,37.5-6.945a1.675,1.675,0,0,0-1.277-.437,2.086,2.086,0,0,0-1.234.375,2.546,2.546,0,0,0-.828.984V0H32.715V-8.453ZM43.5-10.5v2.047h1.578v1.117H43.5v5.249a1.173,1.173,0,0,0,.211.763.888.888,0,0,0,.719.254,3.5,3.5,0,0,0,.688-.094V0a4.215,4.215,0,0,1-1.109.155A1.8,1.8,0,0,1,42.551-.43a2.517,2.517,0,0,1-.492-1.664V-7.336H40.52V-8.453h1.539V-10.5ZM48.34,0H46.895V-8.453H48.34ZM46.777-10.7a.863.863,0,0,1,.215-.594.807.807,0,0,1,.637-.242.819.819,0,0,1,.641.242.854.854,0,0,1,.219.594.826.826,0,0,1-.219.586.834.834,0,0,1-.641.234.821.821,0,0,1-.637-.234A.834.834,0,0,1,46.777-10.7Zm5.234,2.242.039.938a3.122,3.122,0,0,1,2.508-1.094A2.417,2.417,0,0,1,56.973-7.25a3.2,3.2,0,0,1,1.1-.984,3.242,3.242,0,0,1,1.6-.375q2.781,0,2.828,2.945V0H61.051V-5.578a1.941,1.941,0,0,0-.414-1.355,1.823,1.823,0,0,0-1.391-.449,1.917,1.917,0,0,0-1.336.48,1.949,1.949,0,0,0-.617,1.293V0H55.84V-5.539a1.613,1.613,0,0,0-1.8-1.844A1.934,1.934,0,0,0,52.09-6.172V0H50.645V-8.453ZM68.184.156a3.693,3.693,0,0,1-2.8-1.129,4.19,4.19,0,0,1-1.078-3.02v-.266a5.073,5.073,0,0,1,.48-2.246,3.748,3.748,0,0,1,1.344-1.547A3.378,3.378,0,0,1,68-8.609a3.166,3.166,0,0,1,2.563,1.086,4.7,4.7,0,0,1,.914,3.109v.6H65.754a3,3,0,0,0,.73,2.02,2.3,2.3,0,0,0,1.777.77,2.517,2.517,0,0,0,1.3-.312,3.259,3.259,0,0,0,.93-.828l.883.688A3.55,3.55,0,0,1,68.184.156ZM68-7.422a1.928,1.928,0,0,0-1.469.637A3.1,3.1,0,0,0,65.8-5h4.234v-.109a2.753,2.753,0,0,0-.594-1.707A1.815,1.815,0,0,0,68-7.422Zm10.07,5.18a1.064,1.064,0,0,0-.441-.91,4.249,4.249,0,0,0-1.539-.559,7.277,7.277,0,0,1-1.742-.562,2.479,2.479,0,0,1-.953-.781,1.869,1.869,0,0,1-.309-1.078,2.193,2.193,0,0,1,.879-1.758,3.432,3.432,0,0,1,2.246-.719,3.532,3.532,0,0,1,2.332.742,2.357,2.357,0,0,1,.895,1.9H77.988a1.3,1.3,0,0,0-.5-1.023,1.888,1.888,0,0,0-1.27-.43,1.976,1.976,0,0,0-1.234.344,1.082,1.082,0,0,0-.445.9.877.877,0,0,0,.414.789,5.1,5.1,0,0,0,1.5.508A7.8,7.8,0,0,1,78.2-4.3a2.558,2.558,0,0,1,1,.809,1.988,1.988,0,0,1,.324,1.152,2.163,2.163,0,0,1-.906,1.816,3.8,3.8,0,0,1-2.352.684,4.257,4.257,0,0,1-1.8-.359,2.922,2.922,0,0,1-1.223-1A2.42,2.42,0,0,1,72.8-2.6h1.445a1.5,1.5,0,0,0,.582,1.152,2.258,2.258,0,0,0,1.434.426,2.331,2.331,0,0,0,1.316-.332A1.02,1.02,0,0,0,78.074-2.242Z" transform="translate(1220 4091)" fill="#12263f"/>
    <path id="Trazado_101256" data-name="Trazado 101256" d="M-94.094-5.07A7.053,7.053,0,0,1-96.9-6.434a2.6,2.6,0,0,1-.879-2,2.751,2.751,0,0,1,1.074-2.223,4.269,4.269,0,0,1,2.793-.879,4.66,4.66,0,0,1,2.09.453A3.436,3.436,0,0,1-90.4-9.828a3.2,3.2,0,0,1,.5,1.742h-1.508a2.08,2.08,0,0,0-.656-1.627,2.669,2.669,0,0,0-1.852-.592,2.732,2.732,0,0,0-1.73.489,1.632,1.632,0,0,0-.621,1.358,1.468,1.468,0,0,0,.59,1.178,5.785,5.785,0,0,0,2.008.88,9.316,9.316,0,0,1,2.219.88A3.367,3.367,0,0,1-90.262-4.4a2.861,2.861,0,0,1,.387,1.508A2.658,2.658,0,0,1-90.953-.676a4.6,4.6,0,0,1-2.883.832,5.347,5.347,0,0,1-2.187-.449,3.681,3.681,0,0,1-1.566-1.23A3,3,0,0,1-98.141-3.3h1.508a1.959,1.959,0,0,0,.762,1.629,3.207,3.207,0,0,0,2.035.6,2.948,2.948,0,0,0,1.82-.484,1.573,1.573,0,0,0,.633-1.32,1.545,1.545,0,0,0-.586-1.293A6.755,6.755,0,0,0-94.094-5.07ZM-86.609,0h-1.445V-8.453h1.445Zm-1.562-10.7a.863.863,0,0,1,.215-.594.807.807,0,0,1,.637-.242.819.819,0,0,1,.641.242.854.854,0,0,1,.219.594.826.826,0,0,1-.219.586.834.834,0,0,1-.641.234.821.821,0,0,1-.637-.234A.834.834,0,0,1-88.172-10.7Zm8.8,8.453a1.064,1.064,0,0,0-.441-.91,4.249,4.249,0,0,0-1.539-.559A7.277,7.277,0,0,1-83.1-4.273a2.479,2.479,0,0,1-.953-.781,1.869,1.869,0,0,1-.309-1.078,2.193,2.193,0,0,1,.879-1.758,3.432,3.432,0,0,1,2.246-.719,3.532,3.532,0,0,1,2.332.742,2.357,2.357,0,0,1,.895,1.9h-1.453a1.3,1.3,0,0,0-.5-1.023,1.888,1.888,0,0,0-1.27-.43,1.976,1.976,0,0,0-1.234.344,1.082,1.082,0,0,0-.445.9.877.877,0,0,0,.414.789,5.1,5.1,0,0,0,1.5.508A7.8,7.8,0,0,1-79.25-4.3a2.558,2.558,0,0,1,1,.809,1.988,1.988,0,0,1,.324,1.152,2.163,2.163,0,0,1-.906,1.816,3.8,3.8,0,0,1-2.352.684,4.257,4.257,0,0,1-1.8-.359,2.922,2.922,0,0,1-1.223-1A2.42,2.42,0,0,1-84.648-2.6H-83.2a1.5,1.5,0,0,0,.582,1.152,2.258,2.258,0,0,0,1.434.426,2.331,2.331,0,0,0,1.316-.332A1.02,1.02,0,0,0-79.375-2.242Zm5.289-8.258v2.047h1.578v1.117h-1.578v5.249a1.173,1.173,0,0,0,.211.763.888.888,0,0,0,.719.254,3.5,3.5,0,0,0,.688-.094V0a4.215,4.215,0,0,1-1.109.155A1.8,1.8,0,0,1-75.039-.43a2.517,2.517,0,0,1-.492-1.664V-7.336H-77.07V-8.453h1.539V-10.5ZM-67.312.156a3.693,3.693,0,0,1-2.8-1.129,4.19,4.19,0,0,1-1.078-3.02v-.266a5.073,5.073,0,0,1,.48-2.246,3.748,3.748,0,0,1,1.344-1.547,3.378,3.378,0,0,1,1.871-.559A3.166,3.166,0,0,1-64.93-7.523a4.7,4.7,0,0,1,.914,3.109v.6h-5.727a3,3,0,0,0,.73,2.02,2.3,2.3,0,0,0,1.777.77,2.517,2.517,0,0,0,1.3-.312,3.259,3.259,0,0,0,.93-.828l.883.688A3.55,3.55,0,0,1-67.312.156Zm-.18-7.578a1.928,1.928,0,0,0-1.469.637A3.1,3.1,0,0,0-69.7-5h4.234v-.109a2.753,2.753,0,0,0-.594-1.707A1.815,1.815,0,0,0-67.492-7.422Zm6.508-1.031.039.938a3.122,3.122,0,0,1,2.508-1.094A2.417,2.417,0,0,1-56.023-7.25a3.2,3.2,0,0,1,1.1-.984,3.242,3.242,0,0,1,1.6-.375q2.781,0,2.828,2.945V0h-1.445V-5.578a1.941,1.941,0,0,0-.414-1.355,1.823,1.823,0,0,0-1.391-.449,1.917,1.917,0,0,0-1.336.48A1.949,1.949,0,0,0-55.7-5.609V0h-1.453V-5.539a1.613,1.613,0,0,0-1.8-1.844,1.934,1.934,0,0,0-1.945,1.211V0h-1.445V-8.453ZM-43.1,0a3.036,3.036,0,0,1-.2-.891A3.225,3.225,0,0,1-45.711.156a2.984,2.984,0,0,1-2.051-.707,2.287,2.287,0,0,1-.8-1.793,2.39,2.39,0,0,1,1-2.051,4.733,4.733,0,0,1,2.824-.73h1.406v-.664A1.623,1.623,0,0,0-43.781-7a1.821,1.821,0,0,0-1.336-.449,2.107,2.107,0,0,0-1.3.391,1.151,1.151,0,0,0-.523.945h-1.453a2,2,0,0,1,.449-1.223,3.066,3.066,0,0,1,1.219-.934,4.1,4.1,0,0,1,1.691-.344,3.342,3.342,0,0,1,2.289.73,2.635,2.635,0,0,1,.859,2.012v3.891a4.757,4.757,0,0,0,.3,1.852V0Zm-2.4-1.1a2.54,2.54,0,0,0,1.289-.352,2.127,2.127,0,0,0,.883-.914V-4.1h-1.133q-2.656,0-2.656,1.555a1.316,1.316,0,0,0,.453,1.063A1.742,1.742,0,0,0-45.5-1.1ZM-26.68-5.32A7.037,7.037,0,0,1-27.242-2.4,4.261,4.261,0,0,1-28.836-.5a4.385,4.385,0,0,1-2.406.656A4.347,4.347,0,0,1-33.625-.5a4.363,4.363,0,0,1-1.613-1.883,6.752,6.752,0,0,1-.59-2.832v-.82a6.953,6.953,0,0,1,.57-2.9,4.347,4.347,0,0,1,1.613-1.926,4.329,4.329,0,0,1,2.387-.668,4.41,4.41,0,0,1,2.41.66,4.253,4.253,0,0,1,1.605,1.914,7.071,7.071,0,0,1,.563,2.918Zm-1.492-.734a5.1,5.1,0,0,0-.812-3.105,2.68,2.68,0,0,0-2.273-1.082A2.651,2.651,0,0,0-33.5-9.16a5,5,0,0,0-.84,3v.836a5.107,5.107,0,0,0,.824,3.082,2.662,2.662,0,0,0,2.27,1.121,2.652,2.652,0,0,0,2.25-1.059,5.079,5.079,0,0,0,.82-3.035Zm10.656,1.922A5.062,5.062,0,0,1-18.4-1.023,2.829,2.829,0,0,1-20.789.156,3.1,3.1,0,0,1-23.211-.82V3.25h-1.445v-11.7h1.32l.07.938a2.977,2.977,0,0,1,2.453-1.094A2.882,2.882,0,0,1-18.4-7.461a5.117,5.117,0,0,1,.887,3.2ZM-18.961-4.3a3.735,3.735,0,0,0-.609-2.258,1.963,1.963,0,0,0-1.672-.828,2.125,2.125,0,0,0-1.969,1.164V-2.18a2.129,2.129,0,0,0,1.984,1.156,1.954,1.954,0,0,0,1.652-.824A4.077,4.077,0,0,0-18.961-4.3ZM-12.172.156a3.693,3.693,0,0,1-2.8-1.129,4.19,4.19,0,0,1-1.078-3.02v-.266a5.073,5.073,0,0,1,.48-2.246,3.748,3.748,0,0,1,1.344-1.547,3.378,3.378,0,0,1,1.871-.559A3.166,3.166,0,0,1-9.789-7.523a4.7,4.7,0,0,1,.914,3.109v.6H-14.6a3,3,0,0,0,.73,2.02,2.3,2.3,0,0,0,1.777.77,2.517,2.517,0,0,0,1.3-.312,3.259,3.259,0,0,0,.93-.828l.883.688A3.55,3.55,0,0,1-12.172.156Zm-.18-7.578a1.928,1.928,0,0,0-1.469.637A3.1,3.1,0,0,0-14.555-5h4.234v-.109a2.753,2.753,0,0,0-.594-1.707A1.815,1.815,0,0,0-12.352-7.422Zm9.234.266a4.331,4.331,0,0,0-.711-.055A1.9,1.9,0,0,0-5.758-6V0H-7.2V-8.453H-5.8l.023.977A2.251,2.251,0,0,1-3.758-8.609a1.477,1.477,0,0,1,.641.109ZM3.117,0a3.036,3.036,0,0,1-.2-.891A3.225,3.225,0,0,1,.508.156,2.984,2.984,0,0,1-1.543-.551a2.287,2.287,0,0,1-.8-1.793,2.39,2.39,0,0,1,1-2.051,4.733,4.733,0,0,1,2.824-.73H2.891v-.664A1.623,1.623,0,0,0,2.438-7,1.821,1.821,0,0,0,1.1-7.445a2.107,2.107,0,0,0-1.3.391,1.151,1.151,0,0,0-.523.945H-2.172a2,2,0,0,1,.449-1.223A3.066,3.066,0,0,1-.5-8.266a4.1,4.1,0,0,1,1.691-.344,3.342,3.342,0,0,1,2.289.73,2.635,2.635,0,0,1,.859,2.012v3.891a4.757,4.757,0,0,0,.3,1.852V0ZM.719-1.1a2.54,2.54,0,0,0,1.289-.352,2.127,2.127,0,0,0,.883-.914V-4.1H1.758Q-.9-4.1-.9-2.547A1.316,1.316,0,0,0-.445-1.484,1.742,1.742,0,0,0,.719-1.1Zm7.844-9.4v2.047h1.578v1.117H8.563v5.249a1.173,1.173,0,0,0,.211.763.888.888,0,0,0,.719.254,3.5,3.5,0,0,0,.688-.094V0A4.215,4.215,0,0,1,9.07.156,1.8,1.8,0,0,1,7.609-.43a2.517,2.517,0,0,1-.492-1.664V-7.336H5.578V-8.453H7.117V-10.5ZM13.4,0H11.953V-8.453H13.4ZM11.836-10.7a.863.863,0,0,1,.215-.594.807.807,0,0,1,.637-.242.819.819,0,0,1,.641.242.854.854,0,0,1,.219.594.826.826,0,0,1-.219.586.834.834,0,0,1-.641.234.821.821,0,0,1-.637-.234A.834.834,0,0,1,11.836-10.7ZM18.5-1.961l2.094-6.492H22.07L19.039,0h-1.1L14.875-8.453h1.477ZM22.961-4.3a4.993,4.993,0,0,1,.488-2.234A3.643,3.643,0,0,1,24.809-8.07,3.7,3.7,0,0,1,26.8-8.609a3.565,3.565,0,0,1,2.793,1.2,4.6,4.6,0,0,1,1.066,3.18v.1a5.036,5.036,0,0,1-.473,2.215A3.589,3.589,0,0,1,28.832-.391a3.743,3.743,0,0,1-2.02.547,3.556,3.556,0,0,1-2.785-1.2A4.575,4.575,0,0,1,22.961-4.2Zm1.453.172a3.616,3.616,0,0,0,.652,2.258,2.088,2.088,0,0,0,1.746.852,2.075,2.075,0,0,0,1.75-.863A3.955,3.955,0,0,0,29.211-4.3a3.61,3.61,0,0,0-.66-2.254A2.1,2.1,0,0,0,26.8-7.422a2.075,2.075,0,0,0-1.727.852A3.925,3.925,0,0,0,24.414-4.133ZM45.4,0H43.891V-5.258H38.156V0h-1.5V-11.375h1.5v4.891h5.734v-4.891H45.4Zm7.656-.836a3.07,3.07,0,0,1-2.477.992A2.628,2.628,0,0,1,48.52-.629,3.4,3.4,0,0,1,47.8-2.953v-5.5H49.25v5.461q0,1.922,1.563,1.922a2.163,2.163,0,0,0,2.2-1.234V-8.453h1.445V0H53.086Zm7.109.992a3.693,3.693,0,0,1-2.8-1.129,4.19,4.19,0,0,1-1.078-3.02v-.266A5.073,5.073,0,0,1,56.77-6.5a3.748,3.748,0,0,1,1.344-1.547,3.378,3.378,0,0,1,1.871-.559,3.166,3.166,0,0,1,2.563,1.086,4.7,4.7,0,0,1,.914,3.109v.6H57.734a3,3,0,0,0,.73,2.02,2.3,2.3,0,0,0,1.777.77,2.517,2.517,0,0,0,1.3-.312,3.259,3.259,0,0,0,.93-.828l.883.688A3.55,3.55,0,0,1,60.164.156Zm-.18-7.578a1.928,1.928,0,0,0-1.469.637A3.1,3.1,0,0,0,57.781-5h4.234v-.109a2.753,2.753,0,0,0-.594-1.707A1.815,1.815,0,0,0,59.984-7.422Zm.7-4.562h1.75l-2.094,2.3-1.164,0Zm9.367,9.742a1.064,1.064,0,0,0-.441-.91,4.249,4.249,0,0,0-1.539-.559,7.277,7.277,0,0,1-1.742-.562,2.479,2.479,0,0,1-.953-.781,1.869,1.869,0,0,1-.309-1.078,2.193,2.193,0,0,1,.879-1.758A3.432,3.432,0,0,1,68.2-8.609a3.532,3.532,0,0,1,2.332.742,2.357,2.357,0,0,1,.895,1.9H69.969a1.3,1.3,0,0,0-.5-1.023,1.888,1.888,0,0,0-1.27-.43,1.976,1.976,0,0,0-1.234.344,1.082,1.082,0,0,0-.445.9.877.877,0,0,0,.414.789,5.1,5.1,0,0,0,1.5.508A7.8,7.8,0,0,1,70.18-4.3a2.558,2.558,0,0,1,1,.809A1.988,1.988,0,0,1,71.5-2.344a2.163,2.163,0,0,1-.906,1.816,3.8,3.8,0,0,1-2.352.684,4.257,4.257,0,0,1-1.8-.359,2.922,2.922,0,0,1-1.223-1A2.42,2.42,0,0,1,64.781-2.6h1.445a1.5,1.5,0,0,0,.582,1.152,2.258,2.258,0,0,0,1.434.426,2.331,2.331,0,0,0,1.316-.332A1.02,1.02,0,0,0,70.055-2.242ZM80.523-4.133a5.062,5.062,0,0,1-.883,3.109A2.829,2.829,0,0,1,77.25.156,3.1,3.1,0,0,1,74.828-.82V3.25H73.383v-11.7H74.7l.07.938a2.977,2.977,0,0,1,2.453-1.094,2.882,2.882,0,0,1,2.41,1.148,5.117,5.117,0,0,1,.887,3.2ZM79.078-4.3a3.735,3.735,0,0,0-.609-2.258A1.963,1.963,0,0,0,76.8-7.383a2.125,2.125,0,0,0-1.969,1.164V-2.18a2.129,2.129,0,0,0,1.984,1.156,1.954,1.954,0,0,0,1.652-.824A4.077,4.077,0,0,0,79.078-4.3ZM85.867.156a3.693,3.693,0,0,1-2.8-1.129,4.19,4.19,0,0,1-1.078-3.02v-.266a5.073,5.073,0,0,1,.48-2.246,3.748,3.748,0,0,1,1.344-1.547,3.378,3.378,0,0,1,1.871-.559A3.166,3.166,0,0,1,88.25-7.523a4.7,4.7,0,0,1,.914,3.109v.6H83.438a3,3,0,0,0,.73,2.02,2.3,2.3,0,0,0,1.777.77,2.517,2.517,0,0,0,1.3-.312,3.259,3.259,0,0,0,.93-.828l.883.688A3.55,3.55,0,0,1,85.867.156Zm-.18-7.578a1.928,1.928,0,0,0-1.469.637A3.1,3.1,0,0,0,83.484-5h4.234v-.109a2.753,2.753,0,0,0-.594-1.707A1.815,1.815,0,0,0,85.688-7.422Zm4.8,3.125a4.952,4.952,0,0,1,.922-3.129A2.915,2.915,0,0,1,93.82-8.609a2.932,2.932,0,0,1,2.352,1.016V-12h1.445V0H96.289l-.07-.906A2.943,2.943,0,0,1,93.8.156a2.887,2.887,0,0,1-2.395-1.2,5.008,5.008,0,0,1-.926-3.141Zm1.445.164a3.749,3.749,0,0,0,.594,2.25,1.92,1.92,0,0,0,1.641.813A2.109,2.109,0,0,0,96.172-2.3V-6.187a2.125,2.125,0,0,0-1.992-1.2,1.929,1.929,0,0,0-1.656.82A4.128,4.128,0,0,0,91.93-4.133Z" transform="translate(380 4156)" fill="#12263f"/>
    <path id="Trazado_101255" data-name="Trazado 101255" d="M-94.094-5.07A7.053,7.053,0,0,1-96.9-6.434a2.6,2.6,0,0,1-.879-2,2.751,2.751,0,0,1,1.074-2.223,4.269,4.269,0,0,1,2.793-.879,4.66,4.66,0,0,1,2.09.453A3.436,3.436,0,0,1-90.4-9.828a3.2,3.2,0,0,1,.5,1.742h-1.508a2.08,2.08,0,0,0-.656-1.627,2.669,2.669,0,0,0-1.852-.592,2.732,2.732,0,0,0-1.73.489,1.632,1.632,0,0,0-.621,1.358,1.468,1.468,0,0,0,.59,1.178,5.785,5.785,0,0,0,2.008.88,9.316,9.316,0,0,1,2.219.88A3.367,3.367,0,0,1-90.262-4.4a2.861,2.861,0,0,1,.387,1.508A2.658,2.658,0,0,1-90.953-.676a4.6,4.6,0,0,1-2.883.832,5.347,5.347,0,0,1-2.187-.449,3.681,3.681,0,0,1-1.566-1.23A3,3,0,0,1-98.141-3.3h1.508a1.959,1.959,0,0,0,.762,1.629,3.207,3.207,0,0,0,2.035.6,2.948,2.948,0,0,0,1.82-.484,1.573,1.573,0,0,0,.633-1.32,1.545,1.545,0,0,0-.586-1.293A6.755,6.755,0,0,0-94.094-5.07ZM-86.609,0h-1.445V-8.453h1.445Zm-1.562-10.7a.863.863,0,0,1,.215-.594.807.807,0,0,1,.637-.242.819.819,0,0,1,.641.242.854.854,0,0,1,.219.594.826.826,0,0,1-.219.586.834.834,0,0,1-.641.234.821.821,0,0,1-.637-.234A.834.834,0,0,1-88.172-10.7Zm8.8,8.453a1.064,1.064,0,0,0-.441-.91,4.249,4.249,0,0,0-1.539-.559A7.277,7.277,0,0,1-83.1-4.273a2.479,2.479,0,0,1-.953-.781,1.869,1.869,0,0,1-.309-1.078,2.193,2.193,0,0,1,.879-1.758,3.432,3.432,0,0,1,2.246-.719,3.532,3.532,0,0,1,2.332.742,2.357,2.357,0,0,1,.895,1.9h-1.453a1.3,1.3,0,0,0-.5-1.023,1.888,1.888,0,0,0-1.27-.43,1.976,1.976,0,0,0-1.234.344,1.082,1.082,0,0,0-.445.9.877.877,0,0,0,.414.789,5.1,5.1,0,0,0,1.5.508A7.8,7.8,0,0,1-79.25-4.3a2.558,2.558,0,0,1,1,.809,1.988,1.988,0,0,1,.324,1.152,2.163,2.163,0,0,1-.906,1.816,3.8,3.8,0,0,1-2.352.684,4.257,4.257,0,0,1-1.8-.359,2.922,2.922,0,0,1-1.223-1A2.42,2.42,0,0,1-84.648-2.6H-83.2a1.5,1.5,0,0,0,.582,1.152,2.258,2.258,0,0,0,1.434.426,2.331,2.331,0,0,0,1.316-.332A1.02,1.02,0,0,0-79.375-2.242Zm5.289-8.258v2.047h1.578v1.117h-1.578v5.249a1.173,1.173,0,0,0,.211.763.888.888,0,0,0,.719.254,3.5,3.5,0,0,0,.688-.094V0a4.215,4.215,0,0,1-1.109.155A1.8,1.8,0,0,1-75.039-.43a2.517,2.517,0,0,1-.492-1.664V-7.336H-77.07V-8.453h1.539V-10.5ZM-67.312.156a3.693,3.693,0,0,1-2.8-1.129,4.19,4.19,0,0,1-1.078-3.02v-.266a5.073,5.073,0,0,1,.48-2.246,3.748,3.748,0,0,1,1.344-1.547,3.378,3.378,0,0,1,1.871-.559A3.166,3.166,0,0,1-64.93-7.523a4.7,4.7,0,0,1,.914,3.109v.6h-5.727a3,3,0,0,0,.73,2.02,2.3,2.3,0,0,0,1.777.77,2.517,2.517,0,0,0,1.3-.312,3.259,3.259,0,0,0,.93-.828l.883.688A3.55,3.55,0,0,1-67.312.156Zm-.18-7.578a1.928,1.928,0,0,0-1.469.637A3.1,3.1,0,0,0-69.7-5h4.234v-.109a2.753,2.753,0,0,0-.594-1.707A1.815,1.815,0,0,0-67.492-7.422Zm6.508-1.031.039.938a3.122,3.122,0,0,1,2.508-1.094A2.417,2.417,0,0,1-56.023-7.25a3.2,3.2,0,0,1,1.1-.984,3.242,3.242,0,0,1,1.6-.375q2.781,0,2.828,2.945V0h-1.445V-5.578a1.941,1.941,0,0,0-.414-1.355,1.823,1.823,0,0,0-1.391-.449,1.917,1.917,0,0,0-1.336.48A1.949,1.949,0,0,0-55.7-5.609V0h-1.453V-5.539a1.613,1.613,0,0,0-1.8-1.844,1.934,1.934,0,0,0-1.945,1.211V0h-1.445V-8.453ZM-43.1,0a3.036,3.036,0,0,1-.2-.891A3.225,3.225,0,0,1-45.711.156a2.984,2.984,0,0,1-2.051-.707,2.287,2.287,0,0,1-.8-1.793,2.39,2.39,0,0,1,1-2.051,4.733,4.733,0,0,1,2.824-.73h1.406v-.664A1.623,1.623,0,0,0-43.781-7a1.821,1.821,0,0,0-1.336-.449,2.107,2.107,0,0,0-1.3.391,1.151,1.151,0,0,0-.523.945h-1.453a2,2,0,0,1,.449-1.223,3.066,3.066,0,0,1,1.219-.934,4.1,4.1,0,0,1,1.691-.344,3.342,3.342,0,0,1,2.289.73,2.635,2.635,0,0,1,.859,2.012v3.891a4.757,4.757,0,0,0,.3,1.852V0Zm-2.4-1.1a2.54,2.54,0,0,0,1.289-.352,2.127,2.127,0,0,0,.883-.914V-4.1h-1.133q-2.656,0-2.656,1.555a1.316,1.316,0,0,0,.453,1.063A1.742,1.742,0,0,0-45.5-1.1ZM-26.68-5.32A7.037,7.037,0,0,1-27.242-2.4,4.261,4.261,0,0,1-28.836-.5a4.385,4.385,0,0,1-2.406.656A4.347,4.347,0,0,1-33.625-.5a4.363,4.363,0,0,1-1.613-1.883,6.752,6.752,0,0,1-.59-2.832v-.82a6.953,6.953,0,0,1,.57-2.9,4.347,4.347,0,0,1,1.613-1.926,4.329,4.329,0,0,1,2.387-.668,4.41,4.41,0,0,1,2.41.66,4.253,4.253,0,0,1,1.605,1.914,7.071,7.071,0,0,1,.563,2.918Zm-1.492-.734a5.1,5.1,0,0,0-.812-3.105,2.68,2.68,0,0,0-2.273-1.082A2.651,2.651,0,0,0-33.5-9.16a5,5,0,0,0-.84,3v.836a5.107,5.107,0,0,0,.824,3.082,2.662,2.662,0,0,0,2.27,1.121,2.652,2.652,0,0,0,2.25-1.059,5.079,5.079,0,0,0,.82-3.035Zm10.656,1.922A5.062,5.062,0,0,1-18.4-1.023,2.829,2.829,0,0,1-20.789.156,3.1,3.1,0,0,1-23.211-.82V3.25h-1.445v-11.7h1.32l.07.938a2.977,2.977,0,0,1,2.453-1.094A2.882,2.882,0,0,1-18.4-7.461a5.117,5.117,0,0,1,.887,3.2ZM-18.961-4.3a3.735,3.735,0,0,0-.609-2.258,1.963,1.963,0,0,0-1.672-.828,2.125,2.125,0,0,0-1.969,1.164V-2.18a2.129,2.129,0,0,0,1.984,1.156,1.954,1.954,0,0,0,1.652-.824A4.077,4.077,0,0,0-18.961-4.3ZM-12.172.156a3.693,3.693,0,0,1-2.8-1.129,4.19,4.19,0,0,1-1.078-3.02v-.266a5.073,5.073,0,0,1,.48-2.246,3.748,3.748,0,0,1,1.344-1.547,3.378,3.378,0,0,1,1.871-.559A3.166,3.166,0,0,1-9.789-7.523a4.7,4.7,0,0,1,.914,3.109v.6H-14.6a3,3,0,0,0,.73,2.02,2.3,2.3,0,0,0,1.777.77,2.517,2.517,0,0,0,1.3-.312,3.259,3.259,0,0,0,.93-.828l.883.688A3.55,3.55,0,0,1-12.172.156Zm-.18-7.578a1.928,1.928,0,0,0-1.469.637A3.1,3.1,0,0,0-14.555-5h4.234v-.109a2.753,2.753,0,0,0-.594-1.707A1.815,1.815,0,0,0-12.352-7.422Zm9.234.266a4.331,4.331,0,0,0-.711-.055A1.9,1.9,0,0,0-5.758-6V0H-7.2V-8.453H-5.8l.023.977A2.251,2.251,0,0,1-3.758-8.609a1.477,1.477,0,0,1,.641.109ZM3.117,0a3.036,3.036,0,0,1-.2-.891A3.225,3.225,0,0,1,.508.156,2.984,2.984,0,0,1-1.543-.551a2.287,2.287,0,0,1-.8-1.793,2.39,2.39,0,0,1,1-2.051,4.733,4.733,0,0,1,2.824-.73H2.891v-.664A1.623,1.623,0,0,0,2.438-7,1.821,1.821,0,0,0,1.1-7.445a2.107,2.107,0,0,0-1.3.391,1.151,1.151,0,0,0-.523.945H-2.172a2,2,0,0,1,.449-1.223A3.066,3.066,0,0,1-.5-8.266a4.1,4.1,0,0,1,1.691-.344,3.342,3.342,0,0,1,2.289.73,2.635,2.635,0,0,1,.859,2.012v3.891a4.757,4.757,0,0,0,.3,1.852V0ZM.719-1.1a2.54,2.54,0,0,0,1.289-.352,2.127,2.127,0,0,0,.883-.914V-4.1H1.758Q-.9-4.1-.9-2.547A1.316,1.316,0,0,0-.445-1.484,1.742,1.742,0,0,0,.719-1.1Zm7.844-9.4v2.047h1.578v1.117H8.563v5.249a1.173,1.173,0,0,0,.211.763.888.888,0,0,0,.719.254,3.5,3.5,0,0,0,.688-.094V0A4.215,4.215,0,0,1,9.07.156,1.8,1.8,0,0,1,7.609-.43a2.517,2.517,0,0,1-.492-1.664V-7.336H5.578V-8.453H7.117V-10.5ZM13.4,0H11.953V-8.453H13.4ZM11.836-10.7a.863.863,0,0,1,.215-.594.807.807,0,0,1,.637-.242.819.819,0,0,1,.641.242.854.854,0,0,1,.219.594.826.826,0,0,1-.219.586.834.834,0,0,1-.641.234.821.821,0,0,1-.637-.234A.834.834,0,0,1,11.836-10.7ZM18.5-1.961l2.094-6.492H22.07L19.039,0h-1.1L14.875-8.453h1.477ZM22.961-4.3a4.993,4.993,0,0,1,.488-2.234A3.643,3.643,0,0,1,24.809-8.07,3.7,3.7,0,0,1,26.8-8.609a3.565,3.565,0,0,1,2.793,1.2,4.6,4.6,0,0,1,1.066,3.18v.1a5.036,5.036,0,0,1-.473,2.215A3.589,3.589,0,0,1,28.832-.391a3.743,3.743,0,0,1-2.02.547,3.556,3.556,0,0,1-2.785-1.2A4.575,4.575,0,0,1,22.961-4.2Zm1.453.172a3.616,3.616,0,0,0,.652,2.258,2.088,2.088,0,0,0,1.746.852,2.075,2.075,0,0,0,1.75-.863A3.955,3.955,0,0,0,29.211-4.3a3.61,3.61,0,0,0-.66-2.254A2.1,2.1,0,0,0,26.8-7.422a2.075,2.075,0,0,0-1.727.852A3.925,3.925,0,0,0,24.414-4.133ZM45.4,0H43.891V-5.258H38.156V0h-1.5V-11.375h1.5v4.891h5.734v-4.891H45.4Zm7.656-.836a3.07,3.07,0,0,1-2.477.992A2.628,2.628,0,0,1,48.52-.629,3.4,3.4,0,0,1,47.8-2.953v-5.5H49.25v5.461q0,1.922,1.563,1.922a2.163,2.163,0,0,0,2.2-1.234V-8.453h1.445V0H53.086Zm7.109.992a3.693,3.693,0,0,1-2.8-1.129,4.19,4.19,0,0,1-1.078-3.02v-.266A5.073,5.073,0,0,1,56.77-6.5a3.748,3.748,0,0,1,1.344-1.547,3.378,3.378,0,0,1,1.871-.559,3.166,3.166,0,0,1,2.563,1.086,4.7,4.7,0,0,1,.914,3.109v.6H57.734a3,3,0,0,0,.73,2.02,2.3,2.3,0,0,0,1.777.77,2.517,2.517,0,0,0,1.3-.312,3.259,3.259,0,0,0,.93-.828l.883.688A3.55,3.55,0,0,1,60.164.156Zm-.18-7.578a1.928,1.928,0,0,0-1.469.637A3.1,3.1,0,0,0,57.781-5h4.234v-.109a2.753,2.753,0,0,0-.594-1.707A1.815,1.815,0,0,0,59.984-7.422Zm.7-4.562h1.75l-2.094,2.3-1.164,0Zm9.367,9.742a1.064,1.064,0,0,0-.441-.91,4.249,4.249,0,0,0-1.539-.559,7.277,7.277,0,0,1-1.742-.562,2.479,2.479,0,0,1-.953-.781,1.869,1.869,0,0,1-.309-1.078,2.193,2.193,0,0,1,.879-1.758A3.432,3.432,0,0,1,68.2-8.609a3.532,3.532,0,0,1,2.332.742,2.357,2.357,0,0,1,.895,1.9H69.969a1.3,1.3,0,0,0-.5-1.023,1.888,1.888,0,0,0-1.27-.43,1.976,1.976,0,0,0-1.234.344,1.082,1.082,0,0,0-.445.9.877.877,0,0,0,.414.789,5.1,5.1,0,0,0,1.5.508A7.8,7.8,0,0,1,70.18-4.3a2.558,2.558,0,0,1,1,.809A1.988,1.988,0,0,1,71.5-2.344a2.163,2.163,0,0,1-.906,1.816,3.8,3.8,0,0,1-2.352.684,4.257,4.257,0,0,1-1.8-.359,2.922,2.922,0,0,1-1.223-1A2.42,2.42,0,0,1,64.781-2.6h1.445a1.5,1.5,0,0,0,.582,1.152,2.258,2.258,0,0,0,1.434.426,2.331,2.331,0,0,0,1.316-.332A1.02,1.02,0,0,0,70.055-2.242ZM80.523-4.133a5.062,5.062,0,0,1-.883,3.109A2.829,2.829,0,0,1,77.25.156,3.1,3.1,0,0,1,74.828-.82V3.25H73.383v-11.7H74.7l.07.938a2.977,2.977,0,0,1,2.453-1.094,2.882,2.882,0,0,1,2.41,1.148,5.117,5.117,0,0,1,.887,3.2ZM79.078-4.3a3.735,3.735,0,0,0-.609-2.258A1.963,1.963,0,0,0,76.8-7.383a2.125,2.125,0,0,0-1.969,1.164V-2.18a2.129,2.129,0,0,0,1.984,1.156,1.954,1.954,0,0,0,1.652-.824A4.077,4.077,0,0,0,79.078-4.3ZM85.867.156a3.693,3.693,0,0,1-2.8-1.129,4.19,4.19,0,0,1-1.078-3.02v-.266a5.073,5.073,0,0,1,.48-2.246,3.748,3.748,0,0,1,1.344-1.547,3.378,3.378,0,0,1,1.871-.559A3.166,3.166,0,0,1,88.25-7.523a4.7,4.7,0,0,1,.914,3.109v.6H83.438a3,3,0,0,0,.73,2.02,2.3,2.3,0,0,0,1.777.77,2.517,2.517,0,0,0,1.3-.312,3.259,3.259,0,0,0,.93-.828l.883.688A3.55,3.55,0,0,1,85.867.156Zm-.18-7.578a1.928,1.928,0,0,0-1.469.637A3.1,3.1,0,0,0,83.484-5h4.234v-.109a2.753,2.753,0,0,0-.594-1.707A1.815,1.815,0,0,0,85.688-7.422Zm4.8,3.125a4.952,4.952,0,0,1,.922-3.129A2.915,2.915,0,0,1,93.82-8.609a2.932,2.932,0,0,1,2.352,1.016V-12h1.445V0H96.289l-.07-.906A2.943,2.943,0,0,1,93.8.156a2.887,2.887,0,0,1-2.395-1.2,5.008,5.008,0,0,1-.926-3.141Zm1.445.164a3.749,3.749,0,0,0,.594,2.25,1.92,1.92,0,0,0,1.641.813A2.109,2.109,0,0,0,96.172-2.3V-6.187a2.125,2.125,0,0,0-1.992-1.2,1.929,1.929,0,0,0-1.656.82A4.128,4.128,0,0,0,91.93-4.133Z" transform="translate(800 4156)" fill="#12263f"/>
    <path id="Trazado_101257" data-name="Trazado 101257" d="M-27.035,0h-2.344V-4.875h-4.57V0h-2.344V-11.375h2.344v4.609h4.57v-4.609h2.344Zm4.281,0H-25.02V-8.453h2.266Zm-2.4-10.641a1.112,1.112,0,0,1,.34-.836,1.277,1.277,0,0,1,.926-.328,1.28,1.28,0,0,1,.922.328,1.105,1.105,0,0,1,.344.836,1.108,1.108,0,0,1-.348.844,1.283,1.283,0,0,1-.918.328A1.283,1.283,0,0,1-24.8-9.8,1.108,1.108,0,0,1-25.152-10.641Zm11.867,6.492a5.07,5.07,0,0,1-.887,3.129A2.843,2.843,0,0,1-16.566.156a2.633,2.633,0,0,1-2.07-.891V3.25h-2.258v-11.7H-18.8l.078.828a2.654,2.654,0,0,1,2.141-.984,2.862,2.862,0,0,1,2.43,1.156,5.207,5.207,0,0,1,.867,3.188Zm-2.258-.172a3.345,3.345,0,0,0-.418-1.826,1.36,1.36,0,0,0-1.215-.643,1.478,1.478,0,0,0-1.461.815V-2.5a1.5,1.5,0,0,0,1.477.839Q-15.543-1.664-15.543-4.321ZM-8,.156A4.15,4.15,0,0,1-11.023-.984a4.054,4.054,0,0,1-1.168-3.039v-.219A5.106,5.106,0,0,1-11.7-6.52,3.612,3.612,0,0,1-10.3-8.066a3.914,3.914,0,0,1,2.059-.543,3.508,3.508,0,0,1,2.73,1.094,4.444,4.444,0,0,1,1,3.1v.922H-9.9a2.1,2.1,0,0,0,.66,1.328,2,2,0,0,0,1.395.5,2.437,2.437,0,0,0,2.039-.945L-4.7-1.367A3.389,3.389,0,0,1-6.074-.246,4.511,4.511,0,0,1-8,.156Zm-.258-6.945a1.411,1.411,0,0,0-1.09.455,2.357,2.357,0,0,0-.535,1.3h3.141v-.181a1.681,1.681,0,0,0-.406-1.165A1.456,1.456,0,0,0-8.254-6.789Zm9.766.453A6.134,6.134,0,0,0,.7-6.4a1.654,1.654,0,0,0-1.68.867V0H-3.238V-8.453h2.133l.063,1.008A2.092,2.092,0,0,1,.84-8.609a2.366,2.366,0,0,1,.7.1ZM5.9-2.758l1.57-5.7H9.832L6.98,0H4.824L1.973-8.453H4.332ZM13.207,0H10.941V-8.453h2.266Zm-2.4-10.641a1.112,1.112,0,0,1,.34-.836,1.277,1.277,0,0,1,.926-.328,1.28,1.28,0,0,1,.922.328,1.105,1.105,0,0,1,.344.836,1.108,1.108,0,0,1-.348.844,1.283,1.283,0,0,1-.918.328,1.283,1.283,0,0,1-.918-.328A1.108,1.108,0,0,1,10.809-10.641Zm8.836,8.3a.727.727,0,0,0-.41-.652,4.659,4.659,0,0,0-1.316-.426Q14.9-4.047,14.9-5.977a2.323,2.323,0,0,1,.934-1.879,3.766,3.766,0,0,1,2.441-.754,4.053,4.053,0,0,1,2.574.758,2.388,2.388,0,0,1,.965,1.969H19.559a1.092,1.092,0,0,0-.312-.8A1.322,1.322,0,0,0,18.27-7a1.351,1.351,0,0,0-.883.258.814.814,0,0,0-.312.656.7.7,0,0,0,.355.605,3.657,3.657,0,0,0,1.2.4,9.8,9.8,0,0,1,1.422.379A2.336,2.336,0,0,1,21.84-2.43a2.2,2.2,0,0,1-.992,1.871,4.28,4.28,0,0,1-2.562.715A4.47,4.47,0,0,1,16.4-.223a3.166,3.166,0,0,1-1.293-1.039,2.414,2.414,0,0,1-.469-1.426h2.141a1.179,1.179,0,0,0,.445.922,1.766,1.766,0,0,0,1.109.32,1.635,1.635,0,0,0,.98-.246A.766.766,0,0,0,19.645-2.336Zm3.3-1.969a5.013,5.013,0,0,1,.484-2.242A3.546,3.546,0,0,1,24.82-8.07a4.069,4.069,0,0,1,2.113-.539,3.849,3.849,0,0,1,2.793,1.047,4.2,4.2,0,0,1,1.207,2.844l.016.578A4.418,4.418,0,0,1,29.863-1.02,3.775,3.775,0,0,1,26.949.156a3.793,3.793,0,0,1-2.918-1.172A4.5,4.5,0,0,1,22.941-4.2Zm2.258.16A3.16,3.16,0,0,0,25.652-2.3a1.5,1.5,0,0,0,1.3.638,1.5,1.5,0,0,0,1.281-.63,3.457,3.457,0,0,0,.461-2.015A3.128,3.128,0,0,0,28.23-6.14a1.5,1.5,0,0,0-1.3-.649,1.474,1.474,0,0,0-1.281.646A3.516,3.516,0,0,0,25.2-4.144ZM37.09-6.336a6.134,6.134,0,0,0-.812-.062,1.654,1.654,0,0,0-1.68.867V0H32.34V-8.453h2.133l.063,1.008a2.092,2.092,0,0,1,1.883-1.164,2.366,2.366,0,0,1,.7.1Z" transform="translate(800 4234)" fill="#12263f"/>
    <path id="Trazado_101258" data-name="Trazado 101258" d="M-78.23-2.984A1.2,1.2,0,0,0-78.7-4a6.148,6.148,0,0,0-1.687-.75,11.963,11.963,0,0,1-1.93-.777,3.153,3.153,0,0,1-1.937-2.82A2.747,2.747,0,0,1-83.734-10a3.389,3.389,0,0,1,1.492-1.129,5.616,5.616,0,0,1,2.184-.406,5.112,5.112,0,0,1,2.172.441,3.458,3.458,0,0,1,1.48,1.246,3.261,3.261,0,0,1,.527,1.828h-2.344a1.534,1.534,0,0,0-.492-1.215A2.023,2.023,0,0,0-80.1-9.664a2.162,2.162,0,0,0-1.336.363,1.146,1.146,0,0,0-.477.957,1.1,1.1,0,0,0,.559.93,6.311,6.311,0,0,0,1.645.7,7.106,7.106,0,0,1,2.914,1.492A2.972,2.972,0,0,1-75.879-3,2.737,2.737,0,0,1-77-.684,4.891,4.891,0,0,1-80,.156a5.808,5.808,0,0,1-2.391-.48,3.783,3.783,0,0,1-1.645-1.316,3.371,3.371,0,0,1-.566-1.937h2.352Q-82.254-1.7-80-1.7a2.189,2.189,0,0,0,1.3-.34A1.106,1.106,0,0,0-78.23-2.984ZM-72.059,0h-2.266V-8.453h2.266Zm-2.4-10.641a1.112,1.112,0,0,1,.34-.836,1.277,1.277,0,0,1,.926-.328,1.28,1.28,0,0,1,.922.328,1.105,1.105,0,0,1,.344.836,1.108,1.108,0,0,1-.348.844,1.283,1.283,0,0,1-.918.328,1.283,1.283,0,0,1-.918-.328A1.108,1.108,0,0,1-74.457-10.641Zm8.836,8.3a.727.727,0,0,0-.41-.652,4.659,4.659,0,0,0-1.316-.426q-3.016-.633-3.016-2.562a2.323,2.323,0,0,1,.934-1.879,3.766,3.766,0,0,1,2.441-.754,4.053,4.053,0,0,1,2.574.758,2.388,2.388,0,0,1,.965,1.969h-2.258a1.092,1.092,0,0,0-.312-.8A1.322,1.322,0,0,0-67-7a1.351,1.351,0,0,0-.883.258.814.814,0,0,0-.312.656.7.7,0,0,0,.355.605,3.657,3.657,0,0,0,1.2.4,9.8,9.8,0,0,1,1.422.379A2.336,2.336,0,0,1-63.426-2.43a2.2,2.2,0,0,1-.992,1.871A4.28,4.28,0,0,1-66.98.156a4.47,4.47,0,0,1-1.887-.379A3.166,3.166,0,0,1-70.16-1.262a2.414,2.414,0,0,1-.469-1.426h2.141a1.179,1.179,0,0,0,.445.922,1.766,1.766,0,0,0,1.109.32,1.635,1.635,0,0,0,.98-.246A.766.766,0,0,0-65.621-2.336Zm6.352-8.2v2.078h1.445V-6.8H-59.27v4.219a1.007,1.007,0,0,0,.18.672.9.9,0,0,0,.688.2,3.6,3.6,0,0,0,.664-.055V-.047a4.648,4.648,0,0,1-1.367.2,2.156,2.156,0,0,1-2.422-2.4V-6.8h-1.234V-8.453h1.234v-2.078ZM-52.676.156A4.15,4.15,0,0,1-55.7-.984a4.054,4.054,0,0,1-1.168-3.039v-.219a5.106,5.106,0,0,1,.492-2.277,3.612,3.612,0,0,1,1.395-1.547,3.914,3.914,0,0,1,2.059-.543A3.508,3.508,0,0,1-50.2-7.516a4.444,4.444,0,0,1,1,3.1v.922h-5.383a2.1,2.1,0,0,0,.66,1.328,2,2,0,0,0,1.395.5,2.437,2.437,0,0,0,2.039-.945l1.109,1.242A3.389,3.389,0,0,1-50.754-.246,4.511,4.511,0,0,1-52.676.156Zm-.258-6.945a1.411,1.411,0,0,0-1.09.455,2.357,2.357,0,0,0-.535,1.3h3.141v-.181a1.681,1.681,0,0,0-.406-1.165A1.456,1.456,0,0,0-52.934-6.789ZM-45.8-8.453l.07.945a2.971,2.971,0,0,1,2.43-1.1A2.255,2.255,0,0,1-41.059-7.32,2.9,2.9,0,0,1-38.52-8.609a2.521,2.521,0,0,1,2.047.8A3.681,3.681,0,0,1-35.8-5.4V0h-2.266V-5.4a1.616,1.616,0,0,0-.281-1.053,1.245,1.245,0,0,0-.992-.333,1.409,1.409,0,0,0-1.406.971L-40.738,0H-43V-5.4a1.6,1.6,0,0,0-.289-1.065,1.257,1.257,0,0,0-.984-.329,1.463,1.463,0,0,0-1.391.8V0h-2.258V-8.453ZM-29.168,0a2.507,2.507,0,0,1-.227-.758,2.732,2.732,0,0,1-2.133.914,3,3,0,0,1-2.059-.719A2.312,2.312,0,0,1-34.4-2.375a2.389,2.389,0,0,1,1-2.062,4.915,4.915,0,0,1,2.879-.727h1.039v-.484a1.393,1.393,0,0,0-.3-.937,1.183,1.183,0,0,0-.949-.352,1.345,1.345,0,0,0-.895.273.929.929,0,0,0-.324.75h-2.258a2.268,2.268,0,0,1,.453-1.359,3,3,0,0,1,1.281-.98,4.669,4.669,0,0,1,1.859-.355,3.689,3.689,0,0,1,2.48.785,2.747,2.747,0,0,1,.918,2.207v3.664a4.041,4.041,0,0,0,.336,1.82V0Zm-1.867-1.57a1.945,1.945,0,0,0,.922-.223,1.462,1.462,0,0,0,.625-.6V-3.844h-.844q-1.7,0-1.8,1.172l-.008.133a.9.9,0,0,0,.3.7A1.153,1.153,0,0,0-31.035-1.57ZM-12.012-5.43a6.867,6.867,0,0,1-.594,2.945A4.472,4.472,0,0,1-14.3-.531,4.7,4.7,0,0,1-16.84.156a4.732,4.732,0,0,1-2.523-.68,4.515,4.515,0,0,1-1.719-1.941,6.67,6.67,0,0,1-.617-2.9V-5.93a6.831,6.831,0,0,1,.605-2.957,4.508,4.508,0,0,1,1.711-1.961,4.706,4.706,0,0,1,2.527-.684,4.706,4.706,0,0,1,2.527.684,4.508,4.508,0,0,1,1.711,1.961,6.811,6.811,0,0,1,.605,2.949Zm-2.375-.516a4.787,4.787,0,0,0-.641-2.719,2.088,2.088,0,0,0-1.828-.93,2.088,2.088,0,0,0-1.82.918,4.732,4.732,0,0,0-.648,2.691v.555a4.847,4.847,0,0,0,.641,2.7,2.082,2.082,0,0,0,1.844.961,2.064,2.064,0,0,0,1.813-.926,4.819,4.819,0,0,0,.641-2.7Zm11.539,1.8A5.07,5.07,0,0,1-3.734-1.02,2.843,2.843,0,0,1-6.129.156,2.633,2.633,0,0,1-8.2-.734V3.25h-2.258v-11.7h2.094l.078.828a2.654,2.654,0,0,1,2.141-.984,2.862,2.862,0,0,1,2.43,1.156,5.207,5.207,0,0,1,.867,3.188Zm-2.258-.172a3.345,3.345,0,0,0-.418-1.826,1.36,1.36,0,0,0-1.215-.643A1.478,1.478,0,0,0-8.2-5.974V-2.5a1.5,1.5,0,0,0,1.477.839Q-5.105-1.664-5.105-4.321ZM2.441.156A4.15,4.15,0,0,1-.586-.984,4.054,4.054,0,0,1-1.754-4.023v-.219A5.106,5.106,0,0,1-1.262-6.52,3.612,3.612,0,0,1,.133-8.066a3.914,3.914,0,0,1,2.059-.543,3.508,3.508,0,0,1,2.73,1.094,4.444,4.444,0,0,1,1,3.1v.922H.535A2.1,2.1,0,0,0,1.2-2.164a2,2,0,0,0,1.395.5,2.437,2.437,0,0,0,2.039-.945L5.738-1.367A3.389,3.389,0,0,1,4.363-.246,4.511,4.511,0,0,1,2.441.156ZM2.184-6.789a1.411,1.411,0,0,0-1.09.455,2.357,2.357,0,0,0-.535,1.3H3.7v-.181a1.681,1.681,0,0,0-.406-1.165A1.456,1.456,0,0,0,2.184-6.789Zm9.766.453a6.134,6.134,0,0,0-.812-.062,1.654,1.654,0,0,0-1.68.867V0H7.2V-8.453H9.332l.063,1.008a2.092,2.092,0,0,1,1.883-1.164,2.366,2.366,0,0,1,.7.1ZM17.7,0a2.507,2.507,0,0,1-.227-.758A2.732,2.732,0,0,1,15.34.156a3,3,0,0,1-2.059-.719,2.312,2.312,0,0,1-.816-1.812,2.389,2.389,0,0,1,1-2.062,4.915,4.915,0,0,1,2.879-.727h1.039v-.484a1.393,1.393,0,0,0-.3-.937,1.183,1.183,0,0,0-.949-.352,1.345,1.345,0,0,0-.895.273.929.929,0,0,0-.324.75H12.652a2.268,2.268,0,0,1,.453-1.359,3,3,0,0,1,1.281-.98,4.669,4.669,0,0,1,1.859-.355,3.689,3.689,0,0,1,2.48.785,2.747,2.747,0,0,1,.918,2.207v3.664a4.041,4.041,0,0,0,.336,1.82V0ZM15.832-1.57a1.945,1.945,0,0,0,.922-.223,1.462,1.462,0,0,0,.625-.6V-3.844h-.844q-1.7,0-1.8,1.172l-.008.133a.9.9,0,0,0,.3.7A1.153,1.153,0,0,0,15.832-1.57Zm8.25-8.961v2.078h1.445V-6.8H24.082v4.219a1.007,1.007,0,0,0,.18.672.9.9,0,0,0,.688.2,3.6,3.6,0,0,0,.664-.055V-.047a4.648,4.648,0,0,1-1.367.2,2.156,2.156,0,0,1-2.422-2.4V-6.8H20.59V-8.453h1.234v-2.078ZM29.168,0H26.9V-8.453h2.266Zm-2.4-10.641a1.112,1.112,0,0,1,.34-.836,1.277,1.277,0,0,1,.926-.328,1.28,1.28,0,0,1,.922.328,1.105,1.105,0,0,1,.344.836,1.108,1.108,0,0,1-.348.844,1.283,1.283,0,0,1-.918.328,1.283,1.283,0,0,1-.918-.328A1.108,1.108,0,0,1,26.77-10.641Zm7.422,7.883,1.57-5.7h2.359L35.27,0H33.113L30.262-8.453h2.359ZM38.645-4.3a5.013,5.013,0,0,1,.484-2.242A3.546,3.546,0,0,1,40.523-8.07a4.069,4.069,0,0,1,2.113-.539A3.849,3.849,0,0,1,45.43-7.562a4.2,4.2,0,0,1,1.207,2.844l.016.578A4.418,4.418,0,0,1,45.566-1.02,3.775,3.775,0,0,1,42.652.156a3.793,3.793,0,0,1-2.918-1.172A4.5,4.5,0,0,1,38.645-4.2Zm2.258.16A3.16,3.16,0,0,0,41.355-2.3a1.5,1.5,0,0,0,1.3.638,1.5,1.5,0,0,0,1.281-.63,3.457,3.457,0,0,0,.461-2.015,3.128,3.128,0,0,0-.461-1.831,1.5,1.5,0,0,0-1.3-.649,1.474,1.474,0,0,0-1.281.646A3.516,3.516,0,0,0,40.9-4.144ZM61.434,0H59.09V-4.875H54.52V0H52.176V-11.375H54.52v4.609h4.57v-4.609h2.344ZM62.98-4.3a5.013,5.013,0,0,1,.484-2.242A3.546,3.546,0,0,1,64.859-8.07a4.069,4.069,0,0,1,2.113-.539,3.849,3.849,0,0,1,2.793,1.047,4.2,4.2,0,0,1,1.207,2.844l.016.578A4.418,4.418,0,0,1,69.9-1.02,3.775,3.775,0,0,1,66.988.156,3.793,3.793,0,0,1,64.07-1.016,4.5,4.5,0,0,1,62.98-4.2Zm2.258.16A3.16,3.16,0,0,0,65.691-2.3a1.5,1.5,0,0,0,1.3.638,1.5,1.5,0,0,0,1.281-.63,3.457,3.457,0,0,0,.461-2.015A3.128,3.128,0,0,0,68.27-6.14a1.5,1.5,0,0,0-1.3-.649,1.474,1.474,0,0,0-1.281.646A3.516,3.516,0,0,0,65.238-4.144ZM76.957-2.336a.727.727,0,0,0-.41-.652,4.659,4.659,0,0,0-1.316-.426q-3.016-.633-3.016-2.562a2.323,2.323,0,0,1,.934-1.879,3.766,3.766,0,0,1,2.441-.754,4.053,4.053,0,0,1,2.574.758,2.388,2.388,0,0,1,.965,1.969H76.871a1.092,1.092,0,0,0-.312-.8A1.322,1.322,0,0,0,75.582-7a1.351,1.351,0,0,0-.883.258.814.814,0,0,0-.312.656.7.7,0,0,0,.355.605,3.657,3.657,0,0,0,1.2.4,9.8,9.8,0,0,1,1.422.379A2.336,2.336,0,0,1,79.152-2.43,2.2,2.2,0,0,1,78.16-.559,4.28,4.28,0,0,1,75.6.156a4.47,4.47,0,0,1-1.887-.379,3.166,3.166,0,0,1-1.293-1.039,2.414,2.414,0,0,1-.469-1.426H74.09a1.179,1.179,0,0,0,.445.922,1.766,1.766,0,0,0,1.109.32,1.635,1.635,0,0,0,.98-.246A.766.766,0,0,0,76.957-2.336Zm6.352-8.2v2.078h1.445V-6.8H83.309v4.219a1.007,1.007,0,0,0,.18.672.9.9,0,0,0,.688.2,3.6,3.6,0,0,0,.664-.055V-.047a4.648,4.648,0,0,1-1.367.2,2.156,2.156,0,0,1-2.422-2.4V-6.8H79.816V-8.453h1.234v-2.078Z" transform="translate(800 4295)" fill="#12263f"/>
    <path id="Trazado_101259" data-name="Trazado 101259" d="M-24.355,0H-26.7V-4.875h-4.57V0h-2.344V-11.375h2.344v4.609h4.57v-4.609h2.344Zm6.8,0a2.507,2.507,0,0,1-.227-.758,2.732,2.732,0,0,1-2.133.914,3,3,0,0,1-2.059-.719,2.312,2.312,0,0,1-.816-1.812,2.389,2.389,0,0,1,1-2.062,4.915,4.915,0,0,1,2.879-.727h1.039v-.484a1.393,1.393,0,0,0-.3-.937,1.183,1.183,0,0,0-.949-.352,1.345,1.345,0,0,0-.895.273.929.929,0,0,0-.324.75h-2.258a2.268,2.268,0,0,1,.453-1.359,3,3,0,0,1,1.281-.98,4.669,4.669,0,0,1,1.859-.355,3.689,3.689,0,0,1,2.48.785,2.747,2.747,0,0,1,.918,2.207v3.664a4.041,4.041,0,0,0,.336,1.82V0Zm-1.867-1.57a1.945,1.945,0,0,0,.922-.223,1.462,1.462,0,0,0,.625-.6V-3.844h-.844q-1.7,0-1.8,1.172l-.008.133a.9.9,0,0,0,.3.7A1.153,1.153,0,0,0-19.426-1.57Zm10.3-4.766A6.134,6.134,0,0,0-9.941-6.4a1.654,1.654,0,0,0-1.68.867V0h-2.258V-8.453h2.133l.063,1.008A2.092,2.092,0,0,1-9.8-8.609a2.366,2.366,0,0,1,.7.1Zm.586,2.047a5.094,5.094,0,0,1,.887-3.148A2.877,2.877,0,0,1-5.23-8.609a2.589,2.589,0,0,1,2.039.922V-12H-.926V0H-2.965l-.109-.9A2.657,2.657,0,0,1-5.246.156,2.869,2.869,0,0,1-7.641-1.02,5.258,5.258,0,0,1-8.543-4.289Zm2.258.161A3.355,3.355,0,0,0-5.871-2.3a1.348,1.348,0,0,0,1.2.636,1.51,1.51,0,0,0,1.477-.887V-5.9a1.489,1.489,0,0,0-1.461-.887Q-6.285-6.789-6.285-4.128ZM8.176-3.07,9.285-8.453h2.18L9.309,0H7.418l-1.6-5.32L4.215,0H2.332L.176-8.453h2.18l1.1,5.375L5-8.453H6.637ZM17.48,0a2.507,2.507,0,0,1-.227-.758,2.732,2.732,0,0,1-2.133.914,3,3,0,0,1-2.059-.719,2.312,2.312,0,0,1-.816-1.812,2.389,2.389,0,0,1,1-2.062,4.915,4.915,0,0,1,2.879-.727H17.16v-.484a1.393,1.393,0,0,0-.3-.937,1.183,1.183,0,0,0-.949-.352,1.345,1.345,0,0,0-.895.273.929.929,0,0,0-.324.75H12.434a2.268,2.268,0,0,1,.453-1.359,3,3,0,0,1,1.281-.98,4.669,4.669,0,0,1,1.859-.355,3.689,3.689,0,0,1,2.48.785,2.747,2.747,0,0,1,.918,2.207v3.664a4.041,4.041,0,0,0,.336,1.82V0ZM15.613-1.57a1.945,1.945,0,0,0,.922-.223,1.462,1.462,0,0,0,.625-.6V-3.844h-.844q-1.7,0-1.8,1.172l-.008.133a.9.9,0,0,0,.3.7A1.153,1.153,0,0,0,15.613-1.57Zm10.3-4.766A6.134,6.134,0,0,0,25.1-6.4a1.654,1.654,0,0,0-1.68.867V0H21.16V-8.453h2.133l.063,1.008a2.092,2.092,0,0,1,1.883-1.164,2.366,2.366,0,0,1,.7.1ZM30.738.156A4.15,4.15,0,0,1,27.711-.984a4.054,4.054,0,0,1-1.168-3.039v-.219a5.106,5.106,0,0,1,.492-2.277A3.612,3.612,0,0,1,28.43-8.066a3.914,3.914,0,0,1,2.059-.543,3.508,3.508,0,0,1,2.73,1.094,4.444,4.444,0,0,1,1,3.1v.922H28.832a2.1,2.1,0,0,0,.66,1.328,2,2,0,0,0,1.395.5,2.437,2.437,0,0,0,2.039-.945l1.109,1.242A3.389,3.389,0,0,1,32.66-.246,4.511,4.511,0,0,1,30.738.156ZM30.48-6.789a1.411,1.411,0,0,0-1.09.455,2.357,2.357,0,0,0-.535,1.3H32v-.181a1.681,1.681,0,0,0-.406-1.165A1.456,1.456,0,0,0,30.48-6.789Z" transform="translate(800 4360)" fill="#12263f"/>
    <path id="Trazado_101254" data-name="Trazado 101254" d="M-94.094-5.07A7.053,7.053,0,0,1-96.9-6.434a2.6,2.6,0,0,1-.879-2,2.751,2.751,0,0,1,1.074-2.223,4.269,4.269,0,0,1,2.793-.879,4.66,4.66,0,0,1,2.09.453A3.436,3.436,0,0,1-90.4-9.828a3.2,3.2,0,0,1,.5,1.742h-1.508a2.08,2.08,0,0,0-.656-1.627,2.669,2.669,0,0,0-1.852-.592,2.732,2.732,0,0,0-1.73.489,1.632,1.632,0,0,0-.621,1.358,1.468,1.468,0,0,0,.59,1.178,5.785,5.785,0,0,0,2.008.88,9.316,9.316,0,0,1,2.219.88A3.367,3.367,0,0,1-90.262-4.4a2.861,2.861,0,0,1,.387,1.508A2.658,2.658,0,0,1-90.953-.676a4.6,4.6,0,0,1-2.883.832,5.347,5.347,0,0,1-2.187-.449,3.681,3.681,0,0,1-1.566-1.23A3,3,0,0,1-98.141-3.3h1.508a1.959,1.959,0,0,0,.762,1.629,3.207,3.207,0,0,0,2.035.6,2.948,2.948,0,0,0,1.82-.484,1.573,1.573,0,0,0,.633-1.32,1.545,1.545,0,0,0-.586-1.293A6.755,6.755,0,0,0-94.094-5.07ZM-86.609,0h-1.445V-8.453h1.445Zm-1.562-10.7a.863.863,0,0,1,.215-.594.807.807,0,0,1,.637-.242.819.819,0,0,1,.641.242.854.854,0,0,1,.219.594.826.826,0,0,1-.219.586.834.834,0,0,1-.641.234.821.821,0,0,1-.637-.234A.834.834,0,0,1-88.172-10.7Zm8.8,8.453a1.064,1.064,0,0,0-.441-.91,4.249,4.249,0,0,0-1.539-.559A7.277,7.277,0,0,1-83.1-4.273a2.479,2.479,0,0,1-.953-.781,1.869,1.869,0,0,1-.309-1.078,2.193,2.193,0,0,1,.879-1.758,3.432,3.432,0,0,1,2.246-.719,3.532,3.532,0,0,1,2.332.742,2.357,2.357,0,0,1,.895,1.9h-1.453a1.3,1.3,0,0,0-.5-1.023,1.888,1.888,0,0,0-1.27-.43,1.976,1.976,0,0,0-1.234.344,1.082,1.082,0,0,0-.445.9.877.877,0,0,0,.414.789,5.1,5.1,0,0,0,1.5.508A7.8,7.8,0,0,1-79.25-4.3a2.558,2.558,0,0,1,1,.809,1.988,1.988,0,0,1,.324,1.152,2.163,2.163,0,0,1-.906,1.816,3.8,3.8,0,0,1-2.352.684,4.257,4.257,0,0,1-1.8-.359,2.922,2.922,0,0,1-1.223-1A2.42,2.42,0,0,1-84.648-2.6H-83.2a1.5,1.5,0,0,0,.582,1.152,2.258,2.258,0,0,0,1.434.426,2.331,2.331,0,0,0,1.316-.332A1.02,1.02,0,0,0-79.375-2.242Zm5.289-8.258v2.047h1.578v1.117h-1.578v5.249a1.173,1.173,0,0,0,.211.763.888.888,0,0,0,.719.254,3.5,3.5,0,0,0,.688-.094V0a4.215,4.215,0,0,1-1.109.155A1.8,1.8,0,0,1-75.039-.43a2.517,2.517,0,0,1-.492-1.664V-7.336H-77.07V-8.453h1.539V-10.5ZM-67.312.156a3.693,3.693,0,0,1-2.8-1.129,4.19,4.19,0,0,1-1.078-3.02v-.266a5.073,5.073,0,0,1,.48-2.246,3.748,3.748,0,0,1,1.344-1.547,3.378,3.378,0,0,1,1.871-.559A3.166,3.166,0,0,1-64.93-7.523a4.7,4.7,0,0,1,.914,3.109v.6h-5.727a3,3,0,0,0,.73,2.02,2.3,2.3,0,0,0,1.777.77,2.517,2.517,0,0,0,1.3-.312,3.259,3.259,0,0,0,.93-.828l.883.688A3.55,3.55,0,0,1-67.312.156Zm-.18-7.578a1.928,1.928,0,0,0-1.469.637A3.1,3.1,0,0,0-69.7-5h4.234v-.109a2.753,2.753,0,0,0-.594-1.707A1.815,1.815,0,0,0-67.492-7.422Zm6.508-1.031.039.938a3.122,3.122,0,0,1,2.508-1.094A2.417,2.417,0,0,1-56.023-7.25a3.2,3.2,0,0,1,1.1-.984,3.242,3.242,0,0,1,1.6-.375q2.781,0,2.828,2.945V0h-1.445V-5.578a1.941,1.941,0,0,0-.414-1.355,1.823,1.823,0,0,0-1.391-.449,1.917,1.917,0,0,0-1.336.48A1.949,1.949,0,0,0-55.7-5.609V0h-1.453V-5.539a1.613,1.613,0,0,0-1.8-1.844,1.934,1.934,0,0,0-1.945,1.211V0h-1.445V-8.453ZM-43.1,0a3.036,3.036,0,0,1-.2-.891A3.225,3.225,0,0,1-45.711.156a2.984,2.984,0,0,1-2.051-.707,2.287,2.287,0,0,1-.8-1.793,2.39,2.39,0,0,1,1-2.051,4.733,4.733,0,0,1,2.824-.73h1.406v-.664A1.623,1.623,0,0,0-43.781-7a1.821,1.821,0,0,0-1.336-.449,2.107,2.107,0,0,0-1.3.391,1.151,1.151,0,0,0-.523.945h-1.453a2,2,0,0,1,.449-1.223,3.066,3.066,0,0,1,1.219-.934,4.1,4.1,0,0,1,1.691-.344,3.342,3.342,0,0,1,2.289.73,2.635,2.635,0,0,1,.859,2.012v3.891a4.757,4.757,0,0,0,.3,1.852V0Zm-2.4-1.1a2.54,2.54,0,0,0,1.289-.352,2.127,2.127,0,0,0,.883-.914V-4.1h-1.133q-2.656,0-2.656,1.555a1.316,1.316,0,0,0,.453,1.063A1.742,1.742,0,0,0-45.5-1.1ZM-26.68-5.32A7.037,7.037,0,0,1-27.242-2.4,4.261,4.261,0,0,1-28.836-.5a4.385,4.385,0,0,1-2.406.656A4.347,4.347,0,0,1-33.625-.5a4.363,4.363,0,0,1-1.613-1.883,6.752,6.752,0,0,1-.59-2.832v-.82a6.953,6.953,0,0,1,.57-2.9,4.347,4.347,0,0,1,1.613-1.926,4.329,4.329,0,0,1,2.387-.668,4.41,4.41,0,0,1,2.41.66,4.253,4.253,0,0,1,1.605,1.914,7.071,7.071,0,0,1,.563,2.918Zm-1.492-.734a5.1,5.1,0,0,0-.812-3.105,2.68,2.68,0,0,0-2.273-1.082A2.651,2.651,0,0,0-33.5-9.16a5,5,0,0,0-.84,3v.836a5.107,5.107,0,0,0,.824,3.082,2.662,2.662,0,0,0,2.27,1.121,2.652,2.652,0,0,0,2.25-1.059,5.079,5.079,0,0,0,.82-3.035Zm10.656,1.922A5.062,5.062,0,0,1-18.4-1.023,2.829,2.829,0,0,1-20.789.156,3.1,3.1,0,0,1-23.211-.82V3.25h-1.445v-11.7h1.32l.07.938a2.977,2.977,0,0,1,2.453-1.094A2.882,2.882,0,0,1-18.4-7.461a5.117,5.117,0,0,1,.887,3.2ZM-18.961-4.3a3.735,3.735,0,0,0-.609-2.258,1.963,1.963,0,0,0-1.672-.828,2.125,2.125,0,0,0-1.969,1.164V-2.18a2.129,2.129,0,0,0,1.984,1.156,1.954,1.954,0,0,0,1.652-.824A4.077,4.077,0,0,0-18.961-4.3ZM-12.172.156a3.693,3.693,0,0,1-2.8-1.129,4.19,4.19,0,0,1-1.078-3.02v-.266a5.073,5.073,0,0,1,.48-2.246,3.748,3.748,0,0,1,1.344-1.547,3.378,3.378,0,0,1,1.871-.559A3.166,3.166,0,0,1-9.789-7.523a4.7,4.7,0,0,1,.914,3.109v.6H-14.6a3,3,0,0,0,.73,2.02,2.3,2.3,0,0,0,1.777.77,2.517,2.517,0,0,0,1.3-.312,3.259,3.259,0,0,0,.93-.828l.883.688A3.55,3.55,0,0,1-12.172.156Zm-.18-7.578a1.928,1.928,0,0,0-1.469.637A3.1,3.1,0,0,0-14.555-5h4.234v-.109a2.753,2.753,0,0,0-.594-1.707A1.815,1.815,0,0,0-12.352-7.422Zm9.234.266a4.331,4.331,0,0,0-.711-.055A1.9,1.9,0,0,0-5.758-6V0H-7.2V-8.453H-5.8l.023.977A2.251,2.251,0,0,1-3.758-8.609a1.477,1.477,0,0,1,.641.109ZM3.117,0a3.036,3.036,0,0,1-.2-.891A3.225,3.225,0,0,1,.508.156,2.984,2.984,0,0,1-1.543-.551a2.287,2.287,0,0,1-.8-1.793,2.39,2.39,0,0,1,1-2.051,4.733,4.733,0,0,1,2.824-.73H2.891v-.664A1.623,1.623,0,0,0,2.438-7,1.821,1.821,0,0,0,1.1-7.445a2.107,2.107,0,0,0-1.3.391,1.151,1.151,0,0,0-.523.945H-2.172a2,2,0,0,1,.449-1.223A3.066,3.066,0,0,1-.5-8.266a4.1,4.1,0,0,1,1.691-.344,3.342,3.342,0,0,1,2.289.73,2.635,2.635,0,0,1,.859,2.012v3.891a4.757,4.757,0,0,0,.3,1.852V0ZM.719-1.1a2.54,2.54,0,0,0,1.289-.352,2.127,2.127,0,0,0,.883-.914V-4.1H1.758Q-.9-4.1-.9-2.547A1.316,1.316,0,0,0-.445-1.484,1.742,1.742,0,0,0,.719-1.1Zm7.844-9.4v2.047h1.578v1.117H8.563v5.249a1.173,1.173,0,0,0,.211.763.888.888,0,0,0,.719.254,3.5,3.5,0,0,0,.688-.094V0A4.215,4.215,0,0,1,9.07.156,1.8,1.8,0,0,1,7.609-.43a2.517,2.517,0,0,1-.492-1.664V-7.336H5.578V-8.453H7.117V-10.5ZM13.4,0H11.953V-8.453H13.4ZM11.836-10.7a.863.863,0,0,1,.215-.594.807.807,0,0,1,.637-.242.819.819,0,0,1,.641.242.854.854,0,0,1,.219.594.826.826,0,0,1-.219.586.834.834,0,0,1-.641.234.821.821,0,0,1-.637-.234A.834.834,0,0,1,11.836-10.7ZM18.5-1.961l2.094-6.492H22.07L19.039,0h-1.1L14.875-8.453h1.477ZM22.961-4.3a4.993,4.993,0,0,1,.488-2.234A3.643,3.643,0,0,1,24.809-8.07,3.7,3.7,0,0,1,26.8-8.609a3.565,3.565,0,0,1,2.793,1.2,4.6,4.6,0,0,1,1.066,3.18v.1a5.036,5.036,0,0,1-.473,2.215A3.589,3.589,0,0,1,28.832-.391a3.743,3.743,0,0,1-2.02.547,3.556,3.556,0,0,1-2.785-1.2A4.575,4.575,0,0,1,22.961-4.2Zm1.453.172a3.616,3.616,0,0,0,.652,2.258,2.088,2.088,0,0,0,1.746.852,2.075,2.075,0,0,0,1.75-.863A3.955,3.955,0,0,0,29.211-4.3a3.61,3.61,0,0,0-.66-2.254A2.1,2.1,0,0,0,26.8-7.422a2.075,2.075,0,0,0-1.727.852A3.925,3.925,0,0,0,24.414-4.133ZM45.4,0H43.891V-5.258H38.156V0h-1.5V-11.375h1.5v4.891h5.734v-4.891H45.4Zm7.656-.836a3.07,3.07,0,0,1-2.477.992A2.628,2.628,0,0,1,48.52-.629,3.4,3.4,0,0,1,47.8-2.953v-5.5H49.25v5.461q0,1.922,1.563,1.922a2.163,2.163,0,0,0,2.2-1.234V-8.453h1.445V0H53.086Zm7.109.992a3.693,3.693,0,0,1-2.8-1.129,4.19,4.19,0,0,1-1.078-3.02v-.266A5.073,5.073,0,0,1,56.77-6.5a3.748,3.748,0,0,1,1.344-1.547,3.378,3.378,0,0,1,1.871-.559,3.166,3.166,0,0,1,2.563,1.086,4.7,4.7,0,0,1,.914,3.109v.6H57.734a3,3,0,0,0,.73,2.02,2.3,2.3,0,0,0,1.777.77,2.517,2.517,0,0,0,1.3-.312,3.259,3.259,0,0,0,.93-.828l.883.688A3.55,3.55,0,0,1,60.164.156Zm-.18-7.578a1.928,1.928,0,0,0-1.469.637A3.1,3.1,0,0,0,57.781-5h4.234v-.109a2.753,2.753,0,0,0-.594-1.707A1.815,1.815,0,0,0,59.984-7.422Zm.7-4.562h1.75l-2.094,2.3-1.164,0Zm9.367,9.742a1.064,1.064,0,0,0-.441-.91,4.249,4.249,0,0,0-1.539-.559,7.277,7.277,0,0,1-1.742-.562,2.479,2.479,0,0,1-.953-.781,1.869,1.869,0,0,1-.309-1.078,2.193,2.193,0,0,1,.879-1.758A3.432,3.432,0,0,1,68.2-8.609a3.532,3.532,0,0,1,2.332.742,2.357,2.357,0,0,1,.895,1.9H69.969a1.3,1.3,0,0,0-.5-1.023,1.888,1.888,0,0,0-1.27-.43,1.976,1.976,0,0,0-1.234.344,1.082,1.082,0,0,0-.445.9.877.877,0,0,0,.414.789,5.1,5.1,0,0,0,1.5.508A7.8,7.8,0,0,1,70.18-4.3a2.558,2.558,0,0,1,1,.809A1.988,1.988,0,0,1,71.5-2.344a2.163,2.163,0,0,1-.906,1.816,3.8,3.8,0,0,1-2.352.684,4.257,4.257,0,0,1-1.8-.359,2.922,2.922,0,0,1-1.223-1A2.42,2.42,0,0,1,64.781-2.6h1.445a1.5,1.5,0,0,0,.582,1.152,2.258,2.258,0,0,0,1.434.426,2.331,2.331,0,0,0,1.316-.332A1.02,1.02,0,0,0,70.055-2.242ZM80.523-4.133a5.062,5.062,0,0,1-.883,3.109A2.829,2.829,0,0,1,77.25.156,3.1,3.1,0,0,1,74.828-.82V3.25H73.383v-11.7H74.7l.07.938a2.977,2.977,0,0,1,2.453-1.094,2.882,2.882,0,0,1,2.41,1.148,5.117,5.117,0,0,1,.887,3.2ZM79.078-4.3a3.735,3.735,0,0,0-.609-2.258A1.963,1.963,0,0,0,76.8-7.383a2.125,2.125,0,0,0-1.969,1.164V-2.18a2.129,2.129,0,0,0,1.984,1.156,1.954,1.954,0,0,0,1.652-.824A4.077,4.077,0,0,0,79.078-4.3ZM85.867.156a3.693,3.693,0,0,1-2.8-1.129,4.19,4.19,0,0,1-1.078-3.02v-.266a5.073,5.073,0,0,1,.48-2.246,3.748,3.748,0,0,1,1.344-1.547,3.378,3.378,0,0,1,1.871-.559A3.166,3.166,0,0,1,88.25-7.523a4.7,4.7,0,0,1,.914,3.109v.6H83.438a3,3,0,0,0,.73,2.02,2.3,2.3,0,0,0,1.777.77,2.517,2.517,0,0,0,1.3-.312,3.259,3.259,0,0,0,.93-.828l.883.688A3.55,3.55,0,0,1,85.867.156Zm-.18-7.578a1.928,1.928,0,0,0-1.469.637A3.1,3.1,0,0,0,83.484-5h4.234v-.109a2.753,2.753,0,0,0-.594-1.707A1.815,1.815,0,0,0,85.688-7.422Zm4.8,3.125a4.952,4.952,0,0,1,.922-3.129A2.915,2.915,0,0,1,93.82-8.609a2.932,2.932,0,0,1,2.352,1.016V-12h1.445V0H96.289l-.07-.906A2.943,2.943,0,0,1,93.8.156a2.887,2.887,0,0,1-2.395-1.2,5.008,5.008,0,0,1-.926-3.141Zm1.445.164a3.749,3.749,0,0,0,.594,2.25,1.92,1.92,0,0,0,1.641.813A2.109,2.109,0,0,0,96.172-2.3V-6.187a2.125,2.125,0,0,0-1.992-1.2,1.929,1.929,0,0,0-1.656.82A4.128,4.128,0,0,0,91.93-4.133Z" transform="translate(1220 4156)" fill="#12263f"/>
    <path id="Trazado_101249" data-name="Trazado 101249" d="M9.15-2.656h-4.7L3.633,0H-.029L5.186-14.219H8.408L13.662,0H9.98ZM5.273-5.3H8.33L6.8-10.234Zm18.613.1a6.372,6.372,0,0,1-1.108,3.931A3.554,3.554,0,0,1,19.785.2,3.046,3.046,0,0,1,17.393-.869V4.063H14.1V-10.566h3.076l.1.977a3.046,3.046,0,0,1,2.49-1.172A3.582,3.582,0,0,1,22.8-9.321a6.45,6.45,0,0,1,1.084,3.96ZM20.6-5.41q0-2.812-1.641-2.812a1.549,1.549,0,0,0-1.562.84v4.16a1.6,1.6,0,0,0,1.582.879q1.572,0,1.621-2.715ZM28.809,0h-3.3V-15h3.3Zm5.5,0h-3.3V-10.566h3.3Zm-3.5-13.3a1.482,1.482,0,0,1,.508-1.159,1.909,1.909,0,0,1,1.318-.452,1.909,1.909,0,0,1,1.318.452,1.482,1.482,0,0,1,.508,1.159,1.482,1.482,0,0,1-.508,1.159,1.909,1.909,0,0,1-1.318.452,1.909,1.909,0,0,1-1.318-.452A1.482,1.482,0,0,1,30.811-13.3ZM40.8-2.344a1.464,1.464,0,0,0,1.074-.376,1.379,1.379,0,0,0,.371-1.05h3.086A3.653,3.653,0,0,1,44.087-.918,4.631,4.631,0,0,1,40.879.2,4.689,4.689,0,0,1,37.246-1.25a5.7,5.7,0,0,1-1.328-4v-.137a6.436,6.436,0,0,1,.591-2.827,4.3,4.3,0,0,1,1.7-1.885,5.081,5.081,0,0,1,2.637-.659,4.573,4.573,0,0,1,3.271,1.143,4.053,4.053,0,0,1,1.211,3.1H42.246a1.807,1.807,0,0,0-.4-1.26,1.382,1.382,0,0,0-1.074-.439q-1.279,0-1.494,1.631a11.507,11.507,0,0,0-.068,1.426,4.52,4.52,0,0,0,.381,2.207A1.319,1.319,0,0,0,40.8-2.344ZM52.676,0a3.716,3.716,0,0,1-.312-.947A3.06,3.06,0,0,1,49.824.2a3.749,3.749,0,0,1-2.539-.9A2.875,2.875,0,0,1,46.24-2.979a2.955,2.955,0,0,1,1.27-2.6A6.468,6.468,0,0,1,51.2-6.455h1.016v-.559q0-1.462-1.26-1.462a1.03,1.03,0,0,0-1.172,1.158H46.494a2.95,2.95,0,0,1,1.3-2.487,5.479,5.479,0,0,1,3.325-.956,4.8,4.8,0,0,1,3.193.986,3.429,3.429,0,0,1,1.2,2.705v4.678a4.79,4.79,0,0,0,.449,2.227V0ZM50.615-2.148a1.836,1.836,0,0,0,1.021-.264,1.653,1.653,0,0,0,.581-.6V-4.7H51.26q-1.719,0-1.719,1.543a.942.942,0,0,0,.3.728A1.1,1.1,0,0,0,50.615-2.148Zm11.191-.2a1.464,1.464,0,0,0,1.074-.376,1.379,1.379,0,0,0,.371-1.05h3.086A3.653,3.653,0,0,1,65.093-.918,4.631,4.631,0,0,1,61.885.2,4.689,4.689,0,0,1,58.252-1.25a5.7,5.7,0,0,1-1.328-4v-.137a6.436,6.436,0,0,1,.591-2.827,4.3,4.3,0,0,1,1.7-1.885,5.081,5.081,0,0,1,2.637-.659,4.573,4.573,0,0,1,3.271,1.143,4.053,4.053,0,0,1,1.211,3.1H63.252a1.807,1.807,0,0,0-.4-1.26,1.382,1.382,0,0,0-1.074-.439q-1.279,0-1.494,1.631a11.507,11.507,0,0,0-.068,1.426A4.52,4.52,0,0,0,60.6-2.959,1.319,1.319,0,0,0,61.807-2.344ZM71.2,0H67.9V-10.566h3.3Zm-3.5-13.3a1.482,1.482,0,0,1,.508-1.159,1.909,1.909,0,0,1,1.318-.452,1.909,1.909,0,0,1,1.318.452,1.482,1.482,0,0,1,.508,1.159,1.482,1.482,0,0,1-.508,1.159,1.909,1.909,0,0,1-1.318.452,1.909,1.909,0,0,1-1.318-.452A1.482,1.482,0,0,1,67.705-13.3Zm5.107,7.92A6.236,6.236,0,0,1,73.428-8.2,4.4,4.4,0,0,1,75.2-10.1a5.323,5.323,0,0,1,2.705-.664,4.858,4.858,0,0,1,3.74,1.47,5.64,5.64,0,0,1,1.367,4v.117a5.472,5.472,0,0,1-1.372,3.921A4.871,4.871,0,0,1,77.92.2,4.927,4.927,0,0,1,74.3-1.157a5.29,5.29,0,0,1-1.475-3.667Zm3.291.205a3.932,3.932,0,0,0,.459,2.148,1.529,1.529,0,0,0,1.357.684q1.758,0,1.8-2.705v-.332q0-2.842-1.816-2.842-1.65,0-1.787,2.451ZM78.35-15h3.477l-2.715,3.066-2.686,0Zm9.131,4.434.107,1.24a3.583,3.583,0,0,1,3.018-1.436,3.015,3.015,0,0,1,2.466.986,4.7,4.7,0,0,1,.845,2.969V0h-3.3V-6.67a1.783,1.783,0,0,0-.322-1.177,1.491,1.491,0,0,0-1.172-.376,1.569,1.569,0,0,0-1.436.762V0H84.395V-10.566ZM110.586,0h-9.922V-2.148l4.57-4.8q1.689-1.924,1.689-3.057a2.126,2.126,0,0,0-.4-1.4,1.43,1.43,0,0,0-1.162-.479,1.447,1.447,0,0,0-1.221.64,2.629,2.629,0,0,0-.469,1.6h-3.3a4.67,4.67,0,0,1,.654-2.417,4.588,4.588,0,0,1,1.816-1.733,5.4,5.4,0,0,1,2.6-.625,5.308,5.308,0,0,1,3.55,1.064,3.8,3.8,0,0,1,1.245,3.057,4.439,4.439,0,0,1-.312,1.636A7.173,7.173,0,0,1,108.95-7a24.476,24.476,0,0,1-2.124,2.339L104.99-2.539h5.6Z" transform="translate(745 4012)" fill="#12263f"/>
    <path id="Trazado_101250" data-name="Trazado 101250" d="M9.15-2.656h-4.7L3.633,0H-.029L5.186-14.219H8.408L13.662,0H9.98ZM5.273-5.3H8.33L6.8-10.234Zm18.613.1a6.372,6.372,0,0,1-1.108,3.931A3.554,3.554,0,0,1,19.785.2,3.046,3.046,0,0,1,17.393-.869V4.063H14.1V-10.566h3.076l.1.977a3.046,3.046,0,0,1,2.49-1.172A3.582,3.582,0,0,1,22.8-9.321a6.45,6.45,0,0,1,1.084,3.96ZM20.6-5.41q0-2.812-1.641-2.812a1.549,1.549,0,0,0-1.562.84v4.16a1.6,1.6,0,0,0,1.582.879q1.572,0,1.621-2.715ZM28.809,0h-3.3V-15h3.3Zm5.5,0h-3.3V-10.566h3.3Zm-3.5-13.3a1.482,1.482,0,0,1,.508-1.159,1.909,1.909,0,0,1,1.318-.452,1.909,1.909,0,0,1,1.318.452,1.482,1.482,0,0,1,.508,1.159,1.482,1.482,0,0,1-.508,1.159,1.909,1.909,0,0,1-1.318.452,1.909,1.909,0,0,1-1.318-.452A1.482,1.482,0,0,1,30.811-13.3ZM40.8-2.344a1.464,1.464,0,0,0,1.074-.376,1.379,1.379,0,0,0,.371-1.05h3.086A3.653,3.653,0,0,1,44.087-.918,4.631,4.631,0,0,1,40.879.2,4.689,4.689,0,0,1,37.246-1.25a5.7,5.7,0,0,1-1.328-4v-.137a6.436,6.436,0,0,1,.591-2.827,4.3,4.3,0,0,1,1.7-1.885,5.081,5.081,0,0,1,2.637-.659,4.573,4.573,0,0,1,3.271,1.143,4.053,4.053,0,0,1,1.211,3.1H42.246a1.807,1.807,0,0,0-.4-1.26,1.382,1.382,0,0,0-1.074-.439q-1.279,0-1.494,1.631a11.507,11.507,0,0,0-.068,1.426,4.52,4.52,0,0,0,.381,2.207A1.319,1.319,0,0,0,40.8-2.344ZM52.676,0a3.716,3.716,0,0,1-.312-.947A3.06,3.06,0,0,1,49.824.2a3.749,3.749,0,0,1-2.539-.9A2.875,2.875,0,0,1,46.24-2.979a2.955,2.955,0,0,1,1.27-2.6A6.468,6.468,0,0,1,51.2-6.455h1.016v-.559q0-1.462-1.26-1.462a1.03,1.03,0,0,0-1.172,1.158H46.494a2.95,2.95,0,0,1,1.3-2.487,5.479,5.479,0,0,1,3.325-.956,4.8,4.8,0,0,1,3.193.986,3.429,3.429,0,0,1,1.2,2.705v4.678a4.79,4.79,0,0,0,.449,2.227V0ZM50.615-2.148a1.836,1.836,0,0,0,1.021-.264,1.653,1.653,0,0,0,.581-.6V-4.7H51.26q-1.719,0-1.719,1.543a.942.942,0,0,0,.3.728A1.1,1.1,0,0,0,50.615-2.148Zm11.191-.2a1.464,1.464,0,0,0,1.074-.376,1.379,1.379,0,0,0,.371-1.05h3.086A3.653,3.653,0,0,1,65.093-.918,4.631,4.631,0,0,1,61.885.2,4.689,4.689,0,0,1,58.252-1.25a5.7,5.7,0,0,1-1.328-4v-.137a6.436,6.436,0,0,1,.591-2.827,4.3,4.3,0,0,1,1.7-1.885,5.081,5.081,0,0,1,2.637-.659,4.573,4.573,0,0,1,3.271,1.143,4.053,4.053,0,0,1,1.211,3.1H63.252a1.807,1.807,0,0,0-.4-1.26,1.382,1.382,0,0,0-1.074-.439q-1.279,0-1.494,1.631a11.507,11.507,0,0,0-.068,1.426A4.52,4.52,0,0,0,60.6-2.959,1.319,1.319,0,0,0,61.807-2.344ZM71.2,0H67.9V-10.566h3.3Zm-3.5-13.3a1.482,1.482,0,0,1,.508-1.159,1.909,1.909,0,0,1,1.318-.452,1.909,1.909,0,0,1,1.318.452,1.482,1.482,0,0,1,.508,1.159,1.482,1.482,0,0,1-.508,1.159,1.909,1.909,0,0,1-1.318.452,1.909,1.909,0,0,1-1.318-.452A1.482,1.482,0,0,1,67.705-13.3Zm5.107,7.92A6.236,6.236,0,0,1,73.428-8.2,4.4,4.4,0,0,1,75.2-10.1a5.323,5.323,0,0,1,2.705-.664,4.858,4.858,0,0,1,3.74,1.47,5.64,5.64,0,0,1,1.367,4v.117a5.472,5.472,0,0,1-1.372,3.921A4.871,4.871,0,0,1,77.92.2,4.927,4.927,0,0,1,74.3-1.157a5.29,5.29,0,0,1-1.475-3.667Zm3.291.205a3.932,3.932,0,0,0,.459,2.148,1.529,1.529,0,0,0,1.357.684q1.758,0,1.8-2.705v-.332q0-2.842-1.816-2.842-1.65,0-1.787,2.451ZM78.35-15h3.477l-2.715,3.066-2.686,0Zm9.131,4.434.107,1.24a3.583,3.583,0,0,1,3.018-1.436,3.015,3.015,0,0,1,2.466.986,4.7,4.7,0,0,1,.845,2.969V0h-3.3V-6.67a1.783,1.783,0,0,0-.322-1.177,1.491,1.491,0,0,0-1.172-.376,1.569,1.569,0,0,0-1.436.762V0H84.395V-10.566Zm16.191,2.08h1.553a1.614,1.614,0,0,0,1.846-1.807,1.562,1.562,0,0,0-.439-1.147,1.666,1.666,0,0,0-1.24-.444,1.784,1.784,0,0,0-1.138.381,1.162,1.162,0,0,0-.483.947h-3.291a3.369,3.369,0,0,1,.625-2,4.127,4.127,0,0,1,1.733-1.372,5.926,5.926,0,0,1,2.437-.493A5.823,5.823,0,0,1,109-13.34a3.6,3.6,0,0,1,1.357,2.979,3,3,0,0,1-.562,1.733A4,4,0,0,1,108.164-7.3a3.823,3.823,0,0,1,1.777,1.245,3.279,3.279,0,0,1,.645,2.065,3.669,3.669,0,0,1-1.465,3.047A6.08,6.08,0,0,1,105.273.2a6.306,6.306,0,0,1-2.593-.532,4.062,4.062,0,0,1-1.812-1.475,3.834,3.834,0,0,1-.615-2.144h3.311a1.482,1.482,0,0,0,.527,1.133,1.862,1.862,0,0,0,1.3.479,1.95,1.95,0,0,0,1.387-.483,1.616,1.616,0,0,0,.518-1.235,1.889,1.889,0,0,0-.537-1.523,2.245,2.245,0,0,0-1.484-.449h-1.6Z" transform="translate(1165 4012)" fill="#12263f"/>
    <circle id="Elipse_4059" data-name="Elipse 4059" cx="30" cy="30" r="30" transform="translate(180 4054)" fill="#4dd0e1"/>
    <circle id="Elipse_4061" data-name="Elipse 4061" cx="30" cy="30" r="30" transform="translate(600 4054)" fill="#ffa726"/>
    <circle id="Elipse_4063" data-name="Elipse 4063" cx="30" cy="30" r="30" transform="translate(1020 4054)" fill="#ffca28"/>
    <circle id="Elipse_4060" data-name="Elipse 4060" cx="30" cy="30" r="30" transform="translate(180 4119)" fill="#4dd0e1"/>
    <circle id="Elipse_4062" data-name="Elipse 4062" cx="30" cy="30" r="30" transform="translate(600 4119)" fill="#ffa726"/>
    <circle id="Elipse_4064" data-name="Elipse 4064" cx="30" cy="30" r="30" transform="translate(1020 4119)" fill="#ffca28"/>
    <g id="biblioteca" transform="translate(188 4046.966)">
      <path id="Trazado_100572" data-name="Trazado 100572" d="M265,56.033a6.152,6.152,0,1,0,6.152,6.152A6.159,6.159,0,0,0,265,56.033Zm0,10.546a4.394,4.394,0,1,1,4.394-4.394A4.4,4.4,0,0,1,265,66.579Z" transform="translate(-236.105 -36.484)" fill="#12263f"/>
      <path id="Trazado_100573" data-name="Trazado 100573" d="M44.2,36.943,37.453,30.2a9.667,9.667,0,1,0-16.005,1.653H3.521a.879.879,0,0,0-.685.328,5.248,5.248,0,0,0,0,6.375.879.879,0,0,0,.685.328H5.567a5.414,5.414,0,0,0,0,3.515h-3.8a.879.879,0,0,0-.685.328,5.248,5.248,0,0,0,0,6.375.879.879,0,0,0,.685.328H2.93a5.267,5.267,0,0,0,.785,4.945A.879.879,0,0,0,4.4,54.7H9.672v2.636a.879.879,0,0,0,1.5.621l2.015-2.015L15.2,57.959a.879.879,0,0,0,1.5-.621V54.7H29.885a.879.879,0,1,0,0-1.758h-.42a3.615,3.615,0,0,1,0-3.515h.42a.879.879,0,0,0,0-1.758H26.828a3.615,3.615,0,0,1,0-3.515h5.693a.879.879,0,1,0,0-1.758H32.1a3.615,3.615,0,0,1,0-3.515h.42a.879.879,0,1,0,0-1.758H28.587a3.5,3.5,0,0,1-.458-1.788q.381.03.771.031a9.607,9.607,0,0,0,4.726-1.237l6.692,6.692A2.743,2.743,0,1,0,44.2,36.943ZM14.945,55.216l-1.136-1.136a.879.879,0,0,0-1.243,0L11.43,55.216V52.064h3.515v3.151Zm12.592-2.272H16.7v-.879h.879a.879.879,0,1,0,0-1.758H8.794a.879.879,0,1,0,0,1.758h.879v.879H4.858a3.612,3.612,0,0,1,0-3.515H27.537A5.414,5.414,0,0,0,27.537,52.943ZM24.9,47.67H2.221a3.615,3.615,0,0,1,0-3.515H24.9A5.414,5.414,0,0,0,24.9,47.67ZM30.173,42.4H7.494a3.615,3.615,0,0,1,0-3.515H30.173A5.414,5.414,0,0,0,30.173,42.4Zm-3.514-5.273H3.979a3.615,3.615,0,0,1,0-3.515H23.348a9.633,9.633,0,0,0,3.033,1.424A5.4,5.4,0,0,0,26.659,37.125ZM20.99,25.7A7.909,7.909,0,1,1,28.9,33.61,7.918,7.918,0,0,1,20.99,25.7ZM42.954,39.579a.986.986,0,0,1-1.394,0L35.1,33.115A9.748,9.748,0,0,0,36.471,31.7l6.483,6.483a.985.985,0,0,1,0,1.394Z" fill="#12263f"/>
    </g>
    <g id="biblioteca-2" data-name="biblioteca" transform="translate(608 4046.966)">
      <path id="Trazado_100572-2" data-name="Trazado 100572" d="M265,56.033a6.152,6.152,0,1,0,6.152,6.152A6.159,6.159,0,0,0,265,56.033Zm0,10.546a4.394,4.394,0,1,1,4.394-4.394A4.4,4.4,0,0,1,265,66.579Z" transform="translate(-236.105 -36.484)" fill="#12263f"/>
      <path id="Trazado_100573-2" data-name="Trazado 100573" d="M44.2,36.943,37.453,30.2a9.667,9.667,0,1,0-16.005,1.653H3.521a.879.879,0,0,0-.685.328,5.248,5.248,0,0,0,0,6.375.879.879,0,0,0,.685.328H5.567a5.414,5.414,0,0,0,0,3.515h-3.8a.879.879,0,0,0-.685.328,5.248,5.248,0,0,0,0,6.375.879.879,0,0,0,.685.328H2.93a5.267,5.267,0,0,0,.785,4.945A.879.879,0,0,0,4.4,54.7H9.672v2.636a.879.879,0,0,0,1.5.621l2.015-2.015L15.2,57.959a.879.879,0,0,0,1.5-.621V54.7H29.885a.879.879,0,1,0,0-1.758h-.42a3.615,3.615,0,0,1,0-3.515h.42a.879.879,0,0,0,0-1.758H26.828a3.615,3.615,0,0,1,0-3.515h5.693a.879.879,0,1,0,0-1.758H32.1a3.615,3.615,0,0,1,0-3.515h.42a.879.879,0,1,0,0-1.758H28.587a3.5,3.5,0,0,1-.458-1.788q.381.03.771.031a9.607,9.607,0,0,0,4.726-1.237l6.692,6.692A2.743,2.743,0,1,0,44.2,36.943ZM14.945,55.216l-1.136-1.136a.879.879,0,0,0-1.243,0L11.43,55.216V52.064h3.515v3.151Zm12.592-2.272H16.7v-.879h.879a.879.879,0,1,0,0-1.758H8.794a.879.879,0,1,0,0,1.758h.879v.879H4.858a3.612,3.612,0,0,1,0-3.515H27.537A5.414,5.414,0,0,0,27.537,52.943ZM24.9,47.67H2.221a3.615,3.615,0,0,1,0-3.515H24.9A5.414,5.414,0,0,0,24.9,47.67ZM30.173,42.4H7.494a3.615,3.615,0,0,1,0-3.515H30.173A5.414,5.414,0,0,0,30.173,42.4Zm-3.514-5.273H3.979a3.615,3.615,0,0,1,0-3.515H23.348a9.633,9.633,0,0,0,3.033,1.424A5.4,5.4,0,0,0,26.659,37.125ZM20.99,25.7A7.909,7.909,0,1,1,28.9,33.61,7.918,7.918,0,0,1,20.99,25.7ZM42.954,39.579a.986.986,0,0,1-1.394,0L35.1,33.115A9.748,9.748,0,0,0,36.471,31.7l6.483,6.483a.985.985,0,0,1,0,1.394Z" fill="#12263f"/>
    </g>
    <g id="biblioteca-3" data-name="biblioteca" transform="translate(1028 4046.966)">
      <path id="Trazado_100572-3" data-name="Trazado 100572" d="M265,56.033a6.152,6.152,0,1,0,6.152,6.152A6.159,6.159,0,0,0,265,56.033Zm0,10.546a4.394,4.394,0,1,1,4.394-4.394A4.4,4.4,0,0,1,265,66.579Z" transform="translate(-236.105 -36.484)" fill="#12263f"/>
      <path id="Trazado_100573-3" data-name="Trazado 100573" d="M44.2,36.943,37.453,30.2a9.667,9.667,0,1,0-16.005,1.653H3.521a.879.879,0,0,0-.685.328,5.248,5.248,0,0,0,0,6.375.879.879,0,0,0,.685.328H5.567a5.414,5.414,0,0,0,0,3.515h-3.8a.879.879,0,0,0-.685.328,5.248,5.248,0,0,0,0,6.375.879.879,0,0,0,.685.328H2.93a5.267,5.267,0,0,0,.785,4.945A.879.879,0,0,0,4.4,54.7H9.672v2.636a.879.879,0,0,0,1.5.621l2.015-2.015L15.2,57.959a.879.879,0,0,0,1.5-.621V54.7H29.885a.879.879,0,1,0,0-1.758h-.42a3.615,3.615,0,0,1,0-3.515h.42a.879.879,0,0,0,0-1.758H26.828a3.615,3.615,0,0,1,0-3.515h5.693a.879.879,0,1,0,0-1.758H32.1a3.615,3.615,0,0,1,0-3.515h.42a.879.879,0,1,0,0-1.758H28.587a3.5,3.5,0,0,1-.458-1.788q.381.03.771.031a9.607,9.607,0,0,0,4.726-1.237l6.692,6.692A2.743,2.743,0,1,0,44.2,36.943ZM14.945,55.216l-1.136-1.136a.879.879,0,0,0-1.243,0L11.43,55.216V52.064h3.515v3.151Zm12.592-2.272H16.7v-.879h.879a.879.879,0,1,0,0-1.758H8.794a.879.879,0,1,0,0,1.758h.879v.879H4.858a3.612,3.612,0,0,1,0-3.515H27.537A5.414,5.414,0,0,0,27.537,52.943ZM24.9,47.67H2.221a3.615,3.615,0,0,1,0-3.515H24.9A5.414,5.414,0,0,0,24.9,47.67ZM30.173,42.4H7.494a3.615,3.615,0,0,1,0-3.515H30.173A5.414,5.414,0,0,0,30.173,42.4Zm-3.514-5.273H3.979a3.615,3.615,0,0,1,0-3.515H23.348a9.633,9.633,0,0,0,3.033,1.424A5.4,5.4,0,0,0,26.659,37.125ZM20.99,25.7A7.909,7.909,0,1,1,28.9,33.61,7.918,7.918,0,0,1,20.99,25.7ZM42.954,39.579a.986.986,0,0,1-1.394,0L35.1,33.115A9.748,9.748,0,0,0,36.471,31.7l6.483,6.483a.985.985,0,0,1,0,1.394Z" fill="#12263f"/>
    </g>
    <g id="operating_system" data-name="operating system" transform="translate(187.875 4127)">
      <path id="Trazado_100574" data-name="Trazado 100574" d="M35.659,57H21.2a.661.661,0,0,0-.661.661H17.9A.661.661,0,0,0,17.24,57H2.786a.661.661,0,0,0-.634.846l.3,1.031a1.993,1.993,0,0,0,1.9,1.427H34.09a1.993,1.993,0,0,0,1.9-1.427l.3-1.031A.661.661,0,0,0,35.659,57Zm-31.3,1.982a.665.665,0,0,1-.634-.476l-.054-.185H16.579a.661.661,0,0,0,.661.661Zm30.369-.476a.665.665,0,0,1-.634.476H21.2a.661.661,0,0,0,.661-.661H34.778Z" transform="translate(0 -18.658)" fill="#12263f"/>
      <path id="Trazado_100575" data-name="Trazado 100575" d="M17,26h1.322v1.322H17Z" transform="translate(-5.046 -8.142)" fill="#12263f"/>
      <path id="Trazado_100576" data-name="Trazado 100576" d="M17,32h1.322v1.322H17Z" transform="translate(-5.046 -10.177)" fill="#12263f"/>
      <path id="Trazado_100577" data-name="Trazado 100577" d="M17,38h1.322v1.322H17Z" transform="translate(-5.046 -12.213)" fill="#12263f"/>
      <path id="Trazado_100578" data-name="Trazado 100578" d="M39.021,12.572h-.137a7.187,7.187,0,0,0,.8-3.3A7.268,7.268,0,0,0,25.363,7.5a5.611,5.611,0,0,0-9.469,4.08,1.936,1.936,0,0,0,.089.544,17.159,17.159,0,0,0-2.732-.214c-3.182,0-6.608.827-6.608,2.643v3.3H5.982A1.982,1.982,0,0,0,4,19.84V35.7a1.982,1.982,0,0,0,1.982,1.982H33.734A1.982,1.982,0,0,0,35.717,35.7V20.5h3.3a3.965,3.965,0,0,0,0-7.929Zm-25.77.661c3.468,0,5.286.982,5.286,1.322s-1.818,1.322-5.286,1.322-5.286-.982-5.286-1.322S9.782,13.233,13.251,13.233Zm0,14.537c-3.468,0-5.286-.982-5.286-1.322v-2.3a12.56,12.56,0,0,0,5.286.975,12.56,12.56,0,0,0,5.286-.975v2.3C18.537,26.788,16.719,27.77,13.251,27.77ZM7.965,16.222a12.56,12.56,0,0,0,5.286.975,12.56,12.56,0,0,0,5.286-.975v2.3c0,.34-1.818,1.322-5.286,1.322s-5.286-.982-5.286-1.322Zm5.286,7.583c-3.468,0-5.286-.982-5.286-1.322v-2.3a12.56,12.56,0,0,0,5.286.975,12.56,12.56,0,0,0,5.286-.975v2.3C18.537,22.823,16.719,23.805,13.251,23.805ZM34.4,35.7a.661.661,0,0,1-.661.661H5.982a.661.661,0,0,1-.661-.661V19.84a.661.661,0,0,1,.661-.661h.661v7.268c0,1.308,1.78,2.1,3.965,2.445v4.824H9.286v1.322h1.982a.661.661,0,0,0,.661-.661V29.042c.439.032.882.05,1.322.05s.883-.017,1.322-.05V32.4a.661.661,0,0,0,.661.661h9.251V31.734h-8.59V28.893c2.184-.342,3.965-1.135,3.965-2.445V21.823h5.286V27.77a.661.661,0,0,0,.661.661h2.076a2.643,2.643,0,1,0,0-1.322H26.466V21.162a.661.661,0,0,0-.661-.661H19.858V19.18H33.734a.661.661,0,0,1,.661.661ZM29.109,27.77a1.322,1.322,0,1,1,1.322,1.322A1.322,1.322,0,0,1,29.109,27.77Zm9.911-8.59H35.6a1.982,1.982,0,0,0-1.861-1.322H19.858V15.876h5.947a.661.661,0,0,0,.661-.661V12.572h4.625V11.251H25.805a.661.661,0,0,0-.661.661v2.643H19.858c0-.941-.925-1.615-2.253-2.048-.025-.046-.046-.091-.072-.137a2.064,2.064,0,0,1-.318-.788,4.295,4.295,0,0,1,8.023-2.124.661.661,0,0,0,1.234-.313,5.947,5.947,0,1,1,10.691,3.692.661.661,0,0,0,.529,1.057h1.329a2.643,2.643,0,0,1,0,5.286Z" transform="translate(-0.636 0)" fill="#12263f"/>
      <path id="Trazado_100579" data-name="Trazado 100579" d="M25.993,14.636h1.322c0-.951.371-1.322,1.322-1.322V11.993a2.406,2.406,0,0,0-2.643,2.643Z" transform="translate(-8.093 -3.386)" fill="#12263f"/>
      <path id="Trazado_100580" data-name="Trazado 100580" d="M47,6V7.322a3.308,3.308,0,0,1,3.3,3.3h1.322A4.631,4.631,0,0,0,47,6Z" transform="translate(-15.223 -1.357)" fill="#12263f"/>
      <path id="Trazado_100581" data-name="Trazado 100581" d="M55.322,37.286H54v1.322h1.982a.661.661,0,0,0,.661-.661V32H55.322Z" transform="translate(-17.598 -10.177)" fill="#12263f"/>
      <path id="Trazado_100582" data-name="Trazado 100582" d="M8,50H9.322v1.322H8Z" transform="translate(-1.993 -16.283)" fill="#12263f"/>
      <path id="Trazado_100583" data-name="Trazado 100583" d="M37,47h1.322v1.322H37Z" transform="translate(-11.831 -15.266)" fill="#12263f"/>
      <path id="Trazado_100584" data-name="Trazado 100584" d="M47,16h1.322v1.322H47Z" transform="translate(-15.223 -4.749)" fill="#12263f"/>
      <path id="Trazado_100585" data-name="Trazado 100585" d="M45.643,30H43v1.322h1.982V33.3H46.3V30.661A.661.661,0,0,0,45.643,30Z" transform="translate(-13.866 -9.499)" fill="#12263f"/>
      <path id="Trazado_100586" data-name="Trazado 100586" d="M44.982,48.982H43V50.3h2.643a.661.661,0,0,0,.661-.661V47H44.982Z" transform="translate(-13.866 -15.266)" fill="#12263f"/>
    </g>
    <g id="operating_system-2" data-name="operating system" transform="translate(607.875 4127)">
      <path id="Trazado_100574-2" data-name="Trazado 100574" d="M35.659,57H21.2a.661.661,0,0,0-.661.661H17.9A.661.661,0,0,0,17.24,57H2.786a.661.661,0,0,0-.634.846l.3,1.031a1.993,1.993,0,0,0,1.9,1.427H34.09a1.993,1.993,0,0,0,1.9-1.427l.3-1.031A.661.661,0,0,0,35.659,57Zm-31.3,1.982a.665.665,0,0,1-.634-.476l-.054-.185H16.579a.661.661,0,0,0,.661.661Zm30.369-.476a.665.665,0,0,1-.634.476H21.2a.661.661,0,0,0,.661-.661H34.778Z" transform="translate(0 -18.658)" fill="#12263f"/>
      <path id="Trazado_100575-2" data-name="Trazado 100575" d="M17,26h1.322v1.322H17Z" transform="translate(-5.046 -8.142)" fill="#12263f"/>
      <path id="Trazado_100576-2" data-name="Trazado 100576" d="M17,32h1.322v1.322H17Z" transform="translate(-5.046 -10.177)" fill="#12263f"/>
      <path id="Trazado_100577-2" data-name="Trazado 100577" d="M17,38h1.322v1.322H17Z" transform="translate(-5.046 -12.213)" fill="#12263f"/>
      <path id="Trazado_100578-2" data-name="Trazado 100578" d="M39.021,12.572h-.137a7.187,7.187,0,0,0,.8-3.3A7.268,7.268,0,0,0,25.363,7.5a5.611,5.611,0,0,0-9.469,4.08,1.936,1.936,0,0,0,.089.544,17.159,17.159,0,0,0-2.732-.214c-3.182,0-6.608.827-6.608,2.643v3.3H5.982A1.982,1.982,0,0,0,4,19.84V35.7a1.982,1.982,0,0,0,1.982,1.982H33.734A1.982,1.982,0,0,0,35.717,35.7V20.5h3.3a3.965,3.965,0,0,0,0-7.929Zm-25.77.661c3.468,0,5.286.982,5.286,1.322s-1.818,1.322-5.286,1.322-5.286-.982-5.286-1.322S9.782,13.233,13.251,13.233Zm0,14.537c-3.468,0-5.286-.982-5.286-1.322v-2.3a12.56,12.56,0,0,0,5.286.975,12.56,12.56,0,0,0,5.286-.975v2.3C18.537,26.788,16.719,27.77,13.251,27.77ZM7.965,16.222a12.56,12.56,0,0,0,5.286.975,12.56,12.56,0,0,0,5.286-.975v2.3c0,.34-1.818,1.322-5.286,1.322s-5.286-.982-5.286-1.322Zm5.286,7.583c-3.468,0-5.286-.982-5.286-1.322v-2.3a12.56,12.56,0,0,0,5.286.975,12.56,12.56,0,0,0,5.286-.975v2.3C18.537,22.823,16.719,23.805,13.251,23.805ZM34.4,35.7a.661.661,0,0,1-.661.661H5.982a.661.661,0,0,1-.661-.661V19.84a.661.661,0,0,1,.661-.661h.661v7.268c0,1.308,1.78,2.1,3.965,2.445v4.824H9.286v1.322h1.982a.661.661,0,0,0,.661-.661V29.042c.439.032.882.05,1.322.05s.883-.017,1.322-.05V32.4a.661.661,0,0,0,.661.661h9.251V31.734h-8.59V28.893c2.184-.342,3.965-1.135,3.965-2.445V21.823h5.286V27.77a.661.661,0,0,0,.661.661h2.076a2.643,2.643,0,1,0,0-1.322H26.466V21.162a.661.661,0,0,0-.661-.661H19.858V19.18H33.734a.661.661,0,0,1,.661.661ZM29.109,27.77a1.322,1.322,0,1,1,1.322,1.322A1.322,1.322,0,0,1,29.109,27.77Zm9.911-8.59H35.6a1.982,1.982,0,0,0-1.861-1.322H19.858V15.876h5.947a.661.661,0,0,0,.661-.661V12.572h4.625V11.251H25.805a.661.661,0,0,0-.661.661v2.643H19.858c0-.941-.925-1.615-2.253-2.048-.025-.046-.046-.091-.072-.137a2.064,2.064,0,0,1-.318-.788,4.295,4.295,0,0,1,8.023-2.124.661.661,0,0,0,1.234-.313,5.947,5.947,0,1,1,10.691,3.692.661.661,0,0,0,.529,1.057h1.329a2.643,2.643,0,0,1,0,5.286Z" transform="translate(-0.636 0)" fill="#12263f"/>
      <path id="Trazado_100579-2" data-name="Trazado 100579" d="M25.993,14.636h1.322c0-.951.371-1.322,1.322-1.322V11.993a2.406,2.406,0,0,0-2.643,2.643Z" transform="translate(-8.093 -3.386)" fill="#12263f"/>
      <path id="Trazado_100580-2" data-name="Trazado 100580" d="M47,6V7.322a3.308,3.308,0,0,1,3.3,3.3h1.322A4.631,4.631,0,0,0,47,6Z" transform="translate(-15.223 -1.357)" fill="#12263f"/>
      <path id="Trazado_100581-2" data-name="Trazado 100581" d="M55.322,37.286H54v1.322h1.982a.661.661,0,0,0,.661-.661V32H55.322Z" transform="translate(-17.598 -10.177)" fill="#12263f"/>
      <path id="Trazado_100582-2" data-name="Trazado 100582" d="M8,50H9.322v1.322H8Z" transform="translate(-1.993 -16.283)" fill="#12263f"/>
      <path id="Trazado_100583-2" data-name="Trazado 100583" d="M37,47h1.322v1.322H37Z" transform="translate(-11.831 -15.266)" fill="#12263f"/>
      <path id="Trazado_100584-2" data-name="Trazado 100584" d="M47,16h1.322v1.322H47Z" transform="translate(-15.223 -4.749)" fill="#12263f"/>
      <path id="Trazado_100585-2" data-name="Trazado 100585" d="M45.643,30H43v1.322h1.982V33.3H46.3V30.661A.661.661,0,0,0,45.643,30Z" transform="translate(-13.866 -9.499)" fill="#12263f"/>
      <path id="Trazado_100586-2" data-name="Trazado 100586" d="M44.982,48.982H43V50.3h2.643a.661.661,0,0,0,.661-.661V47H44.982Z" transform="translate(-13.866 -15.266)" fill="#12263f"/>
    </g>
    <g id="operating_system-3" data-name="operating system" transform="translate(1027.875 4127)">
      <path id="Trazado_100574-3" data-name="Trazado 100574" d="M35.659,57H21.2a.661.661,0,0,0-.661.661H17.9A.661.661,0,0,0,17.24,57H2.786a.661.661,0,0,0-.634.846l.3,1.031a1.993,1.993,0,0,0,1.9,1.427H34.09a1.993,1.993,0,0,0,1.9-1.427l.3-1.031A.661.661,0,0,0,35.659,57Zm-31.3,1.982a.665.665,0,0,1-.634-.476l-.054-.185H16.579a.661.661,0,0,0,.661.661Zm30.369-.476a.665.665,0,0,1-.634.476H21.2a.661.661,0,0,0,.661-.661H34.778Z" transform="translate(0 -18.658)" fill="#12263f"/>
      <path id="Trazado_100575-3" data-name="Trazado 100575" d="M17,26h1.322v1.322H17Z" transform="translate(-5.046 -8.142)" fill="#12263f"/>
      <path id="Trazado_100576-3" data-name="Trazado 100576" d="M17,32h1.322v1.322H17Z" transform="translate(-5.046 -10.177)" fill="#12263f"/>
      <path id="Trazado_100577-3" data-name="Trazado 100577" d="M17,38h1.322v1.322H17Z" transform="translate(-5.046 -12.213)" fill="#12263f"/>
      <path id="Trazado_100578-3" data-name="Trazado 100578" d="M39.021,12.572h-.137a7.187,7.187,0,0,0,.8-3.3A7.268,7.268,0,0,0,25.363,7.5a5.611,5.611,0,0,0-9.469,4.08,1.936,1.936,0,0,0,.089.544,17.159,17.159,0,0,0-2.732-.214c-3.182,0-6.608.827-6.608,2.643v3.3H5.982A1.982,1.982,0,0,0,4,19.84V35.7a1.982,1.982,0,0,0,1.982,1.982H33.734A1.982,1.982,0,0,0,35.717,35.7V20.5h3.3a3.965,3.965,0,0,0,0-7.929Zm-25.77.661c3.468,0,5.286.982,5.286,1.322s-1.818,1.322-5.286,1.322-5.286-.982-5.286-1.322S9.782,13.233,13.251,13.233Zm0,14.537c-3.468,0-5.286-.982-5.286-1.322v-2.3a12.56,12.56,0,0,0,5.286.975,12.56,12.56,0,0,0,5.286-.975v2.3C18.537,26.788,16.719,27.77,13.251,27.77ZM7.965,16.222a12.56,12.56,0,0,0,5.286.975,12.56,12.56,0,0,0,5.286-.975v2.3c0,.34-1.818,1.322-5.286,1.322s-5.286-.982-5.286-1.322Zm5.286,7.583c-3.468,0-5.286-.982-5.286-1.322v-2.3a12.56,12.56,0,0,0,5.286.975,12.56,12.56,0,0,0,5.286-.975v2.3C18.537,22.823,16.719,23.805,13.251,23.805ZM34.4,35.7a.661.661,0,0,1-.661.661H5.982a.661.661,0,0,1-.661-.661V19.84a.661.661,0,0,1,.661-.661h.661v7.268c0,1.308,1.78,2.1,3.965,2.445v4.824H9.286v1.322h1.982a.661.661,0,0,0,.661-.661V29.042c.439.032.882.05,1.322.05s.883-.017,1.322-.05V32.4a.661.661,0,0,0,.661.661h9.251V31.734h-8.59V28.893c2.184-.342,3.965-1.135,3.965-2.445V21.823h5.286V27.77a.661.661,0,0,0,.661.661h2.076a2.643,2.643,0,1,0,0-1.322H26.466V21.162a.661.661,0,0,0-.661-.661H19.858V19.18H33.734a.661.661,0,0,1,.661.661ZM29.109,27.77a1.322,1.322,0,1,1,1.322,1.322A1.322,1.322,0,0,1,29.109,27.77Zm9.911-8.59H35.6a1.982,1.982,0,0,0-1.861-1.322H19.858V15.876h5.947a.661.661,0,0,0,.661-.661V12.572h4.625V11.251H25.805a.661.661,0,0,0-.661.661v2.643H19.858c0-.941-.925-1.615-2.253-2.048-.025-.046-.046-.091-.072-.137a2.064,2.064,0,0,1-.318-.788,4.295,4.295,0,0,1,8.023-2.124.661.661,0,0,0,1.234-.313,5.947,5.947,0,1,1,10.691,3.692.661.661,0,0,0,.529,1.057h1.329a2.643,2.643,0,0,1,0,5.286Z" transform="translate(-0.636 0)" fill="#12263f"/>
      <path id="Trazado_100579-3" data-name="Trazado 100579" d="M25.993,14.636h1.322c0-.951.371-1.322,1.322-1.322V11.993a2.406,2.406,0,0,0-2.643,2.643Z" transform="translate(-8.093 -3.386)" fill="#12263f"/>
      <path id="Trazado_100580-3" data-name="Trazado 100580" d="M47,6V7.322a3.308,3.308,0,0,1,3.3,3.3h1.322A4.631,4.631,0,0,0,47,6Z" transform="translate(-15.223 -1.357)" fill="#12263f"/>
      <path id="Trazado_100581-3" data-name="Trazado 100581" d="M55.322,37.286H54v1.322h1.982a.661.661,0,0,0,.661-.661V32H55.322Z" transform="translate(-17.598 -10.177)" fill="#12263f"/>
      <path id="Trazado_100582-3" data-name="Trazado 100582" d="M8,50H9.322v1.322H8Z" transform="translate(-1.993 -16.283)" fill="#12263f"/>
      <path id="Trazado_100583-3" data-name="Trazado 100583" d="M37,47h1.322v1.322H37Z" transform="translate(-11.831 -15.266)" fill="#12263f"/>
      <path id="Trazado_100584-3" data-name="Trazado 100584" d="M47,16h1.322v1.322H47Z" transform="translate(-15.223 -4.749)" fill="#12263f"/>
      <path id="Trazado_100585-3" data-name="Trazado 100585" d="M45.643,30H43v1.322h1.982V33.3H46.3V30.661A.661.661,0,0,0,45.643,30Z" transform="translate(-13.866 -9.499)" fill="#12263f"/>
      <path id="Trazado_100586-3" data-name="Trazado 100586" d="M44.982,48.982H43V50.3h2.643a.661.661,0,0,0,.661-.661V47H44.982Z" transform="translate(-13.866 -15.266)" fill="#12263f"/>
    </g>
  </g>
</svg>
