<svg xmlns="http://www.w3.org/2000/svg" width="166.697" height="167.999" viewBox="0 0 166.697 167.999">
  <g id="Grupo_54531" data-name="Grupo 54531" transform="translate(-1049.326 -2480)">
    <g id="xampp" transform="translate(1049.326 2480)">
      <path id="Trazado_100544" data-name="Trazado 100544" d="M83.3,0h64.909a27.259,27.259,0,0,1,8.01,1.03c5.649,1.722,8.64,5.773,9.812,11.355a32.926,32.926,0,0,1,.6,6.726q.052,22.729.061,45.46,0,41.4-.052,82.8c-.008,3.863-.214,7.769-2.121,11.289-2.116,3.9-5.012,6.992-9.409,8.35a8.537,8.537,0,0,1-2.439.525c-1.877,0-3.7.466-5.574.466q-63.553,0-127.106-.046a25.7,25.7,0,0,1-10.221-1.659,8.514,8.514,0,0,1-1.882-.951c-4.167-3.176-7-7.137-7.6-12.5A51.418,51.418,0,0,1,0,147.057Q.01,82.639.033,18.221a24.142,24.142,0,0,1,.794-7.41C2.867,4.458,7.333.989,13.952.285A44.157,44.157,0,0,1,18.589.013Q50.943-.013,83.3,0Z" transform="translate(0 0)" fill="#d2e1f1" fill-rule="evenodd"/>
    </g>
    <path id="Trazado_101246" data-name="Trazado 101246" d="M-56.53-19.934l4.881-9.926h8.224l-8.347,14.807L-43.2,0h-8.306L-56.53-10.11-61.554,0h-8.285l8.552-15.053-8.326-14.807h8.2ZM-23.9-5.578h-9.864L-35.489,0h-7.69l10.951-29.859h6.768L-14.427,0h-7.731Zm-8.142-5.558h6.419l-3.22-10.356ZM8.726-24.3H-.236V0h-7.2V-24.3h-8.8v-5.558H8.726Zm12.489-5.558L27.88-9.085l6.645-20.774H44V0H36.781V-6.973l.7-14.273L30.259,0H25.5L18.262-21.267l.7,14.294V0h-7.2V-29.859Zm39.252,0h7.178V-9.372a9.8,9.8,0,0,1-1.323,5.086A9.031,9.031,0,0,1,62.631-.82,11.282,11.282,0,0,1,57.35.41q-4.881,0-7.588-2.461a8.944,8.944,0,0,1-2.707-6.973h7.219a4.93,4.93,0,0,0,.708,2.974,2.8,2.8,0,0,0,2.369.923,2.679,2.679,0,0,0,2.307-1.118,5.252,5.252,0,0,0,.81-3.127Z" transform="translate(1131 2578)" fill="#12263f"/>
  </g>
</svg>
