<svg xmlns="http://www.w3.org/2000/svg" width="170.335" height="171.666" viewBox="0 0 170.335 171.666">
  <g id="Grupo_54532" data-name="Grupo 54532" transform="translate(-1049.824 -3164)">
    <g id="xampp" transform="translate(1049.824 3164)">
      <path id="Trazado_100544" data-name="Trazado 100544" d="M85.12,0h66.326a27.854,27.854,0,0,1,8.185,1.053c5.772,1.759,8.828,5.9,10.026,11.6a33.646,33.646,0,0,1,.615,6.873q.053,23.225.063,46.452,0,42.3-.053,84.6c-.008,3.948-.218,7.939-2.167,11.535-2.162,3.988-5.121,7.145-9.615,8.533a8.723,8.723,0,0,1-2.492.536c-1.918,0-3.784.476-5.7.476q-64.941,0-129.881-.047a26.263,26.263,0,0,1-10.444-1.7,8.7,8.7,0,0,1-1.923-.971c-4.258-3.245-7.15-7.292-7.77-12.769A52.541,52.541,0,0,1,0,150.267Q.01,84.443.033,18.619a24.669,24.669,0,0,1,.811-7.572C2.93,4.555,7.493,1.011,14.257.291A45.121,45.121,0,0,1,18.994.013Q52.055-.014,85.12,0Z" transform="translate(0 0)" fill="#d2e1f1" fill-rule="evenodd"/>
    </g>
    <path id="Trazado_101247" data-name="Trazado 101247" d="M-32.859-11.4l3.506-19.169h7.307L-28.534,0h-7.643l-4.094-17.427L-44.281,0H-51.9l-6.509-30.57h7.328L-47.577-11.4l4.2-19.169h6.257ZM-11.317,0h-7.349V-30.57h7.349Zm14.8-30.57L10.309-9.3l6.8-21.269h9.7V0H19.421V-7.139l.714-14.613L12.745,0H7.874L.462-21.773,1.176-7.139V0h-7.37V-30.57ZM49.236-5.711h-10.1L37.373,0H29.5L40.711-30.57H47.64L58.936,0H51.021ZM40.9-11.4h6.572L44.176-22Z" transform="translate(1134 3265)" fill="#12263f"/>
  </g>
</svg>
