<svg xmlns="http://www.w3.org/2000/svg" width="505" height="343" viewBox="0 0 505 343">
  <g id="Grupo_54529" data-name="Grupo 54529" transform="translate(-915 -399)">
    <rect id="Rectángulo_5141" data-name="Rectángulo 5141" width="505" height="343" transform="translate(915 399)" fill="#ffca28"/>
    <g id="Grupo_53860" data-name="Grupo 53860" transform="translate(880.11 384.562)">
      <g id="Grupo_53807" data-name="Grupo 53807" transform="translate(114.276 81.221)">
        <g id="Grupo_53800" data-name="Grupo 53800" transform="translate(36.117 23.83)">
          <path id="Trazado_100587" data-name="Trazado 100587" d="M247.825,151.585V144.05a1.334,1.334,0,0,0-1.334-1.334h-1.939a1.224,1.224,0,0,1-1.2-.939A26.655,26.655,0,0,0,240,133.63a1.244,1.244,0,0,1,.162-1.542l1.364-1.364a1.335,1.335,0,0,0,0-1.888l-5.328-5.328a1.334,1.334,0,0,0-1.887,0l-1.362,1.362a1.243,1.243,0,0,1-1.542.162,26.678,26.678,0,0,0-8.148-3.36,1.223,1.223,0,0,1-.939-1.2v-1.933a1.335,1.335,0,0,0-1.335-1.335h-7.534a1.335,1.335,0,0,0-1.335,1.335v1.933a1.224,1.224,0,0,1-.939,1.2,26.663,26.663,0,0,0-8.149,3.36,1.243,1.243,0,0,1-1.542-.162l-1.361-1.361a1.334,1.334,0,0,0-1.887,0l-5.328,5.328a1.335,1.335,0,0,0,0,1.888l1.362,1.362a1.242,1.242,0,0,1,.162,1.542,26.705,26.705,0,0,0-3.357,8.148,1.223,1.223,0,0,1-1.2.939h-1.937a1.334,1.334,0,0,0-1.335,1.334v7.535a1.335,1.335,0,0,0,1.335,1.334h1.938a1.224,1.224,0,0,1,1.2.939A26.69,26.69,0,0,0,194.432,162a1.243,1.243,0,0,1-.162,1.542l-1.364,1.364a1.334,1.334,0,0,0,0,1.887l5.328,5.328a1.334,1.334,0,0,0,1.887,0l1.365-1.366a1.243,1.243,0,0,1,1.542-.162,26.681,26.681,0,0,0,8.145,3.354,1.224,1.224,0,0,1,.939,1.2v1.943a1.335,1.335,0,0,0,1.335,1.335h7.534a1.335,1.335,0,0,0,1.335-1.335v-1.944a1.224,1.224,0,0,1,.939-1.2A26.673,26.673,0,0,0,231.4,170.6a1.242,1.242,0,0,1,1.542.162l1.367,1.367a1.334,1.334,0,0,0,1.887,0l5.328-5.328a1.334,1.334,0,0,0,0-1.887l-1.365-1.365A1.244,1.244,0,0,1,240,162a26.651,26.651,0,0,0,3.357-8.145,1.224,1.224,0,0,1,1.2-.94h1.941A1.334,1.334,0,0,0,247.825,151.585Zm-30.612,17.477a21.242,21.242,0,1,1,21.233-21.251A21.239,21.239,0,0,1,217.213,169.062Z" transform="translate(-186.604 -117.207)" fill="#ffa726" stroke="#dee3fc" stroke-miterlimit="10" stroke-width="0.79"/>
          <path id="Trazado_100588" data-name="Trazado 100588" d="M301.992,190.226v-5.135a.91.91,0,0,0-.909-.909h-1.322a.834.834,0,0,1-.816-.64,18.175,18.175,0,0,0-2.287-5.551.846.846,0,0,1,.11-1.051l.929-.929a.91.91,0,0,0,0-1.286l-3.631-3.631a.909.909,0,0,0-1.286,0l-.928.928a.848.848,0,0,1-1.051.11,18.165,18.165,0,0,0-5.553-2.29.835.835,0,0,1-.64-.816v-1.317a.909.909,0,0,0-.909-.909h-5.135a.909.909,0,0,0-.909.909v1.317a.835.835,0,0,1-.64.816,18.181,18.181,0,0,0-5.554,2.289.848.848,0,0,1-1.051-.11l-.927-.927a.909.909,0,0,0-1.286,0l-3.63,3.631a.91.91,0,0,0,0,1.286l.928.928a.847.847,0,0,1,.11,1.051,18.171,18.171,0,0,0-2.288,5.553.834.834,0,0,1-.816.64h-1.32a.91.91,0,0,0-.909.909v5.135a.91.91,0,0,0,.909.91H262.5a.833.833,0,0,1,.815.64,18.2,18.2,0,0,0,2.288,5.552.846.846,0,0,1-.11,1.051l-.929.929a.91.91,0,0,0,0,1.286l3.63,3.631a.91.91,0,0,0,1.286,0l.931-.931a.846.846,0,0,1,1.05-.11,18.194,18.194,0,0,0,5.551,2.286.834.834,0,0,1,.64.816v1.325a.91.91,0,0,0,.909.909H283.7a.91.91,0,0,0,.909-.909v-1.325a.833.833,0,0,1,.64-.815,18.2,18.2,0,0,0,5.55-2.286.847.847,0,0,1,1.051.11l.931.931a.909.909,0,0,0,1.286,0l3.631-3.631a.91.91,0,0,0,0-1.286l-.931-.93a.848.848,0,0,1-.11-1.051,18.18,18.18,0,0,0,2.288-5.551.834.834,0,0,1,.816-.64h1.323A.91.91,0,0,0,301.992,190.226ZM281.13,201.321a13.66,13.66,0,1,1,13.654-13.665A13.658,13.658,0,0,1,281.13,201.321Z" transform="translate(-206.116 -130.342)" fill="#ffa726"/>
        </g>
        <g id="Grupo_53801" data-name="Grupo 53801" transform="translate(7.387)">
          <circle id="Elipse_4065" data-name="Elipse 4065" cx="2.489" cy="2.489" r="2.489" transform="translate(25.423 214.698)" fill="#ffa726"/>
          <circle id="Elipse_4066" data-name="Elipse 4066" cx="2.489" cy="2.489" r="2.489" transform="translate(358.903 146.682)" fill="#ffa726"/>
          <circle id="Elipse_4067" data-name="Elipse 4067" cx="2.489" cy="2.489" r="2.489" transform="translate(353.925 57.797)" fill="#ffa726"/>
          <circle id="Elipse_4068" data-name="Elipse 4068" cx="1.561" cy="1.561" r="1.561" transform="translate(265.355 28.514)" fill="#ffa726"/>
          <path id="Trazado_100589" data-name="Trazado 100589" d="M197.621,96.847a1.561,1.561,0,1,1-1.561-1.561A1.561,1.561,0,0,1,197.621,96.847Z" transform="translate(-159.964 -87.571)" fill="#ffa726"/>
          <path id="Trazado_100590" data-name="Trazado 100590" d="M244.631,227.643a1.561,1.561,0,1,1-1.561-1.561A1.561,1.561,0,0,1,244.631,227.643Z" transform="translate(-172.415 -122.214)" fill="#ffa726"/>
          <path id="Trazado_100591" data-name="Trazado 100591" d="M166.71,383.053a1.561,1.561,0,1,1-1.561-1.561A1.561,1.561,0,0,1,166.71,383.053Z" transform="translate(-151.777 -163.377)" fill="#ffa726"/>
          <circle id="Elipse_4069" data-name="Elipse 4069" cx="2.489" cy="2.489" r="2.489" transform="translate(322.389 216.169)" fill="#ffa726"/>
          <circle id="Elipse_4070" data-name="Elipse 4070" cx="2.489" cy="2.489" r="2.489" transform="translate(375.318 216.169)" fill="#ffa726"/>
          <circle id="Elipse_4071" data-name="Elipse 4071" cx="2.489" cy="2.489" r="2.489" transform="translate(78.083)" fill="#ffa726"/>
          <path id="Trazado_100592" data-name="Trazado 100592" d="M488.35,241.036a3.331,3.331,0,1,1-3.331-3.331A3.331,3.331,0,0,1,488.35,241.036Z" transform="translate(-236.031 -125.293)" fill="#ffa726"/>
          <path id="Trazado_100593" data-name="Trazado 100593" d="M154.183,185.01a3.331,3.331,0,1,1-3.33-3.33A3.331,3.331,0,0,1,154.183,185.01Z" transform="translate(-147.522 -110.454)" fill="#ffa726"/>
        </g>
        <g id="Grupo_53802" data-name="Grupo 53802" transform="translate(0 19.675)">
          <rect id="Rectángulo_5220" data-name="Rectángulo 5220" width="5.165" height="5.165" rx="0.664" fill="#ffa726"/>
          <rect id="Rectángulo_5221" data-name="Rectángulo 5221" width="5.165" height="5.165" rx="0.664" transform="translate(6.909)" fill="#ffa726"/>
          <rect id="Rectángulo_5222" data-name="Rectángulo 5222" width="5.165" height="5.165" rx="0.664" transform="translate(13.817)" fill="#ffa726"/>
        </g>
        <g id="Grupo_53804" data-name="Grupo 53804" transform="translate(351.821 201.057)">
          <g id="Grupo_53803" data-name="Grupo 53803">
            <rect id="Rectángulo_5223" data-name="Rectángulo 5223" width="5.165" height="5.165" rx="0.664" fill="#ffa726"/>
            <rect id="Rectángulo_5224" data-name="Rectángulo 5224" width="5.165" height="5.165" rx="0.664" transform="translate(6.909)" fill="#ffa726"/>
            <rect id="Rectángulo_5225" data-name="Rectángulo 5225" width="5.165" height="5.165" rx="0.664" transform="translate(13.817)" fill="#ffa726"/>
          </g>
        </g>
        <g id="Grupo_53806" data-name="Grupo 53806" transform="translate(32.429 198.226)">
          <g id="Grupo_53805" data-name="Grupo 53805">
            <rect id="Rectángulo_5226" data-name="Rectángulo 5226" width="5.165" height="5.165" rx="0.664" fill="#ffa726"/>
            <rect id="Rectángulo_5227" data-name="Rectángulo 5227" width="5.165" height="5.165" rx="0.664" transform="translate(6.909)" fill="#ffa726"/>
            <rect id="Rectángulo_5228" data-name="Rectángulo 5228" width="5.165" height="5.165" rx="0.664" transform="translate(13.817)" fill="#ffa726"/>
          </g>
        </g>
      </g>
      <g id="Grupo_53816" data-name="Grupo 53816" transform="translate(223.463 76.22)">
        <g id="Grupo_53808" data-name="Grupo 53808" transform="translate(0 0)">
          <rect id="Rectángulo_5229" data-name="Rectángulo 5229" width="130.854" height="252.784" rx="21.349" fill="#039be5"/>
          <rect id="Rectángulo_5230" data-name="Rectángulo 5230" width="125.954" height="246.978" rx="18.7" transform="translate(2.45 2.213)" fill="#fff"/>
          <path id="Trazado_100594" data-name="Trazado 100594" d="M411.76,95.759V314.988a9.31,9.31,0,0,1-9.31,9.31H306.143a9.31,9.31,0,0,1-9.31-9.31V95.759a9.31,9.31,0,0,1,9.31-9.31H322.2a2.355,2.355,0,0,1,2.105,1.3l1.706,3.4a4.6,4.6,0,0,0,4.126,2.555h48.315a4.6,4.6,0,0,0,4.126-2.555l1.706-3.4a2.355,2.355,0,0,1,2.105-1.3h16.06A9.31,9.31,0,0,1,411.76,95.759Z" transform="translate(-288.869 -80.23)" fill="#4dd0e1" opacity="0.38"/>
          <path id="Trazado_100595" data-name="Trazado 100595" d="M387.971,89.726H349.057a1.638,1.638,0,0,1-1.638-1.639h0a1.638,1.638,0,0,1,1.638-1.639h38.914a1.639,1.639,0,0,1,1.639,1.639h0A1.639,1.639,0,0,1,387.971,89.726Z" transform="translate(-302.268 -80.23)" fill="#dee3fc"/>
        </g>
        <rect id="Rectángulo_5231" data-name="Rectángulo 5231" width="98.913" height="42.896" rx="8.379" transform="translate(14.85 193.563)" fill="none" stroke="#698bd1" stroke-linecap="round" stroke-linejoin="round" stroke-width="1" stroke-dasharray="2.837"/>
        <rect id="Rectángulo_5232" data-name="Rectángulo 5232" width="51.842" height="30.117" rx="6.044" transform="translate(55.814 101.081)" fill="none" stroke="#698bd1" stroke-linecap="round" stroke-linejoin="round" stroke-width="1" stroke-dasharray="2.837"/>
        <g id="Grupo_53812" data-name="Grupo 53812" transform="translate(14.85 134.538)">
          <rect id="Rectángulo_5233" data-name="Rectángulo 5233" width="99.305" height="48.006" rx="7.201" transform="translate(3.601 3.884)" fill="#12263f"/>
          <path id="Trazado_100596" data-name="Trazado 100596" d="M405.113,266.286v37.44A5.28,5.28,0,0,1,399.827,309H311.486a5.28,5.28,0,0,1-5.286-5.278v-37.44A5.287,5.287,0,0,1,311.486,261h88.341A5.287,5.287,0,0,1,405.113,266.286Z" transform="translate(-306.2 -261)" fill="#4dd0e1"/>
          <rect id="Rectángulo_5234" data-name="Rectángulo 5234" width="33.173" height="33.173" rx="4.861" transform="translate(4.57 10.931)" fill="#fff"/>
          <g id="Grupo_53809" data-name="Grupo 53809" transform="translate(40.965 12.871)">
            <path id="Trazado_100597" data-name="Trazado 100597" d="M385.973,280.765H363.052a1.128,1.128,0,0,1-1.128-1.128h0a1.128,1.128,0,0,1,1.128-1.128h22.921a1.129,1.129,0,0,1,1.129,1.128h0A1.129,1.129,0,0,1,385.973,280.765Z" transform="translate(-361.924 -278.508)" fill="#ffca28"/>
            <path id="Trazado_100598" data-name="Trazado 100598" d="M375.528,286.895H363.052a1.129,1.129,0,0,1-1.128-1.128h0a1.129,1.129,0,0,1,1.128-1.129h12.476a1.129,1.129,0,0,1,1.128,1.129h0A1.129,1.129,0,0,1,375.528,286.895Z" transform="translate(-361.924 -280.131)" fill="#ffca28"/>
            <path id="Trazado_100599" data-name="Trazado 100599" d="M420.028,286.895H386.269a1.129,1.129,0,0,1-1.128-1.128h0a1.129,1.129,0,0,1,1.128-1.129h33.759a1.129,1.129,0,0,1,1.128,1.129h0A1.129,1.129,0,0,1,420.028,286.895Z" transform="translate(-368.073 -280.131)" fill="#ffca28"/>
            <path id="Trazado_100600" data-name="Trazado 100600" d="M382.356,293.024h-19.3a1.129,1.129,0,0,1-1.128-1.128h0a1.128,1.128,0,0,1,1.128-1.128h19.3a1.129,1.129,0,0,1,1.128,1.128h0A1.129,1.129,0,0,1,382.356,293.024Z" transform="translate(-361.924 -281.755)" fill="#ffca28"/>
            <path id="Trazado_100601" data-name="Trazado 100601" d="M407.226,293.024H395.091a1.129,1.129,0,0,1-1.128-1.128h0a1.128,1.128,0,0,1,1.128-1.128h12.135a1.129,1.129,0,0,1,1.128,1.128h0A1.129,1.129,0,0,1,407.226,293.024Z" transform="translate(-370.41 -281.755)" fill="#ffca28"/>
            <path id="Trazado_100602" data-name="Trazado 100602" d="M428.165,293.024H416.989a1.129,1.129,0,0,1-1.128-1.128h0a1.129,1.129,0,0,1,1.128-1.128h11.176a1.129,1.129,0,0,1,1.128,1.128h0A1.129,1.129,0,0,1,428.165,293.024Z" transform="translate(-376.21 -281.755)" fill="#ffca28"/>
            <path id="Trazado_100603" data-name="Trazado 100603" d="M413.879,299.153H363.052a1.128,1.128,0,0,1-1.128-1.128h0a1.128,1.128,0,0,1,1.128-1.128h50.827a1.129,1.129,0,0,1,1.128,1.128h0A1.129,1.129,0,0,1,413.879,299.153Z" transform="translate(-361.924 -283.378)" fill="#ffca28"/>
            <path id="Trazado_100604" data-name="Trazado 100604" d="M391.026,305.282H363.052a1.128,1.128,0,0,1-1.128-1.128h0a1.128,1.128,0,0,1,1.128-1.128h27.973a1.129,1.129,0,0,1,1.128,1.128h0A1.129,1.129,0,0,1,391.026,305.282Z" transform="translate(-361.924 -285.002)" fill="#ffca28"/>
            <path id="Trazado_100605" data-name="Trazado 100605" d="M425.582,305.282H407.238a1.129,1.129,0,0,1-1.128-1.128h0a1.129,1.129,0,0,1,1.128-1.128h18.344a1.129,1.129,0,0,1,1.128,1.128h0A1.129,1.129,0,0,1,425.582,305.282Z" transform="translate(-373.627 -285.002)" fill="#ffca28"/>
            <path id="Trazado_100606" data-name="Trazado 100606" d="M379.488,311.411H363.052a1.128,1.128,0,0,1-1.128-1.128h0a1.129,1.129,0,0,1,1.128-1.128h16.435a1.129,1.129,0,0,1,1.128,1.128h0A1.128,1.128,0,0,1,379.488,311.411Z" transform="translate(-361.924 -286.625)" fill="#ffca28"/>
            <path id="Trazado_100607" data-name="Trazado 100607" d="M407.9,311.411H391.46a1.128,1.128,0,0,1-1.128-1.128h0a1.129,1.129,0,0,1,1.128-1.128H407.9a1.129,1.129,0,0,1,1.128,1.128h0A1.128,1.128,0,0,1,407.9,311.411Z" transform="translate(-369.448 -286.625)" fill="#ffca28"/>
            <path id="Trazado_100608" data-name="Trazado 100608" d="M428.755,311.411h-9.537a1.128,1.128,0,0,1-1.128-1.128h0a1.129,1.129,0,0,1,1.128-1.128h9.537a1.129,1.129,0,0,1,1.128,1.128h0A1.129,1.129,0,0,1,428.755,311.411Z" transform="translate(-376.8 -286.625)" fill="#ffca28"/>
            <path id="Trazado_100609" data-name="Trazado 100609" d="M385.973,317.541H363.052a1.129,1.129,0,0,1-1.128-1.129h0a1.129,1.129,0,0,1,1.128-1.128h22.921a1.129,1.129,0,0,1,1.129,1.128h0A1.129,1.129,0,0,1,385.973,317.541Z" transform="translate(-361.924 -288.248)" fill="#ffca28"/>
            <path id="Trazado_100610" data-name="Trazado 100610" d="M423.933,280.765H401.011a1.128,1.128,0,0,1-1.128-1.128h0a1.128,1.128,0,0,1,1.128-1.128h22.922a1.129,1.129,0,0,1,1.128,1.128h0A1.129,1.129,0,0,1,423.933,280.765Z" transform="translate(-371.978 -278.508)" fill="#ffca28"/>
          </g>
          <g id="Grupo_53811" data-name="Grupo 53811">
            <path id="Trazado_100611" data-name="Trazado 100611" d="M405.113,266.286v1.573H306.2v-1.573A5.287,5.287,0,0,1,311.486,261h88.341A5.287,5.287,0,0,1,405.113,266.286Z" transform="translate(-306.2 -261)" fill="#ffa726"/>
            <g id="Grupo_53810" data-name="Grupo 53810" transform="translate(77.818 2.328)">
              <path id="Trazado_100612" data-name="Trazado 100612" d="M414.506,265.392a1.225,1.225,0,1,1-1.225-1.225A1.226,1.226,0,0,1,414.506,265.392Z" transform="translate(-412.055 -264.167)" fill="#ffa726"/>
              <path id="Trazado_100613" data-name="Trazado 100613" d="M423.034,265.392a1.225,1.225,0,1,1-1.225-1.225A1.226,1.226,0,0,1,423.034,265.392Z" transform="translate(-414.314 -264.167)" fill="#ffa726"/>
              <path id="Trazado_100614" data-name="Trazado 100614" d="M431.562,265.392a1.225,1.225,0,1,1-1.225-1.225A1.226,1.226,0,0,1,431.562,265.392Z" transform="translate(-416.573 -264.167)" fill="#ffa726"/>
            </g>
          </g>
        </g>
        <g id="Grupo_53814" data-name="Grupo 53814" transform="translate(20.64 101.108)">
          <rect id="Rectángulo_5235" data-name="Rectángulo 5235" width="30.09" height="30.09" rx="7.151" fill="none" stroke="#495ad6" stroke-miterlimit="10" stroke-width="0.896"/>
          <g id="Grupo_53813" data-name="Grupo 53813" transform="translate(6.016 10.693)">
            <path id="Trazado_100615" data-name="Trazado 100615" d="M326.6,230.071l-4.335,4.335,4.369,4.369" transform="translate(-322.26 -230.071)" fill="none" stroke="#495ad6" stroke-linecap="round" stroke-linejoin="round" stroke-width="1.672"/>
            <path id="Trazado_100616" data-name="Trazado 100616" d="M340.914,230.071l4.335,4.335-4.369,4.369" transform="translate(-327.192 -230.071)" fill="none" stroke="#495ad6" stroke-linecap="round" stroke-linejoin="round" stroke-width="1.672"/>
            <line id="Línea_158" data-name="Línea 158" x1="4.06" y2="8.704" transform="translate(6.999)" fill="none" stroke="#495ad6" stroke-linecap="round" stroke-linejoin="round" stroke-width="1.672"/>
          </g>
        </g>
        <g id="Grupo_53815" data-name="Grupo 53815" transform="translate(14.85 21.65)">
          <rect id="Rectángulo_5236" data-name="Rectángulo 5236" width="98.913" height="73.242" rx="8.18" fill="#4dd0e1"/>
          <circle id="Elipse_4072" data-name="Elipse 4072" cx="14.335" cy="14.335" r="14.335" transform="translate(64.545 5.006)" fill="#f0f4ff"/>
          <path id="Trazado_100617" data-name="Trazado 100617" d="M364.342,186.636H312.213a6.016,6.016,0,0,1-6.013-6.013v-9.638l22.811-39.514a3.1,3.1,0,0,1,5.366,0L351.6,161.3l12.791,22.157A3.04,3.04,0,0,1,364.342,186.636Z" transform="translate(-306.2 -113.395)" fill="#fff"/>
          <path id="Trazado_100618" data-name="Trazado 100618" d="M397.91,192.522H348.06l14.629-25.333,7.881-13.651a2.788,2.788,0,0,1,4.83,0Z" transform="translate(-317.287 -119.28)" fill="#f0f4ff"/>
        </g>
      </g>
      <g id="Grupo_53826" data-name="Grupo 53826" transform="translate(337.784 174.551)">
        <g id="Grupo_53818" data-name="Grupo 53818" transform="translate(41.596 110.308)">
          <rect id="Rectángulo_5237" data-name="Rectángulo 5237" width="38.43" height="57.755" fill="#4dd0e1"/>
          <rect id="Rectángulo_5238" data-name="Rectángulo 5238" width="14.715" height="57.755" transform="translate(53.145 57.755) rotate(180)" fill="#26afc1"/>
          <g id="Grupo_53817" data-name="Grupo 53817" transform="translate(40.537 2.218)">
            <rect id="Rectángulo_5239" data-name="Rectángulo 5239" width="10.804" height="1.843" fill="#b2c1f9"/>
            <rect id="Rectángulo_5240" data-name="Rectángulo 5240" width="10.804" height="1.843" transform="translate(0 3.96)" fill="#b2c1f9"/>
            <rect id="Rectángulo_5241" data-name="Rectángulo 5241" width="10.804" height="1.843" transform="translate(0 7.919)" fill="#b2c1f9"/>
            <rect id="Rectángulo_5242" data-name="Rectángulo 5242" width="10.804" height="1.843" transform="translate(0 11.879)" fill="#b2c1f9"/>
            <rect id="Rectángulo_5243" data-name="Rectángulo 5243" width="10.804" height="1.843" transform="translate(0 15.839)" fill="#b2c1f9"/>
            <rect id="Rectángulo_5244" data-name="Rectángulo 5244" width="10.804" height="1.843" transform="translate(0 19.798)" fill="#b2c1f9"/>
            <rect id="Rectángulo_5245" data-name="Rectángulo 5245" width="10.804" height="1.843" transform="translate(0 23.758)" fill="#b2c1f9"/>
            <rect id="Rectángulo_5246" data-name="Rectángulo 5246" width="10.804" height="1.843" transform="translate(0 27.717)" fill="#b2c1f9"/>
            <rect id="Rectángulo_5247" data-name="Rectángulo 5247" width="10.804" height="1.843" transform="translate(0 31.677)" fill="#b2c1f9"/>
            <rect id="Rectángulo_5248" data-name="Rectángulo 5248" width="10.804" height="1.843" transform="translate(0 35.637)" fill="#b2c1f9"/>
            <rect id="Rectángulo_5249" data-name="Rectángulo 5249" width="10.804" height="1.843" transform="translate(0 39.596)" fill="#b2c1f9"/>
            <rect id="Rectángulo_5250" data-name="Rectángulo 5250" width="10.804" height="1.843" transform="translate(0 43.556)" fill="#b2c1f9"/>
            <rect id="Rectángulo_5251" data-name="Rectángulo 5251" width="10.804" height="1.843" transform="translate(0 47.516)" fill="#b2c1f9"/>
            <rect id="Rectángulo_5252" data-name="Rectángulo 5252" width="10.804" height="1.843" transform="translate(0 51.475)" fill="#b2c1f9"/>
          </g>
        </g>
        <g id="Grupo_53825" data-name="Grupo 53825">
          <path id="Trazado_100619" data-name="Trazado 100619" d="M489.591,437.558h19.531a10.655,10.655,0,0,0-1.274-7.787s-1.572,1.261-6.281.408a20.943,20.943,0,0,1-3.322,2.322C496.88,433.16,489.064,434.695,489.591,437.558Z" transform="translate(-454.238 -269.495)" fill="#281616"/>
          <path id="Trazado_100620" data-name="Trazado 100620" d="M491.293,364.023c1.261,7.527,7.082,32.993,9.585,48.037a22.957,22.957,0,0,0,7.934-.4c-.228-5.246-.679-17.794-.626-23.3.087-9.3.523-21.565-3.571-28.295l-13.766,1.084c.084.726.16,1.318.227,1.741C491.141,363.293,491.217,363.668,491.293,364.023Z" transform="translate(-454.577 -251.032)" fill="#002c54"/>
          <path id="Trazado_100621" data-name="Trazado 100621" d="M441.535,437.558h19.532a10.655,10.655,0,0,0-1.274-7.787s-1.572,1.261-6.281.408a20.962,20.962,0,0,1-3.323,2.322C448.824,433.16,441.009,434.695,441.535,437.558Z" transform="translate(-441.509 -269.495)" fill="#281616"/>
          <path id="Trazado_100622" data-name="Trazado 100622" d="M457.066,409.988a22.407,22.407,0,0,0,7.715.69c1.039-6.047,2.679-19.352,4.155-25.589,2.291-9.694,4.533-23.026,2.975-27.782l-13.541-3.4C458.325,354.336,457.223,395.137,457.066,409.988Z" transform="translate(-445.63 -249.401)" fill="#052635"/>
          <path id="Trazado_100623" data-name="Trazado 100623" d="M511.418,333.357h0c-.272-2.676-.585-4.631-.585-4.631l-15.129,3.7-12.852,2.928c-4.764,1.062-10.52,2.339-15.594,3.486-5.694,1.294-9.474,5.619-8.226,11.32l1.427,6.915c7.964-.109,45.406-3.7,48.608-5.315C512.685,349.936,513.774,343.476,511.418,333.357Z" transform="translate(-446.087 -242.732)" fill="#052635"/>
          <path id="Trazado_100624" data-name="Trazado 100624" d="M542.139,333.026h0a20.9,20.9,0,0,0-1.577-5.547l-14.137,4.62-12.852,2.928c-4.764,1.062-10.521,2.339-15.594,3.486-5.694,1.294-9.474,5.619-8.227,11.32l1.428,6.915c7.963-.109,41.248-1.269,48.608-5.315C543.34,349.48,544.5,343.146,542.139,333.026Z" transform="translate(-454.224 -242.401)" fill="#002c54"/>
          <g id="Grupo_53819" data-name="Grupo 53819" transform="translate(23.328 67.596)">
            <path id="Trazado_100625" data-name="Trazado 100625" d="M495.484,305.045s6.72-3.035,8.569.009c1.012,1.667.312,4.762-1.98,6.062s-15.242,6.777-27.466,9.832a29.673,29.673,0,0,0-1.364-3.487,64.36,64.36,0,0,0,10.935-6.1,69.7,69.7,0,0,1,11.306-6.312Z" transform="translate(-473.243 -303.698)" fill="#e5918f"/>
          </g>
          <path id="Trazado_100626" data-name="Trazado 100626" d="M503.707,276.985l-5.759,23s.595,5.815,6.468,2.961,9.766-21.181,9.766-21.181Z" transform="translate(-456.458 -229.027)" fill="#e5918f"/>
          <path id="Trazado_100627" data-name="Trazado 100627" d="M514.57,285.079c-.712-.172-1.392-.361-2.048-.557q-1.008-.3-1.917-.615a32.31,32.31,0,0,1-8.43-4.129,60.41,60.41,0,0,1,5.636-15.811,2.351,2.351,0,0,0,.14-.246l.147-.246a14.383,14.383,0,0,1,4.006-4.17l.483-.336.68,12.01.115,1.236Z" transform="translate(-457.578 -224.256)" fill="#fff"/>
          <path id="Trazado_100628" data-name="Trazado 100628" d="M517.607,289.317c-.712-.172-1.392-.361-2.048-.557q-1.008-.3-1.917-.615c1.149-8.09,2.188-13.174,2.188-13.174l.59,1.483Z" transform="translate(-460.615 -228.494)" fill="#c7e5f2"/>
          <path id="Trazado_100629" data-name="Trazado 100629" d="M551.649,262.68c-.14,3.555-.762,9.266-1.3,15-.172,1.819-.336,3.646-.476,5.407-.1,1.1-1.753,6.956-1.819,8-.295,5.014-2.752,8.766-.426,16.4a12.021,12.021,0,0,1,.7,3.523c0,.524-.68,1.073-.95,1.221a16.047,16.047,0,0,1-5.219,1.245h-.008a135.374,135.374,0,0,1-14.484.663c-5.005,0-12.518-.795-13.468-2.056-.868-1.155-.065-2.835.344-5.153,1.844-10.462,1.188-15.917,1.073-23.471,0-.188-.008-.377-.008-.573-.188-11.65-.959-21.62-.418-25.216l.483-.336c.795-.541,1.573-1.024,2.327-1.45.065-.032.148-.082.229-.131.229-.131.467-.254.688-.377a2.641,2.641,0,0,1,.262-.131,57.092,57.092,0,0,1,5.587-2.2c.18-.057.344-.115.484-.156,1.335-.082,2.785-.1,4.35-.057,1.36.04,3.441.221,5.7.516h.008a58.918,58.918,0,0,1,7.57,1.417s.025.009.041.017a15.582,15.582,0,0,1,5.956,4.17A20.175,20.175,0,0,1,551.649,262.68Z" transform="translate(-460.658 -222.625)" fill="#fff"/>
          <path id="Trazado_100630" data-name="Trazado 100630" d="M557.451,313.813a12.019,12.019,0,0,1,.7,3.523c0,.524-.68,1.073-.95,1.221a16.047,16.047,0,0,1-5.219,1.245,3.7,3.7,0,0,0,2.613-3.007c0-.961-1.245-7.447-.9-11.634s1.024-10.83-.271-16.155-2.523-12.33-2.523-12.33l7.3,4.408s.942,1.319,1.975,2.916c-.172,1.819-.336,3.646-.476,5.407C559.6,290.506,555.124,306.178,557.451,313.813Z" transform="translate(-470.482 -228.946)" fill="#c7e5f2"/>
          <g id="Grupo_53823" data-name="Grupo 53823" transform="translate(51.427)">
            <path id="Trazado_100631" data-name="Trazado 100631" d="M516.13,224.354s.631,7.634,3.163,8.148,1.91-2.731,1.91-2.731l-.354-3.625Z" transform="translate(-512.701 -215.087)" fill="#002c54"/>
            <path id="Trazado_100632" data-name="Trazado 100632" d="M530.808,255.1c-4.956-.59-3.105-5.407-2.425-6.513.18-.057,1.032-.319,1.1-.36a.027.027,0,0,1,.017-.008,1.359,1.359,0,0,0,.384-.573,11.753,11.753,0,0,0,.246-3.965v-.467c.082-.3.164-.59.229-.86l2.605-2.048,5.513-4.334s-1.466,7.251-.287,11.822a1.723,1.723,0,0,0,.729,1.1c0,.008.008,0,.008,0a1.334,1.334,0,0,0,.549.2C540.827,249.723,538.943,256.064,530.808,255.1Z" transform="translate(-515.706 -218.163)" fill="#e5918f"/>
            <path id="Trazado_100633" data-name="Trazado 100633" d="M536.041,242.236a8.223,8.223,0,0,1-5.3,7.063,11.62,11.62,0,0,0,.248-3.958l2.2-1.728Z" transform="translate(-516.571 -219.823)" fill="#cc6362"/>
            <path id="Trazado_100634" data-name="Trazado 100634" d="M517.776,223.1s1.146,15.84,5.423,17.186a11.124,11.124,0,0,0,9.361-4.75c1.128-1.517,2.552-1.857,3.017-3.688.756-2.974,1.822-8.46.462-11.766C534.1,215.377,517.96,211.638,517.776,223.1Z" transform="translate(-513.137 -212.749)" fill="#e5918f"/>
            <path id="Trazado_100635" data-name="Trazado 100635" d="M534.433,216.47c-.07-2.877-2.982-3.952-2.982-3.952-2.9-1.357-8.925-.772-15.137.614-1.456.325-3.284-.569-4.3.137-1.229.853-.005,4.749-.005,4.749,2.4,7.257,11.214,4.9,13.863,4,.63,1.869.549,4.466,2.12,5.805.895.764,2.451.785,4.032.522.195.37.926.7,1.075,1.2a25.641,25.641,0,0,1,.412,6.4l.748-.365C534.355,235.026,542.089,216.707,534.433,216.47Z" transform="translate(-511.465 -211.748)" fill="#002c54"/>
            <g id="Grupo_53820" data-name="Grupo 53820" transform="translate(5.275 12.635)">
              <path id="Trazado_100636" data-name="Trazado 100636" d="M522.392,232.337a1.94,1.94,0,1,1-2.259-2.067A2.2,2.2,0,0,1,522.392,232.337Z" transform="translate(-518.64 -229.283)" fill="none" stroke="#fff" stroke-miterlimit="10" stroke-width="0.501"/>
              <path id="Trazado_100637" data-name="Trazado 100637" d="M529.422,231.023a1.94,1.94,0,1,1-2.259-2.066A2.2,2.2,0,0,1,529.422,231.023Z" transform="translate(-520.502 -228.935)" fill="none" stroke="#fff" stroke-miterlimit="10" stroke-width="0.501"/>
              <path id="Trazado_100638" data-name="Trazado 100638" d="M523.744,232.987s.226-.368,1.417-.265" transform="translate(-519.992 -229.934)" fill="none" stroke="#fff" stroke-miterlimit="10" stroke-width="0.501"/>
              <line id="Línea_159" data-name="Línea 159" y1="0.706" x2="4.418" transform="translate(8.965 1.697)" fill="none" stroke="#fff" stroke-miterlimit="10" stroke-width="0.501"/>
            </g>
            <g id="Grupo_53821" data-name="Grupo 53821" transform="translate(17.719 13.27)">
              <path id="Trazado_100639" data-name="Trazado 100639" d="M536.831,236.469c3.043,1.165,3.992-6.323,1.1-6.655-2.191-.251-2.28,2.805-2.28,2.805S535.094,235.8,536.831,236.469Z" transform="translate(-535.568 -229.799)" fill="#e5918f"/>
            </g>
            <g id="Grupo_53822" data-name="Grupo 53822" transform="translate(18.955 14.413)" opacity="0.5">
              <path id="Trazado_100640" data-name="Trazado 100640" d="M538.28,231.355s-1.8.951-.644,3.87" transform="translate(-537.25 -231.355)" fill="none" stroke="#cc6362" stroke-miterlimit="10" stroke-width="0.724"/>
              <path id="Trazado_100641" data-name="Trazado 100641" d="M538.765,233.289a1.589,1.589,0,0,0-1.478,1.1" transform="translate(-537.259 -231.867)" fill="none" stroke="#cc6362" stroke-miterlimit="10" stroke-width="0.724"/>
            </g>
          </g>
          <path id="Trazado_100642" data-name="Trazado 100642" d="M571.473,300.92v.007c-1.337,1.551-6.411,2.682-8.852.536-.768-.684-1.634-2.485-2.484-4.72a146.128,146.128,0,0,1-4.214-14.263l11.355-5.8s1.461,6.55,2.719,12.774c0,0,.011.063.035.173.409,1.994.791,3.955,1.09,5.638a.779.779,0,0,1,.022.134A23.848,23.848,0,0,1,571.473,300.92Z" transform="translate(-471.813 -228.946)" fill="#e5918f"/>
          <path id="Trazado_100643" data-name="Trazado 100643" d="M550.089,269.372a136.4,136.4,0,0,0,4.543,13.2,17.985,17.985,0,0,0,8.334-1.008,15.354,15.354,0,0,0,5.308-3.448s-2.286-6.424-4.337-11.04c-1.841-4.143-2.947-5.69-3.744-6.511a18.043,18.043,0,0,0-4.509-3.353Z" transform="translate(-470.268 -223.79)" fill="#fff"/>
          <path id="Trazado_100644" data-name="Trazado 100644" d="M565.329,271.894l-6.663-2.875-5.25-13.528s.962.293,2.23.8h.006c.024.012.079.03.171.067a.7.7,0,0,1,.1.043c1.133.53,5.525,3.118,8.564,12.523l.073.237c.323,1.084.56,1.955.688,2.406.012.043.025.085.037.134S565.311,271.833,565.329,271.894Z" transform="translate(-471.149 -223.334)" fill="#fff"/>
          <g id="Grupo_53824" data-name="Grupo 53824" transform="translate(57.046 60.338)">
            <path id="Trazado_100645" data-name="Trazado 100645" d="M564.494,305.462v.007c-.1.831-.327,1.429-.738,1.641-.065.042-1,.6-1.063.639a56.671,56.671,0,0,1-7.038,3.64,255,255,0,0,1-24.579,8.831,28.973,28.973,0,0,0-1.5-3.431,64.394,64.394,0,0,0,10.67-6.55c5.3-4.043,12.915-8.953,12.915-8.953l1.924-2.263s6.838-6.294,7.937-5.028c0,0,.011.063.035.173.163.656.706,3.071,1.09,5.638a.785.785,0,0,1,.022.134A23.845,23.845,0,0,1,564.494,305.462Z" transform="translate(-521.88 -293.826)" fill="#e5918f"/>
            <path id="Trazado_100646" data-name="Trazado 100646" d="M527.587,324.2a4.23,4.23,0,0,1-2.7.519c-.753-.158-1.058-.467-1.615-.565a12.55,12.55,0,0,1-2.777-.642c-.734-.36-1.021-.4-1,.337s1.475,1.375,1.869,1.58a3.725,3.725,0,0,1,.939.941c.054.082-2.416,1.375-3.08,1.112a1.923,1.923,0,0,0-.085.927c.112.332.62.448.66.615s-.117.507-.007.773.563.265.746.7-.018.437.115.886.707.53.816.761.051.5.292.662a11.2,11.2,0,0,0,3.273-.9c.81-.348,2.977-3.467,5.375-4.53Z" transform="translate(-519.109 -301.623)" fill="#e5918f"/>
          </g>
          <path id="Trazado_100647" data-name="Trazado 100647" d="M539.858,342.868H522.585v-1.69h17.273a.845.845,0,0,1,.845.845h0A.845.845,0,0,1,539.858,342.868Z" transform="translate(-462.983 -246.03)" fill="#375f84"/>
          <path id="Trazado_100648" data-name="Trazado 100648" d="M514.182,331.186h-43.25a1.152,1.152,0,0,1-1.111-.845l-8.853-31.866a1.107,1.107,0,0,1,1.067-1.4h41.824a2.17,2.17,0,0,1,2.09,1.589l8.82,31.751A.61.61,0,0,1,514.182,331.186Z" transform="translate(-446.653 -234.348)" fill="#375f84"/>
          <path id="Trazado_100649" data-name="Trazado 100649" d="M512.052,331.186H468.8a1.154,1.154,0,0,1-1.112-.845l-8.852-31.866a1.107,1.107,0,0,1,1.067-1.4h41.823a2.17,2.17,0,0,1,2.091,1.589l8.82,31.751A.61.61,0,0,1,512.052,331.186Z" transform="translate(-446.089 -234.348)" fill="#467cdb"/>
        </g>
      </g>
      <g id="Grupo_53827" data-name="Grupo 53827" transform="translate(148.695 215.858)">
        <path id="Trazado_100650" data-name="Trazado 100650" d="M298.064,310.615l5.01-5.136a13.436,13.436,0,0,1,.446-2.774,12.749,12.749,0,0,1,1.328-2.467,1.815,1.815,0,0,1,1.053,0A4.823,4.823,0,0,1,306.91,300a2.956,2.956,0,0,1,.9.285s.749-.051,1.061-.051a.666.666,0,0,1,.412.087,22.124,22.124,0,0,1,1.793-1.858c.585-.468,1.48-1.33,1.745-1.326.25,0,.36.443.178.911a5.19,5.19,0,0,1-.974,1.223l-2.283,3.459a4.911,4.911,0,0,0,.6-.286c.208-.13,1.6-1.431,1.685-1.483s.708-.468,1.073-.051-2.39,3.715-2.832,4.157a24.121,24.121,0,0,1-2.974,1.724s-2.673,4.809-2.933,5.12S298.064,310.615,298.064,310.615Z" transform="translate(-214.427 -275.673)" fill="#e49191"/>
        <path id="Trazado_100651" data-name="Trazado 100651" d="M297.772,280.162s-2.8,16.211-5.433,16.588c0,0-10.516.424-12.858-12.333-2.032-11.063,6.117-13.422,9.928-12.576S298.591,273.237,297.772,280.162Z" transform="translate(-209.421 -268.93)" fill="#e49191"/>
        <path id="Trazado_100652" data-name="Trazado 100652" d="M288.086,299.08s-1.473,1.986-1.989,6.8a15.612,15.612,0,0,1-8.417-1.453,59.581,59.581,0,0,0,2.443-14.151" transform="translate(-209.028 -273.853)" fill="#e49191"/>
        <path id="Trazado_100653" data-name="Trazado 100653" d="M284.726,268.134c-5.747,1.27-5.287,4.85-5.287,4.85-2.69.666-3.268,1.777-3.246,6.743s1.819,10.929,2.81,11.414,6.609.509,7.078.338,2.435-4.726,1.977-5.527.023-3.954,1.331-4.073,1.052,1.908,1.052,1.908l1.076-.236.831-2.036c7.594.452,9.556-8.2,9.556-8.2C300.079,272.124,290.474,266.865,284.726,268.134Z" transform="translate(-208.634 -267.938)" fill="#002c54"/>
        <path id="Trazado_100654" data-name="Trazado 100654" d="M199.86,417.462l5.811.84-1.925,6.785-6.293-1.587a4.091,4.091,0,0,1,1.3-6.038A2.117,2.117,0,0,1,199.86,417.462Z" transform="translate(-187.559 -307.522)" fill="#e5918f"/>
        <path id="Trazado_100655" data-name="Trazado 100655" d="M245.2,384.292l-8.564-25.931s-2.6-.925-3.925,0c0,0-8.922,4.8-7.97,18.477a223.516,223.516,0,0,0,3.777,25.983l-22.849-.845a7.785,7.785,0,0,0-1,7.712s28.711,7.722,32.755,8.435c3.287.581,6.885,1.028,8.622-.461C249.109,415.04,245.2,384.292,245.2,384.292Z" transform="translate(-189.529 -291.779)"/>
        <path id="Trazado_100656" data-name="Trazado 100656" d="M236.661,417.462l5.811.84-1.925,6.785-6.293-1.587a4.091,4.091,0,0,1,1.3-6.038A2.117,2.117,0,0,1,236.661,417.462Z" transform="translate(-197.306 -307.522)" fill="#e5918f"/>
        <path id="Trazado_100657" data-name="Trazado 100657" d="M231.288,420.392c-.13,1.336,1.039,2.538.825,2.871s-4.12,6.886-4.12,6.886,2.949,1.284,2.473,3.139H223a6.2,6.2,0,0,1-1.9-4.281,21.662,21.662,0,0,1,1.839-5.469c1.331-2.569,4.359-8.367,4.359-8.367a4.227,4.227,0,0,1,2.489.048,15.1,15.1,0,0,1,3.612,1.616S231.609,417.092,231.288,420.392Z" transform="translate(-194.041 -306.895)" fill="#467cdb"/>
        <path id="Trazado_100658" data-name="Trazado 100658" d="M296.1,412.362c-1.844-6.879-19.191-36.249-25.059-44.179-12.053-5.233-24.9-9.674-24.9-9.674-5.313,1.269-7.93,11.975-4.917,19.111,2.067,4.9,15.182,17.22,23.213,24.475l-22.286-.026s-2.626,3.924-.246,7.651c0,0,37.066,8.428,40.318,8.9s10.547,0,10.547,0S297.653,418.154,296.1,412.362Z" transform="translate(-199.036 -291.927)" fill="#002c54"/>
        <path id="Trazado_100659" data-name="Trazado 100659" d="M194.487,420.392c-.13,1.336,1.039,2.538.825,2.871s-4.12,6.886-4.12,6.886,2.949,1.284,2.474,3.139H186.2a6.2,6.2,0,0,1-1.9-4.281,21.662,21.662,0,0,1,1.839-5.469c1.331-2.569,4.359-8.367,4.359-8.367a4.226,4.226,0,0,1,2.489.048,15.113,15.113,0,0,1,3.612,1.616S194.808,417.092,194.487,420.392Z" transform="translate(-184.294 -306.895)" fill="#467cdb"/>
        <path id="Trazado_100660" data-name="Trazado 100660" d="M344.346,308.679l-11.954,21.027-8.561-8.533-7.086,10.548,2.058.988-.74.616s16.521,8.046,18.5,6.271,11.2-28.526,11.2-28.526Z" transform="translate(-219.375 -278.729)" fill="#e49191"/>
        <path id="Trazado_100661" data-name="Trazado 100661" d="M304.972,321.122s-2.257,9.52-6.771,14.034l-11.549-4.4s-5.359,9.013-10.6,15.923c-2.014,2.669-2.683,6.425-5.05,6.918-.147-.051-.287-.1-.434-.132-6.418-1.926-15.886.118-23.7-2.786-8.63-3.213-6.954-5.021-6.954-5.021a111.486,111.486,0,0,0,8.2-19.422,119.073,119.073,0,0,0,2.852-11.711,13.484,13.484,0,0,1,11.35-10.858c.066-.007.125-.022.191-.029,6.543-.831,23.671,1.191,27,2.617S304.972,321.122,304.972,321.122Z" transform="translate(-198.991 -277.343)" fill="#467cdb"/>
        <path id="Trazado_100662" data-name="Trazado 100662" d="M297.9,340.049s-5.359,9.013-10.6,15.923c-2.014,2.669-2.683,6.425-5.05,6.918,1.037-.368,2.757-5.822,3.367-7.05s1.6-2.448,3.712-6.734,4.974-10.585,4.974-10.585Z" transform="translate(-210.239 -286.633)" fill="#5996ef"/>
        <path id="Trazado_100663" data-name="Trazado 100663" d="M273.26,417.8a37.4,37.4,0,0,1,11.521,1.656" transform="translate(-207.858 -307.628)" fill="none" stroke="#000" stroke-miterlimit="10" stroke-width="1.065"/>
        <path id="Trazado_100664" data-name="Trazado 100664" d="M362.975,296.8a11.189,11.189,0,0,0-2.01,1.45l.681-1.3a12.84,12.84,0,0,0,1.225-1.348c.325-.478.154-.956-.1-.981a10.015,10.015,0,0,0-1.883,1.346l.137-.262a12.845,12.845,0,0,0,1.225-1.348c.324-.478.154-.956-.1-.981a16.136,16.136,0,0,0-2.33,1.715l-1.01,1.352.761-1.478a6.38,6.38,0,0,0,.669-1.025c.267-.534.074-.7-.074-.876s-1.545.862-1.9,1.277a21.558,21.558,0,0,0-1.574,2.339l-1.167,2.413c-.075-.7-.192-1.9-.274-2.658-.119-1.1-1.114-1.359-1.148-.825a27.968,27.968,0,0,0-.463,4.589c.125,1.426.364,2.361.453,3.163a6.3,6.3,0,0,1-.742,2.4s3.327,2.066,3.877,1.448a25.987,25.987,0,0,0,2.286-2.916,15.532,15.532,0,0,0,1.3-2.941l1.039-2.221a12.84,12.84,0,0,0,1.225-1.348C363.4,297.3,363.231,296.82,362.975,296.8Z" transform="translate(-229.07 -274.584)" fill="#e49191"/>
      </g>
      <g id="Grupo_53829" data-name="Grupo 53829" transform="translate(430.014 171.115)">
        <path id="Trazado_100665" data-name="Trazado 100665" d="M610.506,207.074H571.5a4.527,4.527,0,0,0-4.527,4.527v9.215a4.529,4.529,0,0,0,3.956,4.492.651.651,0,0,1,.571.648V231a.3.3,0,0,0,.544.174l3.973-5.556a.658.658,0,0,1,.535-.276h33.957a4.527,4.527,0,0,0,4.527-4.527V211.6A4.527,4.527,0,0,0,610.506,207.074Z" transform="translate(-566.97 -207.074)" fill="none" stroke="#fff" stroke-miterlimit="10" stroke-width="0.896"/>
        <g id="Grupo_53828" data-name="Grupo 53828" transform="translate(7.531 7.63)">
          <path id="Trazado_100666" data-name="Trazado 100666" d="M580.2,218.944a1.491,1.491,0,1,1-1.491-1.491A1.49,1.49,0,0,1,580.2,218.944Z" transform="translate(-577.214 -217.453)" fill="none" stroke="#fff" stroke-miterlimit="10" stroke-width="0.896"/>
          <path id="Trazado_100667" data-name="Trazado 100667" d="M590.4,218.944a1.491,1.491,0,1,1-1.49-1.491A1.49,1.49,0,0,1,590.4,218.944Z" transform="translate(-579.918 -217.453)" fill="none" stroke="#fff" stroke-miterlimit="10" stroke-width="0.896"/>
          <path id="Trazado_100668" data-name="Trazado 100668" d="M600.613,218.944a1.49,1.49,0,1,1-1.49-1.491A1.49,1.49,0,0,1,600.613,218.944Z" transform="translate(-582.622 -217.453)" fill="none" stroke="#fff" stroke-miterlimit="10" stroke-width="0.896"/>
          <path id="Trazado_100669" data-name="Trazado 100669" d="M610.823,218.944a1.491,1.491,0,1,1-1.491-1.491A1.49,1.49,0,0,1,610.823,218.944Z" transform="translate(-585.326 -217.453)" fill="none" stroke="#fff" stroke-miterlimit="10" stroke-width="0.896"/>
          <path id="Trazado_100670" data-name="Trazado 100670" d="M621.032,218.944a1.491,1.491,0,1,1-1.49-1.491A1.49,1.49,0,0,1,621.032,218.944Z" transform="translate(-588.03 -217.453)" fill="none" stroke="#fff" stroke-miterlimit="10" stroke-width="0.896"/>
        </g>
      </g>
      <g id="Grupo_53831" data-name="Grupo 53831" transform="translate(160.78 211.516)">
        <path id="Trazado_100671" data-name="Trazado 100671" d="M205.26,262.031h39.009a4.526,4.526,0,0,1,4.526,4.526v9.216a4.527,4.527,0,0,1-3.955,4.491.653.653,0,0,0-.571.648v5.044a.3.3,0,0,1-.544.174l-3.973-5.556a.657.657,0,0,0-.535-.275H205.26a4.527,4.527,0,0,1-4.527-4.527v-9.216A4.527,4.527,0,0,1,205.26,262.031Z" transform="translate(-200.733 -262.031)" fill="none" stroke="#fff" stroke-miterlimit="10" stroke-width="0.896"/>
        <g id="Grupo_53830" data-name="Grupo 53830" transform="translate(7.531 7.63)">
          <path id="Trazado_100672" data-name="Trazado 100672" d="M251.814,273.9a1.49,1.49,0,1,0,1.491-1.491A1.491,1.491,0,0,0,251.814,273.9Z" transform="translate(-221.793 -272.41)" fill="none" stroke="#fff" stroke-miterlimit="10" stroke-width="0.896"/>
          <path id="Trazado_100673" data-name="Trazado 100673" d="M241.605,273.9a1.49,1.49,0,1,0,1.49-1.491A1.491,1.491,0,0,0,241.605,273.9Z" transform="translate(-219.089 -272.41)" fill="none" stroke="#fff" stroke-miterlimit="10" stroke-width="0.896"/>
          <path id="Trazado_100674" data-name="Trazado 100674" d="M231.4,273.9a1.49,1.49,0,1,0,1.491-1.491A1.491,1.491,0,0,0,231.4,273.9Z" transform="translate(-216.385 -272.41)" fill="none" stroke="#fff" stroke-miterlimit="10" stroke-width="0.896"/>
          <path id="Trazado_100675" data-name="Trazado 100675" d="M221.186,273.9a1.49,1.49,0,1,0,1.49-1.491A1.491,1.491,0,0,0,221.186,273.9Z" transform="translate(-213.681 -272.41)" fill="none" stroke="#fff" stroke-miterlimit="10" stroke-width="0.896"/>
          <path id="Trazado_100676" data-name="Trazado 100676" d="M210.977,273.9a1.49,1.49,0,1,0,1.49-1.491A1.49,1.49,0,0,0,210.977,273.9Z" transform="translate(-210.977 -272.41)" fill="none" stroke="#fff" stroke-miterlimit="10" stroke-width="0.896"/>
        </g>
      </g>
      <g id="Grupo_53833" data-name="Grupo 53833" transform="translate(322.695 135.655)">
        <path id="Trazado_100677" data-name="Trazado 100677" d="M499.183,173.038h-71.1a7.1,7.1,0,0,1-7.1-7.1h0a7.1,7.1,0,0,1,7.1-7.1h71.1a7.1,7.1,0,0,1,7.1,7.1h0A7.1,7.1,0,0,1,499.183,173.038Z" transform="translate(-420.984 -158.838)" fill="#fff" stroke="#495ad6" stroke-miterlimit="10" stroke-width="0.896"/>
        <g id="Grupo_53832" data-name="Grupo 53832" transform="translate(69.606 2.835)">
          <path id="Trazado_100678" data-name="Trazado 100678" d="M523.22,166.47a3.776,3.776,0,1,1-3.776-3.776A3.776,3.776,0,0,1,523.22,166.47Z" transform="translate(-515.669 -162.694)" fill="none" stroke="#495ad6" stroke-miterlimit="10" stroke-width="1.672"/>
          <line id="Línea_160" data-name="Línea 160" x2="2.085" y2="2.085" transform="translate(6.445 6.446)" fill="none" stroke="#495ad6" stroke-linecap="round" stroke-miterlimit="10" stroke-width="1.672"/>
        </g>
      </g>
      <g id="Grupo_53856" data-name="Grupo 53856" transform="translate(112.563 71.31)">
        <g id="Grupo_53834" data-name="Grupo 53834" transform="translate(151.75 242.427)">
          <rect id="Rectángulo_5253" data-name="Rectángulo 5253" width="29.219" height="29.219" rx="7.708" transform="translate(5.325)" fill="#12263f"/>
          <rect id="Rectángulo_5254" data-name="Rectángulo 5254" width="29.219" height="29.219" rx="7.708" fill="#4dd0e1"/>
          <path id="Trazado_100679" data-name="Trazado 100679" d="M356.327,413.415l8.388,4.842a.777.777,0,0,1,0,1.345l-8.388,4.842a.776.776,0,0,1-1.164-.673v-9.685A.777.777,0,0,1,356.327,413.415Z" transform="translate(-345.169 -404.321)" fill="#fff"/>
        </g>
        <g id="Grupo_53835" data-name="Grupo 53835" transform="translate(327.899 233.449)">
          <rect id="Rectángulo_5255" data-name="Rectángulo 5255" width="38.197" height="38.197" rx="10.076" transform="translate(6.961)" fill="#12263f"/>
          <rect id="Rectángulo_5256" data-name="Rectángulo 5256" width="38.197" height="38.197" rx="10.076" fill="#4dd0e1"/>
          <path id="Trazado_100680" data-name="Trazado 100680" d="M610.1,399.964a4.589,4.589,0,1,1-4.589-4.589A4.589,4.589,0,0,1,610.1,399.964Z" transform="translate(-586.411 -390.593)" fill="#fff"/>
          <path id="Trazado_100681" data-name="Trazado 100681" d="M613.282,419.307v6.775a1.109,1.109,0,0,1-1.108,1.109H595.257a1.109,1.109,0,0,1-1.109-1.109v-6.775a9.567,9.567,0,0,1,9.567-9.566h0A9.566,9.566,0,0,1,613.282,419.307Z" transform="translate(-584.617 -394.398)" fill="#fff"/>
        </g>
        <g id="Grupo_53836" data-name="Grupo 53836" transform="translate(245.43 84.467)">
          <path id="Trazado_100682" data-name="Trazado 100682" d="M485.148,188.467H470.129A1.129,1.129,0,0,1,469,187.338h0a1.129,1.129,0,0,1,1.128-1.128h15.018a1.129,1.129,0,0,1,1.128,1.128h0A1.128,1.128,0,0,1,485.148,188.467Z" transform="translate(-469.001 -186.21)" fill="#f0f4ff"/>
          <path id="Trazado_100683" data-name="Trazado 100683" d="M507.08,188.467H496.211a1.129,1.129,0,0,1-1.128-1.128h0a1.129,1.129,0,0,1,1.128-1.128H507.08a1.129,1.129,0,0,1,1.128,1.128h0A1.128,1.128,0,0,1,507.08,188.467Z" transform="translate(-475.909 -186.21)" fill="#f0f4ff"/>
          <path id="Trazado_100684" data-name="Trazado 100684" d="M476.51,195.217h-6.381A1.129,1.129,0,0,1,469,194.088h0a1.129,1.129,0,0,1,1.128-1.128h6.381a1.129,1.129,0,0,1,1.128,1.128h0A1.129,1.129,0,0,1,476.51,195.217Z" transform="translate(-469.001 -187.998)" fill="#f0f4ff"/>
          <path id="Trazado_100685" data-name="Trazado 100685" d="M503.835,195.217H483.961a1.129,1.129,0,0,1-1.128-1.128h0a1.129,1.129,0,0,1,1.128-1.128h19.874a1.129,1.129,0,0,1,1.128,1.128h0A1.128,1.128,0,0,1,503.835,195.217Z" transform="translate(-472.665 -187.998)" fill="#f0f4ff"/>
          <path id="Trazado_100686" data-name="Trazado 100686" d="M489.926,201.967h-19.8A1.129,1.129,0,0,1,469,200.838h0a1.129,1.129,0,0,1,1.128-1.128h19.8a1.129,1.129,0,0,1,1.128,1.128h0A1.128,1.128,0,0,1,489.926,201.967Z" transform="translate(-469.001 -189.786)" fill="#f0f4ff"/>
          <path id="Trazado_100687" data-name="Trazado 100687" d="M508.7,201.967h-6.38a1.129,1.129,0,0,1-1.129-1.128h0a1.129,1.129,0,0,1,1.129-1.128h6.38a1.129,1.129,0,0,1,1.128,1.128h0A1.128,1.128,0,0,1,508.7,201.967Z" transform="translate(-477.526 -189.786)" fill="#f0f4ff"/>
        </g>
        <g id="Grupo_53840" data-name="Grupo 53840" transform="translate(16.171 169.902)">
          <rect id="Rectángulo_5257" data-name="Rectángulo 5257" width="58.048" height="32.086" rx="3.823" fill="#12263f"/>
          <line id="Línea_161" data-name="Línea 161" x2="53.114" transform="translate(2.467 4.335)" fill="none" stroke="#fff" stroke-linecap="round" stroke-miterlimit="10" stroke-width="0.896"/>
          <circle id="Elipse_4073" data-name="Elipse 4073" cx="0.643" cy="0.643" r="0.643" transform="translate(53.535 1.486)" fill="#fff"/>
          <circle id="Elipse_4074" data-name="Elipse 4074" cx="0.643" cy="0.643" r="0.643" transform="translate(50.181 1.486)" fill="#fff"/>
          <circle id="Elipse_4075" data-name="Elipse 4075" cx="0.643" cy="0.643" r="0.643" transform="translate(46.827 1.486)" fill="#fff"/>
          <g id="Grupo_53839" data-name="Grupo 53839" transform="translate(2.467 6.877)">
            <g id="Grupo_53837" data-name="Grupo 53837">
              <path id="Trazado_100688" data-name="Trazado 100688" d="M170.4,313.558h-9.013a.888.888,0,0,1-.888-.888h0a.889.889,0,0,1,.888-.889H170.4a.889.889,0,0,1,.888.889h0A.888.888,0,0,1,170.4,313.558Z" transform="translate(-160.497 -311.781)" fill="#6589d1"/>
              <path id="Trazado_100689" data-name="Trazado 100689" d="M170.4,319.141h-9.013a.888.888,0,0,1-.888-.888h0a.888.888,0,0,1,.888-.888H170.4a.888.888,0,0,1,.888.888h0A.888.888,0,0,1,170.4,319.141Z" transform="translate(-160.497 -313.26)" fill="#6589d1"/>
              <path id="Trazado_100690" data-name="Trazado 100690" d="M170.4,324.725h-9.013a.888.888,0,0,1-.888-.889h0a.888.888,0,0,1,.888-.888H170.4a.888.888,0,0,1,.888.888h0A.888.888,0,0,1,170.4,324.725Z" transform="translate(-160.497 -314.739)" fill="#6589d1"/>
              <path id="Trazado_100691" data-name="Trazado 100691" d="M170.4,330.308h-9.013a.888.888,0,0,1-.888-.888h0a.889.889,0,0,1,.888-.889H170.4a.889.889,0,0,1,.888.889h0A.888.888,0,0,1,170.4,330.308Z" transform="translate(-160.497 -316.217)" fill="#6589d1"/>
              <path id="Trazado_100692" data-name="Trazado 100692" d="M170.4,335.891h-9.013A.888.888,0,0,1,160.5,335h0a.888.888,0,0,1,.888-.888H170.4a.888.888,0,0,1,.888.888h0A.888.888,0,0,1,170.4,335.891Z" transform="translate(-160.497 -317.696)" fill="#6589d1"/>
              <path id="Trazado_100693" data-name="Trazado 100693" d="M170.4,341.475h-9.013a.888.888,0,0,1-.888-.889h0a.888.888,0,0,1,.888-.888H170.4a.888.888,0,0,1,.888.888h0A.888.888,0,0,1,170.4,341.475Z" transform="translate(-160.497 -319.175)" fill="#6589d1"/>
            </g>
            <g id="Grupo_53838" data-name="Grupo 53838" transform="translate(12.497)">
              <path id="Trazado_100694" data-name="Trazado 100694" d="M217.224,313.558H178.385a.888.888,0,0,1-.888-.888h0a.889.889,0,0,1,.888-.889h38.839a.889.889,0,0,1,.889.889h0A.888.888,0,0,1,217.224,313.558Z" transform="translate(-177.497 -311.781)" fill="#3b5fb7"/>
              <path id="Trazado_100695" data-name="Trazado 100695" d="M217.224,319.141H178.385a.888.888,0,0,1-.888-.888h0a.888.888,0,0,1,.888-.888h38.839a.888.888,0,0,1,.889.888h0A.888.888,0,0,1,217.224,319.141Z" transform="translate(-177.497 -313.26)" fill="#3b5fb7"/>
              <path id="Trazado_100696" data-name="Trazado 100696" d="M217.224,324.725H178.385a.888.888,0,0,1-.888-.889h0a.888.888,0,0,1,.888-.888h38.839a.888.888,0,0,1,.889.888h0A.889.889,0,0,1,217.224,324.725Z" transform="translate(-177.497 -314.739)" fill="#3b5fb7"/>
              <path id="Trazado_100697" data-name="Trazado 100697" d="M217.224,330.308H178.385a.888.888,0,0,1-.888-.888h0a.889.889,0,0,1,.888-.889h38.839a.889.889,0,0,1,.889.889h0A.888.888,0,0,1,217.224,330.308Z" transform="translate(-177.497 -316.217)" fill="#3b5fb7"/>
              <path id="Trazado_100698" data-name="Trazado 100698" d="M217.224,335.891H178.385A.888.888,0,0,1,177.5,335h0a.888.888,0,0,1,.888-.888h38.839a.888.888,0,0,1,.889.888h0A.888.888,0,0,1,217.224,335.891Z" transform="translate(-177.497 -317.696)" fill="#3b5fb7"/>
              <path id="Trazado_100699" data-name="Trazado 100699" d="M217.224,341.475H178.385a.888.888,0,0,1-.888-.889h0a.888.888,0,0,1,.888-.888h38.839a.888.888,0,0,1,.889.888h0A.889.889,0,0,1,217.224,341.475Z" transform="translate(-177.497 -319.175)" fill="#3b5fb7"/>
            </g>
          </g>
        </g>
        <g id="Grupo_53844" data-name="Grupo 53844" transform="translate(291.509 0)">
          <circle id="Elipse_4076" data-name="Elipse 4076" cx="23.896" cy="23.896" r="23.896" transform="matrix(0.233, -0.972, 0.972, 0.233, 0, 46.476)" fill="none" stroke="#dee3fc" stroke-miterlimit="10" stroke-width="0.79"/>
          <circle id="Elipse_4077" data-name="Elipse 4077" cx="20.775" cy="20.775" r="20.775" transform="translate(1.401 18.214) rotate(-23.868)" fill="#12263f"/>
          <path id="Trazado_100700" data-name="Trazado 100700" d="M572.075,109.814a1.891,1.891,0,1,1-1.891-1.892A1.891,1.891,0,0,1,572.075,109.814Z" transform="translate(-541.378 -81.008)" fill="#fff"/>
          <path id="Trazado_100701" data-name="Trazado 100701" d="M568.067,105.619h0a.592.592,0,0,1-.8-.23l-6.11-11.02a.591.591,0,0,1,.23-.8h0a.591.591,0,0,1,.8.23l6.11,11.02A.591.591,0,0,1,568.067,105.619Z" transform="translate(-539.467 -77.185)" fill="#fff"/>
          <path id="Trazado_100702" data-name="Trazado 100702" d="M571.212,110.841h0a.592.592,0,0,1,.837,0l5.286,5.286a.591.591,0,0,1,0,.836h0a.591.591,0,0,1-.837,0l-5.286-5.286A.592.592,0,0,1,571.212,110.841Z" transform="translate(-542.105 -81.735)" fill="#fff"/>
          <g id="Grupo_53841" data-name="Grupo 53841" transform="translate(9.788 9.788)">
            <line id="Línea_162" data-name="Línea 162" y1="2.389" transform="translate(19.145)" fill="none" stroke="#fff" stroke-linecap="round" stroke-miterlimit="10" stroke-width="2"/>
            <line id="Línea_163" data-name="Línea 163" x2="2.389" transform="translate(35.646 19.145)" fill="none" stroke="#fff" stroke-linecap="round" stroke-miterlimit="10" stroke-width="2"/>
            <line id="Línea_164" data-name="Línea 164" y2="2.389" transform="translate(18.89 35.646)" fill="none" stroke="#fff" stroke-linecap="round" stroke-miterlimit="10" stroke-width="2"/>
            <line id="Línea_165" data-name="Línea 165" x1="2.389" transform="translate(0 18.891)" fill="none" stroke="#fff" stroke-linecap="round" stroke-miterlimit="10" stroke-width="2"/>
          </g>
          <g id="Grupo_53842" data-name="Grupo 53842" transform="translate(12.272 12.272)" opacity="0.5">
            <line id="Línea_166" data-name="Línea 166" x1="1.195" y1="2.069" transform="translate(7.135)" fill="none" stroke="#dee3fc" stroke-linecap="round" stroke-miterlimit="10" stroke-width="1"/>
            <line id="Línea_167" data-name="Línea 167" y1="1.195" x2="2.069" transform="translate(30.998 7.135)" fill="none" stroke="#dee3fc" stroke-linecap="round" stroke-miterlimit="10" stroke-width="1"/>
            <line id="Línea_168" data-name="Línea 168" x2="1.195" y2="2.069" transform="translate(24.737 30.998)" fill="none" stroke="#dee3fc" stroke-linecap="round" stroke-miterlimit="10" stroke-width="1"/>
            <line id="Línea_169" data-name="Línea 169" x1="2.069" y2="1.195" transform="translate(0 24.738)" fill="none" stroke="#dee3fc" stroke-linecap="round" stroke-miterlimit="10" stroke-width="1"/>
          </g>
          <g id="Grupo_53843" data-name="Grupo 53843" transform="translate(12.399 12.399)" opacity="0.5">
            <line id="Línea_170" data-name="Línea 170" x1="2.069" y1="1.195" transform="translate(0 6.787)" fill="none" stroke="#dee3fc" stroke-linecap="round" stroke-miterlimit="10" stroke-width="1"/>
            <line id="Línea_171" data-name="Línea 171" y1="2.069" x2="1.195" transform="translate(24.831)" fill="none" stroke="#dee3fc" stroke-linecap="round" stroke-miterlimit="10" stroke-width="1"/>
            <line id="Línea_172" data-name="Línea 172" x2="2.069" y2="1.195" transform="translate(30.743 24.831)" fill="none" stroke="#dee3fc" stroke-linecap="round" stroke-miterlimit="10" stroke-width="1"/>
            <line id="Línea_173" data-name="Línea 173" x1="1.195" y2="2.069" transform="translate(6.787 30.743)" fill="none" stroke="#dee3fc" stroke-linecap="round" stroke-miterlimit="10" stroke-width="1"/>
          </g>
        </g>
        <g id="Grupo_53847" data-name="Grupo 53847" transform="translate(0 105.26)">
          <rect id="Rectángulo_5258" data-name="Rectángulo 5258" width="40.31" height="40.31" rx="9.569" transform="translate(3.124 3.492)" fill="#12263f"/>
          <rect id="Rectángulo_5259" data-name="Rectángulo 5259" width="40.31" height="40.31" rx="7.667" fill="#4dd0e1" stroke="#dee3fc" stroke-miterlimit="10" stroke-width="1"/>
          <g id="Grupo_53846" data-name="Grupo 53846" transform="translate(11.204 6.356)">
            <g id="Grupo_53845" data-name="Grupo 53845">
              <path id="Trazado_100703" data-name="Trazado 100703" d="M166.315,232.324h-.21v-2.309a6.873,6.873,0,1,0-13.746,0v2.309h-.046a1.928,1.928,0,0,0-1.928,1.928v8.7a1.929,1.929,0,0,0,1.928,1.929h14a1.929,1.929,0,0,0,1.929-1.929v-8.7A1.929,1.929,0,0,0,166.315,232.324ZM154.1,230.015a5.132,5.132,0,1,1,10.264,0v2.309H154.1Z" transform="translate(-150.385 -223.141)" fill="#dee3fc"/>
              <path id="Trazado_100704" data-name="Trazado 100704" d="M164,240.909a2.243,2.243,0,1,0-3.374,1.933.4.4,0,0,1,.2.45l-.39,1.441a1.347,1.347,0,1,0,2.6,0l-.386-1.425a.4.4,0,0,1,.209-.454A2.233,2.233,0,0,0,164,240.909Z" transform="translate(-152.802 -227.253)" fill="#4dd0e1"/>
            </g>
            <path id="Trazado_100705" data-name="Trazado 100705" d="M167.417,256.272H151.212a.826.826,0,0,1-.827-.827h0a.827.827,0,0,1,.827-.827h16.205a.827.827,0,0,1,.827.827h0A.827.827,0,0,1,167.417,256.272Z" transform="translate(-150.385 -231.478)" fill="#dee3fc"/>
            <path id="Trazado_100706" data-name="Trazado 100706" d="M167.417,260.085H151.212a.827.827,0,0,1-.827-.827h0a.826.826,0,0,1,.827-.827h16.205a.827.827,0,0,1,.827.827h0A.827.827,0,0,1,167.417,260.085Z" transform="translate(-150.385 -232.488)" fill="#dee3fc"/>
          </g>
        </g>
        <g id="Grupo_53854" data-name="Grupo 53854" transform="translate(332.487 170.657)">
          <g id="Grupo_53848" data-name="Grupo 53848">
            <path id="Rectángulo_5260" data-name="Rectángulo 5260" d="M5.634,0H18.1a5.634,5.634,0,0,1,5.634,5.634V18.1A5.633,5.633,0,0,1,18.1,23.731H5.634A5.634,5.634,0,0,1,0,18.1V5.634A5.634,5.634,0,0,1,5.634,0Z" transform="translate(1.839 2.056)" fill="#193091"/>
            <rect id="Rectángulo_5261" data-name="Rectángulo 5261" width="23.731" height="23.731" rx="4.513" fill="#4dd0e1" stroke="#dee3fc" stroke-miterlimit="10" stroke-width="1"/>
          </g>
          <g id="Grupo_53853" data-name="Grupo 53853" transform="translate(4.778 4.777)">
            <g id="Grupo_53849" data-name="Grupo 53849" transform="translate(1.557)">
              <path id="Trazado_100707" data-name="Trazado 100707" d="M596.777,324.128a.7.7,0,0,1-.2-.028.734.734,0,0,1-.507-.906l3.589-12.7a.735.735,0,1,1,1.414.4l-3.589,12.7A.735.735,0,0,1,596.777,324.128Z" transform="translate(-596.041 -309.953)" fill="#fff"/>
            </g>
            <g id="Grupo_53850" data-name="Grupo 53850" transform="translate(7.558)">
              <path id="Trazado_100708" data-name="Trazado 100708" d="M604.94,324.128a.692.692,0,0,1-.2-.028.733.733,0,0,1-.508-.906l3.59-12.7a.735.735,0,1,1,1.414.4l-3.59,12.7A.734.734,0,0,1,604.94,324.128Z" transform="translate(-604.204 -309.953)" fill="#fff"/>
            </g>
            <g id="Grupo_53851" data-name="Grupo 53851" transform="translate(0 3.474)">
              <path id="Trazado_100709" data-name="Trazado 100709" d="M607.362,316.149h-12.7a.735.735,0,1,1,0-1.47h12.7a.735.735,0,0,1,0,1.47Z" transform="translate(-593.923 -314.679)" fill="#fff"/>
            </g>
            <g id="Grupo_53852" data-name="Grupo 53852" transform="translate(0 9.277)">
              <path id="Trazado_100710" data-name="Trazado 100710" d="M607.362,324.043h-12.7a.735.735,0,1,1,0-1.47h12.7a.735.735,0,0,1,0,1.47Z" transform="translate(-593.923 -322.573)" fill="#fff"/>
            </g>
          </g>
        </g>
        <g id="Grupo_53855" data-name="Grupo 53855" transform="translate(57.238 119.048)">
          <path id="Trazado_100711" data-name="Trazado 100711" d="M223.2,235.265h-9.188A1.008,1.008,0,0,1,213,234.257h0a1.008,1.008,0,0,1,1.008-1.007H223.2a1.007,1.007,0,0,1,1.007,1.007h0A1.007,1.007,0,0,1,223.2,235.265Z" transform="translate(-213.004 -233.25)" fill="#f0f4ff"/>
          <path id="Trazado_100712" data-name="Trazado 100712" d="M232.455,241.348H214.012A1.007,1.007,0,0,1,213,240.341h0a1.008,1.008,0,0,1,1.008-1.008h18.443a1.007,1.007,0,0,1,1.007,1.008h0A1.007,1.007,0,0,1,232.455,241.348Z" transform="translate(-213.004 -234.861)" fill="#f0f4ff"/>
          <path id="Trazado_100713" data-name="Trazado 100713" d="M216.19,247.432h-2.178A1.008,1.008,0,0,1,213,246.424h0a1.007,1.007,0,0,1,1.008-1.007h2.178a1.007,1.007,0,0,1,1.007,1.007h0A1.007,1.007,0,0,1,216.19,247.432Z" transform="translate(-213.004 -236.473)" fill="#f0f4ff"/>
          <path id="Trazado_100714" data-name="Trazado 100714" d="M234.473,247.432H221.631a1.007,1.007,0,0,1-1.007-1.008h0a1.007,1.007,0,0,1,1.007-1.007h12.842a1.007,1.007,0,0,1,1.007,1.007h0A1.007,1.007,0,0,1,234.473,247.432Z" transform="translate(-215.022 -236.473)" fill="#f0f4ff"/>
          <path id="Trazado_100715" data-name="Trazado 100715" d="M237.094,235.265h-5.569a1.008,1.008,0,0,1-1.007-1.008h0a1.008,1.008,0,0,1,1.007-1.007h5.569a1.007,1.007,0,0,1,1.007,1.007h0A1.007,1.007,0,0,1,237.094,235.265Z" transform="translate(-217.643 -233.25)" fill="#f0f4ff"/>
        </g>
        <path id="Trazado_100716" data-name="Trazado 100716" d="M160.642,421.043a6.379,6.379,0,0,0-3.276.9,6.87,6.87,0,0,0-13.656,1.526,5.3,5.3,0,0,0-.973-.091,5.247,5.247,0,1,0,0,10.493h17.9a6.414,6.414,0,1,0,0-12.828Z" transform="translate(-135.765 -162.565)" fill="#fff"/>
      </g>
      <g id="Grupo_53859" data-name="Grupo 53859" transform="translate(69.635 263.595)">
        <path id="Trazado_100717" data-name="Trazado 100717" d="M100.708,371.517a6.762,6.762,0,0,1,.092-2.885,28.578,28.578,0,0,0-.323-15.539c-3.434-10.722-17.351-20.218-17.351-20.218S86.9,348.7,90.01,355.434a84.864,84.864,0,0,0,8.458,13.5,6.6,6.6,0,0,1,1.214,2.772,115.425,115.425,0,0,1,1.919,22.239l1.045.041A116.514,116.514,0,0,0,100.708,371.517Z" transform="translate(-78.438 -332.874)" fill="#dee3fc"/>
        <path id="Trazado_100718" data-name="Trazado 100718" d="M118.65,364.868a125.274,125.274,0,0,0,4.05-19.037s-12.478,10.3-13.5,18.263a26.738,26.738,0,0,0,.851,11.1,7.591,7.591,0,0,1,.294,3.017,105.624,105.624,0,0,0-.257,20.847l.939-.108a104.038,104.038,0,0,1,.149-19.572,7.787,7.787,0,0,1,1.719-4.135A32.683,32.683,0,0,0,118.65,364.868Z" transform="translate(-85.283 -336.306)" fill="#b4c1ef"/>
        <path id="Trazado_100719" data-name="Trazado 100719" d="M132.024,345.278s-13.447,4.99-16.963,15.969a29.29,29.29,0,0,0-.293,16.058,5.517,5.517,0,0,1,0,2.736,123.2,123.2,0,0,0-3.2,25.887h1.07a122.363,122.363,0,0,1,3.091-25.329,9.5,9.5,0,0,1,1.595-3.405,85.843,85.843,0,0,0,8.456-13.549C128.96,356.746,132.024,345.278,132.024,345.278Z" transform="translate(-85.971 -336.159)" fill="#dee3fc"/>
        <path id="Trazado_100720" data-name="Trazado 100720" d="M99.075,394.357a37.3,37.3,0,0,0-3.105-12.2,4.167,4.167,0,0,1-.313-2.208,20.178,20.178,0,0,0-.314-6.563c-1.092-5.387-8.242-17.024-18.594-17.706a75.326,75.326,0,0,1,5.41,10.547C84.484,372.3,87.8,378.659,93.308,381.1a4.137,4.137,0,0,1,2.13,2.211,36.079,36.079,0,0,1,2.694,11.115Z" transform="translate(-76.749 -338.913)" fill="#b4c1ef"/>
        <g id="Grupo_53858" data-name="Grupo 53858" transform="translate(10.868 49.645)">
          <g id="Grupo_53857" data-name="Grupo 53857">
            <path id="Trazado_100721" data-name="Trazado 100721" d="M95.992,429.78h17.083l4.433-27.086a1.97,1.97,0,0,0-1.944-2.288H93.5a1.97,1.97,0,0,0-1.944,2.288Z" transform="translate(-91.533 -400.406)" fill="#dee3fc"/>
          </g>
        </g>
      </g>
      <line id="Línea_174" data-name="Línea 174" x2="478" transform="translate(49.89 342.615)" fill="none" stroke="#fff" stroke-linecap="round" stroke-miterlimit="10" stroke-width="1.114"/>
    </g>
  </g>
</svg>
