<svg xmlns="http://www.w3.org/2000/svg" width="48.931" height="48.928" viewBox="0 0 48.931 48.928">
  <g id="servidores" transform="translate(0 -0.011)">
    <g id="Grupo_53765" data-name="Grupo 53765" transform="translate(0 0.011)">
      <g id="Grupo_53764" data-name="Grupo 53764" transform="translate(0 0)">
        <path id="Trazado_100477" data-name="Trazado 100477" d="M273.33,405.323h-16.31a1.019,1.019,0,0,0,0,2.039h16.31a1.019,1.019,0,1,0,0-2.039Z" transform="translate(-231.535 -366.588)" fill="#ffa726"/>
        <path id="Trazado_100478" data-name="Trazado 100478" d="M273.33,447.989h-16.31a1.019,1.019,0,0,0,0,2.039h16.31a1.019,1.019,0,1,0,0-2.039Z" transform="translate(-231.535 -405.177)" fill="#ffa726"/>
        <path id="Trazado_100479" data-name="Trazado 100479" d="M45.725,405.323a3.058,3.058,0,1,0,3.058,3.058A3.062,3.062,0,0,0,45.725,405.323Zm0,4.078a1.019,1.019,0,1,1,1.019-1.019A1.02,1.02,0,0,1,45.725,409.4Z" transform="translate(-38.589 -366.588)" fill="#ffa726"/>
        <path id="Trazado_100480" data-name="Trazado 100480" d="M45.725,277.323a3.058,3.058,0,1,0,3.058,3.058A3.062,3.062,0,0,0,45.725,277.323Zm0,4.077a1.019,1.019,0,1,1,1.019-1.019A1.02,1.02,0,0,1,45.725,281.4Z" transform="translate(-38.589 -250.821)" fill="#ffa726"/>
        <path id="Trazado_100481" data-name="Trazado 100481" d="M273.33,191.989h-16.31a1.019,1.019,0,0,0,0,2.039h16.31a1.019,1.019,0,1,0,0-2.039Z" transform="translate(-231.535 -173.642)" fill="#ffa726"/>
        <path id="Trazado_100482" data-name="Trazado 100482" d="M48.931,19.377V15.3a5.052,5.052,0,0,0-.773-2.665c-.014-.029-.016-.061-.033-.088l-6.3-10.133a5.067,5.067,0,0,0-4.328-2.4H11.444a5.065,5.065,0,0,0-4.328,2.4L.811,12.547c-.01.016-.01.035-.02.053A5.056,5.056,0,0,0,0,15.3v4.078a5.078,5.078,0,0,0,2.071,4.078A5.081,5.081,0,0,0,0,27.532V31.61a5.078,5.078,0,0,0,2.071,4.078A5.081,5.081,0,0,0,0,39.765v4.078a5.1,5.1,0,0,0,5.1,5.1H43.834a5.1,5.1,0,0,0,5.1-5.1V39.765a5.078,5.078,0,0,0-2.071-4.078,5.078,5.078,0,0,0,2.072-4.077V27.532a5.078,5.078,0,0,0-2.071-4.078A5.075,5.075,0,0,0,48.931,19.377ZM8.846,3.491a3.037,3.037,0,0,1,2.6-1.443H37.491a3.037,3.037,0,0,1,2.6,1.443l4.206,6.759c-.153-.014-.3-.047-.459-.047H5.1c-.157,0-.3.033-.457.047ZM46.892,39.765v4.078A3.062,3.062,0,0,1,43.834,46.9H5.1a3.062,3.062,0,0,1-3.058-3.058V39.765A3.062,3.062,0,0,1,5.1,36.707H43.834A3.062,3.062,0,0,1,46.892,39.765Zm0-12.233V31.61a3.062,3.062,0,0,1-3.058,3.058H5.1A3.062,3.062,0,0,1,2.039,31.61V27.532A3.062,3.062,0,0,1,5.1,24.474H43.834A3.062,3.062,0,0,1,46.892,27.532Zm0-8.155a3.062,3.062,0,0,1-3.058,3.058H5.1a3.062,3.062,0,0,1-3.058-3.058V15.3A3.062,3.062,0,0,1,5.1,12.242H43.834A3.062,3.062,0,0,1,46.892,15.3v4.078Z" transform="translate(0 -0.011)" fill="#ffa726"/>
        <path id="Trazado_100483" data-name="Trazado 100483" d="M273.33,149.323h-16.31a1.019,1.019,0,0,0,0,2.039h16.31a1.019,1.019,0,1,0,0-2.039Z" transform="translate(-231.535 -135.054)" fill="#ffa726"/>
        <path id="Trazado_100484" data-name="Trazado 100484" d="M273.33,319.989h-16.31a1.019,1.019,0,0,0,0,2.039h16.31a1.019,1.019,0,1,0,0-2.039Z" transform="translate(-231.535 -289.409)" fill="#ffa726"/>
        <path id="Trazado_100485" data-name="Trazado 100485" d="M273.33,277.323h-16.31a1.019,1.019,0,0,0,0,2.039h16.31a1.019,1.019,0,1,0,0-2.039Z" transform="translate(-231.535 -250.821)" fill="#ffa726"/>
        <path id="Trazado_100486" data-name="Trazado 100486" d="M45.725,149.323a3.058,3.058,0,1,0,3.058,3.058A3.062,3.062,0,0,0,45.725,149.323Zm0,4.077a1.019,1.019,0,1,1,1.019-1.019A1.02,1.02,0,0,1,45.725,153.4Z" transform="translate(-38.589 -135.054)" fill="#ffa726"/>
      </g>
    </g>
  </g>
</svg>
