<svg xmlns="http://www.w3.org/2000/svg" width="45.124" height="48.929" viewBox="0 0 45.124 48.929">
  <g id="servidor" transform="translate(-19.906)">
    <g id="Grupo_53767" data-name="Grupo 53767" transform="translate(26.288 14.844)">
      <g id="Grupo_53766" data-name="Grupo 53766">
        <path id="Trazado_100487" data-name="Trazado 100487" d="M110.761,157.2a.717.717,0,0,0-.772-.657c-2.281.183-4.677.277-7.119.277a70.36,70.36,0,0,1-15.3-1.471.717.717,0,1,0-.328,1.4,71.8,71.8,0,0,0,15.625,1.509c2.481,0,4.915-.095,7.234-.281A.717.717,0,0,0,110.761,157.2Z" transform="translate(-86.691 -155.33)" fill="#ffa726"/>
      </g>
    </g>
    <g id="Grupo_53769" data-name="Grupo 53769" transform="translate(26.288 27.135)">
      <g id="Grupo_53768" data-name="Grupo 53768">
        <path id="Trazado_100488" data-name="Trazado 100488" d="M110.761,285.813a.717.717,0,0,0-.772-.657c-2.281.183-4.677.277-7.119.277a70.359,70.359,0,0,1-15.3-1.471.717.717,0,0,0-.328,1.4,71.8,71.8,0,0,0,15.625,1.509c2.481,0,4.915-.095,7.234-.281A.717.717,0,0,0,110.761,285.813Z" transform="translate(-86.691 -283.942)" fill="#ffa726"/>
      </g>
    </g>
    <g id="Grupo_53771" data-name="Grupo 53771" transform="translate(19.906)">
      <g id="Grupo_53770" data-name="Grupo 53770" transform="translate(0)">
        <path id="Trazado_100489" data-name="Trazado 100489" d="M65.025,5.641C64.873,2.212,55.6.871,51.588.452,50.352.323,49.055.22,47.736.145,46.021.049,44.248,0,42.467,0A81.472,81.472,0,0,0,29.811.917a.717.717,0,0,0,.228,1.416,80.037,80.037,0,0,1,12.428-.9c1.754,0,3.5.048,5.188.143,1.3.073,2.57.174,3.784.3a42.19,42.19,0,0,1,9.068,1.78c2.938,1.027,3.087,1.9,3.087,2.067,0,.558-1.23,1.786-5.841,2.843l-.386.086a73,73,0,0,1-14.9,1.363,73,73,0,0,1-14.9-1.363l-.386-.086c-4.569-1.048-5.818-2.262-5.84-2.827,0-.005,0-.011,0-.016s0-.01,0-.015c.012-.338.42-.768,1.127-1.184a15.566,15.566,0,0,1,3.885-1.443A.717.717,0,1,0,26,1.695c-4.042,1.037-6.091,2.393-6.091,4.031V43.2c0,1.756,2.34,3.183,6.955,4.241a73.231,73.231,0,0,0,15.606,1.485,73.215,73.215,0,0,0,15.606-1.485c4.615-1.058,6.955-2.485,6.955-4.241V5.763c0-.012,0-.025,0-.037A.671.671,0,0,0,65.025,5.641Zm-7.272,40.4a71.771,71.771,0,0,1-15.286,1.449,71.771,71.771,0,0,1-15.286-1.449c-4.611-1.057-5.841-2.284-5.841-2.843V32.89l.049.032.119.078.1.063.129.078.1.061.142.079.106.058.16.082.1.052c.067.033.136.065.205.1l.072.034q.141.065.29.129l.1.04.213.088.126.049.2.076.141.052.2.071.151.052.2.069.158.052.211.067.164.051.221.066.168.049.234.066.169.047.255.067.163.043.292.073.14.035q.22.053.447.105a73.223,73.223,0,0,0,15.606,1.485,73.222,73.222,0,0,0,15.606-1.485q.227-.052.447-.105l.14-.035.292-.073.163-.043.254-.067.169-.047.234-.066.168-.049.221-.066.164-.051.21-.067.158-.052.2-.069.151-.052.2-.071.141-.052.2-.076.126-.049.212-.088.1-.04q.149-.064.29-.129l.072-.034c.069-.032.139-.065.205-.1l.1-.052.16-.082.106-.058.141-.079.1-.061.129-.078.1-.063.119-.078.049-.032V43.2h0C63.594,43.761,62.364,44.988,57.753,46.046ZM63.56,30.885c-.226.613-1.628,1.711-5.807,2.669A71.771,71.771,0,0,1,42.467,35a71.772,71.772,0,0,1-15.286-1.449C23,32.6,21.6,31.5,21.375,30.885a.5.5,0,0,1-.034-.174V20.4l.047.031.122.081.1.061.132.079.1.06.143.08.105.057.159.082.1.053c.066.032.134.064.2.1l.075.036q.141.065.29.128l.1.042.207.086.131.051.192.074.145.053.193.07.154.054.2.067.161.053.208.066.166.051.219.065.169.05.233.066.17.047.252.067.165.043.291.073.14.035q.22.053.447.105a73.224,73.224,0,0,0,15.606,1.485,73.223,73.223,0,0,0,15.606-1.485q.227-.052.447-.105l.141-.035.291-.073.165-.043.252-.067.17-.047.233-.066.169-.05.219-.065.166-.051.208-.066.161-.053.2-.067.154-.054.193-.07.145-.053.192-.074.131-.051.206-.085.1-.042q.149-.064.29-.128l.075-.036c.068-.032.136-.064.2-.1l.1-.053.159-.082.105-.057.143-.079.1-.06.131-.079.1-.061.122-.081.047-.031V30.711h0A.507.507,0,0,1,63.56,30.885Zm-5.807-9.824A71.772,71.772,0,0,1,42.467,22.51a71.771,71.771,0,0,1-15.286-1.449C22.571,20,21.34,18.777,21.34,18.218V7.906l.047.031.122.081.1.061.132.079.1.06.143.08.105.057.159.082.1.053c.066.032.134.064.2.1l.075.036q.141.065.29.128l.1.042.207.086.131.051L23.548,9l.145.053.193.07.154.054.2.067L24.4,9.3l.208.066.166.051.219.065.169.05L25.4,9.6l.17.047.252.067.165.043.291.073.14.035q.22.053.447.105a73.222,73.222,0,0,0,15.606,1.485A73.222,73.222,0,0,0,58.073,9.967q.227-.052.447-.105l.141-.035.291-.073.165-.043.252-.067.17-.047.233-.066.169-.05.219-.065.166-.051.208-.066.161-.053.2-.067.154-.054.193-.07L61.386,9l.192-.074.131-.051.206-.085.1-.042q.149-.064.29-.128l.075-.036c.068-.032.136-.064.2-.1l.1-.053.159-.082.105-.057.143-.079.1-.06.131-.079.1-.061.122-.081.047-.031V18.218h0C63.594,18.777,62.364,20,57.753,21.061Z" transform="translate(-19.906 0)" fill="#ffa726"/>
      </g>
    </g>
    <g id="Grupo_53773" data-name="Grupo 53773" transform="translate(52.94 12.993)">
      <g id="Grupo_53772" data-name="Grupo 53772">
        <path id="Trazado_100490" data-name="Trazado 100490" d="M370.347,136.774a2.794,2.794,0,1,0,0,3.954A2.8,2.8,0,0,0,370.347,136.774Zm-1.014,2.94a1.361,1.361,0,1,1,.4-.963A1.352,1.352,0,0,1,369.333,139.713Z" transform="translate(-365.576 -135.956)" fill="#ffa726"/>
      </g>
    </g>
    <g id="Grupo_53775" data-name="Grupo 53775" transform="translate(52.94 25.321)">
      <g id="Grupo_53774" data-name="Grupo 53774">
        <path id="Trazado_100491" data-name="Trazado 100491" d="M370.347,265.777a2.794,2.794,0,1,0,0,3.954A2.8,2.8,0,0,0,370.347,265.777Zm-1.014,2.94a1.361,1.361,0,1,1,.4-.963A1.352,1.352,0,0,1,369.333,268.716Z" transform="translate(-365.576 -264.959)" fill="#ffa726"/>
      </g>
    </g>
    <g id="Grupo_53777" data-name="Grupo 53777" transform="translate(52.94 37.667)">
      <g id="Grupo_53776" data-name="Grupo 53776">
        <path id="Trazado_100492" data-name="Trazado 100492" d="M370.347,394.975a2.794,2.794,0,1,0,0,3.954A2.8,2.8,0,0,0,370.347,394.975Zm-1.014,2.94a1.361,1.361,0,1,1,.4-.963A1.352,1.352,0,0,1,369.333,397.914Z" transform="translate(-365.576 -394.157)" fill="#ffa726"/>
      </g>
    </g>
    <g id="Grupo_53779" data-name="Grupo 53779" transform="translate(45.82 40.868)">
      <g id="Grupo_53778" data-name="Grupo 53778">
        <path id="Trazado_100493" data-name="Trazado 100493" d="M295.617,428.31a.717.717,0,0,0-.772-.657c-1,.081-2.039.145-3.08.19a.717.717,0,0,0,.031,1.434h.032c1.058-.046,2.112-.111,3.133-.193A.717.717,0,0,0,295.617,428.31Z" transform="translate(-291.079 -427.65)" fill="#ffa726"/>
      </g>
    </g>
    <g id="Grupo_53781" data-name="Grupo 53781" transform="translate(26.288 39.657)">
      <g id="Grupo_53780" data-name="Grupo 53780" transform="translate(0)">
        <path id="Trazado_100494" data-name="Trazado 100494" d="M103.094,416.472h-.223A70.359,70.359,0,0,1,87.573,415a.717.717,0,1,0-.328,1.4,71.8,71.8,0,0,0,15.625,1.509h.225a.717.717,0,0,0,0-1.434Z" transform="translate(-86.692 -414.982)" fill="#ffa726"/>
      </g>
    </g>
  </g>
</svg>
