<svg xmlns="http://www.w3.org/2000/svg" width="51" height="50.264" viewBox="0 0 51 50.264">
  <g id="operating_system" data-name="operating system" transform="translate(-2 -2.003)">
    <path id="Trazado_100495" data-name="Trazado 100495" d="M47.24,15.405h-.176a9.041,9.041,0,0,0,1.014-4.189A9.216,9.216,0,0,0,29.923,8.979a7.111,7.111,0,0,0-12.005,5.169,2.938,2.938,0,0,0,.335,1.282,2.375,2.375,0,0,0-.352.067c-1.466-1.206-4.574-1.768-7.523-1.768C6.34,13.73,2,14.777,2,17.081v15.08c0,2.3,4.34,3.351,8.378,3.351s8.378-1.047,8.378-3.351v-6.7H47.24a5.027,5.027,0,1,0,0-10.053ZM17.08,32.161c0,.427-2.3,1.676-6.7,1.676s-6.7-1.248-6.7-1.676V29.245a15.806,15.806,0,0,0,6.7,1.24,15.806,15.806,0,0,0,6.7-1.24Zm0-5.027c0,.427-2.3,1.676-6.7,1.676s-6.7-1.248-6.7-1.676V24.219a15.806,15.806,0,0,0,6.7,1.24,15.806,15.806,0,0,0,6.7-1.24Zm0-5.027c0,.427-2.3,1.676-6.7,1.676s-6.7-1.248-6.7-1.676V19.192a15.806,15.806,0,0,0,6.7,1.24,15.806,15.806,0,0,0,6.7-1.24Zm-6.7-3.351c-4.4,0-6.7-1.248-6.7-1.676s2.3-1.676,6.7-1.676,6.7,1.248,6.7,1.676S14.776,18.756,10.378,18.756ZM47.24,23.783H18.756v-6.7h.838a.85.85,0,0,0,.687-.352.867.867,0,0,0,.1-.771,5.788,5.788,0,0,0-.394-.829,2.57,2.57,0,0,1-.394-.98,5.439,5.439,0,0,1,10.171-2.689.838.838,0,0,0,1.567-.4A7.54,7.54,0,1,1,44.886,15.74a.838.838,0,0,0,.67,1.34H47.24a3.351,3.351,0,1,1,0,6.7Z" fill="#ffa726"/>
    <path id="Trazado_100496" data-name="Trazado 100496" d="M55.906,52.408a.827.827,0,0,0-.637-.3h-.737V34.513A2.521,2.521,0,0,0,52.018,32H25.209A2.521,2.521,0,0,0,22.7,34.513V52.107h-.737a.838.838,0,0,0-.821.98l.385,2.145a.3.3,0,0,0,.017.092,2.531,2.531,0,0,0,2.413,1.81H53.275a2.531,2.531,0,0,0,2.413-1.81.3.3,0,0,0,.017-.092l.385-2.145a.826.826,0,0,0-.184-.679Zm-31.534-17.9a.838.838,0,0,1,.838-.838H52.018a.838.838,0,0,1,.838.838V52.107H41.127a.838.838,0,0,0-.838.838H36.938a.838.838,0,0,0-.838-.838H24.371Zm29.7,20.375a.85.85,0,0,1-.8.57H23.953a.85.85,0,0,1-.8-.57l-.193-1.106h12.3a.838.838,0,0,0,.838.838h5.027a.838.838,0,0,0,.838-.838h12.3Z" transform="translate(-3.102 -4.866)" fill="#ffa726"/>
    <path id="Trazado_100497" data-name="Trazado 100497" d="M11,44h1.676v1.676H11Z" transform="translate(-1.46 -6.813)" fill="#ffa726"/>
    <path id="Trazado_100498" data-name="Trazado 100498" d="M12.676,48H11v9.216a.838.838,0,0,0,.838.838H17.7V56.378H12.676Z" transform="translate(-1.46 -7.461)" fill="#ffa726"/>
    <path id="Trazado_100499" data-name="Trazado 100499" d="M44.7,44.351A3.351,3.351,0,1,0,41.351,47.7,3.351,3.351,0,0,0,44.7,44.351Zm-5.027,0a1.676,1.676,0,1,1,1.676,1.676A1.676,1.676,0,0,1,39.676,44.351Z" transform="translate(-5.84 -6.326)" fill="#ffa726"/>
    <path id="Trazado_100500" data-name="Trazado 100500" d="M38.864,51.08h3.351a.838.838,0,0,0,.813-.635l.14-.56.5.3a.838.838,0,0,0,1.023-.127l2.37-2.369a.838.838,0,0,0,.127-1.024l-.3-.5.56-.14a.838.838,0,0,0,.635-.813V41.864a.838.838,0,0,0-.635-.813l-.56-.14.3-.5a.838.838,0,0,0-.127-1.024l-2.37-2.369a.838.838,0,0,0-1.023-.127l-.5.3-.14-.56A.838.838,0,0,0,42.216,36H38.864a.838.838,0,0,0-.813.635l-.14.56-.5-.3a.838.838,0,0,0-1.023.127l-2.37,2.369a.838.838,0,0,0-.127,1.024l.3.5-.56.14a.838.838,0,0,0-.635.813v3.351a.838.838,0,0,0,.635.813l.56.14-.3.5a.838.838,0,0,0,.127,1.024l2.37,2.369a.838.838,0,0,0,1.023.127l.5-.3.14.56A.838.838,0,0,0,38.864,51.08Zm-1.748-2.671L35.67,46.964l.543-.9a.838.838,0,0,0-.515-1.244l-1.022-.251V42.519l1.022-.251a.838.838,0,0,0,.515-1.244l-.543-.9,1.446-1.445.9.542a.838.838,0,0,0,1.244-.515l.251-1.022h2.043l.251,1.022a.838.838,0,0,0,1.244.515l.9-.542L45.4,40.12l-.542.9a.838.838,0,0,0,.515,1.244l1.022.251v2.043l-1.022.251a.838.838,0,0,0-.515,1.244l.542.9-1.445,1.445-.9-.542a.838.838,0,0,0-1.246.515L41.555,49.4H39.519l-.251-1.022a.838.838,0,0,0-1.244-.515Z" transform="translate(-5.029 -5.515)" fill="#ffa726"/>
    <path id="Trazado_100501" data-name="Trazado 100501" d="M53,44h3.351v1.676H53Z" transform="translate(-8.273 -6.813)" fill="#ffa726"/>
    <path id="Trazado_100502" data-name="Trazado 100502" d="M27,44h3.351v1.676H27Z" transform="translate(-4.055 -6.813)" fill="#ffa726"/>
    <path id="Trazado_100503" data-name="Trazado 100503" d="M28.775,13.676V12a3.77,3.77,0,0,0-3.745,3.332l1.665.194a2.094,2.094,0,0,1,2.08-1.85Z" transform="translate(-3.736 -1.622)" fill="#ffa726"/>
    <path id="Trazado_100504" data-name="Trazado 100504" d="M50.189,11.864h1.676A5.871,5.871,0,0,0,46,6V7.676a4.194,4.194,0,0,1,4.189,4.189Z" transform="translate(-7.138 -0.648)" fill="#ffa726"/>
  </g>
</svg>
