<svg xmlns="http://www.w3.org/2000/svg" width="62" height="62" viewBox="0 0 62 62">
  <g id="actualizacion-del-sistema" transform="translate(-1 -1)">
    <path id="Trazado_100505" data-name="Trazado 100505" d="M57.93,30.074c.047.633.07,1.28.07,1.926h2c0-.694-.025-1.392-.076-2.074Z" fill="#ffa726"/>
    <path id="Trazado_100506" data-name="Trazado 100506" d="M32,1A30.778,30.778,0,0,0,10.8,9.384L9.707,8.293a1,1,0,0,0-1.7.583l-1,8a1,1,0,0,0,1.267,1.085l7-2a1,1,0,0,0,.432-1.668l-1.371-1.372A25.818,25.818,0,0,1,32,6,26.139,26.139,0,0,1,57.717,28.147l1.979-.294A28.151,28.151,0,0,0,32,4a27.818,27.818,0,0,0-19.8,8.2,1,1,0,0,0,0,1.414l.89.89L9.18,15.623l.559-4.471.342.341a1,1,0,0,0,1.414,0A29,29,0,0,1,61,32h2A31.035,31.035,0,0,0,32,1Z" fill="#ffa726"/>
    <path id="Trazado_100507" data-name="Trazado 100507" d="M55.726,46.039l-7,2a1,1,0,0,0-.432,1.668l1.371,1.372A25.822,25.822,0,0,1,32,58,26.139,26.139,0,0,1,6.283,35.853L4.3,36.147A28.151,28.151,0,0,0,32,60a27.818,27.818,0,0,0,19.8-8.2,1,1,0,0,0,0-1.414l-.89-.89,3.911-1.118-.559,4.471-.342-.341a1,1,0,0,0-1.414,0A29,29,0,0,1,3,32H1A31,31,0,0,0,53.2,54.616l1.091,1.091a1,1,0,0,0,1.7-.583l1-8a1,1,0,0,0-1.266-1.085Z" fill="#ffa726"/>
    <path id="Trazado_100508" data-name="Trazado 100508" d="M6.07,33.926C6.023,33.293,6,32.646,6,32H4c0,.694.025,1.392.076,2.074Z" fill="#ffa726"/>
    <path id="Trazado_100509" data-name="Trazado 100509" d="M11,34V44a1,1,0,0,0,1,1H52a1,1,0,0,0,1-1V34a1,1,0,0,0-1-1H12A1,1,0,0,0,11,34Zm2,1H51v8H13Z" fill="#ffa726"/>
    <path id="Trazado_100510" data-name="Trazado 100510" d="M14,36h2v6H14Z" fill="#ffa726"/>
    <path id="Trazado_100511" data-name="Trazado 100511" d="M17,36h2v6H17Z" fill="#ffa726"/>
    <path id="Trazado_100512" data-name="Trazado 100512" d="M20,36h2v6H20Z" fill="#ffa726"/>
    <path id="Trazado_100513" data-name="Trazado 100513" d="M23,36h2v6H23Z" fill="#ffa726"/>
    <path id="Trazado_100514" data-name="Trazado 100514" d="M26,36h2v6H26Z" fill="#ffa726"/>
    <path id="Trazado_100515" data-name="Trazado 100515" d="M29,36h2v6H29Z" fill="#ffa726"/>
    <path id="Trazado_100516" data-name="Trazado 100516" d="M32,36h2v6H32Z" fill="#ffa726"/>
    <path id="Trazado_100517" data-name="Trazado 100517" d="M35,36h2v6H35Z" fill="#ffa726"/>
    <path id="Trazado_100518" data-name="Trazado 100518" d="M16,17a1,1,0,0,0-1,1v4a1,1,0,0,0,1,1h1.466a9.858,9.858,0,0,0,.673,1.619L17.1,25.657a1,1,0,0,0,0,1.414L19.929,29.9a1,1,0,0,0,1.414,0l1.038-1.038A9.89,9.89,0,0,0,24,29.534V31a1,1,0,0,0,1,1h4a1,1,0,0,0,1-1V29.534a9.9,9.9,0,0,0,1.619-.672L32.657,29.9a1.029,1.029,0,0,0,1.414,0L36.9,27.071a1,1,0,0,0,0-1.414l-1.038-1.038A9.945,9.945,0,0,0,36.534,23H38a1,1,0,0,0,1-1V18a1,1,0,0,0-1-1H36.534a9.858,9.858,0,0,0-.673-1.619L36.9,14.343a1,1,0,0,0,0-1.414L34.071,10.1a1,1,0,0,0-1.414,0l-1.038,1.038A9.89,9.89,0,0,0,30,10.466V9a1,1,0,0,0-1-1H25a1,1,0,0,0-1,1v1.466a9.9,9.9,0,0,0-1.619.672L21.343,10.1a1.029,1.029,0,0,0-1.414,0L17.1,12.929a1,1,0,0,0,0,1.414l1.038,1.038A9.946,9.946,0,0,0,17.466,17Zm2.23,2a1,1,0,0,0,.975-.778,7.974,7.974,0,0,1,1.027-2.474,1,1,0,0,0-.139-1.24l-.872-.872,1.414-1.415.872.872a1,1,0,0,0,1.24.139A7.936,7.936,0,0,1,25.221,12.2,1,1,0,0,0,26,11.23V10h2v1.23a1,1,0,0,0,.778.975,7.936,7.936,0,0,1,2.474,1.027,1,1,0,0,0,1.24-.139l.872-.872,1.414,1.415-.872.872a1,1,0,0,0-.139,1.24,7.964,7.964,0,0,1,1.027,2.474A1,1,0,0,0,35.77,19H37v2H35.77a1,1,0,0,0-.975.778,7.974,7.974,0,0,1-1.027,2.474,1,1,0,0,0,.139,1.24l.872.872-1.414,1.415-.872-.872a1,1,0,0,0-1.24-.139A7.936,7.936,0,0,1,28.779,27.8,1,1,0,0,0,28,28.77V30H26V28.77a1,1,0,0,0-.778-.975,7.936,7.936,0,0,1-2.474-1.027,1,1,0,0,0-1.24.139l-.872.872-1.414-1.415.872-.872a1,1,0,0,0,.139-1.24,7.964,7.964,0,0,1-1.027-2.474A1,1,0,0,0,18.23,21H17V19Z" fill="#ffa726"/>
    <path id="Trazado_100519" data-name="Trazado 100519" d="M27,27a7,7,0,1,0-7-7A7.008,7.008,0,0,0,27,27Zm0-12a5,5,0,1,1-5,5A5.006,5.006,0,0,1,27,15Z" fill="#ffa726"/>
    <path id="Trazado_100520" data-name="Trazado 100520" d="M39,23v2h1.08A6.947,6.947,0,0,0,41.4,28.184l-.766.766,1.414,1.414.766-.766A6.957,6.957,0,0,0,46,30.92V32h2V30.92A6.947,6.947,0,0,0,51.184,29.6l.766.766,1.414-1.414-.766-.766A6.957,6.957,0,0,0,53.92,25H55V23H53.92A6.947,6.947,0,0,0,52.6,19.816l.766-.766L51.95,17.636l-.766.766A6.947,6.947,0,0,0,48,17.08V16H46v1.08A6.947,6.947,0,0,0,42.816,18.4l-.766-.766L40.636,19.05l.766.766A6.947,6.947,0,0,0,40.08,23Zm3,1a5,5,0,1,1,5,5A5.006,5.006,0,0,1,42,24Z" fill="#ffa726"/>
    <path id="Trazado_100521" data-name="Trazado 100521" d="M47,28a4,4,0,1,0-4-4A4,4,0,0,0,47,28Zm0-6a2,2,0,1,1-2,2A2,2,0,0,1,47,22Z" fill="#ffa726"/>
  </g>
</svg>
